# 
# Wavefront OBJ file
# Created with Kaydara FBX
# 
mtllib 001 #220430.mtl

g 001
v -0.000060 0.040064 0.019396
v -0.000060 -0.026974 0.020363
v -0.033891 0.038566 0.019396
v -0.059356 0.084162 0.018055
v -0.000060 0.086788 0.018055
v -0.125794 0.064230 0.018055
v -0.073699 0.029365 0.019396
v -0.000060 -0.026974 0.020363
v -0.198252 0.018263 0.018055
v -0.118003 0.009452 0.019396
v -0.000060 -0.026974 0.020363
v -0.231929 -0.027053 0.018055
v -0.153056 -0.023855 0.019396
v -0.000060 -0.026974 0.020363
v -0.170999 -0.048536 0.019194
v -0.000060 -0.026974 0.020363
v -0.256884 -0.077135 0.017046
v -0.085420 0.126808 0.014711
v -0.000060 0.132475 0.014711
v -0.174398 0.095909 0.014711
v -0.269855 0.032268 0.014711
v -0.313857 -0.032274 0.014711
v -0.339938 -0.118544 0.013221
v -0.231073 0.124924 0.008878
v -0.118841 0.170870 0.008878
v -0.000060 0.185137 0.008878
v -0.000060 0.132475 0.014711
v -0.331028 0.036333 0.008878
v -0.384762 -0.065197 0.008878
v -0.422017 -0.176370 0.008049
v -0.288010 0.146966 -0.000000
v -0.154506 0.216024 -0.000000
v -0.000060 0.185137 0.008878
v -0.000060 0.237918 -0.000000
v -0.388930 0.044826 -0.000000
v -0.465682 -0.102302 -0.000000
v -0.490202 -0.298455 -0.000047
v -0.231073 0.124924 -0.008878
v -0.118841 0.170870 -0.008878
v -0.000060 0.237918 -0.000000
v -0.000051 0.185137 -0.008878
v -0.331028 0.036333 -0.008878
v -0.384762 -0.065197 -0.008878
v -0.424164 -0.182131 -0.008013
v -0.174398 0.095909 -0.014711
v -0.085420 0.126808 -0.014711
v -0.000051 0.185137 -0.008878
v -0.000060 0.132475 -0.014711
v -0.269855 0.032268 -0.014711
v -0.313857 -0.032274 -0.014711
v -0.342895 -0.125355 -0.013118
v -0.059356 0.084162 -0.018056
v -0.000060 0.086788 -0.018056
v -0.125794 0.064230 -0.018056
v -0.198252 0.018263 -0.018056
v -0.231929 -0.027053 -0.018056
v -0.260061 -0.083512 -0.016918
v -0.033891 0.038566 -0.019396
v -0.000060 0.040064 -0.019396
v -0.073699 0.029365 -0.019396
v -0.118003 0.009452 -0.019396
v -0.153056 -0.023855 -0.019396
v -0.175254 -0.054390 -0.019146
v -0.000060 -0.028735 -0.020394
v -0.000060 -0.028735 -0.020394
v -0.000060 -0.028735 -0.020394
v -0.000060 -0.028735 -0.020394
v -0.000060 -0.028735 -0.020394
v 0.033772 0.038566 -0.019396
v -0.000060 0.086788 -0.018056
v 0.059237 0.084162 -0.018056
v -0.000060 0.132475 -0.014711
v 0.085301 0.126808 -0.014711
v 0.118722 0.170870 -0.008878
v 0.125674 0.064230 -0.018056
v 0.174278 0.095909 -0.014711
v 0.118722 0.170870 -0.008878
v 0.230953 0.124924 -0.008878
v 0.073579 0.029365 -0.019396
v 0.117884 0.009452 -0.019396
v 0.198132 0.018263 -0.018056
v 0.174278 0.095909 -0.014711
v 0.269735 0.032268 -0.014711
v 0.154387 0.216024 -0.000000
v 0.230953 0.124924 -0.008878
v 0.154387 0.216024 -0.000000
v 0.287891 0.146966 -0.000000
v 0.287891 0.146966 -0.000000
v 0.118722 0.170870 0.008878
v 0.230953 0.124924 0.008878
v 0.085301 0.126808 0.014711
v 0.174278 0.095909 0.014711
v 0.059237 0.084162 0.018055
v 0.033772 0.038566 0.019396
v 0.125674 0.064230 0.018055
v 0.033772 0.038566 0.019396
v 0.073579 0.029365 0.019396
v 0.198132 0.018263 0.018055
v 0.117884 0.009452 0.019396
v 0.269735 0.032268 0.014711
v 0.174278 0.095909 0.014711
v 0.073579 0.029365 0.019396
v 0.117884 0.009452 0.019396
v 0.152937 -0.023855 0.019396
v 0.231810 -0.027053 0.018055
v 0.198132 0.018263 0.018055
v 0.170879 -0.048536 0.019194
v 0.256764 -0.077135 0.017046
v 0.313737 -0.032274 0.014711
v 0.269735 0.032268 0.014711
v 0.231810 -0.027053 0.018055
v 0.256764 -0.077135 0.017046
v 0.231810 -0.027053 0.018055
v 0.339819 -0.118544 0.013221
v 0.384642 -0.065197 0.008878
v 0.330909 0.036333 0.008878
v 0.313737 -0.032274 0.014711
v 0.339819 -0.118544 0.013221
v 0.313737 -0.032274 0.014711
v 0.421898 -0.176370 0.008049
v 0.465562 -0.102302 -0.000000
v 0.388810 0.044826 -0.000000
v 0.384642 -0.065197 0.008878
v 0.421898 -0.176370 0.008049
v 0.384642 -0.065197 0.008878
v 0.490082 -0.298455 -0.000047
v 0.384642 -0.065197 -0.008878
v 0.330909 0.036333 -0.008878
v 0.465562 -0.102302 -0.000000
v 0.424044 -0.182131 -0.008013
v 0.490082 -0.298455 -0.000047
v 0.342776 -0.125355 -0.013118
v 0.313737 -0.032274 -0.014711
v 0.269735 0.032268 -0.014711
v 0.384642 -0.065197 -0.008878
v 0.259941 -0.083512 -0.016918
v 0.231810 -0.027053 -0.018056
v 0.198132 0.018263 -0.018056
v 0.313737 -0.032274 -0.014711
v 0.175135 -0.054390 -0.019146
v 0.152936 -0.023855 -0.019396
v 0.231810 -0.027053 -0.018056
v -0.000060 0.086289 0.000062
v -0.170999 -0.048536 0.019194
v -0.000060 -0.026974 0.020363
v -0.000060 0.086289 0.000062
v -0.173124 0.026442 0.000048
v -0.256884 -0.077135 0.017046
v -0.170999 -0.048536 0.019194
v -0.258472 -0.018358 0.000059
v -0.339938 -0.118544 0.013221
v -0.256884 -0.077135 0.017046
v -0.341416 -0.075942 0.000060
v -0.341416 -0.075942 0.000060
v -0.422017 -0.176370 0.008049
v -0.339938 -0.118544 0.013221
v -0.423085 -0.149221 0.000060
v -0.490202 -0.298455 -0.000047
v -0.000060 0.086289 0.000062
v -0.175254 -0.054390 -0.019146
v -0.173124 0.026442 0.000048
v -0.000060 0.086289 0.000062
v -0.000060 -0.028735 -0.020394
v -0.260061 -0.083512 -0.016918
v -0.173124 0.026442 0.000048
v -0.258472 -0.018358 0.000059
v -0.342895 -0.125355 -0.013118
v -0.341416 -0.075942 0.000060
v -0.341416 -0.075942 0.000060
v -0.424164 -0.182131 -0.008013
v -0.423085 -0.149221 0.000060
v -0.342895 -0.125355 -0.013118
v -0.490202 -0.298455 -0.000047
v 0.330909 0.036333 0.008878
v 0.230953 0.124924 0.008878
v 0.269735 0.032268 0.014711
v 0.388810 0.044826 -0.000000
v 0.287891 0.146966 -0.000000
v 0.330909 0.036333 0.008878
v 0.330909 0.036333 -0.008878
v 0.230953 0.124924 -0.008878
v 0.388810 0.044826 -0.000000
v 0.269735 0.032268 -0.014711
v 0.330909 0.036333 -0.008878
v 0.154387 0.216024 -0.000000
v 0.170879 -0.048536 0.019194
v -0.000060 0.086289 0.000062
v -0.000060 -0.026974 0.020363
v -0.000060 0.086289 0.000062
v 0.173004 0.026442 0.000048
v 0.256764 -0.077135 0.017046
v 0.173004 0.026442 0.000048
v 0.170879 -0.048536 0.019194
v 0.258353 -0.018358 0.000059
v 0.339819 -0.118544 0.013221
v 0.258353 -0.018358 0.000059
v 0.256764 -0.077135 0.017046
v 0.341296 -0.075942 0.000060
v 0.421898 -0.176370 0.008049
v 0.341296 -0.075942 0.000060
v 0.339819 -0.118544 0.013221
v 0.422965 -0.149221 0.000060
v 0.490082 -0.298455 -0.000047
v 0.175135 -0.054390 -0.019146
v -0.000060 0.086289 0.000062
v 0.173004 0.026442 0.000048
v -0.000060 0.086289 0.000062
v -0.000060 -0.028735 -0.020394
v 0.259941 -0.083512 -0.016918
v 0.258353 -0.018358 0.000059
v 0.175135 -0.054390 -0.019146
v 0.342776 -0.125355 -0.013118
v 0.341296 -0.075942 0.000060
v 0.424044 -0.182131 -0.008013
v 0.341296 -0.075942 0.000060
v 0.422965 -0.149221 0.000060
v 0.342776 -0.125355 -0.013118
v 0.490082 -0.298455 -0.000047
vt 0.000000 0.900000
vt 0.000995 0.994231
vt 0.050000 0.900000
vt 0.050000 0.800000
vt 0.000000 0.800000
vt 0.100000 0.800000
vt 0.100000 0.900000
vt 0.050479 0.997051
vt 0.150000 0.800000
vt 0.150000 0.900000
vt 0.100307 0.998429
vt 0.200000 0.800000
vt 0.200000 0.900000
vt 0.159115 0.981770
vt 0.240414 0.900000
vt 0.200000 0.981770
vt 0.244353 0.800000
vt 0.050000 0.700000
vt 0.000000 0.700000
vt 0.100000 0.700000
vt 0.150000 0.700000
vt 0.200000 0.700000
vt 0.246776 0.700000
vt 0.100000 0.600000
vt 0.050000 0.600000
vt 0.000000 0.600000
vt 0.000000 0.700000
vt 0.150000 0.600000
vt 0.200000 0.600000
vt 0.247958 0.600000
vt 0.100000 0.500000
vt 0.050000 0.500000
vt 0.000000 0.600000
vt 0.000000 0.500000
vt 0.150000 0.500000
vt 0.200000 0.500000
vt 0.249372 0.499411
vt 0.100000 0.400000
vt 0.050000 0.400000
vt 0.000000 0.500000
vt 0.000000 0.400000
vt 0.150000 0.400000
vt 0.200000 0.400000
vt 0.250000 0.400000
vt 0.100000 0.300000
vt 0.050000 0.300000
vt 0.000000 0.400000
vt 0.000000 0.300000
vt 0.150000 0.300000
vt 0.200000 0.300000
vt 0.250000 0.300000
vt 0.050000 0.200000
vt 0.000000 0.200000
vt 0.100000 0.200000
vt 0.150000 0.200000
vt 0.200000 0.200000
vt 0.250000 0.200000
vt 0.050000 0.100000
vt 0.000000 0.100000
vt 0.100000 0.100000
vt 0.150000 0.100000
vt 0.200000 0.100000
vt 0.250000 0.100000
vt 0.000000 -0.000000
vt 0.050000 -0.000000
vt 0.100000 -0.000000
vt 0.150000 -0.000000
vt 0.200000 -0.000000
vt 0.050000 0.100000
vt 0.000000 0.200000
vt 0.050000 0.200000
vt 0.000000 0.300000
vt 0.050000 0.300000
vt 0.050000 0.400000
vt 0.100000 0.200000
vt 0.100000 0.300000
vt 0.050000 0.400000
vt 0.100000 0.400000
vt 0.100000 0.100000
vt 0.150000 0.100000
vt 0.150000 0.200000
vt 0.100000 0.300000
vt 0.150000 0.300000
vt 0.050000 0.500000
vt 0.100000 0.400000
vt 0.050000 0.500000
vt 0.100000 0.500000
vt 0.100000 0.500000
vt 0.050000 0.600000
vt 0.100000 0.600000
vt 0.050000 0.700000
vt 0.100000 0.700000
vt 0.050000 0.800000
vt 0.050000 0.900000
vt 0.100000 0.800000
vt 0.050000 0.900000
vt 0.100000 0.900000
vt 0.150000 0.800000
vt 0.150000 0.900000
vt 0.150000 0.700000
vt 0.100000 0.700000
vt 0.100000 0.900000
vt 0.150000 0.900000
vt 0.200000 0.900000
vt 0.200000 0.800000
vt 0.150000 0.800000
vt 0.240414 0.900000
vt 0.244353 0.800000
vt 0.200000 0.700000
vt 0.150000 0.700000
vt 0.200000 0.800000
vt 0.244353 0.800000
vt 0.200000 0.800000
vt 0.246776 0.700000
vt 0.200000 0.600000
vt 0.150000 0.600000
vt 0.200000 0.700000
vt 0.246776 0.700000
vt 0.200000 0.700000
vt 0.247958 0.600000
vt 0.200000 0.500000
vt 0.150000 0.500000
vt 0.200000 0.600000
vt 0.247958 0.600000
vt 0.200000 0.600000
vt 0.249372 0.499411
vt 0.200000 0.400000
vt 0.150000 0.400000
vt 0.200000 0.500000
vt 0.250000 0.400000
vt 0.249372 0.499411
vt 0.250000 0.300000
vt 0.200000 0.300000
vt 0.150000 0.300000
vt 0.200000 0.400000
vt 0.250000 0.200000
vt 0.200000 0.200000
vt 0.150000 0.200000
vt 0.200000 0.300000
vt 0.250000 0.100000
vt 0.200000 0.100000
vt 0.200000 0.200000
vt 0.200000 0.990851
vt 0.240414 0.900000
vt 0.200000 0.981770
vt 0.200000 0.990851
vt 0.245201 0.900000
vt 0.244353 0.800000
vt 0.240414 0.900000
vt 0.247177 0.800000
vt 0.246776 0.700000
vt 0.244353 0.800000
vt 0.248387 0.700000
vt 0.248387 0.700000
vt 0.247958 0.600000
vt 0.246776 0.700000
vt 0.248974 0.600000
vt 0.249372 0.499411
vt 0.200000 0.990851
vt 0.250000 0.900000
vt 0.245201 0.900000
vt 0.200000 0.990851
vt 0.200000 1.000000
vt 0.250000 0.800000
vt 0.245201 0.900000
vt 0.247177 0.800000
vt 0.250000 0.700000
vt 0.248387 0.700000
vt 0.248387 0.700000
vt 0.250000 0.600000
vt 0.248974 0.600000
vt 0.250000 0.700000
vt 0.249372 0.499411
vt 0.150000 0.600000
vt 0.100000 0.600000
vt 0.150000 0.700000
vt 0.150000 0.500000
vt 0.100000 0.500000
vt 0.150000 0.600000
vt 0.150000 0.400000
vt 0.100000 0.400000
vt 0.150000 0.500000
vt 0.150000 0.300000
vt 0.150000 0.400000
vt 0.050000 0.500000
vt 0.240414 0.900000
vt 0.200000 0.990851
vt 0.200000 0.981770
vt 0.200000 0.990851
vt 0.245201 0.900000
vt 0.244353 0.800000
vt 0.245201 0.900000
vt 0.240414 0.900000
vt 0.247177 0.800000
vt 0.246776 0.700000
vt 0.247177 0.800000
vt 0.244353 0.800000
vt 0.248387 0.700000
vt 0.247958 0.600000
vt 0.248387 0.700000
vt 0.246776 0.700000
vt 0.248974 0.600000
vt 0.249372 0.499411
vt 0.250000 0.900000
vt 0.200000 0.990851
vt 0.245201 0.900000
vt 0.200000 0.990851
vt 0.200000 1.000000
vt 0.250000 0.800000
vt 0.247177 0.800000
vt 0.250000 0.900000
vt 0.250000 0.700000
vt 0.248387 0.700000
vt 0.250000 0.600000
vt 0.248387 0.700000
vt 0.248974 0.600000
vt 0.250000 0.700000
vt 0.249372 0.499411
vn 0.000639 -0.014424 -0.999896
vn 0.000639 -0.014424 -0.999896
vn 0.001007 -0.079760 -0.996814
vn 0.006038 -0.159857 -0.987122
vn 0.001270 -0.028677 -0.999588
vn 0.015840 -0.141480 -0.989814
vn 0.002801 -0.108025 -0.994144
vn 0.003047 -0.013181 -0.999908
vn 0.025867 -0.123854 -0.991963
vn 0.010054 -0.062024 -0.998024
vn 0.004860 -0.010812 -0.999930
vn 0.033129 -0.040183 -0.998643
vn 0.012219 -0.025836 -0.999592
vn 0.006188 -0.006512 -0.999960
vn 0.016301 -0.008929 -0.999827
vn 0.006393 0.003539 -0.999973
vn 0.040707 -0.001589 -0.999170
vn 0.015428 -0.290143 -0.956859
vn 0.004847 -0.073012 -0.997319
vn 0.035900 -0.298434 -0.953755
vn 0.063787 -0.236590 -0.969514
vn 0.075023 -0.121964 -0.989695
vn 0.079703 -0.070107 -0.994350
vn 0.068066 -0.389011 -0.918715
vn 0.030928 -0.409719 -0.911687
vn 0.013222 -0.110080 -0.993835
vn 0.008301 -0.125042 -0.992117
vn 0.106900 -0.307911 -0.945390
vn 0.112569 -0.168358 -0.979277
vn 0.117908 -0.136570 -0.983588
vn 0.253906 -0.967129 -0.013874
vn 0.113601 -0.993506 -0.006313
vn 0.023507 -0.165825 -0.985875
vn 0.023507 -0.165825 -0.985875
vn 0.452119 -0.891957 -0.001390
vn 0.607739 -0.794137 0.000042
vn 0.612072 -0.788046 0.065964
vn 0.069247 -0.391003 0.917781
vn 0.027388 -0.417468 0.908279
vn 0.019917 -0.165835 0.985952
vn 0.019917 -0.165835 0.985952
vn 0.110294 -0.293458 0.949588
vn 0.112219 -0.166076 0.979707
vn 0.117227 -0.136639 0.983660
vn 0.038481 -0.276930 0.960119
vn 0.015878 -0.287068 0.957779
vn 0.007308 -0.110088 0.993895
vn 0.000000 -0.284352 0.958720
vn 0.063872 -0.209142 0.975797
vn 0.068644 -0.103049 0.992305
vn 0.079475 -0.070134 0.994367
vn 0.006029 -0.166165 0.986080
vn 0.000000 -0.158113 0.987421
vn 0.015831 -0.145483 0.989234
vn 0.026351 -0.108153 0.993785
vn 0.032449 -0.036979 0.998789
vn 0.040859 -0.001993 0.999163
vn 0.000721 -0.079810 0.996810
vn 0.001270 -0.028677 0.999588
vn 0.005187 -0.073378 0.997291
vn 0.009428 -0.055534 0.998412
vn 0.011171 -0.021146 0.999714
vn 0.016511 -0.008635 0.999826
vn 0.000642 -0.014506 0.999895
vn 0.003071 -0.013286 0.999907
vn 0.004919 -0.010944 0.999928
vn 0.006312 -0.006642 0.999958
vn 0.006631 0.003365 0.999972
vn 0.000721 -0.079810 0.996810
vn -0.003234 -0.073013 0.997326
vn 0.006029 -0.166165 0.986080
vn -0.007308 -0.110085 0.993895
vn 0.015878 -0.287068 0.957779
vn 0.027388 -0.417468 0.908279
vn 0.015831 -0.145483 0.989234
vn 0.038481 -0.276930 0.960119
vn 0.069247 -0.391003 0.917781
vn 0.027388 -0.417468 0.908279
vn 0.005187 -0.073378 0.997291
vn 0.009428 -0.055534 0.998412
vn 0.026351 -0.108153 0.993785
vn 0.063872 -0.209142 0.975797
vn 0.038481 -0.276930 0.960119
vn 0.000000 -1.000000 -0.000697
vn 0.069247 -0.391003 0.917781
vn 0.253906 -0.967129 -0.013874
vn 0.113601 -0.993506 -0.006313
vn 0.253906 -0.967129 -0.013874
vn 0.030928 -0.409719 -0.911687
vn 0.068066 -0.389011 -0.918715
vn 0.015428 -0.290143 -0.956859
vn 0.035900 -0.298434 -0.953755
vn 0.006038 -0.159857 -0.987122
vn 0.000000 -0.051944 -0.998650
vn 0.015840 -0.141480 -0.989814
vn 0.002801 -0.108025 -0.994144
vn 0.002801 -0.108025 -0.994144
vn 0.025867 -0.123854 -0.991963
vn 0.002801 -0.108025 -0.994144
vn 0.063787 -0.236590 -0.969514
vn 0.063787 -0.236590 -0.969514
vn 0.000000 -0.051944 -0.998650
vn 0.000000 -0.051944 -0.998650
vn 0.000000 -0.051944 -0.998650
vn 0.033129 -0.040183 -0.998643
vn 0.033129 -0.040183 -0.998643
vn 0.012219 -0.025836 -0.999592
vn 0.016301 -0.008929 -0.999827
vn 0.075023 -0.121964 -0.989695
vn 0.075023 -0.121964 -0.989695
vn 0.025867 -0.123854 -0.991963
vn 0.079703 -0.070107 -0.994350
vn 0.075023 -0.121964 -0.989695
vn 0.040707 -0.001589 -0.999170
vn 0.112569 -0.168358 -0.979277
vn 0.112569 -0.168358 -0.979277
vn 0.063787 -0.236590 -0.969514
vn 0.117908 -0.136570 -0.983588
vn 0.112569 -0.168358 -0.979277
vn 0.079703 -0.070107 -0.994350
vn 0.607739 -0.794137 0.000042
vn 0.607739 -0.794137 0.000042
vn 0.106900 -0.307911 -0.945390
vn 0.612072 -0.788046 0.065964
vn 0.607739 -0.794137 0.000042
vn 0.117908 -0.136570 -0.983588
vn 0.112219 -0.166076 0.979707
vn 0.112219 -0.166076 0.979707
vn 0.452119 -0.891957 -0.001390
vn 0.112219 -0.166076 0.979707
vn 0.607739 -0.794137 0.000042
vn 0.079475 -0.070134 0.994367
vn 0.068644 -0.103049 0.992305
vn 0.068644 -0.103049 0.992305
vn 0.110294 -0.293458 0.949588
vn 0.040859 -0.001993 0.999163
vn 0.032449 -0.036979 0.998789
vn 0.032449 -0.036979 0.998789
vn 0.063872 -0.209142 0.975797
vn 0.016511 -0.008635 0.999826
vn 0.011171 -0.021146 0.999714
vn 0.026351 -0.108153 0.993785
vn -0.028974 0.176356 0.983900
vn -0.026304 0.560661 0.827628
vn -0.028974 0.176356 0.983900
vn -0.084548 0.244278 0.966012
vn -0.054362 0.654276 0.754299
vn -0.082212 0.651483 0.754196
vn -0.082212 0.651483 0.754196
vn -0.106355 0.694430 0.711657
vn -0.135305 0.690586 0.710481
vn -0.135305 0.690586 0.710481
vn -0.145378 0.710773 0.688235
vn -0.220106 0.696415 0.683052
vn -0.220106 0.696415 0.683052
vn -0.220106 0.696415 0.683052
vn -0.211264 0.679491 0.702609
vn -0.233501 0.674371 0.700500
vn -0.080251 0.232287 -0.969331
vn -0.052465 0.632851 -0.772494
vn -0.052465 0.632851 -0.772494
vn -0.032637 0.174999 -0.984028
vn -0.032637 0.174999 -0.984028
vn -0.102346 0.667018 -0.737979
vn -0.102346 0.667018 -0.737979
vn -0.102346 0.667018 -0.737979
vn -0.138184 0.675554 -0.724245
vn -0.138184 0.675554 -0.724245
vn -0.200019 0.643301 -0.739024
vn -0.200019 0.643301 -0.739024
vn -0.200019 0.643301 -0.739024
vn -0.214215 0.670566 -0.710248
vn -0.220724 0.641776 -0.734442
vn 0.106900 -0.307911 -0.945390
vn 0.106900 -0.307911 -0.945390
vn 0.035900 -0.298434 -0.953755
vn 0.452119 -0.891957 -0.001390
vn 0.452119 -0.891957 -0.001390
vn 0.068066 -0.389011 -0.918715
vn 0.110294 -0.293458 0.949588
vn 0.110294 -0.293458 0.949588
vn 0.253906 -0.967129 -0.013874
vn 0.063872 -0.209142 0.975797
vn 0.069247 -0.391003 0.917781
vn 0.113601 -0.993506 -0.006313
vn -0.026304 0.560661 0.827628
vn 0.028974 0.176356 0.983900
vn 0.028974 0.176356 0.983900
vn 0.084548 0.244278 0.966012
vn -0.026304 0.560661 0.827628
vn -0.082212 0.651483 0.754196
vn -0.106355 0.694430 0.711657
vn -0.082212 0.651483 0.754196
vn -0.082212 0.651483 0.754196
vn -0.135305 0.690586 0.710481
vn -0.145378 0.710773 0.688235
vn -0.135305 0.690586 0.710481
vn -0.135305 0.690586 0.710481
vn -0.220106 0.696415 0.683052
vn -0.211264 0.679491 0.702609
vn -0.220106 0.696415 0.683052
vn -0.220106 0.696415 0.683052
vn -0.233501 0.674371 0.700500
vn -0.052465 0.632851 -0.772494
vn 0.080251 0.232287 -0.969331
vn -0.052465 0.632851 -0.772494
vn 0.032637 0.174999 -0.984028
vn 0.032637 0.174999 -0.984028
vn -0.102346 0.667018 -0.737979
vn -0.102346 0.667018 -0.737979
vn -0.102346 0.667018 -0.737979
vn -0.138184 0.675554 -0.724245
vn -0.138184 0.675554 -0.724245
vn -0.200019 0.643301 -0.739024
vn -0.214215 0.670566 -0.710248
vn -0.200019 0.643301 -0.739024
vn -0.200019 0.643301 -0.739024
vn -0.220724 0.641776 -0.734442
usemtl material
f 1/0/1 2/0/2 3/0/3
f 4/0/4 1/0/1 3/0/3
f 1/0/1 4/0/4 5/0/5
f 3/0/3 6/0/6 4/0/4
f 6/0/6 3/0/3 7/0/7
f 3/0/3 8/0/8 7/0/7
f 7/0/7 9/0/9 6/0/6
f 9/0/9 7/0/7 10/0/10
f 7/0/7 11/0/11 10/0/10
f 10/0/10 12/0/12 9/0/9
f 12/0/12 10/0/10 13/0/13
f 10/0/10 14/0/14 13/0/13
f 15/0/15 12/0/12 13/0/13
f 16/0/16 15/0/15 13/0/13
f 12/0/12 15/0/15 17/0/17
f 18/0/18 5/0/5 4/0/4
f 5/0/5 18/0/18 19/0/19
f 4/0/4 20/0/20 18/0/18
f 20/0/20 4/0/4 6/0/6
f 6/0/6 21/0/21 20/0/20
f 21/0/21 6/0/6 9/0/9
f 9/0/9 22/0/22 21/0/21
f 22/0/22 9/0/9 12/0/12
f 17/0/17 22/0/22 12/0/12
f 22/0/22 17/0/17 23/0/23
f 24/0/24 18/0/18 20/0/20
f 18/0/18 24/0/24 25/0/25
f 19/0/19 25/0/25 26/0/26
f 25/0/25 27/0/27 18/0/18
f 20/0/20 28/0/28 24/0/24
f 28/0/28 20/0/20 21/0/21
f 21/0/21 29/0/29 28/0/28
f 29/0/29 21/0/21 22/0/22
f 23/0/23 29/0/29 22/0/22
f 29/0/29 23/0/23 30/0/30
f 31/0/31 25/0/25 24/0/24
f 25/0/25 31/0/31 32/0/32
f 32/0/32 33/0/33 25/0/25
f 33/0/33 32/0/32 34/0/34
f 24/0/24 35/0/35 31/0/31
f 35/0/35 24/0/24 28/0/28
f 28/0/28 36/0/36 35/0/35
f 36/0/36 28/0/28 29/0/29
f 30/0/30 36/0/36 29/0/29
f 36/0/36 30/0/30 37/0/37
f 38/0/38 32/0/32 31/0/31
f 32/0/32 38/0/38 39/0/39
f 39/0/39 40/0/40 32/0/32
f 40/0/40 39/0/39 41/0/41
f 31/0/31 42/0/42 38/0/38
f 42/0/42 31/0/31 35/0/35
f 35/0/35 43/0/43 42/0/42
f 43/0/43 35/0/35 36/0/36
f 44/0/44 36/0/36 37/0/37
f 36/0/36 44/0/44 43/0/43
f 45/0/45 39/0/39 38/0/38
f 39/0/39 45/0/45 46/0/46
f 46/0/46 47/0/47 39/0/39
f 47/0/47 46/0/46 48/0/48
f 38/0/38 49/0/49 45/0/45
f 49/0/49 38/0/38 42/0/42
f 42/0/42 50/0/50 49/0/49
f 50/0/50 42/0/42 43/0/43
f 43/0/43 51/0/51 50/0/50
f 51/0/51 43/0/43 44/0/44
f 52/0/52 48/0/48 46/0/46
f 48/0/48 52/0/52 53/0/53
f 46/0/46 54/0/54 52/0/52
f 54/0/54 46/0/46 45/0/45
f 45/0/45 55/0/55 54/0/54
f 55/0/55 45/0/45 49/0/49
f 49/0/49 56/0/56 55/0/55
f 56/0/56 49/0/49 50/0/50
f 50/0/50 57/0/57 56/0/56
f 57/0/57 50/0/50 51/0/51
f 58/0/58 53/0/53 52/0/52
f 53/0/53 58/0/58 59/0/59
f 52/0/52 60/0/60 58/0/58
f 60/0/60 52/0/52 54/0/54
f 54/0/54 61/0/61 60/0/60
f 61/0/61 54/0/54 55/0/55
f 55/0/55 62/0/62 61/0/61
f 62/0/62 55/0/55 56/0/56
f 56/0/56 63/0/63 62/0/62
f 63/0/63 56/0/56 57/0/57
f 64/0/64 59/0/59 58/0/58
f 65/0/65 58/0/58 60/0/60
f 66/0/66 60/0/60 61/0/61
f 67/0/67 61/0/61 62/0/62
f 68/0/68 62/0/62 63/0/63
f 64/0/64 69/0/69 59/0/59
f 69/0/69 70/0/70 59/0/59
f 70/0/70 69/0/69 71/0/71
f 71/0/71 72/0/72 70/0/70
f 72/0/72 71/0/71 73/0/73
f 73/0/73 47/0/47 72/0/72
f 47/0/47 73/0/73 74/0/74
f 75/0/75 73/0/73 71/0/71
f 73/0/73 75/0/75 76/0/76
f 76/0/76 77/0/77 73/0/73
f 77/0/77 76/0/76 78/0/78
f 79/0/79 71/0/71 69/0/69
f 71/0/71 79/0/79 75/0/75
f 65/0/65 79/0/79 69/0/69
f 80/0/80 75/0/75 79/0/79
f 66/0/66 80/0/80 79/0/79
f 75/0/75 80/0/80 81/0/81
f 81/0/81 82/0/82 75/0/75
f 82/0/82 81/0/81 83/0/83
f 74/0/74 40/0/40 41/0/41
f 40/0/40 74/0/74 84/0/84
f 85/0/85 86/0/86 77/0/77
f 86/0/86 85/0/85 87/0/87
f 88/0/88 89/0/89 86/0/86
f 89/0/89 88/0/88 90/0/90
f 90/0/90 91/0/91 89/0/89
f 27/0/27 89/0/89 91/0/91
f 89/0/89 27/0/27 26/0/26
f 91/0/91 90/0/90 92/0/92
f 92/0/92 93/0/93 91/0/91
f 5/0/5 91/0/91 93/0/93
f 93/0/93 1/0/1 5/0/5
f 1/0/1 93/0/93 94/0/94
f 1/0/1 94/0/94 2/0/2
f 91/0/91 5/0/5 19/0/19
f 93/0/93 92/0/92 95/0/95
f 95/0/95 96/0/96 93/0/93
f 96/0/96 95/0/95 97/0/97
f 98/0/98 97/0/97 95/0/95
f 97/0/97 98/0/98 99/0/99
f 95/0/95 100/0/100 98/0/98
f 100/0/100 95/0/95 101/0/101
f 94/0/94 102/0/102 8/0/8
f 97/0/97 103/0/103 11/0/11
f 103/0/103 104/0/104 14/0/14
f 103/0/103 105/0/105 104/0/104
f 105/0/105 103/0/103 106/0/106
f 105/0/105 107/0/107 104/0/104
f 16/0/16 104/0/104 107/0/107
f 107/0/107 105/0/105 108/0/108
f 109/0/109 106/0/106 110/0/110
f 106/0/106 109/0/109 111/0/111
f 109/0/109 112/0/112 113/0/113
f 112/0/112 109/0/109 114/0/114
f 115/0/115 110/0/110 116/0/116
f 110/0/110 115/0/115 117/0/117
f 115/0/115 118/0/118 119/0/119
f 118/0/118 115/0/115 120/0/120
f 121/0/121 116/0/116 122/0/122
f 116/0/116 121/0/121 123/0/123
f 121/0/121 124/0/124 125/0/125
f 124/0/124 121/0/121 126/0/126
f 127/0/127 122/0/122 128/0/128
f 122/0/122 127/0/127 129/0/129
f 130/0/130 121/0/121 127/0/127
f 121/0/121 130/0/130 131/0/131
f 127/0/127 132/0/132 130/0/130
f 132/0/132 127/0/127 133/0/133
f 133/0/133 128/0/128 134/0/134
f 128/0/128 133/0/133 135/0/135
f 133/0/133 136/0/136 132/0/132
f 136/0/136 133/0/133 137/0/137
f 137/0/137 134/0/134 138/0/138
f 134/0/134 137/0/137 139/0/139
f 137/0/137 140/0/140 136/0/136
f 140/0/140 137/0/137 141/0/141
f 141/0/141 138/0/138 80/0/80
f 138/0/138 141/0/141 142/0/142
f 67/0/67 141/0/141 80/0/80
f 68/0/68 140/0/140 141/0/141
f 143/0/143 144/0/144 145/0/145
f 144/0/144 146/0/146 147/0/147
f 147/0/147 148/0/148 149/0/149
f 148/0/148 147/0/147 150/0/150
f 150/0/150 151/0/151 152/0/152
f 151/0/151 150/0/150 153/0/153
f 154/0/154 155/0/155 156/0/156
f 155/0/155 154/0/154 157/0/157
f 158/0/158 155/0/155 157/0/157
f 159/0/159 160/0/160 161/0/161
f 160/0/160 162/0/162 163/0/163
f 164/0/164 165/0/165 160/0/160
f 165/0/165 164/0/164 166/0/166
f 167/0/167 166/0/166 164/0/164
f 166/0/166 167/0/167 168/0/168
f 169/0/169 170/0/170 171/0/171
f 170/0/170 169/0/169 172/0/172
f 173/0/173 171/0/171 170/0/170
f 174/0/174 101/0/101 175/0/175
f 101/0/101 174/0/174 176/0/176
f 177/0/177 175/0/175 178/0/178
f 175/0/175 177/0/177 179/0/179
f 180/0/180 178/0/178 181/0/181
f 178/0/178 180/0/180 182/0/182
f 183/0/183 181/0/181 82/0/82
f 181/0/181 183/0/183 184/0/184
f 185/0/185 33/0/33 34/0/34
f 33/0/33 185/0/185 89/0/89
f 186/0/186 187/0/187 188/0/188
f 189/0/189 186/0/186 190/0/190
f 191/0/191 192/0/192 193/0/193
f 192/0/192 191/0/191 194/0/194
f 195/0/195 196/0/196 197/0/197
f 196/0/196 195/0/195 198/0/198
f 199/0/199 200/0/200 201/0/201
f 200/0/200 199/0/199 202/0/202
f 203/0/203 202/0/202 199/0/199
f 204/0/204 205/0/205 206/0/206
f 207/0/207 204/0/204 208/0/208
f 209/0/209 206/0/206 210/0/210
f 206/0/206 209/0/209 211/0/211
f 210/0/210 212/0/212 209/0/209
f 212/0/212 210/0/210 213/0/213
f 214/0/214 215/0/215 216/0/216
f 215/0/215 214/0/214 217/0/217
f 218/0/218 214/0/214 216/0/216
