# 
# Wavefront OBJ file
# Created with Kaydara FBX
# 
mtllib 001 #220450.mtl

g 001
v -0.000000 0.017517 0.058934
v 0.000000 0.000572 0.061874
v -0.031358 0.017079 0.058934
v -0.070166 0.029733 0.054860
v -0.000000 0.030686 0.054860
v -0.133316 0.024337 0.054860
v -0.073699 0.017025 0.058934
v 0.000000 0.000572 0.061874
v -0.198252 0.013783 0.054860
v -0.118003 0.011210 0.058934
v 0.000000 0.000572 0.061874
v -0.231929 0.000549 0.054860
v -0.153056 0.001483 0.058934
v 0.000000 0.000572 0.061874
v -0.170999 -0.005725 0.058320
v 0.000000 0.000572 0.061874
v -0.256884 -0.014077 0.051793
v -0.098758 0.043185 0.044693
v -0.000000 0.045990 0.044693
v -0.184445 0.036033 0.044693
v -0.269855 0.017873 0.044693
v -0.308117 0.000274 0.044693
v -0.351011 -0.028583 0.040164
v -0.127194 0.056968 0.026963
v -0.000000 0.061626 0.026963
v -0.238643 0.043295 0.026963
v -0.331028 0.019060 0.026963
v -0.384762 -0.010590 0.026963
v -0.435188 -0.050115 0.024442
v -0.154506 0.071536 -0.000023
v -0.000000 0.077930 -0.000023
v -0.288099 0.052175 -0.000023
v -0.388930 0.021540 -0.000023
v -0.465682 -0.021426 -0.000023
v -0.537314 -0.077067 -0.000167
v -0.127194 0.056968 -0.027009
v -0.000000 0.061626 -0.027009
v -0.238643 0.043295 -0.027009
v -0.331028 0.019060 -0.027009
v -0.384762 -0.010590 -0.027009
v -0.437335 -0.051798 -0.024382
v -0.098758 0.043185 -0.044740
v -0.000000 0.045990 -0.044739
v -0.184445 0.036033 -0.044740
v -0.269855 0.017873 -0.044739
v -0.308117 0.000274 -0.044739
v -0.353967 -0.030572 -0.039898
v -0.070166 0.029733 -0.054906
v -0.000000 0.030686 -0.054906
v -0.133316 0.024337 -0.054906
v -0.198252 0.013783 -0.054906
v -0.231929 0.000549 -0.054906
v -0.260061 -0.015939 -0.051449
v -0.031358 0.017079 -0.058981
v -0.000000 0.017517 -0.058981
v -0.073699 0.017025 -0.058981
v -0.118003 0.011210 -0.058981
v -0.153056 0.001483 -0.058981
v -0.175254 -0.007434 -0.058221
v -0.000000 0.000058 -0.062015
v -0.000000 0.000058 -0.062015
v -0.000000 0.000058 -0.062015
v -0.000000 0.000058 -0.062015
v -0.000000 0.000058 -0.062015
v 0.031358 0.017079 -0.058981
v 0.070166 0.029733 -0.054906
v 0.098758 0.043184 -0.044740
v 0.127194 0.056968 -0.027009
v 0.154506 0.071536 -0.000023
v 0.127194 0.056968 0.026963
v 0.098758 0.043184 0.044693
v 0.070166 0.029733 0.054860
v 0.031358 0.017079 0.058934
v 0.133316 0.024337 0.054860
v 0.073699 0.017025 0.058934
v 0.198252 0.013783 0.054860
v 0.118003 0.011210 0.058934
v 0.231929 0.000549 0.054860
v 0.153056 0.001483 0.058934
v 0.000000 0.000572 0.061874
v 0.170998 -0.005725 0.058320
v 0.256883 -0.014077 0.051793
v 0.184445 0.036033 0.044693
v 0.269855 0.017873 0.044693
v 0.308116 0.000274 0.044693
v 0.351010 -0.028583 0.040164
v 0.331028 0.019060 0.026963
v 0.238643 0.043295 0.026963
v 0.384761 -0.010590 0.026963
v 0.435188 -0.050115 0.024442
v 0.288098 0.052175 -0.000023
v 0.388929 0.021540 -0.000023
v 0.465682 -0.021426 -0.000023
v 0.537314 -0.077067 -0.000167
v 0.238643 0.043295 -0.027009
v 0.331028 0.019060 -0.027009
v 0.384761 -0.010590 -0.027009
v 0.437334 -0.051798 -0.024382
v 0.184445 0.036033 -0.044740
v 0.269855 0.017873 -0.044739
v 0.308116 0.000274 -0.044739
v 0.353967 -0.030572 -0.039898
v 0.133316 0.024337 -0.054906
v 0.198252 0.013783 -0.054906
v 0.231929 0.000549 -0.054906
v 0.260061 -0.015939 -0.051449
v 0.073699 0.017025 -0.058981
v 0.118003 0.011210 -0.058981
v 0.153056 0.001483 -0.058981
v 0.175254 -0.007434 -0.058221
v -0.000000 0.030540 0.000164
v -0.170999 -0.005725 0.058320
v 0.000000 0.000572 0.061874
v -0.170999 -0.005725 0.058320
v -0.000000 0.030540 0.000164
v -0.173124 0.016171 0.000123
v -0.256884 -0.014077 0.051793
v -0.256884 -0.014077 0.051793
v -0.173124 0.016171 0.000123
v -0.258472 0.003088 0.000157
v -0.351011 -0.028583 0.040164
v -0.258472 0.003088 0.000157
v -0.352488 -0.016142 0.000159
v -0.352488 -0.016142 0.000159
v -0.435188 -0.050115 0.024442
v -0.351011 -0.028583 0.040164
v -0.436256 -0.042187 0.000160
v -0.537314 -0.077067 -0.000167
v 0.170998 -0.005725 0.058320
v -0.000000 0.030540 0.000164
v 0.000000 0.000572 0.061874
v -0.000000 0.030540 0.000164
v 0.170998 -0.005725 0.058320
v 0.173121 0.016172 0.000192
v 0.256883 -0.014077 0.051793
v 0.173121 0.016172 0.000192
v 0.256883 -0.014077 0.051793
v 0.258469 0.003090 0.000262
v 0.351010 -0.028583 0.040164
v 0.352469 -0.016129 0.000670
v 0.435188 -0.050115 0.024442
v 0.352469 -0.016129 0.000670
v 0.351010 -0.028583 0.040164
v 0.436255 -0.042186 0.000177
v 0.537314 -0.077067 -0.000167
v -0.000000 0.030540 0.000164
v -0.175254 -0.007434 -0.058221
v -0.173124 0.016171 0.000123
v -0.260061 -0.015939 -0.051449
v -0.175254 -0.007434 -0.058221
v -0.000000 0.030540 0.000164
v -0.000000 0.000058 -0.062015
v -0.173124 0.016171 0.000123
v -0.260061 -0.015939 -0.051449
v -0.258472 0.003088 0.000157
v -0.353967 -0.030572 -0.039898
v -0.352488 -0.016142 0.000159
v -0.352488 -0.016142 0.000159
v -0.437335 -0.051798 -0.024382
v -0.436256 -0.042187 0.000160
v -0.353967 -0.030572 -0.039898
v -0.537314 -0.077067 -0.000167
v 0.175254 -0.007434 -0.058221
v -0.000000 0.030540 0.000164
v 0.173121 0.016172 0.000192
v 0.260061 -0.015939 -0.051449
v -0.000000 0.030540 0.000164
v 0.175254 -0.007434 -0.058221
v -0.000000 0.000058 -0.062015
v 0.260061 -0.015939 -0.051449
v 0.173121 0.016172 0.000192
v 0.258469 0.003090 0.000262
v 0.353967 -0.030572 -0.039898
v 0.352469 -0.016129 0.000670
v 0.437334 -0.051798 -0.024382
v 0.352469 -0.016129 0.000670
v 0.436255 -0.042186 0.000177
v 0.537314 -0.077067 -0.000167
v 0.437334 -0.051798 -0.024382
v 0.352469 -0.016129 0.000670
v 0.353967 -0.030572 -0.039898
vt 0.000000 0.900000
vt 0.000995 0.994231
vt 0.050000 0.900000
vt 0.050000 0.800000
vt 0.000000 0.800000
vt 0.100000 0.800000
vt 0.100000 0.900000
vt 0.050479 0.997051
vt 0.150000 0.800000
vt 0.150000 0.900000
vt 0.100307 0.998429
vt 0.200000 0.800000
vt 0.200000 0.900000
vt 0.159115 0.981770
vt 0.240414 0.900000
vt 0.200000 0.981770
vt 0.244353 0.800000
vt 0.050000 0.700000
vt 0.000000 0.700000
vt 0.100000 0.700000
vt 0.150000 0.700000
vt 0.200000 0.700000
vt 0.246776 0.700000
vt 0.050000 0.600000
vt 0.000000 0.600000
vt 0.100000 0.600000
vt 0.150000 0.600000
vt 0.200000 0.600000
vt 0.247958 0.600000
vt 0.050000 0.500000
vt 0.000000 0.500000
vt 0.100000 0.500000
vt 0.150000 0.500000
vt 0.200000 0.500000
vt 0.249372 0.499411
vt 0.050000 0.400000
vt 0.000000 0.400000
vt 0.100000 0.400000
vt 0.150000 0.400000
vt 0.200000 0.400000
vt 0.250000 0.400000
vt 0.050000 0.300000
vt 0.000000 0.300000
vt 0.100000 0.300000
vt 0.150000 0.300000
vt 0.200000 0.300000
vt 0.250000 0.300000
vt 0.050000 0.200000
vt 0.000000 0.200000
vt 0.100000 0.200000
vt 0.150000 0.200000
vt 0.200000 0.200000
vt 0.250000 0.200000
vt 0.050000 0.100000
vt 0.000000 0.100000
vt 0.100000 0.100000
vt 0.150000 0.100000
vt 0.200000 0.100000
vt 0.250000 0.100000
vt 0.000000 -0.000000
vt 0.050000 -0.000000
vt 0.100000 -0.000000
vt 0.150000 -0.000000
vt 0.200000 -0.000000
vt 0.050000 0.100000
vt 0.050000 0.200000
vt 0.050000 0.300000
vt 0.050000 0.400000
vt 0.050000 0.500000
vt 0.050000 0.600000
vt 0.050000 0.700000
vt 0.050000 0.800000
vt 0.050000 0.900000
vt 0.100000 0.800000
vt 0.100000 0.900000
vt 0.150000 0.800000
vt 0.150000 0.900000
vt 0.200000 0.800000
vt 0.200000 0.900000
vt 0.150000 0.998773
vt 0.240414 0.900000
vt 0.244353 0.800000
vt 0.100000 0.700000
vt 0.150000 0.700000
vt 0.200000 0.700000
vt 0.246776 0.700000
vt 0.150000 0.600000
vt 0.100000 0.600000
vt 0.200000 0.600000
vt 0.247958 0.600000
vt 0.100000 0.500000
vt 0.150000 0.500000
vt 0.200000 0.500000
vt 0.249372 0.500000
vt 0.100000 0.400000
vt 0.150000 0.400000
vt 0.200000 0.400000
vt 0.250000 0.400000
vt 0.100000 0.300000
vt 0.150000 0.300000
vt 0.200000 0.300000
vt 0.250000 0.300000
vt 0.100000 0.200000
vt 0.150000 0.200000
vt 0.200000 0.200000
vt 0.250000 0.200000
vt 0.100000 0.100000
vt 0.150000 0.100000
vt 0.200000 0.100000
vt 0.250000 0.100000
vt 0.200000 0.990851
vt 0.240414 0.900000
vt 0.200000 0.981770
vt 0.240414 0.900000
vt 0.200000 0.990851
vt 0.245201 0.900000
vt 0.244353 0.800000
vt 0.244353 0.800000
vt 0.245201 0.900000
vt 0.247177 0.800000
vt 0.246776 0.700000
vt 0.247177 0.800000
vt 0.248387 0.700000
vt 0.248387 0.700000
vt 0.247958 0.600000
vt 0.246776 0.700000
vt 0.248974 0.600000
vt 0.249372 0.499411
vt 0.240414 0.900000
vt 0.200000 0.990851
vt 0.200000 0.981770
vt 0.200000 0.990851
vt 0.240414 0.900000
vt 0.245195 0.900000
vt 0.244353 0.800000
vt 0.245195 0.900000
vt 0.244353 0.800000
vt 0.247172 0.800000
vt 0.246776 0.700000
vt 0.248366 0.700000
vt 0.247958 0.600000
vt 0.248366 0.700000
vt 0.246776 0.700000
vt 0.248973 0.600000
vt 0.249372 0.500000
vt 0.200000 0.990851
vt 0.250000 0.900000
vt 0.245201 0.900000
vt 0.250000 0.800000
vt 0.250000 0.900000
vt 0.200000 0.990851
vt 0.200000 1.000000
vt 0.245201 0.900000
vt 0.250000 0.800000
vt 0.247177 0.800000
vt 0.250000 0.700000
vt 0.248387 0.700000
vt 0.248387 0.700000
vt 0.250000 0.600000
vt 0.248974 0.600000
vt 0.250000 0.700000
vt 0.249372 0.499411
vt 0.250000 0.900000
vt 0.200000 0.990851
vt 0.245195 0.900000
vt 0.250000 0.800000
vt 0.200000 0.990851
vt 0.250000 0.900000
vt 0.200000 1.000000
vt 0.250000 0.800000
vt 0.245195 0.900000
vt 0.247172 0.800000
vt 0.250000 0.700000
vt 0.248366 0.700000
vt 0.250000 0.600000
vt 0.248366 0.700000
vt 0.248973 0.600000
vt 0.249372 0.500000
vt 0.250000 0.600000
vt 0.248366 0.700000
vt 0.250000 0.700000
vn 0.000000 -0.079325 -0.996849
vn 0.000000 -0.051944 -0.998650
vn 0.001007 -0.079760 -0.996814
vn 0.006038 -0.159857 -0.987122
vn 0.000000 -0.159113 -0.987260
vn 0.015840 -0.141480 -0.989814
vn 0.002801 -0.108025 -0.994144
vn 0.000000 -0.051944 -0.998650
vn 0.025867 -0.123854 -0.991963
vn 0.010054 -0.062024 -0.998024
vn 0.000000 -0.051944 -0.998650
vn 0.033129 -0.040183 -0.998643
vn 0.012219 -0.025836 -0.999592
vn 0.000000 -0.051944 -0.998650
vn 0.016301 -0.008929 -0.999827
vn 0.000000 -0.051944 -0.998650
vn 0.040707 -0.001589 -0.999170
vn 0.015428 -0.290143 -0.956859
vn 0.000000 -0.284279 -0.958742
vn 0.035900 -0.298434 -0.953755
vn 0.063787 -0.236590 -0.969514
vn 0.075023 -0.121964 -0.989695
vn 0.079703 -0.070107 -0.994350
vn 0.030928 -0.409719 -0.911687
vn 0.000000 -0.416925 -0.908941
vn 0.068066 -0.389011 -0.918715
vn 0.106900 -0.307911 -0.945390
vn 0.112569 -0.168358 -0.979277
vn 0.117908 -0.136570 -0.983588
vn 0.113601 -0.993506 -0.006313
vn 0.000000 -1.000000 -0.000697
vn 0.253906 -0.967129 -0.013874
vn 0.452119 -0.891957 -0.001390
vn 0.607739 -0.794137 0.000042
vn 0.612072 -0.788046 0.065964
vn 0.027388 -0.417468 0.908279
vn 0.000000 -0.417086 0.908867
vn 0.069247 -0.391003 0.917781
vn 0.110294 -0.293458 0.949588
vn 0.112219 -0.166076 0.979707
vn 0.117227 -0.136639 0.983660
vn 0.015878 -0.287068 0.957779
vn 0.000000 -0.284352 0.958720
vn 0.038481 -0.276930 0.960119
vn 0.063872 -0.209142 0.975797
vn 0.068644 -0.103049 0.992305
vn 0.079475 -0.070134 0.994367
vn 0.006029 -0.166165 0.986080
vn 0.000000 -0.158113 0.987421
vn 0.015831 -0.145483 0.989234
vn 0.026351 -0.108153 0.993785
vn 0.032449 -0.036979 0.998789
vn 0.040859 -0.001993 0.999163
vn 0.000721 -0.079810 0.996810
vn 0.000000 -0.079386 0.996844
vn 0.005187 -0.073378 0.997291
vn 0.009428 -0.055534 0.998412
vn 0.011171 -0.021146 0.999714
vn 0.016511 -0.008635 0.999826
vn 0.000000 -0.051676 0.998664
vn 0.000000 -0.051676 0.998664
vn 0.000000 -0.051676 0.998664
vn 0.000000 -0.051676 0.998664
vn 0.000000 -0.051676 0.998664
vn -0.000721 -0.079810 0.996810
vn -0.006029 -0.166165 0.986080
vn -0.015878 -0.287068 0.957779
vn -0.027388 -0.417467 0.908279
vn -0.113601 -0.993506 -0.006313
vn -0.030928 -0.409718 -0.911688
vn -0.015428 -0.290143 -0.956859
vn -0.006038 -0.159857 -0.987122
vn -0.001007 -0.079760 -0.996814
vn -0.015840 -0.141480 -0.989814
vn -0.002801 -0.108025 -0.994144
vn -0.025867 -0.123854 -0.991963
vn -0.010054 -0.062024 -0.998024
vn -0.033129 -0.040183 -0.998643
vn -0.012219 -0.025836 -0.999592
vn 0.000000 -0.051944 -0.998650
vn -0.016301 -0.008929 -0.999827
vn -0.040707 -0.001589 -0.999170
vn -0.035900 -0.298434 -0.953755
vn -0.063786 -0.236590 -0.969514
vn -0.075023 -0.121964 -0.989695
vn -0.079703 -0.070107 -0.994350
vn -0.106900 -0.307912 -0.945390
vn -0.068066 -0.389011 -0.918715
vn -0.112570 -0.168358 -0.979277
vn -0.117908 -0.136570 -0.983588
vn -0.253906 -0.967129 -0.013874
vn -0.452119 -0.891957 -0.001390
vn -0.607739 -0.794137 0.000042
vn -0.612072 -0.788046 0.065965
vn -0.069247 -0.391003 0.917781
vn -0.110294 -0.293458 0.949588
vn -0.112219 -0.166076 0.979707
vn -0.117227 -0.136639 0.983660
vn -0.038481 -0.276930 0.960119
vn -0.063872 -0.209142 0.975797
vn -0.068644 -0.103050 0.992305
vn -0.079475 -0.070134 0.994367
vn -0.015831 -0.145483 0.989234
vn -0.026351 -0.108153 0.993785
vn -0.032449 -0.036980 0.998789
vn -0.040859 -0.001993 0.999163
vn -0.005187 -0.073378 0.997291
vn -0.009428 -0.055534 0.998412
vn -0.011171 -0.021146 0.999714
vn -0.016512 -0.008635 0.999826
vn -0.026304 0.560661 0.827628
vn -0.026304 0.560661 0.827628
vn -0.026304 0.560661 0.827628
vn -0.054362 0.654276 0.754299
vn -0.054362 0.654276 0.754299
vn -0.054362 0.654276 0.754299
vn -0.082212 0.651483 0.754196
vn -0.106355 0.694430 0.711657
vn -0.106355 0.694430 0.711657
vn -0.106355 0.694430 0.711657
vn -0.135305 0.690586 0.710481
vn -0.145378 0.710773 0.688235
vn -0.145378 0.710773 0.688235
vn -0.220106 0.696415 0.683052
vn -0.220106 0.696415 0.683052
vn -0.220106 0.696415 0.683052
vn -0.211264 0.679491 0.702609
vn -0.233501 0.674371 0.700500
vn 0.026304 0.560661 0.827628
vn 0.026304 0.560661 0.827628
vn 0.026304 0.560661 0.827628
vn 0.054223 0.653831 0.754695
vn 0.054223 0.653831 0.754695
vn 0.054223 0.653831 0.754696
vn 0.082178 0.651029 0.754591
vn 0.106137 0.693697 0.712404
vn 0.106137 0.693697 0.712404
vn 0.106137 0.693697 0.712404
vn 0.135221 0.689842 0.711220
vn 0.143436 0.706363 0.693165
vn 0.219258 0.691942 0.687854
vn 0.219258 0.691942 0.687854
vn 0.219258 0.691942 0.687854
vn 0.212510 0.678949 0.702757
vn 0.233455 0.674119 0.700759
vn -0.052465 0.632851 -0.772494
vn -0.052465 0.632851 -0.772494
vn -0.052465 0.632851 -0.772494
vn -0.083712 0.633197 -0.769450
vn -0.029723 0.556979 -0.829995
vn -0.029723 0.556979 -0.829995
vn -0.029723 0.556979 -0.829995
vn -0.102346 0.667018 -0.737979
vn -0.102346 0.667018 -0.737979
vn -0.102346 0.667018 -0.737979
vn -0.138184 0.675554 -0.724245
vn -0.138184 0.675554 -0.724245
vn -0.200019 0.643301 -0.739024
vn -0.200019 0.643301 -0.739024
vn -0.200019 0.643301 -0.739024
vn -0.214215 0.670566 -0.710248
vn -0.220724 0.641776 -0.734442
vn 0.052599 0.633286 -0.772128
vn 0.052599 0.633286 -0.772128
vn 0.052599 0.633286 -0.772128
vn 0.083746 0.633628 -0.769091
vn 0.029723 0.556979 -0.829995
vn 0.029723 0.556979 -0.829995
vn 0.029723 0.556979 -0.829995
vn 0.102551 0.667726 -0.737309
vn 0.102551 0.667726 -0.737309
vn 0.102551 0.667726 -0.737309
vn 0.140013 0.679770 -0.719937
vn 0.140013 0.679770 -0.719937
vn 0.198736 0.643619 -0.739093
vn 0.198736 0.643619 -0.739093
vn 0.198736 0.643619 -0.739093
vn 0.220764 0.642005 -0.734229
vn 0.215017 0.674724 -0.706056
vn 0.215017 0.674724 -0.706056
vn 0.215017 0.674724 -0.706056
usemtl material
f 1/0/1 2/0/2 3/0/3
f 4/0/4 1/0/1 3/0/3
f 1/0/1 4/0/4 5/0/5
f 3/0/3 6/0/6 4/0/4
f 6/0/6 3/0/3 7/0/7
f 3/0/3 8/0/8 7/0/7
f 7/0/7 9/0/9 6/0/6
f 9/0/9 7/0/7 10/0/10
f 7/0/7 11/0/11 10/0/10
f 10/0/10 12/0/12 9/0/9
f 12/0/12 10/0/10 13/0/13
f 10/0/10 14/0/14 13/0/13
f 15/0/15 12/0/12 13/0/13
f 16/0/16 15/0/15 13/0/13
f 12/0/12 15/0/15 17/0/17
f 18/0/18 5/0/5 4/0/4
f 5/0/5 18/0/18 19/0/19
f 4/0/4 20/0/20 18/0/18
f 20/0/20 4/0/4 6/0/6
f 6/0/6 21/0/21 20/0/20
f 21/0/21 6/0/6 9/0/9
f 9/0/9 22/0/22 21/0/21
f 22/0/22 9/0/9 12/0/12
f 17/0/17 22/0/22 12/0/12
f 22/0/22 17/0/17 23/0/23
f 24/0/24 19/0/19 18/0/18
f 19/0/19 24/0/24 25/0/25
f 18/0/18 26/0/26 24/0/24
f 26/0/26 18/0/18 20/0/20
f 20/0/20 27/0/27 26/0/26
f 27/0/27 20/0/20 21/0/21
f 21/0/21 28/0/28 27/0/27
f 28/0/28 21/0/21 22/0/22
f 23/0/23 28/0/28 22/0/22
f 28/0/28 23/0/23 29/0/29
f 30/0/30 25/0/25 24/0/24
f 25/0/25 30/0/30 31/0/31
f 24/0/24 32/0/32 30/0/30
f 32/0/32 24/0/24 26/0/26
f 26/0/26 33/0/33 32/0/32
f 33/0/33 26/0/26 27/0/27
f 27/0/27 34/0/34 33/0/33
f 34/0/34 27/0/27 28/0/28
f 29/0/29 34/0/34 28/0/28
f 34/0/34 29/0/29 35/0/35
f 36/0/36 31/0/31 30/0/30
f 31/0/31 36/0/36 37/0/37
f 30/0/30 38/0/38 36/0/36
f 38/0/38 30/0/30 32/0/32
f 32/0/32 39/0/39 38/0/38
f 39/0/39 32/0/32 33/0/33
f 33/0/33 40/0/40 39/0/39
f 40/0/40 33/0/33 34/0/34
f 41/0/41 34/0/34 35/0/35
f 34/0/34 41/0/41 40/0/40
f 42/0/42 37/0/37 36/0/36
f 37/0/37 42/0/42 43/0/43
f 36/0/36 44/0/44 42/0/42
f 44/0/44 36/0/36 38/0/38
f 38/0/38 45/0/45 44/0/44
f 45/0/45 38/0/38 39/0/39
f 39/0/39 46/0/46 45/0/45
f 46/0/46 39/0/39 40/0/40
f 40/0/40 47/0/47 46/0/46
f 47/0/47 40/0/40 41/0/41
f 48/0/48 43/0/43 42/0/42
f 43/0/43 48/0/48 49/0/49
f 42/0/42 50/0/50 48/0/48
f 50/0/50 42/0/42 44/0/44
f 44/0/44 51/0/51 50/0/50
f 51/0/51 44/0/44 45/0/45
f 45/0/45 52/0/52 51/0/51
f 52/0/52 45/0/45 46/0/46
f 46/0/46 53/0/53 52/0/52
f 53/0/53 46/0/46 47/0/47
f 54/0/54 49/0/49 48/0/48
f 49/0/49 54/0/54 55/0/55
f 48/0/48 56/0/56 54/0/54
f 56/0/56 48/0/48 50/0/50
f 50/0/50 57/0/57 56/0/56
f 57/0/57 50/0/50 51/0/51
f 51/0/51 58/0/58 57/0/57
f 58/0/58 51/0/51 52/0/52
f 52/0/52 59/0/59 58/0/58
f 59/0/59 52/0/52 53/0/53
f 60/0/60 55/0/55 54/0/54
f 61/0/61 54/0/54 56/0/56
f 62/0/62 56/0/56 57/0/57
f 63/0/63 57/0/57 58/0/58
f 64/0/64 58/0/58 59/0/59
f 65/0/65 49/0/49 55/0/55
f 60/0/60 65/0/65 55/0/55
f 49/0/49 65/0/65 66/0/66
f 66/0/66 43/0/43 49/0/49
f 43/0/43 66/0/66 67/0/67
f 67/0/67 37/0/37 43/0/43
f 37/0/37 67/0/67 68/0/68
f 68/0/68 31/0/31 37/0/37
f 31/0/31 68/0/68 69/0/69
f 69/0/69 25/0/25 31/0/31
f 25/0/25 69/0/69 70/0/70
f 70/0/70 19/0/19 25/0/25
f 19/0/19 70/0/70 71/0/71
f 71/0/71 5/0/5 19/0/19
f 5/0/5 71/0/71 72/0/72
f 72/0/72 1/0/1 5/0/5
f 1/0/1 72/0/72 73/0/73
f 73/0/73 2/0/2 1/0/1
f 74/0/74 73/0/73 72/0/72
f 73/0/73 74/0/74 75/0/75
f 75/0/75 8/0/8 73/0/73
f 76/0/76 75/0/75 74/0/74
f 75/0/75 76/0/76 77/0/77
f 77/0/77 11/0/11 75/0/75
f 78/0/78 77/0/77 76/0/76
f 77/0/77 78/0/78 79/0/79
f 79/0/79 80/0/80 77/0/77
f 78/0/78 81/0/81 79/0/79
f 81/0/81 16/0/16 79/0/79
f 81/0/81 78/0/78 82/0/82
f 72/0/72 83/0/83 74/0/74
f 84/0/84 74/0/74 83/0/83
f 74/0/74 84/0/84 76/0/76
f 85/0/85 76/0/76 84/0/84
f 76/0/76 85/0/85 78/0/78
f 85/0/85 82/0/82 78/0/78
f 82/0/82 85/0/85 86/0/86
f 83/0/83 87/0/87 84/0/84
f 87/0/87 83/0/83 88/0/88
f 71/0/71 88/0/88 83/0/83
f 83/0/83 72/0/72 71/0/71
f 88/0/88 71/0/71 70/0/70
f 89/0/89 84/0/84 87/0/87
f 84/0/84 89/0/89 85/0/85
f 89/0/89 86/0/86 85/0/85
f 86/0/86 89/0/89 90/0/90
f 70/0/70 91/0/91 88/0/88
f 91/0/91 70/0/70 69/0/69
f 92/0/92 88/0/88 91/0/91
f 88/0/88 92/0/92 87/0/87
f 93/0/93 87/0/87 92/0/92
f 87/0/87 93/0/93 89/0/89
f 93/0/93 90/0/90 89/0/89
f 90/0/90 93/0/93 94/0/94
f 69/0/69 95/0/95 91/0/91
f 95/0/95 69/0/69 68/0/68
f 96/0/96 91/0/91 95/0/95
f 91/0/91 96/0/96 92/0/92
f 97/0/97 92/0/92 96/0/96
f 92/0/92 97/0/97 93/0/93
f 98/0/98 93/0/93 97/0/97
f 93/0/93 98/0/98 94/0/94
f 68/0/68 99/0/99 95/0/95
f 99/0/99 68/0/68 67/0/67
f 100/0/100 95/0/95 99/0/99
f 95/0/95 100/0/100 96/0/96
f 101/0/101 96/0/96 100/0/100
f 96/0/96 101/0/101 97/0/97
f 102/0/102 97/0/97 101/0/101
f 97/0/97 102/0/102 98/0/98
f 67/0/67 103/0/103 99/0/99
f 103/0/103 67/0/67 66/0/66
f 104/0/104 99/0/99 103/0/103
f 99/0/99 104/0/104 100/0/100
f 105/0/105 100/0/100 104/0/104
f 100/0/100 105/0/105 101/0/101
f 106/0/106 101/0/101 105/0/105
f 101/0/101 106/0/106 102/0/102
f 66/0/66 107/0/107 103/0/103
f 107/0/107 66/0/66 65/0/65
f 108/0/108 103/0/103 107/0/107
f 103/0/103 108/0/108 104/0/104
f 109/0/109 104/0/104 108/0/108
f 104/0/104 109/0/109 105/0/105
f 110/0/110 105/0/105 109/0/109
f 105/0/105 110/0/110 106/0/106
f 61/0/61 107/0/107 65/0/65
f 62/0/62 108/0/108 107/0/107
f 63/0/63 109/0/109 108/0/108
f 64/0/64 110/0/110 109/0/109
f 111/0/111 112/0/112 113/0/113
f 114/0/114 115/0/115 116/0/116
f 116/0/116 117/0/117 114/0/114
f 118/0/118 119/0/119 120/0/120
f 120/0/120 121/0/121 118/0/118
f 121/0/121 122/0/122 123/0/123
f 124/0/124 125/0/125 126/0/126
f 125/0/125 124/0/124 127/0/127
f 128/0/128 125/0/125 127/0/127
f 129/0/129 130/0/130 131/0/131
f 132/0/132 133/0/133 134/0/134
f 135/0/135 134/0/134 133/0/133
f 136/0/136 137/0/137 138/0/138
f 139/0/139 138/0/138 137/0/137
f 138/0/138 139/0/139 140/0/140
f 141/0/141 142/0/142 143/0/143
f 142/0/142 141/0/141 144/0/144
f 141/0/141 145/0/145 144/0/144
f 146/0/146 147/0/147 148/0/148
f 149/0/149 148/0/148 147/0/147
f 150/0/150 151/0/151 152/0/152
f 153/0/153 154/0/154 155/0/155
f 156/0/156 155/0/155 154/0/154
f 155/0/155 156/0/156 157/0/157
f 158/0/158 159/0/159 160/0/160
f 159/0/159 158/0/158 161/0/161
f 162/0/162 160/0/160 159/0/159
f 163/0/163 164/0/164 165/0/165
f 165/0/165 166/0/166 163/0/163
f 167/0/167 168/0/168 169/0/169
f 170/0/170 171/0/171 172/0/172
f 172/0/172 173/0/173 170/0/170
f 173/0/173 172/0/172 174/0/174
f 175/0/175 176/0/176 177/0/177
f 177/0/177 178/0/178 179/0/179
f 180/0/180 179/0/179 181/0/181
