# 
# Wavefront OBJ file
# Created with Kaydara FBX
# 
mtllib avatar_sin_m.mtl

g Avatar_Sin_M
v -0.167023 -0.131029 1.325037
v -0.160571 -0.134516 1.325806
v -0.160824 -0.137132 1.332016
v -0.166383 -0.132984 1.334448
v -0.175849 -0.125283 1.329564
v -0.173504 -0.125646 1.321898
v -0.155252 -0.136501 1.325901
v -0.155252 -0.139501 1.330461
v -0.169177 -0.128918 1.339713
v -0.177854 -0.123217 1.336217
v -0.178792 -0.121005 1.318020
v -0.183235 -0.120058 1.325039
v -0.183100 -0.116467 1.314875
v -0.190082 -0.114895 1.321395
v -0.194386 -0.114070 1.329536
v -0.202095 -0.108728 1.326037
v -0.196926 -0.109142 1.317211
v -0.186812 -0.118855 1.332520
v -0.187395 -0.110662 1.309468
v -0.176972 -0.113067 1.303502
v -0.175628 -0.119115 1.310968
v -0.167915 -0.115792 1.301028
v -0.167484 -0.121345 1.307970
v -0.167146 -0.124216 1.312725
v -0.174087 -0.122390 1.315065
v -0.160567 -0.123602 1.306327
v -0.160557 -0.118053 1.299809
v -0.160781 -0.114336 1.292341
v -0.168582 -0.110699 1.294867
v -0.155252 -0.120024 1.299117
v -0.155252 -0.116285 1.291474
v -0.155252 -0.124835 1.305550
v -0.160582 -0.125687 1.310848
v -0.155252 -0.126845 1.310306
v -0.160554 -0.129091 1.316937
v -0.155252 -0.130218 1.316715
v -0.160560 -0.131622 1.321209
v -0.155252 -0.132609 1.321071
v -0.166970 -0.126996 1.317300
v -0.166998 -0.128006 1.319775
v -0.172018 -0.124450 1.317756
v -0.149949 -0.129091 1.316937
v -0.149921 -0.125687 1.310848
v -0.149937 -0.123602 1.306327
v -0.149947 -0.118053 1.299809
v -0.142588 -0.115792 1.301028
v -0.149722 -0.114336 1.292341
v -0.141921 -0.110699 1.294867
v -0.143020 -0.121345 1.307970
v -0.134875 -0.119115 1.310968
v -0.143357 -0.124216 1.312725
v -0.136416 -0.122390 1.315065
v -0.133531 -0.113067 1.303502
v -0.127404 -0.116467 1.314875
v -0.123109 -0.110662 1.309468
v -0.120422 -0.114895 1.321395
v -0.127268 -0.120058 1.325039
v -0.131711 -0.121005 1.318020
v -0.116117 -0.114070 1.329536
v -0.108419 -0.108728 1.326037
v -0.113587 -0.109142 1.317211
v -0.123691 -0.118855 1.332520
v -0.134654 -0.125283 1.329564
v -0.137000 -0.125646 1.321898
v -0.143481 -0.131029 1.325037
v -0.144121 -0.132984 1.334448
v -0.149680 -0.137132 1.332016
v -0.149933 -0.134516 1.325806
v -0.141327 -0.128918 1.339713
v -0.132650 -0.123217 1.336217
v -0.110469 -0.102807 1.314729
v -0.103854 -0.101645 1.323356
v -0.149943 -0.131622 1.321209
v -0.143533 -0.126996 1.317300
v -0.143506 -0.128006 1.319775
v -0.138486 -0.124450 1.317756
v -0.120488 -0.105231 1.306329
v -0.132094 -0.107876 1.299241
v -0.206649 -0.101645 1.323356
v -0.200034 -0.102807 1.314729
v -0.190015 -0.105231 1.306329
v -0.178410 -0.107876 1.299241
vt 0.603579 0.495087
vt 0.547317 0.497852
vt 0.551320 0.540211
vt 0.601601 0.569107
vt 0.688320 0.529035
vt 0.662918 0.471465
vt 0.499323 0.499175
vt 0.499206 0.524471
vt 0.627152 0.622779
vt 0.706836 0.593901
vt 0.713277 0.442824
vt 0.755593 0.500403
vt 0.754358 0.411111
vt 0.819117 0.474246
vt 0.865834 0.538052
vt 0.941832 0.511000
vt 0.885119 0.446150
vt 0.790778 0.562732
vt 0.799751 0.377903
vt 0.706540 0.323305
vt 0.688340 0.375187
vt 0.623938 0.292914
vt 0.613136 0.353515
vt 0.605070 0.395483
vt 0.667038 0.415910
vt 0.549125 0.338055
vt 0.552993 0.276245
vt 0.560074 0.212705
vt 0.640422 0.239268
vt 0.499813 0.271501
vt 0.499206 0.202928
vt 0.499758 0.333702
vt 0.546820 0.378277
vt 0.499791 0.376505
vt 0.545486 0.430261
vt 0.499631 0.430776
vt 0.543837 0.467205
vt 0.499488 0.467077
vt 0.601110 0.434111
vt 0.600836 0.455031
vt 0.649082 0.436424
vt 0.453794 0.430315
vt 0.452750 0.378344
vt 0.450352 0.338120
vt 0.446505 0.276320
vt 0.375268 0.293180
vt 0.437378 0.212827
vt 0.358870 0.239630
vt 0.386238 0.353685
vt 0.310921 0.375446
vt 0.394496 0.395629
vt 0.332557 0.416139
vt 0.292216 0.323745
vt 0.245024 0.411353
vt 0.198823 0.378060
vt 0.180907 0.474848
vt 0.244521 0.500863
vt 0.286465 0.443118
vt 0.132263 0.538780
vt 0.056212 0.511878
vt 0.112796 0.446916
vt 0.207368 0.563310
vt 0.309760 0.529411
vt 0.336202 0.471773
vt 0.395185 0.495275
vt 0.396558 0.569310
vt 0.446781 0.540315
vt 0.451358 0.497959
vt 0.371113 0.623033
vt 0.291372 0.594313
vt 0.074256 0.430395
vt 0.016572 0.498989
vt 0.455169 0.467276
vt 0.398209 0.434245
vt 0.398269 0.455182
vt 0.350234 0.436613
vt 0.160893 0.353831
vt 0.269619 0.287696
vt 0.981447 0.498032
vt 0.923627 0.429552
vt 0.833988 0.350235
vt 0.729107 0.286985
vn -0.493416 -0.813990 -0.306530
vn -0.386869 -0.817064 -0.427480
vn -0.474446 -0.818640 -0.323620
vn -0.593010 -0.801483 -0.077226
vn -0.570043 -0.820722 -0.038297
vn -0.501759 -0.820544 -0.273762
vn 0.000001 -0.853100 -0.521747
vn 0.000001 -0.882683 -0.469969
vn -0.629303 -0.764453 0.139965
vn -0.568652 -0.819776 0.067834
vn -0.501470 -0.804877 -0.317334
vn -0.521150 -0.838929 -0.156846
vn -0.493369 -0.775683 -0.393577
vn -0.507675 -0.818697 -0.268331
vn -0.513556 -0.836597 -0.190698
vn -0.625020 -0.704502 -0.336195
vn -0.590907 -0.689251 -0.419241
vn -0.511654 -0.855375 -0.080895
vn -0.515659 -0.680930 -0.520029
vn -0.445391 -0.697032 -0.561937
vn -0.436181 -0.760513 -0.481006
vn -0.395046 -0.735939 -0.549848
vn -0.366195 -0.775405 -0.514440
vn -0.356506 -0.817991 -0.451436
vn -0.427514 -0.801204 -0.418693
vn -0.312902 -0.803586 -0.506302
vn -0.361591 -0.775786 -0.517115
vn -0.390737 -0.807765 -0.441408
vn -0.419133 -0.732620 -0.536278
vn 0.000001 -0.841633 -0.540050
vn 0.000001 -0.899051 -0.437844
vn 0.000001 -0.855026 -0.518586
vn -0.281154 -0.852519 -0.440641
vn 0.000001 -0.897639 -0.440732
vn -0.263009 -0.844683 -0.466193
vn 0.000001 -0.873702 -0.486461
vn -0.278131 -0.821262 -0.498169
vn 0.000001 -0.839821 -0.542863
vn -0.371621 -0.827930 -0.420036
vn -0.390586 -0.815464 -0.427155
vn -0.420319 -0.816939 -0.394895
vn 0.263009 -0.844683 -0.466194
vn 0.281154 -0.852519 -0.440641
vn 0.312903 -0.803586 -0.506302
vn 0.361591 -0.775786 -0.517114
vn 0.395046 -0.735940 -0.549847
vn 0.390737 -0.807765 -0.441408
vn 0.419133 -0.732621 -0.536278
vn 0.366195 -0.775405 -0.514440
vn 0.436181 -0.760513 -0.481006
vn 0.356506 -0.817991 -0.451436
vn 0.427514 -0.801205 -0.418692
vn 0.445390 -0.697033 -0.561936
vn 0.493436 -0.775640 -0.393577
vn 0.515739 -0.680944 -0.519932
vn 0.507856 -0.818570 -0.268376
vn 0.521150 -0.838929 -0.156846
vn 0.501470 -0.804877 -0.317334
vn 0.513766 -0.836440 -0.190822
vn 0.624910 -0.704651 -0.336088
vn 0.590883 -0.689369 -0.419079
vn 0.511654 -0.855375 -0.080896
vn 0.570043 -0.820722 -0.038298
vn 0.501760 -0.820544 -0.273762
vn 0.493416 -0.813990 -0.306530
vn 0.593010 -0.801483 -0.077227
vn 0.474447 -0.818639 -0.323621
vn 0.386870 -0.817064 -0.427480
vn 0.629303 -0.764452 0.139965
vn 0.568652 -0.819777 0.067833
vn 0.657594 -0.568344 -0.494525
vn 0.705339 -0.567363 -0.424966
vn 0.278131 -0.821261 -0.498169
vn 0.371619 -0.827929 -0.420038
vn 0.390587 -0.815463 -0.427156
vn 0.420320 -0.816939 -0.394895
vn 0.552531 -0.587123 -0.591605
vn 0.462070 -0.650817 -0.602436
vn -0.705737 -0.566617 -0.425301
vn -0.657769 -0.567775 -0.494946
vn -0.552500 -0.586920 -0.591835
vn -0.462070 -0.650816 -0.602437
usemtl material
f 1/0/1 2/0/2 3/0/3
f 1/0/1 3/0/3 4/0/4
f 5/0/5 1/0/1 4/0/4
f 5/0/5 6/0/6 1/0/1
f 3/0/3 2/0/2 7/0/7
f 3/0/3 7/0/7 8/0/8
f 9/0/9 5/0/5 4/0/4
f 9/0/9 10/0/10 5/0/5
f 11/0/11 6/0/6 5/0/5
f 11/0/11 5/0/5 12/0/12
f 12/0/12 5/0/5 10/0/10
f 13/0/13 11/0/11 12/0/12
f 13/0/13 12/0/12 14/0/14
f 12/0/12 15/0/15 14/0/14
f 14/0/14 15/0/15 16/0/16
f 14/0/14 16/0/16 17/0/17
f 12/0/12 18/0/18 15/0/15
f 12/0/12 10/0/10 18/0/18
f 14/0/14 17/0/17 19/0/19
f 14/0/14 19/0/19 13/0/13
f 13/0/13 19/0/19 20/0/20
f 13/0/13 20/0/20 21/0/21
f 21/0/21 11/0/11 13/0/13
f 21/0/21 20/0/20 22/0/22
f 21/0/21 22/0/22 23/0/23
f 21/0/21 23/0/23 24/0/24
f 21/0/21 24/0/24 25/0/25
f 21/0/21 25/0/25 11/0/11
f 22/0/22 26/0/26 23/0/23
f 26/0/26 24/0/24 23/0/23
f 22/0/22 27/0/27 26/0/26
f 28/0/28 27/0/27 22/0/22
f 28/0/28 22/0/22 29/0/29
f 28/0/28 30/0/30 27/0/27
f 28/0/28 31/0/31 30/0/30
f 32/0/32 26/0/26 27/0/27
f 32/0/32 27/0/27 30/0/30
f 32/0/32 33/0/33 26/0/26
f 26/0/26 33/0/33 24/0/24
f 32/0/32 34/0/34 33/0/33
f 35/0/35 33/0/33 34/0/34
f 35/0/35 34/0/34 36/0/36
f 36/0/36 37/0/37 35/0/35
f 36/0/36 38/0/38 37/0/37
f 39/0/39 35/0/35 37/0/37
f 39/0/39 25/0/25 24/0/24
f 39/0/39 24/0/24 33/0/33
f 39/0/39 33/0/33 35/0/35
f 39/0/39 37/0/37 40/0/40
f 37/0/37 38/0/38 7/0/7
f 37/0/37 7/0/7 2/0/2
f 40/0/40 37/0/37 2/0/2
f 40/0/40 2/0/2 1/0/1
f 6/0/6 40/0/40 1/0/1
f 6/0/6 41/0/41 40/0/40
f 40/0/40 41/0/41 39/0/39
f 39/0/39 41/0/41 25/0/25
f 11/0/11 25/0/25 41/0/41
f 11/0/11 41/0/41 6/0/6
f 42/0/42 36/0/36 34/0/34
f 42/0/42 34/0/34 43/0/43
f 32/0/32 43/0/43 34/0/34
f 32/0/32 44/0/44 43/0/43
f 32/0/32 45/0/45 44/0/44
f 46/0/46 44/0/44 45/0/45
f 47/0/47 46/0/46 45/0/45
f 47/0/47 48/0/48 46/0/46
f 47/0/47 45/0/45 30/0/30
f 32/0/32 30/0/30 45/0/45
f 47/0/47 30/0/30 31/0/31
f 46/0/46 49/0/49 44/0/44
f 50/0/50 49/0/49 46/0/46
f 50/0/50 51/0/51 49/0/49
f 44/0/44 49/0/49 51/0/51
f 44/0/44 51/0/51 43/0/43
f 50/0/50 52/0/52 51/0/51
f 50/0/50 46/0/46 53/0/53
f 54/0/54 50/0/50 53/0/53
f 54/0/54 53/0/53 55/0/55
f 56/0/56 54/0/54 55/0/55
f 54/0/54 56/0/56 57/0/57
f 54/0/54 57/0/57 58/0/58
f 50/0/50 54/0/54 58/0/58
f 50/0/50 58/0/58 52/0/52
f 57/0/57 56/0/56 59/0/59
f 56/0/56 60/0/60 59/0/59
f 56/0/56 61/0/61 60/0/60
f 56/0/56 55/0/55 61/0/61
f 57/0/57 59/0/59 62/0/62
f 58/0/58 57/0/57 63/0/63
f 58/0/58 63/0/63 64/0/64
f 63/0/63 65/0/65 64/0/64
f 63/0/63 66/0/66 65/0/65
f 65/0/65 66/0/66 67/0/67
f 65/0/65 67/0/67 68/0/68
f 67/0/67 7/0/7 68/0/68
f 67/0/67 8/0/8 7/0/7
f 69/0/69 66/0/66 63/0/63
f 69/0/69 63/0/63 70/0/70
f 57/0/57 62/0/62 70/0/70
f 57/0/57 70/0/70 63/0/63
f 60/0/60 61/0/61 71/0/71
f 60/0/60 71/0/71 72/0/72
f 73/0/73 68/0/68 7/0/7
f 73/0/73 7/0/7 38/0/38
f 36/0/36 73/0/73 38/0/38
f 36/0/36 42/0/42 73/0/73
f 74/0/74 73/0/73 42/0/42
f 74/0/74 75/0/75 73/0/73
f 75/0/75 65/0/65 68/0/68
f 75/0/75 68/0/68 73/0/73
f 74/0/74 42/0/42 43/0/43
f 74/0/74 43/0/43 51/0/51
f 74/0/74 51/0/51 52/0/52
f 74/0/74 52/0/52 76/0/76
f 75/0/75 74/0/74 76/0/76
f 58/0/58 76/0/76 52/0/52
f 58/0/58 64/0/64 76/0/76
f 64/0/64 75/0/75 76/0/76
f 64/0/64 65/0/65 75/0/75
f 71/0/71 61/0/61 55/0/55
f 71/0/71 55/0/55 77/0/77
f 77/0/77 55/0/55 53/0/53
f 77/0/77 53/0/53 78/0/78
f 78/0/78 53/0/53 46/0/46
f 78/0/78 46/0/46 48/0/48
f 16/0/16 79/0/79 80/0/80
f 16/0/16 80/0/80 17/0/17
f 80/0/80 19/0/19 17/0/17
f 80/0/80 81/0/81 19/0/19
f 81/0/81 20/0/20 19/0/19
f 81/0/81 82/0/82 20/0/20
f 82/0/82 22/0/22 20/0/20
f 82/0/82 29/0/29 22/0/22
