# 
# Wavefront OBJ file
# Created with Kaydara FBX
# 
mtllib avatar_sin_eye_r.mtl

g Avatar_Sin_Eye_R
v -0.090533 -0.116233 1.419387
v -0.093240 -0.114276 1.399728
v -0.082652 -0.100531 1.399297
v -0.078789 -0.100485 1.417936
v -0.096432 -0.109177 1.383672
v -0.087838 -0.098976 1.382177
v -0.103518 -0.126875 1.420441
v -0.105776 -0.122041 1.400049
v -0.107969 -0.114114 1.383312
v -0.091103 -0.098698 1.370217
v -0.099227 -0.106806 1.369758
v -0.109806 -0.110828 1.368802
v -0.073897 -0.081753 1.398315
v -0.078453 -0.083768 1.380738
v -0.070143 -0.077211 1.415706
v -0.118552 -0.135302 1.421049
v -0.117814 -0.134475 1.444632
v -0.102619 -0.126369 1.443091
v -0.134662 -0.139611 1.445604
v -0.135265 -0.140584 1.421434
v -0.119195 -0.128706 1.400406
v -0.136737 -0.134238 1.400634
v -0.129960 -0.122834 1.386963
v -0.147520 -0.136532 1.400534
v -0.146923 -0.142381 1.421580
v -0.148025 -0.130767 1.385824
v -0.139790 -0.126550 1.386234
v -0.142120 -0.124609 1.373795
v -0.131499 -0.119715 1.379066
v -0.119506 -0.117017 1.382240
v -0.119553 -0.114559 1.368299
v -0.149514 -0.129539 1.375552
v -0.150601 -0.129537 1.366620
v -0.144199 -0.124806 1.364589
v -0.134165 -0.119033 1.370841
v -0.130613 -0.117424 1.363674
v -0.119599 -0.112725 1.357643
v -0.111220 -0.108744 1.357187
v -0.112378 -0.110250 1.348002
v -0.102742 -0.105696 1.346974
v -0.101824 -0.105272 1.358769
v -0.119879 -0.114796 1.349282
v -0.126953 -0.116101 1.359930
v -0.128996 -0.118550 1.350864
v -0.138154 -0.122605 1.353457
v -0.145390 -0.126741 1.356280
v -0.136163 -0.120098 1.362515
v -0.094868 -0.099387 1.345867
v -0.092896 -0.099044 1.362266
v -0.151278 -0.132371 1.359900
v -0.085461 -0.086222 1.358172
v -0.090326 -0.088415 1.344165
v -0.089058 -0.069458 1.341418
v -0.084195 -0.065870 1.354592
v -0.081766 -0.085256 1.370031
v -0.080277 -0.063283 1.366593
v -0.076373 -0.061378 1.378510
v -0.071285 -0.059668 1.396129
v -0.067981 -0.057183 1.412685
v -0.069543 -0.075200 1.435410
v -0.077503 -0.097602 1.437931
v -0.089344 -0.114388 1.440956
v -0.146603 -0.142072 1.445589
vt 0.422115 0.715626
vt 0.447874 0.541656
vt 0.345037 0.536550
vt 0.296886 0.704301
vt 0.478235 0.405604
vt 0.394593 0.393105
vt 0.541030 0.719968
vt 0.556240 0.544154
vt 0.578565 0.401003
vt 0.421214 0.291759
vt 0.499612 0.287719
vt 0.590670 0.279413
vt 0.210048 0.505752
vt 0.268262 0.368234
vt 0.150862 0.660557
vt 0.668867 0.721795
vt 0.661798 0.921550
vt 0.526527 0.908764
vt 0.813126 0.929484
vt 0.818328 0.724761
vt 0.674734 0.546948
vt 0.831297 0.548563
vt 0.761827 0.427783
vt 0.928856 0.547522
vt 0.923789 0.725791
vt 0.933189 0.422926
vt 0.857536 0.425748
vt 0.878479 0.321220
vt 0.767949 0.361932
vt 0.677507 0.385473
vt 0.674731 0.275608
vt 0.946531 0.335905
vt 0.956255 0.260234
vt 0.898138 0.243147
vt 0.789080 0.298520
vt 0.760200 0.242322
vt 0.670285 0.188870
vt 0.598246 0.181049
vt 0.601431 0.100843
vt 0.509297 0.094779
vt 0.515964 0.194637
vt 0.675080 0.111566
vt 0.725773 0.206739
vt 0.759893 0.127177
vt 0.843262 0.148968
vt 0.908784 0.172751
vt 0.825461 0.225730
vt 0.449936 0.089941
vt 0.432676 0.224413
vt 0.962286 0.203300
vt 0.337979 0.183504
vt 0.389876 0.062500
vt 0.275353 -0.006828
vt 0.205233 0.127401
vt 0.299012 0.282054
vt 0.159300 0.221568
vt 0.118619 0.317749
vt 0.065889 0.457538
vt 0.010422 0.584411
vt 0.103631 0.803071
vt 0.248858 0.856645
vt 0.384343 0.890929
vt 0.921275 0.929143
vn 0.710866 -0.698029 -0.086165
vn 0.635800 -0.722585 -0.271348
vn 0.825464 -0.523163 -0.211916
vn 0.870270 -0.487221 -0.072429
vn 0.580064 -0.755707 -0.304027
vn 0.781044 -0.573800 -0.246421
vn 0.541366 -0.832926 -0.114704
vn 0.444923 -0.828070 -0.341090
vn 0.363799 -0.867988 -0.338005
vn 0.755078 -0.621436 -0.208983
vn 0.539533 -0.811324 -0.225073
vn 0.357427 -0.909932 -0.210404
vn 0.937002 -0.285904 -0.200716
vn 0.915102 -0.315885 -0.250610
vn 0.967622 -0.237646 -0.085039
vn 0.378821 -0.915738 -0.133859
vn 0.388990 -0.921061 0.018244
vn 0.566656 -0.823906 0.008881
vn 0.238241 -0.970877 0.025262
vn 0.235088 -0.962770 -0.133442
vn 0.326068 -0.856177 -0.400801
vn 0.260577 -0.884134 -0.387824
vn 0.313691 -0.835330 -0.451466
vn 0.237289 -0.903244 -0.357555
vn 0.176670 -0.975543 -0.130777
vn 0.397159 -0.860977 -0.317779
vn 0.395536 -0.845349 -0.359078
vn 0.512319 -0.841777 -0.170121
vn 0.364581 -0.892481 -0.265629
vn 0.289688 -0.892096 -0.346763
vn 0.319036 -0.933267 -0.165010
vn 0.517072 -0.842965 -0.148481
vn 0.620211 -0.784003 0.026015
vn 0.575848 -0.817013 0.029810
vn 0.414672 -0.902082 -0.119568
vn 0.370031 -0.928969 -0.009664
vn 0.416720 -0.908977 0.010200
vn 0.408308 -0.911655 -0.046593
vn 0.436657 -0.894705 0.093988
vn 0.499661 -0.866217 0.002790
vn 0.504895 -0.856999 -0.103123
vn 0.453197 -0.877760 0.155400
vn 0.391230 -0.919576 0.036313
vn 0.428706 -0.889230 0.159627
vn 0.480111 -0.867042 0.133160
vn 0.597612 -0.790891 0.131724
vn 0.472996 -0.878126 0.071895
vn 0.755238 -0.647549 -0.101463
vn 0.745695 -0.646858 -0.159730
vn 0.675911 -0.722516 0.145310
vn 0.917565 -0.314188 -0.243639
vn 0.921834 -0.307785 -0.235563
vn 0.942934 -0.111323 -0.313819
vn 0.947568 -0.110421 -0.299870
vn 0.906195 -0.341557 -0.249299
vn 0.951457 -0.111420 -0.286907
vn 0.956059 -0.119851 -0.267556
vn 0.968768 -0.129371 -0.211545
vn 0.984221 -0.125424 -0.124813
vn 0.963683 -0.266930 -0.008010
vn 0.884856 -0.465800 0.007791
vn 0.735358 -0.677537 0.013854
vn 0.177650 -0.983830 0.022773
usemtl material
f 1/0/1 2/0/2 3/0/3
f 1/0/1 3/0/3 4/0/4
f 3/0/3 2/0/2 5/0/5
f 3/0/3 5/0/5 6/0/6
f 7/0/7 2/0/2 1/0/1
f 7/0/7 8/0/8 2/0/2
f 2/0/2 8/0/8 9/0/9
f 2/0/2 9/0/9 5/0/5
f 10/0/10 6/0/6 5/0/5
f 10/0/10 5/0/5 11/0/11
f 11/0/11 5/0/5 9/0/9
f 11/0/11 9/0/9 12/0/12
f 6/0/6 13/0/13 3/0/3
f 13/0/13 4/0/4 3/0/3
f 6/0/6 14/0/14 13/0/13
f 13/0/13 15/0/15 4/0/4
f 16/0/16 8/0/8 7/0/7
f 17/0/17 16/0/16 7/0/7
f 17/0/17 7/0/7 18/0/18
f 19/0/19 16/0/16 17/0/17
f 19/0/19 20/0/20 16/0/16
f 20/0/20 21/0/21 16/0/16
f 16/0/16 21/0/21 8/0/8
f 20/0/20 22/0/22 21/0/21
f 22/0/22 23/0/23 21/0/21
f 20/0/20 24/0/24 22/0/22
f 20/0/20 25/0/25 24/0/24
f 25/0/25 20/0/20 19/0/19
f 22/0/22 24/0/24 26/0/26
f 22/0/22 26/0/26 27/0/27
f 22/0/22 27/0/27 23/0/23
f 23/0/23 27/0/27 28/0/28
f 28/0/28 27/0/27 26/0/26
f 23/0/23 28/0/28 29/0/29
f 30/0/30 23/0/23 29/0/29
f 21/0/21 23/0/23 30/0/30
f 29/0/29 31/0/31 30/0/30
f 28/0/28 26/0/26 32/0/32
f 33/0/33 28/0/28 32/0/32
f 33/0/33 34/0/34 28/0/28
f 35/0/35 28/0/28 34/0/34
f 35/0/35 29/0/29 28/0/28
f 31/0/31 29/0/29 35/0/35
f 31/0/31 35/0/35 36/0/36
f 8/0/8 21/0/21 30/0/30
f 8/0/8 30/0/30 9/0/9
f 9/0/9 30/0/30 31/0/31
f 9/0/9 31/0/31 12/0/12
f 37/0/37 12/0/12 31/0/31
f 36/0/36 37/0/37 31/0/31
f 37/0/37 38/0/38 12/0/12
f 37/0/37 39/0/39 38/0/38
f 38/0/38 39/0/39 40/0/40
f 38/0/38 40/0/40 41/0/41
f 41/0/41 12/0/12 38/0/38
f 37/0/37 42/0/42 39/0/39
f 42/0/42 37/0/37 43/0/43
f 36/0/36 43/0/43 37/0/37
f 42/0/42 43/0/43 44/0/44
f 43/0/43 45/0/45 44/0/44
f 34/0/34 46/0/46 45/0/45
f 43/0/43 47/0/47 45/0/45
f 43/0/43 36/0/36 47/0/47
f 34/0/34 45/0/45 47/0/47
f 41/0/41 11/0/11 12/0/12
f 48/0/48 41/0/41 40/0/40
f 48/0/48 49/0/49 41/0/41
f 11/0/11 41/0/41 49/0/49
f 47/0/47 35/0/35 34/0/34
f 46/0/46 34/0/34 33/0/33
f 46/0/46 33/0/33 50/0/50
f 51/0/51 49/0/49 48/0/48
f 51/0/51 48/0/48 52/0/52
f 53/0/53 51/0/51 52/0/52
f 53/0/53 54/0/54 51/0/51
f 55/0/55 51/0/51 54/0/54
f 55/0/55 54/0/54 56/0/56
f 56/0/56 14/0/14 55/0/55
f 56/0/56 57/0/57 14/0/14
f 13/0/13 14/0/14 57/0/57
f 13/0/13 57/0/57 58/0/58
f 59/0/59 13/0/13 58/0/58
f 59/0/59 15/0/15 13/0/13
f 55/0/55 14/0/14 6/0/6
f 55/0/55 6/0/6 10/0/10
f 51/0/51 55/0/55 10/0/10
f 15/0/15 59/0/59 60/0/60
f 15/0/15 60/0/60 61/0/61
f 15/0/15 61/0/61 4/0/4
f 62/0/62 4/0/4 61/0/61
f 62/0/62 1/0/1 4/0/4
f 1/0/1 62/0/62 18/0/18
f 1/0/1 18/0/18 7/0/7
f 51/0/51 10/0/10 49/0/49
f 11/0/11 49/0/49 10/0/10
f 36/0/36 35/0/35 47/0/47
f 25/0/25 19/0/19 63/0/63
