# 
# Wavefront OBJ file
# Created with Kaydara FBX
# 
mtllib avatar_yae_sakura_mouth_q.mtl

g Avatar_Yae_sakura_Mouth_q
v -0.017071 1.606109 0.098565
v -0.007110 1.604471 0.104469
v -0.006262 1.609851 0.108064
v -0.000001 1.603871 0.106734
v -0.000001 1.607650 0.110410
v -0.000001 1.598560 0.104375
v -0.007816 1.598709 0.102363
v -0.000001 1.592663 0.098601
v -0.008358 1.593709 0.097502
v -0.014915 1.599387 0.098499
v -0.023764 1.602856 0.092494
v -0.017723 1.596646 0.093505
v -0.020927 1.593117 0.089136
v -0.030524 1.599237 0.086640
v -0.000001 1.587139 0.094837
v -0.008338 1.588085 0.092933
v -0.007615 1.580499 0.086555
v -0.014369 1.582640 0.084764
v -0.000001 1.578749 0.087933
v -0.024096 1.587919 0.081836
v -0.035608 1.594903 0.079276
v 0.017069 1.606109 0.098565
v 0.006261 1.609851 0.108064
v 0.007108 1.604471 0.104469
v -0.000001 1.603871 0.106734
v -0.000001 1.607650 0.110410
v -0.000001 1.598560 0.104375
v 0.007815 1.598709 0.102363
v -0.000001 1.592663 0.098601
v 0.008356 1.593709 0.097502
v 0.014913 1.599387 0.098499
v 0.023763 1.602856 0.092494
v 0.017722 1.596646 0.093505
v 0.020926 1.593117 0.089136
v 0.030523 1.599237 0.086640
v -0.000001 1.587139 0.094837
v 0.008337 1.588085 0.092933
v 0.007613 1.580499 0.086555
v 0.014368 1.582640 0.084764
v -0.000001 1.578749 0.087933
v 0.024094 1.587919 0.081836
v 0.035607 1.594903 0.079276
vt 0.739599 0.643253
vt 0.593594 0.624388
vt 0.581081 0.706203
vt 0.497968 0.620624
vt 0.497968 0.677546
vt 0.497968 0.543733
vt 0.594698 0.545022
vt 0.497968 0.458073
vt 0.607790 0.470476
vt 0.710467 0.552512
vt 0.850623 0.577933
vt 0.738477 0.500587
vt 0.784508 0.455478
vt 0.935368 0.521011
vt 0.497968 0.372064
vt 0.609949 0.385573
vt 0.609670 0.272603
vt 0.708043 0.316241
vt 0.497968 0.258804
vt 0.836715 0.385270
vt 0.991865 0.464088
vt 0.256338 0.643253
vt 0.414856 0.706203
vt 0.402343 0.624388
vt 0.497968 0.620624
vt 0.497968 0.677546
vt 0.497968 0.543733
vt 0.401239 0.545022
vt 0.497968 0.458073
vt 0.388148 0.470476
vt 0.285470 0.552512
vt 0.145314 0.577933
vt 0.257461 0.500587
vt 0.211840 0.456507
vt 0.060569 0.521011
vt 0.497968 0.372064
vt 0.385988 0.385573
vt 0.386267 0.272603
vt 0.287895 0.316241
vt 0.497968 0.258804
vt 0.159222 0.385270
vt 0.004072 0.464088
vn -0.564892 -0.292075 0.771744
vn -0.426353 -0.365370 0.827483
vn -0.418949 -0.514537 0.748153
vn 0.000000 -0.482778 0.875743
vn -0.000000 -0.598688 0.800982
vn 0.000000 -0.550505 0.834832
vn -0.363748 -0.478814 0.799015
vn -0.000001 -0.648442 0.761264
vn -0.335340 -0.609129 0.718685
vn -0.529802 -0.405484 0.744911
vn -0.537676 -0.385131 0.750053
vn -0.502196 -0.472621 0.724174
vn -0.482853 -0.531228 0.696168
vn -0.505158 -0.526209 0.684047
vn -0.000001 -0.626442 0.779468
vn -0.357751 -0.587839 0.725576
vn -0.289546 -0.623534 0.726201
vn -0.456296 -0.579410 0.675336
vn -0.000001 -0.646389 0.763008
vn -0.489187 -0.568582 0.661371
vn -0.506481 -0.564359 0.651902
vn 0.564894 -0.292073 0.771744
vn 0.418954 -0.514536 0.748151
vn 0.426358 -0.365368 0.827482
vn 0.000000 -0.482778 0.875743
vn -0.000000 -0.598688 0.800982
vn 0.000000 -0.550505 0.834832
vn 0.363749 -0.478813 0.799015
vn -0.000001 -0.648442 0.761264
vn 0.335340 -0.609129 0.718686
vn 0.529802 -0.405483 0.744911
vn 0.537676 -0.385130 0.750053
vn 0.502197 -0.472620 0.724174
vn 0.482853 -0.531227 0.696169
vn 0.505155 -0.526209 0.684049
vn -0.000001 -0.626442 0.779468
vn 0.357751 -0.587838 0.725577
vn 0.289546 -0.623534 0.726202
vn 0.456300 -0.579407 0.675336
vn -0.000001 -0.646389 0.763008
vn 0.489186 -0.568581 0.661372
vn 0.506477 -0.564359 0.651905
usemtl material
f 1/0/1 2/0/2 3/0/3
f 3/0/3 2/0/2 4/0/4
f 3/0/3 4/0/4 5/0/5
f 6/0/6 4/0/4 2/0/2
f 6/0/6 2/0/2 7/0/7
f 7/0/7 8/0/8 6/0/6
f 7/0/7 9/0/9 8/0/8
f 10/0/10 9/0/9 7/0/7
f 10/0/10 7/0/7 2/0/2
f 10/0/10 2/0/2 1/0/1
f 10/0/10 1/0/1 11/0/11
f 10/0/10 11/0/11 12/0/12
f 10/0/10 12/0/12 9/0/9
f 13/0/13 12/0/12 11/0/11
f 13/0/13 11/0/11 14/0/14
f 9/0/9 15/0/15 8/0/8
f 9/0/9 16/0/16 15/0/15
f 12/0/12 13/0/13 16/0/16
f 12/0/12 16/0/16 9/0/9
f 15/0/15 16/0/16 17/0/17
f 18/0/18 17/0/17 16/0/16
f 13/0/13 18/0/18 16/0/16
f 15/0/15 17/0/17 19/0/19
f 14/0/14 20/0/20 13/0/13
f 13/0/13 20/0/20 18/0/18
f 14/0/14 21/0/21 20/0/20
f 22/0/22 23/0/23 24/0/24
f 23/0/23 25/0/25 24/0/24
f 23/0/23 26/0/26 25/0/25
f 27/0/27 24/0/24 25/0/25
f 27/0/27 28/0/28 24/0/24
f 28/0/28 27/0/27 29/0/29
f 28/0/28 29/0/29 30/0/30
f 31/0/31 28/0/28 30/0/30
f 31/0/31 22/0/22 24/0/24
f 31/0/31 24/0/24 28/0/28
f 31/0/31 32/0/32 22/0/22
f 31/0/31 33/0/33 32/0/32
f 31/0/31 30/0/30 33/0/33
f 34/0/34 32/0/32 33/0/33
f 34/0/34 35/0/35 32/0/32
f 30/0/30 29/0/29 36/0/36
f 30/0/30 36/0/36 37/0/37
f 33/0/33 30/0/30 37/0/37
f 33/0/33 37/0/37 34/0/34
f 36/0/36 38/0/38 37/0/37
f 39/0/39 37/0/37 38/0/38
f 34/0/34 37/0/37 39/0/39
f 36/0/36 40/0/40 38/0/38
f 35/0/35 34/0/34 41/0/41
f 34/0/34 39/0/39 41/0/41
f 35/0/35 41/0/41 42/0/42
