# 
# Wavefront OBJ file
# Created with Kaydara FBX
# 
mtllib avatar_yae_sakura_eye_l_q.mtl

g Avatar_Yae_sakura_Eye_L_q
v -0.072335 1.708535 0.073957
v -0.079736 1.707258 0.054989
v -0.078177 1.685769 0.058206
v -0.070381 1.687966 0.074486
v -0.066690 1.671884 0.073619
v -0.075350 1.669971 0.059678
v -0.059840 1.709590 0.089830
v -0.058764 1.687851 0.089450
v -0.055169 1.672772 0.085852
v -0.071455 1.659793 0.062048
v -0.062249 1.660104 0.072891
v -0.066847 1.649717 0.064359
v -0.060626 1.648471 0.072066
v -0.052700 1.659687 0.081958
v -0.042491 1.709145 0.104772
v -0.040693 1.687625 0.103585
v -0.018967 1.708734 0.114076
v -0.017109 1.686973 0.111782
v -0.024690 1.673525 0.102526
v -0.015193 1.672223 0.107158
v -0.000001 1.686732 0.115606
v -0.000001 1.708446 0.117357
v -0.008488 1.670871 0.109809
v -0.011640 1.656726 0.100535
v -0.021860 1.660205 0.094530
v -0.038714 1.673144 0.093440
v -0.038633 1.659233 0.088504
v -0.005480 1.656359 0.104784
v -0.004811 1.643557 0.103482
v -0.010042 1.642353 0.100167
v -0.020896 1.649549 0.092206
v -0.017074 1.638851 0.094169
v -0.024511 1.645408 0.089687
v -0.038842 1.641287 0.084953
v -0.037842 1.634665 0.085588
v -0.025428 1.636297 0.090786
v -0.049904 1.642779 0.079758
v -0.000001 1.669467 0.110985
v -0.000001 1.656335 0.106844
v -0.049202 1.633558 0.079879
v -0.059019 1.634655 0.071969
v -0.065890 1.637219 0.060031
v -0.071564 1.645565 0.052555
v -0.075972 1.656116 0.044550
vt 0.810761 0.933829
vt 0.939783 0.898642
vt 0.928054 0.675785
vt 0.799032 0.687514
vt 0.775560 0.499143
vt 0.892770 0.486926
vt 0.658281 0.922100
vt 0.658281 0.687514
vt 0.646552 0.511164
vt 0.849433 0.360151
vt 0.739691 0.360161
vt 0.797873 0.248563
vt 0.706685 0.223229
vt 0.624067 0.352910
vt 0.482342 0.922100
vt 0.482342 0.687514
vt 0.236027 0.910371
vt 0.212568 0.675785
vt 0.298758 0.534876
vt 0.189841 0.522573
vt 0.013544 0.675785
vt 0.013544 0.910371
vt 0.109778 0.507856
vt 0.166498 0.344186
vt 0.287776 0.369106
vt 0.458911 0.511379
vt 0.467712 0.352482
vt 0.085598 0.349943
vt 0.077668 0.219968
vt 0.149926 0.192485
vt 0.288244 0.255844
vt 0.245172 0.144287
vt 0.331830 0.207354
vt 0.482450 0.171505
vt 0.470374 0.088041
vt 0.336381 0.105430
vt 0.599815 0.192755
vt 0.013544 0.475644
vt 0.013544 0.357241
vt 0.599386 0.084698
vt 0.705245 0.080003
vt 0.809791 0.096171
vt 0.892631 0.181127
vt 0.985058 0.288599
vn -0.857762 -0.047942 0.511806
vn -0.916041 -0.040980 0.398987
vn -0.895354 -0.090712 0.436019
vn -0.837566 -0.112840 0.534556
vn -0.771437 -0.240999 0.588902
vn -0.830993 -0.194777 0.521068
vn -0.707389 -0.063121 0.704001
vn -0.673266 -0.184701 0.715959
vn -0.572464 -0.348247 0.742300
vn -0.833506 -0.228715 0.502948
vn -0.712067 -0.239050 0.660163
vn -0.848846 -0.198511 0.489953
vn -0.694301 -0.145599 0.704803
vn -0.535018 -0.252992 0.806071
vn -0.496581 -0.088542 0.863462
vn -0.477606 -0.207636 0.853686
vn -0.287057 -0.102540 0.952409
vn -0.289658 -0.178540 0.940331
vn -0.414563 -0.449675 0.791157
vn -0.429571 -0.415106 0.801970
vn -0.196674 -0.148361 0.969179
vn -0.193690 -0.099073 0.976047
vn -0.289726 -0.302211 0.908145
vn -0.533390 -0.319574 0.783178
vn -0.412905 -0.357814 0.837543
vn -0.436665 -0.425881 0.792432
vn -0.359709 -0.249298 0.899144
vn -0.425104 -0.294081 0.856039
vn -0.545647 -0.096715 0.832416
vn -0.587350 -0.091492 0.804145
vn -0.553592 -0.138996 0.821107
vn -0.563467 -0.014874 0.826005
vn -0.327012 -0.132314 0.935711
vn -0.379227 -0.112093 0.918489
vn -0.397889 0.054224 0.915830
vn -0.374646 0.110374 0.920575
vn -0.531054 -0.125454 0.837999
vn -0.216839 -0.271724 0.937628
vn -0.244926 -0.329047 0.911998
vn -0.543289 -0.036904 0.838734
vn -0.695100 -0.098495 0.712134
vn -0.869965 -0.219501 0.441565
vn -0.905449 -0.222938 0.361194
vn -0.910622 -0.224492 0.346946
usemtl material
f 1/0/1 2/0/2 3/0/3
f 1/0/1 3/0/3 4/0/4
f 3/0/3 5/0/5 4/0/4
f 3/0/3 6/0/6 5/0/5
f 7/0/7 1/0/1 4/0/4
f 7/0/7 4/0/4 8/0/8
f 4/0/4 5/0/5 9/0/9
f 4/0/4 9/0/9 8/0/8
f 10/0/10 5/0/5 6/0/6
f 10/0/10 11/0/11 5/0/5
f 11/0/11 9/0/9 5/0/5
f 11/0/11 10/0/10 12/0/12
f 11/0/11 12/0/12 13/0/13
f 11/0/11 14/0/14 9/0/9
f 13/0/13 14/0/14 11/0/11
f 15/0/15 7/0/7 8/0/8
f 15/0/15 8/0/8 16/0/16
f 17/0/17 15/0/15 16/0/16
f 17/0/17 16/0/16 18/0/18
f 18/0/18 16/0/16 19/0/19
f 18/0/18 19/0/19 20/0/20
f 17/0/17 18/0/18 21/0/21
f 17/0/17 21/0/21 22/0/22
f 18/0/18 20/0/20 23/0/23
f 21/0/21 18/0/18 23/0/23
f 19/0/19 24/0/24 20/0/20
f 24/0/24 23/0/23 20/0/20
f 19/0/19 25/0/25 24/0/24
f 26/0/26 25/0/25 19/0/19
f 16/0/16 26/0/26 19/0/19
f 25/0/25 26/0/26 27/0/27
f 24/0/24 28/0/28 23/0/23
f 29/0/29 28/0/28 24/0/24
f 29/0/29 24/0/24 30/0/30
f 31/0/31 30/0/30 24/0/24
f 31/0/31 24/0/24 25/0/25
f 31/0/31 32/0/32 30/0/30
f 27/0/27 33/0/33 25/0/25
f 33/0/33 32/0/32 31/0/31
f 25/0/25 33/0/33 31/0/31
f 27/0/27 34/0/34 33/0/33
f 35/0/35 33/0/33 34/0/34
f 35/0/35 36/0/36 33/0/33
f 33/0/33 36/0/36 32/0/32
f 34/0/34 27/0/27 14/0/14
f 34/0/34 14/0/14 37/0/37
f 38/0/38 23/0/23 28/0/28
f 21/0/21 23/0/23 38/0/38
f 38/0/38 28/0/28 39/0/39
f 34/0/34 37/0/37 40/0/40
f 34/0/34 40/0/40 35/0/35
f 37/0/37 41/0/41 40/0/40
f 37/0/37 13/0/13 41/0/41
f 13/0/13 37/0/37 14/0/14
f 12/0/12 41/0/41 13/0/13
f 42/0/42 41/0/41 12/0/12
f 42/0/42 12/0/12 43/0/43
f 43/0/43 12/0/12 10/0/10
f 43/0/43 10/0/10 44/0/44
f 9/0/9 14/0/14 27/0/27
f 9/0/9 27/0/27 26/0/26
f 8/0/8 9/0/9 26/0/26
f 8/0/8 26/0/26 16/0/16
