# 
# Wavefront OBJ file
# Created with Kaydara FBX
# 
mtllib ball_brk03.mtl

g Ball_Brk03
v -0.001378 -0.657094 0.735172
v -0.194351 -0.594689 0.937985
v -0.204235 -0.625253 0.735172
v -0.194351 -0.594689 0.532360
v -0.001422 -0.624972 0.532360
v 0.191422 -0.594154 0.532360
v -0.368478 -0.506270 0.532360
v -0.387324 -0.532283 0.735172
v -0.003648 -0.566032 0.400781
v -0.178144 -0.545941 0.447658
v -0.086888 -0.550036 0.417296
v -0.118995 -0.382149 0.311365
v -0.247751 -0.549299 0.476868
v -0.342324 -0.470851 0.440924
v 0.043919 -0.526480 0.347046
v 0.162492 -0.505534 0.349400
v -0.001378 -0.657094 0.735172
v -0.045574 -0.155333 0.665549
v -0.194351 -0.594689 0.937985
v 0.191422 -0.594154 0.532360
v 0.162492 -0.505534 0.349400
v -0.387324 -0.532283 0.735172
v -0.045574 -0.155333 0.665549
v -0.368478 -0.506270 0.532360
v -0.342324 -0.470851 0.440924
v -0.118995 -0.382149 0.311365
v -0.194351 -0.594689 0.937985
v 0.043919 -0.526480 0.347046
v -0.045574 -0.155333 0.665549
v 0.162492 -0.505534 0.349400
v -0.118995 -0.382149 0.311365
v -0.045574 -0.155333 0.665549
v 0.043919 -0.526480 0.347046
vt 0.819751 0.532736
vt 0.852154 0.566047
vt 0.853367 0.532736
vt 0.852154 0.499424
vt 0.819753 0.500167
vt 0.787353 0.499426
vt 0.884473 0.497139
vt 0.887038 0.532735
vt 0.819755 0.477239
vt 0.850327 0.482693
vt 0.834812 0.478143
vt 0.845242 0.447134
vt 0.862152 0.489308
vt 0.880686 0.479695
vt 0.811637 0.466465
vt 0.791020 0.465518
vt 0.949218 0.377271
vt 0.952408 0.367477
vt 0.959296 0.383889
vt 0.939141 0.370653
vt 0.938166 0.361858
vt 0.966261 0.373492
vt 0.952408 0.367477
vt 0.963612 0.364620
vt 0.961674 0.360414
vt 0.950868 0.354157
vt 0.959296 0.383889
vt 0.943441 0.360941
vt 0.952408 0.367477
vt 0.938166 0.361858
vt 0.950868 0.354157
vt 0.952408 0.367477
vt 0.943441 0.360941
vn -0.079814 -0.993892 -0.076209
vn -0.303912 -0.939769 0.156435
vn -0.307700 -0.951483 0.000000
vn -0.270811 -0.914055 -0.301934
vn -0.010086 -0.955751 -0.294003
vn 0.161518 -0.925861 -0.341604
vn -0.458669 -0.846172 -0.271324
vn -0.452193 -0.890523 -0.049904
vn -0.111449 -0.812222 -0.572604
vn -0.214434 -0.724538 -0.655029
vn -0.241271 -0.722861 -0.647503
vn -0.275096 -0.569623 -0.774501
vn -0.329187 -0.775530 -0.538693
vn -0.363610 -0.694829 -0.620484
vn -0.041548 -0.795340 -0.604737
vn 0.175655 -0.871404 -0.458040
vn 0.715980 0.157439 0.680137
vn 0.798368 0.247682 0.548874
vn 0.739121 0.156024 0.655253
vn 0.849519 0.335142 0.407427
vn 0.887010 0.454764 0.080017
vn -0.653949 0.660890 0.368205
vn -0.658354 0.746674 0.095116
vn -0.741429 0.670297 0.031378
vn -0.673536 0.727308 -0.131807
vn -0.523357 0.762718 -0.379945
vn -0.498823 0.572438 0.650761
vn -0.096882 0.634617 -0.766730
vn -0.096882 0.634617 -0.766730
vn -0.096882 0.634617 -0.766730
vn 0.631174 0.587140 -0.506839
vn 0.631174 0.587140 -0.506839
vn 0.631174 0.587140 -0.506839
usemtl material
f 1/0/1 2/0/2 3/0/3
f 1/0/1 3/0/3 4/0/4
f 1/0/1 4/0/4 5/0/5
f 6/0/6 1/0/1 5/0/5
f 3/0/3 7/0/7 4/0/4
f 3/0/3 8/0/8 7/0/7
f 2/0/2 8/0/8 3/0/3
f 6/0/6 5/0/5 9/0/9
f 5/0/5 4/0/4 10/0/10
f 5/0/5 10/0/10 11/0/11
f 5/0/5 11/0/11 9/0/9
f 11/0/11 10/0/10 12/0/12
f 11/0/11 12/0/12 9/0/9
f 13/0/13 12/0/12 10/0/10
f 4/0/4 13/0/13 10/0/10
f 7/0/7 13/0/13 4/0/4
f 14/0/14 13/0/13 7/0/7
f 13/0/13 14/0/14 12/0/12
f 15/0/15 9/0/9 12/0/12
f 6/0/6 9/0/9 15/0/15
f 6/0/6 15/0/15 16/0/16
f 17/0/17 18/0/18 19/0/19
f 20/0/20 18/0/18 17/0/17
f 21/0/21 18/0/18 20/0/20
f 22/0/22 23/0/23 24/0/24
f 24/0/24 23/0/23 25/0/25
f 25/0/25 23/0/23 26/0/26
f 27/0/27 23/0/23 22/0/22
f 28/0/28 29/0/29 30/0/30
f 31/0/31 32/0/32 33/0/33
