# 
# Wavefront OBJ file
# Created with Kaydara FBX
# 
mtllib ball_brk06.mtl

g Ball_Brk06
v 0.621906 0.000086 0.937985
v 0.591623 -0.192843 0.937985
v 0.616263 -0.204268 0.812124
v 0.654028 0.000130 0.735172
v 0.594897 -0.217437 0.884403
v 0.567428 -0.240539 0.937987
v 0.535996 -0.270491 0.976650
v 0.622187 -0.202727 0.735172
v 0.591623 -0.192843 0.532360
v 0.621906 0.000086 0.532360
v 0.617863 -0.213306 0.737256
v 0.589471 -0.261274 0.644734
v 0.503204 -0.366971 0.532360
v 0.502923 -0.164158 0.349400
v 0.427710 -0.312280 0.349400
v 0.310405 -0.429910 0.349400
v 0.365304 -0.505253 0.532360
v 0.393088 -0.287200 0.306648
v 0.543203 -0.321727 0.597899
v 0.508003 -0.364784 0.580031
v 0.447245 -0.435443 0.570685
v 0.372140 -0.515080 0.615070
v 0.191422 -0.594154 0.532360
v 0.162492 -0.505534 0.349400
v 0.331803 -0.553125 0.671254
v 0.621625 0.202898 0.735173
v 0.654028 0.000130 0.735172
v 0.621906 0.000086 0.532360
v 0.621906 0.000086 0.937985
v 0.468789 -0.341645 1.014564
v 0.437931 -0.378740 0.790891
v 0.535996 -0.270491 0.976650
v 0.567428 -0.240539 0.937987
v 0.399186 -0.421308 1.012543
v 0.437931 -0.378740 0.790891
v 0.594897 -0.217437 0.884403
v 0.616263 -0.204268 0.812124
v 0.437931 -0.378740 0.790891
v 0.617863 -0.213306 0.737256
v 0.617863 -0.213306 0.737256
v 0.437931 -0.378740 0.790891
v 0.589471 -0.261274 0.644734
v 0.543203 -0.321727 0.597899
v 0.437931 -0.378740 0.790891
v 0.508003 -0.364784 0.580031
v 0.447245 -0.435443 0.570685
v 0.447245 -0.435443 0.570685
v 0.437931 -0.378740 0.790891
v 0.372140 -0.515080 0.615070
v 0.331803 -0.553125 0.671254
v 0.191422 -0.594154 0.532360
v 0.161092 0.040965 0.727930
v 0.162492 -0.505534 0.349400
v 0.331803 -0.553125 0.671254
v 0.437931 -0.378740 0.790891
v 0.399186 -0.421308 1.012543
v 0.161092 0.040965 0.727930
v 0.437931 -0.378740 0.790891
v 0.621906 0.000086 0.937985
v 0.161092 0.040965 0.727930
v 0.591623 -0.192843 0.937985
v 0.535996 -0.270491 0.976650
v 0.468789 -0.341645 1.014564
v 0.399186 -0.421308 1.012543
v 0.621625 0.202898 0.735173
v 0.162492 -0.505534 0.349400
v 0.161092 0.040965 0.727930
v 0.310405 -0.429910 0.349400
v 0.393088 -0.287200 0.306648
v 0.502923 -0.164158 0.349400
v 0.621906 0.000086 0.532360
v 0.621625 0.202898 0.735173
vt 0.655945 0.589390
vt 0.690196 0.579116
vt 0.686156 0.550268
vt 0.646133 0.532735
vt 0.691992 0.566826
vt 0.698977 0.577162
vt 0.709426 0.585098
vt 0.683701 0.532736
vt 0.690196 0.486356
vt 0.655945 0.476081
vt 0.686816 0.532736
vt 0.696946 0.514108
vt 0.722829 0.492937
vt 0.708956 0.443427
vt 0.735389 0.454337
vt 0.762776 0.461450
vt 0.755065 0.497118
vt 0.741423 0.443707
vt 0.711086 0.505473
vt 0.721660 0.503800
vt 0.734278 0.502121
vt 0.753986 0.511655
vt 0.787353 0.499426
vt 0.791020 0.465518
vt 0.764358 0.524408
vt 0.955825 0.179868
vt 0.993400 0.179868
vt 0.983596 0.123220
vt 0.983596 0.236516
vt 0.728112 0.588768
vt 0.728867 0.545724
vt 0.709426 0.585098
vt 0.698977 0.577162
vt 0.744956 0.586152
vt 0.728867 0.545724
vt 0.691992 0.566826
vt 0.686156 0.550268
vt 0.728867 0.545724
vt 0.686816 0.532736
vt 0.686816 0.532736
vt 0.728867 0.545724
vt 0.696946 0.514108
vt 0.711086 0.505473
vt 0.728867 0.545724
vt 0.721660 0.503800
vt 0.734278 0.502121
vt 0.734278 0.502121
vt 0.728867 0.545724
vt 0.753986 0.511655
vt 0.764358 0.524408
vt 0.969196 0.362549
vt 0.946822 0.370306
vt 0.966074 0.355292
vt 0.967751 0.368058
vt 0.961607 0.372803
vt 0.963107 0.381595
vt 0.946822 0.370306
vt 0.961607 0.372803
vt 0.948263 0.378637
vt 0.946822 0.370306
vt 0.955059 0.378637
vt 0.957794 0.380171
vt 0.960301 0.381675
vt 0.963107 0.381595
vt 0.941118 0.370593
vt 0.966074 0.355292
vt 0.946822 0.370306
vt 0.963410 0.355292
vt 0.958383 0.353597
vt 0.954048 0.355292
vt 0.948263 0.362549
vt 0.941118 0.370593
vn 0.984985 -0.037439 0.168533
vn 0.928695 -0.293079 0.227222
vn 0.976169 -0.167683 0.137757
vn 0.999986 0.005139 -0.001114
vn 0.904923 -0.363112 0.221955
vn 0.844488 -0.428367 0.321468
vn 0.835157 -0.423632 0.350785
vn 0.969148 -0.241712 -0.048251
vn 0.905818 -0.279249 -0.318613
vn 0.968889 -0.074624 -0.235978
vn 0.942481 -0.330221 -0.051807
vn 0.913764 -0.359589 -0.189026
vn 0.768797 -0.570665 -0.288605
vn 0.810683 -0.322569 -0.488613
vn 0.659425 -0.477706 -0.580478
vn 0.525224 -0.701854 -0.481186
vn 0.558637 -0.767932 -0.313376
vn 0.572636 -0.414834 -0.707107
vn 0.853656 -0.475166 -0.213278
vn 0.774124 -0.631136 -0.048979
vn 0.699842 -0.690868 -0.181446
vn 0.539065 -0.824285 -0.173099
vn 0.430066 -0.826668 -0.362854
vn 0.406636 -0.795339 -0.449536
vn 0.464211 -0.865874 -0.186468
vn 0.987471 0.157804 -0.000000
vn 0.999986 0.005139 -0.001114
vn 0.968889 -0.074624 -0.235978
vn 0.984985 -0.037439 0.168533
vn 0.730254 -0.683061 0.012535
vn 0.730254 -0.683061 0.012535
vn 0.730254 -0.683061 0.012535
vn 0.711017 -0.702355 0.033934
vn 0.752976 -0.658027 0.005249
vn 0.700421 -0.711822 0.052157
vn 0.700421 -0.711822 0.052157
vn 0.692878 -0.717232 0.074149
vn 0.689542 -0.717126 0.101304
vn 0.689542 -0.717126 0.101304
vn 0.693162 -0.704460 0.152518
vn 0.693162 -0.704460 0.152518
vn 0.693162 -0.704460 0.152518
vn 0.706744 -0.683209 0.183679
vn 0.718326 -0.667965 0.194500
vn 0.718326 -0.667965 0.194500
vn 0.729844 -0.653931 0.199257
vn 0.764990 -0.615144 0.190756
vn 0.764990 -0.615144 0.190756
vn 0.764990 -0.615144 0.190756
vn 0.788384 -0.592745 0.164633
vn -0.889522 -0.172727 0.422986
vn -0.765172 -0.206394 0.609847
vn -0.989739 -0.083065 0.116266
vn -0.605744 -0.246239 0.756598
vn -0.535476 -0.231356 0.812244
vn -0.791799 -0.559144 -0.245790
vn -0.791799 -0.559144 -0.245790
vn -0.791799 -0.559144 -0.245790
vn -0.359948 0.361648 0.860028
vn -0.286741 0.469458 0.835098
vn -0.263095 0.330012 0.906572
vn -0.116183 0.530631 0.839602
vn -0.275826 0.424312 0.862484
vn -0.396413 0.324566 0.858786
vn -0.251355 0.684231 0.684579
vn -0.279286 0.546257 -0.789685
vn -0.336538 0.642872 -0.688083
vn -0.495028 0.443611 -0.747099
vn -0.622709 0.412961 -0.664603
vn -0.314846 0.685933 -0.656024
vn -0.203912 0.744232 -0.636033
vn -0.231029 0.687818 -0.688137
usemtl material
f 1/0/1 2/0/2 3/0/3
f 1/0/1 3/0/3 4/0/4
f 5/0/5 3/0/3 2/0/2
f 5/0/5 2/0/2 6/0/6
f 7/0/7 6/0/6 2/0/2
f 4/0/4 3/0/3 8/0/8
f 4/0/4 8/0/8 9/0/9
f 4/0/4 9/0/9 10/0/10
f 3/0/3 11/0/11 8/0/8
f 12/0/12 9/0/9 8/0/8
f 12/0/12 8/0/8 11/0/11
f 12/0/12 13/0/13 9/0/9
f 14/0/14 9/0/9 13/0/13
f 14/0/14 10/0/10 9/0/9
f 14/0/14 13/0/13 15/0/15
f 13/0/13 16/0/16 15/0/15
f 13/0/13 17/0/17 16/0/16
f 14/0/14 15/0/15 18/0/18
f 16/0/16 18/0/18 15/0/15
f 12/0/12 19/0/19 13/0/13
f 19/0/19 20/0/20 13/0/13
f 20/0/20 21/0/21 13/0/13
f 13/0/13 21/0/21 17/0/17
f 17/0/17 21/0/21 22/0/22
f 22/0/22 23/0/23 17/0/17
f 23/0/23 16/0/16 17/0/17
f 16/0/16 23/0/23 24/0/24
f 22/0/22 25/0/25 23/0/23
f 26/0/26 27/0/27 28/0/28
f 26/0/26 29/0/29 27/0/27
f 30/0/30 31/0/31 32/0/32
f 32/0/32 31/0/31 33/0/33
f 34/0/34 31/0/31 30/0/30
f 33/0/33 35/0/35 36/0/36
f 36/0/36 35/0/35 37/0/37
f 37/0/37 38/0/38 39/0/39
f 40/0/40 41/0/41 42/0/42
f 42/0/42 41/0/41 43/0/43
f 43/0/43 44/0/44 45/0/45
f 45/0/45 44/0/44 46/0/46
f 47/0/47 48/0/48 49/0/49
f 49/0/49 48/0/48 50/0/50
f 51/0/51 52/0/52 53/0/53
f 54/0/54 52/0/52 51/0/51
f 55/0/55 52/0/52 54/0/54
f 56/0/56 57/0/57 58/0/58
f 59/0/59 60/0/60 61/0/61
f 61/0/61 60/0/60 62/0/62
f 62/0/62 60/0/60 63/0/63
f 63/0/63 60/0/60 64/0/64
f 65/0/65 60/0/60 59/0/59
f 66/0/66 67/0/67 68/0/68
f 68/0/68 67/0/67 69/0/69
f 69/0/69 67/0/67 70/0/70
f 70/0/70 67/0/67 71/0/71
f 71/0/71 67/0/67 72/0/72
