# 
# Wavefront OBJ file
# Created with Kaydara FBX
# 
mtllib ball_brk08.mtl

g Ball_Brk08
v -0.533790 0.384258 0.735172
v -0.388793 0.529657 0.735172
v -0.369876 0.503695 0.532360
v -0.507777 0.365413 0.532360
v -0.195994 0.592596 0.532360
v -0.205963 0.623133 0.735172
v -0.314977 0.428353 0.349400
v -0.432282 0.310723 0.349400
v -0.167064 0.503976 0.349400
v -0.003021 0.530191 0.349400
v -0.003150 0.623413 0.532360
v -0.229470 0.311003 0.204202
v -0.314696 0.225540 0.204202
v -0.507496 0.162601 0.349400
v -0.122004 0.365947 0.204202
v -0.002820 0.384993 0.204202
v 0.116415 0.366277 0.204202
v 0.161093 0.504431 0.349400
v -0.183260 0.247586 0.164221
v -0.090769 0.270266 0.152918
v -0.002704 0.300901 0.161355
v -0.552226 0.198581 0.466362
v -0.528634 0.115891 0.381894
v -0.518551 -0.001148 0.353148
v -0.369343 0.117923 0.204202
v -0.388059 -0.001313 0.204202
v -0.553203 -0.001339 0.576944
v -0.570260 0.232112 0.533703
v -0.582745 0.239189 0.582376
v -0.608251 0.221053 0.684149
v 0.217206 0.399181 0.280108
v -0.518551 -0.001148 0.353148
v -0.069008 0.118612 0.673884
v -0.553203 -0.001339 0.576944
v -0.388059 -0.001313 0.204202
v -0.369343 0.117923 0.204202
v -0.069008 0.118612 0.673884
v -0.388059 -0.001313 0.204202
v -0.314696 0.225540 0.204202
v 0.217206 0.399181 0.280108
v -0.069008 0.118612 0.673884
v 0.116415 0.366277 0.204202
v -0.002704 0.300901 0.161355
v -0.090769 0.270266 0.152918
v -0.183260 0.247586 0.164221
v -0.314696 0.225540 0.204202
v -0.533790 0.384258 0.735172
v -0.069008 0.118612 0.673884
v -0.388793 0.529657 0.735172
v -0.205963 0.623133 0.735172
v -0.608251 0.221053 0.684149
v -0.553203 -0.001339 0.576944
v -0.003150 0.623413 0.532360
v 0.161093 0.504431 0.349400
v 0.217206 0.399181 0.280108
vt 0.718486 0.179868
vt 0.752409 0.179868
vt 0.755010 0.144266
vt 0.722761 0.140086
vt 0.787317 0.146574
vt 0.786101 0.179868
vt 0.762706 0.108613
vt 0.735307 0.101498
vt 0.790969 0.112686
vt 0.819740 0.114014
vt 0.819739 0.147314
vt 0.775652 0.073169
vt 0.755774 0.065395
vt 0.708866 0.090587
vt 0.797205 0.077865
vt 0.819739 0.079449
vt 0.842278 0.077855
vt 0.848511 0.112675
vt 0.783735 0.058452
vt 0.802381 0.058240
vt 0.819718 0.062868
vt 0.700108 0.119167
vt 0.696802 0.094447
vt 0.683277 0.074076
vt 0.738019 0.054086
vt 0.723217 0.037689
vt 0.653864 0.134787
vt 0.697748 0.135043
vt 0.697030 0.146776
vt 0.689474 0.168809
vt 0.860311 0.093924
vt 1.078086 0.196798
vt 1.092852 0.202294
vt 1.072919 0.207463
vt 1.085102 0.190406
vt 1.087703 0.193287
vt 1.092852 0.202294
vt 1.085102 0.190406
vt 1.090822 0.195273
vt 1.109185 0.200285
vt 1.092852 0.202294
vt 1.106017 0.197462
vt 1.102054 0.194829
vt 1.099009 0.194017
vt 1.095733 0.194054
vt 1.090822 0.195273
vt 1.084271 0.215382
vt 1.092852 0.202294
vt 1.090230 0.215382
vt 1.096149 0.215382
vt 1.079175 0.213439
vt 1.072919 0.207463
vt 1.102058 0.209664
vt 1.107112 0.203579
vt 1.109185 0.200285
vn -0.789029 0.594718 -0.154089
vn -0.581654 0.798253 -0.156435
vn -0.560933 0.769815 -0.304531
vn -0.773255 0.554292 -0.307955
vn -0.295593 0.905476 -0.304531
vn -0.357668 0.920692 -0.156204
vn -0.479530 0.658100 -0.580478
vn -0.662928 0.476310 -0.577628
vn -0.252696 0.774073 -0.580478
vn -0.001127 0.814275 -0.580478
vn -0.084633 0.922751 -0.375989
vn -0.352062 0.483165 -0.801626
vn -0.534709 0.402392 -0.743080
vn -0.793005 0.226812 -0.565419
vn -0.185525 0.568310 -0.801626
vn -0.000828 0.597826 -0.801626
vn 0.152370 0.637806 -0.754975
vn 0.168811 0.749424 -0.640208
vn -0.249160 0.380035 -0.890782
vn -0.139454 0.432044 -0.891005
vn -0.023239 0.453843 -0.890778
vn -0.928294 0.156664 -0.337234
vn -0.939875 0.020581 -0.340898
vn -0.888752 0.018030 -0.458034
vn -0.689395 0.196893 -0.697114
vn -0.731496 0.067972 -0.678450
vn -0.975687 -0.090387 -0.199663
vn -0.933787 0.173092 -0.313178
vn -0.953570 0.195399 -0.229179
vn -0.954808 0.212887 -0.207416
vn 0.322123 0.634374 -0.702714
vn 0.191960 -0.976730 0.095652
vn 0.200272 -0.976151 0.083785
vn 0.233640 -0.971680 0.035347
vn 0.159694 -0.977046 0.140994
vn 0.815913 -0.249931 -0.521363
vn 0.811928 -0.267642 -0.518788
vn 0.835299 -0.131113 -0.533933
vn 0.774803 -0.393433 -0.494865
vn 0.470473 -0.843530 -0.259061
vn 0.333350 -0.905652 -0.262054
vn 0.499129 -0.832127 -0.241735
vn 0.440393 -0.862370 -0.249742
vn 0.270959 -0.921131 -0.279461
vn 0.140458 -0.951887 -0.272367
vn 0.081703 -0.961691 -0.261677
vn 0.020937 -0.189835 0.981593
vn 0.378156 -0.107405 0.919490
vn 0.069114 -0.094311 0.993141
vn 0.399467 -0.002926 0.916743
vn -0.050858 -0.361019 0.931171
vn -0.067903 -0.446821 0.892043
vn 0.737155 0.091527 0.669496
vn 0.784602 0.051690 0.617842
vn 0.798366 0.029686 0.601440
usemtl material
f 1/0/1 2/0/2 3/0/3
f 1/0/1 3/0/3 4/0/4
f 2/0/2 5/0/5 3/0/3
f 2/0/2 6/0/6 5/0/5
f 4/0/4 3/0/3 7/0/7
f 4/0/4 7/0/7 8/0/8
f 3/0/3 5/0/5 9/0/9
f 3/0/3 9/0/9 7/0/7
f 5/0/5 10/0/10 9/0/9
f 5/0/5 11/0/11 10/0/10
f 6/0/6 11/0/11 5/0/5
f 8/0/8 7/0/7 12/0/12
f 8/0/8 12/0/12 13/0/13
f 14/0/14 8/0/8 13/0/13
f 7/0/7 9/0/9 15/0/15
f 7/0/7 15/0/15 12/0/12
f 9/0/9 10/0/10 16/0/16
f 9/0/9 16/0/16 15/0/15
f 10/0/10 17/0/17 16/0/16
f 10/0/10 18/0/18 17/0/17
f 11/0/11 18/0/18 10/0/10
f 13/0/13 12/0/12 19/0/19
f 12/0/12 15/0/15 20/0/20
f 12/0/12 20/0/20 19/0/19
f 15/0/15 16/0/16 21/0/21
f 15/0/15 21/0/21 20/0/20
f 16/0/16 17/0/17 21/0/21
f 14/0/14 22/0/22 8/0/8
f 23/0/23 22/0/22 14/0/14
f 23/0/23 14/0/14 24/0/24
f 24/0/24 14/0/14 25/0/25
f 14/0/14 13/0/13 25/0/25
f 24/0/24 25/0/25 26/0/26
f 27/0/27 23/0/23 24/0/24
f 27/0/27 22/0/22 23/0/23
f 27/0/27 28/0/28 22/0/22
f 8/0/8 22/0/22 28/0/28
f 8/0/8 28/0/28 4/0/4
f 29/0/29 4/0/4 28/0/28
f 27/0/27 29/0/29 28/0/28
f 29/0/29 1/0/1 4/0/4
f 29/0/29 30/0/30 1/0/1
f 27/0/27 30/0/30 29/0/29
f 18/0/18 31/0/31 17/0/17
f 32/0/32 33/0/33 34/0/34
f 35/0/35 33/0/33 32/0/32
f 36/0/36 37/0/37 38/0/38
f 39/0/39 37/0/37 36/0/36
f 40/0/40 41/0/41 42/0/42
f 42/0/42 41/0/41 43/0/43
f 43/0/43 41/0/41 44/0/44
f 44/0/44 41/0/41 45/0/45
f 45/0/45 41/0/41 46/0/46
f 47/0/47 48/0/48 49/0/49
f 49/0/49 48/0/48 50/0/50
f 51/0/51 48/0/48 47/0/47
f 52/0/52 48/0/48 51/0/51
f 50/0/50 48/0/48 53/0/53
f 53/0/53 48/0/48 54/0/54
f 54/0/54 48/0/48 55/0/55
