# 
# Wavefront OBJ file
# Created with Kaydara FBX
# 
mtllib ball_brk09.mtl

g Ball_Brk09
v 0.446153 0.324221 1.069769
v 0.390006 0.346710 1.120516
v 0.426845 0.311912 1.120945
v 0.483410 0.311028 1.031699
v 0.502468 0.163999 1.120945
v 0.591089 0.192929 0.937985
v 0.519274 0.321308 0.936089
v 0.621625 0.202898 0.735173
v 0.621906 0.000086 0.937985
v 0.531069 0.342707 0.857153
v 0.522597 0.381356 0.774045
v 0.528149 0.385729 0.735173
v 0.493408 0.418437 0.734744
v 0.474283 0.442359 0.709428
v 0.502187 0.366812 0.532360
v 0.363905 0.504712 0.532360
v 0.309215 0.429217 0.349400
v 0.189777 0.593130 0.532360
v 0.161093 0.504431 0.349400
v -0.003150 0.623413 0.532360
v -0.003195 0.655536 0.735172
v -0.205963 0.623133 0.735172
v 0.199661 0.623694 0.735173
v 0.217206 0.399181 0.280108
v 0.262760 0.591107 0.735019
v 0.195062 0.610627 0.815730
v 0.156880 0.596237 0.928492
v -0.003150 0.623413 0.937985
v 0.155691 0.548632 1.040666
v 0.378038 0.524221 0.684624
v 0.248038 0.467189 1.058230
v 0.307252 0.417356 1.071941
v 0.338410 0.434974 0.912175
v 0.390006 0.346710 1.120516
v 0.155691 0.548632 1.040666
v 0.155691 0.548632 1.040666
v 0.338410 0.434974 0.912175
v 0.156880 0.596237 0.928492
v 0.195062 0.610627 0.815730
v 0.195062 0.610627 0.815730
v 0.338410 0.434974 0.912175
v 0.262760 0.591107 0.735019
v 0.262760 0.591107 0.735019
v 0.338410 0.434974 0.912175
v 0.378038 0.524221 0.684624
v 0.378038 0.524221 0.684624
v 0.338410 0.434974 0.912175
v 0.474283 0.442359 0.709428
v 0.474283 0.442359 0.709428
v 0.338410 0.434974 0.912175
v 0.493408 0.418437 0.734744
v 0.522597 0.381356 0.774045
v 0.522597 0.381356 0.774045
v 0.531069 0.342707 0.857153
v 0.338410 0.434974 0.912175
v 0.519274 0.321308 0.936089
v 0.483410 0.311028 1.031699
v 0.483410 0.311028 1.031699
v 0.338410 0.434974 0.912175
v 0.446153 0.324221 1.069769
v 0.390006 0.346710 1.120516
v 0.621906 0.000086 0.937985
v 0.010306 0.045272 0.744358
v 0.621625 0.202898 0.735173
v 0.502187 0.366812 0.532360
v 0.309215 0.429217 0.349400
v 0.217206 0.399181 0.280108
v -0.003150 0.623413 0.532360
v 0.010306 0.045272 0.744358
v -0.205963 0.623133 0.735172
v 0.161093 0.504431 0.349400
v 0.217206 0.399181 0.280108
v 0.426845 0.311912 1.120945
v 0.010306 0.045272 0.744358
v 0.502468 0.163999 1.120945
v 0.390006 0.346710 1.120516
v 0.621906 0.000086 0.937985
v 0.307252 0.417356 1.071941
v 0.248038 0.467189 1.058230
v 0.155691 0.548632 1.040666
v -0.003150 0.623413 0.937985
v -0.205963 0.623133 0.735172
vt 0.907689 0.247423
vt 0.895780 0.256084
vt 0.904165 0.258263
vt 0.916286 0.240589
vt 0.930594 0.269175
vt 0.949345 0.226242
vt 0.924336 0.221192
vt 0.955825 0.179868
vt 0.983596 0.236516
vt 0.924724 0.203673
vt 0.920135 0.187548
vt 0.920952 0.179868
vt 0.913041 0.179868
vt 0.907731 0.174816
vt 0.916717 0.140083
vt 0.884471 0.144246
vt 0.876774 0.108593
vt 0.852160 0.146566
vt 0.848511 0.112675
vt 0.819739 0.147314
vt 0.819735 0.179868
vt 0.786101 0.179868
vt 0.853363 0.179868
vt 0.860311 0.093924
vt 0.865021 0.179868
vt 0.852883 0.193152
vt 0.846937 0.211678
vt 0.819739 0.212422
vt 0.846906 0.232037
vt 0.886392 0.170991
vt 0.866223 0.238073
vt 0.878132 0.243660
vt 0.886626 0.214314
vt 0.895780 0.256084
vt 0.846906 0.232037
vt 0.846906 0.232037
vt 0.886626 0.214314
vt 0.846937 0.211678
vt 0.852883 0.193152
vt 0.852883 0.193152
vt 0.886626 0.214314
vt 0.865021 0.179868
vt 0.865021 0.179868
vt 0.886626 0.214314
vt 0.886392 0.170991
vt 0.886392 0.170991
vt 0.886626 0.214314
vt 0.907731 0.174816
vt 0.907731 0.174816
vt 0.886626 0.214314
vt 0.913041 0.179868
vt 0.920135 0.187548
vt 0.920135 0.187548
vt 0.924724 0.203673
vt 0.886626 0.214314
vt 0.924336 0.221192
vt 0.916286 0.240589
vt 0.916286 0.240589
vt 0.886626 0.214314
vt 0.907689 0.247423
vt 0.895780 0.256084
vt 0.973375 0.376995
vt 0.953838 0.369015
vt 0.968175 0.366386
vt 0.960850 0.358935
vt 0.953370 0.353038
vt 0.950287 0.350290
vt 0.942688 0.360289
vt 0.953838 0.369015
vt 0.936389 0.366386
vt 0.948077 0.353802
vt 0.950287 0.350290
vt 0.958500 0.381068
vt 0.953838 0.369015
vt 0.963449 0.383111
vt 0.956929 0.380660
vt 0.973375 0.376995
vt 0.953624 0.378333
vt 0.951394 0.377287
vt 0.947776 0.376156
vt 0.942688 0.372483
vt 0.936389 0.366386
vn 0.742435 0.480072 0.467249
vn 0.627573 0.669287 0.397753
vn 0.703852 0.554471 0.444020
vn 0.793689 0.413930 0.445780
vn 0.830824 0.327577 0.449918
vn 0.906213 0.294319 0.303568
vn 0.850872 0.431630 0.299520
vn 0.918491 0.387003 0.081254
vn 0.938731 0.150014 0.310290
vn 0.876627 0.452021 0.164933
vn 0.836896 0.526211 0.150687
vn 0.813090 0.582087 0.007694
vn 0.738026 0.671618 -0.065168
vn 0.717060 0.679703 -0.154367
vn 0.739062 0.628978 -0.241190
vn 0.553926 0.772951 -0.309374
vn 0.441399 0.724261 -0.529729
vn 0.293248 0.906341 -0.304224
vn 0.323951 0.790741 -0.519408
vn 0.074625 0.968889 -0.235978
vn 0.000562 0.999997 0.002433
vn -0.157802 0.987471 0.000000
vn 0.311114 0.950350 0.006594
vn 0.322123 0.634374 -0.702714
vn 0.454510 0.887330 -0.077880
vn 0.219813 0.961209 0.166615
vn 0.170509 0.949011 0.265151
vn 0.082016 0.973795 0.212123
vn 0.176656 0.905383 0.386101
vn 0.565591 0.807841 -0.165828
vn 0.602646 0.771850 0.202646
vn 0.602646 0.771850 0.202646
vn 0.602646 0.771850 0.202646
vn 0.566275 0.799920 0.198648
vn 0.621683 0.752094 0.218783
vn 0.647937 0.698673 0.303372
vn 0.647937 0.698673 0.303372
vn 0.647937 0.698673 0.303372
vn 0.647158 0.697315 0.308120
vn 0.621287 0.700178 0.351786
vn 0.621287 0.700178 0.351786
vn 0.621287 0.700178 0.351786
vn 0.583093 0.716661 0.382622
vn 0.583093 0.716661 0.382622
vn 0.583093 0.716661 0.382622
vn 0.537339 0.749131 0.387389
vn 0.537339 0.749131 0.387389
vn 0.537339 0.749131 0.387389
vn 0.500549 0.785439 0.364057
vn 0.500549 0.785438 0.364057
vn 0.500549 0.785438 0.364057
vn 0.502451 0.783359 0.365912
vn 0.482628 0.811930 0.328390
vn 0.482628 0.811930 0.328390
vn 0.479993 0.825957 0.295638
vn 0.479993 0.825957 0.295638
vn 0.486094 0.830617 0.271641
vn 0.520274 0.824223 0.223545
vn 0.520274 0.824223 0.223545
vn 0.520274 0.824223 0.223545
vn 0.526191 0.821970 0.217917
vn 0.169193 -0.696796 -0.697029
vn 0.247166 -0.746447 -0.617840
vn 0.171427 -0.704946 -0.688232
vn 0.224324 -0.751901 -0.619938
vn 0.406076 -0.789517 -0.460180
vn 0.522084 -0.774307 -0.357598
vn -0.740763 -0.246401 -0.624945
vn -0.765358 -0.226551 -0.602414
vn -0.681471 -0.265883 -0.681839
vn -0.830635 -0.180361 -0.526798
vn -0.861502 -0.137519 -0.488777
vn -0.489425 -0.358297 0.795038
vn -0.533287 -0.398864 0.745997
vn -0.409385 -0.567899 0.714069
vn -0.509451 -0.343055 0.789159
vn -0.235615 -0.795239 0.558642
vn -0.551495 -0.258213 0.793208
vn -0.467073 -0.343080 0.814947
vn -0.541851 -0.304613 0.783332
vn -0.647569 -0.255504 0.717894
vn -0.685284 -0.245574 0.685623
usemtl material
f 1/0/1 2/0/2 3/0/3
f 3/0/3 4/0/4 1/0/1
f 3/0/3 5/0/5 4/0/4
f 4/0/4 5/0/5 6/0/6
f 4/0/4 6/0/6 7/0/7
f 8/0/8 7/0/7 6/0/6
f 6/0/6 9/0/9 8/0/8
f 5/0/5 9/0/9 6/0/6
f 8/0/8 10/0/10 7/0/7
f 11/0/11 10/0/10 8/0/8
f 11/0/11 8/0/8 12/0/12
f 13/0/13 11/0/11 12/0/12
f 14/0/14 13/0/13 12/0/12
f 14/0/14 12/0/12 15/0/15
f 12/0/12 8/0/8 15/0/15
f 14/0/14 15/0/15 16/0/16
f 16/0/16 15/0/15 17/0/17
f 18/0/18 16/0/16 17/0/17
f 18/0/18 17/0/17 19/0/19
f 20/0/20 18/0/18 19/0/19
f 21/0/21 18/0/18 20/0/20
f 22/0/22 21/0/21 20/0/20
f 21/0/21 23/0/23 18/0/18
f 19/0/19 17/0/17 24/0/24
f 25/0/25 16/0/16 18/0/18
f 25/0/25 18/0/18 23/0/23
f 26/0/26 25/0/25 23/0/23
f 21/0/21 26/0/26 23/0/23
f 27/0/27 26/0/26 21/0/21
f 27/0/27 21/0/21 28/0/28
f 22/0/22 28/0/28 21/0/21
f 29/0/29 27/0/27 28/0/28
f 25/0/25 30/0/30 16/0/16
f 14/0/14 16/0/16 30/0/30
f 31/0/31 32/0/32 33/0/33
f 34/0/34 33/0/33 32/0/32
f 35/0/35 31/0/31 33/0/33
f 36/0/36 37/0/37 38/0/38
f 38/0/38 37/0/37 39/0/39
f 40/0/40 41/0/41 42/0/42
f 43/0/43 44/0/44 45/0/45
f 46/0/46 47/0/47 48/0/48
f 49/0/49 50/0/50 51/0/51
f 51/0/51 50/0/50 52/0/52
f 53/0/53 50/0/50 54/0/54
f 54/0/54 55/0/55 56/0/56
f 56/0/56 55/0/55 57/0/57
f 58/0/58 59/0/59 60/0/60
f 60/0/60 59/0/59 61/0/61
f 62/0/62 63/0/63 64/0/64
f 64/0/64 63/0/63 65/0/65
f 65/0/65 63/0/63 66/0/66
f 66/0/66 63/0/63 67/0/67
f 68/0/68 69/0/69 70/0/70
f 71/0/71 69/0/69 68/0/68
f 72/0/72 69/0/69 71/0/71
f 73/0/73 74/0/74 75/0/75
f 76/0/76 74/0/74 73/0/73
f 75/0/75 74/0/74 77/0/77
f 78/0/78 74/0/74 76/0/76
f 79/0/79 74/0/74 78/0/78
f 80/0/80 74/0/74 79/0/79
f 81/0/81 74/0/74 80/0/80
f 82/0/82 74/0/74 81/0/81
