# 
# Wavefront OBJ file
# Created with Kaydara FBX
# 
mtllib battery_bronya_02_light.mtl

g Battery_Bronya_02_Light
v 79.632790 7.167342 7.432903
v 81.556564 7.167342 7.179630
v 81.556564 7.600457 7.179630
v 79.632790 7.600457 7.432903
v 81.765060 7.600457 7.093267
v 81.789711 7.167342 7.083055
v 79.632790 7.167342 7.432903
v 79.632790 7.600457 7.432903
v 77.709007 7.600457 7.179630
v 77.709007 7.167342 7.179630
v 77.502396 7.600457 7.094049
v 77.478355 7.167342 7.084090
v 87.065659 7.167341 -0.000028
v 86.812393 7.167341 -1.923803
v 86.812393 7.600456 -1.923803
v 87.065659 7.600456 -0.000028
v 86.726440 7.600456 -2.131285
v 86.714500 7.167341 -2.160141
v 87.065659 7.167341 -0.000028
v 87.065659 7.600456 -0.000028
v 86.812393 7.600456 1.923751
v 86.812393 7.167341 1.923751
v 86.725250 7.600456 2.134112
v 86.714096 7.167341 2.161036
v 79.632729 7.167341 -7.432903
v 77.708954 7.167341 -7.179630
v 77.708954 7.600456 -7.179630
v 79.632729 7.600456 -7.432903
v 77.500542 7.600456 -7.093305
v 77.475807 7.167341 -7.083058
v 79.632729 7.167341 -7.432903
v 79.632729 7.600456 -7.432903
v 81.556503 7.600456 -7.179630
v 81.556503 7.167341 -7.179630
v 81.764877 7.600456 -7.093319
v 81.791183 7.167342 -7.082427
v 72.199852 7.167341 0.000028
v 72.453125 7.167341 1.923803
v 72.453125 7.600456 1.923803
v 72.199852 7.600456 0.000028
v 72.539375 7.600456 2.132040
v 72.549248 7.167341 2.155857
v 72.199852 7.167341 0.000028
v 72.199852 7.600456 0.000028
v 72.453125 7.600456 -1.923751
v 72.453125 7.167341 -1.923751
v 72.540688 7.600456 -2.135139
v 72.551582 7.167341 -2.161442
v 72.453125 7.600456 1.923803
v 72.539375 7.600456 2.132040
v 72.749229 7.674025 2.090121
v 73.026855 7.806840 1.770071
v 72.199852 7.600456 0.000028
v 72.812752 7.813418 0.000028
v 72.199852 7.600456 0.000028
v 72.812752 7.813418 0.000028
v 73.025093 7.806206 -1.770493
v 72.453125 7.600456 -1.923751
v 72.751549 7.674995 -2.088435
v 72.540688 7.600456 -2.135139
v 77.708954 7.600456 -7.179630
v 77.500542 7.600456 -7.093305
v 77.544380 7.674086 -6.884064
v 77.862175 7.806158 -6.607800
v 79.632729 7.600456 -7.432903
v 79.632729 7.813497 -6.819775
v 79.632729 7.600456 -7.432903
v 79.632729 7.813497 -6.819775
v 81.403259 7.806194 -6.607699
v 81.556503 7.600456 -7.179630
v 81.718002 7.675237 -6.881780
v 81.764877 7.600456 -7.093319
v 86.812393 7.600456 -1.923803
v 86.726440 7.600456 -2.131285
v 86.518005 7.674324 -2.083733
v 86.242271 7.805542 -1.771039
v 87.065659 7.600456 -0.000028
v 86.454880 7.812683 -0.000028
v 87.065659 7.600456 -0.000028
v 86.454880 7.812683 -0.000028
v 86.234070 7.808492 1.768790
v 86.812393 7.600456 1.923751
v 86.512260 7.675608 2.087972
v 86.725250 7.600456 2.134112
v 81.556564 7.600457 7.179630
v 81.765060 7.600457 7.093267
v 81.722061 7.673572 6.885263
v 81.402985 7.806633 6.606477
v 79.632790 7.600457 7.432903
v 79.632790 7.813893 6.818640
v 79.632790 7.600457 7.432903
v 79.632790 7.813893 6.818640
v 77.862404 7.806396 6.607135
v 77.709007 7.600457 7.179630
v 77.546539 7.674706 6.883022
v 77.502396 7.600457 7.094049
vt 0.255463 0.506483
vt 0.463707 0.506483
vt 0.463707 0.622239
vt 0.255463 0.622239
vt 0.495102 0.622239
vt 0.495102 0.506483
vt 0.255463 0.506483
vt 0.255463 0.622239
vt 0.463707 0.622239
vt 0.463707 0.506483
vt 0.495102 0.622239
vt 0.495102 0.506483
vt 0.005463 0.506483
vt 0.213707 0.506483
vt 0.213707 0.622239
vt 0.005463 0.622239
vt 0.245102 0.622239
vt 0.245102 0.506483
vt 0.005463 0.506483
vt 0.005463 0.622239
vt 0.213707 0.622239
vt 0.213707 0.506483
vt 0.245102 0.622239
vt 0.245102 0.506483
vt 0.005463 0.756483
vt 0.213707 0.756483
vt 0.213707 0.872239
vt 0.005463 0.872239
vt 0.245102 0.872239
vt 0.245102 0.756483
vt 0.005463 0.756483
vt 0.005463 0.872239
vt 0.213707 0.872239
vt 0.213707 0.756483
vt 0.245102 0.872239
vt 0.245102 0.756483
vt 0.255463 0.756483
vt 0.463707 0.756483
vt 0.463707 0.872239
vt 0.255463 0.872239
vt 0.495102 0.872239
vt 0.495102 0.756483
vt 0.255463 0.756483
vt 0.255463 0.872239
vt 0.463707 0.872239
vt 0.463707 0.756483
vt 0.495102 0.872239
vt 0.495102 0.756483
vt 0.463707 0.872239
vt 0.495102 0.872239
vt 0.495102 0.921714
vt 0.463707 0.992458
vt 0.255463 0.872239
vt 0.255463 0.992458
vt 0.255463 0.872239
vt 0.255463 0.992458
vt 0.463707 0.992458
vt 0.463707 0.872239
vt 0.495102 0.921714
vt 0.495102 0.872239
vt 0.213707 0.872239
vt 0.245102 0.872239
vt 0.245102 0.921714
vt 0.213707 0.992458
vt 0.005463 0.872239
vt 0.005463 0.992458
vt 0.005463 0.872239
vt 0.005463 0.992458
vt 0.213707 0.992458
vt 0.213707 0.872239
vt 0.245102 0.921714
vt 0.245102 0.872239
vt 0.213707 0.622239
vt 0.245102 0.622239
vt 0.245102 0.671714
vt 0.213707 0.742458
vt 0.005463 0.622239
vt 0.005463 0.742458
vt 0.005463 0.622239
vt 0.005463 0.742458
vt 0.213707 0.742458
vt 0.213707 0.622239
vt 0.245102 0.671714
vt 0.245102 0.622239
vt 0.463707 0.622239
vt 0.495102 0.622239
vt 0.495102 0.671714
vt 0.463707 0.742458
vt 0.255463 0.622239
vt 0.255463 0.742458
vt 0.255463 0.622239
vt 0.255463 0.742458
vt 0.463707 0.742458
vt 0.463707 0.622239
vt 0.495102 0.671714
vt 0.495102 0.622239
vn 0.000000 0.000000 1.000000
vn 0.158711 0.000000 0.987325
vn 0.158711 0.000000 0.987325
vn 0.000000 0.000000 1.000000
vn 0.382686 0.000000 0.923879
vn 0.382686 0.000000 0.923879
vn 0.000000 0.000000 1.000000
vn 0.000000 0.000000 1.000000
vn -0.158462 0.000000 0.987365
vn -0.158462 0.000000 0.987365
vn -0.382685 0.000000 0.923879
vn -0.382685 0.000000 0.923879
vn 1.000000 0.000000 0.000000
vn 0.987305 0.000003 -0.158834
vn 0.987305 0.000003 -0.158834
vn 1.000000 0.000000 0.000000
vn 0.923878 0.000030 -0.382687
vn 0.923878 0.000030 -0.382687
vn 1.000000 0.000000 0.000000
vn 1.000000 0.000000 0.000000
vn 0.987270 -0.000002 0.159053
vn 0.987270 -0.000002 0.159053
vn 0.923873 -0.000015 0.382699
vn 0.923873 -0.000015 0.382699
vn 0.000000 0.000000 -1.000000
vn -0.158706 0.000000 -0.987326
vn -0.158706 0.000000 -0.987326
vn 0.000000 0.000000 -1.000000
vn -0.382684 0.000000 -0.923879
vn -0.382684 0.000000 -0.923879
vn 0.000000 0.000000 -1.000000
vn 0.000000 0.000000 -1.000000
vn 0.158790 0.000001 -0.987312
vn 0.158790 0.000001 -0.987312
vn 0.382682 0.000008 -0.923880
vn 0.382682 0.000008 -0.923880
vn -1.000000 0.000000 0.000000
vn -0.987337 0.000000 0.158634
vn -0.987337 0.000000 0.158634
vn -1.000000 0.000000 0.000000
vn -0.923877 0.000000 0.382690
vn -0.923877 0.000000 0.382690
vn -1.000000 0.000000 0.000000
vn -1.000000 0.000000 0.000000
vn -0.987257 -0.000002 -0.159133
vn -0.987257 -0.000002 -0.159133
vn -0.923875 -0.000015 -0.382695
vn -0.923875 -0.000015 -0.382695
vn -0.326259 0.943974 0.049683
vn -0.305555 0.943726 0.126563
vn -0.305555 0.943726 0.126563
vn -0.327338 0.943814 0.045444
vn -0.328219 0.944602 0.000032
vn -0.328219 0.944602 0.000045
vn -0.328219 0.944602 0.000032
vn -0.328219 0.944602 0.000045
vn -0.327330 0.943816 -0.045465
vn -0.326252 0.943975 -0.049702
vn -0.305564 0.943721 -0.126574
vn -0.305564 0.943721 -0.126574
vn -0.049644 0.943973 -0.326268
vn -0.126568 0.943719 -0.305573
vn -0.126568 0.943719 -0.305573
vn -0.045424 0.943814 -0.327341
vn 0.000002 0.944602 -0.328218
vn 0.000003 0.944602 -0.328218
vn 0.000002 0.944602 -0.328218
vn 0.000003 0.944602 -0.328218
vn 0.045413 0.943813 -0.327344
vn 0.049623 0.943972 -0.326273
vn 0.126572 0.943720 -0.305567
vn 0.126572 0.943720 -0.305567
vn 0.326290 0.943970 -0.049559
vn 0.305570 0.943719 -0.126576
vn 0.305570 0.943719 -0.126576
vn 0.327356 0.943812 -0.045367
vn 0.328217 0.944602 0.000146
vn 0.328217 0.944602 0.000210
vn 0.328217 0.944602 0.000146
vn 0.328217 0.944602 0.000210
vn 0.327331 0.943816 0.045460
vn 0.326243 0.943977 0.049736
vn 0.305559 0.943724 0.126568
vn 0.305559 0.943724 0.126568
vn 0.049644 0.943973 0.326266
vn 0.126572 0.943719 0.305571
vn 0.126572 0.943719 0.305571
vn 0.045415 0.943814 0.327342
vn 0.000012 0.944602 0.328217
vn 0.000017 0.944602 0.328217
vn 0.000012 0.944602 0.328217
vn 0.000017 0.944602 0.328217
vn -0.045402 0.943813 0.327348
vn -0.049607 0.943971 0.326278
vn -0.126564 0.943723 0.305563
vn -0.126564 0.943723 0.305563
usemtl material
f 1/0/1 2/0/2 3/0/3
f 1/0/1 3/0/3 4/0/4
f 2/0/2 5/0/5 3/0/3
f 2/0/2 6/0/6 5/0/5
f 7/0/7 8/0/8 9/0/9
f 7/0/7 9/0/9 10/0/10
f 10/0/10 9/0/9 11/0/11
f 10/0/10 11/0/11 12/0/12
f 13/0/13 14/0/14 15/0/15
f 13/0/13 15/0/15 16/0/16
f 14/0/14 17/0/17 15/0/15
f 14/0/14 18/0/18 17/0/17
f 19/0/19 20/0/20 21/0/21
f 19/0/19 21/0/21 22/0/22
f 22/0/22 21/0/21 23/0/23
f 22/0/22 23/0/23 24/0/24
f 25/0/25 26/0/26 27/0/27
f 25/0/25 27/0/27 28/0/28
f 26/0/26 29/0/29 27/0/27
f 26/0/26 30/0/30 29/0/29
f 31/0/31 32/0/32 33/0/33
f 31/0/31 33/0/33 34/0/34
f 34/0/34 33/0/33 35/0/35
f 34/0/34 35/0/35 36/0/36
f 37/0/37 38/0/38 39/0/39
f 37/0/37 39/0/39 40/0/40
f 38/0/38 41/0/41 39/0/39
f 38/0/38 42/0/42 41/0/41
f 43/0/43 44/0/44 45/0/45
f 43/0/43 45/0/45 46/0/46
f 46/0/46 45/0/45 47/0/47
f 46/0/46 47/0/47 48/0/48
f 49/0/49 50/0/50 51/0/51
f 49/0/49 51/0/51 52/0/52
f 53/0/53 49/0/49 52/0/52
f 53/0/53 52/0/52 54/0/54
f 55/0/55 56/0/56 57/0/57
f 55/0/55 57/0/57 58/0/58
f 58/0/58 57/0/57 59/0/59
f 58/0/58 59/0/59 60/0/60
f 61/0/61 62/0/62 63/0/63
f 61/0/61 63/0/63 64/0/64
f 65/0/65 61/0/61 64/0/64
f 65/0/65 64/0/64 66/0/66
f 67/0/67 68/0/68 69/0/69
f 67/0/67 69/0/69 70/0/70
f 70/0/70 69/0/69 71/0/71
f 70/0/70 71/0/71 72/0/72
f 73/0/73 74/0/74 75/0/75
f 73/0/73 75/0/75 76/0/76
f 77/0/77 73/0/73 76/0/76
f 77/0/77 76/0/76 78/0/78
f 79/0/79 80/0/80 81/0/81
f 79/0/79 81/0/81 82/0/82
f 82/0/82 81/0/81 83/0/83
f 82/0/82 83/0/83 84/0/84
f 85/0/85 86/0/86 87/0/87
f 85/0/85 87/0/87 88/0/88
f 89/0/89 85/0/85 88/0/88
f 89/0/89 88/0/88 90/0/90
f 91/0/91 92/0/92 93/0/93
f 91/0/91 93/0/93 94/0/94
f 94/0/94 93/0/93 95/0/95
f 94/0/94 95/0/95 96/0/96
