# 
# Wavefront OBJ file
# Created with Kaydara FBX
# 
mtllib battery_bronya_03_light.mtl

g Battery_Bronya_03_Light
v 163.736008 7.167555 7.432903
v 165.659775 7.167555 7.179630
v 165.659775 7.600670 7.179630
v 163.736008 7.600670 7.432903
v 165.867325 7.600670 7.093668
v 165.890869 7.167555 7.083907
v 163.736008 7.167555 7.432903
v 163.736008 7.600670 7.432903
v 161.812225 7.600670 7.179630
v 161.812225 7.167555 7.179630
v 161.601456 7.600670 7.092321
v 161.578491 7.167555 7.082811
v 171.168884 7.167554 -0.000028
v 170.915619 7.167554 -1.923803
v 170.915619 7.600670 -1.923803
v 171.168884 7.600670 -0.000028
v 170.830444 7.600670 -2.129424
v 170.819183 7.167554 -2.156624
v 171.168884 7.167554 -0.000028
v 171.168884 7.600670 -0.000028
v 170.915619 7.600670 1.923751
v 170.915619 7.167554 1.923751
v 170.829514 7.600669 2.131625
v 170.819473 7.167554 2.155874
v 163.735947 7.167554 -7.432903
v 161.812180 7.167554 -7.179630
v 161.812180 7.600670 -7.179630
v 163.735947 7.600670 -7.432903
v 161.603317 7.600670 -7.093114
v 161.579208 7.167554 -7.083129
v 163.735947 7.167554 -7.432903
v 163.735947 7.600670 -7.432903
v 165.659744 7.600670 -7.179630
v 165.659744 7.167554 -7.179630
v 165.866486 7.600670 -7.093992
v 165.894836 7.167555 -7.082246
v 156.303085 7.167554 0.000028
v 156.556351 7.167554 1.923803
v 156.556351 7.600670 1.923803
v 156.303085 7.600670 0.000028
v 156.642502 7.600670 2.131786
v 156.654297 7.167554 2.160260
v 156.303085 7.167554 0.000028
v 156.303085 7.600670 0.000028
v 156.556351 7.600670 -1.923751
v 156.556351 7.167554 -1.923751
v 156.643112 7.600670 -2.133205
v 156.653671 7.167554 -2.158697
v 165.659775 7.600670 7.179630
v 165.867325 7.600670 7.093668
v 165.824448 7.674295 6.884036
v 165.506485 7.806495 6.607455
v 163.736008 7.600670 7.432903
v 163.736008 7.812901 6.822108
v 163.736008 7.600670 7.432903
v 163.736008 7.812901 6.822108
v 161.966400 7.807625 6.604313
v 161.812225 7.600670 7.179630
v 161.648911 7.674448 6.884121
v 161.601456 7.600670 7.092321
v 156.556351 7.600670 1.923803
v 156.642502 7.600670 2.131786
v 156.850861 7.673894 2.088840
v 157.127609 7.806161 1.770737
v 156.303085 7.600670 0.000028
v 156.915375 7.813418 0.000028
v 156.303085 7.600670 0.000028
v 156.915375 7.813418 0.000028
v 157.127823 7.806243 -1.770624
v 156.556351 7.600670 -1.923751
v 156.850159 7.673561 -2.089584
v 156.643112 7.600670 -2.133205
v 161.812180 7.600670 -7.179630
v 161.603317 7.600670 -7.093114
v 161.645187 7.674413 -6.882709
v 161.966827 7.808294 -6.602453
v 163.735947 7.600670 -7.432903
v 163.735947 7.814269 -6.818170
v 163.735947 7.600670 -7.432903
v 163.735947 7.814269 -6.818170
v 165.505615 7.807564 -6.604482
v 165.659744 7.600670 -7.179630
v 165.821014 7.675452 -6.881863
v 165.866486 7.600670 -7.093992
v 170.915619 7.600670 -1.923803
v 170.830444 7.600670 -2.129424
v 170.623505 7.673000 -2.089686
v 170.342514 7.806825 -1.770242
v 171.168884 7.600670 -0.000028
v 170.551956 7.815032 -0.000028
v 171.168884 7.600670 -0.000028
v 170.551956 7.815032 -0.000028
v 170.340683 7.807486 1.769699
v 170.915619 7.600670 1.923751
v 170.619858 7.674406 2.088016
v 170.829514 7.600669 2.131625
vt 0.255463 0.506483
vt 0.463707 0.506483
vt 0.463707 0.622239
vt 0.255463 0.622239
vt 0.495102 0.622239
vt 0.495102 0.506483
vt 0.255463 0.506483
vt 0.255463 0.622239
vt 0.463707 0.622239
vt 0.463707 0.506483
vt 0.495102 0.622239
vt 0.495102 0.506483
vt 0.005463 0.506483
vt 0.213707 0.506483
vt 0.213707 0.622239
vt 0.005463 0.622239
vt 0.245102 0.622239
vt 0.245102 0.506483
vt 0.005463 0.506483
vt 0.005463 0.622239
vt 0.213707 0.622239
vt 0.213707 0.506483
vt 0.245102 0.622239
vt 0.245102 0.506483
vt 0.005463 0.756483
vt 0.213707 0.756483
vt 0.213707 0.872239
vt 0.005463 0.872239
vt 0.245102 0.872239
vt 0.245102 0.756483
vt 0.005463 0.756483
vt 0.005463 0.872239
vt 0.213707 0.872239
vt 0.213707 0.756483
vt 0.245102 0.872239
vt 0.245102 0.756483
vt 0.255463 0.756483
vt 0.463707 0.756483
vt 0.463707 0.872239
vt 0.255463 0.872239
vt 0.495102 0.872239
vt 0.495102 0.756483
vt 0.255463 0.756483
vt 0.255463 0.872239
vt 0.463707 0.872239
vt 0.463707 0.756483
vt 0.495102 0.872239
vt 0.495102 0.756483
vt 0.463707 0.622239
vt 0.495102 0.622239
vt 0.495102 0.671714
vt 0.463707 0.742458
vt 0.255463 0.622239
vt 0.255463 0.742458
vt 0.255463 0.622239
vt 0.255463 0.742458
vt 0.463707 0.742458
vt 0.463707 0.622239
vt 0.495102 0.671714
vt 0.495102 0.622239
vt 0.463707 0.872239
vt 0.495102 0.872239
vt 0.495102 0.921714
vt 0.463707 0.992458
vt 0.255463 0.872239
vt 0.255463 0.992458
vt 0.255463 0.872239
vt 0.255463 0.992458
vt 0.463707 0.992458
vt 0.463707 0.872239
vt 0.495102 0.921714
vt 0.495102 0.872239
vt 0.213707 0.872239
vt 0.245102 0.872239
vt 0.245102 0.921714
vt 0.213707 0.992458
vt 0.005463 0.872239
vt 0.005463 0.992458
vt 0.005463 0.872239
vt 0.005463 0.992458
vt 0.213707 0.992458
vt 0.213707 0.872239
vt 0.245102 0.921714
vt 0.245102 0.872239
vt 0.213707 0.622239
vt 0.245102 0.622239
vt 0.245102 0.671714
vt 0.213707 0.742458
vt 0.005463 0.622239
vt 0.005463 0.742458
vt 0.005463 0.622239
vt 0.005463 0.742458
vt 0.213707 0.742458
vt 0.213707 0.622239
vt 0.245102 0.671714
vt 0.245102 0.622239
vn 0.000000 0.000000 1.000000
vn 0.158539 0.000000 0.987353
vn 0.158539 0.000000 0.987353
vn 0.000000 0.000000 1.000000
vn 0.382679 0.000000 0.923881
vn 0.382679 0.000000 0.923881
vn 0.000000 0.000000 1.000000
vn 0.000000 0.000000 1.000000
vn -0.158874 0.000000 0.987299
vn -0.158874 0.000000 0.987299
vn -0.382685 0.000000 0.923879
vn -0.382685 0.000000 0.923879
vn 1.000000 0.000000 0.000000
vn 0.987355 0.000000 -0.158526
vn 0.987355 0.000000 -0.158526
vn 1.000000 0.000000 0.000000
vn 0.923870 0.000000 -0.382706
vn 0.923870 0.000000 -0.382706
vn 1.000000 0.000000 0.000000
vn 1.000000 0.000000 0.000000
vn 0.987341 0.000000 0.158615
vn 0.987341 0.000000 0.158615
vn 0.923870 0.000000 0.382706
vn 0.923870 0.000000 0.382706
vn 0.000000 0.000000 -1.000000
vn -0.158722 0.000000 -0.987323
vn -0.158722 0.000000 -0.987323
vn 0.000000 0.000000 -1.000000
vn -0.382679 0.000000 -0.923881
vn -0.382679 0.000000 -0.923881
vn 0.000000 0.000000 -1.000000
vn 0.000000 0.000000 -1.000000
vn 0.158723 0.000000 -0.987323
vn 0.158723 0.000000 -0.987323
vn 0.382698 0.000000 -0.923873
vn 0.382698 0.000000 -0.923873
vn -1.000000 0.000000 0.000000
vn -0.987300 -0.000003 0.158869
vn -0.987300 -0.000003 0.158869
vn -1.000000 0.000000 0.000000
vn -0.923881 -0.000030 0.382681
vn -0.923881 -0.000030 0.382681
vn -1.000000 0.000000 0.000000
vn -1.000000 0.000000 0.000000
vn -0.987300 0.000000 -0.158866
vn -0.987300 0.000000 -0.158866
vn -0.923883 0.000000 -0.382676
vn -0.923883 0.000000 -0.382676
vn 0.049652 0.943973 0.326267
vn 0.126561 0.943727 0.305550
vn 0.126561 0.943727 0.305550
vn 0.045428 0.943813 0.327343
vn -0.000056 0.944602 0.328217
vn -0.000080 0.944602 0.328217
vn -0.000056 0.944602 0.328217
vn -0.000080 0.944602 0.328217
vn -0.045410 0.943815 0.327340
vn -0.049662 0.943975 0.326258
vn -0.126564 0.943725 0.305557
vn -0.126564 0.943725 0.305557
vn -0.326267 0.943973 0.049638
vn -0.305561 0.943724 0.126561
vn -0.305561 0.943724 0.126561
vn -0.327340 0.943814 0.045421
vn -0.328218 0.944602 -0.000004
vn -0.328218 0.944602 -0.000005
vn -0.328218 0.944602 -0.000004
vn -0.328218 0.944602 -0.000005
vn -0.327342 0.943813 -0.045425
vn -0.326266 0.943973 -0.049654
vn -0.305564 0.943722 -0.126568
vn -0.305564 0.943722 -0.126568
vn -0.049709 0.943976 -0.326250
vn -0.126568 0.943723 -0.305562
vn -0.126568 0.943723 -0.305562
vn -0.045447 0.943815 -0.327334
vn -0.000036 0.944602 -0.328217
vn -0.000051 0.944602 -0.328217
vn -0.000036 0.944602 -0.328217
vn -0.000051 0.944602 -0.328217
vn 0.045391 0.943813 -0.327349
vn 0.049608 0.943972 -0.326277
vn 0.126577 0.943719 -0.305571
vn 0.126577 0.943719 -0.305571
vn 0.326267 0.943976 -0.049588
vn 0.305544 0.943729 -0.126565
vn 0.305544 0.943729 -0.126565
vn 0.327338 0.943817 -0.045378
vn 0.328207 0.944606 0.000033
vn 0.328207 0.944606 0.000047
vn 0.328207 0.944606 0.000033
vn 0.328207 0.944606 0.000047
vn 0.327340 0.943815 0.045400
vn 0.326265 0.943975 0.049626
vn 0.305565 0.943722 0.126564
vn 0.305565 0.943722 0.126564
usemtl material
f 1/0/1 2/0/2 3/0/3
f 1/0/1 3/0/3 4/0/4
f 2/0/2 5/0/5 3/0/3
f 2/0/2 6/0/6 5/0/5
f 7/0/7 8/0/8 9/0/9
f 7/0/7 9/0/9 10/0/10
f 10/0/10 9/0/9 11/0/11
f 10/0/10 11/0/11 12/0/12
f 13/0/13 14/0/14 15/0/15
f 13/0/13 15/0/15 16/0/16
f 14/0/14 17/0/17 15/0/15
f 14/0/14 18/0/18 17/0/17
f 19/0/19 20/0/20 21/0/21
f 19/0/19 21/0/21 22/0/22
f 22/0/22 21/0/21 23/0/23
f 22/0/22 23/0/23 24/0/24
f 25/0/25 26/0/26 27/0/27
f 25/0/25 27/0/27 28/0/28
f 26/0/26 29/0/29 27/0/27
f 26/0/26 30/0/30 29/0/29
f 31/0/31 32/0/32 33/0/33
f 31/0/31 33/0/33 34/0/34
f 34/0/34 33/0/33 35/0/35
f 34/0/34 35/0/35 36/0/36
f 37/0/37 38/0/38 39/0/39
f 37/0/37 39/0/39 40/0/40
f 38/0/38 41/0/41 39/0/39
f 38/0/38 42/0/42 41/0/41
f 43/0/43 44/0/44 45/0/45
f 43/0/43 45/0/45 46/0/46
f 46/0/46 45/0/45 47/0/47
f 46/0/46 47/0/47 48/0/48
f 49/0/49 50/0/50 51/0/51
f 49/0/49 51/0/51 52/0/52
f 53/0/53 49/0/49 52/0/52
f 53/0/53 52/0/52 54/0/54
f 55/0/55 56/0/56 57/0/57
f 55/0/55 57/0/57 58/0/58
f 58/0/58 57/0/57 59/0/59
f 58/0/58 59/0/59 60/0/60
f 61/0/61 62/0/62 63/0/63
f 61/0/61 63/0/63 64/0/64
f 65/0/65 61/0/61 64/0/64
f 65/0/65 64/0/64 66/0/66
f 67/0/67 68/0/68 69/0/69
f 67/0/67 69/0/69 70/0/70
f 70/0/70 69/0/69 71/0/71
f 70/0/70 71/0/71 72/0/72
f 73/0/73 74/0/74 75/0/75
f 73/0/73 75/0/75 76/0/76
f 77/0/77 73/0/73 76/0/76
f 77/0/77 76/0/76 78/0/78
f 79/0/79 80/0/80 81/0/81
f 79/0/79 81/0/81 82/0/82
f 82/0/82 81/0/81 83/0/83
f 82/0/82 83/0/83 84/0/84
f 85/0/85 86/0/86 87/0/87
f 85/0/85 87/0/87 88/0/88
f 89/0/89 85/0/85 88/0/88
f 89/0/89 88/0/88 90/0/90
f 91/0/91 92/0/92 93/0/93
f 91/0/91 93/0/93 94/0/94
f 94/0/94 93/0/93 95/0/95
f 94/0/94 95/0/95 96/0/96
