# 
# Wavefront OBJ file
# Created with Kaydara FBX
# 
mtllib battery_bronya_03_roof.mtl

g Battery_Bronya_03_Roof
v 163.736023 9.143755 -0.000009
v 163.279205 9.071918 -0.457057
v 163.160187 9.071918 0.293208
v 163.160187 9.071918 0.293208
v 162.695023 8.948483 -0.165164
v 162.612457 8.859914 0.572107
v 163.160187 9.071918 0.293208
v 163.279205 9.071918 -0.457057
v 162.695023 8.948483 -0.165164
v 163.279205 9.071918 -0.457057
v 162.844696 8.859914 -0.891785
v 162.695023 8.948483 -0.165164
v 162.612457 8.859914 0.572107
v 162.136002 8.668065 0.113429
v 162.313477 8.668065 0.724345
v 162.612457 8.859914 0.572107
v 162.695023 8.948483 -0.165164
v 162.136002 8.668065 0.113429
v 162.695023 8.948483 -0.165164
v 162.249664 8.668065 -0.603096
v 162.136002 8.668065 0.113429
v 162.695023 8.948483 -0.165164
v 162.844696 8.859914 -0.891785
v 162.249664 8.668065 -0.603096
v 162.844696 8.859914 -0.891785
v 162.607529 8.668065 -1.129080
v 162.249664 8.668065 -0.603096
v 163.736023 9.143755 -0.000009
v 164.029526 9.071918 -0.575693
v 163.279205 9.071918 -0.457057
v 163.279205 9.071918 -0.457057
v 163.571396 8.948483 -1.041095
v 162.844696 8.859914 -0.891785
v 163.279205 9.071918 -0.457057
v 164.029526 9.071918 -0.575693
v 163.571396 8.948483 -1.041095
v 164.029526 9.071918 -0.575693
v 164.308731 8.859914 -1.123270
v 163.571396 8.948483 -1.041095
v 162.844696 8.859914 -0.891785
v 163.133682 8.668064 -1.486664
v 162.607529 8.668065 -1.129080
v 162.844696 8.859914 -0.891785
v 163.571396 8.948483 -1.041095
v 163.133682 8.668064 -1.486664
v 163.571396 8.948483 -1.041095
v 163.850296 8.668065 -1.599972
v 163.133682 8.668064 -1.486664
v 163.571396 8.948483 -1.041095
v 164.308731 8.859914 -1.123270
v 163.850296 8.668065 -1.599972
v 164.308731 8.859914 -1.123270
v 164.461105 8.668065 -1.422164
v 163.850296 8.668065 -1.599972
v 163.736023 9.143755 -0.000009
v 164.374222 9.071918 0.101247
v 164.029526 9.071918 -0.575693
v 164.029526 9.071918 -0.575693
v 164.675293 8.948483 -0.478279
v 164.308731 8.859914 -1.123270
v 164.029526 9.071918 -0.575693
v 164.374222 9.071918 0.101247
v 164.675293 8.948483 -0.478279
v 164.374222 9.071918 0.101247
v 164.981293 8.859914 0.197552
v 164.675293 8.948483 -0.478279
v 164.308731 8.859914 -1.123270
v 164.963791 8.668065 -1.032251
v 164.461105 8.668065 -1.422164
v 164.308731 8.859914 -1.123270
v 164.675293 8.948483 -0.478279
v 164.963791 8.668065 -1.032251
v 164.675293 8.948483 -0.478279
v 165.292984 8.668064 -0.385745
v 164.963791 8.668065 -1.032251
v 164.675293 8.948483 -0.478279
v 164.981293 8.859914 0.197552
v 165.292984 8.668064 -0.385745
v 164.981293 8.859914 0.197552
v 165.312637 8.668065 0.250121
v 165.292984 8.668064 -0.385745
v 163.736023 9.143755 -0.000009
v 163.836945 9.071918 0.638257
v 164.374222 9.071918 0.101247
v 164.374222 9.071918 0.101247
v 164.481125 8.948483 0.745490
v 164.981293 8.859914 0.197552
v 164.374222 9.071918 0.101247
v 163.836945 9.071918 0.638257
v 164.481125 8.948483 0.745490
v 163.836945 9.071918 0.638257
v 163.932922 8.859914 1.245361
v 164.481125 8.948483 0.745490
v 164.981293 8.859914 0.197552
v 165.097137 8.668065 0.848686
v 165.312637 8.668065 0.250121
v 164.981293 8.859914 0.197552
v 164.481125 8.948483 0.745490
v 165.097137 8.668065 0.848686
v 164.481125 8.948483 0.745490
v 164.584000 8.668065 1.361553
v 165.097137 8.668065 0.848686
v 164.481125 8.948483 0.745490
v 163.932922 8.859914 1.245361
v 164.584000 8.668065 1.361553
v 163.932922 8.859914 1.245361
v 163.985321 8.668065 1.576741
v 164.584000 8.668065 1.361553
v 163.736023 9.143755 -0.000009
v 163.160187 9.071918 0.293208
v 163.836945 9.071918 0.638257
v 163.836945 9.071918 0.638257
v 163.257263 8.948483 0.939013
v 163.932922 8.859914 1.245361
v 163.836945 9.071918 0.638257
v 163.160187 9.071918 0.293208
v 163.257263 8.948483 0.939013
v 163.160187 9.071918 0.293208
v 162.612457 8.859914 0.572107
v 163.257263 8.948483 0.939013
v 163.932922 8.859914 1.245361
v 163.349472 8.668065 1.556757
v 163.985321 8.668065 1.576741
v 163.932922 8.859914 1.245361
v 163.257263 8.948483 0.939013
v 163.349472 8.668065 1.556757
v 163.257263 8.948483 0.939013
v 162.703125 8.668065 1.227229
v 163.349472 8.668065 1.556757
v 163.257263 8.948483 0.939013
v 162.612457 8.859914 0.572107
v 162.703125 8.668065 1.227229
v 162.612457 8.859914 0.572107
v 162.313477 8.668065 0.724345
v 162.703125 8.668065 1.227229
vt -0.956542 0.574638
vt -0.922220 0.518557
vt -0.990930 0.518557
vt -0.956542 0.574638
vt -0.922220 0.518557
vt -0.990930 0.518557
vt -0.922220 0.518557
vt -0.990930 0.518557
vt -0.956542 0.574638
vt -0.956542 0.574638
vt -0.922220 0.518557
vt -0.990930 0.518557
vt -0.956542 0.574638
vt -0.922220 0.518557
vt -0.973736 0.546597
vt -0.922220 0.518557
vt -0.990930 0.518557
vt -0.956542 0.574638
vt -0.956542 0.574638
vt -0.922220 0.518557
vt -0.990930 0.518557
vt -0.922220 0.518557
vt -0.990930 0.518557
vt -0.956542 0.574638
vt -0.956542 0.574638
vt -0.939381 0.546597
vt -0.990930 0.518557
vt -0.956542 0.574638
vt -0.990930 0.518557
vt -0.922220 0.518557
vt -0.956542 0.574638
vt -0.990930 0.518557
vt -0.922220 0.518557
vt -0.990930 0.518557
vt -0.922220 0.518557
vt -0.956542 0.574638
vt -0.956542 0.574638
vt -0.990930 0.518557
vt -0.922220 0.518557
vt -0.956542 0.574638
vt -0.990930 0.518557
vt -0.939381 0.546597
vt -0.990930 0.518557
vt -0.922220 0.518557
vt -0.956542 0.574638
vt -0.956542 0.574638
vt -0.990930 0.518557
vt -0.922220 0.518557
vt -0.990930 0.518557
vt -0.922220 0.518557
vt -0.956542 0.574638
vt -0.956542 0.574638
vt -0.973736 0.546597
vt -0.922220 0.518557
vt -0.956542 0.574638
vt -0.990930 0.518557
vt -0.922220 0.518557
vt -0.956542 0.574638
vt -0.990930 0.518557
vt -0.922220 0.518557
vt -0.990930 0.518557
vt -0.922220 0.518557
vt -0.956542 0.574638
vt -0.956542 0.574638
vt -0.990930 0.518557
vt -0.922220 0.518557
vt -0.956542 0.574638
vt -0.990930 0.518557
vt -0.939381 0.546597
vt -0.990930 0.518557
vt -0.922220 0.518557
vt -0.956542 0.574638
vt -0.956542 0.574638
vt -0.990930 0.518557
vt -0.922220 0.518557
vt -0.990930 0.518557
vt -0.922220 0.518557
vt -0.956542 0.574638
vt -0.956542 0.574638
vt -0.973736 0.546597
vt -0.922220 0.518557
vt -0.956542 0.574638
vt -0.922220 0.518557
vt -0.990930 0.518557
vt -0.956542 0.574638
vt -0.922220 0.518557
vt -0.990930 0.518557
vt -0.922220 0.518557
vt -0.990930 0.518557
vt -0.956542 0.574638
vt -0.956542 0.574638
vt -0.922220 0.518557
vt -0.990930 0.518557
vt -0.956542 0.574638
vt -0.922220 0.518557
vt -0.973736 0.546597
vt -0.922220 0.518557
vt -0.990930 0.518557
vt -0.956542 0.574638
vt -0.956542 0.574638
vt -0.922220 0.518557
vt -0.990930 0.518557
vt -0.922220 0.518557
vt -0.990930 0.518557
vt -0.956542 0.574638
vt -0.956542 0.574638
vt -0.939381 0.546597
vt -0.990930 0.518557
vt 0.043458 0.574638
vt 0.077780 0.518557
vt 0.009070 0.518557
vt -0.956542 0.574638
vt -0.922220 0.518557
vt -0.990930 0.518557
vt -0.922220 0.518557
vt -0.990930 0.518557
vt -0.956542 0.574638
vt -0.956542 0.574638
vt -0.922220 0.518557
vt -0.990930 0.518557
vt -0.956542 0.574638
vt -0.922220 0.518557
vt -0.973736 0.546597
vt -0.922220 0.518557
vt -0.990930 0.518557
vt -0.956542 0.574638
vt -0.956542 0.574638
vt -0.922220 0.518557
vt -0.990930 0.518557
vt -0.922220 0.518557
vt -0.990930 0.518557
vt -0.956542 0.574638
vt -0.956542 0.574638
vt -0.939381 0.546597
vt -0.990930 0.518557
vn -0.134454 0.990690 -0.021331
vn -0.134454 0.990690 -0.021331
vn -0.134454 0.990690 -0.021331
vn -0.325666 0.942366 0.076734
vn -0.325666 0.942366 0.076734
vn -0.325666 0.942366 0.076734
vn -0.223518 0.974055 -0.035459
vn -0.223518 0.974055 -0.035459
vn -0.223518 0.974055 -0.035459
vn -0.285933 0.942362 -0.173768
vn -0.285933 0.942362 -0.173768
vn -0.285933 0.942362 -0.173768
vn -0.483115 0.864234 0.140352
vn -0.483115 0.864234 0.140352
vn -0.483115 0.864234 0.140352
vn -0.423002 0.904057 0.061244
vn -0.423002 0.904057 0.061244
vn -0.423002 0.904057 0.061244
vn -0.476945 0.875671 -0.075659
vn -0.476945 0.875671 -0.075659
vn -0.476945 0.875671 -0.075659
vn -0.383256 0.904067 -0.189152
vn -0.383256 0.904067 -0.189152
vn -0.383256 0.904067 -0.189152
vn -0.415940 0.864237 -0.282999
vn -0.415940 0.864237 -0.282999
vn -0.415940 0.864237 -0.282999
vn -0.021261 0.990690 -0.134465
vn -0.021261 0.990690 -0.134465
vn -0.021261 0.990690 -0.134465
vn -0.173618 0.942362 -0.286024
vn -0.173618 0.942362 -0.286024
vn -0.173618 0.942362 -0.286024
vn -0.035346 0.974051 -0.223550
vn -0.035346 0.974051 -0.223550
vn -0.035346 0.974051 -0.223550
vn 0.076903 0.942364 -0.325630
vn 0.076903 0.942364 -0.325630
vn 0.076903 0.942364 -0.325630
vn -0.282780 0.864238 -0.416087
vn -0.282780 0.864238 -0.416087
vn -0.282780 0.864238 -0.416087
vn -0.188950 0.904069 -0.383350
vn -0.188950 0.904069 -0.383350
vn -0.188950 0.904069 -0.383350
vn -0.075425 0.875657 -0.477007
vn -0.075425 0.875657 -0.477007
vn -0.075425 0.875657 -0.477007
vn 0.061460 0.904070 -0.422943
vn 0.061460 0.904070 -0.422943
vn 0.061460 0.904070 -0.422943
vn 0.140609 0.864242 -0.483028
vn 0.140609 0.864242 -0.483028
vn 0.140609 0.864242 -0.483028
vn 0.121319 0.990689 -0.061775
vn 0.121319 0.990689 -0.061775
vn 0.121319 0.990689 -0.061775
vn 0.218390 0.942353 -0.253529
vn 0.218390 0.942353 -0.253529
vn 0.218390 0.942353 -0.253529
vn 0.201673 0.974055 -0.102690
vn 0.201673 0.974055 -0.102690
vn 0.201673 0.974055 -0.102690
vn 0.333465 0.942362 -0.027479
vn 0.333465 0.942362 -0.027479
vn 0.333465 0.942362 -0.027479
vn 0.308342 0.864238 -0.397514
vn 0.308342 0.864238 -0.397514
vn 0.308342 0.864238 -0.397514
vn 0.306201 0.904068 -0.298163
vn 0.306201 0.904068 -0.298163
vn 0.306201 0.904068 -0.298163
vn 0.430321 0.875677 -0.219118
vn 0.430321 0.875677 -0.219118
vn 0.430321 0.875677 -0.219118
vn 0.421239 0.904067 -0.072247
vn 0.421239 0.904067 -0.072247
vn 0.421239 0.904067 -0.072247
vn 0.502867 0.864224 -0.015540
vn 0.502867 0.864224 -0.015540
vn 0.502867 0.864224 -0.015540
vn 0.096237 0.990690 0.096285
vn 0.096237 0.990690 0.096285
vn 0.096237 0.990690 0.096285
vn 0.308563 0.942370 0.129338
vn 0.308563 0.942370 0.129338
vn 0.308563 0.942370 0.129338
vn 0.160004 0.974049 0.160084
vn 0.160004 0.974049 0.160084
vn 0.160004 0.974049 0.160084
vn 0.129189 0.942361 0.308651
vn 0.129189 0.942361 0.308651
vn 0.129189 0.942361 0.308651
vn 0.473370 0.864221 0.170417
vn 0.473370 0.864221 0.170417
vn 0.473370 0.864221 0.170417
vn 0.378214 0.904056 0.199089
vn 0.378214 0.904056 0.199089
vn 0.378214 0.904056 0.199089
vn 0.341390 0.875659 0.341575
vn 0.341390 0.875659 0.341575
vn 0.341390 0.875659 0.341575
vn 0.198879 0.904071 0.378289
vn 0.198879 0.904071 0.378289
vn 0.198879 0.904071 0.378289
vn 0.170172 0.864236 0.473431
vn 0.170172 0.864236 0.473431
vn 0.170172 0.864236 0.473431
vn -0.061834 0.990691 0.121277
vn -0.061834 0.990691 0.121277
vn -0.061834 0.990691 0.121277
vn -0.027660 0.942360 0.333455
vn -0.027660 0.942360 0.333455
vn -0.027660 0.942360 0.333455
vn -0.102803 0.974052 0.201630
vn -0.102803 0.974052 0.201629
vn -0.102803 0.974052 0.201629
vn -0.253624 0.942362 0.218242
vn -0.253624 0.942362 0.218242
vn -0.253624 0.942362 0.218242
vn -0.015803 0.864246 0.502821
vn -0.015803 0.864246 0.502821
vn -0.015803 0.864246 0.502821
vn -0.072469 0.904062 0.421213
vn -0.072469 0.904062 0.421213
vn -0.072469 0.904062 0.421213
vn -0.219342 0.875669 0.430224
vn -0.219342 0.875669 0.430224
vn -0.219342 0.875669 0.430224
vn -0.298328 0.904066 0.306047
vn -0.298328 0.904066 0.306047
vn -0.298328 0.904066 0.306047
vn -0.397670 0.864244 0.308126
vn -0.397670 0.864244 0.308126
vn -0.397670 0.864244 0.308126
usemtl material
f 1/0/1 2/0/2 3/0/3
f 4/0/4 5/0/5 6/0/6
f 7/0/7 8/0/8 9/0/9
f 10/0/10 11/0/11 12/0/12
f 13/0/13 14/0/14 15/0/15
f 16/0/16 17/0/17 18/0/18
f 19/0/19 20/0/20 21/0/21
f 22/0/22 23/0/23 24/0/24
f 25/0/25 26/0/26 27/0/27
f 28/0/28 29/0/29 30/0/30
f 31/0/31 32/0/32 33/0/33
f 34/0/34 35/0/35 36/0/36
f 37/0/37 38/0/38 39/0/39
f 40/0/40 41/0/41 42/0/42
f 43/0/43 44/0/44 45/0/45
f 46/0/46 47/0/47 48/0/48
f 49/0/49 50/0/50 51/0/51
f 52/0/52 53/0/53 54/0/54
f 55/0/55 56/0/56 57/0/57
f 58/0/58 59/0/59 60/0/60
f 61/0/61 62/0/62 63/0/63
f 64/0/64 65/0/65 66/0/66
f 67/0/67 68/0/68 69/0/69
f 70/0/70 71/0/71 72/0/72
f 73/0/73 74/0/74 75/0/75
f 76/0/76 77/0/77 78/0/78
f 79/0/79 80/0/80 81/0/81
f 82/0/82 83/0/83 84/0/84
f 85/0/85 86/0/86 87/0/87
f 88/0/88 89/0/89 90/0/90
f 91/0/91 92/0/92 93/0/93
f 94/0/94 95/0/95 96/0/96
f 97/0/97 98/0/98 99/0/99
f 100/0/100 101/0/101 102/0/102
f 103/0/103 104/0/104 105/0/105
f 106/0/106 107/0/107 108/0/108
f 109/0/109 110/0/110 111/0/111
f 112/0/112 113/0/113 114/0/114
f 115/0/115 116/0/116 117/0/117
f 118/0/118 119/0/119 120/0/120
f 121/0/121 122/0/122 123/0/123
f 124/0/124 125/0/125 126/0/126
f 127/0/127 128/0/128 129/0/129
f 130/0/130 131/0/131 132/0/132
f 133/0/133 134/0/134 135/0/135
