# 
# Wavefront OBJ file
# Created with Kaydara FBX
# 
mtllib battery_bronya_04_roof.mtl

g Battery_Bronya_04_Roof
v 0.000034 9.143755 -0.000009
v -0.456782 9.071918 -0.457057
v -0.575806 9.071918 0.293208
v -0.575806 9.071918 0.293208
v -1.040972 8.948482 -0.165164
v -1.123530 8.859914 0.572107
v -0.575806 9.071918 0.293208
v -0.456782 9.071918 -0.457057
v -1.040972 8.948482 -0.165164
v -0.456782 9.071918 -0.457057
v -0.891284 8.859914 -0.891785
v -1.040972 8.948482 -0.165164
v -1.123530 8.859914 0.572107
v -1.599985 8.668065 0.113429
v -1.422505 8.668065 0.724345
v -1.123530 8.859914 0.572107
v -1.040972 8.948482 -0.165164
v -1.599985 8.668065 0.113429
v -1.040972 8.948482 -0.165164
v -1.486318 8.668065 -0.603096
v -1.599985 8.668065 0.113429
v -1.040972 8.948482 -0.165164
v -0.891284 8.859914 -0.891785
v -1.486318 8.668065 -0.603096
v -0.891284 8.859914 -0.891785
v -1.128452 8.668065 -1.129080
v -1.486318 8.668065 -0.603096
v 0.000034 9.143755 -0.000009
v 0.293545 9.071918 -0.575693
v -0.456782 9.071918 -0.457057
v -0.456782 9.071918 -0.457057
v -0.164585 8.948482 -1.041095
v -0.891284 8.859914 -0.891785
v -0.456782 9.071918 -0.457057
v 0.293545 9.071918 -0.575693
v -0.164585 8.948482 -1.041095
v 0.293545 9.071918 -0.575693
v 0.572734 8.859914 -1.123270
v -0.164585 8.948482 -1.041095
v -0.891284 8.859914 -0.891785
v -0.602295 8.668064 -1.486664
v -1.128452 8.668065 -1.129080
v -0.891284 8.859914 -0.891785
v -0.164585 8.948482 -1.041095
v -0.602295 8.668064 -1.486664
v -0.164585 8.948482 -1.041095
v 0.114302 8.668065 -1.599972
v -0.602295 8.668064 -1.486664
v -0.164585 8.948482 -1.041095
v 0.572734 8.859914 -1.123270
v 0.114302 8.668065 -1.599972
v 0.572734 8.859914 -1.123270
v 0.725122 8.668065 -1.422164
v 0.114302 8.668065 -1.599972
v 0.000034 9.143755 -0.000009
v 0.638237 9.071918 0.101247
v 0.293545 9.071918 -0.575693
v 0.293545 9.071918 -0.575693
v 0.939302 8.948482 -0.478279
v 0.572734 8.859914 -1.123270
v 0.293545 9.071918 -0.575693
v 0.638237 9.071918 0.101247
v 0.939302 8.948482 -0.478279
v 0.638237 9.071918 0.101247
v 1.245293 8.859914 0.197552
v 0.939302 8.948482 -0.478279
v 0.572734 8.859914 -1.123270
v 1.227793 8.668065 -1.032251
v 0.725122 8.668065 -1.422164
v 0.572734 8.859914 -1.123270
v 0.939302 8.948482 -0.478279
v 1.227793 8.668065 -1.032251
v 0.939302 8.948482 -0.478279
v 1.557002 8.668064 -0.385745
v 1.227793 8.668065 -1.032251
v 0.939302 8.948482 -0.478279
v 1.245293 8.859914 0.197552
v 1.557002 8.668064 -0.385745
v 1.245293 8.859914 0.197552
v 1.576650 8.668065 0.250121
v 1.557002 8.668064 -0.385745
v 0.000034 9.143755 -0.000009
v 0.100952 9.071918 0.638257
v 0.638237 9.071918 0.101247
v 0.638237 9.071918 0.101247
v 0.745142 8.948482 0.745490
v 1.245293 8.859914 0.197552
v 0.638237 9.071918 0.101247
v 0.100952 9.071918 0.638257
v 0.745142 8.948482 0.745490
v 0.100952 9.071918 0.638257
v 0.196943 8.859914 1.245361
v 0.745142 8.948482 0.745490
v 1.245293 8.859914 0.197552
v 1.361157 8.668065 0.848686
v 1.576650 8.668065 0.250121
v 1.245293 8.859914 0.197552
v 0.745142 8.948482 0.745490
v 1.361157 8.668065 0.848686
v 0.745142 8.948482 0.745490
v 0.848018 8.668065 1.361553
v 1.361157 8.668065 0.848686
v 0.745142 8.948482 0.745490
v 0.196943 8.859914 1.245361
v 0.848018 8.668065 1.361553
v 0.196943 8.859914 1.245361
v 0.249351 8.668065 1.576741
v 0.848018 8.668065 1.361553
v 0.000034 9.143755 -0.000009
v -0.575806 9.071918 0.293208
v 0.100952 9.071918 0.638257
v 0.100952 9.071918 0.638257
v -0.478726 8.948482 0.939013
v 0.196943 8.859914 1.245361
v 0.100952 9.071918 0.638257
v -0.575806 9.071918 0.293208
v -0.478726 8.948482 0.939013
v -0.575806 9.071918 0.293208
v -1.123530 8.859914 0.572107
v -0.478726 8.948482 0.939013
v 0.196943 8.859914 1.245361
v -0.386509 8.668065 1.556757
v 0.249351 8.668065 1.576741
v 0.196943 8.859914 1.245361
v -0.478726 8.948482 0.939013
v -0.386509 8.668065 1.556757
v -0.478726 8.948482 0.939013
v -1.032856 8.668065 1.227229
v -0.386509 8.668065 1.556757
v -0.478726 8.948482 0.939013
v -1.123530 8.859914 0.572107
v -1.032856 8.668065 1.227229
v -1.123530 8.859914 0.572107
v -1.422505 8.668065 0.724345
v -1.032856 8.668065 1.227229
vt -0.956542 0.574638
vt -0.922220 0.518557
vt -0.990930 0.518557
vt -0.956542 0.574638
vt -0.922220 0.518557
vt -0.990930 0.518557
vt -0.922220 0.518557
vt -0.990930 0.518557
vt -0.956542 0.574638
vt -0.956542 0.574638
vt -0.922220 0.518557
vt -0.990930 0.518557
vt -0.956542 0.574638
vt -0.922220 0.518557
vt -0.973736 0.546597
vt -0.922220 0.518557
vt -0.990930 0.518557
vt -0.956542 0.574638
vt -0.956542 0.574638
vt -0.922220 0.518557
vt -0.990930 0.518557
vt -0.922220 0.518557
vt -0.990930 0.518557
vt -0.956542 0.574638
vt -0.956542 0.574638
vt -0.939381 0.546597
vt -0.990930 0.518557
vt -0.956542 0.574638
vt -0.990930 0.518557
vt -0.922220 0.518557
vt -0.956542 0.574638
vt -0.990930 0.518557
vt -0.922220 0.518557
vt -0.990930 0.518557
vt -0.922220 0.518557
vt -0.956542 0.574638
vt -0.956542 0.574638
vt -0.990930 0.518557
vt -0.922220 0.518557
vt -0.956542 0.574638
vt -0.990930 0.518557
vt -0.939381 0.546597
vt -0.990930 0.518557
vt -0.922220 0.518557
vt -0.956542 0.574638
vt -0.956542 0.574638
vt -0.990930 0.518557
vt -0.922220 0.518557
vt -0.990930 0.518557
vt -0.922220 0.518557
vt -0.956542 0.574638
vt -0.956542 0.574638
vt -0.973736 0.546597
vt -0.922220 0.518557
vt -0.956542 0.574638
vt -0.990930 0.518557
vt -0.922220 0.518557
vt -0.956542 0.574638
vt -0.990930 0.518557
vt -0.922220 0.518557
vt -0.990930 0.518557
vt -0.922220 0.518557
vt -0.956542 0.574638
vt -0.956542 0.574638
vt -0.990930 0.518557
vt -0.922220 0.518557
vt -0.956542 0.574638
vt -0.990930 0.518557
vt -0.939381 0.546597
vt -0.990930 0.518557
vt -0.922220 0.518557
vt -0.956542 0.574638
vt -0.956542 0.574638
vt -0.990930 0.518557
vt -0.922220 0.518557
vt -0.990930 0.518557
vt -0.922220 0.518557
vt -0.956542 0.574638
vt -0.956542 0.574638
vt -0.973736 0.546597
vt -0.922220 0.518557
vt -0.956542 0.574638
vt -0.922220 0.518557
vt -0.990930 0.518557
vt -0.956542 0.574638
vt -0.922220 0.518557
vt -0.990930 0.518557
vt -0.922220 0.518557
vt -0.990930 0.518557
vt -0.956542 0.574638
vt -0.956542 0.574638
vt -0.922220 0.518557
vt -0.990930 0.518557
vt -0.956542 0.574638
vt -0.922220 0.518557
vt -0.973736 0.546597
vt -0.922220 0.518557
vt -0.990930 0.518557
vt -0.956542 0.574638
vt -0.956542 0.574638
vt -0.922220 0.518557
vt -0.990930 0.518557
vt -0.922220 0.518557
vt -0.990930 0.518557
vt -0.956542 0.574638
vt -0.956542 0.574638
vt -0.939381 0.546597
vt -0.990930 0.518557
vt 0.043458 0.574638
vt 0.077780 0.518557
vt 0.009070 0.518557
vt -0.956542 0.574638
vt -0.922220 0.518557
vt -0.990930 0.518557
vt -0.922220 0.518557
vt -0.990930 0.518557
vt -0.956542 0.574638
vt -0.956542 0.574638
vt -0.922220 0.518557
vt -0.990930 0.518557
vt -0.956542 0.574638
vt -0.922220 0.518557
vt -0.973736 0.546597
vt -0.922220 0.518557
vt -0.990930 0.518557
vt -0.956542 0.574638
vt -0.956542 0.574638
vt -0.922220 0.518557
vt -0.990930 0.518557
vt -0.922220 0.518557
vt -0.990930 0.518557
vt -0.956542 0.574638
vt -0.956542 0.574638
vt -0.939381 0.546597
vt -0.990930 0.518557
vn -0.134452 0.990691 -0.021331
vn -0.134452 0.990691 -0.021331
vn -0.134452 0.990691 -0.021331
vn -0.325679 0.942361 0.076737
vn -0.325679 0.942361 0.076737
vn -0.325679 0.942361 0.076737
vn -0.223530 0.974052 -0.035461
vn -0.223530 0.974052 -0.035461
vn -0.223530 0.974052 -0.035461
vn -0.285940 0.942360 -0.173771
vn -0.285940 0.942360 -0.173771
vn -0.285940 0.942360 -0.173771
vn -0.483107 0.864239 0.140349
vn -0.483107 0.864239 0.140349
vn -0.483107 0.864239 0.140349
vn -0.422984 0.904065 0.061242
vn -0.422984 0.904065 0.061242
vn -0.422984 0.904065 0.061242
vn -0.476964 0.875660 -0.075664
vn -0.476964 0.875660 -0.075664
vn -0.476964 0.875660 -0.075664
vn -0.383255 0.904067 -0.189152
vn -0.383255 0.904067 -0.189152
vn -0.383255 0.904067 -0.189152
vn -0.415944 0.864236 -0.282996
vn -0.415944 0.864236 -0.282996
vn -0.415944 0.864236 -0.282996
vn -0.021260 0.990690 -0.134463
vn -0.021260 0.990690 -0.134463
vn -0.021260 0.990690 -0.134463
vn -0.173621 0.942360 -0.286030
vn -0.173621 0.942360 -0.286030
vn -0.173621 0.942360 -0.286030
vn -0.035346 0.974052 -0.223549
vn -0.035346 0.974052 -0.223549
vn -0.035346 0.974052 -0.223549
vn 0.076905 0.942361 -0.325639
vn 0.076905 0.942361 -0.325639
vn 0.076905 0.942361 -0.325639
vn -0.282779 0.864236 -0.416091
vn -0.282779 0.864236 -0.416091
vn -0.282779 0.864236 -0.416091
vn -0.188950 0.904067 -0.383355
vn -0.188950 0.904067 -0.383355
vn -0.188950 0.904067 -0.383355
vn -0.075425 0.875661 -0.477000
vn -0.075425 0.875661 -0.477000
vn -0.075425 0.875661 -0.477000
vn 0.061460 0.904067 -0.422948
vn 0.061460 0.904067 -0.422948
vn 0.061460 0.904067 -0.422948
vn 0.140610 0.864240 -0.483030
vn 0.140610 0.864240 -0.483030
vn 0.140610 0.864240 -0.483030
vn 0.121314 0.990690 -0.061772
vn 0.121314 0.990690 -0.061772
vn 0.121314 0.990690 -0.061772
vn 0.218374 0.942361 -0.253513
vn 0.218374 0.942361 -0.253513
vn 0.218374 0.942361 -0.253513
vn 0.201681 0.974053 -0.102693
vn 0.201681 0.974053 -0.102693
vn 0.201681 0.974053 -0.102693
vn 0.333464 0.942362 -0.027483
vn 0.333464 0.942362 -0.027483
vn 0.333464 0.942362 -0.027483
vn 0.308345 0.864237 -0.397514
vn 0.308345 0.864237 -0.397514
vn 0.308345 0.864237 -0.397514
vn 0.306206 0.904065 -0.298169
vn 0.306206 0.904065 -0.298169
vn 0.306206 0.904065 -0.298169
vn 0.430351 0.875658 -0.219139
vn 0.430351 0.875658 -0.219139
vn 0.430351 0.875658 -0.219139
vn 0.421243 0.904066 -0.072245
vn 0.421243 0.904066 -0.072245
vn 0.421243 0.904066 -0.072245
vn 0.502841 0.864239 -0.015538
vn 0.502841 0.864239 -0.015538
vn 0.502841 0.864239 -0.015538
vn 0.096237 0.990690 0.096287
vn 0.096237 0.990690 0.096287
vn 0.096237 0.990690 0.096287
vn 0.308583 0.942362 0.129347
vn 0.308584 0.942362 0.129347
vn 0.308583 0.942362 0.129347
vn 0.159995 0.974052 0.160076
vn 0.159995 0.974052 0.160076
vn 0.159995 0.974052 0.160076
vn 0.129191 0.942361 0.308651
vn 0.129191 0.942361 0.308651
vn 0.129191 0.942361 0.308651
vn 0.473340 0.864239 0.170410
vn 0.473340 0.864239 0.170410
vn 0.473340 0.864239 0.170410
vn 0.378192 0.904068 0.199076
vn 0.378192 0.904068 0.199076
vn 0.378192 0.904068 0.199076
vn 0.341389 0.875661 0.341572
vn 0.341389 0.875661 0.341572
vn 0.341389 0.875661 0.341573
vn 0.198885 0.904066 0.378298
vn 0.198885 0.904066 0.378298
vn 0.198885 0.904066 0.378298
vn 0.170171 0.864238 0.473428
vn 0.170171 0.864238 0.473428
vn 0.170171 0.864238 0.473428
vn -0.061835 0.990691 0.121280
vn -0.061835 0.990691 0.121280
vn -0.061835 0.990691 0.121280
vn -0.027660 0.942361 0.333452
vn -0.027660 0.942361 0.333452
vn -0.027660 0.942361 0.333452
vn -0.102802 0.974053 0.201627
vn -0.102802 0.974053 0.201627
vn -0.102802 0.974053 0.201627
vn -0.253624 0.942361 0.218243
vn -0.253624 0.942361 0.218243
vn -0.253624 0.942361 0.218243
vn -0.015803 0.864237 0.502837
vn -0.015803 0.864237 0.502837
vn -0.015803 0.864237 0.502837
vn -0.072468 0.904064 0.421208
vn -0.072468 0.904064 0.421208
vn -0.072468 0.904064 0.421208
vn -0.219349 0.875660 0.430239
vn -0.219349 0.875660 0.430239
vn -0.219349 0.875660 0.430239
vn -0.298323 0.904069 0.306042
vn -0.298323 0.904069 0.306042
vn -0.298323 0.904069 0.306042
vn -0.397674 0.864241 0.308129
vn -0.397674 0.864241 0.308129
vn -0.397674 0.864241 0.308129
usemtl material
f 1/0/1 2/0/2 3/0/3
f 4/0/4 5/0/5 6/0/6
f 7/0/7 8/0/8 9/0/9
f 10/0/10 11/0/11 12/0/12
f 13/0/13 14/0/14 15/0/15
f 16/0/16 17/0/17 18/0/18
f 19/0/19 20/0/20 21/0/21
f 22/0/22 23/0/23 24/0/24
f 25/0/25 26/0/26 27/0/27
f 28/0/28 29/0/29 30/0/30
f 31/0/31 32/0/32 33/0/33
f 34/0/34 35/0/35 36/0/36
f 37/0/37 38/0/38 39/0/39
f 40/0/40 41/0/41 42/0/42
f 43/0/43 44/0/44 45/0/45
f 46/0/46 47/0/47 48/0/48
f 49/0/49 50/0/50 51/0/51
f 52/0/52 53/0/53 54/0/54
f 55/0/55 56/0/56 57/0/57
f 58/0/58 59/0/59 60/0/60
f 61/0/61 62/0/62 63/0/63
f 64/0/64 65/0/65 66/0/66
f 67/0/67 68/0/68 69/0/69
f 70/0/70 71/0/71 72/0/72
f 73/0/73 74/0/74 75/0/75
f 76/0/76 77/0/77 78/0/78
f 79/0/79 80/0/80 81/0/81
f 82/0/82 83/0/83 84/0/84
f 85/0/85 86/0/86 87/0/87
f 88/0/88 89/0/89 90/0/90
f 91/0/91 92/0/92 93/0/93
f 94/0/94 95/0/95 96/0/96
f 97/0/97 98/0/98 99/0/99
f 100/0/100 101/0/101 102/0/102
f 103/0/103 104/0/104 105/0/105
f 106/0/106 107/0/107 108/0/108
f 109/0/109 110/0/110 111/0/111
f 112/0/112 113/0/113 114/0/114
f 115/0/115 116/0/116 117/0/117
f 118/0/118 119/0/119 120/0/120
f 121/0/121 122/0/122 123/0/123
f 124/0/124 125/0/125 126/0/126
f 127/0/127 128/0/128 129/0/129
f 130/0/130 131/0/131 132/0/132
f 133/0/133 134/0/134 135/0/135
