# 
# Wavefront OBJ file
# Created with Kaydara FBX
# 
mtllib bg_startloading_staff.mtl

g BG:StartLoading_Staff
v -4.116384 9.058681 -16.290375
v -3.561020 9.058681 -16.338964
v -3.561020 9.754201 -16.338963
v -4.116384 9.754202 -16.290375
v 3.646264 12.309352 -16.880991
v 3.887662 12.309350 -16.741619
v 3.887662 13.004869 -16.741619
v 3.646263 13.004869 -16.880989
v -4.116388 2.582458 -16.290371
v -3.561023 2.582460 -16.338959
v -3.561023 3.277977 -16.338959
v -4.116386 3.277975 -16.290373
v 3.751999 5.830574 -16.144953
v 4.026506 5.830574 -16.096550
v 4.026508 6.526093 -16.096552
v 3.751999 6.526091 -16.144953
v 3.984643 6.533023 -16.087786
v 3.984643 5.837505 -16.087786
v 4.259151 5.837505 -16.039381
v 4.259151 6.533023 -16.039381
v 3.646263 -0.639324 -16.880985
v 3.887661 -0.639325 -16.741613
v 3.887661 0.056193 -16.741613
v 3.646262 0.056192 -16.880983
v -4.116384 22.004824 -16.290375
v -3.561020 22.004824 -16.338964
v -3.561020 22.700342 -16.338963
v -4.116384 22.700344 -16.290375
v -4.116388 15.529355 -16.290371
v -3.561023 15.529356 -16.338959
v -3.561023 16.224871 -16.338959
v -4.116386 16.224867 -16.290373
v 3.751999 18.756794 -16.144953
v 4.026506 18.756794 -16.096550
v 4.026508 19.452312 -16.096552
v 3.751999 19.452312 -16.144953
v 3.984643 19.459244 -16.087786
v 3.984643 18.763725 -16.087786
v 4.259151 18.763725 -16.039381
v 4.259151 19.459244 -16.039381
v -4.037203 12.308809 -16.368229
v -3.534692 12.308808 -16.412191
v -3.534693 12.938137 -16.412191
v -4.037203 12.938134 -16.368229
v 3.786147 9.014445 -16.512800
v 4.059673 9.037275 -16.464224
v 3.999976 9.730145 -16.453697
v 3.726450 9.707314 -16.502274
v 3.845479 9.726985 -16.425077
v 3.845479 9.031467 -16.425077
v 4.119987 9.031466 -16.376675
v 4.119986 9.726983 -16.376673
v -4.037206 -0.648343 -16.368225
v -3.534695 -0.648344 -16.412189
v -3.534696 -0.019017 -16.412189
v -4.037207 -0.019017 -16.368225
v 3.786146 2.575327 -16.512794
v 4.059672 2.598154 -16.464218
v 3.999975 3.291025 -16.453693
v 3.726449 3.268197 -16.502270
v 3.845478 3.287865 -16.425074
v 3.845478 2.592349 -16.425074
v 4.119985 2.592350 -16.376669
v 4.119986 3.287864 -16.376669
v 3.786147 21.989519 -16.512800
v 4.059673 22.012348 -16.464224
v 3.999976 22.705217 -16.453697
v 3.726450 22.682386 -16.502274
v 3.845479 22.702057 -16.425077
v 3.845479 22.006540 -16.425077
v 4.119987 22.006540 -16.376675
v 4.119986 22.702055 -16.376673
v 3.786146 15.524219 -16.512794
v 4.059672 15.547046 -16.464218
v 3.999975 16.239916 -16.453693
v 3.726449 16.217089 -16.502270
v 3.845478 16.236755 -16.425074
v 3.845478 15.541240 -16.425074
v 4.119985 15.541241 -16.376669
v 4.119986 16.236755 -16.376669
vt 0.512003 0.103254
vt 0.029560 0.103248
vt 0.029545 0.483551
vt 0.511985 0.483563
vt 0.771554 0.533408
vt 0.530332 0.533405
vt 0.530316 0.913711
vt 0.771536 0.913717
vt 0.512003 0.103254
vt 0.029560 0.103248
vt 0.029545 0.483551
vt 0.511985 0.483563
vt 0.798810 0.103254
vt 0.557588 0.103251
vt 0.557572 0.483557
vt 0.798792 0.483563
vt 0.765661 0.913857
vt 0.765678 0.533551
vt 0.524457 0.533548
vt 0.524442 0.913851
vt 0.771554 0.533408
vt 0.530332 0.533405
vt 0.530316 0.913711
vt 0.771536 0.913717
vt 0.512003 0.103254
vt 0.029560 0.103248
vt 0.029545 0.483551
vt 0.511985 0.483563
vt 0.512003 0.103254
vt 0.029560 0.103248
vt 0.029545 0.483551
vt 0.511985 0.483563
vt 0.798810 0.103254
vt 0.557588 0.103251
vt 0.557572 0.483557
vt 0.798792 0.483563
vt 0.765661 0.913857
vt 0.765678 0.533551
vt 0.524457 0.533548
vt 0.524442 0.913851
vt 0.512003 0.533408
vt 0.029560 0.533402
vt 0.029545 0.913705
vt 0.511985 0.913717
vt 0.537801 0.103254
vt 0.296579 0.103251
vt 0.296563 0.483557
vt 0.537783 0.483563
vt 0.286779 0.913857
vt 0.286763 0.533551
vt 0.527984 0.533548
vt 0.527999 0.913851
vt 0.512003 0.533408
vt 0.029560 0.533402
vt 0.029545 0.913705
vt 0.511985 0.913717
vt 0.537801 0.103254
vt 0.296579 0.103251
vt 0.296563 0.483557
vt 0.537783 0.483563
vt 0.286779 0.913857
vt 0.286763 0.533551
vt 0.527984 0.533548
vt 0.527999 0.913851
vt 0.537801 0.103254
vt 0.296579 0.103251
vt 0.296563 0.483557
vt 0.537783 0.483563
vt 0.286779 0.913857
vt 0.286763 0.533551
vt 0.527984 0.533548
vt 0.527999 0.913851
vt 0.537801 0.103254
vt 0.296579 0.103251
vt 0.296563 0.483557
vt 0.537783 0.483563
vt 0.286779 0.913857
vt 0.286763 0.533551
vt 0.527984 0.533548
vt 0.527999 0.913851
vn 0.087156 -0.000001 0.996195
vn 0.087156 -0.000001 0.996195
vn 0.087156 -0.000001 0.996195
vn 0.087156 -0.000001 0.996195
vn -0.499998 -0.000002 0.866026
vn -0.499998 -0.000002 0.866026
vn -0.499998 -0.000002 0.866026
vn -0.499998 -0.000002 0.866026
vn 0.087155 -0.000001 0.996195
vn 0.087155 -0.000001 0.996195
vn 0.087155 -0.000001 0.996195
vn 0.087155 -0.000001 0.996195
vn -0.173648 0.000002 0.984808
vn -0.173648 0.000002 0.984808
vn -0.173648 0.000002 0.984808
vn -0.173648 0.000002 0.984808
vn -0.173649 -0.000001 0.984808
vn -0.173649 -0.000001 0.984808
vn -0.173649 -0.000001 0.984808
vn -0.173649 -0.000001 0.984808
vn -0.499999 -0.000002 0.866026
vn -0.499999 -0.000002 0.866026
vn -0.499999 -0.000002 0.866026
vn -0.499999 -0.000002 0.866026
vn 0.087156 -0.000001 0.996195
vn 0.087156 -0.000001 0.996195
vn 0.087156 -0.000001 0.996195
vn 0.087156 -0.000001 0.996195
vn 0.087155 -0.000001 0.996195
vn 0.087155 -0.000001 0.996195
vn 0.087155 -0.000001 0.996195
vn 0.087155 -0.000001 0.996195
vn -0.173648 0.000002 0.984808
vn -0.173648 0.000002 0.984808
vn -0.173648 0.000002 0.984808
vn -0.173648 0.000002 0.984808
vn -0.173649 -0.000001 0.984808
vn -0.173649 -0.000001 0.984808
vn -0.173649 -0.000001 0.984808
vn -0.173649 -0.000001 0.984808
vn 0.087155 -0.000000 0.996195
vn 0.087155 -0.000000 0.996195
vn 0.087155 -0.000000 0.996195
vn 0.087155 -0.000000 0.996195
vn -0.172367 -0.029809 0.984582
vn -0.172367 -0.029809 0.984582
vn -0.172367 -0.029809 0.984582
vn -0.172367 -0.029809 0.984582
vn -0.173649 -0.000000 0.984808
vn -0.173649 -0.000000 0.984808
vn -0.173649 -0.000000 0.984808
vn -0.173649 -0.000000 0.984808
vn 0.087155 0.000000 0.996195
vn 0.087155 0.000000 0.996195
vn 0.087155 0.000000 0.996195
vn 0.087155 0.000000 0.996195
vn -0.172366 -0.029809 0.984582
vn -0.172366 -0.029809 0.984582
vn -0.172366 -0.029809 0.984582
vn -0.172366 -0.029809 0.984582
vn -0.173649 -0.000000 0.984808
vn -0.173649 -0.000000 0.984808
vn -0.173649 -0.000000 0.984808
vn -0.173649 -0.000000 0.984808
vn -0.172367 -0.029809 0.984582
vn -0.172367 -0.029809 0.984582
vn -0.172367 -0.029809 0.984582
vn -0.172367 -0.029809 0.984582
vn -0.173649 -0.000000 0.984808
vn -0.173649 -0.000000 0.984808
vn -0.173649 -0.000000 0.984808
vn -0.173649 -0.000000 0.984808
vn -0.172366 -0.029809 0.984582
vn -0.172366 -0.029809 0.984582
vn -0.172366 -0.029809 0.984582
vn -0.172366 -0.029809 0.984582
vn -0.173649 -0.000000 0.984808
vn -0.173649 -0.000000 0.984808
vn -0.173649 -0.000000 0.984808
vn -0.173649 -0.000000 0.984808
usemtl material
f 1/0/1 2/0/2 3/0/3
f 1/0/1 3/0/3 4/0/4
f 5/0/5 6/0/6 7/0/7
f 5/0/5 7/0/7 8/0/8
f 9/0/9 10/0/10 11/0/11
f 9/0/9 11/0/11 12/0/12
f 13/0/13 14/0/14 15/0/15
f 13/0/13 15/0/15 16/0/16
f 17/0/17 18/0/18 19/0/19
f 17/0/17 19/0/19 20/0/20
f 21/0/21 22/0/22 23/0/23
f 21/0/21 23/0/23 24/0/24
f 25/0/25 26/0/26 27/0/27
f 25/0/25 27/0/27 28/0/28
f 29/0/29 30/0/30 31/0/31
f 29/0/29 31/0/31 32/0/32
f 33/0/33 34/0/34 35/0/35
f 33/0/33 35/0/35 36/0/36
f 37/0/37 38/0/38 39/0/39
f 37/0/37 39/0/39 40/0/40
f 41/0/41 42/0/42 43/0/43
f 41/0/41 43/0/43 44/0/44
f 45/0/45 46/0/46 47/0/47
f 45/0/45 47/0/47 48/0/48
f 49/0/49 50/0/50 51/0/51
f 49/0/49 51/0/51 52/0/52
f 53/0/53 54/0/54 55/0/55
f 53/0/53 55/0/55 56/0/56
f 57/0/57 58/0/58 59/0/59
f 57/0/57 59/0/59 60/0/60
f 61/0/61 62/0/62 63/0/63
f 61/0/61 63/0/63 64/0/64
f 65/0/65 66/0/66 67/0/67
f 65/0/65 67/0/67 68/0/68
f 69/0/69 70/0/70 71/0/71
f 69/0/69 71/0/71 72/0/72
f 73/0/73 74/0/74 75/0/75
f 73/0/73 75/0/75 76/0/76
f 77/0/77 78/0/78 79/0/79
f 77/0/77 79/0/79 80/0/80
