# 
# Wavefront OBJ file
# Created with Kaydara FBX
# 
mtllib blktek_04line.mtl

g Blktek_04Line
v 11.585512 8.052159 11.720996
v 11.664142 8.130116 11.592702
v 10.364943 8.886231 12.375171
v 10.416234 8.732662 12.425215
v 12.047137 6.670040 12.171413
v 12.177056 6.594427 12.093166
v 11.339483 5.968424 13.326052
v 11.390775 5.814857 13.376099
v 10.170203 6.648929 14.030271
v 10.091576 6.570973 14.158565
v 9.708580 8.031049 13.579853
v 9.578659 8.106661 13.658100
v 10.416234 8.732662 12.425215
v 10.364943 8.886231 12.375171
v 11.889064 10.521011 9.807446
v 11.967692 10.598969 9.679152
v 10.668493 11.355084 10.461621
v 10.719785 11.201514 10.511664
v 12.350688 9.138892 10.257864
v 12.480608 9.063280 10.179617
v 11.643034 8.437277 11.412502
v 11.694325 8.283710 11.462548
v 10.473755 9.117782 12.116721
v 10.395126 9.039825 12.245014
v 10.012131 10.499901 11.666304
v 9.882211 10.575514 11.744551
v 10.719785 11.201514 10.511664
v 10.668493 11.355084 10.461621
v 13.822577 8.077320 9.505476
v 13.901206 8.155277 9.377182
v 12.602007 8.911392 10.159651
v 12.653298 8.757823 10.209695
v 14.284202 6.695201 9.955894
v 14.414121 6.619588 9.877646
v 13.576548 5.993585 11.110532
v 13.627839 5.840018 11.160579
v 12.407268 6.674090 11.814751
v 12.328640 6.596134 11.943044
v 11.945644 8.056210 11.364333
v 11.815723 8.131823 11.442580
v 12.653298 8.757823 10.209695
v 12.602007 8.911392 10.159651
vt 0.560071 0.501188
vt 0.439929 0.501188
vt 0.439929 0.667855
vt 0.560071 0.667855
vt 0.560071 0.334522
vt 0.439929 0.334522
vt 0.560071 0.167855
vt 0.439929 0.167855
vt 0.560071 0.001188
vt 0.439929 0.001188
vt 0.560071 -0.165478
vt 0.439929 -0.165478
vt 0.560071 -0.332145
vt 0.439929 -0.332145
vt 0.560071 1.166126
vt 0.439929 1.166126
vt 0.439929 1.332793
vt 0.560071 1.332793
vt 0.560071 0.999460
vt 0.439929 0.999460
vt 0.560071 0.832793
vt 0.439929 0.832793
vt 0.560071 0.666127
vt 0.439929 0.666126
vt 0.560071 0.499460
vt 0.439929 0.499460
vt 0.560071 0.332793
vt 0.439929 0.332793
vt 0.560071 0.833657
vt 0.439929 0.833657
vt 0.439929 1.000324
vt 0.560071 1.000324
vt 0.560071 0.666991
vt 0.439929 0.666991
vt 0.560071 0.500324
vt 0.439929 0.500324
vt 0.560071 0.333657
vt 0.439929 0.333657
vt 0.560071 0.166991
vt 0.439929 0.166991
vt 0.560071 0.000324
vt 0.439929 0.000324
vn 0.635286 0.422792 0.646265
vn 0.635286 0.422792 0.646265
vn 0.635287 0.422789 0.646266
vn 0.635287 0.422789 0.646266
vn 0.635287 0.422794 0.646263
vn 0.635287 0.422794 0.646263
vn 0.635286 0.422796 0.646263
vn 0.635286 0.422796 0.646263
vn 0.635287 0.422796 0.646262
vn 0.635287 0.422796 0.646262
vn 0.635289 0.422791 0.646263
vn 0.635289 0.422791 0.646263
vn 0.635287 0.422789 0.646266
vn 0.635287 0.422789 0.646266
vn 0.635286 0.422792 0.646265
vn 0.635286 0.422792 0.646265
vn 0.635287 0.422789 0.646266
vn 0.635287 0.422789 0.646266
vn 0.635287 0.422794 0.646263
vn 0.635287 0.422794 0.646263
vn 0.635286 0.422796 0.646263
vn 0.635286 0.422796 0.646263
vn 0.635287 0.422796 0.646262
vn 0.635287 0.422796 0.646262
vn 0.635289 0.422791 0.646263
vn 0.635289 0.422791 0.646263
vn 0.635287 0.422789 0.646266
vn 0.635287 0.422789 0.646266
vn 0.635286 0.422792 0.646265
vn 0.635286 0.422792 0.646265
vn 0.635287 0.422789 0.646266
vn 0.635287 0.422789 0.646266
vn 0.635287 0.422794 0.646263
vn 0.635287 0.422794 0.646263
vn 0.635286 0.422796 0.646263
vn 0.635286 0.422796 0.646263
vn 0.635287 0.422796 0.646262
vn 0.635287 0.422796 0.646262
vn 0.635289 0.422791 0.646263
vn 0.635289 0.422791 0.646263
vn 0.635287 0.422789 0.646266
vn 0.635287 0.422789 0.646266
usemtl material
f 1/0/1 2/0/2 3/0/3
f 1/0/1 3/0/3 4/0/4
f 5/0/5 2/0/2 1/0/1
f 5/0/5 6/0/6 2/0/2
f 7/0/7 6/0/6 5/0/5
f 7/0/7 8/0/8 6/0/6
f 9/0/9 8/0/8 7/0/7
f 9/0/9 10/0/10 8/0/8
f 11/0/11 10/0/10 9/0/9
f 11/0/11 12/0/12 10/0/10
f 13/0/13 12/0/12 11/0/11
f 13/0/13 14/0/14 12/0/12
f 15/0/15 16/0/16 17/0/17
f 15/0/15 17/0/17 18/0/18
f 19/0/19 16/0/16 15/0/15
f 19/0/19 20/0/20 16/0/16
f 21/0/21 20/0/20 19/0/19
f 21/0/21 22/0/22 20/0/20
f 23/0/23 22/0/22 21/0/21
f 23/0/23 24/0/24 22/0/22
f 25/0/25 24/0/24 23/0/23
f 25/0/25 26/0/26 24/0/24
f 27/0/27 26/0/26 25/0/25
f 27/0/27 28/0/28 26/0/26
f 29/0/29 30/0/30 31/0/31
f 29/0/29 31/0/31 32/0/32
f 33/0/33 30/0/30 29/0/29
f 33/0/33 34/0/34 30/0/30
f 35/0/35 34/0/34 33/0/33
f 35/0/35 36/0/36 34/0/34
f 37/0/37 36/0/36 35/0/35
f 37/0/37 38/0/38 36/0/36
f 39/0/39 38/0/38 37/0/37
f 39/0/39 40/0/40 38/0/38
f 41/0/41 40/0/40 39/0/39
f 41/0/41 42/0/42 40/0/40
