# 
# Wavefront OBJ file
# Created with Kaydara FBX
# 
mtllib boss_060_eye_l_m.mtl

g Boss_060_Eye_L_m
v -0.072084 1.722142 0.125701
v -0.084916 1.720541 0.110973
v -0.079538 1.699960 0.111474
v -0.068844 1.700436 0.123423
v -0.064851 1.682707 0.120770
v -0.074326 1.681057 0.109495
v -0.057502 1.723307 0.139210
v -0.054736 1.700790 0.133702
v -0.051863 1.682133 0.127353
v -0.070863 1.667851 0.110935
v -0.061991 1.667344 0.118463
v -0.050267 1.666285 0.124240
v -0.089709 1.698876 0.091248
v -0.084683 1.679468 0.092970
v -0.040460 1.723978 0.147065
v -0.039728 1.701185 0.141224
v -0.021996 1.724403 0.152897
v -0.020372 1.701436 0.146462
v -0.028883 1.685672 0.137881
v -0.008473 1.701325 0.148995
v -0.009132 1.724564 0.154881
v -0.007916 1.685083 0.145321
v -0.017134 1.685431 0.141458
v -0.014553 1.671810 0.139562
v -0.028111 1.677089 0.135262
v -0.039350 1.680135 0.131360
v -0.039382 1.665594 0.128370
v -0.006274 1.673742 0.144547
v -0.024195 1.668716 0.134875
v -0.012138 1.661637 0.141195
v -0.027257 1.660683 0.133059
v -0.039587 1.653967 0.127856
v -0.049240 1.653463 0.123460
v -0.059782 1.655213 0.117932
v -0.021006 1.659347 0.135997
v -0.031240 1.656492 0.131583
v -0.069266 1.659074 0.111050
v -0.077205 1.654550 0.097448
v -0.081026 1.667645 0.094982
vt 0.740856 0.876644
vt 0.918740 0.860201
vt 0.849858 0.622010
vt 0.703770 0.629553
vt 0.660251 0.436347
vt 0.779048 0.418354
vt 0.571924 0.883148
vt 0.549818 0.633408
vt 0.517697 0.430094
vt 0.740942 0.274444
vt 0.629549 0.268925
vt 0.500158 0.257382
vt 1.041553 0.577874
vt 0.958459 0.382664
vt 0.390308 0.886104
vt 0.381480 0.637711
vt 0.177973 0.890739
vt 0.159051 0.640448
vt 0.257409 0.468657
vt 0.020444 0.639243
vt 0.028145 0.892499
vt 0.013937 0.462240
vt 0.121427 0.466035
vt 0.091378 0.317588
vt 0.248525 0.375118
vt 0.377085 0.408308
vt 0.377560 0.249854
vt -0.005263 0.338644
vt 0.203343 0.283871
vt 0.063228 0.206725
vt 0.238742 0.196338
vt 0.380108 0.123144
vt 0.489116 0.117656
vt 0.606054 0.136728
vt 0.166433 0.181775
vt 0.284631 0.150663
vt 0.724468 0.178797
vt 0.858890 0.120410
vt 0.914529 0.260313
vn -0.710185 -0.114719 0.694606
vn -0.857895 -0.090861 0.505728
vn -0.816513 -0.188622 0.545645
vn -0.657772 -0.201161 0.725859
vn -0.622081 -0.210302 0.754180
vn -0.786147 -0.212778 0.580257
vn -0.538892 -0.144931 0.829814
vn -0.501260 -0.228247 0.834651
vn -0.471647 -0.220279 0.853830
vn -0.776139 -0.182777 0.603491
vn -0.606150 -0.146190 0.781800
vn -0.471358 -0.128204 0.872574
vn -0.939191 -0.169868 0.298438
vn -0.910728 -0.230562 0.342660
vn -0.381806 -0.191355 0.904217
vn -0.359340 -0.255712 0.897489
vn -0.249396 -0.212967 0.944694
vn -0.279629 -0.249637 0.927086
vn -0.332617 -0.249081 0.909574
vn -0.164969 -0.219517 0.961560
vn -0.139456 -0.215020 0.966601
vn -0.206264 -0.157409 0.965752
vn -0.312032 -0.209439 0.926699
vn -0.389843 -0.092983 0.916175
vn -0.379991 -0.167610 0.909678
vn -0.377317 -0.226171 0.898042
vn -0.402881 -0.105755 0.909122
vn -0.271352 -0.021440 0.962241
vn -0.422991 -0.058481 0.904245
vn -0.464914 0.051206 0.883874
vn -0.421191 -0.017428 0.906804
vn -0.424953 0.015165 0.905088
vn -0.480326 -0.019997 0.876862
vn -0.612164 -0.073174 0.787338
vn -0.457572 0.039586 0.888291
vn -0.429962 0.053711 0.901248
vn -0.784197 -0.152777 0.601410
vn -0.905403 -0.247195 0.345167
vn -0.902465 -0.235082 0.360963
usemtl material
f 1/0/1 2/0/2 3/0/3
f 1/0/1 3/0/3 4/0/4
f 3/0/3 5/0/5 4/0/4
f 3/0/3 6/0/6 5/0/5
f 7/0/7 1/0/1 4/0/4
f 7/0/7 4/0/4 8/0/8
f 4/0/4 5/0/5 9/0/9
f 4/0/4 9/0/9 8/0/8
f 10/0/10 5/0/5 6/0/6
f 10/0/10 11/0/11 5/0/5
f 11/0/11 9/0/9 5/0/5
f 11/0/11 12/0/12 9/0/9
f 6/0/6 3/0/3 13/0/13
f 6/0/6 13/0/13 14/0/14
f 15/0/15 7/0/7 8/0/8
f 15/0/15 8/0/8 16/0/16
f 17/0/17 15/0/15 16/0/16
f 17/0/17 16/0/16 18/0/18
f 18/0/18 16/0/16 19/0/19
f 17/0/17 18/0/18 20/0/20
f 17/0/17 20/0/20 21/0/21
f 18/0/18 22/0/22 20/0/20
f 18/0/18 23/0/23 22/0/22
f 18/0/18 19/0/19 23/0/23
f 19/0/19 24/0/24 23/0/23
f 24/0/24 22/0/22 23/0/23
f 19/0/19 25/0/25 24/0/24
f 26/0/26 25/0/25 19/0/19
f 16/0/16 26/0/26 19/0/19
f 25/0/25 26/0/26 27/0/27
f 24/0/24 28/0/28 22/0/22
f 29/0/29 24/0/24 25/0/25
f 27/0/27 29/0/29 25/0/25
f 29/0/29 30/0/30 24/0/24
f 27/0/27 31/0/31 29/0/29
f 8/0/8 26/0/26 16/0/16
f 8/0/8 9/0/9 26/0/26
f 9/0/9 27/0/27 26/0/26
f 9/0/9 12/0/12 27/0/27
f 32/0/32 27/0/27 12/0/12
f 31/0/31 27/0/27 32/0/32
f 32/0/32 12/0/12 33/0/33
f 34/0/34 33/0/33 12/0/12
f 34/0/34 12/0/12 11/0/11
f 35/0/35 30/0/30 29/0/29
f 31/0/31 35/0/35 29/0/29
f 36/0/36 35/0/35 31/0/31
f 31/0/31 32/0/32 36/0/36
f 11/0/11 37/0/37 34/0/34
f 11/0/11 10/0/10 37/0/37
f 38/0/38 37/0/37 10/0/10
f 38/0/38 10/0/10 39/0/39
f 39/0/39 10/0/10 6/0/6
f 39/0/39 6/0/6 14/0/14
