# 
# Wavefront OBJ file
# Created with Kaydara FBX
# 
mtllib box001 #220140.mtl

g Box001
v 0.113161 -0.157706 -0.075258
v 0.166310 -0.252180 0.075258
v -0.166310 -0.252180 0.075258
v -0.113161 -0.157706 -0.075258
v -0.113161 -0.157706 -0.075258
v -0.166310 -0.252180 0.075258
v -0.166310 0.252180 0.075258
v -0.113161 0.157706 -0.075258
v -0.113161 0.157706 -0.075258
v -0.166310 0.252180 0.075258
v 0.166310 0.252180 0.075258
v 0.113161 0.157706 -0.075258
v 0.113161 0.157706 -0.075258
v 0.166310 0.252180 0.075258
v 0.166310 -0.252180 0.075258
v 0.113161 -0.157706 -0.075258
vt 0.000000 0.000000
vt 0.000000 1.000000
vt 1.000000 1.000000
vt 1.000000 0.000000
vt 0.000000 0.000000
vt 0.000000 1.000000
vt 1.000000 1.000000
vt 1.000000 0.000000
vt 0.000000 0.000000
vt 0.000000 1.000000
vt 1.000000 1.000000
vt 1.000000 0.000000
vt 0.000000 0.000000
vt 0.000000 1.000000
vt 1.000000 1.000000
vt 1.000000 0.000000
vn 0.000000 -0.846980 -0.531625
vn 0.000000 -0.846980 -0.531625
vn 0.000000 -0.846980 -0.531625
vn 0.000000 -0.846980 -0.531625
vn -0.942939 0.000000 -0.332964
vn -0.942939 0.000000 -0.332964
vn -0.942939 0.000000 -0.332964
vn -0.942939 0.000000 -0.332964
vn 0.000000 0.846980 -0.531625
vn 0.000000 0.846980 -0.531625
vn 0.000000 0.846980 -0.531625
vn 0.000000 0.846980 -0.531625
vn 0.942939 0.000000 -0.332964
vn 0.942939 0.000000 -0.332964
vn 0.942939 0.000000 -0.332964
vn 0.942939 0.000000 -0.332964
usemtl material
f 1/0/1 2/0/2 3/0/3
f 1/0/1 3/0/3 4/0/4
f 5/0/5 6/0/6 7/0/7
f 5/0/5 7/0/7 8/0/8
f 9/0/9 10/0/10 11/0/11
f 9/0/9 11/0/11 12/0/12
f 13/0/13 14/0/14 15/0/15
f 13/0/13 15/0/15 16/0/16
