# 
# Wavefront OBJ file
# Created with Kaydara FBX
# 
mtllib box001 #223460.mtl

g Box001
v -0.203696 -0.203696 0.002394
v 0.203696 -0.203696 -0.002394
v 0.203696 -0.203696 0.002394
v -0.203696 -0.203696 -0.002394
v -0.203696 0.203696 0.002394
v -0.203696 -0.203696 -0.002394
v -0.203696 -0.203696 0.002394
v -0.203696 0.203696 -0.002394
v 0.203696 0.203696 0.002394
v -0.203696 0.203696 -0.002394
v -0.203696 0.203696 0.002394
v 0.203696 0.203696 -0.002394
v 0.203696 -0.203696 0.002394
v 0.203696 0.203696 -0.002394
v 0.203696 0.203696 0.002394
v 0.203696 -0.203696 -0.002394
v 0.189184 -0.189184 0.002390
v 0.203696 0.203696 0.002394
v 0.189184 0.189184 0.002390
v 0.203696 -0.203696 0.002394
v -0.203696 -0.203696 0.002394
v -0.189184 -0.189184 0.002390
v -0.203696 0.203696 0.002394
v -0.189184 0.189184 0.002390
v -0.189184 0.189184 -0.002390
v 0.203696 0.203696 -0.002394
v 0.189184 0.189184 -0.002390
v -0.203696 0.203696 -0.002394
v -0.189184 -0.189184 -0.002390
v -0.203696 -0.203696 -0.002394
v 0.189184 -0.189184 -0.002390
v 0.203696 -0.203696 -0.002394
v -0.189184 0.189184 -0.002390
v 0.189184 0.189184 0.002390
v -0.189184 0.189184 0.002390
v 0.189184 0.189184 -0.002390
v 0.189184 0.189184 -0.002390
v 0.189184 -0.189184 0.002390
v 0.189184 0.189184 0.002390
v 0.189184 -0.189184 -0.002390
v -0.189184 -0.189184 -0.002390
v 0.189184 -0.189184 0.002390
v 0.189184 -0.189184 -0.002390
v -0.189184 -0.189184 0.002390
v -0.189184 0.189184 -0.002390
v -0.189184 -0.189184 0.002390
v -0.189184 -0.189184 -0.002390
v -0.189184 0.189184 0.002390
vt 1.000000 1.000000
vt 0.000000 0.000000
vt 0.000000 1.000000
vt 1.000000 0.000000
vt 1.000000 1.000000
vt 0.000000 0.000000
vt 0.000000 1.000000
vt 1.000000 0.000000
vt 1.000000 1.000000
vt 0.000000 0.000000
vt 0.000000 1.000000
vt 1.000000 0.000000
vt 1.000000 1.000000
vt 0.000000 0.000000
vt 0.000000 1.000000
vt 1.000000 0.000000
vt 0.131805 0.131805
vt 0.000000 1.000000
vt 0.131805 0.868195
vt 0.000000 0.000000
vt 1.000000 0.000000
vt 0.868195 0.131805
vt 1.000000 1.000000
vt 0.868195 0.868195
vt 0.131805 0.868195
vt 1.000000 1.000000
vt 0.868195 0.868195
vt 0.000000 1.000000
vt 0.131805 0.131805
vt 0.000000 0.000000
vt 0.868195 0.131805
vt 1.000000 0.000000
vt 0.000000 0.456865
vt 1.000000 0.567322
vt 0.000000 0.567322
vt 1.000000 0.456865
vt 0.000000 0.456865
vt 1.000000 0.567321
vt 0.000000 0.567322
vt 1.000000 0.456864
vt 1.000000 0.456864
vt 0.000000 0.567321
vt 0.000000 0.456864
vt 1.000000 0.567321
vt 1.000000 0.456865
vt 0.000000 0.567321
vt 0.000000 0.456864
vt 1.000000 0.567322
vn 0.000000 -1.000000 0.000000
vn 0.000000 -1.000000 0.000000
vn 0.000000 -1.000000 0.000000
vn 0.000000 -1.000000 0.000000
vn -1.000000 0.000000 0.000000
vn -1.000000 0.000000 0.000000
vn -1.000000 0.000000 0.000000
vn -1.000000 0.000000 0.000000
vn 0.000000 1.000000 0.000000
vn 0.000000 1.000000 0.000000
vn 0.000000 1.000000 0.000000
vn 0.000000 1.000000 0.000000
vn 1.000000 0.000000 0.000000
vn 1.000000 0.000000 0.000000
vn 1.000000 0.000000 0.000000
vn 1.000000 0.000000 0.000000
vn -0.000125 0.000125 1.000000
vn -0.000125 -0.000125 1.000000
vn -0.000125 -0.000125 1.000000
vn -0.000125 0.000125 1.000000
vn 0.000125 0.000125 1.000000
vn 0.000125 0.000125 1.000000
vn 0.000125 -0.000125 1.000000
vn 0.000125 -0.000125 1.000000
vn 0.000125 -0.000125 -1.000000
vn -0.000125 -0.000125 -1.000000
vn -0.000125 -0.000125 -1.000000
vn 0.000125 -0.000125 -1.000000
vn 0.000125 0.000125 -1.000000
vn 0.000125 0.000125 -1.000000
vn -0.000125 0.000125 -1.000000
vn -0.000125 0.000125 -1.000000
vn 0.000000 -1.000000 0.000000
vn 0.000000 -1.000000 0.000000
vn 0.000000 -1.000000 0.000000
vn 0.000000 -1.000000 0.000000
vn -1.000000 0.000000 0.000000
vn -1.000000 0.000000 0.000000
vn -1.000000 0.000000 0.000000
vn -1.000000 0.000000 0.000000
vn 0.000000 1.000000 0.000000
vn 0.000000 1.000000 0.000000
vn 0.000000 1.000000 0.000000
vn 0.000000 1.000000 0.000000
vn 1.000000 0.000000 0.000000
vn 1.000000 0.000000 0.000000
vn 1.000000 0.000000 0.000000
vn 1.000000 0.000000 0.000000
usemtl material
f 1/0/1 2/0/2 3/0/3
f 2/0/2 1/0/1 4/0/4
f 5/0/5 6/0/6 7/0/7
f 6/0/6 5/0/5 8/0/8
f 9/0/9 10/0/10 11/0/11
f 10/0/10 9/0/9 12/0/12
f 13/0/13 14/0/14 15/0/15
f 14/0/14 13/0/13 16/0/16
f 17/0/17 18/0/18 19/0/19
f 17/0/17 20/0/20 18/0/18
f 17/0/17 21/0/21 20/0/20
f 22/0/22 21/0/21 17/0/17
f 22/0/22 23/0/23 21/0/21
f 24/0/24 23/0/23 22/0/22
f 24/0/24 18/0/18 23/0/23
f 24/0/24 19/0/19 18/0/18
f 25/0/25 26/0/26 27/0/27
f 25/0/25 28/0/28 26/0/26
f 29/0/29 28/0/28 25/0/25
f 29/0/29 30/0/30 28/0/28
f 31/0/31 30/0/30 29/0/29
f 31/0/31 27/0/27 26/0/26
f 31/0/31 32/0/32 30/0/30
f 31/0/31 26/0/26 32/0/32
f 33/0/33 34/0/34 35/0/35
f 34/0/34 33/0/33 36/0/36
f 37/0/37 38/0/38 39/0/39
f 38/0/38 37/0/37 40/0/40
f 41/0/41 42/0/42 43/0/43
f 42/0/42 41/0/41 44/0/44
f 45/0/45 46/0/46 47/0/47
f 46/0/46 45/0/45 48/0/48
