# 
# Wavefront OBJ file
# Created with Kaydara FBX
# 
mtllib box001 #223450.mtl

g Box001
v 0.150000 -0.150000 -0.150000
v -0.150000 0.150000 -0.150000
v 0.150000 0.150000 -0.150000
v -0.150000 -0.150000 -0.150000
v 0.150000 -0.150000 0.150000
v -0.150000 0.150000 0.150000
v -0.150000 -0.150000 0.150000
v 0.150000 0.150000 0.150000
v 0.150000 -0.150000 -0.150000
v -0.150000 -0.150000 0.150000
v -0.150000 -0.150000 -0.150000
v 0.150000 -0.150000 0.150000
v -0.150000 -0.150000 -0.150000
v -0.150000 0.150000 0.150000
v -0.150000 0.150000 -0.150000
v -0.150000 -0.150000 0.150000
v -0.150000 0.150000 -0.150000
v 0.150000 0.150000 0.150000
v 0.150000 0.150000 -0.150000
v -0.150000 0.150000 0.150000
v 0.150000 0.150000 -0.150000
v 0.150000 -0.150000 0.150000
v 0.150000 -0.150000 -0.150000
v 0.150000 0.150000 0.150000
vt 1.000000 0.000000
vt 0.000000 1.000000
vt 1.000000 1.000000
vt 0.000000 0.000000
vt 0.000000 0.000000
vt 1.000000 1.000000
vt 1.000000 0.000000
vt 0.000000 1.000000
vt 0.000000 0.000000
vt 1.000000 1.000000
vt 1.000000 0.000000
vt 0.000000 1.000000
vt 0.000000 0.000000
vt 1.000000 1.000000
vt 1.000000 0.000000
vt 0.000000 1.000000
vt 0.000000 0.000000
vt 1.000000 1.000000
vt 1.000000 0.000000
vt 0.000000 1.000000
vt 0.000000 0.000000
vt 1.000000 1.000000
vt 1.000000 0.000000
vt 0.000000 1.000000
vn 0.000000 0.000000 -1.000000
vn 0.000000 0.000000 -1.000000
vn 0.000000 0.000000 -1.000000
vn 0.000000 0.000000 -1.000000
vn 0.000000 0.000000 1.000000
vn 0.000000 0.000000 1.000000
vn 0.000000 0.000000 1.000000
vn 0.000000 0.000000 1.000000
vn 0.000000 -1.000000 0.000000
vn 0.000000 -1.000000 0.000000
vn 0.000000 -1.000000 0.000000
vn 0.000000 -1.000000 0.000000
vn -1.000000 0.000000 0.000000
vn -1.000000 0.000000 0.000000
vn -1.000000 0.000000 0.000000
vn -1.000000 0.000000 0.000000
vn 0.000000 1.000000 0.000000
vn 0.000000 1.000000 0.000000
vn 0.000000 1.000000 0.000000
vn 0.000000 1.000000 0.000000
vn 1.000000 0.000000 0.000000
vn 1.000000 0.000000 0.000000
vn 1.000000 0.000000 0.000000
vn 1.000000 0.000000 0.000000
usemtl material
f 1/0/1 2/0/2 3/0/3
f 2/0/2 1/0/1 4/0/4
f 5/0/5 6/0/6 7/0/7
f 6/0/6 5/0/5 8/0/8
f 9/0/9 10/0/10 11/0/11
f 10/0/10 9/0/9 12/0/12
f 13/0/13 14/0/14 15/0/15
f 14/0/14 13/0/13 16/0/16
f 17/0/17 18/0/18 19/0/19
f 18/0/18 17/0/17 20/0/20
f 21/0/21 22/0/22 23/0/23
f 22/0/22 21/0/21 24/0/24
