# 
# Wavefront OBJ file
# Created with Kaydara FBX
# 
mtllib box_01 #216500.mtl

g Box_01
v -0.582683 0.133080 0.061277
v -0.583634 0.002069 0.060679
v -0.000338 0.002069 0.060679
v -0.000338 0.133080 0.061277
v 0.582693 0.133080 0.061277
v 0.583644 0.002069 0.060679
v -0.597581 0.002074 0.000002
v -0.000340 0.002074 0.000002
v -0.000338 0.002069 0.060679
v -0.583634 0.002069 0.060679
v 0.583644 0.002069 0.060679
v 0.597591 0.002074 0.000002
v 0.633914 0.002074 0.043645
v 0.583644 0.002069 0.060679
v -0.633904 0.002074 0.043645
v -0.583634 0.002069 0.060679
v 0.633914 0.002074 0.043645
v 0.583644 0.002069 0.462837
v 0.633914 0.002074 0.462837
v 0.633914 0.002073 0.882030
v 0.583644 0.002069 0.864995
v -0.633904 0.002074 0.462837
v -0.633904 0.002074 0.043645
v -0.583634 0.002069 0.462837
v -0.583634 0.002069 0.864995
v -0.633904 0.002073 0.882030
v -0.597581 0.002073 0.925672
v -0.000338 0.002069 0.864995
v -0.000340 0.002073 0.925672
v 0.597591 0.002073 0.925672
v 0.583644 0.002069 0.864995
v 0.633914 0.002073 0.882030
v -0.633904 0.002073 0.882030
v -0.583634 0.002069 0.864995
v -0.595677 0.133288 0.000002
v -0.597581 0.002074 0.000002
v -0.633904 0.002074 0.043645
v -0.633904 0.133288 0.044841
v 0.633914 0.002074 0.462837
v 0.633914 0.002074 0.043645
v 0.633914 0.133288 0.044841
v 0.633914 0.133288 0.462837
v 0.633914 0.133288 0.880833
v 0.633914 0.002073 0.882030
v 0.582693 0.133080 0.061277
v 0.583644 0.002069 0.060679
v 0.583644 0.002069 0.462837
v 0.582693 0.133080 0.462837
v 0.582693 0.133080 0.864397
v 0.583644 0.002069 0.864995
v -0.582683 0.133080 0.462837
v -0.582683 0.133080 0.061277
v -0.000338 0.133080 0.061277
v -0.000338 0.133080 0.462837
v 0.582693 0.133080 0.462837
v 0.582693 0.133080 0.061277
v -0.000338 0.133080 0.864397
v -0.582683 0.133080 0.864397
v 0.582693 0.133080 0.864397
v -0.583634 0.002069 0.462837
v -0.583634 0.002069 0.060679
v -0.582683 0.133080 0.061277
v -0.582683 0.133080 0.462837
v -0.633904 0.133288 0.044841
v -0.633904 0.002074 0.043645
v -0.633904 0.002074 0.462837
v -0.633904 0.133288 0.462837
v -0.633904 0.133288 0.880833
v -0.633904 0.002073 0.882030
v -0.535927 0.184605 0.054542
v -0.000331 0.184605 0.054542
v -0.000340 0.133288 0.000002
v -0.595677 0.133288 0.000002
v 0.535937 0.184605 0.054542
v 0.595687 0.133288 0.000002
v -0.535927 0.184605 0.054542
v -0.595677 0.133288 0.000002
v -0.633904 0.133288 0.044841
v -0.572251 0.184605 0.098184
v 0.535937 0.184605 0.054542
v 0.572261 0.184605 0.098184
v 0.633914 0.133288 0.044841
v 0.595687 0.133288 0.000002
v -0.000340 0.002074 0.000002
v -0.597581 0.002074 0.000002
v -0.595677 0.133288 0.000002
v -0.000340 0.133288 0.000002
v 0.595687 0.133288 0.000002
v 0.597591 0.002074 0.000002
v 0.633914 0.133288 0.044841
v 0.633914 0.002074 0.043645
v 0.597591 0.002074 0.000002
v 0.595687 0.133288 0.000002
v 0.572261 0.184605 0.098184
v 0.572261 0.184605 0.462837
v 0.633914 0.133288 0.462837
v 0.633914 0.133288 0.044841
v 0.572261 0.184605 0.827490
v 0.633914 0.133288 0.880833
v -0.572251 0.184605 0.098184
v -0.633904 0.133288 0.044841
v -0.633904 0.133288 0.462837
v -0.572251 0.184605 0.462837
v -0.572251 0.184605 0.827490
v -0.633904 0.133288 0.880833
v -0.000331 0.184605 0.462837
v -0.000331 0.184605 0.054542
v -0.535927 0.184605 0.054542
v -0.572251 0.184605 0.098184
v -0.572251 0.184605 0.462837
v 0.572261 0.184605 0.098184
v 0.535937 0.184605 0.054542
v 0.572261 0.184605 0.462837
v -0.000331 0.184605 0.871133
v -0.572251 0.184605 0.827490
v -0.535927 0.184605 0.871133
v 0.572261 0.184605 0.827490
v 0.535937 0.184605 0.871133
v -0.582683 0.133080 0.864397
v -0.000338 0.133080 0.864397
v -0.000338 0.002069 0.864995
v -0.583634 0.002069 0.864995
v 0.582693 0.133080 0.864397
v 0.583644 0.002069 0.864995
v -0.595677 0.133288 0.925672
v -0.633904 0.133288 0.880833
v -0.633904 0.002073 0.882030
v -0.597581 0.002073 0.925672
v -0.583634 0.002069 0.462837
v -0.582683 0.133080 0.462837
v -0.582683 0.133080 0.864397
v -0.583634 0.002069 0.864995
v -0.535927 0.184605 0.871133
v -0.595677 0.133288 0.925672
v -0.000340 0.133288 0.925672
v -0.000331 0.184605 0.871133
v 0.535937 0.184605 0.871133
v 0.595687 0.133288 0.925672
v -0.535927 0.184605 0.871133
v -0.572251 0.184605 0.827490
v -0.633904 0.133288 0.880833
v -0.595677 0.133288 0.925672
v 0.535937 0.184605 0.871133
v 0.595687 0.133288 0.925672
v 0.633914 0.133288 0.880833
v 0.572261 0.184605 0.827490
v -0.000340 0.002073 0.925672
v -0.000340 0.133288 0.925672
v -0.595677 0.133288 0.925672
v -0.597581 0.002073 0.925672
v 0.595687 0.133288 0.925672
v 0.597591 0.002073 0.925672
v 0.633914 0.133288 0.880833
v 0.595687 0.133288 0.925672
v 0.597591 0.002073 0.925672
v 0.633914 0.002073 0.882030
vt 0.415562 0.602923
vt 0.415562 0.640709
vt 0.369279 0.640709
vt 0.369279 0.602923
vt 0.415562 0.602923
vt 0.415562 0.640709
vt 0.227895 0.520435
vt 0.389641 0.520435
vt 0.389641 0.531676
vt 0.231594 0.531676
vt 0.231594 0.531676
vt 0.227895 0.520435
vt 0.212947 0.520435
vt 0.221597 0.531676
vt 0.212947 0.520435
vt 0.221597 0.531676
vt 0.227895 0.520435
vt 0.340618 0.531676
vt 0.340618 0.520435
vt 0.227895 0.520435
vt 0.231594 0.531676
vt 0.340618 0.520435
vt 0.227895 0.520435
vt 0.340618 0.531676
vt 0.231594 0.531676
vt 0.227895 0.520435
vt 0.227895 0.520435
vt 0.389641 0.531676
vt 0.389641 0.520435
vt 0.227895 0.520435
vt 0.221597 0.531676
vt 0.212947 0.520435
vt 0.212947 0.520435
vt 0.221597 0.531676
vt 0.227895 0.484158
vt 0.227895 0.520435
vt 0.212947 0.520435
vt 0.212947 0.484159
vt 0.340618 0.520435
vt 0.227895 0.520435
vt 0.227895 0.484159
vt 0.340618 0.484159
vt 0.227895 0.484159
vt 0.227895 0.520435
vt 0.418986 0.602923
vt 0.418986 0.640709
vt 0.376761 0.640709
vt 0.376761 0.602923
vt 0.412138 0.602923
vt 0.412138 0.640709
vt 0.418986 0.538887
vt 0.418986 0.567315
vt 0.369279 0.567315
vt 0.369279 0.538887
vt 0.418986 0.538887
vt 0.418986 0.567315
vt 0.369279 0.567315
vt 0.418644 0.567315
vt 0.418644 0.567315
vt 0.403125 0.640709
vt 0.410769 0.640709
vt 0.410769 0.602923
vt 0.403125 0.602923
vt 0.227895 0.484159
vt 0.227895 0.520435
vt 0.340618 0.520435
vt 0.340618 0.484158
vt 0.227895 0.484159
vt 0.227895 0.520435
vt 0.242614 0.463550
vt 0.389641 0.463550
vt 0.389641 0.484159
vt 0.227895 0.484159
vt 0.242614 0.463550
vt 0.227895 0.484159
vt 0.242614 0.463550
vt 0.227895 0.484158
vt 0.212947 0.484159
vt 0.226803 0.463550
vt 0.242614 0.463550
vt 0.226803 0.463550
vt 0.212947 0.484159
vt 0.227895 0.484159
vt 0.389641 0.520435
vt 0.227895 0.520435
vt 0.227895 0.484159
vt 0.389641 0.484159
vt 0.227895 0.484159
vt 0.227895 0.520435
vt 0.212947 0.484159
vt 0.212947 0.520435
vt 0.227895 0.520435
vt 0.227895 0.484159
vt 0.242614 0.463550
vt 0.340618 0.463550
vt 0.340618 0.484159
vt 0.227895 0.484159
vt 0.242614 0.463550
vt 0.227895 0.484159
vt 0.242614 0.463550
vt 0.227895 0.484159
vt 0.340618 0.484158
vt 0.340618 0.463550
vt 0.242614 0.463550
vt 0.227895 0.484159
vt 0.214550 0.538264
vt 0.214550 0.644012
vt 0.354745 0.644011
vt 0.364252 0.632588
vt 0.364253 0.538263
vt 0.364252 0.632587
vt 0.354745 0.644011
vt 0.364253 0.538263
vt 0.214550 0.644012
vt 0.364252 0.632588
vt 0.354745 0.644011
vt 0.364252 0.632587
vt 0.354745 0.644011
vt 0.469316 0.602923
vt 0.369279 0.602923
vt 0.369279 0.640709
vt 0.469316 0.640709
vt 0.469316 0.602923
vt 0.469316 0.640709
vt 0.227895 0.484158
vt 0.212947 0.484159
vt 0.212947 0.520435
vt 0.227895 0.520435
vt 0.377104 0.640709
vt 0.377104 0.602923
vt 0.410769 0.602923
vt 0.410769 0.640709
vt 0.242614 0.463550
vt 0.227895 0.484159
vt 0.389641 0.484159
vt 0.389641 0.463550
vt 0.242614 0.463550
vt 0.227895 0.484159
vt 0.242614 0.463550
vt 0.226803 0.463550
vt 0.212947 0.484159
vt 0.227895 0.484158
vt 0.242614 0.463550
vt 0.227895 0.484159
vt 0.212947 0.484159
vt 0.226803 0.463550
vt 0.389641 0.520435
vt 0.389641 0.484159
vt 0.227895 0.484159
vt 0.227895 0.520435
vt 0.227895 0.484159
vt 0.227895 0.520435
vt 0.212947 0.484159
vt 0.227895 0.484159
vt 0.227895 0.520435
vt 0.212947 0.520435
vn 0.000000 -0.004566 0.999990
vn 0.000000 -0.004566 0.999990
vn 0.000000 -0.004566 0.999990
vn 0.000000 -0.004566 0.999990
vn 0.000000 -0.004566 0.999990
vn 0.000000 -0.004566 0.999990
vn -0.000002 -1.000000 -0.000081
vn 0.000000 -1.000000 -0.000082
vn 0.000000 -1.000000 -0.000082
vn -0.000038 -1.000000 -0.000051
vn 0.000038 -1.000000 -0.000051
vn 0.000002 -1.000000 -0.000081
vn 0.000097 -1.000000 -0.000004
vn 0.000038 -1.000000 -0.000051
vn -0.000097 -1.000000 -0.000004
vn -0.000038 -1.000000 -0.000051
vn 0.000097 -1.000000 -0.000004
vn 0.000099 -1.000000 0.000000
vn 0.000099 -1.000000 0.000000
vn 0.000097 -1.000000 0.000004
vn 0.000038 -1.000000 0.000051
vn -0.000099 -1.000000 0.000000
vn -0.000097 -1.000000 -0.000004
vn -0.000099 -1.000000 0.000000
vn -0.000038 -1.000000 0.000050
vn -0.000097 -1.000000 0.000004
vn -0.000002 -1.000000 0.000080
vn 0.000000 -1.000000 0.000081
vn 0.000000 -1.000000 0.000081
vn 0.000002 -1.000000 0.000081
vn 0.000038 -1.000000 0.000051
vn 0.000097 -1.000000 0.000004
vn -0.000097 -1.000000 0.000004
vn -0.000038 -1.000000 0.000050
vn -0.764709 0.008484 -0.644319
vn -0.764709 0.008484 -0.644319
vn -0.764709 0.008484 -0.644319
vn -0.764709 0.008484 -0.644319
vn 1.000000 0.000000 0.000000
vn 1.000000 0.000000 0.000000
vn 1.000000 0.000000 0.000000
vn 1.000000 0.000000 0.000000
vn 1.000000 0.000000 0.000000
vn 1.000000 0.000000 0.000000
vn -0.999974 -0.007265 0.000000
vn -0.999974 -0.007265 0.000000
vn -0.999974 -0.007265 0.000000
vn -0.999974 -0.007265 0.000000
vn -0.999974 -0.007264 0.000000
vn -0.999974 -0.007264 0.000000
vn 0.000000 -1.000000 -0.000000
vn 0.000000 -1.000000 -0.000000
vn 0.000000 -1.000000 -0.000000
vn 0.000000 -1.000000 -0.000000
vn 0.000000 -1.000000 -0.000000
vn 0.000000 -1.000000 -0.000000
vn 0.000000 -1.000000 0.000000
vn 0.000000 -1.000000 0.000000
vn 0.000000 -1.000000 0.000000
vn 0.999974 -0.007265 0.000000
vn 0.999974 -0.007265 0.000000
vn 0.999974 -0.007265 0.000000
vn 0.999974 -0.007265 0.000000
vn -1.000000 -0.000000 0.000000
vn -1.000000 -0.000000 0.000000
vn -1.000000 -0.000000 0.000000
vn -1.000000 -0.000000 0.000000
vn -1.000000 0.000000 0.000000
vn -1.000000 0.000000 0.000000
vn 0.000000 0.728292 -0.685267
vn 0.000000 0.728292 -0.685266
vn 0.000000 0.728292 -0.685266
vn 0.000000 0.728292 -0.685267
vn 0.000000 0.728293 -0.685266
vn 0.000000 0.728293 -0.685266
vn -0.408634 0.845266 -0.344301
vn -0.408634 0.845266 -0.344301
vn -0.597893 0.797842 -0.077275
vn -0.619148 0.784291 -0.039293
vn 0.408634 0.845266 -0.344301
vn 0.619148 0.784290 -0.039293
vn 0.597893 0.797842 -0.077275
vn 0.408634 0.845266 -0.344301
vn 0.000000 0.000000 -1.000000
vn 0.000000 0.000000 -1.000000
vn 0.000000 0.000000 -1.000000
vn 0.000000 0.000000 -1.000000
vn 0.000000 0.000000 -1.000000
vn 0.000000 0.000000 -1.000000
vn 0.764709 0.008484 -0.644319
vn 0.764709 0.008484 -0.644319
vn 0.764709 0.008484 -0.644320
vn 0.764709 0.008484 -0.644319
vn 0.619148 0.784290 -0.039293
vn 0.639740 0.768592 0.000000
vn 0.639740 0.768592 0.000000
vn 0.597893 0.797842 -0.077275
vn 0.619149 0.784290 0.039293
vn 0.597894 0.797842 0.077275
vn -0.619148 0.784291 -0.039293
vn -0.597893 0.797842 -0.077275
vn -0.639739 0.768592 0.000000
vn -0.639739 0.768592 0.000000
vn -0.619148 0.784290 0.039293
vn -0.597894 0.797842 0.077275
vn 0.000000 1.000000 -0.000000
vn 0.000000 1.000000 -0.000000
vn 0.000000 1.000000 -0.000000
vn 0.000000 1.000000 -0.000000
vn 0.000000 1.000000 -0.000000
vn 0.000000 1.000000 -0.000000
vn 0.000000 1.000000 -0.000000
vn 0.000000 1.000000 -0.000000
vn 0.000000 1.000000 0.000000
vn 0.000000 1.000000 0.000000
vn 0.000000 1.000000 0.000000
vn 0.000000 1.000000 0.000000
vn 0.000000 1.000000 0.000000
vn 0.000000 -0.004566 -0.999990
vn 0.000000 -0.004566 -0.999990
vn 0.000000 -0.004566 -0.999990
vn 0.000000 -0.004566 -0.999990
vn 0.000000 -0.004566 -0.999990
vn 0.000000 -0.004566 -0.999990
vn -0.764710 0.008484 0.644318
vn -0.764710 0.008484 0.644318
vn -0.764711 0.008484 0.644318
vn -0.764710 0.008484 0.644318
vn 0.999974 -0.007265 0.000000
vn 0.999974 -0.007265 0.000000
vn 0.999974 -0.007265 0.000000
vn 0.999974 -0.007265 0.000000
vn 0.000000 0.728292 0.685267
vn 0.000000 0.728292 0.685267
vn 0.000000 0.728292 0.685267
vn 0.000000 0.728292 0.685267
vn 0.000000 0.728292 0.685267
vn 0.000000 0.728292 0.685267
vn -0.408636 0.845266 0.344300
vn -0.619148 0.784290 0.039293
vn -0.597894 0.797842 0.077275
vn -0.408636 0.845266 0.344300
vn 0.408636 0.845265 0.344301
vn 0.408636 0.845265 0.344301
vn 0.597894 0.797842 0.077275
vn 0.619149 0.784290 0.039293
vn 0.000000 0.000000 1.000000
vn 0.000000 0.000000 1.000000
vn 0.000000 0.000000 1.000000
vn 0.000000 0.000000 1.000000
vn 0.000000 0.000000 1.000000
vn 0.000000 0.000000 1.000000
vn 0.764710 0.008485 0.644318
vn 0.764710 0.008485 0.644318
vn 0.764710 0.008485 0.644318
vn 0.764710 0.008485 0.644318
usemtl material
f 1/0/1 2/0/2 3/0/3
f 1/0/1 3/0/3 4/0/4
f 3/0/3 5/0/5 4/0/4
f 3/0/3 6/0/6 5/0/5
f 7/0/7 8/0/8 9/0/9
f 7/0/7 9/0/9 10/0/10
f 8/0/8 11/0/11 9/0/9
f 8/0/8 12/0/12 11/0/11
f 12/0/12 13/0/13 14/0/14
f 15/0/15 7/0/7 16/0/16
f 17/0/17 18/0/18 11/0/11
f 17/0/17 19/0/19 18/0/18
f 20/0/20 18/0/18 19/0/19
f 20/0/20 21/0/21 18/0/18
f 22/0/22 23/0/23 10/0/10
f 22/0/22 10/0/10 24/0/24
f 22/0/22 24/0/24 25/0/25
f 22/0/22 25/0/25 26/0/26
f 27/0/27 25/0/25 28/0/28
f 27/0/27 28/0/28 29/0/29
f 29/0/29 28/0/28 21/0/21
f 29/0/29 21/0/21 30/0/30
f 30/0/30 31/0/31 32/0/32
f 33/0/33 34/0/34 27/0/27
f 35/0/35 36/0/36 37/0/37
f 35/0/35 37/0/37 38/0/38
f 39/0/39 40/0/40 41/0/41
f 39/0/39 41/0/41 42/0/42
f 39/0/39 42/0/42 43/0/43
f 39/0/39 43/0/43 44/0/44
f 45/0/45 46/0/46 47/0/47
f 45/0/45 47/0/47 48/0/48
f 49/0/49 48/0/48 47/0/47
f 49/0/49 47/0/47 50/0/50
f 51/0/51 52/0/52 53/0/53
f 51/0/51 53/0/53 54/0/54
f 53/0/53 55/0/55 54/0/54
f 53/0/53 56/0/56 55/0/55
f 51/0/51 54/0/54 57/0/57
f 57/0/57 54/0/54 55/0/55
f 51/0/51 57/0/57 58/0/58
f 57/0/57 55/0/55 59/0/59
f 60/0/60 61/0/61 62/0/62
f 60/0/60 62/0/62 63/0/63
f 64/0/64 65/0/65 66/0/66
f 64/0/64 66/0/66 67/0/67
f 68/0/68 67/0/67 66/0/66
f 68/0/68 66/0/66 69/0/69
f 70/0/70 71/0/71 72/0/72
f 70/0/70 72/0/72 73/0/73
f 74/0/74 72/0/72 71/0/71
f 74/0/74 75/0/75 72/0/72
f 76/0/76 77/0/77 78/0/78
f 76/0/76 78/0/78 79/0/79
f 80/0/80 81/0/81 82/0/82
f 80/0/80 82/0/82 83/0/83
f 84/0/84 85/0/85 86/0/86
f 84/0/84 86/0/86 87/0/87
f 88/0/88 84/0/84 87/0/87
f 88/0/88 89/0/89 84/0/84
f 90/0/90 91/0/91 92/0/92
f 90/0/90 92/0/92 93/0/93
f 94/0/94 95/0/95 96/0/96
f 94/0/94 96/0/96 97/0/97
f 98/0/98 96/0/96 95/0/95
f 98/0/98 99/0/99 96/0/96
f 100/0/100 101/0/101 102/0/102
f 100/0/100 102/0/102 103/0/103
f 104/0/104 103/0/103 102/0/102
f 104/0/104 102/0/102 105/0/105
f 106/0/106 107/0/107 108/0/108
f 108/0/108 109/0/109 106/0/106
f 109/0/109 110/0/110 106/0/106
f 107/0/107 106/0/106 111/0/111
f 111/0/111 112/0/112 107/0/107
f 106/0/106 113/0/113 111/0/111
f 114/0/114 106/0/106 110/0/110
f 110/0/110 115/0/115 114/0/114
f 115/0/115 116/0/116 114/0/114
f 117/0/117 113/0/113 106/0/106
f 106/0/106 114/0/114 117/0/117
f 114/0/114 118/0/118 117/0/117
f 119/0/119 120/0/120 121/0/121
f 119/0/119 121/0/121 122/0/122
f 121/0/121 120/0/120 123/0/123
f 121/0/121 123/0/123 124/0/124
f 125/0/125 126/0/126 127/0/127
f 125/0/125 127/0/127 128/0/128
f 129/0/129 130/0/130 131/0/131
f 129/0/129 131/0/131 132/0/132
f 133/0/133 134/0/134 135/0/135
f 133/0/133 135/0/135 136/0/136
f 137/0/137 136/0/136 135/0/135
f 137/0/137 135/0/135 138/0/138
f 139/0/139 140/0/140 141/0/141
f 139/0/139 141/0/141 142/0/142
f 143/0/143 144/0/144 145/0/145
f 143/0/143 145/0/145 146/0/146
f 147/0/147 148/0/148 149/0/149
f 147/0/147 149/0/149 150/0/150
f 151/0/151 148/0/148 147/0/147
f 151/0/151 147/0/147 152/0/152
f 153/0/153 154/0/154 155/0/155
f 153/0/153 155/0/155 156/0/156
