# 
# Wavefront OBJ file
# Created with Kaydara FBX
# 
mtllib box_top.mtl

g Box_top
v 0.426348 0.860241 0.284232
v 0.284232 0.860241 0.426348
v 0.284232 0.860241 -0.426349
v 0.426348 0.860241 -0.284232
v -0.284232 0.860241 -0.426349
v -0.284232 0.860241 0.426348
v -0.426348 0.860241 0.284232
v -0.426348 0.860241 -0.284232
v 0.439157 0.878313 0.292771
v 0.292771 0.878313 0.439157
v 0.292771 0.878313 -0.439157
v 0.439157 0.878313 -0.292771
v -0.292771 0.878313 -0.439157
v -0.292771 0.878313 0.439157
v -0.439157 0.878313 0.292771
v -0.439157 0.878313 -0.292771
vt 0.477119 0.804207
vt 0.400300 0.958641
vt 0.400300 0.032034
vt 0.477119 0.186468
vt 0.093027 0.032034
vt 0.093027 0.958641
vt 0.016208 0.804207
vt 0.016208 0.186468
vt 0.477119 0.804207
vt 0.400300 0.958641
vt 0.400300 0.032034
vt 0.477119 0.186468
vt 0.093027 0.032034
vt 0.093027 0.958641
vt 0.016208 0.804207
vt 0.016208 0.186468
vn 0.865729 -0.449003 0.221156
vn 0.616454 -0.749180 0.242308
vn 0.609573 -0.772291 -0.178848
vn 0.842868 -0.498641 -0.202316
vn -0.616454 -0.749180 -0.242308
vn -0.609573 -0.772291 0.178849
vn -0.842868 -0.498641 0.202316
vn -0.865729 -0.449003 -0.221156
vn 0.976180 0.197459 0.089904
vn 0.577453 0.747190 0.329021
vn 0.727857 0.560461 -0.395104
vn 0.924127 0.381717 -0.016759
vn -0.577453 0.747191 -0.329021
vn -0.727857 0.560462 0.395104
vn -0.924127 0.381717 0.016759
vn -0.976180 0.197459 -0.089904
usemtl material
f 1/0/1 2/0/2 3/0/3
f 1/0/1 3/0/3 4/0/4
f 2/0/2 5/0/5 3/0/3
f 2/0/2 6/0/6 5/0/5
f 7/0/7 5/0/5 6/0/6
f 7/0/7 8/0/8 5/0/5
f 9/0/9 2/0/2 1/0/1
f 9/0/9 10/0/10 2/0/2
f 10/0/10 6/0/6 2/0/2
f 9/0/9 11/0/11 10/0/10
f 11/0/11 4/0/4 3/0/3
f 9/0/9 12/0/12 11/0/11
f 11/0/11 12/0/12 4/0/4
f 12/0/12 9/0/9 1/0/1
f 12/0/12 1/0/1 4/0/4
f 10/0/10 11/0/11 13/0/13
f 13/0/13 11/0/11 3/0/3
f 13/0/13 3/0/3 5/0/5
f 10/0/10 13/0/13 14/0/14
f 10/0/10 14/0/14 6/0/6
f 14/0/14 7/0/7 6/0/6
f 15/0/15 14/0/14 13/0/13
f 15/0/15 8/0/8 7/0/7
f 14/0/14 15/0/15 7/0/7
f 15/0/15 13/0/13 16/0/16
f 15/0/15 16/0/16 8/0/8
f 16/0/16 13/0/13 5/0/5
f 16/0/16 5/0/5 8/0/8
