# 
# Wavefront OBJ file
# Created with Kaydara FBX
# 
mtllib button03.mtl

g Button03
v 0.023373 -0.057171 -0.008090
v 0.023373 -0.057171 0.008090
v 0.004562 -0.061596 0.008090
v 0.004562 -0.061596 -0.008090
v -0.014695 -0.059991 0.008090
v -0.014695 -0.059991 -0.008090
v -0.032514 -0.052513 0.008090
v -0.032514 -0.052513 -0.008090
v -0.047150 -0.039896 0.008090
v -0.047150 -0.039896 -0.008090
v -0.057171 -0.023373 0.008090
v -0.057171 -0.023373 -0.008090
v -0.061596 -0.004562 0.008090
v -0.061596 -0.004562 -0.008090
v -0.059991 0.014696 0.008090
v -0.059991 0.014696 -0.008090
v -0.052514 0.032514 0.008090
v -0.052514 0.032514 -0.008090
v -0.039896 0.047151 0.008090
v -0.039896 0.047151 -0.008090
v -0.023373 0.057172 0.008090
v -0.023373 0.057172 -0.008090
v -0.004562 0.061596 0.008090
v -0.004562 0.061596 -0.008090
v 0.014695 0.059991 0.008090
v 0.014695 0.059991 -0.008090
v 0.032514 0.052513 0.008090
v 0.032514 0.052513 -0.008090
v 0.047150 0.039896 0.008090
v 0.047150 0.039896 -0.008090
v 0.057171 0.023373 0.008090
v 0.057171 0.023373 -0.008090
v 0.061596 0.004562 0.008090
v 0.061596 0.004562 -0.008090
v 0.059991 -0.014696 0.008090
v 0.059991 -0.014696 -0.008090
v 0.052514 -0.032514 0.008090
v 0.052514 -0.032514 -0.008090
v 0.039896 -0.047150 0.008090
v 0.039896 -0.047150 -0.008090
v 0.023373 -0.057171 0.008090
v 0.023373 -0.057171 -0.008090
v 0.039896 -0.047150 0.008090
v -0.039896 0.047151 0.008090
v -0.052514 0.032514 0.008090
v 0.023373 -0.057171 0.008090
v -0.023373 0.057172 0.008090
v 0.052514 -0.032514 0.008090
v 0.004562 -0.061596 0.008090
v -0.059991 0.014696 0.008090
v -0.014695 -0.059991 0.008090
v -0.061596 -0.004562 0.008090
v -0.032514 -0.052513 0.008090
v -0.057171 -0.023373 0.008090
v -0.047150 -0.039896 0.008090
v -0.004562 0.061596 0.008090
v 0.059991 -0.014696 0.008090
v 0.014695 0.059991 0.008090
v 0.061596 0.004562 0.008090
v 0.032514 0.052513 0.008090
v 0.057171 0.023373 0.008090
v 0.047150 0.039896 0.008090
vt 0.269254 0.003629
vt 0.269254 0.005912
vt 0.295717 0.005912
vt 0.295717 0.003629
vt 0.322180 0.005912
vt 0.322180 0.003629
vt 0.348643 0.005912
vt 0.348643 0.003629
vt 0.375106 0.005912
vt 0.375106 0.003629
vt 0.401569 0.005912
vt 0.401569 0.003629
vt 0.428032 0.005912
vt 0.428032 0.003629
vt 0.454495 0.005912
vt 0.454495 0.003629
vt 0.480957 0.005912
vt 0.480957 0.003629
vt 0.507420 0.005912
vt 0.507420 0.003629
vt 0.533883 0.005912
vt 0.533883 0.003629
vt 0.560346 0.005912
vt 0.560346 0.003629
vt 0.586809 0.005912
vt 0.586809 0.003629
vt 0.613272 0.005912
vt 0.613272 0.003629
vt 0.639735 0.005912
vt 0.639735 0.003629
vt 0.666198 0.005912
vt 0.666198 0.003629
vt 0.692660 0.005912
vt 0.692660 0.003629
vt 0.719123 0.005912
vt 0.719123 0.003629
vt 0.745586 0.005912
vt 0.745586 0.003629
vt 0.772049 0.005912
vt 0.772049 0.003629
vt 0.798512 0.005912
vt 0.798512 0.003629
vt 0.870618 0.297574
vt 0.834411 0.297574
vt 0.835297 0.303168
vt 0.869732 0.303168
vt 0.835297 0.291980
vt 0.869732 0.291980
vt 0.867161 0.308215
vt 0.837869 0.308215
vt 0.863156 0.312220
vt 0.841874 0.312220
vt 0.858109 0.314791
vt 0.846921 0.314791
vt 0.852515 0.315677
vt 0.837869 0.286933
vt 0.867161 0.286933
vt 0.841874 0.282928
vt 0.863156 0.282928
vt 0.846921 0.280356
vt 0.858109 0.280356
vt 0.852515 0.279470
vn 0.378427 -0.925631 0.000000
vn 0.378427 -0.925631 0.000000
vn 0.073863 -0.997268 0.000000
vn 0.073863 -0.997268 0.000000
vn -0.237929 -0.971283 0.000000
vn -0.237929 -0.971283 0.000000
vn -0.526427 -0.850220 0.000000
vn -0.526427 -0.850220 0.000000
vn -0.763389 -0.645939 0.000000
vn -0.763389 -0.645939 0.000000
vn -0.925632 -0.378424 0.000000
vn -0.925632 -0.378424 0.000000
vn -0.997268 -0.073865 0.000000
vn -0.997268 -0.073865 0.000000
vn -0.971284 0.237923 0.000000
vn -0.971284 0.237923 0.000000
vn -0.850226 0.526418 0.000000
vn -0.850226 0.526418 0.000000
vn -0.645941 0.763387 0.000000
vn -0.645941 0.763387 0.000000
vn -0.378427 0.925631 0.000000
vn -0.378427 0.925631 0.000000
vn -0.073855 0.997269 0.000000
vn -0.073855 0.997269 0.000000
vn 0.237944 0.971279 0.000000
vn 0.237944 0.971279 0.000000
vn 0.526430 0.850218 0.000000
vn 0.526430 0.850218 0.000000
vn 0.763391 0.645937 0.000000
vn 0.763391 0.645937 0.000000
vn 0.925633 0.378424 0.000000
vn 0.925633 0.378424 0.000000
vn 0.997268 0.073868 0.000000
vn 0.997268 0.073868 0.000000
vn 0.971284 -0.237923 0.000000
vn 0.971284 -0.237923 0.000000
vn 0.850221 -0.526426 0.000000
vn 0.850221 -0.526426 0.000000
vn 0.645940 -0.763389 0.000000
vn 0.645940 -0.763389 0.000000
vn 0.378427 -0.925631 0.000000
vn 0.378427 -0.925631 0.000000
vn 0.000000 0.000000 1.000000
vn 0.000000 0.000000 1.000000
vn 0.000000 0.000000 1.000000
vn 0.000000 0.000000 1.000000
vn -0.000001 0.000000 1.000000
vn -0.000001 0.000000 1.000000
vn 0.000003 0.000000 1.000000
vn 0.000003 0.000000 1.000000
vn 0.000003 0.000000 1.000000
vn 0.000003 0.000000 1.000000
vn 0.000000 0.000000 1.000000
vn 0.000000 0.000000 1.000000
vn 0.000000 0.000000 1.000000
vn -0.000002 0.000000 1.000000
vn -0.000002 0.000000 1.000000
vn -0.000002 0.000000 1.000000
vn -0.000002 0.000000 1.000000
vn -0.000013 0.000000 1.000000
vn -0.000013 0.000000 1.000000
vn -0.000013 0.000000 1.000000
usemtl material
f 1/0/1 2/0/2 3/0/3
f 1/0/1 3/0/3 4/0/4
f 4/0/4 3/0/3 5/0/5
f 4/0/4 5/0/5 6/0/6
f 6/0/6 5/0/5 7/0/7
f 6/0/6 7/0/7 8/0/8
f 8/0/8 7/0/7 9/0/9
f 8/0/8 9/0/9 10/0/10
f 10/0/10 9/0/9 11/0/11
f 10/0/10 11/0/11 12/0/12
f 12/0/12 11/0/11 13/0/13
f 12/0/12 13/0/13 14/0/14
f 14/0/14 13/0/13 15/0/15
f 14/0/14 15/0/15 16/0/16
f 16/0/16 15/0/15 17/0/17
f 16/0/16 17/0/17 18/0/18
f 18/0/18 17/0/17 19/0/19
f 18/0/18 19/0/19 20/0/20
f 20/0/20 19/0/19 21/0/21
f 20/0/20 21/0/21 22/0/22
f 22/0/22 21/0/21 23/0/23
f 22/0/22 23/0/23 24/0/24
f 24/0/24 23/0/23 25/0/25
f 24/0/24 25/0/25 26/0/26
f 26/0/26 25/0/25 27/0/27
f 26/0/26 27/0/27 28/0/28
f 28/0/28 27/0/27 29/0/29
f 28/0/28 29/0/29 30/0/30
f 30/0/30 29/0/29 31/0/31
f 30/0/30 31/0/31 32/0/32
f 32/0/32 31/0/31 33/0/33
f 32/0/32 33/0/33 34/0/34
f 34/0/34 33/0/33 35/0/35
f 34/0/34 35/0/35 36/0/36
f 36/0/36 35/0/35 37/0/37
f 36/0/36 37/0/37 38/0/38
f 38/0/38 37/0/37 39/0/39
f 38/0/38 39/0/39 40/0/40
f 40/0/40 39/0/39 41/0/41
f 40/0/40 41/0/41 42/0/42
f 43/0/43 44/0/44 45/0/45
f 43/0/43 45/0/45 46/0/46
f 43/0/43 47/0/47 44/0/44
f 43/0/43 48/0/48 47/0/47
f 45/0/45 49/0/49 46/0/46
f 45/0/45 50/0/50 49/0/49
f 50/0/50 51/0/51 49/0/49
f 50/0/50 52/0/52 51/0/51
f 52/0/52 53/0/53 51/0/51
f 52/0/52 54/0/54 53/0/53
f 54/0/54 55/0/55 53/0/53
f 48/0/48 56/0/56 47/0/47
f 48/0/48 57/0/57 56/0/56
f 57/0/57 58/0/58 56/0/56
f 57/0/57 59/0/59 58/0/58
f 59/0/59 60/0/60 58/0/58
f 59/0/59 61/0/61 60/0/60
f 61/0/61 62/0/62 60/0/60
