# 
# Wavefront OBJ file
# Created with Kaydara FBX
# 
mtllib c01 #225662.mtl

g C01
v 10.284785 0.000000 10.358145
v 10.284785 0.000000 -9.641855
v -9.715215 0.000000 -9.641855
v -9.715215 0.000000 10.358145
v 10.284785 -9.999998 10.358145
v -9.715215 -9.999998 10.358145
v -9.715215 -9.999998 -9.641855
v 10.284785 -9.999998 -9.641855
vt 2.499290 2.499495
vt 2.499291 -0.999510
vt -0.999821 -0.999503
vt -0.999821 2.499491
vt 2.499290 2.499495
vt -0.999821 2.499491
vt -0.999821 -0.999503
vt 2.499291 -0.999510
vn 0.000000 1.000000 0.000000
vn 0.000000 1.000000 0.000000
vn 0.000000 1.000000 0.000000
vn 0.000000 1.000000 0.000000
vn 0.000000 -1.000000 0.000000
vn 0.000000 -1.000000 0.000000
vn 0.000000 -1.000000 0.000000
vn 0.000000 -1.000000 0.000000
usemtl material
f 1/0/1 2/0/2 3/0/3
f 1/0/1 3/0/3 4/0/4
f 5/0/5 6/0/6 7/0/7
f 5/0/5 7/0/7 8/0/8
