# 
# Wavefront OBJ file
# Created with Kaydara FBX
# 
mtllib c02 #225681.mtl

g C02
v 32.000000 -2.000000 3.712568
v 32.000000 -2.000000 -4.287432
v 32.000000 0.000000 -4.287432
v 32.000000 0.000000 3.712568
v 8.000000 -2.000000 11.712568
v 16.000000 -2.000000 11.712568
v 16.000000 0.000000 11.712568
v 8.000000 0.000000 11.712568
v 24.000000 0.000000 11.712568
v 24.000000 -2.000000 11.712568
v -24.000000 -2.000000 -4.287432
v -24.000000 -2.000000 3.712568
v -24.000000 0.000000 3.712568
v -24.000000 0.000000 -4.287432
v -24.000000 -2.000000 -12.287432
v -24.000000 0.000000 -12.287432
v -24.000000 -2.000000 -20.287432
v -24.000000 0.000000 -20.287432
v -8.000000 -2.000000 -12.287432
v -16.000000 -2.000000 -12.287432
v -16.000000 0.000000 -12.287432
v -8.000000 0.000000 -12.287432
v 0.000000 -2.000000 -12.287432
v 0.000000 0.000000 -12.287432
v 7.999999 -2.000000 -12.287432
v 7.999999 0.000000 -12.287432
v 16.000000 -2.000000 -12.287432
v 16.000000 0.000000 -12.287432
v 24.000000 -2.000000 -12.287432
v 24.000000 0.000000 -12.287432
v -24.000000 -2.000000 11.712568
v -16.000000 -2.000000 11.712568
v -16.000000 0.000000 11.712568
v -24.000000 0.000000 11.712568
v -32.000000 -2.000000 11.712568
v -32.000000 0.000000 11.712568
v -8.000000 0.000000 11.712568
v -8.000000 -2.000000 11.712568
v 0.000000 0.000000 11.712568
v 0.000000 -2.000000 11.712568
v 24.000000 -2.000000 11.712568
v 24.000000 -2.000000 3.712568
v 24.000000 0.000000 3.712568
v 24.000000 0.000000 11.712568
v 24.000000 0.000000 -12.287432
v 24.000000 0.000000 -4.287432
v 24.000000 -2.000000 -4.287432
v 24.000000 -2.000000 -12.287432
v 24.000000 -2.000000 3.712568
v 32.000000 -2.000000 3.712568
v 32.000000 0.000000 3.712568
v 24.000000 0.000000 3.712568
v 24.000000 0.000000 -4.287432
v 32.000000 0.000000 -4.287432
v 32.000000 -2.000000 -4.287432
v 24.000000 -2.000000 -4.287432
v 0.000000 -2.000000 19.712568
v 8.000000 -2.000000 19.712568
v 8.000000 0.000000 19.712568
v 0.000000 0.000000 19.712568
v 0.000000 -2.000000 11.712568
v 0.000000 -2.000000 19.712568
v 0.000000 0.000000 19.712568
v 0.000000 0.000000 11.712568
v 8.000000 0.000000 11.712568
v 8.000000 0.000000 19.712568
v 8.000000 -2.000000 19.712568
v 8.000000 -2.000000 11.712568
v -24.000000 0.000000 -20.287432
v -16.000000 0.000000 -20.287432
v -16.000000 -2.000000 -20.287432
v -24.000000 -2.000000 -20.287432
v -16.000000 -2.000000 -12.287432
v -16.000000 -2.000000 -20.287432
v -16.000000 0.000000 -20.287432
v -16.000000 0.000000 -12.287432
v -32.000000 0.000000 11.712568
v -32.000000 0.000000 3.712568
v -32.000000 -2.000000 3.712568
v -32.000000 -2.000000 11.712568
v -24.000000 -2.000000 3.712568
v -32.000000 -2.000000 3.712568
v -32.000000 0.000000 3.712568
v -24.000000 0.000000 3.712568
vt 9.999792 -6.499666
vt 8.500033 -6.499666
vt 8.500009 -5.999691
vt 9.999758 -5.999691
vt 12.999689 -6.499666
vt 14.499412 -6.499666
vt 14.499427 -5.999691
vt 12.999701 -5.999691
vt 15.999666 -5.999691
vt 15.999647 -6.499666
vt -8.000064 -6.499666
vt -9.500196 -6.499666
vt -9.500272 -5.999691
vt -8.000117 -5.999691
vt -6.500375 -6.499666
vt -6.500414 -5.999691
vt -5.000053 -6.499666
vt -5.000053 -5.999691
vt -0.500590 -6.499666
vt -2.000486 -6.499666
vt -2.000503 -5.999691
vt -0.500590 -5.999691
vt 0.999253 -6.499666
vt 0.999253 -5.999691
vt 2.499222 -6.499666
vt 2.499222 -5.999691
vt 3.999191 -6.499666
vt 3.999191 -5.999691
vt 5.499162 -6.499666
vt 5.499158 -5.999691
vt -16.998592 -6.499666
vt -15.499183 -6.499666
vt -15.499127 -5.999691
vt -16.998547 -5.999691
vt -18.499615 -6.499666
vt -18.499565 -5.999691
vt -13.999825 -5.999691
vt -13.999880 -6.499666
vt -12.499981 -5.999691
vt -12.500034 -6.499666
vt 12.999708 -6.499666
vt 11.499630 -6.499666
vt 11.499611 -5.999691
vt 12.999689 -5.999691
vt 5.499158 -5.999691
vt 6.999815 -5.999691
vt 6.999823 -6.499666
vt 5.499162 -6.499666
vt 9.999758 -6.499666
vt 11.499596 -6.499666
vt 11.499630 -5.999691
vt 9.999777 -5.999691
vt 6.999815 -5.999691
vt 8.500009 -5.999691
vt 8.500033 -6.499666
vt 6.999823 -6.499666
vt 17.499899 -6.499666
vt 18.999748 -6.499666
vt 18.999771 -5.999691
vt 17.499926 -5.999691
vt -18.499561 -6.499666
vt -19.999023 -6.499666
vt -19.999073 -5.999691
vt -18.499615 -5.999691
vt 15.999655 -5.999691
vt 17.499901 -5.999691
vt 17.499924 -6.499666
vt 15.999666 -6.499666
vt -5.000053 -5.999691
vt -3.500495 -5.999691
vt -3.500472 -6.499666
vt -5.000053 -6.499666
vt -2.000486 -6.499666
vt -3.500472 -6.499666
vt -3.500495 -5.999691
vt -2.000503 -5.999691
vt -12.500030 -5.999691
vt -11.000250 -5.999691
vt -11.000250 -6.499666
vt -12.499982 -6.499666
vt -9.500196 -6.499666
vt -11.000250 -6.499666
vt -11.000250 -5.999691
vt -9.500272 -5.999691
vn 1.000000 0.000000 0.000000
vn 1.000000 0.000000 0.000000
vn 1.000000 0.000000 0.000000
vn 1.000000 0.000000 0.000000
vn 0.000000 0.000000 1.000000
vn 0.000000 0.000000 1.000000
vn 0.000000 0.000000 1.000000
vn 0.000000 0.000000 1.000000
vn 0.000000 0.000000 1.000000
vn 0.000000 0.000000 1.000000
vn -1.000000 0.000000 0.000000
vn -1.000000 0.000000 0.000000
vn -1.000000 0.000000 0.000000
vn -1.000000 0.000000 0.000000
vn -1.000000 0.000000 0.000000
vn -1.000000 0.000000 0.000000
vn -1.000000 0.000000 0.000000
vn -1.000000 0.000000 0.000000
vn 0.000000 0.000000 -1.000000
vn 0.000000 0.000000 -1.000000
vn 0.000000 0.000000 -1.000000
vn 0.000000 0.000000 -1.000000
vn 0.000000 0.000000 -1.000000
vn 0.000000 0.000000 -1.000000
vn 0.000000 0.000000 -1.000000
vn 0.000000 0.000000 -1.000000
vn 0.000000 0.000000 -1.000000
vn 0.000000 0.000000 -1.000000
vn 0.000000 0.000000 -1.000000
vn 0.000000 0.000000 -1.000000
vn 0.000000 0.000000 1.000000
vn 0.000000 0.000000 1.000000
vn 0.000000 0.000000 1.000000
vn 0.000000 0.000000 1.000000
vn 0.000000 0.000000 1.000000
vn 0.000000 0.000000 1.000000
vn 0.000000 0.000000 1.000000
vn 0.000000 0.000000 1.000000
vn 0.000000 0.000000 1.000000
vn 0.000000 0.000000 1.000000
vn 1.000000 0.000000 0.000000
vn 1.000000 0.000000 0.000000
vn 1.000000 0.000000 0.000000
vn 1.000000 0.000000 0.000000
vn 1.000000 0.000000 0.000000
vn 1.000000 0.000000 0.000000
vn 1.000000 0.000000 0.000000
vn 1.000000 0.000000 0.000000
vn 0.000000 0.000000 1.000000
vn 0.000000 0.000000 1.000000
vn 0.000000 0.000000 1.000000
vn 0.000000 0.000000 1.000000
vn 0.000000 0.000000 -1.000000
vn 0.000000 0.000000 -1.000000
vn 0.000000 0.000000 -1.000000
vn 0.000000 0.000000 -1.000000
vn 0.000000 0.000000 1.000000
vn 0.000000 0.000000 1.000000
vn 0.000000 0.000000 1.000000
vn 0.000000 0.000000 1.000000
vn -1.000000 0.000000 0.000000
vn -1.000000 0.000000 0.000000
vn -1.000000 0.000000 0.000000
vn -1.000000 0.000000 0.000000
vn 1.000000 0.000000 0.000000
vn 1.000000 0.000000 0.000000
vn 1.000000 0.000000 0.000000
vn 1.000000 0.000000 0.000000
vn 0.000000 0.000000 -1.000000
vn 0.000000 0.000000 -1.000000
vn 0.000000 0.000000 -1.000000
vn 0.000000 0.000000 -1.000000
vn 1.000000 0.000000 0.000000
vn 1.000000 0.000000 0.000000
vn 1.000000 0.000000 0.000000
vn 1.000000 0.000000 0.000000
vn -1.000000 0.000000 0.000000
vn -1.000000 0.000000 0.000000
vn -1.000000 0.000000 0.000000
vn -1.000000 0.000000 0.000000
vn 0.000000 0.000000 -1.000000
vn 0.000000 0.000000 -1.000000
vn 0.000000 0.000000 -1.000000
vn 0.000000 0.000000 -1.000000
usemtl material
f 1/0/1 2/0/2 3/0/3
f 1/0/1 3/0/3 4/0/4
f 5/0/5 6/0/6 7/0/7
f 5/0/5 7/0/7 8/0/8
f 9/0/9 7/0/7 6/0/6
f 9/0/9 6/0/6 10/0/10
f 11/0/11 12/0/12 13/0/13
f 11/0/11 13/0/13 14/0/14
f 15/0/15 11/0/11 14/0/14
f 15/0/15 14/0/14 16/0/16
f 16/0/16 17/0/17 15/0/15
f 16/0/16 18/0/18 17/0/17
f 19/0/19 20/0/20 21/0/21
f 19/0/19 21/0/21 22/0/22
f 23/0/23 19/0/19 22/0/22
f 23/0/23 22/0/22 24/0/24
f 25/0/25 23/0/23 24/0/24
f 25/0/25 24/0/24 26/0/26
f 27/0/27 25/0/25 26/0/26
f 27/0/27 26/0/26 28/0/28
f 29/0/29 27/0/27 28/0/28
f 29/0/29 28/0/28 30/0/30
f 31/0/31 32/0/32 33/0/33
f 31/0/31 33/0/33 34/0/34
f 34/0/34 35/0/35 31/0/31
f 34/0/34 36/0/36 35/0/35
f 32/0/32 37/0/37 33/0/33
f 32/0/32 38/0/38 37/0/37
f 38/0/38 39/0/39 37/0/37
f 38/0/38 40/0/40 39/0/39
f 41/0/41 42/0/42 43/0/43
f 41/0/41 43/0/43 44/0/44
f 45/0/45 46/0/46 47/0/47
f 45/0/45 47/0/47 48/0/48
f 49/0/49 50/0/50 51/0/51
f 49/0/49 51/0/51 52/0/52
f 53/0/53 54/0/54 55/0/55
f 53/0/53 55/0/55 56/0/56
f 57/0/57 58/0/58 59/0/59
f 57/0/57 59/0/59 60/0/60
f 61/0/61 62/0/62 63/0/63
f 61/0/61 63/0/63 64/0/64
f 65/0/65 66/0/66 67/0/67
f 65/0/65 67/0/67 68/0/68
f 69/0/69 70/0/70 71/0/71
f 69/0/69 71/0/71 72/0/72
f 73/0/73 74/0/74 75/0/75
f 73/0/73 75/0/75 76/0/76
f 77/0/77 78/0/78 79/0/79
f 77/0/77 79/0/79 80/0/80
f 81/0/81 82/0/82 83/0/83
f 81/0/81 83/0/83 84/0/84
