# 
# Wavefront OBJ file
# Created with Kaydara FBX
# 
mtllib c02 #225661.mtl

g C02
v 10.284785 -9.999998 10.358145
v 10.284785 0.000000 10.358145
v -9.715215 0.000000 10.358145
v -9.715215 -9.999998 10.358145
v -9.715215 -9.999998 10.358145
v -9.715215 0.000000 10.358145
v -9.715215 0.000000 -9.641855
v -9.715215 -9.999998 -9.641855
v -9.715215 -9.999998 -9.641855
v -9.715215 0.000000 -9.641855
v 10.284785 0.000000 -9.641855
v 10.284785 -9.999998 -9.641855
v 10.284785 -9.999998 -9.641855
v 10.284785 0.000000 -9.641855
v 10.284785 0.000000 10.358145
v 10.284785 -9.999998 10.358145
vt 9.499356 -3.000827
vt 9.499361 -0.998470
vt 6.001299 -0.998212
vt 6.001298 -3.001066
vt -4.499821 -2.999382
vt -4.499814 -0.999855
vt -0.999821 -1.000080
vt -0.999821 -2.999188
vt -0.999821 -2.999188
vt -0.999821 -1.000080
vt 2.499291 -0.999510
vt 2.499285 -2.999784
vt 2.499285 -2.999784
vt 2.499291 -0.999510
vt 6.001298 -0.998470
vt 6.001303 -3.000827
vn 0.000000 0.000000 1.000000
vn 0.000000 0.000000 1.000000
vn 0.000000 0.000000 1.000000
vn 0.000000 0.000000 1.000000
vn -1.000000 0.000000 0.000000
vn -1.000000 0.000000 0.000000
vn -1.000000 0.000000 0.000000
vn -1.000000 0.000000 0.000000
vn 0.000000 0.000000 -1.000000
vn 0.000000 0.000000 -1.000000
vn 0.000000 0.000000 -1.000000
vn 0.000000 0.000000 -1.000000
vn 1.000000 0.000000 0.000000
vn 1.000000 0.000000 0.000000
vn 1.000000 0.000000 0.000000
vn 1.000000 0.000000 0.000000
usemtl material
f 1/0/1 2/0/2 3/0/3
f 1/0/1 3/0/3 4/0/4
f 5/0/5 6/0/6 7/0/7
f 5/0/5 7/0/7 8/0/8
f 9/0/9 10/0/10 11/0/11
f 9/0/9 11/0/11 12/0/12
f 13/0/13 14/0/14 15/0/15
f 13/0/13 15/0/15 16/0/16
