# 
# Wavefront OBJ file
# Created with Kaydara FBX
# 
mtllib c02 #225621.mtl

g C02
v -10.000000 -2.500000 -7.500000
v -10.000000 0.000000 -7.500000
v -10.000000 0.000000 -22.500000
v -10.000000 -2.500000 -22.500000
v -10.000000 -2.500000 -22.500000
v -10.000000 0.000000 -22.500000
v 10.000000 0.000000 -22.500000
v 10.000000 -2.500000 -22.500000
v 10.000000 -2.500000 -22.500000
v 10.000000 0.000000 -22.500000
v 10.000000 0.000000 -7.500000
v 10.000000 -2.500000 -7.500000
v -10.000000 -2.500000 -7.500000
v -5.000000 -2.500000 -7.500000
v -5.000000 0.000000 -7.500000
v -10.000000 0.000000 -7.500000
v 10.000000 0.000000 -7.500000
v 5.000000 0.000000 -7.500000
v 5.000000 -2.500000 -7.500000
v 10.000000 -2.500000 -7.500000
v 10.000000 -2.500000 7.500000
v 10.000000 0.000000 7.500000
v 10.000000 0.000000 22.500000
v 10.000000 -2.500000 22.500000
v 10.000000 -2.500000 22.500000
v 10.000000 0.000000 22.500000
v -10.000000 0.000000 22.500000
v -10.000000 -2.500000 22.500000
v -10.000000 -2.500000 22.500000
v -10.000000 0.000000 22.500000
v -10.000000 0.000000 7.500000
v -10.000000 -2.500000 7.500000
v 10.000000 -2.500000 7.500000
v 5.000000 -2.500000 7.500000
v 5.000000 0.000000 7.500000
v 10.000000 0.000000 7.500000
v -10.000000 0.000000 7.500000
v -5.000000 0.000000 7.500000
v -5.000000 -2.500000 7.500000
v -10.000000 -2.500000 7.500000
v -5.000000 -2.500000 -7.500000
v -5.000000 -2.500000 7.500000
v -5.000000 0.000000 7.500000
v -5.000000 0.000000 -7.500000
v 5.000000 0.000000 -7.500000
v 5.000000 0.000000 7.500000
v 5.000000 -2.500000 7.500000
v 5.000000 -2.500000 -7.500000
vt 10.997601 -4.500221
vt 10.997618 -4.000018
vt 13.997510 -4.000018
vt 13.997490 -4.500221
vt -11.998501 -4.500221
vt -11.998635 -4.000018
vt -15.997053 -4.000018
vt -15.996984 -4.500221
vt -11.998569 -4.500221
vt -11.998501 -4.000018
vt -8.998602 -4.000018
vt -8.998686 -4.500221
vt 10.997601 -4.500221
vt 9.998030 -4.500221
vt 9.998053 -4.000018
vt 10.997618 -4.000018
vt -8.998602 -4.000018
vt -7.999033 -4.000018
vt -7.999115 -4.500221
vt -8.998686 -4.500221
vt -3.999495 -4.500221
vt -3.999491 -4.000018
vt -0.999601 -4.000018
vt -0.999603 -4.500221
vt -0.999603 -4.500221
vt -0.999601 -4.000018
vt 2.998728 -4.000018
vt 2.998726 -4.500221
vt 2.998726 -4.500221
vt 2.998728 -4.000018
vt 5.998619 -4.000018
vt 5.998619 -4.500221
vt -4.999220 -4.500221
vt -3.999492 -4.500221
vt -3.999574 -4.000018
vt -4.999224 -4.000018
vt 6.998159 -4.000018
vt 5.998619 -4.000018
vt 5.998641 -4.500221
vt 6.998159 -4.500221
vt 9.998030 -4.500221
vt 6.998137 -4.500221
vt 6.998160 -4.000018
vt 9.998053 -4.000018
vt -7.999033 -4.000018
vt -4.999142 -4.000018
vt -4.999224 -4.500221
vt -7.999115 -4.500221
vn -1.000000 0.000000 0.000000
vn -1.000000 0.000000 0.000000
vn -1.000000 0.000000 0.000000
vn -1.000000 0.000000 0.000000
vn 0.000000 0.000000 -1.000000
vn 0.000000 0.000000 -1.000000
vn 0.000000 0.000000 -1.000000
vn 0.000000 0.000000 -1.000000
vn 1.000000 0.000000 0.000000
vn 1.000000 0.000000 0.000000
vn 1.000000 0.000000 0.000000
vn 1.000000 0.000000 0.000000
vn 0.000000 0.000000 1.000000
vn 0.000000 0.000000 1.000000
vn 0.000000 0.000000 1.000000
vn 0.000000 0.000000 1.000000
vn 0.000000 0.000000 1.000000
vn 0.000000 0.000000 1.000000
vn 0.000000 0.000000 1.000000
vn 0.000000 0.000000 1.000000
vn 1.000000 0.000000 0.000000
vn 1.000000 0.000000 0.000000
vn 1.000000 0.000000 0.000000
vn 1.000000 0.000000 0.000000
vn 0.000000 0.000000 1.000000
vn 0.000000 0.000000 1.000000
vn 0.000000 0.000000 1.000000
vn 0.000000 0.000000 1.000000
vn -1.000000 0.000000 0.000000
vn -1.000000 0.000000 0.000000
vn -1.000000 0.000000 0.000000
vn -1.000000 0.000000 0.000000
vn 0.000000 0.000000 -1.000000
vn 0.000000 0.000000 -1.000000
vn 0.000000 0.000000 -1.000000
vn 0.000000 0.000000 -1.000000
vn 0.000000 0.000000 -1.000000
vn 0.000000 0.000000 -1.000000
vn 0.000000 0.000000 -1.000000
vn 0.000000 0.000000 -1.000000
vn -1.000000 0.000000 0.000000
vn -1.000000 0.000000 0.000000
vn -1.000000 0.000000 0.000000
vn -1.000000 0.000000 0.000000
vn 1.000000 0.000000 0.000000
vn 1.000000 0.000000 0.000000
vn 1.000000 0.000000 0.000000
vn 1.000000 0.000000 0.000000
usemtl material
f 1/0/1 2/0/2 3/0/3
f 1/0/1 3/0/3 4/0/4
f 5/0/5 6/0/6 7/0/7
f 5/0/5 7/0/7 8/0/8
f 9/0/9 10/0/10 11/0/11
f 9/0/9 11/0/11 12/0/12
f 13/0/13 14/0/14 15/0/15
f 13/0/13 15/0/15 16/0/16
f 17/0/17 18/0/18 19/0/19
f 17/0/17 19/0/19 20/0/20
f 21/0/21 22/0/22 23/0/23
f 21/0/21 23/0/23 24/0/24
f 25/0/25 26/0/26 27/0/27
f 25/0/25 27/0/27 28/0/28
f 29/0/29 30/0/30 31/0/31
f 29/0/29 31/0/31 32/0/32
f 33/0/33 34/0/34 35/0/35
f 33/0/33 35/0/35 36/0/36
f 37/0/37 38/0/38 39/0/39
f 37/0/37 39/0/39 40/0/40
f 41/0/41 42/0/42 43/0/43
f 41/0/41 43/0/43 44/0/44
f 45/0/45 46/0/46 47/0/47
f 45/0/45 47/0/47 48/0/48
