# 
# Wavefront OBJ file
# Created with Kaydara FBX
# 
mtllib c02 #225690.mtl

g C02
v 14.976913 -2.500000 21.627754
v 14.976913 0.000000 21.627754
v -15.023086 0.000000 21.627754
v -15.023086 -2.500000 21.627754
v -24.019619 -2.500000 -15.000000
v -24.019619 -2.500000 12.500000
v -24.019619 0.000000 12.500000
v -24.019619 0.000000 -15.000000
v -15.023086 -2.500000 -24.131884
v -15.023086 0.000000 -24.131884
v 14.976913 0.000000 -24.131884
v 14.976913 -2.500000 -24.131884
v 24.019619 -2.500000 12.500000
v 24.019619 -2.500000 -15.000000
v 24.019619 0.000000 -15.000000
v 24.019619 0.000000 12.500000
v -15.023086 -2.500000 -24.131884
v -15.023086 -2.500000 -15.000000
v -15.023086 0.000000 -15.000000
v -15.023086 0.000000 -24.131884
v -15.023086 0.000000 21.627754
v -15.023086 0.000000 12.500000
v -15.023086 -2.500000 12.500000
v -15.023086 -2.500000 21.627754
v 14.976913 -2.500000 21.627754
v 14.976913 -2.500000 12.500000
v 14.976913 0.000000 12.500000
v 14.976913 0.000000 21.627754
v 14.976913 0.000000 -24.131884
v 14.976913 0.000000 -15.000000
v 14.976913 -2.500000 -15.000000
v 14.976913 -2.500000 -24.131884
v -15.023086 -2.500000 -15.000000
v -24.019619 -2.500000 -15.000000
v -24.019619 0.000000 -15.000000
v -15.023086 0.000000 -15.000000
v -15.023086 0.000000 12.500000
v -24.019619 0.000000 12.500000
v -24.019619 -2.500000 12.500000
v -15.023086 -2.500000 12.500000
v 14.976913 -2.500000 12.500000
v 24.019619 -2.500000 12.500000
v 24.019619 0.000000 12.500000
v 14.976913 0.000000 12.500000
v 14.976913 0.000000 -15.000000
v 24.019619 0.000000 -15.000000
v 24.019619 -2.500000 -15.000000
v 14.976913 -2.500000 -15.000000
vt -11.499672 -6.499581
vt -11.499673 -5.999700
vt -6.500332 -5.999734
vt -6.500329 -6.499617
vt 0.999770 -6.499583
vt -3.500454 -6.499583
vt -3.500454 -5.999698
vt 0.999770 -5.999698
vt 3.999105 -6.499583
vt 3.999105 -5.999698
vt 9.000144 -5.999698
vt 9.000144 -6.499583
vt 11.999640 -6.499496
vt 16.500256 -6.499583
vt 16.500261 -5.999698
vt 11.999651 -5.999610
vt 3.999105 -6.499583
vt 2.500561 -6.499585
vt 2.500561 -5.999696
vt 3.999105 -5.999698
vt -6.500332 -5.999734
vt -5.000523 -5.999696
vt -5.000519 -6.499585
vt -6.500329 -6.499617
vt -12.999805 -6.499581
vt -11.499671 -6.499585
vt -11.499671 -5.999696
vt -12.999804 -5.999700
vt 10.499597 -5.999698
vt 9.000145 -5.999696
vt 9.000145 -6.499585
vt 10.499597 -6.499583
vt 2.500561 -6.499585
vt 0.999770 -6.499583
vt 0.999770 -5.999698
vt 2.500561 -5.999696
vt -3.500453 -5.999696
vt -5.000523 -5.999698
vt -5.000523 -6.499583
vt -3.500458 -6.499585
vt 18.000504 -6.499426
vt 16.500261 -6.499496
vt 16.500250 -5.999610
vt 18.000484 -5.999539
vt 10.499596 -5.999696
vt 11.999640 -5.999698
vt 11.999644 -6.499583
vt 10.499596 -6.499585
vn 0.000000 0.000000 1.000000
vn 0.000000 0.000000 1.000000
vn 0.000000 0.000000 1.000000
vn 0.000000 0.000000 1.000000
vn -1.000000 0.000000 0.000000
vn -1.000000 0.000000 0.000000
vn -1.000000 0.000000 0.000000
vn -1.000000 0.000000 0.000000
vn 0.000000 0.000000 -1.000000
vn 0.000000 0.000000 -1.000000
vn 0.000000 0.000000 -1.000000
vn 0.000000 0.000000 -1.000000
vn 1.000000 0.000000 0.000000
vn 1.000000 0.000000 0.000000
vn 1.000000 0.000000 0.000000
vn 1.000000 0.000000 0.000000
vn -1.000000 0.000000 0.000000
vn -1.000000 0.000000 0.000000
vn -1.000000 0.000000 0.000000
vn -1.000000 0.000000 0.000000
vn -1.000000 0.000000 0.000000
vn -1.000000 0.000000 0.000000
vn -1.000000 0.000000 0.000000
vn -1.000000 0.000000 0.000000
vn 1.000000 0.000000 0.000000
vn 1.000000 0.000000 0.000000
vn 1.000000 0.000000 0.000000
vn 1.000000 0.000000 0.000000
vn 1.000000 0.000000 0.000000
vn 1.000000 0.000000 0.000000
vn 1.000000 0.000000 0.000000
vn 1.000000 0.000000 0.000000
vn 0.000000 0.000000 -1.000000
vn 0.000000 0.000000 -1.000000
vn 0.000000 0.000000 -1.000000
vn 0.000000 0.000000 -1.000000
vn 0.000000 0.000000 1.000000
vn 0.000000 0.000000 1.000000
vn 0.000000 0.000000 1.000000
vn 0.000000 0.000000 1.000000
vn 0.000000 0.000000 1.000000
vn 0.000000 0.000000 1.000000
vn 0.000000 0.000000 1.000000
vn 0.000000 0.000000 1.000000
vn 0.000000 0.000000 -1.000000
vn 0.000000 0.000000 -1.000000
vn 0.000000 0.000000 -1.000000
vn 0.000000 0.000000 -1.000000
usemtl material
f 1/0/1 2/0/2 3/0/3
f 1/0/1 3/0/3 4/0/4
f 5/0/5 6/0/6 7/0/7
f 5/0/5 7/0/7 8/0/8
f 9/0/9 10/0/10 11/0/11
f 9/0/9 11/0/11 12/0/12
f 13/0/13 14/0/14 15/0/15
f 13/0/13 15/0/15 16/0/16
f 17/0/17 18/0/18 19/0/19
f 17/0/17 19/0/19 20/0/20
f 21/0/21 22/0/22 23/0/23
f 21/0/21 23/0/23 24/0/24
f 25/0/25 26/0/26 27/0/27
f 25/0/25 27/0/27 28/0/28
f 29/0/29 30/0/30 31/0/31
f 29/0/29 31/0/31 32/0/32
f 33/0/33 34/0/34 35/0/35
f 33/0/33 35/0/35 36/0/36
f 37/0/37 38/0/38 39/0/39
f 37/0/37 39/0/39 40/0/40
f 41/0/41 42/0/42 43/0/43
f 41/0/41 43/0/43 44/0/44
f 45/0/45 46/0/46 47/0/47
f 45/0/45 47/0/47 48/0/48
