# 
# Wavefront OBJ file
# Created with Kaydara FBX
# 
mtllib c02 #225631.mtl

g C02
v 15.003432 -4.999998 -1.250000
v 15.003432 0.000000 -1.250000
v 10.003432 0.000000 -1.250000
v 10.003432 -4.999998 -1.250000
v 10.003432 -4.999998 -1.250000
v 10.003432 0.000000 -1.250000
v 10.003432 0.000000 -16.250000
v 10.003432 -4.999998 -16.250000
v 10.003432 -4.999998 -16.250000
v 10.003432 0.000000 -16.250000
v 15.003432 0.000000 -16.250000
v 15.003432 -4.999998 -16.250000
v 15.003432 -4.999998 -16.250000
v 15.003432 0.000000 -16.250000
v 15.003432 0.000000 -1.250000
v 15.003432 -4.999998 -1.250000
v 15.003432 -2.500000 -16.250000
v 15.003432 0.000000 -16.250000
v -4.996567 0.000000 -16.250000
v -4.996567 -2.500000 -16.250000
v -4.996567 -2.500000 -16.250000
v -4.996567 0.000000 -16.250000
v -4.996567 0.000000 -26.250000
v -4.996567 -2.500000 -26.250000
v -4.996567 -2.500000 -26.250000
v -4.996567 0.000000 -26.250000
v 15.003432 0.000000 -26.250000
v 15.003432 -2.500000 -26.250000
v 15.003432 -2.500000 -26.250000
v 15.003432 0.000000 -26.250000
v 15.003432 0.000000 -16.250000
v 15.003432 -2.500000 -16.250000
v 5.003432 -2.500000 8.750000
v 5.003432 0.000000 8.750000
v -9.996567 0.000000 8.750000
v -9.996567 -2.500000 8.750000
v -9.996567 -2.500000 8.750000
v -9.996567 0.000000 8.750000
v -9.996567 0.000000 -6.250000
v -9.996567 -2.500000 -6.250000
v -9.996567 -2.500000 -6.250000
v -9.996567 0.000000 -6.250000
v 5.003432 0.000000 -6.250000
v 5.003432 -2.500000 -6.250000
v 5.003432 -2.500000 -6.250000
v 5.003432 0.000000 -6.250000
v 5.003432 0.000000 8.750000
v 5.003432 -2.500000 8.750000
v 0.003433 -2.500000 -6.250000
v 0.003433 0.000000 -6.250000
v -14.996567 0.000000 -6.250000
v -14.996567 -2.500000 -6.250000
v -14.996567 -2.500000 -6.250000
v -14.996567 0.000000 -6.250000
v -14.996567 0.000000 -16.250000
v -14.996567 -2.500000 -16.250000
v -14.996567 -2.500000 -16.250000
v -14.996567 0.000000 -16.250000
v 0.003433 0.000000 -16.250000
v 0.003433 -2.500000 -16.250000
v 0.003433 -2.500000 -16.250000
v 0.003433 0.000000 -16.250000
v 0.003433 0.000000 -6.250000
v 0.003433 -2.500000 -6.250000
v 15.003432 -2.500000 13.750000
v 15.003432 0.000000 13.750000
v 5.003432 0.000000 13.750000
v 5.003432 -2.500000 13.750000
v 5.003432 -2.500000 13.750000
v 5.003432 0.000000 13.750000
v 5.003432 0.000000 3.750000
v 5.003432 -2.500000 3.750000
v 5.003432 -2.500000 3.750000
v 5.003432 0.000000 3.750000
v 15.003432 0.000000 3.750000
v 15.003432 -2.500000 3.750000
v 15.003432 -2.500000 3.750000
v 15.003432 0.000000 3.750000
v 15.003432 0.000000 13.750000
v 15.003432 -2.500000 13.750000
v 0.003433 -2.500000 26.250000
v 0.003433 0.000000 26.250000
v -14.996567 0.000000 26.250000
v -14.996567 -2.500000 26.250000
v -14.996567 -2.500000 26.250000
v -14.996567 0.000000 26.250000
v -14.996567 0.000000 13.750000
v -14.996567 -2.500000 13.750000
v -14.996567 -2.500000 13.750000
v -14.996567 0.000000 13.750000
v 0.003433 0.000000 13.750000
v 0.003433 -2.500000 13.750000
v 0.003433 -2.500000 13.750000
v 0.003433 0.000000 13.750000
v 0.003433 0.000000 26.250000
v 0.003433 -2.500000 26.250000
v 10.003432 -2.500000 18.750000
v 10.003432 0.000000 18.750000
v 0.003433 0.000000 18.750000
v 0.003433 -2.500000 18.750000
v 0.003433 -2.500000 18.750000
v 0.003433 0.000000 18.750000
v 0.003433 0.000000 13.750000
v 0.003433 -2.500000 13.750000
v 0.003433 -2.500000 13.750000
v 0.003433 0.000000 13.750000
v 10.003432 0.000000 13.750000
v 10.003432 -2.500000 13.750000
v 10.003432 -2.500000 13.750000
v 10.003432 0.000000 13.750000
v 10.003432 0.000000 18.750000
v 10.003432 -2.500000 18.750000
vt -1.999983 -7.000550
vt -1.999980 -6.000334
vt -1.000070 -6.000334
vt -1.000062 -7.000550
vt -1.000062 -7.000550
vt -1.000070 -6.000334
vt 1.500332 -6.000334
vt 1.500348 -7.000550
vt -5.500306 -7.000550
vt -5.500296 -6.000334
vt -4.500381 -6.000334
vt -4.500390 -7.000550
vt -4.500390 -7.000550
vt -4.500381 -6.000334
vt -1.999980 -6.000334
vt -1.999983 -7.000550
vt -11.000706 -3.499671
vt -11.000743 -2.999841
vt -7.000878 -2.999841
vt -7.000877 -3.499671
vt -7.000877 -3.499671
vt -7.000878 -2.999841
vt -4.501908 -2.999841
vt -4.501907 -3.499671
vt -17.499496 -3.499671
vt -17.499594 -2.999841
vt -13.499738 -2.999841
vt -13.499653 -3.499671
vt -13.499653 -3.499671
vt -13.499738 -2.999841
vt -11.000743 -2.999841
vt -11.000706 -3.499671
vt 2.500219 -1.000163
vt 2.500220 -0.499731
vt 5.499319 -0.499731
vt 5.499322 -1.000163
vt 5.499322 -1.000163
vt 5.499319 -0.499731
vt 8.498372 -0.499731
vt 8.498384 -1.000163
vt 8.498384 -1.000163
vt 8.498372 -0.499731
vt 10.998828 -0.499731
vt 10.998850 -1.000163
vt -0.500387 -1.000163
vt -0.500381 -0.499731
vt 2.500220 -0.499731
vt 2.500219 -1.000163
vt -1.501017 2.499778
vt -1.501016 3.000233
vt 1.499872 3.000233
vt 1.499873 2.499778
vt 1.499873 2.499778
vt 1.499872 3.000233
vt 3.000922 3.000233
vt 3.000921 2.499778
vt -3.002061 2.499778
vt -3.002069 3.000233
vt -6.002960 3.000233
vt -6.002954 2.499778
vt -3.002067 2.499778
vt -3.002060 3.000233
vt -1.501016 3.000233
vt -1.501017 2.499778
vt -7.999047 1.998662
vt -7.999051 1.499268
vt -5.999660 1.499122
vt -5.999683 1.998812
vt -0.000329 1.998981
vt -0.000284 1.499311
vt -2.000276 1.499444
vt -2.000316 1.998508
vt -2.000316 1.998508
vt -2.000276 1.499444
vt -3.999677 1.499578
vt -3.999677 1.998370
vt -3.999677 1.998370
vt -3.999677 1.499578
vt -5.999660 1.499268
vt -5.999663 1.998662
vt -1.500625 -2.000176
vt -1.500625 -1.500019
vt 1.500571 -1.500019
vt 1.500572 -2.000175
vt 1.500572 -2.000175
vt 1.500571 -1.500019
vt 4.000124 -1.500019
vt 4.000118 -2.000176
vt 6.999442 -2.000176
vt 6.999437 -1.500019
vt 4.000118 -1.500020
vt 4.000125 -2.000175
vt -3.999994 -2.000176
vt -3.999989 -1.500020
vt -1.500625 -1.500019
vt -1.500625 -2.000176
vt -3.999059 2.499778
vt -3.999056 1.998828
vt -1.999051 1.998828
vt -1.999055 2.499778
vt 1.998748 2.499778
vt 1.998746 1.998828
vt 0.999848 1.998828
vt 0.999850 2.499778
vt 0.999850 2.499778
vt 0.999848 1.998828
vt -1.000156 1.998828
vt -1.000154 2.499778
vt -1.000154 2.499778
vt -1.000156 1.998828
vt -1.999054 1.998828
vt -1.999051 2.499778
vn 0.000000 0.000000 1.000000
vn 0.000000 0.000000 1.000000
vn 0.000000 0.000000 1.000000
vn 0.000000 0.000000 1.000000
vn -1.000000 0.000000 0.000000
vn -1.000000 0.000000 0.000000
vn -1.000000 0.000000 0.000000
vn -1.000000 0.000000 0.000000
vn 0.000000 0.000000 -1.000000
vn 0.000000 0.000000 -1.000000
vn 0.000000 0.000000 -1.000000
vn 0.000000 0.000000 -1.000000
vn 1.000000 0.000000 0.000000
vn 1.000000 0.000000 0.000000
vn 1.000000 0.000000 0.000000
vn 1.000000 0.000000 0.000000
vn 0.000000 0.000000 1.000000
vn 0.000000 0.000000 1.000000
vn 0.000000 0.000000 1.000000
vn 0.000000 0.000000 1.000000
vn -1.000000 0.000000 0.000000
vn -1.000000 0.000000 0.000000
vn -1.000000 0.000000 0.000000
vn -1.000000 0.000000 0.000000
vn 0.000000 0.000000 -1.000000
vn 0.000000 0.000000 -1.000000
vn 0.000000 0.000000 -1.000000
vn 0.000000 0.000000 -1.000000
vn 1.000000 0.000000 0.000000
vn 1.000000 0.000000 0.000000
vn 1.000000 0.000000 0.000000
vn 1.000000 0.000000 0.000000
vn 0.000000 0.000000 1.000000
vn 0.000000 0.000000 1.000000
vn 0.000000 0.000000 1.000000
vn 0.000000 0.000000 1.000000
vn -1.000000 0.000000 0.000000
vn -1.000000 0.000000 0.000000
vn -1.000000 0.000000 0.000000
vn -1.000000 0.000000 0.000000
vn 0.000000 0.000000 -1.000000
vn 0.000000 0.000000 -1.000000
vn 0.000000 0.000000 -1.000000
vn 0.000000 0.000000 -1.000000
vn 1.000000 0.000000 0.000000
vn 1.000000 0.000000 0.000000
vn 1.000000 0.000000 0.000000
vn 1.000000 0.000000 0.000000
vn 0.000000 0.000000 1.000000
vn 0.000000 0.000000 1.000000
vn 0.000000 0.000000 1.000000
vn 0.000000 0.000000 1.000000
vn -1.000000 0.000000 0.000000
vn -1.000000 0.000000 0.000000
vn -1.000000 0.000000 0.000000
vn -1.000000 0.000000 0.000000
vn 0.000000 0.000000 -1.000000
vn 0.000000 0.000000 -1.000000
vn 0.000000 0.000000 -1.000000
vn 0.000000 0.000000 -1.000000
vn 1.000000 0.000000 0.000000
vn 1.000000 0.000000 0.000000
vn 1.000000 0.000000 0.000000
vn 1.000000 0.000000 0.000000
vn 0.000000 0.000000 1.000000
vn 0.000000 0.000000 1.000000
vn 0.000000 0.000000 1.000000
vn 0.000000 0.000000 1.000000
vn -1.000000 0.000000 0.000000
vn -1.000000 0.000000 0.000000
vn -1.000000 0.000000 0.000000
vn -1.000000 0.000000 0.000000
vn 0.000000 0.000000 -1.000000
vn 0.000000 0.000000 -1.000000
vn 0.000000 0.000000 -1.000000
vn 0.000000 0.000000 -1.000000
vn 1.000000 0.000000 0.000000
vn 1.000000 0.000000 0.000000
vn 1.000000 0.000000 0.000000
vn 1.000000 0.000000 0.000000
vn 0.000000 0.000000 1.000000
vn 0.000000 0.000000 1.000000
vn 0.000000 0.000000 1.000000
vn 0.000000 0.000000 1.000000
vn -1.000000 0.000000 0.000000
vn -1.000000 0.000000 0.000000
vn -1.000000 0.000000 0.000000
vn -1.000000 0.000000 0.000000
vn 0.000000 0.000000 -1.000000
vn 0.000000 0.000000 -1.000000
vn 0.000000 0.000000 -1.000000
vn 0.000000 0.000000 -1.000000
vn 1.000000 0.000000 0.000000
vn 1.000000 0.000000 0.000000
vn 1.000000 0.000000 0.000000
vn 1.000000 0.000000 0.000000
vn 0.000000 0.000000 1.000000
vn 0.000000 0.000000 1.000000
vn 0.000000 0.000000 1.000000
vn 0.000000 0.000000 1.000000
vn -1.000000 0.000000 0.000000
vn -1.000000 0.000000 0.000000
vn -1.000000 0.000000 0.000000
vn -1.000000 0.000000 0.000000
vn 0.000000 0.000000 -1.000000
vn 0.000000 0.000000 -1.000000
vn 0.000000 0.000000 -1.000000
vn 0.000000 0.000000 -1.000000
vn 1.000000 0.000000 0.000000
vn 1.000000 0.000000 0.000000
vn 1.000000 0.000000 0.000000
vn 1.000000 0.000000 0.000000
usemtl material
f 1/0/1 2/0/2 3/0/3
f 1/0/1 3/0/3 4/0/4
f 5/0/5 6/0/6 7/0/7
f 5/0/5 7/0/7 8/0/8
f 9/0/9 10/0/10 11/0/11
f 9/0/9 11/0/11 12/0/12
f 13/0/13 14/0/14 15/0/15
f 13/0/13 15/0/15 16/0/16
f 17/0/17 18/0/18 19/0/19
f 17/0/17 19/0/19 20/0/20
f 21/0/21 22/0/22 23/0/23
f 21/0/21 23/0/23 24/0/24
f 25/0/25 26/0/26 27/0/27
f 25/0/25 27/0/27 28/0/28
f 29/0/29 30/0/30 31/0/31
f 29/0/29 31/0/31 32/0/32
f 33/0/33 34/0/34 35/0/35
f 33/0/33 35/0/35 36/0/36
f 37/0/37 38/0/38 39/0/39
f 37/0/37 39/0/39 40/0/40
f 41/0/41 42/0/42 43/0/43
f 41/0/41 43/0/43 44/0/44
f 45/0/45 46/0/46 47/0/47
f 45/0/45 47/0/47 48/0/48
f 49/0/49 50/0/50 51/0/51
f 49/0/49 51/0/51 52/0/52
f 53/0/53 54/0/54 55/0/55
f 53/0/53 55/0/55 56/0/56
f 57/0/57 58/0/58 59/0/59
f 57/0/57 59/0/59 60/0/60
f 61/0/61 62/0/62 63/0/63
f 61/0/61 63/0/63 64/0/64
f 65/0/65 66/0/66 67/0/67
f 65/0/65 67/0/67 68/0/68
f 69/0/69 70/0/70 71/0/71
f 69/0/69 71/0/71 72/0/72
f 73/0/73 74/0/74 75/0/75
f 73/0/73 75/0/75 76/0/76
f 77/0/77 78/0/78 79/0/79
f 77/0/77 79/0/79 80/0/80
f 81/0/81 82/0/82 83/0/83
f 81/0/81 83/0/83 84/0/84
f 85/0/85 86/0/86 87/0/87
f 85/0/85 87/0/87 88/0/88
f 89/0/89 90/0/90 91/0/91
f 89/0/89 91/0/91 92/0/92
f 93/0/93 94/0/94 95/0/95
f 93/0/93 95/0/95 96/0/96
f 97/0/97 98/0/98 99/0/99
f 97/0/97 99/0/99 100/0/100
f 101/0/101 102/0/102 103/0/103
f 101/0/101 103/0/103 104/0/104
f 105/0/105 106/0/106 107/0/107
f 105/0/105 107/0/107 108/0/108
f 109/0/109 110/0/110 111/0/111
f 109/0/109 111/0/111 112/0/112
