# 
# Wavefront OBJ file
# Created with Kaydara FBX
# 
mtllib c02.mtl

g C02
v 3.500000 -1.750000 -21.000000
v 3.500000 -1.750000 -7.000000
v 3.500000 0.000000 -7.000000
v 3.500000 0.000000 -21.000000
v 3.500000 -1.750000 -28.000000
v 3.500000 0.000000 -28.000000
v 17.500000 0.000000 -28.000000
v 17.500000 -1.750000 -28.000000
v -3.500000 0.000000 -28.000000
v -3.500000 -1.750000 -28.000000
v -17.500000 -1.750000 -28.000000
v -17.500000 0.000000 -28.000000
v -3.500000 -1.750000 -7.000000
v -3.500000 -1.750000 -21.000000
v -3.500000 0.000000 -21.000000
v -3.500000 0.000000 -7.000000
v 3.500000 0.000000 -21.000000
v -3.500000 0.000000 -21.000000
v -3.500000 -1.750000 -21.000000
v 3.500000 -1.750000 -21.000000
v 3.500000 -1.750000 -7.000000
v -3.500000 -1.750000 -7.000000
v -3.500000 0.000000 -7.000000
v 3.500000 0.000000 -7.000000
v 3.500000 -1.750000 21.000000
v 3.500000 0.000000 21.000000
v 3.500000 0.000000 7.000000
v 3.500000 -1.750000 7.000000
v 3.500000 -1.750000 28.000000
v 17.500000 -1.750000 28.000000
v 17.500000 0.000000 28.000000
v 3.500000 0.000000 28.000000
v -3.500000 0.000000 28.000000
v -3.500000 -1.750000 28.000000
v -17.500000 -1.750000 28.000000
v -17.500000 0.000000 28.000000
v 17.500000 -1.750000 28.000000
v 17.500000 -1.750000 -28.000000
v 17.500000 0.000000 -28.000000
v 17.500000 0.000000 28.000000
v -17.500000 -1.750000 -28.000000
v -17.500000 -1.750000 28.000000
v -17.500000 0.000000 28.000000
v -17.500000 0.000000 -28.000000
v -3.500000 -1.750000 7.000000
v -3.500000 0.000000 7.000000
v -3.500000 0.000000 21.000000
v -3.500000 -1.750000 21.000000
v 3.500000 0.000000 21.000000
v 3.500000 -1.750000 21.000000
v -3.500000 -1.750000 21.000000
v -3.500000 0.000000 21.000000
v 3.500000 -1.750000 7.000000
v 3.500000 0.000000 7.000000
v -3.500000 0.000000 7.000000
v -3.500000 -1.750000 7.000000
vt 12.499313 -4.500117
vt 8.499290 -4.499151
vt 8.499170 -4.999259
vt 12.499191 -5.000185
vt 12.499580 -4.000721
vt 12.499725 -3.500643
vt 16.499855 -3.500643
vt 16.499588 -4.000721
vt 10.499669 -3.500643
vt 10.499570 -4.000721
vt 6.499551 -4.000721
vt 6.499554 -3.500643
vt 2.499233 -4.500796
vt 6.499206 -4.500502
vt 6.499259 -5.000523
vt 2.499262 -5.000872
vt 8.499292 -5.000185
vt 6.499259 -5.000523
vt 6.499206 -4.500502
vt 8.499170 -4.500117
vt 0.499224 -4.500782
vt 2.499233 -4.500796
vt 2.499262 -5.000872
vt 0.499205 -5.000917
vt -7.500199 -4.498932
vt -7.500325 -4.998873
vt -3.500302 -4.999910
vt -3.500182 -4.499918
vt -15.500046 -4.000721
vt -19.499971 -4.000721
vt -19.500309 -3.500643
vt -15.500244 -3.500643
vt -13.500211 -3.500643
vt -13.500084 -4.000721
vt -9.500156 -4.000721
vt -9.500149 -3.500643
vt 16.499886 -4.000721
vt 32.499577 -4.000721
vt 32.499310 -3.500643
vt 16.499588 -3.500643
vt 6.499551 -4.000721
vt -9.500156 -4.000721
vt -9.500149 -3.500643
vt 6.499554 -3.500643
vt -9.500286 -4.500216
vt -9.500240 -5.000250
vt -13.500236 -5.000543
vt -13.500258 -4.500463
vt -15.500295 -5.000575
vt -15.500269 -4.500442
vt -13.500258 -4.500463
vt -13.500236 -5.000543
vt -7.500325 -4.499918
vt -7.500205 -4.999910
vt -9.500240 -5.000250
vt -9.500286 -4.500216
vn -1.000000 0.000000 0.000000
vn -1.000000 0.000000 0.000000
vn -1.000000 0.000000 0.000000
vn -1.000000 0.000000 0.000000
vn 0.000000 0.000000 -1.000000
vn 0.000000 0.000000 -1.000000
vn 0.000000 0.000000 -1.000000
vn 0.000000 0.000000 -1.000000
vn 0.000000 0.000000 -1.000000
vn 0.000000 0.000000 -1.000000
vn 0.000000 0.000000 -1.000000
vn 0.000000 0.000000 -1.000000
vn 1.000000 0.000000 0.000000
vn 1.000000 0.000000 0.000000
vn 1.000000 0.000000 0.000000
vn 1.000000 0.000000 0.000000
vn 0.000000 0.000000 1.000000
vn 0.000000 0.000000 1.000000
vn 0.000000 0.000000 1.000000
vn 0.000000 0.000000 1.000000
vn 0.000000 0.000000 -1.000000
vn 0.000000 0.000000 -1.000000
vn 0.000000 0.000000 -1.000000
vn 0.000000 0.000000 -1.000000
vn -1.000000 0.000000 0.000000
vn -1.000000 0.000000 0.000000
vn -1.000000 0.000000 0.000000
vn -1.000000 0.000000 0.000000
vn 0.000000 0.000000 1.000000
vn 0.000000 0.000000 1.000000
vn 0.000000 0.000000 1.000000
vn 0.000000 0.000000 1.000000
vn 0.000000 0.000000 1.000000
vn 0.000000 0.000000 1.000000
vn 0.000000 0.000000 1.000000
vn 0.000000 0.000000 1.000000
vn 1.000000 0.000000 0.000000
vn 1.000000 0.000000 0.000000
vn 1.000000 0.000000 0.000000
vn 1.000000 0.000000 0.000000
vn -1.000000 0.000000 0.000000
vn -1.000000 0.000000 0.000000
vn -1.000000 0.000000 0.000000
vn -1.000000 0.000000 0.000000
vn 1.000000 0.000000 0.000000
vn 1.000000 0.000000 0.000000
vn 1.000000 0.000000 0.000000
vn 1.000000 0.000000 0.000000
vn 0.000000 0.000000 -1.000000
vn 0.000000 0.000000 -1.000000
vn 0.000000 0.000000 -1.000000
vn 0.000000 0.000000 -1.000000
vn 0.000000 0.000000 1.000000
vn 0.000000 0.000000 1.000000
vn 0.000000 0.000000 1.000000
vn 0.000000 0.000000 1.000000
usemtl material
f 1/0/1 2/0/2 3/0/3
f 1/0/1 3/0/3 4/0/4
f 5/0/5 6/0/6 7/0/7
f 5/0/5 7/0/7 8/0/8
f 5/0/5 9/0/9 6/0/6
f 5/0/5 10/0/10 9/0/9
f 11/0/11 9/0/9 10/0/10
f 11/0/11 12/0/12 9/0/9
f 13/0/13 14/0/14 15/0/15
f 13/0/13 15/0/15 16/0/16
f 17/0/17 18/0/18 19/0/19
f 17/0/17 19/0/19 20/0/20
f 21/0/21 22/0/22 23/0/23
f 21/0/21 23/0/23 24/0/24
f 25/0/25 26/0/26 27/0/27
f 25/0/25 27/0/27 28/0/28
f 29/0/29 30/0/30 31/0/31
f 29/0/29 31/0/31 32/0/32
f 29/0/29 32/0/32 33/0/33
f 29/0/29 33/0/33 34/0/34
f 35/0/35 34/0/34 33/0/33
f 35/0/35 33/0/33 36/0/36
f 37/0/37 38/0/38 39/0/39
f 37/0/37 39/0/39 40/0/40
f 41/0/41 42/0/42 43/0/43
f 41/0/41 43/0/43 44/0/44
f 45/0/45 46/0/46 47/0/47
f 45/0/45 47/0/47 48/0/48
f 49/0/49 50/0/50 51/0/51
f 49/0/49 51/0/51 52/0/52
f 53/0/53 54/0/54 55/0/55
f 53/0/53 55/0/55 56/0/56
