# 
# Wavefront OBJ file
# Created with Kaydara FBX
# 
mtllib c03.mtl

g C03
v 3.500000 0.000000 -21.000000
v 3.500000 0.000000 -7.000000
v 17.500000 0.000000 -28.000000
v 3.500000 0.000000 -28.000000
v 3.500000 0.000000 7.000000
v 3.500000 0.000000 21.000000
v 3.500000 0.000000 28.000000
v 17.500000 0.000000 28.000000
v -3.500000 0.000000 -21.000000
v -3.500000 0.000000 -28.000000
v -17.500000 0.000000 -28.000000
v -3.500000 0.000000 -7.000000
v -17.500000 0.000000 28.000000
v -3.500000 0.000000 7.000000
v -3.500000 0.000000 21.000000
v -3.500000 0.000000 28.000000
v 3.500000 -1.750000 -21.000000
v 3.500000 -1.750000 -28.000000
v 17.500000 -1.750000 -28.000000
v 3.500000 -1.750000 -7.000000
v 3.500000 -1.750000 7.000000
v 3.500000 -1.750000 21.000000
v 3.500000 -1.750000 28.000000
v 17.500000 -1.750000 28.000000
v -3.500000 -1.750000 -21.000000
v -3.500000 -1.750000 -28.000000
v -17.500000 -1.750000 -28.000000
v -3.500000 -1.750000 -7.000000
v -17.500000 -1.750000 28.000000
v -3.500000 -1.750000 7.000000
v -3.500000 -1.750000 21.000000
v -3.500000 -1.750000 28.000000
vt 4.499539 2.499476
vt 0.499516 2.499488
vt 6.499556 6.499533
vt 6.499553 2.499417
vt -3.500314 2.499476
vt -7.500334 2.499489
vt -9.500153 2.499476
vt -9.500154 6.499541
vt 4.499528 0.499443
vt 6.499553 0.499361
vt 6.499554 -3.500643
vt 0.499531 0.499431
vt -9.500149 -3.500643
vt -3.500326 0.499443
vt -7.500322 0.499431
vt -9.500153 0.499443
vt 4.499539 2.499476
vt 6.499553 2.499417
vt 6.499556 6.499533
vt 0.499516 2.499488
vt -3.500314 2.499476
vt -7.500334 2.499489
vt -9.500153 2.499476
vt -9.500154 6.499541
vt 4.499528 0.499443
vt 6.499553 0.499361
vt 6.499554 -3.500643
vt 0.499531 0.499431
vt -9.500149 -3.500643
vt -3.500326 0.499443
vt -7.500322 0.499431
vt -9.500153 0.499443
vn 0.000000 1.000000 0.000000
vn 0.000000 1.000000 0.000000
vn 0.000000 1.000000 0.000000
vn 0.000000 1.000000 0.000000
vn 0.000000 1.000000 0.000000
vn 0.000000 1.000000 0.000000
vn 0.000000 1.000000 0.000000
vn 0.000000 1.000000 0.000000
vn 0.000000 1.000000 0.000000
vn 0.000000 1.000000 0.000000
vn 0.000000 1.000000 0.000000
vn 0.000000 1.000000 0.000000
vn 0.000000 1.000000 0.000000
vn 0.000000 1.000000 0.000000
vn 0.000000 1.000000 0.000000
vn 0.000000 1.000000 0.000000
vn 0.000000 -1.000000 0.000000
vn 0.000000 -1.000000 0.000000
vn 0.000000 -1.000000 0.000000
vn 0.000000 -1.000000 0.000000
vn 0.000000 -1.000000 0.000000
vn 0.000000 -1.000000 0.000000
vn 0.000000 -1.000000 0.000000
vn 0.000000 -1.000000 0.000000
vn 0.000000 -1.000000 0.000000
vn 0.000000 -1.000000 0.000000
vn 0.000000 -1.000000 0.000000
vn 0.000000 -1.000000 0.000000
vn 0.000000 -1.000000 0.000000
vn 0.000000 -1.000000 0.000000
vn 0.000000 -1.000000 0.000000
vn 0.000000 -1.000000 0.000000
usemtl material
f 1/0/1 2/0/2 3/0/3
f 1/0/1 3/0/3 4/0/4
f 5/0/5 3/0/3 2/0/2
f 5/0/5 6/0/6 3/0/3
f 7/0/7 3/0/3 6/0/6
f 7/0/7 8/0/8 3/0/3
f 4/0/4 9/0/9 1/0/1
f 4/0/4 10/0/10 9/0/9
f 11/0/11 9/0/9 10/0/10
f 11/0/11 12/0/12 9/0/9
f 5/0/5 2/0/2 12/0/12
f 13/0/13 12/0/12 11/0/11
f 13/0/13 14/0/14 12/0/12
f 5/0/5 12/0/12 14/0/14
f 15/0/15 14/0/14 13/0/13
f 7/0/7 6/0/6 15/0/15
f 15/0/15 13/0/13 16/0/16
f 7/0/7 15/0/15 16/0/16
f 17/0/17 18/0/18 19/0/19
f 17/0/17 19/0/19 20/0/20
f 21/0/21 20/0/20 19/0/19
f 21/0/21 19/0/19 22/0/22
f 23/0/23 22/0/22 19/0/19
f 23/0/23 19/0/19 24/0/24
f 18/0/18 17/0/17 25/0/25
f 18/0/18 25/0/25 26/0/26
f 27/0/27 26/0/26 25/0/25
f 27/0/27 25/0/25 28/0/28
f 21/0/21 28/0/28 20/0/20
f 29/0/29 27/0/27 28/0/28
f 29/0/29 28/0/28 30/0/30
f 21/0/21 30/0/30 28/0/28
f 31/0/31 29/0/29 30/0/30
f 23/0/23 31/0/31 22/0/22
f 31/0/31 32/0/32 29/0/29
f 23/0/23 32/0/32 31/0/31
