# 
# Wavefront OBJ file
# Created with Kaydara FBX
# 
mtllib c07 #226174.mtl

g C07
v -8.110869 9.270205 -5.738164
v -8.110869 5.489746 -10.598926
v -15.344306 5.489746 -10.598926
v -15.344306 9.270205 -5.738164
v -16.757656 4.962944 -12.010390
v -8.110869 4.962944 -12.010390
v -0.877432 5.489746 -10.598926
v -0.877432 9.270205 -5.738164
v 0.535918 4.962944 -12.010390
v -15.344296 5.489746 -0.877422
v -8.110869 5.489746 -0.877422
v -8.110869 9.270205 -5.738164
v -15.344306 9.270205 -5.738164
v -16.757647 4.962944 0.534063
v -8.110869 4.962944 0.534063
v -0.877441 5.489746 -0.877422
v -0.877432 9.270205 -5.738164
v 0.535908 4.962944 0.534063
v -15.344306 5.489746 -5.738183
v -15.344306 5.489746 -10.598926
v -16.757656 4.962944 -12.010390
v -16.757647 4.962944 -5.738164
v -15.344296 5.489746 -0.877422
v -16.757647 4.962944 0.534063
v -15.344306 9.270205 -5.738164
v -15.344306 9.120205 -5.738164
v -15.344296 5.489746 -1.141152
v -15.344296 5.489746 -0.877422
v -15.344306 5.489746 -10.598926
v -15.344306 5.489741 -10.335196
v -0.877432 5.489746 -5.738183
v 0.535908 4.962944 -5.738164
v 0.535918 4.962944 -12.010390
v -0.877432 5.489746 -10.598926
v -0.877441 5.489746 -0.877422
v 0.535908 4.962944 0.534063
v -0.877432 9.270205 -5.738164
v -0.877441 5.489746 -0.877422
v -0.877441 5.489746 -1.141152
v -0.877432 9.120205 -5.738164
v -0.877432 5.489746 -10.598926
v -0.877432 5.489741 -10.335196
v 0.450635 4.913862 0.623184
v -1.023965 5.460830 -0.845947
v -0.939258 5.399375 -0.937988
v 0.534966 4.845684 0.530762
v -0.923057 5.682378 -0.921875
v -1.016133 5.597749 -0.838154
v 0.475405 5.025356 0.647881
v 0.568486 5.109985 0.564160
v -0.847510 5.460815 -1.023037
v -0.839673 5.597734 -1.015234
v 0.651875 5.025342 0.470791
v 0.627090 4.913847 0.446104
v 0.450635 4.913862 0.623184
v 0.475405 5.025356 0.647881
v -1.016133 5.597749 -0.838154
v -1.023965 5.460830 -0.845947
v 0.627090 4.913847 0.446104
v 0.534966 4.845684 0.530762
v -0.939258 5.399375 -0.937988
v -0.847510 5.460815 -1.023037
v -0.839673 5.597734 -1.015234
v -0.923057 5.682378 -0.921875
v 0.568486 5.109985 0.564160
v 0.651875 5.025342 0.470791
v 0.534966 4.845684 0.530762
v 0.627090 4.913847 0.446104
v 0.651875 5.025342 0.470791
v 0.568486 5.109985 0.564160
v 0.450635 4.913862 0.623184
v 0.475405 5.025356 0.647881
v -16.672373 4.913862 0.623184
v -16.756704 4.845684 0.530762
v -15.282480 5.399375 -0.937988
v -15.197773 5.460830 -0.845947
v -15.298681 5.682378 -0.921875
v -16.790224 5.109985 0.564160
v -16.697144 5.025356 0.647881
v -15.205606 5.597749 -0.838154
v -15.374228 5.460815 -1.023037
v -16.848827 4.913847 0.446104
v -16.873613 5.025342 0.470791
v -15.382065 5.597734 -1.015234
v -16.672373 4.913862 0.623184
v -15.197773 5.460830 -0.845947
v -15.205606 5.597749 -0.838154
v -16.697144 5.025356 0.647881
v -16.848827 4.913847 0.446104
v -15.374228 5.460815 -1.023037
v -15.282480 5.399375 -0.937988
v -16.756704 4.845684 0.530762
v -15.382065 5.597734 -1.015234
v -16.873613 5.025342 0.470791
v -16.790224 5.109985 0.564160
v -15.298681 5.682378 -0.921875
v -16.756704 4.845684 0.530762
v -16.790224 5.109985 0.564160
v -16.873613 5.025342 0.470791
v -16.848827 4.913847 0.446104
v -16.672373 4.913862 0.623184
v -16.697144 5.025356 0.647881
v 0.450635 4.913862 -12.099511
v 0.534966 4.845684 -12.007090
v -0.939258 5.399375 -10.538340
v -1.023965 5.460830 -10.630381
v -0.923057 5.682378 -10.554453
v 0.568486 5.109985 -12.040488
v 0.475405 5.025356 -12.124208
v -1.016133 5.597749 -10.638174
v -0.847510 5.460815 -10.453291
v 0.627090 4.913847 -11.922431
v 0.651875 5.025342 -11.947119
v -0.839673 5.597734 -10.461094
v 0.450635 4.913862 -12.099511
v -1.023965 5.460830 -10.630381
v -1.016133 5.597749 -10.638174
v 0.475405 5.025356 -12.124208
v 0.627090 4.913847 -11.922431
v -0.847510 5.460815 -10.453291
v -0.939258 5.399375 -10.538340
v 0.534966 4.845684 -12.007090
v -0.839673 5.597734 -10.461094
v 0.651875 5.025342 -11.947119
v 0.568486 5.109985 -12.040488
v -0.923057 5.682378 -10.554453
v 0.534966 4.845684 -12.007090
v 0.568486 5.109985 -12.040488
v 0.651875 5.025342 -11.947119
v 0.627090 4.913847 -11.922431
v 0.450635 4.913862 -12.099511
v 0.475405 5.025356 -12.124208
v -16.672373 4.913862 -12.099511
v -15.197773 5.460830 -10.630381
v -15.282480 5.399375 -10.538340
v -16.756704 4.845684 -12.007090
v -15.298681 5.682378 -10.554453
v -15.205606 5.597749 -10.638174
v -16.697144 5.025356 -12.124208
v -16.790224 5.109985 -12.040488
v -15.374228 5.460815 -10.453291
v -15.382065 5.597734 -10.461094
v -16.873613 5.025342 -11.947119
v -16.848827 4.913847 -11.922431
v -16.672373 4.913862 -12.099511
v -16.697144 5.025356 -12.124208
v -15.205606 5.597749 -10.638174
v -15.197773 5.460830 -10.630381
v -16.848827 4.913847 -11.922431
v -16.756704 4.845684 -12.007090
v -15.282480 5.399375 -10.538340
v -15.374228 5.460815 -10.453291
v -15.382065 5.597734 -10.461094
v -15.298681 5.682378 -10.554453
v -16.790224 5.109985 -12.040488
v -16.873613 5.025342 -11.947119
v -16.756704 4.845684 -12.007090
v -16.848827 4.913847 -11.922431
v -16.873613 5.025342 -11.947119
v -16.790224 5.109985 -12.040488
v -16.672373 4.913862 -12.099511
v -16.697144 5.025356 -12.124208
vt 2.340325 1.473444
vt 2.340325 5.459858
vt -3.278570 5.459858
vt -3.278571 1.474960
vt -4.378145 6.317203
vt 2.340547 6.317203
vt 7.959221 5.459858
vt 7.959221 1.474960
vt 9.058417 6.317203
vt -3.278571 5.459858
vt 2.340326 5.459858
vt 2.340326 1.473444
vt -3.278571 1.474087
vt -4.378145 6.316329
vt 2.340141 6.316329
vt 7.959220 5.459858
vt 7.959220 1.474086
vt 9.058416 6.316329
vt -0.357379 5.459858
vt -4.396259 5.459858
vt -5.569073 6.316329
vt -0.357375 6.316329
vt 3.681501 5.459858
vt 4.854322 6.316329
vt -3.278571 1.474087
vt -3.356706 1.441556
vt -3.356707 5.368457
vt -3.278571 5.459858
vt -3.278570 5.459858
vt -3.356570 5.369328
vt 5.037893 5.459858
vt 5.037889 6.317203
vt 10.249587 6.317203
vt 9.076774 5.459858
vt 0.999013 5.459858
vt -0.173809 6.317203
vt 7.959220 1.474086
vt 7.959220 5.459858
vt 8.037359 5.368455
vt 8.037358 1.441555
vt 7.959221 5.459858
vt 8.037221 5.369328
vt 0.349353 0.178505
vt 0.349263 0.825348
vt 0.305948 0.825432
vt 0.305855 0.178504
vt 0.629993 0.991517
vt 0.709687 0.984109
vt 0.711073 0.012596
vt 0.629993 0.012596
vt 0.771358 0.974043
vt 0.709691 0.984110
vt 0.711073 0.012596
vt 0.771358 0.012596
vt 0.771358 0.012596
vt 0.711073 0.012596
vt 0.709687 0.984109
vt 0.771358 0.973863
vt 0.262644 0.178508
vt 0.305855 0.178504
vt 0.305948 0.825432
vt 0.262642 0.825336
vt 0.709691 0.984110
vt 0.629993 0.991517
vt 0.629993 0.012596
vt 0.711073 0.012596
vt 0.541533 0.165918
vt 0.498774 0.186837
vt 0.498624 0.233751
vt 0.541222 0.262888
vt 0.584157 0.187111
vt 0.584157 0.234024
vt 0.349353 0.178505
vt 0.305855 0.178504
vt 0.305948 0.825432
vt 0.349263 0.825348
vt 0.629993 0.991517
vt 0.629993 0.012596
vt 0.711073 0.012596
vt 0.709687 0.984109
vt 0.771358 0.974043
vt 0.771358 0.012596
vt 0.711073 0.012596
vt 0.709691 0.984110
vt 0.771358 0.012596
vt 0.771358 0.973863
vt 0.709687 0.984109
vt 0.711073 0.012596
vt 0.262644 0.178508
vt 0.262642 0.825336
vt 0.305948 0.825432
vt 0.305855 0.178504
vt 0.709691 0.984110
vt 0.711073 0.012596
vt 0.629993 0.012596
vt 0.629993 0.991517
vt 0.541533 0.165918
vt 0.541222 0.262888
vt 0.498624 0.233751
vt 0.498774 0.186837
vt 0.584157 0.187111
vt 0.584157 0.234024
vt 0.349353 0.178505
vt 0.305855 0.178504
vt 0.305948 0.825432
vt 0.349263 0.825348
vt 0.629993 0.991517
vt 0.629993 0.012596
vt 0.711073 0.012596
vt 0.709687 0.984109
vt 0.771358 0.974043
vt 0.771358 0.012596
vt 0.711073 0.012596
vt 0.709691 0.984110
vt 0.771358 0.012596
vt 0.771358 0.973863
vt 0.709687 0.984109
vt 0.711073 0.012596
vt 0.262644 0.178508
vt 0.262642 0.825336
vt 0.305948 0.825432
vt 0.305855 0.178504
vt 0.709691 0.984110
vt 0.711073 0.012596
vt 0.629993 0.012596
vt 0.629993 0.991517
vt 0.541533 0.165918
vt 0.541222 0.262888
vt 0.498624 0.233751
vt 0.498774 0.186837
vt 0.584157 0.187111
vt 0.584157 0.234024
vt 0.349353 0.178505
vt 0.349263 0.825348
vt 0.305948 0.825432
vt 0.305855 0.178504
vt 0.629993 0.991517
vt 0.709687 0.984109
vt 0.711073 0.012596
vt 0.629993 0.012596
vt 0.771358 0.974043
vt 0.709691 0.984110
vt 0.711073 0.012596
vt 0.771358 0.012596
vt 0.771358 0.012596
vt 0.711073 0.012596
vt 0.709687 0.984109
vt 0.771358 0.973863
vt 0.262644 0.178508
vt 0.305855 0.178504
vt 0.305948 0.825432
vt 0.262642 0.825336
vt 0.709691 0.984110
vt 0.629993 0.991517
vt 0.629993 0.012596
vt 0.711073 0.012596
vt 0.541533 0.165918
vt 0.498774 0.186837
vt 0.498624 0.233751
vt 0.541222 0.262888
vt 0.584157 0.187111
vt 0.584157 0.234024
vn 0.000000 0.789363 -0.613927
vn 0.000000 0.826936 -0.562296
vn 0.000000 0.839169 -0.543871
vn 0.000000 0.789363 -0.613927
vn 0.000000 0.936873 -0.349670
vn 0.000000 0.936873 -0.349670
vn 0.000000 0.839169 -0.543871
vn 0.000000 0.789363 -0.613927
vn 0.000000 0.936873 -0.349670
vn 0.000000 0.839169 0.543870
vn 0.000000 0.826936 0.562296
vn 0.000000 0.789362 0.613929
vn 0.000000 0.789362 0.613929
vn 0.000000 0.936875 0.349665
vn 0.000000 0.936875 0.349665
vn 0.000000 0.839169 0.543870
vn 0.000000 0.789362 0.613929
vn 0.000000 0.936875 0.349665
vn -0.349261 0.937025 0.000000
vn -0.349261 0.937025 0.000000
vn -0.349261 0.937025 0.000000
vn -0.349261 0.937025 0.000000
vn -0.349261 0.937025 0.000000
vn -0.349261 0.937025 0.000000
vn -1.000000 -0.000001 0.000000
vn -1.000000 -0.000001 0.000000
vn -1.000000 0.000000 0.000001
vn -1.000000 0.000000 0.000001
vn -1.000000 -0.000001 0.000000
vn -1.000000 -0.000001 0.000000
vn 0.349261 0.937025 0.000000
vn 0.349261 0.937025 0.000000
vn 0.349261 0.937025 0.000000
vn 0.349261 0.937025 0.000000
vn 0.349261 0.937025 0.000000
vn 0.349261 0.937025 0.000000
vn 1.000000 -0.000001 0.000000
vn 1.000000 -0.000002 0.000001
vn 1.000000 -0.000002 0.000001
vn 1.000000 -0.000001 0.000000
vn 1.000000 -0.000000 0.000000
vn 1.000000 -0.000000 0.000000
vn -0.482861 -0.860532 0.162265
vn -0.482861 -0.860532 0.162265
vn -0.482861 -0.860532 0.162265
vn -0.482861 -0.860532 0.162265
vn -0.237355 0.802535 0.547357
vn -0.237355 0.802535 0.547357
vn -0.237355 0.802535 0.547357
vn -0.237355 0.802535 0.547357
vn 0.705787 -0.000030 -0.708424
vn 0.705787 -0.000030 -0.708424
vn 0.705787 -0.000030 -0.708424
vn 0.705787 -0.000030 -0.708424
vn -0.705800 -0.000023 0.708411
vn -0.705800 -0.000023 0.708411
vn -0.705800 -0.000023 0.708411
vn -0.705800 -0.000023 0.708411
vn 0.160411 -0.860570 -0.483413
vn 0.160411 -0.860570 -0.483413
vn 0.160411 -0.860570 -0.483413
vn 0.160411 -0.860570 -0.483413
vn 0.546511 0.802494 -0.239433
vn 0.546511 0.802494 -0.239433
vn 0.546511 0.802494 -0.239433
vn 0.546511 0.802494 -0.239433
vn 0.691942 -0.213931 0.689529
vn 0.685660 -0.213927 0.695777
vn 0.685660 -0.213927 0.695777
vn 0.691943 -0.213931 0.689528
vn 0.698171 -0.213918 0.683225
vn 0.698171 -0.213918 0.683225
vn 0.482861 -0.860532 0.162265
vn 0.482861 -0.860532 0.162265
vn 0.482861 -0.860532 0.162265
vn 0.482861 -0.860532 0.162265
vn 0.237355 0.802535 0.547358
vn 0.237355 0.802535 0.547358
vn 0.237355 0.802535 0.547358
vn 0.237355 0.802535 0.547358
vn -0.705786 -0.000029 -0.708425
vn -0.705787 -0.000029 -0.708425
vn -0.705786 -0.000029 -0.708425
vn -0.705787 -0.000029 -0.708425
vn 0.705801 -0.000023 0.708410
vn 0.705801 -0.000023 0.708410
vn 0.705801 -0.000023 0.708410
vn 0.705801 -0.000023 0.708410
vn -0.160411 -0.860570 -0.483413
vn -0.160411 -0.860570 -0.483413
vn -0.160411 -0.860570 -0.483413
vn -0.160411 -0.860570 -0.483413
vn -0.546513 0.802493 -0.239434
vn -0.546513 0.802493 -0.239434
vn -0.546513 0.802493 -0.239434
vn -0.546513 0.802493 -0.239434
vn -0.691942 -0.213930 0.689529
vn -0.691943 -0.213930 0.689528
vn -0.685660 -0.213924 0.695778
vn -0.685660 -0.213924 0.695778
vn -0.698171 -0.213918 0.683225
vn -0.698171 -0.213918 0.683225
vn -0.482861 -0.860532 -0.162265
vn -0.482861 -0.860532 -0.162265
vn -0.482861 -0.860532 -0.162265
vn -0.482861 -0.860532 -0.162265
vn -0.237354 0.802535 -0.547357
vn -0.237354 0.802535 -0.547357
vn -0.237354 0.802535 -0.547357
vn -0.237354 0.802535 -0.547357
vn 0.705786 -0.000030 0.708425
vn 0.705786 -0.000030 0.708425
vn 0.705786 -0.000030 0.708425
vn 0.705786 -0.000030 0.708425
vn -0.705801 -0.000023 -0.708410
vn -0.705801 -0.000023 -0.708410
vn -0.705801 -0.000023 -0.708410
vn -0.705801 -0.000023 -0.708410
vn 0.160410 -0.860570 0.483412
vn 0.160410 -0.860570 0.483412
vn 0.160410 -0.860570 0.483412
vn 0.160410 -0.860570 0.483412
vn 0.546511 0.802494 0.239434
vn 0.546511 0.802494 0.239434
vn 0.546511 0.802494 0.239434
vn 0.546511 0.802494 0.239434
vn 0.691944 -0.213930 -0.689527
vn 0.691944 -0.213930 -0.689527
vn 0.685663 -0.213926 -0.695775
vn 0.685663 -0.213926 -0.695775
vn 0.698170 -0.213918 -0.683226
vn 0.698170 -0.213918 -0.683226
vn 0.482860 -0.860532 -0.162265
vn 0.482860 -0.860532 -0.162265
vn 0.482860 -0.860532 -0.162265
vn 0.482860 -0.860532 -0.162265
vn 0.237353 0.802537 -0.547356
vn 0.237353 0.802537 -0.547356
vn 0.237353 0.802537 -0.547356
vn 0.237353 0.802537 -0.547356
vn -0.705787 -0.000026 0.708424
vn -0.705787 -0.000026 0.708424
vn -0.705787 -0.000026 0.708424
vn -0.705787 -0.000026 0.708424
vn 0.705800 -0.000026 -0.708412
vn 0.705800 -0.000026 -0.708412
vn 0.705800 -0.000026 -0.708412
vn 0.705800 -0.000026 -0.708412
vn -0.160409 -0.860571 0.483411
vn -0.160409 -0.860571 0.483411
vn -0.160409 -0.860571 0.483411
vn -0.160409 -0.860571 0.483411
vn -0.546513 0.802493 0.239434
vn -0.546513 0.802493 0.239434
vn -0.546513 0.802493 0.239434
vn -0.546513 0.802493 0.239434
vn -0.691944 -0.213930 -0.689527
vn -0.685663 -0.213927 -0.695774
vn -0.685663 -0.213927 -0.695774
vn -0.691944 -0.213930 -0.689527
vn -0.698170 -0.213916 -0.683226
vn -0.698170 -0.213916 -0.683226
usemtl material
f 1/0/1 2/0/2 3/0/3
f 1/0/1 3/0/3 4/0/4
f 2/0/2 5/0/5 3/0/3
f 2/0/2 6/0/6 5/0/5
f 1/0/1 7/0/7 2/0/2
f 1/0/1 8/0/8 7/0/7
f 2/0/2 7/0/7 9/0/9
f 2/0/2 9/0/9 6/0/6
f 10/0/10 11/0/11 12/0/12
f 10/0/10 12/0/12 13/0/13
f 14/0/14 11/0/11 10/0/10
f 14/0/14 15/0/15 11/0/11
f 16/0/16 12/0/12 11/0/11
f 16/0/16 17/0/17 12/0/12
f 18/0/18 16/0/16 11/0/11
f 18/0/18 11/0/11 15/0/15
f 19/0/19 20/0/20 21/0/21
f 19/0/19 21/0/21 22/0/22
f 23/0/23 19/0/19 22/0/22
f 23/0/23 22/0/22 24/0/24
f 25/0/25 26/0/26 27/0/27
f 25/0/25 27/0/27 28/0/28
f 29/0/29 26/0/26 25/0/25
f 29/0/29 30/0/30 26/0/26
f 31/0/31 32/0/32 33/0/33
f 31/0/31 33/0/33 34/0/34
f 35/0/35 32/0/32 31/0/31
f 35/0/35 36/0/36 32/0/32
f 37/0/37 38/0/38 39/0/39
f 37/0/37 39/0/39 40/0/40
f 41/0/41 37/0/37 40/0/40
f 41/0/41 40/0/40 42/0/42
f 43/0/43 44/0/44 45/0/45
f 43/0/43 45/0/45 46/0/46
f 47/0/47 48/0/48 49/0/49
f 47/0/47 49/0/49 50/0/50
f 51/0/51 52/0/52 53/0/53
f 51/0/51 53/0/53 54/0/54
f 55/0/55 56/0/56 57/0/57
f 55/0/55 57/0/57 58/0/58
f 59/0/59 60/0/60 61/0/61
f 59/0/59 61/0/61 62/0/62
f 63/0/63 64/0/64 65/0/65
f 63/0/63 65/0/65 66/0/66
f 67/0/67 68/0/68 69/0/69
f 67/0/67 69/0/69 70/0/70
f 71/0/71 67/0/67 70/0/70
f 71/0/71 70/0/70 72/0/72
f 73/0/73 74/0/74 75/0/75
f 73/0/73 75/0/75 76/0/76
f 77/0/77 78/0/78 79/0/79
f 77/0/77 79/0/79 80/0/80
f 81/0/81 82/0/82 83/0/83
f 81/0/81 83/0/83 84/0/84
f 85/0/85 86/0/86 87/0/87
f 85/0/85 87/0/87 88/0/88
f 89/0/89 90/0/90 91/0/91
f 89/0/89 91/0/91 92/0/92
f 93/0/93 94/0/94 95/0/95
f 93/0/93 95/0/95 96/0/96
f 97/0/97 98/0/98 99/0/99
f 97/0/97 99/0/99 100/0/100
f 101/0/101 98/0/98 97/0/97
f 101/0/101 102/0/102 98/0/98
f 103/0/103 104/0/104 105/0/105
f 103/0/103 105/0/105 106/0/106
f 107/0/107 108/0/108 109/0/109
f 107/0/107 109/0/109 110/0/110
f 111/0/111 112/0/112 113/0/113
f 111/0/111 113/0/113 114/0/114
f 115/0/115 116/0/116 117/0/117
f 115/0/115 117/0/117 118/0/118
f 119/0/119 120/0/120 121/0/121
f 119/0/119 121/0/121 122/0/122
f 123/0/123 124/0/124 125/0/125
f 123/0/123 125/0/125 126/0/126
f 127/0/127 128/0/128 129/0/129
f 127/0/127 129/0/129 130/0/130
f 131/0/131 128/0/128 127/0/127
f 131/0/131 132/0/132 128/0/128
f 133/0/133 134/0/134 135/0/135
f 133/0/133 135/0/135 136/0/136
f 137/0/137 138/0/138 139/0/139
f 137/0/137 139/0/139 140/0/140
f 141/0/141 142/0/142 143/0/143
f 141/0/141 143/0/143 144/0/144
f 145/0/145 146/0/146 147/0/147
f 145/0/145 147/0/147 148/0/148
f 149/0/149 150/0/150 151/0/151
f 149/0/149 151/0/151 152/0/152
f 153/0/153 154/0/154 155/0/155
f 153/0/153 155/0/155 156/0/156
f 157/0/157 158/0/158 159/0/159
f 157/0/157 159/0/159 160/0/160
f 161/0/161 157/0/157 160/0/160
f 161/0/161 160/0/160 162/0/162
