# 
# Wavefront OBJ file
# Created with Kaydara FBX
# 
mtllib c07_v #226142.mtl

g C07_V
v -0.341880 1.924656 -0.464641
v -0.341880 1.956907 -0.464641
v 0.345215 1.956907 -0.464641
v 0.345215 1.924656 -0.464641
v -0.341875 1.956907 0.464639
v 0.345220 1.956907 0.464639
v 0.345215 2.240703 0.000000
v -0.341880 2.240703 0.000000
v -0.341880 1.956907 -0.464641
v -0.341880 2.240703 0.000000
v 0.345215 2.240703 0.000000
v 0.345215 1.956907 -0.464641
vt 0.000040 0.002547
vt 0.000000 0.094604
vt 1.671621 0.093387
vt 1.671641 0.003664
vt -1.754993 -0.882799
vt -0.814178 -0.882802
vt -0.814179 -0.319994
vt -1.754994 -0.319980
vt -1.754993 -0.882799
vt -1.754994 -0.319980
vt -0.814179 -0.319994
vt -0.814178 -0.882802
vn 0.000000 0.000000 -1.000000
vn 0.000000 0.000000 -1.000000
vn 0.000000 0.000000 -1.000000
vn 0.000000 0.000000 -1.000000
vn 0.000000 0.853404 0.521250
vn 0.000000 0.853404 0.521250
vn 0.000000 0.853404 0.521250
vn 0.000000 0.853404 0.521250
vn 0.000000 0.853405 -0.521248
vn 0.000000 0.853405 -0.521248
vn 0.000000 0.853405 -0.521248
vn 0.000000 0.853405 -0.521248
usemtl material
f 1/0/1 2/0/2 3/0/3
f 1/0/1 3/0/3 4/0/4
f 5/0/5 6/0/6 7/0/7
f 5/0/5 7/0/7 8/0/8
f 9/0/9 10/0/10 11/0/11
f 9/0/9 11/0/11 12/0/12
