# 
# Wavefront OBJ file
# Created with Kaydara FBX
# 
mtllib c09 #226175.mtl

g C09
v -15.321811 9.494926 -5.738164
v -0.904712 9.494926 -5.738154
v -0.904712 9.427237 -5.863144
v -15.321811 9.427237 -5.863164
v -15.321811 9.211924 -5.738164
v -15.321811 9.494926 -5.738164
v -15.321811 9.427237 -5.863164
v -15.321811 9.152910 -5.863164
v -15.321806 9.152910 -5.613164
v -15.321806 9.427237 -5.613164
v -15.321806 9.152910 -5.613164
v -0.904712 9.152920 -5.613154
v -0.904712 9.427237 -5.613154
v -15.321806 9.427237 -5.613164
v -0.904712 9.211924 -5.738154
v -0.904712 9.494926 -5.738154
v -0.904712 9.427237 -5.613154
v -0.904712 9.152920 -5.613154
v -0.904712 9.152920 -5.863144
v -0.904712 9.427237 -5.863144
v -0.904712 9.152920 -5.863144
v -15.321811 9.152910 -5.863164
v -15.321811 9.427237 -5.863164
v -0.904712 9.427237 -5.863144
v -15.321806 9.427237 -5.613164
v -0.904712 9.427237 -5.613154
v -0.904712 9.494926 -5.738154
v -15.321811 9.494926 -5.738164
v -14.514428 5.489746 -10.598926
v -14.914135 5.489746 -10.598926
v -14.714282 5.650674 -10.610957
v -14.914135 9.270205 -5.738164
v -14.714282 9.479492 -5.738164
v -14.714282 5.650674 -10.610957
v -14.914135 5.489746 -10.598926
v -14.914135 9.270205 -5.738164
v -14.914135 5.489751 -0.877432
v -14.714282 5.650674 -0.865381
v -14.714282 9.479492 -5.738164
v -14.514428 9.270205 -5.738164
v -14.514428 5.489746 -10.598926
v -14.714282 5.650674 -10.610957
v -14.714282 9.479492 -5.738164
v -14.914135 5.489751 -0.877432
v -14.514428 5.489751 -0.877432
v -14.714282 5.650674 -0.865381
v -14.714282 5.650674 -0.865381
v -14.514428 5.489751 -0.877432
v -14.514428 9.270205 -5.738164
v -14.714282 9.479492 -5.738164
v -1.707314 5.489746 -10.598926
v -1.507461 5.650674 -10.610957
v -1.307607 5.489746 -10.598926
v -1.307607 9.270205 -5.738164
v -1.307607 5.489746 -10.598926
v -1.507461 5.650674 -10.610957
v -1.507461 9.479492 -5.738164
v -1.307607 9.270205 -5.738164
v -1.507461 9.479492 -5.738164
v -1.507461 5.650674 -0.865381
v -1.307607 5.489751 -0.877432
v -1.707314 9.270205 -5.738164
v -1.507461 9.479492 -5.738164
v -1.507461 5.650674 -10.610957
v -1.707314 5.489746 -10.598926
v -1.307607 5.489751 -0.877432
v -1.507461 5.650674 -0.865381
v -1.707314 5.489751 -0.877432
v -1.507461 5.650674 -0.865381
v -1.507461 9.479492 -5.738164
v -1.707314 9.270205 -5.738164
v -1.707314 5.489751 -0.877432
v -8.110869 4.962944 -12.010390
v -8.110869 4.847197 -12.010390
v -16.757656 4.847197 -12.010390
v -16.757656 4.962944 -12.010390
v -8.110869 4.962944 -12.010390
v 0.535918 4.847197 -12.010390
v 0.535918 4.962944 -12.010390
v -16.757647 4.962944 0.534063
v -16.757647 4.847197 0.534063
v -8.110869 4.847197 0.534063
v -8.110869 4.962944 0.534063
v 0.535908 4.962944 0.534063
v -8.110869 4.847197 0.534063
v 0.535908 4.847197 0.534063
v -16.757656 4.962944 -12.010390
v -16.757656 4.847197 -12.010390
v -16.757647 4.847197 -5.738164
v -16.757647 4.962944 -5.738164
v -16.757647 4.962944 0.534063
v -16.757647 4.847197 0.534063
v -8.110869 4.847197 -12.010390
v -8.110869 4.847197 -11.891191
v -16.638456 4.847197 -11.891191
v -16.757656 4.847197 -12.010390
v 0.535918 4.847197 -12.010390
v 0.416719 4.847197 -11.891191
v -8.110869 4.847197 -11.891191
v -16.757647 4.847197 0.534063
v -16.638447 4.847197 0.414863
v -8.110869 4.847197 0.414863
v -8.110869 4.847197 0.534063
v -16.757656 4.847197 -12.010390
v -16.638456 4.847197 -11.891191
v -16.638447 4.847197 -5.738164
v -16.757647 4.847197 -5.738164
v -16.757647 4.847197 0.534063
v -16.638447 4.847197 0.414863
v 0.535918 4.962944 -12.010390
v 0.535908 4.962944 -5.738164
v 0.535908 4.847197 -5.738164
v 0.535918 4.847197 -12.010390
v 0.535908 4.962944 0.534063
v 0.535908 4.847197 0.534063
v 0.535908 4.847197 0.534063
v -8.110869 4.847197 0.534063
v -8.110869 4.847197 0.414863
v 0.416709 4.847197 0.414863
v 0.535918 4.847197 -12.010390
v 0.535908 4.847197 -5.738164
v 0.416709 4.847197 -5.738164
v 0.416719 4.847197 -11.891191
v 0.535908 4.847197 0.534063
v 0.416709 4.847197 0.414863
vt 4.117824 0.154309
vt -2.260627 0.154324
vt -2.260641 0.188738
vt 4.117818 0.189241
vt 0.326377 0.022380
vt 0.323101 0.099762
vt 0.290106 0.085031
vt 0.277583 0.004037
vt 0.361713 0.007603
vt 0.366011 0.081287
vt 4.117820 0.106374
vt -2.260578 0.106297
vt -2.260635 0.119412
vt 4.117812 0.119049
vt 0.326821 0.022486
vt 0.322889 0.099991
vt 0.289897 0.085515
vt 0.277501 0.004417
vt 0.361284 0.008440
vt 0.366333 0.079685
vt -2.260626 0.202124
vt 4.117887 0.202583
vt 4.117818 0.189241
vt -2.260641 0.188738
vt 4.117812 0.119049
vt -2.260635 0.119412
vt -2.260627 0.154324
vt 4.117824 0.154309
vt 0.622972 0.017681
vt 0.424323 0.017681
vt 0.523648 0.117005
vt -0.475537 0.119241
vt -0.475537 0.196874
vt 2.342649 0.196874
vt 2.342649 0.119241
vt 2.342649 0.119241
vt -0.475537 0.119241
vt -0.475537 0.196874
vt 2.342649 0.196874
vt -0.475537 0.119241
vt 2.342649 0.119241
vt 2.342649 0.196874
vt -0.475537 0.196874
vt 0.622972 0.017681
vt 0.424323 0.017681
vt 0.523648 0.117005
vt -0.475537 0.119241
vt -0.475537 0.196874
vt 2.342649 0.196874
vt 2.342649 0.119241
vt 0.622972 0.017681
vt 0.523648 0.117005
vt 0.424323 0.017681
vt -0.475537 0.119241
vt 2.342649 0.119241
vt 2.342649 0.196874
vt -0.475537 0.196874
vt 2.342649 0.119241
vt 2.342649 0.196874
vt -0.475537 0.196874
vt -0.475537 0.119241
vt -0.475537 0.119241
vt -0.475537 0.196874
vt 2.342649 0.196874
vt 2.342649 0.119241
vt 0.622972 0.017681
vt 0.523648 0.117005
vt 0.424323 0.017681
vt -0.475537 0.119241
vt 2.342649 0.119241
vt 2.342649 0.196874
vt -0.475537 0.196874
vt 5.334760 0.005047
vt 5.335172 0.101444
vt -1.373944 0.101442
vt -1.373944 0.005026
vt 5.336267 0.005049
vt 12.044971 0.101445
vt 12.044971 0.005029
vt -1.373944 0.005029
vt -1.373944 0.101446
vt 5.335169 0.101446
vt 5.336267 0.005049
vt 12.046477 0.005029
vt 5.337365 0.101446
vt 12.046477 0.101446
vt 6.417756 0.005026
vt 6.417758 0.101442
vt 1.209953 0.101445
vt 1.209949 0.005028
vt -3.997859 0.005031
vt -3.997852 0.101448
vt 5.335172 0.101444
vt 5.334941 0.143240
vt -1.281457 0.143242
vt -1.373944 0.101442
vt 12.044971 0.101445
vt 11.952483 0.143244
vt 5.336085 0.143243
vt -1.373944 0.101446
vt -1.281457 0.143246
vt 5.334958 0.143274
vt 5.335169 0.101446
vt 6.417758 0.101442
vt 6.318788 0.143244
vt 1.209954 0.143245
vt 1.209953 0.101445
vt -3.997852 0.101448
vt -3.898880 0.143246
vt -3.997858 0.005026
vt 1.209949 0.005028
vt 1.209944 0.101445
vt -3.997860 0.101442
vt 6.417755 0.005031
vt 6.417749 0.101448
vt 12.046477 0.101446
vt 5.337365 0.101446
vt 5.337575 0.143274
vt 11.953990 0.143246
vt -3.997860 0.101442
vt 1.209944 0.101445
vt 1.209942 0.143245
vt -3.898891 0.143244
vt 6.417749 0.101448
vt 6.318777 0.143246
vn 0.000000 0.879337 -0.476200
vn 0.000000 0.879337 -0.476200
vn 0.000000 0.879337 -0.476200
vn 0.000000 0.879337 -0.476200
vn -1.000000 0.000000 0.000020
vn -1.000000 0.000000 0.000020
vn -1.000000 0.000000 0.000000
vn -1.000000 0.000000 0.000000
vn -1.000000 0.000000 0.000039
vn -1.000000 0.000000 0.000039
vn -0.000001 0.000000 1.000000
vn -0.000001 0.000000 1.000000
vn -0.000001 0.000000 1.000000
vn -0.000001 0.000000 1.000000
vn 1.000000 0.000000 0.000000
vn 1.000000 0.000000 0.000000
vn 1.000000 0.000000 0.000000
vn 1.000000 0.000000 0.000000
vn 1.000000 0.000000 0.000000
vn 1.000000 0.000000 0.000000
vn 0.000001 0.000000 -1.000000
vn 0.000001 0.000000 -1.000000
vn 0.000001 0.000000 -1.000000
vn 0.000001 0.000000 -1.000000
vn -0.000000 0.879347 0.476181
vn -0.000000 0.879347 0.476181
vn -0.000000 0.879347 0.476181
vn -0.000000 0.879347 0.476181
vn 0.000000 -0.074553 -0.997217
vn 0.000000 -0.074553 -0.997217
vn 0.000000 -0.074553 -0.997217
vn -0.599096 0.630798 -0.493131
vn -0.599096 0.630798 -0.493131
vn -0.599096 0.630798 -0.493131
vn -0.599096 0.630798 -0.493131
vn -0.599106 0.630792 0.493125
vn -0.599106 0.630792 0.493126
vn -0.599106 0.630792 0.493125
vn -0.599106 0.630792 0.493125
vn 0.599097 0.630796 -0.493132
vn 0.599097 0.630796 -0.493132
vn 0.599097 0.630796 -0.493132
vn 0.599097 0.630796 -0.493132
vn 0.000000 -0.074676 0.997208
vn 0.000000 -0.074676 0.997208
vn 0.000000 -0.074676 0.997208
vn 0.599108 0.630789 0.493127
vn 0.599108 0.630789 0.493127
vn 0.599108 0.630789 0.493127
vn 0.599108 0.630789 0.493127
vn 0.000000 -0.074553 -0.997217
vn 0.000000 -0.074553 -0.997217
vn 0.000000 -0.074553 -0.997217
vn 0.599095 0.630798 -0.493131
vn 0.599095 0.630798 -0.493131
vn 0.599095 0.630798 -0.493131
vn 0.599095 0.630798 -0.493131
vn 0.599108 0.630790 0.493126
vn 0.599108 0.630790 0.493126
vn 0.599108 0.630790 0.493126
vn 0.599108 0.630790 0.493126
vn -0.599096 0.630798 -0.493131
vn -0.599096 0.630798 -0.493131
vn -0.599096 0.630798 -0.493131
vn -0.599096 0.630798 -0.493131
vn 0.000000 -0.074676 0.997208
vn 0.000000 -0.074676 0.997208
vn 0.000000 -0.074676 0.997208
vn -0.599108 0.630790 0.493127
vn -0.599108 0.630790 0.493126
vn -0.599108 0.630790 0.493127
vn -0.599108 0.630790 0.493127
vn 0.000000 0.000000 -1.000000
vn 0.000000 0.000000 -1.000000
vn 0.000000 0.000000 -1.000000
vn 0.000000 0.000000 -1.000000
vn 0.000000 0.000000 -1.000000
vn 0.000000 0.000000 -1.000000
vn 0.000000 0.000000 -1.000000
vn 0.000000 0.000000 1.000000
vn 0.000000 0.000000 1.000000
vn 0.000000 0.000000 1.000000
vn 0.000000 0.000000 1.000000
vn 0.000000 0.000000 1.000000
vn 0.000000 0.000000 1.000000
vn 0.000000 0.000000 1.000000
vn -1.000000 0.000000 0.000002
vn -1.000000 0.000000 0.000002
vn -1.000000 0.000000 0.000001
vn -1.000000 0.000000 0.000001
vn -1.000000 0.000000 0.000000
vn -1.000000 0.000000 0.000000
vn 0.000000 -1.000000 -0.000003
vn 0.000000 -1.000000 -0.000003
vn 0.000000 -1.000000 -0.000002
vn 0.000000 -1.000000 -0.000002
vn 0.000000 -1.000000 -0.000002
vn 0.000000 -1.000000 -0.000002
vn 0.000000 -1.000000 -0.000003
vn 0.000000 -1.000000 -0.000000
vn 0.000000 -1.000000 -0.000000
vn 0.000000 -1.000000 -0.000000
vn 0.000000 -1.000000 -0.000000
vn 0.000000 -1.000000 -0.000002
vn 0.000000 -1.000000 -0.000002
vn 0.000000 -1.000000 0.000000
vn 0.000000 -1.000000 0.000000
vn 0.000000 -1.000000 -0.000000
vn 0.000000 -1.000000 -0.000000
vn 1.000000 0.000000 0.000002
vn 1.000000 0.000000 0.000001
vn 1.000000 0.000000 0.000001
vn 1.000000 0.000000 0.000002
vn 1.000000 0.000000 0.000000
vn 1.000000 0.000000 0.000000
vn 0.000000 -1.000000 0.000000
vn 0.000000 -1.000000 -0.000000
vn 0.000000 -1.000000 -0.000000
vn 0.000000 -1.000000 0.000000
vn 0.000000 -1.000000 -0.000002
vn 0.000000 -1.000000 0.000000
vn 0.000000 -1.000000 0.000000
vn 0.000000 -1.000000 -0.000002
vn 0.000000 -1.000000 0.000000
vn 0.000000 -1.000000 0.000000
usemtl material
f 1/0/1 2/0/2 3/0/3
f 1/0/1 3/0/3 4/0/4
f 5/0/5 6/0/6 7/0/7
f 5/0/5 7/0/7 8/0/8
f 9/0/9 6/0/6 5/0/5
f 9/0/9 10/0/10 6/0/6
f 11/0/11 12/0/12 13/0/13
f 11/0/11 13/0/13 14/0/14
f 15/0/15 16/0/16 17/0/17
f 15/0/15 17/0/17 18/0/18
f 19/0/19 16/0/16 15/0/15
f 19/0/19 20/0/20 16/0/16
f 21/0/21 22/0/22 23/0/23
f 21/0/21 23/0/23 24/0/24
f 25/0/25 26/0/26 27/0/27
f 25/0/25 27/0/27 28/0/28
f 29/0/29 30/0/30 31/0/31
f 32/0/32 33/0/33 34/0/34
f 32/0/32 34/0/34 35/0/35
f 36/0/36 37/0/37 38/0/38
f 36/0/36 38/0/38 39/0/39
f 40/0/40 41/0/41 42/0/42
f 40/0/40 42/0/42 43/0/43
f 44/0/44 45/0/45 46/0/46
f 47/0/47 48/0/48 49/0/49
f 47/0/47 49/0/49 50/0/50
f 51/0/51 52/0/52 53/0/53
f 54/0/54 55/0/55 56/0/56
f 54/0/54 56/0/56 57/0/57
f 58/0/58 59/0/59 60/0/60
f 58/0/58 60/0/60 61/0/61
f 62/0/62 63/0/63 64/0/64
f 62/0/62 64/0/64 65/0/65
f 66/0/66 67/0/67 68/0/68
f 69/0/69 70/0/70 71/0/71
f 69/0/69 71/0/71 72/0/72
f 73/0/73 74/0/74 75/0/75
f 73/0/73 75/0/75 76/0/76
f 77/0/77 78/0/78 74/0/74
f 77/0/77 79/0/79 78/0/78
f 80/0/80 81/0/81 82/0/82
f 80/0/80 82/0/82 83/0/83
f 84/0/84 83/0/83 85/0/85
f 84/0/84 85/0/85 86/0/86
f 87/0/87 88/0/88 89/0/89
f 87/0/87 89/0/89 90/0/90
f 89/0/89 91/0/91 90/0/90
f 89/0/89 92/0/92 91/0/91
f 93/0/93 94/0/94 95/0/95
f 93/0/93 95/0/95 96/0/96
f 93/0/93 97/0/97 98/0/98
f 93/0/93 98/0/98 99/0/99
f 100/0/100 101/0/101 102/0/102
f 100/0/100 102/0/102 103/0/103
f 104/0/104 105/0/105 106/0/106
f 104/0/104 106/0/106 107/0/107
f 106/0/106 108/0/108 107/0/107
f 106/0/106 109/0/109 108/0/108
f 110/0/110 111/0/111 112/0/112
f 110/0/110 112/0/112 113/0/113
f 112/0/112 111/0/111 114/0/114
f 112/0/112 114/0/114 115/0/115
f 116/0/116 117/0/117 118/0/118
f 116/0/116 118/0/118 119/0/119
f 120/0/120 121/0/121 122/0/122
f 120/0/120 122/0/122 123/0/123
f 122/0/122 121/0/121 124/0/124
f 122/0/122 124/0/124 125/0/125
