# 
# Wavefront OBJ file
# Created with Kaydara FBX
# 
mtllib c09 #226184.mtl

g C09
v -7.263515 4.710927 -9.861611
v -7.263515 4.810469 -9.960869
v -4.694404 4.810469 -9.960869
v -4.694404 4.710927 -9.861611
v -8.548076 4.891997 -9.960869
v -8.548076 4.791914 -9.861611
v -9.832637 4.954926 -9.861611
v -9.930254 5.096362 -9.959229
v -2.125293 4.710927 -9.861611
v -2.125293 4.810469 -9.960869
v -0.840732 4.891997 -9.960869
v -0.840732 4.791914 -9.861611
v 0.443828 4.954926 -9.861611
v 0.541445 5.096362 -9.959229
v -7.641133 6.061255 -7.670107
v -4.694404 6.061255 -7.663994
v -4.694404 5.953012 -7.555732
v -7.526758 5.953012 -7.555732
v -1.747676 6.061255 -7.670107
v -1.862051 5.953012 -7.555732
v -9.832637 4.710927 -2.154268
v -9.931894 4.810469 -2.154268
v -9.931894 4.810469 -4.723379
v -9.832637 4.710927 -4.723379
v -9.931894 4.891997 -0.869707
v -9.832637 4.791914 -0.869707
v -9.832637 4.954926 0.414854
v -9.930254 5.096362 0.512471
v -9.832637 4.710927 -7.292490
v -9.931894 4.810469 -7.292490
v -9.931894 4.891997 -8.577050
v -9.832637 4.791914 -8.577050
v -9.832637 4.954926 -9.861611
v -9.930254 5.096362 -9.959229
v -7.641133 6.061255 -1.776650
v -7.635019 6.061255 -4.723379
v -7.526758 5.953012 -4.723379
v -7.526758 5.953012 -1.891025
v -7.641133 6.061255 -7.670107
v -7.526758 5.953012 -7.555732
v -2.125293 4.710927 0.414854
v -2.125293 4.810469 0.514111
v -4.694404 4.810469 0.514111
v -4.694404 4.710927 0.414854
v -0.840732 4.891997 0.514111
v -0.840732 4.791914 0.414854
v 0.443828 4.954926 0.414854
v 0.541445 5.096362 0.512471
v -7.263515 4.710927 0.414854
v -7.263515 4.810469 0.514111
v -8.548076 4.891997 0.514111
v -8.548076 4.791914 0.414854
v -9.832637 4.954926 0.414854
v -9.930254 5.096362 0.512471
v -1.747676 6.061255 -1.776650
v -4.694404 6.061255 -1.782764
v -4.694404 5.953012 -1.891025
v -1.862051 5.953012 -1.891025
v -7.641133 6.061255 -1.776650
v -7.526758 5.953012 -1.891025
v 0.443828 4.710927 -7.292490
v 0.543086 4.810469 -7.292490
v 0.543086 4.810469 -4.723379
v 0.443828 4.710927 -4.723379
v 0.543086 4.891997 -8.577050
v 0.443828 4.791914 -8.577050
v 0.443828 4.954926 -9.861611
v 0.541445 5.096362 -9.959229
v 0.443828 4.710927 -2.154268
v 0.543086 4.810469 -2.154268
v 0.543086 4.891997 -0.869707
v 0.443828 4.791914 -0.869707
v 0.443828 4.954926 0.414854
v 0.541445 5.096362 0.512471
v -1.747676 6.061255 -7.670107
v -1.753789 6.061255 -4.723379
v -1.862051 5.953012 -4.723379
v -1.862051 5.953012 -7.555732
v -1.747676 6.061255 -1.776650
v -1.862051 5.953012 -1.891025
vt 4.019972 1.101604
vt 4.018265 0.997805
vt 6.118209 0.997805
vt 6.118178 1.101604
vt 2.960585 0.997805
vt 2.968420 1.101604
vt 1.980807 1.101604
vt 1.893270 0.997805
vt 8.216385 1.102825
vt 8.218152 0.999027
vt 9.275831 0.999642
vt 9.267937 1.103437
vt 10.255550 1.104011
vt 10.343146 1.000263
vt 3.245999 0.997805
vt 5.526917 0.997805
vt 5.526911 1.101604
vt 3.339077 1.101604
vt 7.807836 0.998070
vt 7.714746 1.101859
vt 4.019972 1.101604
vt 4.018265 0.997805
vt 6.118209 0.997805
vt 6.118178 1.101604
vt 2.960585 0.997805
vt 2.968420 1.101604
vt 1.980807 1.101604
vt 1.893270 0.997805
vt 8.216385 1.102825
vt 8.218152 0.999027
vt 9.275831 0.999642
vt 9.267937 1.103437
vt 10.255550 1.104011
vt 10.343146 1.000263
vt 3.245999 0.997805
vt 5.526917 0.997805
vt 5.526911 1.101604
vt 3.339077 1.101604
vt 7.807836 0.998070
vt 7.714746 1.101859
vt 4.019972 1.101604
vt 4.018265 0.997805
vt 6.118209 0.997805
vt 6.118178 1.101604
vt 2.960585 0.997805
vt 2.968420 1.101604
vt 1.980807 1.101604
vt 1.893270 0.997805
vt 8.216385 1.102825
vt 8.218152 0.999027
vt 9.275831 0.999642
vt 9.267937 1.103437
vt 10.255550 1.104011
vt 10.343146 1.000263
vt 3.245999 0.997805
vt 5.526917 0.997805
vt 5.526911 1.101604
vt 3.339077 1.101604
vt 7.807836 0.998070
vt 7.714746 1.101859
vt 4.019972 1.101604
vt 4.018265 0.997805
vt 6.118209 0.997805
vt 6.118178 1.101604
vt 2.960585 0.997805
vt 2.968420 1.101604
vt 1.980807 1.101604
vt 1.893270 0.997805
vt 8.216385 1.102825
vt 8.218152 0.999027
vt 9.275831 0.999642
vt 9.267937 1.103437
vt 10.255550 1.104011
vt 10.343146 1.000263
vt 3.245999 0.997805
vt 5.526917 0.997805
vt 5.526911 1.101604
vt 3.339077 1.101604
vt 7.807836 0.998070
vt 7.714746 1.101859
vn -0.014596 -0.705709 -0.708352
vn -0.015160 -0.705690 -0.708358
vn 0.000000 -0.706099 -0.708113
vn 0.000000 -0.706099 -0.708113
vn -0.069690 -0.675569 -0.733996
vn -0.067652 -0.677969 -0.731971
vn -0.090133 -0.650894 -0.753799
vn -0.090133 -0.650894 -0.753799
vn 0.014596 -0.705708 -0.708352
vn 0.015160 -0.705690 -0.708358
vn 0.069690 -0.675569 -0.733996
vn 0.067652 -0.677969 -0.731970
vn 0.090133 -0.650894 -0.753799
vn 0.090133 -0.650894 -0.753799
vn 0.000738 -0.716754 -0.697326
vn 0.000000 -0.716754 -0.697326
vn 0.000000 -0.716754 -0.697326
vn 0.000738 -0.716754 -0.697326
vn -0.000738 -0.716754 -0.697326
vn -0.000738 -0.716754 -0.697326
vn -0.708353 -0.705707 0.014596
vn -0.708360 -0.705689 0.015161
vn -0.708115 -0.706097 0.000000
vn -0.708115 -0.706097 0.000000
vn -0.733997 -0.675567 0.069690
vn -0.731972 -0.677968 0.067652
vn -0.753800 -0.650892 0.090133
vn -0.753800 -0.650892 0.090133
vn -0.708353 -0.705707 -0.014596
vn -0.708360 -0.705689 -0.015161
vn -0.733998 -0.675567 -0.069690
vn -0.731972 -0.677968 -0.067652
vn -0.753801 -0.650892 -0.090133
vn -0.753801 -0.650892 -0.090133
vn -0.697326 -0.716754 -0.000738
vn -0.697326 -0.716754 0.000000
vn -0.697326 -0.716754 0.000000
vn -0.697326 -0.716754 -0.000738
vn -0.697325 -0.716754 0.000738
vn -0.697325 -0.716754 0.000738
vn 0.014596 -0.705708 0.708352
vn 0.015161 -0.705690 0.708358
vn 0.000000 -0.706099 0.708113
vn 0.000000 -0.706099 0.708113
vn 0.069690 -0.675569 0.733996
vn 0.067652 -0.677969 0.731971
vn 0.090133 -0.650894 0.753799
vn 0.090133 -0.650894 0.753799
vn -0.014596 -0.705709 0.708352
vn -0.015161 -0.705690 0.708358
vn -0.069690 -0.675569 0.733996
vn -0.067652 -0.677969 0.731970
vn -0.090133 -0.650894 0.753799
vn -0.090133 -0.650894 0.753799
vn -0.000738 -0.716754 0.697326
vn 0.000000 -0.716754 0.697326
vn 0.000000 -0.716754 0.697326
vn -0.000738 -0.716754 0.697326
vn 0.000738 -0.716754 0.697326
vn 0.000738 -0.716754 0.697326
vn 0.708352 -0.705708 -0.014596
vn 0.708358 -0.705690 -0.015161
vn 0.708113 -0.706099 0.000000
vn 0.708113 -0.706099 0.000000
vn 0.733996 -0.675568 -0.069690
vn 0.731971 -0.677969 -0.067652
vn 0.753800 -0.650893 -0.090133
vn 0.753800 -0.650893 -0.090133
vn 0.708352 -0.705708 0.014596
vn 0.708358 -0.705690 0.015161
vn 0.733997 -0.675568 0.069690
vn 0.731971 -0.677969 0.067652
vn 0.753800 -0.650893 0.090133
vn 0.753800 -0.650893 0.090133
vn 0.697326 -0.716754 0.000738
vn 0.697326 -0.716754 0.000000
vn 0.697326 -0.716754 0.000000
vn 0.697326 -0.716754 0.000738
vn 0.697326 -0.716754 -0.000738
vn 0.697326 -0.716754 -0.000738
usemtl material
f 1/0/1 2/0/2 3/0/3
f 1/0/1 3/0/3 4/0/4
f 5/0/5 2/0/2 1/0/1
f 5/0/5 1/0/1 6/0/6
f 7/0/7 5/0/5 6/0/6
f 7/0/7 8/0/8 5/0/5
f 9/0/9 4/0/4 3/0/3
f 9/0/9 3/0/3 10/0/10
f 11/0/11 9/0/9 10/0/10
f 11/0/11 12/0/12 9/0/9
f 13/0/13 12/0/12 11/0/11
f 13/0/13 11/0/11 14/0/14
f 15/0/15 16/0/16 17/0/17
f 15/0/15 17/0/17 18/0/18
f 19/0/19 17/0/17 16/0/16
f 19/0/19 20/0/20 17/0/17
f 21/0/21 22/0/22 23/0/23
f 21/0/21 23/0/23 24/0/24
f 25/0/25 22/0/22 21/0/21
f 25/0/25 21/0/21 26/0/26
f 27/0/27 25/0/25 26/0/26
f 27/0/27 28/0/28 25/0/25
f 29/0/29 24/0/24 23/0/23
f 29/0/29 23/0/23 30/0/30
f 31/0/31 29/0/29 30/0/30
f 31/0/31 32/0/32 29/0/29
f 33/0/33 32/0/32 31/0/31
f 33/0/33 31/0/31 34/0/34
f 35/0/35 36/0/36 37/0/37
f 35/0/35 37/0/37 38/0/38
f 39/0/39 37/0/37 36/0/36
f 39/0/39 40/0/40 37/0/37
f 41/0/41 42/0/42 43/0/43
f 41/0/41 43/0/43 44/0/44
f 45/0/45 42/0/42 41/0/41
f 45/0/45 41/0/41 46/0/46
f 47/0/47 45/0/45 46/0/46
f 47/0/47 48/0/48 45/0/45
f 49/0/49 44/0/44 43/0/43
f 49/0/49 43/0/43 50/0/50
f 51/0/51 49/0/49 50/0/50
f 51/0/51 52/0/52 49/0/49
f 53/0/53 52/0/52 51/0/51
f 53/0/53 51/0/51 54/0/54
f 55/0/55 56/0/56 57/0/57
f 55/0/55 57/0/57 58/0/58
f 59/0/59 57/0/57 56/0/56
f 59/0/59 60/0/60 57/0/57
f 61/0/61 62/0/62 63/0/63
f 61/0/61 63/0/63 64/0/64
f 65/0/65 62/0/62 61/0/61
f 65/0/65 61/0/61 66/0/66
f 67/0/67 65/0/65 66/0/66
f 67/0/67 68/0/68 65/0/65
f 69/0/69 64/0/64 63/0/63
f 69/0/69 63/0/63 70/0/70
f 71/0/71 69/0/69 70/0/70
f 71/0/71 72/0/72 69/0/69
f 73/0/73 72/0/72 71/0/71
f 73/0/73 71/0/71 74/0/74
f 75/0/75 76/0/76 77/0/77
f 75/0/75 77/0/77 78/0/78
f 79/0/79 77/0/77 76/0/76
f 79/0/79 80/0/80 77/0/77
