# 
# Wavefront OBJ file
# Created with Kaydara FBX
# 
mtllib c1 #225821.mtl

g C1
v -70.000000 0.577245 3.761456
v -70.000000 0.577245 -8.751101
v -90.000000 0.577245 -8.751101
v -90.000000 0.577245 3.761456
v -50.000000 0.577245 3.761461
v -50.000000 0.577245 -8.751101
v -70.000000 0.577245 -8.751101
v -70.000000 0.577245 3.761461
v -30.000000 0.577245 3.761466
v -30.000000 0.577245 -8.751090
v -50.000000 0.577245 -8.751090
v -50.000000 0.577245 3.761466
v -10.000000 0.577245 3.761471
v -10.000000 0.577245 -8.751090
v -30.000000 0.577245 -8.751090
v -30.000000 0.577245 3.761471
v 10.000000 0.577245 3.761475
v 10.000000 0.577245 -8.751081
v -10.000000 0.577245 -8.751081
v -10.000000 0.577245 3.761475
v 30.000000 0.577245 3.761480
v 30.000000 0.577245 -8.751081
v 10.000000 0.577245 -8.751081
v 10.000000 0.577245 3.761480
v 50.000000 0.577245 3.761485
v 50.000000 0.577245 -8.751071
v 30.000000 0.577245 -8.751071
v 30.000000 0.577245 3.761485
v 70.000000 0.577245 3.761490
v 70.000000 0.577245 -8.751071
v 50.000000 0.577245 -8.751071
v 50.000000 0.577245 3.761490
v 90.000000 0.577245 3.761495
v 90.000000 0.577245 -8.751061
v 70.000000 0.577245 -8.751061
v 70.000000 0.577245 3.761495
v -57.476601 -0.387736 -8.749675
v -57.476601 -0.387736 -11.277144
v -59.985886 -0.387736 -11.277144
v -59.985886 -0.387736 -8.749675
v 82.498329 -0.577245 -8.749675
v 82.498329 -0.577245 -11.277144
v 79.989044 -0.577245 -11.277144
v 79.989044 -0.577245 -8.749675
v 17.443464 -0.347239 8.785408
v 22.437883 -0.347239 8.785408
v 17.443464 -0.347239 3.761473
v 22.437880 -0.347239 6.273658
v 37.443462 -0.347239 3.761473
v 27.432613 -0.347239 6.273658
v 32.424244 -0.347239 8.759942
v 32.424244 -0.347239 11.277132
v 37.443462 -0.347239 11.277143
v 27.432613 -0.347239 8.759942
vt 0.999705 -4.500142
vt 0.999727 -1.997721
vt 4.999639 -1.997722
vt 4.999625 -4.500142
vt 0.999705 -4.500142
vt 0.999727 -1.997721
vt 4.999639 -1.997722
vt 4.999625 -4.500142
vt 0.999705 -4.500142
vt 0.999727 -1.997721
vt 4.999639 -1.997722
vt 4.999625 -4.500142
vt 0.999705 -4.500142
vt 0.999727 -1.997721
vt 4.999639 -1.997722
vt 4.999625 -4.500142
vt 0.999705 -4.500142
vt 0.999727 -1.997721
vt 4.999639 -1.997722
vt 4.999625 -4.500142
vt 0.999705 -4.500142
vt 0.999727 -1.997721
vt 4.999639 -1.997722
vt 4.999625 -4.500142
vt 0.999705 -4.500142
vt 0.999727 -1.997721
vt 4.999639 -1.997722
vt 4.999625 -4.500142
vt 0.999705 -4.500142
vt 0.999727 -1.997721
vt 4.999639 -1.997722
vt 4.999625 -4.500142
vt 0.999705 -4.500142
vt 0.999727 -1.997721
vt 4.999639 -1.997722
vt 4.999625 -4.500142
vt 4.497790 -2.503197
vt 4.497793 -1.997722
vt 4.999639 -1.997722
vt 4.999636 -2.503198
vt 4.497790 -2.503197
vt 4.497793 -1.997722
vt 4.999639 -1.997722
vt 4.999636 -2.503198
vt 4.999634 -3.002472
vt 4.000772 -3.002472
vt 4.999639 -1.997722
vt 4.000775 -2.500140
vt 0.999727 -1.997721
vt 3.001850 -2.500140
vt 2.003542 -2.997378
vt 2.003538 -3.500798
vt 0.999716 -3.500799
vt 3.001846 -2.997379
vn 0.000000 1.000000 0.000000
vn 0.000000 1.000000 0.000000
vn 0.000000 1.000000 0.000000
vn 0.000000 1.000000 0.000000
vn 0.000000 1.000000 0.000000
vn 0.000000 1.000000 0.000000
vn 0.000000 1.000000 0.000000
vn 0.000000 1.000000 0.000000
vn 0.000000 1.000000 0.000000
vn 0.000000 1.000000 0.000000
vn 0.000000 1.000000 0.000000
vn 0.000000 1.000000 0.000000
vn 0.000000 1.000000 0.000000
vn 0.000000 1.000000 0.000000
vn 0.000000 1.000000 0.000000
vn 0.000000 1.000000 0.000000
vn 0.000000 1.000000 0.000000
vn 0.000000 1.000000 0.000000
vn 0.000000 1.000000 0.000000
vn 0.000000 1.000000 0.000000
vn 0.000000 1.000000 0.000000
vn 0.000000 1.000000 0.000000
vn 0.000000 1.000000 0.000000
vn 0.000000 1.000000 0.000000
vn 0.000000 1.000000 0.000000
vn 0.000000 1.000000 0.000000
vn 0.000000 1.000000 0.000000
vn 0.000000 1.000000 0.000000
vn 0.000000 1.000000 0.000000
vn 0.000000 1.000000 0.000000
vn 0.000000 1.000000 0.000000
vn 0.000000 1.000000 0.000000
vn 0.000000 1.000000 0.000000
vn 0.000000 1.000000 0.000000
vn 0.000000 1.000000 0.000000
vn 0.000000 1.000000 0.000000
vn 0.000000 1.000000 0.000000
vn 0.000000 1.000000 0.000000
vn 0.000000 1.000000 0.000000
vn 0.000000 1.000000 0.000000
vn 0.000000 1.000000 0.000000
vn 0.000000 1.000000 0.000000
vn 0.000000 1.000000 0.000000
vn 0.000000 1.000000 0.000000
vn 0.000000 1.000000 0.000000
vn 0.000000 1.000000 0.000000
vn 0.000000 1.000000 0.000000
vn 0.000000 1.000000 0.000000
vn 0.000000 1.000000 0.000000
vn 0.000000 1.000000 0.000000
vn 0.000000 1.000000 0.000000
vn 0.000000 1.000000 0.000000
vn 0.000000 1.000000 0.000000
vn 0.000000 1.000000 0.000000
usemtl material
f 1/0/1 2/0/2 3/0/3
f 1/0/1 3/0/3 4/0/4
f 5/0/5 6/0/6 7/0/7
f 5/0/5 7/0/7 8/0/8
f 9/0/9 10/0/10 11/0/11
f 9/0/9 11/0/11 12/0/12
f 13/0/13 14/0/14 15/0/15
f 13/0/13 15/0/15 16/0/16
f 17/0/17 18/0/18 19/0/19
f 17/0/17 19/0/19 20/0/20
f 21/0/21 22/0/22 23/0/23
f 21/0/21 23/0/23 24/0/24
f 25/0/25 26/0/26 27/0/27
f 25/0/25 27/0/27 28/0/28
f 29/0/29 30/0/30 31/0/31
f 29/0/29 31/0/31 32/0/32
f 33/0/33 34/0/34 35/0/35
f 33/0/33 35/0/35 36/0/36
f 37/0/37 38/0/38 39/0/39
f 37/0/37 39/0/39 40/0/40
f 41/0/41 42/0/42 43/0/43
f 41/0/41 43/0/43 44/0/44
f 45/0/45 46/0/46 47/0/47
f 46/0/46 48/0/48 47/0/47
f 47/0/47 48/0/48 49/0/49
f 48/0/48 50/0/50 49/0/49
f 49/0/49 50/0/50 51/0/51
f 52/0/52 49/0/49 51/0/51
f 53/0/53 49/0/49 52/0/52
f 54/0/54 51/0/51 50/0/50
