# 
# Wavefront OBJ file
# Created with Kaydara FBX
# 
mtllib c1 #225801.mtl

g C1
v 109.658936 0.000000 53.955971
v 109.658936 0.000000 48.932034
v 104.664513 0.000000 53.955971
v 104.664520 0.000000 51.444218
v 89.658936 0.000000 48.932034
v 107.144760 0.000000 48.932034
v 99.669785 0.000000 51.444218
v 94.678154 0.000000 53.930500
v 99.669785 0.000000 53.930500
v 89.658936 0.000000 56.447701
v 94.678154 0.000000 56.447689
v 109.658936 0.000000 -53.736652
v 104.664513 0.000000 -53.736652
v 109.658936 0.000000 -48.712719
v 89.658936 0.000000 -48.712719
v 94.678154 0.000000 -51.221214
v 89.658936 0.000000 -51.221226
v 94.678154 0.000000 -56.234543
v 99.669785 0.000000 -56.234543
v 104.664520 0.000000 -58.744652
v 99.669785 0.000000 -58.744652
v 89.658936 0.000000 43.922493
v 89.658936 0.000000 48.932034
v 107.144760 0.000000 48.932034
v 107.144760 0.000000 43.922493
v 89.658936 0.000000 31.409933
v 89.658936 0.000000 43.922493
v 107.144760 0.000000 43.922493
v 107.144760 0.000000 31.409933
v 89.658936 0.000000 18.897373
v 89.658936 0.000000 31.409933
v 107.144760 0.000000 31.409933
v 107.144760 0.000000 18.897373
v 89.658936 0.000000 6.384818
v 89.658936 0.000000 18.897373
v 107.144760 0.000000 18.897373
v 107.144760 0.000000 6.384818
v 109.658936 0.000000 6.384818
v 109.658936 0.000000 -6.127741
v 102.132263 0.000000 -6.127741
v 89.658936 0.000000 -6.127741
v 89.658936 0.000000 6.384818
v 107.144760 0.000000 6.384818
v 102.132263 0.000000 -16.110142
v 102.132263 0.000000 -18.640301
v 89.658936 0.000000 -18.640301
v 89.658936 0.000000 -6.127741
v 102.132263 0.000000 -8.629006
v 102.132263 0.000000 -6.127741
v 109.658936 0.000000 -8.629006
v 109.658936 0.000000 -6.127741
v 109.658936 0.000000 -16.110142
v 109.658936 0.000000 -18.640301
v 109.658936 0.000000 -18.640301
v 109.658936 0.000000 -31.152859
v 89.658936 0.000000 -31.152859
v 89.658936 0.000000 -18.640301
v 102.132263 0.000000 -18.640301
v 89.658936 0.000000 -43.665413
v 89.658936 0.000000 -31.152859
v 109.658936 0.000000 -31.152859
v 109.658936 0.000000 -43.665413
v 89.658936 0.000000 -48.712719
v 89.658936 0.000000 -43.665413
v 109.658936 0.000000 -43.665413
v 109.658936 0.000000 -48.712719
vt 4.999634 -3.002472
vt 4.999639 -1.997722
vt 4.000772 -3.002472
vt 4.000775 -2.500140
vt 0.999727 -1.997721
vt 4.496816 -1.997722
vt 3.001850 -2.500140
vt 2.003542 -2.997378
vt 3.001846 -2.997379
vt 0.999716 -3.500799
vt 2.003538 -3.500798
vt 4.999634 -3.002472
vt 4.000772 -3.002472
vt 4.999639 -1.997722
vt 0.999727 -1.997721
vt 2.003545 -2.499403
vt 0.999723 -2.499402
vt 2.003537 -3.502032
vt 3.001842 -3.502032
vt 4.000765 -4.004035
vt 3.001838 -4.004035
vt 0.999705 -4.500142
vt 0.999713 -3.498271
vt 4.496808 -3.498271
vt 4.496801 -4.500142
vt 0.999705 -4.500142
vt 0.999727 -1.997721
vt 4.496816 -1.997722
vt 4.496801 -4.500142
vt 0.999705 -4.500142
vt 0.999727 -1.997721
vt 4.496816 -1.997722
vt 4.496801 -4.500142
vt 0.999705 -4.500142
vt 0.999727 -1.997721
vt 4.496816 -1.997722
vt 4.496801 -4.500142
vt 4.999639 -1.997722
vt 4.999625 -4.500142
vt 3.494321 -4.500142
vt 0.999705 -4.500142
vt 0.999727 -1.997721
vt 4.496816 -1.997722
vt 3.494325 -3.994129
vt 3.494321 -4.500142
vt 0.999705 -4.500142
vt 0.999727 -1.997721
vt 3.494335 -2.497956
vt 3.494338 -1.997721
vt 4.999636 -2.497957
vt 4.999639 -1.997722
vt 4.999628 -3.994129
vt 4.999625 -4.500142
vt 4.999639 -1.997722
vt 4.999625 -4.500142
vt 0.999705 -4.500142
vt 0.999727 -1.997721
vt 3.494338 -1.997721
vt 0.999705 -4.500142
vt 0.999727 -1.997721
vt 4.999639 -1.997722
vt 4.999625 -4.500142
vt 0.999718 -3.007145
vt 0.999727 -1.997721
vt 4.999639 -1.997722
vt 4.999634 -3.007146
vn 0.000000 1.000000 0.000000
vn 0.000000 1.000000 0.000000
vn 0.000000 1.000000 0.000000
vn 0.000000 1.000000 0.000000
vn 0.000000 1.000000 0.000000
vn 0.000000 1.000000 0.000000
vn 0.000000 1.000000 0.000000
vn 0.000000 1.000000 0.000000
vn 0.000000 1.000000 0.000000
vn 0.000000 1.000000 0.000000
vn 0.000000 1.000000 0.000000
vn 0.000000 1.000000 0.000000
vn 0.000000 1.000000 0.000000
vn 0.000000 1.000000 0.000000
vn 0.000000 1.000000 0.000000
vn 0.000000 1.000000 0.000000
vn 0.000000 1.000000 0.000000
vn 0.000000 1.000000 0.000000
vn 0.000000 1.000000 0.000000
vn 0.000000 1.000000 0.000000
vn 0.000000 1.000000 0.000000
vn 0.000000 1.000000 0.000000
vn 0.000000 1.000000 0.000000
vn 0.000000 1.000000 0.000000
vn 0.000000 1.000000 0.000000
vn 0.000000 1.000000 0.000000
vn 0.000000 1.000000 0.000000
vn 0.000000 1.000000 0.000000
vn 0.000000 1.000000 0.000000
vn 0.000000 1.000000 0.000000
vn 0.000000 1.000000 0.000000
vn 0.000000 1.000000 0.000000
vn 0.000000 1.000000 0.000000
vn 0.000000 1.000000 0.000000
vn 0.000000 1.000000 0.000000
vn 0.000000 1.000000 0.000000
vn 0.000000 1.000000 0.000000
vn 0.000000 1.000000 0.000000
vn 0.000000 1.000000 0.000000
vn 0.000000 1.000000 0.000000
vn 0.000000 1.000000 0.000000
vn 0.000000 1.000000 0.000000
vn 0.000000 1.000000 0.000000
vn 0.000000 1.000000 0.000000
vn 0.000000 1.000000 0.000000
vn 0.000000 1.000000 0.000000
vn 0.000000 1.000000 0.000000
vn 0.000000 1.000000 0.000000
vn 0.000000 1.000000 0.000000
vn 0.000000 1.000000 0.000000
vn 0.000000 1.000000 0.000000
vn 0.000000 1.000000 0.000000
vn 0.000000 1.000000 0.000000
vn 0.000000 1.000000 0.000000
vn 0.000000 1.000000 0.000000
vn 0.000000 1.000000 0.000000
vn 0.000000 1.000000 0.000000
vn 0.000000 1.000000 0.000000
vn 0.000000 1.000000 0.000000
vn 0.000000 1.000000 0.000000
vn 0.000000 1.000000 0.000000
vn 0.000000 1.000000 0.000000
vn 0.000000 1.000000 0.000000
vn 0.000000 1.000000 0.000000
vn 0.000000 1.000000 0.000000
vn 0.000000 1.000000 0.000000
usemtl material
f 1/0/1 2/0/2 3/0/3
f 3/0/3 2/0/2 4/0/4
f 2/0/2 5/0/5 4/0/4
f 2/0/2 6/0/6 5/0/5
f 4/0/4 5/0/5 7/0/7
f 7/0/7 5/0/5 8/0/8
f 9/0/9 7/0/7 8/0/8
f 5/0/5 10/0/10 8/0/8
f 8/0/8 10/0/10 11/0/11
f 12/0/12 13/0/13 14/0/14
f 14/0/14 13/0/13 15/0/15
f 15/0/15 13/0/13 16/0/16
f 17/0/17 15/0/15 16/0/16
f 16/0/16 13/0/13 18/0/18
f 18/0/18 13/0/13 19/0/19
f 13/0/13 20/0/20 19/0/19
f 19/0/19 20/0/20 21/0/21
f 22/0/22 23/0/23 24/0/24
f 22/0/22 24/0/24 25/0/25
f 26/0/26 27/0/27 28/0/28
f 26/0/26 28/0/28 29/0/29
f 30/0/30 31/0/31 32/0/32
f 30/0/30 32/0/32 33/0/33
f 34/0/34 35/0/35 36/0/36
f 34/0/34 36/0/36 37/0/37
f 38/0/38 39/0/39 40/0/40
f 40/0/40 41/0/41 38/0/38
f 41/0/41 42/0/42 38/0/38
f 42/0/42 43/0/43 38/0/38
f 44/0/44 45/0/45 46/0/46
f 46/0/46 47/0/47 44/0/44
f 47/0/47 48/0/48 44/0/44
f 47/0/47 49/0/49 48/0/48
f 49/0/49 50/0/50 48/0/48
f 49/0/49 51/0/51 50/0/50
f 52/0/52 45/0/45 44/0/44
f 52/0/52 53/0/53 45/0/45
f 54/0/54 55/0/55 56/0/56
f 56/0/56 57/0/57 54/0/54
f 57/0/57 58/0/58 54/0/54
f 59/0/59 60/0/60 61/0/61
f 59/0/59 61/0/61 62/0/62
f 63/0/63 64/0/64 65/0/65
f 63/0/63 65/0/65 66/0/66
