# 
# Wavefront OBJ file
# Created with Kaydara FBX
# 
mtllib c1 #2257817.mtl

g C1
v -104.685089 2.474052 -56.399597
v -104.685089 2.474052 -58.927071
v -107.194374 2.474052 -58.927071
v -107.194374 2.474052 -56.399597
v -97.262039 1.143297 -56.443638
v -97.262039 1.143297 -58.971107
v -99.771339 1.143297 -58.971107
v -99.771339 1.143297 -56.443638
v -107.124474 2.474052 58.719616
v -107.124474 2.474052 56.192146
v -109.633759 2.474052 56.192146
v -109.633759 2.474052 58.719616
vt 4.497790 -2.503197
vt 4.497793 -1.997722
vt 4.999639 -1.997722
vt 4.999636 -2.503198
vt 4.497790 -2.503197
vt 4.497793 -1.997722
vt 4.999639 -1.997722
vt 4.999636 -2.503198
vt 4.497790 -2.503197
vt 4.497793 -1.997722
vt 4.999639 -1.997722
vt 4.999636 -2.503198
vn 0.000000 1.000000 0.000000
vn 0.000000 1.000000 0.000000
vn 0.000000 1.000000 0.000000
vn 0.000000 1.000000 0.000000
vn 0.000000 1.000000 0.000000
vn 0.000000 1.000000 0.000000
vn 0.000000 1.000000 0.000000
vn 0.000000 1.000000 0.000000
vn 0.000000 1.000000 0.000000
vn 0.000000 1.000000 0.000000
vn 0.000000 1.000000 0.000000
vn 0.000000 1.000000 0.000000
usemtl material
f 1/0/1 2/0/2 3/0/3
f 1/0/1 3/0/3 4/0/4
f 5/0/5 6/0/6 7/0/7
f 5/0/5 7/0/7 8/0/8
f 9/0/9 10/0/10 11/0/11
f 9/0/9 11/0/11 12/0/12
