# 
# Wavefront OBJ file
# Created with Kaydara FBX
# 
mtllib c1 #225861.mtl

g C1
v 10.000000 0.000000 12.512560
v 10.000000 0.000000 0.000003
v -10.000000 0.000000 0.000003
v -10.000000 0.000000 12.512560
v 10.000000 0.000000 -0.000002
v 10.000000 0.000000 -12.512560
v -10.000000 0.000000 -12.512560
v -10.000000 0.000000 -0.000002
vt 0.999705 -4.500142
vt 0.999727 -1.997721
vt 4.999639 -1.997722
vt 4.999625 -4.500142
vt 0.999705 -4.500142
vt 0.999727 -1.997721
vt 4.999639 -1.997722
vt 4.999625 -4.500142
vn 0.000000 1.000000 0.000000
vn 0.000000 1.000000 0.000000
vn 0.000000 1.000000 0.000000
vn 0.000000 1.000000 0.000000
vn 0.000000 1.000000 0.000000
vn 0.000000 1.000000 0.000000
vn 0.000000 1.000000 0.000000
vn 0.000000 1.000000 0.000000
usemtl material
f 1/0/1 2/0/2 3/0/3
f 1/0/1 3/0/3 4/0/4
f 5/0/5 6/0/6 7/0/7
f 5/0/5 7/0/7 8/0/8
