# 
# Wavefront OBJ file
# Created with Kaydara FBX
# 
mtllib c1 #2257811.mtl

g C1
v -84.652214 0.000000 -54.051182
v -84.652214 0.000000 -56.578651
v -87.161499 0.000000 -56.578651
v -87.161499 0.000000 -54.051182
v -79.633644 -1.090746 -51.523701
v -79.633644 -1.090746 -54.051170
v -82.142929 -1.090746 -54.051170
v -82.142929 -1.090746 -51.523701
v -77.124352 0.000000 -51.523701
v -77.124352 0.000000 -54.051170
v -79.633644 0.000000 -54.051170
v -79.633644 0.000000 -51.523701
v -74.615067 0.000000 -48.996220
v -74.615067 0.000000 -51.523689
v -77.124352 0.000000 -51.523689
v -77.124352 0.000000 -48.996220
v -72.105782 0.000000 -51.523689
v -72.105782 0.000000 -54.051163
v -74.615067 0.000000 -54.051163
v -74.615067 0.000000 -51.523689
v -62.155312 0.000000 -48.996208
v -62.155312 0.000000 -51.523682
v -64.664597 0.000000 -51.523682
v -64.664597 0.000000 -48.996208
v -59.646023 0.000000 -51.523689
v -59.646023 0.000000 -54.051163
v -62.155312 0.000000 -54.051163
v -62.155312 0.000000 -51.523689
v -57.136738 0.000000 -51.523689
v -57.136738 0.000000 -54.051163
v -59.646023 0.000000 -54.051163
v -59.646023 0.000000 -51.523689
v -54.627449 0.000000 -48.996220
v -54.627449 0.000000 -51.523689
v -57.136738 0.000000 -51.523689
v -57.136738 0.000000 -48.996220
v -54.627449 0.000000 -54.051182
v -54.627449 0.000000 -56.578651
v -57.136738 0.000000 -56.578651
v -57.136738 0.000000 -54.051182
v -49.620090 0.000000 -48.996208
v -49.620090 0.000000 -51.523682
v -52.129379 0.000000 -51.523682
v -52.129379 0.000000 -48.996208
v -29.649326 -0.869648 -48.996220
v -29.649326 -0.869648 -51.523689
v -32.158611 -0.869648 -51.523689
v -32.158611 -0.869648 -48.996220
v -27.140038 0.000000 -51.523701
v -27.140038 0.000000 -54.051170
v -29.649326 0.000000 -54.051170
v -29.649326 0.000000 -51.523701
v -24.630751 -0.917685 -48.996220
v -24.630751 -0.917685 -51.523689
v -27.140038 -0.917685 -51.523689
v -27.140038 -0.917685 -48.996220
v -57.136738 0.000000 -46.468739
v -57.136738 0.000000 -48.996208
v -59.646023 0.000000 -48.996208
v -59.646023 0.000000 -46.468739
v -22.121464 0.000000 -46.468739
v -22.121464 0.000000 -48.996208
v -24.630751 0.000000 -48.996208
v -24.630751 0.000000 -46.468739
v -14.657349 0.000000 -48.996220
v -14.657349 0.000000 -51.523689
v -17.166636 0.000000 -51.523689
v -17.166636 0.000000 -48.996220
v -12.148061 1.106271 -51.523701
v -12.148061 1.106271 -54.051170
v -14.657349 1.106271 -54.051170
v -14.657349 1.106271 -51.523701
v -9.638774 1.106271 -48.996220
v -9.638774 1.106271 -51.523689
v -12.148061 1.106271 -51.523689
v -12.148061 1.106271 -48.996220
v -7.129487 0.000000 -46.468739
v -7.129487 0.000000 -48.996208
v -9.638774 0.000000 -48.996208
v -9.638774 0.000000 -46.468739
v -4.620200 0.000000 -51.523701
v -4.620200 0.000000 -54.051170
v -7.129487 0.000000 -54.051170
v -7.129487 0.000000 -51.523701
v 20.325300 -1.056376 -51.523701
v 20.325300 -1.056376 -54.051170
v 17.816013 -1.056376 -54.051170
v 17.816013 -1.056376 -51.523701
v 22.834587 0.000000 -48.996220
v 22.834587 0.000000 -51.523689
v 20.325300 0.000000 -51.523689
v 20.325300 0.000000 -48.996220
v 25.343876 0.000000 -51.523701
v 25.343876 0.000000 -54.051170
v 22.834589 0.000000 -54.051170
v 22.834589 0.000000 -51.523701
v 27.853163 -0.919860 -48.996220
v 27.853163 -0.919860 -51.523689
v 25.343876 -0.919860 -51.523689
v 25.343876 -0.919860 -48.996220
v 27.853163 0.000000 -54.051182
v 27.853163 0.000000 -56.578651
v 25.343876 0.000000 -56.578651
v 25.343876 0.000000 -54.051182
v 60.341290 -1.205453 -51.523701
v 60.341290 -1.205453 -54.051170
v 57.832001 -1.205453 -54.051170
v 57.832001 -1.205453 -51.523701
v 62.850574 0.000000 -51.523701
v 62.850574 0.000000 -54.051170
v 60.341290 0.000000 -54.051170
v 60.341290 0.000000 -51.523701
v 65.359863 0.000000 -48.996220
v 65.359863 0.000000 -51.523689
v 62.850574 0.000000 -51.523689
v 62.850574 0.000000 -48.996220
v 67.869148 0.000000 -51.523689
v 67.869148 0.000000 -54.051163
v 65.359863 0.000000 -54.051163
v 65.359863 0.000000 -51.523689
v 77.819618 0.000000 -48.996208
v 77.819618 0.000000 -51.523682
v 75.310333 0.000000 -51.523682
v 75.310333 0.000000 -48.996208
v 85.347481 0.000000 -48.996220
v 85.347481 0.000000 -51.523689
v 82.838188 0.000000 -51.523689
v 82.838188 0.000000 -48.996220
v 85.347481 -1.103097 -54.051182
v 85.347481 -1.103097 -56.578651
v 82.838188 -1.103097 -56.578651
v 82.838188 -1.103097 -54.051182
v 90.354843 -1.570836 -48.996208
v 90.354843 -1.570836 -51.523682
v 87.845558 -1.570836 -51.523682
v 87.845558 -1.570836 -48.996208
v 82.838188 0.000000 -46.468739
v 82.838188 0.000000 -48.996208
v 80.328903 0.000000 -48.996208
v 80.328903 0.000000 -46.468739
v 92.849411 1.077793 -56.443642
v 92.849411 1.077793 -58.971111
v 90.340126 1.077793 -58.971111
v 90.340126 1.077793 -56.443642
v -82.142929 -2.072550 -51.523701
v -82.142929 -2.072550 -54.051170
v -84.652214 -2.072550 -54.051170
v -84.652214 -2.072550 -51.523701
v 30.362450 -1.822766 -46.468739
v 30.362450 -1.822766 -48.996208
v 27.853163 -1.822766 -48.996208
v 27.853163 -1.822766 -46.468739
v 57.832001 -2.740369 -51.523701
v 57.832001 -2.740369 -54.051170
v 55.322712 -2.740369 -54.051170
v 55.322712 -2.740369 -51.523701
vt 4.497790 -2.503197
vt 4.497793 -1.997722
vt 4.999639 -1.997722
vt 4.999636 -2.503198
vt 4.497790 -2.503197
vt 4.497793 -1.997722
vt 4.999639 -1.997722
vt 4.999636 -2.503198
vt 4.497790 -2.503197
vt 4.497793 -1.997722
vt 4.999639 -1.997722
vt 4.999636 -2.503198
vt 4.497790 -2.503197
vt 4.497793 -1.997722
vt 4.999639 -1.997722
vt 4.999636 -2.503198
vt 4.497790 -2.503197
vt 4.497793 -1.997722
vt 4.999639 -1.997722
vt 4.999636 -2.503198
vt 4.497790 -2.503197
vt 4.497793 -1.997722
vt 4.999639 -1.997722
vt 4.999636 -2.503198
vt 4.497790 -2.503197
vt 4.497793 -1.997722
vt 4.999639 -1.997722
vt 4.999636 -2.503198
vt 4.497790 -2.503197
vt 4.497793 -1.997722
vt 4.999639 -1.997722
vt 4.999636 -2.503198
vt 4.497790 -2.503197
vt 4.497793 -1.997722
vt 4.999639 -1.997722
vt 4.999636 -2.503198
vt 4.497790 -2.503197
vt 4.497793 -1.997722
vt 4.999639 -1.997722
vt 4.999636 -2.503198
vt 4.497790 -2.503197
vt 4.497793 -1.997722
vt 4.999639 -1.997722
vt 4.999636 -2.503198
vt 4.497790 -2.503197
vt 4.497793 -1.997722
vt 4.999639 -1.997722
vt 4.999636 -2.503198
vt 4.497790 -2.503197
vt 4.497793 -1.997722
vt 4.999639 -1.997722
vt 4.999636 -2.503198
vt 4.497790 -2.503197
vt 4.497793 -1.997722
vt 4.999639 -1.997722
vt 4.999636 -2.503198
vt 4.497790 -2.503197
vt 4.497793 -1.997722
vt 4.999639 -1.997722
vt 4.999636 -2.503198
vt 4.497790 -2.503197
vt 4.497793 -1.997722
vt 4.999639 -1.997722
vt 4.999636 -2.503198
vt 4.497790 -2.503197
vt 4.497793 -1.997722
vt 4.999639 -1.997722
vt 4.999636 -2.503198
vt 4.497790 -2.503197
vt 4.497793 -1.997722
vt 4.999639 -1.997722
vt 4.999636 -2.503198
vt 4.497790 -2.503197
vt 4.497793 -1.997722
vt 4.999639 -1.997722
vt 4.999636 -2.503198
vt 4.497790 -2.503197
vt 4.497793 -1.997722
vt 4.999639 -1.997722
vt 4.999636 -2.503198
vt 4.497790 -2.503197
vt 4.497793 -1.997722
vt 4.999639 -1.997722
vt 4.999636 -2.503198
vt 4.497790 -2.503197
vt 4.497793 -1.997722
vt 4.999639 -1.997722
vt 4.999636 -2.503198
vt 4.497790 -2.503197
vt 4.497793 -1.997722
vt 4.999639 -1.997722
vt 4.999636 -2.503198
vt 4.497790 -2.503197
vt 4.497793 -1.997722
vt 4.999639 -1.997722
vt 4.999636 -2.503198
vt 4.497790 -2.503197
vt 4.497793 -1.997722
vt 4.999639 -1.997722
vt 4.999636 -2.503198
vt 4.497790 -2.503197
vt 4.497793 -1.997722
vt 4.999639 -1.997722
vt 4.999636 -2.503198
vt 4.497790 -2.503197
vt 4.497793 -1.997722
vt 4.999639 -1.997722
vt 4.999636 -2.503198
vt 4.497790 -2.503197
vt 4.497793 -1.997722
vt 4.999639 -1.997722
vt 4.999636 -2.503198
vt 4.497790 -2.503197
vt 4.497793 -1.997722
vt 4.999639 -1.997722
vt 4.999636 -2.503198
vt 4.497790 -2.503197
vt 4.497793 -1.997722
vt 4.999639 -1.997722
vt 4.999636 -2.503198
vt 4.497790 -2.503197
vt 4.497793 -1.997722
vt 4.999639 -1.997722
vt 4.999636 -2.503198
vt 4.497790 -2.503197
vt 4.497793 -1.997722
vt 4.999639 -1.997722
vt 4.999636 -2.503198
vt 4.497790 -2.503197
vt 4.497793 -1.997722
vt 4.999639 -1.997722
vt 4.999636 -2.503198
vt 4.497790 -2.503197
vt 4.497793 -1.997722
vt 4.999639 -1.997722
vt 4.999636 -2.503198
vt 4.497790 -2.503197
vt 4.497793 -1.997722
vt 4.999639 -1.997722
vt 4.999636 -2.503198
vt 4.497790 -2.503197
vt 4.497793 -1.997722
vt 4.999639 -1.997722
vt 4.999636 -2.503198
vt 4.497790 -2.503197
vt 4.497793 -1.997722
vt 4.999639 -1.997722
vt 4.999636 -2.503198
vt 4.497790 -2.503197
vt 4.497793 -1.997722
vt 4.999639 -1.997722
vt 4.999636 -2.503198
vt 4.497790 -2.503197
vt 4.497793 -1.997722
vt 4.999639 -1.997722
vt 4.999636 -2.503198
vn 0.000000 1.000000 0.000000
vn 0.000000 1.000000 0.000000
vn 0.000000 1.000000 0.000000
vn 0.000000 1.000000 0.000000
vn 0.000000 1.000000 0.000000
vn 0.000000 1.000000 0.000000
vn 0.000000 1.000000 0.000000
vn 0.000000 1.000000 0.000000
vn 0.000000 1.000000 0.000000
vn 0.000000 1.000000 0.000000
vn 0.000000 1.000000 0.000000
vn 0.000000 1.000000 0.000000
vn 0.000000 1.000000 0.000000
vn 0.000000 1.000000 0.000000
vn 0.000000 1.000000 0.000000
vn 0.000000 1.000000 0.000000
vn 0.000000 1.000000 0.000000
vn 0.000000 1.000000 0.000000
vn 0.000000 1.000000 0.000000
vn 0.000000 1.000000 0.000000
vn 0.000000 1.000000 0.000000
vn 0.000000 1.000000 0.000000
vn 0.000000 1.000000 0.000000
vn 0.000000 1.000000 0.000000
vn 0.000000 1.000000 0.000000
vn 0.000000 1.000000 0.000000
vn 0.000000 1.000000 0.000000
vn 0.000000 1.000000 0.000000
vn 0.000000 1.000000 0.000000
vn 0.000000 1.000000 0.000000
vn 0.000000 1.000000 0.000000
vn 0.000000 1.000000 0.000000
vn 0.000000 1.000000 0.000000
vn 0.000000 1.000000 0.000000
vn 0.000000 1.000000 0.000000
vn 0.000000 1.000000 0.000000
vn 0.000000 1.000000 0.000000
vn 0.000000 1.000000 0.000000
vn 0.000000 1.000000 0.000000
vn 0.000000 1.000000 0.000000
vn 0.000000 1.000000 0.000000
vn 0.000000 1.000000 0.000000
vn 0.000000 1.000000 0.000000
vn 0.000000 1.000000 0.000000
vn 0.000000 1.000000 0.000000
vn 0.000000 1.000000 0.000000
vn 0.000000 1.000000 0.000000
vn 0.000000 1.000000 0.000000
vn 0.000000 1.000000 0.000000
vn 0.000000 1.000000 0.000000
vn 0.000000 1.000000 0.000000
vn 0.000000 1.000000 0.000000
vn 0.000000 1.000000 0.000000
vn 0.000000 1.000000 0.000000
vn 0.000000 1.000000 0.000000
vn 0.000000 1.000000 0.000000
vn 0.000000 1.000000 0.000000
vn 0.000000 1.000000 0.000000
vn 0.000000 1.000000 0.000000
vn 0.000000 1.000000 0.000000
vn 0.000000 1.000000 0.000000
vn 0.000000 1.000000 0.000000
vn 0.000000 1.000000 0.000000
vn 0.000000 1.000000 0.000000
vn 0.000000 1.000000 0.000000
vn 0.000000 1.000000 0.000000
vn 0.000000 1.000000 0.000000
vn 0.000000 1.000000 0.000000
vn 0.000000 1.000000 0.000000
vn 0.000000 1.000000 0.000000
vn 0.000000 1.000000 0.000000
vn 0.000000 1.000000 0.000000
vn 0.000000 1.000000 0.000000
vn 0.000000 1.000000 0.000000
vn 0.000000 1.000000 0.000000
vn 0.000000 1.000000 0.000000
vn 0.000000 1.000000 0.000000
vn 0.000000 1.000000 0.000000
vn 0.000000 1.000000 0.000000
vn 0.000000 1.000000 0.000000
vn 0.000000 1.000000 0.000000
vn 0.000000 1.000000 0.000000
vn 0.000000 1.000000 0.000000
vn 0.000000 1.000000 0.000000
vn 0.000000 1.000000 0.000000
vn 0.000000 1.000000 0.000000
vn 0.000000 1.000000 0.000000
vn 0.000000 1.000000 0.000000
vn 0.000000 1.000000 0.000000
vn 0.000000 1.000000 0.000000
vn 0.000000 1.000000 0.000000
vn 0.000000 1.000000 0.000000
vn 0.000000 1.000000 0.000000
vn 0.000000 1.000000 0.000000
vn 0.000000 1.000000 0.000000
vn 0.000000 1.000000 0.000000
vn 0.000000 1.000000 0.000000
vn 0.000000 1.000000 0.000000
vn 0.000000 1.000000 0.000000
vn 0.000000 1.000000 0.000000
vn 0.000000 1.000000 0.000000
vn 0.000000 1.000000 0.000000
vn 0.000000 1.000000 0.000000
vn 0.000000 1.000000 0.000000
vn 0.000000 1.000000 0.000000
vn 0.000000 1.000000 0.000000
vn 0.000000 1.000000 0.000000
vn 0.000000 1.000000 0.000000
vn 0.000000 1.000000 0.000000
vn 0.000000 1.000000 0.000000
vn 0.000000 1.000000 0.000000
vn 0.000000 1.000000 0.000000
vn 0.000000 1.000000 0.000000
vn 0.000000 1.000000 0.000000
vn 0.000000 1.000000 0.000000
vn 0.000000 1.000000 0.000000
vn 0.000000 1.000000 0.000000
vn 0.000000 1.000000 0.000000
vn 0.000000 1.000000 0.000000
vn 0.000000 1.000000 0.000000
vn 0.000000 1.000000 0.000000
vn 0.000000 1.000000 0.000000
vn 0.000000 1.000000 0.000000
vn 0.000000 1.000000 0.000000
vn 0.000000 1.000000 0.000000
vn 0.000000 1.000000 0.000000
vn 0.000000 1.000000 0.000000
vn 0.000000 1.000000 0.000000
vn 0.000000 1.000000 0.000000
vn 0.000000 1.000000 0.000000
vn 0.000000 1.000000 0.000000
vn 0.000000 1.000000 0.000000
vn 0.000000 1.000000 0.000000
vn 0.000000 1.000000 0.000000
vn 0.000000 1.000000 0.000000
vn 0.000000 1.000000 0.000000
vn 0.000000 1.000000 0.000000
vn 0.000000 1.000000 0.000000
vn 0.000000 1.000000 0.000000
vn 0.000000 1.000000 0.000000
vn 0.000000 1.000000 0.000000
vn 0.000000 1.000000 0.000000
vn 0.000000 1.000000 0.000000
vn 0.000000 1.000000 0.000000
vn 0.000000 1.000000 0.000000
vn 0.000000 1.000000 0.000000
vn 0.000000 1.000000 0.000000
vn 0.000000 1.000000 0.000000
vn 0.000000 1.000000 0.000000
vn 0.000000 1.000000 0.000000
vn 0.000000 1.000000 0.000000
vn 0.000000 1.000000 0.000000
vn 0.000000 1.000000 0.000000
vn 0.000000 1.000000 0.000000
vn 0.000000 1.000000 0.000000
vn 0.000000 1.000000 0.000000
usemtl material
f 1/0/1 2/0/2 3/0/3
f 1/0/1 3/0/3 4/0/4
f 5/0/5 6/0/6 7/0/7
f 5/0/5 7/0/7 8/0/8
f 9/0/9 10/0/10 11/0/11
f 9/0/9 11/0/11 12/0/12
f 13/0/13 14/0/14 15/0/15
f 13/0/13 15/0/15 16/0/16
f 17/0/17 18/0/18 19/0/19
f 17/0/17 19/0/19 20/0/20
f 21/0/21 22/0/22 23/0/23
f 21/0/21 23/0/23 24/0/24
f 25/0/25 26/0/26 27/0/27
f 25/0/25 27/0/27 28/0/28
f 29/0/29 30/0/30 31/0/31
f 29/0/29 31/0/31 32/0/32
f 33/0/33 34/0/34 35/0/35
f 33/0/33 35/0/35 36/0/36
f 37/0/37 38/0/38 39/0/39
f 37/0/37 39/0/39 40/0/40
f 41/0/41 42/0/42 43/0/43
f 41/0/41 43/0/43 44/0/44
f 45/0/45 46/0/46 47/0/47
f 45/0/45 47/0/47 48/0/48
f 49/0/49 50/0/50 51/0/51
f 49/0/49 51/0/51 52/0/52
f 53/0/53 54/0/54 55/0/55
f 53/0/53 55/0/55 56/0/56
f 57/0/57 58/0/58 59/0/59
f 57/0/57 59/0/59 60/0/60
f 61/0/61 62/0/62 63/0/63
f 61/0/61 63/0/63 64/0/64
f 65/0/65 66/0/66 67/0/67
f 65/0/65 67/0/67 68/0/68
f 69/0/69 70/0/70 71/0/71
f 69/0/69 71/0/71 72/0/72
f 73/0/73 74/0/74 75/0/75
f 73/0/73 75/0/75 76/0/76
f 77/0/77 78/0/78 79/0/79
f 77/0/77 79/0/79 80/0/80
f 81/0/81 82/0/82 83/0/83
f 81/0/81 83/0/83 84/0/84
f 85/0/85 86/0/86 87/0/87
f 85/0/85 87/0/87 88/0/88
f 89/0/89 90/0/90 91/0/91
f 89/0/89 91/0/91 92/0/92
f 93/0/93 94/0/94 95/0/95
f 93/0/93 95/0/95 96/0/96
f 97/0/97 98/0/98 99/0/99
f 97/0/97 99/0/99 100/0/100
f 101/0/101 102/0/102 103/0/103
f 101/0/101 103/0/103 104/0/104
f 105/0/105 106/0/106 107/0/107
f 105/0/105 107/0/107 108/0/108
f 109/0/109 110/0/110 111/0/111
f 109/0/109 111/0/111 112/0/112
f 113/0/113 114/0/114 115/0/115
f 113/0/113 115/0/115 116/0/116
f 117/0/117 118/0/118 119/0/119
f 117/0/117 119/0/119 120/0/120
f 121/0/121 122/0/122 123/0/123
f 121/0/121 123/0/123 124/0/124
f 125/0/125 126/0/126 127/0/127
f 125/0/125 127/0/127 128/0/128
f 129/0/129 130/0/130 131/0/131
f 129/0/129 131/0/131 132/0/132
f 133/0/133 134/0/134 135/0/135
f 133/0/133 135/0/135 136/0/136
f 137/0/137 138/0/138 139/0/139
f 137/0/137 139/0/139 140/0/140
f 141/0/141 142/0/142 143/0/143
f 141/0/141 143/0/143 144/0/144
f 145/0/145 146/0/146 147/0/147
f 145/0/145 147/0/147 148/0/148
f 149/0/149 150/0/150 151/0/151
f 149/0/149 151/0/151 152/0/152
f 153/0/153 154/0/154 155/0/155
f 153/0/153 155/0/155 156/0/156
