# 
# Wavefront OBJ file
# Created with Kaydara FBX
# 
mtllib c12_v.mtl

g C12_V
v 0.297686 1.975321 0.299117
v 0.297686 2.045627 0.299111
v 0.240588 2.045628 0.299111
v 0.240588 1.975321 0.299117
v 0.297686 1.412089 0.299159
v 0.240589 1.412089 0.299159
v 0.297686 1.338523 0.299165
v 0.240589 1.338523 0.299165
v -0.242035 1.412089 0.299159
v -0.242035 1.338523 0.299165
v -0.299170 1.412089 0.299159
v -0.299170 1.338523 0.299165
v -0.242039 1.975321 0.299117
v -0.299174 1.975321 0.299117
v -0.242039 2.045627 0.299111
v -0.299175 2.045627 0.299111
v -0.235751 2.045627 -0.297646
v -0.235751 1.975322 -0.297651
v -0.299170 1.975321 -0.297651
v -0.299170 2.045627 -0.297646
v -0.299170 1.412089 -0.297690
v -0.235751 1.412089 -0.297690
v -0.299170 1.338523 -0.297695
v -0.235751 1.338523 -0.297695
v 0.240790 1.412089 -0.297690
v 0.240790 1.338523 -0.297695
v 0.240790 2.045627 -0.297646
v 0.240790 1.975321 -0.297651
v 0.297686 1.412089 -0.297690
v 0.297686 1.338523 -0.297695
v 0.297686 1.975321 -0.297651
v 0.297686 2.045627 -0.297646
v -0.299174 2.045627 0.244875
v -0.299174 1.975321 0.244879
v -0.299174 1.975321 0.299117
v -0.299175 2.045627 0.299111
v -0.299170 1.412089 0.299159
v -0.299170 1.412089 0.244915
v -0.299170 1.338523 0.299165
v -0.299170 1.338523 0.244919
v -0.299170 1.412089 -0.240355
v -0.299170 1.338523 -0.240359
v -0.299170 1.412089 -0.297690
v -0.299170 1.338523 -0.297695
v -0.299170 1.975321 -0.297651
v -0.299170 1.975321 -0.240324
v -0.299170 2.045627 -0.297646
v -0.299170 2.045627 -0.240320
v 0.297686 2.045627 -0.297646
v 0.297686 2.045627 -0.235991
v 0.297686 1.975321 -0.235995
v 0.297686 1.975321 -0.297651
v 0.297686 1.412089 -0.297690
v 0.297686 1.412089 -0.236026
v 0.297686 1.338523 -0.297695
v 0.297686 1.338523 -0.236030
v 0.297686 1.412089 0.236658
v 0.297686 1.338523 0.236662
v 0.297686 1.975321 0.236623
v 0.297686 2.045627 0.236619
v 0.297686 1.412089 0.299159
v 0.297686 1.338523 0.299165
v 0.297686 1.975321 0.299117
v 0.297686 2.045627 0.299111
v -0.299170 2.220706 0.000000
v -0.299170 2.045627 -0.297646
v -0.299170 2.045627 -0.240320
v -0.299174 2.045627 0.244875
v -0.299175 2.045627 0.299111
v 0.297686 2.220706 0.000000
v 0.297686 2.045627 0.299111
v 0.297686 2.045627 0.236619
v 0.297686 2.045627 -0.235991
v 0.297686 2.045627 -0.297646
v 0.240588 1.975321 0.299117
v -0.242039 1.975321 0.299117
v -0.242035 1.412089 0.299159
v 0.240589 1.412089 0.299159
v 0.240790 1.975321 -0.297651
v 0.240790 1.412089 -0.297690
v -0.235751 1.412089 -0.297690
v -0.235751 1.975322 -0.297651
v 0.297686 1.975321 0.236623
v 0.297686 1.412089 0.236658
v 0.297686 1.412089 -0.236026
v 0.297686 1.975321 -0.235995
v -0.299170 1.975321 -0.240324
v -0.299170 1.412089 -0.240355
v -0.299170 1.412089 0.244915
v -0.299174 1.975321 0.244879
vt 0.292191 0.827681
vt 0.292190 0.831985
vt 0.296205 0.831985
vt 0.296205 0.827681
vt 0.292193 0.793202
vt 0.296207 0.793202
vt 0.292193 0.788698
vt 0.296207 0.788698
vt 0.330134 0.793202
vt 0.330134 0.788698
vt 0.334151 0.793202
vt 0.334150 0.788698
vt 0.330136 0.827681
vt 0.334153 0.827681
vt 0.330136 0.831985
vt 0.334154 0.831985
vt 0.329695 0.788698
vt 0.329694 0.793002
vt 0.334153 0.793002
vt 0.334154 0.788698
vt 0.334151 0.827482
vt 0.329692 0.827482
vt 0.334150 0.831985
vt 0.329692 0.831985
vt 0.296193 0.827482
vt 0.296193 0.831985
vt 0.296190 0.788698
vt 0.296191 0.793002
vt 0.292193 0.827482
vt 0.292193 0.831985
vt 0.292191 0.793002
vt 0.292190 0.788698
vt 0.296007 0.831985
vt 0.296007 0.827681
vt 0.292194 0.827681
vt 0.292194 0.831985
vt 0.292196 0.793202
vt 0.296009 0.793202
vt 0.292197 0.788698
vt 0.296009 0.788698
vt 0.330117 0.793202
vt 0.330117 0.788698
vt 0.334147 0.793202
vt 0.334147 0.788698
vt 0.334150 0.827681
vt 0.330119 0.827681
vt 0.334150 0.831985
vt 0.330119 0.831985
vt 0.292194 0.831985
vt 0.296529 0.831985
vt 0.296529 0.827681
vt 0.292194 0.827681
vt 0.292196 0.793202
vt 0.296531 0.793202
vt 0.292197 0.788698
vt 0.296531 0.788698
vt 0.329754 0.793202
vt 0.329754 0.788698
vt 0.329756 0.827681
vt 0.329756 0.831985
vt 0.334147 0.793202
vt 0.334147 0.788698
vt 0.334150 0.827681
vt 0.334150 0.831985
vt 0.245285 0.722248
vt 0.256075 0.743226
vt 0.256075 0.739195
vt 0.256075 0.705083
vt 0.256075 0.701270
vt 0.245285 0.722248
vt 0.256075 0.743226
vt 0.256075 0.738832
vt 0.256075 0.705605
vt 0.256075 0.701270
vt 0.296205 0.827681
vt 0.330136 0.827681
vt 0.330134 0.793202
vt 0.296207 0.793202
vt 0.296191 0.793002
vt 0.296193 0.827482
vt 0.329692 0.827482
vt 0.329694 0.793002
vt 0.329756 0.827681
vt 0.329754 0.793202
vt 0.296531 0.793202
vt 0.296529 0.827681
vt 0.330119 0.827681
vt 0.330117 0.793202
vt 0.296009 0.793202
vt 0.296007 0.827681
vn 0.000000 0.000076 1.000000
vn 0.000000 0.000076 1.000000
vn 0.000000 0.000076 1.000000
vn 0.000000 0.000076 1.000000
vn 0.000000 0.000076 1.000000
vn 0.000000 0.000076 1.000000
vn 0.000000 0.000076 1.000000
vn 0.000000 0.000076 1.000000
vn 0.000000 0.000076 1.000000
vn 0.000000 0.000076 1.000000
vn 0.000000 0.000076 1.000000
vn 0.000000 0.000076 1.000000
vn 0.000000 0.000076 1.000000
vn 0.000000 0.000076 1.000000
vn 0.000000 0.000076 1.000000
vn 0.000000 0.000076 1.000000
vn 0.000000 0.000069 -1.000000
vn 0.000000 0.000069 -1.000000
vn 0.000000 0.000069 -1.000000
vn -0.000000 0.000069 -1.000000
vn 0.000000 0.000069 -1.000000
vn 0.000000 0.000069 -1.000000
vn -0.000000 0.000069 -1.000000
vn 0.000000 0.000069 -1.000000
vn 0.000000 0.000069 -1.000000
vn 0.000000 0.000069 -1.000000
vn 0.000000 0.000069 -1.000000
vn 0.000000 0.000069 -1.000000
vn 0.000000 0.000069 -1.000000
vn 0.000000 0.000069 -1.000000
vn 0.000000 0.000069 -1.000000
vn 0.000000 0.000069 -1.000000
vn -1.000000 0.000009 -0.000008
vn -1.000000 -0.000004 -0.000005
vn -1.000000 -0.000007 -0.000005
vn -1.000000 0.000010 -0.000008
vn -1.000000 -0.000007 -0.000004
vn -1.000000 -0.000004 -0.000004
vn -1.000000 -0.000007 -0.000001
vn -1.000000 -0.000004 -0.000000
vn -1.000000 -0.000003 -0.000004
vn -1.000000 -0.000003 -0.000000
vn -1.000000 -0.000000 -0.000004
vn -1.000000 -0.000000 -0.000000
vn -1.000000 -0.000000 -0.000004
vn -1.000000 -0.000003 -0.000004
vn -1.000000 0.000011 -0.000008
vn -1.000000 0.000009 -0.000008
vn 1.000000 0.000000 0.000000
vn 1.000000 0.000000 0.000000
vn 1.000000 0.000000 0.000000
vn 1.000000 0.000000 0.000000
vn 1.000000 0.000000 0.000000
vn 1.000000 0.000000 0.000000
vn 1.000000 0.000000 0.000000
vn 1.000000 0.000000 0.000000
vn 1.000000 0.000000 0.000000
vn 1.000000 0.000000 0.000000
vn 1.000000 0.000000 0.000000
vn 1.000000 0.000000 0.000000
vn 1.000000 0.000000 0.000000
vn 1.000000 0.000000 0.000000
vn 1.000000 0.000000 0.000000
vn 1.000000 0.000000 0.000000
vn -1.000000 0.000014 -0.000008
vn -1.000000 0.000011 -0.000008
vn -1.000000 0.000009 -0.000008
vn -1.000000 0.000009 -0.000008
vn -1.000000 0.000010 -0.000008
vn 1.000000 0.000000 0.000000
vn 1.000000 0.000000 0.000000
vn 1.000000 0.000000 0.000000
vn 1.000000 0.000000 0.000000
vn 1.000000 0.000000 0.000000
vn 0.000000 0.000076 1.000000
vn 0.000000 0.000076 1.000000
vn 0.000000 0.000076 1.000000
vn 0.000000 0.000076 1.000000
vn 0.000000 0.000069 -1.000000
vn 0.000000 0.000069 -1.000000
vn 0.000000 0.000069 -1.000000
vn 0.000000 0.000069 -1.000000
vn 1.000000 0.000000 0.000000
vn 1.000000 0.000000 0.000000
vn 1.000000 0.000000 0.000000
vn 1.000000 0.000000 0.000000
vn -1.000000 -0.000003 -0.000004
vn -1.000000 -0.000003 -0.000004
vn -1.000000 -0.000004 -0.000004
vn -1.000000 -0.000004 -0.000005
usemtl material
f 1/0/1 2/0/2 3/0/3
f 1/0/1 3/0/3 4/0/4
f 5/0/5 1/0/1 4/0/4
f 5/0/5 4/0/4 6/0/6
f 7/0/7 5/0/5 6/0/6
f 7/0/7 6/0/6 8/0/8
f 8/0/8 6/0/6 9/0/9
f 8/0/8 9/0/9 10/0/10
f 10/0/10 9/0/9 11/0/11
f 10/0/10 11/0/11 12/0/12
f 13/0/13 11/0/11 9/0/9
f 3/0/3 13/0/13 4/0/4
f 13/0/13 14/0/14 11/0/11
f 15/0/15 14/0/14 13/0/13
f 3/0/3 15/0/15 13/0/13
f 15/0/15 16/0/16 14/0/14
f 17/0/17 18/0/18 19/0/19
f 17/0/17 19/0/19 20/0/20
f 18/0/18 21/0/21 19/0/19
f 18/0/18 22/0/22 21/0/21
f 22/0/22 23/0/23 21/0/21
f 22/0/22 24/0/24 23/0/23
f 25/0/25 24/0/24 22/0/22
f 25/0/25 26/0/26 24/0/24
f 27/0/27 18/0/18 17/0/17
f 27/0/27 28/0/28 18/0/18
f 29/0/29 26/0/26 25/0/25
f 29/0/29 30/0/30 26/0/26
f 31/0/31 29/0/29 25/0/25
f 31/0/31 25/0/25 28/0/28
f 32/0/32 31/0/31 28/0/28
f 32/0/32 28/0/28 27/0/27
f 33/0/33 34/0/34 35/0/35
f 33/0/33 35/0/35 36/0/36
f 34/0/34 37/0/37 35/0/35
f 34/0/34 38/0/38 37/0/37
f 38/0/38 39/0/39 37/0/37
f 38/0/38 40/0/40 39/0/39
f 41/0/41 40/0/40 38/0/38
f 41/0/41 42/0/42 40/0/40
f 43/0/43 42/0/42 41/0/41
f 43/0/43 44/0/44 42/0/42
f 45/0/45 43/0/43 41/0/41
f 45/0/45 41/0/41 46/0/46
f 47/0/47 45/0/45 46/0/46
f 47/0/47 46/0/46 48/0/48
f 48/0/48 46/0/46 34/0/34
f 48/0/48 34/0/34 33/0/33
f 49/0/49 50/0/50 51/0/51
f 49/0/49 51/0/51 52/0/52
f 51/0/51 53/0/53 52/0/52
f 51/0/51 54/0/54 53/0/53
f 54/0/54 55/0/55 53/0/53
f 54/0/54 56/0/56 55/0/55
f 57/0/57 56/0/56 54/0/54
f 57/0/57 58/0/58 56/0/56
f 50/0/50 59/0/59 51/0/51
f 50/0/50 60/0/60 59/0/59
f 61/0/61 58/0/58 57/0/57
f 61/0/61 62/0/62 58/0/58
f 63/0/63 61/0/61 57/0/57
f 63/0/63 57/0/57 59/0/59
f 60/0/60 63/0/63 59/0/59
f 60/0/60 64/0/64 63/0/63
f 65/0/65 66/0/66 67/0/67
f 67/0/67 68/0/68 65/0/65
f 68/0/68 69/0/69 65/0/65
f 70/0/70 71/0/71 72/0/72
f 72/0/72 73/0/73 70/0/70
f 73/0/73 74/0/74 70/0/70
f 75/0/75 76/0/76 77/0/77
f 75/0/75 77/0/77 78/0/78
f 79/0/79 80/0/80 81/0/81
f 79/0/79 81/0/81 82/0/82
f 83/0/83 84/0/84 85/0/85
f 83/0/83 85/0/85 86/0/86
f 87/0/87 88/0/88 89/0/89
f 87/0/87 89/0/89 90/0/90
