# 
# Wavefront OBJ file
# Created with Kaydara FBX
# 
mtllib c2 #225802.mtl

g C2
v 107.825699 0.000000 48.674950
v 107.825699 -4.999998 48.674950
v 107.825699 -4.999998 43.665421
v 107.825699 0.000000 43.665421
v 107.825699 0.000000 43.665421
v 107.825699 -4.999998 43.665421
v 107.825699 -4.999998 31.152859
v 107.825699 0.000000 31.152859
v 107.825699 0.000000 31.152859
v 107.825699 -4.999998 31.152859
v 107.825699 -4.999998 18.640297
v 107.825699 0.000000 18.640297
v 107.825699 0.000000 18.640297
v 107.825699 -4.999998 18.640297
v 107.825699 -4.999998 6.127738
v 107.825699 0.000000 6.127738
v 110.339859 0.000000 -8.886088
v 110.339859 -4.999998 -8.886088
v 102.813202 -4.999998 -8.886088
v 102.813202 0.000000 -8.886088
v 102.813202 0.000000 -8.886091
v 102.813202 -4.999998 -8.886091
v 102.813202 -4.999998 -16.367226
v 102.813202 0.000000 -16.367226
v 110.339859 0.000000 -16.367226
v 102.813202 0.000000 -16.367226
v 102.813202 -4.999998 -16.367226
v 110.339859 -4.999998 -16.367226
v 110.339859 0.000000 6.127739
v 107.825699 0.000000 6.127739
v 107.825699 -4.999998 6.127739
v 110.339859 -4.999998 6.127739
v 110.339859 0.000000 48.674950
v 110.339859 -4.999998 48.674950
v 107.825699 -4.999998 48.674950
v 107.825699 0.000000 48.674950
v 110.339859 -4.999998 -48.969803
v 110.339874 -4.999998 -53.993740
v 110.339874 0.000000 -53.993740
v 110.339859 0.000000 -48.969803
v 110.339874 0.000000 -53.993740
v 110.339874 -4.999998 -53.993740
v 105.345459 -4.999998 -53.993740
v 105.345459 0.000000 -53.993740
v 105.345459 0.000000 -59.001736
v 105.345459 -4.999998 -59.001736
v 100.350723 -4.999998 -59.001736
v 100.350723 0.000000 -59.001736
v 105.345459 -4.999998 -53.993740
v 105.345459 -4.999998 -59.001736
v 105.345459 0.000000 -59.001736
v 105.345459 0.000000 -53.993740
v 95.359093 -4.999998 -51.472996
v 95.359093 0.000000 -51.472996
v 95.359093 0.000000 -56.491631
v 95.359093 -4.999998 -56.491631
v 95.359093 0.000000 -56.491631
v 100.352119 0.000000 -56.491631
v 100.352119 -4.999998 -56.491631
v 95.359093 -4.999998 -56.491631
v 100.352119 -4.999998 -56.491631
v 100.352119 0.000000 -56.491631
v 100.350723 0.000000 -59.001736
v 100.350723 -4.999998 -59.001736
v 90.337517 -4.999998 -51.478298
v 90.337517 0.000000 -51.478298
v 95.359093 0.000000 -51.472996
v 95.359093 -4.999998 -51.472996
v 90.339874 -4.999998 -48.969002
v 90.339874 0.000000 -48.969002
v 90.337517 0.000000 -51.478298
v 90.337517 -4.999998 -51.478298
v 110.339859 -4.999998 48.674950
v 110.339859 0.000000 48.674950
v 110.339874 0.000000 53.698887
v 110.339874 -4.999998 53.698887
v 110.339874 0.000000 53.698887
v 105.345459 0.000000 53.698887
v 105.345459 -4.999998 53.698887
v 110.339874 -4.999998 53.698887
v 105.345459 -4.999998 51.187138
v 105.345459 -4.999998 53.698887
v 105.345459 0.000000 53.698887
v 105.345459 0.000000 51.187138
v 95.359779 0.000000 53.676960
v 95.359779 -4.999998 53.676960
v 100.351425 -4.999998 53.673416
v 100.351425 0.000000 53.673416
v 90.337517 -4.999998 56.190613
v 95.359093 -4.999998 56.187958
v 95.359093 0.000000 56.187958
v 90.337517 0.000000 56.190613
v 90.339874 -4.999998 48.674950
v 90.337517 -4.999998 56.190613
v 90.337517 0.000000 56.190613
v 90.339874 0.000000 48.674950
v 105.345459 0.000000 51.187138
v 100.351425 0.000000 51.187138
v 100.351425 -4.999998 51.187138
v 105.345459 -4.999998 51.187138
v 100.351425 -4.999998 51.187138
v 100.351425 0.000000 51.187138
v 100.351425 0.000000 53.673416
v 100.351425 -4.999998 53.673416
v 95.359779 -4.999998 53.676960
v 95.359779 0.000000 53.676960
v 95.359093 0.000000 56.187958
v 95.359093 -4.999998 56.187958
v 90.339859 0.000000 43.665421
v 90.339859 -4.999998 43.665421
v 90.339874 -4.999998 48.674950
v 90.339874 0.000000 48.674950
v 90.339859 0.000000 31.152853
v 90.339859 -4.999998 31.152853
v 90.339859 -4.999998 43.665421
v 90.339859 0.000000 43.665421
v 90.339859 0.000000 18.640293
v 90.339859 -4.999998 18.640293
v 90.339859 -4.999998 31.152853
v 90.339859 0.000000 31.152853
v 90.339859 0.000000 6.127733
v 90.339859 -4.999998 6.127733
v 90.339859 -4.999998 18.640293
v 90.339859 0.000000 18.640293
v 110.339859 0.000000 6.127738
v 110.339859 -4.999998 6.127738
v 110.339859 -4.999998 -6.384820
v 110.339859 0.000000 -6.384820
v 90.339859 0.000000 -6.384825
v 90.339859 -4.999998 -6.384825
v 90.339859 -4.999998 6.127733
v 90.339859 0.000000 6.127733
v 110.339859 0.000000 -6.384820
v 110.339859 -4.999998 -6.384820
v 110.339859 -4.999998 -8.886090
v 110.339859 0.000000 -8.886090
v 90.339859 0.000000 -18.897385
v 90.339859 -4.999998 -18.897385
v 90.339859 -4.999998 -6.384825
v 90.339859 0.000000 -6.384825
v 110.339859 0.000000 -18.897381
v 110.339859 -4.999998 -18.897381
v 110.339859 -4.999998 -31.409939
v 110.339859 0.000000 -31.409939
v 90.339859 0.000000 -31.409943
v 90.339859 -4.999998 -31.409943
v 90.339859 -4.999998 -18.897385
v 90.339859 0.000000 -18.897385
v 110.339859 0.000000 -31.409939
v 110.339859 -4.999998 -31.409939
v 110.339859 -4.999998 -43.922489
v 110.339859 0.000000 -43.922489
v 90.339859 0.000000 -43.922501
v 90.339859 -4.999998 -43.922501
v 90.339859 -4.999998 -31.409943
v 90.339859 0.000000 -31.409943
v 110.339859 0.000000 -43.922489
v 110.339859 -4.999998 -43.922489
v 110.339859 -4.999998 -48.969803
v 110.339859 0.000000 -48.969803
v 90.339874 0.000000 -48.969002
v 90.339874 -4.999998 -48.969002
v 90.339859 -4.999998 -43.922501
v 90.339859 0.000000 -43.922501
v 110.339859 0.000000 -16.367226
v 110.339859 -4.999998 -16.367226
v 110.339859 -4.999998 -18.897381
v 110.339859 0.000000 -18.897381
vt 6.011744 -4.493207
vt 6.011744 -5.494120
vt 4.999625 -5.500129
vt 4.999625 -4.499198
vt 7.501819 -4.499198
vt 7.501819 -5.499984
vt 4.999625 -5.500129
vt 4.999625 -4.499198
vt 7.501819 -4.499198
vt 7.501819 -5.499984
vt 4.999625 -5.500129
vt 4.999625 -4.499198
vt 7.501819 -4.499198
vt 7.501819 -5.499984
vt 4.999625 -5.500129
vt 4.999625 -4.499198
vt 4.999625 -4.499198
vt 4.999625 -5.500129
vt 3.489617 -5.497960
vt 3.489617 -4.497030
vt 7.002742 -4.501091
vt 7.002742 -5.501928
vt 5.504317 -5.500952
vt 5.504317 -4.500094
vt 4.999625 -4.499198
vt 3.489617 -4.497030
vt 3.489617 -5.497960
vt 4.999625 -5.500129
vt 4.999625 -4.499198
vt 4.495376 -4.498857
vt 4.495376 -5.499787
vt 4.999625 -5.500129
vt 4.999625 -4.499198
vt 4.999625 -5.500129
vt 4.495376 -5.499787
vt 4.495376 -4.498857
vt 6.004349 -5.500221
vt 4.999625 -5.500129
vt 4.999625 -4.499198
vt 6.004349 -4.499319
vt 4.999625 -4.499198
vt 4.999625 -5.500129
vt 4.000685 -5.500865
vt 4.000685 -4.499935
vt 4.999625 -4.499198
vt 4.999625 -5.500129
vt 4.000622 -5.500129
vt 4.000622 -4.499198
vt 6.004349 -5.500129
vt 4.999625 -5.500129
vt 4.999625 -4.499198
vt 6.004349 -4.499198
vt 6.004349 -5.500221
vt 6.004349 -4.499319
vt 4.999625 -4.499198
vt 4.999625 -5.500129
vt 4.999625 -4.499198
vt 4.000685 -4.499935
vt 4.000685 -5.500865
vt 4.999625 -5.500129
vt 5.501950 -5.500258
vt 5.501950 -4.499335
vt 4.999625 -4.499198
vt 4.999625 -5.500129
vt 6.004349 -5.500221
vt 6.004349 -4.499319
vt 4.999625 -4.499198
vt 4.999625 -5.500129
vt 5.501950 -5.500258
vt 5.501950 -4.499335
vt 4.999625 -4.499198
vt 4.999625 -5.500129
vt 6.004349 -5.500129
vt 6.004349 -4.499198
vt 4.999625 -4.499198
vt 4.999625 -5.500129
vt 4.999625 -4.499198
vt 4.000685 -4.499198
vt 4.000685 -5.500129
vt 4.999625 -5.500129
vt 5.501977 -5.501319
vt 4.999625 -5.500129
vt 4.999625 -4.499198
vt 5.501977 -4.500389
vt 4.999625 -4.499198
vt 4.999625 -5.500129
vt 4.000685 -5.500129
vt 4.000685 -4.499198
vt 6.004349 -5.500129
vt 4.999625 -5.500129
vt 4.999625 -4.499198
vt 6.004349 -4.499198
vt 6.506903 -5.500129
vt 4.999625 -5.500129
vt 4.999625 -4.499198
vt 6.506903 -4.499198
vt 4.999625 -4.499198
vt 4.000622 -4.499198
vt 4.000622 -5.500129
vt 4.999625 -5.500129
vt 5.501950 -5.500129
vt 5.501950 -4.499198
vt 4.999625 -4.499198
vt 4.999625 -5.500129
vt 5.501950 -5.500129
vt 5.501950 -4.499198
vt 4.999625 -4.499198
vt 4.999625 -5.500129
vt 7.501819 -4.499198
vt 7.501819 -5.500129
vt 6.500833 -5.501551
vt 6.500833 -4.500620
vt 7.501819 -4.499198
vt 7.501819 -5.500129
vt 4.999625 -5.500129
vt 4.999625 -4.499198
vt 7.501819 -4.499198
vt 7.501819 -5.500129
vt 4.999625 -5.500129
vt 4.999625 -4.499198
vt 7.501819 -4.499198
vt 7.501819 -5.500129
vt 4.999625 -5.500129
vt 4.999625 -4.499198
vt 7.501819 -4.499198
vt 7.501819 -5.499984
vt 4.999625 -5.500129
vt 4.999625 -4.499198
vt 7.501819 -4.499198
vt 7.501819 -5.500129
vt 4.999625 -5.500129
vt 4.999625 -4.499198
vt 7.501819 -4.499198
vt 7.501819 -5.499984
vt 7.009518 -5.496945
vt 7.009518 -4.496145
vt 7.501819 -4.499198
vt 7.501819 -5.500129
vt 4.999625 -5.500129
vt 4.999625 -4.499198
vt 7.501819 -4.499198
vt 7.501819 -5.499984
vt 4.999625 -5.500129
vt 4.999625 -4.499198
vt 7.501819 -4.499198
vt 7.501819 -5.500129
vt 4.999625 -5.500129
vt 4.999625 -4.499198
vt 7.501819 -4.499198
vt 7.501819 -5.499984
vt 4.999625 -5.500129
vt 4.999625 -4.499198
vt 7.501819 -4.499198
vt 7.501819 -5.500129
vt 4.999625 -5.500129
vt 4.999625 -4.499198
vt 7.501819 -4.499198
vt 7.501819 -5.499984
vt 6.478229 -5.503737
vt 6.478229 -4.502915
vt 6.011954 -4.502358
vt 6.011954 -5.503288
vt 4.999625 -5.500129
vt 4.999625 -4.499198
vt 5.507561 -4.497994
vt 5.507561 -5.498917
vt 4.999625 -5.500129
vt 4.999625 -4.499198
vn 1.000000 0.000000 0.000000
vn 1.000000 0.000000 0.000000
vn 1.000000 0.000000 0.000000
vn 1.000000 0.000000 0.000000
vn 1.000000 0.000000 0.000000
vn 1.000000 0.000000 0.000000
vn 1.000000 0.000000 0.000000
vn 1.000000 0.000000 0.000000
vn 1.000000 0.000000 0.000000
vn 1.000000 0.000000 0.000000
vn 1.000000 0.000000 0.000000
vn 1.000000 0.000000 0.000000
vn 1.000000 0.000000 0.000000
vn 1.000000 0.000000 0.000000
vn 1.000000 0.000000 0.000000
vn 1.000000 0.000000 0.000000
vn 0.000000 0.000000 -1.000000
vn 0.000000 0.000000 -1.000000
vn 0.000000 0.000000 -1.000000
vn 0.000000 0.000000 -1.000000
vn 1.000000 0.000000 0.000000
vn 1.000000 0.000000 0.000000
vn 1.000000 0.000000 0.000000
vn 1.000000 0.000000 0.000000
vn 0.000000 0.000000 1.000000
vn 0.000000 0.000000 1.000000
vn 0.000000 0.000000 1.000000
vn 0.000000 0.000000 1.000000
vn 0.000000 0.000000 1.000000
vn 0.000000 0.000000 1.000000
vn 0.000000 0.000000 1.000000
vn 0.000000 0.000000 1.000000
vn 0.000000 0.000000 -1.000000
vn 0.000000 0.000000 -1.000000
vn 0.000000 0.000000 -1.000000
vn 0.000000 0.000000 -1.000000
vn 1.000000 0.000000 0.000002
vn 1.000000 0.000000 0.000002
vn 1.000000 0.000000 0.000002
vn 1.000000 0.000000 0.000002
vn 0.000000 0.000000 -1.000000
vn 0.000000 0.000000 -1.000000
vn 0.000000 0.000000 -1.000000
vn 0.000000 0.000000 -1.000000
vn 0.000000 0.000000 -1.000000
vn 0.000000 0.000000 -1.000000
vn 0.000000 0.000000 -1.000000
vn 0.000000 0.000000 -1.000000
vn 1.000000 0.000000 0.000000
vn 1.000000 0.000000 0.000000
vn 1.000000 0.000000 0.000000
vn 1.000000 0.000000 0.000000
vn -1.000000 0.000000 0.000000
vn -1.000000 0.000000 0.000000
vn -1.000000 0.000000 0.000000
vn -1.000000 0.000000 0.000000
vn 0.000000 0.000000 -1.000000
vn 0.000000 0.000000 -1.000000
vn 0.000000 0.000000 -1.000000
vn 0.000000 0.000000 -1.000000
vn -1.000000 0.000000 0.000556
vn -1.000000 0.000000 0.000556
vn -1.000000 0.000000 0.000556
vn -1.000000 0.000000 0.000556
vn 0.001055 0.000000 -0.999999
vn 0.001055 0.000000 -0.999999
vn 0.001055 0.000000 -0.999999
vn 0.001055 0.000000 -0.999999
vn -1.000000 0.000000 0.000938
vn -1.000000 0.000000 0.000938
vn -1.000000 0.000000 0.000938
vn -1.000000 0.000000 0.000938
vn 1.000000 0.000000 -0.000002
vn 1.000000 0.000000 -0.000002
vn 1.000000 0.000000 -0.000002
vn 1.000000 0.000000 -0.000002
vn 0.000000 0.000000 1.000000
vn 0.000000 0.000000 1.000000
vn 0.000000 0.000000 1.000000
vn 0.000000 0.000000 1.000000
vn -1.000000 0.000000 0.000000
vn -1.000000 0.000000 0.000000
vn -1.000000 0.000000 0.000000
vn -1.000000 0.000000 0.000000
vn 0.000710 0.000000 1.000000
vn 0.000710 0.000000 1.000000
vn 0.000710 0.000000 1.000000
vn 0.000710 0.000000 1.000000
vn 0.000530 0.000000 1.000000
vn 0.000530 0.000000 1.000000
vn 0.000530 0.000000 1.000000
vn 0.000530 0.000000 1.000000
vn -1.000000 0.000000 -0.000313
vn -1.000000 0.000000 -0.000313
vn -1.000000 0.000000 -0.000313
vn -1.000000 0.000000 -0.000313
vn 0.000000 0.000000 1.000000
vn 0.000000 0.000000 1.000000
vn 0.000000 0.000000 1.000000
vn 0.000000 0.000000 1.000000
vn 1.000000 0.000000 0.000000
vn 1.000000 0.000000 0.000000
vn 1.000000 0.000000 0.000000
vn 1.000000 0.000000 0.000000
vn 1.000000 0.000000 0.000276
vn 1.000000 0.000000 0.000276
vn 1.000000 0.000000 0.000276
vn 1.000000 0.000000 0.000276
vn -1.000000 0.000000 0.000002
vn -1.000000 0.000000 0.000002
vn -1.000000 0.000000 0.000002
vn -1.000000 0.000000 0.000002
vn -1.000000 0.000000 0.000000
vn -1.000000 0.000000 0.000000
vn -1.000000 0.000000 0.000000
vn -1.000000 0.000000 0.000000
vn -1.000000 0.000000 0.000000
vn -1.000000 0.000000 0.000000
vn -1.000000 0.000000 0.000000
vn -1.000000 0.000000 0.000000
vn -1.000000 0.000000 0.000000
vn -1.000000 0.000000 0.000000
vn -1.000000 0.000000 0.000000
vn -1.000000 0.000000 0.000000
vn 1.000000 0.000000 0.000000
vn 1.000000 0.000000 0.000000
vn 1.000000 0.000000 0.000000
vn 1.000000 0.000000 0.000000
vn -1.000000 0.000000 0.000000
vn -1.000000 0.000000 0.000000
vn -1.000000 0.000000 0.000000
vn -1.000000 0.000000 0.000000
vn 1.000000 0.000000 0.000000
vn 1.000000 0.000000 0.000000
vn 1.000000 0.000000 0.000000
vn 1.000000 0.000000 0.000000
vn -1.000000 0.000000 0.000000
vn -1.000000 0.000000 0.000000
vn -1.000000 0.000000 0.000000
vn -1.000000 0.000000 0.000000
vn 1.000000 0.000000 0.000000
vn 1.000000 0.000000 0.000000
vn 1.000000 0.000000 0.000000
vn 1.000000 0.000000 0.000000
vn -1.000000 0.000000 0.000000
vn -1.000000 0.000000 0.000000
vn -1.000000 0.000000 0.000000
vn -1.000000 0.000000 0.000000
vn 1.000000 0.000000 0.000000
vn 1.000000 0.000000 0.000000
vn 1.000000 0.000000 0.000000
vn 1.000000 0.000000 0.000000
vn -1.000000 0.000000 0.000000
vn -1.000000 0.000000 0.000000
vn -1.000000 0.000000 0.000000
vn -1.000000 0.000000 0.000000
vn 1.000000 0.000000 0.000000
vn 1.000000 0.000000 0.000000
vn 1.000000 0.000000 0.000000
vn 1.000000 0.000000 0.000000
vn -1.000000 0.000000 -0.000002
vn -1.000000 0.000000 -0.000002
vn -1.000000 0.000000 -0.000002
vn -1.000000 0.000000 -0.000002
vn 1.000000 0.000000 0.000000
vn 1.000000 0.000000 0.000000
vn 1.000000 0.000000 0.000000
vn 1.000000 0.000000 0.000000
usemtl material
f 1/0/1 2/0/2 3/0/3
f 1/0/1 3/0/3 4/0/4
f 5/0/5 6/0/6 7/0/7
f 5/0/5 7/0/7 8/0/8
f 9/0/9 10/0/10 11/0/11
f 9/0/9 11/0/11 12/0/12
f 13/0/13 14/0/14 15/0/15
f 13/0/13 15/0/15 16/0/16
f 17/0/17 18/0/18 19/0/19
f 17/0/17 19/0/19 20/0/20
f 21/0/21 22/0/22 23/0/23
f 21/0/21 23/0/23 24/0/24
f 25/0/25 26/0/26 27/0/27
f 25/0/25 27/0/27 28/0/28
f 29/0/29 30/0/30 31/0/31
f 29/0/29 31/0/31 32/0/32
f 33/0/33 34/0/34 35/0/35
f 33/0/33 35/0/35 36/0/36
f 37/0/37 38/0/38 39/0/39
f 37/0/37 39/0/39 40/0/40
f 41/0/41 42/0/42 43/0/43
f 41/0/41 43/0/43 44/0/44
f 45/0/45 46/0/46 47/0/47
f 45/0/45 47/0/47 48/0/48
f 49/0/49 50/0/50 51/0/51
f 49/0/49 51/0/51 52/0/52
f 53/0/53 54/0/54 55/0/55
f 53/0/53 55/0/55 56/0/56
f 57/0/57 58/0/58 59/0/59
f 57/0/57 59/0/59 60/0/60
f 61/0/61 62/0/62 63/0/63
f 61/0/61 63/0/63 64/0/64
f 65/0/65 66/0/66 67/0/67
f 65/0/65 67/0/67 68/0/68
f 69/0/69 70/0/70 71/0/71
f 69/0/69 71/0/71 72/0/72
f 73/0/73 74/0/74 75/0/75
f 73/0/73 75/0/75 76/0/76
f 77/0/77 78/0/78 79/0/79
f 77/0/77 79/0/79 80/0/80
f 81/0/81 82/0/82 83/0/83
f 81/0/81 83/0/83 84/0/84
f 85/0/85 86/0/86 87/0/87
f 85/0/85 87/0/87 88/0/88
f 89/0/89 90/0/90 91/0/91
f 89/0/89 91/0/91 92/0/92
f 93/0/93 94/0/94 95/0/95
f 93/0/93 95/0/95 96/0/96
f 97/0/97 98/0/98 99/0/99
f 97/0/97 99/0/99 100/0/100
f 101/0/101 102/0/102 103/0/103
f 101/0/101 103/0/103 104/0/104
f 105/0/105 106/0/106 107/0/107
f 105/0/105 107/0/107 108/0/108
f 109/0/109 110/0/110 111/0/111
f 109/0/109 111/0/111 112/0/112
f 113/0/113 114/0/114 115/0/115
f 113/0/113 115/0/115 116/0/116
f 117/0/117 118/0/118 119/0/119
f 117/0/117 119/0/119 120/0/120
f 121/0/121 122/0/122 123/0/123
f 121/0/121 123/0/123 124/0/124
f 125/0/125 126/0/126 127/0/127
f 125/0/125 127/0/127 128/0/128
f 129/0/129 130/0/130 131/0/131
f 129/0/129 131/0/131 132/0/132
f 133/0/133 134/0/134 135/0/135
f 133/0/133 135/0/135 136/0/136
f 137/0/137 138/0/138 139/0/139
f 137/0/137 139/0/139 140/0/140
f 141/0/141 142/0/142 143/0/143
f 141/0/141 143/0/143 144/0/144
f 145/0/145 146/0/146 147/0/147
f 145/0/145 147/0/147 148/0/148
f 149/0/149 150/0/150 151/0/151
f 149/0/149 151/0/151 152/0/152
f 153/0/153 154/0/154 155/0/155
f 153/0/153 155/0/155 156/0/156
f 157/0/157 158/0/158 159/0/159
f 157/0/157 159/0/159 160/0/160
f 161/0/161 162/0/162 163/0/163
f 161/0/161 163/0/163 164/0/164
f 165/0/165 166/0/166 167/0/167
f 165/0/165 167/0/167 168/0/168
