# 
# Wavefront OBJ file
# Created with Kaydara FBX
# 
mtllib c2 #225850.mtl

g C2
v -10.000000 0.000000 -0.000003
v -10.000000 -4.999998 -0.000003
v -10.000000 -4.999998 12.512561
v -10.000000 0.000000 12.512561
v -10.000000 0.000000 12.512561
v -10.000000 -4.999998 12.512561
v 10.000000 -4.999998 12.512566
v 10.000000 0.000000 12.512566
v 10.000000 0.000000 12.512566
v 10.000000 -4.999998 12.512566
v 10.000000 -4.999998 0.000002
v 10.000000 0.000000 0.000002
v -10.000000 0.000000 -12.512566
v -10.000000 -4.999998 -12.512566
v -10.000000 -4.999998 -0.000003
v -10.000000 0.000000 -0.000003
v 10.000000 0.000000 0.000002
v 10.000000 -4.999998 0.000002
v 10.000000 -4.999998 -12.512561
v 10.000000 0.000000 -12.512561
v 10.000000 0.000000 -12.512561
v 10.000000 -4.999998 -12.512561
v -10.000000 -4.999998 -12.512566
v -10.000000 0.000000 -12.512566
vt 7.501819 -4.499198
vt 7.501819 -5.499984
vt 4.999625 -5.500129
vt 4.999625 -4.499198
vt 4.999625 -4.499198
vt 4.999625 -5.500129
vt 0.999705 -5.500129
vt 0.999705 -4.499198
vt 7.501819 -4.499198
vt 7.501819 -5.500129
vt 4.999625 -5.500129
vt 4.999625 -4.499198
vt 7.501819 -4.499198
vt 7.501819 -5.499984
vt 4.999625 -5.500129
vt 4.999625 -4.499198
vt 7.501819 -4.499198
vt 7.501819 -5.500129
vt 4.999625 -5.500129
vt 4.999625 -4.499198
vt 4.999625 -4.499198
vt 4.999625 -5.500129
vt 0.999705 -5.499185
vt 0.999705 -4.499198
vn -1.000000 0.000000 0.000000
vn -1.000000 0.000000 0.000000
vn -1.000000 0.000000 0.000000
vn -1.000000 0.000000 0.000000
vn -0.000000 0.000000 1.000000
vn -0.000000 0.000000 1.000000
vn -0.000000 0.000000 1.000000
vn -0.000000 0.000000 1.000000
vn 1.000000 0.000000 0.000000
vn 1.000000 0.000000 0.000000
vn 1.000000 0.000000 0.000000
vn 1.000000 0.000000 0.000000
vn -1.000000 0.000000 0.000000
vn -1.000000 0.000000 0.000000
vn -1.000000 0.000000 0.000000
vn -1.000000 0.000000 0.000000
vn 1.000000 0.000000 0.000000
vn 1.000000 0.000000 0.000000
vn 1.000000 0.000000 0.000000
vn 1.000000 0.000000 0.000000
vn 0.000000 0.000000 -1.000000
vn 0.000000 0.000000 -1.000000
vn 0.000000 0.000000 -1.000000
vn 0.000000 0.000000 -1.000000
usemtl material
f 1/0/1 2/0/2 3/0/3
f 1/0/1 3/0/3 4/0/4
f 5/0/5 6/0/6 7/0/7
f 5/0/5 7/0/7 8/0/8
f 9/0/9 10/0/10 11/0/11
f 9/0/9 11/0/11 12/0/12
f 13/0/13 14/0/14 15/0/15
f 13/0/13 15/0/15 16/0/16
f 17/0/17 18/0/18 19/0/19
f 17/0/17 19/0/19 20/0/20
f 21/0/21 22/0/22 23/0/23
f 21/0/21 23/0/23 24/0/24
