# 
# Wavefront OBJ file
# Created with Kaydara FBX
# 
mtllib c2.mtl

g C2
v 0.188747 3.749431 -1.286965
v -1.148190 3.551172 -1.739258
v -1.148190 3.749431 -1.286849
v 0.188746 3.551172 -1.739375
v -2.480617 3.749431 -1.286733
v -2.480617 3.551173 -1.739142
v -3.813043 3.749431 -1.286616
v -3.813042 3.551172 -1.739025
v -5.145469 3.749431 -1.286499
v -5.145469 3.551172 -1.738909
v -2.480617 3.749431 -1.286733
v -1.148190 4.063368 -0.886699
v -1.148190 3.749431 -1.286849
v -2.480617 4.063368 -0.886583
v -3.813043 4.063366 -0.886466
v -3.813043 3.749431 -1.286616
v 0.188747 3.749431 -1.286965
v 0.188747 4.063369 -0.886816
v -5.145471 4.063365 -0.886350
v -5.145469 3.749431 -1.286499
v 0.188746 3.551172 -1.739375
v -1.148191 3.463591 -2.215399
v -1.148190 3.551172 -1.739258
v 0.188759 3.463591 -2.215515
v -2.480617 3.551173 -1.739142
v -2.480603 3.463591 -2.215282
v -3.813042 3.551172 -1.739025
v -3.813043 3.463591 -2.215165
v -5.145469 3.551172 -1.738909
v -5.147709 3.463591 -2.215048
v -1.148191 3.551172 0.124847
v 0.188745 3.749431 -0.327679
v -1.148190 3.749431 -0.327563
v 0.188745 3.551172 0.124730
v -1.148191 3.463591 0.600986
v 0.188758 3.463591 0.600869
v -2.480617 3.551172 0.124963
v -2.480617 3.749431 -0.327446
v -1.148190 4.063366 -0.727712
v -2.480617 4.063368 -0.727595
v -3.813044 4.063368 -0.727479
v -3.813043 3.749431 -0.327330
v 0.188746 4.063365 -0.727829
v -2.480603 3.463591 0.601103
v -3.813043 3.551172 0.125080
v -5.145471 3.749431 -0.327213
v -5.145471 3.551172 0.125196
v -3.813043 3.463591 0.601220
v -5.147710 3.463591 0.601336
v -5.145471 4.063369 -0.727363
v -1.148191 3.375614 0.574880
v -3.813044 3.375614 0.575114
v -5.149952 3.377792 0.565491
v -2.480590 3.372967 0.574881
v 0.188772 3.377792 0.565024
v 0.188759 3.463591 -2.215515
v -1.148191 3.375614 -2.189292
v -1.148191 3.463591 -2.215399
v -2.480603 3.463591 -2.215282
v -2.480590 3.375452 -2.189292
v -3.813043 3.463591 -2.215165
v -3.813044 3.375614 -2.189059
v -5.147709 3.463591 -2.215048
v -1.148191 3.375614 -2.189292
v 0.188759 3.463591 -2.215515
v 0.188772 3.377792 -2.179670
v -5.147709 3.463591 -2.215048
v -3.813044 3.375614 -2.189059
v -5.149951 3.377792 -2.179203
vt 5.245453 1.194367
vt 3.944791 0.692378
vt 3.944791 1.194367
vt 5.245453 0.692378
vt 2.648511 1.194367
vt 2.648511 0.692378
vt 1.352219 1.194367
vt 1.352219 0.692378
vt 0.051547 1.194367
vt 0.051547 0.692378
vt 2.648511 1.194367
vt 3.944791 1.711251
vt 3.944791 1.194367
vt 2.648511 1.711251
vt 1.352219 1.711251
vt 1.352219 1.194367
vt 5.245453 1.194367
vt 5.245453 1.711251
vt 0.051547 1.711251
vt 0.051547 1.194367
vt 5.245453 0.692378
vt 3.944791 0.200366
vt 3.944791 0.692378
vt 5.245453 0.200366
vt 2.648511 0.692378
vt 2.648511 0.200366
vt 1.352219 0.692378
vt 1.352219 0.200366
vt 0.051547 0.692378
vt 0.051547 0.200366
vt 1.352219 0.695459
vt 0.051547 1.195928
vt 1.352219 1.195928
vt 0.051547 0.695459
vt 1.352219 0.204936
vt 0.051547 0.204936
vt 2.648511 0.695459
vt 2.648511 1.195928
vt 1.352219 1.711248
vt 2.648511 1.711248
vt 3.944791 1.711248
vt 3.944791 1.195928
vt 0.051547 1.711248
vt 2.648511 0.204936
vt 3.944791 0.695459
vt 5.245453 1.195928
vt 5.245453 0.695459
vt 3.944791 0.204936
vt 5.245453 0.204936
vt 5.245453 1.711248
vt 1.352219 0.111021
vt 3.944791 0.111021
vt 5.245453 0.111021
vt 2.648511 0.111021
vt 0.051547 0.111021
vt 5.245453 0.200366
vt 3.944791 0.106665
vt 3.944791 0.200366
vt 2.648511 0.200366
vt 2.648511 0.106665
vt 1.352219 0.200366
vt 1.352219 0.106665
vt 0.051547 0.200366
vt 3.944791 0.106665
vt 5.245453 0.200366
vt 5.245453 0.106665
vt 0.051547 0.200366
vt 1.352219 0.106665
vt 0.051547 0.106665
vn -0.000035 0.915912 -0.401379
vn -0.000035 0.915912 -0.401379
vn -0.000035 0.915912 -0.401379
vn -0.000035 0.915912 -0.401380
vn -0.000035 0.915912 -0.401379
vn -0.000035 0.915912 -0.401379
vn -0.000035 0.915912 -0.401379
vn -0.000035 0.915912 -0.401379
vn -0.000035 0.915912 -0.401379
vn -0.000036 0.915912 -0.401380
vn -0.000054 0.786763 -0.617255
vn -0.000054 0.786763 -0.617255
vn -0.000054 0.786763 -0.617255
vn -0.000054 0.786764 -0.617253
vn -0.000054 0.786765 -0.617252
vn -0.000054 0.786765 -0.617252
vn -0.000054 0.786763 -0.617256
vn -0.000054 0.786763 -0.617255
vn -0.000054 0.786766 -0.617251
vn -0.000054 0.786766 -0.617251
vn -0.000015 0.983501 -0.180905
vn -0.000015 0.983501 -0.180905
vn -0.000015 0.983501 -0.180905
vn -0.000016 0.983501 -0.180904
vn -0.000016 0.983500 -0.180906
vn -0.000016 0.983500 -0.180906
vn -0.000016 0.983501 -0.180905
vn -0.000016 0.983501 -0.180905
vn -0.000016 0.983501 -0.180905
vn -0.000016 0.983501 -0.180904
vn 0.000026 0.956083 0.293097
vn 0.000045 0.858151 0.513398
vn 0.000045 0.858154 0.513393
vn 0.000026 0.956081 0.293102
vn 0.000247 0.522937 0.852371
vn 0.005662 0.478430 0.878107
vn 0.000026 0.956083 0.293097
vn 0.000045 0.858153 0.513394
vn 0.000054 0.786765 0.617253
vn 0.000055 0.786764 0.617254
vn 0.000054 0.786763 0.617255
vn 0.000045 0.858153 0.513395
vn 0.000054 0.786766 0.617252
vn -0.000092 0.525699 0.850671
vn 0.000025 0.956083 0.293097
vn 0.000045 0.858155 0.513390
vn 0.000025 0.956135 0.292928
vn 0.000074 0.522871 0.852412
vn -0.005562 0.468619 0.883383
vn 0.000054 0.786762 0.617256
vn 0.000487 -0.286741 0.958008
vn -0.000090 -0.286596 0.958051
vn -0.007270 -0.385321 0.922754
vn -0.000139 -0.278100 0.960552
vn 0.007430 -0.385477 0.922687
vn -0.000084 -0.284478 -0.958683
vn -0.000084 -0.284478 -0.958683
vn -0.000084 -0.284478 -0.958683
vn 0.000034 -0.282831 -0.959170
vn 0.000034 -0.282831 -0.959170
vn -0.000084 -0.284477 -0.958683
vn -0.000084 -0.284477 -0.958683
vn -0.000084 -0.284477 -0.958683
vn 0.007269 -0.385484 -0.922686
vn 0.007269 -0.385484 -0.922686
vn 0.007269 -0.385484 -0.922686
vn -0.007431 -0.385317 -0.922754
vn -0.007431 -0.385317 -0.922754
vn -0.007431 -0.385317 -0.922754
usemtl material
f 1/0/1 2/0/2 3/0/3
f 2/0/2 1/0/1 4/0/4
f 2/0/2 5/0/5 3/0/3
f 5/0/5 2/0/2 6/0/6
f 6/0/6 7/0/7 5/0/5
f 7/0/7 6/0/6 8/0/8
f 8/0/8 9/0/9 7/0/7
f 9/0/9 8/0/8 10/0/10
f 11/0/11 12/0/12 13/0/13
f 12/0/12 11/0/11 14/0/14
f 11/0/11 15/0/15 14/0/14
f 15/0/15 11/0/11 16/0/16
f 12/0/12 17/0/17 13/0/13
f 17/0/17 12/0/12 18/0/18
f 16/0/16 19/0/19 15/0/15
f 19/0/19 16/0/16 20/0/20
f 21/0/21 22/0/22 23/0/23
f 22/0/22 21/0/21 24/0/24
f 22/0/22 25/0/25 23/0/23
f 25/0/25 22/0/22 26/0/26
f 26/0/26 27/0/27 25/0/25
f 27/0/27 26/0/26 28/0/28
f 28/0/28 29/0/29 27/0/27
f 29/0/29 28/0/28 30/0/30
f 31/0/31 32/0/32 33/0/33
f 32/0/32 31/0/31 34/0/34
f 35/0/35 34/0/34 31/0/31
f 34/0/34 35/0/35 36/0/36
f 33/0/33 37/0/37 31/0/31
f 37/0/37 33/0/33 38/0/38
f 39/0/39 38/0/38 33/0/33
f 38/0/38 39/0/39 40/0/40
f 41/0/41 38/0/38 40/0/40
f 38/0/38 41/0/41 42/0/42
f 43/0/43 33/0/33 32/0/32
f 33/0/33 43/0/43 39/0/39
f 44/0/44 31/0/31 37/0/37
f 31/0/31 44/0/44 35/0/35
f 38/0/38 45/0/45 37/0/37
f 45/0/45 38/0/38 42/0/42
f 46/0/46 45/0/45 42/0/42
f 41/0/41 46/0/46 42/0/42
f 45/0/45 46/0/46 47/0/47
f 47/0/47 48/0/48 45/0/45
f 37/0/37 48/0/48 44/0/44
f 48/0/48 37/0/37 45/0/45
f 48/0/48 47/0/47 49/0/49
f 46/0/46 41/0/41 50/0/50
f 51/0/51 36/0/36 35/0/35
f 49/0/49 52/0/52 48/0/48
f 52/0/52 44/0/44 48/0/48
f 52/0/52 49/0/49 53/0/53
f 54/0/54 35/0/35 44/0/44
f 35/0/35 54/0/54 51/0/51
f 44/0/44 52/0/52 54/0/54
f 36/0/36 51/0/51 55/0/55
f 56/0/56 57/0/57 58/0/58
f 57/0/57 59/0/59 58/0/58
f 59/0/59 57/0/57 60/0/60
f 60/0/60 61/0/61 59/0/59
f 61/0/61 60/0/60 62/0/62
f 62/0/62 63/0/63 61/0/61
f 64/0/64 65/0/65 66/0/66
f 67/0/67 68/0/68 69/0/69
