# 
# Wavefront OBJ file
# Created with Kaydara FBX
# 
mtllib cam_collision02 #2279070.mtl

g Cam_Collision02
v 14.475822 -0.029974 6.460887
v 14.475822 9.624273 16.126692
v 10.388882 9.624273 16.126692
v 10.388882 -0.029974 6.460887
v 14.475822 9.624273 7.337515
v 14.475822 -0.029974 -2.328280
v 10.388882 -0.029974 -2.328280
v 10.388882 9.624273 7.337515
v 10.388882 -0.029974 6.460887
v 10.388882 9.624273 16.126692
v 10.388882 9.624273 7.337515
v 10.388882 -0.029974 -2.328280
v 14.475822 -0.029974 -2.328280
v 14.475822 9.624273 7.337515
v 14.475822 9.624273 16.126692
v 14.475822 -0.029974 6.460887
v -9.583834 -0.029974 6.460887
v -9.583834 9.624273 16.126692
v -13.602357 9.624273 16.126692
v -13.602357 -0.029974 6.460887
v -9.583834 9.624273 7.473967
v -9.583834 -0.029974 -2.191828
v -13.602357 -0.029974 -2.191828
v -13.602357 9.624273 7.473967
v -13.602357 -0.029974 6.460887
v -13.602357 9.624273 16.126692
v -13.602357 9.624273 7.473967
v -13.602357 -0.029974 -2.191828
v -9.583834 -0.029974 -2.191828
v -9.583834 9.624273 7.473967
v -9.583834 9.624273 16.126692
v -9.583834 -0.029974 6.460887
v -50.408142 -0.000000 -11.326904
v -50.408142 7.694224 -11.326904
v -50.408142 7.694224 12.138755
v -50.408142 -0.000000 12.138755
v 57.805843 -0.000000 10.293480
v 57.805843 7.689991 10.293480
v 57.805843 7.689991 -9.545992
v 57.805843 -0.000000 -9.545992
vt 0.375000 0.000000
vt 0.375000 0.250000
vt 0.625000 0.250000
vt 0.625000 0.000000
vt 0.375000 0.500000
vt 0.375000 0.750000
vt 0.625000 0.750000
vt 0.625000 0.500000
vt 0.625000 0.000000
vt 0.625000 0.250000
vt 0.875000 0.250000
vt 0.875000 0.000000
vt 0.125000 0.000000
vt 0.125000 0.250000
vt 0.375000 0.250000
vt 0.375000 0.000000
vt 0.375000 0.000000
vt 0.375000 0.250000
vt 0.625000 0.250000
vt 0.625000 0.000000
vt 0.375000 0.500000
vt 0.375000 0.750000
vt 0.625000 0.750000
vt 0.625000 0.500000
vt 0.625000 0.000000
vt 0.625000 0.250000
vt 0.875000 0.250000
vt 0.875000 0.000000
vt 0.125000 0.000000
vt 0.125000 0.250000
vt 0.375000 0.250000
vt 0.375000 0.000000
vt 0.000000 0.000000
vt -0.000163 0.807558
vt 0.999837 0.807558
vt 1.000000 0.000000
vt 0.000000 0.000000
vt -0.000124 0.807519
vt 0.999876 0.807519
vt 1.000000 0.000000
vn 0.000000 -0.707530 0.706684
vn 0.000000 -0.707530 0.706684
vn 0.000000 -0.707530 0.706684
vn 0.000000 -0.707530 0.706684
vn 0.000000 0.707529 -0.706684
vn 0.000000 0.707529 -0.706684
vn 0.000000 0.707529 -0.706684
vn 0.000000 0.707529 -0.706684
vn -1.000000 0.000000 0.000000
vn -1.000000 0.000000 0.000000
vn -1.000000 0.000000 0.000000
vn -1.000000 0.000000 0.000000
vn 1.000000 0.000000 0.000000
vn 1.000000 0.000000 0.000000
vn 1.000000 0.000000 0.000000
vn 1.000000 0.000000 0.000000
vn 0.000000 -0.707530 0.706684
vn 0.000000 -0.707530 0.706684
vn 0.000000 -0.707530 0.706684
vn 0.000000 -0.707530 0.706684
vn 0.000000 0.707529 -0.706684
vn 0.000000 0.707529 -0.706684
vn 0.000000 0.707529 -0.706684
vn 0.000000 0.707529 -0.706684
vn -1.000000 0.000000 0.000000
vn -1.000000 0.000000 0.000000
vn -1.000000 0.000000 0.000000
vn -1.000000 0.000000 0.000000
vn 1.000000 0.000000 0.000000
vn 1.000000 0.000000 0.000000
vn 1.000000 0.000000 0.000000
vn 1.000000 0.000000 0.000000
vn 1.000000 0.000000 0.000000
vn 1.000000 0.000000 0.000000
vn 1.000000 0.000000 0.000000
vn 1.000000 0.000000 0.000000
vn -1.000000 0.000000 0.000000
vn -1.000000 0.000000 0.000000
vn -1.000000 0.000000 0.000000
vn -1.000000 0.000000 0.000000
usemtl material
f 1/0/1 2/0/2 3/0/3
f 1/0/1 3/0/3 4/0/4
f 5/0/5 6/0/6 7/0/7
f 5/0/5 7/0/7 8/0/8
f 9/0/9 10/0/10 11/0/11
f 9/0/9 11/0/11 12/0/12
f 13/0/13 14/0/14 15/0/15
f 13/0/13 15/0/15 16/0/16
f 17/0/17 18/0/18 19/0/19
f 17/0/17 19/0/19 20/0/20
f 21/0/21 22/0/22 23/0/23
f 21/0/21 23/0/23 24/0/24
f 25/0/25 26/0/26 27/0/27
f 25/0/25 27/0/27 28/0/28
f 29/0/29 30/0/30 31/0/31
f 29/0/29 31/0/31 32/0/32
f 33/0/33 34/0/34 35/0/35
f 33/0/33 35/0/35 36/0/36
f 37/0/37 38/0/38 39/0/39
f 37/0/37 39/0/39 40/0/40
