# 
# Wavefront OBJ file
# Created with Kaydara FBX
# 
mtllib cam_collision01 #2280395.mtl

g Cam_Collision01
v 9.821137 0.000000 -8.562449
v 9.068775 0.000000 -9.671397
v 5.626227 0.000000 -8.660520
v 8.159644 0.000000 -10.716493
v 6.810174 0.000000 -11.635503
v 5.626227 0.000000 -12.239738
v -9.837042 0.000000 -8.583517
v -5.621472 0.000000 -8.660520
v -9.193999 0.000000 -9.676574
v -8.207256 0.000000 -10.704874
v -6.705052 0.000000 -11.718465
v -5.621472 0.000000 -12.239321
v -9.165254 0.000000 9.635381
v -8.260791 0.000000 10.626333
v -5.621472 0.000000 8.660519
v -9.836299 0.000000 8.582742
v -7.083738 0.000000 11.493662
v -5.621472 0.000000 12.199914
v 9.816426 0.000000 8.575465
v 5.626227 0.000000 8.660519
v 9.016601 0.000000 9.780745
v 7.960921 0.000000 10.912138
v 6.823242 0.000000 11.649577
v 5.626227 0.000000 12.199919
v 17.651894 0.000000 32.424892
v -5.251312 0.000000 32.424892
v -5.251312 12.941929 32.424892
v 17.651894 12.941929 32.424892
v 21.663132 12.941929 8.575465
v 21.663132 12.941929 -8.562450
v 21.663132 0.000000 -8.562450
v 21.663132 0.000000 8.575465
v -22.353868 12.941929 1.026960
v -22.353868 12.941929 7.371125
v -22.353868 0.000000 7.371125
v -22.353868 0.000000 1.026960
v -17.421751 12.941929 8.582742
v -9.836299 12.941929 8.582742
v -9.836299 0.000000 8.582742
v -17.421751 0.000000 8.582742
v -5.621472 12.941929 12.199914
v -5.621472 12.941929 26.019405
v -5.621472 0.000000 26.019405
v -5.621472 0.000000 12.199914
v 5.626227 12.941929 26.019405
v 5.626227 12.941929 12.199919
v 5.626227 0.000000 12.199919
v 5.626227 0.000000 26.019405
v 9.816426 12.941929 8.575465
v 21.663132 12.941929 8.575465
v 21.663132 0.000000 8.575465
v 9.816426 0.000000 8.575465
v -5.210608 12.941929 -32.741096
v -5.210608 12.941929 -29.387636
v -5.210608 0.000000 -29.387636
v -5.210608 0.000000 -32.741096
v -5.621472 12.941929 -26.085123
v -5.621472 0.000000 -26.085123
v -5.621472 12.941929 -12.239321
v -5.621472 0.000000 -12.239321
v -9.837042 12.941929 -8.583517
v -17.446058 12.941929 -8.583517
v -17.446058 0.000000 -8.583517
v -9.837042 0.000000 -8.583517
v 5.626227 12.941929 -12.239738
v 5.626227 12.941929 -26.085123
v 5.626227 0.000000 -26.085123
v 5.626227 0.000000 -12.239738
v 21.663132 12.941929 -8.562450
v 9.821137 12.941929 -8.562449
v 9.821137 0.000000 -8.562449
v 21.663132 0.000000 -8.562450
v 6.810174 12.941929 -11.635503
v 5.626227 12.941929 -12.239738
v 5.626227 0.000000 -12.239738
v 6.810174 0.000000 -11.635503
v -9.193999 12.941929 -9.676574
v -9.837042 12.941929 -8.583517
v -9.837042 0.000000 -8.583517
v -9.193999 0.000000 -9.676574
v -7.083738 12.941929 11.493662
v -5.621472 12.941929 12.199914
v -5.621472 0.000000 12.199914
v -7.083738 0.000000 11.493662
v 9.016601 12.941929 9.780745
v 9.816426 12.941929 8.575465
v 9.816426 0.000000 8.575465
v 9.016601 0.000000 9.780745
v 9.821137 12.941929 -8.562449
v 9.068775 12.941929 -9.671397
v 9.068775 0.000000 -9.671397
v 9.821137 0.000000 -8.562449
v 8.159644 12.941929 -10.716493
v 6.810174 12.941929 -11.635503
v 6.810174 0.000000 -11.635503
v 8.159644 0.000000 -10.716493
v 9.068775 12.941929 -9.671397
v 8.159644 12.941929 -10.716493
v 8.159644 0.000000 -10.716493
v 9.068775 0.000000 -9.671397
v -5.621472 12.941929 -12.239321
v -6.705052 12.941929 -11.718465
v -6.705052 0.000000 -11.718465
v -5.621472 0.000000 -12.239321
v -6.705052 12.941929 -11.718465
v -8.207256 12.941929 -10.704874
v -8.207256 0.000000 -10.704874
v -6.705052 0.000000 -11.718465
v -8.207256 12.941929 -10.704874
v -9.193999 12.941929 -9.676574
v -9.193999 0.000000 -9.676574
v -8.207256 0.000000 -10.704874
v -9.165254 12.941929 9.635381
v -8.260791 12.941929 10.626333
v -8.260791 0.000000 10.626333
v -9.165254 0.000000 9.635381
v -9.836299 12.941929 8.582742
v -9.165254 12.941929 9.635381
v -9.165254 0.000000 9.635381
v -9.836299 0.000000 8.582742
v -8.260791 12.941929 10.626333
v -7.083738 12.941929 11.493662
v -7.083738 0.000000 11.493662
v -8.260791 0.000000 10.626333
v 6.823242 12.941929 11.649577
v 7.960921 12.941929 10.912138
v 7.960921 0.000000 10.912138
v 6.823242 0.000000 11.649577
v 7.960921 12.941929 10.912138
v 9.016601 12.941929 9.780745
v 9.016601 0.000000 9.780745
v 7.960921 0.000000 10.912138
v 5.626227 12.941929 12.199919
v 6.823242 12.941929 11.649577
v 6.823242 0.000000 11.649577
v 5.626227 0.000000 12.199919
v 17.456944 12.941929 -32.741096
v 17.456944 0.000000 -32.741096
v 17.456944 0.000000 -26.085123
v 17.456944 12.941929 -26.085123
v 17.456944 12.941929 -26.085123
v 17.456944 0.000000 -26.085123
v 5.626227 0.000000 -26.085123
v 5.626227 12.941929 -26.085123
v -5.210608 0.000000 -32.741096
v 17.456944 0.000000 -32.741096
v 17.456944 12.941929 -32.741096
v -5.210608 12.941929 -32.741096
v 17.651894 0.000000 32.424892
v 17.651894 12.941929 32.424892
v 17.651894 12.941929 26.019405
v 17.651894 0.000000 26.019405
v -5.251312 12.941929 29.217165
v -5.251312 0.000000 29.217165
v -5.621472 0.000000 26.019405
v -5.621472 12.941929 26.019405
v -5.251312 12.941929 32.424892
v -5.251312 0.000000 32.424892
v 17.651894 0.000000 26.019405
v 17.651894 12.941929 26.019405
v 5.626227 12.941929 26.019405
v 5.626227 0.000000 26.019405
v -24.740122 12.941929 -5.223921
v -24.740122 12.941929 1.026960
v -24.740122 0.000000 1.026960
v -24.740122 0.000000 -5.223921
v -24.740122 0.000000 1.026960
v -24.740122 12.941929 1.026960
v -22.353868 12.941929 1.026960
v -22.353868 0.000000 1.026960
v -25.686941 0.000000 -26.052748
v -17.446058 0.000000 -26.052748
v -17.446058 12.941929 -26.052748
v -25.686941 12.941929 -26.052748
v -25.686941 0.000000 -5.223921
v -25.686941 12.941929 -5.223921
v -24.740122 12.941929 -5.223921
v -24.740122 0.000000 -5.223921
v -17.446058 12.941929 -26.052748
v -17.446058 0.000000 -26.052748
v -17.446058 0.000000 -8.583517
v -17.446058 12.941929 -8.583517
v -25.686941 0.000000 -5.223921
v -25.686941 0.000000 -26.052748
v -25.686941 12.941929 -26.052748
v -25.686941 12.941929 -5.223921
v -17.421751 0.000000 8.582742
v -17.421751 0.000000 25.334419
v -17.421751 12.941929 25.334419
v -17.421751 12.941929 8.582742
v -28.711718 12.941929 25.334419
v -28.711718 0.000000 25.334419
v -28.711718 0.000000 17.014477
v -28.711718 12.941929 17.014477
v -24.196812 12.941929 7.371125
v -24.196812 0.000000 7.371125
v -22.353868 0.000000 7.371125
v -22.353868 12.941929 7.371125
v -24.196812 12.941929 9.940346
v -24.196812 0.000000 9.940346
v -24.196812 0.000000 7.371125
v -24.196812 12.941929 7.371125
v -17.421751 0.000000 25.334419
v -28.711718 0.000000 25.334419
v -28.711718 12.941929 25.334419
v -17.421751 12.941929 25.334419
v -33.914268 12.941929 17.014477
v -33.914268 0.000000 17.014477
v -33.914268 0.000000 9.940346
v -33.914268 12.941929 9.940346
v -24.196812 12.941929 9.940346
v -33.914268 12.941929 9.940346
v -33.914268 0.000000 9.940346
v -24.196812 0.000000 9.940346
v -33.914268 0.000000 17.014477
v -33.914268 12.941929 17.014477
v -28.711718 12.941929 17.014477
v -28.711718 0.000000 17.014477
vt 0.000211 1.019574
vt 0.165649 0.836791
vt 0.000000 0.000000
vt 0.336711 0.615711
vt 0.487289 0.287795
vt 0.587536 -0.000017
vt 0.587287 1.104137
vt 0.587119 0.000000
vt 0.407811 0.935157
vt 0.226130 0.676855
vt 0.047043 0.283637
vt -0.046056 -0.000067
vt 0.133068 0.389567
vt 0.354337 0.226084
vt 1.000000 0.550467
vt -0.031667 0.550515
vt 0.642332 0.082982
vt 1.000050 -0.034670
vt 0.581876 1.032224
vt 0.581994 0.000000
vt 0.396002 0.835166
vt 0.208056 0.575166
vt 0.085515 0.294929
vt -0.006986 -0.000010
vt 1.000000 0.000000
vt 0.000000 0.000000
vt 0.000004 0.376974
vt 1.000004 0.376974
vt 0.000001 0.376969
vt 1.000001 0.376969
vt 1.000000 0.000000
vt 0.000000 0.000000
vt 0.632477 0.376981
vt 1.000029 0.376981
vt 1.000000 0.000000
vt 0.632448 0.000000
vt 0.414831 0.376972
vt 1.000002 0.376972
vt 1.000000 0.000000
vt 0.414828 0.000000
vt 0.000001 0.376969
vt 1.000001 0.376969
vt 1.000000 0.000000
vt 0.000000 0.000000
vt 0.000001 0.376967
vt 1.000001 0.376967
vt 1.000000 0.000000
vt 0.000000 0.000000
vt 0.000004 0.376969
vt 1.000004 0.376969
vt 1.000000 0.000000
vt 0.000000 0.000000
vt -0.000001 0.376968
vt 0.163570 0.376969
vt 0.163570 -0.000000
vt -0.000000 -0.000000
vt 0.324653 0.376969
vt 0.324654 0.000000
vt 1.000000 0.376969
vt 1.000000 0.000000
vt 0.000001 0.376970
vt 1.000001 0.376970
vt 1.000000 0.000000
vt 0.000000 0.000000
vt -0.000001 0.376967
vt 0.675339 0.376967
vt 0.675340 0.000000
vt 0.000000 0.000000
vt -0.000001 0.376971
vt 0.999999 0.376971
vt 1.000000 0.000000
vt 0.000000 0.000000
vt -0.000008 0.376966
vt 0.999992 0.376966
vt 1.000000 0.000000
vt 0.000000 0.000000
vt 0.000001 0.376967
vt 1.000001 0.376966
vt 1.000000 0.000000
vt 0.000000 0.000000
vt 0.000003 0.376970
vt 1.000003 0.376970
vt 1.000000 0.000000
vt 0.000000 0.000000
vt -0.000000 0.376971
vt 1.000000 0.376971
vt 1.000000 0.000000
vt 0.000000 0.000000
vt 0.000001 0.376966
vt 1.000000 0.376967
vt 1.000000 0.000000
vt 0.000000 0.000000
vt 0.000001 0.376965
vt 1.000001 0.376964
vt 1.000000 0.000000
vt 0.000000 0.000000
vt 0.000007 0.376965
vt 1.000008 0.376965
vt 1.000000 0.000000
vt 0.000000 0.000000
vt 0.000005 0.376972
vt 1.000005 0.376972
vt 1.000000 0.000000
vt 0.000000 0.000000
vt 0.000011 0.376974
vt 1.000011 0.376974
vt 1.000000 0.000000
vt 0.000000 0.000000
vt 0.000006 0.376969
vt 1.000005 0.376969
vt 1.000000 0.000000
vt 0.000000 0.000000
vt -0.000005 0.376968
vt 0.999995 0.376969
vt 1.000000 0.000000
vt 0.000000 0.000000
vt 0.000003 0.376968
vt 1.000003 0.376967
vt 1.000000 0.000000
vt 0.000000 0.000000
vt -0.000002 0.376972
vt 0.999998 0.376971
vt 1.000000 0.000000
vt 0.000000 0.000000
vt 0.000005 0.376967
vt 1.000004 0.376966
vt 1.000000 0.000000
vt 0.000000 0.000000
vt 0.000004 0.376973
vt 1.000004 0.376973
vt 1.000000 0.000000
vt 0.000000 0.000000
vt 0.000005 0.376971
vt 1.000005 0.376971
vt 1.000000 0.000000
vt 0.000000 0.000000
vt 0.999999 0.376967
vt 1.000000 0.000000
vt 0.675340 0.000000
vt 0.675339 0.376967
vt 0.675339 0.376967
vt 0.675340 0.000000
vt 0.675340 0.000000
vt 0.675339 0.376967
vt 0.963473 0.000009
vt 1.000000 0.000000
vt 0.999999 0.376967
vt 0.963507 0.376986
vt 1.000000 0.000000
vt 1.000004 0.376974
vt 1.000004 0.376974
vt 1.000000 0.000000
vt 0.000004 0.376974
vt 0.000000 0.000000
vt 0.000000 0.000000
vt 0.000004 0.376974
vt 0.000004 0.376974
vt 0.000000 0.000000
vt 1.000000 0.000000
vt 1.000004 0.376974
vt 1.000004 0.376974
vt 1.000000 0.000000
vt 0.216568 0.376981
vt 0.632477 0.376981
vt 0.632448 0.000000
vt 0.216538 0.000000
vt 0.632448 0.000000
vt 0.632477 0.376981
vt 0.632477 0.376981
vt 0.632448 0.000000
vt 0.000000 0.000000
vt 0.000000 0.000000
vt 0.000029 0.376981
vt 0.000029 0.376981
vt 0.216538 0.000000
vt 0.216568 0.376981
vt 0.216568 0.376981
vt 0.216538 0.000000
vt 0.000029 0.376981
vt 0.000000 0.000000
vt 0.000000 0.000000
vt 0.000029 0.376981
vt 0.216538 0.000000
vt 0.000000 0.000000
vt 0.000029 0.376981
vt 0.216568 0.376981
vt 0.414828 0.000000
vt 0.414828 0.000000
vt 0.414831 0.376972
vt 0.414831 0.376972
vt 0.000002 0.376972
vt 0.000000 0.000000
vt 0.000000 0.000000
vt 0.000002 0.376972
vt 0.000002 0.376972
vt 0.000000 0.000000
vt 0.000000 0.000000
vt 0.000002 0.376972
vt 0.000002 0.376972
vt 0.000000 0.000000
vt 0.000000 0.000000
vt 0.000002 0.376972
vt 0.414828 0.000000
vt 0.000000 0.000000
vt 0.000002 0.376972
vt 0.414831 0.376972
vt 0.000002 0.376972
vt 0.000000 0.000000
vt 0.000000 0.000000
vt 0.000002 0.376972
vt 0.000002 0.376972
vt 0.000002 0.376972
vt 0.000000 0.000000
vt 0.000000 0.000000
vt 0.000000 0.000000
vt 0.000002 0.376972
vt 0.000002 0.376972
vt 0.000000 0.000000
vn 0.000000 1.000000 0.000000
vn 0.000000 1.000000 0.000000
vn 0.000000 1.000000 0.000000
vn 0.000000 1.000000 0.000000
vn 0.000000 1.000000 0.000000
vn 0.000000 1.000000 0.000000
vn 0.000000 1.000000 0.000000
vn 0.000000 1.000000 0.000000
vn 0.000000 1.000000 0.000000
vn 0.000000 1.000000 0.000000
vn 0.000000 1.000000 0.000000
vn 0.000000 1.000000 0.000000
vn 0.000000 1.000000 0.000000
vn 0.000000 1.000000 0.000000
vn 0.000000 1.000000 0.000000
vn 0.000000 1.000000 0.000000
vn 0.000000 1.000000 0.000000
vn 0.000000 1.000000 0.000000
vn 0.000000 1.000000 0.000000
vn 0.000000 1.000000 0.000000
vn 0.000000 1.000000 0.000000
vn 0.000000 1.000000 0.000000
vn 0.000000 1.000000 0.000000
vn 0.000000 1.000000 0.000000
vn 0.000000 0.000000 -1.000000
vn 0.000000 0.000000 -1.000000
vn 0.000000 0.000000 -1.000000
vn 0.000000 0.000000 -1.000000
vn -1.000000 0.000000 0.000000
vn -1.000000 0.000000 0.000000
vn -1.000000 0.000000 0.000000
vn -1.000000 0.000000 0.000000
vn 1.000000 0.000000 0.000000
vn 1.000000 0.000000 0.000000
vn 1.000000 0.000000 0.000000
vn 1.000000 0.000000 0.000000
vn 0.000000 0.000000 -1.000000
vn 0.000000 0.000000 -1.000000
vn 0.000000 0.000000 -1.000000
vn 0.000000 0.000000 -1.000000
vn 1.000000 0.000000 0.000000
vn 1.000000 0.000000 0.000000
vn 1.000000 0.000000 0.000000
vn 1.000000 0.000000 0.000000
vn -1.000000 0.000000 0.000000
vn -1.000000 0.000000 0.000000
vn -1.000000 0.000000 0.000000
vn -1.000000 0.000000 0.000000
vn 0.000000 0.000000 -1.000000
vn 0.000000 0.000000 -1.000000
vn 0.000000 0.000000 -1.000000
vn 0.000000 0.000000 -1.000000
vn 1.000000 0.000000 0.000000
vn 0.998086 0.000000 0.061847
vn 0.998086 0.000000 0.061847
vn 1.000000 0.000000 0.000000
vn 0.998086 0.000000 0.061847
vn 0.998086 0.000000 0.061847
vn 1.000000 0.000000 0.000000
vn 1.000000 0.000000 0.000000
vn 0.000000 0.000000 1.000000
vn 0.000000 0.000000 1.000000
vn 0.000000 0.000000 1.000000
vn 0.000000 0.000000 1.000000
vn -1.000000 0.000000 0.000000
vn -1.000000 0.000000 0.000000
vn -1.000000 0.000000 0.000000
vn -1.000000 0.000000 0.000000
vn 0.000000 0.000000 1.000000
vn 0.000000 0.000000 1.000000
vn 0.000000 0.000000 1.000000
vn 0.000000 0.000000 1.000000
vn -0.454578 0.000000 0.890707
vn -0.454578 0.000000 0.890707
vn -0.454578 0.000000 0.890707
vn -0.454578 0.000000 0.890707
vn 0.861911 0.000000 0.507060
vn 0.861911 0.000000 0.507060
vn 0.861911 0.000000 0.507060
vn 0.861911 0.000000 0.507060
vn 0.434915 0.000000 -0.900472
vn 0.434915 0.000000 -0.900472
vn 0.434915 0.000000 -0.900472
vn 0.434915 0.000000 -0.900472
vn -0.833227 0.000000 -0.552931
vn -0.833227 0.000000 -0.552931
vn -0.833227 0.000000 -0.552931
vn -0.833227 0.000000 -0.552931
vn -0.827524 0.000000 0.561431
vn -0.827524 0.000000 0.561431
vn -0.827524 0.000000 0.561431
vn -0.827524 0.000000 0.561431
vn -0.562884 0.000000 0.826536
vn -0.562884 0.000000 0.826536
vn -0.562884 0.000000 0.826536
vn -0.562884 0.000000 0.826536
vn -0.754480 0.000000 0.656324
vn -0.754480 0.000000 0.656324
vn -0.754480 0.000000 0.656324
vn -0.754480 0.000000 0.656324
vn 0.433229 0.000000 0.901284
vn 0.433229 0.000000 0.901284
vn 0.433229 0.000000 0.901284
vn 0.433229 0.000000 0.901284
vn 0.559322 0.000000 0.828950
vn 0.559322 0.000000 0.828950
vn 0.559322 0.000000 0.828950
vn 0.559322 0.000000 0.828950
vn 0.721536 0.000000 0.692376
vn 0.721536 0.000000 0.692376
vn 0.721536 0.000000 0.692376
vn 0.721536 0.000000 0.692376
vn 0.738604 0.000000 -0.674139
vn 0.738604 0.000000 -0.674139
vn 0.738604 0.000000 -0.674139
vn 0.738604 0.000000 -0.674139
vn 0.843232 0.000000 -0.537550
vn 0.843232 0.000000 -0.537550
vn 0.843232 0.000000 -0.537550
vn 0.843232 0.000000 -0.537550
vn 0.593211 0.000000 -0.805047
vn 0.593211 0.000000 -0.805047
vn 0.593211 0.000000 -0.805047
vn 0.593211 0.000000 -0.805047
vn -0.543923 0.000000 -0.839135
vn -0.543923 0.000000 -0.839135
vn -0.543923 0.000000 -0.839135
vn -0.543923 0.000000 -0.839135
vn -0.731148 0.000000 -0.682219
vn -0.731148 0.000000 -0.682219
vn -0.731148 0.000000 -0.682219
vn -0.731148 0.000000 -0.682219
vn -0.417727 0.000000 -0.908572
vn -0.417727 0.000000 -0.908572
vn -0.417727 0.000000 -0.908572
vn -0.417727 0.000000 -0.908572
vn -1.000000 0.000000 0.000000
vn -1.000000 0.000000 0.000000
vn -1.000000 0.000000 0.000000
vn -1.000000 0.000000 0.000000
vn 0.000000 0.000000 -1.000000
vn 0.000000 0.000000 -1.000000
vn 0.000000 0.000000 -1.000000
vn 0.000000 0.000000 -1.000000
vn 0.000000 0.000000 1.000000
vn 0.000000 0.000000 1.000000
vn 0.000000 0.000000 1.000000
vn 0.000000 0.000000 1.000000
vn -1.000000 0.000000 0.000000
vn -1.000000 0.000000 0.000000
vn -1.000000 0.000000 0.000000
vn -1.000000 0.000000 0.000000
vn 0.998340 0.000000 -0.057590
vn 0.998340 0.000000 -0.057590
vn 0.993367 0.000000 -0.114988
vn 0.993367 0.000000 -0.114988
vn 1.000000 0.000000 0.000000
vn 1.000000 0.000000 0.000000
vn 0.000000 0.000000 1.000000
vn 0.000000 0.000000 1.000000
vn 0.000000 0.000000 1.000000
vn 0.000000 0.000000 1.000000
vn 1.000000 0.000000 0.000000
vn 1.000000 0.000000 0.000000
vn 1.000000 0.000000 0.000000
vn 1.000000 0.000000 0.000000
vn 0.000000 0.000000 -1.000000
vn 0.000000 0.000000 -1.000000
vn 0.000000 0.000000 -1.000000
vn 0.000000 0.000000 -1.000000
vn 0.000000 0.000000 1.000000
vn 0.000000 0.000000 1.000000
vn 0.000000 0.000000 1.000000
vn 0.000000 0.000000 1.000000
vn 0.000000 0.000000 -1.000000
vn 0.000000 0.000000 -1.000000
vn 0.000000 0.000000 -1.000000
vn 0.000000 0.000000 -1.000000
vn -1.000000 0.000000 0.000000
vn -1.000000 0.000000 0.000000
vn -1.000000 0.000000 0.000000
vn -1.000000 0.000000 0.000000
vn 1.000000 0.000000 0.000000
vn 1.000000 0.000000 0.000000
vn 1.000000 0.000000 0.000000
vn 1.000000 0.000000 0.000000
vn -1.000000 0.000000 0.000000
vn -1.000000 0.000000 0.000000
vn -1.000000 0.000000 0.000000
vn -1.000000 0.000000 0.000000
vn 1.000000 0.000000 0.000000
vn 1.000000 0.000000 0.000000
vn 1.000000 0.000000 0.000000
vn 1.000000 0.000000 0.000000
vn 0.000000 0.000000 1.000000
vn 0.000000 0.000000 1.000000
vn 0.000000 0.000000 1.000000
vn 0.000000 0.000000 1.000000
vn 1.000000 0.000000 0.000000
vn 1.000000 0.000000 0.000000
vn 1.000000 0.000000 0.000000
vn 1.000000 0.000000 0.000000
vn 0.000000 0.000000 -1.000000
vn 0.000000 0.000000 -1.000000
vn 0.000000 0.000000 -1.000000
vn 0.000000 0.000000 -1.000000
vn 1.000000 0.000000 0.000000
vn 1.000000 0.000000 0.000000
vn 1.000000 0.000000 0.000000
vn 1.000000 0.000000 0.000000
vn 0.000000 0.000000 1.000000
vn 0.000000 0.000000 1.000000
vn 0.000000 0.000000 1.000000
vn 0.000000 0.000000 1.000000
vn 0.000000 0.000000 -1.000000
vn 0.000000 0.000000 -1.000000
vn 0.000000 0.000000 -1.000000
vn 0.000000 0.000000 -1.000000
usemtl material
f 1/0/1 2/0/2 3/0/3
f 4/0/4 3/0/3 2/0/2
f 4/0/4 5/0/5 3/0/3
f 6/0/6 3/0/3 5/0/5
f 7/0/7 8/0/8 9/0/9
f 8/0/8 10/0/10 9/0/9
f 8/0/8 11/0/11 10/0/10
f 12/0/12 11/0/11 8/0/8
f 13/0/13 14/0/14 15/0/15
f 13/0/13 15/0/15 16/0/16
f 15/0/15 14/0/14 17/0/17
f 15/0/15 17/0/17 18/0/18
f 19/0/19 20/0/20 21/0/21
f 20/0/20 22/0/22 21/0/21
f 20/0/20 23/0/23 22/0/22
f 24/0/24 23/0/23 20/0/20
f 25/0/25 26/0/26 27/0/27
f 25/0/25 27/0/27 28/0/28
f 29/0/29 30/0/30 31/0/31
f 29/0/29 31/0/31 32/0/32
f 33/0/33 34/0/34 35/0/35
f 33/0/33 35/0/35 36/0/36
f 37/0/37 38/0/38 39/0/39
f 37/0/37 39/0/39 40/0/40
f 41/0/41 42/0/42 43/0/43
f 41/0/41 43/0/43 44/0/44
f 45/0/45 46/0/46 47/0/47
f 45/0/45 47/0/47 48/0/48
f 49/0/49 50/0/50 51/0/51
f 49/0/49 51/0/51 52/0/52
f 53/0/53 54/0/54 55/0/55
f 53/0/53 55/0/55 56/0/56
f 57/0/57 55/0/55 54/0/54
f 57/0/57 58/0/58 55/0/55
f 59/0/59 58/0/58 57/0/57
f 59/0/59 60/0/60 58/0/58
f 61/0/61 62/0/62 63/0/63
f 61/0/61 63/0/63 64/0/64
f 65/0/65 66/0/66 67/0/67
f 65/0/65 67/0/67 68/0/68
f 69/0/69 70/0/70 71/0/71
f 69/0/69 71/0/71 72/0/72
f 73/0/73 74/0/74 75/0/75
f 73/0/73 75/0/75 76/0/76
f 77/0/77 78/0/78 79/0/79
f 77/0/77 79/0/79 80/0/80
f 81/0/81 82/0/82 83/0/83
f 81/0/81 83/0/83 84/0/84
f 85/0/85 86/0/86 87/0/87
f 85/0/85 87/0/87 88/0/88
f 89/0/89 90/0/90 91/0/91
f 89/0/89 91/0/91 92/0/92
f 93/0/93 94/0/94 95/0/95
f 93/0/93 95/0/95 96/0/96
f 97/0/97 98/0/98 99/0/99
f 97/0/97 99/0/99 100/0/100
f 101/0/101 102/0/102 103/0/103
f 101/0/101 103/0/103 104/0/104
f 105/0/105 106/0/106 107/0/107
f 105/0/105 107/0/107 108/0/108
f 109/0/109 110/0/110 111/0/111
f 109/0/109 111/0/111 112/0/112
f 113/0/113 114/0/114 115/0/115
f 113/0/113 115/0/115 116/0/116
f 117/0/117 118/0/118 119/0/119
f 117/0/117 119/0/119 120/0/120
f 121/0/121 122/0/122 123/0/123
f 121/0/121 123/0/123 124/0/124
f 125/0/125 126/0/126 127/0/127
f 125/0/125 127/0/127 128/0/128
f 129/0/129 130/0/130 131/0/131
f 129/0/129 131/0/131 132/0/132
f 133/0/133 134/0/134 135/0/135
f 133/0/133 135/0/135 136/0/136
f 137/0/137 138/0/138 139/0/139
f 137/0/137 139/0/139 140/0/140
f 141/0/141 142/0/142 143/0/143
f 141/0/141 143/0/143 144/0/144
f 145/0/145 146/0/146 147/0/147
f 145/0/145 147/0/147 148/0/148
f 149/0/149 150/0/150 151/0/151
f 149/0/149 151/0/151 152/0/152
f 153/0/153 154/0/154 155/0/155
f 153/0/153 155/0/155 156/0/156
f 157/0/157 154/0/154 153/0/153
f 157/0/157 158/0/158 154/0/154
f 159/0/159 160/0/160 161/0/161
f 159/0/159 161/0/161 162/0/162
f 163/0/163 164/0/164 165/0/165
f 163/0/163 165/0/165 166/0/166
f 167/0/167 168/0/168 169/0/169
f 167/0/167 169/0/169 170/0/170
f 171/0/171 172/0/172 173/0/173
f 171/0/171 173/0/173 174/0/174
f 175/0/175 176/0/176 177/0/177
f 175/0/175 177/0/177 178/0/178
f 179/0/179 180/0/180 181/0/181
f 179/0/179 181/0/181 182/0/182
f 183/0/183 184/0/184 185/0/185
f 183/0/183 185/0/185 186/0/186
f 187/0/187 188/0/188 189/0/189
f 187/0/187 189/0/189 190/0/190
f 191/0/191 192/0/192 193/0/193
f 191/0/191 193/0/193 194/0/194
f 195/0/195 196/0/196 197/0/197
f 195/0/195 197/0/197 198/0/198
f 199/0/199 200/0/200 201/0/201
f 199/0/199 201/0/201 202/0/202
f 203/0/203 204/0/204 205/0/205
f 203/0/203 205/0/205 206/0/206
f 207/0/207 208/0/208 209/0/209
f 207/0/207 209/0/209 210/0/210
f 211/0/211 212/0/212 213/0/213
f 211/0/211 213/0/213 214/0/214
f 215/0/215 216/0/216 217/0/217
f 215/0/215 217/0/217 218/0/218
