# 
# Wavefront OBJ file
# Created with Kaydara FBX
# 
mtllib cam_collision03 #2253012.mtl

g Cam_Collision03
v 2.706318 10.367471 8.302470
v 2.706318 0.000001 8.302470
v -4.078545 0.000001 7.090664
v -4.078545 10.367471 7.090664
v -11.166133 0.000001 1.215635
v -11.166133 10.367471 1.215635
v -7.478340 10.367471 3.845293
v -7.478340 0.000001 3.845293
v -16.953583 0.000001 -0.474277
v -16.953583 10.367471 -0.474277
v -11.166133 10.367471 1.215635
v -11.166133 0.000001 1.215635
v 4.521318 0.000001 10.133886
v 4.521318 10.367471 10.133886
v 8.943531 10.367471 10.133886
v 8.943531 0.000001 10.133886
v 11.880511 0.000001 6.507714
v 11.880511 10.367471 6.507714
v 8.649131 10.367471 -3.784453
v 8.649131 0.000001 -3.784453
v -7.478340 0.000001 3.845293
v -7.478340 10.367471 3.845293
v -4.078545 10.367471 7.090664
v -4.078545 0.000001 7.090664
v 8.649131 0.000001 -3.784453
v 8.649131 10.367471 -3.784453
v 13.833867 10.367471 -13.784355
v 13.833867 0.000001 -13.784355
v 8.943531 0.000001 10.133886
v 8.943531 10.367471 10.133886
v 11.880511 10.367471 6.507714
v 11.880511 0.000001 6.507714
v 2.706318 0.000001 8.302470
v 2.706318 10.367471 8.302470
v 4.521318 10.367471 10.133886
v 4.521318 0.000001 10.133886
v 13.833867 0.000001 -13.784355
v 13.833867 10.367471 -13.784355
v 13.806835 10.367471 -18.787811
v 13.806835 0.000001 -18.787811
v 13.806835 0.000001 -18.787811
v 13.806835 10.367471 -18.787811
v 16.069822 10.367471 -23.220373
v 16.069822 0.000001 -23.220373
v 18.797401 10.367471 -31.376799
v 18.797401 0.000001 -31.376799
v 16.069822 0.000001 -23.220373
v 16.069822 10.367471 -23.220373
v 18.797401 0.000001 -31.376799
v 18.797401 10.367471 -31.376799
v 18.940777 10.367471 -37.818218
v 18.940777 0.000001 -37.818218
v 9.682451 10.367471 -38.789356
v 8.430771 10.367471 -38.789356
v 8.430771 0.000001 -38.789356
v 9.682451 0.000001 -38.789356
v 8.430771 10.367471 -38.789356
v 7.354931 10.367471 -42.788624
v 7.354931 0.000001 -42.788624
v 8.430771 0.000001 -38.789356
v 9.682451 0.000001 -38.789356
v 10.758291 0.000001 -42.788624
v 10.758291 10.367471 -42.788624
v 9.682451 10.367471 -38.789356
vt 1.000000 1.000000
vt 1.000000 0.000000
vt 0.000000 0.000000
vt 0.000000 1.000000
vt 0.000000 0.000000
vt 0.000000 1.000000
vt 1.000000 1.000000
vt 1.000000 0.000000
vt 0.000000 0.000000
vt 0.000000 1.000000
vt 1.000000 1.000000
vt 1.000000 0.000000
vt 0.000000 0.000000
vt 0.000000 1.000000
vt 1.000000 1.000000
vt 1.000000 0.000000
vt 0.000000 0.000000
vt 0.000000 1.000000
vt 1.000000 1.000000
vt 1.000000 0.000000
vt 0.000000 0.000000
vt 0.000000 1.000000
vt 1.000000 1.000000
vt 1.000000 0.000000
vt 0.000000 0.000000
vt 0.000000 1.000000
vt 1.000000 1.000000
vt 1.000000 0.000000
vt 0.000000 0.000000
vt 0.000000 1.000000
vt 1.000000 1.000000
vt 1.000000 0.000000
vt 0.000000 0.000000
vt 0.000000 1.000000
vt 1.000000 1.000000
vt 1.000000 0.000000
vt 0.000000 0.000000
vt 0.000000 1.000000
vt 1.000000 1.000000
vt 1.000000 0.000000
vt 0.000000 0.000000
vt 0.000000 1.000000
vt 1.000000 1.000000
vt 1.000000 0.000000
vt 1.000000 1.000000
vt 1.000000 0.000000
vt 0.000000 0.000000
vt 0.000000 1.000000
vt 0.000000 0.000000
vt 0.000000 1.000000
vt 1.000000 1.000000
vt 1.000000 0.000000
vt -0.000036 0.824089
vt -0.000076 0.906332
vt 0.999924 0.906332
vt 0.999964 0.824089
vt 0.000000 0.000000
vt 0.000010 1.703595
vt 1.000010 1.703595
vt 1.000000 0.000000
vt 0.000000 0.000000
vt -0.000009 1.703587
vt 0.999991 1.703587
vt 1.000000 0.000000
vn 0.333598 0.000000 -0.942716
vn 0.333598 0.000000 -0.942716
vn 0.400924 0.000000 -0.916111
vn 0.400924 0.000000 -0.916111
vn 0.414809 0.000000 -0.909909
vn 0.414809 0.000000 -0.909909
vn 0.638176 0.000000 -0.769890
vn 0.638176 0.000000 -0.769890
vn 0.280291 0.000000 -0.959915
vn 0.280291 0.000000 -0.959915
vn 0.414809 0.000000 -0.909909
vn 0.414809 0.000000 -0.909909
vn 0.281733 0.000000 -0.959493
vn 0.281733 0.000000 -0.959493
vn -0.441996 0.000000 -0.897017
vn -0.441996 0.000000 -0.897017
vn -0.999776 0.000000 0.021147
vn -0.999776 0.000000 0.021147
vn -0.995399 0.000000 -0.095819
vn -0.995399 0.000000 -0.095819
vn 0.638176 0.000000 -0.769890
vn 0.638176 0.000000 -0.769890
vn 0.400924 0.000000 -0.916111
vn 0.400924 0.000000 -0.916111
vn -0.995399 0.000000 -0.095819
vn -0.995399 0.000000 -0.095819
vn -0.945681 0.000000 -0.325097
vn -0.945681 0.000000 -0.325097
vn -0.441996 0.000000 -0.897017
vn -0.441996 0.000000 -0.897017
vn -0.999776 0.000000 0.021147
vn -0.999776 0.000000 0.021147
vn 0.333598 0.000000 -0.942716
vn 0.333598 0.000000 -0.942716
vn 0.281733 0.000000 -0.959493
vn 0.281733 0.000000 -0.959493
vn -0.945681 0.000000 -0.325097
vn -0.945681 0.000000 -0.325097
vn -0.973055 0.000000 -0.230575
vn -0.973055 0.000000 -0.230575
vn -0.973055 0.000000 -0.230575
vn -0.973055 0.000000 -0.230575
vn -0.929619 0.000000 -0.368522
vn -0.929619 0.000000 -0.368522
vn -0.981204 0.000000 -0.192973
vn -0.981204 0.000000 -0.192973
vn -0.929619 0.000000 -0.368522
vn -0.929619 0.000000 -0.368522
vn -0.981204 0.000000 -0.192973
vn -0.981204 0.000000 -0.192973
vn -0.999752 0.000000 -0.022253
vn -0.999752 0.000000 -0.022253
vn 0.864285 0.000000 0.503002
vn -0.864285 0.000000 0.503002
vn -0.864285 0.000000 0.503002
vn 0.864285 0.000000 0.503002
vn -0.864285 0.000000 0.503002
vn -0.965669 0.000000 0.259774
vn -0.965669 0.000000 0.259774
vn -0.864285 0.000000 0.503002
vn 0.864285 0.000000 0.503002
vn 0.965669 0.000000 0.259774
vn 0.965669 0.000000 0.259774
vn 0.864285 0.000000 0.503002
usemtl material
f 1/0/1 2/0/2 3/0/3
f 1/0/1 3/0/3 4/0/4
f 5/0/5 6/0/6 7/0/7
f 5/0/5 7/0/7 8/0/8
f 9/0/9 10/0/10 11/0/11
f 9/0/9 11/0/11 12/0/12
f 13/0/13 14/0/14 15/0/15
f 13/0/13 15/0/15 16/0/16
f 17/0/17 18/0/18 19/0/19
f 17/0/17 19/0/19 20/0/20
f 21/0/21 22/0/22 23/0/23
f 21/0/21 23/0/23 24/0/24
f 25/0/25 26/0/26 27/0/27
f 25/0/25 27/0/27 28/0/28
f 29/0/29 30/0/30 31/0/31
f 29/0/29 31/0/31 32/0/32
f 33/0/33 34/0/34 35/0/35
f 33/0/33 35/0/35 36/0/36
f 37/0/37 38/0/38 39/0/39
f 37/0/37 39/0/39 40/0/40
f 41/0/41 42/0/42 43/0/43
f 41/0/41 43/0/43 44/0/44
f 45/0/45 46/0/46 47/0/47
f 45/0/45 47/0/47 48/0/48
f 49/0/49 50/0/50 51/0/51
f 49/0/49 51/0/51 52/0/52
f 53/0/53 54/0/54 55/0/55
f 53/0/53 55/0/55 56/0/56
f 57/0/57 58/0/58 59/0/59
f 57/0/57 59/0/59 60/0/60
f 61/0/61 62/0/62 63/0/63
f 61/0/61 63/0/63 64/0/64
