# 
# Wavefront OBJ file
# Created with Kaydara FBX
# 
mtllib cam_collision02b.mtl

g Cam_Collision02b
v -3.010397 6.073395 -4.752196
v -3.010397 6.073395 -2.381434
v -3.010397 0.000000 -2.381434
v -3.010397 0.000000 -4.752196
v 0.040023 6.073395 -4.752196
v 0.040023 0.000000 -4.752196
v -19.116751 6.073395 -2.381432
v -19.116751 0.000000 -2.381432
v -19.116751 6.073395 -4.752194
v -19.116751 0.000000 -4.752194
v -29.332628 6.073395 -4.752194
v -29.332628 0.000000 -4.752194
v 0.040023 0.000000 -4.752196
v 5.581196 0.000000 -6.135193
v 5.581196 6.073395 -6.135193
v 0.040023 6.073395 -4.752196
v 5.581196 0.000000 -6.135193
v 10.981572 0.000000 -0.755917
v 10.981572 6.073395 -0.755917
v 5.581196 6.073395 -6.135193
vt 0.559998 0.500000
vt 0.586180 0.500000
vt 0.586180 0.750000
vt 0.559998 0.750000
vt 0.413336 0.500000
vt 0.413336 0.750000
vt 0.693151 0.250000
vt 0.693151 0.000000
vt 0.693151 0.250000
vt 0.693151 0.000000
vt 0.693151 0.250000
vt 0.693151 0.000000
vt 0.000000 0.000000
vt 0.000000 1.000000
vt 1.000000 1.000000
vt 1.000000 0.000000
vt 0.000000 0.000000
vt 0.000000 1.000000
vt 1.000000 1.000000
vt 1.000000 0.000000
vn 0.613652 0.000000 0.789576
vn 0.145625 0.000000 0.989340
vn 0.145625 0.000000 0.989340
vn 0.613652 0.000000 0.789576
vn 0.158925 0.000000 0.987291
vn 0.158925 0.000000 0.987291
vn -0.145625 0.000000 0.989340
vn -0.145625 0.000000 0.989340
vn -0.226059 0.000000 0.974114
vn -0.226059 0.000000 0.974114
vn 0.000000 0.000000 1.000000
vn 0.000000 0.000000 1.000000
vn 0.158925 0.000000 0.987291
vn -0.343072 0.000000 0.939309
vn -0.343072 0.000000 0.939309
vn 0.158925 0.000000 0.987291
vn -0.343072 0.000000 0.939309
vn -0.705721 0.000000 0.708489
vn -0.705721 0.000000 0.708489
vn -0.343072 0.000000 0.939309
usemtl material
f 1/0/1 2/0/2 3/0/3
f 1/0/1 3/0/3 4/0/4
f 5/0/5 1/0/1 4/0/4
f 5/0/5 4/0/4 6/0/6
f 3/0/3 2/0/2 7/0/7
f 3/0/3 7/0/7 8/0/8
f 8/0/8 7/0/7 9/0/9
f 8/0/8 9/0/9 10/0/10
f 10/0/10 9/0/9 11/0/11
f 10/0/10 11/0/11 12/0/12
f 13/0/13 14/0/14 15/0/15
f 13/0/13 15/0/15 16/0/16
f 17/0/17 18/0/18 19/0/19
f 17/0/17 19/0/19 20/0/20
