# 
# Wavefront OBJ file
# Created with Kaydara FBX
# 
mtllib cam_collision01 #225275.mtl

g Cam_Collision01
v -9.712338 0.000000 -17.093140
v -10.986981 3.609681 -19.229158
v -16.882612 3.609681 -16.078245
v -14.936516 0.000000 -14.301097
v -14.936516 0.000000 -14.301097
v -16.882612 3.609681 -16.078245
v -21.947607 3.609681 -10.899697
v -19.424675 0.000000 -9.712337
v -19.424675 0.000000 -9.712337
v -21.947607 3.609681 -10.899697
v -23.415470 3.609681 -5.578573
v -20.725300 0.000000 -4.997253
v -20.725300 0.000000 -4.997253
v -23.415470 3.609681 -5.578573
v -23.989262 3.609681 0.060979
v -21.233721 0.000000 0.000000
v -21.233721 0.000000 0.000000
v -23.989262 3.609681 0.060979
v -23.366081 3.609681 5.482610
v -20.681576 -0.000000 4.804149
v -20.681576 -0.000000 4.804149
v -23.366081 3.609681 5.482610
v -21.164467 3.609681 11.021644
v -18.730661 -0.000000 9.712338
v -18.730661 -0.000000 9.712338
v -21.164467 3.609681 11.021644
v -17.328201 3.609681 15.543450
v -15.331343 -0.000000 13.719117
v -15.331343 -0.000000 13.719117
v -17.328201 3.609681 15.543450
v -10.986981 3.609681 18.243271
v -9.712338 -0.000000 16.111443
v -9.712338 -0.000000 16.111443
v -10.986981 3.609681 18.243271
v -5.526681 3.609681 19.356600
v -4.873946 -0.000000 17.098011
v -4.873946 -0.000000 17.098011
v -5.526681 3.609681 19.356600
v -0.026280 3.609681 19.580273
v -0.000000 0.000000 17.296158
v -0.000000 0.000000 17.296158
v -0.026280 3.609681 19.580273
v 6.001791 3.609681 19.057991
v 5.341512 0.000000 16.833355
v 5.341512 0.000000 16.833355
v 6.001791 3.609681 19.057991
v 11.142151 3.609681 17.966316
v 9.896406 0.000000 15.866015
v 9.896406 0.000000 15.866015
v 11.142151 3.609681 17.966316
v 17.959852 3.609681 16.391325
v 15.937623 0.000000 14.470402
v 15.937623 0.000000 14.470402
v 17.959852 3.609681 16.391325
v 23.003412 3.609681 10.392177
v 20.406786 -0.000000 9.154538
v 20.406786 -0.000000 9.154538
v 23.003412 3.609681 10.392177
v 24.200985 3.609681 5.747279
v 21.467937 -0.000000 5.038660
v 21.467937 -0.000000 5.038660
v 24.200985 3.609681 5.747279
v 24.398184 3.609681 0.060979
v 21.642641 0.000000 0.000000
v 21.642641 0.000000 0.000000
v 24.398184 3.609681 0.060979
v 23.869812 3.609681 -4.710858
v 21.174458 0.000000 -4.228358
v 21.174458 0.000000 -4.228358
v 23.869812 3.609681 -4.710858
v 21.529152 3.609681 -9.649386
v 19.100397 0.000000 -8.604414
v 19.100397 0.000000 -8.604414
v 21.529152 3.609681 -9.649386
v 17.037779 3.609681 -14.627085
v 15.120586 0.000000 -13.015206
v 15.120586 0.000000 -13.015206
v 17.037779 3.609681 -14.627085
v 9.965024 3.609681 -18.606003
v 8.853350 0.000000 -16.540934
v 8.853350 0.000000 -16.540934
v 9.965024 3.609681 -18.606003
v -0.026280 3.609681 -20.529118
v 0.000000 0.000000 -18.245005
v 0.000000 0.000000 -18.245005
v -0.026280 3.609681 -20.529118
v -10.986981 3.609681 -19.229158
v -9.712338 0.000000 -17.093140
vt 0.000000 0.000000
vt 0.000000 1.000000
vt 1.000000 1.000000
vt 1.000000 0.000000
vt 0.000000 0.000000
vt 0.000000 1.000000
vt 1.000000 1.000000
vt 1.000000 0.000000
vt 0.000000 0.000000
vt 0.000000 1.000000
vt 1.000000 1.000000
vt 1.000000 0.000000
vt 0.000000 0.000000
vt 0.000000 1.000000
vt 1.000000 1.000000
vt 1.000000 0.000000
vt 0.000000 0.000000
vt 0.000000 1.000000
vt 1.000000 1.000000
vt 1.000000 0.000000
vt 0.000000 0.000000
vt 0.000000 1.000000
vt 1.000000 1.000000
vt 1.000000 0.000000
vt 0.000000 0.000000
vt 0.000000 1.000000
vt 1.000000 1.000000
vt 1.000000 0.000000
vt 0.000000 0.000000
vt 0.000000 1.000000
vt 1.000000 1.000000
vt 1.000000 0.000000
vt 0.000000 0.000000
vt 0.000000 1.000000
vt 1.000000 1.000000
vt 1.000000 0.000000
vt 0.000000 0.000000
vt 0.000000 1.000000
vt 1.000000 1.000000
vt 1.000000 0.000000
vt 0.000000 0.000000
vt 0.000000 1.000000
vt 1.000000 1.000000
vt 1.000000 0.000000
vt 0.000000 0.000000
vt 0.000000 1.000000
vt 1.000000 1.000000
vt 1.000000 0.000000
vt 0.000000 0.000000
vt 0.000000 1.000000
vt 1.000000 1.000000
vt 1.000000 0.000000
vt 0.000000 0.000000
vt 0.000000 1.000000
vt 1.000000 1.000000
vt 1.000000 0.000000
vt 0.000000 0.000000
vt 0.000000 1.000000
vt 1.000000 1.000000
vt 1.000000 0.000000
vt 0.000000 0.000000
vt 0.000000 1.000000
vt 1.000000 1.000000
vt 1.000000 0.000000
vt 0.000000 0.000000
vt 0.000000 1.000000
vt 1.000000 1.000000
vt 1.000000 0.000000
vt 0.000000 0.000000
vt 0.000000 1.000000
vt 1.000000 1.000000
vt 1.000000 0.000000
vt 0.000000 0.000000
vt 0.000000 1.000000
vt 1.000000 1.000000
vt 1.000000 0.000000
vt 0.000000 0.000000
vt 0.000000 1.000000
vt 1.000000 1.000000
vt 1.000000 0.000000
vt 0.000000 0.000000
vt 0.000000 1.000000
vt 1.000000 1.000000
vt 1.000000 0.000000
vt 0.000000 0.000000
vt 0.000000 1.000000
vt 1.000000 1.000000
vt 1.000000 0.000000
vn 0.202210 0.550648 0.809875
vn 0.225441 0.553888 0.801489
vn 0.498368 0.584104 0.640665
vn 0.485182 0.582602 0.652054
vn 0.485182 0.582602 0.652054
vn 0.498368 0.584104 0.640665
vn 0.677054 0.609088 0.413050
vn 0.670840 0.608376 0.424089
vn 0.670840 0.608376 0.424089
vn 0.677054 0.609088 0.413050
vn 0.781747 0.606177 0.146359
vn 0.782021 0.606158 0.144966
vn 0.782021 0.606158 0.144966
vn 0.781747 0.606177 0.146359
vn 0.794830 0.606818 -0.004087
vn 0.794842 0.606809 -0.003051
vn 0.794842 0.606809 -0.003051
vn 0.794830 0.606818 -0.004087
vn 0.768330 0.608637 -0.198066
vn 0.768353 0.608637 -0.197974
vn 0.768353 0.608637 -0.197974
vn 0.768330 0.608637 -0.198066
vn 0.682354 0.607538 -0.406559
vn 0.679977 0.607431 -0.410681
vn 0.679977 0.607431 -0.410681
vn 0.682354 0.607538 -0.406559
vn 0.478608 0.592331 -0.648134
vn 0.457044 0.589465 -0.666064
vn 0.457044 0.589465 -0.666064
vn 0.478608 0.592331 -0.648134
vn 0.262061 0.557682 -0.787601
vn 0.248989 0.556185 -0.792882
vn 0.248989 0.556185 -0.792882
vn 0.262061 0.557682 -0.787601
vn 0.105650 0.541123 -0.834281
vn 0.098241 0.540572 -0.835542
vn 0.098241 0.540572 -0.835542
vn 0.105650 0.541123 -0.834281
vn -0.021245 0.534482 -0.844913
vn -0.022500 0.534461 -0.844894
vn -0.022500 0.534461 -0.844894
vn -0.021245 0.534482 -0.844913
vn -0.123189 0.536898 -0.834605
vn -0.118285 0.536568 -0.835526
vn -0.118285 0.536568 -0.835526
vn -0.123189 0.536898 -0.834605
vn -0.183846 0.540974 -0.820700
vn -0.182281 0.540730 -0.821209
vn -0.182281 0.540730 -0.821209
vn -0.183846 0.540974 -0.820700
vn -0.453630 0.603228 -0.656000
vn -0.411852 0.597064 -0.688398
vn -0.411852 0.597064 -0.688398
vn -0.453630 0.603228 -0.656000
vn -0.676651 0.621905 -0.394180
vn -0.674709 0.621735 -0.397760
vn -0.674709 0.621735 -0.397760
vn -0.676651 0.621905 -0.394180
vn -0.782006 0.613582 -0.109469
vn -0.783326 0.613153 -0.102197
vn -0.783326 0.613153 -0.102197
vn -0.782006 0.613582 -0.109469
vn -0.794838 0.606355 0.023810
vn -0.794806 0.606286 0.026461
vn -0.794806 0.606286 0.026461
vn -0.794838 0.606355 0.023810
vn -0.767061 0.602307 0.221006
vn -0.764583 0.601770 0.230838
vn -0.764583 0.601770 0.230838
vn -0.767061 0.602307 0.221006
vn -0.673139 0.584185 0.453445
vn -0.664941 0.582672 0.467276
vn -0.664941 0.582672 0.467276
vn -0.673139 0.584185 0.453445
vn -0.514310 0.562314 0.647524
vn -0.500080 0.560414 0.660194
vn -0.500080 0.560414 0.660194
vn -0.514310 0.562314 0.647524
vn -0.281674 0.540353 0.792892
vn -0.269361 0.539380 0.797818
vn -0.269361 0.539380 0.797818
vn -0.281674 0.540353 0.792892
vn -0.022911 0.534453 0.844888
vn -0.027128 0.534375 0.844812
vn -0.027128 0.534375 0.844812
vn -0.022911 0.534453 0.844888
vn 0.225441 0.553888 0.801489
vn 0.202210 0.550648 0.809875
usemtl material
f 1/0/1 2/0/2 3/0/3
f 1/0/1 3/0/3 4/0/4
f 5/0/5 6/0/6 7/0/7
f 5/0/5 7/0/7 8/0/8
f 9/0/9 10/0/10 11/0/11
f 9/0/9 11/0/11 12/0/12
f 13/0/13 14/0/14 15/0/15
f 13/0/13 15/0/15 16/0/16
f 17/0/17 18/0/18 19/0/19
f 17/0/17 19/0/19 20/0/20
f 21/0/21 22/0/22 23/0/23
f 21/0/21 23/0/23 24/0/24
f 25/0/25 26/0/26 27/0/27
f 25/0/25 27/0/27 28/0/28
f 29/0/29 30/0/30 31/0/31
f 29/0/29 31/0/31 32/0/32
f 33/0/33 34/0/34 35/0/35
f 33/0/33 35/0/35 36/0/36
f 37/0/37 38/0/38 39/0/39
f 37/0/37 39/0/39 40/0/40
f 41/0/41 42/0/42 43/0/43
f 41/0/41 43/0/43 44/0/44
f 45/0/45 46/0/46 47/0/47
f 45/0/45 47/0/47 48/0/48
f 49/0/49 50/0/50 51/0/51
f 49/0/49 51/0/51 52/0/52
f 53/0/53 54/0/54 55/0/55
f 53/0/53 55/0/55 56/0/56
f 57/0/57 58/0/58 59/0/59
f 57/0/57 59/0/59 60/0/60
f 61/0/61 62/0/62 63/0/63
f 61/0/61 63/0/63 64/0/64
f 65/0/65 66/0/66 67/0/67
f 65/0/65 67/0/67 68/0/68
f 69/0/69 70/0/70 71/0/71
f 69/0/69 71/0/71 72/0/72
f 73/0/73 74/0/74 75/0/75
f 73/0/73 75/0/75 76/0/76
f 77/0/77 78/0/78 79/0/79
f 77/0/77 79/0/79 80/0/80
f 81/0/81 82/0/82 83/0/83
f 81/0/81 83/0/83 84/0/84
f 85/0/85 86/0/86 87/0/87
f 85/0/85 87/0/87 88/0/88
