# 
# Wavefront OBJ file
# Created with Kaydara FBX
# 
mtllib cam_collision04 #2280415.mtl

g Cam_Collision04
v -7.134590 5.999901 37.527435
v -7.134590 -0.075822 37.527435
v 0.365413 -0.075822 37.527435
v 0.365413 5.999901 37.527435
v -7.134591 -0.075822 -7.472565
v -7.134591 5.999900 -7.472565
v -7.134591 5.999900 6.875936
v -7.134591 -0.075822 6.875936
v 7.225408 -0.075822 -7.472565
v 7.225408 5.999900 -7.472565
v -7.134591 5.999900 -7.472565
v -7.134591 -0.075822 -7.472565
v 7.225408 -0.075822 5.934941
v 7.225408 5.999900 5.934941
v 7.225408 5.999900 -7.472565
v 7.225408 -0.075822 -7.472565
v 19.254208 -0.075822 37.527439
v 19.254208 5.999900 37.527439
v 19.254208 5.999900 38.432537
v 19.254208 -0.075822 38.432537
v 32.325405 -0.075822 59.267788
v 32.325405 5.999901 59.267788
v 32.325405 5.999900 37.527439
v 32.325405 -0.075822 37.527439
v -7.134590 -0.075822 59.267788
v -7.134590 5.999901 59.267788
v 32.325405 5.999901 59.267788
v 32.325405 -0.075822 59.267788
v -7.134590 -0.075822 37.527435
v -7.134590 5.999901 37.527435
v -7.134590 5.999901 59.267788
v -7.134590 -0.075822 59.267788
v 17.945307 -0.075822 38.432537
v 17.945307 5.999900 38.432537
v 17.945303 5.999900 45.106739
v 17.945303 -0.075822 45.106739
v 17.945303 -0.075822 45.106739
v 17.945303 5.999900 45.106739
v 7.225412 5.999900 45.106739
v 7.225412 -0.075822 45.106739
v 32.325405 -0.075822 37.527439
v 32.325405 5.999900 37.527439
v 19.254208 5.999900 37.527439
v 19.254208 -0.075822 37.527439
v 19.254208 -0.075822 38.432537
v 19.254208 5.999900 38.432537
v 17.945307 5.999900 38.432537
v 17.945307 -0.075822 38.432537
v 0.365409 5.999900 6.875936
v 0.365409 -0.075822 6.875936
v -7.134591 -0.075822 6.875936
v -7.134591 5.999900 6.875936
v 0.365413 5.999901 37.527435
v 0.365413 -0.075822 37.527435
v 0.365409 -0.075822 6.875936
v 0.365409 5.999900 6.875936
v 7.225412 -0.075822 38.437927
v 7.225412 5.999900 38.437927
v 5.843306 5.999900 38.437923
v 5.843306 -0.075822 38.437923
v 7.225412 -0.075822 45.106739
v 7.225412 5.999900 45.106739
v 7.225412 5.999900 38.437927
v 7.225412 -0.075822 38.437927
v 5.843306 -0.075822 38.437923
v 5.843306 5.999900 38.437923
v 5.843306 5.999900 35.977039
v 5.843306 -0.075822 35.977039
v 5.843306 -0.075822 35.977039
v 5.843306 5.999900 35.977039
v 7.225412 5.999900 35.977039
v 7.225412 -0.075822 35.977039
v 7.225412 -0.075822 23.375532
v 7.225412 5.999900 23.375532
v 5.843134 5.999900 23.375534
v 5.843134 -0.075822 23.375534
v 5.843134 -0.075822 23.375534
v 5.843134 5.999900 23.375534
v 5.843134 5.999900 20.914639
v 5.843134 -0.075822 20.914639
v 5.843134 -0.075822 20.914639
v 5.843134 5.999900 20.914639
v 7.225410 5.999900 20.914623
v 7.225410 -0.075822 20.914623
v 7.225412 -0.075822 35.977039
v 7.225412 5.999900 35.977039
v 7.225412 5.999900 23.375532
v 7.225412 -0.075822 23.375532
v 7.225410 -0.075822 8.395844
v 7.225410 5.999900 8.395844
v 5.843132 5.999900 8.395840
v 5.843132 -0.075822 8.395840
v 5.843132 -0.075822 8.395840
v 5.843132 5.999900 8.395840
v 5.843132 5.999900 5.934956
v 5.843132 -0.075822 5.934956
v 5.843132 -0.075822 5.934956
v 5.843132 5.999900 5.934956
v 7.225408 5.999900 5.934941
v 7.225408 -0.075822 5.934941
v 7.225410 -0.075822 20.914623
v 7.225410 5.999900 20.914623
v 7.225410 5.999900 8.395844
v 7.225410 -0.075822 8.395844
vt 1.000000 1.000000
vt 1.000000 0.000000
vt 0.851888 0.000000
vt 0.851888 1.000000
vt 0.000000 0.000000
vt 0.000000 1.000000
vt 1.000000 1.000000
vt 1.000000 0.000000
vt 0.000000 0.000000
vt 0.000000 1.000000
vt 1.000000 1.000000
vt 1.000000 0.000000
vt 0.973999 0.000000
vt 0.973999 1.000000
vt 1.000000 1.000000
vt 1.000000 0.000000
vt 0.909288 0.000000
vt 0.909288 1.000000
vt 1.000000 1.000000
vt 1.000000 0.000000
vt 0.000000 0.000000
vt 0.000000 1.000000
vt 1.000000 1.000000
vt 1.000000 0.000000
vt 0.000000 0.000000
vt 0.000000 1.000000
vt 1.000000 1.000000
vt 1.000000 0.000000
vt 0.000000 0.000000
vt 0.000000 1.000000
vt 1.000000 1.000000
vt 1.000000 0.000000
vt 0.067435 0.000000
vt 0.067435 1.000000
vt 0.750000 1.000000
vt 0.750000 0.000000
vt 0.750000 0.000000
vt 0.750000 1.000000
vt 0.875000 1.000000
vt 0.875000 0.000000
vt 0.000000 0.000000
vt 0.000000 1.000000
vt 0.909288 1.000000
vt 0.909288 0.000000
vt 0.000000 0.000000
vt 0.000000 1.000000
vt 0.067435 1.000000
vt 0.067435 0.000000
vt 0.126620 1.000000
vt 0.126620 0.000000
vt 0.000000 0.000000
vt 0.000000 1.000000
vt 0.851888 1.000000
vt 0.851888 0.000000
vt 0.126620 0.000000
vt 0.126620 1.000000
vt 0.885091 0.000000
vt 0.885091 1.000000
vt 0.890244 1.000000
vt 0.890244 0.000000
vt 0.875000 0.000000
vt 0.875000 1.000000
vt 0.885091 1.000000
vt 0.885091 0.000000
vt 0.890244 0.000000
vt 0.890244 1.000000
vt 0.898888 1.000000
vt 0.898888 0.000000
vt 0.898888 0.000000
vt 0.898888 1.000000
vt 0.902635 1.000000
vt 0.902635 0.000000
vt 0.923777 0.000000
vt 0.923777 1.000000
vt 0.928326 1.000000
vt 0.928326 0.000000
vt 0.928326 0.000000
vt 0.928326 1.000000
vt 0.934571 1.000000
vt 0.934571 0.000000
vt 0.934571 0.000000
vt 0.934571 1.000000
vt 0.936801 1.000000
vt 0.936801 0.000000
vt 0.902635 0.000000
vt 0.902635 1.000000
vt 0.923777 1.000000
vt 0.923777 0.000000
vt 0.960083 0.000000
vt 0.960083 1.000000
vt 0.963830 1.000000
vt 0.963830 0.000000
vt 0.963830 0.000000
vt 0.963830 1.000000
vt 0.969807 1.000000
vt 0.969807 0.000000
vt 0.969807 0.000000
vt 0.969807 1.000000
vt 0.973999 1.000000
vt 0.973999 0.000000
vt 0.936801 0.000000
vt 0.936801 1.000000
vt 0.960083 1.000000
vt 0.960083 0.000000
vn 0.000000 0.000000 1.000000
vn 0.000000 0.000000 1.000000
vn 0.000000 0.000000 1.000000
vn 0.000000 0.000000 1.000000
vn 1.000000 0.000000 0.000000
vn 1.000000 0.000000 0.000000
vn 1.000000 0.000000 0.000000
vn 1.000000 0.000000 0.000000
vn 0.000000 0.000000 1.000000
vn 0.000000 0.000000 1.000000
vn 0.000000 0.000000 1.000000
vn 0.000000 0.000000 1.000000
vn -1.000000 0.000000 0.000000
vn -1.000000 0.000000 0.000000
vn -1.000000 0.000000 0.000000
vn -1.000000 0.000000 0.000000
vn 1.000000 0.000000 0.000000
vn 1.000000 0.000000 0.000000
vn 1.000000 0.000000 0.000000
vn 1.000000 0.000000 0.000000
vn -1.000000 0.000000 0.000000
vn -1.000000 0.000000 0.000000
vn -1.000000 0.000000 0.000000
vn -1.000000 0.000000 0.000000
vn 0.000000 0.000000 -1.000000
vn 0.000000 0.000000 -1.000000
vn 0.000000 0.000000 -1.000000
vn 0.000000 0.000000 -1.000000
vn 1.000000 0.000000 0.000000
vn 1.000000 0.000000 0.000000
vn 1.000000 0.000000 0.000000
vn 1.000000 0.000000 0.000000
vn 1.000000 0.000000 0.000001
vn 1.000000 0.000000 0.000001
vn 1.000000 0.000000 0.000001
vn 1.000000 0.000000 0.000001
vn 0.000000 0.000000 1.000000
vn 0.000000 0.000000 1.000000
vn 0.000000 0.000000 1.000000
vn 0.000000 0.000000 1.000000
vn 0.000000 0.000000 1.000000
vn 0.000000 0.000000 1.000000
vn 0.000000 0.000000 1.000000
vn 0.000000 0.000000 1.000000
vn 0.000000 0.000000 1.000000
vn 0.000000 0.000000 1.000000
vn 0.000000 0.000000 1.000000
vn 0.000000 0.000000 1.000000
vn 0.000000 0.000000 -1.000000
vn 0.000000 0.000000 -1.000000
vn 0.000000 0.000000 -1.000000
vn 0.000000 0.000000 -1.000000
vn 1.000000 0.000000 -0.000000
vn 1.000000 0.000000 -0.000000
vn 1.000000 0.000000 -0.000000
vn 1.000000 0.000000 -0.000000
vn -0.000003 0.000000 1.000000
vn -0.000003 0.000000 1.000000
vn -0.000003 0.000000 1.000000
vn -0.000003 0.000000 1.000000
vn -1.000000 0.000000 0.000000
vn -1.000000 0.000000 0.000000
vn -1.000000 0.000000 0.000000
vn -1.000000 0.000000 0.000000
vn -1.000000 0.000000 0.000000
vn -1.000000 0.000000 0.000000
vn -1.000000 0.000000 0.000000
vn -1.000000 0.000000 0.000000
vn 0.000000 0.000000 -1.000000
vn 0.000000 0.000000 -1.000000
vn 0.000000 0.000000 -1.000000
vn 0.000000 0.000000 -1.000000
vn 0.000001 0.000000 1.000000
vn 0.000001 0.000000 1.000000
vn 0.000001 0.000000 1.000000
vn 0.000001 0.000000 1.000000
vn -1.000000 0.000000 0.000000
vn -1.000000 0.000000 0.000000
vn -1.000000 0.000000 0.000000
vn -1.000000 0.000000 0.000000
vn -0.000010 0.000000 -1.000000
vn -0.000010 0.000000 -1.000000
vn -0.000010 0.000000 -1.000000
vn -0.000010 0.000000 -1.000000
vn -1.000000 0.000000 0.000000
vn -1.000000 0.000000 0.000000
vn -1.000000 0.000000 0.000000
vn -1.000000 0.000000 0.000000
vn -0.000003 0.000000 1.000000
vn -0.000003 0.000000 1.000000
vn -0.000003 0.000000 1.000000
vn -0.000003 0.000000 1.000000
vn -1.000000 0.000000 0.000000
vn -1.000000 0.000000 0.000000
vn -1.000000 0.000000 0.000000
vn -1.000000 0.000000 0.000000
vn -0.000011 0.000000 -1.000000
vn -0.000011 0.000000 -1.000000
vn -0.000011 0.000000 -1.000000
vn -0.000011 0.000000 -1.000000
vn -1.000000 0.000000 0.000000
vn -1.000000 0.000000 0.000000
vn -1.000000 0.000000 0.000000
vn -1.000000 0.000000 0.000000
usemtl material
f 1/0/1 2/0/2 3/0/3
f 1/0/1 3/0/3 4/0/4
f 5/0/5 6/0/6 7/0/7
f 5/0/5 7/0/7 8/0/8
f 9/0/9 10/0/10 11/0/11
f 9/0/9 11/0/11 12/0/12
f 13/0/13 14/0/14 15/0/15
f 13/0/13 15/0/15 16/0/16
f 17/0/17 18/0/18 19/0/19
f 17/0/17 19/0/19 20/0/20
f 21/0/21 22/0/22 23/0/23
f 21/0/21 23/0/23 24/0/24
f 25/0/25 26/0/26 27/0/27
f 25/0/25 27/0/27 28/0/28
f 29/0/29 30/0/30 31/0/31
f 29/0/29 31/0/31 32/0/32
f 33/0/33 34/0/34 35/0/35
f 33/0/33 35/0/35 36/0/36
f 37/0/37 38/0/38 39/0/39
f 37/0/37 39/0/39 40/0/40
f 41/0/41 42/0/42 43/0/43
f 41/0/41 43/0/43 44/0/44
f 45/0/45 46/0/46 47/0/47
f 45/0/45 47/0/47 48/0/48
f 49/0/49 50/0/50 51/0/51
f 49/0/49 51/0/51 52/0/52
f 53/0/53 54/0/54 55/0/55
f 53/0/53 55/0/55 56/0/56
f 57/0/57 58/0/58 59/0/59
f 57/0/57 59/0/59 60/0/60
f 61/0/61 62/0/62 63/0/63
f 61/0/61 63/0/63 64/0/64
f 65/0/65 66/0/66 67/0/67
f 65/0/65 67/0/67 68/0/68
f 69/0/69 70/0/70 71/0/71
f 69/0/69 71/0/71 72/0/72
f 73/0/73 74/0/74 75/0/75
f 73/0/73 75/0/75 76/0/76
f 77/0/77 78/0/78 79/0/79
f 77/0/77 79/0/79 80/0/80
f 81/0/81 82/0/82 83/0/83
f 81/0/81 83/0/83 84/0/84
f 85/0/85 86/0/86 87/0/87
f 85/0/85 87/0/87 88/0/88
f 89/0/89 90/0/90 91/0/91
f 89/0/89 91/0/91 92/0/92
f 93/0/93 94/0/94 95/0/95
f 93/0/93 95/0/95 96/0/96
f 97/0/97 98/0/98 99/0/99
f 97/0/97 99/0/99 100/0/100
f 101/0/101 102/0/102 103/0/103
f 101/0/101 103/0/103 104/0/104
