# 
# Wavefront OBJ file
# Created with Kaydara FBX
# 
mtllib cam_collision01 #225881.mtl

g Cam_Collision01
v 25.763767 0.000000 5.339410
v 25.763767 10.817099 5.682977
v 37.201073 10.817099 5.682977
v 37.201073 0.000000 5.339410
v 25.763767 0.000000 -8.177060
v 25.763767 10.817099 -8.177060
v 10.446918 10.817099 -8.177060
v 10.446918 0.000000 -8.177060
v 10.581741 0.000000 5.339410
v 10.581741 10.817099 5.682977
v 25.763767 10.817099 5.682977
v 25.763767 0.000000 5.339410
v 25.763767 0.000000 -3.423344
v 25.763767 10.817099 -3.423344
v 25.763767 10.817099 -8.177060
v 25.763767 0.000000 -8.177060
v 37.201073 0.000000 -3.423344
v 37.201073 10.817099 -3.423344
v 25.763767 10.817099 -3.423344
v 25.763767 0.000000 -3.423344
v 10.446918 0.000000 -6.294621
v 10.446918 10.817099 -6.294621
v 5.601009 10.817099 -6.294621
v 5.601009 0.000000 -6.294621
v 10.446918 0.000000 -8.177060
v 10.446918 10.817099 -8.177060
v 10.446918 10.817099 -6.294621
v 10.446918 0.000000 -6.294621
v 5.466126 0.000000 5.339410
v 5.466126 10.817099 5.682977
v 10.581741 10.817099 5.682977
v 10.581741 0.000000 5.339410
v 5.601009 0.000000 -8.177060
v 5.601009 10.817099 -8.177060
v -5.681004 10.817099 -8.177060
v -5.681004 0.000000 -8.177060
v 5.601009 0.000000 -6.294621
v 5.601009 10.817099 -6.294621
v 5.601009 10.817099 -8.177060
v 5.601009 0.000000 -8.177060
v -7.443789 0.000000 5.339410
v -7.443789 10.817099 5.682977
v 5.466126 10.817099 5.682977
v 5.466126 0.000000 5.339410
v -6.792861 0.000000 -6.852946
v -6.792861 10.817099 -6.852946
v -8.094711 10.817099 -6.852946
v -8.094711 0.000000 -6.852946
v -5.681004 0.000000 -8.177060
v -5.681004 10.817099 -8.177060
v -6.792861 10.817099 -6.852946
v -6.792861 0.000000 -6.852946
v -14.711846 0.000000 -8.177060
v -14.711846 10.817099 -8.177060
v -24.958748 10.817099 -8.177060
v -24.958748 0.000000 -8.177060
v -13.655565 0.000000 -6.852946
v -13.655565 10.817099 -6.852946
v -14.711846 10.817099 -8.177060
v -14.711846 0.000000 -8.177060
v -25.959389 0.000000 2.086156
v -25.959389 10.817099 2.429723
v -18.723038 10.817099 2.429723
v -18.723038 0.000000 2.086156
v -9.073133 0.000000 -8.177060
v -9.073133 10.817099 -8.177060
v -11.182519 10.817099 -8.177060
v -11.182519 0.000000 -8.177060
v -8.094711 0.000000 -6.852946
v -8.094711 10.817099 -6.852946
v -9.073133 10.817099 -8.177060
v -9.073133 0.000000 -8.177060
v -12.258554 0.000000 -6.852946
v -12.258554 10.817099 -6.852946
v -13.655565 10.817099 -6.852946
v -13.655565 0.000000 -6.852946
v -11.182519 0.000000 -8.177060
v -11.182519 10.817099 -8.177060
v -12.258554 10.817099 -6.852946
v -12.258554 0.000000 -6.852946
v -30.819794 0.000000 0.575778
v -30.819794 10.817099 0.575778
v -25.957703 10.817099 0.575778
v -25.957703 0.000000 0.575778
v -37.109585 0.000000 2.388523
v -37.109585 10.817099 2.388523
v -30.820122 10.817099 2.388523
v -30.820122 0.000000 2.388523
v -30.820122 0.000000 2.388523
v -30.820122 10.817099 2.388523
v -30.819794 10.817099 0.575778
v -30.819794 0.000000 0.575778
v -24.958748 0.000000 -8.177060
v -24.958748 10.817099 -8.177060
v -24.958748 10.817099 -6.339068
v -24.958748 0.000000 -6.339068
v -25.957703 0.000000 0.575778
v -25.957703 10.817099 0.575778
v -25.959389 10.817099 2.429723
v -25.959389 0.000000 2.086156
v -18.731812 0.000000 5.339410
v -18.731812 10.817099 5.682977
v -7.443789 10.817099 5.682977
v -7.443789 0.000000 5.339410
v -18.723038 0.000000 2.086156
v -18.723038 10.817099 2.429723
v -18.731812 10.817099 5.682977
v -18.731812 0.000000 5.339410
v -24.958748 0.000000 -6.339068
v -24.958748 10.817099 -6.339068
v -37.109585 10.817099 -6.339068
v -37.109585 0.000000 -6.339068
vt -0.008930 0.000004
vt -0.008930 0.499998
vt 0.999996 0.500000
vt 0.999994 0.000002
vt 0.006634 0.000002
vt 0.006634 0.499998
vt 0.999998 0.500000
vt 1.000000 0.000000
vt 0.000003 0.000002
vt 0.000002 0.500000
vt 0.993364 0.499998
vt 0.993364 0.000004
vt 0.000038 0.000002
vt 0.000038 0.499998
vt 0.999962 0.499998
vt 0.999962 0.000002
vt 0.000000 0.000000
vt 0.000004 0.500000
vt 1.008933 0.499998
vt 1.008933 0.000002
vt 0.000050 0.000004
vt 0.000050 0.499995
vt 0.999950 0.499995
vt 0.999950 0.000004
vt 0.000000 0.000000
vt 0.000234 0.500000
vt 1.257273 0.499997
vt 1.257156 0.000003
vt 0.000030 0.000002
vt 0.000020 0.500000
vt 0.999980 0.500000
vt 0.999970 0.000002
vt 0.000000 0.000000
vt 0.000004 0.500000
vt 0.999996 0.500000
vt 1.000000 0.000000
vt -0.257156 0.000003
vt -0.257273 0.499997
vt 0.999766 0.500000
vt 1.000000 0.000000
vt 0.000005 0.000002
vt 0.000003 0.500000
vt 0.999997 0.500000
vt 0.999995 0.000002
vt 0.000000 0.000000
vt 0.000309 0.500000
vt 0.999691 0.500000
vt 1.000000 0.000000
vt 0.000000 0.000000
vt 0.000175 0.500000
vt 0.999824 0.500000
vt 1.000000 0.000000
vt 0.000000 0.000000
vt 0.000005 0.500000
vt 0.999995 0.500000
vt 1.000000 0.000000
vt 0.000000 0.000000
vt 0.000183 0.500000
vt 0.999817 0.500000
vt 1.000000 0.000000
vt 0.000015 0.000002
vt 0.000010 0.500000
vt 0.999990 0.500000
vt 0.999985 0.000002
vt 0.000000 0.000000
vt 0.000118 0.500000
vt 0.999882 0.500000
vt 1.000000 0.000000
vt 0.000000 0.000000
vt 0.000194 0.500000
vt 0.999806 0.500000
vt 1.000000 0.000000
vt 0.000000 0.000000
vt 0.000269 0.500000
vt 0.999731 0.500000
vt 1.000000 0.000000
vt 0.000000 0.000000
vt 0.000180 0.500000
vt 0.999820 0.500000
vt 1.000000 0.000000
vt 0.000000 0.000000
vt 0.000020 0.500000
vt 0.999980 0.500000
vt 1.000000 0.000000
vt 0.000000 0.000000
vt 0.000014 0.500000
vt 0.999986 0.500000
vt 1.000000 0.000000
vt 0.000000 0.000000
vt 0.000160 0.500000
vt 0.999840 0.500000
vt 1.000000 0.000000
vt 0.000000 0.000000
vt 0.000155 0.500000
vt 0.999845 0.500000
vt 1.000000 0.000000
vt 0.000000 0.000000
vt 0.000153 0.500000
vt 0.999847 0.500000
vt 0.814539 0.000002
vt 0.000006 0.000002
vt 0.000004 0.500000
vt 0.999996 0.500000
vt 0.999994 0.000002
vt -0.103571 0.000002
vt 0.000048 0.500000
vt 0.999952 0.500000
vt 0.896285 0.000002
vt 0.000000 0.000000
vt 0.000004 0.500000
vt 0.999996 0.500000
vt 1.000000 0.000000
vn 0.000000 0.031745 -0.999496
vn 0.000000 0.031745 -0.999496
vn 0.000000 0.031745 -0.999496
vn 0.000000 0.031745 -0.999496
vn 0.000000 0.000000 1.000000
vn 0.000000 0.000000 1.000000
vn 0.000000 0.000000 1.000000
vn 0.000000 0.000000 1.000000
vn 0.000000 0.031745 -0.999496
vn 0.000000 0.031745 -0.999496
vn 0.000000 0.031745 -0.999496
vn 0.000000 0.031745 -0.999496
vn -1.000000 0.000000 0.000000
vn -1.000000 0.000000 0.000000
vn -1.000000 0.000000 0.000000
vn -1.000000 0.000000 0.000000
vn 0.000000 0.000000 1.000000
vn 0.000000 0.000000 1.000000
vn 0.000000 0.000000 1.000000
vn 0.000000 0.000000 1.000000
vn 0.000000 0.000000 1.000000
vn 0.000000 0.000000 1.000000
vn 0.000000 0.000000 1.000000
vn 0.000000 0.000000 1.000000
vn 1.000000 0.000000 0.000000
vn 1.000000 0.000000 0.000000
vn 1.000000 0.000000 0.000000
vn 1.000000 0.000000 0.000000
vn 0.000000 0.031745 -0.999496
vn 0.000000 0.031745 -0.999496
vn 0.000000 0.031745 -0.999496
vn 0.000000 0.031745 -0.999496
vn 0.000000 0.000000 1.000000
vn 0.000000 0.000000 1.000000
vn 0.000000 0.000000 1.000000
vn 0.000000 0.000000 1.000000
vn -1.000000 0.000000 0.000000
vn -1.000000 0.000000 0.000000
vn -1.000000 0.000000 0.000000
vn -1.000000 0.000000 0.000000
vn 0.000000 0.031745 -0.999496
vn 0.000000 0.031745 -0.999496
vn 0.000000 0.031745 -0.999496
vn 0.000000 0.031745 -0.999496
vn 0.000000 0.000000 1.000000
vn 0.000000 0.000000 1.000000
vn 0.000000 0.000000 1.000000
vn 0.000000 0.000000 1.000000
vn 0.765819 0.000000 0.643057
vn 0.765819 0.000000 0.643057
vn 0.765819 0.000000 0.643057
vn 0.765819 0.000000 0.643057
vn 0.000000 0.000000 1.000000
vn 0.000000 0.000000 1.000000
vn 0.000000 0.000000 1.000000
vn 0.000000 0.000000 1.000000
vn -0.781735 0.000000 0.623611
vn -0.781735 0.000000 0.623611
vn -0.781735 0.000000 0.623611
vn -0.781735 0.000000 0.623611
vn 0.000000 0.031745 -0.999496
vn 0.000000 0.031745 -0.999496
vn 0.000000 0.031745 -0.999496
vn 0.000000 0.031745 -0.999496
vn 0.000000 0.000000 1.000000
vn 0.000000 0.000000 1.000000
vn 0.000000 0.000000 1.000000
vn 0.000000 0.000000 1.000000
vn -0.804255 0.000000 0.594285
vn -0.804255 0.000000 0.594285
vn -0.804255 0.000000 0.594285
vn -0.804255 0.000000 0.594285
vn 0.000000 0.000000 1.000000
vn 0.000000 0.000000 1.000000
vn 0.000000 0.000000 1.000000
vn 0.000000 0.000000 1.000000
vn 0.776059 0.000000 0.630661
vn 0.776059 0.000000 0.630661
vn 0.776059 0.000000 0.630661
vn 0.776059 0.000000 0.630661
vn 0.000000 0.000000 -1.000000
vn 0.000000 0.000000 -1.000000
vn 0.000000 0.000000 -1.000000
vn 0.000000 0.000000 -1.000000
vn 0.000000 0.000000 -1.000000
vn 0.000000 0.000000 -1.000000
vn 0.000000 0.000000 -1.000000
vn 0.000000 0.000000 -1.000000
vn -1.000000 0.000000 -0.000180
vn -1.000000 0.000000 -0.000180
vn -1.000000 0.000000 -0.000180
vn -1.000000 0.000000 -0.000180
vn 1.000000 0.000000 0.000000
vn 1.000000 0.000000 0.000000
vn 1.000000 0.000000 0.000000
vn 1.000000 0.000000 0.000000
vn 0.999999 -0.000016 0.001003
vn 0.999999 -0.000016 0.001003
vn 0.999999 -0.000016 0.001003
vn 0.999999 -0.000016 0.001003
vn 0.000000 0.031745 -0.999496
vn 0.000000 0.031745 -0.999496
vn 0.000000 0.031745 -0.999496
vn 0.000000 0.031745 -0.999496
vn 0.999996 -0.000086 0.002697
vn 0.999996 -0.000086 0.002697
vn 0.999996 -0.000086 0.002697
vn 0.999996 -0.000086 0.002697
vn 0.000000 0.000000 1.000000
vn 0.000000 0.000000 1.000000
vn 0.000000 0.000000 1.000000
vn 0.000000 0.000000 1.000000
usemtl material
f 1/0/1 2/0/2 3/0/3
f 1/0/1 3/0/3 4/0/4
f 5/0/5 6/0/6 7/0/7
f 5/0/5 7/0/7 8/0/8
f 9/0/9 10/0/10 11/0/11
f 9/0/9 11/0/11 12/0/12
f 13/0/13 14/0/14 15/0/15
f 13/0/13 15/0/15 16/0/16
f 17/0/17 18/0/18 19/0/19
f 17/0/17 19/0/19 20/0/20
f 21/0/21 22/0/22 23/0/23
f 21/0/21 23/0/23 24/0/24
f 25/0/25 26/0/26 27/0/27
f 25/0/25 27/0/27 28/0/28
f 29/0/29 30/0/30 31/0/31
f 29/0/29 31/0/31 32/0/32
f 33/0/33 34/0/34 35/0/35
f 33/0/33 35/0/35 36/0/36
f 37/0/37 38/0/38 39/0/39
f 37/0/37 39/0/39 40/0/40
f 41/0/41 42/0/42 43/0/43
f 41/0/41 43/0/43 44/0/44
f 45/0/45 46/0/46 47/0/47
f 45/0/45 47/0/47 48/0/48
f 49/0/49 50/0/50 51/0/51
f 49/0/49 51/0/51 52/0/52
f 53/0/53 54/0/54 55/0/55
f 53/0/53 55/0/55 56/0/56
f 57/0/57 58/0/58 59/0/59
f 57/0/57 59/0/59 60/0/60
f 61/0/61 62/0/62 63/0/63
f 61/0/61 63/0/63 64/0/64
f 65/0/65 66/0/66 67/0/67
f 65/0/65 67/0/67 68/0/68
f 69/0/69 70/0/70 71/0/71
f 69/0/69 71/0/71 72/0/72
f 73/0/73 74/0/74 75/0/75
f 73/0/73 75/0/75 76/0/76
f 77/0/77 78/0/78 79/0/79
f 77/0/77 79/0/79 80/0/80
f 81/0/81 82/0/82 83/0/83
f 81/0/81 83/0/83 84/0/84
f 85/0/85 86/0/86 87/0/87
f 85/0/85 87/0/87 88/0/88
f 89/0/89 90/0/90 91/0/91
f 89/0/89 91/0/91 92/0/92
f 93/0/93 94/0/94 95/0/95
f 93/0/93 95/0/95 96/0/96
f 97/0/97 98/0/98 99/0/99
f 97/0/97 99/0/99 100/0/100
f 101/0/101 102/0/102 103/0/103
f 101/0/101 103/0/103 104/0/104
f 105/0/105 106/0/106 107/0/107
f 105/0/105 107/0/107 108/0/108
f 109/0/109 110/0/110 111/0/111
f 109/0/109 111/0/111 112/0/112
