# 
# Wavefront OBJ file
# Created with Kaydara FBX
# 
mtllib cam_collision05 #2280417.mtl

g Cam_Collision05
v -7.157218 5.998799 -27.463301
v -7.157218 0.000000 -27.463301
v -7.157218 0.000000 -40.019501
v -7.157218 5.998799 -40.019501
v -5.848318 0.000000 -42.480400
v -5.848318 5.998799 -42.480400
v -5.848318 5.998799 -40.019501
v -5.848318 0.000000 -40.019501
v 7.113181 0.000000 -55.930099
v 7.113181 5.998799 -55.930099
v -7.157216 5.998799 -55.930099
v -7.157216 0.000000 -55.930099
v 7.222883 -0.000000 -10.929999
v 7.222883 5.998799 -10.929999
v -0.254117 5.998799 -10.929999
v -0.254117 -0.000000 -10.929999
v -7.157218 0.000000 10.947900
v -7.157218 5.998799 10.947900
v 7.222883 5.998799 10.947900
v 7.222883 0.000000 10.947900
v -7.157218 0.000000 -10.024899
v -7.157218 5.998799 -10.024899
v -7.157218 5.998799 10.947900
v -7.157218 0.000000 10.947900
v -0.254117 -0.000000 -10.929999
v -0.254117 5.998799 -10.929999
v -0.254117 5.998799 -41.355400
v -0.254117 -0.000000 -41.355400
v 7.113182 -0.000000 -41.355400
v 7.113182 5.998799 -41.355400
v 7.113181 5.998799 -55.930099
v 7.113181 0.000000 -55.930099
v -7.157216 0.000000 -42.480400
v -7.157216 5.998799 -42.480400
v -5.848318 5.998799 -42.480400
v -5.848318 0.000000 -42.480400
v -7.157216 0.000000 -55.930099
v -7.157216 5.998799 -55.930099
v -7.157216 5.998799 -42.480400
v -7.157216 0.000000 -42.480400
v 7.222883 0.000000 10.947900
v 7.222883 5.998799 10.947900
v 7.222883 5.998799 -10.929999
v 7.222883 -0.000000 -10.929999
v -0.254117 -0.000000 -41.355400
v -0.254117 5.998799 -41.355400
v 7.113182 5.998799 -41.355400
v 7.113182 -0.000000 -41.355400
v -7.157218 0.000000 -27.463301
v -7.157218 5.998799 -27.463301
v -5.848319 5.998799 -27.463301
v -5.848319 0.000000 -27.463301
v -5.848319 0.000000 -27.463301
v -5.848319 5.998799 -27.463301
v -5.848319 5.998799 -25.002401
v -5.848319 0.000000 -25.002401
v -7.157218 0.000000 -12.480400
v -7.157218 5.998799 -12.480400
v -5.848318 5.998799 -12.480400
v -5.848318 0.000000 -12.480400
v -5.848318 0.000000 -12.480400
v -5.848318 5.998799 -12.480400
v -5.848318 5.998799 -10.024899
v -5.848318 0.000000 -10.024899
v -5.848318 0.000000 -10.024899
v -5.848318 5.998799 -10.024899
v -7.157218 5.998799 -10.024899
v -7.157218 0.000000 -10.024899
v -7.157218 0.000000 -25.002401
v -7.157218 5.998799 -25.002401
v -7.157218 5.998799 -12.480400
v -7.157218 0.000000 -12.480400
v -5.848318 0.000000 -40.019501
v -5.848318 5.998799 -40.019501
v -7.157218 5.998799 -40.019501
v -7.157218 0.000000 -40.019501
v -5.848319 0.000000 -25.002401
v -5.848319 5.998799 -25.002401
v -7.157218 5.998799 -25.002401
v -7.157218 0.000000 -25.002401
vt 0.068734 1.000000
vt 0.068734 0.000000
vt 0.346411 0.000000
vt 0.346411 1.000000
vt 0.500000 0.000000
vt 0.500000 1.000000
vt 1.000000 1.000000
vt 1.000000 0.000000
vt 0.750000 0.000000
vt 0.750000 1.000000
vt 1.000000 1.000000
vt 1.000000 0.000000
vt 0.451707 0.000000
vt 0.451707 1.000000
vt 1.000000 1.000000
vt 1.000000 0.000000
vt 0.000000 0.000000
vt 0.000000 1.000000
vt 1.000000 1.000000
vt 1.000000 0.000000
vt 0.224193 0.000000
vt 0.224193 1.000000
vt 1.000000 1.000000
vt 1.000000 0.000000
vt 0.000000 0.000000
vt 0.000000 1.000000
vt 0.500000 1.000000
vt 0.500000 0.000000
vt 0.595695 0.000000
vt 0.595695 1.000000
vt 0.750000 1.000000
vt 0.750000 0.000000
vt 0.250000 0.000000
vt 0.250000 1.000000
vt 0.500000 1.000000
vt 0.500000 0.000000
vt 0.000000 0.000000
vt 0.000000 1.000000
vt 0.250000 1.000000
vt 0.250000 0.000000
vt 0.000000 0.000000
vt 0.000000 1.000000
vt 0.451707 1.000000
vt 0.451707 0.000000
vt 0.500000 0.000000
vt 0.500000 1.000000
vt 0.595695 1.000000
vt 0.595695 0.000000
vt 0.068734 0.000000
vt 0.068734 1.000000
vt 0.074164 1.000000
vt 0.074164 0.000000
vt 0.074164 0.000000
vt 0.074164 1.000000
vt 0.100912 1.000000
vt 0.100912 0.000000
vt 0.186987 0.000000
vt 0.186987 1.000000
vt 0.190406 1.000000
vt 0.190406 0.000000
vt 0.190406 0.000000
vt 0.190406 1.000000
vt 0.216550 1.000000
vt 0.216550 0.000000
vt 0.216550 0.000000
vt 0.216550 1.000000
vt 0.224193 1.000000
vt 0.224193 0.000000
vt 0.117469 0.000000
vt 0.117469 1.000000
vt 0.186987 1.000000
vt 0.186987 0.000000
vt 0.000000 0.000000
vt 0.000000 1.000000
vt 0.346411 1.000000
vt 0.346411 0.000000
vt 0.100912 0.000000
vt 0.100912 1.000000
vt 0.117469 1.000000
vt 0.117469 0.000000
vn 1.000000 0.000000 0.000000
vn 1.000000 0.000000 0.000000
vn 1.000000 0.000000 0.000000
vn 1.000000 0.000000 0.000000
vn 1.000000 0.000000 0.000000
vn 1.000000 0.000000 0.000000
vn 1.000000 0.000000 0.000000
vn 1.000000 0.000000 0.000000
vn 0.000000 0.000000 1.000000
vn 0.000000 0.000000 1.000000
vn 0.000000 0.000000 1.000000
vn 0.000000 0.000000 1.000000
vn 0.000000 0.000000 1.000000
vn 0.000000 0.000000 1.000000
vn 0.000000 0.000000 1.000000
vn 0.000000 0.000000 1.000000
vn 0.000000 0.000000 -1.000000
vn 0.000000 0.000000 -1.000000
vn 0.000000 0.000000 -1.000000
vn 0.000000 0.000000 -1.000000
vn 1.000000 0.000000 0.000000
vn 1.000000 0.000000 0.000000
vn 1.000000 0.000000 0.000000
vn 1.000000 0.000000 0.000000
vn -1.000000 0.000000 0.000000
vn -1.000000 0.000000 0.000000
vn -1.000000 0.000000 0.000000
vn -1.000000 0.000000 0.000000
vn -1.000000 0.000000 0.000000
vn -1.000000 0.000000 0.000000
vn -1.000000 0.000000 0.000000
vn -1.000000 0.000000 0.000000
vn 0.000000 0.000000 -1.000000
vn 0.000000 0.000000 -1.000000
vn 0.000000 0.000000 -1.000000
vn 0.000000 0.000000 -1.000000
vn 1.000000 0.000000 0.000000
vn 1.000000 0.000000 0.000000
vn 1.000000 0.000000 0.000000
vn 1.000000 0.000000 0.000000
vn -1.000000 0.000000 0.000000
vn -1.000000 0.000000 0.000000
vn -1.000000 0.000000 0.000000
vn -1.000000 0.000000 0.000000
vn 0.000000 0.000000 -1.000000
vn 0.000000 0.000000 -1.000000
vn 0.000000 0.000000 -1.000000
vn 0.000000 0.000000 -1.000000
vn -0.000002 0.000000 -1.000000
vn -0.000002 0.000000 -1.000000
vn -0.000002 0.000000 -1.000000
vn -0.000002 0.000000 -1.000000
vn 1.000000 0.000000 0.000000
vn 1.000000 0.000000 0.000000
vn 1.000000 0.000000 0.000000
vn 1.000000 0.000000 0.000000
vn 0.000000 0.000000 -1.000000
vn 0.000000 0.000000 -1.000000
vn 0.000000 0.000000 -1.000000
vn 0.000000 0.000000 -1.000000
vn 1.000000 0.000000 0.000000
vn 1.000000 0.000000 0.000000
vn 1.000000 0.000000 0.000000
vn 1.000000 0.000000 0.000000
vn 0.000000 0.000000 1.000000
vn 0.000000 0.000000 1.000000
vn 0.000000 0.000000 1.000000
vn 0.000000 0.000000 1.000000
vn 1.000000 0.000000 0.000000
vn 1.000000 0.000000 0.000000
vn 1.000000 0.000000 0.000000
vn 1.000000 0.000000 0.000000
vn 0.000000 0.000000 1.000000
vn 0.000000 0.000000 1.000000
vn 0.000000 0.000000 1.000000
vn 0.000000 0.000000 1.000000
vn 0.000000 0.000000 1.000000
vn 0.000000 0.000000 1.000000
vn 0.000000 0.000000 1.000000
vn 0.000000 0.000000 1.000000
usemtl material
f 1/0/1 2/0/2 3/0/3
f 1/0/1 3/0/3 4/0/4
f 5/0/5 6/0/6 7/0/7
f 5/0/5 7/0/7 8/0/8
f 9/0/9 10/0/10 11/0/11
f 9/0/9 11/0/11 12/0/12
f 13/0/13 14/0/14 15/0/15
f 13/0/13 15/0/15 16/0/16
f 17/0/17 18/0/18 19/0/19
f 17/0/17 19/0/19 20/0/20
f 21/0/21 22/0/22 23/0/23
f 21/0/21 23/0/23 24/0/24
f 25/0/25 26/0/26 27/0/27
f 25/0/25 27/0/27 28/0/28
f 29/0/29 30/0/30 31/0/31
f 29/0/29 31/0/31 32/0/32
f 33/0/33 34/0/34 35/0/35
f 33/0/33 35/0/35 36/0/36
f 37/0/37 38/0/38 39/0/39
f 37/0/37 39/0/39 40/0/40
f 41/0/41 42/0/42 43/0/43
f 41/0/41 43/0/43 44/0/44
f 45/0/45 46/0/46 47/0/47
f 45/0/45 47/0/47 48/0/48
f 49/0/49 50/0/50 51/0/51
f 49/0/49 51/0/51 52/0/52
f 53/0/53 54/0/54 55/0/55
f 53/0/53 55/0/55 56/0/56
f 57/0/57 58/0/58 59/0/59
f 57/0/57 59/0/59 60/0/60
f 61/0/61 62/0/62 63/0/63
f 61/0/61 63/0/63 64/0/64
f 65/0/65 66/0/66 67/0/67
f 65/0/65 67/0/67 68/0/68
f 69/0/69 70/0/70 71/0/71
f 69/0/69 71/0/71 72/0/72
f 73/0/73 74/0/74 75/0/75
f 73/0/73 75/0/75 76/0/76
f 77/0/77 78/0/78 79/0/79
f 77/0/77 79/0/79 80/0/80
