# 
# Wavefront OBJ file
# Created with Kaydara FBX
# 
mtllib cam_collision02 #2255751.mtl

g Cam_Collision02
v 18.670683 17.670000 8.749902
v 18.670683 -0.075822 8.749902
v -13.004199 -0.075822 8.749902
v -13.004199 17.670000 8.749902
v -13.004199 -0.075822 1.957798
v -13.004199 17.670000 1.957798
v -13.004199 17.670000 8.749902
v -13.004199 -0.075822 8.749902
v -18.451679 -0.075822 1.957798
v -18.451679 17.670000 1.957798
v -13.004199 17.670000 1.957798
v -13.004199 -0.075822 1.957798
v -18.451679 -0.075822 -1.985467
v -18.451679 17.670000 -1.985467
v -18.451679 17.670000 1.957798
v -18.451679 -0.075822 1.957798
v 0.107207 -0.075822 -23.470594
v 0.107207 17.670000 -23.470594
v -19.171700 17.670000 -23.470594
v -19.171700 -0.075822 -23.470594
v 18.654394 -0.075822 -9.959199
v 18.654394 17.670000 -9.959199
v 0.107206 17.670000 -9.959199
v 0.107206 -0.075822 -9.959199
v 18.654394 -0.075822 1.010103
v 18.654394 17.670000 1.010103
v 18.654394 17.670000 -9.959199
v 18.654394 -0.075822 -9.959199
v -19.171700 -0.075822 -14.439397
v -19.171700 17.670000 -14.439397
v -17.588711 17.670000 -12.854897
v -17.588711 -0.075822 -12.854897
v -19.171700 -0.075822 -23.470594
v -19.171700 17.670000 -23.470594
v -19.171700 17.670000 -14.439397
v -19.171700 -0.075822 -14.439397
v -17.588711 -0.075822 -12.854897
v -17.588711 17.670000 -12.854897
v -17.588711 17.670000 -2.848897
v -17.588711 -0.075822 -2.848897
v -17.588711 -0.075822 -2.848897
v -17.588711 17.670000 -2.848897
v -18.451679 17.670000 -1.985467
v -18.451679 -0.075822 -1.985467
vt 1.000000 1.000000
vt 1.000000 0.000000
vt 0.000000 0.000000
vt 0.000000 1.000000
vt 0.000000 0.000000
vt 0.000000 1.000000
vt 1.000000 1.000000
vt 1.000000 0.000000
vt 0.000000 0.000000
vt 0.000000 1.000000
vt 1.000000 1.000000
vt 1.000000 0.000000
vt 0.875000 0.000000
vt 0.875000 1.000000
vt 1.000000 1.000000
vt 1.000000 0.000000
vt 0.000000 0.000000
vt 0.000000 1.000000
vt 1.000000 1.000000
vt 1.000000 0.000000
vt 0.000000 0.000000
vt 0.000000 1.000000
vt 1.000000 1.000000
vt 1.000000 0.000000
vt 0.500000 0.000000
vt 0.500000 1.000000
vt 1.000000 1.000000
vt 1.000000 0.000000
vt 0.250000 0.000000
vt 0.250000 1.000000
vt 0.500000 1.000000
vt 0.500000 0.000000
vt 0.000000 0.000000
vt 0.000000 1.000000
vt 0.250000 1.000000
vt 0.250000 0.000000
vt 0.500000 0.000000
vt 0.500000 1.000000
vt 0.750000 1.000000
vt 0.750000 0.000000
vt 0.750000 0.000000
vt 0.750000 1.000000
vt 0.875000 1.000000
vt 0.875000 0.000000
vn 0.000000 0.000000 -1.000000
vn 0.000000 0.000000 -1.000000
vn 0.000000 0.000000 -1.000000
vn 0.000000 0.000000 -1.000000
vn 1.000000 0.000000 0.000000
vn 1.000000 0.000000 0.000000
vn 1.000000 0.000000 0.000000
vn 1.000000 0.000000 0.000000
vn 0.000000 0.000000 -1.000000
vn 0.000000 0.000000 -1.000000
vn 0.000000 0.000000 -1.000000
vn 0.000000 0.000000 -1.000000
vn 1.000000 0.000000 0.000000
vn 1.000000 0.000000 0.000000
vn 1.000000 0.000000 0.000000
vn 1.000000 0.000000 0.000000
vn 0.000000 0.000000 1.000000
vn 0.000000 0.000000 1.000000
vn 0.000000 0.000000 1.000000
vn 0.000000 0.000000 1.000000
vn 0.000000 0.000000 1.000000
vn 0.000000 0.000000 1.000000
vn 0.000000 0.000000 1.000000
vn 0.000000 0.000000 1.000000
vn -1.000000 0.000000 0.000000
vn -1.000000 0.000000 0.000000
vn -1.000000 0.000000 0.000000
vn -1.000000 0.000000 0.000000
vn 0.707444 0.000000 -0.706770
vn 0.707444 0.000000 -0.706770
vn 0.707444 0.000000 -0.706770
vn 0.707444 0.000000 -0.706770
vn 1.000000 0.000000 0.000000
vn 1.000000 0.000000 0.000000
vn 1.000000 0.000000 0.000000
vn 1.000000 0.000000 0.000000
vn 1.000000 0.000000 0.000000
vn 1.000000 0.000000 0.000000
vn 1.000000 0.000000 0.000000
vn 1.000000 0.000000 0.000000
vn 0.707295 0.000000 0.706918
vn 0.707295 0.000000 0.706918
vn 0.707295 0.000000 0.706918
vn 0.707295 0.000000 0.706918
usemtl material
f 1/0/1 2/0/2 3/0/3
f 1/0/1 3/0/3 4/0/4
f 5/0/5 6/0/6 7/0/7
f 5/0/5 7/0/7 8/0/8
f 9/0/9 10/0/10 11/0/11
f 9/0/9 11/0/11 12/0/12
f 13/0/13 14/0/14 15/0/15
f 13/0/13 15/0/15 16/0/16
f 17/0/17 18/0/18 19/0/19
f 17/0/17 19/0/19 20/0/20
f 21/0/21 22/0/22 23/0/23
f 21/0/21 23/0/23 24/0/24
f 25/0/25 26/0/26 27/0/27
f 25/0/25 27/0/27 28/0/28
f 29/0/29 30/0/30 31/0/31
f 29/0/29 31/0/31 32/0/32
f 33/0/33 34/0/34 35/0/35
f 33/0/33 35/0/35 36/0/36
f 37/0/37 38/0/38 39/0/39
f 37/0/37 39/0/39 40/0/40
f 41/0/41 42/0/42 43/0/43
f 41/0/41 43/0/43 44/0/44
