# 
# Wavefront OBJ file
# Created with Kaydara FBX
# 
mtllib cam_collision05 #2255753.mtl

g Cam_Collision05
v 12.569857 -0.000000 -1.671570
v 53.615967 -0.000000 -1.671570
v 53.615967 17.189993 -1.671570
v 12.569857 17.189993 -1.671570
v -14.287227 -0.000000 -2.370758
v -32.487869 -0.000000 -2.370758
v -32.487869 17.189993 -2.370758
v -14.287227 17.189993 -2.370758
v -14.287227 17.189993 -2.370758
v -7.744102 17.189993 13.349659
v -7.744102 -0.000000 13.349659
v -14.287227 -0.000000 -2.370758
v 53.615967 -0.000000 -1.671570
v 53.615967 -0.000000 12.724459
v 53.615967 17.189993 12.724459
v 53.615967 17.189993 -1.671570
vt 0.000000 0.000000
vt 1.000000 0.000000
vt 1.000000 1.000000
vt 0.000000 1.000000
vt 0.000000 0.000000
vt 1.000000 0.000000
vt 1.000000 1.000000
vt 0.000000 1.000000
vt 0.000000 0.000000
vt 0.000000 1.000000
vt 1.000000 1.000000
vt 1.000000 0.000000
vt 0.000000 0.000000
vt 0.000000 1.000000
vt 1.000000 1.000000
vt 1.000000 0.000000
vn 0.000000 0.000000 1.000000
vn 0.000000 0.000000 1.000000
vn 0.000000 0.000000 1.000000
vn 0.000000 0.000000 1.000000
vn 0.000000 0.000000 -1.000000
vn 0.000000 0.000000 -1.000000
vn 0.000000 0.000000 -1.000000
vn 0.000000 0.000000 -1.000000
vn 0.923224 0.000000 -0.384263
vn 0.923224 0.000000 -0.384263
vn 0.923224 0.000000 -0.384263
vn 0.923224 0.000000 -0.384263
vn -1.000000 0.000000 0.000000
vn -1.000000 0.000000 0.000000
vn -1.000000 0.000000 0.000000
vn -1.000000 0.000000 0.000000
usemtl material
f 1/0/1 2/0/2 3/0/3
f 1/0/1 3/0/3 4/0/4
f 5/0/5 6/0/6 7/0/7
f 5/0/5 7/0/7 8/0/8
f 9/0/9 10/0/10 11/0/11
f 9/0/9 11/0/11 12/0/12
f 13/0/13 14/0/14 15/0/15
f 13/0/13 15/0/15 16/0/16
