# 
# Wavefront OBJ file
# Created with Kaydara FBX
# 
mtllib cam_collision03 #2255426.mtl

g Cam_Collision03
v -20.124542 0.000000 -28.607309
v -20.124542 0.000000 -4.100527
v -4.859323 0.000000 -9.804473
v -4.859323 0.000000 -28.607309
v -11.442971 0.000000 3.514953
v 9.576972 0.000000 3.514953
v -0.356937 0.000000 -9.804473
v -4.859323 0.000000 -9.804473
v -11.442971 0.000000 3.514953
v -4.859323 0.000000 -9.804473
v -16.861156 0.000000 -4.100527
v -16.861156 0.000000 3.514953
v -20.124542 0.000000 -4.100527
v 9.576972 0.000000 3.514953
v 13.989480 0.000000 3.514953
v 13.989480 0.000000 -4.100527
v -0.356937 0.000000 -9.804473
v 13.989480 0.000000 -4.100527
v 13.989480 0.000000 -42.857307
v -0.356937 0.000000 -42.857307
v -0.356937 0.000000 -9.804473
v -4.859323 0.000000 -28.607309
v -4.859323 17.151232 -28.607309
v -20.124542 17.151232 -28.607309
v -20.124542 0.000000 -28.607309
v -4.859323 0.000000 -9.804473
v -4.859323 17.151232 -9.804473
v -4.859323 17.151232 -28.607309
v -4.859323 0.000000 -28.607309
v -20.124542 0.000000 -28.607309
v -20.124542 17.151232 -28.607309
v -20.124542 17.151232 -4.100527
v -20.124542 0.000000 -4.100527
v -0.356937 0.000000 -9.804473
v -0.356937 17.151232 -9.804473
v -4.859323 17.151232 -9.804473
v -4.859323 0.000000 -9.804473
v -11.442971 0.000000 3.514953
v -11.442971 17.151232 3.514953
v 9.576972 17.151232 3.514953
v 9.576972 0.000000 3.514953
v -20.124542 0.000000 -4.100527
v -20.124542 17.151232 -4.100527
v -16.861156 17.151232 -4.100527
v -16.861156 0.000000 -4.100527
v -11.442971 17.151232 3.514953
v -11.442971 0.000000 3.514953
v -16.861156 0.000000 3.514953
v -16.861156 17.151232 3.514953
v -16.861156 0.000000 -4.100527
v -16.861156 17.151232 -4.100527
v -16.861156 17.151232 3.514953
v -16.861156 0.000000 3.514953
v 9.576972 0.000000 3.514953
v 9.576972 17.151232 3.514953
v 13.989480 17.151232 3.514953
v 13.989480 0.000000 3.514953
v 13.989480 0.000000 3.514953
v 13.989480 17.151232 3.514953
v 13.989480 17.151232 -4.100527
v 13.989480 0.000000 -4.100527
v -0.356937 0.000000 -42.857307
v -0.356937 17.151232 -42.857307
v -0.356937 17.151232 -9.804473
v -0.356937 0.000000 -9.804473
v 13.989480 0.000000 -4.100527
v 13.989480 17.151232 -4.100527
v 13.989480 17.151232 -42.857307
v 13.989480 0.000000 -42.857307
v 13.989480 0.000000 -42.857307
v 13.989480 17.151232 -42.857307
v -0.356937 17.151232 -42.857307
v -0.356937 0.000000 -42.857307
vt 0.000000 0.000000
vt 0.000000 1.000000
vt 2.773161 0.767250
vt 2.773161 -0.000000
vt 0.000000 0.000000
vt 0.000000 1.000000
vt 1.716252 0.527406
vt 1.716252 0.313210
vt 1.000000 1.000000
vt 2.773161 -0.716252
vt 0.000000 1.000000
vt 1.000000 1.000000
vt 0.000000 0.000000
vt 0.000000 0.000000
vt 0.000000 1.000000
vt 1.000000 1.000000
vt 1.716252 -2.092842
vt 0.000000 0.000000
vt 0.000000 1.655852
vt 3.092843 1.655852
vt 3.092843 0.243696
vt -1.773197 -0.000012
vt -1.773197 0.999988
vt 1.000000 1.000000
vt 1.000000 0.000000
vt 0.232752 -0.000007
vt 0.232752 0.999993
vt 0.999992 0.999992
vt 0.999992 -0.000008
vt 0.000000 0.000000
vt 0.000000 1.000000
vt 1.000000 1.000000
vt 1.000000 0.000000
vt 0.472589 -0.000008
vt 0.472589 0.999992
vt 0.686798 0.999997
vt 0.686798 -0.000003
vt 0.000000 0.000000
vt 0.000000 1.000000
vt 1.000000 1.000000
vt 1.000000 0.000000
vt 0.000000 0.000000
vt 0.000000 1.000000
vt 1.000000 1.000000
vt 1.000000 0.000000
vt 1.000000 1.000000
vt 1.000000 0.000000
vt 0.000000 0.000000
vt 0.000000 1.000000
vt 0.000000 0.000000
vt 0.000000 1.000000
vt 1.000000 1.000000
vt 1.000000 0.000000
vt 0.000000 0.000000
vt 0.000000 1.000000
vt 1.000000 1.000000
vt 1.000000 0.000000
vt 0.000000 0.000000
vt 0.000000 1.000000
vt 1.000000 1.000000
vt 1.000000 0.000000
vt -0.655852 0.000003
vt -0.655852 1.000003
vt 0.756305 0.999992
vt 0.756305 -0.000008
vt 0.000000 0.000000
vt 0.000000 1.000000
vt 1.655850 1.000003
vt 1.655850 0.000003
vt 0.000095 0.000032
vt 0.000095 1.000032
vt 3.092764 1.000122
vt 3.092764 0.000122
vn 0.000000 1.000000 0.000000
vn 0.000000 1.000000 0.000000
vn 0.000000 1.000000 0.000000
vn 0.000000 1.000000 0.000000
vn 0.000000 1.000000 0.000000
vn 0.000000 1.000000 0.000000
vn 0.000000 1.000000 0.000000
vn 0.000000 1.000000 0.000000
vn 0.000000 1.000000 0.000000
vn 0.000000 1.000000 0.000000
vn 0.000000 1.000000 0.000000
vn 0.000000 1.000000 0.000000
vn 0.000000 1.000000 0.000000
vn 0.000000 1.000000 0.000000
vn 0.000000 1.000000 0.000000
vn 0.000000 1.000000 0.000000
vn 0.000000 1.000000 0.000000
vn 0.000000 1.000000 0.000000
vn 0.000000 1.000000 0.000000
vn 0.000000 1.000000 0.000000
vn 0.000000 1.000000 0.000000
vn 0.000000 0.000000 1.000000
vn 0.000000 0.000000 1.000000
vn 0.000000 0.000000 1.000000
vn 0.000000 0.000000 1.000000
vn -1.000000 0.000000 0.000000
vn -1.000000 0.000000 0.000000
vn -1.000000 0.000000 0.000000
vn -1.000000 0.000000 0.000000
vn 1.000000 0.000000 0.000000
vn 1.000000 0.000000 0.000000
vn 1.000000 0.000000 0.000000
vn 1.000000 0.000000 0.000000
vn 0.000000 0.000000 1.000000
vn 0.000000 0.000000 1.000000
vn 0.000000 0.000000 1.000000
vn 0.000000 0.000000 1.000000
vn 0.000000 0.000000 -1.000000
vn 0.000000 0.000000 -1.000000
vn 0.000000 0.000000 -1.000000
vn 0.000000 0.000000 -1.000000
vn 0.000000 0.000000 -1.000000
vn 0.000000 0.000000 -1.000000
vn 0.000000 0.000000 -1.000000
vn 0.000000 0.000000 -1.000000
vn 0.000000 0.000000 -1.000000
vn 0.000000 0.000000 -1.000000
vn 0.000000 0.000000 -1.000000
vn 0.000000 0.000000 -1.000000
vn 1.000000 0.000000 0.000000
vn 1.000000 0.000000 0.000000
vn 1.000000 0.000000 0.000000
vn 1.000000 0.000000 0.000000
vn 0.000000 0.000000 -1.000000
vn 0.000000 0.000000 -1.000000
vn 0.000000 0.000000 -1.000000
vn 0.000000 0.000000 -1.000000
vn -1.000000 0.000000 0.000000
vn -1.000000 0.000000 0.000000
vn -1.000000 0.000000 0.000000
vn -1.000000 0.000000 0.000000
vn 1.000000 0.000000 0.000000
vn 1.000000 0.000000 0.000000
vn 1.000000 0.000000 0.000000
vn 1.000000 0.000000 0.000000
vn -1.000000 0.000000 0.000000
vn -1.000000 0.000000 0.000000
vn -1.000000 0.000000 0.000000
vn -1.000000 0.000000 0.000000
vn 0.000000 0.000000 1.000000
vn 0.000000 0.000000 1.000000
vn 0.000000 0.000000 1.000000
vn 0.000000 0.000000 1.000000
usemtl material
f 1/0/1 2/0/2 3/0/3
f 1/0/1 3/0/3 4/0/4
f 5/0/5 6/0/6 7/0/7
f 5/0/5 7/0/7 8/0/8
f 9/0/9 10/0/10 11/0/11
f 11/0/11 12/0/12 9/0/9
f 13/0/13 11/0/11 10/0/10
f 14/0/14 15/0/15 16/0/16
f 14/0/14 16/0/16 17/0/17
f 18/0/18 19/0/19 20/0/20
f 18/0/18 20/0/20 21/0/21
f 22/0/22 23/0/23 24/0/24
f 22/0/22 24/0/24 25/0/25
f 26/0/26 27/0/27 28/0/28
f 26/0/26 28/0/28 29/0/29
f 30/0/30 31/0/31 32/0/32
f 30/0/30 32/0/32 33/0/33
f 34/0/34 35/0/35 36/0/36
f 34/0/34 36/0/36 37/0/37
f 38/0/38 39/0/39 40/0/40
f 38/0/38 40/0/40 41/0/41
f 42/0/42 43/0/43 44/0/44
f 42/0/42 44/0/44 45/0/45
f 46/0/46 47/0/47 48/0/48
f 46/0/46 48/0/48 49/0/49
f 50/0/50 51/0/51 52/0/52
f 50/0/50 52/0/52 53/0/53
f 54/0/54 55/0/55 56/0/56
f 54/0/54 56/0/56 57/0/57
f 58/0/58 59/0/59 60/0/60
f 58/0/58 60/0/60 61/0/61
f 62/0/62 63/0/63 64/0/64
f 62/0/62 64/0/64 65/0/65
f 66/0/66 67/0/67 68/0/68
f 66/0/66 68/0/68 69/0/69
f 70/0/70 71/0/71 72/0/72
f 70/0/70 72/0/72 73/0/73
