# 
# Wavefront OBJ file
# Created with Kaydara FBX
# 
mtllib cam_collision05 #2279331.mtl

g Cam_Collision05
v -9.776480 0.002129 9.110497
v -9.776480 6.155107 9.110497
v 9.776480 6.155107 9.110497
v 9.776480 0.002129 9.110497
v 12.415481 17.753244 -0.262720
v -12.415481 17.753244 -0.262720
vt 0.000000 0.000000
vt 0.000000 0.679882
vt 1.000000 0.679882
vt 1.000000 0.000000
vt 1.000000 1.000000
vt 0.000000 1.000000
vn 0.000000 0.000000 -1.000000
vn 0.000000 -0.494492 -0.869182
vn 0.000000 -0.494492 -0.869182
vn 0.000000 0.000000 -1.000000
vn 0.000000 -0.628560 -0.777761
vn 0.000000 -0.628560 -0.777761
usemtl material
f 1/0/1 2/0/2 3/0/3
f 1/0/1 3/0/3 4/0/4
f 2/0/2 5/0/5 3/0/3
f 2/0/2 6/0/6 5/0/5
