# 
# Wavefront OBJ file
# Created with Kaydara FBX
# 
mtllib cam_collision01 #2280410.mtl

g Cam_Collision01
v -4.580000 -0.000000 6.627600
v -4.580000 -0.000000 -46.923477
v -4.580000 6.006999 -46.923477
v -4.580000 6.006999 6.627600
v 4.580000 6.006999 -46.923477
v 4.580000 -0.000000 -46.923477
v 4.580000 -0.000000 6.627601
v 4.580000 6.006999 6.627601
vt 0.000000 0.000000
vt 0.000000 0.000000
vt 0.000000 1.000000
vt 0.000000 1.000000
vt 1.000000 1.000000
vt 1.000000 0.000000
vt 0.500000 0.000000
vt 0.500000 1.000000
vn 1.000000 0.000000 0.000000
vn 1.000000 0.000000 0.000000
vn 1.000000 0.000000 0.000000
vn 1.000000 0.000000 0.000000
vn -1.000000 0.000000 0.000000
vn -1.000000 0.000000 0.000000
vn -1.000000 0.000000 0.000000
vn -1.000000 0.000000 0.000000
usemtl material
f 1/0/1 2/0/2 3/0/3
f 1/0/1 3/0/3 4/0/4
f 5/0/5 6/0/6 7/0/7
f 5/0/5 7/0/7 8/0/8
