# 
# Wavefront OBJ file
# Created with Kaydara FBX
# 
mtllib cam_collision05 #2253016.mtl

g Cam_Collision05
v 26.921919 -0.000001 -9.719488
v 26.921919 14.999995 -9.719488
v 20.644707 14.999995 -7.321775
v 20.644707 -0.000001 -7.321775
v 37.067032 -0.000001 -15.836066
v 37.067032 14.999995 -15.836066
v 26.921919 14.999995 -9.719488
v 26.921919 -0.000001 -9.719488
v 48.857250 14.999990 -4.794561
v 48.857250 -0.000007 -4.794561
v 46.985188 -0.000007 0.884796
v 46.985188 14.999990 0.884796
v 37.334686 -0.000007 8.574811
v 37.334686 14.999990 8.574811
v 37.067032 14.999995 -15.836066
v 37.067032 -0.000001 -15.836066
v 51.822792 -0.000001 -17.506359
v 51.822792 14.999995 -17.506359
v 53.750019 -0.000001 -12.659644
v 53.750019 14.999995 -12.659644
v 51.822792 14.999995 -17.506359
v 51.822792 -0.000001 -17.506359
v 48.857250 -0.000007 -4.794561
v 48.857250 14.999990 -4.794561
v 53.750019 14.999995 -12.659644
v 53.750019 -0.000001 -12.659644
v 20.644707 -0.000001 -7.321775
v 20.644707 14.999995 -7.321775
v 9.712254 14.999995 -8.056046
v 9.712254 -0.000001 -8.056046
v 9.712254 -0.000001 -8.056046
v 9.712254 14.999995 -8.056046
v 5.187107 14.999995 -13.202215
v 5.187107 -0.000001 -13.202215
v -7.390896 14.999997 -10.113018
v -7.390896 0.000000 -10.113018
v 5.187107 -0.000001 -13.202215
v 5.187107 14.999995 -13.202215
v -13.765749 14.999997 -13.745437
v -13.765749 0.000000 -13.745437
v -7.390896 0.000000 -10.113018
v -7.390896 14.999997 -10.113018
v -10.461144 0.000000 -2.121554
v -10.461144 14.999997 -2.121554
v -12.725625 14.999992 7.047726
v -12.725625 -0.000003 7.047726
v -10.545332 14.999990 17.565332
v -10.545332 -0.000006 17.565332
v -12.725625 -0.000003 7.047726
v -12.725625 14.999992 7.047726
v -10.545332 -0.000006 17.565332
v -10.545332 14.999990 17.565332
v -12.388725 14.999990 22.048897
v -12.388725 -0.000006 22.048897
v -12.388725 -0.000006 22.048897
v -12.388725 14.999990 22.048897
v -12.425520 14.999990 27.050117
v -12.425520 -0.000006 27.050117
v -16.705385 0.000000 -9.634906
v -16.705385 14.999997 -9.634906
v -10.461144 14.999997 -2.121554
v -10.461144 0.000000 -2.121554
v -12.425520 -0.000006 27.050117
v -12.425520 14.999990 27.050117
v -11.031159 14.999990 31.982119
v -11.031159 -0.000006 31.982119
v -11.031159 -0.000006 31.982119
v -11.031159 14.999990 31.982119
v -13.438660 14.999990 37.048897
v -13.438660 -0.000006 37.048897
v -11.554977 -0.000006 42.047718
v -11.554977 14.999990 42.047718
v -10.574081 14.999990 48.137527
v -10.574081 -0.000006 48.137527
v -13.438660 -0.000006 37.048897
v -13.438660 14.999990 37.048897
v -2.725625 -0.000007 56.660446
v -2.725625 14.999990 56.660446
v 10.671043 14.999990 57.195827
v 10.671043 -0.000007 57.195827
v -9.379697 -0.000006 55.770786
v -9.379697 14.999990 55.770786
v -2.725625 14.999990 56.660446
v -2.725625 -0.000007 56.660446
v 10.671043 -0.000007 57.195827
v 10.671043 14.999990 57.195827
v 17.274366 14.999990 57.355247
v 17.274366 -0.000007 57.355247
v 17.274366 -0.000007 57.355247
v 17.274366 14.999990 57.355247
v 24.696035 14.999990 58.889168
v 24.696035 -0.000007 58.889168
v 24.696035 -0.000007 58.889168
v 24.696035 14.999990 58.889168
v 32.121033 14.999990 58.889153
v 32.121033 -0.000007 58.889153
v -10.574081 -0.000006 48.137527
v -10.574081 14.999990 48.137527
v -15.225622 14.999990 54.547749
v -15.225622 -0.000006 54.547749
v -11.638494 -0.000006 58.675575
v -11.638494 14.999990 58.675575
v -9.379697 14.999990 55.770786
v -9.379697 -0.000006 55.770786
v 32.121033 -0.000007 58.889153
v 32.121033 14.999990 58.889153
v 34.859539 14.999990 59.447376
v 34.859539 -0.000007 59.447376
v 34.859539 -0.000007 59.447376
v 34.859539 14.999990 59.447376
v 36.376839 14.999990 62.047737
v 36.376839 -0.000007 62.047737
v 52.240086 -0.000007 47.611599
v 52.240086 14.999990 47.611599
v 52.199570 14.999990 42.074390
v 52.199570 -0.000007 42.074390
v 52.199570 -0.000007 42.074390
v 52.199570 14.999990 42.074390
v 47.473721 14.999990 38.041378
v 47.473721 -0.000007 38.041378
v 47.473721 -0.000007 38.041378
v 47.473721 14.999990 38.041378
v 36.453293 14.999990 41.979458
v 36.453293 -0.000007 41.979458
v 53.807549 -0.000007 52.028675
v 53.807549 14.999990 52.028675
v 52.240086 14.999990 47.611599
v 52.240086 -0.000007 47.611599
v 53.807549 14.999990 52.028675
v 53.807549 -0.000007 52.028675
v 50.834698 -0.000007 62.585583
v 50.834698 14.999990 62.585583
v 48.597763 -0.000007 64.285828
v 48.597763 14.999990 64.285828
v 41.610134 -0.000007 66.140167
v 41.610134 14.999990 66.140167
v 48.597763 14.999990 64.285828
v 48.597763 -0.000007 64.285828
v 36.376839 -0.000007 62.047737
v 36.376839 14.999990 62.047737
v 36.132618 14.999990 67.047729
v 36.132618 -0.000007 67.047729
vt 0.000000 0.000000
vt 0.000000 1.000000
vt 1.000000 1.000000
vt 1.000000 0.000000
vt 0.000000 0.000000
vt 0.000000 1.000000
vt 1.000000 1.000000
vt 1.000000 0.000000
vt 1.000000 1.000000
vt 1.000000 0.000000
vt 0.500000 0.000000
vt 0.500000 1.000000
vt 0.000000 0.000000
vt 0.000000 1.000000
vt 1.000000 1.000000
vt 1.000000 0.000000
vt 0.000000 0.000000
vt 0.000000 1.000000
vt 0.000000 0.000000
vt 0.000000 1.000000
vt 1.000000 1.000000
vt 1.000000 0.000000
vt 0.000000 0.000000
vt 0.000000 1.000000
vt 1.000000 1.000000
vt 1.000000 0.000000
vt 0.000000 0.000000
vt 0.000000 1.000000
vt 1.000000 1.000000
vt 1.000000 0.000000
vt 0.000000 0.000000
vt 0.000000 1.000000
vt 1.000000 1.000000
vt 1.000000 0.000000
vt 1.000000 1.000000
vt 1.000000 0.000000
vt 0.000000 0.000000
vt 0.000000 1.000000
vt 1.000000 1.000000
vt 1.000000 0.000000
vt 0.000000 0.000000
vt 0.000000 1.000000
vt 0.000000 0.000000
vt 0.000000 1.000000
vt 1.000000 1.000000
vt 1.000000 0.000000
vt 1.000000 1.000000
vt 1.000000 0.000000
vt 0.000000 0.000000
vt 0.000000 1.000000
vt 0.000000 0.000000
vt 0.000000 1.000000
vt 1.000000 1.000000
vt 1.000000 0.000000
vt 0.000000 0.000000
vt 0.000000 1.000000
vt 1.000000 1.000000
vt 1.000000 0.000000
vt 0.000000 0.000000
vt 0.000000 1.000000
vt 1.000000 1.000000
vt 1.000000 0.000000
vt 0.000000 0.000000
vt 0.000000 1.000000
vt 1.000000 1.000000
vt 1.000000 0.000000
vt 0.000000 0.000000
vt 0.000000 1.000000
vt 1.000000 1.000000
vt 1.000000 0.000000
vt 0.500000 0.000000
vt 0.500000 1.000000
vt 1.000000 1.000000
vt 1.000000 0.000000
vt 0.000000 0.000000
vt 0.000000 1.000000
vt 0.000000 0.000000
vt 0.000000 1.000000
vt 1.000000 1.000000
vt 1.000000 0.000000
vt 0.000000 0.000000
vt 0.000000 1.000000
vt 1.000000 1.000000
vt 1.000000 0.000000
vt 0.000000 0.000000
vt 0.000000 1.000000
vt 1.000000 1.000000
vt 1.000000 0.000000
vt 0.000000 0.000000
vt 0.000000 1.000000
vt 1.000000 1.000000
vt 1.000000 0.000000
vt 0.000000 0.000000
vt 0.000000 1.000000
vt 1.000000 1.000000
vt 1.000000 0.000000
vt 0.000000 0.000000
vt 0.000000 1.000000
vt 1.000000 1.000000
vt 1.000000 0.000000
vt 0.000000 0.000000
vt 0.000000 1.000000
vt 1.000000 1.000000
vt 1.000000 0.000000
vt 0.000000 0.000000
vt 0.000000 1.000000
vt 1.000000 1.000000
vt 1.000000 0.000000
vt 0.000000 0.000000
vt 0.000000 1.000000
vt 1.000000 1.000000
vt 1.000000 0.000000
vt 0.000000 0.000000
vt 0.000000 1.000000
vt 1.000000 1.000000
vt 1.000000 0.000000
vt 0.000000 0.000000
vt 0.000000 1.000000
vt 1.000000 1.000000
vt 1.000000 0.000000
vt 0.000000 0.000000
vt 0.000000 1.000000
vt 1.000000 1.000000
vt 1.000000 0.000000
vt 0.000000 0.000000
vt 0.000000 1.000000
vt 1.000000 1.000000
vt 1.000000 0.000000
vt 1.000000 1.000000
vt 1.000000 0.000000
vt 0.500000 0.000000
vt 0.500000 1.000000
vt 0.000000 0.000000
vt 0.000000 1.000000
vt 0.000000 0.000000
vt 0.000000 1.000000
vt 1.000000 1.000000
vt 1.000000 0.000000
vt 0.000000 0.000000
vt 0.000000 1.000000
vt 1.000000 1.000000
vt 1.000000 0.000000
vn 0.460275 0.000000 0.887776
vn 0.460275 0.000000 0.887776
vn 0.096209 0.000000 0.995361
vn 0.096209 0.000000 0.995361
vn 0.298462 0.000000 0.954422
vn 0.298462 0.000000 0.954422
vn 0.460275 0.000000 0.887776
vn 0.460275 0.000000 0.887776
vn -0.894622 0.000000 -0.446823
vn -0.894622 0.000000 -0.446823
vn -0.757487 0.000000 -0.652850
vn -0.757487 0.000000 -0.652850
vn -0.623192 0.000000 -0.782069
vn -0.623192 0.000000 -0.782069
vn 0.298462 0.000000 0.954422
vn 0.298462 0.000000 0.954422
vn -0.187039 0.000000 0.982353
vn -0.187039 0.000000 0.982353
vn -0.973850 0.000000 -0.227190
vn -0.973850 0.000000 -0.227190
vn -0.187039 0.000000 0.982353
vn -0.187039 0.000000 0.982353
vn -0.894622 0.000000 -0.446823
vn -0.894622 0.000000 -0.446823
vn -0.973850 0.000000 -0.227190
vn -0.973850 0.000000 -0.227190
vn 0.096209 0.000000 0.995361
vn 0.096209 0.000000 0.995361
vn -0.355564 0.000000 0.934652
vn -0.355564 0.000000 0.934652
vn -0.355564 0.000000 0.934652
vn -0.355564 0.000000 0.934652
vn -0.119408 0.000000 0.992845
vn -0.119408 0.000000 0.992845
vn -0.028650 0.000000 0.999590
vn -0.028650 0.000000 0.999590
vn -0.119408 0.000000 0.992845
vn -0.119408 0.000000 0.992845
vn -0.495075 0.000000 0.868850
vn -0.495075 0.000000 0.868850
vn -0.028650 0.000000 0.999590
vn -0.028650 0.000000 0.999590
vn 0.972705 0.000000 -0.232046
vn 0.972705 0.000000 -0.232046
vn 0.999991 0.000000 0.004276
vn 0.999991 0.000000 0.004276
vn 0.999748 0.000000 -0.022453
vn 0.999748 0.000000 -0.022453
vn 0.999991 0.000000 0.004276
vn 0.999991 0.000000 0.004276
vn 0.999748 0.000000 -0.022453
vn 0.999748 0.000000 -0.022453
vn 0.980913 0.000000 0.194448
vn 0.980913 0.000000 0.194448
vn 0.980913 0.000000 0.194448
vn 0.980913 0.000000 0.194448
vn 0.990790 0.000000 -0.135410
vn 0.990790 0.000000 -0.135410
vn 0.769071 0.000000 -0.639164
vn 0.769071 0.000000 -0.639164
vn 0.972705 0.000000 -0.232046
vn 0.972705 0.000000 -0.232046
vn 0.990790 0.000000 -0.135410
vn 0.990790 0.000000 -0.135410
vn 0.994906 0.000000 0.100810
vn 0.994906 0.000000 0.100810
vn 0.994906 0.000000 0.100810
vn 0.994906 0.000000 0.100810
vn 0.998649 0.000000 0.051970
vn 0.998649 0.000000 0.051970
vn 0.968214 0.000000 -0.250123
vn 0.968214 0.000000 -0.250123
vn 0.959487 0.000000 0.281754
vn 0.959487 0.000000 0.281754
vn 0.998649 0.000000 0.051970
vn 0.998649 0.000000 0.051970
vn 0.070893 0.000000 -0.997484
vn 0.070893 0.000000 -0.997484
vn 0.034719 0.000000 -0.999397
vn 0.034719 0.000000 -0.999397
vn -0.220525 0.000000 -0.975381
vn -0.220525 0.000000 -0.975381
vn 0.070893 0.000000 -0.997484
vn 0.070893 0.000000 -0.997484
vn 0.034719 0.000000 -0.999397
vn 0.034719 0.000000 -0.999397
vn 0.119867 0.000000 -0.992790
vn 0.119867 0.000000 -0.992790
vn 0.119867 0.000000 -0.992790
vn 0.119867 0.000000 -0.992790
vn 0.102770 0.000000 -0.994705
vn 0.102770 0.000000 -0.994705
vn 0.102770 0.000000 -0.994705
vn 0.102770 0.000000 -0.994705
vn 0.054840 0.000000 -0.998495
vn 0.054840 0.000000 -0.998495
vn 0.959487 0.000000 0.281754
vn 0.959487 0.000000 0.281754
vn 0.809363 0.000000 0.587309
vn 0.809363 0.000000 0.587309
vn -0.789416 0.000000 -0.613859
vn -0.789416 0.000000 -0.613859
vn -0.220525 0.000000 -0.975381
vn -0.220525 0.000000 -0.975381
vn 0.054840 0.000000 -0.998495
vn 0.054840 0.000000 -0.998495
vn 0.595974 0.000000 -0.803003
vn 0.595974 0.000000 -0.803003
vn 0.595974 0.000000 -0.803003
vn 0.595974 0.000000 -0.803003
vn 0.986260 0.000000 -0.165201
vn 0.986260 0.000000 -0.165201
vn -0.987203 0.000000 0.159469
vn -0.987203 0.000000 0.159469
vn -0.895127 0.000000 0.445811
vn -0.895127 0.000000 0.445811
vn -0.895127 0.000000 0.445811
vn -0.895127 0.000000 0.445811
vn -0.006029 0.000000 0.999982
vn -0.006029 0.000000 0.999982
vn -0.006029 0.000000 0.999982
vn -0.006029 0.000000 0.999982
vn 0.336504 0.000000 0.941682
vn 0.336504 0.000000 0.941682
vn -0.995624 0.000000 -0.093445
vn -0.995624 0.000000 -0.093445
vn -0.987203 0.000000 0.159469
vn -0.987203 0.000000 0.159469
vn -0.995624 0.000000 -0.093445
vn -0.995624 0.000000 -0.093445
vn -0.920318 0.000000 -0.391172
vn -0.920318 0.000000 -0.391172
vn -0.359567 0.000000 -0.933119
vn -0.359567 0.000000 -0.933119
vn -0.256496 0.000000 -0.966545
vn -0.256496 0.000000 -0.966545
vn -0.359567 0.000000 -0.933119
vn -0.359567 0.000000 -0.933119
vn 0.986260 0.000000 -0.165201
vn 0.986260 0.000000 -0.165201
vn 0.998809 0.000000 0.048787
vn 0.998809 0.000000 0.048787
usemtl material
f 1/0/1 2/0/2 3/0/3
f 1/0/1 3/0/3 4/0/4
f 5/0/5 6/0/6 7/0/7
f 5/0/5 7/0/7 8/0/8
f 9/0/9 10/0/10 11/0/11
f 9/0/9 11/0/11 12/0/12
f 12/0/12 11/0/11 13/0/13
f 12/0/12 13/0/13 14/0/14
f 15/0/15 16/0/16 17/0/17
f 15/0/15 17/0/17 18/0/18
f 19/0/19 20/0/20 21/0/21
f 19/0/19 21/0/21 22/0/22
f 23/0/23 24/0/24 25/0/25
f 23/0/23 25/0/25 26/0/26
f 27/0/27 28/0/28 29/0/29
f 27/0/27 29/0/29 30/0/30
f 31/0/31 32/0/32 33/0/33
f 31/0/31 33/0/33 34/0/34
f 35/0/35 36/0/36 37/0/37
f 35/0/35 37/0/37 38/0/38
f 39/0/39 40/0/40 41/0/41
f 39/0/39 41/0/41 42/0/42
f 43/0/43 44/0/44 45/0/45
f 43/0/43 45/0/45 46/0/46
f 47/0/47 48/0/48 49/0/49
f 47/0/47 49/0/49 50/0/50
f 51/0/51 52/0/52 53/0/53
f 51/0/51 53/0/53 54/0/54
f 55/0/55 56/0/56 57/0/57
f 55/0/55 57/0/57 58/0/58
f 59/0/59 60/0/60 61/0/61
f 59/0/59 61/0/61 62/0/62
f 63/0/63 64/0/64 65/0/65
f 63/0/63 65/0/65 66/0/66
f 67/0/67 68/0/68 69/0/69
f 67/0/67 69/0/69 70/0/70
f 71/0/71 72/0/72 73/0/73
f 71/0/71 73/0/73 74/0/74
f 75/0/75 72/0/72 71/0/71
f 75/0/75 76/0/76 72/0/72
f 77/0/77 78/0/78 79/0/79
f 77/0/77 79/0/79 80/0/80
f 81/0/81 82/0/82 83/0/83
f 81/0/81 83/0/83 84/0/84
f 85/0/85 86/0/86 87/0/87
f 85/0/85 87/0/87 88/0/88
f 89/0/89 90/0/90 91/0/91
f 89/0/89 91/0/91 92/0/92
f 93/0/93 94/0/94 95/0/95
f 93/0/93 95/0/95 96/0/96
f 97/0/97 98/0/98 99/0/99
f 97/0/97 99/0/99 100/0/100
f 101/0/101 102/0/102 103/0/103
f 101/0/101 103/0/103 104/0/104
f 105/0/105 106/0/106 107/0/107
f 105/0/105 107/0/107 108/0/108
f 109/0/109 110/0/110 111/0/111
f 109/0/109 111/0/111 112/0/112
f 113/0/113 114/0/114 115/0/115
f 113/0/113 115/0/115 116/0/116
f 117/0/117 118/0/118 119/0/119
f 117/0/117 119/0/119 120/0/120
f 121/0/121 122/0/122 123/0/123
f 121/0/121 123/0/123 124/0/124
f 125/0/125 126/0/126 127/0/127
f 125/0/125 127/0/127 128/0/128
f 129/0/129 130/0/130 131/0/131
f 129/0/129 131/0/131 132/0/132
f 132/0/132 131/0/131 133/0/133
f 132/0/132 133/0/133 134/0/134
f 135/0/135 136/0/136 137/0/137
f 135/0/135 137/0/137 138/0/138
f 139/0/139 140/0/140 141/0/141
f 139/0/139 141/0/141 142/0/142
