# 
# Wavefront OBJ file
# Created with Kaydara FBX
# 
mtllib cam_collision1_4.mtl

g Cam_Collision1_4
v 8.468798 0.086298 -14.979037
v 8.468798 6.320832 -14.979037
v -14.312180 6.320832 -14.979037
v -14.312180 0.086298 -14.979037
v -14.312180 6.320832 -14.979037
v -16.966572 6.320832 -11.505255
v -16.966572 0.086298 -11.505255
v -14.312180 0.086298 -14.979037
v -16.966572 6.320832 -11.505255
v -16.966572 6.320832 -6.604405
v -16.966572 0.086298 -6.604405
v -16.966572 0.086298 -11.505255
v -16.966572 6.320832 -6.604405
v -19.456949 6.320832 -2.855959
v -19.456949 0.086298 -2.855959
v -16.966572 0.086298 -6.604405
v -19.456949 6.320832 -2.855959
v -23.354109 6.320832 -2.257229
v -23.354109 0.086298 -2.257229
v -19.456949 0.086298 -2.855959
vt 0.000000 0.500000
vt 0.000000 1.000000
vt 1.000000 1.000000
vt 1.000000 0.500000
vt 0.000000 0.000000
vt 0.000000 1.000000
vt 1.000000 1.000000
vt 1.000000 0.000000
vt 0.000000 0.000000
vt 0.000000 1.000000
vt 1.000000 1.000000
vt 1.000000 0.000000
vt 0.000000 0.000000
vt 0.000000 1.000000
vt 1.000000 1.000000
vt 1.000000 0.000000
vt 0.000000 0.000000
vt 0.000000 1.000000
vt 1.000000 1.000000
vt 1.000000 0.000000
vn 0.000000 0.000000 1.000000
vn 0.000000 0.000000 1.000000
vn 0.000000 0.000000 1.000000
vn 0.000000 0.000000 1.000000
vn 0.794582 0.000000 0.607157
vn 0.794582 0.000000 0.607157
vn 0.794582 0.000000 0.607157
vn 0.794582 0.000000 0.607157
vn 1.000000 0.000000 0.000000
vn 1.000000 0.000000 0.000000
vn 1.000000 0.000000 0.000000
vn 1.000000 0.000000 0.000000
vn 0.832930 0.000000 0.553379
vn 0.832930 0.000000 0.553379
vn 0.832930 0.000000 0.553379
vn 0.832930 0.000000 0.553379
vn 0.151851 0.000000 0.988403
vn 0.151851 0.000000 0.988403
vn 0.151851 0.000000 0.988403
vn 0.151851 0.000000 0.988403
usemtl material
f 1/0/1 2/0/2 3/0/3
f 1/0/1 3/0/3 4/0/4
f 5/0/5 6/0/6 7/0/7
f 5/0/5 7/0/7 8/0/8
f 9/0/9 10/0/10 11/0/11
f 9/0/9 11/0/11 12/0/12
f 13/0/13 14/0/14 15/0/15
f 13/0/13 15/0/15 16/0/16
f 17/0/17 18/0/18 19/0/19
f 17/0/17 19/0/19 20/0/20
