# 
# Wavefront OBJ file
# Created with Kaydara FBX
# 
mtllib cam_collision03 #2279330.mtl

g Cam_Collision03
v 9.863083 0.527380 32.761482
v 9.863083 11.919873 32.761482
v 15.449381 11.919867 10.598269
v 15.449381 0.527375 10.598269
v 15.449381 11.919867 10.598269
v 15.449381 11.919867 -12.308461
v 15.449381 0.527375 -12.308461
v 15.449381 0.527375 10.598269
v 15.449381 11.919867 -12.308461
v 9.336108 11.919867 -19.228523
v 9.336108 0.527375 -19.228523
v 15.449381 0.527375 -12.308461
v 9.863083 0.527380 32.761482
v 19.255182 0.527380 42.132034
v 19.255182 11.919873 42.132034
v 9.863083 11.919873 32.761482
v 9.336108 11.919867 -19.228523
v 5.055490 11.919867 -34.206886
v 5.055490 0.527375 -34.206886
v 9.336108 0.527375 -19.228523
vt 0.000000 0.000000
vt 0.000000 1.000000
vt 1.000000 1.000000
vt 1.000000 0.000000
vt 0.000000 0.000000
vt 0.000000 1.000000
vt 1.000000 1.000000
vt 1.000000 0.000000
vt 0.000000 0.000000
vt 0.000000 1.000000
vt 1.000000 1.000000
vt 1.000000 0.000000
vt 0.000000 0.000000
vt 0.000000 1.000000
vt 1.000000 1.000000
vt 1.000000 0.000000
vt 0.000000 0.000000
vt 0.000000 1.000000
vt 1.000000 1.000000
vt 1.000000 0.000000
vn -0.969672 0.000000 -0.244409
vn -0.969672 0.000000 -0.244409
vn -0.969672 0.000000 -0.244409
vn -0.969672 0.000000 -0.244409
vn -1.000000 0.000000 0.000000
vn -1.000000 0.000000 0.000000
vn -1.000000 0.000000 0.000000
vn -1.000000 0.000000 0.000000
vn -0.749443 0.000000 0.662068
vn -0.749443 0.000000 0.662068
vn -0.749443 0.000000 0.662068
vn -0.749443 0.000000 0.662068
vn -0.706294 0.000000 0.707918
vn -0.706294 0.000000 0.707918
vn -0.706294 0.000000 0.707918
vn -0.706294 0.000000 0.707918
vn -0.961506 0.000000 0.274786
vn -0.961506 0.000000 0.274786
vn -0.961506 0.000000 0.274786
vn -0.961506 0.000000 0.274786
usemtl material
f 1/0/1 2/0/2 3/0/3
f 1/0/1 3/0/3 4/0/4
f 5/0/5 6/0/6 7/0/7
f 5/0/5 7/0/7 8/0/8
f 9/0/9 10/0/10 11/0/11
f 9/0/9 11/0/11 12/0/12
f 13/0/13 14/0/14 15/0/15
f 13/0/13 15/0/15 16/0/16
f 17/0/17 18/0/18 19/0/19
f 17/0/17 19/0/19 20/0/20
