# 
# Wavefront OBJ file
# Created with Kaydara FBX
# 
mtllib cam_collision02c.mtl

g Cam_Collision02c
v 6.639499 -0.000000 6.622980
v -6.634871 -0.000000 6.622980
v -6.634871 4.124779 6.622980
v 6.639499 4.124779 6.622980
v 6.639499 -0.000000 -6.644207
v 6.639499 4.124779 -6.644207
v -6.634871 -0.000000 -6.644207
v -6.634871 4.124779 -6.644207
v 6.639499 4.124779 -6.644207
v -6.634871 4.124779 -6.644207
v -6.634871 -0.000000 -6.644207
v 6.639499 -0.000000 -6.644207
vt 0.375000 0.000000
vt 0.625000 0.000000
vt 0.625000 0.250000
vt 0.375000 0.250000
vt 0.125000 0.000000
vt 0.125000 0.250000
vt 0.875000 0.000000
vt 0.875000 0.250000
vt 0.375000 0.500000
vt 0.625000 0.500000
vt 0.625000 0.750000
vt 0.375000 0.750000
vn -0.706915 0.000000 -0.707298
vn 0.706915 0.000000 -0.707298
vn 0.706915 0.000000 -0.707298
vn -0.706915 0.000000 -0.707298
vn -0.706915 0.000000 0.707298
vn -0.706915 0.000000 0.707298
vn 0.706915 0.000000 0.707298
vn 0.706915 0.000000 0.707298
vn -0.706915 0.000000 0.707298
vn 0.706915 0.000000 0.707298
vn 0.706915 0.000000 0.707298
vn -0.706915 0.000000 0.707298
usemtl material
f 1/0/1 2/0/2 3/0/3
f 1/0/1 3/0/3 4/0/4
f 5/0/5 1/0/1 4/0/4
f 5/0/5 4/0/4 6/0/6
f 7/0/7 3/0/3 2/0/2
f 7/0/7 8/0/8 3/0/3
f 9/0/9 10/0/10 11/0/11
f 9/0/9 11/0/11 12/0/12
