# 
# Wavefront OBJ file
# Created with Kaydara FBX
# 
mtllib cam_collision04 #2255427.mtl

g Cam_Collision04
v -10.751926 0.000000 -12.947669
v -23.332899 0.000000 -12.947669
v -10.941931 0.000000 3.982998
v -8.046380 0.000000 3.982998
v -23.332899 0.000000 -12.947669
v -26.847668 0.000000 -12.947669
v -26.847668 0.000000 1.762269
v -10.941931 0.000000 3.982998
v -26.847668 0.000000 1.762269
v -10.941931 0.000000 17.332392
v -26.847668 0.000000 17.332392
v 28.167866 0.000000 -12.947669
v 28.167866 17.271814 -12.947669
v -10.751926 17.271814 -12.947669
v -10.751926 0.000000 -12.947669
v -10.941931 0.000000 3.982998
v -10.941931 17.271814 3.982998
v -8.046380 17.271814 3.982998
v -8.046380 0.000000 3.982998
v -10.751926 0.000000 -12.947669
v -10.751926 17.271814 -12.947669
v -23.332899 17.271814 -12.947669
v -23.332899 0.000000 -12.947669
v -23.332899 0.000000 -12.947669
v -23.332899 17.271814 -12.947669
v -26.847668 17.271814 -12.947669
v -26.847668 0.000000 -12.947669
v -26.847668 0.000000 -12.947669
v -26.847668 17.271814 -12.947669
v -26.847668 17.271814 1.762269
v -26.847668 0.000000 1.762269
v -10.941931 0.000000 17.332392
v -10.941931 17.271814 17.332392
v -10.941931 17.271814 3.982998
v -10.941931 0.000000 3.982998
v -26.847668 0.000000 1.762269
v -26.847668 17.271814 1.762269
v -26.847668 17.271814 17.332392
v -26.847668 0.000000 17.332392
v -26.847668 0.000000 17.332392
v -26.847668 17.271814 17.332392
v -10.941931 17.271814 17.332392
v -10.941931 0.000000 17.332392
v 10.867717 0.000000 16.438389
v 28.167866 0.000000 1.762269
v -8.046380 0.000000 3.982998
v -4.035522 0.000000 11.499874
v -8.174002 0.000000 11.288633
v -2.890443 0.000000 16.438389
v 28.167866 0.000000 11.862768
v 28.167866 0.000000 -12.947669
v -10.751926 0.000000 -12.947669
v 10.867717 0.000000 16.438389
v 10.867717 17.271814 31.217407
v 28.167866 17.271814 11.862768
v 28.167866 0.000000 11.862768
v 28.167866 17.271814 1.762269
v 28.167866 0.000000 1.762269
v -9.378366 17.271814 31.217407
v 10.867717 17.271814 31.217407
v 10.867717 0.000000 16.438389
v -2.890443 0.000000 16.438389
v -8.046380 17.271814 3.982998
v -8.174002 17.271814 11.288633
v -8.174002 0.000000 11.288633
v -8.046380 0.000000 3.982998
v -4.035522 0.000000 11.499874
v -4.035522 17.271814 11.499874
v -2.890443 0.000000 16.438389
v -2.890445 17.271814 16.438389
v 28.167866 17.271814 1.762269
v 28.167866 17.271814 -12.947669
v 28.167866 0.000000 -12.947669
v 28.167866 0.000000 1.762269
v -2.890445 17.271814 16.438389
v -9.378366 17.271814 31.217407
v -2.890443 0.000000 16.438389
v 8.115867 10.811826 25.910185
v 8.115867 -0.026228 16.446270
v 8.115867 -0.026228 11.572133
v 8.115867 10.811826 11.572133
v 4.603137 -0.026228 11.572133
v 4.603137 10.811826 11.572133
v 4.592815 -0.026228 16.446270
v 4.592815 10.811826 25.910185
v 28.266752 15.608791 -5.598741
v 28.266752 -0.026228 -5.598741
v 12.836339 -0.026228 -5.598741
v 12.836339 15.608791 -5.598741
v 12.836339 -0.026228 1.498636
v 12.836339 15.608791 1.498636
v 28.266752 -0.026228 1.508959
v 28.266752 15.608791 1.508959
vt 0.000000 0.000000
vt 0.000000 1.000000
vt 1.000000 1.000000
vt 1.000000 0.000000
vt 0.000000 0.000000
vt 0.000000 1.000000
vt 1.000000 1.000000
vt 1.000000 0.000000
vt 0.000000 0.000000
vt 1.000000 1.000000
vt 0.000000 1.000000
vt 0.000000 0.000000
vt 0.000000 1.000000
vt 1.000000 1.000000
vt 1.000000 0.000000
vt 0.000000 0.000000
vt 0.000000 1.000000
vt 1.000000 1.000000
vt 1.000000 0.000000
vt 0.000000 0.000000
vt 0.000000 1.000000
vt 1.000000 1.000000
vt 1.000000 0.000000
vt 0.000000 0.000000
vt 0.000000 1.000000
vt 1.000000 1.000000
vt 1.000000 0.000000
vt 0.000000 0.000000
vt 0.000000 1.000000
vt 1.000000 1.000000
vt 1.000000 0.000000
vt 0.000000 0.000000
vt 0.000000 1.000000
vt 1.000000 1.000000
vt 1.000000 0.000000
vt 0.000000 0.000000
vt 0.000000 1.000000
vt 1.000000 1.000000
vt 1.000000 0.000000
vt 0.000000 0.000000
vt 0.000000 1.000000
vt 1.000000 1.000000
vt 1.000000 0.000000
vt 0.000000 0.284630
vt 0.000000 0.719340
vt 0.867274 0.719340
vt 0.867274 0.301130
vt 0.867274 0.334129
vt 0.867274 0.284630
vt 0.000000 0.336142
vt 0.000000 1.000000
vt 0.867274 1.000000
vt 0.000000 0.000000
vt 0.000000 1.000000
vt 0.118498 1.000000
vt 0.118498 0.000000
vt 1.000000 1.000000
vt 1.000000 0.000000
vt 0.000000 1.000000
vt 1.000000 1.000000
vt 1.000000 0.000000
vt 0.000000 0.000000
vt 0.000000 1.000000
vt 0.886131 1.000000
vt 0.886131 0.000000
vt 0.000000 0.000000
vt 0.962043 0.000000
vt 0.898372 1.000000
vt 1.000000 0.000000
vt 0.904493 1.000000
vt 0.000000 1.000000
vt 1.000000 1.000000
vt 1.000000 0.000000
vt 0.000000 0.000000
vt 0.904493 1.000000
vt 1.000000 1.000000
vt 1.000000 0.000000
vt 0.000000 0.000000
vt 0.000000 1.000000
vt 0.173889 1.000000
vt 0.173889 0.000000
vt 0.500000 1.000000
vt 0.500000 0.000000
vt 1.000000 1.000000
vt 1.000000 0.000000
vt 0.000000 0.000000
vt 0.000000 1.000000
vt 0.173889 1.000000
vt 0.173889 0.000000
vt 0.500000 1.000000
vt 0.500000 0.000000
vt 1.000000 1.000000
vt 1.000000 0.000000
vn 0.000000 1.000000 0.000000
vn 0.000000 1.000000 0.000000
vn 0.000000 1.000000 0.000000
vn 0.000000 1.000000 0.000000
vn 0.000000 1.000000 0.000000
vn 0.000000 1.000000 0.000000
vn 0.000000 1.000000 0.000000
vn 0.000000 1.000000 0.000000
vn 0.000000 1.000000 0.000000
vn 0.000000 1.000000 0.000000
vn 0.000000 1.000000 0.000000
vn 0.000000 0.000000 1.000000
vn 0.000000 0.000000 1.000000
vn 0.000000 0.000000 1.000000
vn 0.000000 0.000000 1.000000
vn 0.000000 0.000000 -1.000000
vn 0.000000 0.000000 -1.000000
vn 0.000000 0.000000 -1.000000
vn 0.000000 0.000000 -1.000000
vn 0.000000 0.000000 1.000000
vn 0.000000 0.000000 1.000000
vn 0.000000 0.000000 1.000000
vn 0.000000 0.000000 1.000000
vn 0.000000 0.000000 1.000000
vn 0.000000 0.000000 1.000000
vn 0.000000 0.000000 1.000000
vn 0.000000 0.000000 1.000000
vn 1.000000 0.000000 0.000000
vn 1.000000 0.000000 0.000000
vn 1.000000 0.000000 0.000000
vn 1.000000 0.000000 0.000000
vn -1.000000 0.000000 0.000000
vn -1.000000 0.000000 0.000000
vn -1.000000 0.000000 0.000000
vn -1.000000 0.000000 0.000000
vn 1.000000 0.000000 0.000000
vn 1.000000 0.000000 0.000000
vn 1.000000 0.000000 0.000000
vn 1.000000 0.000000 0.000000
vn 0.000000 0.000000 -1.000000
vn 0.000000 0.000000 -1.000000
vn 0.000000 0.000000 -1.000000
vn 0.000000 0.000000 -1.000000
vn 0.000000 1.000000 0.000000
vn 0.000000 1.000000 0.000000
vn 0.000000 1.000000 0.000000
vn 0.000000 1.000000 0.000000
vn 0.000000 1.000000 0.000000
vn 0.000000 1.000000 0.000000
vn 0.000000 1.000000 0.000000
vn 0.000000 1.000000 0.000000
vn 0.000000 1.000000 0.000000
vn -0.536578 0.331927 -0.775828
vn -0.536578 0.331927 -0.775828
vn -0.760897 0.255233 -0.596567
vn -0.760897 0.255233 -0.596567
vn -1.000000 0.000000 0.000000
vn -1.000000 0.000000 0.000000
vn 0.000000 0.650147 -0.759808
vn 0.000000 0.650147 -0.759808
vn 0.000000 0.650147 -0.759808
vn 0.000000 0.650147 -0.759808
vn 0.999847 0.000000 0.017466
vn 0.882262 0.000000 -0.470758
vn 0.882262 0.000000 -0.470758
vn 0.999847 0.000000 0.017466
vn 0.697981 0.000000 -0.716116
vn 0.697981 0.000000 -0.716116
vn 0.974156 0.000000 -0.225875
vn 0.974156 0.000000 -0.225875
vn -1.000000 0.000000 0.000000
vn -1.000000 0.000000 0.000000
vn -1.000000 0.000000 0.000000
vn -1.000000 0.000000 0.000000
vn 0.915654 0.000000 0.401968
vn 0.915654 0.000000 0.401968
vn 0.915654 0.000000 0.401968
vn 1.000000 0.000000 0.000000
vn 1.000000 0.000000 0.000000
vn 0.939176 0.000000 -0.343435
vn 0.939176 0.000000 -0.343435
vn -0.938850 0.000440 -0.344325
vn -0.938850 0.000440 -0.344325
vn -0.999999 0.000469 -0.001075
vn -0.999999 0.000469 -0.001075
vn 0.000000 0.000000 -1.000000
vn 0.000000 0.000000 -1.000000
vn -0.417876 0.000000 -0.908504
vn -0.417876 0.000000 -0.908504
vn -0.418377 0.000000 0.908273
vn -0.418377 0.000000 0.908273
vn -0.000669 0.000000 1.000000
vn -0.000669 0.000000 1.000000
usemtl material
f 1/0/1 2/0/2 3/0/3
f 1/0/1 3/0/3 4/0/4
f 5/0/5 6/0/6 7/0/7
f 5/0/5 7/0/7 8/0/8
f 9/0/9 10/0/10 8/0/8
f 9/0/9 11/0/11 10/0/10
f 12/0/12 13/0/13 14/0/14
f 12/0/12 14/0/14 15/0/15
f 16/0/16 17/0/17 18/0/18
f 16/0/16 18/0/18 19/0/19
f 20/0/20 21/0/21 22/0/22
f 20/0/20 22/0/22 23/0/23
f 24/0/24 25/0/25 26/0/26
f 24/0/24 26/0/26 27/0/27
f 28/0/28 29/0/29 30/0/30
f 28/0/28 30/0/30 31/0/31
f 32/0/32 33/0/33 34/0/34
f 32/0/32 34/0/34 35/0/35
f 36/0/36 37/0/37 38/0/38
f 36/0/36 38/0/38 39/0/39
f 40/0/40 41/0/41 42/0/42
f 40/0/40 42/0/42 43/0/43
f 44/0/44 45/0/45 46/0/46
f 46/0/46 47/0/47 44/0/44
f 46/0/46 48/0/48 47/0/47
f 47/0/47 49/0/49 44/0/44
f 44/0/44 50/0/50 45/0/45
f 51/0/51 46/0/46 45/0/45
f 51/0/51 52/0/52 46/0/46
f 53/0/53 54/0/54 55/0/55
f 53/0/53 55/0/55 56/0/56
f 57/0/57 56/0/56 55/0/55
f 57/0/57 58/0/58 56/0/56
f 59/0/59 60/0/60 61/0/61
f 59/0/59 61/0/61 62/0/62
f 63/0/63 64/0/64 65/0/65
f 63/0/63 65/0/65 66/0/66
f 64/0/64 67/0/67 65/0/65
f 64/0/64 68/0/68 67/0/67
f 68/0/68 69/0/69 67/0/67
f 68/0/68 70/0/70 69/0/69
f 71/0/71 72/0/72 73/0/73
f 71/0/71 73/0/73 74/0/74
f 75/0/75 76/0/76 77/0/77
f 78/0/78 79/0/79 80/0/80
f 78/0/78 80/0/80 81/0/81
f 81/0/81 80/0/80 82/0/82
f 81/0/81 82/0/82 83/0/83
f 83/0/83 82/0/82 84/0/84
f 83/0/83 84/0/84 85/0/85
f 86/0/86 87/0/87 88/0/88
f 86/0/86 88/0/88 89/0/89
f 89/0/89 88/0/88 90/0/90
f 89/0/89 90/0/90 91/0/91
f 91/0/91 90/0/90 92/0/92
f 91/0/91 92/0/92 93/0/93
