# 
# Wavefront OBJ file
# Created with Kaydara FBX
# 
mtllib cam_collision02 #2255425.mtl

g Cam_Collision02
v 13.959714 -0.038864 8.142517
v 13.959714 10.723286 8.142517
v 13.959713 10.723286 5.837959
v 13.959713 -0.038864 5.837959
v 21.020205 10.723286 8.142517
v 21.020205 -0.038864 8.142517
v 21.020205 -0.038864 5.837959
v 21.020205 10.723286 5.837959
v 13.959713 -0.038864 5.837959
v 13.959713 10.723286 5.837959
v 21.020205 10.723286 5.837959
v 21.020205 -0.038864 5.837959
v 21.572378 -0.038864 -4.096792
v 21.572378 10.723286 -4.096792
v 21.572380 10.723286 0.055747
v 21.572380 -0.038864 0.055747
v 22.040966 -0.038864 -4.080376
v 22.040966 10.723286 -4.080376
v 22.040966 -0.038864 -7.423877
v 22.040966 10.723286 -7.423877
v 18.766281 10.723286 -7.423877
v 18.766281 -0.038864 -7.423877
v 18.766281 -0.038864 0.055747
v 18.766281 10.723286 0.055747
v 21.572380 -0.038864 0.055747
v 21.572380 10.723286 0.055747
v 18.766281 10.723286 0.055747
v 18.766281 -0.038864 0.055747
v 3.693928 -0.038864 8.142517
v 3.693928 10.723286 8.142517
v 3.693926 10.723286 6.309941
v 3.693926 -0.038864 6.309941
v 5.032439 10.723286 8.142517
v 5.032439 -0.038864 8.142517
v 5.032439 -0.038864 6.309941
v 5.032439 10.723286 6.309941
v 3.693926 -0.038864 6.309941
v 3.693926 10.723286 6.309941
v 5.032439 10.723286 6.309941
v 5.032439 -0.038864 6.309941
v 5.032436 -0.038864 -7.451157
v 5.032436 10.723286 -7.451157
v 5.032439 10.723286 -5.383852
v 5.032439 -0.038864 -5.383852
v 3.693928 10.723286 -7.451157
v 3.693928 -0.038864 -7.451157
v 3.693928 -0.038864 -5.383852
v 3.693928 10.723286 -5.383852
v 5.032439 -0.038864 -5.383852
v 5.032439 10.723286 -5.383852
v 3.693928 10.723286 -5.383852
v 3.693928 -0.038864 -5.383852
v 52.870117 0.000000 8.080588
v 52.870117 0.000000 -7.136460
v 2.381575 -0.000000 -7.136460
v 2.381570 -0.000000 8.080588
v -2.291941 0.000000 8.080588
v -2.291941 0.000000 -7.136460
v 2.381575 -0.000000 -7.136460
v 2.381575 -0.000000 -23.850746
v -2.291941 0.000000 -30.352652
v -2.291941 0.000000 -7.136460
v 2.381575 -0.000000 -23.850746
v 11.060493 -0.000000 -23.889364
v -2.291941 0.000000 -32.535755
v -2.291941 0.000000 -30.352652
v 11.060493 -0.000000 -23.889364
v 11.060494 -0.000000 -68.009285
v 1.170466 -0.000000 -62.064167
v -2.291941 0.000000 -62.064167
v -2.291941 0.000000 -59.134212
v -2.291941 0.000000 -32.535755
v 52.870117 0.000000 -7.136460
v 52.870117 15.876476 -7.136465
v 2.381575 15.876476 -7.136465
v 2.381575 -0.000000 -7.136460
v 52.870117 0.000000 8.080588
v 52.870117 15.876476 8.080584
v 52.870117 15.876476 -7.136465
v 52.870117 0.000000 -7.136460
v -2.291941 0.000000 -7.136460
v -2.291941 15.876476 -7.136465
v -2.291941 15.876476 8.080584
v -2.291941 0.000000 8.080588
v -2.291941 0.000000 8.080588
v -2.291941 15.876476 8.080584
v 2.381570 15.876476 8.080584
v 2.381570 -0.000000 8.080588
v 2.381570 -0.000000 8.080588
v 2.381570 15.876476 8.080584
v 52.870117 15.876476 8.080584
v 52.870117 0.000000 8.080588
v 2.381575 -0.000000 -7.136460
v 2.381575 15.876476 -7.136465
v 2.381575 15.876476 -23.850752
v 2.381575 -0.000000 -23.850746
v -2.291941 0.000000 -30.352652
v -2.291941 15.876476 -30.352655
v -2.291941 15.876476 -7.136465
v -2.291941 0.000000 -7.136460
v 2.381575 -0.000000 -23.850746
v 2.381575 15.876476 -23.850752
v 11.060493 15.876476 -23.889370
v 11.060493 -0.000000 -23.889364
v -2.291941 0.000000 -32.535755
v -2.291941 15.876476 -32.535763
v -2.291941 15.876476 -30.352655
v -2.291941 0.000000 -30.352652
v 11.060493 -0.000000 -23.889364
v 11.060493 15.876476 -23.889370
v 11.060494 15.876476 -68.009293
v 11.060494 -0.000000 -68.009285
v -2.291941 0.000000 -59.134212
v -2.291941 15.876476 -59.134216
v -2.291941 15.876476 -32.535763
v -2.291941 0.000000 -32.535755
v 11.060494 -0.000000 -68.009285
v 11.060494 15.876476 -68.009293
v 1.170466 15.876476 -78.221222
v 1.170466 -0.000000 -62.064167
v -2.291941 0.000000 -62.064167
v -2.291941 15.876476 -78.221222
v -2.291941 15.876476 -59.134216
v -2.291941 0.000000 -59.134212
v 1.170466 -0.000000 -62.064167
v 1.170466 15.876476 -78.221222
v -2.291941 15.876476 -78.221222
v -2.291941 0.000000 -62.064167
v 36.039558 -0.020668 -6.096108
v 37.219269 -0.020668 -6.096108
v 37.219269 10.774030 -6.096108
v 36.039558 10.774030 -6.096108
v 37.219269 -0.020668 -6.096108
v 37.219269 -0.020668 -7.157382
v 37.219269 10.774030 -7.157382
v 37.219269 10.774030 -6.096108
v 36.039558 -0.020668 -7.157382
v 36.039558 -0.020668 -6.096108
v 36.039558 10.774030 -6.096108
v 36.039558 10.774030 -7.157382
v 36.039558 -0.020668 7.162280
v 36.039558 10.774030 7.162280
v 37.219269 10.774030 7.162280
v 37.219269 -0.020668 7.162280
v 37.219269 -0.020668 7.162280
v 37.219269 10.774030 7.162280
v 37.219269 10.774030 8.088997
v 37.219269 -0.020668 8.088997
v 36.039558 -0.020668 8.088997
v 36.039558 10.774030 8.088997
v 36.039558 10.774030 7.162280
v 36.039558 -0.020668 7.162280
vt 0.375000 0.000000
vt 0.375000 0.250000
vt 0.625000 0.250000
vt 0.625000 0.000000
vt 0.375000 0.500000
vt 0.375000 0.750000
vt 0.625000 0.750000
vt 0.625000 0.500000
vt 0.625000 0.000000
vt 0.625000 0.250000
vt 0.875000 0.250000
vt 0.875000 0.000000
vt 0.520946 0.000000
vt 0.520946 0.250000
vt 0.625000 0.250000
vt 0.625000 0.000000
vt 0.496906 0.000000
vt 0.496906 0.250000
vt 0.375000 0.000000
vt 0.375000 0.250000
vt 0.375000 0.500000
vt 0.375000 0.750000
vt 0.625000 0.750000
vt 0.625000 0.500000
vt 0.625000 0.000000
vt 0.625000 0.250000
vt 0.875000 0.250000
vt 0.875000 0.000000
vt 0.375000 0.000000
vt 0.375000 0.250000
vt 0.625000 0.250000
vt 0.625000 0.000000
vt 0.375000 0.500000
vt 0.375000 0.750000
vt 0.625000 0.750000
vt 0.625000 0.500000
vt 0.625000 0.000000
vt 0.625000 0.250000
vt 0.875000 0.250000
vt 0.875000 0.000000
vt 0.375000 0.000000
vt 0.375000 0.250000
vt 0.625000 0.250000
vt 0.625000 0.000000
vt 0.375000 0.500000
vt 0.375000 0.750000
vt 0.625000 0.750000
vt 0.625000 0.500000
vt 0.625000 0.000000
vt 0.625000 0.250000
vt 0.875000 0.250000
vt 0.875000 0.000000
vt -0.344368 0.284630
vt -0.344368 1.000000
vt 0.867274 1.000000
vt 0.867274 0.284630
vt 1.000000 0.284630
vt 1.000000 1.000000
vt 0.000000 0.000000
vt 0.000000 0.719941
vt 1.000000 1.000000
vt 1.000000 0.000000
vt -0.480701 -2.978282
vt -1.517836 -2.960593
vt 1.000000 1.000000
vt 1.000000 0.000000
vt -0.342664 -0.325071
vt -0.342664 1.333669
vt 0.209278 0.974205
vt 0.706020 0.974205
vt 1.000000 0.000000
vt 1.000000 0.000000
vt -0.397070 0.000000
vt -0.397070 1.000000
vt 1.000000 1.000000
vt 1.000000 0.000000
vt -0.000078 -0.000000
vt -0.000078 1.000000
vt 0.999922 1.000000
vt 0.999922 0.000000
vt 0.000000 0.000000
vt 0.000000 1.000000
vt 1.000000 1.000000
vt 1.000000 0.000000
vt 0.000000 0.000000
vt 0.000000 1.000000
vt 1.000000 1.000000
vt 1.000000 0.000000
vt 0.000000 0.000000
vt 0.000000 1.000000
vt 1.397077 1.000004
vt 1.397077 0.000004
vt 0.000000 0.000000
vt 0.000000 1.000000
vt 0.719941 1.000000
vt 0.719941 -0.000000
vt 0.000000 0.000000
vt 0.000000 1.000000
vt 1.000000 1.000000
vt 1.000000 0.000000
vt -0.353715 -0.000045
vt -0.353715 0.999955
vt 0.543767 0.999992
vt 0.543767 -0.000008
vt 0.000000 0.000000
vt 0.000000 1.000000
vt 1.000000 1.000000
vt 1.000000 0.000000
vt -0.325071 -0.000005
vt -0.325071 0.999995
vt 1.333666 0.999997
vt 1.333665 -0.000003
vt 0.000000 0.000000
vt 0.000000 1.000000
vt 1.000000 1.000000
vt 1.000000 0.000000
vt -0.061250 -0.000028
vt -0.061250 0.999972
vt 1.640886 1.000010
vt 0.995996 -0.000359
vt 0.025794 0.000000
vt -5.346402 1.000000
vt 1.000000 1.000000
vt 1.000000 0.000000
vt 0.000045 -0.058129
vt 0.000181 1.217708
vt 1.000181 1.217708
vt 1.000045 -0.058129
vt 0.375000 0.000000
vt 0.625000 0.000000
vt 0.625000 0.250000
vt 0.375000 0.250000
vt 0.625000 0.000000
vt 0.875000 0.000000
vt 0.875000 0.250000
vt 0.625000 0.250000
vt 0.125000 0.000000
vt 0.375000 0.000000
vt 0.375000 0.250000
vt 0.125000 0.250000
vt 0.375000 0.000000
vt 0.375000 0.250000
vt 0.625000 0.250000
vt 0.625000 0.000000
vt 0.625000 0.000000
vt 0.625000 0.250000
vt 0.875000 0.250000
vt 0.875000 0.000000
vt 0.125000 0.000000
vt 0.125000 0.250000
vt 0.375000 0.250000
vt 0.375000 0.000000
vn -1.000000 0.000000 0.000001
vn -1.000000 0.000000 0.000001
vn -1.000000 0.000000 0.000001
vn -1.000000 0.000000 0.000001
vn 1.000000 0.000000 0.000000
vn 1.000000 0.000000 0.000000
vn 1.000000 0.000000 0.000000
vn 1.000000 0.000000 0.000000
vn 0.000000 0.000000 -1.000000
vn 0.000000 0.000000 -1.000000
vn 0.000000 0.000000 -1.000000
vn 0.000000 0.000000 -1.000000
vn 0.993644 0.000000 0.112571
vn 0.993644 0.000000 0.112571
vn 1.000000 0.000000 -0.000001
vn 1.000000 0.000000 -0.000001
vn 0.990227 0.000000 0.139464
vn 0.990227 0.000000 0.139464
vn 1.000000 0.000000 0.000000
vn 1.000000 0.000000 0.000000
vn -1.000000 0.000000 0.000000
vn -1.000000 0.000000 0.000000
vn -1.000000 0.000000 0.000000
vn -1.000000 0.000000 0.000000
vn 0.000000 0.000000 1.000000
vn 0.000000 0.000000 1.000000
vn 0.000000 0.000000 1.000000
vn 0.000000 0.000000 1.000000
vn -1.000000 0.000000 0.000001
vn -1.000000 0.000000 0.000001
vn -1.000000 0.000000 0.000001
vn -1.000000 0.000000 0.000001
vn 1.000000 0.000000 0.000000
vn 1.000000 0.000000 0.000000
vn 1.000000 0.000000 0.000000
vn 1.000000 0.000000 0.000000
vn 0.000000 0.000000 -1.000000
vn 0.000000 0.000000 -1.000000
vn 0.000000 0.000000 -1.000000
vn 0.000000 0.000000 -1.000000
vn 1.000000 0.000000 -0.000001
vn 1.000000 0.000000 -0.000001
vn 1.000000 0.000000 -0.000001
vn 1.000000 0.000000 -0.000001
vn -1.000000 0.000000 0.000000
vn -1.000000 0.000000 0.000000
vn -1.000000 0.000000 0.000000
vn -1.000000 0.000000 0.000000
vn 0.000000 0.000000 1.000000
vn 0.000000 0.000000 1.000000
vn 0.000000 0.000000 1.000000
vn 0.000000 0.000000 1.000000
vn 0.000000 1.000000 0.000000
vn 0.000000 1.000000 0.000000
vn 0.000000 1.000000 0.000000
vn 0.000000 1.000000 0.000000
vn 0.000000 1.000000 0.000000
vn 0.000000 1.000000 0.000000
vn 0.000000 1.000000 0.000000
vn 0.000000 1.000000 0.000000
vn 0.000000 1.000000 0.000000
vn 0.000000 1.000000 0.000000
vn 0.000000 1.000000 0.000000
vn 0.000000 1.000000 0.000000
vn 0.000000 1.000000 0.000000
vn 0.000000 1.000000 0.000000
vn 0.000000 1.000000 0.000000
vn 0.000000 1.000000 0.000000
vn 0.000000 1.000000 0.000000
vn 0.000000 1.000000 0.000000
vn 0.000000 1.000000 0.000000
vn 0.000000 1.000000 0.000000
vn 0.000000 0.000000 1.000000
vn 0.000000 0.000000 1.000000
vn 0.000000 0.000000 1.000000
vn 0.000000 0.000000 1.000000
vn -1.000000 0.000000 0.000000
vn -1.000000 0.000000 0.000000
vn -1.000000 0.000000 0.000000
vn -1.000000 0.000000 0.000000
vn 1.000000 0.000000 0.000000
vn 1.000000 0.000000 0.000000
vn 1.000000 0.000000 0.000000
vn 1.000000 0.000000 0.000000
vn 0.000000 -0.000000 -1.000000
vn 0.000000 -0.000000 -1.000000
vn 0.000000 -0.000000 -1.000000
vn 0.000000 -0.000000 -1.000000
vn 0.000000 -0.000000 -1.000000
vn 0.000000 -0.000000 -1.000000
vn 0.000000 -0.000000 -1.000000
vn 0.000000 -0.000000 -1.000000
vn -1.000000 0.000000 0.000000
vn -1.000000 0.000000 0.000000
vn -1.000000 0.000000 0.000000
vn -1.000000 0.000000 0.000000
vn 1.000000 0.000000 0.000000
vn 1.000000 0.000000 0.000000
vn 1.000000 0.000000 0.000000
vn 1.000000 0.000000 0.000000
vn -0.004450 -0.000000 -0.999990
vn -0.004450 -0.000000 -0.999990
vn -0.004450 -0.000000 -0.999990
vn -0.004450 -0.000000 -0.999990
vn 1.000000 0.000000 0.000000
vn 1.000000 0.000000 0.000000
vn 1.000000 0.000000 0.000000
vn 1.000000 0.000000 0.000000
vn -1.000000 0.000000 0.000000
vn -1.000000 0.000000 0.000000
vn -1.000000 0.000000 0.000000
vn -1.000000 0.000000 0.000000
vn 1.000000 0.000000 0.000000
vn 1.000000 0.000000 0.000000
vn 1.000000 0.000000 0.000000
vn 1.000000 0.000000 0.000000
vn -0.188797 0.445347 0.875227
vn -0.188797 0.445347 0.875227
vn -0.188797 0.445347 0.875227
vn -0.188797 0.445347 0.875227
vn 1.000000 0.000000 0.000000
vn 1.000000 0.000000 0.000000
vn 1.000000 0.000000 0.000000
vn 1.000000 0.000000 0.000000
vn 0.000000 0.713273 0.700886
vn 0.000000 0.713273 0.700886
vn 0.000000 0.713273 0.700886
vn 0.000000 0.713273 0.700886
vn 0.000000 0.000000 1.000000
vn 0.000000 0.000000 1.000000
vn 0.000000 0.000000 1.000000
vn 0.000000 0.000000 1.000000
vn 1.000000 0.000000 0.000000
vn 1.000000 0.000000 0.000000
vn 1.000000 0.000000 0.000000
vn 1.000000 0.000000 0.000000
vn -1.000000 0.000000 0.000000
vn -1.000000 0.000000 0.000000
vn -1.000000 0.000000 0.000000
vn -1.000000 0.000000 0.000000
vn 0.000000 0.000000 -1.000000
vn 0.000000 0.000000 -1.000000
vn 0.000000 0.000000 -1.000000
vn 0.000000 0.000000 -1.000000
vn 1.000000 0.000000 0.000000
vn 1.000000 0.000000 0.000000
vn 1.000000 0.000000 0.000000
vn 1.000000 0.000000 0.000000
vn -1.000000 0.000000 0.000000
vn -1.000000 0.000000 0.000000
vn -1.000000 0.000000 0.000000
vn -1.000000 0.000000 0.000000
usemtl material
f 1/0/1 2/0/2 3/0/3
f 1/0/1 3/0/3 4/0/4
f 5/0/5 6/0/6 7/0/7
f 5/0/5 7/0/7 8/0/8
f 9/0/9 10/0/10 11/0/11
f 9/0/9 11/0/11 12/0/12
f 13/0/13 14/0/14 15/0/15
f 13/0/13 15/0/15 16/0/16
f 17/0/17 14/0/14 13/0/13
f 17/0/17 18/0/18 14/0/14
f 19/0/19 18/0/18 17/0/17
f 19/0/19 20/0/20 18/0/18
f 21/0/21 22/0/22 23/0/23
f 21/0/21 23/0/23 24/0/24
f 25/0/25 26/0/26 27/0/27
f 25/0/25 27/0/27 28/0/28
f 29/0/29 30/0/30 31/0/31
f 29/0/29 31/0/31 32/0/32
f 33/0/33 34/0/34 35/0/35
f 33/0/33 35/0/35 36/0/36
f 37/0/37 38/0/38 39/0/39
f 37/0/37 39/0/39 40/0/40
f 41/0/41 42/0/42 43/0/43
f 41/0/41 43/0/43 44/0/44
f 45/0/45 46/0/46 47/0/47
f 45/0/45 47/0/47 48/0/48
f 49/0/49 50/0/50 51/0/51
f 49/0/49 51/0/51 52/0/52
f 53/0/53 54/0/54 55/0/55
f 53/0/53 55/0/55 56/0/56
f 55/0/55 57/0/57 56/0/56
f 55/0/55 58/0/58 57/0/57
f 59/0/59 60/0/60 61/0/61
f 59/0/59 61/0/61 62/0/62
f 63/0/63 64/0/64 65/0/65
f 63/0/63 65/0/65 66/0/66
f 67/0/67 68/0/68 69/0/69
f 69/0/69 70/0/70 67/0/67
f 70/0/70 71/0/71 67/0/67
f 71/0/71 72/0/72 67/0/67
f 73/0/73 74/0/74 75/0/75
f 73/0/73 75/0/75 76/0/76
f 77/0/77 78/0/78 79/0/79
f 77/0/77 79/0/79 80/0/80
f 81/0/81 82/0/82 83/0/83
f 81/0/81 83/0/83 84/0/84
f 85/0/85 86/0/86 87/0/87
f 85/0/85 87/0/87 88/0/88
f 89/0/89 90/0/90 91/0/91
f 89/0/89 91/0/91 92/0/92
f 93/0/93 94/0/94 95/0/95
f 93/0/93 95/0/95 96/0/96
f 97/0/97 98/0/98 99/0/99
f 97/0/97 99/0/99 100/0/100
f 101/0/101 102/0/102 103/0/103
f 101/0/101 103/0/103 104/0/104
f 105/0/105 106/0/106 107/0/107
f 105/0/105 107/0/107 108/0/108
f 109/0/109 110/0/110 111/0/111
f 109/0/109 111/0/111 112/0/112
f 113/0/113 114/0/114 115/0/115
f 113/0/113 115/0/115 116/0/116
f 117/0/117 118/0/118 119/0/119
f 117/0/117 119/0/119 120/0/120
f 121/0/121 122/0/122 123/0/123
f 121/0/121 123/0/123 124/0/124
f 125/0/125 126/0/126 127/0/127
f 125/0/125 127/0/127 128/0/128
f 129/0/129 130/0/130 131/0/131
f 129/0/129 131/0/131 132/0/132
f 133/0/133 134/0/134 135/0/135
f 133/0/133 135/0/135 136/0/136
f 137/0/137 138/0/138 139/0/139
f 137/0/137 139/0/139 140/0/140
f 141/0/141 142/0/142 143/0/143
f 141/0/141 143/0/143 144/0/144
f 145/0/145 146/0/146 147/0/147
f 145/0/145 147/0/147 148/0/148
f 149/0/149 150/0/150 151/0/151
f 149/0/149 151/0/151 152/0/152
