# 
# Wavefront OBJ file
# Created with Kaydara FBX
# 
mtllib cam_collision05 #2252919.mtl

g Cam_Collision05
v 41.777401 0.000000 -0.482510
v 41.777401 12.435661 -0.482510
v 53.163250 12.435658 -0.482510
v 53.163250 0.000000 -0.482510
v 41.777401 0.000000 7.176299
v 41.777401 12.435658 7.176299
v 41.777401 12.435661 -0.482510
v 41.777401 0.000000 -0.482510
v 20.958187 0.000000 4.806992
v 20.958187 12.435658 4.806992
v 21.044086 12.435658 7.176299
v 21.044086 0.000000 7.176299
v 41.777401 12.435658 7.176299
v 41.777401 0.000000 7.176299
v 21.044086 0.000000 7.176299
v 21.044086 12.435658 7.176299
v -41.777401 0.000000 -5.013511
v -41.777401 12.435658 -5.013511
v -34.996807 12.435658 -5.013511
v -34.996807 0.000000 -5.013511
v -41.777401 0.000000 -11.596523
v -41.777401 12.435658 -11.596523
v -41.777401 12.435658 -5.013511
v -41.777401 0.000000 -5.013511
v 13.925800 0.000000 4.708344
v 13.925800 12.435658 4.708344
v 20.958187 12.435658 4.806992
v 20.958187 0.000000 4.806992
v -13.876369 0.000000 4.708344
v -13.876369 12.435658 4.708344
v 0.000000 12.435658 4.708344
v 0.000000 0.000000 4.708344
v 0.000000 0.000000 4.708344
v 0.000000 12.435658 4.708344
v 13.925800 12.435658 4.708344
v 13.925800 0.000000 4.708344
v -32.447079 0.000000 -2.072710
v -32.447079 12.435658 -2.072710
v -13.876370 12.435658 -2.072710
v -13.876370 0.000000 -2.072710
v -84.615723 0.000000 -14.972514
v -84.615723 12.435658 -14.972514
v -71.630096 12.435658 -14.972514
v -71.630096 0.000000 -14.972514
v -71.914406 0.000000 -60.900913
v -71.914406 12.435658 -60.900913
v -78.469063 12.435658 -58.469196
v -78.469063 0.000000 -58.469196
v -71.914406 0.000000 -64.206871
v -71.914406 12.435658 -64.206871
v -75.061455 0.000000 -66.447662
v -75.061455 12.435658 -66.447662
v -75.061455 0.000000 -76.309479
v -75.061455 12.435661 -76.309479
v -59.868572 0.000000 -11.596519
v -59.868572 12.435658 -11.596519
v -41.777401 12.435658 -11.596523
v -41.777401 0.000000 -11.596523
v -59.868572 0.000000 -14.972509
v -59.868572 12.435658 -14.972509
v -59.868572 12.435658 -11.596519
v -59.868572 0.000000 -11.596519
v -71.630096 0.000000 -14.972514
v -71.630096 12.435658 -14.972514
v -68.289360 12.435658 -11.655707
v -68.289360 0.000000 -11.655707
v -64.830315 0.000000 -14.972514
v -64.830315 12.435658 -14.972514
v -59.868572 12.435658 -14.972509
v -59.868572 0.000000 -14.972509
v -68.289360 0.000000 -11.655707
v -68.289360 12.435658 -11.655707
v -64.830315 12.435658 -11.655707
v -64.830315 0.000000 -11.655707
v -64.830315 0.000000 -11.655707
v -64.830315 12.435658 -11.655707
v -64.830315 12.435658 -14.972514
v -64.830315 0.000000 -14.972514
v -34.996807 12.435658 -5.013511
v -32.447079 12.435658 -2.072710
v -32.447079 0.000000 -2.072710
v -34.996807 0.000000 -5.013511
v -13.876370 12.435658 -2.072710
v -13.876369 12.435658 4.708344
v -13.876369 0.000000 4.708344
v -13.876370 0.000000 -2.072710
v 72.085869 12.435658 -48.564602
v 72.085869 12.435658 -71.020020
v 72.085869 0.000000 -71.020020
v 72.085869 0.000000 -48.564602
v 70.228134 12.435658 -77.965103
v 70.532936 12.435658 -82.011040
v 70.532936 0.000000 -82.011040
v 70.228134 0.000000 -77.965103
v 72.085869 12.435658 -71.020020
v 72.085869 0.000000 -71.020020
v 70.532936 12.435658 -82.011040
v 70.532936 12.435658 -90.778664
v 70.532936 0.000000 -90.778664
v 70.532936 0.000000 -82.011040
vt 0.000000 0.000000
vt 0.000000 1.000000
vt 1.000000 1.000000
vt 1.000000 0.000000
vt 0.000000 0.000000
vt 0.000000 1.000000
vt 1.000000 1.000000
vt 1.000000 0.000000
vt 0.000000 0.000000
vt 0.000000 1.000000
vt 1.000000 1.000000
vt 1.000000 0.000000
vt 1.000000 1.000000
vt 1.000000 0.000000
vt 0.000000 0.000000
vt 0.000000 1.000000
vt 0.000000 0.000000
vt 0.000000 1.000000
vt 1.000000 1.000000
vt 1.000000 0.000000
vt 0.000000 0.000000
vt 0.000000 1.000000
vt 1.000000 1.000000
vt 1.000000 0.000000
vt 0.000000 0.000000
vt 0.000000 1.000000
vt 1.000000 1.000000
vt 1.000000 0.000000
vt 0.000000 0.000000
vt 0.000000 1.000000
vt 1.000000 1.000000
vt 1.000000 0.000000
vt 0.000000 0.000000
vt 0.000000 1.000000
vt 1.000000 1.000000
vt 1.000000 0.000000
vt 0.000000 0.000000
vt 0.000000 1.000000
vt 1.000000 1.000000
vt 1.000000 0.000000
vt 0.000000 0.000000
vt 0.000000 1.000000
vt 1.000000 1.000000
vt 1.000000 0.000000
vt 0.768272 0.000000
vt 0.768272 1.000000
vt 1.000000 1.000000
vt 1.000000 0.000000
vt 0.511094 0.000000
vt 0.511094 1.000000
vt 0.382118 0.000000
vt 0.382118 1.000000
vt 0.000000 0.000000
vt 0.000000 1.000000
vt 0.000000 0.000000
vt 0.000000 1.000000
vt 1.000000 1.000000
vt 1.000000 0.000000
vt 0.000000 0.000000
vt 0.000000 1.000000
vt 1.000000 1.000000
vt 1.000000 0.000000
vt 0.000000 0.000000
vt 0.000000 1.000000
vt 1.000000 1.000000
vt 1.000000 0.000000
vt 0.000000 0.000000
vt 0.000000 1.000000
vt 1.000000 1.000000
vt 1.000000 0.000000
vt 0.000000 0.000000
vt 0.000000 1.000000
vt 1.000000 1.000000
vt 1.000000 0.000000
vt 0.000000 0.000000
vt 0.000000 1.000000
vt 1.000000 1.000000
vt 1.000000 0.000000
vt 0.000000 0.000000
vt 0.000000 0.292116
vt 1.000000 0.292116
vt 1.000000 0.000000
vt 0.000000 0.000000
vt 0.000000 0.556363
vt 1.000000 0.556363
vt 1.000000 0.000000
vt 0.000000 0.000000
vt 0.000000 1.000000
vt 1.000000 1.000000
vt 1.000000 0.000000
vt 0.000000 0.484519
vt 0.000000 1.000000
vt 1.000000 1.000000
vt 1.000000 0.484519
vt 0.000000 0.000000
vt 1.000000 0.000000
vt 0.000000 0.000000
vt 0.000000 1.000000
vt 1.000000 1.000000
vt 1.000000 0.000000
vn 0.000000 0.000000 -1.000000
vn 0.000000 0.000000 -1.000000
vn 0.000000 0.000000 -1.000000
vn 0.000000 0.000000 -1.000000
vn -1.000000 0.000000 0.000000
vn -1.000000 0.000000 0.000000
vn -1.000000 0.000000 0.000000
vn -1.000000 0.000000 0.000000
vn 0.999343 0.000000 -0.036231
vn 0.999343 0.000000 -0.036231
vn 0.999343 0.000000 -0.036231
vn 0.999343 0.000000 -0.036231
vn 0.000000 0.000000 -1.000000
vn 0.000000 0.000000 -1.000000
vn 0.000000 0.000000 -1.000000
vn 0.000000 0.000000 -1.000000
vn 0.000000 0.000000 -1.000000
vn 0.000000 0.000000 -1.000000
vn 0.000000 0.000000 -1.000000
vn 0.000000 0.000000 -1.000000
vn 1.000000 0.000000 0.000000
vn 1.000000 0.000000 0.000000
vn 1.000000 0.000000 0.000000
vn 1.000000 0.000000 0.000000
vn 0.014026 0.000000 -0.999902
vn 0.014026 0.000000 -0.999902
vn 0.014026 0.000000 -0.999902
vn 0.014026 0.000000 -0.999902
vn 0.000000 0.000000 -1.000000
vn 0.000000 0.000000 -1.000000
vn 0.000000 0.000000 -1.000000
vn 0.000000 0.000000 -1.000000
vn 0.000000 0.000000 -1.000000
vn 0.000000 0.000000 -1.000000
vn 0.000000 0.000000 -1.000000
vn 0.000000 0.000000 -1.000000
vn 0.000000 0.000000 -1.000000
vn 0.000000 0.000000 -1.000000
vn 0.000000 0.000000 -1.000000
vn 0.000000 0.000000 -1.000000
vn 0.000000 0.000000 -1.000000
vn 0.000000 0.000000 -1.000000
vn 0.000000 0.000000 -1.000000
vn 0.000000 0.000000 -1.000000
vn 0.658657 0.000000 0.752443
vn 0.658657 0.000000 0.752443
vn 0.347825 0.000000 0.937559
vn 0.347825 0.000000 0.937559
vn 0.869760 0.000000 -0.493475
vn 0.869760 0.000000 -0.493475
vn 0.967815 0.000000 -0.251662
vn 0.967815 0.000000 -0.251662
vn 1.000000 0.000000 0.000000
vn 1.000000 0.000000 0.000000
vn -0.000000 0.000000 -1.000000
vn -0.000000 0.000000 -1.000000
vn -0.000000 0.000000 -1.000000
vn -0.000000 0.000000 -1.000000
vn 1.000000 0.000000 0.000000
vn 1.000000 0.000000 0.000000
vn 1.000000 0.000000 0.000000
vn 1.000000 0.000000 0.000000
vn 0.704561 0.000000 -0.709644
vn 0.704561 0.000000 -0.709644
vn 0.704561 0.000000 -0.709644
vn 0.704561 0.000000 -0.709644
vn 0.000001 0.000000 -1.000000
vn 0.000001 0.000000 -1.000000
vn 0.000001 0.000000 -1.000000
vn 0.000001 0.000000 -1.000000
vn 0.000000 0.000000 -1.000000
vn 0.000000 0.000000 -1.000000
vn 0.000000 0.000000 -1.000000
vn 0.000000 0.000000 -1.000000
vn -1.000000 0.000000 0.000000
vn -1.000000 0.000000 0.000000
vn -1.000000 0.000000 0.000000
vn -1.000000 0.000000 0.000000
vn 0.755558 0.000000 -0.655082
vn 0.755558 0.000000 -0.655082
vn 0.755558 0.000000 -0.655082
vn 0.755558 0.000000 -0.655082
vn 1.000000 0.000000 -0.000000
vn 1.000000 0.000000 -0.000000
vn 1.000000 0.000000 -0.000000
vn 1.000000 0.000000 -0.000000
vn -1.000000 0.000000 0.000000
vn -1.000000 0.000000 0.000000
vn -1.000000 0.000000 0.000000
vn -1.000000 0.000000 0.000000
vn -0.990165 0.000000 0.139902
vn -0.997174 0.000000 -0.075123
vn -0.997174 0.000000 -0.075123
vn -0.990165 0.000000 0.139902
vn -0.966037 0.000000 0.258405
vn -0.966037 0.000000 0.258405
vn -1.000000 0.000000 0.000000
vn -1.000000 0.000000 0.000000
vn -1.000000 0.000000 0.000000
vn -1.000000 0.000000 0.000000
usemtl material
f 1/0/1 2/0/2 3/0/3
f 1/0/1 3/0/3 4/0/4
f 5/0/5 6/0/6 7/0/7
f 5/0/5 7/0/7 8/0/8
f 9/0/9 10/0/10 11/0/11
f 9/0/9 11/0/11 12/0/12
f 13/0/13 14/0/14 15/0/15
f 13/0/13 15/0/15 16/0/16
f 17/0/17 18/0/18 19/0/19
f 17/0/17 19/0/19 20/0/20
f 21/0/21 22/0/22 23/0/23
f 21/0/21 23/0/23 24/0/24
f 25/0/25 26/0/26 27/0/27
f 25/0/25 27/0/27 28/0/28
f 29/0/29 30/0/30 31/0/31
f 29/0/29 31/0/31 32/0/32
f 33/0/33 34/0/34 35/0/35
f 33/0/33 35/0/35 36/0/36
f 37/0/37 38/0/38 39/0/39
f 37/0/37 39/0/39 40/0/40
f 41/0/41 42/0/42 43/0/43
f 41/0/41 43/0/43 44/0/44
f 45/0/45 46/0/46 47/0/47
f 45/0/45 47/0/47 48/0/48
f 49/0/49 46/0/46 45/0/45
f 49/0/49 50/0/50 46/0/46
f 51/0/51 50/0/50 49/0/49
f 51/0/51 52/0/52 50/0/50
f 53/0/53 52/0/52 51/0/51
f 53/0/53 54/0/54 52/0/52
f 55/0/55 56/0/56 57/0/57
f 55/0/55 57/0/57 58/0/58
f 59/0/59 60/0/60 61/0/61
f 59/0/59 61/0/61 62/0/62
f 63/0/63 64/0/64 65/0/65
f 63/0/63 65/0/65 66/0/66
f 67/0/67 68/0/68 69/0/69
f 67/0/67 69/0/69 70/0/70
f 71/0/71 72/0/72 73/0/73
f 71/0/71 73/0/73 74/0/74
f 75/0/75 76/0/76 77/0/77
f 75/0/75 77/0/77 78/0/78
f 79/0/79 80/0/80 81/0/81
f 79/0/79 81/0/81 82/0/82
f 83/0/83 84/0/84 85/0/85
f 83/0/83 85/0/85 86/0/86
f 87/0/87 88/0/88 89/0/89
f 87/0/87 89/0/89 90/0/90
f 91/0/91 92/0/92 93/0/93
f 91/0/91 93/0/93 94/0/94
f 95/0/95 91/0/91 94/0/94
f 95/0/95 94/0/94 96/0/96
f 97/0/97 98/0/98 99/0/99
f 97/0/97 99/0/99 100/0/100
