# 
# Wavefront OBJ file
# Created with Kaydara FBX
# 
mtllib cam_collision04 #2255881.mtl

g Cam_Collision04
v 4.921504 -0.000000 1.661404
v 4.921504 17.189993 1.661404
v 25.274902 17.189993 1.661404
v 25.274902 -0.000000 1.661404
v -15.903334 -0.000000 2.337092
v -15.903334 17.189993 2.337092
v -29.713633 17.189993 2.337092
v -29.713633 -0.000000 2.337092
v 25.274902 17.189993 1.661404
v 25.274902 17.189993 -13.154746
v 25.274902 -0.000000 -13.154746
v 25.274902 -0.000000 1.661404
v 4.921504 -0.000000 1.661404
v 0.628457 -0.000000 18.238262
v 0.628457 17.189993 18.238262
v 4.921504 17.189993 1.661404
v -15.903334 -0.000000 2.337092
v -11.890303 -0.000000 -12.219057
v -11.890303 17.189993 -12.219057
v -15.903334 17.189993 2.337092
vt 0.000000 0.000000
vt 0.000000 1.000000
vt 1.000000 1.000000
vt 1.000000 0.000000
vt 0.000000 0.000000
vt 0.000000 1.000000
vt 1.000000 1.000000
vt 1.000000 0.000000
vt 0.000000 0.000000
vt 0.000000 1.000000
vt 1.000000 1.000000
vt 1.000000 0.000000
vt 0.000000 0.000000
vt 0.000000 1.000000
vt 1.000000 1.000000
vt 1.000000 0.000000
vt 0.000000 0.000000
vt 0.000000 1.000000
vt 1.000000 1.000000
vt 1.000000 0.000000
vn 0.000000 0.000000 -1.000000
vn 0.000000 0.000000 -1.000000
vn 0.000000 0.000000 -1.000000
vn 0.000000 0.000000 -1.000000
vn 0.000000 0.000000 1.000000
vn 0.000000 0.000000 1.000000
vn 0.000000 0.000000 1.000000
vn 0.000000 0.000000 1.000000
vn -1.000000 0.000000 0.000000
vn -1.000000 0.000000 0.000000
vn -1.000000 0.000000 0.000000
vn -1.000000 0.000000 0.000000
vn -0.968063 0.000000 -0.250707
vn -0.968063 0.000000 -0.250707
vn -0.968063 0.000000 -0.250707
vn -0.968063 0.000000 -0.250707
vn 0.964034 0.000000 0.265778
vn 0.964034 0.000000 0.265778
vn 0.964034 0.000000 0.265778
vn 0.964034 0.000000 0.265778
usemtl material
f 1/0/1 2/0/2 3/0/3
f 1/0/1 3/0/3 4/0/4
f 5/0/5 6/0/6 7/0/7
f 5/0/5 7/0/7 8/0/8
f 9/0/9 10/0/10 11/0/11
f 9/0/9 11/0/11 12/0/12
f 13/0/13 14/0/14 15/0/15
f 13/0/13 15/0/15 16/0/16
f 17/0/17 18/0/18 19/0/19
f 17/0/17 19/0/19 20/0/20
