# 
# Wavefront OBJ file
# Created with Kaydara FBX
# 
mtllib cam_collision03 #225885.mtl

g Cam_Collision03
v -0.460957 -0.000000 3.383728
v -0.460957 15.212800 3.383728
v 16.669441 15.212800 3.383728
v 16.669441 -0.000000 3.383728
v 16.669441 -0.000000 -8.764707
v 16.669441 15.212800 -8.764707
v -9.127439 15.212800 -8.764707
v -9.127439 0.000000 -8.764707
v -13.586716 0.000000 2.287602
v -13.586716 15.212797 2.287602
v -12.108314 15.212797 3.252476
v -12.108314 0.000000 3.252476
v -9.127439 0.000000 -8.764707
v -9.127439 15.212800 -8.764707
v -9.127439 15.212800 -18.743597
v -9.127439 0.000000 -18.743597
v -13.586716 0.000000 -18.743597
v -13.586716 15.212797 -18.743597
v -13.586716 15.212797 2.287602
v -13.586716 0.000000 2.287602
v -9.127439 0.000000 -18.743597
v -9.127439 15.212800 -18.743597
v -13.586716 15.212797 -18.743597
v -13.586716 0.000000 -18.743597
v -0.423169 -0.000000 14.661983
v -0.423169 15.212800 14.661983
v -0.460957 15.212800 3.383728
v -0.460957 -0.000000 3.383728
v -12.108314 0.000000 3.252476
v -12.108314 15.212797 3.252476
v -12.070526 15.212800 14.661983
v -12.070526 0.000000 14.661983
vt 0.000000 0.000000
vt 0.000000 1.000000
vt 1.000000 1.000000
vt 1.000000 0.000000
vt 0.000000 0.000000
vt 0.000000 1.000000
vt 1.000000 1.000000
vt 1.000000 0.000000
vt 0.000000 0.000000
vt 0.000000 1.000000
vt 1.000000 1.000000
vt 1.000000 0.000000
vt 0.000000 0.000000
vt 0.000000 1.000000
vt 1.000000 1.000000
vt 1.000000 0.000000
vt 0.000000 0.000000
vt 0.000000 1.000000
vt 1.000000 1.000000
vt 1.000000 0.000000
vt 0.000000 0.000000
vt 0.000000 1.000000
vt 1.000000 1.000000
vt 1.000000 0.000000
vt 0.000000 0.000000
vt 0.000000 1.000000
vt 1.000000 1.000000
vt 1.000000 0.000000
vt 0.000000 0.000000
vt 0.000000 1.000000
vt 1.000000 1.000000
vt 1.000000 0.000000
vn 0.000000 0.000000 -1.000000
vn 0.000000 0.000000 -1.000000
vn 0.000000 0.000000 -1.000000
vn 0.000000 0.000000 -1.000000
vn 0.000000 0.000000 1.000000
vn 0.000000 0.000000 1.000000
vn 0.000000 0.000000 1.000000
vn 0.000000 0.000000 1.000000
vn 0.546545 0.000000 -0.837430
vn 0.546545 0.000000 -0.837430
vn 0.546545 0.000000 -0.837430
vn 0.546545 0.000000 -0.837430
vn -1.000000 0.000000 0.000000
vn -1.000000 0.000000 0.000000
vn -1.000000 0.000000 0.000000
vn -1.000000 0.000000 0.000000
vn 1.000000 0.000000 0.000000
vn 1.000000 0.000000 0.000000
vn 1.000000 0.000000 0.000000
vn 1.000000 0.000000 0.000000
vn 0.000000 0.000000 1.000000
vn 0.000000 0.000000 1.000000
vn 0.000000 0.000000 1.000000
vn 0.000000 0.000000 1.000000
vn -0.999994 0.000000 0.003351
vn -0.999994 0.000000 0.003351
vn -0.999994 0.000000 0.003351
vn -0.999994 0.000000 0.003351
vn 0.999995 0.000000 -0.003312
vn 0.999995 0.000000 -0.003312
vn 0.999995 0.000000 -0.003312
vn 0.999995 0.000000 -0.003312
usemtl material
f 1/0/1 2/0/2 3/0/3
f 1/0/1 3/0/3 4/0/4
f 5/0/5 6/0/6 7/0/7
f 5/0/5 7/0/7 8/0/8
f 9/0/9 10/0/10 11/0/11
f 9/0/9 11/0/11 12/0/12
f 13/0/13 14/0/14 15/0/15
f 13/0/13 15/0/15 16/0/16
f 17/0/17 18/0/18 19/0/19
f 17/0/17 19/0/19 20/0/20
f 21/0/21 22/0/22 23/0/23
f 21/0/21 23/0/23 24/0/24
f 25/0/25 26/0/26 27/0/27
f 25/0/25 27/0/27 28/0/28
f 29/0/29 30/0/30 31/0/31
f 29/0/29 31/0/31 32/0/32
