# 
# Wavefront OBJ file
# Created with Kaydara FBX
# 
mtllib cam_collision1_1.mtl

g Cam_Collision1_1
v -5.394824 -0.029653 5.476532
v -5.394824 10.344316 5.476532
v -2.511573 10.344316 8.239515
v -2.511573 -0.029653 8.239515
v -19.220196 -0.029653 5.714890
v -19.220196 10.344316 5.714890
v -5.394824 10.344316 5.476532
v -5.394824 -0.029653 5.476532
v -5.086800 -0.029653 -5.349558
v -5.086800 10.344316 -5.349558
v -21.274424 10.344316 -5.349559
v -21.274424 -0.029653 -5.349559
v 17.367275 -0.029653 -27.614748
v 17.367275 10.344316 -27.614748
v -5.086800 10.344316 -5.349558
v -5.086800 -0.029653 -5.349558
v 4.618172 -0.029653 2.594702
v 4.618172 10.344316 2.594702
v 1.797817 10.344316 -0.320936
v 1.797817 -0.029653 -0.320936
v 1.797817 -0.029653 -0.320936
v 1.797817 10.344316 -0.320936
v 24.025892 10.344316 -22.449060
v 24.025892 -0.029653 -22.449060
vt 1.000000 0.000000
vt 1.000000 1.000000
vt 0.616996 1.000000
vt 0.616996 0.000000
vt 1.000000 0.000000
vt 1.000000 1.000000
vt 0.000000 1.000000
vt 0.000000 0.000000
vt 0.000000 0.000000
vt 0.000000 1.000000
vt 1.000000 1.000000
vt 1.000000 0.000000
vt 0.616996 0.000000
vt 0.616996 1.000000
vt 1.000000 1.000000
vt 1.000000 0.000000
vt 0.616996 0.000000
vt 0.616996 1.000000
vt 1.000000 1.000000
vt 1.000000 0.000000
vt 1.000000 0.000000
vt 1.000000 1.000000
vt 0.616996 1.000000
vt 0.616996 0.000000
vn 0.691888 0.000000 -0.722005
vn 0.691888 0.000000 -0.722005
vn 0.691888 0.000000 -0.722005
vn 0.691888 0.000000 -0.722005
vn -0.017238 0.000000 -0.999851
vn -0.017238 0.000000 -0.999851
vn -0.017238 0.000000 -0.999851
vn -0.017238 0.000000 -0.999851
vn 0.000000 0.000000 1.000000
vn 0.000000 0.000000 1.000000
vn 0.000000 0.000000 1.000000
vn 0.000000 0.000000 1.000000
vn 0.704114 0.000000 0.710087
vn 0.704114 0.000000 0.710087
vn 0.704114 0.000000 0.710087
vn 0.704114 0.000000 0.710087
vn -0.718754 0.000000 0.695265
vn -0.718754 0.000000 0.695265
vn -0.718754 0.000000 0.695265
vn -0.718754 0.000000 0.695265
vn -0.705512 0.000000 -0.708698
vn -0.705512 0.000000 -0.708698
vn -0.705512 0.000000 -0.708698
vn -0.705512 0.000000 -0.708698
usemtl material
f 1/0/1 2/0/2 3/0/3
f 1/0/1 3/0/3 4/0/4
f 5/0/5 6/0/6 7/0/7
f 5/0/5 7/0/7 8/0/8
f 9/0/9 10/0/10 11/0/11
f 9/0/9 11/0/11 12/0/12
f 13/0/13 14/0/14 15/0/15
f 13/0/13 15/0/15 16/0/16
f 17/0/17 18/0/18 19/0/19
f 17/0/17 19/0/19 20/0/20
f 21/0/21 22/0/22 23/0/23
f 21/0/21 23/0/23 24/0/24
