# 
# Wavefront OBJ file
# Created with Kaydara FBX
# 
mtllib cam_collision01 #225376.mtl

g Cam_Collision01
v -10.178930 0.000000 11.155411
v -10.178930 6.316100 11.155411
v 3.142915 6.316100 11.155411
v 3.142915 0.000000 11.155411
v 7.951538 6.316100 -1.359997
v 2.698345 6.316100 -5.851006
v 2.698345 -0.000000 -5.851006
v 7.951538 -0.000000 -1.359997
v 2.698345 6.316100 -5.851006
v -7.711067 6.316100 -5.851006
v -7.711067 -0.000000 -5.851006
v 2.698345 -0.000000 -5.851006
vt 0.610665 0.000000
vt 0.610665 0.250000
vt 0.375000 0.250000
vt 0.375000 0.000000
vt -0.000001 -0.514240
vt 0.000001 0.977185
vt 1.000001 0.977185
vt 0.999999 -0.514240
vt 0.000001 -0.113177
vt -0.000003 1.182536
vt 0.999997 1.182536
vt 1.000001 -0.113177
vn 0.000000 0.000000 -1.000000
vn 0.000000 0.000000 -1.000000
vn 0.000000 0.000000 -1.000000
vn 0.000000 0.000000 -1.000000
vn -0.649813 0.000000 0.760094
vn -0.275628 0.000000 0.961264
vn -0.275628 0.000000 0.961264
vn -0.649813 0.000000 0.760094
vn -0.275628 0.000000 0.961264
vn 0.000000 0.000000 1.000000
vn 0.000000 0.000000 1.000000
vn -0.275628 0.000000 0.961264
usemtl material
f 1/0/1 2/0/2 3/0/3
f 1/0/1 3/0/3 4/0/4
f 5/0/5 6/0/6 7/0/7
f 5/0/5 7/0/7 8/0/8
f 9/0/9 10/0/10 11/0/11
f 9/0/9 11/0/11 12/0/12
