# 
# Wavefront OBJ file
# Created with Kaydara FBX
# 
mtllib cam_collision02 #2279329.mtl

g Cam_Collision02
v 5.732372 0.871064 -21.002144
v 4.900391 0.038614 -21.002144
v 4.900391 0.038614 40.957928
v 5.732372 0.871064 40.957928
v 7.392748 1.255074 -21.002144
v 7.392748 1.255074 40.957928
v 7.392748 1.255074 40.957928
v 9.404782 8.424584 40.957928
v 9.404782 8.424584 -21.002144
v 7.392748 1.255074 -21.002144
v 7.392748 1.255074 40.957928
v 5.732372 0.871064 40.957928
v 5.546439 4.653277 40.957928
v 9.404782 8.424584 40.957928
v 5.732372 0.871064 40.957928
v 1.928636 0.871064 40.957928
v 1.928632 4.480791 40.957932
v 5.546439 4.653277 40.957928
v 4.900391 0.038614 40.957928
v 1.928636 0.038614 40.957928
v 1.928636 0.871064 40.957928
vt 1.000000 0.101044
vt 1.000000 0.000000
vt 0.000000 0.000000
vt 0.000000 0.101044
vt 1.000000 1.000000
vt 0.000000 1.000000
vt 0.000000 0.000000
vt 0.000000 1.000000
vt 1.000000 1.000000
vt 1.000000 0.000000
vt 0.000000 0.000000
vt 0.000000 1.000000
vt 1.000000 1.000000
vt 1.000000 0.000000
vt 0.000000 0.000000
vt 0.000000 1.000000
vt 1.000000 1.000000
vt 1.000000 0.000000
vt 0.000000 1.000000
vt 1.000000 1.000000
vt 1.000000 0.000000
vn -0.438620 0.898672 0.000000
vn -0.707306 0.706908 0.000000
vn -0.707306 0.706908 0.000000
vn -0.438620 0.898672 0.000000
vn -0.225331 0.974282 0.000000
vn -0.225331 0.974282 0.000000
vn -0.962804 0.270199 0.000000
vn -0.962804 0.270199 0.000000
vn -0.962804 0.270199 0.000000
vn -0.962804 0.270199 0.000000
vn -0.000002 0.000000 -1.000000
vn -0.000002 0.000000 -1.000000
vn -0.000002 0.000000 -1.000000
vn -0.000002 0.000000 -1.000000
vn 0.000001 0.000000 -1.000000
vn 0.000001 0.000000 -1.000000
vn 0.000001 0.000000 -1.000000
vn 0.000001 0.000000 -1.000000
vn 0.000000 0.000000 -1.000000
vn 0.000000 0.000000 -1.000000
vn 0.000000 0.000000 -1.000000
usemtl material
f 1/0/1 2/0/2 3/0/3
f 1/0/1 3/0/3 4/0/4
f 5/0/5 1/0/1 4/0/4
f 5/0/5 4/0/4 6/0/6
f 7/0/7 8/0/8 9/0/9
f 7/0/7 9/0/9 10/0/10
f 11/0/11 12/0/12 13/0/13
f 11/0/11 13/0/13 14/0/14
f 15/0/15 16/0/16 17/0/17
f 15/0/15 17/0/17 18/0/18
f 15/0/15 19/0/19 20/0/20
f 15/0/15 20/0/20 21/0/21
