# 
# Wavefront OBJ file
# Created with Kaydara FBX
# 
mtllib cam_collision1_5.mtl

g Cam_Collision1_5
v 17.967447 0.000000 12.309324
v 17.967447 10.373969 12.309324
v -10.668154 10.373969 -17.129637
v -10.668154 0.000000 -17.129637
v -17.797899 0.000000 -11.484824
v -17.797899 10.373969 -11.484824
v 11.192032 10.373969 18.123821
v 11.192032 0.000000 18.123821
vt 0.616996 0.000000
vt 0.616996 1.000000
vt 0.616996 1.000000
vt 0.616996 0.000000
vt 0.616996 0.000000
vt 0.616996 1.000000
vt 0.616996 1.000000
vt 0.616996 0.000000
vn -0.716820 0.000000 0.697258
vn -0.716820 0.000000 0.697258
vn -0.716820 0.000000 0.697258
vn -0.716820 0.000000 0.697258
vn 0.714533 0.000000 -0.699602
vn 0.714533 0.000000 -0.699602
vn 0.714533 0.000000 -0.699602
vn 0.714533 0.000000 -0.699602
usemtl material
f 1/0/1 2/0/2 3/0/3
f 1/0/1 3/0/3 4/0/4
f 5/0/5 6/0/6 7/0/7
f 5/0/5 7/0/7 8/0/8
