# 
# Wavefront OBJ file
# Created with Kaydara FBX
# 
mtllib cannon_b16_in.mtl

g Cannon_B16_In
v -0.659333 0.655022 -0.048402
v -0.670734 0.655022 -0.051539
v -0.689769 1.002731 -0.120955
v -0.610475 1.048025 -0.093325
v -0.682534 0.655022 -0.048402
v -0.689085 0.655022 -0.033187
v -0.765609 1.066101 -0.033187
v -0.747384 1.046209 -0.085889
v -0.652382 0.655023 -0.033187
v -0.659333 0.655022 -0.048402
v -0.610475 1.048025 -0.093325
v -0.586952 1.066101 -0.033187
v -0.670734 0.610152 -0.033187
v -0.670734 0.655022 -0.051539
v -0.659333 0.655022 -0.048402
v -0.670734 0.610152 -0.033187
v -0.682534 0.655022 -0.048402
v -0.670734 0.655022 -0.051539
v -0.670734 0.655022 -0.051539
v -0.682534 0.655022 -0.048402
v -0.747384 1.046209 -0.085889
v -0.689769 1.002731 -0.120955
v -0.747384 1.046209 -0.085889
v -0.765609 1.066101 -0.033187
v -0.668589 1.331824 -0.033187
v -0.610475 1.048025 -0.093325
v -0.668589 1.331824 -0.033187
v -0.586952 1.066101 -0.033187
v -0.689769 1.002731 -0.120955
v -0.668589 1.331824 -0.033187
v -0.610475 1.048025 -0.093325
v -0.747384 1.046209 -0.085889
v -0.668589 1.331824 -0.033187
v -0.689769 1.002731 -0.120955
v -0.652382 0.655023 -0.033187
v -0.670734 0.610152 -0.033187
v -0.659333 0.655022 -0.048402
v -0.670734 0.610152 -0.033187
v -0.689085 0.655022 -0.033187
v -0.682534 0.655022 -0.048402
v -0.659333 0.655022 -0.017972
v -0.610475 1.048025 0.026951
v -0.689769 1.002731 0.054581
v -0.670734 0.655022 -0.014836
v -0.682534 0.655022 -0.017972
v -0.747384 1.046209 0.019515
v -0.765609 1.066101 -0.033187
v -0.689085 0.655022 -0.033187
v -0.652382 0.655023 -0.033187
v -0.586952 1.066101 -0.033187
v -0.610475 1.048025 0.026951
v -0.659333 0.655022 -0.017972
v -0.670734 0.610152 -0.033187
v -0.659333 0.655022 -0.017972
v -0.670734 0.655022 -0.014836
v -0.670734 0.610152 -0.033187
v -0.670734 0.655022 -0.014836
v -0.682534 0.655022 -0.017972
v -0.670734 0.655022 -0.014836
v -0.689769 1.002731 0.054581
v -0.747384 1.046209 0.019515
v -0.682534 0.655022 -0.017972
v -0.747384 1.046209 0.019515
v -0.668589 1.331824 -0.033187
v -0.765609 1.066101 -0.033187
v -0.610475 1.048025 0.026951
v -0.586952 1.066101 -0.033187
v -0.668589 1.331824 -0.033187
v -0.689769 1.002731 0.054581
v -0.610475 1.048025 0.026951
v -0.668589 1.331824 -0.033187
v -0.747384 1.046209 0.019515
v -0.689769 1.002731 0.054581
v -0.668589 1.331824 -0.033187
v -0.652382 0.655023 -0.033187
v -0.659333 0.655022 -0.017972
v -0.670734 0.610152 -0.033187
v -0.670734 0.610152 -0.033187
v -0.682534 0.655022 -0.017972
v -0.689085 0.655022 -0.033187
vt 0.894190 0.952184
vt 0.904708 0.951230
vt 0.905720 0.719467
vt 0.855764 0.690140
vt 0.915537 0.951259
vt 0.930019 0.953980
vt 0.981601 0.677917
vt 0.946969 0.691746
vt 0.879608 0.955945
vt 0.894190 0.952184
vt 0.855764 0.690140
vt 0.815745 0.676788
vt 0.906443 0.994883
vt 0.904708 0.951230
vt 0.894190 0.952184
vt 0.906443 0.994883
vt 0.915537 0.951259
vt 0.904708 0.951230
vt 0.904708 0.951230
vt 0.915537 0.951259
vt 0.946969 0.691746
vt 0.905720 0.719467
vt 0.946969 0.691746
vt 0.981601 0.677917
vt 0.905720 0.507761
vt 0.855764 0.690140
vt 0.905720 0.507761
vt 0.815745 0.676788
vt 0.905720 0.719467
vt 0.905720 0.507761
vt 0.855764 0.690140
vt 0.946969 0.691746
vt 0.905720 0.507761
vt 0.905720 0.719467
vt 0.879608 0.955945
vt 0.906443 0.994883
vt 0.894190 0.952184
vt 0.906443 0.994883
vt 0.930019 0.953980
vt 0.915537 0.951259
vt 0.894190 0.952184
vt 0.855764 0.690140
vt 0.905720 0.719467
vt 0.904708 0.951230
vt 0.915537 0.951259
vt 0.946969 0.691746
vt 0.981601 0.677917
vt 0.930019 0.953980
vt 0.879608 0.955945
vt 0.815745 0.676788
vt 0.855764 0.690140
vt 0.894190 0.952184
vt 0.906443 0.994883
vt 0.894190 0.952184
vt 0.904708 0.951230
vt 0.906443 0.994883
vt 0.904708 0.951230
vt 0.915537 0.951259
vt 0.904708 0.951230
vt 0.905720 0.719467
vt 0.946969 0.691746
vt 0.915537 0.951259
vt 0.946969 0.691746
vt 0.905720 0.507761
vt 0.981601 0.677917
vt 0.855764 0.690140
vt 0.815745 0.676788
vt 0.905720 0.507761
vt 0.905720 0.719467
vt 0.855764 0.690140
vt 0.905720 0.507761
vt 0.946969 0.691746
vt 0.905720 0.719467
vt 0.905720 0.507761
vt 0.879608 0.955945
vt 0.894190 0.952184
vt 0.906443 0.994883
vt 0.906443 0.994883
vt 0.915537 0.951259
vt 0.930019 0.953980
vn 0.386252 -0.155888 -0.909125
vn 0.386252 -0.155888 -0.909125
vn 0.386252 -0.155888 -0.909125
vn 0.386252 -0.155888 -0.909125
vn -0.939971 -0.179210 -0.290410
vn -0.939971 -0.179210 -0.290410
vn -0.939971 -0.179210 -0.290410
vn -0.939971 -0.179210 -0.290410
vn 0.928497 -0.150928 -0.339285
vn 0.928497 -0.150928 -0.339285
vn 0.928497 -0.150928 -0.339285
vn 0.928497 -0.150928 -0.339285
vn 0.246750 -0.366841 -0.896963
vn 0.246750 -0.366841 -0.896963
vn 0.246750 -0.366841 -0.896962
vn -0.238885 -0.367594 -0.898782
vn -0.238885 -0.367594 -0.898782
vn -0.238885 -0.367594 -0.898782
vn -0.558605 -0.180543 -0.809546
vn -0.558605 -0.180543 -0.809546
vn -0.558605 -0.180543 -0.809546
vn -0.558605 -0.180543 -0.809546
vn -0.855234 0.312260 -0.413605
vn -0.855234 0.312260 -0.413605
vn -0.855234 0.312260 -0.413605
vn 0.867716 0.266583 -0.419527
vn 0.867716 0.266583 -0.419527
vn 0.867716 0.266583 -0.419527
vn 0.193610 0.241162 -0.950976
vn 0.193610 0.241162 -0.950976
vn 0.193610 0.241162 -0.950976
vn -0.349443 0.262376 -0.899471
vn -0.349443 0.262376 -0.899471
vn -0.349443 0.262376 -0.899471
vn 0.852507 -0.348664 -0.389442
vn 0.852507 -0.348664 -0.389442
vn 0.852507 -0.348664 -0.389442
vn -0.859815 -0.351650 -0.370216
vn -0.859815 -0.351650 -0.370216
vn -0.859815 -0.351650 -0.370216
vn 0.386252 -0.155889 0.909125
vn 0.386252 -0.155889 0.909125
vn 0.386252 -0.155889 0.909125
vn 0.386252 -0.155889 0.909125
vn -0.939971 -0.179210 0.290410
vn -0.939971 -0.179210 0.290410
vn -0.939971 -0.179210 0.290410
vn -0.939971 -0.179210 0.290410
vn 0.928497 -0.150928 0.339286
vn 0.928497 -0.150928 0.339286
vn 0.928497 -0.150928 0.339286
vn 0.928497 -0.150928 0.339286
vn 0.246750 -0.366844 0.896962
vn 0.246750 -0.366844 0.896962
vn 0.246750 -0.366844 0.896962
vn -0.238885 -0.367594 0.898782
vn -0.238885 -0.367594 0.898782
vn -0.238885 -0.367594 0.898782
vn -0.558605 -0.180542 0.809546
vn -0.558605 -0.180542 0.809546
vn -0.558605 -0.180542 0.809546
vn -0.558605 -0.180542 0.809546
vn -0.855234 0.312260 0.413605
vn -0.855234 0.312260 0.413605
vn -0.855234 0.312260 0.413605
vn 0.867716 0.266583 0.419527
vn 0.867716 0.266583 0.419527
vn 0.867716 0.266583 0.419527
vn 0.193610 0.241162 0.950977
vn 0.193610 0.241162 0.950977
vn 0.193610 0.241162 0.950977
vn -0.349443 0.262376 0.899471
vn -0.349443 0.262376 0.899471
vn -0.349443 0.262376 0.899471
vn 0.852507 -0.348665 0.389441
vn 0.852507 -0.348665 0.389441
vn 0.852507 -0.348665 0.389441
vn -0.859816 -0.351650 0.370214
vn -0.859816 -0.351650 0.370214
vn -0.859816 -0.351650 0.370214
usemtl material
f 1/0/1 2/0/2 3/0/3
f 1/0/1 3/0/3 4/0/4
f 5/0/5 6/0/6 7/0/7
f 5/0/5 7/0/7 8/0/8
f 9/0/9 10/0/10 11/0/11
f 9/0/9 11/0/11 12/0/12
f 13/0/13 14/0/14 15/0/15
f 16/0/16 17/0/17 18/0/18
f 19/0/19 20/0/20 21/0/21
f 19/0/19 21/0/21 22/0/22
f 23/0/23 24/0/24 25/0/25
f 26/0/26 27/0/27 28/0/28
f 29/0/29 30/0/30 31/0/31
f 32/0/32 33/0/33 34/0/34
f 35/0/35 36/0/36 37/0/37
f 38/0/38 39/0/39 40/0/40
f 41/0/41 42/0/42 43/0/43
f 41/0/41 43/0/43 44/0/44
f 45/0/45 46/0/46 47/0/47
f 45/0/45 47/0/47 48/0/48
f 49/0/49 50/0/50 51/0/51
f 49/0/49 51/0/51 52/0/52
f 53/0/53 54/0/54 55/0/55
f 56/0/56 57/0/57 58/0/58
f 59/0/59 60/0/60 61/0/61
f 59/0/59 61/0/61 62/0/62
f 63/0/63 64/0/64 65/0/65
f 66/0/66 67/0/67 68/0/68
f 69/0/69 70/0/70 71/0/71
f 72/0/72 73/0/73 74/0/74
f 75/0/75 76/0/76 77/0/77
f 78/0/78 79/0/79 80/0/80
