# 
# Wavefront OBJ file
# Created with Kaydara FBX
# 
mtllib cannon_b10_in.mtl

g Cannon_B10_In
v -0.586295 1.190810 -0.033196
v -0.586295 0.918010 -0.033196
v -0.595121 0.918010 -0.077567
v -0.595121 1.190810 -0.077567
v -0.620255 0.918010 -0.115183
v -0.620255 1.190810 -0.115183
v -0.620255 0.245029 -0.115183
v -0.595121 0.245029 -0.077567
v -0.586295 0.245029 -0.033196
v -0.595121 0.918010 0.011174
v -0.586295 1.190810 -0.033196
v -0.595121 1.190810 0.011174
v -0.620255 0.918010 0.048790
v -0.620255 1.190810 0.048790
v -0.657871 0.918010 0.073925
v -0.657871 1.190810 0.073925
v -0.702242 0.918010 0.082750
v -0.702242 1.190810 0.082750
v -0.746613 0.918010 0.073925
v -0.746613 1.190810 0.073925
v -0.784229 0.918010 0.048790
v -0.784229 1.190810 0.048790
v -0.809363 0.918010 0.011175
v -0.809363 1.190810 0.011175
v -0.818189 0.918010 -0.033196
v -0.818189 1.190810 -0.033196
v -0.620255 0.245029 0.048790
v -0.595121 0.245029 0.011174
v -0.657871 0.245029 0.073925
v -0.702242 0.245029 0.082750
v -0.746613 0.245029 0.073925
v -0.784229 0.245029 0.048790
v -0.809363 0.245029 0.011175
v -0.818189 0.245029 -0.033196
v -0.809363 0.918010 -0.077567
v -0.809363 1.190810 -0.077567
v -0.784229 1.190810 -0.115183
v -0.784229 0.918010 -0.115183
v -0.746613 1.190810 -0.140317
v -0.746613 0.918010 -0.140317
v -0.702242 1.190810 -0.149143
v -0.702242 0.918010 -0.149143
v -0.657871 1.190810 -0.140317
v -0.657871 0.918010 -0.140317
v -0.620255 1.190810 -0.115183
v -0.657871 0.245029 -0.140317
v -0.620255 0.245029 -0.115183
v -0.809363 0.245029 -0.077567
v -0.809363 0.245029 -0.077567
v -0.784229 0.245029 -0.115183
v -0.746613 0.245029 -0.140317
v -0.702242 0.245029 -0.149143
v -0.818189 1.190810 -0.033196
v -0.631627 1.209416 -0.062446
v -0.702242 1.227058 -0.033196
v -0.625809 1.209416 -0.033196
v -0.648196 1.209416 -0.087243
v -0.672992 1.209416 -0.103812
v -0.702242 1.209416 -0.109630
v -0.731492 1.209416 -0.103812
v -0.756289 1.209416 -0.087243
v -0.772858 1.209416 -0.062446
v -0.778676 1.209416 -0.033196
v -0.631627 1.209416 -0.003947
v -0.702242 1.227058 -0.033196
v -0.648196 1.209416 0.020850
v -0.672992 1.209416 0.037419
v -0.702242 1.209416 0.043237
v -0.731492 1.209416 0.037419
v -0.756289 1.209416 0.020850
v -0.772858 1.209416 -0.003946
v -0.595121 1.190810 -0.077567
v -0.613526 1.233192 -0.069944
v -0.606216 1.233192 -0.033196
v -0.586295 1.190810 -0.033196
v -0.595121 1.190810 0.011174
v -0.613526 1.233192 0.003551
v -0.620255 1.190810 -0.115183
v -0.634342 1.233192 -0.101097
v -0.613526 1.233192 -0.069944
v -0.595121 1.190810 -0.077567
v -0.657871 1.190810 -0.140317
v -0.665495 1.233192 -0.121913
v -0.634342 1.233192 -0.101097
v -0.620255 1.190810 -0.115183
v -0.702242 1.190810 -0.149143
v -0.702242 1.233192 -0.129222
v -0.665495 1.233192 -0.121913
v -0.657871 1.190810 -0.140317
v -0.746613 1.190810 -0.140317
v -0.738990 1.233192 -0.121913
v -0.702242 1.233192 -0.129222
v -0.702242 1.190810 -0.149143
v -0.784229 1.190810 -0.115183
v -0.770143 1.233192 -0.101097
v -0.738990 1.233192 -0.121913
v -0.746613 1.190810 -0.140317
v -0.809363 1.190810 -0.077567
v -0.790958 1.233192 -0.069944
v -0.770143 1.233192 -0.101097
v -0.784229 1.190810 -0.115183
v -0.818189 1.190810 -0.033196
v -0.798268 1.233192 -0.033196
v -0.790958 1.233192 -0.069944
v -0.809363 1.190810 -0.077567
v -0.790958 1.233192 0.003551
v -0.809363 1.190810 0.011175
v -0.613526 1.233192 -0.069944
v -0.626833 1.233192 -0.064432
v -0.620620 1.233192 -0.033196
v -0.606216 1.233192 -0.033196
v -0.613526 1.233192 0.003551
v -0.626833 1.233192 -0.001961
v -0.634342 1.233192 -0.101097
v -0.644527 1.233192 -0.090912
v -0.626833 1.233192 -0.064432
v -0.613526 1.233192 -0.069944
v -0.665495 1.233192 -0.121913
v -0.671007 1.233192 -0.108605
v -0.644527 1.233192 -0.090912
v -0.634342 1.233192 -0.101097
v -0.702242 1.233192 -0.129222
v -0.702242 1.233192 -0.114818
v -0.671007 1.233192 -0.108605
v -0.665495 1.233192 -0.121913
v -0.738990 1.233192 -0.121913
v -0.733478 1.233192 -0.108605
v -0.702242 1.233192 -0.114818
v -0.702242 1.233192 -0.129222
v -0.770143 1.233192 -0.101097
v -0.759958 1.233192 -0.090912
v -0.733478 1.233192 -0.108605
v -0.738990 1.233192 -0.121913
v -0.790958 1.233192 -0.069944
v -0.777651 1.233192 -0.064432
v -0.759958 1.233192 -0.090912
v -0.770143 1.233192 -0.101097
v -0.798268 1.233192 -0.033196
v -0.783864 1.233192 -0.033196
v -0.777651 1.233192 -0.064432
v -0.790958 1.233192 -0.069944
v -0.777651 1.233192 -0.001961
v -0.790958 1.233192 0.003551
v -0.626833 1.233192 -0.064432
v -0.631627 1.209416 -0.062446
v -0.625809 1.209416 -0.033196
v -0.620620 1.233192 -0.033196
v -0.644527 1.233192 -0.090912
v -0.648196 1.209416 -0.087243
v -0.671007 1.233192 -0.108605
v -0.672992 1.209416 -0.103812
v -0.702242 1.233192 -0.114818
v -0.702242 1.209416 -0.109630
v -0.733478 1.233192 -0.108605
v -0.731492 1.209416 -0.103812
v -0.759958 1.233192 -0.090912
v -0.756289 1.209416 -0.087243
v -0.777651 1.233192 -0.064432
v -0.772858 1.209416 -0.062446
v -0.783864 1.233192 -0.033196
v -0.778676 1.209416 -0.033196
v -0.626833 1.233192 -0.001961
v -0.631627 1.209416 -0.003947
v -0.644527 1.233192 0.024519
v -0.648196 1.209416 0.020850
v -0.671007 1.233192 0.042212
v -0.672992 1.209416 0.037419
v -0.702242 1.233192 0.048425
v -0.702242 1.209416 0.043237
v -0.733478 1.233192 0.042212
v -0.731492 1.209416 0.037419
v -0.759958 1.233192 0.024519
v -0.756289 1.209416 0.020850
v -0.777651 1.233192 -0.001961
v -0.772858 1.209416 -0.003946
v -0.620255 1.190810 0.048790
v -0.595121 1.190810 0.011174
v -0.613526 1.233192 0.003551
v -0.634342 1.233192 0.034704
v -0.657871 1.190810 0.073925
v -0.620255 1.190810 0.048790
v -0.634342 1.233192 0.034704
v -0.665495 1.233192 0.055520
v -0.702242 1.190810 0.082750
v -0.657871 1.190810 0.073925
v -0.665495 1.233192 0.055520
v -0.702242 1.233192 0.062829
v -0.746613 1.190810 0.073925
v -0.702242 1.190810 0.082750
v -0.702242 1.233192 0.062829
v -0.738990 1.233192 0.055520
v -0.784229 1.190810 0.048790
v -0.746613 1.190810 0.073925
v -0.738990 1.233192 0.055520
v -0.770143 1.233192 0.034704
v -0.809363 1.190810 0.011175
v -0.784229 1.190810 0.048790
v -0.770143 1.233192 0.034704
v -0.790958 1.233192 0.003551
v -0.634342 1.233192 0.034704
v -0.613526 1.233192 0.003551
v -0.626833 1.233192 -0.001961
v -0.644527 1.233192 0.024519
v -0.665495 1.233192 0.055520
v -0.634342 1.233192 0.034704
v -0.644527 1.233192 0.024519
v -0.671007 1.233192 0.042212
v -0.702242 1.233192 0.062829
v -0.665495 1.233192 0.055520
v -0.671007 1.233192 0.042212
v -0.702242 1.233192 0.048425
v -0.738990 1.233192 0.055520
v -0.702242 1.233192 0.062829
v -0.702242 1.233192 0.048425
v -0.733478 1.233192 0.042212
v -0.770143 1.233192 0.034704
v -0.738990 1.233192 0.055520
v -0.733478 1.233192 0.042212
v -0.759958 1.233192 0.024519
v -0.790958 1.233192 0.003551
v -0.770143 1.233192 0.034704
v -0.759958 1.233192 0.024519
v -0.777651 1.233192 -0.001961
vt 0.793216 0.671291
vt 0.793216 0.832307
vt 0.818391 0.832321
vt 0.818583 0.671291
vt 0.843182 0.832336
vt 0.843182 0.671291
vt 0.843182 0.993380
vt 0.818199 0.993351
vt 0.793216 0.993324
vt 0.818391 0.832321
vt 0.793216 0.671291
vt 0.818583 0.671291
vt 0.843182 0.832336
vt 0.843182 0.671291
vt 0.868193 0.832336
vt 0.868193 0.671291
vt 0.893188 0.832336
vt 0.893188 0.671291
vt 0.918176 0.832336
vt 0.918176 0.671291
vt 0.943160 0.832336
vt 0.943160 0.671291
vt 0.968146 0.832336
vt 0.968146 0.671291
vt 0.993133 0.832336
vt 0.993133 0.671291
vt 0.843182 0.993380
vt 0.818199 0.993351
vt 0.868193 0.993380
vt 0.893188 0.993380
vt 0.918176 0.993380
vt 0.943160 0.993380
vt 0.968146 0.993380
vt 0.993133 0.993380
vt 0.968146 0.832336
vt 0.968146 0.671291
vt 0.943160 0.671291
vt 0.943160 0.832336
vt 0.918176 0.671291
vt 0.918176 0.832336
vt 0.893188 0.671291
vt 0.893188 0.832336
vt 0.868193 0.671291
vt 0.868193 0.832336
vt 0.843182 0.671291
vt 0.868193 0.993380
vt 0.843182 0.993380
vt 0.968146 0.993380
vt 0.968146 0.993380
vt 0.943160 0.993380
vt 0.918176 0.993380
vt 0.893188 0.993380
vt 0.993133 0.671291
vt 0.693372 0.811322
vt 0.718301 0.872494
vt 0.718301 0.805542
vt 0.672359 0.825965
vt 0.658394 0.847367
vt 0.653480 0.872495
vt 0.658378 0.897627
vt 0.672306 0.919079
vt 0.693328 0.933800
vt 0.718301 0.939624
vt 0.693372 0.811322
vt 0.718301 0.872494
vt 0.672359 0.825965
vt 0.658394 0.847367
vt 0.653480 0.872495
vt 0.658378 0.897627
vt 0.672306 0.919079
vt 0.693328 0.933800
vt 0.818583 0.671291
vt 0.818583 0.644136
vt 0.793216 0.644136
vt 0.793216 0.671291
vt 0.818583 0.671291
vt 0.818583 0.644136
vt 0.843182 0.671291
vt 0.843182 0.644136
vt 0.818583 0.644136
vt 0.818583 0.671291
vt 0.868193 0.671291
vt 0.868193 0.644136
vt 0.843182 0.644136
vt 0.843182 0.671291
vt 0.893188 0.671291
vt 0.893188 0.644136
vt 0.868193 0.644136
vt 0.868193 0.671291
vt 0.918176 0.671291
vt 0.918176 0.644136
vt 0.893188 0.644136
vt 0.893188 0.671291
vt 0.943160 0.671291
vt 0.943160 0.644136
vt 0.918176 0.644136
vt 0.918176 0.671291
vt 0.968146 0.671291
vt 0.968146 0.644136
vt 0.943160 0.644136
vt 0.943160 0.671291
vt 0.993133 0.671291
vt 0.993133 0.644136
vt 0.968146 0.644136
vt 0.968146 0.671291
vt 0.968146 0.644136
vt 0.968146 0.671291
vt 0.818583 0.644136
vt 0.818583 0.630431
vt 0.793216 0.630431
vt 0.793216 0.644136
vt 0.818583 0.644136
vt 0.818583 0.630431
vt 0.843182 0.644136
vt 0.843182 0.630431
vt 0.818583 0.630431
vt 0.818583 0.644136
vt 0.868193 0.644136
vt 0.868193 0.630431
vt 0.843182 0.630431
vt 0.843182 0.644136
vt 0.893188 0.644136
vt 0.893188 0.630431
vt 0.868193 0.630431
vt 0.868193 0.644136
vt 0.918176 0.644136
vt 0.918176 0.630431
vt 0.893188 0.630431
vt 0.893188 0.644136
vt 0.943160 0.644136
vt 0.943160 0.630431
vt 0.918176 0.630431
vt 0.918176 0.644136
vt 0.968146 0.644136
vt 0.968146 0.630431
vt 0.943160 0.630431
vt 0.943160 0.644136
vt 0.993133 0.644136
vt 0.993133 0.630431
vt 0.968146 0.630431
vt 0.968146 0.644136
vt 0.968146 0.630431
vt 0.968146 0.644136
vt 0.684498 0.790440
vt 0.693372 0.811322
vt 0.718301 0.805542
vt 0.718301 0.783679
vt 0.656070 0.810035
vt 0.672359 0.825965
vt 0.637255 0.838684
vt 0.658394 0.847367
vt 0.630575 0.872485
vt 0.653480 0.872495
vt 0.637243 0.906257
vt 0.658378 0.897627
vt 0.655947 0.934998
vt 0.672306 0.919079
vt 0.684375 0.954751
vt 0.693328 0.933800
vt 0.718301 0.961624
vt 0.718301 0.939624
vt 0.684498 0.790440
vt 0.693372 0.811322
vt 0.656070 0.810035
vt 0.672359 0.825965
vt 0.637255 0.838684
vt 0.658394 0.847367
vt 0.630575 0.872485
vt 0.653480 0.872495
vt 0.637243 0.906257
vt 0.658378 0.897627
vt 0.655947 0.934998
vt 0.672306 0.919079
vt 0.684375 0.954751
vt 0.693328 0.933800
vt 0.843182 0.671291
vt 0.818583 0.671291
vt 0.818583 0.644136
vt 0.843182 0.644136
vt 0.868193 0.671291
vt 0.843182 0.671291
vt 0.843182 0.644136
vt 0.868193 0.644136
vt 0.893188 0.671291
vt 0.868193 0.671291
vt 0.868193 0.644136
vt 0.893188 0.644136
vt 0.918176 0.671291
vt 0.893188 0.671291
vt 0.893188 0.644136
vt 0.918176 0.644136
vt 0.943160 0.671291
vt 0.918176 0.671291
vt 0.918176 0.644136
vt 0.943160 0.644136
vt 0.968146 0.671291
vt 0.943160 0.671291
vt 0.943160 0.644136
vt 0.968146 0.644136
vt 0.843182 0.644136
vt 0.818583 0.644136
vt 0.818583 0.630431
vt 0.843182 0.630431
vt 0.868193 0.644136
vt 0.843182 0.644136
vt 0.843182 0.630431
vt 0.868193 0.630431
vt 0.893188 0.644136
vt 0.868193 0.644136
vt 0.868193 0.630431
vt 0.893188 0.630431
vt 0.918176 0.644136
vt 0.893188 0.644136
vt 0.893188 0.630431
vt 0.918176 0.630431
vt 0.943160 0.644136
vt 0.918176 0.644136
vt 0.918176 0.630431
vt 0.943160 0.630431
vt 0.968146 0.644136
vt 0.943160 0.644136
vt 0.943160 0.630431
vt 0.968146 0.630431
vn 1.000000 0.000000 0.000000
vn 1.000000 0.000000 0.000000
vn 0.923880 0.000000 -0.382683
vn 0.923879 0.000000 -0.382684
vn 0.707107 0.000000 -0.707106
vn 0.707107 0.000000 -0.707106
vn 0.707107 0.000000 -0.707106
vn 0.923880 0.000000 -0.382683
vn 1.000000 0.000000 0.000000
vn 0.923880 0.000000 0.382683
vn 1.000000 0.000000 0.000000
vn 0.923879 0.000000 0.382684
vn 0.707107 0.000000 0.707106
vn 0.707107 0.000000 0.707106
vn 0.382684 0.000000 0.923879
vn 0.382683 0.000000 0.923880
vn 0.000000 0.000000 1.000000
vn 0.000000 0.000000 1.000000
vn -0.382684 0.000000 0.923879
vn -0.382684 0.000000 0.923879
vn -0.707106 0.000000 0.707107
vn -0.707106 0.000000 0.707107
vn -0.923880 0.000000 0.382683
vn -0.923880 0.000000 0.382683
vn -1.000000 0.000000 0.000000
vn -1.000000 0.000000 0.000000
vn 0.707107 0.000000 0.707106
vn 0.923880 0.000000 0.382683
vn 0.382684 0.000000 0.923879
vn 0.000000 0.000000 1.000000
vn -0.382684 0.000000 0.923879
vn -0.707106 0.000000 0.707107
vn -0.923880 0.000000 0.382683
vn -1.000000 0.000000 0.000000
vn -0.923880 0.000000 -0.382683
vn -0.923880 0.000000 -0.382683
vn -0.707106 0.000000 -0.707107
vn -0.707106 0.000000 -0.707107
vn -0.382684 0.000000 -0.923879
vn -0.382684 0.000000 -0.923879
vn 0.000000 0.000000 -1.000000
vn 0.000000 0.000000 -1.000000
vn 0.382683 0.000000 -0.923880
vn 0.382683 0.000000 -0.923880
vn 0.707107 0.000000 -0.707106
vn 0.382683 0.000000 -0.923880
vn 0.707107 0.000000 -0.707106
vn -0.923880 0.000000 -0.382683
vn -0.923880 0.000000 -0.382683
vn -0.707106 0.000000 -0.707107
vn -0.382684 0.000000 -0.923879
vn 0.000000 0.000000 -1.000000
vn -1.000000 0.000000 0.000000
vn 0.207778 0.974383 -0.086063
vn 0.000000 1.000000 -0.000000
vn 0.224897 0.974383 0.000001
vn 0.159026 0.974383 -0.159026
vn 0.086065 0.974383 -0.207777
vn 0.000000 0.974382 -0.224897
vn -0.086064 0.974382 -0.207779
vn -0.159026 0.974383 -0.159026
vn -0.207778 0.974382 -0.086066
vn -0.224898 0.974382 -0.000001
vn 0.207778 0.974383 0.086065
vn 0.000000 1.000000 -0.000000
vn 0.159026 0.974382 0.159027
vn 0.086065 0.974383 0.207776
vn 0.000000 0.974383 0.224897
vn -0.086064 0.974383 0.207777
vn -0.159026 0.974383 0.159025
vn -0.207778 0.974382 0.086065
vn 0.836121 0.425389 -0.346332
vn 0.836121 0.425389 -0.346332
vn 0.905011 0.425388 0.000000
vn 0.905011 0.425388 0.000000
vn 0.836121 0.425388 0.346333
vn 0.836121 0.425388 0.346333
vn 0.639940 0.425389 -0.639938
vn 0.639940 0.425389 -0.639938
vn 0.836121 0.425389 -0.346332
vn 0.836121 0.425389 -0.346332
vn 0.346333 0.425389 -0.836121
vn 0.346333 0.425389 -0.836121
vn 0.639940 0.425389 -0.639938
vn 0.639940 0.425389 -0.639938
vn 0.000000 0.425388 -0.905011
vn 0.000000 0.425388 -0.905011
vn 0.346333 0.425389 -0.836121
vn 0.346333 0.425389 -0.836121
vn -0.346333 0.425388 -0.836121
vn -0.346334 0.425388 -0.836121
vn 0.000000 0.425388 -0.905011
vn 0.000000 0.425388 -0.905011
vn -0.639940 0.425389 -0.639938
vn -0.639940 0.425389 -0.639938
vn -0.346334 0.425388 -0.836121
vn -0.346333 0.425388 -0.836121
vn -0.836121 0.425390 -0.346332
vn -0.836121 0.425390 -0.346332
vn -0.639940 0.425389 -0.639938
vn -0.639940 0.425389 -0.639938
vn -0.905011 0.425389 -0.000000
vn -0.905011 0.425389 -0.000000
vn -0.836121 0.425390 -0.346332
vn -0.836121 0.425390 -0.346332
vn -0.836120 0.425389 0.346333
vn -0.836121 0.425389 0.346333
vn 0.000000 1.000000 0.000000
vn 0.000000 1.000000 0.000000
vn 0.000000 1.000000 0.000000
vn 0.000000 1.000000 0.000000
vn 0.000000 1.000000 0.000000
vn 0.000000 1.000000 0.000000
vn 0.000000 1.000000 0.000001
vn 0.000000 1.000000 0.000001
vn 0.000000 1.000000 0.000000
vn 0.000000 1.000000 0.000000
vn 0.000000 1.000000 0.000001
vn 0.000000 1.000000 0.000001
vn 0.000000 1.000000 0.000001
vn 0.000000 1.000000 0.000001
vn 0.000000 1.000000 0.000000
vn 0.000000 1.000000 0.000000
vn 0.000000 1.000000 0.000001
vn 0.000000 1.000000 0.000001
vn 0.000000 1.000000 0.000000
vn 0.000000 1.000000 0.000000
vn 0.000000 1.000000 0.000000
vn 0.000000 1.000000 0.000000
vn 0.000000 1.000000 0.000001
vn 0.000000 1.000000 0.000001
vn 0.000000 1.000000 0.000000
vn 0.000000 1.000000 0.000000
vn 0.000000 1.000000 0.000000
vn 0.000000 1.000000 0.000000
vn 0.000000 1.000000 0.000001
vn 0.000000 1.000000 0.000001
vn 0.000000 1.000000 -0.000001
vn 0.000000 1.000000 -0.000001
vn 0.000000 1.000000 0.000000
vn 0.000000 1.000000 0.000000
vn 0.000000 1.000000 -0.000003
vn 0.000000 1.000000 -0.000003
vn -0.902638 0.213198 0.373886
vn -0.902638 0.213198 0.373886
vn -0.977009 0.213198 0.000000
vn -0.977009 0.213198 0.000000
vn -0.690850 0.213197 0.690849
vn -0.690851 0.213197 0.690849
vn -0.373887 0.213198 0.902638
vn -0.373887 0.213198 0.902638
vn 0.000001 0.213199 0.977009
vn -0.000001 0.213199 0.977009
vn 0.373885 0.213198 0.902639
vn 0.373885 0.213198 0.902638
vn 0.690850 0.213197 0.690850
vn 0.690850 0.213197 0.690849
vn 0.902639 0.213198 0.373885
vn 0.902639 0.213198 0.373885
vn 0.977009 0.213198 0.000000
vn 0.977009 0.213198 0.000000
vn -0.902638 0.213198 -0.373887
vn -0.902638 0.213198 -0.373887
vn -0.690850 0.213198 -0.690850
vn -0.690850 0.213198 -0.690849
vn -0.373886 0.213198 -0.902638
vn -0.373887 0.213198 -0.902638
vn 0.000000 0.213199 -0.977009
vn -0.000001 0.213199 -0.977009
vn 0.373885 0.213199 -0.902638
vn 0.373885 0.213199 -0.902638
vn 0.690850 0.213197 -0.690850
vn 0.690850 0.213197 -0.690849
vn 0.902639 0.213197 -0.373885
vn 0.902639 0.213197 -0.373885
vn 0.639940 0.425388 0.639938
vn 0.836121 0.425388 0.346333
vn 0.836121 0.425388 0.346333
vn 0.639940 0.425388 0.639938
vn 0.346333 0.425388 0.836121
vn 0.639940 0.425388 0.639938
vn 0.639940 0.425388 0.639938
vn 0.346333 0.425388 0.836121
vn 0.000000 0.425388 0.905011
vn 0.346333 0.425388 0.836121
vn 0.346333 0.425388 0.836121
vn 0.000000 0.425388 0.905011
vn -0.346333 0.425388 0.836121
vn 0.000000 0.425388 0.905011
vn 0.000000 0.425388 0.905011
vn -0.346333 0.425388 0.836121
vn -0.639939 0.425389 0.639940
vn -0.346333 0.425388 0.836121
vn -0.346333 0.425388 0.836121
vn -0.639939 0.425389 0.639940
vn -0.836121 0.425389 0.346333
vn -0.639939 0.425389 0.639940
vn -0.639939 0.425389 0.639940
vn -0.836120 0.425389 0.346333
vn 0.000000 1.000000 0.000000
vn 0.000000 1.000000 0.000000
vn 0.000000 1.000000 0.000000
vn 0.000000 1.000000 0.000000
vn 0.000000 1.000000 0.000000
vn 0.000000 1.000000 0.000000
vn 0.000000 1.000000 0.000000
vn 0.000000 1.000000 0.000000
vn 0.000000 1.000000 0.000000
vn 0.000000 1.000000 0.000000
vn 0.000000 1.000000 0.000000
vn 0.000000 1.000000 0.000000
vn 0.000000 1.000000 0.000000
vn 0.000000 1.000000 0.000000
vn 0.000000 1.000000 0.000000
vn 0.000000 1.000000 0.000000
vn 0.000000 1.000000 -0.000003
vn 0.000000 1.000000 0.000000
vn 0.000000 1.000000 0.000000
vn 0.000000 1.000000 -0.000003
vn 0.000000 1.000000 -0.000003
vn 0.000000 1.000000 -0.000003
vn 0.000000 1.000000 -0.000003
vn 0.000000 1.000000 -0.000003
usemtl material
f 1/0/1 2/0/2 3/0/3
f 1/0/1 3/0/3 4/0/4
f 4/0/4 3/0/3 5/0/5
f 4/0/4 5/0/5 6/0/6
f 3/0/3 7/0/7 5/0/5
f 3/0/3 8/0/8 7/0/7
f 2/0/2 8/0/8 3/0/3
f 2/0/2 9/0/9 8/0/8
f 10/0/10 9/0/9 2/0/2
f 11/0/11 10/0/10 2/0/2
f 11/0/11 12/0/12 10/0/10
f 12/0/12 13/0/13 10/0/10
f 12/0/12 14/0/14 13/0/13
f 14/0/14 15/0/15 13/0/13
f 14/0/14 16/0/16 15/0/15
f 16/0/16 17/0/17 15/0/15
f 16/0/16 18/0/18 17/0/17
f 18/0/18 19/0/19 17/0/17
f 18/0/18 20/0/20 19/0/19
f 20/0/20 21/0/21 19/0/19
f 20/0/20 22/0/22 21/0/21
f 22/0/22 23/0/23 21/0/21
f 22/0/22 24/0/24 23/0/23
f 24/0/24 25/0/25 23/0/23
f 24/0/24 26/0/26 25/0/25
f 15/0/15 27/0/27 13/0/13
f 13/0/13 27/0/27 28/0/28
f 13/0/13 28/0/28 10/0/10
f 10/0/10 28/0/28 9/0/9
f 15/0/15 29/0/29 27/0/27
f 17/0/17 30/0/30 29/0/29
f 19/0/19 30/0/30 17/0/17
f 17/0/17 29/0/29 15/0/15
f 19/0/19 31/0/31 30/0/30
f 21/0/21 31/0/31 19/0/19
f 21/0/21 32/0/32 31/0/31
f 23/0/23 32/0/32 21/0/21
f 23/0/23 33/0/33 32/0/32
f 25/0/25 33/0/33 23/0/23
f 25/0/25 34/0/34 33/0/33
f 35/0/35 34/0/34 25/0/25
f 36/0/36 35/0/35 25/0/25
f 37/0/37 35/0/35 36/0/36
f 37/0/37 38/0/38 35/0/35
f 39/0/39 38/0/38 37/0/37
f 39/0/39 40/0/40 38/0/38
f 41/0/41 40/0/40 39/0/39
f 41/0/41 42/0/42 40/0/40
f 43/0/43 42/0/42 41/0/41
f 43/0/43 44/0/44 42/0/42
f 45/0/45 44/0/44 43/0/43
f 45/0/45 5/0/5 44/0/44
f 5/0/5 46/0/46 44/0/44
f 5/0/5 47/0/47 46/0/46
f 35/0/35 48/0/48 34/0/34
f 38/0/38 49/0/49 35/0/35
f 38/0/38 50/0/50 49/0/49
f 40/0/40 50/0/50 38/0/38
f 40/0/40 51/0/51 50/0/50
f 42/0/42 51/0/51 40/0/40
f 42/0/42 52/0/52 51/0/51
f 44/0/44 46/0/46 52/0/52
f 44/0/44 52/0/52 42/0/42
f 36/0/36 25/0/25 53/0/53
f 54/0/54 55/0/55 56/0/56
f 57/0/57 55/0/55 54/0/54
f 58/0/58 55/0/55 57/0/57
f 59/0/59 55/0/55 58/0/58
f 60/0/60 55/0/55 59/0/59
f 61/0/61 55/0/55 60/0/60
f 62/0/62 55/0/55 61/0/61
f 63/0/63 55/0/55 62/0/62
f 64/0/64 56/0/56 65/0/65
f 66/0/66 64/0/64 65/0/65
f 67/0/67 66/0/66 65/0/65
f 68/0/68 67/0/67 65/0/65
f 69/0/69 68/0/68 65/0/65
f 70/0/70 69/0/69 65/0/65
f 71/0/71 70/0/70 65/0/65
f 63/0/63 71/0/71 65/0/65
f 72/0/72 73/0/73 74/0/74
f 72/0/72 74/0/74 75/0/75
f 76/0/76 75/0/75 74/0/74
f 76/0/76 74/0/74 77/0/77
f 78/0/78 79/0/79 80/0/80
f 78/0/78 80/0/80 81/0/81
f 82/0/82 83/0/83 84/0/84
f 82/0/82 84/0/84 85/0/85
f 86/0/86 87/0/87 88/0/88
f 86/0/86 88/0/88 89/0/89
f 90/0/90 91/0/91 92/0/92
f 90/0/90 92/0/92 93/0/93
f 94/0/94 95/0/95 96/0/96
f 94/0/94 96/0/96 97/0/97
f 98/0/98 99/0/99 100/0/100
f 98/0/98 100/0/100 101/0/101
f 102/0/102 103/0/103 104/0/104
f 102/0/102 104/0/104 105/0/105
f 102/0/102 106/0/106 103/0/103
f 102/0/102 107/0/107 106/0/106
f 108/0/108 109/0/109 110/0/110
f 108/0/108 110/0/110 111/0/111
f 112/0/112 111/0/111 110/0/110
f 112/0/112 110/0/110 113/0/113
f 114/0/114 115/0/115 116/0/116
f 114/0/114 116/0/116 117/0/117
f 118/0/118 119/0/119 120/0/120
f 118/0/118 120/0/120 121/0/121
f 122/0/122 123/0/123 124/0/124
f 122/0/122 124/0/124 125/0/125
f 126/0/126 127/0/127 128/0/128
f 126/0/126 128/0/128 129/0/129
f 130/0/130 131/0/131 132/0/132
f 130/0/130 132/0/132 133/0/133
f 134/0/134 135/0/135 136/0/136
f 134/0/134 136/0/136 137/0/137
f 138/0/138 139/0/139 140/0/140
f 138/0/138 140/0/140 141/0/141
f 138/0/138 142/0/142 139/0/139
f 138/0/138 143/0/143 142/0/142
f 144/0/144 145/0/145 146/0/146
f 144/0/144 146/0/146 147/0/147
f 148/0/148 145/0/145 144/0/144
f 148/0/148 149/0/149 145/0/145
f 150/0/150 149/0/149 148/0/148
f 150/0/150 151/0/151 149/0/149
f 152/0/152 151/0/151 150/0/150
f 152/0/152 153/0/153 151/0/151
f 154/0/154 153/0/153 152/0/152
f 154/0/154 155/0/155 153/0/153
f 156/0/156 155/0/155 154/0/154
f 156/0/156 157/0/157 155/0/155
f 158/0/158 157/0/157 156/0/156
f 158/0/158 159/0/159 157/0/157
f 160/0/160 159/0/159 158/0/158
f 160/0/160 161/0/161 159/0/159
f 162/0/162 147/0/147 146/0/146
f 162/0/162 146/0/146 163/0/163
f 164/0/164 162/0/162 163/0/163
f 164/0/164 163/0/163 165/0/165
f 166/0/166 164/0/164 165/0/165
f 166/0/166 165/0/165 167/0/167
f 168/0/168 166/0/166 167/0/167
f 168/0/168 167/0/167 169/0/169
f 170/0/170 168/0/168 169/0/169
f 170/0/170 169/0/169 171/0/171
f 172/0/172 170/0/170 171/0/171
f 172/0/172 171/0/171 173/0/173
f 174/0/174 172/0/172 173/0/173
f 174/0/174 173/0/173 175/0/175
f 160/0/160 174/0/174 175/0/175
f 160/0/160 175/0/175 161/0/161
f 176/0/176 177/0/177 178/0/178
f 176/0/176 178/0/178 179/0/179
f 180/0/180 181/0/181 182/0/182
f 180/0/180 182/0/182 183/0/183
f 184/0/184 185/0/185 186/0/186
f 184/0/184 186/0/186 187/0/187
f 188/0/188 189/0/189 190/0/190
f 188/0/188 190/0/190 191/0/191
f 192/0/192 193/0/193 194/0/194
f 192/0/192 194/0/194 195/0/195
f 196/0/196 197/0/197 198/0/198
f 196/0/196 198/0/198 199/0/199
f 200/0/200 201/0/201 202/0/202
f 200/0/200 202/0/202 203/0/203
f 204/0/204 205/0/205 206/0/206
f 204/0/204 206/0/206 207/0/207
f 208/0/208 209/0/209 210/0/210
f 208/0/208 210/0/210 211/0/211
f 212/0/212 213/0/213 214/0/214
f 212/0/212 214/0/214 215/0/215
f 216/0/216 217/0/217 218/0/218
f 216/0/216 218/0/218 219/0/219
f 220/0/220 221/0/221 222/0/222
f 220/0/220 222/0/222 223/0/223
