# 
# Wavefront OBJ file
# Created with Kaydara FBX
# 
mtllib clouds_03.mtl

g Clouds_03
v -12.108084 -3.043915 0.000000
v 12.108086 -3.043915 0.000000
v -12.108084 -0.169808 0.000000
v 12.108086 3.043915 0.000000
v -8.891630 3.043915 0.000000
vt 0.340760 0.472842
vt 0.098598 0.472842
vt 0.340760 0.501583
vt 0.098598 0.533720
vt 0.308595 0.533721
vn 0.000000 0.000000 1.000000
vn 0.000000 0.000000 1.000000
vn 0.000000 0.000000 1.000000
vn 0.000000 0.000000 1.000000
vn 0.000000 0.000000 1.000000
usemtl material
f 1/0/1 2/0/2 3/0/3
f 3/0/3 2/0/2 4/0/4
f 3/0/3 4/0/4 5/0/5
