# 
# Wavefront OBJ file
# Created with Kaydara FBX
# 
mtllib clymor_h7_model_mid.mtl

g Clymor_H7_Model_Mid
v 0.000000 -0.030466 0.603817
v -0.056954 0.000000 0.603816
v -0.075771 0.000000 0.555202
v 0.000000 -0.031861 0.555202
v 0.000000 -0.029039 0.653372
v -0.046927 0.000000 0.653368
v 0.000000 -0.028355 0.706961
v -0.040343 0.000000 0.706952
v 0.000000 -0.021708 1.025411
v -0.028896 0.000000 1.025431
v 0.000000 -0.017953 1.198954
v -0.027111 0.000000 1.197390
v -0.046865 0.000000 0.508480
v 0.000000 -0.033135 0.508498
v -0.040394 0.000000 0.461241
v 0.000000 -0.034636 0.461233
v -0.047723 0.000000 0.395674
v 0.000000 -0.040380 0.395611
v -0.038157 -0.025073 0.311577
v 0.000000 -0.016393 1.251082
v -0.025876 0.000000 1.250783
v 0.000000 -0.012558 1.351112
v -0.020179 0.000000 1.351094
v -0.009047 0.000007 1.417304
v -0.069777 0.000000 0.311634
v -0.059136 -0.024963 0.257366
v -0.043918 -0.034150 0.252224
v -0.049746 -0.047288 0.206742
v 0.000000 -0.059767 0.249808
v 0.000000 -0.066533 0.206742
v -0.079213 -0.034281 0.206742
v -0.064232 -0.024057 0.160015
v -0.078976 -0.011685 0.171221
v -0.086662 0.000000 0.273862
v -0.119746 0.000000 0.240376
v -0.143804 0.000000 0.229951
v -0.143839 -0.018994 0.206742
v -0.092971 0.000000 0.177124
v -0.143861 0.000000 0.184697
v -0.275961 -0.006342 0.206745
v -0.275969 0.000000 0.197654
v -0.275950 0.000000 0.215321
v -0.317560 0.000000 0.206749
v -0.078727 0.000000 0.167894
v -0.081883 0.000000 0.119230
v -0.053121 0.000000 0.153907
v -0.041478 -0.033436 0.177138
v -0.020982 -0.039817 0.164960
v -0.034964 0.000000 0.137635
v -0.023828 0.000000 0.108075
v 0.000000 -0.041072 0.108058
v -0.020178 0.000000 0.041867
v 0.000000 -0.017104 0.041973
v -0.020190 0.000000 -0.237774
v 0.000000 -0.017114 -0.237546
v -0.028843 0.000000 -0.273202
v 0.000000 -0.029318 -0.273258
v -0.042585 0.000000 -0.291278
v 0.000000 -0.044602 -0.291514
v -0.018553 0.000000 -0.364486
v 0.000000 -0.019184 -0.364435
v 0.000000 0.000000 -0.395165
v 0.000000 -0.058209 0.164933
v 0.028843 0.000000 -0.273202
v 0.020190 0.000000 -0.237774
v 0.042585 0.000000 -0.291278
v 0.018553 0.000000 -0.364486
v 0.020982 -0.039817 0.164960
v 0.041478 -0.033436 0.177138
v 0.053121 0.000000 0.153907
v 0.034964 0.000000 0.137635
v 0.023828 0.000000 0.108075
v 0.020178 0.000000 0.041867
v 0.064232 -0.024057 0.160015
v 0.081883 0.000000 0.119230
v 0.078976 -0.011685 0.171221
v 0.079213 -0.034281 0.206742
v 0.049746 -0.047288 0.206742
v 0.059136 -0.024963 0.257366
v 0.043918 -0.034150 0.252224
v 0.038157 -0.025073 0.311577
v 0.086662 0.000000 0.273862
v 0.119746 0.000000 0.240376
v 0.143804 0.000000 0.229951
v 0.143839 -0.018994 0.206742
v 0.092971 0.000000 0.177124
v 0.143861 0.000000 0.184697
v 0.275961 -0.006342 0.206745
v 0.275969 0.000000 0.197654
v 0.275950 0.000000 0.215321
v 0.317560 0.000000 0.206749
v 0.000000 -0.050499 0.311512
v 0.047723 0.000000 0.395674
v 0.040394 0.000000 0.461241
v 0.046865 0.000000 0.508480
v 0.075771 0.000000 0.555202
v 0.056954 0.000000 0.603816
v 0.046927 0.000000 0.653368
v 0.040343 0.000000 0.706952
v 0.028896 0.000000 1.025431
v 0.027111 0.000000 1.197390
v 0.025876 0.000000 1.250783
v 0.020179 0.000000 1.351094
v 0.009047 0.000007 1.417304
v 0.000000 -0.004575 1.417307
v 0.000000 0.012558 1.351112
v 0.000000 0.016393 1.251082
v 0.000000 0.017953 1.198954
v 0.000000 0.021708 1.025411
v 0.000000 0.028355 0.706961
v 0.000000 0.029039 0.653373
v 0.000000 0.030466 0.603817
v 0.000000 0.031861 0.555202
v 0.000000 0.033135 0.508498
v 0.000000 0.034636 0.461233
v 0.000000 0.040380 0.395611
v -0.038157 0.025073 0.311577
v -0.059136 0.024963 0.257366
v -0.043918 0.034150 0.252224
v -0.049746 0.047288 0.206742
v 0.000000 0.059767 0.249808
v 0.000000 0.066533 0.206742
v -0.079213 0.034281 0.206742
v -0.064232 0.024057 0.160015
v -0.078976 0.011685 0.171221
v -0.143839 0.018994 0.206742
v -0.275961 0.006342 0.206745
v -0.041478 0.033436 0.177138
v -0.020982 0.039817 0.164960
v 0.000000 0.041072 0.108058
v 0.000000 0.017104 0.041973
v 0.000000 0.017114 -0.237546
v 0.000000 0.029318 -0.273258
v 0.000000 0.044602 -0.291514
v 0.000000 0.019184 -0.364435
v 0.000000 0.000000 -0.395165
v 0.000000 0.058209 0.164933
v 0.020982 0.039817 0.164960
v 0.041478 0.033436 0.177138
v 0.064232 0.024057 0.160015
v 0.078976 0.011685 0.171221
v 0.079213 0.034281 0.206742
v 0.049746 0.047288 0.206742
v 0.059136 0.024963 0.257366
v 0.043918 0.034150 0.252224
v 0.038157 0.025073 0.311577
v 0.143839 0.018994 0.206742
v 0.275961 0.006342 0.206745
v 0.000000 0.050499 0.311512
v 0.069777 0.000000 0.311634
v -0.081883 0.000000 0.119230
v -0.078727 0.000000 0.167894
v 0.078727 0.000000 0.167894
v 0.081883 0.000000 0.119230
v 0.078727 0.000000 0.167894
v 0.000000 0.000000 1.435874
v 0.000000 0.004506 1.417311
v 0.000000 0.000000 1.435874
vt 0.016727 0.532967
vt 0.050373 0.532966
vt 0.061489 0.506295
vt 0.016727 0.506295
vt 0.016727 0.560154
vt 0.044449 0.560151
vt 0.016727 0.589553
vt 0.040560 0.589549
vt 0.016727 0.764262
vt 0.033797 0.764273
vt 0.016727 0.859472
vt 0.032743 0.858613
vt 0.044413 0.478869
vt 0.016727 0.478879
vt 0.040590 0.451138
vt 0.016727 0.451134
vt 0.044919 0.412648
vt 0.016727 0.412612
vt 0.039269 0.363282
vt 0.016727 0.888070
vt 0.032013 0.887906
vt 0.016727 0.942948
vt 0.029942 0.942938
vt 0.019863 0.979167
vt 0.057948 0.363315
vt 0.052754 0.331825
vt 0.039971 0.327533
vt 0.046115 0.301741
vt 0.016727 0.327022
vt 0.016727 0.301741
vt 0.063522 0.301741
vt 0.054672 0.274311
vt 0.063383 0.280889
vt 0.067923 0.341142
vt 0.087467 0.321485
vt 0.101680 0.315365
vt 0.101701 0.301741
vt 0.071650 0.284355
vt 0.101714 0.288800
vt 0.179752 0.301743
vt 0.179757 0.296406
vt 0.179746 0.306777
vt 0.204327 0.301745
vt 0.069281 0.278936
vt 0.065100 0.250369
vt 0.048108 0.270725
vt 0.041230 0.284362
vt 0.031106 0.277396
vt 0.040687 0.261174
vt 0.035995 0.243821
vt 0.016727 0.243811
vt 0.029650 0.204955
vt 0.016727 0.205017
vt 0.029658 0.114673
vt 0.016727 0.114673
vt 0.033766 0.093832
vt 0.016727 0.093799
vt 0.041884 0.083175
vt 0.016727 0.083175
vt 0.027687 0.040245
vt 0.016727 0.040276
vt 0.016727 0.022236
vt 0.016727 0.277016
vt 0.033766 0.093832
vt 0.029658 0.114673
vt 0.041884 0.083175
vt 0.027687 0.040245
vt 0.031106 0.277396
vt 0.041230 0.284362
vt 0.048108 0.270725
vt 0.040687 0.261174
vt 0.035995 0.243821
vt 0.029650 0.204955
vt 0.054672 0.274311
vt 0.065100 0.250369
vt 0.063383 0.280889
vt 0.063522 0.301741
vt 0.046115 0.301741
vt 0.052754 0.331825
vt 0.039971 0.327533
vt 0.039269 0.363282
vt 0.067923 0.341142
vt 0.087467 0.321485
vt 0.101680 0.315365
vt 0.101701 0.301741
vt 0.071650 0.284355
vt 0.101714 0.288800
vt 0.179752 0.301743
vt 0.179757 0.296406
vt 0.179746 0.306777
vt 0.204327 0.301745
vt 0.016727 0.363244
vt 0.044919 0.412648
vt 0.040590 0.451138
vt 0.044413 0.478869
vt 0.061489 0.506295
vt 0.050373 0.532966
vt 0.044449 0.560151
vt 0.040560 0.589549
vt 0.033797 0.764273
vt 0.032743 0.858613
vt 0.032013 0.887906
vt 0.029942 0.942938
vt 0.019863 0.979167
vt 0.016727 0.979268
vt 0.016727 0.942948
vt 0.016727 0.888070
vt 0.016727 0.859472
vt 0.016727 0.764262
vt 0.016727 0.589553
vt 0.016727 0.560154
vt 0.016727 0.532967
vt 0.016727 0.506295
vt 0.016727 0.478879
vt 0.016727 0.451134
vt 0.016727 0.412612
vt 0.039269 0.363282
vt 0.052754 0.331825
vt 0.039971 0.327533
vt 0.046115 0.301741
vt 0.016727 0.327022
vt 0.016727 0.301741
vt 0.063522 0.301741
vt 0.054672 0.274311
vt 0.063383 0.280889
vt 0.101701 0.301741
vt 0.179752 0.301743
vt 0.041230 0.284362
vt 0.031106 0.277396
vt 0.016727 0.243811
vt 0.016727 0.205017
vt 0.016727 0.114673
vt 0.016727 0.093799
vt 0.016727 0.083175
vt 0.016727 0.040276
vt 0.016727 0.022236
vt 0.016727 0.277016
vt 0.031106 0.277396
vt 0.041230 0.284362
vt 0.054672 0.274311
vt 0.063383 0.280889
vt 0.063522 0.301741
vt 0.046115 0.301741
vt 0.052754 0.331825
vt 0.039971 0.327533
vt 0.039269 0.363282
vt 0.101701 0.301741
vt 0.179752 0.301743
vt 0.016727 0.363244
vt 0.057948 0.363315
vt 0.065100 0.250369
vt 0.069281 0.278936
vt 0.069281 0.278936
vt 0.065100 0.250369
vt 0.069281 0.278936
vt 0.016727 0.989451
vt 0.016727 0.979454
vt 0.016727 0.989451
vn 0.000000 -0.996040 0.088905
vn -0.984391 0.000000 0.175997
vn -0.999735 0.000000 -0.023029
vn 0.000000 -0.999766 -0.021620
vn 0.000000 -0.998211 0.059783
vn -0.995069 0.000000 0.099188
vn 0.000000 -0.999376 0.035332
vn -0.998654 0.000000 0.051858
vn 0.000000 -0.999820 0.018999
vn -0.999647 0.000000 0.026554
vn 0.000000 -0.999827 0.018588
vn -0.999636 0.000000 0.026995
vn -0.986111 0.000000 -0.166085
vn 0.000000 -0.995409 -0.095713
vn -0.999512 0.000000 0.031246
vn 0.000000 -0.999626 0.027348
vn -0.983991 0.000000 0.178218
vn 0.000000 -0.990943 0.134287
vn -0.570200 -0.804896 0.164361
vn 0.000000 -0.999559 0.029680
vn -0.998935 0.000000 0.046148
vn 0.000000 -0.997498 0.070699
vn -0.994027 -0.000024 0.109131
vn -0.950433 0.003019 0.310915
vn -0.944889 0.000000 0.327392
vn -0.490183 -0.827567 0.273595
vn -0.447262 -0.866324 0.222352
vn -0.417761 -0.906211 -0.065245
vn 0.000000 -0.976196 0.216888
vn 0.000000 -0.998424 -0.056112
vn -0.451247 -0.891200 -0.046240
vn -0.080700 -0.802810 -0.590748
vn -0.744827 -0.561886 -0.359885
vn -0.858634 0.000000 0.512590
vn -0.494273 0.000000 0.869307
vn -0.234970 0.000000 0.972003
vn -0.160874 -0.986209 -0.038870
vn -0.520687 0.000000 -0.853747
vn -0.157241 0.000000 -0.987560
vn -0.119444 -0.992833 0.004027
vn -0.153965 0.000000 -0.988076
vn -0.153937 0.000000 0.988081
vn -0.999992 0.000000 0.004116
vn -0.929050 0.000000 -0.369955
vn -0.339921 0.000000 -0.940454
vn 0.167731 0.000000 -0.985833
vn -0.247067 -0.802138 -0.543629
vn -0.603859 -0.708147 -0.365898
vn -0.857894 0.000000 -0.513827
vn -0.969636 0.000000 -0.244552
vn 0.000000 -0.940434 -0.339976
vn -0.997764 0.000000 -0.066838
vn 0.000000 -0.996667 -0.081584
vn -0.993924 0.000000 0.110071
vn 0.000000 -0.994155 0.107958
vn -0.883314 -0.000000 0.468781
vn 0.000000 -0.878146 0.478393
vn -0.988950 0.000000 0.148252
vn 0.000000 -0.989836 0.142212
vn -0.915755 0.000000 -0.401737
vn 0.000000 -0.910733 -0.412996
vn 0.000000 -0.000000 -1.000000
vn 0.000000 -0.971373 -0.237561
vn 0.883314 -0.000000 0.468781
vn 0.993924 0.000000 0.110071
vn 0.988950 0.000000 0.148252
vn 0.915755 0.000000 -0.401737
vn 0.603859 -0.708147 -0.365898
vn 0.247067 -0.802138 -0.543629
vn -0.167731 0.000000 -0.985833
vn 0.857894 0.000000 -0.513827
vn 0.969636 0.000000 -0.244552
vn 0.997764 0.000000 -0.066838
vn 0.080700 -0.802810 -0.590748
vn 0.339921 0.000000 -0.940454
vn 0.744827 -0.561886 -0.359885
vn 0.451247 -0.891200 -0.046240
vn 0.417761 -0.906211 -0.065245
vn 0.490183 -0.827567 0.273595
vn 0.447262 -0.866324 0.222352
vn 0.570200 -0.804896 0.164361
vn 0.858634 0.000000 0.512590
vn 0.494273 0.000000 0.869307
vn 0.234970 0.000000 0.972003
vn 0.160874 -0.986209 -0.038870
vn 0.520687 0.000000 -0.853747
vn 0.157241 0.000000 -0.987560
vn 0.119444 -0.992833 0.004027
vn 0.153965 0.000000 -0.988076
vn 0.153937 0.000000 0.988081
vn 0.999992 0.000000 0.004116
vn 0.000000 -0.988601 0.150557
vn 0.983991 0.000000 0.178218
vn 0.999512 0.000000 0.031246
vn 0.986111 0.000000 -0.166085
vn 0.999735 0.000000 -0.023029
vn 0.984391 0.000000 0.175997
vn 0.995069 0.000000 0.099188
vn 0.998654 0.000000 0.051858
vn 0.999647 0.000000 0.026554
vn 0.999636 0.000000 0.026995
vn 0.998935 0.000000 0.046148
vn 0.994027 -0.000024 0.109131
vn 0.950433 0.003019 0.310916
vn 0.000000 -0.984245 0.176813
vn 0.000000 0.997501 0.070655
vn 0.000000 0.999559 0.029680
vn 0.000000 0.999827 0.018588
vn 0.000000 0.999820 0.018999
vn 0.000000 0.999376 0.035332
vn 0.000000 0.998211 0.059783
vn 0.000000 0.996040 0.088905
vn 0.000000 0.999766 -0.021620
vn 0.000000 0.995409 -0.095713
vn 0.000000 0.999626 0.027348
vn 0.000000 0.990943 0.134287
vn -0.570200 0.804896 0.164361
vn -0.490183 0.827567 0.273595
vn -0.447262 0.866324 0.222352
vn -0.417761 0.906211 -0.065245
vn 0.000000 0.976196 0.216888
vn 0.000000 0.998424 -0.056112
vn -0.451247 0.891200 -0.046240
vn -0.080700 0.802810 -0.590748
vn -0.744827 0.561886 -0.359885
vn -0.160874 0.986209 -0.038870
vn -0.119444 0.992833 0.004027
vn -0.247067 0.802138 -0.543629
vn -0.603859 0.708147 -0.365898
vn 0.000000 0.940434 -0.339976
vn 0.000000 0.996667 -0.081584
vn 0.000000 0.994155 0.107958
vn 0.000000 0.878145 0.478394
vn 0.000000 0.989836 0.142213
vn 0.000000 0.910733 -0.412996
vn 0.000000 -0.000000 -1.000000
vn 0.000000 0.971373 -0.237561
vn 0.603859 0.708147 -0.365898
vn 0.247067 0.802138 -0.543629
vn 0.080700 0.802810 -0.590748
vn 0.744827 0.561886 -0.359885
vn 0.451247 0.891200 -0.046240
vn 0.417761 0.906211 -0.065245
vn 0.490183 0.827567 0.273595
vn 0.447262 0.866324 0.222352
vn 0.570200 0.804896 0.164361
vn 0.160874 0.986209 -0.038870
vn 0.119444 0.992833 0.004027
vn 0.000000 0.988601 0.150557
vn 0.944889 0.000000 0.327392
vn -0.339921 0.000000 -0.940454
vn -0.929050 0.000000 -0.369955
vn 0.929050 0.000000 -0.369955
vn 0.339921 0.000000 -0.940454
vn 0.929050 0.000000 -0.369955
vn 0.000000 0.001070 0.999999
vn 0.000000 0.984426 0.175800
vn 0.000000 0.001070 0.999999
usemtl material
f 1/0/1 2/0/2 3/0/3
f 1/0/1 3/0/3 4/0/4
f 2/0/2 1/0/1 5/0/5
f 2/0/2 5/0/5 6/0/6
f 6/0/6 5/0/5 7/0/7
f 6/0/6 7/0/7 8/0/8
f 8/0/8 7/0/7 9/0/9
f 8/0/8 9/0/9 10/0/10
f 10/0/10 9/0/9 11/0/11
f 10/0/10 11/0/11 12/0/12
f 13/0/13 4/0/4 3/0/3
f 13/0/13 14/0/14 4/0/4
f 14/0/14 13/0/13 15/0/15
f 14/0/14 15/0/15 16/0/16
f 16/0/16 15/0/15 17/0/17
f 16/0/16 17/0/17 18/0/18
f 18/0/18 17/0/17 19/0/19
f 12/0/12 11/0/11 20/0/20
f 12/0/12 20/0/20 21/0/21
f 21/0/21 20/0/20 22/0/22
f 21/0/21 22/0/22 23/0/23
f 23/0/23 22/0/22 24/0/24
f 19/0/19 17/0/17 25/0/25
f 26/0/26 19/0/19 25/0/25
f 27/0/27 19/0/19 26/0/26
f 28/0/28 27/0/27 26/0/26
f 29/0/29 27/0/27 28/0/28
f 29/0/29 28/0/28 30/0/30
f 28/0/28 26/0/26 31/0/31
f 32/0/32 28/0/28 31/0/31
f 32/0/32 31/0/31 33/0/33
f 31/0/31 26/0/26 34/0/34
f 26/0/26 25/0/25 34/0/34
f 31/0/31 34/0/34 35/0/35
f 36/0/36 31/0/31 35/0/35
f 36/0/36 37/0/37 31/0/31
f 37/0/37 38/0/38 31/0/31
f 38/0/38 33/0/33 31/0/31
f 37/0/37 39/0/39 38/0/38
f 39/0/39 37/0/37 40/0/40
f 39/0/39 40/0/40 41/0/41
f 37/0/37 36/0/36 42/0/42
f 37/0/37 42/0/42 40/0/40
f 41/0/41 40/0/40 43/0/43
f 40/0/40 42/0/42 43/0/43
f 44/0/44 33/0/33 38/0/38
f 32/0/32 33/0/33 45/0/45
f 46/0/46 32/0/32 45/0/45
f 46/0/46 47/0/47 32/0/32
f 48/0/48 47/0/47 46/0/46
f 48/0/48 46/0/46 49/0/49
f 50/0/50 48/0/48 49/0/49
f 50/0/50 51/0/51 48/0/48
f 52/0/52 51/0/51 50/0/50
f 52/0/52 53/0/53 51/0/51
f 54/0/54 53/0/53 52/0/52
f 54/0/54 55/0/55 53/0/53
f 56/0/56 55/0/55 54/0/54
f 56/0/56 57/0/57 55/0/55
f 58/0/58 57/0/57 56/0/56
f 58/0/58 59/0/59 57/0/57
f 59/0/59 58/0/58 60/0/60
f 60/0/60 61/0/61 59/0/59
f 61/0/61 60/0/60 62/0/62
f 47/0/47 48/0/48 30/0/30
f 48/0/48 51/0/51 63/0/63
f 48/0/48 63/0/63 30/0/30
f 64/0/64 55/0/55 57/0/57
f 64/0/64 65/0/65 55/0/55
f 65/0/65 53/0/53 55/0/55
f 66/0/66 64/0/64 57/0/57
f 66/0/66 57/0/57 59/0/59
f 59/0/59 67/0/67 66/0/66
f 61/0/61 62/0/62 67/0/67
f 67/0/67 59/0/59 61/0/61
f 68/0/68 30/0/30 63/0/63
f 69/0/69 30/0/30 68/0/68
f 68/0/68 70/0/70 69/0/69
f 68/0/68 71/0/71 70/0/70
f 72/0/72 71/0/71 68/0/68
f 72/0/72 68/0/68 51/0/51
f 68/0/68 63/0/63 51/0/51
f 73/0/73 72/0/72 51/0/51
f 65/0/65 73/0/73 53/0/53
f 73/0/73 51/0/51 53/0/53
f 70/0/70 74/0/74 69/0/69
f 70/0/70 75/0/75 74/0/74
f 74/0/74 75/0/75 76/0/76
f 74/0/74 76/0/76 77/0/77
f 74/0/74 77/0/77 78/0/78
f 74/0/74 78/0/78 69/0/69
f 78/0/78 77/0/77 79/0/79
f 78/0/78 79/0/79 80/0/80
f 29/0/29 78/0/78 80/0/80
f 29/0/29 30/0/30 78/0/78
f 69/0/69 78/0/78 30/0/30
f 80/0/80 79/0/79 81/0/81
f 77/0/77 82/0/82 79/0/79
f 77/0/77 83/0/83 82/0/82
f 84/0/84 83/0/83 77/0/77
f 84/0/84 77/0/77 85/0/85
f 85/0/85 77/0/77 86/0/86
f 86/0/86 77/0/77 76/0/76
f 85/0/85 86/0/86 87/0/87
f 87/0/87 88/0/88 85/0/85
f 87/0/87 89/0/89 88/0/88
f 85/0/85 88/0/88 90/0/90
f 85/0/85 90/0/90 84/0/84
f 89/0/89 91/0/91 88/0/88
f 88/0/88 91/0/91 90/0/90
f 80/0/80 81/0/81 92/0/92
f 80/0/80 92/0/92 29/0/29
f 27/0/27 29/0/29 92/0/92
f 27/0/27 92/0/92 19/0/19
f 18/0/18 19/0/19 92/0/92
f 18/0/18 92/0/92 81/0/81
f 18/0/18 81/0/81 93/0/93
f 16/0/16 18/0/18 93/0/93
f 16/0/16 93/0/93 94/0/94
f 14/0/14 16/0/16 94/0/94
f 14/0/14 94/0/94 95/0/95
f 95/0/95 4/0/4 14/0/14
f 95/0/95 96/0/96 4/0/4
f 1/0/1 4/0/4 96/0/96
f 1/0/1 96/0/96 97/0/97
f 97/0/97 5/0/5 1/0/1
f 97/0/97 98/0/98 5/0/5
f 98/0/98 7/0/7 5/0/5
f 98/0/98 99/0/99 7/0/7
f 99/0/99 9/0/9 7/0/7
f 99/0/99 100/0/100 9/0/9
f 100/0/100 11/0/11 9/0/9
f 100/0/100 101/0/101 11/0/11
f 101/0/101 20/0/20 11/0/11
f 101/0/101 102/0/102 20/0/20
f 102/0/102 22/0/22 20/0/20
f 102/0/102 103/0/103 22/0/22
f 103/0/103 104/0/104 22/0/22
f 22/0/22 104/0/104 105/0/105
f 24/0/24 22/0/22 105/0/105
f 103/0/103 106/0/106 104/0/104
f 102/0/102 106/0/106 103/0/103
f 23/0/23 24/0/24 106/0/106
f 21/0/21 23/0/23 106/0/106
f 21/0/21 106/0/106 107/0/107
f 102/0/102 107/0/107 106/0/106
f 101/0/101 107/0/107 102/0/102
f 12/0/12 21/0/21 107/0/107
f 12/0/12 107/0/107 108/0/108
f 100/0/100 108/0/108 101/0/101
f 101/0/101 108/0/108 107/0/107
f 10/0/10 12/0/12 108/0/108
f 10/0/10 108/0/108 109/0/109
f 8/0/8 10/0/10 109/0/109
f 8/0/8 109/0/109 110/0/110
f 6/0/6 8/0/8 110/0/110
f 6/0/6 110/0/110 111/0/111
f 2/0/2 6/0/6 111/0/111
f 2/0/2 111/0/111 112/0/112
f 112/0/112 3/0/3 2/0/2
f 112/0/112 113/0/113 3/0/3
f 13/0/13 3/0/3 113/0/113
f 13/0/13 113/0/113 114/0/114
f 114/0/114 15/0/15 13/0/13
f 114/0/114 115/0/115 15/0/15
f 115/0/115 17/0/17 15/0/15
f 115/0/115 116/0/116 17/0/17
f 116/0/116 117/0/117 17/0/17
f 117/0/117 25/0/25 17/0/17
f 118/0/118 25/0/25 117/0/117
f 119/0/119 118/0/118 117/0/117
f 120/0/120 118/0/118 119/0/119
f 121/0/121 120/0/120 119/0/119
f 121/0/121 122/0/122 120/0/120
f 120/0/120 123/0/123 118/0/118
f 124/0/124 123/0/123 120/0/120
f 124/0/124 125/0/125 123/0/123
f 123/0/123 34/0/34 118/0/118
f 118/0/118 34/0/34 25/0/25
f 123/0/123 35/0/35 34/0/34
f 36/0/36 35/0/35 123/0/123
f 36/0/36 123/0/123 126/0/126
f 126/0/126 123/0/123 38/0/38
f 38/0/38 123/0/123 125/0/125
f 126/0/126 38/0/38 39/0/39
f 39/0/39 127/0/127 126/0/126
f 39/0/39 41/0/41 127/0/127
f 126/0/126 127/0/127 42/0/42
f 126/0/126 42/0/42 36/0/36
f 41/0/41 43/0/43 127/0/127
f 127/0/127 43/0/43 42/0/42
f 44/0/44 38/0/38 125/0/125
f 124/0/124 45/0/45 125/0/125
f 46/0/46 45/0/45 124/0/124
f 46/0/46 124/0/124 128/0/128
f 129/0/129 46/0/46 128/0/128
f 129/0/129 49/0/49 46/0/46
f 50/0/50 49/0/49 129/0/129
f 50/0/50 129/0/129 130/0/130
f 52/0/52 50/0/50 130/0/130
f 52/0/52 130/0/130 131/0/131
f 54/0/54 52/0/52 131/0/131
f 54/0/54 131/0/131 132/0/132
f 56/0/56 54/0/54 132/0/132
f 56/0/56 132/0/132 133/0/133
f 58/0/58 56/0/56 133/0/133
f 58/0/58 133/0/133 134/0/134
f 134/0/134 60/0/60 58/0/58
f 60/0/60 134/0/134 135/0/135
f 135/0/135 136/0/136 60/0/60
f 128/0/128 122/0/122 129/0/129
f 129/0/129 137/0/137 130/0/130
f 129/0/129 122/0/122 137/0/137
f 64/0/64 133/0/133 132/0/132
f 64/0/64 132/0/132 65/0/65
f 65/0/65 132/0/132 131/0/131
f 66/0/66 134/0/134 133/0/133
f 66/0/66 133/0/133 64/0/64
f 134/0/134 66/0/66 67/0/67
f 135/0/135 67/0/67 136/0/136
f 67/0/67 135/0/135 134/0/134
f 138/0/138 137/0/137 122/0/122
f 139/0/139 138/0/138 122/0/122
f 138/0/138 139/0/139 70/0/70
f 138/0/138 70/0/70 71/0/71
f 72/0/72 138/0/138 71/0/71
f 72/0/72 130/0/130 138/0/138
f 138/0/138 130/0/130 137/0/137
f 73/0/73 130/0/130 72/0/72
f 65/0/65 131/0/131 73/0/73
f 73/0/73 131/0/131 130/0/130
f 70/0/70 139/0/139 140/0/140
f 70/0/70 140/0/140 75/0/75
f 140/0/140 141/0/141 75/0/75
f 140/0/140 142/0/142 141/0/141
f 140/0/140 143/0/143 142/0/142
f 140/0/140 139/0/139 143/0/143
f 143/0/143 144/0/144 142/0/142
f 143/0/143 145/0/145 144/0/144
f 121/0/121 145/0/145 143/0/143
f 121/0/121 143/0/143 122/0/122
f 139/0/139 122/0/122 143/0/143
f 145/0/145 146/0/146 144/0/144
f 142/0/142 144/0/144 82/0/82
f 142/0/142 82/0/82 83/0/83
f 84/0/84 142/0/142 83/0/83
f 84/0/84 147/0/147 142/0/142
f 147/0/147 86/0/86 142/0/142
f 86/0/86 141/0/141 142/0/142
f 147/0/147 87/0/87 86/0/86
f 87/0/87 147/0/147 148/0/148
f 87/0/87 148/0/148 89/0/89
f 147/0/147 84/0/84 90/0/90
f 147/0/147 90/0/90 148/0/148
f 89/0/89 148/0/148 91/0/91
f 148/0/148 90/0/90 91/0/91
f 145/0/145 121/0/121 149/0/149
f 145/0/145 149/0/149 146/0/146
f 119/0/119 149/0/149 121/0/121
f 119/0/119 117/0/117 149/0/149
f 116/0/116 149/0/149 117/0/117
f 116/0/116 146/0/146 149/0/149
f 116/0/116 93/0/93 146/0/146
f 115/0/115 93/0/93 116/0/116
f 115/0/115 94/0/94 93/0/93
f 114/0/114 94/0/94 115/0/115
f 114/0/114 95/0/95 94/0/94
f 95/0/95 114/0/114 113/0/113
f 95/0/95 113/0/113 96/0/96
f 112/0/112 96/0/96 113/0/113
f 112/0/112 97/0/97 96/0/96
f 97/0/97 112/0/112 111/0/111
f 97/0/97 111/0/111 98/0/98
f 98/0/98 111/0/111 110/0/110
f 98/0/98 110/0/110 99/0/99
f 99/0/99 110/0/110 109/0/109
f 99/0/99 109/0/109 100/0/100
f 100/0/100 109/0/109 108/0/108
f 81/0/81 150/0/150 93/0/93
f 79/0/79 150/0/150 81/0/81
f 79/0/79 82/0/82 150/0/150
f 144/0/144 150/0/150 82/0/82
f 144/0/144 146/0/146 150/0/150
f 146/0/146 93/0/93 150/0/150
f 151/0/151 33/0/33 152/0/152
f 151/0/151 152/0/152 125/0/125
f 32/0/32 47/0/47 28/0/28
f 47/0/47 30/0/30 28/0/28
f 153/0/153 86/0/86 76/0/76
f 153/0/153 141/0/141 86/0/86
f 154/0/154 155/0/155 76/0/76
f 154/0/154 141/0/141 155/0/155
f 24/0/24 156/0/156 157/0/157
f 104/0/104 157/0/157 156/0/156
f 24/0/24 157/0/157 106/0/106
f 157/0/157 104/0/104 106/0/106
f 24/0/24 105/0/105 158/0/158
f 105/0/105 104/0/104 158/0/158
f 124/0/124 120/0/120 128/0/128
f 128/0/128 120/0/120 122/0/122
