# 
# Wavefront OBJ file
# Created with Kaydara FBX
# 
mtllib collision02a.mtl

g Collision02a
v -5.425142 0.000000 9.445713
v -9.482814 0.000000 7.305027
v -9.482814 5.961712 7.305017
v -5.425142 5.961712 9.445703
v -9.482814 5.961712 -7.427776
v -9.482814 0.000000 -7.427766
v 9.482816 0.000000 9.445713
v 9.482816 5.961712 9.445703
v 9.482816 0.000000 -7.427766
v 9.482816 5.961712 -7.427776
v 6.860776 5.961712 -9.428555
v -6.860775 5.961712 -9.428555
v -6.860775 0.000000 -9.428550
v 6.860776 0.000000 -9.428550
v 9.482816 0.000000 -7.427766
v 9.482816 5.961712 -7.427776
v -9.482814 5.961712 -7.427776
v -9.482814 0.000000 -7.427766
v 6.860776 0.000000 -9.428550
v -6.860775 0.000000 -9.428550
v -9.482814 0.000000 -7.427766
v 9.482816 0.000000 -7.427766
v -9.482814 0.000000 7.305027
v -5.425142 0.000000 9.445713
v 9.482816 0.000000 9.445713
vt 0.571513 0.000000
vt 0.625000 0.000000
vt 0.625000 0.250000
vt 0.574854 0.250000
vt 0.812204 0.250000
vt 0.812204 0.000000
vt 0.375000 0.000000
vt 0.375000 0.250000
vt 0.187796 0.000000
vt 0.187796 0.250000
vt 0.437494 0.500000
vt 0.562506 0.500000
vt 0.562506 0.750000
vt 0.437494 0.750000
vt 0.375000 0.750000
vt 0.375000 0.500000
vt 0.625000 0.500000
vt 0.625000 0.750000
vt 0.437494 0.750000
vt 0.562506 0.750000
vt 0.625000 0.812796
vt 0.375000 0.812796
vt 0.625000 1.000000
vt 0.571513 1.000000
vt 0.375000 1.000000
vn 0.112160 -0.000002 -0.993690
vn 0.972282 -0.000000 -0.233811
vn 0.972282 -0.000000 -0.233810
vn 0.112160 -0.000002 -0.993690
vn 0.987945 0.000000 0.154805
vn 0.987945 0.000000 0.154804
vn -0.749406 -0.000001 -0.662111
vn -0.749406 -0.000001 -0.662110
vn -0.990488 0.000000 0.137600
vn -0.990488 0.000000 0.137600
vn -0.121513 0.000001 0.992590
vn 0.121513 0.000001 0.992590
vn 0.121513 0.000001 0.992590
vn -0.121513 0.000001 0.992590
vn -0.990488 0.000000 0.137600
vn -0.990488 0.000000 0.137600
vn 0.987945 0.000000 0.154805
vn 0.987945 0.000000 0.154804
vn 0.000000 1.000000 0.000000
vn 0.000000 1.000000 0.000000
vn 0.000000 1.000000 0.000000
vn 0.000000 1.000000 0.000000
vn 0.000000 1.000000 0.000000
vn 0.000000 1.000000 0.000000
vn 0.000000 1.000000 0.000000
usemtl material
f 1/0/1 2/0/2 3/0/3
f 1/0/1 3/0/3 4/0/4
f 2/0/2 5/0/5 3/0/3
f 2/0/2 6/0/6 5/0/5
f 7/0/7 1/0/1 4/0/4
f 7/0/7 4/0/4 8/0/8
f 9/0/9 7/0/7 8/0/8
f 9/0/9 8/0/8 10/0/10
f 11/0/11 12/0/12 13/0/13
f 11/0/11 13/0/13 14/0/14
f 11/0/11 14/0/14 15/0/15
f 11/0/11 15/0/15 16/0/16
f 17/0/17 13/0/13 12/0/12
f 17/0/17 18/0/18 13/0/13
f 19/0/19 20/0/20 21/0/21
f 19/0/19 21/0/21 22/0/22
f 21/0/21 23/0/23 22/0/22
f 23/0/23 24/0/24 22/0/22
f 24/0/24 25/0/25 22/0/22
