# 
# Wavefront OBJ file
# Created with Kaydara FBX
# 
mtllib collision03c.mtl

g Collision03c
v 11.086147 0.000000 0.642382
v 7.898041 -0.000000 3.689727
v 7.898041 6.361464 3.689727
v 11.086147 6.361464 0.642382
v 11.145840 0.000000 -4.336950
v 11.145840 6.361464 -4.336950
v 4.805457 6.361464 4.431548
v 4.805457 -0.000000 4.431548
v -0.280565 6.361464 6.285606
v -0.280565 -0.000000 6.285606
v -7.852381 6.361464 5.259687
v -7.852381 -0.000000 5.259687
v -9.393855 6.361464 2.506631
v -9.393855 -0.000000 2.506631
v -17.883030 6.361464 1.297334
v -17.883030 0.000000 1.297334
v -20.235020 6.361464 -2.931661
v -20.235020 0.000000 -2.931661
v -19.190355 6.361464 -6.654555
v -20.235020 6.361464 -2.931661
v -20.235020 0.000000 -2.931661
v -19.190355 0.000000 -6.654555
v -15.997917 6.361464 -5.990224
v -15.997917 0.000000 -5.990224
v -8.741621 6.361464 -5.044140
v -8.741621 0.000000 -5.044140
v -4.683814 6.361464 -5.694472
v -4.683814 0.000000 -5.694472
v -0.931138 6.361464 -4.589131
v -0.931138 0.000000 -4.589131
v 2.832280 6.361464 -5.399229
v 2.832280 0.000000 -5.399229
v 7.519851 6.361464 -8.079460
v 7.519851 0.000000 -8.079460
v 11.145840 6.361464 -4.336950
v 11.145840 0.000000 -4.336950
v 7.519851 0.000000 -8.079460
v 11.086147 0.000000 0.642382
v 11.145840 0.000000 -4.336950
v 11.086147 0.000000 0.642382
v 7.519851 0.000000 -8.079460
v 2.832280 0.000000 -5.399229
v 7.898041 -0.000000 3.689727
v -0.931138 0.000000 -4.589131
v 4.805457 -0.000000 4.431548
v 7.898041 -0.000000 3.689727
v 2.832280 0.000000 -5.399229
v 4.805457 -0.000000 4.431548
v -0.931138 0.000000 -4.589131
v -4.683814 0.000000 -5.694472
v -0.280565 -0.000000 6.285606
v -8.741621 0.000000 -5.044140
v -7.852381 -0.000000 5.259687
v -0.280565 -0.000000 6.285606
v -4.683814 0.000000 -5.694472
v -7.852381 -0.000000 5.259687
v -8.741621 0.000000 -5.044140
v -9.393855 -0.000000 2.506631
v -15.997917 0.000000 -5.990224
v -17.883030 0.000000 1.297334
v -9.393855 -0.000000 2.506631
v -8.741621 0.000000 -5.044140
v -19.190355 0.000000 -6.654555
v -20.235020 0.000000 -2.931661
v -17.883030 0.000000 1.297334
v -15.997917 0.000000 -5.990224
vt 0.375000 0.000000
vt 0.404282 0.000000
vt 0.404282 0.250000
vt 0.375000 0.250000
vt 0.125000 0.000000
vt 0.125000 0.250000
vt 0.443027 0.250000
vt 0.443027 0.000000
vt 0.484655 0.250000
vt 0.484655 0.000000
vt 0.521927 0.250000
vt 0.521927 0.000000
vt 0.551749 0.250000
vt 0.551749 0.000000
vt 0.625000 0.250000
vt 0.625000 0.000000
vt 0.875000 0.250000
vt 0.875000 0.000000
vt 0.606225 0.500000
vt 0.625000 0.500000
vt 0.625000 0.750000
vt 0.606225 0.750000
vt 0.586547 0.500000
vt 0.586547 0.750000
vt 0.529379 0.500000
vt 0.529379 0.750000
vt 0.497757 0.500000
vt 0.497757 0.750000
vt 0.466403 0.500000
vt 0.466403 0.750000
vt 0.437418 0.500000
vt 0.437418 0.750000
vt 0.402480 0.500000
vt 0.402480 0.750000
vt 0.375000 0.500000
vt 0.375000 0.750000
vt 0.000000 0.000000
vt 1.000000 0.401080
vt 0.595840 0.000000
vt 0.342433 0.000000
vt 0.000000 0.870766
vt 0.520382 1.000000
vt 0.780369 0.000000
vt 0.000000 0.000000
vt 0.370029 1.000000
vt 0.687153 0.992577
vt 0.383969 0.000000
vt 0.000000 0.000000
vt 0.180210 0.817939
vt 0.426781 1.000000
vt 0.424129 0.000000
vt 0.060077 0.000000
vt 0.000000 0.823469
vt 0.583914 1.000000
vt 0.388164 0.000000
vt 0.000000 0.000000
vt 1.000000 0.451781
vt 0.334775 0.000000
vt 0.108126 0.000000
vt 0.000000 0.871224
vt 1.000000 0.883075
vt 0.961576 0.000000
vt 0.035150 0.000000
vt 0.000000 0.513068
vt 0.420845 1.000000
vt 0.468842 0.000000
vn -0.926991 0.000000 -0.375084
vn -0.516574 0.000000 -0.856242
vn -0.516574 0.000000 -0.856242
vn -0.926991 0.000000 -0.375084
vn -0.925611 0.000000 0.378476
vn -0.925611 0.000000 0.378476
vn -0.302526 0.000000 -0.953141
vn -0.302526 0.000000 -0.953141
vn -0.065285 0.000000 -0.997867
vn -0.065285 0.000000 -0.997867
vn 0.383041 0.000000 -0.923732
vn 0.383041 0.000000 -0.923732
vn 0.367398 0.000000 -0.930064
vn 0.367398 0.000000 -0.930064
vn 0.448381 0.000000 -0.893842
vn 0.448381 0.000000 -0.893842
vn 0.986754 0.000000 -0.162227
vn 0.986754 0.000000 -0.162227
vn 0.585294 0.000000 0.810821
vn 0.986754 0.000000 -0.162227
vn 0.986754 0.000000 -0.162227
vn 0.585294 0.000000 0.810821
vn -0.152327 0.000000 0.988330
vn -0.152327 0.000000 0.988330
vn -0.026131 0.000000 0.999659
vn -0.026131 0.000000 0.999659
vn -0.058158 0.000000 0.998307
vn -0.058158 0.000000 0.998307
vn -0.039251 0.000000 0.999229
vn -0.039251 0.000000 0.999229
vn 0.381732 0.000000 0.924273
vn 0.381732 0.000000 0.924273
vn -0.126746 0.000000 0.991935
vn -0.126746 0.000000 0.991935
vn -0.925611 0.000000 0.378476
vn -0.925611 0.000000 0.378476
vn 0.000000 1.000000 0.000000
vn 0.000000 1.000000 0.000000
vn 0.000000 1.000000 0.000000
vn 0.000000 1.000000 0.000000
vn 0.000000 1.000000 0.000000
vn 0.000000 1.000000 0.000000
vn 0.000000 1.000000 0.000000
vn 0.000000 1.000000 0.000000
vn 0.000000 1.000000 0.000000
vn 0.000000 1.000000 0.000000
vn 0.000000 1.000000 0.000000
vn 0.000000 1.000000 0.000000
vn 0.000000 1.000000 0.000000
vn 0.000000 1.000000 0.000000
vn 0.000000 1.000000 0.000000
vn 0.000000 1.000000 0.000000
vn 0.000000 1.000000 0.000000
vn 0.000000 1.000000 0.000000
vn 0.000000 1.000000 0.000000
vn 0.000000 1.000000 0.000000
vn 0.000000 1.000000 0.000000
vn 0.000000 1.000000 0.000000
vn 0.000000 1.000000 0.000000
vn 0.000000 1.000000 0.000000
vn 0.000000 1.000000 0.000000
vn 0.000000 1.000000 0.000000
vn 0.000000 1.000000 0.000000
vn 0.000000 1.000000 0.000000
vn 0.000000 1.000000 0.000000
vn 0.000000 1.000000 0.000000
usemtl material
f 1/0/1 2/0/2 3/0/3
f 1/0/1 3/0/3 4/0/4
f 5/0/5 1/0/1 4/0/4
f 5/0/5 4/0/4 6/0/6
f 2/0/2 7/0/7 3/0/3
f 2/0/2 8/0/8 7/0/7
f 8/0/8 9/0/9 7/0/7
f 8/0/8 10/0/10 9/0/9
f 10/0/10 11/0/11 9/0/9
f 10/0/10 12/0/12 11/0/11
f 12/0/12 13/0/13 11/0/11
f 12/0/12 14/0/14 13/0/13
f 14/0/14 15/0/15 13/0/13
f 14/0/14 16/0/16 15/0/15
f 16/0/16 17/0/17 15/0/15
f 16/0/16 18/0/18 17/0/17
f 19/0/19 20/0/20 21/0/21
f 19/0/19 21/0/21 22/0/22
f 23/0/23 19/0/19 22/0/22
f 23/0/23 22/0/22 24/0/24
f 25/0/25 23/0/23 24/0/24
f 25/0/25 24/0/24 26/0/26
f 27/0/27 25/0/25 26/0/26
f 27/0/27 26/0/26 28/0/28
f 29/0/29 27/0/27 28/0/28
f 29/0/29 28/0/28 30/0/30
f 31/0/31 29/0/29 30/0/30
f 31/0/31 30/0/30 32/0/32
f 33/0/33 31/0/31 32/0/32
f 33/0/33 32/0/32 34/0/34
f 35/0/35 33/0/33 34/0/34
f 35/0/35 34/0/34 36/0/36
f 37/0/37 38/0/38 39/0/39
f 40/0/40 41/0/41 42/0/42
f 40/0/40 42/0/42 43/0/43
f 44/0/44 45/0/45 46/0/46
f 44/0/44 46/0/46 47/0/47
f 48/0/48 49/0/49 50/0/50
f 48/0/48 50/0/50 51/0/51
f 52/0/52 53/0/53 54/0/54
f 52/0/52 54/0/54 55/0/55
f 56/0/56 57/0/57 58/0/58
f 59/0/59 60/0/60 61/0/61
f 59/0/59 61/0/61 62/0/62
f 63/0/63 64/0/64 65/0/65
f 63/0/63 65/0/65 66/0/66
