# 
# Wavefront OBJ file
# Created with Kaydara FBX
# 
mtllib collision01 #225274.mtl

g Collision01
v 15.871746 0.000000 14.398168
v 20.322197 -0.000000 9.107999
v 9.855825 0.000000 15.787036
v 21.378902 -0.000000 5.012013
v 21.552877 0.000000 -0.002293
v 21.086655 0.000000 -4.210215
v 19.021278 0.000000 -8.565119
v 15.058131 0.000000 -12.954592
v 8.817136 0.000000 -16.463278
v 5.320003 0.000000 16.749699
v 0.000856 0.000000 -18.159113
v 0.000856 0.000000 17.210266
v -9.670815 0.000000 -17.012815
v -4.852683 -0.000000 17.013077
v -9.670815 -0.000000 16.031279
v -14.873118 0.000000 -14.234268
v -19.342485 0.000000 -9.667686
v -20.637665 0.000000 -4.975393
v -21.143957 0.000000 -0.002293
v -15.266293 -0.000000 13.650515
v -20.594126 -0.000000 4.778635
v -18.651379 -0.000000 9.663102
v -9.670815 0.000000 -17.012815
v -9.670815 14.893028 -17.012815
v -14.873118 14.893028 -14.234268
v -14.873118 0.000000 -14.234268
v -14.873118 0.000000 -14.234268
v -14.873118 14.893028 -14.234268
v -19.342485 14.893028 -9.667686
v -19.342485 0.000000 -9.667686
v -19.342485 0.000000 -9.667686
v -19.342485 14.893028 -9.667686
v -20.637665 14.893028 -4.975393
v -20.637665 0.000000 -4.975393
v -20.637665 0.000000 -4.975393
v -20.637665 14.893028 -4.975393
v -21.143957 14.893028 -0.002293
v -21.143957 0.000000 -0.002293
v -21.143957 0.000000 -0.002293
v -21.143957 14.893028 -0.002293
v -20.594126 14.893028 4.778635
v -20.594126 -0.000000 4.778635
v -20.594126 -0.000000 4.778635
v -20.594126 14.893028 4.778635
v -18.651379 14.893028 9.663102
v -18.651379 -0.000000 9.663102
v -18.651379 -0.000000 9.663102
v -18.651379 14.893028 9.663102
v -15.266293 14.893028 13.650515
v -15.266293 -0.000000 13.650515
v -15.266293 -0.000000 13.650515
v -15.266293 14.893028 13.650515
v -9.670815 14.893028 16.031279
v -9.670815 -0.000000 16.031279
v -9.670815 -0.000000 16.031279
v -9.670815 14.893028 16.031279
v -4.852683 14.893028 17.013077
v -4.852683 -0.000000 17.013077
v -4.852683 -0.000000 17.013077
v -4.852683 14.893028 17.013077
v 0.000856 14.893028 17.210266
v 0.000856 0.000000 17.210266
v 0.000856 0.000000 17.210266
v 0.000856 14.893028 17.210266
v 5.320003 14.893028 16.749699
v 5.320003 0.000000 16.749699
v 5.320003 0.000000 16.749699
v 5.320003 14.893028 16.749699
v 9.855825 14.893028 15.787036
v 9.855825 0.000000 15.787036
v 9.855825 0.000000 15.787036
v 9.855825 14.893028 15.787036
v 15.871746 14.893028 14.398168
v 15.871746 0.000000 14.398168
v 15.871746 0.000000 14.398168
v 15.871746 14.893028 14.398168
v 20.322197 14.893028 9.107999
v 20.322197 -0.000000 9.107999
v 20.322197 -0.000000 9.107999
v 20.322197 14.893028 9.107999
v 21.378902 14.893028 5.012013
v 21.378902 -0.000000 5.012013
v 21.378902 -0.000000 5.012013
v 21.378902 14.893028 5.012013
v 21.552877 14.893028 -0.002293
v 21.552877 0.000000 -0.002293
v 21.552877 0.000000 -0.002293
v 21.552877 14.893028 -0.002293
v 21.086655 14.893028 -4.210215
v 21.086655 0.000000 -4.210215
v 21.086655 0.000000 -4.210215
v 21.086655 14.893028 -4.210215
v 19.021278 14.893028 -8.565119
v 19.021278 0.000000 -8.565119
v 19.021278 0.000000 -8.565119
v 19.021278 14.893028 -8.565119
v 15.058131 14.893028 -12.954592
v 15.058131 0.000000 -12.954592
v 15.058131 0.000000 -12.954592
v 15.058131 14.893028 -12.954592
v 8.817136 14.893028 -16.463278
v 8.817136 0.000000 -16.463278
v 8.817136 0.000000 -16.463278
v 8.817136 14.893028 -16.463278
v 0.000856 14.893028 -18.159113
v 0.000856 0.000000 -18.159113
v 0.000856 0.000000 -18.159113
v 0.000856 14.893028 -18.159113
v -9.670815 14.893028 -17.012815
v -9.670815 0.000000 -17.012815
vt -0.542365 -0.403386
vt -0.978354 0.112068
vt 0.043119 -0.544298
vt -1.081927 0.512421
vt -1.100529 1.002353
vt -1.054552 1.414436
vt -0.852049 1.840257
vt -0.464356 2.269120
vt 0.145045 2.614507
vt 0.487377 -0.637155
vt 1.008160 2.780782
vt 1.008094 -0.682841
vt 1.955113 2.668621
vt 1.483265 -0.662890
vt 1.955120 -0.568190
vt 2.463143 2.394801
vt 2.901949 1.949517
vt 3.027441 1.489628
vt 3.077380 1.002442
vt 2.501316 -0.332579
vt 3.023351 0.534054
vt 2.833288 0.056133
vt 0.000000 0.000000
vt 0.000000 1.000000
vt 1.000000 1.000000
vt 1.000000 0.000000
vt 0.000000 0.000000
vt 0.000000 1.000000
vt 1.000000 1.000000
vt 1.000000 0.000000
vt 0.000000 0.000000
vt 0.000000 1.000000
vt 1.000000 1.000000
vt 1.000000 0.000000
vt 0.000000 0.000000
vt 0.000000 1.000000
vt 1.000000 1.000000
vt 1.000000 0.000000
vt 0.000000 0.000000
vt 0.000000 1.000000
vt 1.000000 1.000000
vt 1.000000 0.000000
vt 0.000000 0.000000
vt 0.000000 1.000000
vt 1.000000 1.000000
vt 1.000000 0.000000
vt 0.000000 0.000000
vt 0.000000 1.000000
vt 1.000000 1.000000
vt 1.000000 0.000000
vt 0.000000 0.000000
vt 0.000000 1.000000
vt 1.000000 1.000000
vt 1.000000 0.000000
vt 0.000000 0.000000
vt 0.000000 1.000000
vt 1.000000 1.000000
vt 1.000000 0.000000
vt 0.000000 0.000000
vt 0.000000 1.000000
vt 1.000000 1.000000
vt 1.000000 0.000000
vt 0.000000 0.000000
vt 0.000000 1.000000
vt 1.000000 1.000000
vt 1.000000 0.000000
vt 0.000000 0.000000
vt 0.000000 1.000000
vt 1.000000 1.000000
vt 1.000000 0.000000
vt 0.000000 0.000000
vt 0.000000 1.000000
vt 1.000000 1.000000
vt 1.000000 0.000000
vt 0.000000 0.000000
vt 0.000000 1.000000
vt 1.000000 1.000000
vt 1.000000 0.000000
vt 0.000000 0.000000
vt 0.000000 1.000000
vt 1.000000 1.000000
vt 1.000000 0.000000
vt 0.000000 0.000000
vt 0.000000 1.000000
vt 1.000000 1.000000
vt 1.000000 0.000000
vt 0.000000 0.000000
vt 0.000000 1.000000
vt 1.000000 1.000000
vt 1.000000 0.000000
vt 0.000000 0.000000
vt 0.000000 1.000000
vt 1.000000 1.000000
vt 1.000000 0.000000
vt 0.000000 0.000000
vt 0.000000 1.000000
vt 1.000000 1.000000
vt 1.000000 0.000000
vt 0.000000 0.000000
vt 0.000000 1.000000
vt 1.000000 1.000000
vt 1.000000 0.000000
vt 0.000000 0.000000
vt 0.000000 1.000000
vt 1.000000 1.000000
vt 1.000000 0.000000
vt 0.000000 0.000000
vt 0.000000 1.000000
vt 1.000000 1.000000
vt 1.000000 0.000000
vn 0.000000 1.000000 0.000000
vn 0.000000 1.000000 0.000000
vn 0.000000 1.000000 0.000000
vn 0.000000 1.000000 0.000000
vn 0.000000 1.000000 0.000000
vn 0.000000 1.000000 0.000000
vn 0.000000 1.000000 0.000000
vn 0.000000 1.000000 0.000000
vn 0.000000 1.000000 0.000000
vn 0.000000 1.000000 0.000000
vn 0.000000 1.000000 0.000000
vn 0.000000 1.000000 0.000000
vn 0.000000 1.000000 0.000000
vn 0.000000 1.000000 0.000000
vn 0.000000 1.000000 0.000000
vn 0.000000 1.000000 0.000000
vn 0.000000 1.000000 0.000000
vn 0.000000 1.000000 0.000000
vn 0.000000 1.000000 0.000000
vn 0.000000 1.000000 0.000000
vn 0.000000 1.000000 0.000000
vn 0.000000 1.000000 0.000000
vn 0.255140 0.000000 0.966904
vn 0.255140 0.000000 0.966904
vn 0.604805 0.000000 0.796374
vn 0.604805 0.000000 0.796374
vn 0.604805 0.000000 0.796374
vn 0.604805 0.000000 0.796374
vn 0.848914 0.000000 0.528531
vn 0.848914 0.000000 0.528531
vn 0.848914 0.000000 0.528531
vn 0.848914 0.000000 0.528531
vn 0.983070 0.000000 0.183228
vn 0.983070 0.000000 0.183228
vn 0.983070 0.000000 0.183228
vn 0.983070 0.000000 0.183228
vn 0.999990 0.000000 -0.004464
vn 0.999990 0.000000 -0.004464
vn 0.999990 0.000000 -0.004464
vn 0.999990 0.000000 -0.004464
vn 0.968319 0.000000 -0.249717
vn 0.968319 0.000000 -0.249717
vn 0.968319 0.000000 -0.249717
vn 0.968319 0.000000 -0.249717
vn 0.857292 0.000000 -0.514830
vn 0.857292 0.000000 -0.514830
vn 0.857292 0.000000 -0.514830
vn 0.857292 0.000000 -0.514830
vn 0.578437 0.000000 -0.815727
vn 0.578437 0.000000 -0.815727
vn 0.578437 0.000000 -0.815727
vn 0.578437 0.000000 -0.815727
vn 0.307279 0.000000 -0.951620
vn 0.307279 0.000000 -0.951620
vn 0.307279 0.000000 -0.951620
vn 0.307279 0.000000 -0.951620
vn 0.121006 0.000000 -0.992652
vn 0.121006 0.000000 -0.992652
vn 0.121006 0.000000 -0.992652
vn 0.121006 0.000000 -0.992652
vn -0.025882 0.000000 -0.999665
vn -0.025882 0.000000 -0.999665
vn -0.025882 0.000000 -0.999665
vn -0.025882 0.000000 -0.999665
vn -0.142935 0.000000 -0.989732
vn -0.142935 0.000000 -0.989732
vn -0.142935 0.000000 -0.989732
vn -0.142935 0.000000 -0.989732
vn -0.217521 0.000000 -0.976056
vn -0.217521 0.000000 -0.976056
vn -0.217521 0.000000 -0.976056
vn -0.217521 0.000000 -0.976056
vn -0.537942 0.000000 -0.842982
vn -0.537942 0.000000 -0.842982
vn -0.537942 0.000000 -0.842982
vn -0.537942 0.000000 -0.842982
vn -0.862500 0.000000 -0.506057
vn -0.862500 0.000000 -0.506057
vn -0.862500 0.000000 -0.506057
vn -0.862500 0.000000 -0.506057
vn -0.990999 0.000000 -0.133871
vn -0.990999 0.000000 -0.133871
vn -0.990999 0.000000 -0.133871
vn -0.990999 0.000000 -0.133871
vn -0.999498 0.000000 0.031674
vn -0.999498 0.000000 0.031674
vn -0.999498 0.000000 0.031674
vn -0.999498 0.000000 0.031674
vn -0.958967 0.000000 0.283519
vn -0.958967 0.000000 0.283519
vn -0.958967 0.000000 0.283519
vn -0.958967 0.000000 0.283519
vn -0.823304 0.000000 0.567600
vn -0.823304 0.000000 0.567600
vn -0.823304 0.000000 0.567600
vn -0.823304 0.000000 0.567600
vn -0.612085 0.000000 0.790792
vn -0.612085 0.000000 0.790792
vn -0.612085 0.000000 0.790792
vn -0.612085 0.000000 0.790792
vn -0.326684 0.000000 0.945134
vn -0.326684 0.000000 0.945134
vn -0.326684 0.000000 0.945134
vn -0.326684 0.000000 0.945134
vn -0.029711 0.000000 0.999559
vn -0.029711 0.000000 0.999559
vn -0.029711 0.000000 0.999559
vn -0.029711 0.000000 0.999559
vn 0.255140 0.000000 0.966904
vn 0.255140 0.000000 0.966904
usemtl material
f 1/0/1 2/0/2 3/0/3
f 2/0/2 4/0/4 3/0/3
f 4/0/4 5/0/5 3/0/3
f 5/0/5 6/0/6 3/0/3
f 6/0/6 7/0/7 3/0/3
f 7/0/7 8/0/8 3/0/3
f 8/0/8 9/0/9 3/0/3
f 3/0/3 9/0/9 10/0/10
f 9/0/9 11/0/11 10/0/10
f 10/0/10 11/0/11 12/0/12
f 11/0/11 13/0/13 12/0/12
f 12/0/12 13/0/13 14/0/14
f 14/0/14 13/0/13 15/0/15
f 13/0/13 16/0/16 15/0/15
f 16/0/16 17/0/17 15/0/15
f 17/0/17 18/0/18 15/0/15
f 18/0/18 19/0/19 15/0/15
f 15/0/15 19/0/19 20/0/20
f 19/0/19 21/0/21 20/0/20
f 20/0/20 21/0/21 22/0/22
f 23/0/23 24/0/24 25/0/25
f 23/0/23 25/0/25 26/0/26
f 27/0/27 28/0/28 29/0/29
f 27/0/27 29/0/29 30/0/30
f 31/0/31 32/0/32 33/0/33
f 31/0/31 33/0/33 34/0/34
f 35/0/35 36/0/36 37/0/37
f 35/0/35 37/0/37 38/0/38
f 39/0/39 40/0/40 41/0/41
f 39/0/39 41/0/41 42/0/42
f 43/0/43 44/0/44 45/0/45
f 43/0/43 45/0/45 46/0/46
f 47/0/47 48/0/48 49/0/49
f 47/0/47 49/0/49 50/0/50
f 51/0/51 52/0/52 53/0/53
f 51/0/51 53/0/53 54/0/54
f 55/0/55 56/0/56 57/0/57
f 55/0/55 57/0/57 58/0/58
f 59/0/59 60/0/60 61/0/61
f 59/0/59 61/0/61 62/0/62
f 63/0/63 64/0/64 65/0/65
f 63/0/63 65/0/65 66/0/66
f 67/0/67 68/0/68 69/0/69
f 67/0/67 69/0/69 70/0/70
f 71/0/71 72/0/72 73/0/73
f 71/0/71 73/0/73 74/0/74
f 75/0/75 76/0/76 77/0/77
f 75/0/75 77/0/77 78/0/78
f 79/0/79 80/0/80 81/0/81
f 79/0/79 81/0/81 82/0/82
f 83/0/83 84/0/84 85/0/85
f 83/0/83 85/0/85 86/0/86
f 87/0/87 88/0/88 89/0/89
f 87/0/87 89/0/89 90/0/90
f 91/0/91 92/0/92 93/0/93
f 91/0/91 93/0/93 94/0/94
f 95/0/95 96/0/96 97/0/97
f 95/0/95 97/0/97 98/0/98
f 99/0/99 100/0/100 101/0/101
f 99/0/99 101/0/101 102/0/102
f 103/0/103 104/0/104 105/0/105
f 103/0/103 105/0/105 106/0/106
f 107/0/107 108/0/108 109/0/109
f 107/0/107 109/0/109 110/0/110
