# 
# Wavefront OBJ file
# Created with Kaydara FBX
# 
mtllib collision05a.mtl

g Collision05a
v -12.229845 -0.000001 -3.973715
v -10.403326 -0.000001 -7.558459
v -10.403326 8.550179 -7.558459
v -12.229845 8.550179 -3.973715
v -7.558459 8.550179 -10.403326
v -7.558459 -0.000001 -10.403326
v -3.973715 8.550179 -12.229841
v -3.973715 -0.000001 -12.229841
v 0.000000 8.550179 -12.859215
v 0.000000 -0.000001 -12.859215
v 3.973715 8.550179 -12.229838
v 3.973715 -0.000001 -12.229838
v 7.558459 8.550179 -10.403322
v 7.558459 -0.000001 -10.403322
v 10.403320 8.550179 -7.558455
v 10.403320 -0.000001 -7.558455
v 12.229838 8.550179 -3.973715
v 12.229838 -0.000001 -3.973715
v 12.859215 8.550179 -0.000000
v 12.859215 -0.000001 -0.000000
v 12.229838 8.550179 3.973715
v 12.229838 -0.000001 3.973715
v 10.403320 8.550179 7.558455
v 10.403320 -0.000001 7.558455
v 7.558453 8.550179 10.403321
v 7.558453 -0.000001 10.403321
v 3.973715 8.550179 12.229837
v 3.973715 -0.000001 12.229837
v 0.000000 8.550179 12.859210
v 0.000000 -0.000001 12.859210
v -3.973715 8.550179 12.229836
v -3.973715 -0.000001 12.229836
v -7.558453 8.550179 10.403320
v -7.558453 -0.000001 10.403320
v -10.403320 8.550179 7.558453
v -10.403320 -0.000001 7.558453
v -12.229833 8.550179 3.973715
v -12.229833 -0.000001 3.973715
v -12.859202 8.550179 -0.000000
v -12.859202 -0.000001 -0.000000
v -12.229845 8.550179 -3.973715
v -12.229845 -0.000001 -3.973715
v -12.229845 -0.000001 -3.973715
v -0.000002 -0.000001 1.377128
v -10.403326 -0.000001 -7.558459
v -10.403326 -0.000001 -7.558459
v -7.558459 -0.000001 -10.403326
v -7.558459 -0.000001 -10.403326
v -3.973715 -0.000001 -12.229841
v -3.973715 -0.000001 -12.229841
v 0.000000 -0.000001 -12.859215
v 0.000000 -0.000001 -12.859215
v 3.973715 -0.000001 -12.229838
v 3.973715 -0.000001 -12.229838
v 7.558459 -0.000001 -10.403322
v 7.558459 -0.000001 -10.403322
v 10.403320 -0.000001 -7.558455
v 10.403320 -0.000001 -7.558455
v 12.229838 -0.000001 -3.973715
v 12.229838 -0.000001 -3.973715
v 12.859215 -0.000001 -0.000000
v 12.859215 -0.000001 -0.000000
v 12.229838 -0.000001 3.973715
v 12.229838 -0.000001 3.973715
v 10.403320 -0.000001 7.558455
v 10.403320 -0.000001 7.558455
v 7.558453 -0.000001 10.403321
v 7.558453 -0.000001 10.403321
v 3.973715 -0.000001 12.229837
v 3.973715 -0.000001 12.229837
v 0.000000 -0.000001 12.859210
v 0.000000 -0.000001 12.859210
v -3.973715 -0.000001 12.229836
v -3.973715 -0.000001 12.229836
v -7.558453 -0.000001 10.403320
v -7.558453 -0.000001 10.403320
v -10.403320 -0.000001 7.558453
v -10.403320 -0.000001 7.558453
v -12.229833 -0.000001 3.973715
v -12.229833 -0.000001 3.973715
v -12.859202 -0.000001 -0.000000
v -12.859202 -0.000001 -0.000000
v -12.229845 -0.000001 -3.973715
vt 0.375000 0.312500
vt 0.387500 0.312500
vt 0.387500 0.688440
vt 0.375000 0.688440
vt 0.400000 0.688440
vt 0.400000 0.312500
vt 0.412500 0.688440
vt 0.412500 0.312500
vt 0.425000 0.688440
vt 0.425000 0.312500
vt 0.437500 0.688440
vt 0.437500 0.312500
vt 0.450000 0.688440
vt 0.450000 0.312500
vt 0.462500 0.688440
vt 0.462500 0.312500
vt 0.475000 0.688440
vt 0.475000 0.312500
vt 0.487500 0.688440
vt 0.487500 0.312500
vt 0.500000 0.688440
vt 0.500000 0.312500
vt 0.512500 0.688440
vt 0.512500 0.312500
vt 0.525000 0.688440
vt 0.525000 0.312500
vt 0.537500 0.688440
vt 0.537500 0.312500
vt 0.550000 0.688440
vt 0.550000 0.312500
vt 0.562500 0.688440
vt 0.562500 0.312500
vt 0.575000 0.688440
vt 0.575000 0.312500
vt 0.587500 0.688440
vt 0.587500 0.312500
vt 0.600000 0.688440
vt 0.600000 0.312500
vt 0.612500 0.688440
vt 0.612500 0.312500
vt 0.625000 0.688440
vt 0.625000 0.312500
vt 0.000000 0.000000
vt 0.500000 1.000000
vt 1.000000 0.000000
vt 0.000000 0.000000
vt 1.000000 0.000000
vt 0.000000 0.000000
vt 1.000000 0.000000
vt 0.000000 0.000000
vt 1.000000 0.000000
vt 0.000000 0.000000
vt 1.000000 0.000000
vt 0.000000 0.000000
vt 1.000000 0.000000
vt 0.000000 0.000000
vt 1.000000 0.000000
vt 0.000000 0.000000
vt 1.000000 0.000000
vt 0.000000 0.000000
vt 1.000000 0.000000
vt 0.000000 0.000000
vt 1.000000 0.000000
vt 0.000000 0.000000
vt 1.000000 0.000000
vt 0.000000 0.000000
vt 1.000000 0.000000
vt 0.000000 0.000000
vt 1.000000 0.000000
vt 0.000000 0.000000
vt 1.000000 0.000000
vt 0.000000 0.000000
vt 1.000000 0.000000
vt 0.000000 0.000000
vt 1.000000 0.000000
vt 0.000000 0.000000
vt 1.000000 0.000000
vt 0.000000 0.000000
vt 1.000000 0.000000
vt 0.000000 0.000000
vt 1.000000 0.000000
vt 0.000000 0.000000
vt 1.000000 0.000000
vn 0.951057 0.000000 0.309015
vn 0.809017 0.000000 0.587785
vn 0.809017 0.000000 0.587785
vn 0.951057 0.000000 0.309015
vn 0.587785 0.000000 0.809017
vn 0.587785 0.000000 0.809017
vn 0.309017 0.000000 0.951057
vn 0.309017 0.000000 0.951057
vn -0.000000 0.000000 1.000000
vn -0.000000 0.000000 1.000000
vn -0.309017 0.000000 0.951056
vn -0.309017 0.000000 0.951056
vn -0.587785 0.000000 0.809017
vn -0.587785 0.000000 0.809017
vn -0.809017 0.000000 0.587785
vn -0.809017 0.000000 0.587785
vn -0.951056 0.000000 0.309017
vn -0.951056 0.000000 0.309017
vn -1.000000 0.000000 0.000000
vn -1.000000 0.000000 0.000000
vn -0.951056 0.000000 -0.309017
vn -0.951056 0.000000 -0.309017
vn -0.809017 0.000000 -0.587786
vn -0.809017 0.000000 -0.587786
vn -0.587785 0.000000 -0.809017
vn -0.587785 0.000000 -0.809017
vn -0.309017 0.000000 -0.951057
vn -0.309017 0.000000 -0.951057
vn 0.000000 0.000000 -1.000000
vn 0.000000 0.000000 -1.000000
vn 0.309017 0.000000 -0.951057
vn 0.309017 0.000000 -0.951057
vn 0.587785 0.000000 -0.809017
vn 0.587785 0.000000 -0.809017
vn 0.809017 0.000000 -0.587785
vn 0.809017 0.000000 -0.587785
vn 0.951057 0.000000 -0.309016
vn 0.951057 0.000000 -0.309016
vn 1.000000 0.000000 -0.000002
vn 1.000000 0.000000 -0.000002
vn 0.951057 0.000000 0.309015
vn 0.951057 0.000000 0.309015
vn 0.000000 1.000000 0.000000
vn 0.000000 1.000000 0.000000
vn 0.000000 1.000000 0.000000
vn 0.000000 1.000000 0.000000
vn 0.000000 1.000000 0.000000
vn 0.000000 1.000000 0.000000
vn 0.000000 1.000000 0.000000
vn 0.000000 1.000000 0.000000
vn 0.000000 1.000000 0.000000
vn 0.000000 1.000000 0.000000
vn 0.000000 1.000000 0.000000
vn 0.000000 1.000000 0.000000
vn 0.000000 1.000000 0.000000
vn 0.000000 1.000000 0.000000
vn 0.000000 1.000000 0.000000
vn 0.000000 1.000000 0.000000
vn 0.000000 1.000000 0.000000
vn 0.000000 1.000000 0.000000
vn 0.000000 1.000000 0.000000
vn 0.000000 1.000000 0.000000
vn 0.000000 1.000000 0.000000
vn 0.000000 1.000000 0.000000
vn 0.000000 1.000000 0.000000
vn 0.000000 1.000000 0.000000
vn 0.000000 1.000000 0.000000
vn 0.000000 1.000000 0.000000
vn 0.000000 1.000000 0.000000
vn 0.000000 1.000000 0.000000
vn 0.000000 1.000000 0.000000
vn 0.000000 1.000000 0.000000
vn 0.000000 1.000000 0.000000
vn 0.000000 1.000000 0.000000
vn 0.000000 1.000000 0.000000
vn 0.000000 1.000000 0.000000
vn 0.000000 1.000000 0.000000
vn 0.000000 1.000000 0.000000
vn 0.000000 1.000000 0.000000
vn 0.000000 1.000000 0.000000
vn 0.000000 1.000000 0.000000
vn 0.000000 1.000000 0.000000
vn 0.000000 1.000000 0.000000
usemtl material
f 1/0/1 2/0/2 3/0/3
f 1/0/1 3/0/3 4/0/4
f 2/0/2 5/0/5 3/0/3
f 2/0/2 6/0/6 5/0/5
f 6/0/6 7/0/7 5/0/5
f 6/0/6 8/0/8 7/0/7
f 8/0/8 9/0/9 7/0/7
f 8/0/8 10/0/10 9/0/9
f 10/0/10 11/0/11 9/0/9
f 10/0/10 12/0/12 11/0/11
f 12/0/12 13/0/13 11/0/11
f 12/0/12 14/0/14 13/0/13
f 14/0/14 15/0/15 13/0/13
f 14/0/14 16/0/16 15/0/15
f 16/0/16 17/0/17 15/0/15
f 16/0/16 18/0/18 17/0/17
f 18/0/18 19/0/19 17/0/17
f 18/0/18 20/0/20 19/0/19
f 20/0/20 21/0/21 19/0/19
f 20/0/20 22/0/22 21/0/21
f 22/0/22 23/0/23 21/0/21
f 22/0/22 24/0/24 23/0/23
f 24/0/24 25/0/25 23/0/23
f 24/0/24 26/0/26 25/0/25
f 26/0/26 27/0/27 25/0/25
f 26/0/26 28/0/28 27/0/27
f 28/0/28 29/0/29 27/0/27
f 28/0/28 30/0/30 29/0/29
f 30/0/30 31/0/31 29/0/29
f 30/0/30 32/0/32 31/0/31
f 32/0/32 33/0/33 31/0/31
f 32/0/32 34/0/34 33/0/33
f 34/0/34 35/0/35 33/0/33
f 34/0/34 36/0/36 35/0/35
f 36/0/36 37/0/37 35/0/35
f 36/0/36 38/0/38 37/0/37
f 38/0/38 39/0/39 37/0/37
f 38/0/38 40/0/40 39/0/39
f 40/0/40 41/0/41 39/0/39
f 40/0/40 42/0/42 41/0/41
f 43/0/43 44/0/44 45/0/45
f 46/0/46 44/0/44 47/0/47
f 48/0/48 44/0/44 49/0/49
f 50/0/50 44/0/44 51/0/51
f 52/0/52 44/0/44 53/0/53
f 54/0/54 44/0/44 55/0/55
f 56/0/56 44/0/44 57/0/57
f 58/0/58 44/0/44 59/0/59
f 60/0/60 44/0/44 61/0/61
f 62/0/62 44/0/44 63/0/63
f 64/0/64 44/0/44 65/0/65
f 66/0/66 44/0/44 67/0/67
f 68/0/68 44/0/44 69/0/69
f 70/0/70 44/0/44 71/0/71
f 72/0/72 44/0/44 73/0/73
f 74/0/74 44/0/44 75/0/75
f 76/0/76 44/0/44 77/0/77
f 78/0/78 44/0/44 79/0/79
f 80/0/80 44/0/44 81/0/81
f 82/0/82 44/0/44 83/0/83
