# 
# Wavefront OBJ file
# Created with Kaydara FBX
# 
mtllib collision01 #2280409.mtl

g Collision01
v -4.258949 -0.000000 -38.721035
v -3.952887 -0.000000 -38.413704
v 3.937583 -0.000000 -38.413704
v 4.243645 -0.000000 -38.721039
v -4.258948 -0.000000 -44.685085
v 4.243655 -0.000000 -44.686527
v -3.952887 -0.000000 -44.991699
v 3.937583 -0.000000 -44.991699
v 3.937582 -0.000000 -37.491699
v -3.952887 -0.000000 -37.491699
v 4.243643 -0.000000 -37.184364
v -4.258949 -0.000000 -37.184364
v 4.243625 -0.000000 -23.720938
v -4.258948 -0.000000 -23.720938
v 3.937564 -0.000000 -23.413603
v -3.952887 -0.000000 -23.413603
v 3.937564 -0.000000 -22.491598
v -3.952887 -0.000000 -22.491598
v 4.243623 -0.000000 -22.184261
v -4.258948 -0.000000 -22.184265
v 4.243605 -0.000000 -8.720838
v -4.258948 -0.000000 -8.720840
v 3.937546 -0.000000 -8.413504
v -3.952887 -0.000000 -8.413504
v 3.937545 -0.000000 -7.491499
v -3.952887 -0.000000 -7.491499
v 4.243603 -0.000000 -7.184165
v -4.258948 -0.000000 -7.184165
v 4.243587 -0.000000 4.432886
v -4.258949 -0.000000 6.396418
v 1.316728 -0.000000 6.396418
v -3.952887 6.006999 -46.687279
v -3.952887 -0.000000 -46.687279
v 3.937583 -0.000000 -46.687279
v 3.937583 6.006999 -46.687279
v -4.258949 -0.000000 6.396418
v -4.258948 -0.000000 -7.184165
v -4.258948 6.006999 -7.184165
v -4.258949 6.006999 6.396418
v 4.243587 -0.000000 4.432886
v 1.316728 -0.000000 6.396418
v 1.316728 6.006999 6.396418
v 4.243587 6.006999 4.432886
v 4.243645 -0.000000 -38.721039
v 4.243645 6.006999 -38.721039
v 4.243655 6.006999 -44.686527
v 4.243655 -0.000000 -44.686527
v 1.316728 -0.000000 6.396418
v -4.258949 -0.000000 6.396418
v -4.258949 6.006999 6.396418
v 1.316728 6.006999 6.396418
v 4.243645 -0.000000 -38.721039
v 3.937583 -0.000000 -38.413704
v 3.937583 6.006999 -38.413704
v 4.243645 6.006999 -38.721039
v 4.243643 -0.000000 -37.184364
v 4.243625 -0.000000 -23.720938
v 4.243625 6.006999 -23.720938
v 4.243643 6.006999 -37.184364
v -3.952887 -0.000000 -44.991699
v -3.952887 6.006999 -44.991699
v -4.258948 6.006999 -44.685085
v -4.258948 -0.000000 -44.685085
v -4.258949 -0.000000 -37.184364
v -3.952887 -0.000000 -37.491699
v -3.952887 6.006999 -37.491699
v -4.258949 6.006999 -37.184364
v 4.243625 -0.000000 -23.720938
v 3.937564 -0.000000 -23.413603
v 3.937564 6.006999 -23.413603
v 4.243625 6.006999 -23.720938
v -4.258948 -0.000000 -23.720938
v -4.258949 -0.000000 -37.184364
v -4.258949 6.006999 -37.184364
v -4.258948 6.006999 -23.720938
v -4.258948 -0.000000 -22.184265
v -3.952887 -0.000000 -22.491598
v -3.952887 6.006999 -22.491598
v -4.258948 6.006999 -22.184265
v 4.243623 -0.000000 -22.184261
v 4.243605 -0.000000 -8.720838
v 4.243605 6.006999 -8.720838
v 4.243623 6.006999 -22.184261
v 4.243605 -0.000000 -8.720838
v 3.937546 -0.000000 -8.413504
v 3.937546 6.006999 -8.413504
v 4.243605 6.006999 -8.720838
v -4.258948 -0.000000 -8.720840
v -4.258948 -0.000000 -22.184265
v -4.258948 6.006999 -22.184265
v -4.258948 6.006999 -8.720840
v 4.243603 -0.000000 -7.184165
v 4.243587 -0.000000 4.432886
v 4.243587 6.006999 4.432886
v 4.243603 6.006999 -7.184165
v -4.258948 -0.000000 -7.184165
v -3.952887 -0.000000 -7.491499
v -3.952887 6.006999 -7.491499
v -4.258948 6.006999 -7.184165
v -3.952887 -0.000000 -22.491598
v -3.952887 -0.000000 -23.413603
v -3.952887 6.006999 -23.413603
v -3.952887 6.006999 -22.491598
v -3.952887 -0.000000 -23.413603
v -4.258948 -0.000000 -23.720938
v -4.258948 6.006999 -23.720938
v -3.952887 6.006999 -23.413603
v -3.952887 -0.000000 -7.491499
v -3.952887 -0.000000 -8.413504
v -3.952887 6.006999 -8.413504
v -3.952887 6.006999 -7.491499
v -3.952887 -0.000000 -8.413504
v -4.258948 -0.000000 -8.720840
v -4.258948 6.006999 -8.720840
v -3.952887 6.006999 -8.413504
v -3.952887 -0.000000 -37.491699
v -3.952887 -0.000000 -38.413704
v -3.952887 6.006999 -38.413704
v -3.952887 6.006999 -37.491699
v -3.952887 -0.000000 -38.413704
v -4.258949 -0.000000 -38.721035
v -4.258949 6.006999 -38.721035
v -3.952887 6.006999 -38.413704
v 3.937583 -0.000000 -38.413704
v 3.937582 -0.000000 -37.491699
v 3.937582 6.006999 -37.491699
v 3.937583 6.006999 -38.413704
v 3.937582 -0.000000 -37.491699
v 4.243643 -0.000000 -37.184364
v 4.243643 6.006999 -37.184364
v 3.937582 6.006999 -37.491699
v 3.937564 -0.000000 -23.413603
v 3.937564 -0.000000 -22.491598
v 3.937564 6.006999 -22.491598
v 3.937564 6.006999 -23.413603
v 3.937564 -0.000000 -22.491598
v 4.243623 -0.000000 -22.184261
v 4.243623 6.006999 -22.184261
v 3.937564 6.006999 -22.491598
v 3.937546 -0.000000 -8.413504
v 3.937545 -0.000000 -7.491499
v 3.937545 6.006999 -7.491499
v 3.937546 6.006999 -8.413504
v 3.937545 -0.000000 -7.491499
v 4.243603 -0.000000 -7.184165
v 4.243603 6.006999 -7.184165
v 3.937545 6.006999 -7.491499
v -4.258948 -0.000000 -44.685085
v -4.258948 6.006999 -44.685085
v -4.258949 6.006999 -38.721035
v -4.258949 -0.000000 -38.721035
v 4.243655 -0.000000 -44.686527
v 4.243655 6.006999 -44.686527
v 3.937583 6.006999 -44.991699
v 3.937583 -0.000000 -44.991699
v 3.937583 6.006999 -44.991699
v 3.937583 6.006999 -46.687279
v 3.937583 -0.000000 -46.687279
v 3.937583 -0.000000 -44.991699
v 3.937583 -0.000000 -44.991699
v 3.937583 -0.000000 -46.687279
v -3.952887 -0.000000 -46.687279
v -3.952887 -0.000000 -44.991699
v -3.952887 -0.000000 -44.991699
v -3.952887 -0.000000 -46.687279
v -3.952887 6.006999 -46.687279
v -3.952887 6.006999 -44.991699
vt 0.173046 0.154957
vt 0.173024 0.161616
vt 0.002636 0.167328
vt 0.002658 0.160295
vt 0.173520 0.012230
vt 0.003128 0.011922
vt 0.173561 0.000000
vt 0.003165 0.000000
vt 0.002614 0.174361
vt 0.173001 0.168274
vt 0.002591 0.181393
vt 0.172979 0.174932
vt 0.001733 0.452555
vt 0.172110 0.436271
vt 0.001710 0.459818
vt 0.172088 0.443040
vt 0.001687 0.467082
vt 0.172065 0.449809
vt 0.001664 0.474345
vt 0.172043 0.456578
vt 0.000801 0.746821
vt 0.171172 0.718489
vt 0.000779 0.753804
vt 0.171150 0.725090
vt 0.000757 0.760787
vt 0.171128 0.731692
vt 0.000735 0.767770
vt 0.171106 0.738293
vt 0.000000 1.000000
vt 0.170237 0.999669
vt 0.085119 0.999835
vt 0.000000 1.000000
vt 0.000000 0.000000
vt 1.000000 0.000000
vt 1.000000 1.000000
vt 0.000000 0.000000
vt 0.261463 0.000000
vt 0.261463 1.000000
vt 0.000000 1.000000
vt 0.000000 0.000000
vt 0.500000 0.000000
vt 0.500000 1.000000
vt 0.000000 1.000000
vt 0.160295 0.000000
vt 0.160295 1.000000
vt 0.011922 1.000000
vt 0.011922 0.000000
vt 0.500000 0.000000
vt 1.000000 0.000000
vt 1.000000 1.000000
vt 0.500000 1.000000
vt 0.160295 0.000000
vt 0.167328 0.000000
vt 0.167328 1.000000
vt 0.160295 1.000000
vt 0.181393 0.000000
vt 0.452555 0.000000
vt 0.452555 1.000000
vt 0.181393 1.000000
vt 1.000000 0.000000
vt 1.000000 1.000000
vt 0.987766 1.000000
vt 0.987766 0.000000
vt 0.825010 0.000000
vt 0.831670 0.000000
vt 0.831670 1.000000
vt 0.825010 1.000000
vt 0.452555 0.000000
vt 0.459818 0.000000
vt 0.459818 1.000000
vt 0.452555 1.000000
vt 0.563585 0.000000
vt 0.825010 0.000000
vt 0.825010 1.000000
vt 0.563585 1.000000
vt 0.543270 0.000000
vt 0.550042 0.000000
vt 0.550042 1.000000
vt 0.543270 1.000000
vt 0.474345 0.000000
vt 0.746821 0.000000
vt 0.746821 1.000000
vt 0.474345 1.000000
vt 0.746821 0.000000
vt 0.753804 0.000000
vt 0.753804 1.000000
vt 0.746821 1.000000
vt 0.281273 0.000000
vt 0.543270 0.000000
vt 0.543270 1.000000
vt 0.281273 1.000000
vt 0.767770 0.000000
vt 1.000000 0.000000
vt 1.000000 1.000000
vt 0.767770 1.000000
vt 0.261463 0.000000
vt 0.268066 0.000000
vt 0.268066 1.000000
vt 0.261463 1.000000
vt 0.550042 0.000000
vt 0.556813 0.000000
vt 0.556813 1.000000
vt 0.550042 1.000000
vt 0.556813 0.000000
vt 0.563585 0.000000
vt 0.563585 1.000000
vt 0.556813 1.000000
vt 0.268066 0.000000
vt 0.274669 0.000000
vt 0.274669 1.000000
vt 0.268066 1.000000
vt 0.274669 0.000000
vt 0.281273 0.000000
vt 0.281273 1.000000
vt 0.274669 1.000000
vt 0.831670 0.000000
vt 0.838331 0.000000
vt 0.838331 1.000000
vt 0.831670 1.000000
vt 0.838331 0.000000
vt 0.844991 0.000000
vt 0.844991 1.000000
vt 0.838331 1.000000
vt 0.167328 0.000000
vt 0.174361 0.000000
vt 0.174361 1.000000
vt 0.167328 1.000000
vt 0.174361 0.000000
vt 0.181393 0.000000
vt 0.181393 1.000000
vt 0.174361 1.000000
vt 0.459818 0.000000
vt 0.467082 0.000000
vt 0.467082 1.000000
vt 0.459818 1.000000
vt 0.467082 0.000000
vt 0.474345 0.000000
vt 0.474345 1.000000
vt 0.467082 1.000000
vt 0.753804 0.000000
vt 0.760787 0.000000
vt 0.760787 1.000000
vt 0.753804 1.000000
vt 0.760787 0.000000
vt 0.767770 0.000000
vt 0.767770 1.000000
vt 0.760787 1.000000
vt 0.987766 0.000000
vt 0.987766 1.000000
vt 0.844991 1.000000
vt 0.844991 0.000000
vt 0.011922 0.000000
vt 0.011922 1.000000
vt 0.000000 1.000000
vt 0.000000 0.000000
vt 1.000000 1.000000
vt 1.000000 1.000000
vt 1.000000 0.000000
vt 1.000000 0.000000
vt 1.000000 0.000000
vt 1.000000 0.000000
vt 0.000000 0.000000
vt 0.000000 0.000000
vt 0.000000 0.000000
vt 0.000000 0.000000
vt 0.000000 1.000000
vt 0.000000 1.000000
vn 0.000000 1.000000 0.000000
vn 0.000000 1.000000 0.000000
vn 0.000000 1.000000 0.000000
vn 0.000000 1.000000 0.000000
vn 0.000000 1.000000 0.000000
vn 0.000000 1.000000 0.000000
vn 0.000000 1.000000 0.000000
vn 0.000000 1.000000 0.000000
vn 0.000000 1.000000 0.000000
vn 0.000000 1.000000 0.000000
vn 0.000000 1.000000 0.000000
vn 0.000000 1.000000 0.000000
vn 0.000000 1.000000 0.000000
vn 0.000000 1.000000 0.000000
vn 0.000000 1.000000 0.000000
vn 0.000000 1.000000 0.000000
vn 0.000000 1.000000 0.000000
vn 0.000000 1.000000 0.000000
vn 0.000000 1.000000 0.000000
vn 0.000000 1.000000 0.000000
vn 0.000000 1.000000 0.000000
vn 0.000000 1.000000 0.000000
vn 0.000000 1.000000 0.000000
vn 0.000000 1.000000 0.000000
vn 0.000000 1.000000 0.000000
vn 0.000000 1.000000 0.000000
vn 0.000000 1.000000 0.000000
vn 0.000000 1.000000 0.000000
vn 0.000000 1.000000 0.000000
vn 0.000000 1.000000 0.000000
vn 0.000000 1.000000 0.000000
vn 0.000000 0.000000 1.000000
vn 0.000000 0.000000 1.000000
vn 0.000000 0.000000 1.000000
vn 0.000000 0.000000 1.000000
vn 1.000000 0.000000 0.000000
vn 1.000000 0.000000 0.000000
vn 1.000000 0.000000 0.000000
vn 1.000000 0.000000 0.000000
vn -0.557112 0.000000 -0.830437
vn -0.557112 0.000000 -0.830437
vn -0.557112 0.000000 -0.830437
vn -0.557112 0.000000 -0.830437
vn -1.000000 0.000000 -0.000002
vn -1.000000 0.000000 -0.000002
vn -1.000000 0.000000 -0.000002
vn -1.000000 0.000000 -0.000002
vn 0.000000 0.000000 -1.000000
vn 0.000000 0.000000 -1.000000
vn 0.000000 0.000000 -1.000000
vn 0.000000 0.000000 -1.000000
vn -0.708576 0.000000 -0.705635
vn -0.708576 0.000000 -0.705635
vn -0.708576 0.000000 -0.705635
vn -0.708576 0.000000 -0.705635
vn -1.000000 0.000000 -0.000001
vn -1.000000 0.000000 -0.000001
vn -1.000000 0.000000 -0.000001
vn -1.000000 0.000000 -0.000001
vn 0.707743 0.000000 0.706470
vn 0.707743 0.000000 0.706470
vn 0.707743 0.000000 0.706470
vn 0.707743 0.000000 0.706470
vn 0.708571 0.000000 0.705639
vn 0.708571 0.000000 0.705639
vn 0.708571 0.000000 0.705639
vn 0.708571 0.000000 0.705639
vn -0.708575 0.000000 -0.705636
vn -0.708575 0.000000 -0.705636
vn -0.708575 0.000000 -0.705636
vn -0.708575 0.000000 -0.705636
vn 1.000000 0.000000 0.000000
vn 1.000000 0.000000 0.000000
vn 1.000000 0.000000 0.000000
vn 1.000000 0.000000 0.000000
vn 0.708571 0.000000 0.705639
vn 0.708571 0.000000 0.705639
vn 0.708571 0.000000 0.705639
vn 0.708571 0.000000 0.705639
vn -1.000000 0.000000 -0.000001
vn -1.000000 0.000000 -0.000001
vn -1.000000 0.000000 -0.000001
vn -1.000000 0.000000 -0.000001
vn -0.708575 0.000000 -0.705635
vn -0.708575 0.000000 -0.705635
vn -0.708575 0.000000 -0.705635
vn -0.708575 0.000000 -0.705635
vn 1.000000 0.000000 0.000000
vn 1.000000 0.000000 0.000000
vn 1.000000 0.000000 0.000000
vn 1.000000 0.000000 0.000000
vn -1.000000 0.000000 -0.000001
vn -1.000000 0.000000 -0.000001
vn -1.000000 0.000000 -0.000001
vn -1.000000 0.000000 -0.000001
vn 0.708572 0.000000 0.705638
vn 0.708572 0.000000 0.705638
vn 0.708572 0.000000 0.705638
vn 0.708572 0.000000 0.705638
vn 1.000000 0.000000 0.000000
vn 1.000000 0.000000 0.000000
vn 1.000000 0.000000 0.000000
vn 1.000000 0.000000 0.000000
vn 0.708574 0.000000 -0.705637
vn 0.708574 0.000000 -0.705637
vn 0.708574 0.000000 -0.705637
vn 0.708574 0.000000 -0.705637
vn 1.000000 0.000000 0.000000
vn 1.000000 0.000000 0.000000
vn 1.000000 0.000000 0.000000
vn 1.000000 0.000000 0.000000
vn 0.708575 0.000000 -0.705635
vn 0.708575 0.000000 -0.705635
vn 0.708575 0.000000 -0.705635
vn 0.708575 0.000000 -0.705635
vn 1.000000 0.000000 0.000000
vn 1.000000 0.000000 0.000000
vn 1.000000 0.000000 0.000000
vn 1.000000 0.000000 0.000000
vn 0.708571 0.000000 -0.705639
vn 0.708571 0.000000 -0.705639
vn 0.708571 0.000000 -0.705639
vn 0.708571 0.000000 -0.705639
vn -1.000000 0.000000 -0.000001
vn -1.000000 0.000000 -0.000001
vn -1.000000 0.000000 -0.000001
vn -1.000000 0.000000 -0.000001
vn -0.708572 0.000000 0.705639
vn -0.708572 0.000000 0.705639
vn -0.708572 0.000000 0.705639
vn -0.708572 0.000000 0.705639
vn -1.000000 0.000000 -0.000001
vn -1.000000 0.000000 -0.000001
vn -1.000000 0.000000 -0.000001
vn -1.000000 0.000000 -0.000001
vn -0.708578 0.000000 0.705632
vn -0.708578 0.000000 0.705632
vn -0.708578 0.000000 0.705632
vn -0.708578 0.000000 0.705632
vn -1.000000 0.000000 -0.000001
vn -1.000000 0.000000 -0.000001
vn -1.000000 0.000000 -0.000001
vn -1.000000 0.000000 -0.000001
vn -0.708576 0.000000 0.705634
vn -0.708576 0.000000 0.705634
vn -0.708576 0.000000 0.705634
vn -0.708576 0.000000 0.705634
vn 1.000000 0.000000 0.000000
vn 1.000000 0.000000 0.000000
vn 1.000000 0.000000 0.000000
vn 1.000000 0.000000 0.000000
vn -0.706066 0.000000 0.708146
vn -0.706066 0.000000 0.708146
vn -0.706066 0.000000 0.708146
vn -0.706066 0.000000 0.708146
vn -1.000000 0.000000 0.000000
vn -1.000000 0.000000 0.000000
vn -1.000000 0.000000 0.000000
vn -1.000000 0.000000 0.000000
vn 0.000000 1.000000 0.000000
vn 0.000000 1.000000 0.000000
vn 0.000000 1.000000 0.000000
vn 0.000000 1.000000 0.000000
vn 1.000000 0.000000 0.000000
vn 1.000000 0.000000 0.000000
vn 1.000000 0.000000 0.000000
vn 1.000000 0.000000 0.000000
usemtl material
f 1/0/1 2/0/2 3/0/3
f 1/0/1 3/0/3 4/0/4
f 5/0/5 1/0/1 4/0/4
f 5/0/5 4/0/4 6/0/6
f 7/0/7 5/0/5 6/0/6
f 6/0/6 8/0/8 7/0/7
f 2/0/2 9/0/9 3/0/3
f 2/0/2 10/0/10 9/0/9
f 10/0/10 11/0/11 9/0/9
f 10/0/10 12/0/12 11/0/11
f 12/0/12 13/0/13 11/0/11
f 12/0/12 14/0/14 13/0/13
f 14/0/14 15/0/15 13/0/13
f 14/0/14 16/0/16 15/0/15
f 16/0/16 17/0/17 15/0/15
f 16/0/16 18/0/18 17/0/17
f 18/0/18 19/0/19 17/0/17
f 18/0/18 20/0/20 19/0/19
f 20/0/20 21/0/21 19/0/19
f 20/0/20 22/0/22 21/0/21
f 22/0/22 23/0/23 21/0/21
f 22/0/22 24/0/24 23/0/23
f 24/0/24 25/0/25 23/0/23
f 24/0/24 26/0/26 25/0/25
f 26/0/26 27/0/27 25/0/25
f 26/0/26 28/0/28 27/0/27
f 28/0/28 29/0/29 27/0/27
f 28/0/28 30/0/30 29/0/29
f 30/0/30 31/0/31 29/0/29
f 32/0/32 33/0/33 34/0/34
f 32/0/32 34/0/34 35/0/35
f 36/0/36 37/0/37 38/0/38
f 36/0/36 38/0/38 39/0/39
f 40/0/40 41/0/41 42/0/42
f 40/0/40 42/0/42 43/0/43
f 44/0/44 45/0/45 46/0/46
f 44/0/44 46/0/46 47/0/47
f 48/0/48 49/0/49 50/0/50
f 48/0/48 50/0/50 51/0/51
f 52/0/52 53/0/53 54/0/54
f 52/0/52 54/0/54 55/0/55
f 56/0/56 57/0/57 58/0/58
f 56/0/56 58/0/58 59/0/59
f 60/0/60 61/0/61 62/0/62
f 60/0/60 62/0/62 63/0/63
f 64/0/64 65/0/65 66/0/66
f 64/0/64 66/0/66 67/0/67
f 68/0/68 69/0/69 70/0/70
f 68/0/68 70/0/70 71/0/71
f 72/0/72 73/0/73 74/0/74
f 72/0/72 74/0/74 75/0/75
f 76/0/76 77/0/77 78/0/78
f 76/0/76 78/0/78 79/0/79
f 80/0/80 81/0/81 82/0/82
f 80/0/80 82/0/82 83/0/83
f 84/0/84 85/0/85 86/0/86
f 84/0/84 86/0/86 87/0/87
f 88/0/88 89/0/89 90/0/90
f 88/0/88 90/0/90 91/0/91
f 92/0/92 93/0/93 94/0/94
f 92/0/92 94/0/94 95/0/95
f 96/0/96 97/0/97 98/0/98
f 96/0/96 98/0/98 99/0/99
f 100/0/100 101/0/101 102/0/102
f 100/0/100 102/0/102 103/0/103
f 104/0/104 105/0/105 106/0/106
f 104/0/104 106/0/106 107/0/107
f 108/0/108 109/0/109 110/0/110
f 108/0/108 110/0/110 111/0/111
f 112/0/112 113/0/113 114/0/114
f 112/0/112 114/0/114 115/0/115
f 116/0/116 117/0/117 118/0/118
f 116/0/116 118/0/118 119/0/119
f 120/0/120 121/0/121 122/0/122
f 120/0/120 122/0/122 123/0/123
f 124/0/124 125/0/125 126/0/126
f 124/0/124 126/0/126 127/0/127
f 128/0/128 129/0/129 130/0/130
f 128/0/128 130/0/130 131/0/131
f 132/0/132 133/0/133 134/0/134
f 132/0/132 134/0/134 135/0/135
f 136/0/136 137/0/137 138/0/138
f 136/0/136 138/0/138 139/0/139
f 140/0/140 141/0/141 142/0/142
f 140/0/140 142/0/142 143/0/143
f 144/0/144 145/0/145 146/0/146
f 144/0/144 146/0/146 147/0/147
f 148/0/148 149/0/149 150/0/150
f 148/0/148 150/0/150 151/0/151
f 152/0/152 153/0/153 154/0/154
f 152/0/152 154/0/154 155/0/155
f 156/0/156 157/0/157 158/0/158
f 156/0/156 158/0/158 159/0/159
f 160/0/160 161/0/161 162/0/162
f 160/0/160 162/0/162 163/0/163
f 164/0/164 165/0/165 166/0/166
f 164/0/164 166/0/166 167/0/167
