# 
# Wavefront OBJ file
# Created with Kaydara FBX
# 
mtllib collision1_5.mtl

g Collision1_5
v 7.845447 -0.000023 14.243530
v 13.116904 -0.000023 8.475473
v -9.497272 0.000023 -14.521364
v -14.837043 -0.000023 -8.697946
v 7.845447 -0.000023 14.243530
v 7.845447 13.816805 14.243530
v 13.116904 13.816805 8.475473
v 13.116904 -0.000023 8.475473
v -14.837043 -0.000023 -8.697946
v -14.837043 13.816829 -8.697946
v 7.845447 13.816805 14.243530
v 7.845447 -0.000023 14.243530
v 13.116904 -0.000023 8.475473
v 13.116904 13.816805 8.475473
v -9.497272 13.811921 -14.521364
v -9.497272 0.000023 -14.521364
v -14.837043 -0.000023 -8.697946
v -9.497272 0.000023 -14.521364
v -9.497272 13.811921 -14.521364
v -14.837043 13.816829 -8.697946
vt 5.482298 0.453877
vt 5.482299 0.994026
vt 6.082878 0.994026
vt 6.033433 0.453877
vt 0.000000 0.000000
vt 0.000000 1.000000
vt 1.000000 1.000000
vt 1.000000 0.000000
vt 0.000000 0.000000
vt 0.000000 1.000000
vt 1.000000 1.000000
vt 1.000000 0.000000
vt 0.000000 0.000000
vt 0.000000 1.000000
vt 1.000000 1.000000
vt 1.000000 0.000000
vt 0.000355 0.000000
vt 0.000000 0.672213
vt 0.999645 0.672213
vt 1.000000 0.000000
vn -0.000002 1.000000 0.000002
vn -0.000002 1.000000 0.000002
vn -0.000002 1.000000 0.000002
vn -0.000002 1.000000 0.000002
vn -0.738169 0.000000 -0.674616
vn -0.738169 0.000000 -0.674616
vn -0.738169 0.000000 -0.674616
vn -0.738169 0.000000 -0.674616
vn 0.711109 0.000000 -0.703082
vn 0.711109 0.000000 -0.703082
vn 0.711109 0.000000 -0.703082
vn 0.711109 0.000000 -0.703082
vn -0.713014 0.000000 0.701150
vn -0.713014 0.000000 0.701150
vn -0.713014 0.000000 0.701150
vn -0.713014 0.000000 0.701150
vn 0.737051 0.000000 0.675837
vn 0.737051 0.000000 0.675837
vn 0.737051 0.000000 0.675837
vn 0.737051 0.000000 0.675837
usemtl material
f 1/0/1 2/0/2 3/0/3
f 1/0/1 3/0/3 4/0/4
f 5/0/5 6/0/6 7/0/7
f 5/0/5 7/0/7 8/0/8
f 9/0/9 10/0/10 11/0/11
f 9/0/9 11/0/11 12/0/12
f 13/0/13 14/0/14 15/0/15
f 13/0/13 15/0/15 16/0/16
f 17/0/17 18/0/18 19/0/19
f 17/0/17 19/0/19 20/0/20
