# 
# Wavefront OBJ file
# Created with Kaydara FBX
# 
mtllib collision01 #2252908.mtl

g Collision01
v -13.264915 0.000000 -4.310038
v -11.283823 0.000000 -8.198165
v -11.283823 8.960794 -8.198165
v -13.264915 8.960794 -4.310038
v -8.198165 8.960794 -11.283822
v -8.198165 0.000000 -11.283822
v -4.310038 8.960794 -13.264913
v -4.310038 0.000000 -13.264913
v 0.000000 8.960794 -13.947559
v 0.000000 0.000000 -13.947559
v 4.310038 8.960794 -13.264911
v 4.310038 0.000000 -13.264911
v 8.198163 8.960794 -11.283819
v 8.198163 0.000000 -11.283819
v 11.283817 8.960794 -8.198163
v 11.283817 0.000000 -8.198163
v 13.264910 8.960794 -4.310037
v 13.264910 0.000000 -4.310037
v 13.947557 8.960794 0.000000
v 13.947557 0.000000 0.000000
v 13.264910 8.960794 4.310037
v 13.264910 0.000000 4.310037
v 11.283815 8.960794 8.198162
v 11.283815 0.000000 8.198162
v 8.198162 8.960794 11.283815
v 8.198162 0.000000 11.283815
v 4.310037 8.960794 13.264910
v 4.310037 0.000000 13.264910
v 0.000000 8.960794 13.947556
v 0.000000 0.000000 13.947556
v -4.310036 8.960794 13.264910
v -4.310036 0.000000 13.264910
v -8.198160 8.960794 11.283814
v -8.198160 0.000000 11.283814
v -11.283814 8.960794 8.198161
v -11.283814 0.000000 8.198161
v -13.264910 8.960794 4.310036
v -13.264910 0.000000 4.310036
v -13.947556 8.960794 0.000000
v -13.947556 0.000000 0.000000
v -13.264915 8.960794 -4.310038
v -13.264915 0.000000 -4.310038
v -11.283823 0.000000 -8.198165
v -13.264915 0.000000 -4.310038
v 0.000000 0.000000 0.000000
v -8.198165 0.000000 -11.283822
v -4.310038 0.000000 -13.264913
v 0.000000 0.000000 -13.947559
v 4.310038 0.000000 -13.264911
v 8.198163 0.000000 -11.283819
v 11.283817 0.000000 -8.198163
v 13.264910 0.000000 -4.310037
v 13.947557 0.000000 0.000000
v 13.264910 0.000000 4.310037
v 11.283815 0.000000 8.198162
v 8.198162 0.000000 11.283815
v 4.310037 0.000000 13.264910
v 0.000000 0.000000 13.947556
v -4.310036 0.000000 13.264910
v -8.198160 0.000000 11.283814
v -11.283814 0.000000 8.198161
v -13.264910 0.000000 4.310036
v -13.947556 0.000000 0.000000
vt 0.375000 0.312500
vt 0.387500 0.312500
vt 0.387500 0.688440
vt 0.375000 0.688440
vt 0.400000 0.688440
vt 0.400000 0.312500
vt 0.412500 0.688440
vt 0.412500 0.312500
vt 0.425000 0.688440
vt 0.425000 0.312500
vt 0.437500 0.688440
vt 0.437500 0.312500
vt 0.450000 0.688440
vt 0.450000 0.312500
vt 0.462500 0.688440
vt 0.462500 0.312500
vt 0.475000 0.688440
vt 0.475000 0.312500
vt 0.487500 0.688440
vt 0.487500 0.312500
vt 0.500000 0.688440
vt 0.500000 0.312500
vt 0.512500 0.688440
vt 0.512500 0.312500
vt 0.525000 0.688440
vt 0.525000 0.312500
vt 0.537500 0.688440
vt 0.537500 0.312500
vt 0.550000 0.688440
vt 0.550000 0.312500
vt 0.562500 0.688440
vt 0.562500 0.312500
vt 0.575000 0.688440
vt 0.575000 0.312500
vt 0.587500 0.688440
vt 0.587500 0.312500
vt 0.600000 0.688440
vt 0.600000 0.312500
vt 0.612500 0.688440
vt 0.612500 0.312500
vt 0.625000 0.688440
vt 0.625000 0.312500
vt 0.626409 0.064408
vt 0.648603 0.107966
vt 0.500000 0.150000
vt 0.591842 0.029841
vt 0.548284 0.007647
vt 0.500000 -0.000000
vt 0.451716 0.007647
vt 0.408159 0.029841
vt 0.373591 0.064409
vt 0.351397 0.107966
vt 0.343750 0.156250
vt 0.351397 0.204534
vt 0.373591 0.248091
vt 0.408159 0.282659
vt 0.451716 0.304853
vt 0.500000 0.312500
vt 0.548284 0.304853
vt 0.591841 0.282659
vt 0.626409 0.248091
vt 0.648603 0.204534
vt 0.656250 0.156250
vn 0.951057 0.000000 0.309016
vn 0.809017 0.000000 0.587785
vn 0.809017 0.000000 0.587785
vn 0.951057 0.000000 0.309016
vn 0.587785 0.000000 0.809017
vn 0.587785 0.000000 0.809017
vn 0.309016 0.000000 0.951057
vn 0.309016 0.000000 0.951057
vn -0.000000 0.000000 1.000000
vn -0.000000 0.000000 1.000000
vn -0.309017 0.000000 0.951057
vn -0.309017 0.000000 0.951057
vn -0.587785 0.000000 0.809017
vn -0.587785 0.000000 0.809017
vn -0.809017 0.000000 0.587785
vn -0.809017 0.000000 0.587785
vn -0.951057 0.000000 0.309017
vn -0.951057 0.000000 0.309017
vn -1.000000 0.000000 0.000000
vn -1.000000 0.000000 0.000000
vn -0.951057 0.000000 -0.309017
vn -0.951057 0.000000 -0.309017
vn -0.809017 0.000000 -0.587785
vn -0.809017 0.000000 -0.587785
vn -0.587785 0.000000 -0.809017
vn -0.587785 0.000000 -0.809017
vn -0.309017 0.000000 -0.951057
vn -0.309017 0.000000 -0.951057
vn 0.000000 0.000000 -1.000000
vn 0.000000 0.000000 -1.000000
vn 0.309017 0.000000 -0.951057
vn 0.309017 0.000000 -0.951057
vn 0.587785 0.000000 -0.809017
vn 0.587785 0.000000 -0.809017
vn 0.809017 0.000000 -0.587785
vn 0.809017 0.000000 -0.587785
vn 0.951057 0.000000 -0.309017
vn 0.951057 0.000000 -0.309017
vn 1.000000 0.000000 -0.000001
vn 1.000000 0.000000 -0.000001
vn 0.951057 0.000000 0.309016
vn 0.951057 0.000000 0.309016
vn 0.000000 1.000000 0.000000
vn 0.000000 1.000000 0.000000
vn 0.000000 1.000000 0.000000
vn 0.000000 1.000000 0.000000
vn 0.000000 1.000000 0.000000
vn 0.000000 1.000000 0.000000
vn 0.000000 1.000000 0.000000
vn 0.000000 1.000000 0.000000
vn 0.000000 1.000000 0.000000
vn 0.000000 1.000000 0.000000
vn 0.000000 1.000000 0.000000
vn 0.000000 1.000000 0.000000
vn 0.000000 1.000000 0.000000
vn 0.000000 1.000000 0.000000
vn 0.000000 1.000000 0.000000
vn 0.000000 1.000000 0.000000
vn 0.000000 1.000000 0.000000
vn 0.000000 1.000000 0.000000
vn 0.000000 1.000000 0.000000
vn 0.000000 1.000000 0.000000
vn 0.000000 1.000000 0.000000
usemtl material
f 1/0/1 2/0/2 3/0/3
f 1/0/1 3/0/3 4/0/4
f 2/0/2 5/0/5 3/0/3
f 2/0/2 6/0/6 5/0/5
f 6/0/6 7/0/7 5/0/5
f 6/0/6 8/0/8 7/0/7
f 8/0/8 9/0/9 7/0/7
f 8/0/8 10/0/10 9/0/9
f 10/0/10 11/0/11 9/0/9
f 10/0/10 12/0/12 11/0/11
f 12/0/12 13/0/13 11/0/11
f 12/0/12 14/0/14 13/0/13
f 14/0/14 15/0/15 13/0/13
f 14/0/14 16/0/16 15/0/15
f 16/0/16 17/0/17 15/0/15
f 16/0/16 18/0/18 17/0/17
f 18/0/18 19/0/19 17/0/17
f 18/0/18 20/0/20 19/0/19
f 20/0/20 21/0/21 19/0/19
f 20/0/20 22/0/22 21/0/21
f 22/0/22 23/0/23 21/0/21
f 22/0/22 24/0/24 23/0/23
f 24/0/24 25/0/25 23/0/23
f 24/0/24 26/0/26 25/0/25
f 26/0/26 27/0/27 25/0/25
f 26/0/26 28/0/28 27/0/27
f 28/0/28 29/0/29 27/0/27
f 28/0/28 30/0/30 29/0/29
f 30/0/30 31/0/31 29/0/29
f 30/0/30 32/0/32 31/0/31
f 32/0/32 33/0/33 31/0/31
f 32/0/32 34/0/34 33/0/33
f 34/0/34 35/0/35 33/0/33
f 34/0/34 36/0/36 35/0/35
f 36/0/36 37/0/37 35/0/35
f 36/0/36 38/0/38 37/0/37
f 38/0/38 39/0/39 37/0/37
f 38/0/38 40/0/40 39/0/39
f 40/0/40 41/0/41 39/0/39
f 40/0/40 42/0/42 41/0/41
f 43/0/43 44/0/44 45/0/45
f 46/0/46 43/0/43 45/0/45
f 47/0/47 46/0/46 45/0/45
f 48/0/48 47/0/47 45/0/45
f 49/0/49 48/0/48 45/0/45
f 50/0/50 49/0/49 45/0/45
f 51/0/51 50/0/50 45/0/45
f 52/0/52 51/0/51 45/0/45
f 53/0/53 52/0/52 45/0/45
f 54/0/54 53/0/53 45/0/45
f 55/0/55 54/0/54 45/0/45
f 56/0/56 55/0/55 45/0/45
f 57/0/57 56/0/56 45/0/45
f 58/0/58 57/0/57 45/0/45
f 59/0/59 58/0/58 45/0/45
f 60/0/60 59/0/59 45/0/45
f 61/0/61 60/0/60 45/0/45
f 62/0/62 61/0/61 45/0/45
f 63/0/63 62/0/62 45/0/45
f 44/0/44 63/0/63 45/0/45
