# 
# Wavefront OBJ file
# Created with Kaydara FBX
# 
mtllib collision02 #2255734.mtl

g Collision02
v -0.662500 -0.000000 -8.992605
v -0.662500 -0.000000 -22.555542
v -18.426401 -0.000000 -22.555542
v -18.426401 -0.000000 -14.900711
v -16.725721 -0.000000 -13.198054
v -16.725721 -0.000000 -2.593210
v 17.580435 -0.000000 7.861253
v 17.580435 -0.000000 -8.992605
v -17.784204 -0.000000 -1.534904
v -12.167970 -0.000000 1.038618
v -12.167970 -0.000000 7.861253
v -17.784204 -0.000000 1.038618
v 17.580435 17.670000 7.861253
v 17.580435 -0.000000 7.861253
v -12.167970 -0.000000 7.861253
v -12.167970 17.670000 7.861253
v -12.167970 -0.000000 1.038618
v -12.167970 17.670000 1.038618
v -12.167970 17.670000 7.861253
v -12.167970 -0.000000 7.861253
v -17.784204 -0.000000 1.038618
v -17.784204 17.670000 1.038618
v -12.167970 17.670000 1.038618
v -12.167970 -0.000000 1.038618
v -17.784204 -0.000000 -1.534904
v -17.784204 17.670000 -1.534904
v -17.784204 17.670000 1.038618
v -17.784204 -0.000000 1.038618
v -0.662500 -0.000000 -22.555542
v -0.662500 17.670000 -22.555542
v -18.426401 17.670000 -22.555542
v -18.426401 -0.000000 -22.555542
v -0.662500 -0.000000 -8.992605
v -0.662500 17.670000 -8.992605
v -0.662500 17.670000 -22.555542
v -0.662500 -0.000000 -22.555542
v 17.580435 -0.000000 -8.992605
v 17.580435 17.670000 -8.992605
v -0.662500 17.670000 -8.992605
v -0.662500 -0.000000 -8.992605
v 17.580435 -0.000000 7.861253
v 17.580435 17.670000 7.861253
v 17.580435 17.670000 -8.992605
v 17.580435 -0.000000 -8.992605
v -18.426401 -0.000000 -14.900711
v -18.426401 17.670000 -14.900711
v -16.725721 17.670000 -13.198054
v -16.725721 -0.000000 -13.198054
v -18.426401 -0.000000 -22.555542
v -18.426401 17.670000 -22.555542
v -18.426401 17.670000 -14.900711
v -18.426401 -0.000000 -14.900711
v -16.725721 -0.000000 -13.198054
v -16.725721 17.670000 -13.198054
v -16.725721 17.670000 -2.593210
v -16.725721 -0.000000 -2.593210
v -16.725721 -0.000000 -2.593210
v -16.725721 17.670000 -2.593210
v -17.784204 17.670000 -1.534904
v -17.784204 -0.000000 -1.534904
vt 0.599677 0.479562
vt 0.578070 0.794986
vt 1.000000 0.799822
vt 0.999257 0.650565
vt 0.998515 0.501308
vt 0.997772 0.352050
vt 0.000000 0.000000
vt 0.061690 0.468490
vt 0.997401 0.277422
vt 0.884263 0.194958
vt 0.881099 0.042811
vt 0.997029 0.202793
vt 1.000000 1.000000
vt 1.000000 0.000000
vt 0.000000 0.000000
vt 0.000000 1.000000
vt 0.000000 0.000000
vt 0.000000 1.000000
vt 1.000000 1.000000
vt 1.000000 0.000000
vt 0.000000 0.000000
vt 0.000000 1.000000
vt 1.000000 1.000000
vt 1.000000 0.000000
vt 0.875000 0.000000
vt 0.875000 1.000000
vt 1.000000 1.000000
vt 1.000000 0.000000
vt 0.000000 0.000000
vt 0.000000 1.000000
vt 1.000000 1.000000
vt 1.000000 0.000000
vt 0.000000 0.000000
vt 0.000000 1.000000
vt 1.000000 1.000000
vt 1.000000 0.000000
vt 0.000000 0.000000
vt 0.000000 1.000000
vt 1.000000 1.000000
vt 1.000000 0.000000
vt 0.000000 0.000000
vt 0.000000 1.000000
vt 1.000000 1.000000
vt 1.000000 0.000000
vt 0.250000 0.000000
vt 0.250000 1.000000
vt 0.500000 1.000000
vt 0.500000 0.000000
vt 0.000000 0.000000
vt 0.000000 1.000000
vt 0.250000 1.000000
vt 0.250000 0.000000
vt 0.500000 0.000000
vt 0.500000 1.000000
vt 0.750000 1.000000
vt 0.750000 0.000000
vt 0.750000 0.000000
vt 0.750000 1.000000
vt 0.875000 1.000000
vt 0.875000 0.000000
vn 0.000000 1.000000 0.000000
vn 0.000000 1.000000 0.000000
vn 0.000000 1.000000 0.000000
vn 0.000000 1.000000 0.000000
vn 0.000000 1.000000 0.000000
vn 0.000000 1.000000 0.000000
vn 0.000000 1.000000 0.000000
vn 0.000000 1.000000 0.000000
vn 0.000000 1.000000 0.000000
vn 0.000000 1.000000 0.000000
vn 0.000000 1.000000 0.000000
vn 0.000000 1.000000 0.000000
vn 0.000000 0.000000 -1.000000
vn 0.000000 0.000000 -1.000000
vn 0.000000 0.000000 -1.000000
vn 0.000000 0.000000 -1.000000
vn 1.000000 0.000000 0.000000
vn 1.000000 0.000000 0.000000
vn 1.000000 0.000000 0.000000
vn 1.000000 0.000000 0.000000
vn 0.000000 0.000000 -1.000000
vn 0.000000 0.000000 -1.000000
vn 0.000000 0.000000 -1.000000
vn 0.000000 0.000000 -1.000000
vn 1.000000 0.000000 0.000000
vn 1.000000 0.000000 0.000000
vn 1.000000 0.000000 0.000000
vn 1.000000 0.000000 0.000000
vn 0.000000 0.000000 1.000000
vn 0.000000 0.000000 1.000000
vn 0.000000 0.000000 1.000000
vn 0.000000 0.000000 1.000000
vn -1.000000 0.000000 0.000000
vn -1.000000 0.000000 0.000000
vn -1.000000 0.000000 0.000000
vn -1.000000 0.000000 0.000000
vn 0.000000 0.000000 1.000000
vn 0.000000 0.000000 1.000000
vn 0.000000 0.000000 1.000000
vn 0.000000 0.000000 1.000000
vn -1.000000 0.000000 0.000000
vn -1.000000 0.000000 0.000000
vn -1.000000 0.000000 0.000000
vn -1.000000 0.000000 0.000000
vn 0.707517 0.000000 -0.706696
vn 0.707517 0.000000 -0.706696
vn 0.707517 0.000000 -0.706696
vn 0.707517 0.000000 -0.706696
vn 1.000000 0.000000 0.000000
vn 1.000000 0.000000 0.000000
vn 1.000000 0.000000 0.000000
vn 1.000000 0.000000 0.000000
vn 1.000000 0.000000 0.000000
vn 1.000000 0.000000 0.000000
vn 1.000000 0.000000 0.000000
vn 1.000000 0.000000 0.000000
vn 0.707048 0.000000 0.707166
vn 0.707048 0.000000 0.707166
vn 0.707048 0.000000 0.707166
vn 0.707048 0.000000 0.707166
usemtl material
f 1/0/1 2/0/2 3/0/3
f 3/0/3 4/0/4 1/0/1
f 4/0/4 5/0/5 1/0/1
f 5/0/5 6/0/6 1/0/1
f 1/0/1 6/0/6 7/0/7
f 7/0/7 8/0/8 1/0/1
f 6/0/6 9/0/9 7/0/7
f 9/0/9 10/0/10 7/0/7
f 10/0/10 11/0/11 7/0/7
f 12/0/12 10/0/10 9/0/9
f 13/0/13 14/0/14 15/0/15
f 13/0/13 15/0/15 16/0/16
f 17/0/17 18/0/18 19/0/19
f 17/0/17 19/0/19 20/0/20
f 21/0/21 22/0/22 23/0/23
f 21/0/21 23/0/23 24/0/24
f 25/0/25 26/0/26 27/0/27
f 25/0/25 27/0/27 28/0/28
f 29/0/29 30/0/30 31/0/31
f 29/0/29 31/0/31 32/0/32
f 33/0/33 34/0/34 35/0/35
f 33/0/33 35/0/35 36/0/36
f 37/0/37 38/0/38 39/0/39
f 37/0/37 39/0/39 40/0/40
f 41/0/41 42/0/42 43/0/43
f 41/0/41 43/0/43 44/0/44
f 45/0/45 46/0/46 47/0/47
f 45/0/45 47/0/47 48/0/48
f 49/0/49 50/0/50 51/0/51
f 49/0/49 51/0/51 52/0/52
f 53/0/53 54/0/54 55/0/55
f 53/0/53 55/0/55 56/0/56
f 57/0/57 58/0/58 59/0/59
f 57/0/57 59/0/59 60/0/60
