# 
# Wavefront OBJ file
# Created with Kaydara FBX
# 
mtllib collision03 #2280412.mtl

g Collision03
v -10.291455 0.001500 7.821338
v -16.119257 0.001500 1.993535
v -22.019316 0.001500 12.212734
v -14.058389 0.001500 14.345869
v -3.766932 0.001500 4.054404
v -5.900057 0.001500 -3.906523
v 3.766933 0.001500 4.054404
v 5.900060 0.001500 -3.906523
v 10.291464 0.001500 7.821348
v 16.119267 0.001500 1.993540
v -22.019316 0.001500 24.012852
v -14.058390 0.001500 21.879717
v -16.119261 0.001500 34.232052
v -10.291460 0.001500 28.404240
v 21.066635 0.001500 10.562636
v 20.522690 0.001500 12.152534
v 14.058391 0.001500 14.345869
v 20.628963 0.001500 12.585283
v 21.391157 0.001500 13.720927
v 14.058391 0.001500 21.879717
v 22.019316 0.001500 14.082709
v 22.019316 0.001500 24.012856
v 10.291456 0.001500 28.404253
v 16.119261 0.001500 34.232056
v 3.766933 0.001500 32.171181
v 5.900060 0.001500 40.132114
v 4.035150 0.001500 40.132114
v -4.035145 0.001500 40.132114
v -3.766932 0.001500 32.171185
v -5.900055 0.001500 40.132114
v -11.403751 0.001500 36.954556
v -11.702686 0.001500 36.312035
v -12.672914 0.001500 35.777580
v -13.210681 0.001500 35.911324
v -16.119257 0.001500 1.993535
v -16.119257 6.001901 1.993535
v -22.019316 6.001901 12.212734
v -22.019316 0.001500 12.212734
v -5.900057 0.001500 -3.906523
v -5.900057 6.001901 -3.906523
v 5.900060 0.001500 -3.906523
v 5.900060 6.001901 -3.906523
v 16.119267 0.001500 1.993540
v 16.119267 6.001901 1.993540
v 21.066635 6.001930 10.562636
v 21.066635 0.001500 10.562636
v 22.019316 0.001500 24.012856
v 22.019316 6.001901 24.012856
v 22.019316 6.001930 14.082709
v 22.019316 0.001500 14.082709
v 16.119261 0.001500 34.232056
v 16.119261 6.001901 34.232056
v 5.900060 0.001500 40.132114
v 5.900060 6.001901 40.132114
v 4.035150 0.001500 40.132114
v 4.035150 6.001901 40.132114
v -16.119261 0.001500 34.232052
v -16.119261 6.001901 34.232052
v -13.210681 6.001901 35.911324
v -13.210681 0.001500 35.911324
v -22.019316 0.001500 24.012852
v -22.019316 6.001901 24.012852
v -22.019316 0.001500 12.212734
v -22.019316 6.001901 12.212734
v -3.766932 6.001898 4.054404
v 3.766933 6.001898 4.054404
v 3.766933 0.001500 4.054404
v -3.766932 0.001500 4.054404
v -10.291455 6.001898 7.821338
v -3.766932 6.001898 4.054404
v -3.766932 0.001500 4.054404
v -10.291455 0.001500 7.821338
v -14.058389 6.001898 14.345869
v -10.291455 6.001898 7.821338
v -10.291455 0.001500 7.821338
v -14.058389 0.001500 14.345869
v -14.058390 6.001898 21.879717
v -14.058389 6.001898 14.345869
v -14.058389 0.001500 14.345869
v -14.058390 0.001500 21.879717
v -10.291460 6.001898 28.404240
v -14.058390 6.001898 21.879717
v -14.058390 0.001500 21.879717
v -10.291460 0.001500 28.404240
v -3.766932 6.001898 32.171185
v -10.291460 6.001898 28.404240
v -10.291460 0.001500 28.404240
v -3.766932 0.001500 32.171185
v -3.766932 6.001898 32.171185
v -3.766932 0.001500 32.171185
v 3.766933 0.001500 32.171181
v 3.766933 6.001898 32.171181
v 10.291456 6.001898 28.404253
v 3.766933 6.001898 32.171181
v 3.766933 0.001500 32.171181
v 10.291456 0.001500 28.404253
v 14.058391 6.001898 21.879717
v 10.291456 6.001898 28.404253
v 10.291456 0.001500 28.404253
v 14.058391 0.001500 21.879717
v 14.058391 6.001898 14.345869
v 14.058391 6.001898 21.879717
v 14.058391 0.001500 21.879717
v 14.058391 0.001500 14.345869
v 10.291464 6.001898 7.821348
v 14.058391 6.001898 14.345869
v 14.058391 0.001500 14.345869
v 10.291464 0.001500 7.821348
v 3.766933 6.001898 4.054404
v 10.291464 6.001898 7.821348
v 10.291464 0.001500 7.821348
v 3.766933 0.001500 4.054404
v -3.542094 0.001500 46.954414
v -3.542094 6.001901 46.954414
v 0.000002 6.001901 46.954414
v 0.000002 0.001500 46.954414
v 3.542098 6.001901 46.592426
v 3.542098 0.001500 46.592426
v -5.900055 0.001500 40.132114
v -5.900055 6.001901 40.132114
v -4.035145 6.001901 40.132114
v -4.035145 0.001500 40.132114
v -11.403751 6.001901 36.954556
v -11.403751 0.001500 36.954556
v -3.542094 0.001500 42.361694
v 3.542098 0.001500 42.361694
v 4.035150 0.001500 40.132114
v -4.035145 0.001500 40.132114
v 0.000002 0.001500 46.954414
v 3.542098 0.001500 46.592426
v -3.542094 0.001500 46.954414
v -4.035145 6.001901 40.132114
v -3.542094 6.001901 42.361694
v -3.542094 0.001500 42.361694
v -4.035145 0.001500 40.132114
v -3.542094 0.001500 46.954414
v -3.542094 6.001901 46.954414
v 4.035150 0.001500 40.132114
v 3.542098 0.001500 42.361694
v 3.542098 6.001901 42.361694
v 4.035150 6.001901 40.132114
v 3.542098 6.001901 46.592426
v 3.542098 0.001500 46.592426
v 22.019316 0.001500 14.082709
v 22.019316 6.001930 14.082709
v 21.391157 6.001960 13.720927
v 21.391157 0.001500 13.720927
v 21.391157 0.001500 13.720927
v 21.391157 6.001960 13.720927
v 20.628963 6.001960 12.585283
v 20.628963 0.001500 12.585283
v 20.628963 0.001500 12.585283
v 20.628963 6.001960 12.585283
v 20.522690 6.001960 12.152534
v 20.522690 0.001500 12.152534
v 20.522690 0.001500 12.152534
v 20.522690 6.001960 12.152534
v 21.066635 6.001930 10.562636
v 21.066635 0.001500 10.562636
v -12.672914 0.001500 35.777580
v -12.672914 6.001901 35.777580
v -11.702686 6.001901 36.312035
v -11.702686 0.001500 36.312035
v -13.210681 0.001500 35.911324
v -13.210681 6.001901 35.911324
v -12.672914 6.001901 35.777580
v -11.702686 0.001500 36.312035
v -11.702686 6.001901 36.312035
v -11.403751 6.001901 36.954556
v -11.403751 0.001500 36.954556
vt 0.539063 0.088592
vt 0.578125 0.020934
vt 0.635316 0.078125
vt 0.567658 0.117188
vt 0.500000 0.078125
vt 0.500000 0.000000
vt 0.460938 0.088592
vt 0.421875 0.020934
vt 0.432342 0.117188
vt 0.364684 0.078125
vt 0.656250 0.156250
vt 0.578125 0.156250
vt 0.635316 0.234375
vt 0.567658 0.195313
vt 0.347130 0.143635
vt 0.356949 0.153838
vt 0.421875 0.156250
vt 0.357394 0.156250
vt 0.352291 0.165121
vt 0.432342 0.195313
vt 0.347067 0.168631
vt 0.364684 0.234375
vt 0.460938 0.223908
vt 0.421875 0.291566
vt 0.500000 0.234375
vt 0.500000 0.312500
vt 0.519531 0.307267
vt 0.558594 0.296800
vt 0.539063 0.223908
vt 0.578125 0.291566
vt 0.608926 0.260765
vt 0.609447 0.255177
vt 0.615204 0.250432
vt 0.619039 0.250653
vt 0.395833 0.312500
vt 0.395833 0.688440
vt 0.375000 0.688440
vt 0.375000 0.312500
vt 0.416667 0.312500
vt 0.416667 0.688440
vt 0.437500 0.312500
vt 0.437500 0.688440
vt 0.458333 0.312500
vt 0.458333 0.688440
vt 0.476069 0.688440
vt 0.475803 0.312500
vt 0.500000 0.312500
vt 0.500000 0.688440
vt 0.482316 0.688440
vt 0.482468 0.312500
vt 0.520833 0.312500
vt 0.520833 0.688440
vt 0.541667 0.312500
vt 0.541667 0.688440
vt 0.546875 0.312500
vt 0.546875 0.688440
vt 0.583333 0.312500
vt 0.583333 0.688440
vt 0.577393 0.688440
vt 0.577404 0.312500
vt 0.604167 0.312500
vt 0.604167 0.688440
vt 0.625000 0.312500
vt 0.625000 0.688440
vt 1.000000 1.000000
vt 0.000000 1.000000
vt 0.000000 0.000000
vt 1.000000 0.000000
vt 1.000000 1.000000
vt 0.000000 1.000000
vt 0.000000 0.000000
vt 1.000000 0.000000
vt 1.000000 1.000000
vt 0.000000 1.000000
vt 0.000000 0.000000
vt 1.000000 0.000000
vt 1.000000 1.000000
vt 0.000000 1.000000
vt 0.000000 0.000000
vt 1.000000 0.000000
vt 1.000000 1.000000
vt 0.000000 1.000000
vt 0.000000 0.000000
vt 1.000000 0.000000
vt 1.000000 1.000000
vt 0.000000 1.000000
vt 0.000000 0.000000
vt 1.000000 0.000000
vt 0.000000 1.000000
vt 0.000000 0.000000
vt 1.000000 0.000000
vt 1.000000 1.000000
vt 1.000000 1.000000
vt 0.000000 1.000000
vt 0.000000 0.000000
vt 1.000000 0.000000
vt 1.000000 1.000000
vt 0.000000 1.000000
vt 0.000000 0.000000
vt 1.000000 0.000000
vt 1.000000 1.000000
vt 0.000000 1.000000
vt 0.000000 0.000000
vt 1.000000 0.000000
vt 1.000000 1.000000
vt 0.000000 1.000000
vt 0.000000 0.000000
vt 1.000000 0.000000
vt 1.000000 1.000000
vt 0.000000 1.000000
vt 0.000000 0.000000
vt 1.000000 0.000000
vt 0.557292 0.312500
vt 0.557292 0.688440
vt 0.552083 0.688440
vt 0.552083 0.312500
vt 0.546875 0.688440
vt 0.546875 0.312500
vt 0.562500 0.312500
vt 0.562500 0.688440
vt 0.557292 0.688440
vt 0.557292 0.312500
vt 0.573915 0.688440
vt 0.573720 0.312500
vt 0.557292 0.312500
vt 0.546875 0.312500
vt 0.546875 0.312500
vt 0.557292 0.312500
vt 0.552083 0.312500
vt 0.546875 0.312500
vt 0.557292 0.312500
vt 0.557292 0.688440
vt 0.557292 0.688440
vt 0.557292 0.312500
vt 0.557292 0.312500
vt 0.557292 0.312500
vt 0.557292 0.688440
vt 0.546875 0.312500
vt 0.546875 0.312500
vt 0.546875 0.688440
vt 0.546875 0.688440
vt 0.546875 0.688440
vt 0.546875 0.312500
vt 0.000000 0.000000
vt 0.000000 1.000000
vt 1.000000 1.000000
vt 1.000000 0.000000
vt 0.000000 0.000000
vt 0.000000 1.000000
vt 1.000000 1.000000
vt 1.000000 0.000000
vt 0.000000 0.000000
vt 0.000000 1.000000
vt 1.000000 1.000000
vt 1.000000 0.000000
vt 0.000000 0.000000
vt 0.000000 1.000000
vt 1.000000 1.000000
vt 1.000000 0.000000
vt 0.000000 0.000000
vt 0.000000 1.000000
vt 1.000000 1.000000
vt 1.000000 0.000000
vt 0.000000 0.092352
vt 1.000000 0.092352
vt 1.000000 0.000000
vt 0.000000 0.000000
vt 0.000000 1.000000
vt 1.000000 1.000000
vt 1.000000 0.000000
vn 0.000000 1.000000 0.000000
vn 0.000000 1.000000 0.000000
vn 0.000000 1.000000 0.000000
vn 0.000000 1.000000 0.000000
vn 0.000000 1.000000 0.000000
vn 0.000000 1.000000 0.000000
vn 0.000000 1.000000 0.000000
vn 0.000000 1.000000 0.000000
vn 0.000000 1.000000 0.000000
vn 0.000000 1.000000 0.000000
vn 0.000000 1.000000 0.000000
vn 0.000000 1.000000 0.000000
vn 0.000000 1.000000 0.000000
vn 0.000000 1.000000 0.000000
vn 0.000000 1.000000 0.000000
vn 0.000000 1.000000 0.000000
vn 0.000000 1.000000 0.000000
vn 0.000000 1.000000 0.000000
vn 0.000000 1.000000 0.000000
vn 0.000000 1.000000 0.000000
vn 0.000000 1.000000 0.000000
vn 0.000000 1.000000 0.000000
vn 0.000000 1.000000 0.000000
vn 0.000000 1.000000 0.000000
vn 0.000000 1.000000 0.000000
vn 0.000000 1.000000 0.000000
vn 0.000000 1.000000 0.000000
vn 0.000000 1.000000 0.000000
vn 0.000000 1.000000 0.000000
vn 0.000000 1.000000 0.000000
vn 0.000000 1.000000 0.000000
vn 0.000000 1.000000 0.000000
vn 0.000000 1.000000 0.000000
vn 0.000000 1.000000 0.000000
vn 0.707107 0.000000 0.707107
vn 0.707107 0.000000 0.707107
vn 0.965926 0.000000 0.258819
vn 0.965926 0.000000 0.258819
vn 0.258819 0.000000 0.965926
vn 0.258819 0.000000 0.965926
vn -0.258819 0.000000 0.965926
vn -0.258819 0.000000 0.965926
vn -0.690276 0.000000 0.723547
vn -0.690276 0.000000 0.723546
vn -0.917517 0.000000 0.397696
vn -0.917517 0.000000 0.397698
vn -0.959703 0.000000 -0.281016
vn -0.959703 0.000000 -0.281016
vn -0.998142 0.000000 0.060923
vn -0.998143 0.000000 0.060921
vn -0.707107 0.000000 -0.707107
vn -0.707107 0.000000 -0.707107
vn -0.438746 0.000000 -0.898611
vn -0.438746 0.000000 -0.898611
vn 0.000000 0.000000 -1.000000
vn 0.000000 0.000000 -1.000000
vn 0.803720 0.000000 -0.595007
vn 0.803720 0.000000 -0.595007
vn 0.409191 0.000000 -0.912449
vn 0.409191 0.000000 -0.912449
vn 0.965926 0.000000 -0.258819
vn 0.965926 0.000000 -0.258819
vn 0.965926 0.000000 0.258819
vn 0.965926 0.000000 0.258819
vn -0.258819 0.000000 -0.965926
vn 0.258820 0.000000 -0.965926
vn 0.258820 0.000000 -0.965926
vn -0.258819 0.000000 -0.965926
vn -0.707107 0.000000 -0.707106
vn -0.258819 0.000000 -0.965926
vn -0.258819 0.000000 -0.965926
vn -0.707107 0.000000 -0.707106
vn -0.965926 0.000000 -0.258819
vn -0.707107 0.000000 -0.707106
vn -0.707107 0.000000 -0.707106
vn -0.965926 0.000000 -0.258819
vn -0.965926 0.000000 0.258819
vn -0.965926 0.000000 -0.258819
vn -0.965926 0.000000 -0.258819
vn -0.965926 0.000000 0.258819
vn -0.707107 0.000000 0.707106
vn -0.965926 0.000000 0.258819
vn -0.965926 0.000000 0.258819
vn -0.707107 0.000000 0.707106
vn -0.258819 0.000000 0.965926
vn -0.707107 0.000000 0.707106
vn -0.707107 0.000000 0.707106
vn -0.258819 0.000000 0.965926
vn -0.258819 0.000000 0.965926
vn -0.258819 0.000000 0.965926
vn 0.258819 0.000000 0.965926
vn 0.258819 0.000000 0.965926
vn 0.707107 0.000000 0.707107
vn 0.258819 0.000000 0.965926
vn 0.258819 0.000000 0.965926
vn 0.707107 0.000000 0.707107
vn 0.965926 0.000000 0.258819
vn 0.707107 0.000000 0.707107
vn 0.707107 0.000000 0.707107
vn 0.965926 0.000000 0.258819
vn 0.965926 0.000000 -0.258819
vn 0.965926 0.000000 0.258819
vn 0.965926 0.000000 0.258819
vn 0.965926 0.000000 -0.258819
vn 0.707107 0.000000 -0.707107
vn 0.965926 0.000000 -0.258819
vn 0.965926 0.000000 -0.258819
vn 0.707107 0.000000 -0.707107
vn 0.258820 0.000000 -0.965926
vn 0.707107 0.000000 -0.707107
vn 0.707107 0.000000 -0.707107
vn 0.258820 0.000000 -0.965926
vn 0.000000 0.000000 -1.000000
vn 0.000000 0.000000 -1.000000
vn -0.051031 0.000000 -0.998697
vn -0.051031 0.000000 -0.998697
vn -0.101665 0.000000 -0.994819
vn -0.101665 0.000000 -0.994819
vn 0.395980 0.000000 -0.918259
vn 0.395980 0.000000 -0.918259
vn 0.000000 0.000000 -1.000000
vn 0.000000 0.000000 -1.000000
vn 0.549873 0.000000 -0.835248
vn 0.549873 0.000000 -0.835248
vn 0.000000 1.000000 0.000000
vn 0.000000 1.000000 0.000000
vn 0.000000 1.000000 0.000000
vn 0.000000 1.000000 0.000000
vn 0.000000 1.000000 0.000000
vn 0.000000 1.000000 0.000000
vn 0.000000 1.000000 0.000000
vn 0.976410 0.000000 -0.215924
vn 0.997399 0.000000 -0.072083
vn 0.997399 0.000000 -0.072083
vn 0.976410 0.000000 -0.215924
vn 1.000000 0.000000 0.000000
vn 1.000000 0.000000 0.000000
vn -0.976410 0.000000 -0.215924
vn -0.997100 0.000000 -0.076099
vn -0.997100 0.000000 -0.076099
vn -0.976410 0.000000 -0.215924
vn -1.000000 0.000000 0.000000
vn -1.000000 0.000000 0.000000
vn -0.998143 0.000000 0.060921
vn -0.998142 0.000000 0.060923
vn -0.732824 0.000000 0.680418
vn -0.732822 0.000000 0.680420
vn -0.732822 0.000000 0.680420
vn -0.732824 0.000000 0.680418
vn -0.874834 0.000000 0.484422
vn -0.874834 0.000000 0.484422
vn -0.874834 0.000000 0.484422
vn -0.874834 0.000000 0.484422
vn -0.977380 0.000000 -0.211489
vn -0.977380 0.000000 -0.211490
vn -0.977380 0.000000 -0.211490
vn -0.977380 0.000000 -0.211489
vn -0.917517 0.000000 0.397696
vn -0.917517 0.000000 0.397698
vn 0.256812 0.000000 -0.966461
vn 0.256812 0.000000 -0.966461
vn 0.679976 0.000000 -0.733235
vn 0.679976 0.000000 -0.733235
vn 0.409191 0.000000 -0.912449
vn 0.409191 0.000000 -0.912449
vn 0.256812 0.000000 -0.966461
vn 0.679976 0.000000 -0.733235
vn 0.679976 0.000000 -0.733235
vn 0.549873 0.000000 -0.835248
vn 0.549873 0.000000 -0.835248
usemtl material
f 1/0/1 2/0/2 3/0/3
f 1/0/1 3/0/3 4/0/4
f 5/0/5 2/0/2 1/0/1
f 5/0/5 6/0/6 2/0/2
f 7/0/7 6/0/6 5/0/5
f 7/0/7 8/0/8 6/0/6
f 9/0/9 8/0/8 7/0/7
f 9/0/9 10/0/10 8/0/8
f 4/0/4 3/0/3 11/0/11
f 4/0/4 11/0/11 12/0/12
f 12/0/12 11/0/11 13/0/13
f 12/0/12 13/0/13 14/0/14
f 15/0/15 10/0/10 9/0/9
f 16/0/16 15/0/15 9/0/9
f 17/0/17 16/0/16 9/0/9
f 17/0/17 18/0/18 16/0/16
f 19/0/19 18/0/18 17/0/17
f 20/0/20 19/0/19 17/0/17
f 20/0/20 21/0/21 19/0/19
f 20/0/20 22/0/22 21/0/21
f 23/0/23 22/0/22 20/0/20
f 23/0/23 24/0/24 22/0/22
f 25/0/25 24/0/24 23/0/23
f 25/0/25 26/0/26 24/0/24
f 25/0/25 27/0/27 26/0/26
f 25/0/25 28/0/28 27/0/27
f 25/0/25 29/0/29 28/0/28
f 29/0/29 30/0/30 28/0/28
f 31/0/31 30/0/30 29/0/29
f 31/0/31 29/0/29 32/0/32
f 14/0/14 32/0/32 29/0/29
f 14/0/14 33/0/33 32/0/32
f 14/0/14 34/0/34 33/0/33
f 14/0/14 13/0/13 34/0/34
f 35/0/35 36/0/36 37/0/37
f 35/0/35 37/0/37 38/0/38
f 39/0/39 36/0/36 35/0/35
f 39/0/39 40/0/40 36/0/36
f 41/0/41 40/0/40 39/0/39
f 41/0/41 42/0/42 40/0/40
f 43/0/43 42/0/42 41/0/41
f 43/0/43 44/0/44 42/0/42
f 45/0/45 44/0/44 43/0/43
f 45/0/45 43/0/43 46/0/46
f 47/0/47 48/0/48 49/0/49
f 47/0/47 49/0/49 50/0/50
f 51/0/51 48/0/48 47/0/47
f 51/0/51 52/0/52 48/0/48
f 53/0/53 52/0/52 51/0/51
f 53/0/53 54/0/54 52/0/52
f 55/0/55 54/0/54 53/0/53
f 55/0/55 56/0/56 54/0/54
f 57/0/57 58/0/58 59/0/59
f 57/0/57 59/0/59 60/0/60
f 61/0/61 58/0/58 57/0/57
f 61/0/61 62/0/62 58/0/58
f 63/0/63 62/0/62 61/0/61
f 63/0/63 64/0/64 62/0/62
f 65/0/65 66/0/66 67/0/67
f 65/0/65 67/0/67 68/0/68
f 69/0/69 70/0/70 71/0/71
f 69/0/69 71/0/71 72/0/72
f 73/0/73 74/0/74 75/0/75
f 73/0/73 75/0/75 76/0/76
f 77/0/77 78/0/78 79/0/79
f 77/0/77 79/0/79 80/0/80
f 81/0/81 82/0/82 83/0/83
f 81/0/81 83/0/83 84/0/84
f 85/0/85 86/0/86 87/0/87
f 85/0/85 87/0/87 88/0/88
f 89/0/89 90/0/90 91/0/91
f 89/0/89 91/0/91 92/0/92
f 93/0/93 94/0/94 95/0/95
f 93/0/93 95/0/95 96/0/96
f 97/0/97 98/0/98 99/0/99
f 97/0/97 99/0/99 100/0/100
f 101/0/101 102/0/102 103/0/103
f 101/0/101 103/0/103 104/0/104
f 105/0/105 106/0/106 107/0/107
f 105/0/105 107/0/107 108/0/108
f 109/0/109 110/0/110 111/0/111
f 109/0/109 111/0/111 112/0/112
f 113/0/113 114/0/114 115/0/115
f 113/0/113 115/0/115 116/0/116
f 116/0/116 115/0/115 117/0/117
f 116/0/116 117/0/117 118/0/118
f 119/0/119 120/0/120 121/0/121
f 119/0/119 121/0/121 122/0/122
f 123/0/123 120/0/120 119/0/119
f 123/0/123 119/0/119 124/0/124
f 125/0/125 126/0/126 127/0/127
f 125/0/125 127/0/127 128/0/128
f 129/0/129 126/0/126 125/0/125
f 129/0/129 130/0/130 126/0/126
f 129/0/129 125/0/125 131/0/131
f 132/0/132 133/0/133 134/0/134
f 132/0/132 134/0/134 135/0/135
f 133/0/133 136/0/136 134/0/134
f 133/0/133 137/0/137 136/0/136
f 138/0/138 139/0/139 140/0/140
f 138/0/138 140/0/140 141/0/141
f 139/0/139 142/0/142 140/0/140
f 139/0/139 143/0/143 142/0/142
f 144/0/144 145/0/145 146/0/146
f 144/0/144 146/0/146 147/0/147
f 148/0/148 149/0/149 150/0/150
f 148/0/148 150/0/150 151/0/151
f 152/0/152 153/0/153 154/0/154
f 152/0/152 154/0/154 155/0/155
f 156/0/156 157/0/157 158/0/158
f 156/0/156 158/0/158 159/0/159
f 160/0/160 161/0/161 162/0/162
f 160/0/160 162/0/162 163/0/163
f 160/0/160 164/0/164 165/0/165
f 160/0/160 165/0/165 166/0/166
f 167/0/167 168/0/168 169/0/169
f 167/0/167 169/0/169 170/0/170
