# 
# Wavefront OBJ file
# Created with Kaydara FBX
# 
mtllib collision1_2.mtl

g Collision1_2
v -0.000001 0.602505 0.000000
v -9.494247 0.602505 -6.898022
v -11.161152 0.602505 -3.626448
v -11.735518 0.602505 0.000005
v -11.161152 0.602505 3.626475
v -9.494246 0.602505 6.898037
v -6.897978 0.602505 9.494258
v -3.626461 0.602505 11.161113
v -6.897981 0.602505 -9.494247
v -3.626461 0.602505 -11.161103
v -0.000001 0.602505 -11.735560
v 3.626459 0.602505 -11.161103
v 6.897964 0.602505 -9.494236
v 9.494249 0.602505 -6.898022
v 11.161152 0.602505 -3.626448
v 11.735519 0.602505 0.000005
v 11.161152 0.602505 3.626475
v 9.494247 0.602505 6.898037
v 6.897964 0.602505 9.494258
v 3.626458 0.602505 11.161113
v -0.000001 0.602505 11.735563
v -9.494247 0.602505 -6.898022
v -9.494247 14.806334 -6.898022
v -11.161152 14.806334 -3.626448
v -11.161152 0.602505 -3.626448
v -6.897981 0.602505 -9.494247
v -6.897981 14.806334 -9.494247
v -9.494247 14.806334 -6.898022
v -9.494247 0.602505 -6.898022
v -3.626461 0.602505 -11.161103
v -3.626461 14.806334 -11.161103
v -6.897981 14.806334 -9.494247
v -6.897981 0.602505 -9.494247
v 6.897964 0.602505 -9.494236
v 6.897964 14.806334 -9.494236
v 3.626459 14.806334 -11.161103
v 3.626459 0.602505 -11.161103
v 9.494249 0.602505 -6.898022
v 9.494249 14.806334 -6.898022
v 6.897964 14.806334 -9.494236
v 6.897964 0.602505 -9.494236
v 11.161152 0.602505 -3.626448
v 11.161152 14.806334 -3.626448
v 9.494249 14.806334 -6.898022
v 9.494249 0.602505 -6.898022
v 11.735519 0.602505 0.000005
v 11.735519 14.806334 0.000005
v 11.161152 14.806334 -3.626448
v 11.161152 0.602505 -3.626448
v 11.161152 0.602505 3.626475
v 11.161152 14.806334 3.626475
v 11.735519 14.806334 0.000005
v 11.735519 0.602505 0.000005
v 9.494247 0.602505 6.898037
v 9.494247 14.806334 6.898037
v 11.161152 14.806334 3.626475
v 11.161152 0.602505 3.626475
v 6.897964 0.602505 9.494258
v 6.897964 14.806334 9.494258
v 9.494247 14.806334 6.898037
v 9.494247 0.602505 6.898037
v 3.626458 0.602505 11.161113
v 3.626458 14.806334 11.161113
v 6.897964 14.806334 9.494258
v 6.897964 0.602505 9.494258
v -6.897978 0.602505 9.494258
v -6.897978 14.806334 9.494258
v -3.626461 14.806334 11.161113
v -3.626461 0.602505 11.161113
v -9.494246 0.602505 6.898037
v -9.494246 14.806334 6.898037
v -6.897978 14.806334 9.494258
v -6.897978 0.602505 9.494258
v -11.161152 0.602505 3.626475
v -11.161152 14.806334 3.626475
v -9.494246 14.806334 6.898037
v -9.494246 0.602505 6.898037
v -11.735518 0.602505 0.000005
v -11.735518 14.806334 0.000005
v -11.161152 14.806334 3.626475
v -11.161152 0.602505 3.626475
v -11.161152 0.602505 -3.626448
v -11.161152 14.806334 -3.626448
v -11.735518 14.806334 0.000005
v -11.735518 0.602505 0.000005
v 3.626459 0.602505 -11.161103
v 3.626459 14.806334 -11.161103
v -0.000001 14.806334 -11.735560
v -0.000001 0.602505 -11.735560
v -0.000001 0.602505 -11.735560
v -0.000001 14.806334 -11.735560
v -3.626461 14.806334 -11.161103
v -3.626461 0.602505 -11.161103
v -0.000001 0.602505 11.735563
v -0.000001 14.806334 11.735563
v 3.626458 14.806334 11.161113
v 3.626458 0.602505 11.161113
v -3.626461 0.602505 11.161113
v -3.626461 14.806334 11.161113
v -0.000001 14.806334 11.735563
v -0.000001 0.602505 11.735563
vt 0.500154 0.500458
vt 2.145141 1.695252
vt 2.433982 1.128358
vt 2.533508 0.499970
vt 2.433982 -0.128421
vt 2.145144 -0.695312
vt 1.695267 -1.145183
vt 1.128380 -1.434018
vt 1.695259 2.145105
vt 1.128369 2.433916
vt 0.499981 2.533471
vt -0.128404 2.433950
vt -0.695285 2.145120
vt -1.145167 1.695249
vt -1.434007 1.128354
vt -1.533533 0.499967
vt -1.434007 -0.128423
vt -1.145167 -0.695315
vt -0.695285 -1.145188
vt -0.128401 -1.434021
vt 0.499989 -1.533562
vt 0.000002 0.086439
vt 0.000002 1.086439
vt 1.000001 1.086439
vt 1.000001 0.086439
vt -0.000005 0.086441
vt -0.000005 1.086441
vt 0.999994 1.086440
vt 0.999994 0.086440
vt -0.000008 0.086447
vt -0.000008 1.086447
vt 0.999993 1.086446
vt 0.999993 0.086446
vt 0.000003 0.086453
vt 0.000003 1.086453
vt 1.000003 1.086454
vt 1.000003 0.086454
vt 0.000004 0.086441
vt 0.000004 1.086441
vt 1.000002 1.086441
vt 1.000002 0.086441
vt -0.000002 0.086441
vt -0.000002 1.086441
vt 0.999999 1.086444
vt 0.999999 0.086444
vt -0.000002 0.086445
vt -0.000002 1.086445
vt 0.999998 1.086444
vt 0.999998 0.086444
vt 0.000003 0.086441
vt 0.000003 1.086441
vt 1.000003 1.086441
vt 1.000003 0.086441
vt -0.000001 0.086439
vt -0.000001 1.086439
vt 0.999999 1.086438
vt 0.999999 0.086438
vt -0.000005 0.086448
vt -0.000005 1.086448
vt 0.999994 1.086450
vt 0.999994 0.086450
vt 0.000010 0.086446
vt 0.000010 1.086446
vt 1.000009 1.086446
vt 1.000009 0.086446
vt -0.000002 0.086442
vt -0.000002 1.086442
vt 0.999997 1.086442
vt 0.999997 0.086442
vt -0.000001 0.086443
vt -0.000001 1.086443
vt 0.999998 1.086443
vt 0.999998 0.086443
vt -0.000004 0.086442
vt -0.000004 1.086442
vt 0.999996 1.086444
vt 0.999996 0.086444
vt -0.000005 0.086437
vt -0.000005 1.086437
vt 0.999995 1.086437
vt 0.999995 0.086437
vt 0.000005 0.086441
vt 0.000005 1.086441
vt 1.000005 1.086441
vt 1.000005 0.086441
vt -0.000001 0.086445
vt -0.000001 1.086445
vt 1.000000 1.086445
vt 1.000000 0.086445
vt -0.000004 0.086448
vt -0.000004 1.086448
vt 0.999996 1.086448
vt 0.999996 0.086448
vt -0.000003 0.086445
vt -0.000003 1.086445
vt 0.999997 1.086445
vt 0.999997 0.086445
vt -0.000009 0.086437
vt -0.000009 1.086437
vt 0.999990 1.086436
vt 0.999990 0.086436
vn 0.000000 1.000000 0.000000
vn 0.000000 1.000000 0.000000
vn 0.000000 1.000000 0.000000
vn 0.000000 1.000000 0.000000
vn 0.000000 1.000000 0.000000
vn 0.000000 1.000000 0.000000
vn 0.000000 1.000000 0.000000
vn 0.000000 1.000000 0.000000
vn 0.000000 1.000000 0.000000
vn 0.000000 1.000000 0.000000
vn 0.000000 1.000000 0.000000
vn 0.000000 1.000000 0.000000
vn 0.000000 1.000000 0.000000
vn 0.000000 1.000000 0.000000
vn 0.000000 1.000000 0.000000
vn 0.000000 1.000000 0.000000
vn 0.000000 1.000000 0.000000
vn 0.000000 1.000000 0.000000
vn 0.000000 1.000000 0.000000
vn 0.000000 1.000000 0.000000
vn 0.000000 1.000000 0.000000
vn 0.891012 0.000000 0.453980
vn 0.891012 0.000000 0.453980
vn 0.891012 0.000000 0.453980
vn 0.891012 0.000000 0.453980
vn 0.707101 0.000000 0.707112
vn 0.707101 0.000000 0.707112
vn 0.707101 0.000000 0.707112
vn 0.707101 0.000000 0.707112
vn 0.453976 0.000000 0.891014
vn 0.453976 0.000000 0.891014
vn 0.453976 0.000000 0.891014
vn 0.453976 0.000000 0.891014
vn -0.453980 0.000000 0.891012
vn -0.453980 0.000000 0.891012
vn -0.453980 0.000000 0.891012
vn -0.453980 0.000000 0.891012
vn -0.707097 0.000000 0.707117
vn -0.707097 0.000000 0.707117
vn -0.707097 0.000000 0.707117
vn -0.707097 0.000000 0.707117
vn -0.891012 0.000000 0.453980
vn -0.891012 0.000000 0.453980
vn -0.891012 0.000000 0.453980
vn -0.891012 0.000000 0.453980
vn -0.987689 0.000000 0.156433
vn -0.987689 0.000000 0.156433
vn -0.987689 0.000000 0.156433
vn -0.987689 0.000000 0.156433
vn -0.987689 0.000000 -0.156432
vn -0.987689 0.000000 -0.156432
vn -0.987689 0.000000 -0.156432
vn -0.987689 0.000000 -0.156432
vn -0.891011 0.000000 -0.453982
vn -0.891011 0.000000 -0.453982
vn -0.891011 0.000000 -0.453982
vn -0.891011 0.000000 -0.453982
vn -0.707098 0.000000 -0.707115
vn -0.707098 0.000000 -0.707115
vn -0.707098 0.000000 -0.707115
vn -0.707098 0.000000 -0.707115
vn -0.453978 0.000000 -0.891013
vn -0.453978 0.000000 -0.891013
vn -0.453978 0.000000 -0.891013
vn -0.453978 0.000000 -0.891013
vn 0.453976 0.000000 -0.891014
vn 0.453976 0.000000 -0.891014
vn 0.453976 0.000000 -0.891014
vn 0.453976 0.000000 -0.891014
vn 0.707100 0.000000 -0.707113
vn 0.707100 0.000000 -0.707113
vn 0.707100 0.000000 -0.707113
vn 0.707100 0.000000 -0.707113
vn 0.891011 0.000000 -0.453982
vn 0.891011 0.000000 -0.453982
vn 0.891011 0.000000 -0.453982
vn 0.891011 0.000000 -0.453982
vn 0.987689 0.000000 -0.156432
vn 0.987689 0.000000 -0.156432
vn 0.987689 0.000000 -0.156432
vn 0.987689 0.000000 -0.156432
vn 0.987689 0.000000 0.156432
vn 0.987689 0.000000 0.156432
vn 0.987689 0.000000 0.156432
vn 0.987689 0.000000 0.156432
vn -0.156456 0.000000 0.987685
vn -0.156456 0.000000 0.987685
vn -0.156456 0.000000 0.987685
vn -0.156456 0.000000 0.987685
vn 0.156456 0.000000 0.987685
vn 0.156456 0.000000 0.987685
vn 0.156456 0.000000 0.987685
vn 0.156456 0.000000 0.987685
vn -0.156455 0.000000 -0.987685
vn -0.156455 0.000000 -0.987685
vn -0.156455 0.000000 -0.987685
vn -0.156455 0.000000 -0.987685
vn 0.156455 0.000000 -0.987685
vn 0.156455 0.000000 -0.987685
vn 0.156455 0.000000 -0.987685
vn 0.156455 0.000000 -0.987685
usemtl material
f 1/0/1 2/0/2 3/0/3
f 1/0/1 3/0/3 4/0/4
f 1/0/1 4/0/4 5/0/5
f 1/0/1 5/0/5 6/0/6
f 1/0/1 6/0/6 7/0/7
f 1/0/1 7/0/7 8/0/8
f 9/0/9 2/0/2 1/0/1
f 10/0/10 9/0/9 1/0/1
f 10/0/10 1/0/1 11/0/11
f 11/0/11 1/0/1 12/0/12
f 13/0/13 12/0/12 1/0/1
f 1/0/1 14/0/14 13/0/13
f 1/0/1 15/0/15 14/0/14
f 1/0/1 16/0/16 15/0/15
f 1/0/1 17/0/17 16/0/16
f 1/0/1 18/0/18 17/0/17
f 19/0/19 18/0/18 1/0/1
f 20/0/20 19/0/19 1/0/1
f 20/0/20 1/0/1 21/0/21
f 21/0/21 1/0/1 8/0/8
f 22/0/22 23/0/23 24/0/24
f 22/0/22 24/0/24 25/0/25
f 26/0/26 27/0/27 28/0/28
f 26/0/26 28/0/28 29/0/29
f 30/0/30 31/0/31 32/0/32
f 30/0/30 32/0/32 33/0/33
f 34/0/34 35/0/35 36/0/36
f 34/0/34 36/0/36 37/0/37
f 38/0/38 39/0/39 40/0/40
f 38/0/38 40/0/40 41/0/41
f 42/0/42 43/0/43 44/0/44
f 42/0/42 44/0/44 45/0/45
f 46/0/46 47/0/47 48/0/48
f 46/0/46 48/0/48 49/0/49
f 50/0/50 51/0/51 52/0/52
f 50/0/50 52/0/52 53/0/53
f 54/0/54 55/0/55 56/0/56
f 54/0/54 56/0/56 57/0/57
f 58/0/58 59/0/59 60/0/60
f 58/0/58 60/0/60 61/0/61
f 62/0/62 63/0/63 64/0/64
f 62/0/62 64/0/64 65/0/65
f 66/0/66 67/0/67 68/0/68
f 66/0/66 68/0/68 69/0/69
f 70/0/70 71/0/71 72/0/72
f 70/0/70 72/0/72 73/0/73
f 74/0/74 75/0/75 76/0/76
f 74/0/74 76/0/76 77/0/77
f 78/0/78 79/0/79 80/0/80
f 78/0/78 80/0/80 81/0/81
f 82/0/82 83/0/83 84/0/84
f 82/0/82 84/0/84 85/0/85
f 86/0/86 87/0/87 88/0/88
f 86/0/86 88/0/88 89/0/89
f 90/0/90 91/0/91 92/0/92
f 90/0/90 92/0/92 93/0/93
f 94/0/94 95/0/95 96/0/96
f 94/0/94 96/0/96 97/0/97
f 98/0/98 99/0/99 100/0/100
f 98/0/98 100/0/100 101/0/101
