# 
# Wavefront OBJ file
# Created with Kaydara FBX
# 
mtllib collision03b.mtl

g Collision03b
v 8.704374 -0.000001 5.253994
v -9.899023 -0.000001 5.253994
v -9.899023 9.324234 5.253994
v 8.704374 9.324234 5.253994
v -9.899023 9.324234 -4.942741
v -9.899023 -0.000001 -4.942741
v 8.704374 -0.000001 -3.901530
v 8.704374 9.324234 -3.901530
v 6.851495 -0.000001 -3.901530
v 6.851495 9.324234 -3.901530
v 2.949947 -0.000001 -5.658712
v 2.949947 9.324234 -5.658712
v -8.224993 9.324234 -6.118721
v -8.224993 -0.000001 -6.118721
v -6.196163 9.324234 -9.007681
v -6.196163 -0.000001 -9.007681
v -5.060233 9.324234 -12.367651
v -5.060233 -0.000001 -12.367651
v 2.949947 -0.000001 -5.658712
v 2.949947 9.324234 -5.658712
v 3.885029 9.324234 -13.357883
v 3.885029 -0.000001 -13.357883
v -1.341449 -0.000001 -14.320269
v -1.341449 9.324234 -14.320269
v -3.765952 -0.000001 -15.635110
v -3.765952 9.324234 -15.635110
v -5.060233 -0.000001 -12.367651
v -5.060233 9.324234 -12.367651
v -5.060233 -0.000001 -12.367651
v -1.341449 -0.000001 -14.320269
v -3.765952 -0.000001 -15.635110
v -6.196163 -0.000001 -9.007681
v 3.885029 -0.000001 -13.357883
v -1.341449 -0.000001 -14.320269
v -5.060233 -0.000001 -12.367651
v 2.949947 -0.000001 -5.658712
v 3.885029 -0.000001 -13.357883
v -8.224993 -0.000001 -6.118721
v 2.949947 -0.000001 -5.658712
v -6.196163 -0.000001 -9.007681
v -9.899023 -0.000001 -4.942741
v 6.851495 -0.000001 -3.901530
v 2.949947 -0.000001 -5.658712
v -8.224993 -0.000001 -6.118721
v -9.899023 -0.000001 -4.942741
v -9.899023 -0.000001 5.253994
v 6.851495 -0.000001 -3.901530
v -9.899023 -0.000001 5.253994
v 8.704374 -0.000001 5.253994
v 8.704374 -0.000001 -3.901530
vt 0.375000 0.000000
vt 0.625000 0.000000
vt 0.625000 0.250000
vt 0.375000 0.250000
vt 0.736631 0.250000
vt 0.736631 0.000000
vt 0.265877 0.000000
vt 0.265877 0.250000
vt 0.195438 0.000000
vt 0.195438 0.250000
vt 0.125000 0.000000
vt 0.125000 0.250000
vt 0.773139 0.250000
vt 0.773139 0.000000
vt 0.822850 0.250000
vt 0.822850 0.000000
vt 0.875000 0.250000
vt 0.875000 0.000000
vt 0.375000 0.750000
vt 0.375000 0.500000
vt 0.445630 0.500000
vt 0.445630 0.750000
vt 0.512758 0.750000
vt 0.512758 0.500000
vt 0.568879 0.750000
vt 0.568879 0.500000
vt 0.625000 0.750000
vt 0.625000 0.500000
vt 0.000000 0.000000
vt 0.906230 0.779159
vt 1.000000 0.000000
vt 0.000000 0.000000
vt 0.901044 1.000000
vt 0.807603 0.355224
vt 0.434819 0.000000
vt 0.643982 0.610088
vt 1.000000 0.000000
vt 0.000000 0.000000
vt 0.642531 1.000000
vt 0.375174 0.000000
vt 0.000000 0.097109
vt 1.000000 0.000000
vt 0.727462 0.000000
vt 0.126808 0.000000
vt 0.000000 0.377648
vt 0.266699 0.969812
vt 0.900401 0.000000
vt 0.000000 0.492142
vt 1.000000 0.492142
vt 1.000000 0.000000
vn -0.441565 0.000000 -0.897229
vn 0.480647 0.000000 -0.876914
vn 0.480647 0.000000 -0.876914
vn -0.441565 0.000000 -0.897229
vn 0.989339 0.000000 0.145628
vn 0.989339 0.000000 0.145628
vn -0.980130 0.000000 0.198357
vn -0.980130 0.000000 0.198357
vn -0.292049 0.000000 0.956403
vn -0.292049 0.000000 0.956403
vn -0.954153 0.000000 0.299319
vn -0.954153 0.000000 0.299319
vn 0.739264 0.000000 0.673415
vn 0.739264 0.000000 0.673415
vn 0.892114 0.000000 0.451810
vn 0.892114 0.000000 0.451810
vn 0.938869 0.000000 0.344274
vn 0.938869 0.000000 0.344274
vn -0.954153 0.000000 0.299319
vn -0.954153 0.000000 0.299319
vn -0.896051 0.000000 0.443951
vn -0.896051 0.000000 0.443951
vn -0.285271 0.000000 0.958447
vn -0.285271 0.000000 0.958447
vn 0.464882 0.000000 0.885373
vn 0.464882 0.000000 0.885373
vn 0.938869 0.000000 0.344274
vn 0.938869 0.000000 0.344274
vn 0.000000 1.000000 0.000000
vn 0.000000 1.000000 0.000000
vn 0.000000 1.000000 0.000000
vn 0.000000 1.000000 0.000000
vn 0.000000 1.000000 0.000000
vn 0.000000 1.000000 0.000000
vn 0.000000 1.000000 0.000000
vn 0.000000 1.000000 0.000000
vn 0.000000 1.000000 0.000000
vn 0.000000 1.000000 0.000000
vn 0.000000 1.000000 0.000000
vn 0.000000 1.000000 0.000000
vn 0.000000 1.000000 0.000000
vn 0.000000 1.000000 0.000000
vn 0.000000 1.000000 0.000000
vn 0.000000 1.000000 0.000000
vn 0.000000 1.000000 0.000000
vn 0.000000 1.000000 0.000000
vn 0.000000 1.000000 0.000000
vn 0.000000 1.000000 0.000000
vn 0.000000 1.000000 0.000000
vn 0.000000 1.000000 0.000000
usemtl material
f 1/0/1 2/0/2 3/0/3
f 1/0/1 3/0/3 4/0/4
f 2/0/2 5/0/5 3/0/3
f 2/0/2 6/0/6 5/0/5
f 7/0/7 1/0/1 4/0/4
f 7/0/7 4/0/4 8/0/8
f 9/0/9 7/0/7 8/0/8
f 9/0/9 8/0/8 10/0/10
f 11/0/11 9/0/9 10/0/10
f 11/0/11 10/0/10 12/0/12
f 6/0/6 13/0/13 5/0/5
f 6/0/6 14/0/14 13/0/13
f 14/0/14 15/0/15 13/0/13
f 14/0/14 16/0/16 15/0/15
f 16/0/16 17/0/17 15/0/15
f 16/0/16 18/0/18 17/0/17
f 19/0/19 20/0/20 21/0/21
f 19/0/19 21/0/21 22/0/22
f 21/0/21 23/0/23 22/0/22
f 21/0/21 24/0/24 23/0/23
f 24/0/24 25/0/25 23/0/23
f 24/0/24 26/0/26 25/0/25
f 26/0/26 27/0/27 25/0/25
f 26/0/26 28/0/28 27/0/27
f 29/0/29 30/0/30 31/0/31
f 32/0/32 33/0/33 34/0/34
f 32/0/32 34/0/34 35/0/35
f 32/0/32 36/0/36 37/0/37
f 38/0/38 39/0/39 40/0/40
f 41/0/41 42/0/42 43/0/43
f 41/0/41 43/0/43 44/0/44
f 45/0/45 46/0/46 42/0/42
f 47/0/47 48/0/48 49/0/49
f 47/0/47 49/0/49 50/0/50
