# 
# Wavefront OBJ file
# Created with Kaydara FBX
# 
mtllib collision03 #2279302.mtl

g Collision03
v -1.731894 0.000005 20.017746
v 3.352978 -0.000010 2.084990
v -3.308506 0.000010 1.996926
v 3.352978 -0.000010 -2.023767
v -3.660781 0.000011 -2.029514
v -0.177949 0.000000 -13.835563
v -5.149458 0.000016 -19.045189
v 4.660825 -0.000014 -8.753350
v 6.127695 -0.000018 -4.045005
v 7.414463 -0.000022 -4.722080
v 7.412031 -0.000022 -5.721841
v 4.658174 -0.000013 18.600803
v 6.137197 -0.000019 4.106213
v 7.414463 -0.000022 -4.722080
v 7.414463 6.176268 -4.722080
v 7.412031 6.176268 -5.721841
v 7.412031 -0.000022 -5.721841
v 7.412031 -0.000022 -5.721841
v 7.412031 6.176268 -5.721841
v 4.660825 6.176277 -8.753350
v 4.660825 -0.000014 -8.753350
v -3.308506 0.000010 1.996926
v -3.308506 6.176301 1.996926
v -1.731894 6.176296 20.017746
v -1.731894 0.000005 20.017746
v -3.660781 0.000011 -2.029514
v -3.660781 6.176302 -2.029514
v -3.308506 6.176301 1.996926
v -3.308506 0.000010 1.996926
v -5.149458 0.000016 -19.045189
v -5.149458 6.176306 -19.045189
v -3.660781 6.176302 -2.029514
v -3.660781 0.000011 -2.029514
v -0.177949 0.000000 -13.835563
v -0.177949 6.176291 -13.835563
v -5.149458 6.176306 -19.045189
v -5.149458 0.000016 -19.045189
v 3.352978 -0.000010 2.084990
v 3.352978 6.176280 2.084990
v 3.352978 6.176280 -2.023767
v 3.352978 -0.000010 -2.023767
v 3.352978 -0.000010 -2.023767
v 3.352978 6.176280 -2.023767
v 6.127695 6.176272 -4.045005
v 6.127695 -0.000018 -4.045005
v 6.137197 -0.000019 4.106213
v 6.137197 6.176272 4.106213
v 3.352978 6.176280 2.084990
v 3.352978 -0.000010 2.084990
v 4.660825 -0.000014 -8.753350
v 4.660825 6.176277 -8.753350
v -0.177949 6.176291 -13.835563
v -0.177949 0.000000 -13.835563
v 6.127695 -0.000018 -4.045005
v 6.127695 6.176272 -4.045005
v 7.414463 6.176268 -4.722080
v 7.414463 -0.000022 -4.722080
v -1.731894 0.000005 20.017746
v -1.731894 6.176296 20.017746
v 4.658174 6.176278 18.600803
v 4.658174 -0.000013 18.600803
v 4.658174 -0.000013 18.600803
v 4.658174 6.176278 18.600803
v 6.137197 6.176272 4.106213
v 6.137197 -0.000019 4.106213
vt 0.907592 0.353767
vt 0.575687 0.245427
vt 0.569147 0.370043
vt 0.498785 0.242410
vt 0.493527 0.373680
vt 0.275116 0.299823
vt 0.173959 0.389047
vt 0.373791 0.212990
vt 0.462992 0.188993
vt 0.451264 0.164412
vt 0.432550 0.163723
vt 0.885764 0.233127
vt 0.615562 0.194801
vt 0.000000 0.000000
vt 0.000000 1.000000
vt 1.000000 1.000000
vt 1.000000 0.000000
vt 0.000000 0.000000
vt 0.000000 1.000000
vt 1.000000 1.000000
vt 1.000000 0.000000
vt 0.000000 0.000000
vt 0.000000 1.000000
vt 1.000000 1.000000
vt 1.000000 0.000000
vt 0.000000 0.000000
vt 0.000000 1.000000
vt 1.000000 1.000000
vt 1.000000 0.000000
vt 0.000000 0.000000
vt 0.000000 1.000000
vt 1.000000 1.000000
vt 1.000000 0.000000
vt 0.000000 0.000000
vt 0.000000 1.000000
vt 1.000000 1.000000
vt 1.000000 0.000000
vt 0.000000 0.000000
vt 0.000000 1.000000
vt 1.000000 1.000000
vt 1.000000 0.000000
vt 0.000000 0.000000
vt 0.000000 1.000000
vt 1.000000 1.000000
vt 1.000000 0.000000
vt 0.000000 0.000000
vt 0.000000 1.000000
vt 1.000000 1.000000
vt 1.000000 0.000000
vt 0.000000 0.000000
vt 0.000000 1.000000
vt 1.000000 1.000000
vt 1.000000 0.000000
vt 0.000000 0.000000
vt 0.000000 1.000000
vt 1.000000 1.000000
vt 1.000000 0.000000
vt 0.000000 0.000000
vt 0.000000 1.000000
vt 1.000000 1.000000
vt 1.000000 0.000000
vt 0.000000 0.000000
vt 0.000000 1.000000
vt 1.000000 1.000000
vt 1.000000 0.000000
vn 0.000003 1.000000 0.000000
vn 0.000003 1.000000 0.000000
vn 0.000003 1.000000 0.000000
vn 0.000003 1.000000 0.000000
vn 0.000003 1.000000 0.000000
vn 0.000003 1.000000 0.000000
vn 0.000003 1.000000 0.000000
vn 0.000003 1.000000 0.000000
vn 0.000003 1.000000 0.000000
vn 0.000003 1.000000 0.000000
vn 0.000003 1.000000 0.000000
vn 0.000003 1.000000 0.000000
vn 0.000003 1.000000 0.000000
vn -0.999997 0.000000 0.002432
vn -0.999997 0.000000 0.002432
vn -0.999997 0.000000 0.002432
vn -0.999997 0.000000 0.002432
vn -0.740513 0.000000 0.672042
vn -0.740513 0.000000 0.672042
vn -0.740513 0.000000 0.672042
vn -0.740513 0.000000 0.672042
vn 0.996195 0.000000 -0.087155
vn 0.996195 0.000000 -0.087155
vn 0.996195 0.000000 -0.087155
vn 0.996195 0.000000 -0.087155
vn 0.996195 0.000000 -0.087158
vn 0.996195 0.000000 -0.087158
vn 0.996195 0.000000 -0.087158
vn 0.996195 0.000000 -0.087158
vn 0.996195 0.000000 -0.087156
vn 0.996195 0.000000 -0.087156
vn 0.996195 0.000000 -0.087156
vn 0.996195 0.000000 -0.087156
vn -0.723447 0.000000 0.690380
vn -0.723447 0.000000 0.690380
vn -0.723447 0.000000 0.690380
vn -0.723447 0.000000 0.690380
vn -1.000000 0.000000 0.000000
vn -1.000000 0.000000 0.000000
vn -1.000000 0.000000 0.000000
vn -1.000000 0.000000 0.000000
vn -0.588793 0.000000 -0.808284
vn -0.588793 0.000000 -0.808284
vn -0.588793 0.000000 -0.808284
vn -0.588793 0.000000 -0.808284
vn -0.587475 0.000000 0.809242
vn -0.587475 0.000000 0.809242
vn -0.587475 0.000000 0.809242
vn -0.587475 0.000000 0.809242
vn -0.724239 0.000000 0.689549
vn -0.724239 0.000000 0.689549
vn -0.724239 0.000000 0.689549
vn -0.724239 0.000000 0.689549
vn -0.465654 0.000000 -0.884967
vn -0.465654 0.000000 -0.884967
vn -0.465654 0.000000 -0.884967
vn -0.465654 0.000000 -0.884967
vn -0.216483 0.000000 -0.976286
vn -0.216483 0.000000 -0.976286
vn -0.216483 0.000000 -0.976286
vn -0.216483 0.000000 -0.976286
vn -0.994834 0.000000 -0.101513
vn -0.994834 0.000000 -0.101513
vn -0.994834 0.000000 -0.101513
vn -0.994834 0.000000 -0.101513
usemtl material
f 1/0/1 2/0/2 3/0/3
f 2/0/2 4/0/4 3/0/3
f 5/0/5 3/0/3 4/0/4
f 6/0/6 5/0/5 4/0/4
f 7/0/7 5/0/5 6/0/6
f 6/0/6 4/0/4 8/0/8
f 4/0/4 9/0/9 8/0/8
f 9/0/9 10/0/10 8/0/8
f 8/0/8 10/0/10 11/0/11
f 1/0/1 12/0/12 2/0/2
f 2/0/2 12/0/12 13/0/13
f 14/0/14 15/0/15 16/0/16
f 14/0/14 16/0/16 17/0/17
f 18/0/18 19/0/19 20/0/20
f 18/0/18 20/0/20 21/0/21
f 22/0/22 23/0/23 24/0/24
f 22/0/22 24/0/24 25/0/25
f 26/0/26 27/0/27 28/0/28
f 26/0/26 28/0/28 29/0/29
f 30/0/30 31/0/31 32/0/32
f 30/0/30 32/0/32 33/0/33
f 34/0/34 35/0/35 36/0/36
f 34/0/34 36/0/36 37/0/37
f 38/0/38 39/0/39 40/0/40
f 38/0/38 40/0/40 41/0/41
f 42/0/42 43/0/43 44/0/44
f 42/0/42 44/0/44 45/0/45
f 46/0/46 47/0/47 48/0/48
f 46/0/46 48/0/48 49/0/49
f 50/0/50 51/0/51 52/0/52
f 50/0/50 52/0/52 53/0/53
f 54/0/54 55/0/55 56/0/56
f 54/0/54 56/0/56 57/0/57
f 58/0/58 59/0/59 60/0/60
f 58/0/58 60/0/60 61/0/61
f 62/0/62 63/0/63 64/0/64
f 62/0/62 64/0/64 65/0/65
