# 
# Wavefront OBJ file
# Created with Kaydara FBX
# 
mtllib collision03 #2255735.mtl

g Collision03
v 3.576787 0.030665 -26.523129
v 3.576787 0.030665 -30.480341
v -3.845216 0.030665 -30.480341
v -3.845216 0.030665 -24.274387
v -3.038610 0.030665 -23.468813
v 6.479043 0.030665 8.584799
v 6.479043 0.030665 -26.523129
v -3.038610 0.030665 -10.338820
v -11.996430 0.030665 -2.819118
v -10.219234 0.030665 0.155083
v -10.219234 0.030665 8.584799
v -11.996430 0.030665 0.155083
v -3.038610 0.030665 -10.338820
v -3.038610 16.000000 -10.338820
v -11.996430 16.000000 -2.819118
v -11.996430 0.030665 -2.819118
v -3.038610 0.030665 -23.468813
v -3.038610 16.000000 -23.468813
v -3.038610 16.000000 -10.338820
v -3.038610 0.030665 -10.338820
v 3.576787 0.030665 -30.480341
v 3.576787 16.000000 -30.480341
v -3.845216 16.000000 -30.480341
v -3.845216 0.030665 -30.480341
v 6.479043 0.030665 8.584799
v 6.479043 16.000000 8.584799
v 6.479043 16.000000 -26.523129
v 6.479043 0.030665 -26.523129
v -10.219234 0.030665 8.584799
v -10.219234 16.000000 8.584799
v 6.479043 16.000000 8.584799
v 6.479043 0.030665 8.584799
v -10.219234 0.030665 0.155083
v -10.219234 16.000000 0.155083
v -10.219234 16.000000 8.584799
v -10.219234 0.030665 8.584799
v -11.996430 0.030665 0.155083
v -11.996430 16.000000 0.155083
v -10.219234 16.000000 0.155083
v -10.219234 0.030665 0.155083
v -11.996430 0.030665 -2.819118
v -11.996430 16.000000 -2.819118
v -11.996430 16.000000 0.155083
v -11.996430 0.030665 0.155083
v 6.479043 0.030665 -26.523129
v 6.479043 16.000000 -26.523129
v 3.576787 16.000000 -26.523129
v 3.576787 0.030665 -26.523129
v 3.576787 0.030665 -26.523129
v 3.576787 16.000000 -26.523129
v 3.576787 16.000000 -30.480341
v 3.576787 0.030665 -30.480341
v -3.845216 0.030665 -24.274387
v -3.845216 16.000000 -24.274387
v -3.038610 16.000000 -23.468813
v -3.038610 0.030665 -23.468813
v -3.845216 0.030665 -30.480341
v -3.845216 16.000000 -30.480341
v -3.845216 16.000000 -24.274387
v -3.845216 0.030665 -24.274387
vt 0.932383 0.071810
vt 0.898575 0.035905
vt 0.864766 0.000000
vt 0.780683 0.078563
vt 0.696599 0.157126
vt 0.304883 0.807910
vt 1.000000 0.143621
vt 0.528432 0.314252
vt 0.194007 0.314252
vt 0.097003 0.404370
vt 0.000000 0.494488
vt 0.145505 0.359311
vt 0.000000 0.000000
vt 0.000000 1.000000
vt 1.000000 1.000000
vt 1.000000 0.000000
vt 0.500000 0.000000
vt 0.500000 1.000000
vt 1.000000 1.000000
vt 1.000000 0.000000
vt 0.750000 0.000000
vt 0.750000 1.000000
vt 1.000000 1.000000
vt 1.000000 0.000000
vt 0.000000 0.000000
vt 0.000000 1.000000
vt 1.000000 1.000000
vt 1.000000 0.000000
vt 0.000000 0.000000
vt 0.000000 1.000000
vt 1.000000 1.000000
vt 1.000000 0.000000
vt 0.500000 0.000000
vt 0.500000 1.000000
vt 1.000000 1.000000
vt 1.000000 0.000000
vt 0.250000 0.000000
vt 0.250000 1.000000
vt 0.500000 1.000000
vt 0.500000 0.000000
vt 0.000000 0.000000
vt 0.000000 1.000000
vt 0.250000 1.000000
vt 0.250000 0.000000
vt 0.000000 0.000000
vt 0.000000 1.000000
vt 0.500000 1.000000
vt 0.500000 0.000000
vt 0.500000 0.000000
vt 0.500000 1.000000
vt 0.750000 1.000000
vt 0.750000 0.000000
vt 0.250000 0.000000
vt 0.250000 1.000000
vt 0.500000 1.000000
vt 0.500000 0.000000
vt 0.000000 0.000000
vt 0.000000 1.000000
vt 0.250000 1.000000
vt 0.250000 0.000000
vn 0.000000 1.000000 0.000000
vn 0.000000 1.000000 0.000000
vn 0.000000 1.000000 0.000000
vn 0.000000 1.000000 0.000000
vn 0.000000 1.000000 0.000000
vn 0.000000 1.000000 0.000000
vn 0.000000 1.000000 0.000000
vn 0.000000 1.000000 0.000000
vn 0.000000 1.000000 0.000000
vn 0.000000 1.000000 0.000000
vn 0.000000 1.000000 0.000000
vn 0.000000 1.000000 0.000000
vn 0.642948 0.000000 0.765910
vn 0.642948 0.000000 0.765910
vn 0.642948 0.000000 0.765910
vn 0.642948 0.000000 0.765910
vn 1.000000 0.000000 0.000000
vn 1.000000 0.000000 0.000000
vn 1.000000 0.000000 0.000000
vn 1.000000 0.000000 0.000000
vn 0.000000 0.000000 1.000000
vn 0.000000 0.000000 1.000000
vn 0.000000 0.000000 1.000000
vn 0.000000 0.000000 1.000000
vn -1.000000 0.000000 0.000000
vn -1.000000 0.000000 0.000000
vn -1.000000 0.000000 0.000000
vn -1.000000 0.000000 0.000000
vn 0.000000 0.000000 -1.000000
vn 0.000000 0.000000 -1.000000
vn 0.000000 0.000000 -1.000000
vn 0.000000 0.000000 -1.000000
vn 1.000000 0.000000 0.000000
vn 1.000000 0.000000 0.000000
vn 1.000000 0.000000 0.000000
vn 1.000000 0.000000 0.000000
vn 0.000000 0.000000 -1.000000
vn 0.000000 0.000000 -1.000000
vn 0.000000 0.000000 -1.000000
vn 0.000000 0.000000 -1.000000
vn 1.000000 0.000000 0.000000
vn 1.000000 0.000000 0.000000
vn 1.000000 0.000000 0.000000
vn 1.000000 0.000000 0.000000
vn 0.000000 0.000000 1.000000
vn 0.000000 0.000000 1.000000
vn 0.000000 0.000000 1.000000
vn 0.000000 0.000000 1.000000
vn -1.000000 0.000000 0.000000
vn -1.000000 0.000000 0.000000
vn -1.000000 0.000000 0.000000
vn -1.000000 0.000000 0.000000
vn 0.706654 0.000000 -0.707559
vn 0.706654 0.000000 -0.707559
vn 0.706654 0.000000 -0.707559
vn 0.706654 0.000000 -0.707559
vn 1.000000 0.000000 0.000000
vn 1.000000 0.000000 0.000000
vn 1.000000 0.000000 0.000000
vn 1.000000 0.000000 0.000000
usemtl material
f 1/0/1 2/0/2 3/0/3
f 3/0/3 4/0/4 1/0/1
f 1/0/1 4/0/4 5/0/5
f 1/0/1 5/0/5 6/0/6
f 6/0/6 7/0/7 1/0/1
f 5/0/5 8/0/8 6/0/6
f 8/0/8 9/0/9 6/0/6
f 9/0/9 10/0/10 6/0/6
f 10/0/10 11/0/11 6/0/6
f 12/0/12 10/0/10 9/0/9
f 13/0/13 14/0/14 15/0/15
f 13/0/13 15/0/15 16/0/16
f 17/0/17 18/0/18 19/0/19
f 17/0/17 19/0/19 20/0/20
f 21/0/21 22/0/22 23/0/23
f 21/0/21 23/0/23 24/0/24
f 25/0/25 26/0/26 27/0/27
f 25/0/25 27/0/27 28/0/28
f 29/0/29 30/0/30 31/0/31
f 29/0/29 31/0/31 32/0/32
f 33/0/33 34/0/34 35/0/35
f 33/0/33 35/0/35 36/0/36
f 37/0/37 38/0/38 39/0/39
f 37/0/37 39/0/39 40/0/40
f 41/0/41 42/0/42 43/0/43
f 41/0/41 43/0/43 44/0/44
f 45/0/45 46/0/46 47/0/47
f 45/0/45 47/0/47 48/0/48
f 49/0/49 50/0/50 51/0/51
f 49/0/49 51/0/51 52/0/52
f 53/0/53 54/0/54 55/0/55
f 53/0/53 55/0/55 56/0/56
f 57/0/57 58/0/58 59/0/59
f 57/0/57 59/0/59 60/0/60
