# 
# Wavefront OBJ file
# Created with Kaydara FBX
# 
mtllib collision04 #2255414.mtl

g Collision04
v -10.751926 0.000000 1.762270
v -10.751926 0.000000 11.835018
v 12.246518 0.000000 1.762269
v -9.378367 0.000000 13.220555
v 10.867717 0.000000 13.220555
v 12.246518 0.000000 11.862768
v -10.751926 0.000000 -5.635503
v 12.246518 0.000000 -5.635503
v -10.751926 0.000000 -5.635503
v -23.332899 0.000000 -5.635503
v -23.332899 0.000000 1.762270
v -10.751926 0.000000 1.762270
v -23.332899 0.000000 -5.635503
v -26.847670 0.000000 -5.635503
v -26.847670 0.000000 1.762269
v -23.332899 0.000000 1.762270
v -26.847670 0.000000 1.762269
v -23.332899 0.000000 10.304114
v -26.847670 0.000000 10.304114
v 12.246518 0.000000 -5.635503
v 12.246518 17.271814 -5.635503
v -10.751926 17.271814 -5.635503
v -10.751926 0.000000 -5.635503
v 10.867717 0.000000 13.220555
v 10.867717 17.271814 13.220555
v 12.246518 17.271814 11.862768
v 12.246518 0.000000 11.862768
v 12.246518 0.000000 1.762269
v 12.246518 17.271814 1.762269
v -9.378367 0.000000 13.220555
v -9.378367 17.271814 13.220555
v 10.867717 17.271814 13.220555
v 10.867717 0.000000 13.220555
v -10.751926 0.000000 1.762270
v -10.751926 17.271814 1.762270
v -10.751926 17.271814 11.835018
v -10.751926 0.000000 11.835018
v -9.378367 0.000000 13.220555
v -9.378367 17.271814 13.220555
v 12.246518 0.000000 1.762269
v 12.246518 17.271814 1.762269
v 12.246518 17.271814 -5.635503
v 12.246518 0.000000 -5.635503
v -23.332899 0.000000 1.762270
v -23.332899 17.271814 1.762270
v -10.751926 17.271814 1.762270
v -10.751926 0.000000 1.762270
v -10.751926 0.000000 -5.635503
v -10.751926 17.271814 -5.635503
v -23.332899 17.271814 -5.635503
v -23.332899 0.000000 -5.635503
v -23.332899 0.000000 -5.635503
v -23.332899 17.271814 -5.635503
v -26.847670 17.271814 -5.635503
v -26.847670 0.000000 -5.635503
v -26.847670 0.000000 -5.635503
v -26.847670 17.271814 -5.635503
v -26.847670 17.271814 1.762269
v -26.847670 0.000000 1.762269
v -23.332899 0.000000 10.304114
v -23.332899 17.271814 10.304114
v -23.332899 17.271814 1.762270
v -23.332899 0.000000 1.762270
v -26.847670 0.000000 1.762269
v -26.847670 17.271814 1.762269
v -26.847670 17.271814 10.304114
v -26.847670 0.000000 10.304114
v -26.847670 0.000000 10.304114
v -26.847670 17.271814 10.304114
v -23.332899 17.271814 10.304114
v -23.332899 0.000000 10.304114
v -11.016357 -0.000001 4.238216
v -11.016357 9.108232 4.238216
v -8.312973 9.108232 4.238215
v -8.312972 -0.000001 4.238215
v -8.312972 -0.000001 4.238215
v -8.312973 9.108232 4.238215
v -8.312973 9.108232 11.417542
v -8.312972 -0.000001 11.417542
v -8.312973 9.108232 11.417542
v -3.904936 9.108232 11.417542
v -3.904934 -0.000001 11.417542
v -8.312972 -0.000001 11.417542
v -3.904936 9.108232 11.417542
v -3.904936 9.108232 13.212960
v -3.904934 -0.000001 13.212960
v -3.904934 -0.000001 11.417542
v 4.633389 -0.000001 11.613408
v 4.633389 9.108232 11.613408
v 8.059871 9.108232 11.613407
v 8.059872 -0.000001 11.613407
v 8.059872 -0.000001 11.613407
v 8.059871 9.108232 11.613407
v 8.059871 9.108232 13.152172
v 8.059872 -0.000001 13.152172
v 4.633389 -0.000001 11.613408
v 4.633389 -0.000001 13.152172
v 4.633389 9.108232 13.152172
v 4.633389 9.108232 11.613408
vt 0.867274 0.719340
vt 0.867274 0.334129
vt 0.000000 0.719340
vt 0.867274 0.284630
vt 0.000000 0.284630
vt 0.000000 0.336142
vt 0.867274 1.000000
vt 0.000000 1.000000
vt 0.000000 0.000000
vt 0.000000 1.000000
vt 1.000000 1.000000
vt 1.000000 0.000000
vt 0.000000 0.000000
vt 0.000000 1.000000
vt 1.000000 1.000000
vt 1.000000 0.000000
vt 0.000000 0.000000
vt 1.000000 1.000000
vt 0.000000 1.000000
vt 0.000000 0.000000
vt 0.000000 1.000000
vt 1.000000 1.000000
vt 1.000000 0.000000
vt 0.000000 0.000000
vt 0.000000 1.000000
vt 0.118498 1.000000
vt 0.118498 0.000000
vt 1.000000 0.000000
vt 1.000000 1.000000
vt 0.000000 0.000000
vt 0.000000 1.000000
vt 1.000000 1.000000
vt 1.000000 0.000000
vt 0.000000 0.000000
vt 0.000000 1.000000
vt 0.886131 1.000000
vt 0.886131 0.000000
vt 1.000000 0.000000
vt 1.000000 1.000000
vt 0.000000 0.000000
vt 0.000000 1.000000
vt 1.000000 1.000000
vt 1.000000 0.000000
vt 0.000000 0.000000
vt 0.000000 1.000000
vt 1.000000 1.000000
vt 1.000000 0.000000
vt 0.000000 0.000000
vt 0.000000 1.000000
vt 1.000000 1.000000
vt 1.000000 0.000000
vt 0.000000 0.000000
vt 0.000000 1.000000
vt 1.000000 1.000000
vt 1.000000 0.000000
vt 0.000000 0.000000
vt 0.000000 1.000000
vt 1.000000 1.000000
vt 1.000000 0.000000
vt 0.000000 0.000000
vt 0.000000 1.000000
vt 1.000000 1.000000
vt 1.000000 0.000000
vt 0.000000 0.000000
vt 0.000000 1.000000
vt 1.000000 1.000000
vt 1.000000 0.000000
vt 0.000000 0.000000
vt 0.000000 1.000000
vt 1.000000 1.000000
vt 1.000000 0.000000
vt 0.375000 0.000000
vt 0.375000 0.250000
vt 0.625000 0.250000
vt 0.625000 0.000000
vt 0.625000 0.000000
vt 0.625000 0.250000
vt 0.875000 0.250000
vt 0.875000 0.000000
vt 0.000000 0.000000
vt 0.000000 1.000000
vt 1.000000 1.000000
vt 1.000000 0.000000
vt 0.000000 0.000000
vt 0.000000 1.000000
vt 1.000000 1.000000
vt 1.000000 0.000000
vt 0.375000 0.000000
vt 0.375000 0.250000
vt 0.625000 0.250000
vt 0.625000 0.000000
vt 0.625000 0.000000
vt 0.625000 0.250000
vt 0.875000 0.250000
vt 0.875000 0.000000
vt 0.000000 0.000000
vt 0.000000 1.000000
vt 1.000000 1.000000
vt 1.000000 0.000000
vn 0.000000 1.000000 0.000000
vn 0.000000 1.000000 0.000000
vn 0.000000 1.000000 0.000000
vn 0.000000 1.000000 0.000000
vn 0.000000 1.000000 0.000000
vn 0.000000 1.000000 0.000000
vn 0.000000 1.000000 0.000000
vn 0.000000 1.000000 0.000000
vn 0.000000 1.000000 0.000000
vn 0.000000 1.000000 0.000000
vn 0.000000 1.000000 0.000000
vn 0.000000 1.000000 0.000000
vn 0.000000 1.000000 0.000000
vn 0.000000 1.000000 0.000000
vn 0.000000 1.000000 0.000000
vn 0.000000 1.000000 0.000000
vn 0.000000 1.000000 0.000000
vn 0.000000 1.000000 0.000000
vn 0.000000 1.000000 0.000000
vn 0.000000 0.000000 1.000000
vn 0.000000 0.000000 1.000000
vn 0.000000 0.000000 1.000000
vn 0.000000 0.000000 1.000000
vn -0.701656 0.000000 -0.712516
vn -0.701656 0.000000 -0.712516
vn -0.992838 0.000000 -0.119470
vn -0.992838 0.000000 -0.119470
vn -1.000000 0.000000 0.000000
vn -1.000000 0.000000 0.000000
vn 0.000000 0.000000 -1.000000
vn 0.000000 0.000000 -1.000000
vn 0.000000 0.000000 -1.000000
vn 0.000000 0.000000 -1.000000
vn 1.000000 0.000000 0.000000
vn 1.000000 0.000000 0.000000
vn 0.992892 0.000000 -0.119023
vn 0.992892 0.000000 -0.119023
vn 0.710170 0.000000 -0.704030
vn 0.710170 0.000000 -0.704030
vn -1.000000 0.000000 0.000000
vn -1.000000 0.000000 0.000000
vn -1.000000 0.000000 0.000000
vn -1.000000 0.000000 0.000000
vn 0.000000 0.000000 -1.000000
vn 0.000000 0.000000 -1.000000
vn 0.000000 0.000000 -1.000000
vn 0.000000 0.000000 -1.000000
vn 0.000000 0.000000 1.000000
vn 0.000000 0.000000 1.000000
vn 0.000000 0.000000 1.000000
vn 0.000000 0.000000 1.000000
vn 0.000000 0.000000 1.000000
vn 0.000000 0.000000 1.000000
vn 0.000000 0.000000 1.000000
vn 0.000000 0.000000 1.000000
vn 1.000000 0.000000 0.000000
vn 1.000000 0.000000 0.000000
vn 1.000000 0.000000 0.000000
vn 1.000000 0.000000 0.000000
vn -1.000000 0.000000 0.000000
vn -1.000000 0.000000 0.000000
vn -1.000000 0.000000 0.000000
vn -1.000000 0.000000 0.000000
vn 1.000000 0.000000 0.000000
vn 1.000000 0.000000 0.000000
vn 1.000000 0.000000 0.000000
vn 1.000000 0.000000 0.000000
vn 0.000000 0.000000 -1.000000
vn 0.000000 0.000000 -1.000000
vn 0.000000 0.000000 -1.000000
vn 0.000000 0.000000 -1.000000
vn -0.000001 0.000000 -1.000000
vn -0.000001 0.000000 -1.000000
vn -0.000001 0.000000 -1.000000
vn -0.000001 0.000000 -1.000000
vn 1.000000 0.000000 0.000000
vn 1.000000 0.000000 0.000000
vn 1.000000 0.000000 0.000000
vn 1.000000 0.000000 0.000000
vn 0.000000 0.000000 -1.000000
vn 0.000000 0.000000 -1.000000
vn 0.000000 0.000000 -1.000000
vn 0.000000 0.000000 -1.000000
vn 1.000000 0.000000 0.000000
vn 1.000000 0.000000 0.000000
vn 1.000000 0.000000 0.000000
vn 1.000000 0.000000 0.000000
vn -0.000000 0.000000 -1.000000
vn -0.000000 0.000000 -1.000000
vn -0.000000 0.000000 -1.000000
vn -0.000000 0.000000 -1.000000
vn 1.000000 0.000000 0.000000
vn 1.000000 0.000000 0.000000
vn 1.000000 0.000000 0.000000
vn 1.000000 0.000000 0.000000
vn -1.000000 0.000000 0.000000
vn -1.000000 0.000000 0.000000
vn -1.000000 0.000000 0.000000
vn -1.000000 0.000000 0.000000
usemtl material
f 1/0/1 2/0/2 3/0/3
f 2/0/2 4/0/4 3/0/3
f 4/0/4 5/0/5 3/0/3
f 5/0/5 6/0/6 3/0/3
f 3/0/3 7/0/7 1/0/1
f 3/0/3 8/0/8 7/0/7
f 9/0/9 10/0/10 11/0/11
f 9/0/9 11/0/11 12/0/12
f 13/0/13 14/0/14 15/0/15
f 13/0/13 15/0/15 16/0/16
f 17/0/17 18/0/18 16/0/16
f 17/0/17 19/0/19 18/0/18
f 20/0/20 21/0/21 22/0/22
f 20/0/20 22/0/22 23/0/23
f 24/0/24 25/0/25 26/0/26
f 24/0/24 26/0/26 27/0/27
f 26/0/26 28/0/28 27/0/27
f 26/0/26 29/0/29 28/0/28
f 30/0/30 31/0/31 32/0/32
f 30/0/30 32/0/32 33/0/33
f 34/0/34 35/0/35 36/0/36
f 34/0/34 36/0/36 37/0/37
f 36/0/36 38/0/38 37/0/37
f 36/0/36 39/0/39 38/0/38
f 40/0/40 41/0/41 42/0/42
f 40/0/40 42/0/42 43/0/43
f 44/0/44 45/0/45 46/0/46
f 44/0/44 46/0/46 47/0/47
f 48/0/48 49/0/49 50/0/50
f 48/0/48 50/0/50 51/0/51
f 52/0/52 53/0/53 54/0/54
f 52/0/52 54/0/54 55/0/55
f 56/0/56 57/0/57 58/0/58
f 56/0/56 58/0/58 59/0/59
f 60/0/60 61/0/61 62/0/62
f 60/0/60 62/0/62 63/0/63
f 64/0/64 65/0/65 66/0/66
f 64/0/64 66/0/66 67/0/67
f 68/0/68 69/0/69 70/0/70
f 68/0/68 70/0/70 71/0/71
f 72/0/72 73/0/73 74/0/74
f 72/0/72 74/0/74 75/0/75
f 76/0/76 77/0/77 78/0/78
f 76/0/76 78/0/78 79/0/79
f 80/0/80 81/0/81 82/0/82
f 80/0/80 82/0/82 83/0/83
f 84/0/84 85/0/85 86/0/86
f 84/0/84 86/0/86 87/0/87
f 88/0/88 89/0/89 90/0/90
f 88/0/88 90/0/90 91/0/91
f 92/0/92 93/0/93 94/0/94
f 92/0/92 94/0/94 95/0/95
f 96/0/96 97/0/97 98/0/98
f 96/0/96 98/0/98 99/0/99
