# 
# Wavefront OBJ file
# Created with Kaydara FBX
# 
mtllib collision1_4.mtl

g Collision1_4
v -0.011243 -0.000000 0.020723
v -13.282810 -0.000000 -3.389258
v -13.282810 -0.000000 0.010020
v -13.282810 -0.000000 3.280083
v -0.011243 -0.000000 0.020723
v -13.282810 -0.000000 0.010020
v -13.276215 -0.000000 6.793203
v -0.011243 -0.000000 0.020723
v -13.282810 -0.000000 3.280083
v -11.994546 -0.000000 7.059819
v -0.011243 -0.000000 0.020723
v -10.683539 -0.000000 7.805615
v -9.598608 -0.000000 9.023256
v -9.206004 -0.000000 9.798969
v -2.792152 -0.000000 9.612934
v -8.934635 -0.000000 10.998266
v -2.603485 -0.000000 10.998266
v -0.137355 -0.000000 9.612934
v -0.144217 -0.000000 10.998266
v -13.282810 -0.000000 -3.389258
v -0.011243 -0.000000 0.020723
v -13.276215 -0.000000 -6.876489
v -0.011243 -0.000000 0.020723
v -11.265790 -0.000000 -7.463823
v -10.383842 -0.000000 -8.229946
v -9.571770 -0.000001 -9.084355
v -2.792152 -0.000001 -9.727461
v -9.043108 -0.000001 -10.121416
v -2.603485 -0.000000 -11.121074
v -9.132517 -0.000000 -11.112798
v -0.144217 -0.000000 -11.138237
v -0.137355 -0.000000 -9.727461
v -0.137355 -0.000000 -9.727461
v 6.132604 -0.000000 -9.727461
v 5.928876 -0.000000 -11.155576
v -0.144217 -0.000000 -11.138237
v -0.011243 -0.000000 0.020723
v 8.244517 -0.000000 -11.162476
v 8.457395 -0.000000 -10.003540
v 9.047104 -0.000000 -8.928276
v 10.043883 -0.000000 -7.973466
v 11.426950 -0.000000 -7.087226
v 12.633191 -0.000001 -6.881606
v -0.011243 -0.000000 0.020723
v 12.639760 -0.000001 -5.476372
v -0.137355 -0.000000 9.612934
v 3.506042 -0.000000 9.612934
v -0.011243 -0.000000 0.020723
v -0.144217 -0.000000 10.998266
v 3.302314 -0.000000 10.998266
v 9.118338 -0.000000 8.783823
v 10.095960 -0.000000 7.768013
v 8.374698 -0.000000 9.713941
v 8.224377 -0.000000 10.998266
v -0.011243 -0.000000 0.020723
v 11.481194 -0.000000 7.097749
v 12.633191 -0.000001 6.836924
v -0.011243 -0.000000 0.020723
v 12.639760 -0.000001 3.278174
v 12.639760 -0.000001 -5.476372
v -0.011243 -0.000000 0.020723
v 12.639760 -0.000001 0.009932
v -0.011243 -0.000000 0.020723
v 12.639760 -0.000001 3.278174
v 12.639760 -0.000001 0.009932
v 12.633191 -0.000001 6.836924
v 12.633191 11.947480 6.836924
v 12.639760 11.947480 3.278174
v 12.639760 -0.000001 3.278174
v 11.481194 -0.000000 7.097749
v 11.481194 11.947480 7.097749
v 12.633191 11.947480 6.836924
v 12.633191 -0.000001 6.836924
v 8.224377 -0.000000 10.998266
v 8.224377 11.947480 10.998266
v 8.374698 11.947480 9.713941
v 8.374698 -0.000000 9.713941
v 8.374698 -0.000000 9.713941
v 8.374698 11.947480 9.713941
v 9.118338 11.947480 8.783823
v 9.118338 -0.000000 8.783823
v 9.118338 -0.000000 8.783823
v 9.118338 11.947480 8.783823
v 10.095960 11.947480 7.768013
v 10.095960 -0.000000 7.768013
v 10.095960 -0.000000 7.768013
v 10.095960 11.947480 7.768013
v 11.481194 11.947480 7.097749
v 11.481194 -0.000000 7.097749
v 12.639760 -0.000001 -5.476372
v 12.639760 11.947480 -5.476372
v 12.633191 11.947480 -6.881606
v 12.633191 -0.000001 -6.881606
v 12.639760 -0.000001 0.009932
v 12.639760 11.947480 0.009932
v 12.639760 11.947480 -5.476372
v 12.639760 -0.000001 -5.476372
v 12.639760 -0.000001 3.278174
v 12.639760 11.947480 3.278174
v 12.639760 11.947480 0.009932
v 12.639760 -0.000001 0.009932
v 12.633191 -0.000001 -6.881606
v 12.633191 11.947480 -6.881606
v 11.426950 11.947480 -7.087226
v 11.426950 -0.000000 -7.087226
v 8.457395 -0.000000 -10.003540
v 8.457395 11.947480 -10.003540
v 8.244517 11.947480 -11.162476
v 8.244517 -0.000000 -11.162476
v 9.047104 -0.000000 -8.928276
v 9.047104 11.947480 -8.928276
v 8.457395 11.947480 -10.003540
v 8.457395 -0.000000 -10.003540
v 10.043883 -0.000000 -7.973466
v 10.043883 11.947480 -7.973466
v 9.047104 11.947480 -8.928276
v 9.047104 -0.000000 -8.928276
v 11.426950 -0.000000 -7.087226
v 11.426950 11.947480 -7.087226
v 10.043883 11.947480 -7.973466
v 10.043883 -0.000000 -7.973466
v -13.282810 -0.000000 3.280083
v -13.282810 11.947480 3.280083
v -13.276215 11.947480 6.793203
v -13.276215 -0.000000 6.793203
v -13.276215 -0.000000 6.793203
v -13.276215 11.947480 6.793203
v -11.994546 11.947480 7.059819
v -11.994546 -0.000000 7.059819
v -9.206004 -0.000000 9.798969
v -9.206004 11.947480 9.798969
v -8.934635 11.947480 10.998266
v -8.934635 -0.000000 10.998266
v -9.598608 -0.000000 9.023256
v -9.598608 11.947480 9.023256
v -9.206004 11.947480 9.798969
v -9.206004 -0.000000 9.798969
v -10.683539 -0.000000 7.805615
v -10.683539 11.947480 7.805615
v -9.598608 11.947480 9.023256
v -9.598608 -0.000000 9.023256
v -11.994546 -0.000000 7.059819
v -11.994546 11.947480 7.059819
v -10.683539 11.947480 7.805615
v -10.683539 -0.000000 7.805615
v -13.276215 -0.000000 -6.876489
v -13.276215 11.947480 -6.876489
v -13.282810 11.947480 -3.389258
v -13.282810 -0.000000 -3.389258
v -13.282810 -0.000000 -3.389258
v -13.282810 11.947480 -3.389258
v -13.282810 11.947480 0.010020
v -13.282810 -0.000000 0.010020
v -13.282810 -0.000000 0.010020
v -13.282810 11.947480 0.010020
v -13.282810 11.947480 3.280083
v -13.282810 -0.000000 3.280083
v -11.265790 -0.000000 -7.463823
v -11.265790 11.947480 -7.463823
v -13.276215 11.947480 -6.876489
v -13.276215 -0.000000 -6.876489
v -9.132517 -0.000000 -11.112798
v -9.132517 11.947480 -11.112798
v -9.043108 11.947480 -10.121416
v -9.043108 -0.000001 -10.121416
v -9.043108 -0.000001 -10.121416
v -9.043108 11.947480 -10.121416
v -9.571770 11.947480 -9.084355
v -9.571770 -0.000001 -9.084355
v -9.571770 -0.000001 -9.084355
v -9.571770 11.947480 -9.084355
v -10.383842 11.947480 -8.229946
v -10.383842 -0.000000 -8.229946
v -10.383842 -0.000000 -8.229946
v -10.383842 11.947480 -8.229946
v -11.265790 11.947480 -7.463823
v -11.265790 -0.000000 -7.463823
v -2.603485 -0.000000 -11.121074
v -2.603485 11.947480 -11.121074
v -9.132517 11.947480 -11.112798
v -9.132517 -0.000000 -11.112798
v 3.302314 -0.000000 10.998266
v 3.302314 11.947480 10.998266
v 8.224377 11.947480 10.998266
v 8.224377 -0.000000 10.998266
v 5.928876 -0.000000 -11.155576
v 5.928876 11.947480 -11.155576
v -0.144217 11.947480 -11.138237
v -0.144217 -0.000000 -11.138237
v -2.603485 -0.000000 10.998266
v -2.603485 11.947480 10.998266
v -0.144217 11.947480 10.998266
v -0.144217 -0.000000 10.998266
v -0.144217 -0.000000 -11.138237
v -0.144217 11.947480 -11.138237
v -2.603485 11.947480 -11.121074
v -2.603485 -0.000000 -11.121074
v -8.934635 -0.000000 10.998266
v -8.934635 11.947480 10.998266
v -2.603485 11.947480 10.998266
v -2.603485 -0.000000 10.998266
v 8.244517 -0.000000 -11.162476
v 8.244517 11.947480 -11.162476
v 5.928876 11.947480 -11.155576
v 5.928876 -0.000000 -11.155576
v -0.144217 -0.000000 10.998266
v -0.144217 11.947480 10.998266
v 3.302314 11.947480 10.998266
v 3.302314 -0.000000 10.998266
vt 0.759936 0.597129
vt 0.851290 0.684622
vt 0.851290 0.509635
vt 0.851290 0.508143
vt 0.759936 0.595637
vt 0.851290 0.683130
vt 0.851189 0.642186
vt 0.759902 0.668791
vt 0.851290 0.684503
vt 0.824255 0.635053
vt 0.700473 0.614035
vt 0.797855 0.615132
vt 0.775359 0.583456
vt 0.761668 0.543728
vt 0.699707 0.543728
vt 0.757321 0.509187
vt 0.696785 0.509187
vt 0.568130 0.543728
vt 0.568236 0.509187
vt 0.851290 0.505963
vt 0.759902 0.521675
vt 0.851189 0.548281
vt 0.700473 0.576431
vt 0.824255 0.555413
vt 0.797855 0.575334
vt 0.775359 0.607011
vt 0.699707 0.646738
vt 0.761668 0.646738
vt 0.696785 0.681483
vt 0.757321 0.681280
vt 0.568236 0.681915
vt 0.568130 0.646738
vt 0.845528 0.646738
vt 0.713031 0.646738
vt 0.716186 0.682350
vt 0.845634 0.681915
vt 0.710147 0.576431
vt 0.665559 0.682521
vt 0.661212 0.646738
vt 0.647521 0.607011
vt 0.625025 0.575334
vt 0.598625 0.555413
vt 0.571692 0.548281
vt 0.648028 0.521675
vt 0.571590 0.505963
vt 0.845528 0.543728
vt 0.713031 0.543728
vt 0.774144 0.583456
vt 0.845634 0.509187
vt 0.716186 0.509187
vt 0.647521 0.583456
vt 0.625025 0.615132
vt 0.661212 0.543728
vt 0.665559 0.509187
vt 0.667482 0.634422
vt 0.598625 0.635053
vt 0.571692 0.642186
vt 0.648028 0.668791
vt 0.571590 0.684503
vt 0.571590 0.684622
vt 0.647991 0.597129
vt 0.571590 0.509635
vt 0.647991 0.595637
vt 0.571590 0.508143
vt 0.571590 0.683130
vt 0.000000 0.000000
vt 0.000000 1.000000
vt 1.000000 1.000000
vt 1.000000 0.000000
vt 0.000000 0.000000
vt 0.000000 1.000000
vt 1.000000 1.000000
vt 1.000000 0.000000
vt 0.000000 0.000000
vt 0.000000 1.000000
vt 1.000000 1.000000
vt 1.000000 0.000000
vt 0.000000 0.000000
vt 0.000000 1.000000
vt 1.000000 1.000000
vt 1.000000 0.000000
vt 0.000000 0.000000
vt 0.000000 1.000000
vt 1.000000 1.000000
vt 1.000000 0.000000
vt 0.000000 0.000000
vt 0.000000 1.000000
vt 1.000000 1.000000
vt 1.000000 0.000000
vt 0.000000 0.000000
vt 0.000000 1.000000
vt 1.000000 1.000000
vt 1.000000 0.000000
vt 0.000000 0.000000
vt 0.000000 1.000000
vt 1.000000 1.000000
vt 1.000000 0.000000
vt 0.000000 0.000000
vt 0.000000 1.000000
vt 1.000000 1.000000
vt 1.000000 0.000000
vt 0.000000 0.000000
vt 0.000000 1.000000
vt 1.000000 1.000000
vt 1.000000 0.000000
vt 0.000000 0.000000
vt 0.000000 1.000000
vt 1.000000 1.000000
vt 1.000000 0.000000
vt 0.000000 0.000000
vt 0.000000 1.000000
vt 1.000000 1.000000
vt 1.000000 0.000000
vt 0.000000 0.000000
vt 0.000000 1.000000
vt 1.000000 1.000000
vt 1.000000 0.000000
vt 0.000000 0.000000
vt 0.000000 1.000000
vt 1.000000 1.000000
vt 1.000000 0.000000
vt 0.000000 0.000000
vt 0.000000 1.000000
vt 1.000000 1.000000
vt 1.000000 0.000000
vt 0.000000 0.000000
vt 0.000000 1.000000
vt 1.000000 1.000000
vt 1.000000 0.000000
vt 0.000000 0.000000
vt 0.000000 1.000000
vt 1.000000 1.000000
vt 1.000000 0.000000
vt 0.000000 0.000000
vt 0.000000 1.000000
vt 1.000000 1.000000
vt 1.000000 0.000000
vt 0.000000 0.000000
vt 0.000000 1.000000
vt 1.000000 1.000000
vt 1.000000 0.000000
vt 0.000000 0.000000
vt 0.000000 1.000000
vt 1.000000 1.000000
vt 1.000000 0.000000
vt 0.000000 0.000000
vt 0.000000 1.000000
vt 1.000000 1.000000
vt 1.000000 0.000000
vt 0.000000 0.000000
vt 0.000000 1.000000
vt 1.000000 1.000000
vt 1.000000 0.000000
vt 0.000000 0.000000
vt 0.000000 1.000000
vt 1.000000 1.000000
vt 1.000000 0.000000
vt 0.000000 0.000000
vt 0.000000 1.000000
vt 1.000000 1.000000
vt 1.000000 0.000000
vt 0.000000 0.000000
vt 0.000000 1.000000
vt 1.000000 1.000000
vt 1.000000 0.000000
vt 0.000000 0.000000
vt 0.000000 1.000000
vt 1.000000 1.000000
vt 1.000000 0.000000
vt 0.000000 0.000000
vt 0.000000 1.000000
vt 1.000000 1.000000
vt 1.000000 0.000000
vt 0.000000 0.000000
vt 0.000000 1.000000
vt 1.000000 1.000000
vt 1.000000 0.000000
vt 0.000000 0.000000
vt 0.000000 1.000000
vt 1.000000 1.000000
vt 1.000000 0.000000
vt 0.000000 0.000000
vt 0.000000 1.000000
vt 1.000000 1.000000
vt 1.000000 0.000000
vt 0.000000 0.000000
vt 0.000000 1.000000
vt 1.000000 1.000000
vt 1.000000 0.000000
vt 0.000000 0.000000
vt 0.000000 1.000000
vt 1.000000 1.000000
vt 1.000000 0.000000
vt 0.000000 0.000000
vt 0.000000 1.000000
vt 1.000000 1.000000
vt 1.000000 0.000000
vt 0.000000 0.000000
vt 0.000000 1.000000
vt 1.000000 1.000000
vt 1.000000 0.000000
vt 0.000000 0.000000
vt 0.000000 1.000000
vt 1.000000 1.000000
vt 1.000000 0.000000
vt 0.000000 0.000000
vt 0.000000 1.000000
vt 1.000000 1.000000
vt 1.000000 0.000000
vn 0.000000 1.000000 0.000000
vn 0.000000 1.000000 0.000000
vn 0.000000 1.000000 0.000000
vn 0.000000 1.000000 0.000000
vn 0.000000 1.000000 0.000000
vn 0.000000 1.000000 0.000000
vn 0.000000 1.000000 0.000000
vn 0.000000 1.000000 0.000000
vn 0.000000 1.000000 0.000000
vn 0.000000 1.000000 0.000000
vn 0.000000 1.000000 0.000000
vn 0.000000 1.000000 0.000000
vn 0.000000 1.000000 0.000000
vn 0.000000 1.000000 0.000000
vn 0.000000 1.000000 0.000000
vn 0.000000 1.000000 0.000000
vn 0.000000 1.000000 0.000000
vn 0.000000 1.000000 0.000000
vn 0.000000 1.000000 0.000000
vn 0.000000 1.000000 0.000000
vn 0.000000 1.000000 0.000000
vn 0.000000 1.000000 0.000000
vn 0.000000 1.000000 0.000000
vn 0.000000 1.000000 0.000000
vn 0.000000 1.000000 0.000000
vn 0.000000 1.000000 0.000000
vn 0.000000 1.000000 0.000000
vn 0.000000 1.000000 0.000000
vn 0.000000 1.000000 0.000000
vn 0.000000 1.000000 0.000000
vn 0.000000 1.000000 0.000000
vn 0.000000 1.000000 0.000000
vn 0.000000 1.000000 0.000000
vn 0.000000 1.000000 0.000000
vn 0.000000 1.000000 0.000000
vn 0.000000 1.000000 0.000000
vn 0.000000 1.000000 0.000000
vn 0.000000 1.000000 0.000000
vn 0.000000 1.000000 0.000000
vn 0.000000 1.000000 0.000000
vn 0.000000 1.000000 0.000000
vn 0.000000 1.000000 0.000000
vn 0.000000 1.000000 0.000000
vn 0.000000 1.000000 0.000000
vn 0.000000 1.000000 0.000000
vn 0.000000 1.000000 0.000000
vn 0.000000 1.000000 0.000000
vn 0.000000 1.000000 0.000000
vn 0.000000 1.000000 0.000000
vn 0.000000 1.000000 0.000000
vn 0.000000 1.000000 0.000000
vn 0.000000 1.000000 0.000000
vn 0.000000 1.000000 0.000000
vn 0.000000 1.000000 0.000000
vn 0.000000 1.000000 0.000000
vn 0.000000 1.000000 0.000000
vn 0.000000 1.000000 0.000000
vn 0.000000 1.000000 0.000000
vn 0.000000 1.000000 0.000000
vn 0.000000 1.000000 0.000000
vn 0.000000 1.000000 0.000000
vn 0.000000 1.000000 0.000000
vn 0.000000 1.000000 0.000000
vn 0.000000 1.000000 0.000000
vn 0.000000 1.000000 0.000000
vn -0.999998 0.000000 -0.001846
vn -0.999998 0.000000 -0.001846
vn -0.999998 0.000000 -0.001846
vn -0.999998 0.000000 -0.001846
vn -0.220822 0.000000 -0.975314
vn -0.220822 0.000000 -0.975314
vn -0.220822 0.000000 -0.975314
vn -0.220822 0.000000 -0.975314
vn -0.993220 0.000000 -0.116249
vn -0.993220 0.000000 -0.116249
vn -0.993220 0.000000 -0.116249
vn -0.993220 0.000000 -0.116249
vn -0.781055 0.000000 -0.624463
vn -0.781055 0.000000 -0.624463
vn -0.781055 0.000000 -0.624463
vn -0.781055 0.000000 -0.624463
vn -0.720521 0.000000 -0.693434
vn -0.720521 0.000000 -0.693434
vn -0.720521 0.000000 -0.693434
vn -0.720521 0.000000 -0.693434
vn -0.435555 0.000000 -0.900162
vn -0.435555 0.000000 -0.900162
vn -0.435555 0.000000 -0.900162
vn -0.435555 0.000000 -0.900162
vn -0.999989 0.000000 0.004675
vn -0.999989 0.000000 0.004675
vn -0.999989 0.000000 0.004675
vn -0.999989 0.000000 0.004675
vn -1.000000 0.000000 0.000000
vn -1.000000 0.000000 0.000000
vn -1.000000 0.000000 0.000000
vn -1.000000 0.000000 0.000000
vn -1.000000 0.000000 0.000000
vn -1.000000 0.000000 0.000000
vn -1.000000 0.000000 0.000000
vn -1.000000 0.000000 0.000000
vn -0.168040 0.000000 0.985780
vn -0.168040 0.000000 0.985780
vn -0.168040 0.000000 0.985780
vn -0.168040 0.000000 0.985780
vn -0.983545 0.000000 0.180661
vn -0.983545 0.000000 0.180661
vn -0.983545 0.000000 0.180661
vn -0.983545 0.000000 0.180661
vn -0.876796 0.000000 0.480863
vn -0.876796 0.000000 0.480863
vn -0.876796 0.000000 0.480863
vn -0.876796 0.000000 0.480863
vn -0.691740 0.000000 0.722146
vn -0.691740 0.000000 0.722146
vn -0.691740 0.000000 0.722146
vn -0.691740 0.000000 0.722146
vn -0.539519 0.000000 0.841974
vn -0.539519 0.000000 0.841974
vn -0.539519 0.000000 0.841974
vn -0.539519 0.000000 0.841974
vn 0.999998 0.000000 -0.001877
vn 0.999998 0.000000 -0.001877
vn 0.999998 0.000000 -0.001877
vn 0.999998 0.000000 -0.001877
vn 0.203663 0.000000 -0.979041
vn 0.203663 0.000000 -0.979041
vn 0.203663 0.000000 -0.979041
vn 0.203663 0.000000 -0.979041
vn 0.975343 0.000000 -0.220695
vn 0.975343 0.000000 -0.220695
vn 0.975343 0.000000 -0.220695
vn 0.975343 0.000000 -0.220695
vn 0.892232 0.000000 -0.451577
vn 0.892232 0.000000 -0.451577
vn 0.892232 0.000000 -0.451577
vn 0.892232 0.000000 -0.451577
vn 0.746622 0.000000 -0.665248
vn 0.746622 0.000000 -0.665248
vn 0.746622 0.000000 -0.665248
vn 0.746622 0.000000 -0.665248
vn 0.494463 0.000000 -0.869198
vn 0.494463 0.000000 -0.869198
vn 0.494463 0.000000 -0.869198
vn 0.494463 0.000000 -0.869198
vn 0.999998 0.000000 0.001891
vn 0.999998 0.000000 0.001891
vn 0.999998 0.000000 0.001891
vn 0.999998 0.000000 0.001891
vn 1.000000 0.000000 0.000000
vn 1.000000 0.000000 0.000000
vn 1.000000 0.000000 0.000000
vn 1.000000 0.000000 0.000000
vn 1.000000 0.000000 0.000000
vn 1.000000 0.000000 0.000000
vn 1.000000 0.000000 0.000000
vn 1.000000 0.000000 0.000000
vn 0.280422 0.000000 0.959877
vn 0.280422 0.000000 0.959877
vn 0.280422 0.000000 0.959877
vn 0.280422 0.000000 0.959877
vn 0.995958 0.000000 -0.089822
vn 0.995958 0.000000 -0.089822
vn 0.995958 0.000000 -0.089822
vn 0.995958 0.000000 -0.089822
vn 0.890918 0.000000 0.454163
vn 0.890918 0.000000 0.454163
vn 0.890918 0.000000 0.454163
vn 0.890918 0.000000 0.454163
vn 0.724837 0.000000 0.688920
vn 0.724837 0.000000 0.688920
vn 0.724837 0.000000 0.688920
vn 0.724837 0.000000 0.688920
vn 0.655794 0.000000 0.754939
vn 0.655794 0.000000 0.754939
vn 0.655794 0.000000 0.754939
vn 0.655794 0.000000 0.754939
vn 0.001268 0.000000 0.999999
vn 0.001268 0.000000 0.999999
vn 0.001268 0.000000 0.999999
vn 0.001268 0.000000 0.999999
vn 0.000000 0.000000 -1.000000
vn 0.000000 0.000000 -1.000000
vn 0.000000 0.000000 -1.000000
vn 0.000000 0.000000 -1.000000
vn 0.002855 0.000000 0.999996
vn 0.002855 0.000000 0.999996
vn 0.002855 0.000000 0.999996
vn 0.002855 0.000000 0.999996
vn 0.000000 0.000000 -1.000000
vn 0.000000 0.000000 -1.000000
vn 0.000000 0.000000 -1.000000
vn 0.000000 0.000000 -1.000000
vn 0.006979 0.000000 0.999976
vn 0.006979 0.000000 0.999976
vn 0.006979 0.000000 0.999976
vn 0.006979 0.000000 0.999976
vn 0.000000 0.000000 -1.000000
vn 0.000000 0.000000 -1.000000
vn 0.000000 0.000000 -1.000000
vn 0.000000 0.000000 -1.000000
vn 0.002980 0.000000 0.999996
vn 0.002980 0.000000 0.999996
vn 0.002980 0.000000 0.999996
vn 0.002980 0.000000 0.999996
vn 0.000000 0.000000 -1.000000
vn 0.000000 0.000000 -1.000000
vn 0.000000 0.000000 -1.000000
vn 0.000000 0.000000 -1.000000
usemtl material
f 1/0/1 2/0/2 3/0/3
f 4/0/4 5/0/5 6/0/6
f 7/0/7 8/0/8 9/0/9
f 10/0/10 11/0/11 7/0/7
f 12/0/12 11/0/11 10/0/10
f 13/0/13 11/0/11 12/0/12
f 14/0/14 11/0/11 13/0/13
f 14/0/14 15/0/15 11/0/11
f 16/0/16 15/0/15 14/0/14
f 16/0/16 17/0/17 15/0/15
f 15/0/15 18/0/18 11/0/11
f 17/0/17 18/0/18 15/0/15
f 17/0/17 19/0/19 18/0/18
f 20/0/20 21/0/21 22/0/22
f 23/0/23 24/0/24 22/0/22
f 23/0/23 25/0/25 24/0/24
f 25/0/25 23/0/23 26/0/26
f 27/0/27 26/0/26 23/0/23
f 27/0/27 28/0/28 26/0/26
f 28/0/28 27/0/27 29/0/29
f 28/0/28 29/0/29 30/0/30
f 27/0/27 31/0/31 29/0/29
f 27/0/27 32/0/32 31/0/31
f 32/0/32 27/0/27 23/0/23
f 33/0/33 34/0/34 35/0/35
f 33/0/33 35/0/35 36/0/36
f 34/0/34 33/0/33 37/0/37
f 34/0/34 38/0/38 35/0/35
f 34/0/34 39/0/39 38/0/38
f 39/0/39 34/0/34 37/0/37
f 39/0/39 37/0/37 40/0/40
f 37/0/37 41/0/41 40/0/40
f 41/0/41 37/0/37 42/0/42
f 42/0/42 37/0/37 43/0/43
f 44/0/44 45/0/45 43/0/43
f 46/0/46 47/0/47 48/0/48
f 49/0/49 47/0/47 46/0/46
f 49/0/49 50/0/50 47/0/47
f 47/0/47 51/0/51 48/0/48
f 48/0/48 51/0/51 52/0/52
f 47/0/47 53/0/53 51/0/51
f 50/0/50 53/0/53 47/0/47
f 50/0/50 54/0/54 53/0/53
f 55/0/55 52/0/52 56/0/56
f 55/0/55 56/0/56 57/0/57
f 58/0/58 57/0/57 59/0/59
f 60/0/60 61/0/61 62/0/62
f 63/0/63 64/0/64 65/0/65
f 66/0/66 67/0/67 68/0/68
f 66/0/66 68/0/68 69/0/69
f 70/0/70 71/0/71 72/0/72
f 70/0/70 72/0/72 73/0/73
f 74/0/74 75/0/75 76/0/76
f 74/0/74 76/0/76 77/0/77
f 78/0/78 79/0/79 80/0/80
f 78/0/78 80/0/80 81/0/81
f 82/0/82 83/0/83 84/0/84
f 82/0/82 84/0/84 85/0/85
f 86/0/86 87/0/87 88/0/88
f 86/0/86 88/0/88 89/0/89
f 90/0/90 91/0/91 92/0/92
f 90/0/90 92/0/92 93/0/93
f 94/0/94 95/0/95 96/0/96
f 94/0/94 96/0/96 97/0/97
f 98/0/98 99/0/99 100/0/100
f 98/0/98 100/0/100 101/0/101
f 102/0/102 103/0/103 104/0/104
f 102/0/102 104/0/104 105/0/105
f 106/0/106 107/0/107 108/0/108
f 106/0/106 108/0/108 109/0/109
f 110/0/110 111/0/111 112/0/112
f 110/0/110 112/0/112 113/0/113
f 114/0/114 115/0/115 116/0/116
f 114/0/114 116/0/116 117/0/117
f 118/0/118 119/0/119 120/0/120
f 118/0/118 120/0/120 121/0/121
f 122/0/122 123/0/123 124/0/124
f 122/0/122 124/0/124 125/0/125
f 126/0/126 127/0/127 128/0/128
f 126/0/126 128/0/128 129/0/129
f 130/0/130 131/0/131 132/0/132
f 130/0/130 132/0/132 133/0/133
f 134/0/134 135/0/135 136/0/136
f 134/0/134 136/0/136 137/0/137
f 138/0/138 139/0/139 140/0/140
f 138/0/138 140/0/140 141/0/141
f 142/0/142 143/0/143 144/0/144
f 142/0/142 144/0/144 145/0/145
f 146/0/146 147/0/147 148/0/148
f 146/0/146 148/0/148 149/0/149
f 150/0/150 151/0/151 152/0/152
f 150/0/150 152/0/152 153/0/153
f 154/0/154 155/0/155 156/0/156
f 154/0/154 156/0/156 157/0/157
f 158/0/158 159/0/159 160/0/160
f 158/0/158 160/0/160 161/0/161
f 162/0/162 163/0/163 164/0/164
f 162/0/162 164/0/164 165/0/165
f 166/0/166 167/0/167 168/0/168
f 166/0/166 168/0/168 169/0/169
f 170/0/170 171/0/171 172/0/172
f 170/0/170 172/0/172 173/0/173
f 174/0/174 175/0/175 176/0/176
f 174/0/174 176/0/176 177/0/177
f 178/0/178 179/0/179 180/0/180
f 178/0/178 180/0/180 181/0/181
f 182/0/182 183/0/183 184/0/184
f 182/0/182 184/0/184 185/0/185
f 186/0/186 187/0/187 188/0/188
f 186/0/186 188/0/188 189/0/189
f 190/0/190 191/0/191 192/0/192
f 190/0/190 192/0/192 193/0/193
f 194/0/194 195/0/195 196/0/196
f 194/0/194 196/0/196 197/0/197
f 198/0/198 199/0/199 200/0/200
f 198/0/198 200/0/200 201/0/201
f 202/0/202 203/0/203 204/0/204
f 202/0/202 204/0/204 205/0/205
f 206/0/206 207/0/207 208/0/208
f 206/0/206 208/0/208 209/0/209
