# 
# Wavefront OBJ file
# Created with Kaydara FBX
# 
mtllib collision04 #2279303.mtl

g Collision04
v 3.528994 -0.000000 13.281051
v 3.528994 0.000000 -16.220697
v -3.340649 0.000000 -16.220697
v -3.340649 -0.000000 13.281051
v -3.340649 -0.000000 13.281051
v -3.340649 5.397945 13.281051
v 3.528994 5.397945 13.281051
v 3.528994 -0.000000 13.281051
v 3.528994 -0.000000 13.281051
v 3.528994 5.397945 13.281051
v 3.528994 5.397945 -16.220697
v 3.528994 0.000000 -16.220697
v -3.340649 0.000000 -16.220697
v -3.340649 5.397945 -16.220697
v -3.340649 5.397945 13.281051
v -3.340649 -0.000000 13.281051
v 3.528994 0.000000 -16.220697
v 3.528994 5.397945 -16.220697
v -3.340649 5.397945 -16.220697
v -3.340649 0.000000 -16.220697
vt 0.000000 0.000000
vt 0.000000 1.000000
vt 1.000000 1.000000
vt 1.000000 0.000000
vt 0.000000 0.000000
vt 0.000000 1.000000
vt 1.000000 1.000000
vt 1.000000 0.000000
vt 0.000000 0.000000
vt 0.000000 1.000000
vt 1.000000 1.000000
vt 1.000000 0.000000
vt 0.000000 0.000000
vt 0.000000 1.000000
vt 1.000000 1.000000
vt 1.000000 0.000000
vt 0.000000 0.000000
vt 0.000000 1.000000
vt 1.000000 1.000000
vt 1.000000 0.000000
vn 0.000000 1.000000 0.000000
vn 0.000000 1.000000 0.000000
vn 0.000000 1.000000 0.000000
vn 0.000000 1.000000 0.000000
vn 0.000000 0.000000 -1.000000
vn 0.000000 0.000000 -1.000000
vn 0.000000 0.000000 -1.000000
vn 0.000000 0.000000 -1.000000
vn -1.000000 0.000000 0.000000
vn -1.000000 0.000000 0.000000
vn -1.000000 0.000000 0.000000
vn -1.000000 0.000000 0.000000
vn 1.000000 0.000000 0.000000
vn 1.000000 0.000000 0.000000
vn 1.000000 0.000000 0.000000
vn 1.000000 0.000000 0.000000
vn 0.000000 0.000000 1.000000
vn 0.000000 0.000000 1.000000
vn 0.000000 0.000000 1.000000
vn 0.000000 0.000000 1.000000
usemtl material
f 1/0/1 2/0/2 3/0/3
f 1/0/1 3/0/3 4/0/4
f 5/0/5 6/0/6 7/0/7
f 5/0/5 7/0/7 8/0/8
f 9/0/9 10/0/10 11/0/11
f 9/0/9 11/0/11 12/0/12
f 13/0/13 14/0/14 15/0/15
f 13/0/13 15/0/15 16/0/16
f 17/0/17 18/0/18 19/0/19
f 17/0/17 19/0/19 20/0/20
