# 
# Wavefront OBJ file
# Created with Kaydara FBX
# 
mtllib collision #225663.mtl

g Collision
v 7.219729 -0.000000 -1.502518
v 7.219729 -0.000000 -8.984218
v -9.119592 -0.000000 -8.984218
v -6.666226 -0.000000 7.335569
v 7.219729 -0.000000 7.335569
v 7.219729 -0.000000 9.808685
v -6.666226 -0.000000 9.808685
v -9.119592 -0.000000 7.335569
v 7.219729 -0.000000 7.335569
v 9.653100 -0.000000 7.335569
v 9.653100 -0.000000 -1.502518
v 7.219729 -0.000000 -1.502518
v -6.666226 -0.000000 9.808685
v -6.666226 7.500000 9.808685
v 7.219729 7.500000 9.808685
v 7.219729 -0.000000 9.808685
v 7.219729 -0.000000 9.808685
v 7.219729 7.500000 9.808685
v 7.219729 7.500000 7.335569
v 7.219729 -0.000000 7.335569
v 7.219729 -0.000000 -8.984218
v 7.219729 7.500000 -8.984218
v -9.119592 7.500000 -8.984218
v -9.119592 -0.000000 -8.984218
v 7.219729 -0.000000 -1.502518
v 7.219729 7.500000 -1.502518
v 7.219729 7.500000 -8.984218
v 7.219729 -0.000000 -8.984218
v -9.119592 -0.000000 7.335569
v -9.119592 7.500000 7.335569
v -6.666226 7.500000 7.335569
v -6.666226 -0.000000 7.335569
v 7.219729 -0.000000 7.335569
v 7.219729 7.500000 7.335569
v 9.653100 7.500000 7.335569
v 9.653100 -0.000000 7.335569
v 9.653100 -0.000000 -1.502518
v 9.653100 7.500000 -1.502518
v 7.219729 7.500000 -1.502518
v 7.219729 -0.000000 -1.502518
v 9.653100 -0.000000 7.335569
v 9.653100 7.500000 7.335569
v 9.653100 7.500000 -1.502518
v 9.653100 -0.000000 -1.502518
v -9.119592 -0.000000 -8.984218
v -9.119592 7.500000 -8.984218
v -9.119592 7.500000 7.335569
v -9.119592 -0.000000 7.335569
v -6.666226 -0.000000 7.335569
v -6.666226 7.500000 7.335569
v -6.666226 7.500000 9.808685
v -6.666226 -0.000000 9.808685
vt 0.000000 0.281974
vt 0.000000 0.563949
vt 1.000000 0.563949
vt 1.000000 0.000000
vt 0.000000 0.140987
vt 0.000000 0.000000
vt 0.850274 0.000000
vt 1.000000 0.081610
vt 0.000000 0.000000
vt 0.000000 1.000000
vt 1.000000 1.000000
vt 1.000000 0.000000
vt 0.149726 0.000000
vt 0.149726 1.000000
vt 1.000000 1.000000
vt 1.000000 0.000000
vt 0.000000 0.000000
vt 0.000000 1.000000
vt 1.000000 1.000000
vt 1.000000 0.000000
vt 0.000000 0.000000
vt 0.000000 1.000000
vt 1.000000 1.000000
vt 1.000000 0.000000
vt 0.000000 0.000000
vt 0.000000 1.000000
vt 1.000000 1.000000
vt 1.000000 0.000000
vt 0.855289 0.000000
vt 0.855289 1.000000
vt 1.000000 1.000000
vt 1.000000 0.000000
vt 0.000000 0.000000
vt 0.000000 1.000000
vt 1.000000 1.000000
vt 1.000000 0.000000
vt 0.000000 0.000000
vt 0.000000 1.000000
vt 1.000000 1.000000
vt 1.000000 0.000000
vt 0.000000 0.000000
vt 0.000000 1.000000
vt 1.000000 1.000000
vt 1.000000 0.000000
vt 0.000000 0.000000
vt 0.000000 1.000000
vt 0.855289 1.000000
vt 0.855289 0.000000
vt 0.000000 0.000000
vt 0.000000 1.000000
vt 0.149726 1.000000
vt 0.149726 0.000000
vn 0.000000 1.000000 0.000000
vn 0.000000 1.000000 0.000000
vn 0.000000 1.000000 0.000000
vn 0.000000 1.000000 0.000000
vn 0.000000 1.000000 0.000000
vn 0.000000 1.000000 0.000000
vn 0.000000 1.000000 0.000000
vn 0.000000 1.000000 0.000000
vn 0.000000 1.000000 0.000000
vn 0.000000 1.000000 0.000000
vn 0.000000 1.000000 0.000000
vn 0.000000 1.000000 0.000000
vn 0.000000 0.000000 -1.000000
vn 0.000000 0.000000 -1.000000
vn 0.000000 0.000000 -1.000000
vn 0.000000 0.000000 -1.000000
vn -1.000000 0.000000 0.000000
vn -1.000000 0.000000 0.000000
vn -1.000000 0.000000 0.000000
vn -1.000000 0.000000 0.000000
vn 0.000000 0.000000 1.000000
vn 0.000000 0.000000 1.000000
vn 0.000000 0.000000 1.000000
vn 0.000000 0.000000 1.000000
vn -1.000000 0.000000 0.000000
vn -1.000000 0.000000 0.000000
vn -1.000000 0.000000 0.000000
vn -1.000000 0.000000 0.000000
vn 0.000000 0.000000 -1.000000
vn 0.000000 0.000000 -1.000000
vn 0.000000 0.000000 -1.000000
vn 0.000000 0.000000 -1.000000
vn 0.000000 0.000000 -1.000000
vn 0.000000 0.000000 -1.000000
vn 0.000000 0.000000 -1.000000
vn 0.000000 0.000000 -1.000000
vn 0.000000 0.000000 1.000000
vn 0.000000 0.000000 1.000000
vn 0.000000 0.000000 1.000000
vn 0.000000 0.000000 1.000000
vn -1.000000 0.000000 0.000000
vn -1.000000 0.000000 0.000000
vn -1.000000 0.000000 0.000000
vn -1.000000 0.000000 0.000000
vn 1.000000 0.000000 0.000000
vn 1.000000 0.000000 0.000000
vn 1.000000 0.000000 0.000000
vn 1.000000 0.000000 0.000000
vn 1.000000 0.000000 0.000000
vn 1.000000 0.000000 0.000000
vn 1.000000 0.000000 0.000000
vn 1.000000 0.000000 0.000000
usemtl material
f 1/0/1 2/0/2 3/0/3
f 4/0/4 1/0/1 3/0/3
f 4/0/4 5/0/5 1/0/1
f 4/0/4 6/0/6 5/0/5
f 4/0/4 7/0/7 6/0/6
f 4/0/4 3/0/3 8/0/8
f 9/0/9 10/0/10 11/0/11
f 9/0/9 11/0/11 12/0/12
f 13/0/13 14/0/14 15/0/15
f 13/0/13 15/0/15 16/0/16
f 17/0/17 18/0/18 19/0/19
f 17/0/17 19/0/19 20/0/20
f 21/0/21 22/0/22 23/0/23
f 21/0/21 23/0/23 24/0/24
f 25/0/25 26/0/26 27/0/27
f 25/0/25 27/0/27 28/0/28
f 29/0/29 30/0/30 31/0/31
f 29/0/29 31/0/31 32/0/32
f 33/0/33 34/0/34 35/0/35
f 33/0/33 35/0/35 36/0/36
f 37/0/37 38/0/38 39/0/39
f 37/0/37 39/0/39 40/0/40
f 41/0/41 42/0/42 43/0/43
f 41/0/41 43/0/43 44/0/44
f 45/0/45 46/0/46 47/0/47
f 45/0/45 47/0/47 48/0/48
f 49/0/49 50/0/50 51/0/51
f 49/0/49 51/0/51 52/0/52
