# 
# Wavefront OBJ file
# Created with Kaydara FBX
# 
mtllib collision03.mtl

g Collision03
v -11.893231 0.000000 -3.864345
v -10.116987 0.000000 -7.350420
v -10.116987 8.960794 -7.350420
v -11.893231 8.960794 -3.864345
v -7.350420 8.960794 -10.116986
v -7.350420 0.000000 -10.116986
v -3.864344 8.960794 -11.893229
v -3.864344 0.000000 -11.893229
v 0.000000 8.960794 -12.505280
v 0.000000 0.000000 -12.505280
v 3.864344 8.960794 -11.893229
v 3.864344 0.000000 -11.893229
v 7.350419 8.960794 -10.116984
v 7.350419 0.000000 -10.116984
v 10.116982 8.960794 -7.350418
v 10.116982 0.000000 -7.350418
v 11.893226 8.960794 -3.864343
v 11.893226 0.000000 -3.864343
v 12.505278 8.960794 0.000000
v 12.505278 0.000000 0.000000
v 11.893226 8.960794 3.864343
v 11.893226 0.000000 3.864343
v 10.116982 8.960794 7.350417
v 10.116982 0.000000 7.350417
v 7.350417 8.960794 10.116982
v 7.350417 0.000000 10.116982
v 3.864343 8.960794 11.893225
v 3.864343 0.000000 11.893225
v 0.000000 8.960794 12.505277
v 0.000000 0.000000 12.505277
v -3.864342 8.960794 11.893225
v -3.864342 0.000000 11.893225
v -7.350416 8.960794 10.116981
v -7.350416 0.000000 10.116981
v -10.116980 8.960794 7.350417
v -10.116980 0.000000 7.350417
v -11.893224 8.960794 3.864342
v -11.893224 0.000000 3.864342
v -12.505276 8.960794 0.000000
v -12.505276 0.000000 0.000000
v -11.893231 8.960794 -3.864345
v -11.893231 0.000000 -3.864345
v -10.116987 0.000000 -7.350420
v -11.893231 0.000000 -3.864345
v 0.000000 0.000000 0.000000
v -7.350420 0.000000 -10.116986
v -3.864344 0.000000 -11.893229
v 0.000000 0.000000 -12.505280
v 3.864344 0.000000 -11.893229
v 7.350419 0.000000 -10.116984
v 10.116982 0.000000 -7.350418
v 11.893226 0.000000 -3.864343
v 12.505278 0.000000 0.000000
v 11.893226 0.000000 3.864343
v 10.116982 0.000000 7.350417
v 7.350417 0.000000 10.116982
v 3.864343 0.000000 11.893225
v 0.000000 0.000000 12.505277
v -3.864342 0.000000 11.893225
v -7.350416 0.000000 10.116981
v -10.116980 0.000000 7.350417
v -11.893224 0.000000 3.864342
v -12.505276 0.000000 0.000000
v -3.630854 0.000000 -1.179728
v -3.630854 6.388093 -1.179728
v -3.088569 6.388093 -2.243988
v -3.088569 0.000000 -2.243988
v -2.243985 6.388093 -3.088571
v -2.243985 0.000000 -3.088571
v -1.179725 6.388093 -3.630857
v -1.179725 0.000000 -3.630857
v 0.000001 6.388093 -3.817682
v 0.000001 0.000000 -3.817682
v 1.179728 6.388093 -3.630857
v 1.179728 0.000000 -3.630857
v 2.243987 6.388093 -3.088571
v 2.243987 0.000000 -3.088571
v 3.088571 6.388093 -2.243988
v 3.088571 0.000000 -2.243988
v 3.630856 6.388093 -1.179728
v 3.630856 0.000000 -1.179728
v 3.817696 6.388093 -0.000001
v 3.817696 0.000000 -0.000001
v 3.630856 6.388093 1.179725
v 3.630856 0.000000 1.179725
v 3.088570 6.388093 2.243984
v 3.088570 0.000000 2.243984
v 2.243987 6.388093 3.088567
v 2.243987 0.000000 3.088567
v 1.179728 6.388093 3.630853
v 1.179728 0.000000 3.630853
v 0.000001 6.388093 3.817678
v 0.000001 0.000000 3.817678
v -1.179725 6.388093 3.630853
v -1.179725 0.000000 3.630853
v -2.243985 6.388093 3.088567
v -2.243985 0.000000 3.088567
v -3.088567 6.388093 2.243984
v -3.088567 0.000000 2.243984
v -3.630853 6.388093 1.179725
v -3.630853 0.000000 1.179725
v -3.817694 6.388093 -0.000001
v -3.817694 0.000000 -0.000001
v -3.630854 6.388093 -1.179728
v -3.630854 0.000000 -1.179728
vt 0.375000 0.312500
vt 0.387500 0.312500
vt 0.387500 0.688440
vt 0.375000 0.688440
vt 0.400000 0.688440
vt 0.400000 0.312500
vt 0.412500 0.688440
vt 0.412500 0.312500
vt 0.425000 0.688440
vt 0.425000 0.312500
vt 0.437500 0.688440
vt 0.437500 0.312500
vt 0.450000 0.688440
vt 0.450000 0.312500
vt 0.462500 0.688440
vt 0.462500 0.312500
vt 0.475000 0.688440
vt 0.475000 0.312500
vt 0.487500 0.688440
vt 0.487500 0.312500
vt 0.500000 0.688440
vt 0.500000 0.312500
vt 0.512500 0.688440
vt 0.512500 0.312500
vt 0.525000 0.688440
vt 0.525000 0.312500
vt 0.537500 0.688440
vt 0.537500 0.312500
vt 0.550000 0.688440
vt 0.550000 0.312500
vt 0.562500 0.688440
vt 0.562500 0.312500
vt 0.575000 0.688440
vt 0.575000 0.312500
vt 0.587500 0.688440
vt 0.587500 0.312500
vt 0.600000 0.688440
vt 0.600000 0.312500
vt 0.612500 0.688440
vt 0.612500 0.312500
vt 0.625000 0.688440
vt 0.625000 0.312500
vt 0.626409 0.064408
vt 0.648603 0.107966
vt 0.500000 0.150000
vt 0.591842 0.029841
vt 0.548284 0.007647
vt 0.500000 -0.000000
vt 0.451716 0.007647
vt 0.408159 0.029841
vt 0.373591 0.064409
vt 0.351397 0.107966
vt 0.343750 0.156250
vt 0.351397 0.204534
vt 0.373591 0.248091
vt 0.408159 0.282659
vt 0.451716 0.304853
vt 0.500000 0.312500
vt 0.548284 0.304853
vt 0.591841 0.282659
vt 0.626409 0.248091
vt 0.648603 0.204534
vt 0.656250 0.156250
vt 0.375000 0.312500
vt 0.375000 0.688440
vt 0.387500 0.688440
vt 0.387500 0.312500
vt 0.400000 0.688440
vt 0.400000 0.312500
vt 0.412500 0.688440
vt 0.412500 0.312500
vt 0.425000 0.688440
vt 0.425000 0.312500
vt 0.437500 0.688440
vt 0.437500 0.312500
vt 0.450000 0.688440
vt 0.450000 0.312500
vt 0.462500 0.688440
vt 0.462500 0.312500
vt 0.475000 0.688440
vt 0.475000 0.312500
vt 0.487500 0.688440
vt 0.487500 0.312500
vt 0.500000 0.688440
vt 0.500000 0.312500
vt 0.512500 0.688440
vt 0.512500 0.312500
vt 0.525000 0.688440
vt 0.525000 0.312500
vt 0.537500 0.688440
vt 0.537500 0.312500
vt 0.550000 0.688440
vt 0.550000 0.312500
vt 0.562500 0.688440
vt 0.562500 0.312500
vt 0.575000 0.688440
vt 0.575000 0.312500
vt 0.587500 0.688440
vt 0.587500 0.312500
vt 0.600000 0.688440
vt 0.600000 0.312500
vt 0.612500 0.688440
vt 0.612500 0.312500
vt 0.625000 0.688440
vt 0.625000 0.312500
vn 0.951057 0.000000 0.309016
vn 0.809017 0.000000 0.587785
vn 0.809017 0.000000 0.587785
vn 0.951057 0.000000 0.309016
vn 0.587785 0.000000 0.809017
vn 0.587785 0.000000 0.809017
vn 0.309017 0.000000 0.951057
vn 0.309017 0.000000 0.951057
vn -0.000000 0.000000 1.000000
vn -0.000000 0.000000 1.000000
vn -0.309017 0.000000 0.951057
vn -0.309017 0.000000 0.951057
vn -0.587785 0.000000 0.809017
vn -0.587785 0.000000 0.809017
vn -0.809017 0.000000 0.587785
vn -0.809017 0.000000 0.587785
vn -0.951057 0.000000 0.309017
vn -0.951057 0.000000 0.309017
vn -1.000000 0.000000 0.000000
vn -1.000000 0.000000 0.000000
vn -0.951057 0.000000 -0.309017
vn -0.951057 0.000000 -0.309017
vn -0.809017 0.000000 -0.587785
vn -0.809017 0.000000 -0.587785
vn -0.587785 0.000000 -0.809017
vn -0.587785 0.000000 -0.809017
vn -0.309017 0.000000 -0.951057
vn -0.309017 0.000000 -0.951057
vn 0.000000 0.000000 -1.000000
vn 0.000000 0.000000 -1.000000
vn 0.309017 0.000000 -0.951056
vn 0.309017 0.000000 -0.951056
vn 0.587785 0.000000 -0.809017
vn 0.587785 0.000000 -0.809017
vn 0.809017 0.000000 -0.587785
vn 0.809017 0.000000 -0.587785
vn 0.951056 0.000000 -0.309017
vn 0.951056 0.000000 -0.309017
vn 1.000000 0.000000 -0.000001
vn 1.000000 0.000000 -0.000001
vn 0.951057 0.000000 0.309016
vn 0.951057 0.000000 0.309016
vn 0.000000 1.000000 0.000000
vn 0.000000 1.000000 0.000000
vn 0.000000 1.000000 0.000000
vn 0.000000 1.000000 0.000000
vn 0.000000 1.000000 0.000000
vn 0.000000 1.000000 0.000000
vn 0.000000 1.000000 0.000000
vn 0.000000 1.000000 0.000000
vn 0.000000 1.000000 0.000000
vn 0.000000 1.000000 0.000000
vn 0.000000 1.000000 0.000000
vn 0.000000 1.000000 0.000000
vn 0.000000 1.000000 0.000000
vn 0.000000 1.000000 0.000000
vn 0.000000 1.000000 0.000000
vn 0.000000 1.000000 0.000000
vn 0.000000 1.000000 0.000000
vn 0.000000 1.000000 0.000000
vn 0.000000 1.000000 0.000000
vn 0.000000 1.000000 0.000000
vn 0.000000 1.000000 0.000000
vn -0.951055 0.000000 -0.309021
vn -0.951055 0.000000 -0.309021
vn -0.809014 0.000000 -0.587789
vn -0.809014 0.000000 -0.587789
vn -0.587789 0.000000 -0.809014
vn -0.587789 0.000000 -0.809014
vn -0.309015 0.000000 -0.951057
vn -0.309015 0.000000 -0.951057
vn 0.000000 0.000000 -1.000000
vn 0.000000 0.000000 -1.000000
vn 0.309015 0.000000 -0.951057
vn 0.309015 0.000000 -0.951057
vn 0.587789 0.000000 -0.809014
vn 0.587789 0.000000 -0.809014
vn 0.809014 0.000000 -0.587789
vn 0.809014 0.000000 -0.587789
vn 0.951055 0.000000 -0.309021
vn 0.951055 0.000000 -0.309021
vn 1.000000 0.000000 0.000000
vn 1.000000 0.000000 0.000000
vn 0.951055 0.000000 0.309021
vn 0.951055 0.000000 0.309021
vn 0.809014 0.000000 0.587789
vn 0.809014 0.000000 0.587789
vn 0.587789 0.000000 0.809014
vn 0.587789 0.000000 0.809014
vn 0.309015 0.000000 0.951057
vn 0.309015 0.000000 0.951057
vn 0.000000 0.000000 1.000000
vn 0.000000 0.000000 1.000000
vn -0.309015 0.000000 0.951057
vn -0.309015 0.000000 0.951057
vn -0.587789 0.000000 0.809014
vn -0.587789 0.000000 0.809014
vn -0.809014 0.000000 0.587789
vn -0.809014 0.000000 0.587789
vn -0.951055 0.000000 0.309021
vn -0.951055 0.000000 0.309021
vn -1.000000 0.000000 0.000001
vn -1.000000 0.000000 0.000001
vn -0.951055 0.000000 -0.309021
vn -0.951055 0.000000 -0.309021
usemtl material
f 1/0/1 2/0/2 3/0/3
f 1/0/1 3/0/3 4/0/4
f 2/0/2 5/0/5 3/0/3
f 2/0/2 6/0/6 5/0/5
f 6/0/6 7/0/7 5/0/5
f 6/0/6 8/0/8 7/0/7
f 8/0/8 9/0/9 7/0/7
f 8/0/8 10/0/10 9/0/9
f 10/0/10 11/0/11 9/0/9
f 10/0/10 12/0/12 11/0/11
f 12/0/12 13/0/13 11/0/11
f 12/0/12 14/0/14 13/0/13
f 14/0/14 15/0/15 13/0/13
f 14/0/14 16/0/16 15/0/15
f 16/0/16 17/0/17 15/0/15
f 16/0/16 18/0/18 17/0/17
f 18/0/18 19/0/19 17/0/17
f 18/0/18 20/0/20 19/0/19
f 20/0/20 21/0/21 19/0/19
f 20/0/20 22/0/22 21/0/21
f 22/0/22 23/0/23 21/0/21
f 22/0/22 24/0/24 23/0/23
f 24/0/24 25/0/25 23/0/23
f 24/0/24 26/0/26 25/0/25
f 26/0/26 27/0/27 25/0/25
f 26/0/26 28/0/28 27/0/27
f 28/0/28 29/0/29 27/0/27
f 28/0/28 30/0/30 29/0/29
f 30/0/30 31/0/31 29/0/29
f 30/0/30 32/0/32 31/0/31
f 32/0/32 33/0/33 31/0/31
f 32/0/32 34/0/34 33/0/33
f 34/0/34 35/0/35 33/0/33
f 34/0/34 36/0/36 35/0/35
f 36/0/36 37/0/37 35/0/35
f 36/0/36 38/0/38 37/0/37
f 38/0/38 39/0/39 37/0/37
f 38/0/38 40/0/40 39/0/39
f 40/0/40 41/0/41 39/0/39
f 40/0/40 42/0/42 41/0/41
f 43/0/43 44/0/44 45/0/45
f 46/0/46 43/0/43 45/0/45
f 47/0/47 46/0/46 45/0/45
f 48/0/48 47/0/47 45/0/45
f 49/0/49 48/0/48 45/0/45
f 50/0/50 49/0/49 45/0/45
f 51/0/51 50/0/50 45/0/45
f 52/0/52 51/0/51 45/0/45
f 53/0/53 52/0/52 45/0/45
f 54/0/54 53/0/53 45/0/45
f 55/0/55 54/0/54 45/0/45
f 56/0/56 55/0/55 45/0/45
f 57/0/57 56/0/56 45/0/45
f 58/0/58 57/0/57 45/0/45
f 59/0/59 58/0/58 45/0/45
f 60/0/60 59/0/59 45/0/45
f 61/0/61 60/0/60 45/0/45
f 62/0/62 61/0/61 45/0/45
f 63/0/63 62/0/62 45/0/45
f 44/0/44 63/0/63 45/0/45
f 64/0/64 65/0/65 66/0/66
f 64/0/64 66/0/66 67/0/67
f 67/0/67 66/0/66 68/0/68
f 67/0/67 68/0/68 69/0/69
f 69/0/69 68/0/68 70/0/70
f 69/0/69 70/0/70 71/0/71
f 71/0/71 70/0/70 72/0/72
f 71/0/71 72/0/72 73/0/73
f 73/0/73 72/0/72 74/0/74
f 73/0/73 74/0/74 75/0/75
f 75/0/75 74/0/74 76/0/76
f 75/0/75 76/0/76 77/0/77
f 77/0/77 76/0/76 78/0/78
f 77/0/77 78/0/78 79/0/79
f 79/0/79 78/0/78 80/0/80
f 79/0/79 80/0/80 81/0/81
f 81/0/81 80/0/80 82/0/82
f 81/0/81 82/0/82 83/0/83
f 83/0/83 82/0/82 84/0/84
f 83/0/83 84/0/84 85/0/85
f 85/0/85 84/0/84 86/0/86
f 85/0/85 86/0/86 87/0/87
f 87/0/87 86/0/86 88/0/88
f 87/0/87 88/0/88 89/0/89
f 89/0/89 88/0/88 90/0/90
f 89/0/89 90/0/90 91/0/91
f 91/0/91 90/0/90 92/0/92
f 91/0/91 92/0/92 93/0/93
f 93/0/93 92/0/92 94/0/94
f 93/0/93 94/0/94 95/0/95
f 95/0/95 94/0/94 96/0/96
f 95/0/95 96/0/96 97/0/97
f 97/0/97 96/0/96 98/0/98
f 97/0/97 98/0/98 99/0/99
f 99/0/99 98/0/98 100/0/100
f 99/0/99 100/0/100 101/0/101
f 101/0/101 100/0/100 102/0/102
f 101/0/101 102/0/102 103/0/103
f 103/0/103 102/0/102 104/0/104
f 103/0/103 104/0/104 105/0/105
