# 
# Wavefront OBJ file
# Created with Kaydara FBX
# 
mtllib collision_cam #225624.mtl

g Collision_Cam
v 12.500000 -2.500000 25.396399
v 12.500000 7.500000 25.396399
v 12.500000 7.500000 5.000002
v 12.500000 -2.500000 5.000002
v -12.355915 -2.500000 5.000002
v -12.355915 7.500000 5.000002
v -12.355915 7.500000 25.396399
v -12.355915 -2.500000 25.396399
v -12.355915 -2.500000 -25.396397
v -12.355915 7.500000 -25.396397
v -12.355915 7.500000 -5.000000
v -12.355915 -2.500000 -5.000000
v 12.500000 -2.500000 -5.000000
v 12.500000 7.500000 -5.000000
v 12.500000 7.500000 -25.396397
v 12.500000 -2.500000 -25.396397
v -12.355915 -2.500000 -5.000000
v -12.355915 7.500000 -5.000000
v -7.355916 7.500000 -5.000000
v -7.355916 -2.500000 -5.000000
v 12.500000 -2.500000 5.000002
v 12.500000 7.500000 5.000002
v 7.500000 7.500000 5.000002
v 7.500000 -2.500000 5.000002
v 7.500000 -2.500000 -5.000000
v 7.500000 7.500000 -5.000000
v 12.500000 7.500000 -5.000000
v 12.500000 -2.500000 -5.000000
v 7.500000 -2.500000 5.000002
v 7.500000 7.500000 5.000002
v 7.500000 7.500000 -5.000000
v 7.500000 -2.500000 -5.000000
v -7.355916 -2.500000 5.000002
v -7.355916 7.500000 5.000002
v -12.355915 7.500000 5.000002
v -12.355915 -2.500000 5.000002
v -7.355916 -2.500000 -5.000000
v -7.355916 7.500000 -5.000000
v -7.355916 7.500000 5.000002
v -7.355916 -2.500000 5.000002
vt 0.000000 0.000000
vt 0.000000 1.000000
vt 1.000000 1.000000
vt 1.000000 0.000000
vt 0.000000 0.000000
vt 0.000000 1.000000
vt 1.000000 1.000000
vt 1.000000 0.000000
vt 0.000000 0.000000
vt 0.000000 1.000000
vt 1.000000 1.000000
vt 1.000000 0.000000
vt 0.000000 0.000000
vt 0.000000 1.000000
vt 1.000000 1.000000
vt 1.000000 0.000000
vt 0.000000 0.000000
vt 0.000000 1.000000
vt 1.000000 1.000000
vt 1.000000 0.000000
vt 0.000000 0.000000
vt 0.000000 1.000000
vt 1.000000 1.000000
vt 1.000000 0.000000
vt 0.000000 0.000000
vt 0.000000 1.000000
vt 1.000000 1.000000
vt 1.000000 0.000000
vt 0.000000 0.000000
vt 0.000000 1.000000
vt 1.000000 1.000000
vt 1.000000 0.000000
vt 0.000000 0.000000
vt 0.000000 1.000000
vt 1.000000 1.000000
vt 1.000000 0.000000
vt 0.000000 0.000000
vt 0.000000 1.000000
vt 1.000000 1.000000
vt 1.000000 0.000000
vn -1.000000 0.000000 0.000000
vn -1.000000 0.000000 0.000000
vn -1.000000 0.000000 0.000000
vn -1.000000 0.000000 0.000000
vn 1.000000 0.000000 0.000000
vn 1.000000 0.000000 0.000000
vn 1.000000 0.000000 0.000000
vn 1.000000 0.000000 0.000000
vn 1.000000 0.000000 0.000000
vn 1.000000 0.000000 0.000000
vn 1.000000 0.000000 0.000000
vn 1.000000 0.000000 0.000000
vn -1.000000 0.000000 0.000000
vn -1.000000 0.000000 0.000000
vn -1.000000 0.000000 0.000000
vn -1.000000 0.000000 0.000000
vn 0.000000 0.000000 -1.000000
vn 0.000000 0.000000 -1.000000
vn 0.000000 0.000000 -1.000000
vn 0.000000 0.000000 -1.000000
vn 0.000000 0.000000 1.000000
vn 0.000000 0.000000 1.000000
vn 0.000000 0.000000 1.000000
vn 0.000000 0.000000 1.000000
vn 0.000000 0.000000 -1.000000
vn 0.000000 0.000000 -1.000000
vn 0.000000 0.000000 -1.000000
vn 0.000000 0.000000 -1.000000
vn -1.000000 0.000000 0.000000
vn -1.000000 0.000000 0.000000
vn -1.000000 0.000000 0.000000
vn -1.000000 0.000000 0.000000
vn 0.000000 0.000000 1.000000
vn 0.000000 0.000000 1.000000
vn 0.000000 0.000000 1.000000
vn 0.000000 0.000000 1.000000
vn 1.000000 0.000000 0.000000
vn 1.000000 0.000000 0.000000
vn 1.000000 0.000000 0.000000
vn 1.000000 0.000000 0.000000
usemtl material
f 1/0/1 2/0/2 3/0/3
f 1/0/1 3/0/3 4/0/4
f 5/0/5 6/0/6 7/0/7
f 5/0/5 7/0/7 8/0/8
f 9/0/9 10/0/10 11/0/11
f 9/0/9 11/0/11 12/0/12
f 13/0/13 14/0/14 15/0/15
f 13/0/13 15/0/15 16/0/16
f 17/0/17 18/0/18 19/0/19
f 17/0/17 19/0/19 20/0/20
f 21/0/21 22/0/22 23/0/23
f 21/0/21 23/0/23 24/0/24
f 25/0/25 26/0/26 27/0/27
f 25/0/25 27/0/27 28/0/28
f 29/0/29 30/0/30 31/0/31
f 29/0/29 31/0/31 32/0/32
f 33/0/33 34/0/34 35/0/35
f 33/0/33 35/0/35 36/0/36
f 37/0/37 38/0/38 39/0/39
f 37/0/37 39/0/39 40/0/40
