# 
# Wavefront OBJ file
# Created with Kaydara FBX
# 
mtllib collision.mtl

g collision
v -0.000291 -0.004976 -0.027991
v -0.000291 0.065371 -0.027991
v 0.024222 0.065375 0.016668
v 0.024201 -0.004976 0.016681
v 0.024201 -0.004976 0.016681
v 0.024222 0.065375 0.016668
v -0.024842 0.065375 0.016668
v -0.024779 -0.004976 0.016681
v -0.024842 0.065375 0.016668
v -0.000291 0.065371 -0.027991
v -0.000291 -0.004976 -0.027991
v -0.024779 -0.004976 0.016681
vt 0.490470 0.667690
vt 0.490470 0.735614
vt 0.544484 0.735614
vt 0.544484 0.667690
vt 0.544484 0.667690
vt 0.544484 0.735614
vt 0.596482 0.735614
vt 0.596482 0.667690
vt 0.596482 0.735614
vt 0.644337 0.735614
vt 0.644337 0.667690
vt 0.596482 0.667690
vn 0.876746 -0.000175 -0.480954
vn 0.876746 -0.000175 -0.480954
vn 0.876746 -0.000175 -0.480954
vn 0.876746 -0.000175 -0.480954
vn 0.000000 0.000190 1.000000
vn 0.000000 0.000190 1.000000
vn 0.000000 0.000190 1.000000
vn 0.000000 0.000190 1.000000
vn -0.876599 -0.000441 -0.481222
vn -0.876599 -0.000441 -0.481222
vn -0.876599 -0.000441 -0.481222
vn -0.876599 -0.000441 -0.481222
usemtl material
f 1/0/1 2/0/2 3/0/3
f 1/0/1 3/0/3 4/0/4
f 5/0/5 6/0/6 7/0/7
f 5/0/5 7/0/7 8/0/8
f 9/0/9 10/0/10 11/0/11
f 9/0/9 11/0/11 12/0/12
