# 
# Wavefront OBJ file
# Created with Kaydara FBX
# 
mtllib collision05 #2280416.mtl

g Collision05
v 6.724010 0.000000 10.449029
v 6.724010 -0.000000 -10.431126
v -0.752988 -0.000000 -10.431124
v -5.349446 0.000000 -9.520954
v -6.658346 0.000000 -8.754380
v -6.658346 0.000000 10.449029
v -5.349446 0.000000 -12.978948
v -6.658346 0.000000 -13.745522
v -6.658346 0.000000 -23.737280
v -5.349446 0.000000 -24.503853
v -5.349446 0.000000 -27.961847
v -6.658346 0.000000 -38.754379
v -5.349447 0.000000 -39.520954
v -0.752988 -0.000000 -41.854271
v -5.349447 -0.000000 -42.978951
v 6.613779 -0.000000 -41.854271
v -6.658345 -0.000000 -43.745522
v -6.658346 0.000000 -55.431229
v 6.613778 0.000000 -55.431229
v -6.658346 0.000000 -28.728422
v -6.658346 5.998799 -28.728422
v -6.658346 0.000000 -28.728422
v -6.658346 0.000000 -38.754379
v -6.658346 5.998799 -38.754379
v -5.349447 -0.000000 -42.978951
v -5.349447 5.998799 -42.978951
v -5.349447 5.998799 -39.520954
v -5.349447 0.000000 -39.520954
v 6.613778 0.000000 -55.431229
v 6.613778 5.998799 -55.431229
v -6.658346 5.998799 -55.431229
v -6.658346 0.000000 -55.431229
v 6.724010 -0.000000 -10.431126
v 6.724010 5.998799 -10.431126
v -0.752988 5.998799 -10.431124
v -0.752988 -0.000000 -10.431124
v -6.658346 0.000000 10.449029
v -6.658346 5.998799 10.449029
v 6.724010 5.998799 10.449029
v 6.724010 0.000000 10.449029
v -6.658346 0.000000 -8.754380
v -6.658346 5.998799 -8.754380
v -6.658346 5.998799 10.449029
v -6.658346 0.000000 10.449029
v -0.752988 -0.000000 -10.431124
v -0.752988 5.998799 -10.431124
v -0.752988 5.998799 -41.854271
v -0.752988 -0.000000 -41.854271
v 6.613779 -0.000000 -41.854271
v 6.613779 5.998799 -41.854271
v 6.613778 5.998799 -55.431229
v 6.613778 0.000000 -55.431229
v -6.658345 -0.000000 -43.745522
v -6.658345 5.998799 -43.745522
v -5.349447 5.998799 -42.978951
v -5.349447 -0.000000 -42.978951
v -6.658346 0.000000 -55.431229
v -6.658346 5.998799 -55.431229
v -6.658345 5.998799 -43.745522
v -6.658345 -0.000000 -43.745522
v 6.724010 0.000000 10.449029
v 6.724010 5.998799 10.449029
v 6.724010 5.998799 -10.431126
v 6.724010 -0.000000 -10.431126
v -0.752988 -0.000000 -41.854271
v -0.752988 5.998799 -41.854271
v 6.613779 5.998799 -41.854271
v 6.613779 -0.000000 -41.854271
v -6.658346 0.000000 -28.728422
v -6.658346 5.998799 -28.728422
v -5.349446 5.998799 -27.961847
v -5.349446 0.000000 -27.961847
v -5.349446 0.000000 -27.961847
v -5.349446 5.998799 -27.961847
v -5.349446 5.998799 -24.503853
v -5.349446 0.000000 -24.503853
v -6.658346 0.000000 -13.745522
v -6.658346 5.998799 -13.745522
v -5.349446 5.998799 -12.978948
v -5.349446 0.000000 -12.978948
v -5.349446 0.000000 -12.978948
v -5.349446 5.998799 -12.978948
v -5.349446 5.998799 -9.520954
v -5.349446 0.000000 -9.520954
v -5.349446 0.000000 -9.520954
v -5.349446 5.998799 -9.520954
v -6.658346 5.998799 -8.754380
v -6.658346 0.000000 -8.754380
v -6.658346 0.000000 -23.737280
v -6.658346 5.998799 -23.737280
v -6.658346 5.998799 -13.745522
v -6.658346 0.000000 -13.745522
v -5.349447 0.000000 -39.520954
v -5.349447 5.998799 -39.520954
v -6.658346 5.998799 -38.754379
v -6.658346 0.000000 -38.754379
v -5.349446 0.000000 -24.503853
v -5.349446 5.998799 -24.503853
v -6.658346 5.998799 -23.737280
v -6.658346 0.000000 -23.737280
vt 0.304883 0.807910
vt 0.618872 0.507846
vt 1.000000 0.143621
vt 0.151995 0.353282
vt 0.150512 0.354659
vt 0.000000 0.494488
vt 0.157067 0.348570
vt 0.157730 0.347954
vt 0.171217 0.335424
vt 0.174429 0.332440
vt 0.179619 0.327619
vt 0.412584 0.314252
vt 0.528432 0.314252
vt 0.932383 0.071810
vt 0.696599 0.157126
vt 0.919442 0.058067
vt 0.780683 0.078563
vt 0.864766 0.000000
vt 0.898575 0.035905
vt 0.180672 0.326640
vt 0.068734 1.000000
vt 0.068734 0.000000
vt 0.346411 0.000000
vt 0.346411 1.000000
vt 0.500000 0.000000
vt 0.500000 1.000000
vt 1.000000 1.000000
vt 1.000000 0.000000
vt 0.750000 0.000000
vt 0.750000 1.000000
vt 1.000000 1.000000
vt 1.000000 0.000000
vt 0.451707 0.000000
vt 0.451707 1.000000
vt 1.000000 1.000000
vt 1.000000 0.000000
vt 0.000000 0.000000
vt 0.000000 1.000000
vt 1.000000 1.000000
vt 1.000000 0.000000
vt 0.224193 0.000000
vt 0.224193 1.000000
vt 1.000000 1.000000
vt 1.000000 0.000000
vt 0.000000 0.000000
vt 0.000000 1.000000
vt 0.500000 1.000000
vt 0.500000 0.000000
vt 0.595695 0.000000
vt 0.595695 1.000000
vt 0.750000 1.000000
vt 0.750000 0.000000
vt 0.250000 0.000000
vt 0.250000 1.000000
vt 0.500000 1.000000
vt 0.500000 0.000000
vt 0.000000 0.000000
vt 0.000000 1.000000
vt 0.250000 1.000000
vt 0.250000 0.000000
vt 0.000000 0.000000
vt 0.000000 1.000000
vt 0.451707 1.000000
vt 0.451707 0.000000
vt 0.500000 0.000000
vt 0.500000 1.000000
vt 0.595695 1.000000
vt 0.595695 0.000000
vt 0.068734 0.000000
vt 0.068734 1.000000
vt 0.074164 1.000000
vt 0.074164 0.000000
vt 0.074164 0.000000
vt 0.074164 1.000000
vt 0.100912 1.000000
vt 0.100912 0.000000
vt 0.186987 0.000000
vt 0.186987 1.000000
vt 0.190406 1.000000
vt 0.190406 0.000000
vt 0.190406 0.000000
vt 0.190406 1.000000
vt 0.216550 1.000000
vt 0.216550 0.000000
vt 0.216550 0.000000
vt 0.216550 1.000000
vt 0.224193 1.000000
vt 0.224193 0.000000
vt 0.117469 0.000000
vt 0.117469 1.000000
vt 0.186987 1.000000
vt 0.186987 0.000000
vt 0.000000 0.000000
vt 0.000000 1.000000
vt 0.346411 1.000000
vt 0.346411 0.000000
vt 0.100912 0.000000
vt 0.100912 1.000000
vt 0.117469 1.000000
vt 0.117469 0.000000
vn 0.000000 1.000000 0.000000
vn 0.000000 1.000000 0.000000
vn 0.000000 1.000000 0.000000
vn 0.000000 1.000000 0.000000
vn 0.000000 1.000000 0.000000
vn 0.000000 1.000000 0.000000
vn 0.000000 1.000000 0.000000
vn 0.000000 1.000000 0.000000
vn 0.000000 1.000000 0.000000
vn 0.000000 1.000000 0.000000
vn 0.000000 1.000000 0.000000
vn 0.000000 1.000000 0.000000
vn 0.000000 1.000000 0.000000
vn 0.000000 1.000000 0.000000
vn 0.000000 1.000000 0.000000
vn 0.000000 1.000000 0.000000
vn 0.000000 1.000000 0.000000
vn 0.000000 1.000000 0.000000
vn 0.000000 1.000000 0.000000
vn 0.000000 1.000000 0.000000
vn 1.000000 0.000000 0.000000
vn 1.000000 0.000000 0.000000
vn 1.000000 0.000000 0.000000
vn 1.000000 0.000000 0.000000
vn 1.000000 0.000000 0.000000
vn 1.000000 0.000000 0.000000
vn 1.000000 0.000000 0.000000
vn 1.000000 0.000000 0.000000
vn 0.000000 0.000000 1.000000
vn 0.000000 0.000000 1.000000
vn 0.000000 0.000000 1.000000
vn 0.000000 0.000000 1.000000
vn 0.000000 0.000000 1.000000
vn 0.000000 0.000000 1.000000
vn 0.000000 0.000000 1.000000
vn 0.000000 0.000000 1.000000
vn 0.000000 0.000000 -1.000000
vn 0.000000 0.000000 -1.000000
vn 0.000000 0.000000 -1.000000
vn 0.000000 0.000000 -1.000000
vn 1.000000 0.000000 0.000000
vn 1.000000 0.000000 0.000000
vn 1.000000 0.000000 0.000000
vn 1.000000 0.000000 0.000000
vn -1.000000 0.000000 0.000000
vn -1.000000 0.000000 0.000000
vn -1.000000 0.000000 0.000000
vn -1.000000 0.000000 0.000000
vn -1.000000 0.000000 0.000000
vn -1.000000 0.000000 0.000000
vn -1.000000 0.000000 0.000000
vn -1.000000 0.000000 0.000000
vn 0.505371 0.000000 -0.862902
vn 0.505371 0.000000 -0.862902
vn 0.505371 0.000000 -0.862902
vn 0.505371 0.000000 -0.862902
vn 1.000000 0.000000 -0.000000
vn 1.000000 0.000000 -0.000000
vn 1.000000 0.000000 -0.000000
vn 1.000000 0.000000 -0.000000
vn -1.000000 0.000000 0.000000
vn -1.000000 0.000000 0.000000
vn -1.000000 0.000000 0.000000
vn -1.000000 0.000000 0.000000
vn 0.000000 0.000000 -1.000000
vn 0.000000 0.000000 -1.000000
vn 0.000000 0.000000 -1.000000
vn 0.000000 0.000000 -1.000000
vn 0.505369 0.000000 -0.862903
vn 0.505369 0.000000 -0.862903
vn 0.505369 0.000000 -0.862903
vn 0.505369 0.000000 -0.862903
vn 1.000000 0.000000 0.000000
vn 1.000000 0.000000 0.000000
vn 1.000000 0.000000 0.000000
vn 1.000000 0.000000 0.000000
vn 0.505370 0.000000 -0.862903
vn 0.505370 0.000000 -0.862903
vn 0.505370 0.000000 -0.862903
vn 0.505370 0.000000 -0.862903
vn 1.000000 0.000000 0.000000
vn 1.000000 0.000000 0.000000
vn 1.000000 0.000000 0.000000
vn 1.000000 0.000000 0.000000
vn 0.505370 0.000000 0.862903
vn 0.505370 0.000000 0.862903
vn 0.505370 0.000000 0.862903
vn 0.505370 0.000000 0.862903
vn 1.000000 0.000000 0.000000
vn 1.000000 0.000000 0.000000
vn 1.000000 0.000000 0.000000
vn 1.000000 0.000000 0.000000
vn 0.505370 0.000000 0.862903
vn 0.505370 0.000000 0.862903
vn 0.505370 0.000000 0.862903
vn 0.505370 0.000000 0.862903
vn 0.505369 0.000000 0.862903
vn 0.505369 0.000000 0.862903
vn 0.505369 0.000000 0.862903
vn 0.505369 0.000000 0.862903
usemtl material
f 1/0/1 2/0/2 3/0/3
f 3/0/3 4/0/4 1/0/1
f 4/0/4 5/0/5 1/0/1
f 5/0/5 6/0/6 1/0/1
f 7/0/7 4/0/4 3/0/3
f 8/0/8 7/0/7 3/0/3
f 9/0/9 8/0/8 3/0/3
f 10/0/10 9/0/9 3/0/3
f 11/0/11 10/0/10 3/0/3
f 12/0/12 11/0/11 3/0/3
f 13/0/13 12/0/12 3/0/3
f 13/0/13 3/0/3 14/0/14
f 15/0/15 13/0/13 14/0/14
f 15/0/15 14/0/14 16/0/16
f 17/0/17 15/0/15 16/0/16
f 18/0/18 17/0/17 16/0/16
f 16/0/16 19/0/19 18/0/18
f 12/0/12 20/0/20 11/0/11
f 21/0/21 22/0/22 23/0/23
f 21/0/21 23/0/23 24/0/24
f 25/0/25 26/0/26 27/0/27
f 25/0/25 27/0/27 28/0/28
f 29/0/29 30/0/30 31/0/31
f 29/0/29 31/0/31 32/0/32
f 33/0/33 34/0/34 35/0/35
f 33/0/33 35/0/35 36/0/36
f 37/0/37 38/0/38 39/0/39
f 37/0/37 39/0/39 40/0/40
f 41/0/41 42/0/42 43/0/43
f 41/0/41 43/0/43 44/0/44
f 45/0/45 46/0/46 47/0/47
f 45/0/45 47/0/47 48/0/48
f 49/0/49 50/0/50 51/0/51
f 49/0/49 51/0/51 52/0/52
f 53/0/53 54/0/54 55/0/55
f 53/0/53 55/0/55 56/0/56
f 57/0/57 58/0/58 59/0/59
f 57/0/57 59/0/59 60/0/60
f 61/0/61 62/0/62 63/0/63
f 61/0/61 63/0/63 64/0/64
f 65/0/65 66/0/66 67/0/67
f 65/0/65 67/0/67 68/0/68
f 69/0/69 70/0/70 71/0/71
f 69/0/69 71/0/71 72/0/72
f 73/0/73 74/0/74 75/0/75
f 73/0/73 75/0/75 76/0/76
f 77/0/77 78/0/78 79/0/79
f 77/0/77 79/0/79 80/0/80
f 81/0/81 82/0/82 83/0/83
f 81/0/81 83/0/83 84/0/84
f 85/0/85 86/0/86 87/0/87
f 85/0/85 87/0/87 88/0/88
f 89/0/89 90/0/90 91/0/91
f 89/0/89 91/0/91 92/0/92
f 93/0/93 94/0/94 95/0/95
f 93/0/93 95/0/95 96/0/96
f 97/0/97 98/0/98 99/0/99
f 97/0/97 99/0/99 100/0/100
