# 
# Wavefront OBJ file
# Created with Kaydara FBX
# 
mtllib collision06 #2253017.mtl

g Collision06
v 7.260133 0.000000 13.604351
v 7.193028 0.000000 -11.787393
v 2.739772 0.000000 -13.134326
v 2.739772 0.000000 14.634713
v -1.780599 0.000000 -13.553877
v -1.780599 0.000000 14.617085
v -6.892650 0.000000 -13.512719
v -6.723503 -0.000000 14.440145
v -11.909543 0.000000 -11.998500
v -11.856403 0.000000 12.455389
v -11.909543 0.000000 -11.998500
v -17.675865 -0.000000 7.213284
v -16.999542 0.000000 -5.596201
v -18.421955 0.000000 0.224300
v 12.765002 0.000000 8.668921
v 12.916972 0.000000 -8.350027
v 7.193028 0.000000 -11.787393
v 12.765002 0.000000 8.668921
v 16.263845 0.000000 4.906383
v 16.263845 0.000000 -4.205970
v 12.916972 0.000000 -8.350027
v 2.739772 0.000000 14.634713
v 2.739772 10.892648 14.634713
v 7.260133 10.892648 13.604351
v 7.260133 0.000000 13.604351
v 7.193028 0.000000 -11.787393
v 7.193028 10.892648 -11.787393
v 2.739772 10.892648 -13.134326
v 2.739772 0.000000 -13.134326
v -6.723503 -0.000000 14.440145
v -6.723503 10.892648 14.440145
v -1.780599 10.892648 14.617085
v -1.780599 0.000000 14.617085
v -1.780599 0.000000 -13.553877
v -1.780599 10.892648 -13.553877
v -6.892650 10.892648 -13.512719
v -6.892650 0.000000 -13.512719
v -11.856403 0.000000 12.455389
v -11.856403 10.892648 12.455389
v -6.723503 10.892648 14.440145
v -6.723503 -0.000000 14.440145
v -6.892650 0.000000 -13.512719
v -6.892650 10.892648 -13.512719
v -11.909543 10.892648 -11.998500
v -11.909543 0.000000 -11.998500
v -17.675865 -0.000000 7.213284
v -17.675865 10.892648 7.213284
v -11.856403 10.892648 12.455389
v -11.856403 0.000000 12.455389
v -11.909543 0.000000 -11.998500
v -11.909543 10.892648 -11.998500
v -16.999542 10.892648 -5.596201
v -16.999542 0.000000 -5.596201
v -18.421955 0.000000 0.224300
v -18.421955 10.892648 0.224300
v -17.675865 10.892648 7.213284
v -17.675865 -0.000000 7.213284
v -16.999542 0.000000 -5.596201
v -16.999542 10.892648 -5.596201
v -18.421955 10.892648 0.224300
v -18.421955 0.000000 0.224300
v -1.780599 0.000000 14.617085
v -1.780599 10.892648 14.617085
v 2.739772 10.892648 14.634713
v 2.739772 0.000000 14.634713
v 2.739772 0.000000 -13.134326
v 2.739772 10.892648 -13.134326
v -1.780599 10.892648 -13.553877
v -1.780599 0.000000 -13.553877
v 7.260133 0.000000 13.604351
v 7.260133 10.892648 13.604351
v 12.765002 10.892648 8.668921
v 12.765002 0.000000 8.668921
v 12.916972 0.000000 -8.350027
v 12.916972 10.892648 -8.350027
v 7.193028 10.892648 -11.787393
v 7.193028 0.000000 -11.787393
v 12.765002 0.000000 8.668921
v 12.765002 10.892648 8.668921
v 16.263845 10.892648 4.906383
v 16.263845 0.000000 4.906383
v 16.263845 0.000000 -4.205970
v 16.263845 10.892648 -4.205970
v 12.916972 10.892648 -8.350027
v 12.916972 0.000000 -8.350027
v 16.263845 0.000000 4.906383
v 16.263845 10.892648 4.906383
v 16.263845 10.892648 -4.205970
v 16.263845 0.000000 -4.205970
vt 0.000000 0.000000
vt 0.000000 1.000000
vt 0.250000 1.000000
vt 0.250000 0.000000
vt 0.500000 1.000000
vt 0.500000 0.000000
vt 0.750000 1.000000
vt 0.750000 0.000000
vt 1.000000 1.000000
vt 1.000000 0.000000
vt 0.000000 0.000000
vt 1.000000 1.000000
vt 0.000000 1.000000
vt 0.467921 1.000000
vt 0.000000 1.000000
vt 0.889278 0.973183
vt 1.000000 0.000000
vt 0.000000 0.000000
vt 0.223610 0.717391
vt 0.802621 0.717391
vt 1.082794 -0.037732
vt 0.000000 0.000000
vt 0.000000 1.000000
vt 1.000000 1.000000
vt 1.000000 0.000000
vt 0.000000 0.000000
vt 0.000000 1.000000
vt 1.000000 1.000000
vt 1.000000 0.000000
vt 0.000000 0.000000
vt 0.000000 1.000000
vt 1.000000 1.000000
vt 1.000000 0.000000
vt 0.000000 0.000000
vt 0.000000 1.000000
vt 1.000000 1.000000
vt 1.000000 0.000000
vt 0.000000 0.000000
vt 0.000000 1.000000
vt 1.000000 1.000000
vt 1.000000 0.000000
vt 0.000000 0.000000
vt 0.000000 1.000000
vt 1.000000 1.000000
vt 1.000000 0.000000
vt 0.000000 0.000000
vt 0.000000 1.000000
vt 1.000000 1.000000
vt 1.000000 0.000000
vt 0.000000 0.000000
vt 0.000000 1.000000
vt 1.000000 1.000000
vt 1.000000 0.000000
vt 0.000000 0.000000
vt 0.000000 1.000000
vt 1.000000 1.000000
vt 1.000000 0.000000
vt 0.000000 0.000000
vt 0.000000 1.000000
vt 1.000000 1.000000
vt 1.000000 0.000000
vt 0.000000 0.000000
vt 0.000000 1.000000
vt 1.000000 1.000000
vt 1.000000 0.000000
vt 0.000000 0.000000
vt 0.000000 1.000000
vt 1.000000 1.000000
vt 1.000000 0.000000
vt 0.000000 0.000000
vt 0.000000 1.000000
vt 1.000000 1.000000
vt 1.000000 0.000000
vt 0.003905 0.000000
vt 0.003905 1.000000
vt 1.000000 1.000000
vt 1.000000 0.000000
vt 0.000000 0.000000
vt 0.000000 1.000000
vt 0.860414 1.000000
vt 0.860414 0.000000
vt 0.139422 -0.000015
vt 0.139422 0.999985
vt 0.989629 1.000004
vt 0.989629 0.000004
vt 0.000003 0.000000
vt 0.000003 1.000000
vt 1.000003 1.000000
vt 1.000003 0.000000
vn 0.000000 1.000000 0.000000
vn 0.000000 1.000000 0.000000
vn 0.000000 1.000000 0.000000
vn 0.000000 1.000000 0.000000
vn 0.000000 1.000000 0.000000
vn 0.000000 1.000000 0.000000
vn 0.000000 1.000000 0.000000
vn 0.000000 1.000000 0.000000
vn 0.000000 1.000000 0.000000
vn 0.000000 1.000000 0.000000
vn 0.000000 1.000000 0.000000
vn 0.000000 1.000000 0.000000
vn 0.000000 1.000000 0.000000
vn 0.000000 1.000000 0.000000
vn 0.000000 1.000000 0.000000
vn 0.000000 1.000000 0.000000
vn 0.000000 1.000000 0.000000
vn 0.000000 1.000000 0.000000
vn 0.000000 1.000000 0.000000
vn 0.000000 1.000000 0.000000
vn 0.000000 1.000000 0.000000
vn -0.111323 0.000000 -0.993784
vn -0.111323 0.000000 -0.993784
vn -0.511382 0.000000 -0.859353
vn -0.511382 0.000000 -0.859353
vn -0.425435 0.000000 0.904989
vn -0.425435 0.000000 0.904989
vn -0.193146 0.000000 0.981170
vn -0.193146 0.000000 0.981170
vn 0.209770 0.000000 -0.977751
vn 0.209770 0.000000 -0.977751
vn 0.020556 0.000000 -0.999789
vn 0.020556 0.000000 -0.999789
vn -0.039253 0.000000 0.999229
vn -0.039253 0.000000 0.999229
vn 0.151779 0.000000 0.988414
vn 0.151779 0.000000 0.988414
vn 0.550752 0.000000 -0.834669
vn 0.550752 0.000000 -0.834669
vn 0.209770 0.000000 -0.977751
vn 0.209770 0.000000 -0.977751
vn 0.151779 0.000000 0.988414
vn 0.151779 0.000000 0.988414
vn 0.616636 0.000000 0.787249
vn 0.616636 0.000000 0.787249
vn 0.881084 0.000000 -0.472959
vn 0.881084 0.000000 -0.472959
vn 0.550752 0.000000 -0.834669
vn 0.550752 0.000000 -0.834669
vn 0.616636 0.000000 0.787249
vn 0.616636 0.000000 0.787249
vn 0.882545 0.000000 0.470228
vn 0.882545 0.000000 0.470228
vn 0.998609 0.000000 0.052725
vn 0.998609 0.000000 0.052725
vn 0.881084 0.000000 -0.472959
vn 0.881084 0.000000 -0.472959
vn 0.882545 0.000000 0.470228
vn 0.882545 0.000000 0.470228
vn 0.998609 0.000000 0.052725
vn 0.998609 0.000000 0.052725
vn 0.020556 0.000000 -0.999789
vn 0.020556 0.000000 -0.999789
vn -0.111323 0.000000 -0.993784
vn -0.111323 0.000000 -0.993784
vn -0.193146 0.000000 0.981170
vn -0.193146 0.000000 0.981170
vn -0.039253 0.000000 0.999229
vn -0.039253 0.000000 0.999229
vn -0.511382 0.000000 -0.859353
vn -0.511382 0.000000 -0.859353
vn -0.694790 0.000000 -0.719213
vn -0.694790 0.000000 -0.719213
vn -0.641302 0.000000 0.767288
vn -0.641302 0.000000 0.767288
vn -0.425435 0.000000 0.904989
vn -0.425435 0.000000 0.904989
vn -0.694790 0.000000 -0.719213
vn -0.694790 0.000000 -0.719213
vn -0.965001 0.000000 -0.262246
vn -0.965001 0.000000 -0.262246
vn -0.969576 0.000000 0.244791
vn -0.969576 0.000000 0.244791
vn -0.641302 0.000000 0.767288
vn -0.641302 0.000000 0.767288
vn -0.965001 0.000000 -0.262246
vn -0.965001 0.000000 -0.262246
vn -0.969576 0.000000 0.244791
vn -0.969576 0.000000 0.244791
usemtl material
f 1/0/1 2/0/2 3/0/3
f 1/0/1 3/0/3 4/0/4
f 4/0/4 3/0/3 5/0/5
f 4/0/4 5/0/5 6/0/6
f 6/0/6 5/0/5 7/0/7
f 6/0/6 7/0/7 8/0/8
f 8/0/8 7/0/7 9/0/9
f 8/0/8 9/0/9 10/0/10
f 11/0/11 12/0/12 10/0/10
f 11/0/11 13/0/13 12/0/12
f 13/0/13 14/0/14 12/0/12
f 1/0/1 15/0/15 16/0/16
f 1/0/1 16/0/16 17/0/17
f 18/0/18 19/0/19 20/0/20
f 18/0/18 20/0/20 21/0/21
f 22/0/22 23/0/23 24/0/24
f 22/0/22 24/0/24 25/0/25
f 26/0/26 27/0/27 28/0/28
f 26/0/26 28/0/28 29/0/29
f 30/0/30 31/0/31 32/0/32
f 30/0/30 32/0/32 33/0/33
f 34/0/34 35/0/35 36/0/36
f 34/0/34 36/0/36 37/0/37
f 38/0/38 39/0/39 40/0/40
f 38/0/38 40/0/40 41/0/41
f 42/0/42 43/0/43 44/0/44
f 42/0/42 44/0/44 45/0/45
f 46/0/46 47/0/47 48/0/48
f 46/0/46 48/0/48 49/0/49
f 50/0/50 51/0/51 52/0/52
f 50/0/50 52/0/52 53/0/53
f 54/0/54 55/0/55 56/0/56
f 54/0/54 56/0/56 57/0/57
f 58/0/58 59/0/59 60/0/60
f 58/0/58 60/0/60 61/0/61
f 62/0/62 63/0/63 64/0/64
f 62/0/62 64/0/64 65/0/65
f 66/0/66 67/0/67 68/0/68
f 66/0/66 68/0/68 69/0/69
f 70/0/70 71/0/71 72/0/72
f 70/0/70 72/0/72 73/0/73
f 74/0/74 75/0/75 76/0/76
f 74/0/74 76/0/76 77/0/77
f 78/0/78 79/0/79 80/0/80
f 78/0/78 80/0/80 81/0/81
f 82/0/82 83/0/83 84/0/84
f 82/0/82 84/0/84 85/0/85
f 86/0/86 87/0/87 88/0/88
f 86/0/86 88/0/88 89/0/89
