# 
# Wavefront OBJ file
# Created with Kaydara FBX
# 
mtllib collision02 #225882.mtl

g Collision02
v -12.806436 0.000000 -7.896890
v -12.806436 0.000000 3.252476
v 19.267460 0.000000 3.252476
v 24.946756 0.000000 -7.896890
v 25.102108 0.000000 -5.883755
v 24.946756 0.000000 -7.896890
v 19.267460 0.000000 3.252476
v 32.973221 0.000000 2.137583
v 26.542734 0.000000 10.478090
v 40.297558 0.000000 9.601704
v 33.312618 0.000000 17.201752
v 44.066700 0.000000 13.442778
v 36.796425 0.000000 20.661781
v 33.312618 0.000000 17.201752
v 26.542734 0.000000 10.478090
v 31.590721 0.000000 18.935493
v 29.153837 0.000000 16.597857
v 12.921650 0.000000 24.192818
v 25.807430 0.000000 19.737299
v 19.691532 0.000000 30.916479
v 28.175331 0.000000 22.374350
v -12.806436 0.000000 3.252476
v -12.806436 10.285912 3.252476
v 19.267460 10.285912 3.252476
v 19.267460 0.000000 3.252476
v 24.946756 0.000000 -7.896890
v 24.946756 10.285912 -7.896890
v -12.806436 10.285912 -7.896890
v -12.806436 0.000000 -7.896890
v -12.806436 0.000000 -7.896890
v -12.806436 10.285912 -7.896890
v -12.806436 10.285912 3.252476
v -12.806436 0.000000 3.252476
v 25.102108 0.000000 -5.883755
v 25.102108 10.285912 -5.883755
v 24.946756 10.285912 -7.896890
v 24.946756 0.000000 -7.896890
v 19.267460 0.000000 3.252476
v 19.267460 10.285912 3.252476
v 26.542734 10.285912 10.478090
v 26.542734 0.000000 10.478090
v 36.796425 0.000000 20.661781
v 36.796425 10.285912 20.661781
v 44.066700 10.285912 13.442778
v 44.066700 0.000000 13.442778
v 32.973221 0.000000 2.137583
v 32.973221 10.285912 2.137583
v 25.102108 10.285912 -5.883755
v 25.102108 0.000000 -5.883755
v 40.297558 0.000000 9.601704
v 40.297558 10.285912 9.601704
v 32.973221 10.285912 2.137583
v 32.973221 0.000000 2.137583
v 33.312618 0.000000 17.201752
v 33.312618 10.285912 17.201752
v 36.796425 10.285912 20.661781
v 36.796425 0.000000 20.661781
v 44.066700 0.000000 13.442778
v 44.066700 10.285912 13.442778
v 40.297558 10.285912 9.601704
v 40.297558 0.000000 9.601704
v 26.542734 0.000000 10.478090
v 26.542734 10.285912 10.478090
v 12.921650 10.285912 24.192818
v 12.921650 0.000000 24.192818
v 31.590721 0.000000 18.935493
v 31.590721 10.285912 18.935493
v 33.312618 10.285912 17.201752
v 33.312618 0.000000 17.201752
v 12.921650 0.000000 24.192818
v 12.921650 10.285912 24.192818
v 19.691532 10.285912 30.916479
v 19.691532 0.000000 30.916479
v 19.691532 0.000000 30.916479
v 19.691532 10.285912 30.916479
v 28.175331 10.285912 22.374350
v 28.175331 0.000000 22.374350
v 29.153837 0.000000 16.597857
v 29.153837 10.285912 16.597857
v 31.590721 10.285912 18.935493
v 31.590721 0.000000 18.935493
v 25.807430 0.000000 19.737299
v 25.807430 10.285912 19.737299
v 29.153837 10.285912 16.597857
v 29.153837 0.000000 16.597857
v 28.175331 0.000000 22.374350
v 28.175331 10.285912 22.374350
v 25.807430 10.285912 19.737299
v 25.807430 0.000000 19.737299
vt 0.624988 0.707617
vt 0.624986 0.883904
vt 0.303411 0.883904
vt 0.303407 0.707617
vt 1.000000 0.047735
vt 1.000000 0.000000
vt 0.000000 0.000000
vt 1.000000 0.442966
vt 0.000000 0.415043
vt 1.000000 0.810741
vt 0.000000 0.801254
vt 1.000000 1.000000
vt 0.000000 1.000000
vt 1.000000 0.000000
vt 0.000000 0.000000
vt 1.000000 0.126414
vt 1.000000 0.160811
vt 0.000000 1.000000
vt 1.000000 0.243591
vt 1.000000 1.000000
vt 1.000000 0.377156
vt 0.000000 0.000000
vt 0.000000 1.000000
vt 1.000000 1.000000
vt 1.000000 0.000000
vt 0.000000 0.000000
vt 0.000000 1.000000
vt 1.000000 1.000000
vt 1.000000 0.000000
vt 0.000000 0.000000
vt 0.000000 1.000000
vt 1.000000 1.000000
vt 1.000000 0.000000
vt 0.000000 0.000000
vt 0.000000 1.000000
vt 1.000000 1.000000
vt 1.000000 0.000000
vt 0.000000 0.000000
vt 0.000000 1.000000
vt 1.000000 1.000000
vt 1.000000 0.000000
vt 0.000000 0.000000
vt 0.000000 1.000000
vt 1.000000 1.000000
vt 1.000000 0.000000
vt 0.000000 0.000000
vt 0.000000 1.000000
vt 1.000000 1.000000
vt 1.000000 0.000000
vt 0.000000 0.000000
vt 0.000000 1.000000
vt 1.000000 1.000000
vt 1.000000 0.000000
vt 0.000000 0.000000
vt 0.000000 1.000000
vt 1.000000 1.000000
vt 1.000000 0.000000
vt 0.000000 0.000000
vt 0.000000 1.000000
vt 1.000000 1.000000
vt 1.000000 0.000000
vt 0.000000 0.000000
vt 0.000000 1.000000
vt 1.000000 1.000000
vt 1.000000 0.000000
vt 0.000000 0.000000
vt 0.000000 1.000000
vt 1.000000 1.000000
vt 1.000000 0.000000
vt 0.000000 0.000000
vt 0.000000 1.000000
vt 1.000000 1.000000
vt 1.000000 0.000000
vt 0.000000 0.000000
vt 0.000000 1.000000
vt 1.000000 1.000000
vt 1.000000 0.000000
vt 0.000000 0.000000
vt 0.000000 1.000000
vt 1.000000 1.000000
vt 1.000000 0.000000
vt 0.000000 0.000000
vt 0.000000 1.000000
vt 1.000000 1.000000
vt 1.000000 0.000000
vt 0.000000 0.000000
vt 0.000000 1.000000
vt 1.000000 1.000000
vt 1.000000 0.000000
vn 0.000000 1.000000 0.000000
vn 0.000000 1.000000 0.000000
vn 0.000000 1.000000 0.000000
vn 0.000000 1.000000 0.000000
vn 0.000000 1.000000 0.000000
vn 0.000000 1.000000 0.000000
vn 0.000000 1.000000 0.000000
vn 0.000000 1.000000 0.000000
vn 0.000000 1.000000 0.000000
vn 0.000000 1.000000 0.000000
vn 0.000000 1.000000 0.000000
vn 0.000000 1.000000 0.000000
vn 0.000000 1.000000 0.000000
vn 0.000000 1.000000 0.000000
vn 0.000000 1.000000 0.000000
vn 0.000000 1.000000 0.000000
vn 0.000000 1.000000 0.000000
vn 0.000000 1.000000 0.000000
vn 0.000000 1.000000 0.000000
vn 0.000000 1.000000 0.000000
vn 0.000000 1.000000 0.000000
vn 0.000000 0.000000 -1.000000
vn 0.000000 0.000000 -1.000000
vn 0.000000 0.000000 -1.000000
vn 0.000000 0.000000 -1.000000
vn 0.000000 0.000000 1.000000
vn 0.000000 0.000000 1.000000
vn 0.000000 0.000000 1.000000
vn 0.000000 0.000000 1.000000
vn 1.000000 0.000000 0.000000
vn 1.000000 0.000000 0.000000
vn 1.000000 0.000000 0.000000
vn 1.000000 0.000000 0.000000
vn -0.997036 0.000000 0.076940
vn -0.997036 0.000000 0.076940
vn -0.997036 0.000000 0.076940
vn -0.997036 0.000000 0.076940
vn 0.704681 0.000000 -0.709524
vn 0.704681 0.000000 -0.709524
vn 0.704681 0.000000 -0.709524
vn 0.704681 0.000000 -0.709524
vn -0.704600 0.000000 -0.709604
vn -0.704600 0.000000 -0.709604
vn -0.704600 0.000000 -0.709604
vn -0.704600 0.000000 -0.709604
vn -0.713759 0.000000 0.700392
vn -0.713759 0.000000 0.700392
vn -0.713759 0.000000 0.700392
vn -0.713759 0.000000 0.700392
vn -0.713759 0.000000 0.700392
vn -0.713759 0.000000 0.700392
vn -0.713759 0.000000 0.700392
vn -0.713759 0.000000 0.700392
vn 0.704681 0.000000 -0.709524
vn 0.704681 0.000000 -0.709524
vn 0.704681 0.000000 -0.709524
vn 0.704681 0.000000 -0.709524
vn -0.713759 0.000000 0.700392
vn -0.713759 0.000000 0.700392
vn -0.713759 0.000000 0.700392
vn -0.713759 0.000000 0.700392
vn 0.709525 0.000000 0.704680
vn 0.709525 0.000000 0.704680
vn 0.709525 0.000000 0.704680
vn 0.709525 0.000000 0.704680
vn -0.709527 0.000000 -0.704679
vn -0.709527 0.000000 -0.704679
vn -0.709527 0.000000 -0.704679
vn -0.709527 0.000000 -0.704679
vn 0.704681 0.000000 -0.709525
vn 0.704681 0.000000 -0.709525
vn 0.704681 0.000000 -0.709525
vn 0.704681 0.000000 -0.709525
vn -0.709525 0.000000 -0.704680
vn -0.709525 0.000000 -0.704680
vn -0.709525 0.000000 -0.704680
vn -0.709525 0.000000 -0.704680
vn 0.692259 0.000000 -0.721650
vn 0.692259 0.000000 -0.721650
vn 0.692259 0.000000 -0.721650
vn 0.692259 0.000000 -0.721650
vn -0.684195 0.000000 -0.729299
vn -0.684195 0.000000 -0.729299
vn -0.684195 0.000000 -0.729299
vn -0.684195 0.000000 -0.729299
vn -0.744058 0.000000 0.668115
vn -0.744058 0.000000 0.668115
vn -0.744058 0.000000 0.668115
vn -0.744058 0.000000 0.668115
usemtl material
f 1/0/1 2/0/2 3/0/3
f 1/0/1 3/0/3 4/0/4
f 5/0/5 6/0/6 7/0/7
f 7/0/7 8/0/8 5/0/5
f 7/0/7 9/0/9 8/0/8
f 9/0/9 10/0/10 8/0/8
f 9/0/9 11/0/11 10/0/10
f 11/0/11 12/0/12 10/0/10
f 11/0/11 13/0/13 12/0/12
f 14/0/14 15/0/15 16/0/16
f 16/0/16 15/0/15 17/0/17
f 15/0/15 18/0/18 17/0/17
f 17/0/17 18/0/18 19/0/19
f 18/0/18 20/0/20 19/0/19
f 19/0/19 20/0/20 21/0/21
f 22/0/22 23/0/23 24/0/24
f 22/0/22 24/0/24 25/0/25
f 26/0/26 27/0/27 28/0/28
f 26/0/26 28/0/28 29/0/29
f 30/0/30 31/0/31 32/0/32
f 30/0/30 32/0/32 33/0/33
f 34/0/34 35/0/35 36/0/36
f 34/0/34 36/0/36 37/0/37
f 38/0/38 39/0/39 40/0/40
f 38/0/38 40/0/40 41/0/41
f 42/0/42 43/0/43 44/0/44
f 42/0/42 44/0/44 45/0/45
f 46/0/46 47/0/47 48/0/48
f 46/0/46 48/0/48 49/0/49
f 50/0/50 51/0/51 52/0/52
f 50/0/50 52/0/52 53/0/53
f 54/0/54 55/0/55 56/0/56
f 54/0/54 56/0/56 57/0/57
f 58/0/58 59/0/59 60/0/60
f 58/0/58 60/0/60 61/0/61
f 62/0/62 63/0/63 64/0/64
f 62/0/62 64/0/64 65/0/65
f 66/0/66 67/0/67 68/0/68
f 66/0/66 68/0/68 69/0/69
f 70/0/70 71/0/71 72/0/72
f 70/0/70 72/0/72 73/0/73
f 74/0/74 75/0/75 76/0/76
f 74/0/74 76/0/76 77/0/77
f 78/0/78 79/0/79 80/0/80
f 78/0/78 80/0/80 81/0/81
f 82/0/82 83/0/83 84/0/84
f 82/0/82 84/0/84 85/0/85
f 86/0/86 87/0/87 88/0/88
f 86/0/86 88/0/88 89/0/89
