# 
# Wavefront OBJ file
# Created with Kaydara FBX
# 
mtllib collision02b.mtl

g Collision02b
v 2.067358 0.000000 17.376049
v -3.772967 0.000000 20.677202
v -3.772967 6.073395 20.677202
v 2.067358 6.073395 17.376049
v 3.307563 0.000000 14.383460
v 3.307563 6.073395 14.383460
v 2.980149 0.000000 10.519476
v 2.980149 6.073395 10.519476
v 2.132683 0.000000 6.988783
v 2.132683 6.073395 6.988783
v 3.430490 0.000000 2.717016
v 3.430490 6.073395 2.717016
v 4.133287 -0.013627 0.073589
v 4.133287 6.059768 0.073589
v 8.021259 0.000000 -2.409849
v 8.021259 6.073395 -2.409849
v 5.007755 6.073395 -5.588961
v 5.007755 0.000000 -5.588961
v -8.755748 0.000000 19.727806
v -8.755748 6.073395 19.727806
v -16.869123 0.000000 19.673859
v -16.869123 6.073395 19.673859
v -22.773537 0.000000 18.914242
v -22.773537 6.073395 18.914242
v -25.354319 0.000000 17.349943
v -25.354319 6.073395 17.349943
v -26.308340 0.000000 15.271986
v -26.308340 6.073395 15.271986
v -26.308340 6.073395 9.813324
v -26.308340 0.000000 9.813324
v -25.453390 0.000000 8.881879
v -25.453390 6.073395 8.881879
v -25.508575 0.000000 7.018197
v -25.508575 6.073395 7.018197
v -26.159122 0.000000 4.267826
v -26.159122 6.073395 4.267826
v -25.031513 0.000000 0.885765
v -25.031513 6.073395 0.885765
v -24.538935 0.000000 -4.376881
v -24.538935 6.073395 -4.376881
v -19.497288 0.000000 -4.376881
v -19.497288 6.073395 -4.376881
v -19.497288 0.000000 -2.183786
v -19.497288 6.073395 -2.183786
v -18.399303 0.000000 -0.194347
v -18.399303 6.073395 -0.194347
v -18.399303 0.000000 14.495619
v -18.399303 6.073395 14.495619
v -3.772967 0.000000 14.495619
v -3.772967 6.073395 14.495619
v -3.772967 6.073395 -2.033062
v -3.772967 0.000000 -2.033062
v -2.646332 6.073395 -2.033062
v -3.772967 6.073395 -2.033062
v -3.772967 0.000000 -2.033062
v -2.646332 0.000000 -2.033062
v -2.646332 6.073395 -4.376881
v -2.646332 0.000000 -4.376881
v 0.040023 6.073395 -4.376881
v 0.040023 0.000000 -4.376881
v 5.007755 6.073395 -5.588961
v 5.007755 0.000000 -5.588961
v 4.133287 -0.013627 0.073589
v 8.021259 0.000000 -2.409849
v 5.007755 0.000000 -5.588961
v -2.646332 0.000000 -4.376881
v -2.646332 0.000000 -2.033062
v 0.040023 0.000000 -4.376881
v 4.133287 -0.013627 0.073589
v 0.040023 0.000000 -4.376881
v 3.430490 0.000000 2.717016
v 5.007755 0.000000 -5.588961
v 2.132683 0.000000 6.988783
v 3.430490 0.000000 2.717016
v -2.646332 0.000000 -2.033062
v 0.040023 0.000000 -4.376881
v -3.772967 0.000000 -2.033062
v -3.772967 0.000000 14.495619
v -2.646332 0.000000 -2.033062
v 2.132683 0.000000 6.988783
v 2.980149 0.000000 10.519476
v -2.646332 0.000000 -2.033062
v 2.067358 0.000000 17.376049
v 3.307563 0.000000 14.383460
v -3.772967 0.000000 14.495619
v 2.980149 0.000000 10.519476
v -3.772967 0.000000 20.677202
v 2.067358 0.000000 17.376049
v -3.772967 0.000000 14.495619
v -8.755748 0.000000 19.727806
v -3.772967 0.000000 20.677202
v -3.772967 0.000000 14.495619
v -16.869123 0.000000 19.673859
v -8.755748 0.000000 19.727806
v -18.399303 0.000000 14.495619
v -3.772967 0.000000 14.495619
v -22.773537 0.000000 18.914242
v -16.869123 0.000000 19.673859
v -18.399303 0.000000 14.495619
v -22.773537 0.000000 18.914242
v -18.399303 0.000000 14.495619
v -25.354319 0.000000 17.349943
v -26.308340 0.000000 15.271986
v -25.354319 0.000000 17.349943
v -18.399303 0.000000 14.495619
v -25.453390 0.000000 8.881879
v -26.308340 0.000000 9.813324
v -26.308340 0.000000 15.271986
v -26.308340 0.000000 15.271986
v -18.399303 0.000000 14.495619
v -25.508575 0.000000 7.018197
v -18.399303 0.000000 14.495619
v -18.399303 0.000000 -0.194347
v -25.453390 0.000000 8.881879
v -26.159122 0.000000 4.267826
v -25.508575 0.000000 7.018197
v -18.399303 0.000000 -0.194347
v -25.031513 0.000000 0.885765
v -26.159122 0.000000 4.267826
v -18.399303 0.000000 -0.194347
v -19.497288 0.000000 -2.183786
v -25.031513 0.000000 0.885765
v -18.399303 0.000000 -0.194347
v -24.538935 0.000000 -4.376881
v -19.497288 0.000000 -2.183786
v -19.497288 0.000000 -4.376881
vt 0.375000 0.000000
vt 0.625000 0.000000
vt 0.625000 0.250000
vt 0.375000 0.250000
vt 0.332983 0.000000
vt 0.332983 0.250000
vt 0.290966 0.000000
vt 0.290966 0.250000
vt 0.250928 0.000000
vt 0.250928 0.250000
vt 0.205263 0.000000
vt 0.205263 0.250000
vt 0.189767 0.000000
vt 0.189767 0.250000
vt 0.165543 0.000000
vt 0.165543 0.250000
vt 0.125000 0.250000
vt 0.125000 0.000000
vt 0.625000 0.000000
vt 0.625000 0.250000
vt 0.625000 0.000000
vt 0.625000 0.250000
vt 0.625000 0.000000
vt 0.625000 0.250000
vt 0.625000 0.000000
vt 0.625000 0.250000
vt 0.625000 0.000000
vt 0.625000 0.250000
vt 0.693151 0.250000
vt 0.693151 0.000000
vt 0.693151 0.000000
vt 0.693151 0.250000
vt 0.693151 0.000000
vt 0.693151 0.250000
vt 0.693151 0.000000
vt 0.693151 0.250000
vt 0.693151 0.000000
vt 0.693151 0.250000
vt 0.693151 0.000000
vt 0.693151 0.250000
vt 0.693151 0.000000
vt 0.693151 0.250000
vt 0.693151 0.000000
vt 0.693151 0.250000
vt 0.693151 0.000000
vt 0.693151 0.250000
vt 0.693151 0.000000
vt 0.693151 0.250000
vt 0.693151 0.000000
vt 0.693151 0.250000
vt 0.875000 0.250000
vt 0.875000 0.000000
vt 0.586180 0.500000
vt 0.625000 0.500000
vt 0.625000 0.750000
vt 0.586180 0.750000
vt 0.559998 0.500000
vt 0.559998 0.750000
vt 0.413336 0.500000
vt 0.413336 0.750000
vt 0.375000 0.500000
vt 0.375000 0.750000
vt 0.000000 0.000000
vt 0.673339 0.000000
vt 0.649142 0.623690
vt 0.000000 0.000000
vt 0.872490 0.000000
vt 0.000000 1.000000
vt 0.000000 0.709390
vt 0.309740 0.000000
vt 0.195334 1.000000
vt 1.000000 0.000000
vt 0.000000 0.000000
vt 0.434865 0.000000
vt 0.705499 0.700841
vt 1.000000 0.516843
vt 0.000000 0.000000
vt 1.000000 0.000000
vt 0.000000 0.068162
vt 0.523689 0.324831
vt 0.732832 0.390359
vt 0.000000 0.000000
vt 0.000000 0.000000
vt 0.484676 0.000000
vt 0.063588 0.972245
vt 1.000000 0.266591
vt 0.000000 0.000000
vt 1.000000 0.000000
vt 0.453404 0.802152
vt 0.000000 0.000000
vt 0.835332 0.000000
vt 0.644797 1.000000
vt 0.106972 0.000000
vt 0.661707 0.000000
vt 0.000000 0.353340
vt 1.000000 0.359989
vt 0.000000 0.000000
vt 1.000000 0.000000
vt 0.634068 0.829934
vt 0.101705 0.000000
vt 1.000000 0.000000
vt 0.000000 0.423982
vt 0.000000 0.000000
vt 0.304394 0.000000
vt 0.345387 1.000000
vt 0.000000 0.000000
vt 0.239194 0.000000
vt 1.000000 0.698323
vt 0.833358 0.000000
vt 0.598316 1.000000
vt 0.476654 0.000000
vt 1.000000 0.468882
vt 0.000000 0.498493
vt 0.603633 0.000000
vt 0.297976 0.000000
vt 0.627433 0.000000
vt 0.000000 1.000000
vt 0.466900 0.000000
vt 1.000000 0.000000
vt 0.000000 0.889738
vt 0.263539 0.803373
vt 0.812840 0.000000
vt 0.552413 1.000000
vt 0.000000 0.000000
vt 1.000000 0.000000
vt 0.840886 0.365782
vn -0.664360 0.000000 -0.747413
vn -0.212336 0.000000 -0.977197
vn -0.212336 0.000000 -0.977197
vn -0.664360 0.000000 -0.747413
vn -0.991255 0.000000 -0.131962
vn -0.991255 0.000000 -0.131962
vn -0.987612 0.000000 0.156914
vn -0.987612 0.000000 0.156914
vn -0.998338 0.000000 -0.057622
vn -0.998338 0.000000 -0.057622
vn -0.960615 0.000000 -0.277884
vn -0.960600 0.000000 -0.277934
vn -0.744828 0.000000 -0.667257
vn -0.745138 0.000000 -0.666910
vn -0.988111 0.000000 -0.153743
vn -0.988458 0.000000 -0.151496
vn -0.239297 0.000000 0.970947
vn -0.239297 0.000000 0.970947
vn 0.076390 0.000000 -0.997078
vn 0.076390 0.000000 -0.997078
vn 0.057941 0.000000 -0.998320
vn 0.057941 0.000000 -0.998320
vn 0.264151 0.000000 -0.964481
vn 0.264151 0.000000 -0.964481
vn 0.717613 0.000000 -0.696442
vn 0.717613 0.000000 -0.696442
vn 0.992083 0.000000 -0.125583
vn 0.992083 0.000000 -0.125583
vn 0.991168 0.000000 0.132611
vn 0.991168 0.000000 0.132611
vn 0.961419 0.000000 0.275089
vn 0.961419 0.000000 0.275089
vn 0.988504 0.000000 -0.151194
vn 0.988504 0.000000 -0.151194
vn 0.996988 0.000000 0.077559
vn 0.996988 0.000000 0.077559
vn 0.982886 0.000000 0.184212
vn 0.982886 0.000000 0.184212
vn 0.689103 0.000000 0.724664
vn 0.689103 0.000000 0.724664
vn -0.398891 0.000000 0.916999
vn -0.398891 0.000000 0.916999
vn -0.967227 0.000000 0.253913
vn -0.967227 0.000000 0.253913
vn -0.997840 0.000000 0.065687
vn -0.997840 0.000000 0.065687
vn -0.708640 0.000000 0.705570
vn -0.708640 0.000000 0.705570
vn 0.748888 0.000000 0.662696
vn 0.748888 0.000000 0.662696
vn 0.997685 0.000000 0.068005
vn 0.997685 0.000000 0.068005
vn 0.901283 0.000000 0.433232
vn 0.997685 0.000000 0.068005
vn 0.997685 0.000000 0.068005
vn 0.901283 0.000000 0.433232
vn 0.657433 0.000000 0.753513
vn 0.657433 0.000000 0.753513
vn 0.156408 0.000000 0.987692
vn 0.156408 0.000000 0.987692
vn -0.239297 0.000000 0.970947
vn -0.239297 0.000000 0.970947
vn 0.002603 0.999997 -0.000045
vn -0.002183 0.999995 0.002069
vn -0.000401 0.999997 0.002345
vn 0.000000 1.000000 0.000000
vn 0.000000 1.000000 0.000000
vn 0.000639 0.999999 0.000805
vn 0.002603 0.999997 -0.000045
vn 0.000639 0.999999 0.000805
vn 0.000806 1.000000 -0.000385
vn -0.000401 0.999997 0.002345
vn 0.000000 1.000000 0.000000
vn 0.000806 1.000000 -0.000385
vn 0.000000 1.000000 0.000000
vn 0.000639 0.999999 0.000805
vn 0.000000 1.000000 0.000000
vn 0.000000 1.000000 0.000000
vn 0.000000 1.000000 0.000000
vn 0.000000 1.000000 0.000000
vn 0.000000 1.000000 0.000000
vn 0.000000 1.000000 0.000000
vn 0.000000 1.000000 0.000000
vn 0.000000 1.000000 0.000000
vn 0.000000 1.000000 0.000000
vn 0.000000 1.000000 0.000000
vn 0.000000 1.000000 0.000000
vn 0.000000 1.000000 0.000000
vn 0.000000 1.000000 0.000000
vn 0.000000 1.000000 0.000000
vn 0.000000 1.000000 0.000000
vn 0.000000 1.000000 0.000000
vn 0.000000 1.000000 0.000000
vn 0.000000 1.000000 0.000000
vn 0.000000 1.000000 0.000000
vn 0.000000 1.000000 0.000000
vn 0.000000 1.000000 0.000000
vn 0.000000 1.000000 0.000000
vn 0.000000 1.000000 0.000000
vn 0.000000 1.000000 0.000000
vn 0.000000 1.000000 0.000000
vn 0.000000 1.000000 0.000000
vn 0.000000 1.000000 0.000000
vn 0.000000 1.000000 0.000000
vn 0.000000 1.000000 0.000000
vn 0.000000 1.000000 0.000000
vn 0.000000 1.000000 0.000000
vn 0.000000 1.000000 0.000000
vn 0.000000 1.000000 0.000000
vn 0.000000 1.000000 0.000000
vn 0.000000 1.000000 0.000000
vn 0.000000 1.000000 0.000000
vn 0.000000 1.000000 0.000000
vn 0.000000 1.000000 0.000000
vn 0.000000 1.000000 0.000000
vn 0.000000 1.000000 0.000000
vn 0.000000 1.000000 0.000000
vn 0.000000 1.000000 0.000000
vn 0.000000 1.000000 0.000000
vn 0.000000 1.000000 0.000000
vn 0.000000 1.000000 0.000000
vn 0.000000 1.000000 0.000000
vn 0.000000 1.000000 0.000000
vn 0.000000 1.000000 0.000000
vn 0.000000 1.000000 0.000000
vn 0.000000 1.000000 0.000000
usemtl material
f 1/0/1 2/0/2 3/0/3
f 1/0/1 3/0/3 4/0/4
f 5/0/5 1/0/1 4/0/4
f 5/0/5 4/0/4 6/0/6
f 7/0/7 5/0/5 6/0/6
f 7/0/7 6/0/6 8/0/8
f 9/0/9 7/0/7 8/0/8
f 9/0/9 8/0/8 10/0/10
f 11/0/11 9/0/9 10/0/10
f 11/0/11 10/0/10 12/0/12
f 13/0/13 11/0/11 12/0/12
f 13/0/13 12/0/12 14/0/14
f 15/0/15 13/0/13 14/0/14
f 15/0/15 14/0/14 16/0/16
f 15/0/15 16/0/16 17/0/17
f 15/0/15 17/0/17 18/0/18
f 3/0/3 2/0/2 19/0/19
f 20/0/20 19/0/19 21/0/21
f 20/0/20 21/0/21 22/0/22
f 3/0/3 19/0/19 20/0/20
f 22/0/22 21/0/21 23/0/23
f 22/0/22 23/0/23 24/0/24
f 24/0/24 23/0/23 25/0/25
f 24/0/24 25/0/25 26/0/26
f 26/0/26 25/0/25 27/0/27
f 26/0/26 27/0/27 28/0/28
f 27/0/27 29/0/29 28/0/28
f 27/0/27 30/0/30 29/0/29
f 31/0/31 29/0/29 30/0/30
f 31/0/31 32/0/32 29/0/29
f 33/0/33 32/0/32 31/0/31
f 33/0/33 34/0/34 32/0/32
f 35/0/35 34/0/34 33/0/33
f 35/0/35 36/0/36 34/0/34
f 37/0/37 36/0/36 35/0/35
f 37/0/37 38/0/38 36/0/36
f 39/0/39 38/0/38 37/0/37
f 39/0/39 40/0/40 38/0/38
f 41/0/41 40/0/40 39/0/39
f 41/0/41 42/0/42 40/0/40
f 43/0/43 42/0/42 41/0/41
f 43/0/43 44/0/44 42/0/42
f 45/0/45 44/0/44 43/0/43
f 45/0/45 46/0/46 44/0/44
f 47/0/47 46/0/46 45/0/45
f 47/0/47 48/0/48 46/0/46
f 49/0/49 48/0/48 47/0/47
f 49/0/49 50/0/50 48/0/48
f 49/0/49 51/0/51 50/0/50
f 49/0/49 52/0/52 51/0/51
f 53/0/53 54/0/54 55/0/55
f 53/0/53 55/0/55 56/0/56
f 57/0/57 53/0/53 56/0/56
f 57/0/57 56/0/56 58/0/58
f 59/0/59 57/0/57 58/0/58
f 59/0/59 58/0/58 60/0/60
f 60/0/60 61/0/61 59/0/59
f 60/0/60 62/0/62 61/0/61
f 63/0/63 64/0/64 65/0/65
f 66/0/66 67/0/67 68/0/68
f 69/0/69 70/0/70 71/0/71
f 69/0/69 72/0/72 70/0/70
f 73/0/73 74/0/74 75/0/75
f 75/0/75 74/0/74 76/0/76
f 77/0/77 78/0/78 79/0/79
f 80/0/80 78/0/78 81/0/81
f 82/0/82 78/0/78 80/0/80
f 83/0/83 84/0/84 85/0/85
f 85/0/85 84/0/84 86/0/86
f 87/0/87 88/0/88 89/0/89
f 90/0/90 91/0/91 92/0/92
f 93/0/93 94/0/94 95/0/95
f 95/0/95 94/0/94 96/0/96
f 97/0/97 98/0/98 99/0/99
f 100/0/100 101/0/101 102/0/102
f 103/0/103 104/0/104 105/0/105
f 106/0/106 107/0/107 108/0/108
f 106/0/106 109/0/109 110/0/110
f 111/0/111 112/0/112 113/0/113
f 111/0/111 114/0/114 112/0/112
f 115/0/115 116/0/116 117/0/117
f 118/0/118 119/0/119 120/0/120
f 121/0/121 122/0/122 123/0/123
f 124/0/124 122/0/122 121/0/121
f 124/0/124 125/0/125 126/0/126
