# 
# Wavefront OBJ file
# Created with Kaydara FBX
# 
mtllib collision01 #2279016.mtl

g Collision01
v 8.148908 0.264404 -2.693741
v -8.082644 0.264404 -2.693740
v -8.082637 0.264404 4.923212
v 8.148916 0.264404 4.923212
v -50.938213 0.264404 -2.693741
v -50.938213 0.264404 4.923212
v -8.082637 0.264404 4.923212
v -8.082644 0.264404 -2.693740
v 44.370144 0.264404 4.923212
v 44.370140 0.264404 -2.693740
v 8.148908 0.264404 -2.693741
v 8.148916 0.264404 4.923212
v 44.370140 0.264404 -2.693740
v 44.370144 0.264404 4.923212
v 57.391087 0.264404 4.923212
v 57.391087 0.264404 -2.693740
v 44.370144 0.264404 7.589874
v 47.999992 0.264404 10.923208
v 57.391087 0.264404 10.923208
v 44.370140 0.264404 -14.835405
v 57.391087 0.264404 -14.835405
v 8.148916 0.264404 12.808784
v -8.082637 0.264404 12.808784
v 4.797676 0.264404 17.703268
v 2.197269 0.264404 16.999815
v 2.557238 0.264404 17.703268
v 1.594633 0.264404 16.999815
v 0.953308 0.264404 17.703268
v -1.558108 0.264404 16.999813
v -0.952061 0.264404 17.703266
v -2.203324 0.264404 16.999811
v -4.731399 0.264404 17.703264
v -2.515270 0.264404 17.703264
v 8.148916 0.264404 4.923212
v -8.082637 0.264404 4.923212
v 8.148909 0.264404 -4.358720
v -8.082644 0.264404 -4.358719
v -8.082644 0.264404 -2.693740
v 8.148908 0.264404 -2.693741
v 7.065127 0.264404 -5.693742
v -6.998865 0.264404 -5.693742
v 57.391094 0.264404 -27.329512
v 48.000000 0.264404 -27.329514
v 44.370144 0.264404 -23.996180
v 44.370140 0.264404 -14.835405
v 57.391087 0.264404 -14.835405
v 57.391087 0.264404 4.923212
v 57.391087 6.234283 4.923212
v 57.391087 6.234283 -2.693740
v 57.391087 0.264404 -2.693740
v -50.938213 0.264404 -2.693741
v -50.938213 6.234283 -2.693741
v -50.938213 6.234283 4.923212
v -50.938213 0.264404 4.923212
v -50.938213 0.264404 4.923212
v -50.938213 6.234283 4.923212
v -8.082637 6.234283 4.923212
v -8.082637 0.264404 4.923212
v -8.082644 0.264404 -2.693740
v -8.082644 6.234283 -2.693740
v -50.938213 6.234283 -2.693741
v -50.938213 0.264404 -2.693741
v 44.370140 0.264404 -2.693740
v 44.370140 6.234283 -2.693740
v 8.148908 6.234283 -2.693741
v 8.148908 0.264404 -2.693741
v 8.148916 0.264404 4.923212
v 8.148916 6.234283 4.923212
v 44.370144 6.234283 4.923212
v 44.370144 0.264404 4.923212
v 57.391087 0.264404 10.923208
v 57.391087 6.234283 10.923208
v 57.391087 6.234283 4.923212
v 57.391087 0.264404 4.923212
v 57.391087 0.264404 -2.693740
v 57.391087 6.234283 -2.693740
v 57.391087 6.234283 -14.835405
v 57.391087 0.264404 -14.835405
v 47.999992 0.264404 10.923208
v 47.999992 6.234283 10.923208
v 57.391087 6.234283 10.923208
v 57.391087 0.264404 10.923208
v 44.370144 0.264404 7.589874
v 44.370144 6.234283 7.589874
v 47.999992 6.234283 10.923208
v 47.999992 0.264404 10.923208
v 44.370144 0.264404 4.923212
v 44.370144 6.234283 4.923212
v 44.370144 6.234283 7.589874
v 44.370144 0.264404 7.589874
v -8.082637 0.264404 12.808784
v -8.082637 6.234283 12.808784
v -4.731399 6.234283 17.703264
v -4.731399 0.264404 17.703264
v 2.557238 0.264404 17.703268
v 2.557238 6.234283 17.703268
v 4.797676 6.234283 17.703268
v 4.797676 0.264404 17.703268
v 2.197269 0.264404 16.999815
v 2.197269 6.234283 16.999815
v 1.594633 0.264404 16.999815
v 1.594633 6.234283 16.999815
v 0.953308 0.264404 17.703268
v 0.953308 6.234283 17.703268
v -0.952061 0.264404 17.703266
v -0.952061 6.234283 17.703266
v -1.558108 0.264404 16.999813
v -1.558108 6.234283 16.999813
v -2.203324 0.264404 16.999811
v -2.203324 6.234283 16.999811
v -2.515270 0.264404 17.703264
v -2.515270 6.234283 17.703264
v -4.731399 0.264404 17.703264
v -4.731399 6.234283 17.703264
v 4.797676 0.264404 17.703268
v 4.797676 6.234283 17.703268
v 8.148916 6.234283 12.808784
v 8.148916 0.264404 12.808784
v -8.082637 0.264404 4.923212
v -8.082637 6.234283 4.923212
v -8.082637 6.234283 12.808784
v -8.082637 0.264404 12.808784
v 8.148916 0.264404 12.808784
v 8.148916 6.234283 12.808784
v 8.148916 6.234283 4.923212
v 8.148916 0.264404 4.923212
v 8.148908 0.264404 -2.693741
v 8.148908 6.234283 -2.693741
v 8.148909 6.234283 -4.358720
v 8.148909 0.264404 -4.358720
v -8.082644 0.264404 -4.358719
v -8.082644 6.234283 -4.358719
v -8.082644 6.234283 -2.693740
v -8.082644 0.264404 -2.693740
v 8.148909 0.264404 -4.358720
v 8.148909 6.234283 -4.358720
v 7.065127 6.234283 -5.693742
v 7.065127 0.264404 -5.693742
v -6.998865 6.234283 -5.693742
v -6.998865 0.264404 -5.693742
v 7.065127 0.264404 -5.693742
v 7.065127 6.234283 -5.693742
v -6.998865 0.264404 -5.693742
v -6.998865 6.234283 -5.693742
v -8.082644 6.234283 -4.358719
v -8.082644 0.264404 -4.358719
v 44.370140 0.264404 -14.835405
v 44.370140 6.234283 -14.835405
v 44.370140 6.234283 -2.693740
v 44.370140 0.264404 -2.693740
v 57.391094 0.264404 -27.329512
v 57.391094 6.234283 -27.329512
v 48.000000 6.234283 -27.329514
v 48.000000 0.264404 -27.329514
v 48.000000 0.264404 -27.329514
v 48.000000 6.234283 -27.329514
v 44.370144 6.234283 -23.996180
v 44.370144 0.264404 -23.996180
v 57.391087 0.264404 -14.835405
v 57.391087 6.234283 -14.835405
v 57.391094 6.234283 -27.329512
v 57.391094 0.264404 -27.329512
v 44.370144 0.264404 -23.996180
v 44.370144 6.234283 -23.996180
v 44.370140 6.234283 -14.835405
v 44.370140 0.264404 -14.835405
vt 0.005384 3.082647
vt 0.005384 2.029284
vt 0.499694 2.029285
vt 0.499694 3.082648
vt 0.005385 -0.928548
vt 0.499694 -0.928548
vt 0.499694 1.921513
vt 0.005384 1.921512
vt 0.499694 5.448050
vt 0.005384 5.448050
vt 0.005384 3.097436
vt 0.499694 3.097437
vt 0.988951 0.203612
vt 0.988950 0.470360
vt 0.511630 0.470360
vt 0.511630 0.203612
vt 0.988950 0.563747
vt 0.861832 0.680481
vt 0.511630 0.680481
vt 0.988951 -0.221592
vt 0.511630 -0.221592
vt 0.806777 0.644417
vt 0.806777 0.040089
vt 0.989007 0.519645
vt 0.989007 0.412444
vt 0.989007 0.433084
vt 0.989007 0.391550
vt 0.989007 0.375205
vt 0.989007 0.283008
vt 0.989007 0.305573
vt 0.989007 0.265886
vt 0.989007 0.164861
vt 0.989007 0.247732
vt 0.513184 0.644417
vt 0.513184 0.040089
vt 0.743059 0.644417
vt 0.743059 0.040089
vt 0.805049 0.040089
vt 0.805049 0.644417
vt 0.693353 0.604066
vt 0.693353 0.080440
vt 0.511630 0.975272
vt 0.861832 0.975273
vt 0.988950 0.858539
vt 0.988951 0.537726
vt 0.511630 0.537726
vt 0.000000 0.000000
vt -0.000127 0.807407
vt 0.999873 0.807407
vt 1.000000 0.000000
vt 0.000000 0.000000
vt -0.000136 0.807439
vt 0.999864 0.807439
vt 1.000000 0.000000
vt 0.000000 0.000000
vt -0.000003 0.807456
vt 0.999997 0.807456
vt 1.000000 0.000000
vt 0.000000 0.000000
vt -0.000000 0.807458
vt 1.000000 0.807458
vt 1.000000 0.000000
vt 0.000000 0.000000
vt -0.000000 0.807458
vt 1.000000 0.807458
vt 1.000000 0.000000
vt 0.000000 0.000000
vt 0.000001 0.807461
vt 1.000001 0.807461
vt 1.000000 0.000000
vt 0.000000 0.000000
vt 0.000115 0.807386
vt 1.000115 0.807386
vt 1.000000 0.000000
vt 0.000000 0.000000
vt -0.000156 0.807410
vt 0.999844 0.807410
vt 1.000000 0.000000
vt 0.000000 0.000000
vt -0.000011 0.807447
vt 0.999989 0.807447
vt 1.000000 0.000000
vt 0.000000 0.000000
vt -0.000057 0.807443
vt 0.999941 0.807444
vt 1.000000 0.000000
vt 0.000000 0.000000
vt -0.000069 0.807379
vt 0.999931 0.807379
vt 1.000000 0.000000
vt 0.000000 0.000000
vt -0.000014 0.807467
vt 0.999985 0.807466
vt 1.000000 0.000000
vt 0.756019 0.000000
vt 0.756018 0.807423
vt 0.999999 0.807423
vt 1.000000 0.000000
vt 0.697842 0.000000
vt 0.697841 0.807423
vt 0.638949 0.000000
vt 0.638948 0.807423
vt 0.592880 0.000000
vt 0.592879 0.807423
vt 0.396611 0.000000
vt 0.396610 0.807423
vt 0.333011 0.000000
vt 0.333010 0.807423
vt 0.284751 0.000000
vt 0.284750 0.807423
vt 0.233581 0.000000
vt 0.233580 0.807423
vt 0.000000 0.000000
vt -0.000001 0.807423
vt 0.000000 0.000000
vt 0.000012 0.807466
vt 1.000014 0.807466
vt 1.000000 0.000000
vt 0.000000 0.000000
vt 0.000001 0.807457
vt 1.000001 0.807457
vt 1.000000 0.000000
vt 0.000000 0.000000
vt -0.000007 0.807454
vt 0.999993 0.807454
vt 1.000000 0.000000
vt 0.000000 0.000000
vt -0.000003 0.807457
vt 0.999997 0.807457
vt 1.000000 0.000000
vt 0.000000 0.000000
vt 0.000007 0.807465
vt 1.000007 0.807465
vt 1.000000 0.000000
vt 0.000000 0.000000
vt -0.000001 0.807458
vt 0.999999 0.807458
vt 1.000000 0.000000
vt 0.999996 0.807455
vt 1.000000 0.000000
vt 0.000000 0.000000
vt -0.000004 0.807455
vt 0.000000 0.000000
vt -0.000004 0.807448
vt 0.999996 0.807448
vt 1.000000 0.000000
vt 0.000000 0.000000
vt -0.000120 0.807415
vt 0.999880 0.807415
vt 1.000000 0.000000
vt 0.000000 0.000000
vt -0.000025 0.807474
vt 0.999975 0.807474
vt 1.000000 0.000000
vt 0.000000 0.000000
vt -0.000010 0.807491
vt 0.999993 0.807489
vt 1.000000 0.000000
vt 0.000000 0.000000
vt -0.000067 0.807123
vt 0.999933 0.807123
vt 1.000000 0.000000
vt 0.000000 0.000000
vt 0.000027 0.807631
vt 1.000027 0.807631
vt 1.000000 0.000000
vn 0.000000 1.000000 0.000000
vn 0.000000 1.000000 0.000000
vn 0.000000 1.000000 0.000000
vn 0.000000 1.000000 0.000000
vn 0.000000 1.000000 0.000000
vn 0.000000 1.000000 0.000000
vn 0.000000 1.000000 0.000000
vn 0.000000 1.000000 0.000000
vn 0.000000 1.000000 0.000000
vn 0.000000 1.000000 0.000000
vn 0.000000 1.000000 0.000000
vn 0.000000 1.000000 0.000000
vn 0.000000 1.000000 0.000000
vn 0.000000 1.000000 0.000000
vn 0.000000 1.000000 0.000000
vn 0.000000 1.000000 0.000000
vn 0.000000 1.000000 0.000000
vn 0.000000 1.000000 0.000000
vn 0.000000 1.000000 0.000000
vn 0.000000 1.000000 0.000000
vn 0.000000 1.000000 0.000000
vn 0.000000 1.000000 0.000000
vn 0.000000 1.000000 0.000000
vn 0.000000 1.000000 0.000000
vn 0.000000 1.000000 0.000000
vn 0.000000 1.000000 0.000000
vn 0.000000 1.000000 0.000000
vn 0.000000 1.000000 0.000000
vn 0.000000 1.000000 0.000000
vn 0.000000 1.000000 0.000000
vn 0.000000 1.000000 0.000000
vn 0.000000 1.000000 0.000000
vn 0.000000 1.000000 0.000000
vn 0.000000 1.000000 0.000000
vn 0.000000 1.000000 0.000000
vn 0.000000 1.000000 0.000000
vn 0.000000 1.000000 0.000000
vn 0.000000 1.000000 0.000000
vn 0.000000 1.000000 0.000000
vn 0.000000 1.000000 0.000000
vn 0.000000 1.000000 0.000000
vn 0.000000 1.000000 0.000000
vn 0.000000 1.000000 0.000000
vn 0.000000 1.000000 0.000000
vn 0.000000 1.000000 0.000000
vn 0.000000 1.000000 0.000000
vn -1.000000 0.000000 0.000000
vn -1.000000 0.000000 0.000000
vn -1.000000 0.000000 0.000000
vn -1.000000 0.000000 0.000000
vn 1.000000 0.000000 0.000000
vn 1.000000 0.000000 0.000000
vn 1.000000 0.000000 0.000000
vn 1.000000 0.000000 0.000000
vn 0.000000 0.000000 -1.000000
vn 0.000000 0.000000 -1.000000
vn 0.000000 0.000000 -1.000000
vn 0.000000 0.000000 -1.000000
vn 0.000000 0.000000 1.000000
vn 0.000000 0.000000 1.000000
vn 0.000000 0.000000 1.000000
vn 0.000000 0.000000 1.000000
vn 0.000000 0.000000 1.000000
vn 0.000000 0.000000 1.000000
vn 0.000000 0.000000 1.000000
vn 0.000000 0.000000 1.000000
vn 0.000000 0.000000 -1.000000
vn 0.000000 0.000000 -1.000000
vn 0.000000 0.000000 -1.000000
vn 0.000000 0.000000 -1.000000
vn -1.000000 0.000000 0.000000
vn -1.000000 0.000000 0.000000
vn -1.000000 0.000000 0.000000
vn -1.000000 0.000000 0.000000
vn -1.000000 0.000000 0.000000
vn -1.000000 0.000000 0.000000
vn -1.000000 0.000000 0.000000
vn -1.000000 0.000000 0.000000
vn 0.000000 0.000000 -1.000000
vn 0.000000 0.000000 -1.000000
vn 0.000000 0.000000 -1.000000
vn 0.000000 0.000000 -1.000000
vn 0.676383 0.000000 -0.736550
vn 0.676383 0.000000 -0.736550
vn 0.676383 0.000000 -0.736550
vn 0.676383 0.000000 -0.736550
vn 1.000000 0.000000 0.000000
vn 1.000000 0.000000 0.000000
vn 1.000000 0.000000 0.000000
vn 1.000000 0.000000 0.000000
vn 0.825120 0.000000 -0.564957
vn 0.825120 0.000000 -0.564957
vn 0.825120 0.000000 -0.564957
vn 0.825120 0.000000 -0.564957
vn 0.261131 0.000000 -0.965303
vn 0.261131 0.000000 -0.965303
vn 0.000000 0.000000 -1.000000
vn 0.000000 0.000000 -1.000000
vn 0.590023 0.000000 -0.807386
vn 0.590023 0.000000 -0.807386
vn -0.492241 0.000000 -0.870459
vn -0.492241 0.000000 -0.870459
vn -0.266251 0.000000 -0.963904
vn -0.266251 0.000000 -0.963904
vn 0.269722 0.000000 -0.962938
vn 0.269722 0.000000 -0.962938
vn 0.490060 0.000000 -0.871689
vn 0.490060 0.000000 -0.871689
vn -0.592202 0.000000 -0.805789
vn -0.592203 0.000000 -0.805789
vn -0.268072 0.000000 -0.963399
vn -0.268072 0.000000 -0.963399
vn 0.000000 0.000000 -1.000000
vn 0.000000 0.000000 -1.000000
vn -0.825120 0.000000 -0.564957
vn -0.825120 0.000000 -0.564957
vn -0.825120 0.000000 -0.564957
vn -0.825120 0.000000 -0.564957
vn 1.000000 0.000000 0.000000
vn 1.000000 0.000000 0.000000
vn 1.000000 0.000000 0.000000
vn 1.000000 0.000000 0.000000
vn -1.000000 0.000000 0.000000
vn -1.000000 0.000000 0.000000
vn -1.000000 0.000000 0.000000
vn -1.000000 0.000000 0.000000
vn -1.000000 0.000000 -0.000000
vn -1.000000 0.000000 -0.000000
vn -1.000000 0.000000 -0.000000
vn -1.000000 0.000000 -0.000000
vn 1.000000 0.000000 0.000000
vn 1.000000 0.000000 0.000000
vn 1.000000 0.000000 0.000000
vn 1.000000 0.000000 0.000000
vn -0.776377 0.000000 0.630269
vn -0.776377 0.000000 0.630269
vn -0.776377 0.000000 0.630269
vn -0.776377 0.000000 0.630269
vn 0.000000 0.000000 1.000000
vn 0.000000 0.000000 1.000000
vn 0.000000 0.000000 1.000000
vn 0.000000 0.000000 1.000000
vn 0.776378 0.000000 0.630268
vn 0.776378 0.000000 0.630268
vn 0.776378 0.000000 0.630268
vn 0.776378 0.000000 0.630268
vn 1.000000 0.000000 0.000000
vn 1.000000 0.000000 0.000000
vn 1.000000 0.000000 0.000000
vn 1.000000 0.000000 0.000000
vn -0.000000 0.000000 1.000000
vn -0.000000 0.000000 1.000000
vn -0.000000 0.000000 1.000000
vn -0.000000 0.000000 1.000000
vn 0.676383 0.000000 0.736550
vn 0.676383 0.000000 0.736550
vn 0.676383 0.000000 0.736550
vn 0.676383 0.000000 0.736550
vn -1.000000 0.000000 -0.000000
vn -1.000000 0.000000 -0.000000
vn -1.000000 0.000000 -0.000000
vn -1.000000 0.000000 -0.000000
vn 1.000000 0.000000 0.000001
vn 1.000000 0.000000 0.000001
vn 1.000000 0.000000 0.000001
vn 1.000000 0.000000 0.000001
usemtl material
f 1/0/1 2/0/2 3/0/3
f 1/0/1 3/0/3 4/0/4
f 5/0/5 6/0/6 7/0/7
f 5/0/5 7/0/7 8/0/8
f 9/0/9 10/0/10 11/0/11
f 9/0/9 11/0/11 12/0/12
f 13/0/13 14/0/14 15/0/15
f 13/0/13 15/0/15 16/0/16
f 14/0/14 17/0/17 15/0/15
f 17/0/17 18/0/18 15/0/15
f 18/0/18 19/0/19 15/0/15
f 16/0/16 20/0/20 13/0/13
f 16/0/16 21/0/21 20/0/20
f 22/0/22 23/0/23 24/0/24
f 24/0/24 23/0/23 25/0/25
f 26/0/26 24/0/24 25/0/25
f 25/0/25 23/0/23 27/0/27
f 27/0/27 23/0/23 28/0/28
f 28/0/28 23/0/23 29/0/29
f 30/0/30 28/0/28 29/0/29
f 29/0/29 23/0/23 31/0/31
f 32/0/32 31/0/31 23/0/23
f 33/0/33 31/0/31 32/0/32
f 34/0/34 23/0/23 22/0/22
f 34/0/34 35/0/35 23/0/23
f 36/0/36 37/0/37 38/0/38
f 36/0/36 38/0/38 39/0/39
f 40/0/40 37/0/37 36/0/36
f 40/0/40 41/0/41 37/0/37
f 42/0/42 43/0/43 44/0/44
f 42/0/42 44/0/44 45/0/45
f 42/0/42 45/0/45 46/0/46
f 47/0/47 48/0/48 49/0/49
f 47/0/47 49/0/49 50/0/50
f 51/0/51 52/0/52 53/0/53
f 51/0/51 53/0/53 54/0/54
f 55/0/55 56/0/56 57/0/57
f 55/0/55 57/0/57 58/0/58
f 59/0/59 60/0/60 61/0/61
f 59/0/59 61/0/61 62/0/62
f 63/0/63 64/0/64 65/0/65
f 63/0/63 65/0/65 66/0/66
f 67/0/67 68/0/68 69/0/69
f 67/0/67 69/0/69 70/0/70
f 71/0/71 72/0/72 73/0/73
f 71/0/71 73/0/73 74/0/74
f 75/0/75 76/0/76 77/0/77
f 75/0/75 77/0/77 78/0/78
f 79/0/79 80/0/80 81/0/81
f 79/0/79 81/0/81 82/0/82
f 83/0/83 84/0/84 85/0/85
f 83/0/83 85/0/85 86/0/86
f 87/0/87 88/0/88 89/0/89
f 87/0/87 89/0/89 90/0/90
f 91/0/91 92/0/92 93/0/93
f 91/0/91 93/0/93 94/0/94
f 95/0/95 96/0/96 97/0/97
f 95/0/95 97/0/97 98/0/98
f 99/0/99 96/0/96 95/0/95
f 99/0/99 100/0/100 96/0/96
f 101/0/101 100/0/100 99/0/99
f 101/0/101 102/0/102 100/0/100
f 103/0/103 102/0/102 101/0/101
f 103/0/103 104/0/104 102/0/102
f 105/0/105 104/0/104 103/0/103
f 105/0/105 106/0/106 104/0/104
f 107/0/107 106/0/106 105/0/105
f 107/0/107 108/0/108 106/0/106
f 109/0/109 108/0/108 107/0/107
f 109/0/109 110/0/110 108/0/108
f 111/0/111 110/0/110 109/0/109
f 111/0/111 112/0/112 110/0/110
f 113/0/113 112/0/112 111/0/111
f 113/0/113 114/0/114 112/0/112
f 115/0/115 116/0/116 117/0/117
f 115/0/115 117/0/117 118/0/118
f 119/0/119 120/0/120 121/0/121
f 119/0/119 121/0/121 122/0/122
f 123/0/123 124/0/124 125/0/125
f 123/0/123 125/0/125 126/0/126
f 127/0/127 128/0/128 129/0/129
f 127/0/127 129/0/129 130/0/130
f 131/0/131 132/0/132 133/0/133
f 131/0/131 133/0/133 134/0/134
f 135/0/135 136/0/136 137/0/137
f 135/0/135 137/0/137 138/0/138
f 139/0/139 140/0/140 141/0/141
f 139/0/139 141/0/141 142/0/142
f 143/0/143 144/0/144 145/0/145
f 143/0/143 145/0/145 146/0/146
f 147/0/147 148/0/148 149/0/149
f 147/0/147 149/0/149 150/0/150
f 151/0/151 152/0/152 153/0/153
f 151/0/151 153/0/153 154/0/154
f 155/0/155 156/0/156 157/0/157
f 155/0/155 157/0/157 158/0/158
f 159/0/159 160/0/160 161/0/161
f 159/0/159 161/0/161 162/0/162
f 163/0/163 164/0/164 165/0/165
f 163/0/163 165/0/165 166/0/166
