# 
# Wavefront OBJ file
# Created with Kaydara FBX
# 
mtllib collision #225613.mtl

g Collision
v -19.799999 0.000000 22.299999
v -10.200000 0.000000 12.700000
v -10.199999 0.000000 -12.700000
v -19.799999 0.000000 -22.299999
v 10.200000 0.000000 12.700000
v 19.799999 0.000000 22.299999
v 19.799999 0.000000 -22.299999
v 10.200000 0.000000 -12.700000
v 19.799999 0.000000 22.299999
v 19.799999 10.000000 22.299999
v 19.799999 10.000000 -22.299999
v 19.799999 0.000000 -22.299999
v 19.799999 0.000000 -22.299999
v 19.799999 10.000000 -22.299999
v -19.799999 10.000000 -22.299999
v -19.799999 0.000000 -22.299999
v -19.799999 0.000000 -22.299999
v -19.799999 10.000000 -22.299999
v -19.799999 10.000000 22.299999
v -19.799999 0.000000 22.299999
v -10.199999 0.000000 -12.700000
v -10.199999 10.000000 -12.700000
v 10.200000 10.000000 -12.700000
v 10.200000 0.000000 -12.700000
v -19.799999 0.000000 22.299999
v -19.799999 10.000000 22.299999
v 19.799999 10.000000 22.299999
v 19.799999 0.000000 22.299999
v -10.200000 0.000000 12.700000
v -10.200000 10.000000 12.700000
v -10.199999 10.000000 -12.700000
v -10.199999 0.000000 -12.700000
v 10.200000 0.000000 12.700000
v 10.200000 10.000000 12.700000
v -10.200000 10.000000 12.700000
v -10.200000 0.000000 12.700000
v 10.200000 0.000000 -12.700000
v 10.200000 10.000000 -12.700000
v 10.200000 10.000000 12.700000
v 10.200000 0.000000 12.700000
vt 1.000000 0.000000
vt 0.777084 0.195650
vt 0.777084 0.805921
vt 1.000000 1.000000
vt 0.225529 0.195650
vt 0.000000 0.000000
vt 0.000000 1.000000
vt 0.225529 0.805921
vt 0.000000 0.000000
vt 0.000000 1.000000
vt 1.000000 1.000000
vt 1.000000 0.000000
vt 0.000000 0.000000
vt 0.000000 1.000000
vt 1.000000 1.000000
vt 1.000000 0.000000
vt 0.000000 0.000000
vt 0.000000 1.000000
vt 1.000000 1.000000
vt 1.000000 0.000000
vt 0.000000 0.000000
vt 0.000000 1.000000
vt 1.000000 1.000000
vt 1.000000 0.000000
vt 0.000000 0.000000
vt 0.000000 1.000000
vt 1.000000 1.000000
vt 1.000000 0.000000
vt 0.000000 0.000000
vt 0.000000 1.000000
vt 1.000000 1.000000
vt 1.000000 0.000000
vt 0.000000 0.000000
vt 0.000000 1.000000
vt 1.000000 1.000000
vt 1.000000 0.000000
vt 0.000000 0.000000
vt 0.000000 1.000000
vt 1.000000 1.000000
vt 1.000000 0.000000
vn 0.000000 1.000000 0.000000
vn 0.000000 1.000000 0.000000
vn 0.000000 1.000000 0.000000
vn 0.000000 1.000000 0.000000
vn 0.000000 1.000000 0.000000
vn 0.000000 1.000000 0.000000
vn 0.000000 1.000000 0.000000
vn 0.000000 1.000000 0.000000
vn -1.000000 0.000000 0.000000
vn -1.000000 0.000000 0.000000
vn -1.000000 0.000000 0.000000
vn -1.000000 0.000000 0.000000
vn 0.000000 0.000000 1.000000
vn 0.000000 0.000000 1.000000
vn 0.000000 0.000000 1.000000
vn 0.000000 0.000000 1.000000
vn 1.000000 0.000000 0.000000
vn 1.000000 0.000000 0.000000
vn 1.000000 0.000000 0.000000
vn 1.000000 0.000000 0.000000
vn 0.000000 0.000000 -1.000000
vn 0.000000 0.000000 -1.000000
vn 0.000000 0.000000 -1.000000
vn 0.000000 0.000000 -1.000000
vn 0.000000 0.000000 -1.000000
vn 0.000000 0.000000 -1.000000
vn 0.000000 0.000000 -1.000000
vn 0.000000 0.000000 -1.000000
vn -1.000000 0.000000 0.000000
vn -1.000000 0.000000 0.000000
vn -1.000000 0.000000 0.000000
vn -1.000000 0.000000 0.000000
vn 0.000000 0.000000 1.000000
vn 0.000000 0.000000 1.000000
vn 0.000000 0.000000 1.000000
vn 0.000000 0.000000 1.000000
vn 1.000000 0.000000 0.000000
vn 1.000000 0.000000 0.000000
vn 1.000000 0.000000 0.000000
vn 1.000000 0.000000 0.000000
usemtl material
f 1/0/1 2/0/2 3/0/3
f 1/0/1 3/0/3 4/0/4
f 5/0/5 2/0/2 1/0/1
f 5/0/5 1/0/1 6/0/6
f 7/0/7 5/0/5 6/0/6
f 7/0/7 8/0/8 5/0/5
f 4/0/4 3/0/3 8/0/8
f 4/0/4 8/0/8 7/0/7
f 9/0/9 10/0/10 11/0/11
f 9/0/9 11/0/11 12/0/12
f 13/0/13 14/0/14 15/0/15
f 13/0/13 15/0/15 16/0/16
f 17/0/17 18/0/18 19/0/19
f 17/0/17 19/0/19 20/0/20
f 21/0/21 22/0/22 23/0/23
f 21/0/21 23/0/23 24/0/24
f 25/0/25 26/0/26 27/0/27
f 25/0/25 27/0/27 28/0/28
f 29/0/29 30/0/30 31/0/31
f 29/0/29 31/0/31 32/0/32
f 33/0/33 34/0/34 35/0/35
f 33/0/33 35/0/35 36/0/36
f 37/0/37 38/0/38 39/0/39
f 37/0/37 39/0/39 40/0/40
