# 
# Wavefront OBJ file
# Created with Kaydara FBX
# 
mtllib collision08 #225443.mtl

g Collision08
v -10.816421 0.000000 -4.110546
v -10.816421 0.000000 -0.000000
v 10.816421 0.000000 -0.000000
v 10.816421 0.000000 -4.110546
v -8.816737 0.000000 -9.601420
v 8.816738 0.000000 -9.601420
v 6.347260 -0.000694 -10.855966
v -6.338613 -0.000694 -10.858496
v 8.995059 -0.001006 8.971909
v -8.995059 -0.001006 8.971909
v 0.000000 -0.001701 -11.564669
v 7.074778 -0.001147 11.839684
v -7.352969 -0.001147 11.839684
v -2.734600 -0.001701 15.198474
v 2.734601 -0.001701 15.198474
v 0.000000 -0.001701 15.929631
v -10.816421 17.726282 -0.000000
v -10.816421 0.000000 -0.000000
v -10.816421 0.000000 -4.110546
v -10.816421 17.726282 -4.110546
v -8.816737 0.000000 -9.601420
v -8.816737 17.726282 -9.601420
v -10.816421 17.726282 -4.110546
v -10.816421 0.000000 -4.110546
v -6.338613 -0.000694 -10.858496
v -6.338613 17.725586 -10.858496
v -8.816737 17.726282 -9.601420
v -8.816737 0.000000 -9.601420
v -7.352969 -0.001147 11.839684
v -7.352969 17.725140 11.839684
v -2.734600 17.724575 15.198474
v -2.734600 -0.001701 15.198474
v -2.734600 -0.001701 15.198474
v -2.734600 17.724575 15.198474
v 0.000000 17.724575 15.929631
v 0.000000 -0.001701 15.929631
v -10.816421 0.000000 -0.000000
v -10.816421 17.726282 -0.000000
v -8.995059 17.725279 8.971909
v -8.995059 -0.001006 8.971909
v 10.816421 17.726282 -4.110546
v 10.816421 0.000000 -4.110546
v 10.816421 0.000000 -0.000000
v 10.816421 17.726282 -0.000000
v 10.816421 0.000000 -4.110546
v 10.816421 17.726282 -4.110546
v 8.816738 17.726282 -9.601420
v 8.816738 0.000000 -9.601420
v 8.816738 0.000000 -9.601420
v 8.816738 17.726282 -9.601420
v 6.347260 17.725586 -10.855966
v 6.347260 -0.000694 -10.855966
v 2.734601 -0.001701 15.198474
v 2.734601 17.724575 15.198474
v 7.074778 17.725140 11.839684
v 7.074778 -0.001147 11.839684
v 0.000000 -0.001701 15.929631
v 0.000000 17.724575 15.929631
v 2.734601 17.724575 15.198474
v 2.734601 -0.001701 15.198474
v 8.995059 -0.001006 8.971909
v 8.995059 17.725279 8.971909
v 10.816421 17.726282 -0.000000
v 10.816421 0.000000 -0.000000
v -6.338613 17.725586 -10.858496
v -6.338613 -0.000694 -10.858496
v 0.000000 -0.001701 -11.564669
v 0.000000 17.724575 -11.564669
v 0.000000 17.724575 -11.564669
v 0.000000 -0.001701 -11.564669
v 6.347260 -0.000694 -10.855966
v 6.347260 17.725586 -10.855966
v 7.074778 -0.001147 11.839684
v 7.074778 17.725140 11.839684
v 8.995059 17.725279 8.971909
v 8.995059 -0.001006 8.971909
v -8.995059 -0.001006 8.971909
v -8.995059 17.725279 8.971909
v -7.352969 17.725140 11.839684
v -7.352969 -0.001147 11.839684
vt 2.187478 2.559959
vt 2.187478 2.330492
vt 0.979833 2.330509
vt 0.979833 2.559977
vt 2.075848 2.866481
vt 1.091463 2.866498
vt 1.229319 2.936532
vt 1.937508 2.936657
vt 1.081508 1.829662
vt 2.085803 1.829644
vt 1.583655 2.965988
vt 1.188706 1.669571
vt 1.994135 1.669553
vt 1.736318 1.482053
vt 1.430992 1.482071
vt 1.583655 1.482062
vt 1.000000 1.000000
vt 1.000000 0.000000
vt 0.000000 0.000000
vt 0.000000 1.000000
vt 0.000000 0.000000
vt 0.000000 1.000000
vt 1.000000 1.000000
vt 1.000000 0.000000
vt 0.000000 0.000000
vt 0.000000 1.000000
vt 1.000000 1.000000
vt 1.000000 0.000000
vt 0.000000 0.000000
vt 0.000000 1.000000
vt 1.000000 1.000000
vt 1.000000 0.000000
vt 0.000000 0.000000
vt 0.000000 1.000000
vt 1.000000 1.000000
vt 1.000000 0.000000
vt 0.000000 0.000000
vt 0.000000 1.000000
vt 1.000000 1.000000
vt 1.000000 0.000000
vt 1.000000 1.000000
vt 1.000000 0.000000
vt 0.000000 0.000000
vt 0.000000 1.000000
vt 0.000000 0.000000
vt 0.000000 1.000000
vt 1.000000 1.000000
vt 1.000000 0.000000
vt 0.000000 0.000000
vt 0.000000 1.000000
vt 1.000000 1.000000
vt 1.000000 0.000000
vt 0.000000 0.000000
vt 0.000000 1.000000
vt 1.000000 1.000000
vt 1.000000 0.000000
vt 0.000000 0.000000
vt 0.000000 1.000000
vt 1.000000 1.000000
vt 1.000000 0.000000
vt 0.000000 0.000000
vt 0.000000 1.000000
vt 1.000000 1.000000
vt 1.000000 0.000000
vt 1.000000 1.000000
vt 1.000000 0.000000
vt 0.000000 0.000000
vt 0.000000 1.000000
vt 1.000000 1.000000
vt 1.000000 0.000000
vt 0.000000 0.000000
vt 0.000000 1.000000
vt 0.000000 0.000000
vt 0.000000 1.000000
vt 1.000000 1.000000
vt 1.000000 0.000000
vt 0.000000 0.000000
vt 0.000000 1.000000
vt 1.000000 1.000000
vt 1.000000 0.000000
vn 0.000000 1.000000 0.000000
vn 0.000000 1.000000 0.000071
vn 0.000000 1.000000 0.000071
vn 0.000000 1.000000 0.000000
vn 0.000000 1.000000 -0.000023
vn 0.000000 1.000000 -0.000023
vn 0.000000 1.000000 -0.000561
vn 0.000000 1.000000 -0.000561
vn 0.000000 1.000000 0.000104
vn 0.000000 1.000000 0.000104
vn 0.000000 0.999999 -0.001423
vn 0.000000 1.000000 0.000070
vn 0.000000 1.000000 0.000070
vn 0.000000 1.000000 0.000164
vn 0.000000 1.000000 0.000164
vn 0.000000 1.000000 0.000000
vn 0.990448 0.000000 -0.137889
vn 0.990447 0.000000 -0.137895
vn 0.978993 0.000000 0.203894
vn 0.978993 0.000000 0.203894
vn 0.833220 0.000000 0.552941
vn 0.833250 0.000000 0.552896
vn 0.978993 0.000000 0.203894
vn 0.978993 0.000000 0.203894
vn 0.217330 0.000000 0.976098
vn 0.217369 0.000000 0.976089
vn 0.833250 0.000000 0.552896
vn 0.833220 0.000000 0.552941
vn 0.705179 0.000000 -0.709030
vn 0.705191 0.000000 -0.709017
vn 0.486098 0.000000 -0.873904
vn 0.486089 0.000000 -0.873909
vn 0.486089 0.000000 -0.873909
vn 0.486098 0.000000 -0.873904
vn 0.000000 0.000000 -1.000000
vn 0.000000 0.000000 -1.000000
vn 0.990447 0.000000 -0.137895
vn 0.990448 0.000000 -0.137889
vn 0.959779 0.000000 -0.280757
vn 0.959775 0.000000 -0.280769
vn -0.978993 0.000000 0.203894
vn -0.978993 0.000000 0.203894
vn -0.990447 0.000000 -0.137895
vn -0.990448 0.000000 -0.137889
vn -0.978993 0.000000 0.203894
vn -0.978993 0.000000 0.203894
vn -0.833647 0.000000 0.552298
vn -0.833617 0.000000 0.552343
vn -0.833617 0.000000 0.552343
vn -0.833647 0.000000 0.552298
vn -0.217369 0.000000 0.976090
vn -0.217330 0.000000 0.976098
vn -0.500483 0.000000 -0.865746
vn -0.500493 0.000000 -0.865740
vn -0.705190 0.000000 -0.709018
vn -0.705180 0.000000 -0.709028
vn 0.000000 0.000000 -1.000000
vn 0.000000 0.000000 -1.000000
vn -0.500493 0.000000 -0.865740
vn -0.500483 0.000000 -0.865746
vn -0.953516 0.000000 -0.301343
vn -0.953520 0.000000 -0.301329
vn -0.990448 0.000000 -0.137889
vn -0.990447 0.000000 -0.137895
vn 0.217369 0.000000 0.976089
vn 0.217330 0.000000 0.976098
vn -0.000199 0.000000 1.000000
vn -0.000199 0.000000 1.000000
vn -0.000199 0.000000 1.000000
vn -0.000199 0.000000 1.000000
vn -0.217330 0.000000 0.976098
vn -0.217369 0.000000 0.976090
vn -0.705180 0.000000 -0.709028
vn -0.705190 0.000000 -0.709018
vn -0.953520 0.000000 -0.301329
vn -0.953516 0.000000 -0.301343
vn 0.959775 0.000000 -0.280769
vn 0.959779 0.000000 -0.280757
vn 0.705191 0.000000 -0.709017
vn 0.705179 0.000000 -0.709030
usemtl material
f 1/0/1 2/0/2 3/0/3
f 1/0/1 3/0/3 4/0/4
f 5/0/5 1/0/1 4/0/4
f 5/0/5 4/0/4 6/0/6
f 7/0/7 5/0/5 6/0/6
f 7/0/7 8/0/8 5/0/5
f 2/0/2 9/0/9 3/0/3
f 2/0/2 10/0/10 9/0/9
f 8/0/8 7/0/7 11/0/11
f 10/0/10 12/0/12 9/0/9
f 10/0/10 13/0/13 12/0/12
f 12/0/12 13/0/13 14/0/14
f 12/0/12 14/0/14 15/0/15
f 14/0/14 16/0/16 15/0/15
f 17/0/17 18/0/18 19/0/19
f 17/0/17 19/0/19 20/0/20
f 21/0/21 22/0/22 23/0/23
f 21/0/21 23/0/23 24/0/24
f 25/0/25 26/0/26 27/0/27
f 25/0/25 27/0/27 28/0/28
f 29/0/29 30/0/30 31/0/31
f 29/0/29 31/0/31 32/0/32
f 33/0/33 34/0/34 35/0/35
f 33/0/33 35/0/35 36/0/36
f 37/0/37 38/0/38 39/0/39
f 37/0/37 39/0/39 40/0/40
f 41/0/41 42/0/42 43/0/43
f 41/0/41 43/0/43 44/0/44
f 45/0/45 46/0/46 47/0/47
f 45/0/45 47/0/47 48/0/48
f 49/0/49 50/0/50 51/0/51
f 49/0/49 51/0/51 52/0/52
f 53/0/53 54/0/54 55/0/55
f 53/0/53 55/0/55 56/0/56
f 57/0/57 58/0/58 59/0/59
f 57/0/57 59/0/59 60/0/60
f 61/0/61 62/0/62 63/0/63
f 61/0/61 63/0/63 64/0/64
f 65/0/65 66/0/66 67/0/67
f 65/0/65 67/0/67 68/0/68
f 69/0/69 70/0/70 71/0/71
f 69/0/69 71/0/71 72/0/72
f 73/0/73 74/0/74 75/0/75
f 73/0/73 75/0/75 76/0/76
f 77/0/77 78/0/78 79/0/79
f 77/0/77 79/0/79 80/0/80
