# 
# Wavefront OBJ file
# Created with Kaydara FBX
# 
mtllib collision4.mtl

g Collision4
v 4.943174 -0.000420 -18.391069
v -13.401006 -0.000402 -15.446643
v -14.882930 -0.000400 -2.664521
v -4.406348 0.000374 16.393820
v -14.355615 -0.000400 11.944925
v 9.796797 0.000310 15.947761
v 12.758271 -0.000361 -13.128471
v 20.183388 -0.000292 -6.028066
v 20.251083 0.000485 6.173543
v 16.331825 0.000229 13.251147
v -13.401006 -0.000402 -15.446643
v -13.401006 17.134449 -15.446643
v -14.882930 17.134451 -2.664521
v -14.882930 -0.000400 -2.664521
v 20.251083 0.000485 6.173543
v 20.251083 17.135336 6.173543
v 20.183388 17.134560 -6.028066
v 20.183388 -0.000292 -6.028066
v 4.943174 -0.000420 -18.391069
v 4.943174 17.134430 -18.391069
v -13.401006 17.134449 -15.446643
v -13.401006 -0.000402 -15.446643
v 16.331825 0.000229 13.251147
v 16.331825 17.135080 13.251147
v 20.251083 17.135336 6.173543
v 20.251083 0.000485 6.173543
v 12.758271 -0.000361 -13.128471
v 12.758271 17.134489 -13.128471
v 4.943174 17.134430 -18.391069
v 4.943174 -0.000420 -18.391069
v 20.183388 -0.000292 -6.028066
v 20.183388 17.134560 -6.028066
v 12.758271 17.134489 -13.128471
v 12.758271 -0.000361 -13.128471
v -14.882930 -0.000400 -2.664521
v -14.882930 17.134451 -2.664521
v -14.355615 17.134451 11.944925
v -14.355615 -0.000400 11.944925
v -14.355615 -0.000400 11.944925
v -14.355615 17.134451 11.944925
v -4.406348 17.135223 16.393820
v -4.406348 0.000374 16.393820
v -4.406348 0.000374 16.393820
v -4.406348 17.135223 16.393820
v 9.796797 17.135160 15.947761
v 9.796797 0.000310 15.947761
v 9.796797 0.000310 15.947761
v 9.796797 17.135160 15.947761
v 16.331825 17.135080 13.251147
v 16.331825 0.000229 13.251147
vt 0.998780 0.769742
vt 0.955271 0.986194
vt 0.803455 0.997896
vt 0.578099 0.864609
vt 0.620885 0.985357
vt 0.587475 0.693426
vt 0.939932 0.674492
vt 0.859061 0.582976
vt 0.714503 0.573478
vt 0.629033 0.618553
vt 0.000000 0.000000
vt 0.000000 1.000000
vt 1.000000 1.000000
vt 1.000000 0.000000
vt 0.000000 0.000000
vt 0.000000 1.000000
vt 1.000000 1.000000
vt 1.000000 0.000000
vt 0.000000 0.000000
vt 0.000000 1.000000
vt 1.000000 1.000000
vt 1.000000 0.000000
vt 0.000000 0.000000
vt 0.000000 1.000000
vt 1.000000 1.000000
vt 1.000000 0.000000
vt 0.000000 0.000000
vt 0.000000 1.000000
vt 1.000000 1.000000
vt 1.000000 0.000000
vt 0.000000 0.000000
vt 0.000000 1.000000
vt 1.000000 1.000000
vt 1.000000 0.000000
vt 0.000000 0.000000
vt 0.000000 1.000000
vt 1.000000 1.000000
vt 1.000000 0.000000
vt 0.000000 0.000000
vt 0.000000 1.000000
vt 1.000000 1.000000
vt 1.000000 0.000000
vt 0.000000 0.000000
vt 0.000000 1.000000
vt 1.000000 1.000000
vt 1.000000 0.000000
vt 0.000000 0.000000
vt 0.000000 1.000000
vt 1.000000 1.000000
vt 1.000000 0.000000
vn 0.000001 1.000000 0.000000
vn 0.000001 1.000000 0.000000
vn 0.000001 1.000000 0.000000
vn -0.000034 1.000000 -0.000022
vn -0.000034 1.000000 -0.000022
vn 0.000005 1.000000 -0.000022
vn 0.000005 1.000000 -0.000022
vn -0.000014 1.000000 -0.000028
vn -0.000014 1.000000 -0.000028
vn -0.000014 1.000000 -0.000028
vn 0.993346 0.000000 0.115166
vn 0.993346 0.000000 0.115166
vn 0.993346 0.000000 0.115166
vn 0.993346 0.000000 0.115166
vn -0.999985 0.000000 0.005548
vn -0.999985 0.000000 0.005548
vn -0.999985 0.000000 0.005548
vn -0.999985 0.000000 0.005548
vn 0.158482 0.000000 0.987362
vn 0.158482 0.000000 0.987362
vn 0.158482 0.000000 0.987362
vn 0.158482 0.000000 0.987362
vn -0.874825 0.000000 -0.484439
vn -0.874825 0.000000 -0.484439
vn -0.874825 0.000000 -0.484439
vn -0.874825 0.000000 -0.484439
vn -0.558554 0.000000 0.829468
vn -0.558554 0.000000 0.829468
vn -0.558554 0.000000 0.829468
vn -0.558554 0.000000 0.829468
vn -0.691127 0.000000 0.722733
vn -0.691127 0.000000 0.722733
vn -0.691127 0.000000 0.722733
vn -0.691127 0.000000 0.722733
vn 0.999349 0.000000 -0.036071
vn 0.999349 0.000000 -0.036071
vn 0.999349 0.000000 -0.036071
vn 0.999349 0.000000 -0.036071
vn 0.408206 0.000000 -0.912890
vn 0.408206 0.000000 -0.912890
vn 0.408206 0.000000 -0.912890
vn 0.408206 0.000000 -0.912890
vn -0.031390 0.000000 -0.999507
vn -0.031390 0.000000 -0.999507
vn -0.031390 0.000000 -0.999507
vn -0.031390 0.000000 -0.999507
vn -0.381441 0.000000 -0.924393
vn -0.381441 0.000000 -0.924393
vn -0.381441 0.000000 -0.924393
vn -0.381441 0.000000 -0.924393
usemtl material
f 1/0/1 2/0/2 3/0/3
f 4/0/4 1/0/1 3/0/3
f 4/0/4 3/0/3 5/0/5
f 6/0/6 1/0/1 4/0/4
f 6/0/6 7/0/7 1/0/1
f 8/0/8 7/0/7 6/0/6
f 6/0/6 9/0/9 8/0/8
f 6/0/6 10/0/10 9/0/9
f 11/0/11 12/0/12 13/0/13
f 11/0/11 13/0/13 14/0/14
f 15/0/15 16/0/16 17/0/17
f 15/0/15 17/0/17 18/0/18
f 19/0/19 20/0/20 21/0/21
f 19/0/19 21/0/21 22/0/22
f 23/0/23 24/0/24 25/0/25
f 23/0/23 25/0/25 26/0/26
f 27/0/27 28/0/28 29/0/29
f 27/0/27 29/0/29 30/0/30
f 31/0/31 32/0/32 33/0/33
f 31/0/31 33/0/33 34/0/34
f 35/0/35 36/0/36 37/0/37
f 35/0/35 37/0/37 38/0/38
f 39/0/39 40/0/40 41/0/41
f 39/0/39 41/0/41 42/0/42
f 43/0/43 44/0/44 45/0/45
f 43/0/43 45/0/45 46/0/46
f 47/0/47 48/0/48 49/0/49
f 47/0/47 49/0/49 50/0/50
