# 
# Wavefront OBJ file
# Created with Kaydara FBX
# 
mtllib collision #225693.mtl

g Collision
v -14.220664 0.000000 -23.724445
v -14.220664 0.000000 -14.262073
v 14.272236 0.000000 -14.262073
v 14.272236 0.000000 -23.724445
v -5.998613 0.000000 -5.945032
v -5.998613 0.000000 5.920993
v -14.220664 0.000000 11.752048
v 5.958437 0.000000 5.920993
v 14.272236 0.000000 11.752048
v -14.220664 0.000000 21.220310
v 14.272236 0.000000 21.220310
v 23.614969 0.000000 -14.262063
v 23.614969 0.000000 11.752048
v -23.568798 0.000000 -14.262063
v -23.568798 0.000000 11.752048
v 5.958437 0.000000 -5.945032
v 14.272236 0.000000 -23.724445
v 14.272236 10.000000 -23.724445
v -14.220664 10.000000 -23.724445
v -14.220664 0.000000 -23.724445
v 14.272236 0.000000 -14.262073
v 14.272236 10.000000 -14.262073
v 14.272236 10.000000 -23.724445
v 14.272236 0.000000 -23.724445
v -14.220664 0.000000 -23.724445
v -14.220664 10.000000 -23.724445
v -14.220664 10.000000 -14.262073
v -14.220664 0.000000 -14.262073
v 23.614969 0.000000 -14.262063
v 23.614969 10.000000 -14.262063
v 14.272236 10.000000 -14.262073
v 14.272236 0.000000 -14.262073
v -14.220664 0.000000 -14.262073
v -14.220664 10.000000 -14.262073
v -23.568798 10.000000 -14.262063
v -23.568798 0.000000 -14.262063
v 23.614969 0.000000 11.752048
v 23.614969 10.000000 11.752048
v 23.614969 10.000000 -14.262063
v 23.614969 0.000000 -14.262063
v 14.272236 0.000000 21.220310
v 14.272236 10.000000 21.220310
v 14.272236 10.000000 11.752048
v 14.272236 0.000000 11.752048
v 14.272236 0.000000 11.752048
v 14.272236 10.000000 11.752048
v 23.614969 10.000000 11.752048
v 23.614969 0.000000 11.752048
v -14.220664 0.000000 11.752048
v -14.220664 10.000000 11.752048
v -14.220664 10.000000 21.220310
v -14.220664 0.000000 21.220310
v -23.568798 0.000000 11.752048
v -23.568798 10.000000 11.752048
v -14.220664 10.000000 11.752048
v -14.220664 0.000000 11.752048
v -23.568798 0.000000 -14.262063
v -23.568798 10.000000 -14.262063
v -23.568798 10.000000 11.752048
v -23.568798 0.000000 11.752048
v -14.220664 0.000000 21.220310
v -14.220664 10.000000 21.220310
v 14.272236 10.000000 21.220310
v 14.272236 0.000000 21.220310
v -5.998613 0.000000 -5.945032
v -5.998613 10.000000 -5.945032
v 5.958437 10.000000 -5.945032
v 5.958437 0.000000 -5.945032
v -5.998613 0.000000 5.920993
v -5.998613 10.000000 5.920993
v -5.998613 10.000000 -5.945032
v -5.998613 0.000000 -5.945032
v 5.958437 0.000000 -5.945032
v 5.958437 10.000000 -5.945032
v 5.958437 10.000000 5.920993
v 5.958437 0.000000 5.920993
v 5.958437 0.000000 5.920993
v 5.958437 10.000000 5.920993
v -5.998613 10.000000 5.920993
v -5.998613 0.000000 5.920993
vt 0.800222 1.000000
vt 0.800222 0.789467
vt 0.198007 0.789467
vt 0.198007 1.000000
vt 0.628112 0.604416
vt 0.628112 0.338097
vt 0.800222 0.210664
vt 0.374409 0.338097
vt 0.198007 0.210664
vt 0.800222 0.000000
vt 0.198007 0.000000
vt 0.000000 0.789467
vt 0.000000 0.210664
vt 1.000000 0.789467
vt 1.000000 0.210664
vt 0.374409 0.604416
vt 0.000000 0.000000
vt 0.000000 1.000000
vt 1.000000 1.000000
vt 1.000000 0.000000
vt 0.000000 0.000000
vt 0.000000 1.000000
vt 1.000000 1.000000
vt 1.000000 0.000000
vt 0.000000 0.000000
vt 0.000000 1.000000
vt 1.000000 1.000000
vt 1.000000 0.000000
vt 0.000000 0.000000
vt 0.000000 1.000000
vt 1.000000 1.000000
vt 1.000000 0.000000
vt 0.000000 0.000000
vt 0.000000 1.000000
vt 1.000000 1.000000
vt 1.000000 0.000000
vt 0.000000 0.000000
vt 0.000000 1.000000
vt 1.000000 1.000000
vt 1.000000 0.000000
vt 0.000000 0.000000
vt 0.000000 1.000000
vt 1.000000 1.000000
vt 1.000000 0.000000
vt 0.000000 0.000000
vt 0.000000 1.000000
vt 1.000000 1.000000
vt 1.000000 0.000000
vt 0.000000 0.000000
vt 0.000000 1.000000
vt 1.000000 1.000000
vt 1.000000 0.000000
vt 0.000000 0.000000
vt 0.000000 1.000000
vt 1.000000 1.000000
vt 1.000000 0.000000
vt 0.000000 0.000000
vt 0.000000 1.000000
vt 1.000000 1.000000
vt 1.000000 0.000000
vt 0.000000 0.000000
vt 0.000000 1.000000
vt 1.000000 1.000000
vt 1.000000 0.000000
vt 0.000000 0.000000
vt 0.000000 1.000000
vt 1.000000 1.000000
vt 1.000000 0.000000
vt 0.000000 0.000000
vt 0.000000 1.000000
vt 1.000000 1.000000
vt 1.000000 0.000000
vt 0.000000 0.000000
vt 0.000000 1.000000
vt 1.000000 1.000000
vt 1.000000 0.000000
vt 0.000000 0.000000
vt 0.000000 1.000000
vt 1.000000 1.000000
vt 1.000000 0.000000
vn 0.000000 1.000000 0.000000
vn 0.000000 1.000000 0.000000
vn 0.000000 1.000000 0.000000
vn 0.000000 1.000000 0.000000
vn 0.000000 1.000000 0.000000
vn 0.000000 1.000000 0.000000
vn 0.000000 1.000000 0.000000
vn 0.000000 1.000000 0.000000
vn 0.000000 1.000000 0.000000
vn 0.000000 1.000000 0.000000
vn 0.000000 1.000000 0.000000
vn 0.000000 1.000000 0.000000
vn 0.000000 1.000000 0.000000
vn 0.000000 1.000000 0.000000
vn 0.000000 1.000000 0.000000
vn 0.000000 1.000000 0.000000
vn 0.000000 0.000000 1.000000
vn 0.000000 0.000000 1.000000
vn 0.000000 0.000000 1.000000
vn 0.000000 0.000000 1.000000
vn -1.000000 0.000000 0.000000
vn -1.000000 0.000000 0.000000
vn -1.000000 0.000000 0.000000
vn -1.000000 0.000000 0.000000
vn 1.000000 0.000000 0.000000
vn 1.000000 0.000000 0.000000
vn 1.000000 0.000000 0.000000
vn 1.000000 0.000000 0.000000
vn -0.000001 0.000000 1.000000
vn -0.000001 0.000000 1.000000
vn -0.000001 0.000000 1.000000
vn -0.000001 0.000000 1.000000
vn 0.000001 0.000000 1.000000
vn 0.000001 0.000000 1.000000
vn 0.000001 0.000000 1.000000
vn 0.000001 0.000000 1.000000
vn -1.000000 0.000000 0.000000
vn -1.000000 0.000000 0.000000
vn -1.000000 0.000000 0.000000
vn -1.000000 0.000000 0.000000
vn -1.000000 0.000000 0.000000
vn -1.000000 0.000000 0.000000
vn -1.000000 0.000000 0.000000
vn -1.000000 0.000000 0.000000
vn 0.000000 0.000000 -1.000000
vn 0.000000 0.000000 -1.000000
vn 0.000000 0.000000 -1.000000
vn 0.000000 0.000000 -1.000000
vn 1.000000 0.000000 0.000000
vn 1.000000 0.000000 0.000000
vn 1.000000 0.000000 0.000000
vn 1.000000 0.000000 0.000000
vn 0.000000 0.000000 -1.000000
vn 0.000000 0.000000 -1.000000
vn 0.000000 0.000000 -1.000000
vn 0.000000 0.000000 -1.000000
vn 1.000000 0.000000 0.000000
vn 1.000000 0.000000 0.000000
vn 1.000000 0.000000 0.000000
vn 1.000000 0.000000 0.000000
vn 0.000000 0.000000 -1.000000
vn 0.000000 0.000000 -1.000000
vn 0.000000 0.000000 -1.000000
vn 0.000000 0.000000 -1.000000
vn 0.000000 0.000000 -1.000000
vn 0.000000 0.000000 -1.000000
vn 0.000000 0.000000 -1.000000
vn 0.000000 0.000000 -1.000000
vn -1.000000 0.000000 0.000000
vn -1.000000 0.000000 0.000000
vn -1.000000 0.000000 0.000000
vn -1.000000 0.000000 0.000000
vn 1.000000 0.000000 0.000000
vn 1.000000 0.000000 0.000000
vn 1.000000 0.000000 0.000000
vn 1.000000 0.000000 0.000000
vn 0.000000 0.000000 1.000000
vn 0.000000 0.000000 1.000000
vn 0.000000 0.000000 1.000000
vn 0.000000 0.000000 1.000000
usemtl material
f 1/0/1 2/0/2 3/0/3
f 1/0/1 3/0/3 4/0/4
f 3/0/3 2/0/2 5/0/5
f 6/0/6 5/0/5 2/0/2
f 6/0/6 2/0/2 7/0/7
f 8/0/8 6/0/6 7/0/7
f 8/0/8 7/0/7 9/0/9
f 9/0/9 7/0/7 10/0/10
f 9/0/9 10/0/10 11/0/11
f 12/0/12 3/0/3 9/0/9
f 12/0/12 9/0/9 13/0/13
f 7/0/7 2/0/2 14/0/14
f 7/0/7 14/0/14 15/0/15
f 9/0/9 3/0/3 16/0/16
f 9/0/9 16/0/16 8/0/8
f 3/0/3 5/0/5 16/0/16
f 17/0/17 18/0/18 19/0/19
f 17/0/17 19/0/19 20/0/20
f 21/0/21 22/0/22 23/0/23
f 21/0/21 23/0/23 24/0/24
f 25/0/25 26/0/26 27/0/27
f 25/0/25 27/0/27 28/0/28
f 29/0/29 30/0/30 31/0/31
f 29/0/29 31/0/31 32/0/32
f 33/0/33 34/0/34 35/0/35
f 33/0/33 35/0/35 36/0/36
f 37/0/37 38/0/38 39/0/39
f 37/0/37 39/0/39 40/0/40
f 41/0/41 42/0/42 43/0/43
f 41/0/41 43/0/43 44/0/44
f 45/0/45 46/0/46 47/0/47
f 45/0/45 47/0/47 48/0/48
f 49/0/49 50/0/50 51/0/51
f 49/0/49 51/0/51 52/0/52
f 53/0/53 54/0/54 55/0/55
f 53/0/53 55/0/55 56/0/56
f 57/0/57 58/0/58 59/0/59
f 57/0/57 59/0/59 60/0/60
f 61/0/61 62/0/62 63/0/63
f 61/0/61 63/0/63 64/0/64
f 65/0/65 66/0/66 67/0/67
f 65/0/65 67/0/67 68/0/68
f 69/0/69 70/0/70 71/0/71
f 69/0/69 71/0/71 72/0/72
f 73/0/73 74/0/74 75/0/75
f 73/0/73 75/0/75 76/0/76
f 77/0/77 78/0/78 79/0/79
f 77/0/77 79/0/79 80/0/80
