# 
# Wavefront OBJ file
# Created with Kaydara FBX
# 
mtllib collision_cam #225664.mtl

g Collision_Cam
v -9.407393 -2.499990 7.518916
v -9.407393 7.500000 7.518916
v -6.907393 7.500000 7.518916
v -6.907393 -2.500000 7.518916
v -6.907393 -2.500000 7.518916
v -6.907393 7.500000 7.518916
v -6.907393 7.500000 12.858144
v -6.907393 -2.500000 12.858144
v -9.407393 -2.500000 -12.141855
v -9.407393 7.500000 -12.141855
v -9.407393 7.500000 7.518916
v -9.407393 -2.499990 7.518916
v 10.043291 -2.500000 0.677305
v 10.043291 7.500000 0.677305
v 10.043291 7.500000 -1.824570
v 10.043291 -2.500000 -1.824570
v 7.543291 -2.500000 -1.825332
v 7.543291 7.500000 -1.825332
v 7.543291 7.500000 -12.141855
v 7.543291 -2.500000 -12.141855
v 12.784785 -2.500000 0.677305
v 12.784785 7.500000 0.677305
v 10.043291 7.500000 0.677305
v 10.043291 -2.500000 0.677305
v 10.043291 -2.500000 -1.824570
v 10.043291 7.500000 -1.824570
v 7.543291 7.500000 -1.825332
v 7.543291 -2.500000 -1.825332
v 10.660908 -2.500000 10.687949
v 10.660908 7.500000 10.687949
v 7.408662 7.500000 10.687949
v 7.408662 -2.500000 10.687949
v 10.660908 7.500000 7.528340
v 10.660908 -2.500000 7.528340
v 7.408662 -2.500000 7.528340
v 7.408662 7.500000 7.528340
v 7.408662 -2.500000 10.687949
v 7.408662 7.500000 10.687949
v 7.408662 7.500000 7.528340
v 7.408662 -2.500000 7.528340
v 10.660908 -2.500000 7.528340
v 10.660908 7.500000 7.528340
v 10.660908 7.500000 10.687949
v 10.660908 -2.500000 10.687949
vt 0.357661 0.000000
vt 0.357661 0.250000
vt 0.375000 0.250000
vt 0.375000 0.000000
vt 0.375000 0.000000
vt 0.375000 0.250000
vt 0.497987 0.250000
vt 0.497987 0.000000
vt 0.125000 0.000000
vt 0.125000 0.250000
vt 0.357661 0.250000
vt 0.357661 0.000000
vt 0.497987 0.000000
vt 0.497987 0.250000
vt 0.625000 0.250000
vt 0.625000 0.000000
vt 0.674215 0.000000
vt 0.674215 0.250000
vt 0.875000 0.250000
vt 0.875000 0.000000
vt 0.375000 0.000000
vt 0.375000 0.250000
vt 0.497987 0.250000
vt 0.497987 0.000000
vt 0.625000 0.000000
vt 0.625000 0.250000
vt 0.674215 0.250000
vt 0.674215 0.000000
vt 0.375000 0.000000
vt 0.375000 0.250000
vt 0.674215 0.250000
vt 0.674215 0.000000
vt 0.375000 0.500000
vt 0.375000 0.750000
vt 0.625000 0.750000
vt 0.625000 0.500000
vt 0.674215 0.000000
vt 0.674215 0.250000
vt 0.875000 0.250000
vt 0.875000 0.000000
vt 0.125000 0.000000
vt 0.125000 0.250000
vt 0.375000 0.250000
vt 0.375000 0.000000
vn 0.000000 0.000000 -1.000000
vn 0.000000 0.000000 -1.000000
vn 0.000000 0.000000 -1.000000
vn 0.000000 0.000000 -1.000000
vn 1.000000 0.000000 0.000000
vn 1.000000 0.000000 0.000000
vn 1.000000 0.000000 0.000000
vn 1.000000 0.000000 0.000000
vn 1.000000 0.000000 0.000000
vn 1.000000 0.000000 0.000000
vn 1.000000 0.000000 0.000000
vn 1.000000 0.000000 0.000000
vn -1.000000 0.000000 0.000000
vn -1.000000 0.000000 0.000000
vn -1.000000 0.000000 0.000000
vn -1.000000 0.000000 0.000000
vn -1.000000 0.000000 0.000000
vn -1.000000 0.000000 0.000000
vn -1.000000 0.000000 0.000000
vn -1.000000 0.000000 0.000000
vn 0.000000 0.000000 1.000000
vn 0.000000 0.000000 1.000000
vn 0.000000 0.000000 1.000000
vn 0.000000 0.000000 1.000000
vn -0.000305 0.000000 1.000000
vn -0.000305 0.000000 1.000000
vn -0.000305 0.000000 1.000000
vn -0.000305 0.000000 1.000000
vn 0.000000 0.000000 1.000000
vn 0.000000 0.000000 1.000000
vn 0.000000 0.000000 1.000000
vn 0.000000 0.000000 1.000000
vn 0.000000 0.000000 -1.000000
vn 0.000000 0.000000 -1.000000
vn 0.000000 0.000000 -1.000000
vn 0.000000 0.000000 -1.000000
vn -1.000000 0.000000 0.000000
vn -1.000000 0.000000 0.000000
vn -1.000000 0.000000 0.000000
vn -1.000000 0.000000 0.000000
vn 1.000000 0.000000 0.000000
vn 1.000000 0.000000 0.000000
vn 1.000000 0.000000 0.000000
vn 1.000000 0.000000 0.000000
usemtl material
f 1/0/1 2/0/2 3/0/3
f 1/0/1 3/0/3 4/0/4
f 5/0/5 6/0/6 7/0/7
f 5/0/5 7/0/7 8/0/8
f 9/0/9 10/0/10 11/0/11
f 9/0/9 11/0/11 12/0/12
f 13/0/13 14/0/14 15/0/15
f 13/0/13 15/0/15 16/0/16
f 17/0/17 18/0/18 19/0/19
f 17/0/17 19/0/19 20/0/20
f 21/0/21 22/0/22 23/0/23
f 21/0/21 23/0/23 24/0/24
f 25/0/25 26/0/26 27/0/27
f 25/0/25 27/0/27 28/0/28
f 29/0/29 30/0/30 31/0/31
f 29/0/29 31/0/31 32/0/32
f 33/0/33 34/0/34 35/0/35
f 33/0/33 35/0/35 36/0/36
f 37/0/37 38/0/38 39/0/39
f 37/0/37 39/0/39 40/0/40
f 41/0/41 42/0/42 43/0/43
f 41/0/41 43/0/43 44/0/44
