# 
# Wavefront OBJ file
# Created with Kaydara FBX
# 
mtllib collision05 #2279304.mtl

g Collision05
v 9.776480 0.002129 8.491494
v 9.776252 -0.000089 1.028809
v -9.776252 -0.000089 1.028809
v -9.776480 0.002129 8.491494
v 9.051476 -0.000055 0.375273
v -9.051476 -0.000055 0.375273
v 9.051506 -0.000035 -1.595840
v -9.051506 -0.000035 -1.595840
v 9.776341 -0.000026 -2.278945
v -9.776341 -0.000026 -2.278945
v -9.776393 0.000004 -5.480342
v 9.776393 0.000004 -5.480342
v -6.286613 0.000000 -8.770576
v 6.286613 0.000000 -8.770576
v -9.776480 0.002129 8.491494
v -9.776480 7.983039 8.491494
v 9.776480 7.983039 8.491494
v 9.776480 0.002129 8.491494
v -6.286613 0.000000 -8.770576
v -6.286613 7.980910 -8.770576
v -9.776393 7.980914 -5.480342
v -9.776393 0.000004 -5.480342
v -9.776393 0.000004 -5.480342
v -9.776393 7.980914 -5.480342
v -9.776341 7.980885 -2.278945
v -9.776341 -0.000026 -2.278945
v -9.776252 -0.000089 1.028809
v -9.776252 7.980821 1.028809
v -9.776480 7.983039 8.491494
v -9.776480 0.002129 8.491494
v -9.051506 -0.000035 -1.595840
v -9.051506 7.980875 -1.595840
v -9.051476 7.980855 0.375273
v -9.051476 -0.000055 0.375273
v -9.051476 -0.000055 0.375273
v -9.051476 7.980855 0.375273
v -9.776252 7.980821 1.028809
v -9.776252 -0.000089 1.028809
v -9.776341 -0.000026 -2.278945
v -9.776341 7.980885 -2.278945
v -9.051506 7.980875 -1.595840
v -9.051506 -0.000035 -1.595840
v 9.776480 0.002129 8.491494
v 9.776480 7.983039 8.491494
v 9.776252 7.980821 1.028809
v 9.776252 -0.000089 1.028809
v 9.776393 0.000004 -5.480342
v 9.776393 7.980914 -5.480342
v 6.286613 7.980910 -8.770576
v 6.286613 0.000000 -8.770576
v 9.776341 -0.000026 -2.278945
v 9.776341 7.980885 -2.278945
v 9.776393 7.980914 -5.480342
v 9.776393 0.000004 -5.480342
v 9.051476 -0.000055 0.375273
v 9.051476 7.980855 0.375273
v 9.051506 7.980875 -1.595840
v 9.051506 -0.000035 -1.595840
v 6.286613 0.000000 -8.770576
v 6.286613 7.980910 -8.770576
v -6.286613 7.980910 -8.770576
v -6.286613 0.000000 -8.770576
v 9.776252 -0.000089 1.028809
v 9.776252 7.980821 1.028809
v 9.051476 7.980855 0.375273
v 9.051476 -0.000055 0.375273
v 9.051506 -0.000035 -1.595840
v 9.051506 7.980875 -1.595840
v 9.776341 7.980885 -2.278945
v 9.776341 -0.000026 -2.278945
vt 0.988983 0.497565
vt 0.988977 0.708668
vt 0.988977 0.708668
vt 0.988983 0.497565
vt 0.968474 0.727155
vt 0.968474 0.727155
vt 0.968475 0.782913
vt 0.968475 0.782913
vt 0.988979 0.802237
vt 0.988979 0.802237
vt 0.988980 0.892797
vt 0.988980 0.892797
vt 0.890262 0.985870
vt 0.890262 0.985870
vt 0.000000 0.000000
vt 0.000000 1.000000
vt 1.000000 1.000000
vt 1.000000 0.000000
vt 0.000000 0.000000
vt 0.000000 1.000000
vt 1.000000 1.000000
vt 1.000000 0.000000
vt 0.000000 0.000000
vt 0.000000 1.000000
vt 1.000000 1.000000
vt 1.000000 0.000000
vt 0.000000 0.000000
vt 0.000000 1.000000
vt 1.000000 1.000000
vt 1.000000 0.000000
vt 0.000000 0.000000
vt 0.000000 1.000000
vt 1.000000 1.000000
vt 1.000000 0.000000
vt 0.000000 0.000000
vt 0.000000 1.000000
vt 1.000000 1.000000
vt 1.000000 0.000000
vt 0.000000 0.000000
vt 0.000000 1.000000
vt 1.000000 1.000000
vt 1.000000 0.000000
vt 0.000000 0.000000
vt 0.000000 1.000000
vt 1.000000 1.000000
vt 1.000000 0.000000
vt 0.000000 0.000000
vt 0.000000 1.000000
vt 1.000000 1.000000
vt 1.000000 0.000000
vt 0.000000 0.000000
vt 0.000000 1.000000
vt 1.000000 1.000000
vt 1.000000 0.000000
vt 0.000000 0.000000
vt 0.000000 1.000000
vt 1.000000 1.000000
vt 1.000000 0.000000
vt 0.000000 0.000000
vt 0.000000 1.000000
vt 1.000000 1.000000
vt 1.000000 0.000000
vt 0.000000 0.000000
vt 0.000000 1.000000
vt 1.000000 1.000000
vt 1.000000 0.000000
vt 0.000000 0.000000
vt 0.000000 1.000000
vt 1.000000 1.000000
vt 1.000000 0.000000
vn 0.000000 1.000000 -0.000297
vn 0.000000 1.000000 -0.000297
vn 0.000000 1.000000 -0.000297
vn 0.000000 1.000000 -0.000297
vn 0.000000 1.000000 0.000010
vn 0.000000 1.000000 0.000010
vn 0.000000 1.000000 0.000010
vn 0.000000 1.000000 0.000010
vn 0.000000 1.000000 0.000014
vn 0.000000 1.000000 0.000014
vn 0.000000 1.000000 0.000004
vn 0.000000 1.000000 0.000004
vn 0.000000 1.000000 0.000004
vn 0.000000 1.000000 0.000004
vn 0.000000 0.000000 -1.000000
vn 0.000000 0.000000 -1.000000
vn 0.000000 0.000000 -1.000000
vn 0.000000 0.000000 -1.000000
vn 0.685999 0.000000 0.727603
vn 0.685999 0.000000 0.727603
vn 0.685999 0.000000 0.727603
vn 0.685999 0.000000 0.727603
vn 1.000000 0.000000 -0.000016
vn 1.000000 0.000000 -0.000016
vn 1.000000 0.000000 -0.000016
vn 1.000000 0.000000 -0.000016
vn 1.000000 0.000000 0.000030
vn 1.000000 0.000000 0.000030
vn 1.000000 0.000000 0.000030
vn 1.000000 0.000000 0.000030
vn 1.000000 0.000000 -0.000015
vn 1.000000 0.000000 -0.000015
vn 1.000000 0.000000 -0.000015
vn 1.000000 0.000000 -0.000015
vn 0.669665 0.000000 0.742663
vn 0.669665 0.000000 0.742663
vn 0.669665 0.000000 0.742663
vn 0.669665 0.000000 0.742663
vn 0.685848 0.000000 -0.727745
vn 0.685848 0.000000 -0.727745
vn 0.685848 0.000000 -0.727745
vn 0.685848 0.000000 -0.727745
vn -1.000000 0.000000 0.000030
vn -1.000000 0.000000 0.000030
vn -1.000000 0.000000 0.000030
vn -1.000000 0.000000 0.000030
vn -0.685999 0.000000 0.727603
vn -0.685999 0.000000 0.727603
vn -0.685999 0.000000 0.727603
vn -0.685999 0.000000 0.727603
vn -1.000000 0.000000 -0.000016
vn -1.000000 0.000000 -0.000016
vn -1.000000 0.000000 -0.000016
vn -1.000000 0.000000 -0.000016
vn -1.000000 0.000000 -0.000015
vn -1.000000 0.000000 -0.000015
vn -1.000000 0.000000 -0.000015
vn -1.000000 0.000000 -0.000015
vn 0.000000 0.000000 1.000000
vn 0.000000 0.000000 1.000000
vn 0.000000 0.000000 1.000000
vn 0.000000 0.000000 1.000000
vn -0.669665 0.000000 0.742663
vn -0.669665 0.000000 0.742663
vn -0.669665 0.000000 0.742663
vn -0.669665 0.000000 0.742663
vn -0.685848 0.000000 -0.727745
vn -0.685848 0.000000 -0.727745
vn -0.685848 0.000000 -0.727745
vn -0.685848 0.000000 -0.727745
usemtl material
f 1/0/1 2/0/2 3/0/3
f 1/0/1 3/0/3 4/0/4
f 3/0/3 2/0/2 5/0/5
f 3/0/3 5/0/5 6/0/6
f 6/0/6 5/0/5 7/0/7
f 6/0/6 7/0/7 8/0/8
f 8/0/8 7/0/7 9/0/9
f 8/0/8 9/0/9 10/0/10
f 11/0/11 10/0/10 9/0/9
f 11/0/11 9/0/9 12/0/12
f 13/0/13 11/0/11 12/0/12
f 12/0/12 14/0/14 13/0/13
f 15/0/15 16/0/16 17/0/17
f 15/0/15 17/0/17 18/0/18
f 19/0/19 20/0/20 21/0/21
f 19/0/19 21/0/21 22/0/22
f 23/0/23 24/0/24 25/0/25
f 23/0/23 25/0/25 26/0/26
f 27/0/27 28/0/28 29/0/29
f 27/0/27 29/0/29 30/0/30
f 31/0/31 32/0/32 33/0/33
f 31/0/31 33/0/33 34/0/34
f 35/0/35 36/0/36 37/0/37
f 35/0/35 37/0/37 38/0/38
f 39/0/39 40/0/40 41/0/41
f 39/0/39 41/0/41 42/0/42
f 43/0/43 44/0/44 45/0/45
f 43/0/43 45/0/45 46/0/46
f 47/0/47 48/0/48 49/0/49
f 47/0/47 49/0/49 50/0/50
f 51/0/51 52/0/52 53/0/53
f 51/0/51 53/0/53 54/0/54
f 55/0/55 56/0/56 57/0/57
f 55/0/55 57/0/57 58/0/58
f 59/0/59 60/0/60 61/0/61
f 59/0/59 61/0/61 62/0/62
f 63/0/63 64/0/64 65/0/65
f 63/0/63 65/0/65 66/0/66
f 67/0/67 68/0/68 69/0/69
f 67/0/67 69/0/69 70/0/70
