# 
# Wavefront OBJ file
# Created with Kaydara FBX
# 
mtllib corridor_c09.mtl

g Corridor_C09
v -19.185263 3.556230 0.652959
v -22.417871 3.556230 0.652959
v -22.417871 3.484941 0.604678
v -19.185263 3.484941 0.604678
v -19.185263 3.556230 -5.609131
v -19.185263 3.484941 -5.560859
v -22.417871 3.484941 -5.560859
v -22.417871 3.556230 -5.609131
v -15.997373 3.556230 0.652959
v -19.185263 3.556230 0.652959
v -19.185263 3.484941 0.604678
v -15.997373 3.484941 0.604678
v -15.997373 3.556230 -5.609131
v -15.997373 3.484941 -5.560859
v -19.185263 3.484941 -5.560859
v -19.185263 3.556230 -5.609131
v -12.809483 3.556230 0.652959
v -15.997373 3.556230 0.652959
v -15.997373 3.484941 0.604678
v -12.809483 3.484941 0.604678
v -12.809483 3.556230 -5.609131
v -12.809483 3.484941 -5.560859
v -15.997373 3.484941 -5.560859
v -15.997373 3.556230 -5.609131
v -9.621592 3.556230 0.652959
v -12.809483 3.556230 0.652959
v -12.809483 3.484941 0.604678
v -9.621592 3.484941 0.604678
v -9.621592 3.556230 -5.609131
v -9.621592 3.484941 -5.560859
v -12.809483 3.484941 -5.560859
v -12.809483 3.556230 -5.609131
v -6.433701 3.556230 0.652959
v -9.621592 3.556230 0.652959
v -9.621592 3.484941 0.604678
v -6.433701 3.484941 0.604678
v -6.433701 3.556230 -5.609131
v -6.433701 3.484941 -5.560859
v -9.621592 3.484941 -5.560859
v -9.621592 3.556230 -5.609131
v -3.245811 3.556230 0.652959
v -6.433701 3.556230 0.652959
v -6.433701 3.484941 0.604678
v -3.245811 3.484941 0.604678
v -3.245811 3.556230 -5.609131
v -3.245811 3.484941 -5.560859
v -6.433701 3.484941 -5.560859
v -6.433701 3.556230 -5.609131
v -0.057920 3.556230 0.652959
v -3.245811 3.556230 0.652959
v -3.245811 3.484941 0.604678
v -0.057920 3.484941 0.604678
v -0.057920 3.556230 -5.609131
v -0.057920 3.484941 -5.560859
v -3.245811 3.484941 -5.560859
v -3.245811 3.556230 -5.609131
vt 2.348272 -0.998274
vt -1.256474 -0.997756
vt -1.258460 -0.893202
vt 2.346950 -0.893040
vt 2.348272 -0.998274
vt 2.346950 -0.893040
vt -1.258460 -0.893202
vt -1.256474 -0.997756
vt 2.348272 -0.998274
vt -1.256474 -0.997756
vt -1.258460 -0.893202
vt 2.346950 -0.893040
vt 2.348272 -0.998274
vt 2.346950 -0.893040
vt -1.258460 -0.893202
vt -1.256474 -0.997756
vt 2.348272 -0.998274
vt -1.256474 -0.997756
vt -1.258460 -0.893202
vt 2.346950 -0.893040
vt 2.348272 -0.998274
vt 2.346950 -0.893040
vt -1.258460 -0.893202
vt -1.256474 -0.997756
vt 2.348272 -0.998274
vt -1.256474 -0.997756
vt -1.258460 -0.893202
vt 2.346950 -0.893040
vt 2.348272 -0.998274
vt 2.346950 -0.893040
vt -1.258460 -0.893202
vt -1.256474 -0.997756
vt 2.348272 -0.998274
vt -1.256474 -0.997756
vt -1.258460 -0.893202
vt 2.346950 -0.893040
vt 2.348272 -0.998274
vt 2.346950 -0.893040
vt -1.258460 -0.893202
vt -1.256474 -0.997756
vt 2.348272 -0.998274
vt -1.256474 -0.997756
vt -1.258460 -0.893202
vt 2.346950 -0.893040
vt 2.348272 -0.998274
vt 2.346950 -0.893040
vt -1.258460 -0.893202
vt -1.256474 -0.997756
vt 2.348272 -0.998274
vt -1.256474 -0.997756
vt -1.258460 -0.893202
vt 2.346950 -0.893040
vt 2.348272 -0.998274
vt 2.346950 -0.893040
vt -1.258460 -0.893202
vt -1.256474 -0.997756
vn 0.000000 -0.560758 0.827979
vn 0.000000 -0.560758 0.827979
vn 0.000000 -0.560758 0.827979
vn 0.000000 -0.560758 0.827979
vn 0.000000 -0.560681 -0.828032
vn 0.000000 -0.560681 -0.828032
vn 0.000000 -0.560681 -0.828032
vn 0.000000 -0.560681 -0.828032
vn 0.000000 -0.560758 0.827980
vn 0.000000 -0.560758 0.827980
vn 0.000000 -0.560758 0.827980
vn 0.000000 -0.560758 0.827980
vn 0.000000 -0.560680 -0.828032
vn 0.000000 -0.560680 -0.828032
vn 0.000000 -0.560680 -0.828032
vn 0.000000 -0.560680 -0.828032
vn 0.000000 -0.560758 0.827980
vn 0.000000 -0.560758 0.827980
vn 0.000000 -0.560758 0.827980
vn 0.000000 -0.560758 0.827980
vn 0.000000 -0.560680 -0.828032
vn 0.000000 -0.560680 -0.828032
vn 0.000000 -0.560680 -0.828032
vn 0.000000 -0.560680 -0.828032
vn 0.000000 -0.560758 0.827980
vn 0.000000 -0.560758 0.827980
vn 0.000000 -0.560758 0.827980
vn 0.000000 -0.560758 0.827980
vn 0.000000 -0.560680 -0.828033
vn 0.000000 -0.560680 -0.828033
vn 0.000000 -0.560680 -0.828033
vn 0.000000 -0.560680 -0.828033
vn 0.000000 -0.560758 0.827980
vn 0.000000 -0.560758 0.827980
vn 0.000000 -0.560758 0.827980
vn 0.000000 -0.560758 0.827980
vn 0.000000 -0.560680 -0.828032
vn 0.000000 -0.560680 -0.828032
vn 0.000000 -0.560680 -0.828032
vn 0.000000 -0.560680 -0.828032
vn 0.000000 -0.560758 0.827980
vn 0.000000 -0.560758 0.827980
vn 0.000000 -0.560758 0.827980
vn 0.000000 -0.560758 0.827980
vn 0.000000 -0.560680 -0.828033
vn 0.000000 -0.560680 -0.828033
vn 0.000000 -0.560680 -0.828033
vn 0.000000 -0.560680 -0.828033
vn 0.000000 -0.560758 0.827980
vn 0.000000 -0.560758 0.827980
vn 0.000000 -0.560758 0.827980
vn 0.000000 -0.560758 0.827980
vn 0.000000 -0.560680 -0.828033
vn 0.000000 -0.560680 -0.828033
vn 0.000000 -0.560680 -0.828033
vn 0.000000 -0.560680 -0.828033
usemtl material
f 1/0/1 2/0/2 3/0/3
f 1/0/1 3/0/3 4/0/4
f 5/0/5 6/0/6 7/0/7
f 5/0/5 7/0/7 8/0/8
f 9/0/9 10/0/10 11/0/11
f 9/0/9 11/0/11 12/0/12
f 13/0/13 14/0/14 15/0/15
f 13/0/13 15/0/15 16/0/16
f 17/0/17 18/0/18 19/0/19
f 17/0/17 19/0/19 20/0/20
f 21/0/21 22/0/22 23/0/23
f 21/0/21 23/0/23 24/0/24
f 25/0/25 26/0/26 27/0/27
f 25/0/25 27/0/27 28/0/28
f 29/0/29 30/0/30 31/0/31
f 29/0/29 31/0/31 32/0/32
f 33/0/33 34/0/34 35/0/35
f 33/0/33 35/0/35 36/0/36
f 37/0/37 38/0/38 39/0/39
f 37/0/37 39/0/39 40/0/40
f 41/0/41 42/0/42 43/0/43
f 41/0/41 43/0/43 44/0/44
f 45/0/45 46/0/46 47/0/47
f 45/0/45 47/0/47 48/0/48
f 49/0/49 50/0/50 51/0/51
f 49/0/49 51/0/51 52/0/52
f 53/0/53 54/0/54 55/0/55
f 53/0/53 55/0/55 56/0/56
