# 
# Wavefront OBJ file
# Created with Kaydara FBX
# 
mtllib cross_t6_boss_a.mtl

g Cross_T6_BOSS_A
v 0.056986 -0.000000 -0.358375
v 0.008791 -0.000000 -0.020879
v 0.000000 -0.009419 -0.037566
v 0.000000 -0.031187 -0.335184
v -0.008791 -0.000000 -0.020879
v -0.056986 -0.000000 -0.358375
v -0.035661 -0.000000 -0.378055
v -0.025705 -0.000000 -0.414461
v 0.000000 -0.023462 -0.439516
v 0.025705 -0.000000 -0.414461
v 0.035661 -0.000000 -0.378055
v 0.000000 -0.000000 -0.000000
v -0.033931 -0.000000 -0.441028
v 0.033931 -0.000000 -0.441028
v 0.022666 -0.000000 -0.475595
v 0.016142 -0.000000 -0.617183
v 0.000000 -0.016451 -0.618046
v -0.022666 -0.000000 -0.475595
v -0.016142 -0.000000 -0.617183
v -0.015873 0.000000 -1.237640
v 0.000000 -0.016451 -1.238661
v 0.000000 -0.018695 -1.409535
v -0.020723 0.000000 -1.412234
v -0.045033 0.000000 -1.450849
v 0.000000 -0.022216 -1.457124
v 0.000000 0.000000 -1.543785
v 0.045033 0.000000 -1.450849
v 0.020723 0.000000 -1.412234
v 0.015873 0.000000 -1.237640
v -0.045033 0.000000 -1.450849
v 0.000000 0.022216 -1.457124
v 0.045033 0.000000 -1.450849
v 0.000529 0.018695 -1.409261
v -0.020723 0.000000 -1.412234
v 0.020723 0.000000 -1.412234
v 0.000000 0.016451 -1.238661
v -0.015873 0.000000 -1.237640
v 0.015873 0.000000 -1.237640
v 0.000000 0.016451 -0.618046
v -0.016142 -0.000000 -0.617183
v 0.000000 0.023462 -0.439516
v -0.022666 -0.000000 -0.475595
v -0.033931 -0.000000 -0.441028
v 0.022666 -0.000000 -0.475595
v 0.016142 -0.000000 -0.617183
v -0.025705 -0.000000 -0.414461
v 0.000000 0.031187 -0.335184
v -0.035661 -0.000000 -0.378055
v -0.056986 -0.000000 -0.358375
v 0.025705 -0.000000 -0.414461
v 0.035661 -0.000000 -0.378055
v 0.056986 -0.000000 -0.358375
v 0.008791 -0.000000 -0.020879
v 0.000000 0.009419 -0.037566
v -0.008791 -0.000000 -0.020879
v 0.033931 -0.000000 -0.441028
vt 0.914061 0.763893
vt 0.946313 0.975348
vt 0.952195 0.964893
vt 0.952195 0.778423
vt 0.958078 0.975348
vt 0.990329 0.763893
vt 0.976058 0.751563
vt 0.969396 0.728753
vt 0.952195 0.713055
vt 0.934994 0.728753
vt 0.928332 0.751563
vt 0.952195 0.988430
vt 0.974901 0.712108
vt 0.929489 0.712108
vt 0.937028 0.690450
vt 0.941393 0.601740
vt 0.952195 0.601199
vt 0.967363 0.690450
vt 0.962997 0.601740
vt 0.962817 0.212998
vt 0.952195 0.212358
vt 0.952195 0.105299
vt 0.966063 0.103608
vt 0.982330 0.079414
vt 0.952195 0.075482
vt 0.952195 0.021186
vt 0.922060 0.079414
vt 0.938327 0.103608
vt 0.941573 0.212998
vt 0.922060 0.079414
vt 0.952195 0.075482
vt 0.982330 0.079414
vt 0.952195 0.105299
vt 0.938327 0.103608
vt 0.966063 0.103608
vt 0.952195 0.212358
vt 0.941573 0.212998
vt 0.962817 0.212998
vt 0.952195 0.601199
vt 0.941393 0.601740
vt 0.952195 0.713055
vt 0.937028 0.690450
vt 0.929489 0.712108
vt 0.967363 0.690450
vt 0.962997 0.601740
vt 0.934994 0.728753
vt 0.952195 0.778423
vt 0.928332 0.751563
vt 0.914061 0.763893
vt 0.969396 0.728753
vt 0.976058 0.751563
vt 0.990329 0.763893
vt 0.958078 0.975348
vt 0.952195 0.964893
vt 0.946313 0.975348
vt 0.974901 0.712108
vn 0.940709 0.000000 -0.339216
vn 0.949732 -0.000000 0.313064
vn 0.000000 -0.993931 0.110009
vn 0.000000 -0.999417 -0.034130
vn -0.949732 -0.000000 0.313064
vn -0.940709 0.000000 -0.339216
vn -0.921214 0.000000 -0.389056
vn -0.999848 0.000000 0.017408
vn 0.000000 -0.998042 -0.062542
vn 0.999848 0.000000 0.017408
vn 0.921214 0.000000 -0.389056
vn 0.000000 -0.000000 1.000000
vn -0.999936 0.000000 -0.011350
vn 0.999936 0.000000 -0.011351
vn 0.992212 0.000000 -0.124559
vn 0.999763 0.000000 -0.021761
vn 0.000000 -0.999770 -0.021440
vn -0.992212 0.000000 -0.124559
vn -0.999763 0.000000 -0.021761
vn -0.999950 0.002618 0.009670
vn 0.000000 -0.999946 0.010397
vn 0.000000 -0.991928 0.126800
vn -0.982155 0.004955 0.188006
vn -0.999666 0.001209 -0.025809
vn 0.000000 -0.999542 -0.030278
vn 0.000000 0.000000 -1.000000
vn 0.999593 -0.001770 -0.028457
vn 0.982673 -0.005252 0.185271
vn 0.999942 -0.002703 0.010391
vn -0.999666 0.001209 -0.025809
vn -0.000372 0.999534 -0.030513
vn 0.999593 -0.001770 -0.028457
vn 0.005272 0.992002 0.126112
vn -0.982155 0.004955 0.188006
vn 0.982673 -0.005252 0.185271
vn 0.001567 0.999945 0.010408
vn -0.999950 0.002618 0.009670
vn 0.999942 -0.002703 0.010391
vn 0.000000 0.999770 -0.021440
vn -0.999763 0.000000 -0.021761
vn 0.000000 0.998042 -0.062542
vn -0.992212 0.000000 -0.124559
vn -0.999936 0.000000 -0.011350
vn 0.992212 0.000000 -0.124559
vn 0.999763 0.000000 -0.021761
vn -0.999848 0.000000 0.017408
vn 0.000000 0.999417 -0.034130
vn -0.921214 0.000000 -0.389056
vn -0.940709 0.000000 -0.339216
vn 0.999848 0.000000 0.017408
vn 0.921214 0.000000 -0.389056
vn 0.940709 0.000000 -0.339216
vn 0.949732 -0.000000 0.313064
vn 0.000000 0.993931 0.110009
vn -0.949732 -0.000000 0.313064
vn 0.999936 0.000000 -0.011351
usemtl material
f 1/0/1 2/0/2 3/0/3
f 1/0/1 3/0/3 4/0/4
f 4/0/4 3/0/3 5/0/5
f 4/0/4 5/0/5 6/0/6
f 7/0/7 4/0/4 6/0/6
f 4/0/4 7/0/7 8/0/8
f 4/0/4 8/0/8 9/0/9
f 4/0/4 9/0/9 10/0/10
f 4/0/4 10/0/10 11/0/11
f 1/0/1 4/0/4 11/0/11
f 5/0/5 3/0/3 12/0/12
f 3/0/3 2/0/2 12/0/12
f 9/0/9 8/0/8 13/0/13
f 10/0/10 9/0/9 14/0/14
f 14/0/14 9/0/9 15/0/15
f 16/0/16 15/0/15 9/0/9
f 16/0/16 9/0/9 17/0/17
f 17/0/17 9/0/9 18/0/18
f 18/0/18 9/0/9 13/0/13
f 17/0/17 18/0/18 19/0/19
f 17/0/17 19/0/19 20/0/20
f 17/0/17 20/0/20 21/0/21
f 22/0/22 21/0/21 20/0/20
f 22/0/22 20/0/20 23/0/23
f 22/0/22 23/0/23 24/0/24
f 22/0/22 24/0/24 25/0/25
f 25/0/25 24/0/24 26/0/26
f 27/0/27 25/0/25 26/0/26
f 27/0/27 22/0/22 25/0/25
f 27/0/27 28/0/28 22/0/22
f 28/0/28 21/0/21 22/0/22
f 28/0/28 29/0/29 21/0/21
f 29/0/29 16/0/16 17/0/17
f 29/0/29 17/0/17 21/0/21
f 30/0/30 31/0/31 26/0/26
f 31/0/31 32/0/32 26/0/26
f 30/0/30 33/0/33 31/0/31
f 33/0/33 32/0/32 31/0/31
f 30/0/30 34/0/34 33/0/33
f 33/0/33 35/0/35 32/0/32
f 34/0/34 36/0/36 33/0/33
f 34/0/34 37/0/37 36/0/36
f 33/0/33 36/0/36 38/0/38
f 33/0/33 38/0/38 35/0/35
f 37/0/37 39/0/39 36/0/36
f 39/0/39 38/0/38 36/0/36
f 37/0/37 40/0/40 39/0/39
f 40/0/40 41/0/41 39/0/39
f 40/0/40 42/0/42 41/0/41
f 43/0/43 41/0/41 42/0/42
f 39/0/39 41/0/41 44/0/44
f 39/0/39 44/0/44 45/0/45
f 39/0/39 45/0/45 38/0/38
f 46/0/46 41/0/41 43/0/43
f 46/0/46 47/0/47 41/0/41
f 46/0/46 48/0/48 47/0/47
f 47/0/47 48/0/48 49/0/49
f 50/0/50 41/0/41 47/0/47
f 50/0/50 47/0/47 51/0/51
f 47/0/47 52/0/52 51/0/51
f 47/0/47 53/0/53 52/0/52
f 47/0/47 54/0/54 53/0/53
f 12/0/12 53/0/53 54/0/54
f 55/0/55 12/0/12 54/0/54
f 55/0/55 54/0/54 47/0/47
f 55/0/55 47/0/47 49/0/49
f 41/0/41 50/0/50 56/0/56
f 44/0/44 41/0/41 56/0/56
