# 
# Wavefront OBJ file
# Created with Kaydara FBX
# 
mtllib cross_t6_weapon.mtl

g Cross_T6_Weapon
v 0.056986 0.000000 -0.358375
v 0.008791 0.000000 -0.020879
v -0.000000 -0.009419 -0.037566
v -0.000000 -0.031187 -0.335184
v 0.035661 0.000000 -0.378055
v 0.025705 0.000000 -0.414461
v -0.000000 -0.023462 -0.439516
v -0.000000 0.000000 0.000000
v 0.033931 0.000000 -0.441028
v 0.022666 0.000000 -0.475595
v -0.000000 -0.016451 -0.564997
v 0.017860 0.000000 -0.565861
v -0.000000 -0.022651 -0.591116
v 0.026536 0.000000 -0.590618
v 0.016142 0.000000 -0.617183
v -0.000000 -0.016451 -0.618046
v 0.015873 0.000000 -1.237640
v -0.000000 -0.016451 -1.238661
v 0.024943 0.000000 -1.255533
v -0.000000 -0.022363 -1.257371
v 0.024492 0.000000 -1.343879
v -0.000000 -0.020419 -1.346059
v 0.017112 0.000000 -1.358356
v -0.000000 -0.015093 -1.373601
v 0.017650 0.000000 -1.385208
v -0.000000 -0.018695 -1.409535
v 0.030485 0.000000 -1.399647
v 0.020723 0.000000 -1.412234
v 0.045033 0.000000 -1.450849
v -0.000000 -0.022216 -1.457124
v 0.029232 0.000000 -1.475524
v 0.017389 0.000000 -1.519872
v -0.000000 0.000000 -1.543785
v -0.000000 -0.031187 -0.335184
v -0.000000 -0.009419 -0.037566
v -0.008791 0.000000 -0.020879
v -0.056986 0.000000 -0.358375
v -0.035661 0.000000 -0.378055
v -0.025705 0.000000 -0.414461
v -0.000000 -0.023462 -0.439516
v -0.000000 0.000000 0.000000
v -0.033931 0.000000 -0.441028
v -0.022666 0.000000 -0.475595
v -0.000000 -0.016451 -0.564997
v -0.017860 0.000000 -0.565861
v -0.000000 -0.022651 -0.591116
v -0.026536 0.000000 -0.590618
v -0.000000 -0.016451 -0.618046
v -0.016142 0.000000 -0.617183
v -0.015873 0.000000 -1.237640
v -0.000000 -0.016451 -1.238661
v -0.024943 0.000000 -1.255533
v -0.000000 -0.022363 -1.257371
v -0.024492 0.000000 -1.343879
v -0.000000 -0.020419 -1.346059
v -0.017112 0.000000 -1.358356
v -0.000000 -0.015093 -1.373601
v -0.017650 0.000000 -1.385208
v -0.000000 -0.018695 -1.409535
v -0.030485 0.000000 -1.399647
v -0.020723 0.000000 -1.412234
v -0.045033 0.000000 -1.450849
v -0.000000 -0.022216 -1.457124
v -0.029232 0.000000 -1.475524
v -0.017389 0.000000 -1.519872
v -0.000000 0.000000 -1.543785
v -0.000000 0.031187 -0.335184
v 0.000000 0.009419 -0.037566
v 0.008791 0.000000 -0.020879
v 0.056986 0.000000 -0.358375
v -0.000000 0.000000 0.000000
v 0.035661 0.000000 -0.378055
v 0.025705 0.000000 -0.414461
v -0.000000 0.023462 -0.439516
v 0.033931 0.000000 -0.441028
v 0.022666 0.000000 -0.475595
v -0.000000 0.016451 -0.564997
v 0.017860 0.000000 -0.565861
v -0.000000 0.022651 -0.591116
v 0.026536 0.000000 -0.590618
v 0.016142 0.000000 -0.617183
v -0.000000 0.016451 -0.618046
v 0.015873 0.000000 -1.237640
v -0.000000 0.016451 -1.238661
v 0.024943 0.000000 -1.255533
v -0.000000 0.022363 -1.257371
v 0.024492 0.000000 -1.343879
v -0.000000 0.020419 -1.346059
v 0.017112 0.000000 -1.358356
v -0.000000 0.015093 -1.373601
v 0.017650 0.000000 -1.385208
v -0.000000 0.018695 -1.409535
v 0.030485 0.000000 -1.399647
v 0.020723 0.000000 -1.412234
v 0.045033 0.000000 -1.450849
v -0.000000 0.022216 -1.457124
v 0.029232 0.000000 -1.475524
v 0.017389 0.000000 -1.519872
v -0.000000 0.000000 -1.543785
v -0.008791 0.000000 -0.020879
v -0.000000 0.000000 0.000000
v 0.000000 0.009419 -0.037566
v -0.000000 0.031187 -0.335184
v -0.056986 0.000000 -0.358375
v -0.035661 0.000000 -0.378055
v -0.025705 0.000000 -0.414461
v -0.000000 0.023462 -0.439516
v -0.033931 0.000000 -0.441028
v -0.022666 0.000000 -0.475595
v -0.000000 0.016451 -0.564997
v -0.017860 0.000000 -0.565861
v -0.000000 0.022651 -0.591116
v -0.026536 0.000000 -0.590618
v -0.000000 0.016451 -0.618046
v -0.016142 0.000000 -0.617183
v -0.015873 0.000000 -1.237640
v -0.000000 0.016451 -1.238661
v -0.024943 0.000000 -1.255533
v -0.000000 0.022363 -1.257371
v -0.024492 0.000000 -1.343879
v -0.000000 0.020419 -1.346059
v -0.017112 0.000000 -1.358356
v -0.000000 0.015093 -1.373601
v -0.017650 0.000000 -1.385208
v -0.000000 0.018695 -1.409535
v -0.030485 0.000000 -1.399647
v -0.020723 0.000000 -1.412234
v -0.045033 0.000000 -1.450849
v -0.000000 0.022216 -1.457124
v -0.029232 0.000000 -1.475524
v -0.017389 0.000000 -1.519872
v -0.000000 0.000000 -1.543785
vt 0.914061 0.763893
vt 0.946313 0.975348
vt 0.952195 0.964893
vt 0.952195 0.778423
vt 0.928332 0.751563
vt 0.934994 0.728753
vt 0.952195 0.713055
vt 0.952195 0.988430
vt 0.929489 0.712108
vt 0.937028 0.690450
vt 0.952195 0.634436
vt 0.940243 0.633895
vt 0.952195 0.618071
vt 0.934438 0.618384
vt 0.941393 0.601740
vt 0.952195 0.601199
vt 0.941573 0.212998
vt 0.952195 0.212358
vt 0.935504 0.201787
vt 0.952195 0.200636
vt 0.935806 0.146435
vt 0.952195 0.145069
vt 0.940744 0.137365
vt 0.952195 0.127813
vt 0.940384 0.120541
vt 0.952195 0.105299
vt 0.931795 0.111494
vt 0.938327 0.103608
vt 0.922060 0.079414
vt 0.952195 0.075482
vt 0.932634 0.063954
vt 0.940559 0.036168
vt 0.952195 0.021186
vt 0.952195 0.778423
vt 0.952195 0.964893
vt 0.958078 0.975348
vt 0.990329 0.763893
vt 0.976058 0.751563
vt 0.969396 0.728753
vt 0.952195 0.713055
vt 0.952195 0.988430
vt 0.974901 0.712108
vt 0.967363 0.690450
vt 0.952195 0.634436
vt 0.964147 0.633895
vt 0.952195 0.618071
vt 0.969952 0.618384
vt 0.952195 0.601199
vt 0.962997 0.601740
vt 0.962817 0.212998
vt 0.952195 0.212358
vt 0.968886 0.201787
vt 0.952195 0.200636
vt 0.968585 0.146435
vt 0.952195 0.145069
vt 0.963646 0.137365
vt 0.952195 0.127813
vt 0.964006 0.120541
vt 0.952195 0.105299
vt 0.972595 0.111494
vt 0.966063 0.103608
vt 0.982330 0.079414
vt 0.952195 0.075482
vt 0.971756 0.063954
vt 0.963832 0.036168
vt 0.952195 0.021186
vt 0.952195 0.778423
vt 0.952195 0.964893
vt 0.958078 0.975348
vt 0.990329 0.763893
vt 0.952195 0.988430
vt 0.976058 0.751563
vt 0.969396 0.728753
vt 0.952195 0.713055
vt 0.974901 0.712108
vt 0.967363 0.690450
vt 0.952195 0.634436
vt 0.964147 0.633895
vt 0.952195 0.618071
vt 0.969952 0.618384
vt 0.962997 0.601740
vt 0.952195 0.601199
vt 0.962817 0.212998
vt 0.952195 0.212358
vt 0.968886 0.201787
vt 0.952195 0.200636
vt 0.968585 0.146435
vt 0.952195 0.145069
vt 0.963646 0.137365
vt 0.952195 0.127813
vt 0.964006 0.120541
vt 0.952195 0.105299
vt 0.972595 0.111494
vt 0.966063 0.103608
vt 0.982330 0.079414
vt 0.952195 0.075482
vt 0.971756 0.063954
vt 0.963832 0.036168
vt 0.952195 0.021186
vt 0.946313 0.975348
vt 0.952195 0.988430
vt 0.952195 0.964893
vt 0.952195 0.778423
vt 0.914061 0.763893
vt 0.928332 0.751563
vt 0.934994 0.728753
vt 0.952195 0.713055
vt 0.929489 0.712108
vt 0.937028 0.690450
vt 0.952195 0.634436
vt 0.940243 0.633895
vt 0.952195 0.618071
vt 0.934438 0.618384
vt 0.952195 0.601199
vt 0.941393 0.601740
vt 0.941573 0.212998
vt 0.952195 0.212358
vt 0.935504 0.201787
vt 0.952195 0.200636
vt 0.935806 0.146435
vt 0.952195 0.145069
vt 0.940744 0.137365
vt 0.952195 0.127813
vt 0.940384 0.120541
vt 0.952195 0.105299
vt 0.931795 0.111494
vt 0.938327 0.103608
vt 0.922060 0.079414
vt 0.952195 0.075482
vt 0.932634 0.063954
vt 0.940559 0.036168
vt 0.952195 0.021186
vn 0.438544 -0.884687 -0.158137
vn 0.510042 -0.843558 0.168127
vn 0.000000 -0.993931 0.110009
vn 0.000000 -0.999417 -0.034130
vn 0.514733 -0.829333 -0.217387
vn 0.622926 -0.782206 0.010845
vn 0.000000 -0.997878 -0.065106
vn 0.000000 -0.969973 0.243211
vn 0.568531 -0.822637 -0.006454
vn 0.641953 -0.761700 -0.087807
vn 0.000000 -0.993014 0.117996
vn 0.669520 -0.737476 0.088728
vn 0.000000 -0.999952 -0.009843
vn 0.670445 -0.741957 -0.001756
vn 0.692354 -0.712314 -0.115131
vn 0.000000 -0.987114 -0.160017
vn 0.689716 -0.709118 0.146436
vn 0.000000 -0.976008 0.217735
vn 0.660553 -0.740623 0.123075
vn 0.000000 -0.989601 0.143838
vn 0.649284 -0.746876 -0.143550
vn 0.000000 -0.992232 -0.124404
vn 0.663536 -0.729449 -0.166205
vn 0.000000 -0.999674 -0.025546
vn 0.567241 -0.804544 0.175917
vn 0.000000 -0.989540 0.144256
vn 0.511180 -0.858209 0.046606
vn 0.568189 -0.815129 -0.112807
vn 0.500830 -0.864771 -0.036597
vn 0.000000 -0.999632 -0.027135
vn 0.501690 -0.837968 -0.214747
vn 0.376123 -0.901310 -0.214877
vn 0.000000 -0.968676 -0.248328
vn 0.000000 -0.999417 -0.034130
vn 0.000000 -0.993931 0.110009
vn -0.510042 -0.843558 0.168127
vn -0.438544 -0.884687 -0.158137
vn -0.514733 -0.829333 -0.217387
vn -0.622926 -0.782206 0.010845
vn 0.000000 -0.997878 -0.065106
vn 0.000000 -0.969973 0.243211
vn -0.568531 -0.822637 -0.006454
vn -0.641953 -0.761700 -0.087807
vn 0.000000 -0.993014 0.117996
vn -0.669520 -0.737476 0.088728
vn 0.000000 -0.999952 -0.009843
vn -0.670445 -0.741957 -0.001756
vn 0.000000 -0.987114 -0.160017
vn -0.692354 -0.712313 -0.115131
vn -0.689715 -0.709119 0.146437
vn 0.000000 -0.976008 0.217735
vn -0.660553 -0.740623 0.123076
vn 0.000000 -0.989601 0.143838
vn -0.649284 -0.746876 -0.143550
vn 0.000000 -0.992232 -0.124404
vn -0.663536 -0.729449 -0.166205
vn 0.000000 -0.999674 -0.025546
vn -0.567242 -0.804544 0.175917
vn 0.000000 -0.989540 0.144256
vn -0.511180 -0.858209 0.046606
vn -0.568189 -0.815129 -0.112807
vn -0.500830 -0.864771 -0.036597
vn 0.000000 -0.999632 -0.027135
vn -0.501690 -0.837968 -0.214747
vn -0.376123 -0.901310 -0.214877
vn 0.000000 -0.968676 -0.248328
vn 0.000000 0.999417 -0.034130
vn 0.000000 0.993931 0.110009
vn 0.510042 0.843558 0.168127
vn 0.438544 0.884687 -0.158137
vn 0.000000 0.969973 0.243211
vn 0.514733 0.829333 -0.217387
vn 0.622926 0.782206 0.010846
vn 0.000000 0.997878 -0.065106
vn 0.568531 0.822637 -0.006454
vn 0.641953 0.761700 -0.087806
vn 0.000000 0.993014 0.117996
vn 0.669520 0.737476 0.088728
vn 0.000000 0.999952 -0.009842
vn 0.670445 0.741957 -0.001756
vn 0.692354 0.712314 -0.115131
vn 0.000000 0.987114 -0.160017
vn 0.689715 0.709118 0.146437
vn 0.000000 0.976008 0.217735
vn 0.660553 0.740623 0.123076
vn 0.000000 0.989601 0.143838
vn 0.649284 0.746876 -0.143550
vn 0.000000 0.992232 -0.124404
vn 0.663536 0.729449 -0.166205
vn 0.000000 0.999674 -0.025545
vn 0.567241 0.804544 0.175917
vn 0.000000 0.989540 0.144256
vn 0.511180 0.858209 0.046606
vn 0.568189 0.815129 -0.112807
vn 0.500830 0.864771 -0.036597
vn 0.000000 0.999632 -0.027135
vn 0.501690 0.837968 -0.214747
vn 0.376123 0.901310 -0.214876
vn 0.000000 0.968676 -0.248327
vn -0.510042 0.843558 0.168127
vn 0.000000 0.969973 0.243211
vn 0.000000 0.993931 0.110009
vn 0.000000 0.999417 -0.034130
vn -0.438544 0.884687 -0.158137
vn -0.514733 0.829333 -0.217387
vn -0.622926 0.782206 0.010846
vn 0.000000 0.997878 -0.065106
vn -0.568531 0.822637 -0.006453
vn -0.641953 0.761700 -0.087806
vn 0.000000 0.993014 0.117996
vn -0.669520 0.737476 0.088728
vn 0.000000 0.999952 -0.009842
vn -0.670445 0.741957 -0.001756
vn 0.000000 0.987114 -0.160017
vn -0.692354 0.712314 -0.115131
vn -0.689715 0.709119 0.146437
vn 0.000000 0.976008 0.217735
vn -0.660552 0.740623 0.123077
vn 0.000000 0.989601 0.143838
vn -0.649284 0.746876 -0.143550
vn 0.000000 0.992232 -0.124404
vn -0.663536 0.729449 -0.166205
vn 0.000000 0.999674 -0.025545
vn -0.567241 0.804544 0.175917
vn 0.000000 0.989540 0.144256
vn -0.511180 0.858209 0.046606
vn -0.568189 0.815129 -0.112807
vn -0.500830 0.864771 -0.036597
vn 0.000000 0.999632 -0.027135
vn -0.501690 0.837968 -0.214747
vn -0.376123 0.901310 -0.214876
vn 0.000000 0.968676 -0.248327
usemtl material
f 1/0/1 2/0/2 3/0/3
f 1/0/1 3/0/3 4/0/4
f 1/0/1 4/0/4 5/0/5
f 4/0/4 6/0/6 5/0/5
f 4/0/4 7/0/7 6/0/6
f 3/0/3 2/0/2 8/0/8
f 6/0/6 7/0/7 9/0/9
f 9/0/9 7/0/7 10/0/10
f 10/0/10 7/0/7 11/0/11
f 10/0/10 11/0/11 12/0/12
f 12/0/12 11/0/11 13/0/13
f 12/0/12 13/0/13 14/0/14
f 15/0/15 14/0/14 13/0/13
f 15/0/15 13/0/13 16/0/16
f 17/0/17 15/0/15 16/0/16
f 17/0/17 16/0/16 18/0/18
f 19/0/19 17/0/17 18/0/18
f 19/0/19 18/0/18 20/0/20
f 21/0/21 19/0/19 20/0/20
f 21/0/21 20/0/20 22/0/22
f 23/0/23 21/0/21 22/0/22
f 23/0/23 22/0/22 24/0/24
f 25/0/25 23/0/23 24/0/24
f 26/0/26 25/0/25 24/0/24
f 27/0/27 25/0/25 26/0/26
f 28/0/28 27/0/27 26/0/26
f 29/0/29 28/0/28 26/0/26
f 29/0/29 26/0/26 30/0/30
f 29/0/29 30/0/30 31/0/31
f 30/0/30 32/0/32 31/0/31
f 33/0/33 32/0/32 30/0/30
f 34/0/34 35/0/35 36/0/36
f 34/0/34 36/0/36 37/0/37
f 38/0/38 34/0/34 37/0/37
f 34/0/34 38/0/38 39/0/39
f 34/0/34 39/0/39 40/0/40
f 36/0/36 35/0/35 41/0/41
f 40/0/40 39/0/39 42/0/42
f 43/0/43 40/0/40 42/0/42
f 44/0/44 40/0/40 43/0/43
f 44/0/44 43/0/43 45/0/45
f 46/0/46 44/0/44 45/0/45
f 46/0/46 45/0/45 47/0/47
f 48/0/48 46/0/46 47/0/47
f 48/0/48 47/0/47 49/0/49
f 48/0/48 49/0/49 50/0/50
f 48/0/48 50/0/50 51/0/51
f 51/0/51 50/0/50 52/0/52
f 51/0/51 52/0/52 53/0/53
f 53/0/53 52/0/52 54/0/54
f 53/0/53 54/0/54 55/0/55
f 55/0/55 54/0/54 56/0/56
f 55/0/55 56/0/56 57/0/57
f 57/0/57 56/0/56 58/0/58
f 57/0/57 58/0/58 59/0/59
f 59/0/59 58/0/58 60/0/60
f 59/0/59 60/0/60 61/0/61
f 59/0/59 61/0/61 62/0/62
f 59/0/59 62/0/62 63/0/63
f 63/0/63 62/0/62 64/0/64
f 65/0/65 63/0/63 64/0/64
f 66/0/66 63/0/63 65/0/65
f 67/0/67 68/0/68 69/0/69
f 67/0/67 69/0/69 70/0/70
f 71/0/71 69/0/69 68/0/68
f 67/0/67 70/0/70 72/0/72
f 73/0/73 67/0/67 72/0/72
f 73/0/73 74/0/74 67/0/67
f 74/0/74 73/0/73 75/0/75
f 76/0/76 74/0/74 75/0/75
f 77/0/77 74/0/74 76/0/76
f 77/0/77 76/0/76 78/0/78
f 79/0/79 77/0/77 78/0/78
f 79/0/79 78/0/78 80/0/80
f 79/0/79 80/0/80 81/0/81
f 79/0/79 81/0/81 82/0/82
f 82/0/82 81/0/81 83/0/83
f 82/0/82 83/0/83 84/0/84
f 84/0/84 83/0/83 85/0/85
f 84/0/84 85/0/85 86/0/86
f 86/0/86 85/0/85 87/0/87
f 86/0/86 87/0/87 88/0/88
f 88/0/88 87/0/87 89/0/89
f 88/0/88 89/0/89 90/0/90
f 90/0/90 89/0/89 91/0/91
f 90/0/90 91/0/91 92/0/92
f 92/0/92 91/0/91 93/0/93
f 92/0/92 93/0/93 94/0/94
f 92/0/92 94/0/94 95/0/95
f 92/0/92 95/0/95 96/0/96
f 96/0/96 95/0/95 97/0/97
f 98/0/98 96/0/96 97/0/97
f 99/0/99 96/0/96 98/0/98
f 100/0/100 101/0/101 102/0/102
f 100/0/100 102/0/102 103/0/103
f 100/0/100 103/0/103 104/0/104
f 103/0/103 105/0/105 104/0/104
f 106/0/106 105/0/105 103/0/103
f 106/0/106 103/0/103 107/0/107
f 106/0/106 107/0/107 108/0/108
f 108/0/108 107/0/107 109/0/109
f 109/0/109 107/0/107 110/0/110
f 109/0/109 110/0/110 111/0/111
f 111/0/111 110/0/110 112/0/112
f 111/0/111 112/0/112 113/0/113
f 113/0/113 112/0/112 114/0/114
f 113/0/113 114/0/114 115/0/115
f 116/0/116 115/0/115 114/0/114
f 116/0/116 114/0/114 117/0/117
f 118/0/118 116/0/116 117/0/117
f 118/0/118 117/0/117 119/0/119
f 120/0/120 118/0/118 119/0/119
f 120/0/120 119/0/119 121/0/121
f 122/0/122 120/0/120 121/0/121
f 122/0/122 121/0/121 123/0/123
f 124/0/124 122/0/122 123/0/123
f 125/0/125 124/0/124 123/0/123
f 126/0/126 124/0/124 125/0/125
f 127/0/127 126/0/126 125/0/125
f 128/0/128 127/0/127 125/0/125
f 128/0/128 125/0/125 129/0/129
f 128/0/128 129/0/129 130/0/130
f 129/0/129 131/0/131 130/0/130
f 132/0/132 131/0/131 129/0/129
