# 
# Wavefront OBJ file
# Created with Kaydara FBX
# 
mtllib cross_t6_boss_a #220510.mtl

g Cross_T6_BOSS_A
v 0.056986 -0.000000 1.098749
v 0.008791 -0.000000 1.436245
v 0.000000 -0.009420 1.419558
v 0.000000 -0.031187 1.121940
v -0.008791 -0.000000 1.436245
v -0.056986 -0.000000 1.098749
v -0.035661 -0.000000 1.079069
v -0.025705 -0.000000 1.042663
v 0.000000 -0.023462 1.017608
v 0.025705 -0.000000 1.042663
v 0.035661 -0.000000 1.079069
v 0.000000 -0.000000 1.457124
v -0.033931 -0.000000 1.016096
v 0.033931 -0.000000 1.016096
v 0.022666 -0.000000 0.981529
v -0.022666 -0.000000 0.981529
v 0.000000 -0.016451 0.892127
v -0.017860 -0.000000 0.891263
v 0.000000 -0.022651 0.866008
v -0.026536 -0.000000 0.866506
v 0.000000 -0.016451 0.839078
v -0.016142 -0.000000 0.839941
v 0.016142 -0.000000 0.839941
v 0.026536 -0.000000 0.866506
v -0.015873 -0.000000 0.219484
v 0.000000 -0.016451 0.218463
v 0.015873 -0.000000 0.219484
v 0.017860 -0.000000 0.891263
v -0.024943 -0.000000 0.201591
v 0.000000 -0.022363 0.199754
v -0.024492 -0.000000 0.113245
v 0.000000 -0.020419 0.111065
v -0.017112 -0.000000 0.098769
v 0.024492 -0.000000 0.113245
v 0.017112 -0.000000 0.098769
v 0.024943 -0.000000 0.201591
v 0.000000 -0.015093 0.083523
v -0.017650 -0.000000 0.071917
v 0.000000 -0.018695 0.047589
v 0.017650 -0.000000 0.071917
v 0.030485 0.000000 0.057478
v 0.020723 0.000000 0.044891
v 0.045033 0.000000 0.006275
v 0.000000 -0.022216 -0.000000
v 0.029232 0.000000 -0.018400
v -0.045033 0.000000 0.006275
v -0.029232 0.000000 -0.018400
v -0.020723 0.000000 0.044891
v -0.030485 0.000000 0.057478
v 0.017389 0.000000 -0.062748
v 0.000000 0.000000 -0.086661
v -0.017389 0.000000 -0.062748
v 0.000000 0.031187 1.121940
v 0.000000 0.009419 1.419558
v 0.008791 -0.000000 1.436245
v 0.056986 -0.000000 1.098749
v 0.000000 -0.000000 1.457124
v -0.008791 -0.000000 1.436245
v 0.035661 -0.000000 1.079069
v 0.025705 -0.000000 1.042663
v 0.000000 0.023462 1.017608
v -0.025705 -0.000000 1.042663
v -0.035661 -0.000000 1.079069
v -0.056986 -0.000000 1.098749
v -0.033931 -0.000000 1.016096
v -0.022666 -0.000000 0.981529
v 0.033931 -0.000000 1.016096
v 0.000000 0.016451 0.892127
v 0.022666 -0.000000 0.981529
v 0.017860 -0.000000 0.891263
v 0.000000 0.022651 0.866008
v -0.017860 -0.000000 0.891263
v -0.026536 -0.000000 0.866506
v 0.000000 0.016451 0.839078
v -0.016142 -0.000000 0.839941
v 0.016142 -0.000000 0.839941
v 0.026536 -0.000000 0.866506
v -0.015873 -0.000000 0.219484
v 0.000000 0.016451 0.218463
v 0.015873 -0.000000 0.219484
v -0.024943 -0.000000 0.201591
v 0.000000 0.022363 0.199754
v -0.024492 -0.000000 0.113245
v 0.000000 0.020419 0.111065
v -0.017112 -0.000000 0.098769
v 0.024492 -0.000000 0.113245
v 0.017112 -0.000000 0.098769
v 0.024943 -0.000000 0.201591
v 0.000000 0.015093 0.083523
v -0.017650 -0.000000 0.071917
v 0.017650 -0.000000 0.071917
v 0.000000 0.018695 0.047589
v -0.030485 0.000000 0.057478
v -0.020723 0.000000 0.044891
v -0.045033 0.000000 0.006275
v 0.000000 0.022216 0.000000
v -0.029232 0.000000 -0.018400
v 0.045033 0.000000 0.006275
v 0.029232 0.000000 -0.018400
v 0.020723 0.000000 0.044891
v 0.030485 0.000000 0.057478
v 0.017389 0.000000 -0.062748
v 0.000000 0.000000 -0.086661
v -0.017389 0.000000 -0.062748
vt 0.914061 0.763893
vt 0.946313 0.975348
vt 0.952195 0.964893
vt 0.952195 0.778423
vt 0.958078 0.975348
vt 0.990329 0.763893
vt 0.976058 0.751563
vt 0.969396 0.728753
vt 0.952195 0.713055
vt 0.934994 0.728753
vt 0.928332 0.751563
vt 0.952195 0.988430
vt 0.974901 0.712108
vt 0.929489 0.712108
vt 0.937028 0.690450
vt 0.967363 0.690450
vt 0.952195 0.634436
vt 0.964147 0.633895
vt 0.952195 0.618071
vt 0.969952 0.618384
vt 0.952195 0.601199
vt 0.962997 0.601740
vt 0.941393 0.601740
vt 0.934438 0.618384
vt 0.962817 0.212998
vt 0.952195 0.212358
vt 0.941573 0.212998
vt 0.940243 0.633895
vt 0.968886 0.201787
vt 0.952195 0.200636
vt 0.968585 0.146435
vt 0.952195 0.145069
vt 0.963646 0.137365
vt 0.935806 0.146435
vt 0.940744 0.137365
vt 0.935504 0.201787
vt 0.952195 0.127813
vt 0.964006 0.120541
vt 0.952195 0.105299
vt 0.940384 0.120541
vt 0.931795 0.111494
vt 0.938327 0.103608
vt 0.922060 0.079414
vt 0.952195 0.075482
vt 0.932634 0.063954
vt 0.982330 0.079414
vt 0.971756 0.063954
vt 0.966063 0.103608
vt 0.972595 0.111494
vt 0.940559 0.036168
vt 0.952195 0.021186
vt 0.963832 0.036168
vt 0.952195 0.778423
vt 0.952195 0.964893
vt 0.958078 0.975348
vt 0.990329 0.763893
vt 0.952195 0.988430
vt 0.946313 0.975348
vt 0.976058 0.751563
vt 0.969396 0.728753
vt 0.952195 0.713055
vt 0.934994 0.728753
vt 0.928332 0.751563
vt 0.914061 0.763893
vt 0.929489 0.712108
vt 0.937028 0.690450
vt 0.974901 0.712108
vt 0.952195 0.634436
vt 0.967363 0.690450
vt 0.964147 0.633895
vt 0.952195 0.618071
vt 0.940243 0.633895
vt 0.934438 0.618384
vt 0.952195 0.601199
vt 0.941393 0.601740
vt 0.962997 0.601740
vt 0.969952 0.618384
vt 0.941573 0.212998
vt 0.952195 0.212358
vt 0.962817 0.212998
vt 0.935504 0.201787
vt 0.952195 0.200636
vt 0.935806 0.146435
vt 0.952195 0.145069
vt 0.940744 0.137365
vt 0.968585 0.146435
vt 0.963646 0.137365
vt 0.968886 0.201787
vt 0.952195 0.127813
vt 0.940384 0.120541
vt 0.964006 0.120541
vt 0.952195 0.105299
vt 0.931795 0.111494
vt 0.938327 0.103608
vt 0.922060 0.079414
vt 0.952195 0.075482
vt 0.932634 0.063954
vt 0.982330 0.079414
vt 0.971756 0.063954
vt 0.966063 0.103608
vt 0.972595 0.111494
vt 0.963832 0.036168
vt 0.952195 0.021186
vt 0.940559 0.036168
vn 0.438544 -0.884687 -0.158137
vn 0.510042 -0.843558 0.168127
vn 0.000000 -0.993931 0.110009
vn 0.000000 -0.999417 -0.034130
vn -0.510042 -0.843558 0.168127
vn -0.438544 -0.884687 -0.158137
vn -0.514733 -0.829333 -0.217387
vn -0.622926 -0.782206 0.010845
vn 0.000000 -0.997878 -0.065106
vn 0.622926 -0.782206 0.010845
vn 0.514733 -0.829333 -0.217387
vn 0.000000 -0.969973 0.243211
vn -0.568531 -0.822637 -0.006454
vn 0.568531 -0.822637 -0.006454
vn 0.641953 -0.761700 -0.087807
vn -0.641953 -0.761700 -0.087807
vn 0.000000 -0.993014 0.117996
vn -0.669520 -0.737476 0.088728
vn 0.000000 -0.999952 -0.009843
vn -0.670445 -0.741957 -0.001756
vn 0.000000 -0.987114 -0.160017
vn -0.692354 -0.712313 -0.115131
vn 0.692354 -0.712314 -0.115131
vn 0.670445 -0.741957 -0.001756
vn -0.689715 -0.709119 0.146437
vn 0.000000 -0.976008 0.217735
vn 0.689716 -0.709118 0.146436
vn 0.669520 -0.737476 0.088728
vn -0.660553 -0.740623 0.123076
vn 0.000000 -0.989601 0.143838
vn -0.649284 -0.746876 -0.143550
vn 0.000000 -0.992232 -0.124404
vn -0.663536 -0.729449 -0.166205
vn 0.649284 -0.746876 -0.143550
vn 0.663536 -0.729449 -0.166205
vn 0.660553 -0.740623 0.123075
vn 0.000000 -0.999674 -0.025546
vn -0.567242 -0.804544 0.175917
vn 0.000000 -0.989540 0.144256
vn 0.567241 -0.804544 0.175917
vn 0.511180 -0.858209 0.046606
vn 0.568189 -0.815129 -0.112807
vn 0.500830 -0.864771 -0.036597
vn 0.000000 -0.999632 -0.027135
vn 0.501690 -0.837968 -0.214747
vn -0.500830 -0.864771 -0.036597
vn -0.501690 -0.837968 -0.214747
vn -0.568189 -0.815129 -0.112807
vn -0.511180 -0.858209 0.046606
vn 0.376123 -0.901310 -0.214877
vn 0.000000 -0.968676 -0.248328
vn -0.376123 -0.901310 -0.214877
vn 0.000000 0.999417 -0.034130
vn 0.000000 0.993931 0.110009
vn 0.510042 0.843558 0.168127
vn 0.438544 0.884687 -0.158137
vn 0.000000 0.969973 0.243211
vn -0.510042 0.843558 0.168127
vn 0.514733 0.829333 -0.217387
vn 0.622926 0.782206 0.010846
vn 0.000000 0.997878 -0.065106
vn -0.622926 0.782206 0.010846
vn -0.514733 0.829333 -0.217387
vn -0.438544 0.884687 -0.158137
vn -0.568531 0.822637 -0.006453
vn -0.641953 0.761700 -0.087806
vn 0.568531 0.822637 -0.006454
vn 0.000000 0.993014 0.117996
vn 0.641953 0.761700 -0.087806
vn 0.669520 0.737476 0.088728
vn 0.000000 0.999952 -0.009842
vn -0.669520 0.737476 0.088728
vn -0.670445 0.741957 -0.001756
vn 0.000000 0.987114 -0.160017
vn -0.692354 0.712314 -0.115131
vn 0.692354 0.712314 -0.115131
vn 0.670445 0.741957 -0.001756
vn -0.689715 0.709119 0.146437
vn 0.000000 0.976008 0.217735
vn 0.689715 0.709118 0.146437
vn -0.660552 0.740623 0.123077
vn 0.000000 0.989601 0.143838
vn -0.649284 0.746876 -0.143550
vn 0.000000 0.992232 -0.124404
vn -0.663536 0.729449 -0.166205
vn 0.649284 0.746876 -0.143550
vn 0.663536 0.729449 -0.166205
vn 0.660553 0.740623 0.123076
vn 0.000000 0.999674 -0.025545
vn -0.567241 0.804544 0.175917
vn 0.567241 0.804544 0.175917
vn 0.000000 0.989540 0.144256
vn -0.511180 0.858209 0.046606
vn -0.568189 0.815129 -0.112807
vn -0.500830 0.864771 -0.036597
vn 0.000000 0.999632 -0.027135
vn -0.501690 0.837968 -0.214747
vn 0.500830 0.864771 -0.036597
vn 0.501690 0.837968 -0.214747
vn 0.568189 0.815129 -0.112807
vn 0.511180 0.858209 0.046606
vn 0.376123 0.901310 -0.214876
vn 0.000000 0.968676 -0.248327
vn -0.376123 0.901310 -0.214876
usemtl material
f 1/0/1 2/0/2 3/0/3
f 1/0/1 3/0/3 4/0/4
f 4/0/4 3/0/3 5/0/5
f 4/0/4 5/0/5 6/0/6
f 7/0/7 4/0/4 6/0/6
f 4/0/4 7/0/7 8/0/8
f 4/0/4 8/0/8 9/0/9
f 4/0/4 9/0/9 10/0/10
f 4/0/4 10/0/10 11/0/11
f 1/0/1 4/0/4 11/0/11
f 5/0/5 3/0/3 12/0/12
f 3/0/3 2/0/2 12/0/12
f 9/0/9 8/0/8 13/0/13
f 10/0/10 9/0/9 14/0/14
f 14/0/14 9/0/9 15/0/15
f 16/0/16 9/0/9 13/0/13
f 17/0/17 9/0/9 16/0/16
f 15/0/15 9/0/9 17/0/17
f 17/0/17 16/0/16 18/0/18
f 19/0/19 17/0/17 18/0/18
f 19/0/19 18/0/18 20/0/20
f 21/0/21 19/0/19 20/0/20
f 21/0/21 20/0/20 22/0/22
f 23/0/23 19/0/19 21/0/21
f 23/0/23 24/0/24 19/0/19
f 21/0/21 22/0/22 25/0/25
f 21/0/21 25/0/25 26/0/26
f 27/0/27 23/0/23 21/0/21
f 27/0/27 21/0/21 26/0/26
f 28/0/28 17/0/17 19/0/19
f 28/0/28 19/0/19 24/0/24
f 15/0/15 17/0/17 28/0/28
f 26/0/26 25/0/25 29/0/29
f 26/0/26 29/0/29 30/0/30
f 30/0/30 29/0/29 31/0/31
f 30/0/30 31/0/31 32/0/32
f 32/0/32 31/0/31 33/0/33
f 34/0/34 30/0/30 32/0/32
f 35/0/35 34/0/34 32/0/32
f 34/0/34 36/0/36 30/0/30
f 36/0/36 27/0/27 26/0/26
f 36/0/36 26/0/26 30/0/30
f 32/0/32 33/0/33 37/0/37
f 35/0/35 32/0/32 37/0/37
f 37/0/37 33/0/33 38/0/38
f 37/0/37 38/0/38 39/0/39
f 40/0/40 35/0/35 37/0/37
f 39/0/39 40/0/40 37/0/37
f 41/0/41 40/0/40 39/0/39
f 42/0/42 41/0/41 39/0/39
f 43/0/43 42/0/42 39/0/39
f 43/0/43 39/0/39 44/0/44
f 43/0/43 44/0/44 45/0/45
f 39/0/39 46/0/46 44/0/44
f 44/0/44 46/0/46 47/0/47
f 39/0/39 48/0/48 46/0/46
f 39/0/39 49/0/49 48/0/48
f 39/0/39 38/0/38 49/0/49
f 44/0/44 50/0/50 45/0/45
f 51/0/51 50/0/50 44/0/44
f 51/0/51 44/0/44 52/0/52
f 52/0/52 44/0/44 47/0/47
f 53/0/53 54/0/54 55/0/55
f 53/0/53 55/0/55 56/0/56
f 57/0/57 55/0/55 54/0/54
f 58/0/58 57/0/57 54/0/54
f 58/0/58 54/0/54 53/0/53
f 53/0/53 56/0/56 59/0/59
f 60/0/60 53/0/53 59/0/59
f 60/0/60 61/0/61 53/0/53
f 62/0/62 53/0/53 61/0/61
f 62/0/62 63/0/63 53/0/53
f 53/0/53 63/0/63 64/0/64
f 58/0/58 53/0/53 64/0/64
f 62/0/62 61/0/61 65/0/65
f 65/0/65 61/0/61 66/0/66
f 61/0/61 60/0/60 67/0/67
f 66/0/66 61/0/61 68/0/68
f 68/0/68 61/0/61 69/0/69
f 69/0/69 61/0/61 67/0/67
f 68/0/68 69/0/69 70/0/70
f 71/0/71 68/0/68 70/0/70
f 72/0/72 68/0/68 71/0/71
f 66/0/66 68/0/68 72/0/72
f 72/0/72 71/0/71 73/0/73
f 73/0/73 71/0/71 74/0/74
f 73/0/73 74/0/74 75/0/75
f 71/0/71 76/0/76 74/0/74
f 71/0/71 77/0/77 76/0/76
f 71/0/71 70/0/70 77/0/77
f 78/0/78 75/0/75 74/0/74
f 78/0/78 74/0/74 79/0/79
f 74/0/74 76/0/76 80/0/80
f 74/0/74 80/0/80 79/0/79
f 81/0/81 78/0/78 79/0/79
f 81/0/81 79/0/79 82/0/82
f 83/0/83 81/0/81 82/0/82
f 83/0/83 82/0/82 84/0/84
f 85/0/85 83/0/83 84/0/84
f 82/0/82 86/0/86 84/0/84
f 84/0/84 86/0/86 87/0/87
f 82/0/82 88/0/88 86/0/86
f 79/0/79 80/0/80 88/0/88
f 79/0/79 88/0/88 82/0/82
f 85/0/85 84/0/84 89/0/89
f 84/0/84 87/0/87 89/0/89
f 90/0/90 85/0/85 89/0/89
f 89/0/89 87/0/87 91/0/91
f 89/0/89 91/0/91 92/0/92
f 92/0/92 90/0/90 89/0/89
f 93/0/93 90/0/90 92/0/92
f 94/0/94 93/0/93 92/0/92
f 95/0/95 94/0/94 92/0/92
f 95/0/95 92/0/92 96/0/96
f 95/0/95 96/0/96 97/0/97
f 92/0/92 98/0/98 96/0/96
f 96/0/96 98/0/98 99/0/99
f 92/0/92 100/0/100 98/0/98
f 92/0/92 101/0/101 100/0/100
f 92/0/92 91/0/91 101/0/101
f 102/0/102 96/0/96 99/0/99
f 103/0/103 96/0/96 102/0/102
f 103/0/103 104/0/104 96/0/96
f 96/0/96 104/0/104 97/0/97
