# 
# Wavefront OBJ file
# Created with Kaydara FBX
# 
mtllib cylinder.mtl

g Cylinder
v -0.475529 -1.000000 -0.154509
v -0.404509 -1.000000 -0.293893
v -0.293893 -1.000000 -0.404509
v -0.154509 -1.000000 -0.475529
v 0.000000 -1.000000 -0.500000
v 0.154509 -1.000000 -0.475528
v 0.293893 -1.000000 -0.404509
v 0.404509 -1.000000 -0.293893
v 0.475528 -1.000000 -0.154509
v 0.500000 -1.000000 0.000000
v 0.475528 -1.000000 0.154509
v 0.404509 -1.000000 0.293893
v 0.293893 -1.000000 0.404509
v 0.154509 -1.000000 0.475528
v 0.000000 -1.000000 0.500000
v -0.154508 -1.000000 0.475528
v -0.293893 -1.000000 0.404509
v -0.404509 -1.000000 0.293893
v -0.475528 -1.000000 0.154509
v -0.500000 -1.000000 0.000000
v -0.475529 1.000000 -0.154509
v -0.404509 1.000000 -0.293893
v -0.293893 1.000000 -0.404509
v -0.154509 1.000000 -0.475529
v 0.000000 1.000000 -0.500000
v 0.154509 1.000000 -0.475528
v 0.293893 1.000000 -0.404509
v 0.404509 1.000000 -0.293893
v 0.475528 1.000000 -0.154509
v 0.500000 1.000000 0.000000
v 0.475528 1.000000 0.154509
v 0.404509 1.000000 0.293893
v 0.293893 1.000000 0.404509
v 0.154509 1.000000 0.475528
v 0.000000 1.000000 0.500000
v -0.154508 1.000000 0.475528
v -0.293893 1.000000 0.404509
v -0.404509 1.000000 0.293893
v -0.475528 1.000000 0.154509
v -0.500000 1.000000 0.000000
v 0.000000 -1.000000 0.000000
v 0.000000 1.000000 0.000000
v 0.500000 -1.000000 0.000000
v 0.500000 1.000000 0.000000
v -0.500000 -1.000000 0.000000
v -0.500000 1.000000 0.000000
v -0.475529 1.000000 -0.154509
v -0.475529 -1.000000 -0.154509
v -0.404509 -1.000000 -0.293893
v -0.475529 -1.000000 -0.154509
v -0.293893 -1.000000 -0.404509
v -0.154509 -1.000000 -0.475529
v 0.000000 -1.000000 -0.500000
v 0.154509 -1.000000 -0.475528
v 0.293893 -1.000000 -0.404509
v 0.404509 -1.000000 -0.293893
v 0.475528 -1.000000 -0.154509
v 0.500000 -1.000000 0.000000
v 0.475528 -1.000000 0.154509
v 0.404509 -1.000000 0.293893
v 0.293893 -1.000000 0.404509
v 0.154509 -1.000000 0.475528
v 0.000000 -1.000000 0.500000
v -0.154508 -1.000000 0.475528
v -0.293893 -1.000000 0.404509
v -0.404509 -1.000000 0.293893
v -0.475528 -1.000000 0.154509
v -0.500000 -1.000000 0.000000
v -0.475529 1.000000 -0.154509
v -0.404509 1.000000 -0.293893
v -0.293893 1.000000 -0.404509
v -0.154509 1.000000 -0.475529
v 0.000000 1.000000 -0.500000
v 0.154509 1.000000 -0.475528
v 0.293893 1.000000 -0.404509
v 0.404509 1.000000 -0.293893
v 0.475528 1.000000 -0.154509
v 0.500000 1.000000 0.000000
v 0.475528 1.000000 0.154509
v 0.404509 1.000000 0.293893
v 0.293893 1.000000 0.404509
v 0.154509 1.000000 0.475528
v 0.000000 1.000000 0.500000
v -0.154508 1.000000 0.475528
v -0.293893 1.000000 0.404509
v -0.404509 1.000000 0.293893
v -0.475528 1.000000 0.154509
v -0.500000 1.000000 0.000000
vt 0.100600 0.000454
vt 0.200505 0.000454
vt 0.300411 0.000454
vt 0.400317 0.000454
vt 0.500222 0.000454
vt 0.600127 0.000454
vt 0.700033 0.000454
vt 0.799938 0.000454
vt 0.899843 0.000454
vt 0.999749 0.000454
vt 0.100599 0.000454
vt 0.200505 0.000454
vt 0.300411 0.000454
vt 0.400316 0.000454
vt 0.500221 0.000454
vt 0.600127 0.000454
vt 0.700032 0.000454
vt 0.799937 0.000454
vt 0.899843 0.000454
vt 0.999748 0.000454
vt 0.100600 0.999431
vt 0.200505 0.999431
vt 0.300411 0.999431
vt 0.400317 0.999431
vt 0.500222 0.999431
vt 0.600127 0.999431
vt 0.700033 0.999431
vt 0.799938 0.999431
vt 0.899843 0.999431
vt 0.999749 0.999431
vt 0.100600 0.999431
vt 0.200505 0.999431
vt 0.300411 0.999431
vt 0.400316 0.999431
vt 0.500221 0.999431
vt 0.600127 0.999431
vt 0.700032 0.999431
vt 0.799937 0.999431
vt 0.899842 0.999431
vt 0.999748 0.999431
vt 0.500224 0.499944
vt 0.500224 0.499944
vt 0.000694 0.000454
vt 0.000694 0.999431
vt 0.000694 0.000454
vt 0.000694 0.999431
vt 0.100600 0.999431
vt 0.100600 0.000454
vt 0.098857 0.791554
vt 0.028389 0.653252
vt 0.208614 0.901311
vt 0.346915 0.971779
vt 0.500224 0.996061
vt 0.653533 0.971779
vt 0.791834 0.901311
vt 0.901591 0.791554
vt 0.972059 0.653252
vt 0.996340 0.499944
vt 0.972059 0.346635
vt 0.901590 0.208334
vt 0.791834 0.098578
vt 0.653532 0.028109
vt 0.500223 0.003828
vt 0.346915 0.028110
vt 0.208614 0.098578
vt 0.098857 0.208335
vt 0.028389 0.346636
vt 0.004108 0.499944
vt 0.972060 0.653252
vt 0.901591 0.791554
vt 0.791835 0.901311
vt 0.653533 0.971779
vt 0.500224 0.996061
vt 0.346916 0.971779
vt 0.208614 0.901311
vt 0.098858 0.791554
vt 0.028390 0.653252
vt 0.004108 0.499944
vt 0.028390 0.346636
vt 0.098858 0.208334
vt 0.208614 0.098578
vt 0.346916 0.028109
vt 0.500224 0.003828
vt 0.653533 0.028109
vt 0.791834 0.098578
vt 0.901591 0.208334
vt 0.972059 0.346636
vt 0.996341 0.499944
vn -0.951057 0.000000 -0.309016
vn -0.809017 0.000000 -0.587785
vn -0.587785 0.000000 -0.809017
vn -0.309017 0.000000 -0.951057
vn 0.000000 0.000000 -1.000000
vn 0.309017 0.000000 -0.951056
vn 0.587785 0.000000 -0.809017
vn 0.809017 0.000000 -0.587785
vn 0.951057 0.000000 -0.309017
vn 1.000000 0.000000 0.000000
vn 0.951057 0.000000 0.309017
vn 0.809017 0.000000 0.587785
vn 0.587785 0.000000 0.809017
vn 0.309017 0.000000 0.951057
vn 0.000000 0.000000 1.000000
vn -0.309017 0.000000 0.951056
vn -0.587785 0.000000 0.809017
vn -0.809017 0.000000 0.587785
vn -0.951057 0.000000 0.309017
vn -1.000000 0.000000 0.000000
vn -0.951057 0.000000 -0.309016
vn -0.809017 0.000000 -0.587785
vn -0.587785 0.000000 -0.809017
vn -0.309017 0.000000 -0.951057
vn 0.000000 0.000000 -1.000000
vn 0.309017 0.000000 -0.951056
vn 0.587785 0.000000 -0.809017
vn 0.809017 0.000000 -0.587785
vn 0.951057 0.000000 -0.309017
vn 1.000000 0.000000 0.000000
vn 0.951057 0.000000 0.309017
vn 0.809017 0.000000 0.587785
vn 0.587785 0.000000 0.809017
vn 0.309017 0.000000 0.951057
vn 0.000000 0.000000 1.000000
vn -0.309017 0.000000 0.951056
vn -0.587785 0.000000 0.809017
vn -0.809017 0.000000 0.587785
vn -0.951057 0.000000 0.309017
vn -1.000000 0.000000 0.000000
vn 0.000000 -1.000000 0.000000
vn 0.000000 1.000000 0.000000
vn 1.000000 0.000000 0.000000
vn 1.000000 0.000000 0.000000
vn -1.000000 0.000000 0.000000
vn -1.000000 0.000000 0.000000
vn -0.951057 0.000000 -0.309016
vn -0.951057 0.000000 -0.309016
vn 0.000000 -1.000000 0.000000
vn 0.000000 -1.000000 0.000000
vn 0.000000 -1.000000 0.000000
vn 0.000000 -1.000000 0.000000
vn 0.000000 -1.000000 0.000000
vn 0.000000 -1.000000 0.000000
vn 0.000000 -1.000000 0.000000
vn 0.000000 -1.000000 0.000000
vn 0.000000 -1.000000 0.000000
vn 0.000000 -1.000000 0.000000
vn 0.000000 -1.000000 0.000000
vn 0.000000 -1.000000 0.000000
vn 0.000000 -1.000000 0.000000
vn 0.000000 -1.000000 0.000000
vn 0.000000 -1.000000 0.000000
vn 0.000000 -1.000000 0.000000
vn 0.000000 -1.000000 0.000000
vn 0.000000 -1.000000 0.000000
vn 0.000000 -1.000000 0.000000
vn 0.000000 -1.000000 0.000000
vn 0.000000 1.000000 0.000000
vn 0.000000 1.000000 0.000000
vn 0.000000 1.000000 0.000000
vn 0.000000 1.000000 0.000000
vn 0.000000 1.000000 0.000000
vn 0.000000 1.000000 0.000000
vn 0.000000 1.000000 0.000000
vn 0.000000 1.000000 0.000000
vn 0.000000 1.000000 0.000000
vn 0.000000 1.000000 0.000000
vn 0.000000 1.000000 0.000000
vn 0.000000 1.000000 0.000000
vn 0.000000 1.000000 0.000000
vn 0.000000 1.000000 0.000000
vn 0.000000 1.000000 0.000000
vn 0.000000 1.000000 0.000000
vn 0.000000 1.000000 0.000000
vn 0.000000 1.000000 0.000000
vn 0.000000 1.000000 0.000000
vn 0.000000 1.000000 0.000000
usemtl material
f 1/0/1 21/0/21 22/0/22
f 1/0/1 22/0/22 2/0/2
f 2/0/2 22/0/22 23/0/23
f 2/0/2 23/0/23 3/0/3
f 3/0/3 23/0/23 24/0/24
f 3/0/3 24/0/24 4/0/4
f 4/0/4 24/0/24 25/0/25
f 4/0/4 25/0/25 5/0/5
f 5/0/5 25/0/25 26/0/26
f 5/0/5 26/0/26 6/0/6
f 6/0/6 26/0/26 27/0/27
f 6/0/6 27/0/27 7/0/7
f 7/0/7 27/0/27 28/0/28
f 7/0/7 28/0/28 8/0/8
f 8/0/8 28/0/28 29/0/29
f 8/0/8 29/0/29 9/0/9
f 9/0/9 29/0/29 30/0/30
f 9/0/9 30/0/30 10/0/10
f 43/0/43 44/0/44 31/0/31
f 43/0/43 31/0/31 11/0/11
f 11/0/11 31/0/31 32/0/32
f 11/0/11 32/0/32 12/0/12
f 12/0/12 32/0/32 33/0/33
f 12/0/12 33/0/33 13/0/13
f 13/0/13 33/0/33 34/0/34
f 13/0/13 34/0/34 14/0/14
f 14/0/14 34/0/34 35/0/35
f 14/0/14 35/0/35 15/0/15
f 15/0/15 35/0/35 36/0/36
f 15/0/15 36/0/36 16/0/16
f 16/0/16 36/0/36 37/0/37
f 16/0/16 37/0/37 17/0/17
f 17/0/17 37/0/37 38/0/38
f 17/0/17 38/0/38 18/0/18
f 18/0/18 38/0/38 39/0/39
f 18/0/18 39/0/39 19/0/19
f 19/0/19 39/0/39 40/0/40
f 19/0/19 40/0/40 20/0/20
f 45/0/45 46/0/46 47/0/47
f 45/0/45 47/0/47 48/0/48
f 49/0/49 41/0/41 50/0/50
f 51/0/51 41/0/41 49/0/49
f 52/0/52 41/0/41 51/0/51
f 53/0/53 41/0/41 52/0/52
f 54/0/54 41/0/41 53/0/53
f 55/0/55 41/0/41 54/0/54
f 56/0/56 41/0/41 55/0/55
f 57/0/57 41/0/41 56/0/56
f 58/0/58 41/0/41 57/0/57
f 59/0/59 41/0/41 58/0/58
f 60/0/60 41/0/41 59/0/59
f 61/0/61 41/0/41 60/0/60
f 62/0/62 41/0/41 61/0/61
f 63/0/63 41/0/41 62/0/62
f 64/0/64 41/0/41 63/0/63
f 65/0/65 41/0/41 64/0/64
f 66/0/66 41/0/41 65/0/65
f 67/0/67 41/0/41 66/0/66
f 68/0/68 41/0/41 67/0/67
f 50/0/50 41/0/41 68/0/68
f 69/0/69 42/0/42 70/0/70
f 70/0/70 42/0/42 71/0/71
f 71/0/71 42/0/42 72/0/72
f 72/0/72 42/0/42 73/0/73
f 73/0/73 42/0/42 74/0/74
f 74/0/74 42/0/42 75/0/75
f 75/0/75 42/0/42 76/0/76
f 76/0/76 42/0/42 77/0/77
f 77/0/77 42/0/42 78/0/78
f 78/0/78 42/0/42 79/0/79
f 79/0/79 42/0/42 80/0/80
f 80/0/80 42/0/42 81/0/81
f 81/0/81 42/0/42 82/0/82
f 82/0/82 42/0/42 83/0/83
f 83/0/83 42/0/42 84/0/84
f 84/0/84 42/0/42 85/0/85
f 85/0/85 42/0/42 86/0/86
f 86/0/86 42/0/42 87/0/87
f 87/0/87 42/0/42 88/0/88
f 88/0/88 42/0/42 69/0/69
