# 
# Wavefront OBJ file
# Created with Kaydara FBX
# 
mtllib cylinder001 #219590.mtl

g Cylinder001
v -0.190211 0.061803 -0.011944
v -0.200000 0.000000 -0.000810
v -0.190211 0.061803 0.008734
v -0.161803 0.117557 0.015609
v -0.161803 0.117557 -0.017718
v -0.117557 0.161803 0.021070
v -0.117557 0.161803 -0.021257
v -0.061803 0.190211 0.021390
v -0.061803 0.190211 -0.021466
v 0.000000 0.200000 0.017895
v 0.000000 0.200000 -0.018834
v 0.000000 0.200000 -0.018834
v 0.000000 0.200000 0.017895
v 0.061803 0.190211 0.009498
v 0.061803 0.190211 -0.009973
v 0.117557 0.161803 0.000253
v 0.190211 0.061803 -0.006379
v 0.161803 0.117557 0.001849
v 0.190211 0.061803 0.007905
v 0.200000 -0.000000 0.015306
v 0.200000 -0.000000 -0.013910
v 0.190211 -0.061803 0.021385
v 0.190211 -0.061803 -0.020516
v 0.161803 -0.117557 0.024446
v 0.161803 -0.117557 -0.024446
v 0.117557 -0.161803 0.024446
v 0.117557 -0.161803 -0.024446
v 0.061803 -0.190211 0.021257
v 0.061803 -0.190211 -0.021093
v -0.000000 -0.200000 0.015067
v -0.000000 -0.200000 -0.016646
v -0.061804 -0.190211 0.006795
v -0.061804 -0.190211 -0.010781
v -0.117557 -0.161803 -0.002055
vt 0.800000 0.000000
vt 0.750000 1.000000
vt 0.800000 1.000000
vt 0.850000 1.000000
vt 0.850000 0.000000
vt 0.900000 1.000000
vt 0.900000 0.000000
vt 0.950000 1.000000
vt 0.950000 0.000000
vt 1.000000 1.000000
vt 1.000000 0.000000
vt 0.000000 0.000000
vt 0.000000 1.000000
vt 0.050000 1.000000
vt 0.050000 0.000000
vt 0.100000 0.000000
vt 0.200000 0.000000
vt 0.150000 1.000000
vt 0.200000 1.000000
vt 0.250000 1.000000
vt 0.250000 0.000000
vt 0.300000 1.000000
vt 0.300000 0.000000
vt 0.350000 1.000000
vt 0.350000 0.000000
vt 0.400000 1.000000
vt 0.400000 0.000000
vt 0.450000 1.000000
vt 0.450000 0.000000
vt 0.500000 1.000000
vt 0.500000 0.000000
vt 0.550000 1.000000
vt 0.550000 0.000000
vt 0.600000 0.000000
vn -0.946674 0.322194 0.000000
vn -0.987688 0.156434 0.000000
vn -0.946854 0.321662 0.000000
vn -0.803113 0.595827 0.000000
vn -0.804543 0.593895 0.000000
vn -0.583919 0.811812 0.000000
vn -0.585300 0.810817 0.000000
vn -0.311494 0.950248 0.000000
vn -0.310898 0.950443 0.000000
vn -0.009779 0.999952 0.000000
vn -0.009510 0.999955 0.000000
vn -0.009510 0.999955 0.000000
vn -0.009779 0.999952 0.000000
vn 0.295501 0.955342 0.000000
vn 0.294371 0.955691 0.000000
vn 0.453991 0.891007 0.000000
vn 0.954897 0.296939 0.000000
vn 0.891007 0.453990 0.000000
vn 0.954316 0.298798 0.000000
vn 0.999941 -0.010890 0.000000
vn 0.999935 -0.011394 0.000000
vn 0.948724 -0.316104 0.000000
vn 0.948370 -0.317167 0.000000
vn 0.807543 -0.589809 0.000000
vn 0.807116 -0.590393 0.000000
vn 0.589894 -0.807481 0.000000
vn 0.590004 -0.807400 0.000000
vn 0.316287 -0.948664 0.000000
vn 0.315012 -0.949088 0.000000
vn 0.011718 -0.999931 0.000000
vn 0.008347 -0.999965 0.000000
vn -0.295914 -0.955215 0.000000
vn -0.297710 -0.954656 0.000000
vn -0.453991 -0.891006 0.000000
usemtl material
f 1/0/1 2/0/2 3/0/3
f 1/0/1 3/0/3 4/0/4
f 1/0/1 4/0/4 5/0/5
f 5/0/5 4/0/4 6/0/6
f 5/0/5 6/0/6 7/0/7
f 7/0/7 6/0/6 8/0/8
f 7/0/7 8/0/8 9/0/9
f 9/0/9 8/0/8 10/0/10
f 9/0/9 10/0/10 11/0/11
f 12/0/12 13/0/13 14/0/14
f 12/0/12 14/0/14 15/0/15
f 15/0/15 14/0/14 16/0/16
f 17/0/17 18/0/18 19/0/19
f 17/0/17 19/0/19 20/0/20
f 17/0/17 20/0/20 21/0/21
f 21/0/21 20/0/20 22/0/22
f 21/0/21 22/0/22 23/0/23
f 23/0/23 22/0/22 24/0/24
f 23/0/23 24/0/24 25/0/25
f 25/0/25 24/0/24 26/0/26
f 25/0/25 26/0/26 27/0/27
f 27/0/27 26/0/26 28/0/28
f 27/0/27 28/0/28 29/0/29
f 29/0/29 28/0/28 30/0/30
f 29/0/29 30/0/30 31/0/31
f 31/0/31 30/0/30 32/0/32
f 31/0/31 32/0/32 33/0/33
f 33/0/33 32/0/32 34/0/34
