# 
# Wavefront OBJ file
# Created with Kaydara FBX
# 
mtllib cylinder001 #219420.mtl

g Cylinder001
v -0.572479 0.000000 0.000000
v -0.572479 0.000000 0.061252
v -0.537955 0.195799 0.061252
v -0.537955 0.195799 0.000000
v -0.438545 0.367983 0.061252
v -0.438545 0.367983 0.000000
v -0.286240 0.495782 0.061252
v -0.286240 0.495782 0.000000
v -0.099410 0.563782 0.061252
v -0.099410 0.563782 0.000000
v 0.099410 0.563782 0.061252
v 0.099410 0.563782 0.000000
v -0.537954 -0.195800 0.000000
v -0.537954 -0.195800 0.061252
v -0.438544 -0.367983 0.000000
v -0.438544 -0.367983 0.061252
v -0.286239 -0.495782 0.000000
v -0.286239 -0.495782 0.061252
v -0.099410 -0.563782 0.000000
v -0.099410 -0.563782 0.061252
v 0.099410 -0.563782 0.000000
v 0.099410 -0.563782 0.061252
v 0.286240 -0.495782 0.000000
v 0.286240 -0.495782 0.061252
v 0.438545 -0.367982 0.000000
v 0.438545 -0.367982 0.061252
v 0.537955 -0.195799 0.000000
v 0.537955 -0.195799 0.061252
v 0.572479 0.000000 0.000000
v 0.572479 0.000000 0.061252
v 0.537955 0.195799 0.000000
v 0.537955 0.195800 0.061252
v 0.438545 0.367983 0.000000
v 0.438545 0.367983 0.061252
v 0.286240 0.495782 0.000000
v 0.286240 0.495782 0.061252
v 0.099410 0.563782 0.000000
v 0.099410 0.563782 0.061252
v -0.524915 -0.000000 -0.036366
v -0.524915 0.000000 0.019797
v -0.493259 0.179532 0.019797
v -0.493259 0.179532 -0.036366
v -0.402108 0.337409 0.019797
v -0.402108 0.337409 -0.036366
v -0.262458 0.454590 0.019797
v -0.262458 0.454590 -0.036366
v -0.091151 0.516940 0.019797
v -0.091151 0.516940 -0.036366
v 0.091151 0.516940 0.019797
v 0.091151 0.516940 -0.036366
v -0.493259 -0.179532 -0.036366
v -0.493259 -0.179532 0.019797
v -0.402108 -0.337409 -0.036366
v -0.402108 -0.337409 0.019797
v -0.262457 -0.454590 -0.036366
v -0.262457 -0.454590 0.019797
v -0.091150 -0.516940 -0.036366
v -0.091150 -0.516940 0.019797
v 0.091151 -0.516940 -0.036366
v 0.091151 -0.516940 0.019797
v 0.262458 -0.454590 -0.036366
v 0.262458 -0.454590 0.019797
v 0.402108 -0.337409 -0.036366
v 0.402108 -0.337409 0.019797
v 0.493259 -0.179531 -0.036366
v 0.493259 -0.179531 0.019797
v 0.524915 0.000000 -0.036366
v 0.524915 0.000000 0.019797
v 0.493259 0.179532 -0.036366
v 0.493259 0.179532 0.019797
v 0.402108 0.337409 -0.036366
v 0.402108 0.337409 0.019797
v 0.262458 0.454590 -0.036366
v 0.262458 0.454590 0.019797
v 0.091151 0.516940 -0.036366
v 0.091151 0.516940 0.019797
vt 0.750000 0.000000
vt 0.750000 0.200000
vt 0.805556 0.200000
vt 0.805556 0.000000
vt 0.861111 0.200000
vt 0.861111 0.000000
vt 0.916667 0.200000
vt 0.916667 0.000000
vt 0.972222 0.200000
vt 0.972222 0.000000
vt 1.027778 0.200000
vt 1.027778 0.000000
vt 0.694444 0.000000
vt 0.694444 0.200000
vt 0.638889 0.000000
vt 0.638889 0.200000
vt 0.583333 0.000000
vt 0.583333 0.200000
vt 0.527778 0.000000
vt 0.527778 0.200000
vt 0.472222 0.000000
vt 0.472222 0.200000
vt 0.416667 0.000000
vt 0.416667 0.200000
vt 0.361111 0.000000
vt 0.361111 0.200000
vt 0.305556 0.000000
vt 0.305556 0.200000
vt 0.250000 0.000000
vt 0.250000 0.200000
vt 0.194444 0.000000
vt 0.194444 0.200000
vt 0.138889 0.000000
vt 0.138889 0.200000
vt 0.083333 0.000000
vt 0.083333 0.200000
vt 0.027778 0.000000
vt 0.027778 0.200000
vt 0.750000 0.000000
vt 0.750000 0.200000
vt 0.805556 0.200000
vt 0.805556 0.000000
vt 0.861111 0.200000
vt 0.861111 0.000000
vt 0.916667 0.200000
vt 0.916667 0.000000
vt 0.972222 0.200000
vt 0.972222 0.000000
vt 1.027778 0.200000
vt 1.027778 0.000000
vt 0.694444 0.000000
vt 0.694444 0.200000
vt 0.638889 0.000000
vt 0.638889 0.200000
vt 0.583333 0.000000
vt 0.583333 0.200000
vt 0.527778 0.000000
vt 0.527778 0.200000
vt 0.472222 0.000000
vt 0.472222 0.200000
vt 0.416667 0.000000
vt 0.416667 0.200000
vt 0.361111 0.000000
vt 0.361111 0.200000
vt 0.305556 0.000000
vt 0.305556 0.200000
vt 0.250000 0.000000
vt 0.250000 0.200000
vt 0.194444 0.000000
vt 0.194444 0.200000
vt 0.138889 0.000000
vt 0.138889 0.200000
vt 0.083333 0.000000
vt 0.083333 0.200000
vt 0.027778 0.000000
vt 0.027778 0.200000
vn -1.000000 -0.000000 0.000000
vn -1.000000 -0.000000 0.000000
vn -0.939693 0.342020 0.000000
vn -0.939693 0.342020 0.000000
vn -0.766044 0.642788 0.000000
vn -0.766044 0.642788 0.000000
vn -0.500000 0.866025 0.000000
vn -0.500000 0.866025 0.000000
vn -0.173648 0.984808 0.000000
vn -0.173648 0.984808 0.000000
vn 0.173648 0.984808 0.000000
vn 0.173648 0.984808 0.000000
vn -0.939692 -0.342021 0.000000
vn -0.939692 -0.342021 0.000000
vn -0.766044 -0.642788 0.000000
vn -0.766044 -0.642788 0.000000
vn -0.500000 -0.866026 0.000000
vn -0.500000 -0.866026 0.000000
vn -0.173648 -0.984808 0.000000
vn -0.173648 -0.984808 0.000000
vn 0.173649 -0.984808 0.000000
vn 0.173649 -0.984808 0.000000
vn 0.500000 -0.866025 0.000000
vn 0.500000 -0.866025 0.000000
vn 0.766045 -0.642787 0.000000
vn 0.766045 -0.642787 0.000000
vn 0.939693 -0.342020 0.000000
vn 0.939693 -0.342020 0.000000
vn 1.000000 0.000000 0.000000
vn 1.000000 0.000000 0.000000
vn 0.939693 0.342020 0.000000
vn 0.939693 0.342020 0.000000
vn 0.766044 0.642788 0.000000
vn 0.766044 0.642788 0.000000
vn 0.500000 0.866025 0.000000
vn 0.500000 0.866025 0.000000
vn 0.173648 0.984808 0.000000
vn 0.173648 0.984808 0.000000
vn -1.000000 -0.000000 0.000000
vn -1.000000 -0.000000 0.000000
vn -0.939693 0.342020 0.000000
vn -0.939693 0.342020 0.000000
vn -0.766044 0.642788 0.000000
vn -0.766044 0.642788 0.000000
vn -0.500000 0.866025 0.000000
vn -0.500000 0.866025 0.000000
vn -0.173648 0.984808 0.000000
vn -0.173648 0.984808 0.000000
vn 0.173648 0.984808 0.000000
vn 0.173648 0.984808 0.000000
vn -0.939692 -0.342021 0.000000
vn -0.939692 -0.342021 0.000000
vn -0.766044 -0.642788 0.000000
vn -0.766044 -0.642788 0.000000
vn -0.500000 -0.866026 0.000000
vn -0.500000 -0.866026 0.000000
vn -0.173648 -0.984808 0.000000
vn -0.173648 -0.984808 0.000000
vn 0.173649 -0.984808 0.000000
vn 0.173649 -0.984808 0.000000
vn 0.500000 -0.866025 0.000000
vn 0.500000 -0.866025 0.000000
vn 0.766045 -0.642787 0.000000
vn 0.766045 -0.642787 0.000000
vn 0.939693 -0.342020 0.000000
vn 0.939693 -0.342020 0.000000
vn 1.000000 0.000000 0.000000
vn 1.000000 0.000000 0.000000
vn 0.939693 0.342020 0.000000
vn 0.939693 0.342020 0.000000
vn 0.766044 0.642788 0.000000
vn 0.766044 0.642788 0.000000
vn 0.500000 0.866025 0.000000
vn 0.500000 0.866025 0.000000
vn 0.173648 0.984808 0.000000
vn 0.173648 0.984808 0.000000
usemtl material
f 1/0/1 2/0/2 3/0/3
f 1/0/1 3/0/3 4/0/4
f 4/0/4 3/0/3 5/0/5
f 4/0/4 5/0/5 6/0/6
f 6/0/6 5/0/5 7/0/7
f 6/0/6 7/0/7 8/0/8
f 8/0/8 7/0/7 9/0/9
f 8/0/8 9/0/9 10/0/10
f 10/0/10 9/0/9 11/0/11
f 10/0/10 11/0/11 12/0/12
f 13/0/13 2/0/2 1/0/1
f 13/0/13 14/0/14 2/0/2
f 15/0/15 14/0/14 13/0/13
f 15/0/15 16/0/16 14/0/14
f 17/0/17 16/0/16 15/0/15
f 17/0/17 18/0/18 16/0/16
f 19/0/19 18/0/18 17/0/17
f 19/0/19 20/0/20 18/0/18
f 21/0/21 20/0/20 19/0/19
f 21/0/21 22/0/22 20/0/20
f 23/0/23 22/0/22 21/0/21
f 23/0/23 24/0/24 22/0/22
f 25/0/25 24/0/24 23/0/23
f 25/0/25 26/0/26 24/0/24
f 27/0/27 26/0/26 25/0/25
f 27/0/27 28/0/28 26/0/26
f 29/0/29 28/0/28 27/0/27
f 29/0/29 30/0/30 28/0/28
f 31/0/31 30/0/30 29/0/29
f 31/0/31 32/0/32 30/0/30
f 33/0/33 32/0/32 31/0/31
f 33/0/33 34/0/34 32/0/32
f 35/0/35 34/0/34 33/0/33
f 35/0/35 36/0/36 34/0/34
f 37/0/37 36/0/36 35/0/35
f 37/0/37 38/0/38 36/0/36
f 39/0/39 40/0/40 41/0/41
f 39/0/39 41/0/41 42/0/42
f 42/0/42 41/0/41 43/0/43
f 42/0/42 43/0/43 44/0/44
f 44/0/44 43/0/43 45/0/45
f 44/0/44 45/0/45 46/0/46
f 46/0/46 45/0/45 47/0/47
f 46/0/46 47/0/47 48/0/48
f 48/0/48 47/0/47 49/0/49
f 48/0/48 49/0/49 50/0/50
f 51/0/51 40/0/40 39/0/39
f 51/0/51 52/0/52 40/0/40
f 53/0/53 52/0/52 51/0/51
f 53/0/53 54/0/54 52/0/52
f 55/0/55 54/0/54 53/0/53
f 55/0/55 56/0/56 54/0/54
f 57/0/57 56/0/56 55/0/55
f 57/0/57 58/0/58 56/0/56
f 59/0/59 58/0/58 57/0/57
f 59/0/59 60/0/60 58/0/58
f 61/0/61 60/0/60 59/0/59
f 61/0/61 62/0/62 60/0/60
f 63/0/63 62/0/62 61/0/61
f 63/0/63 64/0/64 62/0/62
f 65/0/65 64/0/64 63/0/63
f 65/0/65 66/0/66 64/0/64
f 67/0/67 66/0/66 65/0/65
f 67/0/67 68/0/68 66/0/66
f 69/0/69 68/0/68 67/0/67
f 69/0/69 70/0/70 68/0/68
f 71/0/71 70/0/70 69/0/69
f 71/0/71 72/0/72 70/0/70
f 73/0/73 72/0/72 71/0/71
f 73/0/73 74/0/74 72/0/72
f 75/0/75 74/0/74 73/0/73
f 75/0/75 76/0/76 74/0/74
