# 
# Wavefront OBJ file
# Created with Kaydara FBX
# 
mtllib door_02.mtl

g door_02
v -387.722870 4.952900 -12.057200
v -387.722870 4.952900 -25.227898
v -387.722870 10.666700 -25.227898
v -387.722870 10.666700 -12.057200
v -387.722870 4.952900 1.113500
v -387.722870 10.666700 1.113500
v -387.722870 -6.466200 -12.057200
v -387.722870 -6.466200 1.113500
v -387.722870 -6.466200 -25.227898
v -259.076996 -1.415900 -130.821198
v -245.906281 -1.415900 -130.821198
v -245.906281 9.994500 -130.821198
v -259.076996 9.994500 -130.821198
v -272.247711 9.994500 -130.821198
v -272.247711 -1.415900 -130.821198
v -171.054306 -1.415900 -143.072998
v -157.883606 -1.415900 -143.072998
v -157.883606 9.994500 -143.072998
v -171.054306 9.994500 -143.072998
v -184.224991 9.994500 -143.072998
v -184.224991 -1.415900 -143.072998
v -111.007195 4.952900 -12.057200
v -111.007195 10.666700 -12.057200
v -111.007195 10.666700 -25.227898
v -111.007195 4.952900 -25.227898
v -111.007195 4.952900 1.113500
v -111.007195 10.666700 1.113500
v -111.007195 -6.466200 -12.057200
v -111.007195 -6.466200 1.113500
v -111.007195 -6.466200 -25.227898
vt 0.410100 0.343600
vt 0.802600 0.343600
vt 0.802600 0.173600
vt 0.410100 0.173600
vt 0.802600 0.343600
vt 0.802600 0.173600
vt 0.410100 0.003600
vt 0.802600 0.003600
vt 0.802600 0.003600
vt 0.410100 0.003600
vt 0.802600 0.003600
vt 0.802600 0.343600
vt 0.410100 0.343600
vt 0.802600 0.343600
vt 0.802600 0.003600
vt 0.410100 0.003600
vt 0.802600 0.003600
vt 0.802600 0.343600
vt 0.410100 0.343600
vt 0.802600 0.343600
vt 0.802600 0.003600
vt 0.410100 0.343600
vt 0.410100 0.173600
vt 0.802600 0.173600
vt 0.802600 0.343600
vt 0.802600 0.343600
vt 0.802600 0.173600
vt 0.410100 0.003600
vt 0.802600 0.003600
vt 0.802600 0.003600
vn 1.000000 0.000000 0.000000
vn 1.000000 0.000000 0.000000
vn 1.000000 0.000000 0.000000
vn 1.000000 0.000000 0.000000
vn 1.000000 0.000000 0.000000
vn 1.000000 0.000000 0.000000
vn 1.000000 0.000000 0.000000
vn 1.000000 0.000000 0.000000
vn 1.000000 0.000000 0.000000
vn 0.000000 0.000000 1.000000
vn 0.000000 0.000000 1.000000
vn 0.000000 0.000000 1.000000
vn 0.000000 0.000000 1.000000
vn 0.000000 0.000000 1.000000
vn 0.000000 0.000000 1.000000
vn 0.000000 0.000000 1.000000
vn 0.000000 0.000000 1.000000
vn 0.000000 0.000000 1.000000
vn 0.000000 0.000000 1.000000
vn 0.000000 0.000000 1.000000
vn 0.000000 0.000000 1.000000
vn -1.000000 0.000000 0.000000
vn -1.000000 0.000000 0.000000
vn -1.000000 0.000000 0.000000
vn -1.000000 0.000000 0.000000
vn -1.000000 0.000000 0.000000
vn -1.000000 0.000000 0.000000
vn -1.000000 0.000000 0.000000
vn -1.000000 0.000000 0.000000
vn -1.000000 0.000000 0.000000
usemtl material
f 1/0/1 2/0/2 3/0/3
f 1/0/1 3/0/3 4/0/4
f 5/0/5 1/0/1 4/0/4
f 5/0/5 4/0/4 6/0/6
f 7/0/7 1/0/1 5/0/5
f 7/0/7 2/0/2 1/0/1
f 7/0/7 5/0/5 8/0/8
f 7/0/7 9/0/9 2/0/2
f 10/0/10 11/0/11 12/0/12
f 10/0/10 12/0/12 13/0/13
f 10/0/10 13/0/13 14/0/14
f 10/0/10 14/0/14 15/0/15
f 16/0/16 17/0/17 18/0/18
f 16/0/16 18/0/18 19/0/19
f 16/0/16 19/0/19 20/0/20
f 16/0/16 20/0/20 21/0/21
f 22/0/22 23/0/23 24/0/24
f 22/0/22 24/0/24 25/0/25
f 26/0/26 23/0/23 22/0/22
f 26/0/26 27/0/27 23/0/23
f 28/0/28 26/0/26 22/0/22
f 28/0/28 22/0/22 25/0/25
f 28/0/28 29/0/29 26/0/26
f 28/0/28 25/0/25 30/0/30
