# 
# Wavefront OBJ file
# Created with Kaydara FBX
# 
mtllib ex01_02_fall01.mtl

g Ex01_02_Fall01
v -71.931953 26.637342 -131.829544
v -90.472389 26.637342 -122.414101
v -90.144043 -2.026123 -121.767548
v -71.603615 -2.026123 -131.182999
v -72.201042 50.128010 -132.359421
v -90.741470 50.128010 -122.943970
v -72.460381 51.583538 -132.870102
v -91.000809 51.583538 -123.454643
v -73.063515 52.478832 -134.057755
v -91.603943 52.478832 -124.642311
v -93.866455 51.529488 -175.021866
v -112.406883 51.529488 -165.606415
v -52.328762 10.417830 -100.575294
v -62.137039 10.417830 -90.704704
v -62.244751 -2.018228 -90.811684
v -52.436474 -2.018228 -100.682274
v -52.231117 21.691723 -100.478302
v -62.039394 21.691723 -90.607712
v -52.466259 22.865112 -100.764862
v -62.242012 22.865112 -90.861977
v -53.009590 23.571224 -101.439400
v -62.796532 23.571224 -91.547638
v -80.427330 22.542027 -135.685684
v -90.119102 22.542027 -125.699394
v -49.884766 21.691723 -103.412140
v -51.447201 21.691723 -101.843163
v -51.547390 10.116151 -101.943810
v -49.984959 10.116151 -103.512772
v -50.163559 22.865112 -103.687263
v -51.693470 22.865112 -102.085991
v -50.681355 23.571224 -104.376328
v -52.222458 23.571224 -102.786171
v -77.486137 22.542027 -138.836166
v -78.995285 22.542027 -137.214279
v -51.652420 -2.018228 -102.049286
v -50.089989 -2.018228 -103.618256
v -105.630318 21.691723 -86.483688
v -113.920143 21.691723 -87.594666
v -113.911362 9.810143 -87.660347
v -105.621544 9.810143 -86.549370
v -105.605347 22.842924 -86.670486
v -113.901245 22.842924 -87.736031
v -105.503006 23.571224 -87.436188
v -113.796814 23.571224 -88.517365
v -99.713379 22.542027 -130.748917
v -108.024956 22.542027 -131.697144
v -113.902626 -2.018228 -87.725739
v -105.612801 -2.018228 -86.614761
v 139.836273 31.842953 -41.952187
v 139.836273 31.842953 -49.680389
v 138.916489 -1.890151 -49.680389
v 138.916489 -1.890151 -41.952187
v 140.583557 59.250389 -41.952187
v 140.583557 59.250393 -49.680389
v 141.452728 60.818012 -41.952187
v 141.452728 60.818012 -49.680389
v 143.096176 61.557415 -41.952187
v 143.096176 61.557415 -49.680389
v 189.039841 60.762524 -41.952187
v 189.039841 60.762524 -49.680389
v 189.039841 60.762524 -34.218216
v 143.096176 61.557415 -34.218216
v 141.452728 60.818012 -34.218216
v 140.583557 59.250393 -34.218216
v 139.836273 31.842953 -34.218216
v 138.916489 -1.890151 -34.218216
v 143.096176 61.557415 -56.721928
v 189.039841 60.762524 -56.721928
v 143.096176 61.557415 -62.965149
v 141.452728 60.818012 -62.965149
v 141.452728 60.818016 -56.721931
v 140.583557 59.250393 -62.965149
v 140.583557 59.250401 -56.721931
v 189.039841 60.762524 -62.965149
v 139.836273 31.842953 -62.965149
v 139.836273 31.842953 -56.721931
v 138.916489 -1.890151 -62.965149
v 138.916489 -1.890151 -56.721928
v -121.206490 2.956289 -4.433204
v -121.331337 2.956289 -6.899498
v -121.296440 7.802729 -6.078014
v -121.199615 7.802729 -4.307513
v -121.213364 -1.890151 -4.558895
v -121.366219 -1.890151 -7.353385
v -121.296440 7.802729 -6.078014
v -121.455292 8.082407 -4.936325
v -121.358452 8.082407 -3.165826
v -121.199615 7.802729 -4.307513
v -121.455292 8.082407 -4.936325
v -121.427742 11.484389 -4.432645
v -121.330894 11.484389 -2.662146
v -121.358452 8.082407 -3.165826
v -121.407852 3.352095 -8.114251
v -121.509399 3.352095 -10.247382
v -121.438477 8.594345 -8.674514
v -121.389633 8.594345 -7.781253
v -121.426064 -1.890151 -8.447249
v -121.580322 -1.890151 -11.267566
v -122.030067 -1.890151 -19.489532
v -122.182915 -1.890151 -22.284021
v -122.182915 12.253872 -22.284021
v -122.030067 12.253872 -19.489532
v -47.637108 8.557031 150.442673
v -52.960350 8.557031 150.422806
v -51.188065 19.004213 150.443817
v -47.365746 19.004213 150.442581
v -47.908470 -1.890151 150.442764
v -53.941395 -1.890151 150.444763
v -51.188065 19.004213 150.443817
v -48.749180 19.607103 150.919327
v -44.926929 19.607103 150.918076
v -47.365746 19.004213 150.442581
v -48.749180 19.607103 150.919327
v -47.661816 26.940552 150.918976
v -43.839527 26.940552 150.917679
v -44.926929 19.607103 150.918076
v -56.005390 9.410249 150.498337
v -60.608749 9.410249 150.467316
v -57.214901 20.710649 150.498703
v -55.286465 20.710649 150.498108
v -56.724262 -1.890151 150.498581
v -62.812935 -1.890151 150.500580
v -82.378883 -1.890151 150.891327
v -87.976051 -1.890151 150.740128
v -87.976051 28.320610 150.740128
v -82.378883 28.320610 150.891327
v -171.087021 -1.042041 95.798584
v -170.934158 45.949085 95.764725
v -170.099319 45.300106 97.694237
v -170.252182 -1.042041 97.728096
v -166.739624 -1.042043 104.274948
v -166.586761 46.266499 104.241089
v -165.065216 48.769791 106.381660
v -165.218079 -1.042043 106.415512
v -160.249283 -1.042041 112.203270
v -160.096420 59.722176 112.169411
v -159.342575 60.109123 113.552155
v -159.495438 -1.042041 113.586014
v -178.381287 -1.042041 81.555450
v -178.228104 45.300106 81.521431
v -176.396500 46.587723 84.772499
v -176.550217 -1.042041 84.806816
v -183.773880 -1.042041 68.944420
v -183.621017 51.461464 68.910568
v -182.415070 48.313557 72.459091
v -182.567947 -1.042041 72.492943
vt 0.143989 -0.538703
vt 0.975772 -0.414670
vt 0.975772 -1.093207
vt 0.143989 -1.093207
vt 0.143989 0.062558
vt 0.975772 0.062558
vt 0.143989 0.121771
vt 0.975772 0.121771
vt 0.143989 0.178655
vt 0.975772 0.178655
vt 0.143989 2.045098
vt 0.975772 2.045098
vt 0.147783 -0.778310
vt 0.859768 -0.860998
vt 0.859768 -1.316225
vt 0.147783 -1.316225
vt 0.147783 -0.285897
vt 0.859768 -0.285897
vt 0.147783 -0.225835
vt 0.859768 -0.225835
vt 0.147783 -0.174069
vt 0.859768 -0.174069
vt 0.147783 2.045098
vt 0.859769 2.045098
vt 0.456780 -0.281132
vt 0.569186 -0.281132
vt 0.569186 -0.789084
vt 0.456780 -0.871773
vt 0.456780 -0.222176
vt 0.569186 -0.222176
vt 0.456780 -0.178429
vt 0.569186 -0.178429
vt 0.456780 2.043293
vt 0.569186 2.043293
vt 0.569186 -1.311768
vt 0.456780 -1.311768
vt 0.302194 -0.281132
vt 0.723127 -0.281132
vt 0.723127 -0.495969
vt 0.302194 -0.633783
vt 0.302194 -0.222176
vt 0.723127 -0.222176
vt 0.302194 -0.178429
vt 0.723127 -0.178429
vt 0.302194 2.045098
vt 0.723127 2.045098
vt 0.723127 -0.530687
vt 0.302194 -0.530687
vt 0.201494 -0.341690
vt 0.622105 -0.632093
vt 0.540692 -1.093207
vt 0.253302 -1.093207
vt 0.253302 0.216535
vt 0.540692 0.216535
vt 0.253302 0.274850
vt 0.540692 0.274850
vt 0.253302 0.335985
vt 0.540692 0.335985
vt 0.253302 2.045098
vt 0.540692 2.045098
vt -0.034301 2.045098
vt -0.034301 0.335985
vt -0.034301 0.274850
vt -0.034301 0.216535
vt -0.034301 -0.450894
vt -0.034301 -1.093207
vt 0.802546 0.335985
vt 0.802546 2.045098
vt 1.034713 0.335985
vt 1.034713 0.274850
vt 0.802546 0.274850
vt 1.034713 0.216535
vt 0.802546 0.216535
vt 1.034713 2.045098
vt 1.034713 -0.326861
vt 0.758139 -0.397184
vt 1.034713 -1.093207
vt 0.802546 -1.093207
vt -0.285078 -0.032424
vt -0.613589 -0.032424
vt -0.613589 0.774703
vt -0.285078 0.774703
vt -0.285078 -0.839553
vt -0.613589 -0.839553
vt -0.613589 0.774703
vt -0.613589 0.821281
vt -0.285078 0.821281
vt -0.285078 0.774703
vt -0.613589 0.821281
vt -0.613589 1.387848
vt -0.285078 1.387848
vt -0.285078 0.821281
vt -0.263335 0.275281
vt -0.716104 0.275281
vt -0.382253 1.386472
vt -0.192653 1.386472
vt -0.334017 -0.834643
vt -0.932644 -0.834643
vt -0.229645 -0.842197
vt -0.670036 -0.842197
vt -0.670036 1.386796
vt -0.229645 1.386796
vt -0.285396 -0.030820
vt -0.613109 -0.030821
vt -0.613109 0.775084
vt -0.285396 0.775084
vt -0.285396 -0.836726
vt -0.613109 -0.836727
vt -0.613109 0.775084
vt -0.613109 0.821590
vt -0.285396 0.821590
vt -0.285396 0.775084
vt -0.613109 0.821590
vt -0.613109 1.387298
vt -0.285396 1.387298
vt -0.285396 0.821590
vt -0.261474 0.275281
vt -0.713616 0.275281
vt -0.380272 1.386473
vt -0.190862 1.386472
vt -0.332082 -0.834643
vt -0.930111 -0.834643
vt -0.255070 -0.837799
vt -0.668628 -0.837799
vt -0.668628 1.394382
vt -0.255070 1.394382
vt -0.253532 -1.000762
vt -0.253532 2.045098
vt -0.034301 2.045098
vt -0.034301 -1.000762
vt -0.253532 -1.000762
vt -0.253532 2.045098
vt -0.034301 2.045098
vt -0.034301 -1.000762
vt -0.253532 -1.000762
vt -0.253532 2.045098
vt -0.034301 2.045098
vt -0.034301 -1.000762
vt -0.253532 -1.000762
vt -0.253532 2.045098
vt -0.034301 2.045098
vt -0.034301 -1.000762
vt -0.253532 -1.000762
vt -0.253532 2.045098
vt -0.034301 2.045098
vt -0.034301 -1.000762
vn 0.452648 0.025291 0.891331
vn 0.452648 0.025291 0.891331
vn 0.452648 0.025291 0.891331
vn 0.452648 0.025291 0.891331
vn 0.452298 0.046731 0.890642
vn 0.452298 0.046731 0.890642
vn 0.351803 0.629547 0.692752
vn 0.351803 0.629546 0.692753
vn -0.000518 0.999999 -0.001020
vn -0.000518 0.999999 -0.001019
vn -0.009354 0.999787 -0.018420
vn -0.009354 0.999787 -0.018420
vn 0.709289 -0.012207 0.704812
vn 0.709289 -0.012207 0.704812
vn 0.709289 -0.012207 0.704812
vn 0.709289 -0.012207 0.704812
vn 0.709348 0.017230 0.704647
vn 0.709357 0.016207 0.704663
vn 0.592523 0.552371 0.586347
vn 0.601562 0.532631 0.595338
vn -0.006628 0.999957 -0.006411
vn -0.003666 0.999987 -0.003485
vn -0.016900 0.999720 -0.016561
vn -0.016900 0.999720 -0.016561
vn 0.709142 0.017759 0.704842
vn 0.709142 0.017810 0.704840
vn 0.708529 -0.012267 0.705575
vn 0.708529 -0.012267 0.705575
vn 0.596152 0.556832 0.578396
vn 0.605684 0.536149 0.587955
vn -0.007183 0.999952 -0.006697
vn -0.003287 0.999990 -0.002949
vn -0.017293 0.999716 -0.016422
vn -0.017293 0.999716 -0.016422
vn 0.708529 -0.012266 0.705575
vn 0.708529 -0.012266 0.705575
vn -0.132585 0.007617 0.991142
vn -0.132585 0.007617 0.991142
vn -0.132827 -0.005577 0.991124
vn -0.132827 -0.005577 0.991124
vn -0.115576 0.450017 0.885509
vn -0.115636 0.449122 0.885956
vn 0.000714 0.999977 -0.006799
vn 0.000699 0.999977 -0.006682
vn 0.002861 0.999722 -0.023410
vn 0.002861 0.999722 -0.023410
vn -0.132827 -0.005577 0.991124
vn -0.132827 -0.005577 0.991124
vn -0.999628 0.027256 0.000000
vn -0.999628 0.027256 0.000000
vn -0.999628 0.027256 0.000000
vn -0.999628 0.027256 0.000000
vn -0.998447 0.055702 0.000000
vn -0.998447 0.055702 0.000000
vn -0.676329 0.736600 0.000000
vn -0.676328 0.736600 0.000000
vn 0.001166 0.999999 0.000000
vn 0.001166 0.999999 0.000000
vn 0.017299 0.999850 0.000000
vn 0.017299 0.999850 0.000000
vn 0.017299 0.999850 0.000000
vn 0.001166 0.999999 0.000000
vn -0.676328 0.736600 -0.000000
vn -0.998447 0.055702 0.000000
vn -0.999628 0.027256 0.000000
vn -0.999628 0.027256 0.000000
vn 0.001166 0.999999 0.000000
vn 0.017299 0.999850 0.000000
vn 0.001166 0.999999 0.000000
vn -0.676326 0.736603 -0.000000
vn -0.676327 0.736602 0.000000
vn -0.998447 0.055701 0.000000
vn -0.998447 0.055701 0.000000
vn 0.017299 0.999850 0.000000
vn -0.999628 0.027256 0.000000
vn -0.999628 0.027256 0.000000
vn -0.999628 0.027256 0.000000
vn -0.999628 0.027256 0.000000
vn 0.998621 -0.000263 -0.052502
vn 0.998620 -0.000360 -0.052525
vn 0.998634 0.000800 -0.052249
vn 0.998634 0.000800 -0.052249
vn 0.998609 -0.001148 -0.052712
vn 0.998609 -0.001148 -0.052712
vn 0.783496 0.619917 -0.042850
vn 0.783496 0.619917 -0.042850
vn 0.783496 0.619917 -0.042850
vn 0.783496 0.619917 -0.042850
vn 0.998507 -0.000005 -0.054615
vn 0.998507 -0.000005 -0.054615
vn 0.998507 -0.000005 -0.054615
vn 0.998507 -0.000005 -0.054615
vn 0.998708 -0.000890 -0.050800
vn 0.998699 -0.001107 -0.050978
vn 0.998767 0.000532 -0.049632
vn 0.998767 0.000532 -0.049632
vn 0.998667 -0.001833 -0.051574
vn 0.998667 -0.001833 -0.051574
vn 0.998507 0.000000 -0.054616
vn 0.998507 0.000000 -0.054616
vn 0.998507 0.000000 -0.054616
vn 0.998507 0.000000 -0.054616
vn 0.001784 -0.000263 -0.999998
vn 0.001760 -0.000361 -0.999998
vn 0.002037 0.000803 -0.999998
vn 0.002037 0.000803 -0.999998
vn 0.001573 -0.001150 -0.999998
vn 0.001573 -0.001150 -0.999998
vn -0.000255 0.619911 -0.784672
vn -0.000255 0.619911 -0.784672
vn -0.000255 0.619911 -0.784672
vn -0.000255 0.619911 -0.784672
vn -0.000332 -0.000003 -1.000000
vn -0.000332 -0.000003 -1.000000
vn -0.000332 -0.000003 -1.000000
vn -0.000332 -0.000003 -1.000000
vn 0.003488 -0.000892 -0.999994
vn 0.003310 -0.001108 -0.999994
vn 0.004660 0.000530 -0.999989
vn 0.004660 0.000530 -0.999989
vn 0.002711 -0.001833 -0.999995
vn 0.002711 -0.001833 -0.999995
vn 0.027005 0.000000 -0.999635
vn 0.027005 0.000000 -0.999635
vn 0.027005 0.000000 -0.999635
vn 0.027005 0.000000 -0.999635
vn 0.917570 -0.003294 -0.397560
vn 0.917570 -0.003294 -0.397560
vn 0.917570 -0.003294 -0.397560
vn 0.917570 -0.003294 -0.397560
vn 0.815885 -0.002972 -0.578206
vn 0.815885 -0.002972 -0.578206
vn 0.815885 -0.002972 -0.578206
vn 0.815885 -0.002972 -0.578206
vn 0.878136 -0.002468 -0.478405
vn 0.878136 -0.002468 -0.478405
vn 0.878136 -0.002468 -0.478405
vn 0.878136 -0.002468 -0.478405
vn 0.871553 -0.003203 -0.490292
vn 0.871553 -0.003203 -0.490292
vn 0.871553 -0.003203 -0.490292
vn 0.871553 -0.003203 -0.490292
vn 0.946400 -0.003055 -0.322982
vn 0.946400 -0.003055 -0.322982
vn 0.946400 -0.003055 -0.322982
vn 0.946400 -0.003055 -0.322982
usemtl material
f 1/0/1 2/0/2 3/0/3
f 1/0/1 3/0/3 4/0/4
f 5/0/5 2/0/2 1/0/1
f 5/0/5 6/0/6 2/0/2
f 7/0/7 6/0/6 5/0/5
f 7/0/7 8/0/8 6/0/6
f 9/0/9 8/0/8 7/0/7
f 9/0/9 10/0/10 8/0/8
f 11/0/11 10/0/10 9/0/9
f 11/0/11 12/0/12 10/0/10
f 13/0/13 14/0/14 15/0/15
f 13/0/13 15/0/15 16/0/16
f 17/0/17 14/0/14 13/0/13
f 17/0/17 18/0/18 14/0/14
f 19/0/19 18/0/18 17/0/17
f 19/0/19 20/0/20 18/0/18
f 21/0/21 20/0/20 19/0/19
f 21/0/21 22/0/22 20/0/20
f 23/0/23 22/0/22 21/0/21
f 23/0/23 24/0/24 22/0/22
f 25/0/25 26/0/26 27/0/27
f 25/0/25 27/0/27 28/0/28
f 29/0/29 26/0/26 25/0/25
f 29/0/29 30/0/30 26/0/26
f 31/0/31 30/0/30 29/0/29
f 31/0/31 32/0/32 30/0/30
f 33/0/33 32/0/32 31/0/31
f 33/0/33 34/0/34 32/0/32
f 28/0/28 27/0/27 35/0/35
f 28/0/28 35/0/35 36/0/36
f 37/0/37 38/0/38 39/0/39
f 37/0/37 39/0/39 40/0/40
f 41/0/41 38/0/38 37/0/37
f 41/0/41 42/0/42 38/0/38
f 43/0/43 42/0/42 41/0/41
f 43/0/43 44/0/44 42/0/42
f 45/0/45 44/0/44 43/0/43
f 45/0/45 46/0/46 44/0/44
f 40/0/40 39/0/39 47/0/47
f 40/0/40 47/0/47 48/0/48
f 49/0/49 50/0/50 51/0/51
f 49/0/49 51/0/51 52/0/52
f 53/0/53 50/0/50 49/0/49
f 53/0/53 54/0/54 50/0/50
f 55/0/55 54/0/54 53/0/53
f 55/0/55 56/0/56 54/0/54
f 57/0/57 56/0/56 55/0/55
f 57/0/57 58/0/58 56/0/56
f 59/0/59 58/0/58 57/0/57
f 59/0/59 60/0/60 58/0/58
f 61/0/61 59/0/59 57/0/57
f 61/0/61 57/0/57 62/0/62
f 62/0/62 57/0/57 55/0/55
f 62/0/62 55/0/55 63/0/63
f 63/0/63 55/0/55 53/0/53
f 63/0/63 53/0/53 64/0/64
f 64/0/64 53/0/53 49/0/49
f 64/0/64 49/0/49 65/0/65
f 65/0/65 49/0/49 52/0/52
f 65/0/65 52/0/52 66/0/66
f 60/0/60 67/0/67 58/0/58
f 60/0/60 68/0/68 67/0/67
f 68/0/68 69/0/69 67/0/67
f 67/0/67 69/0/69 70/0/70
f 67/0/67 70/0/70 71/0/71
f 58/0/58 67/0/67 71/0/71
f 71/0/71 70/0/70 72/0/72
f 71/0/71 72/0/72 73/0/73
f 68/0/68 74/0/74 69/0/69
f 73/0/73 72/0/72 75/0/75
f 73/0/73 75/0/75 76/0/76
f 76/0/76 75/0/75 77/0/77
f 76/0/76 77/0/77 78/0/78
f 56/0/56 71/0/71 73/0/73
f 58/0/58 71/0/71 56/0/56
f 56/0/56 73/0/73 54/0/54
f 54/0/54 73/0/73 76/0/76
f 54/0/54 76/0/76 50/0/50
f 50/0/50 76/0/76 78/0/78
f 50/0/50 78/0/78 51/0/51
f 79/0/79 80/0/80 81/0/81
f 79/0/79 81/0/81 82/0/82
f 83/0/83 80/0/80 79/0/79
f 83/0/83 84/0/84 80/0/80
f 85/0/85 86/0/86 87/0/87
f 85/0/85 87/0/87 88/0/88
f 89/0/89 90/0/90 91/0/91
f 89/0/89 91/0/91 92/0/92
f 93/0/93 94/0/94 95/0/95
f 93/0/93 95/0/95 96/0/96
f 97/0/97 94/0/94 93/0/93
f 97/0/97 98/0/98 94/0/94
f 99/0/99 100/0/100 101/0/101
f 99/0/99 101/0/101 102/0/102
f 103/0/103 104/0/104 105/0/105
f 103/0/103 105/0/105 106/0/106
f 107/0/107 104/0/104 103/0/103
f 107/0/107 108/0/108 104/0/104
f 109/0/109 110/0/110 111/0/111
f 109/0/109 111/0/111 112/0/112
f 113/0/113 114/0/114 115/0/115
f 113/0/113 115/0/115 116/0/116
f 117/0/117 118/0/118 119/0/119
f 117/0/117 119/0/119 120/0/120
f 121/0/121 118/0/118 117/0/117
f 121/0/121 122/0/122 118/0/118
f 123/0/123 124/0/124 125/0/125
f 123/0/123 125/0/125 126/0/126
f 127/0/127 128/0/128 129/0/129
f 127/0/127 129/0/129 130/0/130
f 131/0/131 132/0/132 133/0/133
f 131/0/131 133/0/133 134/0/134
f 135/0/135 136/0/136 137/0/137
f 135/0/135 137/0/137 138/0/138
f 139/0/139 140/0/140 141/0/141
f 139/0/139 141/0/141 142/0/142
f 143/0/143 144/0/144 145/0/145
f 143/0/143 145/0/145 146/0/146
