# 
# Wavefront OBJ file
# Created with Kaydara FBX
# 
mtllib ex02_c04 #2253903.mtl

g Ex02_C04
v -21.487064 0.593735 34.393848
v -21.076128 0.593735 34.393848
v -21.076130 0.125434 34.161942
v -21.487064 0.082557 34.142128
v -21.076132 -0.307636 33.266182
v -21.487064 -0.307636 33.266182
v -21.487064 0.082557 34.142128
v -21.076130 0.125434 34.161942
v 8.081618 0.593735 21.076132
v 8.081618 0.593735 21.487070
v 8.833396 0.127847 21.487070
v 8.833396 0.126279 21.076138
v 8.833396 0.126279 21.076138
v 8.833396 0.127847 21.487070
v 8.833396 -0.307636 21.487070
v 8.833396 -0.307636 21.076138
v -6.484633 0.249216 21.487070
v -6.489508 0.249216 21.076138
v -6.953943 -0.307636 21.076138
v -6.953943 -0.307636 21.487070
v -5.074499 0.593735 21.487070
v -5.074499 0.593735 21.076132
v -5.524769 0.233824 21.076132
v -5.524769 0.233824 21.487070
v -5.524769 0.233824 21.487070
v -5.524769 0.233824 21.076132
v -6.202166 0.180379 21.076138
v -6.202166 0.171971 21.487070
v -6.489508 0.249216 21.076138
v -6.484633 0.249216 21.487070
v 19.864218 0.593735 17.731138
v 19.573643 0.593735 17.440561
v 18.776264 -0.307636 18.237944
v 19.066841 -0.307636 18.528521
v 12.592289 0.593735 -21.076128
v 12.592289 0.593735 -21.487064
v 11.840511 -0.307636 -21.487064
v 11.840511 -0.307636 -21.076132
v -0.563828 0.593735 -21.487064
v -0.563828 0.593735 -21.076128
v 0.563840 -0.307636 -21.076132
v 0.563840 -0.307636 -21.487064
v -1.751462 0.593735 32.907608
v -1.340527 0.593735 32.910156
v -1.340527 0.154784 32.514404
v -1.751460 0.157386 32.514404
v -1.340527 0.077397 32.032703
v -1.751462 0.084919 32.023293
v -1.751460 0.157386 32.514404
v -1.340527 0.154784 32.514404
v -1.751462 0.084919 32.023293
v -1.340527 0.077397 32.032703
v -1.340527 -0.307636 31.761736
v -1.751460 -0.307636 31.750053
v 21.076141 0.593735 4.322724
v 21.487074 0.593735 4.322724
v 21.487074 0.284581 3.581831
v 21.076139 0.284761 3.581606
v 21.487074 0.258144 2.443281
v 21.076141 0.254944 2.443281
v 21.076141 0.254944 2.443281
v 21.487074 0.258144 2.443281
v 21.487074 0.010004 2.045893
v 21.076139 0.010436 2.045357
v 21.487074 -0.307636 0.563838
v 21.076141 -0.307636 0.563838
v 21.076141 -0.307636 0.563838
v 21.487074 -0.307636 0.563838
v 21.487074 0.013027 0.162671
v 21.076139 0.011799 0.164204
v 21.076139 0.011799 0.164204
v 21.487074 0.013027 0.162671
v 21.487074 0.277699 -1.315610
v 21.076141 0.274159 -1.315610
v 21.487074 0.143050 -1.879443
v 21.076139 0.143050 -1.879443
v 21.487074 0.593735 -2.443276
v 21.076138 0.593735 -2.443276
v 21.076139 0.143050 -1.879443
v 21.487074 0.143050 -1.879443
v -7.031880 -0.025335 -2.284795
v 0.000000 -0.025335 0.000000
v -5.981675 -0.025335 -4.345942
v -4.345942 -0.025335 -5.981675
v -2.284795 -0.025335 -7.031880
v 0.000000 -0.025335 -7.393760
v 2.284805 -0.025335 -7.031880
v 4.345942 -0.025335 -5.981675
v 5.981689 -0.025335 -4.345942
v 7.031880 -0.025335 -2.284795
v 7.393769 -0.025335 0.000000
v 7.031880 -0.025335 2.284805
v 5.981689 -0.025335 4.345942
v 4.345942 -0.025335 5.981675
v 2.284805 -0.025335 7.031880
v 0.000000 -0.025335 7.393769
v -2.284795 -0.025335 7.031880
v -4.345928 -0.025335 5.981675
v -5.981675 -0.025335 4.345942
v -7.031865 -0.025335 2.284805
v -7.393754 -0.025335 0.000000
vt 0.997038 0.101112
vt 0.898799 0.101112
vt 0.898799 0.218250
vt 0.997038 0.218250
vt 0.898799 0.432169
vt 0.997038 0.432169
vt 0.997038 0.218250
vt 0.898799 0.218250
vt 0.766709 0.310902
vt 0.864844 0.310902
vt 0.864844 0.200417
vt 0.766709 0.200416
vt 0.766709 0.200416
vt 0.864844 0.200417
vt 0.864844 0.095647
vt 0.766709 0.095647
vt 0.197072 0.147656
vt 0.295207 0.147656
vt 0.295207 0.036746
vt 0.197072 0.036746
vt 0.197072 0.485573
vt 0.295207 0.485573
vt 0.295207 0.378043
vt 0.197072 0.378043
vt 0.197072 0.378043
vt 0.295207 0.378043
vt 0.295207 0.216274
vt 0.197072 0.216274
vt 0.295207 0.147656
vt 0.197072 0.147656
vt 0.197072 0.398820
vt 0.295207 0.398820
vt 0.295207 0.129525
vt 0.197072 0.129525
vt 0.898799 0.378166
vt 0.997038 0.378166
vt 0.997038 0.198635
vt 0.898799 0.198635
vt 0.766709 0.310902
vt 0.864844 0.310902
vt 0.864844 0.095647
vt 0.766709 0.095647
vt 0.295207 0.131795
vt 0.197072 0.131186
vt 0.197072 0.225696
vt 0.295207 0.225696
vt 0.197072 0.340730
vt 0.295207 0.340730
vt 0.295207 0.225696
vt 0.197072 0.225696
vt 0.295207 0.340730
vt 0.197072 0.340730
vt 0.197072 0.405439
vt 0.295207 0.405439
vt 0.159335 0.062218
vt 0.061199 0.062218
vt 0.061199 0.207919
vt 0.159335 0.207919
vt 0.061199 0.431822
vt 0.159335 0.431822
vt 0.159335 0.031328
vt 0.061199 0.031328
vt 0.061199 0.109476
vt 0.159335 0.109476
vt 0.061199 0.400929
vt 0.159335 0.400929
vt 0.159335 0.400929
vt 0.061199 0.400929
vt 0.061199 0.479517
vt 0.159335 0.479517
vt 0.159335 0.006206
vt 0.061199 0.006206
vt 0.061199 0.297219
vt 0.159335 0.297219
vt 0.061199 0.408099
vt 0.159335 0.408099
vt 0.061199 0.518979
vt 0.159335 0.518979
vt 0.159335 0.408099
vt 0.061199 0.408099
vt 0.015050 0.774363
vt 0.317662 0.687242
vt 0.060268 0.863109
vt 0.130697 0.933537
vt 0.219442 0.978755
vt 0.317662 0.994337
vt 0.219442 0.978755
vt 0.130697 0.933537
vt 0.060268 0.863109
vt 0.015050 0.774363
vt -0.000687 0.687242
vt 0.015050 0.774363
vt 0.060268 0.863108
vt 0.130697 0.933537
vt 0.219442 0.978756
vt 0.317662 0.994337
vt 0.219442 0.978756
vt 0.130697 0.933538
vt 0.060268 0.863109
vt 0.015050 0.774363
vt -0.000687 0.687242
vn -0.001483 0.442733 -0.896652
vn -0.001483 0.442733 -0.896652
vn -0.001483 0.442733 -0.896652
vn -0.001483 0.442733 -0.896652
vn -0.037129 0.906249 -0.421111
vn -0.037129 0.906249 -0.421111
vn -0.037129 0.906249 -0.421111
vn -0.037129 0.906249 -0.421111
vn 0.527405 0.849613 -0.001621
vn 0.527405 0.849613 -0.001621
vn 0.527405 0.849613 -0.001621
vn 0.527405 0.849613 -0.001621
vn 1.000000 0.000000 0.000000
vn 1.000000 0.000000 0.000000
vn 1.000000 0.000000 0.000000
vn 1.000000 0.000000 0.000000
vn -0.766295 0.642473 0.004545
vn -0.766295 0.642472 0.004545
vn -0.766295 0.642473 0.004545
vn -0.766295 0.642473 0.004545
vn -0.624374 0.781126 0.000000
vn -0.624374 0.781126 0.000000
vn -0.624374 0.781126 0.000000
vn -0.624374 0.781126 0.000000
vn -0.084792 0.996347 0.010192
vn -0.084792 0.996347 0.010192
vn 0.016134 0.999822 0.009777
vn 0.015831 0.999827 0.009779
vn 0.248328 0.968639 0.008436
vn 0.248328 0.968639 0.008436
vn -0.441499 0.781126 0.441499
vn -0.441499 0.781126 0.441499
vn -0.441499 0.781126 0.441499
vn -0.441499 0.781126 0.441499
vn -0.767956 0.640502 0.000000
vn -0.767956 0.640502 0.000000
vn -0.767956 0.640502 0.000000
vn -0.767956 0.640502 0.000000
vn 0.624374 0.781125 0.000000
vn 0.624374 0.781125 0.000000
vn 0.624374 0.781125 0.000000
vn 0.624374 0.781125 0.000000
vn 0.004427 0.669514 -0.742786
vn 0.004427 0.669514 -0.742786
vn 0.004427 0.669514 -0.742786
vn 0.004427 0.669514 -0.742786
vn 0.013917 0.988247 -0.152232
vn 0.013917 0.988247 -0.152232
vn 0.013917 0.988247 -0.152232
vn 0.013917 0.988247 -0.152232
vn 0.026271 0.573192 -0.819000
vn 0.026271 0.573192 -0.819000
vn 0.026271 0.573192 -0.819000
vn 0.026271 0.573192 -0.819000
vn 0.000307 0.922938 -0.384947
vn 0.000307 0.922938 -0.384947
vn -0.002057 0.984273 -0.176640
vn -0.002058 0.984291 -0.176541
vn -0.003666 0.999688 -0.024699
vn -0.003666 0.999688 -0.024699
vn -0.002518 0.850113 -0.526594
vn -0.002518 0.850113 -0.526594
vn -0.000098 0.957759 -0.287572
vn -0.000097 0.957796 -0.287450
vn 0.000651 0.977757 -0.209739
vn 0.000651 0.977757 -0.209739
vn -0.000002 0.781126 0.624373
vn -0.000002 0.781126 0.624373
vn -0.004117 0.955175 0.296014
vn -0.004105 0.954853 0.297050
vn -0.004105 0.954853 0.297050
vn -0.004117 0.955175 0.296014
vn -0.005138 0.997947 0.063842
vn -0.005138 0.997950 0.063793
vn -0.004192 0.973326 -0.229387
vn -0.004192 0.973326 -0.229387
vn 0.000000 0.781127 0.624372
vn 0.000000 0.781127 0.624372
vn 0.000000 0.781127 0.624372
vn 0.000000 0.781127 0.624372
vn 0.000000 1.000000 0.000000
vn 0.000000 1.000000 0.000000
vn 0.000000 1.000000 0.000000
vn 0.000000 1.000000 0.000000
vn 0.000000 1.000000 0.000000
vn 0.000000 1.000000 0.000000
vn 0.000000 1.000000 0.000000
vn 0.000000 1.000000 0.000000
vn 0.000000 1.000000 0.000000
vn 0.000000 1.000000 0.000000
vn 0.000000 1.000000 0.000000
vn 0.000000 1.000000 0.000000
vn 0.000000 1.000000 0.000000
vn 0.000000 1.000000 0.000000
vn 0.000000 1.000000 0.000000
vn 0.000000 1.000000 0.000000
vn 0.000000 1.000000 0.000000
vn 0.000000 1.000000 0.000000
vn 0.000000 1.000000 0.000000
vn 0.000000 1.000000 0.000000
vn 0.000000 1.000000 0.000000
usemtl material
f 1/0/1 2/0/2 3/0/3
f 1/0/1 3/0/3 4/0/4
f 5/0/5 6/0/6 7/0/7
f 5/0/5 7/0/7 8/0/8
f 9/0/9 10/0/10 11/0/11
f 9/0/9 11/0/11 12/0/12
f 13/0/13 14/0/14 15/0/15
f 13/0/13 15/0/15 16/0/16
f 17/0/17 18/0/18 19/0/19
f 17/0/17 19/0/19 20/0/20
f 21/0/21 22/0/22 23/0/23
f 21/0/21 23/0/23 24/0/24
f 25/0/25 26/0/26 27/0/27
f 25/0/25 27/0/27 28/0/28
f 28/0/28 27/0/27 29/0/29
f 28/0/28 29/0/29 30/0/30
f 31/0/31 32/0/32 33/0/33
f 31/0/31 33/0/33 34/0/34
f 35/0/35 36/0/36 37/0/37
f 35/0/35 37/0/37 38/0/38
f 39/0/39 40/0/40 41/0/41
f 39/0/39 41/0/41 42/0/42
f 43/0/43 44/0/44 45/0/45
f 43/0/43 45/0/45 46/0/46
f 47/0/47 48/0/48 49/0/49
f 47/0/47 49/0/49 50/0/50
f 51/0/51 52/0/52 53/0/53
f 51/0/51 53/0/53 54/0/54
f 55/0/55 56/0/56 57/0/57
f 55/0/55 57/0/57 58/0/58
f 58/0/58 57/0/57 59/0/59
f 58/0/58 59/0/59 60/0/60
f 61/0/61 62/0/62 63/0/63
f 61/0/61 63/0/63 64/0/64
f 64/0/64 63/0/63 65/0/65
f 64/0/64 65/0/65 66/0/66
f 67/0/67 68/0/68 69/0/69
f 67/0/67 69/0/69 70/0/70
f 71/0/71 72/0/72 73/0/73
f 71/0/71 73/0/73 74/0/74
f 74/0/74 73/0/73 75/0/75
f 74/0/74 75/0/75 76/0/76
f 77/0/77 78/0/78 79/0/79
f 77/0/77 79/0/79 80/0/80
f 81/0/81 82/0/82 83/0/83
f 83/0/83 82/0/82 84/0/84
f 84/0/84 82/0/82 85/0/85
f 85/0/85 82/0/82 86/0/86
f 86/0/86 82/0/82 87/0/87
f 87/0/87 82/0/82 88/0/88
f 88/0/88 82/0/82 89/0/89
f 89/0/89 82/0/82 90/0/90
f 90/0/90 82/0/82 91/0/91
f 91/0/91 82/0/82 92/0/92
f 92/0/92 82/0/82 93/0/93
f 93/0/93 82/0/82 94/0/94
f 94/0/94 82/0/82 95/0/95
f 95/0/95 82/0/82 96/0/96
f 96/0/96 82/0/82 97/0/97
f 97/0/97 82/0/82 98/0/98
f 98/0/98 82/0/82 99/0/99
f 99/0/99 82/0/82 100/0/100
f 100/0/100 82/0/82 101/0/101
f 101/0/101 82/0/82 81/0/81
