# 
# Wavefront OBJ file
# Created with Kaydara FBX
# 
mtllib ex02_c03_rock01.mtl

g Ex02_C03_Rock01
v 4.837661 0.832648 3.553545
v 4.837661 0.832647 0.650508
v -5.334399 0.832647 0.601348
v 5.764184 0.832647 -1.291660
v -5.764184 0.832647 -1.291660
v 2.847378 0.832647 -3.553535
v -4.188560 0.832647 -2.726787
v -5.708213 0.832647 3.553545
v 2.847378 -0.832648 -3.553535
v -4.188560 -0.832648 -2.726787
v -4.188560 0.832647 -2.726787
v 2.847378 0.832647 -3.553535
v 4.837661 -0.832648 3.553545
v -5.708213 -0.832648 3.553545
v -5.334399 -0.832648 0.601348
v 4.837661 -0.832648 0.650508
v 5.764184 -0.832648 -1.291660
v -5.764184 -0.832648 -1.291660
v 2.847378 -0.832648 -3.553535
v -4.188560 -0.832648 -2.726787
v -5.708213 -0.832648 3.553545
v -5.708213 0.832647 3.553545
v -5.334399 0.832647 0.601348
v -5.334399 -0.832648 0.601348
v 4.837661 -0.832648 0.650508
v 4.837661 0.832647 0.650508
v 4.837661 0.832648 3.553545
v 4.837661 -0.832648 3.553545
v 5.764184 -0.832648 -1.291660
v 5.764184 0.832647 -1.291660
v 4.837661 0.832647 0.650508
v 4.837661 -0.832648 0.650508
v -5.334399 0.832647 0.601348
v -5.764184 0.832647 -1.291660
v -5.764184 -0.832648 -1.291660
v -5.334399 -0.832648 0.601348
v 2.847378 -0.832648 -3.553535
v 2.847378 0.832647 -3.553535
v 5.764184 0.832647 -1.291660
v 5.764184 -0.832648 -1.291660
v -5.764184 0.832647 -1.291660
v -4.188560 0.832647 -2.726787
v -4.188560 -0.832648 -2.726787
v -5.764184 -0.832648 -1.291660
v 4.837661 0.832648 3.553545
v -5.708213 0.832647 3.553545
v -5.708213 -0.832648 3.553545
v 4.837661 -0.832648 3.553545
vt 0.343078 0.041324
vt 0.356992 -0.084857
vt -0.133558 -0.087232
vt 0.401671 -0.178524
vt -0.154283 -0.178522
vt 0.261010 -0.287600
vt -0.078301 -0.247732
vt -0.151665 0.055143
vt 0.731859 0.135456
vt 1.036929 0.135456
vt 1.036985 0.055143
vt 0.731912 0.055143
vt 0.352753 0.149266
vt -0.151698 0.135456
vt -0.133698 0.277915
vt 0.357121 0.275405
vt 0.401914 0.369044
vt -0.154440 0.369296
vt 0.261193 0.478289
vt -0.078383 0.438531
vt 1.342263 0.135456
vt 1.342206 0.055143
vt 1.212798 0.055143
vt 1.212837 0.135456
vt 0.474953 0.135456
vt 0.474910 0.055143
vt 0.355363 0.048234
vt 0.348460 0.135456
vt 0.571016 0.135456
vt 0.571023 0.055143
vt 0.474910 0.055143
vt 0.474953 0.135456
vt 1.212798 0.055143
vt 1.128776 0.055143
vt 1.128770 0.135456
vt 1.212837 0.135456
vt 0.731859 0.135456
vt 0.731912 0.055143
vt 0.571023 0.055143
vt 0.571016 0.135456
vt 1.128776 0.055143
vt 1.036985 0.055143
vt 1.036929 0.135456
vt 1.128770 0.135456
vt 0.355363 0.048234
vt -0.151665 0.055143
vt -0.151698 0.135456
vt 0.352753 0.149266
vn 0.000000 1.000000 0.000000
vn 0.000000 1.000000 0.000000
vn 0.000000 1.000000 0.000000
vn 0.000000 1.000000 0.000000
vn 0.000000 1.000000 0.000000
vn 0.000000 1.000000 0.000000
vn 0.000000 1.000000 0.000000
vn 0.000000 1.000000 0.000000
vn -0.116701 0.000000 -0.993167
vn -0.116701 0.000000 -0.993167
vn -0.116701 0.000000 -0.993167
vn -0.116701 0.000000 -0.993167
vn 0.000000 -1.000000 0.000000
vn 0.000000 -1.000000 0.000000
vn 0.000000 -1.000000 0.000000
vn 0.000000 -1.000000 0.000000
vn 0.000000 -1.000000 0.000000
vn 0.000000 -1.000000 0.000000
vn 0.000000 -1.000000 0.000000
vn 0.000000 -1.000000 0.000000
vn -0.992079 0.000000 -0.125619
vn -0.992079 0.000000 -0.125619
vn -0.992079 0.000000 -0.125619
vn -0.992079 0.000000 -0.125619
vn 1.000000 0.000000 0.000000
vn 1.000000 0.000000 0.000000
vn 1.000000 0.000000 0.000000
vn 1.000000 0.000000 0.000000
vn 0.902557 0.000000 0.430570
vn 0.902557 0.000000 0.430570
vn 0.902557 0.000000 0.430570
vn 0.902557 0.000000 0.430570
vn -0.975182 0.000000 0.221404
vn -0.975182 0.000000 0.221404
vn -0.975182 0.000000 0.221404
vn -0.975182 0.000000 0.221404
vn 0.612800 0.000000 -0.790238
vn 0.612800 0.000000 -0.790238
vn 0.612800 0.000000 -0.790238
vn 0.612800 0.000000 -0.790238
vn -0.673376 0.000000 -0.739300
vn -0.673376 0.000000 -0.739300
vn -0.673376 0.000000 -0.739300
vn -0.673376 0.000000 -0.739300
vn 0.000000 0.000000 1.000000
vn 0.000000 0.000000 1.000000
vn 0.000000 0.000000 1.000000
vn 0.000000 0.000000 1.000000
usemtl material
f 1/0/1 2/0/2 3/0/3
f 4/0/4 3/0/3 2/0/2
f 4/0/4 5/0/5 3/0/3
f 6/0/6 5/0/5 4/0/4
f 6/0/6 7/0/7 5/0/5
f 8/0/8 1/0/1 3/0/3
f 9/0/9 10/0/10 11/0/11
f 9/0/9 11/0/11 12/0/12
f 13/0/13 14/0/14 15/0/15
f 16/0/16 13/0/13 15/0/15
f 15/0/15 17/0/17 16/0/16
f 15/0/15 18/0/18 17/0/17
f 17/0/17 18/0/18 19/0/19
f 18/0/18 20/0/20 19/0/19
f 21/0/21 22/0/22 23/0/23
f 21/0/21 23/0/23 24/0/24
f 25/0/25 26/0/26 27/0/27
f 25/0/25 27/0/27 28/0/28
f 29/0/29 30/0/30 31/0/31
f 29/0/29 31/0/31 32/0/32
f 33/0/33 34/0/34 35/0/35
f 33/0/33 35/0/35 36/0/36
f 37/0/37 38/0/38 39/0/39
f 37/0/37 39/0/39 40/0/40
f 41/0/41 42/0/42 43/0/43
f 41/0/41 43/0/43 44/0/44
f 45/0/45 46/0/46 47/0/47
f 45/0/45 47/0/47 48/0/48
