# 
# Wavefront OBJ file
# Created with Kaydara FBX
# 
mtllib eye_r #221484.mtl

g Eye_R
v 0.063818 1.654558 0.076120
v 0.062460 1.632971 0.078172
v 0.072498 1.633646 0.058755
v 0.074109 1.653333 0.057346
v 0.061253 1.617303 0.075189
v 0.069173 1.616369 0.060525
v 0.051442 1.652668 0.090799
v 0.051710 1.631630 0.090459
v 0.050538 1.617211 0.085902
v 0.064783 1.605001 0.061920
v 0.058081 1.605362 0.072935
v 0.062069 1.596956 0.062198
v 0.056240 1.595609 0.070959
v 0.048847 1.605210 0.081526
v 0.076809 1.628941 0.038166
v 0.080518 1.652562 0.039189
v 0.037104 1.651199 0.104544
v 0.037487 1.630628 0.100430
v 0.017318 1.650136 0.113448
v 0.015581 1.629149 0.108936
v 0.021599 1.615506 0.099090
v 0.012867 1.614147 0.103559
v 0.006697 1.613378 0.105320
v 0.010469 1.603503 0.096770
v 0.020022 1.605089 0.091277
v 0.035775 1.617111 0.093432
v 0.035699 1.604996 0.087307
v 0.004712 1.603126 0.100427
v 0.004086 1.593317 0.098240
v 0.008976 1.592288 0.094766
v 0.018921 1.597001 0.089330
v 0.016356 1.587805 0.090613
v 0.025753 1.595941 0.086416
v 0.036044 1.594974 0.083779
v 0.036137 1.583604 0.084329
v 0.024527 1.585907 0.088140
v 0.047477 1.594983 0.079637
v 0.046376 1.582211 0.079400
v 0.055464 1.582053 0.070147
v 0.061667 1.585411 0.058103
v 0.066210 1.594292 0.049798
v 0.070598 1.604681 0.042898
v 0.073831 1.613520 0.040390
vt 0.306546 0.958766
vt 0.338205 0.736342
vt 0.197621 0.730244
vt 0.117016 0.902822
vt 0.352496 0.562595
vt 0.230298 0.542870
vt 0.458300 0.947745
vt 0.468441 0.726877
vt 0.469193 0.559043
vt 0.266098 0.406511
vt 0.372149 0.415138
vt 0.303219 0.305409
vt 0.379657 0.289362
vt 0.485729 0.407785
vt 0.006572 0.600572
vt -0.054029 0.830858
vt 0.616041 0.936055
vt 0.620431 0.715630
vt 0.840278 0.925034
vt 0.862063 0.704609
vt 0.811726 0.549361
vt 0.894740 0.538800
vt 0.970988 0.527674
vt 0.927418 0.399898
vt 0.833511 0.417269
vt 0.627544 0.559043
vt 0.624995 0.407196
vt 0.992773 0.399898
vt 1.003665 0.294038
vt 0.938310 0.282913
vt 0.844404 0.320401
vt 0.862063 0.238974
vt 0.763883 0.300131
vt 0.621577 0.283748
vt 0.619762 0.178851
vt 0.764030 0.204501
vt 0.500620 0.281049
vt 0.512172 0.160532
vt 0.386805 0.158398
vt 0.291076 0.172334
vt 0.194703 0.247877
vt 0.109112 0.354007
vt 0.061460 0.445046
vn 0.836218 -0.011397 0.548278
vn 0.822480 -0.075433 0.563770
vn 0.921052 -0.094664 0.377758
vn 0.924317 -0.070855 0.374990
vn 0.797484 -0.221821 0.561083
vn 0.902461 -0.207865 0.377300
vn 0.704154 -0.031648 0.709342
vn 0.668733 -0.143216 0.729579
vn 0.577320 -0.327151 0.748114
vn 0.881840 -0.272281 0.384994
vn 0.748971 -0.285676 0.597855
vn 0.887197 -0.213503 0.409020
vn 0.751905 -0.165541 0.638149
vn 0.530518 -0.319769 0.785047
vn 0.955165 -0.127704 0.267119
vn 0.953167 -0.114589 0.279896
vn 0.502213 -0.146596 0.852227
vn 0.492513 -0.230331 0.839273
vn 0.387913 -0.199412 0.899866
vn 0.388548 -0.286677 0.875698
vn 0.398523 -0.480628 0.781138
vn 0.401168 -0.469289 0.786659
vn 0.369998 -0.472813 0.799718
vn 0.482912 -0.428920 0.763429
vn 0.368840 -0.465115 0.804752
vn 0.412941 -0.418451 0.808936
vn 0.319585 -0.359113 0.876871
vn 0.465164 -0.381344 0.798874
vn 0.534039 -0.216720 0.817212
vn 0.530641 -0.179136 0.828450
vn 0.459806 -0.150626 0.875151
vn 0.416078 0.036489 0.908596
vn 0.269927 -0.146896 0.951610
vn 0.326990 -0.126102 0.936577
vn 0.347680 0.033616 0.937011
vn 0.298454 0.095329 0.949651
vn 0.554916 -0.144950 0.819181
vn 0.571814 -0.045359 0.819128
vn 0.762802 -0.096593 0.639377
vn 0.907238 -0.168340 0.385461
vn 0.922148 -0.218962 0.318903
vn 0.918605 -0.277527 0.281325
vn 0.939256 -0.226879 0.257535
usemtl material
f 1/0/1 2/0/2 3/0/3
f 1/0/1 3/0/3 4/0/4
f 3/0/3 2/0/2 5/0/5
f 3/0/3 5/0/5 6/0/6
f 7/0/7 2/0/2 1/0/1
f 7/0/7 8/0/8 2/0/2
f 2/0/2 8/0/8 9/0/9
f 2/0/2 9/0/9 5/0/5
f 10/0/10 6/0/6 5/0/5
f 10/0/10 5/0/5 11/0/11
f 11/0/11 5/0/5 9/0/9
f 11/0/11 12/0/12 10/0/10
f 11/0/11 13/0/13 12/0/12
f 11/0/11 9/0/9 14/0/14
f 13/0/13 11/0/11 14/0/14
f 6/0/6 15/0/15 3/0/3
f 15/0/15 4/0/4 3/0/3
f 15/0/15 16/0/16 4/0/4
f 17/0/17 8/0/8 7/0/7
f 17/0/17 18/0/18 8/0/8
f 19/0/19 18/0/18 17/0/17
f 19/0/19 20/0/20 18/0/18
f 20/0/20 21/0/21 18/0/18
f 20/0/20 22/0/22 21/0/21
f 20/0/20 23/0/23 22/0/22
f 21/0/21 22/0/22 24/0/24
f 24/0/24 22/0/22 23/0/23
f 21/0/21 24/0/24 25/0/25
f 26/0/26 21/0/21 25/0/25
f 18/0/18 21/0/21 26/0/26
f 25/0/25 27/0/27 26/0/26
f 24/0/24 23/0/23 28/0/28
f 29/0/29 24/0/24 28/0/28
f 29/0/29 30/0/30 24/0/24
f 31/0/31 24/0/24 30/0/30
f 31/0/31 25/0/25 24/0/24
f 31/0/31 30/0/30 32/0/32
f 27/0/27 25/0/25 33/0/33
f 33/0/33 31/0/31 32/0/32
f 25/0/25 31/0/31 33/0/33
f 27/0/27 33/0/33 34/0/34
f 35/0/35 34/0/34 33/0/33
f 35/0/35 33/0/33 36/0/36
f 33/0/33 32/0/32 36/0/36
f 34/0/34 14/0/14 27/0/27
f 34/0/34 37/0/37 14/0/14
f 34/0/34 35/0/35 38/0/38
f 34/0/34 38/0/38 37/0/37
f 37/0/37 38/0/38 39/0/39
f 37/0/37 39/0/39 13/0/13
f 13/0/13 14/0/14 37/0/37
f 9/0/9 26/0/26 27/0/27
f 9/0/9 27/0/27 14/0/14
f 8/0/8 26/0/26 9/0/9
f 8/0/8 18/0/18 26/0/26
f 12/0/12 13/0/13 39/0/39
f 40/0/40 12/0/12 39/0/39
f 40/0/40 41/0/41 12/0/12
f 41/0/41 10/0/10 12/0/12
f 41/0/41 42/0/42 10/0/10
f 42/0/42 6/0/6 10/0/10
f 42/0/42 43/0/43 6/0/6
f 6/0/6 43/0/43 15/0/15
