# 
# Wavefront OBJ file
# Created with Kaydara FBX
# 
mtllib eye_r #221560.mtl

g Eye_R
v 0.066185 1.553233 0.080872
v 0.072382 1.551831 0.067571
v 0.037908 1.539431 0.101482
v 0.022253 1.539361 0.107344
v 0.019903 1.526810 0.098719
v 0.039723 1.553932 0.107426
v 0.038593 1.507447 0.093105
v 0.027121 1.510060 0.094956
v 0.065256 1.537386 0.083203
v 0.070940 1.535808 0.072495
v 0.037829 1.526151 0.096913
v 0.054794 1.553747 0.095797
v 0.053553 1.538213 0.093547
v 0.048902 1.508261 0.090425
v 0.055882 1.510526 0.086176
v 0.021097 1.518094 0.097531
v 0.017850 1.511251 0.098366
v 0.062125 1.525009 0.082450
v 0.063702 1.513601 0.077812
v 0.068798 1.524512 0.074295
v 0.051761 1.525121 0.091392
v 0.065768 1.571820 0.079190
v 0.073307 1.569426 0.064611
v 0.018351 1.573911 0.112393
v 0.039317 1.573517 0.103389
v 0.016510 1.553694 0.115681
v 0.013261 1.538441 0.112015
v 0.037777 1.500247 0.094538
v 0.025990 1.501822 0.097910
v 0.010577 1.525241 0.105357
v 0.052654 1.572897 0.092189
v 0.056277 1.499518 0.084611
v 0.048718 1.499477 0.091034
v 0.008924 1.514308 0.104313
v 0.016347 1.503409 0.100996
v 0.008559 1.505201 0.105604
v 0.078431 1.548109 0.050842
v 0.074344 1.533538 0.054119
v 0.080566 1.565378 0.046987
v 0.063255 1.502617 0.074044
v 0.067457 1.511129 0.063913
v 0.071463 1.522528 0.057306
v 0.027121 1.510060 0.094956
vt 0.261686 0.729011
vt 0.095578 0.695561
vt 0.621921 0.568393
vt 0.808807 0.573797
vt 0.840775 0.417496
vt 0.617954 0.744789
vt 0.613021 0.189738
vt 0.746565 0.208552
vt 0.296524 0.547144
vt 0.176728 0.524943
vt 0.620507 0.410155
vt 0.421363 0.738433
vt 0.428043 0.557653
vt 0.490719 0.195314
vt 0.397963 0.225177
vt 0.827795 0.311101
vt 0.871123 0.247449
vt 0.314869 0.387300
vt 0.285700 0.260849
vt 0.225199 0.386729
vt 0.449486 0.390157
vt 0.245476 0.920028
vt 0.038429 0.845051
vt 0.885555 0.967806
vt 0.602992 0.968585
vt 0.880485 0.742686
vt 0.954153 0.550230
vt 0.618234 0.114363
vt 0.774095 0.140040
vt 0.962014 0.394721
vt 0.425082 0.947334
vt 0.400153 0.074346
vt 0.508085 0.089898
vt 0.987441 0.266837
vt 0.885884 0.165917
vt 0.981558 0.168503
vt 0.018609 0.629677
vt 0.018609 0.469448
vt 0.018609 0.774233
vt 0.288925 0.109304
vt 0.177118 0.214484
vt 0.067993 0.326009
vt 0.746565 0.208552
vn 0.831959 0.045045 0.553006
vn 0.926107 -0.010616 0.377112
vn 0.351564 -0.348956 0.868696
vn 0.377759 -0.459495 0.803842
vn 0.372039 -0.296746 0.879505
vn 0.471017 -0.076654 0.878787
vn 0.251955 0.015772 0.967610
vn 0.241717 0.034004 0.969751
vn 0.785212 -0.094446 0.611982
vn 0.924147 -0.097613 0.369357
vn 0.229051 -0.229082 0.946075
vn 0.665853 0.000826 0.746083
vn 0.577879 -0.196807 0.792037
vn 0.454371 -0.047774 0.889531
vn 0.686103 -0.106718 0.719635
vn 0.334177 -0.125208 0.934157
vn 0.452408 0.052357 0.890273
vn 0.717920 -0.162954 0.676784
vn 0.844971 -0.202572 0.494963
vn 0.896399 -0.200332 0.395393
vn 0.498248 -0.180667 0.848003
vn 0.810340 0.159374 0.563869
vn 0.909316 0.084183 0.407501
vn 0.334642 0.249929 0.908598
vn 0.490935 0.251845 0.834000
vn 0.348718 -0.082483 0.933591
vn 0.492180 -0.393108 0.776676
vn 0.308045 0.150553 0.939384
vn 0.323952 0.246136 0.913495
vn 0.602200 -0.297228 0.740953
vn 0.668549 0.219825 0.710435
vn 0.781459 -0.130342 0.610190
vn 0.501096 -0.000243 0.865392
vn 0.637580 -0.046563 0.768975
vn 0.463821 0.244044 0.851653
vn 0.643041 0.198116 0.739762
vn 0.968593 -0.098332 0.228384
vn 0.959955 -0.192037 0.203980
vn 0.966526 -0.019996 0.255788
vn 0.900792 -0.273350 0.337422
vn 0.944071 -0.286717 0.162862
vn 0.954526 -0.251826 0.159576
vn 0.241717 0.034004 0.969751
usemtl material
f 22/0/22 1/0/1 2/0/2
f 22/0/22 2/0/2 23/0/23
f 2/0/2 1/0/1 9/0/9
f 2/0/2 9/0/9 10/0/10
f 31/0/31 1/0/1 22/0/22
f 31/0/31 12/0/12 1/0/1
f 1/0/1 12/0/12 13/0/13
f 1/0/1 13/0/13 9/0/9
f 20/0/20 10/0/10 9/0/9
f 20/0/20 9/0/9 18/0/18
f 18/0/18 9/0/9 13/0/13
f 18/0/18 19/0/19 20/0/20
f 18/0/18 15/0/15 19/0/19
f 18/0/18 13/0/13 21/0/21
f 15/0/15 18/0/18 21/0/21
f 10/0/10 37/0/37 2/0/2
f 37/0/37 23/0/23 2/0/2
f 10/0/10 38/0/38 37/0/37
f 37/0/37 39/0/39 23/0/23
f 25/0/25 12/0/12 31/0/31
f 25/0/25 6/0/6 12/0/12
f 24/0/24 6/0/6 25/0/25
f 24/0/24 26/0/26 6/0/6
f 26/0/26 4/0/4 6/0/6
f 26/0/26 27/0/27 4/0/4
f 4/0/4 27/0/27 30/0/30
f 4/0/4 30/0/30 5/0/5
f 3/0/3 4/0/4 5/0/5
f 6/0/6 4/0/4 3/0/3
f 5/0/5 11/0/11 3/0/3
f 16/0/16 5/0/5 30/0/30
f 11/0/11 5/0/5 16/0/16
f 16/0/16 30/0/30 34/0/34
f 16/0/16 34/0/34 17/0/17
f 34/0/34 35/0/35 17/0/17
f 34/0/34 36/0/36 35/0/35
f 43/0/43 17/0/17 35/0/35
f 43/0/43 16/0/16 17/0/17
f 43/0/43 35/0/35 29/0/29
f 12/0/12 6/0/6 3/0/3
f 12/0/12 3/0/3 13/0/13
f 13/0/13 3/0/3 11/0/11
f 13/0/13 11/0/11 21/0/21
f 7/0/7 21/0/21 11/0/11
f 7/0/7 14/0/14 21/0/21
f 11/0/11 8/0/8 7/0/7
f 11/0/11 16/0/16 8/0/8
f 28/0/28 7/0/7 8/0/8
f 28/0/28 8/0/8 29/0/29
f 7/0/7 28/0/28 33/0/33
f 7/0/7 33/0/33 14/0/14
f 14/0/14 33/0/33 32/0/32
f 14/0/14 32/0/32 15/0/15
f 15/0/15 21/0/21 14/0/14
f 32/0/32 40/0/40 15/0/15
f 40/0/40 19/0/19 15/0/15
f 40/0/40 41/0/41 19/0/19
f 41/0/41 20/0/20 19/0/19
f 41/0/41 42/0/42 20/0/20
f 42/0/42 10/0/10 20/0/20
f 42/0/42 38/0/38 10/0/10
