# 
# Wavefront OBJ file
# Created with Kaydara FBX
# 
mtllib eye_l #221514.mtl

g Eye_L
v -0.063818 1.654558 0.076120
v -0.074109 1.653333 0.057346
v -0.072498 1.633646 0.058755
v -0.062460 1.632971 0.078172
v -0.061253 1.617303 0.075189
v -0.069173 1.616369 0.060525
v -0.051442 1.652668 0.090799
v -0.051710 1.631630 0.090459
v -0.050538 1.617211 0.085902
v -0.061253 1.617303 0.075189
v -0.058081 1.605362 0.072935
v -0.048847 1.605210 0.081526
v -0.037104 1.651199 0.104544
v -0.037487 1.630628 0.100430
v -0.017318 1.650136 0.113448
v -0.015581 1.629149 0.108936
v -0.035775 1.617111 0.093432
v -0.021599 1.615506 0.099090
v -0.020022 1.605089 0.091277
v -0.035699 1.604996 0.087307
v -0.036044 1.594974 0.083779
v -0.047477 1.594983 0.079637
v -0.025753 1.595941 0.086416
v -0.036137 1.583604 0.084329
v -0.024527 1.585907 0.088140
v -0.016356 1.587805 0.090613
v -0.018921 1.597001 0.089330
v -0.046376 1.582211 0.079400
v -0.055464 1.582053 0.070147
v -0.056240 1.595609 0.070959
v -0.018921 1.597001 0.089330
v -0.010469 1.603503 0.096770
v -0.021599 1.615506 0.099090
v -0.012867 1.614147 0.103559
v -0.015581 1.629149 0.108936
v -0.006697 1.613378 0.105320
v -0.004712 1.603126 0.100427
v -0.004086 1.593317 0.098240
v -0.008976 1.592288 0.094766
v -0.064783 1.605001 0.061920
v -0.062069 1.596956 0.062198
v -0.056240 1.595609 0.070959
v -0.066210 1.594292 0.049798
v -0.070598 1.604681 0.042898
v -0.073831 1.613520 0.040390
v -0.076809 1.628941 0.038166
v -0.072498 1.633646 0.058755
v -0.074109 1.653333 0.057346
v -0.080518 1.652562 0.039189
v -0.058081 1.605362 0.072935
v -0.069173 1.616369 0.060525
v -0.061667 1.585411 0.058103
v -0.062069 1.596956 0.062198
v -0.061667 1.585411 0.058103
v -0.055464 1.582053 0.070147
vt 0.699775 0.957061
vt 0.890783 0.901340
vt 0.809549 0.729447
vt 0.667868 0.735521
vt 0.653466 0.562465
vt 0.776617 0.542819
vt 0.546836 0.946083
vt 0.536617 0.726094
vt 0.535859 0.558927
vt 0.653466 0.562465
vt 0.633660 0.415595
vt 0.519194 0.408271
vt 0.387866 0.934440
vt 0.383442 0.714892
vt 0.161880 0.923463
vt 0.139926 0.703914
vt 0.376273 0.558927
vt 0.190654 0.549284
vt 0.168700 0.417717
vt 0.378842 0.407684
vt 0.382286 0.284727
vt 0.504187 0.282038
vt 0.238871 0.301045
vt 0.384116 0.180247
vt 0.238723 0.205795
vt 0.139926 0.240131
vt 0.157722 0.321234
vt 0.492544 0.162001
vt 0.618890 0.159875
vt 0.626093 0.290319
vt 0.157722 0.321234
vt 0.074061 0.400415
vt 0.190654 0.549284
vt 0.106993 0.538764
vt 0.139926 0.703914
vt 0.030151 0.527683
vt 0.008196 0.400415
vt -0.002781 0.294976
vt 0.063084 0.283895
vt 0.740537 0.407002
vt 0.703127 0.306302
vt 0.626093 0.290319
vt 0.812489 0.248999
vt 0.898748 0.354707
vt 0.946772 0.445383
vt 1.002088 0.600291
vt 0.809549 0.729447
vt 0.890783 0.901340
vt 1.063160 0.829662
vt 0.633660 0.415595
vt 0.776617 0.542819
vt 0.715365 0.173756
vt 0.703127 0.306302
vt 0.715365 0.173756
vt 0.618890 0.159875
vn -0.814649 -0.000234 0.579954
vn -0.907068 -0.000640 0.420984
vn -0.922890 -0.001339 0.385061
vn -0.815994 -0.001346 0.578059
vn -0.805356 -0.002405 0.592787
vn -0.933217 -0.002098 0.359308
vn -0.687082 -0.000200 0.726580
vn -0.668474 -0.001886 0.743733
vn -0.628941 -0.003158 0.777447
vn -0.805356 -0.002405 0.592787
vn -0.779268 -0.002606 0.626686
vn -0.580667 -0.002985 0.814136
vn -0.519504 -0.000400 0.854468
vn -0.490162 -0.003164 0.871626
vn -0.292314 -0.000321 0.956322
vn -0.313570 -0.003281 0.949559
vn -0.459099 -0.004232 0.888375
vn -0.435832 -0.004564 0.900017
vn -0.420680 -0.003427 0.907203
vn -0.425608 -0.003526 0.904901
vn -0.396687 -0.001443 0.917953
vn -0.570272 -0.001755 0.821454
vn -0.391144 -0.001030 0.920329
vn -0.441533 -0.000354 0.897245
vn -0.408668 0.000005 0.912683
vn -0.458364 0.000080 0.888764
vn -0.450048 -0.001591 0.893003
vn -0.604453 -0.001232 0.796640
vn -0.824528 -0.001738 0.565818
vn -0.780176 -0.001926 0.625558
vn -0.450048 -0.001591 0.893003
vn -0.423601 -0.002360 0.905846
vn -0.435832 -0.004564 0.900017
vn -0.411797 -0.004396 0.911265
vn -0.313570 -0.003281 0.949559
vn -0.296584 -0.004229 0.954997
vn -0.294356 -0.002554 0.955692
vn -0.330135 -0.000148 0.943934
vn -0.476721 -0.000438 0.879055
vn -0.910154 -0.002425 0.414263
vn -0.889533 -0.001971 0.456867
vn -0.780176 -0.001926 0.625558
vn -0.958597 -0.002471 0.284754
vn -0.967483 -0.002515 0.252924
vn -0.974961 -0.002273 0.222366
vn -0.975868 -0.001734 0.218353
vn -0.922890 -0.001339 0.385061
vn -0.907068 -0.000640 0.420984
vn -0.957004 -0.000995 0.290072
vn -0.779268 -0.002606 0.626686
vn -0.933217 -0.002098 0.359308
vn -0.911258 -0.002111 0.411830
vn -0.889533 -0.001971 0.456867
vn -0.911258 -0.002111 0.411830
vn -0.824528 -0.001738 0.565818
usemtl material
f 1/0/1 2/0/2 3/0/3
f 1/0/1 3/0/3 4/0/4
f 3/0/3 5/0/5 4/0/4
f 3/0/3 6/0/6 5/0/5
f 7/0/7 1/0/1 4/0/4
f 7/0/7 4/0/4 8/0/8
f 4/0/4 9/0/9 8/0/8
f 4/0/4 10/0/10 9/0/9
f 11/0/11 9/0/9 10/0/10
f 11/0/11 12/0/12 9/0/9
f 13/0/13 7/0/7 8/0/8
f 13/0/13 8/0/8 14/0/14
f 15/0/15 13/0/13 14/0/14
f 15/0/15 14/0/14 16/0/16
f 8/0/8 9/0/9 17/0/17
f 8/0/8 17/0/17 14/0/14
f 14/0/14 17/0/17 18/0/18
f 17/0/17 19/0/19 18/0/18
f 19/0/19 17/0/17 20/0/20
f 9/0/9 12/0/12 20/0/20
f 9/0/9 20/0/20 17/0/17
f 21/0/21 20/0/20 12/0/12
f 21/0/21 12/0/12 22/0/22
f 20/0/20 21/0/21 23/0/23
f 20/0/20 23/0/23 19/0/19
f 24/0/24 23/0/23 21/0/21
f 24/0/24 25/0/25 23/0/23
f 23/0/23 25/0/25 26/0/26
f 23/0/23 26/0/26 27/0/27
f 21/0/21 22/0/22 28/0/28
f 21/0/21 28/0/28 24/0/24
f 22/0/22 29/0/29 28/0/28
f 22/0/22 30/0/30 29/0/29
f 30/0/30 22/0/22 12/0/12
f 30/0/30 12/0/12 11/0/11
f 19/0/19 23/0/23 31/0/31
f 31/0/31 32/0/32 19/0/19
f 33/0/33 19/0/19 32/0/32
f 33/0/33 32/0/32 34/0/34
f 35/0/35 33/0/33 34/0/34
f 35/0/35 14/0/14 33/0/33
f 32/0/32 36/0/36 34/0/34
f 16/0/16 34/0/34 36/0/36
f 32/0/32 37/0/37 36/0/36
f 38/0/38 37/0/37 32/0/32
f 38/0/38 32/0/32 39/0/39
f 31/0/31 39/0/39 32/0/32
f 31/0/31 26/0/26 39/0/39
f 11/0/11 40/0/40 41/0/41
f 11/0/11 41/0/41 42/0/42
f 43/0/43 41/0/41 40/0/40
f 43/0/43 40/0/40 44/0/44
f 44/0/44 40/0/40 6/0/6
f 44/0/44 6/0/6 45/0/45
f 6/0/6 46/0/46 45/0/45
f 6/0/6 47/0/47 46/0/46
f 46/0/46 47/0/47 48/0/48
f 46/0/46 48/0/48 49/0/49
f 40/0/40 50/0/50 5/0/5
f 40/0/40 5/0/5 51/0/51
f 52/0/52 53/0/53 43/0/43
f 54/0/54 55/0/55 53/0/53
f 41/0/41 29/0/29 30/0/30
