# 
# Wavefront OBJ file
# Created with Kaydara FBX
# 
mtllib eye_r #2214001.mtl

g Eye_R
v 0.067125 1.419387 0.037313
v 0.064110 1.399728 0.035251
v 0.074060 1.399297 0.021343
v 0.079063 1.417936 0.020889
v 0.060395 1.383672 0.030945
v 0.069211 1.382177 0.020734
v 0.053557 1.420441 0.050329
v 0.050985 1.400049 0.044560
v 0.048311 1.383152 0.036907
v 0.065989 1.370217 0.020855
v 0.057734 1.369758 0.029050
v 0.046826 1.368799 0.034282
v 0.083523 1.398315 0.003025
v 0.078846 1.380738 0.004585
v 0.087377 1.415706 0.000665
v 0.037702 1.421049 0.058756
v 0.037021 1.400406 0.052160
v 0.020523 1.421434 0.064038
v 0.019012 1.400634 0.057692
v 0.026931 1.386357 0.046202
v 0.036670 1.381342 0.040536
v 0.026213 1.378584 0.043218
v 0.036699 1.368173 0.038022
v 0.013599 1.373802 0.048024
v 0.016000 1.386139 0.049952
v 0.022569 1.371001 0.042537
v 0.011352 1.364589 0.048260
v 0.036890 1.357643 0.036179
v 0.045871 1.357187 0.032198
v 0.025418 1.363726 0.040891
v 0.045424 1.347721 0.033836
v 0.056361 1.346980 0.028040
v 0.055679 1.358772 0.027192
v 0.036842 1.349001 0.037785
v 0.029124 1.359930 0.039555
v 0.027068 1.350864 0.042004
v 0.017557 1.353457 0.046059
v 0.010130 1.356280 0.050195
v 0.019603 1.362516 0.043553
v 0.064513 1.345875 0.021541
v 0.064503 1.362268 0.020959
v 0.071889 1.358172 0.008640
v 0.067818 1.344162 0.011656
v 0.075444 1.370031 0.006407
vt 0.361400 0.911691
vt 0.394619 0.687335
vt 0.261997 0.680750
vt 0.199901 0.897086
vt 0.433773 0.511879
vt 0.325907 0.495760
vt 0.514755 0.917291
vt 0.534371 0.690557
vt 0.563162 0.505946
vt 0.360237 0.365061
vt 0.461342 0.359851
vt 0.578772 0.349140
vt 0.087913 0.641033
vt 0.162987 0.463686
vt 0.011586 0.840673
vt 0.679617 0.919646
vt 0.687183 0.694160
vt 0.872366 0.923472
vt 0.889091 0.696243
vt 0.799500 0.540482
vt 0.690759 0.485918
vt 0.807396 0.455559
vt 0.690042 0.342086
vt 0.949938 0.403055
vt 0.922929 0.537857
vt 0.848244 0.372651
vt 0.975291 0.302371
vt 0.687502 0.227073
vt 0.588543 0.222288
vt 0.815955 0.293258
vt 0.592650 0.118852
vt 0.473832 0.111031
vt 0.482430 0.239811
vt 0.687630 0.132681
vt 0.774218 0.251881
vt 0.797006 0.152813
vt 0.904521 0.180915
vt 0.989020 0.211586
vt 0.881565 0.279909
vt 0.397279 0.104793
vt 0.375019 0.278211
vt 0.252896 0.225454
vt 0.319823 0.069404
vt 0.202643 0.352546
vn 0.707735 -0.213474 0.673454
vn 0.674959 -0.264139 0.688956
vn 0.826871 -0.213678 0.520217
vn 0.845784 -0.187975 0.499315
vn 0.610198 -0.290380 0.737115
vn 0.796801 -0.230556 0.558527
vn 0.527680 -0.265280 0.806957
vn 0.491306 -0.334090 0.804364
vn 0.417927 -0.344987 0.840429
vn 0.773084 -0.186625 0.606228
vn 0.562147 -0.206551 0.800829
vn 0.400151 -0.196666 0.895099
vn 0.870368 -0.199511 0.450172
vn 0.840733 -0.212006 0.498219
vn 0.886475 -0.184786 0.424284
vn 0.351612 -0.296946 0.887802
vn 0.351843 -0.361846 0.863293
vn 0.275475 -0.299799 0.913364
vn 0.272386 -0.355382 0.894153
vn 0.292592 -0.434525 0.851809
vn 0.340957 -0.363420 0.866992
vn 0.345156 -0.263164 0.900895
vn 0.332379 -0.172187 0.927295
vn 0.424267 -0.222027 0.877896
vn 0.346417 -0.366170 0.863664
vn 0.376233 -0.172179 0.910386
vn 0.509527 0.046924 0.859174
vn 0.393702 -0.000196 0.919238
vn 0.433677 -0.036939 0.900311
vn 0.335536 -0.077029 0.938873
vn 0.440370 0.125549 0.888995
vn 0.536915 0.078175 0.840006
vn 0.541631 -0.048987 0.839188
vn 0.421008 0.151440 0.894325
vn 0.385904 0.044281 0.921475
vn 0.421098 0.151717 0.894236
vn 0.464939 0.136142 0.874813
vn 0.515897 0.119855 0.848225
vn 0.463615 0.087311 0.881724
vn 0.794759 -0.018000 0.606658
vn 0.776250 -0.097040 0.622911
vn 0.863648 -0.103904 0.493271
vn 0.892124 -0.066301 0.446900
vn 0.827195 -0.179172 0.532583
usemtl material
f 1/0/1 2/0/2 3/0/3
f 1/0/1 3/0/3 4/0/4
f 3/0/3 2/0/2 5/0/5
f 3/0/3 5/0/5 6/0/6
f 7/0/7 2/0/2 1/0/1
f 7/0/7 8/0/8 2/0/2
f 2/0/2 8/0/8 9/0/9
f 2/0/2 9/0/9 5/0/5
f 10/0/10 6/0/6 5/0/5
f 10/0/10 5/0/5 11/0/11
f 11/0/11 5/0/5 9/0/9
f 11/0/11 9/0/9 12/0/12
f 6/0/6 13/0/13 3/0/3
f 13/0/13 4/0/4 3/0/3
f 6/0/6 14/0/14 13/0/13
f 13/0/13 15/0/15 4/0/4
f 16/0/16 8/0/8 7/0/7
f 16/0/16 17/0/17 8/0/8
f 18/0/18 17/0/17 16/0/16
f 18/0/18 19/0/19 17/0/17
f 19/0/19 20/0/20 17/0/17
f 17/0/17 20/0/20 21/0/21
f 8/0/8 17/0/17 21/0/21
f 8/0/8 21/0/21 9/0/9
f 21/0/21 20/0/20 22/0/22
f 22/0/22 23/0/23 21/0/21
f 9/0/9 21/0/21 23/0/23
f 9/0/9 23/0/23 12/0/12
f 20/0/20 24/0/24 22/0/22
f 20/0/20 25/0/25 24/0/24
f 19/0/19 25/0/25 20/0/20
f 26/0/26 22/0/22 24/0/24
f 23/0/23 22/0/22 26/0/26
f 26/0/26 24/0/24 27/0/27
f 28/0/28 12/0/12 23/0/23
f 28/0/28 29/0/29 12/0/12
f 23/0/23 26/0/26 30/0/30
f 30/0/30 28/0/28 23/0/23
f 28/0/28 31/0/31 29/0/29
f 29/0/29 31/0/31 32/0/32
f 29/0/29 32/0/32 33/0/33
f 33/0/33 12/0/12 29/0/29
f 28/0/28 34/0/34 31/0/31
f 34/0/34 28/0/28 35/0/35
f 30/0/30 35/0/35 28/0/28
f 34/0/34 35/0/35 36/0/36
f 35/0/35 37/0/37 36/0/36
f 27/0/27 38/0/38 37/0/37
f 27/0/27 37/0/37 39/0/39
f 35/0/35 39/0/39 37/0/37
f 35/0/35 30/0/30 39/0/39
f 39/0/39 26/0/26 27/0/27
f 30/0/30 26/0/26 39/0/39
f 33/0/33 11/0/11 12/0/12
f 40/0/40 33/0/33 32/0/32
f 40/0/40 41/0/41 33/0/33
f 11/0/11 33/0/33 41/0/41
f 42/0/42 41/0/41 40/0/40
f 42/0/42 40/0/40 43/0/43
f 42/0/42 10/0/10 41/0/41
f 11/0/11 41/0/41 10/0/10
f 42/0/42 44/0/44 10/0/10
f 44/0/44 6/0/6 10/0/10
f 44/0/44 14/0/14 6/0/6
