# 
# Wavefront OBJ file
# Created with Kaydara FBX
# 
mtllib eye_r.mtl

g Eye_R
v 0.064926 1.438679 0.028486
v 0.063130 1.424572 0.026792
v 0.074049 1.422359 0.013817
v 0.076768 1.436951 0.014301
v 0.061349 1.414248 0.023294
v 0.069201 1.410735 0.013420
v 0.049556 1.415552 0.031121
v 0.050974 1.425101 0.033959
v 0.052859 1.438394 0.037800
v 0.064926 1.438679 0.028486
v 0.067984 1.398282 0.012366
v 0.059402 1.399747 0.023256
v 0.059402 1.399747 0.023256
v 0.048494 1.400520 0.030171
v 0.081254 1.420177 0.002231
v 0.076712 1.408128 0.004010
v 0.036659 1.414380 0.034733
v 0.035862 1.423501 0.042130
v 0.027606 1.413403 0.040365
v 0.024790 1.404707 0.037415
v 0.019002 1.421138 0.051870
v 0.020249 1.438066 0.052830
v 0.037207 1.438623 0.045510
v 0.007932 1.420750 0.056153
v 0.008435 1.437956 0.057380
v 0.007414 1.408603 0.051762
v 0.015990 1.409870 0.047730
v 0.036689 1.399889 0.033099
v 0.039074 1.382281 0.030793
v 0.047045 1.381741 0.027481
v 0.020863 1.462892 0.051721
v 0.037968 1.461944 0.045299
v 0.052859 1.438394 0.037800
v 0.053553 1.460446 0.036108
v 0.056245 1.383999 0.022912
v 0.008759 1.462879 0.055618
v 0.046202 1.372792 0.029730
v 0.055647 1.372471 0.023887
v 0.056245 1.383999 0.022912
v 0.039074 1.382281 0.030793
v 0.046202 1.372792 0.029730
v 0.037283 1.374172 0.033854
v 0.037283 1.374172 0.033854
v 0.030600 1.386006 0.033719
v 0.027057 1.376094 0.036870
v 0.026598 1.391469 0.034916
v 0.020292 1.387004 0.036398
v 0.024155 1.398808 0.036655
v 0.013390 1.400112 0.043192
v 0.011341 1.389519 0.043354
v 0.020292 1.387004 0.036398
v 0.017547 1.378677 0.039995
v 0.027057 1.376094 0.036870
v 0.076963 1.392749 -0.014687
v 0.080971 1.405262 -0.016313
v 0.073883 1.397608 0.004425
v 0.072941 1.379613 -0.012439
v 0.071879 1.383845 0.002683
v 0.085836 1.417606 -0.018063
v 0.063659 1.387414 0.013484
v 0.064503 1.372276 0.015039
v 0.063659 1.387414 0.013484
v 0.055647 1.372471 0.023887
v 0.071879 1.383845 0.002683
v 0.069252 1.371222 0.003321
v 0.066627 1.458352 0.025817
v 0.066627 1.458352 0.025817
v 0.077393 1.455321 0.013815
vt 0.372217 0.748943
vt 0.376077 0.595352
vt 0.260539 0.565847
vt 0.235722 0.740671
vt 0.380765 0.467957
vt 0.291147 0.426871
vt 0.515329 0.488362
vt 0.508987 0.604176
vt 0.484997 0.745358
vt 0.372217 0.748943
vt 0.304935 0.292306
vt 0.403100 0.308851
vt 0.403100 0.308851
vt 0.527462 0.317675
vt 0.153549 0.541030
vt 0.205390 0.404259
vt 0.662578 0.475126
vt 0.686293 0.580462
vt 0.765983 0.464096
vt 0.798246 0.365379
vt 0.864425 0.552059
vt 0.846777 0.743704
vt 0.670575 0.749495
vt 0.990717 0.547648
vt 0.999265 0.731020
vt 0.996784 0.409498
vt 0.898618 0.423837
vt 0.662303 0.310505
vt 0.635004 0.110589
vt 0.544007 0.104522
vt 0.825269 1.016417
vt 0.649894 1.005388
vt 0.484997 0.745358
vt 0.466522 0.977537
vt 0.438947 0.130167
vt 0.995405 1.023036
vt 0.590057 0.037240
vt 0.488030 0.029795
vt 0.438947 0.130167
vt 0.635004 0.110589
vt 0.590057 0.037240
vt 0.685741 0.047718
vt 0.685741 0.047718
vt 0.731791 0.153054
vt 0.782804 0.073087
vt 0.777565 0.215097
vt 0.849535 0.164359
vt 0.805415 0.298372
vt 0.928398 0.313263
vt 0.947701 0.190555
vt 0.849535 0.164359
vt 0.874076 0.083290
vt 0.782804 0.073087
vt 0.106397 0.184765
vt 0.054005 0.323190
vt 0.237652 0.284585
vt 0.156307 0.065091
vt 0.256679 0.146160
vt -0.019895 0.449482
vt 0.354293 0.169047
vt 0.379662 0.027313
vt 0.354293 0.169047
vt 0.488030 0.029795
vt 0.256679 0.146160
vt 0.289768 0.028416
vt 0.332785 0.959338
vt 0.332785 0.959338
vt 0.188018 0.912461
vn 0.674885 -0.088029 0.732654
vn 0.621992 -0.268237 0.735646
vn 0.733201 -0.252775 0.631286
vn 0.753579 -0.079478 0.652535
vn 0.629567 -0.218174 0.745685
vn 0.748806 -0.215414 0.626806
vn 0.424447 -0.246388 0.871285
vn 0.467785 -0.324956 0.821937
vn 0.529319 -0.110205 0.841235
vn 0.674885 -0.088029 0.732654
vn 0.771097 -0.178883 0.611073
vn 0.655689 -0.137644 0.742379
vn 0.655689 -0.137644 0.742379
vn 0.402771 -0.110993 0.908546
vn 0.854285 -0.298208 0.425757
vn 0.865730 -0.254979 0.430694
vn 0.400450 -0.328225 0.855516
vn 0.458911 -0.388916 0.798840
vn 0.527279 -0.460369 0.714169
vn 0.462302 -0.296124 0.835815
vn 0.461475 -0.312532 0.830280
vn 0.382420 -0.042882 0.922993
vn 0.443260 -0.097548 0.891069
vn 0.378907 -0.224883 0.897696
vn 0.347170 -0.015004 0.937682
vn 0.388654 -0.366577 0.845322
vn 0.522472 -0.420369 0.741831
vn 0.281499 -0.113164 0.952865
vn 0.337343 0.057410 0.939630
vn 0.428531 0.013120 0.903432
vn 0.353454 0.031424 0.934924
vn 0.426146 0.018182 0.904472
vn 0.529319 -0.110205 0.841235
vn 0.548492 0.034300 0.835452
vn 0.639565 -0.043368 0.767512
vn 0.332400 0.048091 0.941912
vn 0.446147 0.158115 0.880881
vn 0.616377 0.088385 0.782475
vn 0.639565 -0.043368 0.767512
vn 0.337343 0.057410 0.939630
vn 0.446147 0.158115 0.880881
vn 0.383678 0.210873 0.899068
vn 0.383678 0.210873 0.899068
vn 0.297630 0.085972 0.950802
vn 0.332578 0.221589 0.916673
vn 0.275692 -0.089036 0.957114
vn 0.366781 -0.030765 0.929799
vn 0.410989 -0.144090 0.900181
vn 0.525246 -0.243243 0.815444
vn 0.538543 -0.144239 0.830160
vn 0.366781 -0.030765 0.929799
vn 0.311898 0.233246 0.921041
vn 0.332578 0.221589 0.916673
vn 0.951187 -0.235677 0.199247
vn 0.928380 -0.288770 0.233930
vn 0.860220 -0.217319 0.461297
vn 0.961834 -0.212224 0.172731
vn 0.882593 -0.143020 0.447855
vn 0.916510 -0.318418 0.242115
vn 0.788158 -0.117482 0.604157
vn 0.807197 0.027406 0.589645
vn 0.788158 -0.117482 0.604157
vn 0.616377 0.088385 0.782475
vn 0.882593 -0.143020 0.447855
vn 0.865036 -0.015946 0.501457
vn 0.690381 0.027427 0.722925
vn 0.690381 0.027427 0.722925
vn 0.757613 0.007804 0.652657
usemtl material
f 1/0/1 2/0/2 3/0/3
f 1/0/1 3/0/3 4/0/4
f 3/0/3 2/0/2 5/0/5
f 3/0/3 5/0/5 6/0/6
f 2/0/2 7/0/7 5/0/5
f 2/0/2 8/0/8 7/0/7
f 9/0/9 8/0/8 2/0/2
f 9/0/9 2/0/2 10/0/10
f 11/0/11 6/0/6 5/0/5
f 11/0/11 5/0/5 12/0/12
f 13/0/13 5/0/5 7/0/7
f 13/0/13 7/0/7 14/0/14
f 6/0/6 15/0/15 3/0/3
f 6/0/6 16/0/16 15/0/15
f 8/0/8 17/0/17 7/0/7
f 8/0/8 18/0/18 17/0/17
f 18/0/18 19/0/19 17/0/17
f 17/0/17 19/0/19 20/0/20
f 21/0/21 19/0/19 18/0/18
f 22/0/22 21/0/21 18/0/18
f 22/0/22 18/0/18 23/0/23
f 23/0/23 18/0/18 8/0/8
f 22/0/22 24/0/24 21/0/21
f 22/0/22 25/0/25 24/0/24
f 21/0/21 24/0/24 26/0/26
f 21/0/21 26/0/26 27/0/27
f 19/0/19 27/0/27 20/0/20
f 21/0/21 27/0/27 19/0/19
f 20/0/20 28/0/28 17/0/17
f 29/0/29 14/0/14 28/0/28
f 29/0/29 30/0/30 14/0/14
f 31/0/31 22/0/22 23/0/23
f 25/0/25 22/0/22 31/0/31
f 31/0/31 23/0/23 32/0/32
f 32/0/32 23/0/23 33/0/33
f 32/0/32 33/0/33 34/0/34
f 23/0/23 8/0/8 33/0/33
f 35/0/35 14/0/14 30/0/30
f 35/0/35 13/0/13 14/0/14
f 7/0/7 28/0/28 14/0/14
f 7/0/7 17/0/17 28/0/28
f 25/0/25 31/0/31 36/0/36
f 30/0/30 37/0/37 38/0/38
f 30/0/30 38/0/38 39/0/39
f 40/0/40 41/0/41 30/0/30
f 40/0/40 42/0/42 41/0/41
f 43/0/43 40/0/40 44/0/44
f 43/0/43 44/0/44 45/0/45
f 46/0/46 44/0/44 40/0/40
f 44/0/44 46/0/46 47/0/47
f 46/0/46 48/0/48 47/0/47
f 28/0/28 48/0/48 46/0/46
f 46/0/46 40/0/40 28/0/28
f 28/0/28 20/0/20 48/0/48
f 48/0/48 20/0/20 49/0/49
f 48/0/48 49/0/49 50/0/50
f 51/0/51 48/0/48 50/0/50
f 44/0/44 51/0/51 52/0/52
f 44/0/44 52/0/52 53/0/53
f 27/0/27 49/0/49 20/0/20
f 54/0/54 55/0/55 16/0/16
f 54/0/54 16/0/16 56/0/56
f 56/0/56 57/0/57 54/0/54
f 56/0/56 58/0/58 57/0/57
f 15/0/15 16/0/16 55/0/55
f 15/0/15 55/0/55 59/0/59
f 56/0/56 16/0/16 6/0/6
f 56/0/56 6/0/6 11/0/11
f 56/0/56 11/0/11 60/0/60
f 12/0/12 60/0/60 11/0/11
f 12/0/12 39/0/39 60/0/60
f 61/0/61 62/0/62 39/0/39
f 61/0/61 39/0/39 63/0/63
f 64/0/64 62/0/62 61/0/61
f 64/0/64 56/0/56 62/0/62
f 64/0/64 61/0/61 65/0/65
f 1/0/1 66/0/66 34/0/34
f 1/0/1 34/0/34 9/0/9
f 67/0/67 1/0/1 4/0/4
f 67/0/67 4/0/4 68/0/68
