# 
# Wavefront OBJ file
# Created with Kaydara FBX
# 
mtllib eye_r #2214111.mtl

g Eye_R
v 0.067125 1.419387 0.113859
v 0.064110 1.399728 0.111797
v 0.074060 1.399297 0.097889
v 0.079063 1.417936 0.097435
v 0.060395 1.383672 0.107491
v 0.069211 1.382177 0.097280
v 0.053557 1.420441 0.126875
v 0.050985 1.400049 0.121106
v 0.048311 1.383152 0.113453
v 0.065989 1.370217 0.097401
v 0.057734 1.369758 0.105596
v 0.046826 1.368799 0.110828
v 0.083523 1.398315 0.079571
v 0.078846 1.380738 0.081130
v 0.087377 1.415706 0.077211
v 0.037702 1.421049 0.135302
v 0.037021 1.400406 0.128706
v 0.020523 1.421434 0.140584
v 0.019012 1.400634 0.134238
v 0.026931 1.386357 0.122748
v 0.036670 1.381342 0.117082
v 0.026213 1.378584 0.119764
v 0.036699 1.368173 0.114568
v 0.013599 1.373802 0.124570
v 0.016000 1.386139 0.126498
v 0.022569 1.371001 0.119082
v 0.011352 1.364589 0.124806
v 0.036891 1.357643 0.112725
v 0.045871 1.357187 0.108744
v 0.025418 1.363726 0.117437
v 0.045424 1.347721 0.110382
v 0.056361 1.346980 0.104586
v 0.055679 1.358772 0.103738
v 0.036842 1.349001 0.114331
v 0.029124 1.359930 0.116101
v 0.027068 1.350864 0.118550
v 0.017557 1.353457 0.122605
v 0.010130 1.356280 0.126741
v 0.019603 1.362516 0.120098
v 0.064513 1.345875 0.098087
v 0.055679 1.358772 0.103738
v 0.064503 1.362268 0.097505
v 0.071889 1.358172 0.085186
v 0.067818 1.344162 0.088202
v 0.075444 1.370031 0.082953
vt 0.361400 0.911691
vt 0.394619 0.687335
vt 0.261997 0.680750
vt 0.199901 0.897086
vt 0.433773 0.511879
vt 0.325907 0.495760
vt 0.514755 0.917291
vt 0.534371 0.690557
vt 0.563162 0.505946
vt 0.360237 0.365061
vt 0.461342 0.359851
vt 0.578772 0.349140
vt 0.087913 0.641033
vt 0.162987 0.463686
vt 0.011586 0.840673
vt 0.679617 0.919646
vt 0.687183 0.694160
vt 0.872366 0.923472
vt 0.889091 0.696243
vt 0.799500 0.540482
vt 0.690759 0.485918
vt 0.807396 0.455559
vt 0.690042 0.342086
vt 0.949938 0.403055
vt 0.922929 0.537857
vt 0.848244 0.372651
vt 0.975291 0.302371
vt 0.687502 0.227073
vt 0.588543 0.222288
vt 0.815955 0.293258
vt 0.592650 0.118852
vt 0.473832 0.111031
vt 0.482430 0.239811
vt 0.687630 0.132681
vt 0.774218 0.251881
vt 0.797006 0.152813
vt 0.904521 0.180915
vt 0.989020 0.211586
vt 0.881565 0.279909
vt 0.397279 0.104793
vt 0.482430 0.239811
vt 0.375019 0.278211
vt 0.252896 0.225454
vt 0.319823 0.069404
vt 0.202643 0.352546
vn 0.739539 -0.106259 0.664673
vn 0.668061 -0.275079 0.691394
vn 0.821459 -0.220043 0.526104
vn 0.864131 -0.095713 0.494081
vn 0.605054 -0.273259 0.747823
vn 0.786551 -0.227446 0.574113
vn 0.565263 -0.130673 0.814495
vn 0.484476 -0.344174 0.804256
vn 0.412162 -0.312117 0.855982
vn 0.760990 -0.186514 0.621375
vn 0.572221 -0.205837 0.793848
vn 0.399882 -0.195398 0.895497
vn 0.928329 -0.214619 0.303551
vn 0.912453 -0.244929 0.327779
vn 0.957658 -0.104391 0.268317
vn 0.375076 -0.140371 0.916304
vn 0.354889 -0.258813 0.898371
vn 0.229767 -0.135241 0.963803
vn 0.295750 -0.191317 0.935911
vn 0.331624 -0.223196 0.916629
vn 0.312055 -0.345557 0.884993
vn 0.365666 -0.183270 0.912524
vn 0.309974 -0.163279 0.936620
vn 0.425833 -0.089386 0.900376
vn 0.353034 -0.174508 0.919192
vn 0.417274 -0.066196 0.906367
vn 0.506695 0.001172 0.862124
vn 0.388359 0.001927 0.921506
vn 0.430713 -0.032633 0.901899
vn 0.391533 -0.043956 0.919114
vn 0.456851 0.113228 0.882308
vn 0.558282 0.036680 0.828840
vn 0.549479 -0.060578 0.833308
vn 0.431164 0.155665 0.888744
vn 0.409172 0.022660 0.912176
vn 0.450403 0.092359 0.888035
vn 0.536482 0.084623 0.839658
vn 0.617580 0.102722 0.779771
vn 0.443520 0.007117 0.896236
vn 0.794766 -0.096879 0.599134
vn 0.549479 -0.060578 0.833308
vn 0.759596 -0.088909 0.644289
vn 0.930822 -0.202292 0.304381
vn 0.936552 -0.264396 0.230143
vn 0.912018 -0.233891 0.336925
usemtl material
f 1/0/1 2/0/2 3/0/3
f 1/0/1 3/0/3 4/0/4
f 3/0/3 2/0/2 5/0/5
f 3/0/3 5/0/5 6/0/6
f 7/0/7 2/0/2 1/0/1
f 7/0/7 8/0/8 2/0/2
f 2/0/2 8/0/8 9/0/9
f 2/0/2 9/0/9 5/0/5
f 10/0/10 6/0/6 5/0/5
f 10/0/10 5/0/5 11/0/11
f 11/0/11 5/0/5 9/0/9
f 11/0/11 9/0/9 12/0/12
f 6/0/6 13/0/13 3/0/3
f 13/0/13 4/0/4 3/0/3
f 6/0/6 14/0/14 13/0/13
f 13/0/13 15/0/15 4/0/4
f 16/0/16 8/0/8 7/0/7
f 16/0/16 17/0/17 8/0/8
f 18/0/18 17/0/17 16/0/16
f 18/0/18 19/0/19 17/0/17
f 19/0/19 20/0/20 17/0/17
f 17/0/17 20/0/20 21/0/21
f 8/0/8 17/0/17 21/0/21
f 8/0/8 21/0/21 9/0/9
f 21/0/21 20/0/20 22/0/22
f 22/0/22 23/0/23 21/0/21
f 9/0/9 21/0/21 23/0/23
f 9/0/9 23/0/23 12/0/12
f 20/0/20 24/0/24 22/0/22
f 20/0/20 25/0/25 24/0/24
f 19/0/19 25/0/25 20/0/20
f 26/0/26 22/0/22 24/0/24
f 23/0/23 22/0/22 26/0/26
f 26/0/26 24/0/24 27/0/27
f 28/0/28 12/0/12 23/0/23
f 28/0/28 29/0/29 12/0/12
f 23/0/23 26/0/26 30/0/30
f 30/0/30 28/0/28 23/0/23
f 28/0/28 31/0/31 29/0/29
f 29/0/29 31/0/31 32/0/32
f 29/0/29 32/0/32 33/0/33
f 33/0/33 12/0/12 29/0/29
f 28/0/28 34/0/34 31/0/31
f 34/0/34 28/0/28 35/0/35
f 30/0/30 35/0/35 28/0/28
f 34/0/34 35/0/35 36/0/36
f 35/0/35 37/0/37 36/0/36
f 27/0/27 38/0/38 37/0/37
f 27/0/27 37/0/37 39/0/39
f 35/0/35 39/0/39 37/0/37
f 35/0/35 30/0/30 39/0/39
f 39/0/39 26/0/26 27/0/27
f 30/0/30 26/0/26 39/0/39
f 33/0/33 11/0/11 12/0/12
f 40/0/40 41/0/41 32/0/32
f 40/0/40 42/0/42 41/0/41
f 11/0/11 41/0/41 42/0/42
f 43/0/43 42/0/42 40/0/40
f 43/0/43 40/0/40 44/0/44
f 43/0/43 10/0/10 42/0/42
f 11/0/11 42/0/42 10/0/10
f 43/0/43 45/0/45 10/0/10
f 45/0/45 6/0/6 10/0/10
f 45/0/45 14/0/14 6/0/6
