# 
# Wavefront OBJ file
# Created with Kaydara FBX
# 
mtllib eye_l #221483.mtl

g Eye_L
v -0.063818 1.654558 0.076120
v -0.074109 1.653333 0.057346
v -0.072498 1.633646 0.058755
v -0.062460 1.632971 0.078172
v -0.061253 1.617303 0.075189
v -0.069173 1.616369 0.060525
v -0.051442 1.652668 0.090799
v -0.051710 1.631630 0.090459
v -0.050538 1.617211 0.085902
v -0.064783 1.605001 0.061920
v -0.058081 1.605362 0.072935
v -0.062069 1.596956 0.062198
v -0.056240 1.595609 0.070959
v -0.048847 1.605210 0.081526
v -0.076809 1.628941 0.038166
v -0.080518 1.652562 0.039189
v -0.037104 1.651199 0.104544
v -0.037487 1.630628 0.100430
v -0.017318 1.650136 0.113448
v -0.015581 1.629149 0.108936
v -0.021599 1.615506 0.099090
v -0.012867 1.614147 0.103559
v -0.006697 1.613378 0.105320
v -0.010469 1.603503 0.096770
v -0.020022 1.605089 0.091277
v -0.035775 1.617111 0.093432
v -0.035699 1.604996 0.087307
v -0.004712 1.603126 0.100427
v -0.004086 1.593317 0.098240
v -0.008976 1.592288 0.094766
v -0.018921 1.597001 0.089330
v -0.016356 1.587805 0.090613
v -0.025753 1.595941 0.086416
v -0.036044 1.594974 0.083779
v -0.036137 1.583604 0.084329
v -0.024527 1.585907 0.088140
v -0.047477 1.594983 0.079637
v -0.046376 1.582211 0.079400
v -0.055464 1.582053 0.070147
v -0.061667 1.585411 0.058103
v -0.066210 1.594292 0.049798
v -0.070598 1.604681 0.042898
v -0.073831 1.613520 0.040390
vt 0.699775 0.957061
vt 0.890783 0.901340
vt 0.809549 0.729447
vt 0.667868 0.735521
vt 0.653466 0.562465
vt 0.776617 0.542819
vt 0.546836 0.946083
vt 0.536617 0.726094
vt 0.535859 0.558927
vt 0.740537 0.407002
vt 0.633660 0.415595
vt 0.703127 0.306302
vt 0.626093 0.290319
vt 0.519194 0.408271
vt 1.002088 0.600291
vt 1.063160 0.829662
vt 0.387866 0.934440
vt 0.383442 0.714892
vt 0.161880 0.923463
vt 0.139926 0.703914
vt 0.190654 0.549284
vt 0.106993 0.538764
vt 0.030151 0.527683
vt 0.074061 0.400415
vt 0.168700 0.417717
vt 0.376273 0.558927
vt 0.378842 0.407684
vt 0.008196 0.400415
vt -0.002781 0.294976
vt 0.063084 0.283895
vt 0.157722 0.321234
vt 0.139926 0.240131
vt 0.238871 0.301045
vt 0.382286 0.284727
vt 0.384116 0.180247
vt 0.238723 0.205795
vt 0.504187 0.282038
vt 0.492544 0.162001
vt 0.618890 0.159875
vt 0.715365 0.173756
vt 0.812489 0.248999
vt 0.898748 0.354707
vt 0.946772 0.445383
vn -0.836218 -0.011397 0.548279
vn -0.924317 -0.070855 0.374990
vn -0.921052 -0.094664 0.377759
vn -0.822479 -0.075433 0.563771
vn -0.797483 -0.221820 0.561085
vn -0.902461 -0.207865 0.377301
vn -0.704153 -0.031648 0.709342
vn -0.668732 -0.143216 0.729579
vn -0.577319 -0.327151 0.748115
vn -0.881840 -0.272281 0.384994
vn -0.748971 -0.285676 0.597856
vn -0.887197 -0.213503 0.409020
vn -0.751905 -0.165541 0.638150
vn -0.530518 -0.319768 0.785047
vn -0.955165 -0.127704 0.267119
vn -0.953167 -0.114589 0.279896
vn -0.502213 -0.146596 0.852227
vn -0.492513 -0.230331 0.839272
vn -0.387914 -0.199412 0.899865
vn -0.388550 -0.286679 0.875697
vn -0.398524 -0.480629 0.781137
vn -0.401168 -0.469289 0.786659
vn -0.369997 -0.472812 0.799719
vn -0.482909 -0.428918 0.763432
vn -0.368839 -0.465114 0.804753
vn -0.412941 -0.418451 0.808937
vn -0.319584 -0.359113 0.876872
vn -0.465160 -0.381343 0.798877
vn -0.534034 -0.216718 0.817216
vn -0.530639 -0.179135 0.828452
vn -0.459807 -0.150626 0.875151
vn -0.416079 0.036489 0.908596
vn -0.269927 -0.146896 0.951610
vn -0.326990 -0.126103 0.936576
vn -0.347680 0.033616 0.937010
vn -0.298453 0.095329 0.949652
vn -0.554916 -0.144951 0.819181
vn -0.571814 -0.045359 0.819128
vn -0.762801 -0.096593 0.639378
vn -0.907239 -0.168341 0.385459
vn -0.922148 -0.218962 0.318903
vn -0.918605 -0.277527 0.281324
vn -0.939256 -0.226879 0.257534
usemtl material
f 1/0/1 2/0/2 3/0/3
f 1/0/1 3/0/3 4/0/4
f 3/0/3 5/0/5 4/0/4
f 3/0/3 6/0/6 5/0/5
f 7/0/7 1/0/1 4/0/4
f 7/0/7 4/0/4 8/0/8
f 4/0/4 5/0/5 9/0/9
f 4/0/4 9/0/9 8/0/8
f 10/0/10 5/0/5 6/0/6
f 10/0/10 11/0/11 5/0/5
f 11/0/11 9/0/9 5/0/5
f 11/0/11 10/0/10 12/0/12
f 11/0/11 12/0/12 13/0/13
f 11/0/11 14/0/14 9/0/9
f 13/0/13 14/0/14 11/0/11
f 6/0/6 3/0/3 15/0/15
f 15/0/15 3/0/3 2/0/2
f 15/0/15 2/0/2 16/0/16
f 17/0/17 7/0/7 8/0/8
f 17/0/17 8/0/8 18/0/18
f 19/0/19 17/0/17 18/0/18
f 19/0/19 18/0/18 20/0/20
f 20/0/20 18/0/18 21/0/21
f 20/0/20 21/0/21 22/0/22
f 20/0/20 22/0/22 23/0/23
f 21/0/21 24/0/24 22/0/22
f 24/0/24 23/0/23 22/0/22
f 21/0/21 25/0/25 24/0/24
f 26/0/26 25/0/25 21/0/21
f 18/0/18 26/0/26 21/0/21
f 25/0/25 26/0/26 27/0/27
f 24/0/24 28/0/28 23/0/23
f 29/0/29 28/0/28 24/0/24
f 29/0/29 24/0/24 30/0/30
f 31/0/31 30/0/30 24/0/24
f 31/0/31 24/0/24 25/0/25
f 31/0/31 32/0/32 30/0/30
f 27/0/27 33/0/33 25/0/25
f 33/0/33 32/0/32 31/0/31
f 25/0/25 33/0/33 31/0/31
f 27/0/27 34/0/34 33/0/33
f 35/0/35 33/0/33 34/0/34
f 35/0/35 36/0/36 33/0/33
f 33/0/33 36/0/36 32/0/32
f 34/0/34 27/0/27 14/0/14
f 34/0/34 14/0/14 37/0/37
f 34/0/34 37/0/37 38/0/38
f 34/0/34 38/0/38 35/0/35
f 37/0/37 39/0/39 38/0/38
f 37/0/37 13/0/13 39/0/39
f 13/0/13 37/0/37 14/0/14
f 9/0/9 14/0/14 27/0/27
f 9/0/9 27/0/27 26/0/26
f 8/0/8 9/0/9 26/0/26
f 8/0/8 26/0/26 18/0/18
f 12/0/12 39/0/39 13/0/13
f 40/0/40 39/0/39 12/0/12
f 40/0/40 12/0/12 41/0/41
f 41/0/41 12/0/12 10/0/10
f 41/0/41 10/0/10 42/0/42
f 42/0/42 10/0/10 6/0/6
f 42/0/42 6/0/6 43/0/43
f 6/0/6 15/0/15 43/0/43
