# 
# Wavefront OBJ file
# Created with Kaydara FBX
# 
mtllib eye_r #2215405.mtl

g Eye_R
v 0.063818 1.654558 0.076120
v 0.062460 1.632971 0.078172
v 0.072498 1.633646 0.058755
v 0.074109 1.653333 0.057346
v 0.061253 1.617303 0.075189
v 0.069173 1.616369 0.060525
v 0.051442 1.652668 0.090799
v 0.051710 1.631630 0.090459
v 0.050538 1.617211 0.085902
v 0.061253 1.617303 0.075189
v 0.058081 1.605362 0.072935
v 0.048847 1.605210 0.081526
v 0.037104 1.651199 0.104544
v 0.037487 1.630628 0.100430
v 0.017318 1.650136 0.113448
v 0.015581 1.629149 0.108936
v 0.035775 1.617111 0.093432
v 0.021599 1.615506 0.099090
v 0.020022 1.605089 0.091277
v 0.035699 1.604996 0.087307
v 0.036044 1.594974 0.083779
v 0.047477 1.594983 0.079637
v 0.025753 1.595941 0.086416
v 0.036137 1.583604 0.084329
v 0.024527 1.585907 0.088140
v 0.016356 1.587805 0.090613
v 0.018921 1.597001 0.089330
v 0.046376 1.582211 0.079400
v 0.055464 1.582053 0.070147
v 0.056240 1.595609 0.070959
v 0.018921 1.597001 0.089330
v 0.010469 1.603503 0.096770
v 0.021599 1.615506 0.099090
v 0.012867 1.614147 0.103559
v 0.015581 1.629149 0.108936
v 0.006697 1.613378 0.105320
v 0.004712 1.603126 0.100427
v 0.004086 1.593317 0.098240
v 0.008976 1.592288 0.094766
v 0.056240 1.595609 0.070959
v 0.062069 1.596956 0.062198
v 0.064783 1.605001 0.061920
v 0.066210 1.594292 0.049798
v 0.070598 1.604681 0.042898
v 0.073831 1.613520 0.040390
v 0.076809 1.628941 0.038166
v 0.072498 1.633646 0.058755
v 0.074109 1.653333 0.057346
v 0.080518 1.652562 0.039189
v 0.069173 1.616369 0.060525
v 0.058081 1.605362 0.072935
v 0.061667 1.585411 0.058103
v 0.062069 1.596956 0.062198
v 0.061667 1.585411 0.058103
v 0.055464 1.582053 0.070147
vt 0.306546 0.958766
vt 0.338205 0.736342
vt 0.197621 0.730244
vt 0.117016 0.902822
vt 0.352496 0.562595
vt 0.230298 0.542870
vt 0.458300 0.947745
vt 0.468441 0.726877
vt 0.469193 0.559043
vt 0.352496 0.562595
vt 0.372149 0.415138
vt 0.485729 0.407785
vt 0.616041 0.936055
vt 0.620431 0.715630
vt 0.840278 0.925034
vt 0.862063 0.704609
vt 0.627544 0.559043
vt 0.811726 0.549361
vt 0.833511 0.417269
vt 0.624995 0.407196
vt 0.621577 0.283748
vt 0.500620 0.281049
vt 0.763883 0.300131
vt 0.619762 0.178851
vt 0.764030 0.204501
vt 0.862063 0.238974
vt 0.844404 0.320401
vt 0.512172 0.160532
vt 0.386805 0.158398
vt 0.379657 0.289362
vt 0.844404 0.320401
vt 0.927418 0.399898
vt 0.811726 0.549361
vt 0.894740 0.538800
vt 0.862063 0.704609
vt 0.970988 0.527674
vt 0.992773 0.399898
vt 1.003665 0.294038
vt 0.938310 0.282913
vt 0.379657 0.289362
vt 0.303219 0.305409
vt 0.266098 0.406511
vt 0.194703 0.247877
vt 0.109112 0.354007
vt 0.061460 0.445046
vt 0.006572 0.600572
vt 0.197621 0.730244
vt 0.117016 0.902822
vt -0.054029 0.830858
vt 0.230298 0.542870
vt 0.372149 0.415138
vt 0.291076 0.172334
vt 0.303219 0.305409
vt 0.291076 0.172334
vt 0.386805 0.158398
vn 0.814649 -0.000234 0.579954
vn 0.815994 -0.001346 0.578059
vn 0.922890 -0.001339 0.385061
vn 0.907068 -0.000640 0.420984
vn 0.805356 -0.002405 0.592787
vn 0.933217 -0.002098 0.359308
vn 0.687082 -0.000200 0.726580
vn 0.668474 -0.001886 0.743733
vn 0.628941 -0.003158 0.777447
vn 0.805356 -0.002405 0.592787
vn 0.779268 -0.002606 0.626686
vn 0.580667 -0.002985 0.814136
vn 0.519504 -0.000400 0.854468
vn 0.490162 -0.003164 0.871626
vn 0.292314 -0.000321 0.956322
vn 0.313570 -0.003281 0.949559
vn 0.459099 -0.004232 0.888375
vn 0.435832 -0.004564 0.900017
vn 0.420680 -0.003427 0.907203
vn 0.425608 -0.003526 0.904901
vn 0.396687 -0.001443 0.917953
vn 0.570272 -0.001755 0.821454
vn 0.391144 -0.001030 0.920329
vn 0.441533 -0.000354 0.897245
vn 0.408668 0.000005 0.912683
vn 0.458364 0.000080 0.888765
vn 0.450048 -0.001591 0.893003
vn 0.604453 -0.001232 0.796640
vn 0.824528 -0.001738 0.565818
vn 0.780176 -0.001926 0.625558
vn 0.450048 -0.001591 0.893003
vn 0.423601 -0.002360 0.905846
vn 0.435832 -0.004564 0.900017
vn 0.411797 -0.004396 0.911265
vn 0.313570 -0.003281 0.949559
vn 0.296584 -0.004229 0.954997
vn 0.294356 -0.002554 0.955692
vn 0.330135 -0.000148 0.943934
vn 0.476721 -0.000438 0.879055
vn 0.780176 -0.001926 0.625558
vn 0.889533 -0.001971 0.456867
vn 0.910154 -0.002425 0.414263
vn 0.958597 -0.002471 0.284754
vn 0.967483 -0.002515 0.252924
vn 0.974961 -0.002273 0.222366
vn 0.975868 -0.001734 0.218353
vn 0.922890 -0.001339 0.385061
vn 0.907068 -0.000640 0.420984
vn 0.957004 -0.000995 0.290072
vn 0.933217 -0.002098 0.359308
vn 0.779268 -0.002606 0.626686
vn 0.911258 -0.002111 0.411830
vn 0.889533 -0.001971 0.456867
vn 0.911258 -0.002111 0.411830
vn 0.824528 -0.001738 0.565818
usemtl material
f 1/0/1 2/0/2 3/0/3
f 1/0/1 3/0/3 4/0/4
f 3/0/3 2/0/2 5/0/5
f 3/0/3 5/0/5 6/0/6
f 7/0/7 2/0/2 1/0/1
f 7/0/7 8/0/8 2/0/2
f 2/0/2 8/0/8 9/0/9
f 2/0/2 9/0/9 10/0/10
f 11/0/11 10/0/10 9/0/9
f 11/0/11 9/0/9 12/0/12
f 13/0/13 8/0/8 7/0/7
f 13/0/13 14/0/14 8/0/8
f 15/0/15 14/0/14 13/0/13
f 15/0/15 16/0/16 14/0/14
f 8/0/8 14/0/14 17/0/17
f 8/0/8 17/0/17 9/0/9
f 14/0/14 18/0/18 17/0/17
f 17/0/17 18/0/18 19/0/19
f 19/0/19 20/0/20 17/0/17
f 9/0/9 17/0/17 20/0/20
f 9/0/9 20/0/20 12/0/12
f 21/0/21 12/0/12 20/0/20
f 21/0/21 22/0/22 12/0/12
f 20/0/20 19/0/19 23/0/23
f 20/0/20 23/0/23 21/0/21
f 24/0/24 21/0/21 23/0/23
f 24/0/24 23/0/23 25/0/25
f 23/0/23 26/0/26 25/0/25
f 23/0/23 27/0/27 26/0/26
f 21/0/21 24/0/24 28/0/28
f 21/0/21 28/0/28 22/0/22
f 22/0/22 28/0/28 29/0/29
f 22/0/22 29/0/29 30/0/30
f 30/0/30 12/0/12 22/0/22
f 30/0/30 11/0/11 12/0/12
f 19/0/19 31/0/31 23/0/23
f 31/0/31 19/0/19 32/0/32
f 33/0/33 32/0/32 19/0/19
f 33/0/33 34/0/34 32/0/32
f 35/0/35 34/0/34 33/0/33
f 35/0/35 33/0/33 14/0/14
f 32/0/32 34/0/34 36/0/36
f 16/0/16 36/0/36 34/0/34
f 32/0/32 36/0/36 37/0/37
f 38/0/38 32/0/32 37/0/37
f 38/0/38 39/0/39 32/0/32
f 31/0/31 32/0/32 39/0/39
f 31/0/31 39/0/39 26/0/26
f 11/0/11 40/0/40 41/0/41
f 11/0/11 41/0/41 42/0/42
f 43/0/43 42/0/42 41/0/41
f 43/0/43 44/0/44 42/0/42
f 44/0/44 6/0/6 42/0/42
f 44/0/44 45/0/45 6/0/6
f 6/0/6 45/0/45 46/0/46
f 6/0/6 46/0/46 47/0/47
f 46/0/46 48/0/48 47/0/47
f 46/0/46 49/0/49 48/0/48
f 42/0/42 50/0/50 5/0/5
f 42/0/42 5/0/5 51/0/51
f 52/0/52 43/0/43 53/0/53
f 54/0/54 53/0/53 55/0/55
f 41/0/41 30/0/30 29/0/29
