# 
# Wavefront OBJ file
# Created with Kaydara FBX
# 
mtllib eye_l #221561.mtl

g Eye_L
v -0.072382 1.551831 0.067571
v -0.066185 1.553233 0.080872
v -0.037908 1.539431 0.101482
v -0.019903 1.526810 0.098719
v -0.022253 1.539361 0.107344
v -0.039723 1.553932 0.107426
v -0.027121 1.510060 0.094956
v -0.038593 1.507447 0.093105
v -0.070940 1.535808 0.072495
v -0.065256 1.537386 0.083203
v -0.037829 1.526151 0.096913
v -0.054794 1.553747 0.095797
v -0.053553 1.538213 0.093547
v -0.048902 1.508261 0.090425
v -0.055882 1.510526 0.086176
v -0.021097 1.518094 0.097531
v -0.062125 1.525009 0.082450
v -0.068798 1.524512 0.074295
v -0.063702 1.513601 0.077812
v -0.051761 1.525121 0.091392
v -0.017850 1.511251 0.098366
v -0.073307 1.569426 0.064611
v -0.065768 1.571820 0.079190
v -0.018351 1.573911 0.112393
v -0.016510 1.553694 0.115681
v -0.039317 1.573517 0.103389
v -0.013261 1.538441 0.112015
v -0.025990 1.501822 0.097910
v -0.037777 1.500247 0.094538
v -0.010577 1.525241 0.105357
v -0.052654 1.572897 0.092189
v -0.048718 1.499477 0.091034
v -0.056277 1.499518 0.084611
v -0.008924 1.514308 0.104313
v -0.008559 1.505201 0.105604
v -0.016347 1.503409 0.100996
v -0.074344 1.533538 0.054119
v -0.078431 1.548109 0.050842
v -0.080566 1.565378 0.046987
v -0.063255 1.502617 0.074044
v -0.067457 1.511129 0.063913
v -0.071463 1.522528 0.057306
v -0.027121 1.510060 0.094956
vt 0.908675 0.696297
vt 0.742567 0.729746
vt 0.382332 0.569128
vt 0.163477 0.418231
vt 0.195446 0.574533
vt 0.386298 0.745524
vt 0.257687 0.209287
vt 0.391231 0.190473
vt 0.827525 0.525679
vt 0.707729 0.547880
vt 0.383746 0.410890
vt 0.582890 0.739168
vt 0.576209 0.558388
vt 0.513533 0.196049
vt 0.606290 0.225913
vt 0.176457 0.311836
vt 0.689384 0.388036
vt 0.779054 0.387465
vt 0.718553 0.261585
vt 0.554767 0.390893
vt 0.133130 0.248184
vt 0.965824 0.845787
vt 0.758777 0.920763
vt 0.118698 0.968542
vt 0.123768 0.743421
vt 0.401261 0.969321
vt 0.050099 0.550966
vt 0.230158 0.140775
vt 0.386019 0.115098
vt 0.042238 0.395456
vt 0.579170 0.948070
vt 0.496168 0.090633
vt 0.604100 0.075081
vt 0.016812 0.267573
vt 0.022694 0.169239
vt 0.118369 0.166652
vt 0.991981 0.470183
vt 0.991981 0.663324
vt 0.991980 0.827628
vt 0.715328 0.110040
vt 0.827135 0.215220
vt 0.936260 0.326744
vt 0.257687 0.209287
vn -0.926107 -0.010616 0.377112
vn -0.831959 0.045045 0.553006
vn -0.351564 -0.348956 0.868696
vn -0.372039 -0.296746 0.879505
vn -0.377759 -0.459495 0.803842
vn -0.471017 -0.076654 0.878787
vn -0.241717 0.034004 0.969751
vn -0.251955 0.015772 0.967610
vn -0.924147 -0.097613 0.369357
vn -0.785212 -0.094446 0.611982
vn -0.229051 -0.229082 0.946075
vn -0.665852 0.000826 0.746083
vn -0.577879 -0.196807 0.792037
vn -0.454371 -0.047774 0.889531
vn -0.686103 -0.106718 0.719635
vn -0.334177 -0.125207 0.934157
vn -0.717920 -0.162954 0.676784
vn -0.896399 -0.200332 0.395393
vn -0.844971 -0.202572 0.494963
vn -0.498248 -0.180667 0.848003
vn -0.452408 0.052357 0.890273
vn -0.909316 0.084183 0.407501
vn -0.810340 0.159374 0.563869
vn -0.334641 0.249929 0.908598
vn -0.348718 -0.082483 0.933591
vn -0.490935 0.251845 0.834000
vn -0.492180 -0.393108 0.776676
vn -0.323952 0.246136 0.913495
vn -0.308045 0.150553 0.939384
vn -0.602200 -0.297228 0.740953
vn -0.668549 0.219825 0.710435
vn -0.501096 -0.000243 0.865392
vn -0.781459 -0.130342 0.610190
vn -0.637580 -0.046563 0.768975
vn -0.643041 0.198116 0.739762
vn -0.463821 0.244044 0.851653
vn -0.959955 -0.192037 0.203980
vn -0.968593 -0.098332 0.228384
vn -0.966526 -0.019996 0.255788
vn -0.900792 -0.273350 0.337422
vn -0.944070 -0.286717 0.162862
vn -0.954526 -0.251826 0.159576
vn -0.241717 0.034004 0.969751
usemtl material
f 23/0/23 22/0/22 1/0/1
f 23/0/23 1/0/1 2/0/2
f 1/0/1 10/0/10 2/0/2
f 1/0/1 9/0/9 10/0/10
f 31/0/31 23/0/23 2/0/2
f 31/0/31 2/0/2 12/0/12
f 2/0/2 10/0/10 13/0/13
f 2/0/2 13/0/13 12/0/12
f 18/0/18 10/0/10 9/0/9
f 18/0/18 17/0/17 10/0/10
f 17/0/17 13/0/13 10/0/10
f 17/0/17 18/0/18 19/0/19
f 17/0/17 19/0/19 15/0/15
f 17/0/17 20/0/20 13/0/13
f 15/0/15 20/0/20 17/0/17
f 9/0/9 1/0/1 38/0/38
f 38/0/38 1/0/1 22/0/22
f 9/0/9 38/0/38 37/0/37
f 38/0/38 22/0/22 39/0/39
f 26/0/26 31/0/31 12/0/12
f 26/0/26 12/0/12 6/0/6
f 24/0/24 26/0/26 6/0/6
f 24/0/24 6/0/6 25/0/25
f 25/0/25 6/0/6 5/0/5
f 25/0/25 5/0/5 27/0/27
f 5/0/5 30/0/30 27/0/27
f 5/0/5 4/0/4 30/0/30
f 3/0/3 4/0/4 5/0/5
f 6/0/6 3/0/3 5/0/5
f 4/0/4 3/0/3 11/0/11
f 16/0/16 30/0/30 4/0/4
f 11/0/11 16/0/16 4/0/4
f 16/0/16 34/0/34 30/0/30
f 16/0/16 21/0/21 34/0/34
f 34/0/34 21/0/21 36/0/36
f 34/0/34 36/0/36 35/0/35
f 43/0/43 36/0/36 21/0/21
f 43/0/43 21/0/21 16/0/16
f 43/0/43 28/0/28 36/0/36
f 12/0/12 3/0/3 6/0/6
f 12/0/12 13/0/13 3/0/3
f 13/0/13 11/0/11 3/0/3
f 13/0/13 20/0/20 11/0/11
f 8/0/8 11/0/11 20/0/20
f 8/0/8 20/0/20 14/0/14
f 11/0/11 8/0/8 7/0/7
f 11/0/11 7/0/7 16/0/16
f 29/0/29 28/0/28 7/0/7
f 29/0/29 7/0/7 8/0/8
f 8/0/8 14/0/14 32/0/32
f 8/0/8 32/0/32 29/0/29
f 14/0/14 33/0/33 32/0/32
f 14/0/14 15/0/15 33/0/33
f 15/0/15 14/0/14 20/0/20
f 33/0/33 15/0/15 40/0/40
f 40/0/40 15/0/15 19/0/19
f 40/0/40 19/0/19 41/0/41
f 41/0/41 19/0/19 18/0/18
f 41/0/41 18/0/18 42/0/42
f 42/0/42 18/0/18 9/0/9
f 42/0/42 9/0/9 37/0/37
