# 
# Wavefront OBJ file
# Created with Kaydara FBX
# 
mtllib eye_l #223391.mtl

g Eye_L
v 0.000000 0.154570 0.112302
v -0.023036 0.153869 0.110144
v -0.023036 0.118081 0.115812
v 0.000000 0.118081 0.118081
v -0.023036 0.082293 0.110144
v 0.000000 0.081592 0.112302
v -0.045188 0.118081 0.109093
v -0.045188 0.151793 0.103753
v -0.045188 0.084370 0.103753
v -0.065602 0.118081 0.098181
v -0.065602 0.148421 0.093376
v -0.065602 0.087742 0.093376
v -0.083496 0.118081 0.083496
v -0.083496 0.143883 0.079409
v -0.083496 0.092279 0.079409
vt -0.005195 1.018670
vt 0.212609 1.019257
vt 0.212609 0.500967
vt -0.005195 0.500967
vt 0.212609 -0.017318
vt -0.005195 -0.016732
vt 0.468150 0.500970
vt 0.468150 1.005776
vt 0.468150 -0.003845
vt 0.734164 0.500965
vt 0.734164 0.990223
vt 0.734164 0.011718
vt 1.002290 0.500971
vt 1.002290 0.971665
vt 1.002290 0.030263
vn 0.000000 0.309017 0.951057
vn -0.191311 0.303309 0.933490
vn -0.191312 0.000000 0.981529
vn 0.000000 0.000000 1.000000
vn -0.191312 -0.303309 0.933490
vn 0.000000 -0.309017 0.951056
vn -0.375486 0.000000 0.926828
vn -0.375486 0.286406 0.881466
vn -0.375486 -0.286406 0.881466
vn -0.545626 0.000000 0.838029
vn -0.535142 0.247871 0.807578
vn -0.545626 -0.258965 0.797013
vn -0.695308 0.000000 0.718711
vn -0.704984 0.199418 0.680610
vn -0.695309 -0.222094 0.683535
usemtl material
f 1/0/1 2/0/2 3/0/3
f 1/0/1 3/0/3 4/0/4
f 4/0/4 3/0/3 5/0/5
f 4/0/4 5/0/5 6/0/6
f 2/0/2 7/0/7 3/0/3
f 2/0/2 8/0/8 7/0/7
f 3/0/3 7/0/7 9/0/9
f 3/0/3 9/0/9 5/0/5
f 8/0/8 10/0/10 7/0/7
f 8/0/8 11/0/11 10/0/10
f 7/0/7 10/0/10 12/0/12
f 7/0/7 12/0/12 9/0/9
f 11/0/11 13/0/13 10/0/10
f 11/0/11 14/0/14 13/0/13
f 10/0/10 13/0/13 15/0/15
f 10/0/10 15/0/15 12/0/12
