# 
# Wavefront OBJ file
# Created with Kaydara FBX
# 
mtllib face #222901.mtl

g Face
v -0.000000 1.430691 0.090766
v -0.012716 1.435220 0.088202
v -0.013890 1.434533 0.078416
v -0.000000 1.430233 0.082947
v 0.000000 1.442351 0.098227
v -0.011626 1.446408 0.096898
v 0.000000 1.453249 0.105571
v -0.011440 1.456124 0.104016
v 0.000000 1.466491 0.113944
v -0.011370 1.466622 0.110395
v -0.003458 1.481453 0.123538
v -0.008213 1.482490 0.120090
v -0.018378 1.485233 0.113752
v -0.034704 1.480648 0.106967
v -0.037579 1.498849 0.105475
v -0.018340 1.499799 0.110752
v -0.039922 1.517477 0.099445
v -0.065773 1.517635 0.088229
v -0.069056 1.539209 0.089592
v -0.042530 1.539184 0.101273
v -0.019438 1.517680 0.107421
v -0.021283 1.537647 0.109312
v -0.044989 1.565687 0.110082
v -0.022804 1.563552 0.117751
v -0.000000 1.536446 0.115283
v -0.000000 1.560598 0.121351
v -0.070167 1.564080 0.095779
v -0.082442 1.559830 0.079978
v -0.081112 1.536613 0.076210
v -0.007968 1.500972 0.115670
v 0.000000 1.518719 0.113486
v -0.000000 1.501984 0.119178
v -0.000000 1.590765 0.120675
v -0.022494 1.591228 0.117232
v -0.000000 1.624560 0.113273
v -0.021475 1.624661 0.111788
v -0.046059 1.622579 0.106741
v -0.046172 1.591469 0.111712
v -0.063774 1.618087 0.090533
v -0.066517 1.590358 0.099703
v -0.080660 1.582640 0.081764
v -0.082840 1.596725 0.061501
v -0.087731 1.564193 0.058227
v -0.080575 1.580392 0.026415
v -0.079138 1.558636 0.024404
v -0.083945 1.532306 0.054332
v -0.078869 1.535451 0.024591
v -0.076813 1.511099 0.026225
v -0.073913 1.496746 0.053890
v -0.070530 1.495955 0.079160
v -0.058656 1.473002 0.083225
v -0.050169 1.476915 0.097429
v -0.059600 1.470244 0.058668
v -0.047527 1.458376 0.084001
v -0.046831 1.456100 0.064072
v -0.031413 1.445495 0.085885
v -0.031149 1.443673 0.071229
v -0.039648 1.461387 0.096214
v -0.030699 1.465445 0.103584
v -0.026234 1.452817 0.096812
v -0.020313 1.459279 0.103603
v -0.058991 1.498389 0.094856
v -0.028138 1.446287 0.053185
v -0.013807 1.437863 0.061351
v -0.012571 1.443982 0.048066
v -0.000000 1.433326 0.066853
v -0.000000 1.439770 0.051879
v -0.025123 1.448535 0.044139
v -0.040897 1.457619 0.044901
v -0.053802 1.471385 0.039001
v -0.065878 1.487476 0.033541
v -0.062218 1.486423 0.027657
v -0.050218 1.471298 0.032920
v -0.038659 1.458002 0.039365
v -0.073087 1.501667 0.028929
v -0.009514 1.490009 0.119540
v -0.003267 1.493263 0.123897
v -0.000000 1.494189 0.125255
v 0.000000 1.489602 0.131158
v -0.002914 1.489170 0.129550
v 0.000000 1.481059 0.124725
v 0.007968 1.500972 0.115670
v 0.003267 1.493263 0.123897
v 0.019438 1.517680 0.107421
v 0.018340 1.499799 0.110752
v 0.021283 1.537647 0.109312
v 0.042530 1.539184 0.101273
v 0.039922 1.517477 0.099445
v 0.069056 1.539209 0.089592
v 0.065773 1.517635 0.088229
v 0.022804 1.563552 0.117751
v 0.044989 1.565687 0.110082
v 0.070167 1.564080 0.095779
v 0.082442 1.559830 0.079978
v 0.081112 1.536613 0.076210
v 0.022494 1.591228 0.117232
v 0.021475 1.624661 0.111788
v 0.046059 1.622579 0.106741
v 0.046172 1.591469 0.111712
v 0.063774 1.618087 0.090533
v 0.066517 1.590358 0.099703
v 0.080660 1.582640 0.081764
v 0.082840 1.596725 0.061501
v 0.087731 1.564193 0.058227
v 0.080575 1.580392 0.026415
v 0.083945 1.532306 0.054332
v 0.079138 1.558636 0.024404
v 0.078869 1.535451 0.024591
v 0.076813 1.511099 0.026225
v 0.073913 1.496746 0.053890
v 0.070530 1.495955 0.079160
v 0.058656 1.473002 0.083225
v 0.059600 1.470244 0.058668
v 0.047527 1.458376 0.084001
v 0.046831 1.456100 0.064072
v 0.031413 1.445495 0.085885
v 0.031149 1.443673 0.071229
v 0.039648 1.461387 0.096214
v 0.026234 1.452817 0.096812
v 0.030699 1.465445 0.103584
v 0.020313 1.459279 0.103603
v 0.011370 1.466622 0.110395
v 0.050169 1.476915 0.097429
v 0.058991 1.498389 0.094856
v 0.034704 1.480648 0.106967
v 0.018378 1.485233 0.113752
v 0.037579 1.498849 0.105475
v 0.009514 1.490009 0.119540
v 0.008213 1.482490 0.120090
v 0.003458 1.481453 0.123538
v 0.011440 1.456124 0.104016
v 0.011626 1.446408 0.096898
v 0.012716 1.435220 0.088202
v 0.013890 1.434533 0.078416
v -0.000000 1.430233 0.082947
v 0.002914 1.489170 0.129550
v 0.013807 1.437863 0.061351
v 0.028138 1.446287 0.053185
v 0.040897 1.457619 0.044901
v 0.053802 1.471385 0.039001
v 0.065878 1.487476 0.033541
v 0.062218 1.486423 0.027657
v 0.050218 1.471298 0.032920
v 0.038659 1.458002 0.039365
v 0.025123 1.448535 0.044139
v 0.012571 1.443982 0.048066
v -0.000000 1.433326 0.066853
v -0.000000 1.439770 0.051879
v 0.073087 1.501667 0.028929
vt 0.429645 0.731192
vt 0.443970 0.739114
vt 0.450941 0.737628
vt 0.438424 0.729417
vt 0.429641 0.746620
vt 0.441817 0.751021
vt 0.429639 0.758375
vt 0.441261 0.760873
vt 0.429636 0.769527
vt 0.441155 0.769697
vt 0.433104 0.785430
vt 0.436702 0.785337
vt 0.447592 0.786721
vt 0.465011 0.785660
vt 0.467868 0.803237
vt 0.448513 0.803218
vt 0.471301 0.821744
vt 0.497580 0.822248
vt 0.501761 0.844128
vt 0.474266 0.843581
vt 0.450169 0.821101
vt 0.451990 0.841888
vt 0.475697 0.871005
vt 0.452580 0.868806
vt 0.429619 0.840900
vt 0.429614 0.865538
vt 0.502976 0.869161
vt 0.520777 0.863796
vt 0.518227 0.840828
vt 0.437892 0.804507
vt 0.429624 0.819977
vt 0.429628 0.806375
vt 0.429606 0.895365
vt 0.454008 0.895570
vt 0.429600 0.921314
vt 0.453090 0.921325
vt 0.479613 0.918951
vt 0.479806 0.895591
vt 0.503379 0.912246
vt 0.501548 0.894452
vt 0.524326 0.886141
vt 0.538370 0.893491
vt 0.541394 0.864945
vt 0.560483 0.872811
vt 0.563493 0.849647
vt 0.537115 0.833376
vt 0.561757 0.828060
vt 0.549884 0.799346
vt 0.527989 0.794987
vt 0.505850 0.802090
vt 0.495800 0.778608
vt 0.482833 0.783650
vt 0.512381 0.771506
vt 0.479717 0.765492
vt 0.493442 0.761070
vt 0.463148 0.752987
vt 0.472587 0.748708
vt 0.469716 0.768227
vt 0.460309 0.769957
vt 0.455767 0.759624
vt 0.449739 0.764868
vt 0.489351 0.803372
vt 0.489922 0.747029
vt 0.466762 0.735130
vt 0.485291 0.735605
vt 0.453343 0.726153
vt 0.471615 0.727209
vt 0.513196 0.741610
vt 0.509126 0.758688
vt 0.529742 0.769931
vt 0.543364 0.778637
vt 0.558195 0.776642
vt 0.557221 0.769750
vt 0.535148 0.755347
vt 0.547029 0.790278
vt 0.437325 0.796152
vt 0.433277 0.797698
vt 0.429629 0.797812
vt 0.429630 0.792820
vt 0.433222 0.792431
vt 0.429633 0.785550
vt 0.421364 0.804504
vt 0.425982 0.797696
vt 0.409080 0.821092
vt 0.410743 0.803210
vt 0.407248 0.841878
vt 0.384971 0.843562
vt 0.387946 0.821725
vt 0.357475 0.844096
vt 0.361667 0.822218
vt 0.406645 0.868795
vt 0.383528 0.870984
vt 0.356249 0.869128
vt 0.338450 0.863756
vt 0.341012 0.840789
vt 0.405205 0.895560
vt 0.406110 0.921314
vt 0.379589 0.918928
vt 0.379407 0.895569
vt 0.355826 0.912213
vt 0.357665 0.894420
vt 0.334891 0.886100
vt 0.320844 0.893443
vt 0.317834 0.864895
vt 0.298740 0.872753
vt 0.322127 0.833329
vt 0.295741 0.849587
vt 0.297487 0.828001
vt 0.309374 0.799293
vt 0.331271 0.794944
vt 0.353407 0.802056
vt 0.363468 0.778578
vt 0.346891 0.771469
vt 0.379557 0.765470
vt 0.365834 0.761041
vt 0.396133 0.752972
vt 0.386695 0.748689
vt 0.389558 0.768209
vt 0.403511 0.759613
vt 0.398963 0.769944
vt 0.409535 0.764858
vt 0.418117 0.769691
vt 0.376433 0.783626
vt 0.369905 0.803346
vt 0.394254 0.785644
vt 0.411672 0.786713
vt 0.391388 0.803220
vt 0.421935 0.796149
vt 0.422563 0.785334
vt 0.426161 0.785429
vt 0.418016 0.760869
vt 0.417464 0.751016
vt 0.415317 0.739108
vt 0.408346 0.737619
vt 0.420868 0.729413
vt 0.426039 0.792430
vt 0.392527 0.735114
vt 0.369361 0.747002
vt 0.350152 0.758653
vt 0.329530 0.769887
vt 0.315903 0.778587
vt 0.301073 0.776585
vt 0.302051 0.769693
vt 0.324131 0.755300
vt 0.346089 0.741573
vt 0.373997 0.735581
vt 0.405950 0.726142
vt 0.387678 0.727190
vt 0.312233 0.790227
vn 0.000000 -0.862800 0.505545
vn -0.404564 -0.796277 0.449746
vn -0.373505 -0.926475 -0.046248
vn 0.000000 -0.998553 -0.053781
vn 0.000000 -0.569752 0.821816
vn -0.298250 -0.572091 0.764041
vn 0.000000 -0.550117 0.835088
vn -0.246574 -0.536224 0.807258
vn 0.000000 -0.568109 0.822953
vn -0.351123 -0.415635 0.839023
vn -0.424282 -0.506627 0.750543
vn -0.643890 -0.207947 0.736318
vn -0.468091 -0.063167 0.881420
vn -0.394906 -0.146741 0.906927
vn -0.367054 0.142845 0.919166
vn -0.388155 0.182326 0.903379
vn -0.364701 0.075397 0.928067
vn -0.626419 -0.058794 0.777266
vn -0.581510 -0.185634 0.792077
vn -0.383668 -0.210978 0.899048
vn -0.352312 0.062467 0.933796
vn -0.305877 -0.206822 0.929335
vn -0.390819 -0.174923 0.903694
vn -0.254795 -0.151584 0.955040
vn 0.000000 -0.199693 0.979858
vn 0.000000 -0.132150 0.991230
vn -0.664559 -0.100733 0.740415
vn -0.920380 -0.066738 0.385288
vn -0.859239 -0.165903 0.483926
vn -0.465296 0.307329 0.830090
vn 0.000000 0.156703 0.987646
vn 0.000000 0.467555 0.883964
vn 0.000000 0.105994 0.994367
vn -0.189542 0.086567 0.978049
vn 0.000000 0.189271 0.981925
vn -0.162250 0.173995 0.971288
vn -0.419438 0.191246 0.887410
vn -0.407436 0.071643 0.910419
vn -0.783731 0.275935 0.556440
vn -0.692510 0.107363 0.713374
vn -0.891414 0.138225 0.431595
vn -0.967942 0.213975 0.131544
vn -0.999786 0.017811 0.010527
vn -0.979961 0.059842 -0.189987
vn -0.973376 -0.049920 -0.223712
vn -0.988160 -0.148467 0.038700
vn -0.979750 -0.128825 -0.153279
vn -0.949385 -0.296741 -0.103018
vn -0.918001 -0.394120 -0.044074
vn -0.848387 -0.253766 0.464589
vn -0.808721 -0.487632 0.328914
vn -0.623391 -0.313822 0.716170
vn -0.800687 -0.595698 -0.063591
vn -0.675993 -0.658438 0.330896
vn -0.666997 -0.740569 -0.081692
vn -0.525961 -0.759836 0.382119
vn -0.529750 -0.846166 -0.058031
vn -0.512770 -0.521989 0.681612
vn -0.373035 -0.395974 0.839077
vn -0.371877 -0.597062 0.710791
vn -0.273881 -0.519171 0.809599
vn -0.604904 -0.045570 0.794994
vn -0.428957 -0.858585 -0.280764
vn -0.266462 -0.918166 -0.293204
vn -0.206201 -0.895309 -0.394847
vn 0.000000 -0.952561 -0.304348
vn 0.000000 -0.911203 -0.411958
vn -0.373431 -0.857407 -0.354123
vn -0.581986 -0.762959 -0.281399
vn -0.700203 -0.658096 -0.276813
vn -0.796862 -0.563740 -0.217275
vn -0.679711 -0.644527 -0.350111
vn -0.650965 -0.678699 -0.340018
vn -0.554568 -0.765442 -0.326423
vn -0.892025 -0.436945 -0.115634
vn -0.646705 0.187256 0.739397
vn -0.597750 0.462602 0.654747
vn 0.000000 0.702931 0.711259
vn 0.000000 0.114708 0.993399
vn -0.647935 -0.043388 0.760459
vn 0.000000 -0.597655 0.801753
vn 0.465296 0.307329 0.830090
vn 0.597750 0.462602 0.654747
vn 0.352312 0.062467 0.933796
vn 0.388155 0.182326 0.903379
vn 0.305877 -0.206822 0.929335
vn 0.383668 -0.210978 0.899048
vn 0.364701 0.075397 0.928067
vn 0.581510 -0.185634 0.792077
vn 0.626419 -0.058794 0.777266
vn 0.254795 -0.151584 0.955040
vn 0.390819 -0.174923 0.903694
vn 0.664559 -0.100733 0.740415
vn 0.920380 -0.066738 0.385288
vn 0.859239 -0.165903 0.483926
vn 0.189542 0.086567 0.978049
vn 0.162250 0.173995 0.971288
vn 0.419438 0.191246 0.887410
vn 0.407436 0.071643 0.910419
vn 0.783731 0.275935 0.556440
vn 0.692510 0.107363 0.713374
vn 0.891414 0.138225 0.431595
vn 0.967942 0.213975 0.131544
vn 0.999786 0.017811 0.010527
vn 0.979961 0.059842 -0.189987
vn 0.988160 -0.148467 0.038700
vn 0.973376 -0.049920 -0.223712
vn 0.979750 -0.128825 -0.153279
vn 0.949385 -0.296741 -0.103018
vn 0.918001 -0.394120 -0.044074
vn 0.848387 -0.253766 0.464589
vn 0.808721 -0.487632 0.328914
vn 0.800687 -0.595698 -0.063591
vn 0.675993 -0.658438 0.330896
vn 0.666997 -0.740569 -0.081692
vn 0.525961 -0.759836 0.382119
vn 0.529750 -0.846166 -0.058031
vn 0.512770 -0.521989 0.681612
vn 0.371877 -0.597062 0.710791
vn 0.373035 -0.395974 0.839077
vn 0.273881 -0.519171 0.809599
vn 0.351123 -0.415635 0.839023
vn 0.623391 -0.313822 0.716170
vn 0.604904 -0.045570 0.794994
vn 0.394906 -0.146741 0.906927
vn 0.468091 -0.063167 0.881420
vn 0.367054 0.142845 0.919166
vn 0.646705 0.187256 0.739397
vn 0.643890 -0.207947 0.736318
vn 0.424282 -0.506627 0.750543
vn 0.246574 -0.536224 0.807258
vn 0.298250 -0.572091 0.764041
vn 0.404564 -0.796277 0.449746
vn 0.373505 -0.926475 -0.046248
vn 0.000000 -0.998553 -0.053781
vn 0.647935 -0.043388 0.760459
vn 0.266462 -0.918166 -0.293204
vn 0.428957 -0.858585 -0.280764
vn 0.581986 -0.762959 -0.281399
vn 0.700203 -0.658096 -0.276813
vn 0.796862 -0.563740 -0.217275
vn 0.679711 -0.644527 -0.350111
vn 0.650965 -0.678699 -0.340018
vn 0.554568 -0.765442 -0.326423
vn 0.373431 -0.857407 -0.354123
vn 0.206201 -0.895309 -0.394847
vn 0.000000 -0.952561 -0.304348
vn 0.000000 -0.911203 -0.411958
vn 0.892025 -0.436945 -0.115634
usemtl material
f 1/0/1 2/0/2 3/0/3
f 1/0/1 3/0/3 4/0/4
f 5/0/5 2/0/2 1/0/1
f 5/0/5 6/0/6 2/0/2
f 7/0/7 6/0/6 5/0/5
f 7/0/7 8/0/8 6/0/6
f 9/0/9 8/0/8 7/0/7
f 9/0/9 10/0/10 8/0/8
f 11/0/11 10/0/10 9/0/9
f 11/0/11 12/0/12 10/0/10
f 13/0/13 10/0/10 12/0/12
f 14/0/14 10/0/10 13/0/13
f 13/0/13 15/0/15 14/0/14
f 13/0/13 16/0/16 15/0/15
f 17/0/17 15/0/15 16/0/16
f 18/0/18 15/0/15 17/0/17
f 19/0/19 18/0/18 17/0/17
f 19/0/19 17/0/17 20/0/20
f 20/0/20 17/0/17 21/0/21
f 17/0/17 16/0/16 21/0/21
f 20/0/20 21/0/21 22/0/22
f 23/0/23 20/0/20 22/0/22
f 23/0/23 22/0/22 24/0/24
f 24/0/24 22/0/22 25/0/25
f 25/0/25 22/0/22 21/0/21
f 24/0/24 25/0/25 26/0/26
f 27/0/27 19/0/19 20/0/20
f 27/0/27 20/0/20 23/0/23
f 28/0/28 19/0/19 27/0/27
f 28/0/28 29/0/29 19/0/19
f 18/0/18 19/0/19 29/0/29
f 30/0/30 21/0/21 16/0/16
f 25/0/25 21/0/21 31/0/31
f 31/0/31 21/0/21 30/0/30
f 31/0/31 30/0/30 32/0/32
f 24/0/24 26/0/26 33/0/33
f 24/0/24 33/0/33 34/0/34
f 35/0/35 34/0/34 33/0/33
f 35/0/35 36/0/36 34/0/34
f 34/0/34 36/0/36 37/0/37
f 34/0/34 37/0/37 38/0/38
f 24/0/24 34/0/34 38/0/38
f 24/0/24 38/0/38 23/0/23
f 38/0/38 37/0/37 39/0/39
f 38/0/38 39/0/39 40/0/40
f 40/0/40 27/0/27 23/0/23
f 40/0/40 23/0/23 38/0/38
f 41/0/41 27/0/27 40/0/40
f 39/0/39 41/0/41 40/0/40
f 27/0/27 41/0/41 28/0/28
f 39/0/39 42/0/42 41/0/41
f 41/0/41 42/0/42 43/0/43
f 43/0/43 42/0/42 44/0/44
f 45/0/45 43/0/43 44/0/44
f 46/0/46 43/0/43 45/0/45
f 46/0/46 28/0/28 43/0/43
f 28/0/28 41/0/41 43/0/43
f 46/0/46 45/0/45 47/0/47
f 46/0/46 47/0/47 48/0/48
f 46/0/46 48/0/48 49/0/49
f 49/0/49 29/0/29 46/0/46
f 46/0/46 29/0/29 28/0/28
f 49/0/49 50/0/50 29/0/29
f 49/0/49 51/0/51 50/0/50
f 51/0/51 52/0/52 50/0/50
f 49/0/49 53/0/53 51/0/51
f 53/0/53 54/0/54 51/0/51
f 54/0/54 52/0/52 51/0/51
f 53/0/53 55/0/55 54/0/54
f 55/0/55 56/0/56 54/0/54
f 55/0/55 57/0/57 56/0/56
f 58/0/58 54/0/54 56/0/56
f 54/0/54 58/0/58 52/0/52
f 59/0/59 52/0/52 58/0/58
f 58/0/58 56/0/56 60/0/60
f 59/0/59 58/0/58 60/0/60
f 59/0/59 60/0/60 61/0/61
f 59/0/59 61/0/61 10/0/10
f 50/0/50 18/0/18 29/0/29
f 50/0/50 62/0/62 18/0/18
f 52/0/52 62/0/62 50/0/50
f 18/0/18 62/0/62 15/0/15
f 62/0/62 52/0/52 14/0/14
f 14/0/14 59/0/59 10/0/10
f 59/0/59 14/0/14 52/0/52
f 15/0/15 62/0/62 14/0/14
f 56/0/56 57/0/57 3/0/3
f 56/0/56 3/0/3 2/0/2
f 60/0/60 56/0/56 2/0/2
f 60/0/60 2/0/2 6/0/6
f 61/0/61 60/0/60 6/0/6
f 61/0/61 6/0/6 8/0/8
f 10/0/10 61/0/61 8/0/8
f 55/0/55 63/0/63 57/0/57
f 57/0/57 63/0/63 64/0/64
f 57/0/57 64/0/64 3/0/3
f 63/0/63 65/0/65 64/0/64
f 66/0/66 64/0/64 65/0/65
f 66/0/66 65/0/65 67/0/67
f 63/0/63 68/0/68 65/0/65
f 69/0/69 68/0/68 63/0/63
f 55/0/55 69/0/69 63/0/63
f 53/0/53 69/0/69 55/0/55
f 53/0/53 70/0/70 69/0/69
f 53/0/53 71/0/71 70/0/70
f 53/0/53 49/0/49 71/0/71
f 72/0/72 70/0/70 71/0/71
f 72/0/72 73/0/73 70/0/70
f 69/0/69 70/0/70 73/0/73
f 69/0/69 73/0/73 74/0/74
f 69/0/69 74/0/74 68/0/68
f 64/0/64 66/0/66 4/0/4
f 64/0/64 4/0/4 3/0/3
f 71/0/71 49/0/49 75/0/75
f 75/0/75 49/0/49 48/0/48
f 13/0/13 76/0/76 30/0/30
f 13/0/13 30/0/30 16/0/16
f 77/0/77 30/0/30 76/0/76
f 78/0/78 30/0/30 77/0/77
f 78/0/78 32/0/32 30/0/30
f 79/0/79 78/0/78 77/0/77
f 79/0/79 77/0/77 80/0/80
f 76/0/76 80/0/80 77/0/77
f 76/0/76 12/0/12 80/0/80
f 13/0/13 12/0/12 76/0/76
f 80/0/80 12/0/12 11/0/11
f 79/0/79 80/0/80 11/0/11
f 79/0/79 11/0/11 81/0/81
f 11/0/11 9/0/9 81/0/81
f 78/0/78 82/0/82 32/0/32
f 31/0/31 32/0/32 82/0/82
f 78/0/78 83/0/83 82/0/82
f 79/0/79 83/0/83 78/0/78
f 31/0/31 82/0/82 84/0/84
f 82/0/82 85/0/85 84/0/84
f 25/0/25 31/0/31 84/0/84
f 25/0/25 84/0/84 86/0/86
f 87/0/87 86/0/86 84/0/84
f 87/0/87 84/0/84 88/0/88
f 88/0/88 84/0/84 85/0/85
f 89/0/89 87/0/87 88/0/88
f 89/0/89 88/0/88 90/0/90
f 91/0/91 25/0/25 86/0/86
f 91/0/91 26/0/26 25/0/25
f 92/0/92 91/0/91 86/0/86
f 92/0/92 86/0/86 87/0/87
f 93/0/93 92/0/92 87/0/87
f 93/0/93 87/0/87 89/0/89
f 94/0/94 93/0/93 89/0/89
f 94/0/94 89/0/89 95/0/95
f 90/0/90 95/0/95 89/0/89
f 91/0/91 33/0/33 26/0/26
f 91/0/91 96/0/96 33/0/33
f 35/0/35 33/0/33 96/0/96
f 35/0/35 96/0/96 97/0/97
f 96/0/96 98/0/98 97/0/97
f 96/0/96 99/0/99 98/0/98
f 91/0/91 92/0/92 99/0/99
f 91/0/91 99/0/99 96/0/96
f 99/0/99 100/0/100 98/0/98
f 99/0/99 101/0/101 100/0/100
f 101/0/101 99/0/99 92/0/92
f 101/0/101 92/0/92 93/0/93
f 102/0/102 101/0/101 93/0/93
f 100/0/100 101/0/101 102/0/102
f 93/0/93 94/0/94 102/0/102
f 100/0/100 102/0/102 103/0/103
f 102/0/102 104/0/104 103/0/103
f 94/0/94 104/0/104 102/0/102
f 104/0/104 105/0/105 103/0/103
f 106/0/106 104/0/104 94/0/94
f 106/0/106 94/0/94 95/0/95
f 106/0/106 107/0/107 104/0/104
f 107/0/107 105/0/105 104/0/104
f 106/0/106 108/0/108 107/0/107
f 106/0/106 109/0/109 108/0/108
f 106/0/106 110/0/110 109/0/109
f 110/0/110 106/0/106 95/0/95
f 110/0/110 95/0/95 111/0/111
f 110/0/110 111/0/111 112/0/112
f 110/0/110 112/0/112 113/0/113
f 113/0/113 112/0/112 114/0/114
f 113/0/113 114/0/114 115/0/115
f 115/0/115 114/0/114 116/0/116
f 115/0/115 116/0/116 117/0/117
f 118/0/118 116/0/116 114/0/114
f 118/0/118 119/0/119 116/0/116
f 120/0/120 119/0/119 118/0/118
f 120/0/120 121/0/121 119/0/119
f 120/0/120 122/0/122 121/0/121
f 114/0/114 112/0/112 123/0/123
f 114/0/114 123/0/123 118/0/118
f 120/0/120 118/0/118 123/0/123
f 112/0/112 111/0/111 123/0/123
f 111/0/111 124/0/124 123/0/123
f 120/0/120 123/0/123 125/0/125
f 125/0/125 122/0/122 120/0/120
f 125/0/125 123/0/123 124/0/124
f 125/0/125 126/0/126 122/0/122
f 111/0/111 90/0/90 124/0/124
f 90/0/90 127/0/127 124/0/124
f 127/0/127 125/0/125 124/0/124
f 126/0/126 125/0/125 127/0/127
f 90/0/90 88/0/88 127/0/127
f 126/0/126 127/0/127 85/0/85
f 88/0/88 85/0/85 127/0/127
f 126/0/126 85/0/85 82/0/82
f 126/0/126 82/0/82 128/0/128
f 126/0/126 129/0/129 122/0/122
f 126/0/126 128/0/128 129/0/129
f 130/0/130 122/0/122 129/0/129
f 83/0/83 128/0/128 82/0/82
f 130/0/130 9/0/9 122/0/122
f 9/0/9 131/0/131 122/0/122
f 9/0/9 7/0/7 131/0/131
f 7/0/7 132/0/132 131/0/131
f 7/0/7 5/0/5 132/0/132
f 5/0/5 133/0/133 132/0/132
f 5/0/5 1/0/1 133/0/133
f 1/0/1 134/0/134 133/0/133
f 1/0/1 135/0/135 134/0/134
f 130/0/130 81/0/81 9/0/9
f 128/0/128 83/0/83 136/0/136
f 128/0/128 136/0/136 129/0/129
f 136/0/136 130/0/130 129/0/129
f 79/0/79 136/0/136 83/0/83
f 79/0/79 81/0/81 130/0/130
f 79/0/79 130/0/130 136/0/136
f 116/0/116 133/0/133 134/0/134
f 116/0/116 134/0/134 117/0/117
f 119/0/119 132/0/132 133/0/133
f 119/0/119 133/0/133 116/0/116
f 121/0/121 131/0/131 132/0/132
f 121/0/121 132/0/132 119/0/119
f 122/0/122 131/0/131 121/0/121
f 117/0/117 134/0/134 137/0/137
f 137/0/137 134/0/134 135/0/135
f 117/0/117 137/0/137 138/0/138
f 115/0/115 117/0/117 138/0/138
f 115/0/115 138/0/138 139/0/139
f 113/0/113 115/0/115 139/0/139
f 113/0/113 139/0/139 140/0/140
f 113/0/113 140/0/140 141/0/141
f 113/0/113 141/0/141 110/0/110
f 142/0/142 141/0/141 140/0/140
f 142/0/142 140/0/140 143/0/143
f 139/0/139 143/0/143 140/0/140
f 139/0/139 144/0/144 143/0/143
f 139/0/139 138/0/138 145/0/145
f 139/0/139 145/0/145 144/0/144
f 138/0/138 137/0/137 146/0/146
f 138/0/138 146/0/146 145/0/145
f 147/0/147 146/0/146 137/0/137
f 147/0/147 148/0/148 146/0/146
f 137/0/137 135/0/135 147/0/147
f 141/0/141 149/0/149 110/0/110
f 149/0/149 109/0/109 110/0/110
f 111/0/111 95/0/95 90/0/90
