# 
# Wavefront OBJ file
# Created with Kaydara FBX
# 
mtllib floor.mtl

g Floor
v -1.597835 -2.190074 -0.012437
v -1.597835 -2.659477 -0.012437
v 1.597835 -2.661050 -0.012439
v 1.597835 -2.191646 -0.012439
v -1.597835 -0.000001 -0.012437
v 1.597835 -0.001573 -0.012439
v -1.597835 2.190073 -0.012437
v -1.597835 -0.000001 -0.012437
v 1.597835 -0.001573 -0.012439
v 1.597835 2.188499 -0.012439
v -1.597835 2.190073 -0.012437
v 1.597835 2.191646 -0.012439
v 1.597835 2.661050 -0.012439
v -1.597835 2.659477 -0.012437
v -1.597835 1.645989 0.012439
v -1.597835 0.330121 0.012439
v 1.597835 0.329163 0.012437
v 1.597835 1.645031 0.012437
vt 1.000000 0.157991
vt 1.000000 0.000000
vt 0.000000 0.000000
vt 0.000000 0.157991
vt 1.000000 0.895123
vt 0.000000 0.895123
vt 1.000000 0.895123
vt 1.000000 0.157991
vt 0.000000 0.157991
vt 0.000000 0.895123
vt 1.000000 0.157991
vt 0.000000 0.157991
vt 0.000000 -0.000000
vt 1.000000 0.000000
vt 1.000000 0.945100
vt 1.000000 0.060217
vt -0.000000 0.060217
vt -0.000000 0.945100
vn 0.000001 0.000000 1.000000
vn 0.000000 0.000000 1.000000
vn 0.000000 0.000000 1.000000
vn 0.000001 0.000000 1.000000
vn 0.000001 0.000000 1.000000
vn 0.000001 0.000000 1.000000
vn 0.000001 0.000000 1.000000
vn 0.000001 0.000000 1.000000
vn 0.000001 0.000000 1.000000
vn 0.000001 0.000000 1.000000
vn 0.000001 0.000000 1.000000
vn 0.000001 0.000000 1.000000
vn 0.000000 0.000000 1.000000
vn 0.000000 0.000000 1.000000
vn 0.000001 0.000000 1.000000
vn 0.000001 0.000000 1.000000
vn 0.000001 0.000000 1.000000
vn 0.000001 0.000000 1.000000
usemtl material
f 1/0/1 2/0/2 3/0/3
f 1/0/1 3/0/3 4/0/4
f 5/0/5 1/0/1 4/0/4
f 5/0/5 4/0/4 6/0/6
f 7/0/7 8/0/8 9/0/9
f 7/0/7 9/0/9 10/0/10
f 11/0/11 12/0/12 13/0/13
f 11/0/11 13/0/13 14/0/14
f 15/0/15 16/0/16 17/0/17
f 15/0/15 17/0/17 18/0/18
