# 
# Wavefront OBJ file
# Created with Kaydara FBX
# 
mtllib glass.mtl

g glass
v 0.005170 0.002613 -0.025529
v 0.023235 0.002613 0.008042
v 0.023235 0.063411 0.008042
v 0.005170 0.063407 -0.025529
v 0.023235 0.002613 0.008042
v 0.018034 0.002613 0.016789
v 0.018070 0.063411 0.016764
v 0.023235 0.063411 0.008042
v 0.018034 0.002613 0.016789
v -0.018618 0.002613 0.016789
v -0.018690 0.063411 0.016764
v 0.018070 0.063411 0.016764
v -0.018618 0.002613 0.016789
v -0.023819 0.002613 0.008042
v -0.023855 0.063411 0.008042
v -0.018690 0.063411 0.016764
v -0.005754 0.002613 -0.025529
v 0.005170 0.002613 -0.025529
v 0.005170 0.063407 -0.025529
v -0.005754 0.063407 -0.025529
v -0.023855 0.063411 0.008042
v -0.023819 0.002613 0.008042
v -0.005754 0.002613 -0.025529
v -0.005754 0.063407 -0.025529
vt 0.496526 0.667690
vt 0.538839 0.667690
vt 0.538839 0.735614
vt 0.496526 0.735614
vt 0.538839 0.667690
vt 0.550128 0.667690
vt 0.550128 0.735614
vt 0.538839 0.735614
vt 0.550128 0.667690
vt 0.590863 0.667690
vt 0.590863 0.735614
vt 0.550128 0.735614
vt 0.590863 0.667690
vt 0.602101 0.667690
vt 0.602101 0.735614
vt 0.590863 0.735614
vt 0.484415 0.667690
vt 0.496526 0.667690
vt 0.496526 0.735614
vt 0.484415 0.735614
vt 0.602101 0.735614
vt 0.602101 0.667690
vt 0.644337 0.667690
vt 0.644337 0.735614
vn -0.880600 0.000000 0.473860
vn -0.880600 0.000000 0.473860
vn -0.880600 0.000000 0.473860
vn -0.880600 0.000000 0.473860
vn -0.859998 0.000147 -0.510297
vn -0.859998 0.000147 -0.510297
vn -0.859998 0.000147 -0.510297
vn -0.859998 0.000147 -0.510297
vn 0.000000 -0.000410 -1.000000
vn 0.000000 -0.000410 -1.000000
vn 0.000000 -0.000410 -1.000000
vn 0.000000 -0.000410 -1.000000
vn 0.859998 0.000662 -0.510297
vn 0.859998 0.000662 -0.510297
vn 0.859998 0.000662 -0.510297
vn 0.859998 0.000662 -0.510297
vn 0.000000 0.000000 1.000000
vn 0.000000 0.000000 1.000000
vn 0.000000 0.000000 1.000000
vn 0.000000 0.000000 1.000000
vn 0.880401 0.000264 0.474230
vn 0.880401 0.000264 0.474230
vn 0.880401 0.000264 0.474230
vn 0.880401 0.000264 0.474230
usemtl material
f 1/0/1 2/0/2 3/0/3
f 1/0/1 3/0/3 4/0/4
f 5/0/5 6/0/6 7/0/7
f 5/0/5 7/0/7 8/0/8
f 9/0/9 10/0/10 11/0/11
f 9/0/9 11/0/11 12/0/12
f 13/0/13 14/0/14 15/0/15
f 13/0/13 15/0/15 16/0/16
f 17/0/17 18/0/18 19/0/19
f 17/0/17 19/0/19 20/0/20
f 21/0/21 22/0/22 23/0/23
f 21/0/21 23/0/23 24/0/24
