# 
# Wavefront OBJ file
# Created with Kaydara FBX
# 
mtllib grass02_c06.mtl

g Grass02_C06
v -35.837860 -0.342900 -56.443691
v 40.678036 -0.342900 -56.443699
v 40.678040 -8.055202 -56.443699
v 37.256630 -7.269048 -56.443699
v 40.678032 0.157100 -56.443699
v 40.678036 -0.342900 -56.443699
v -35.837860 -0.342900 -56.443691
v -35.837860 0.157100 -56.443680
v 40.114193 -0.342900 -55.874470
v 40.114193 0.157100 -55.874470
v -35.837471 0.157100 -55.874462
v -35.837471 -0.342900 -55.874462
v 40.114193 0.157100 -55.874470
v 40.678032 0.157100 -56.443699
v -35.837860 0.157100 -56.443680
v -35.837471 0.157100 -55.874462
v 2.957559 0.025034 -2.892656
v 2.316162 0.025034 -2.251260
v 40.124233 0.025034 -2.251260
v 40.124233 0.025034 -2.892656
v 2.957559 0.025034 -2.892656
v 40.124233 0.025034 -2.892656
v 40.124233 0.000000 -2.892656
v 2.957559 0.000000 -2.892656
v 40.124233 0.025034 -2.251260
v 2.316162 0.025034 -2.251260
v 2.316162 0.000000 -2.251260
v 40.124233 0.000000 -2.251260
v 2.957559 0.025034 13.694209
v 2.957559 0.025034 2.998818
v 2.316162 0.025034 2.357412
v 2.316162 0.025034 14.194203
v 2.957559 0.025034 13.694209
v 2.957559 0.000000 13.694209
v 2.957559 0.000000 2.998818
v 2.957559 0.025034 2.998818
v 2.316162 0.025034 -15.831474
v 2.316162 0.000000 -15.831474
v 2.316162 0.000000 -2.251260
v 2.316162 0.025034 -2.251260
v 2.957559 0.025034 -2.892656
v 2.957559 0.025034 -15.831474
v 2.316162 0.025034 -15.831474
v 2.316162 0.025034 -2.251260
v 2.957559 0.000000 -2.892656
v 2.957559 0.000000 -15.831474
v 2.957559 0.025034 -15.831474
v 2.957559 0.025034 -2.892656
v 2.316162 0.000000 2.357412
v 2.316162 0.000000 14.194203
v 2.316162 0.025034 14.194203
v 2.316162 0.025034 2.357412
v 2.957559 0.025034 2.998818
v 40.124233 0.025034 2.998818
v 40.124233 0.025034 2.357412
v 2.316162 0.025034 2.357412
v 2.957559 0.025034 2.998818
v 2.957559 0.000000 2.998818
v 40.124233 0.000000 2.998818
v 40.124233 0.025034 2.998818
v 40.124233 0.025034 2.357412
v 40.124233 0.000000 2.357412
v 2.316162 0.000000 2.357412
v 2.316162 0.025034 2.357412
v -2.933896 0.025034 -2.892656
v -35.837666 0.025034 -2.892656
v -35.837666 0.025034 -2.251260
v -2.292500 0.025034 -2.251260
v -2.933896 0.025034 -2.892656
v -2.933896 0.000000 -2.892656
v -35.837666 0.000000 -2.892656
v -35.837666 0.025034 -2.892656
v -35.837666 0.025034 -2.251260
v -35.837666 0.000000 -2.251260
v -2.292500 0.000000 -2.251260
v -2.292500 0.025034 -2.251260
v -2.933896 0.025034 13.694209
v -2.292500 0.025034 14.194203
v -2.292500 0.025034 2.357412
v -2.933896 0.025034 2.998818
v -2.933896 0.025034 13.694209
v -2.933896 0.025034 2.998818
v -2.933896 0.000000 2.998818
v -2.933896 0.000000 13.694209
v -2.292500 0.025034 -15.831474
v -2.292500 0.025034 -2.251260
v -2.292500 0.000000 -2.251260
v -2.292500 0.000000 -15.831474
v -2.933896 0.025034 -2.892656
v -2.292500 0.025034 -2.251260
v -2.292500 0.025034 -15.831474
v -2.933896 0.025034 -15.831474
v -2.933896 0.000000 -2.892656
v -2.933896 0.025034 -2.892656
v -2.933896 0.025034 -15.831474
v -2.933896 0.000000 -15.831474
v -2.292500 0.000000 2.357412
v -2.292500 0.025034 2.357412
v -2.292500 0.025034 14.194203
v -2.292500 0.000000 14.194203
v -2.933896 0.025034 2.998818
v -2.292500 0.025034 2.357412
v -35.837666 0.025034 2.357412
v -35.837666 0.025034 2.998818
v -2.933896 0.025034 2.998818
v -35.837666 0.025034 2.998818
v -35.837666 0.000000 2.998818
v -2.933896 0.000000 2.998818
v -35.837666 0.025034 2.357412
v -2.292500 0.025034 2.357412
v -2.292500 0.000000 2.357412
v -35.837666 0.000000 2.357412
v -36.324989 0.025034 -48.213806
v -36.324989 0.159268 -56.447353
v -36.325001 -0.474966 -56.447353
v -36.325001 -0.474966 -48.213806
v -35.824989 0.025034 -48.213661
v -35.824989 0.159268 -56.447178
v -36.324989 0.159268 -56.447353
v -36.324989 0.025034 -48.213806
v -35.824989 -0.474966 -48.213661
v -35.824989 -0.474966 -56.447178
v -35.824989 0.159268 -56.447178
v -35.824989 0.025034 -48.213661
vt 11.123010 0.823324
vt 2.641890 0.821534
vt 2.641823 -0.001022
vt 3.038430 0.082612
vt -0.495316 -1.099644
vt -0.495225 -1.125043
vt 5.364041 -1.126041
vt 5.364643 -1.100950
vt -0.452134 -0.998481
vt -0.452205 -1.039997
vt 5.364540 -1.039529
vt 5.364561 -0.997313
vt -0.452205 -1.039997
vt -0.495316 -1.099644
vt 5.364643 -1.100950
vt 5.364540 -1.039529
vt -0.503762 0.966106
vt -0.567590 0.899898
vt 3.194406 0.900301
vt 3.194413 0.965935
vt -0.503760 0.937785
vt 3.194408 0.939194
vt 3.194408 0.939633
vt -0.503760 0.941041
vt 3.194411 0.938485
vt -0.567590 0.932267
vt -0.567590 0.946559
vt 3.194411 0.940341
vt -0.517833 0.966278
vt 0.546366 0.965974
vt 0.610195 0.900073
vt -0.567590 0.899898
vt -0.517833 0.932267
vt -0.517833 0.946559
vt 0.546361 0.940341
vt 0.546361 0.938485
vt 2.420053 0.932267
vt 2.420053 0.946559
vt 1.068796 0.940413
vt 1.068796 0.938414
vt 1.132631 0.965950
vt 2.420053 0.966278
vt 2.420053 0.899898
vt 1.068797 0.900154
vt 1.132634 0.940333
vt 2.420053 0.946559
vt 2.420053 0.932267
vt 1.132634 0.938493
vt 0.610196 0.941041
vt -0.567590 0.946559
vt -0.567590 0.932267
vt 0.610196 0.937785
vt -0.503760 0.965979
vt 3.194414 0.965895
vt 3.194405 0.900373
vt -0.567590 0.899898
vt -0.503756 0.938414
vt -0.503756 0.940413
vt 3.194407 0.939552
vt 3.194407 0.939274
vt 3.194411 0.938485
vt 3.194411 0.940341
vt -0.567590 0.946559
vt -0.567590 0.932267
vt -0.503762 0.966106
vt 2.770500 0.965830
vt 2.770497 0.899655
vt -0.567590 0.899898
vt -0.503760 0.937785
vt -0.503760 0.941041
vt 2.770895 0.939109
vt 2.770895 0.936029
vt 2.770700 0.932526
vt 2.770700 0.946041
vt -0.567590 0.946559
vt -0.567590 0.932267
vt -0.517833 0.966278
vt -0.567590 0.899898
vt 0.610195 0.900073
vt 0.546366 0.965974
vt -0.517833 0.932267
vt 0.546361 0.938485
vt 0.546361 0.940341
vt -0.517833 0.946559
vt 2.420053 0.932267
vt 1.068796 0.938414
vt 1.068796 0.940413
vt 2.420053 0.946559
vt 1.132631 0.965950
vt 1.068797 0.900154
vt 2.420053 0.899898
vt 2.420053 0.966278
vt 1.132634 0.940333
vt 1.132634 0.938493
vt 2.420053 0.932267
vt 2.420053 0.946559
vt 0.610196 0.941041
vt 0.610196 0.937785
vt -0.567590 0.932267
vt -0.567590 0.946559
vt -0.503760 0.965979
vt -0.567590 0.899898
vt 2.770269 0.899253
vt 2.770278 0.965306
vt -0.503756 0.938414
vt 2.771028 0.938148
vt 2.771028 0.940040
vt -0.503756 0.940413
vt 2.771055 0.932789
vt -0.567590 0.932267
vt -0.567590 0.946559
vt 2.771055 0.946303
vt 6.236723 -1.091194
vt 6.866088 -1.083887
vt 6.863712 -1.126618
vt 6.234897 -1.126863
vt 6.237267 -1.039361
vt 6.865532 -1.048113
vt 6.866088 -1.083887
vt 6.236723 -1.091194
vt 6.241263 -0.997299
vt 6.870920 -0.997141
vt 6.865532 -1.048113
vt 6.237267 -1.039361
vn -0.000000 0.000000 -1.000000
vn -0.000000 0.000000 -1.000000
vn -0.000000 0.000000 -1.000000
vn -0.000000 0.000000 -1.000000
vn -0.000000 0.000010 -1.000000
vn -0.000000 0.000010 -1.000000
vn -0.000000 0.000010 -1.000000
vn -0.000000 0.000010 -1.000000
vn 0.000000 0.000000 1.000000
vn 0.000000 0.000000 1.000000
vn 0.000000 0.000000 1.000000
vn 0.000000 0.000000 1.000000
vn 0.000000 1.000000 0.000000
vn 0.000000 1.000000 0.000000
vn 0.000000 1.000000 0.000000
vn 0.000000 1.000000 0.000000
vn 0.000000 1.000000 0.000000
vn 0.000000 1.000000 0.000000
vn 0.000000 1.000000 0.000000
vn 0.000000 1.000000 0.000000
vn 0.000000 0.000000 -1.000000
vn 0.000000 0.000000 -1.000000
vn 0.000000 0.000000 -1.000000
vn 0.000000 0.000000 -1.000000
vn 0.000000 0.000000 1.000000
vn 0.000000 0.000000 1.000000
vn 0.000000 0.000000 1.000000
vn 0.000000 0.000000 1.000000
vn 0.000000 1.000000 0.000000
vn 0.000000 1.000000 0.000000
vn 0.000000 1.000000 0.000000
vn 0.000000 1.000000 0.000000
vn 1.000000 0.000000 0.000000
vn 1.000000 0.000000 0.000000
vn 1.000000 0.000000 0.000000
vn 1.000000 0.000000 0.000000
vn -1.000000 0.000000 0.000000
vn -1.000000 0.000000 0.000000
vn -1.000000 0.000000 0.000000
vn -1.000000 0.000000 0.000000
vn 0.000000 1.000000 0.000000
vn 0.000000 1.000000 0.000000
vn 0.000000 1.000000 0.000000
vn 0.000000 1.000000 0.000000
vn 1.000000 0.000000 0.000000
vn 1.000000 0.000000 0.000000
vn 1.000000 0.000000 0.000000
vn 1.000000 0.000000 0.000000
vn -1.000000 0.000000 0.000000
vn -1.000000 0.000000 0.000000
vn -1.000000 0.000000 0.000000
vn -1.000000 0.000000 0.000000
vn 0.000000 1.000000 0.000000
vn 0.000000 1.000000 0.000000
vn 0.000000 1.000000 0.000000
vn 0.000000 1.000000 0.000000
vn 0.000000 0.000000 1.000000
vn 0.000000 0.000000 1.000000
vn 0.000000 0.000000 1.000000
vn 0.000000 0.000000 1.000000
vn 0.000000 0.000000 -1.000000
vn 0.000000 0.000000 -1.000000
vn 0.000000 0.000000 -1.000000
vn 0.000000 0.000000 -1.000000
vn 0.000000 1.000000 0.000000
vn 0.000000 1.000000 0.000000
vn 0.000000 1.000000 0.000000
vn 0.000000 1.000000 0.000000
vn 0.000000 0.000000 -1.000000
vn 0.000000 0.000000 -1.000000
vn 0.000000 0.000000 -1.000000
vn 0.000000 0.000000 -1.000000
vn 0.000000 0.000000 1.000000
vn 0.000000 0.000000 1.000000
vn 0.000000 0.000000 1.000000
vn 0.000000 0.000000 1.000000
vn 0.000000 1.000000 0.000000
vn 0.000000 1.000000 0.000000
vn 0.000000 1.000000 0.000000
vn 0.000000 1.000000 0.000000
vn -1.000000 0.000000 0.000000
vn -1.000000 0.000000 0.000000
vn -1.000000 0.000000 0.000000
vn -1.000000 0.000000 0.000000
vn 1.000000 0.000000 0.000000
vn 1.000000 0.000000 0.000000
vn 1.000000 0.000000 0.000000
vn 1.000000 0.000000 0.000000
vn 0.000000 1.000000 0.000000
vn 0.000000 1.000000 0.000000
vn 0.000000 1.000000 0.000000
vn 0.000000 1.000000 0.000000
vn -1.000000 0.000000 0.000000
vn -1.000000 0.000000 0.000000
vn -1.000000 0.000000 0.000000
vn -1.000000 0.000000 0.000000
vn 1.000000 0.000000 0.000000
vn 1.000000 0.000000 0.000000
vn 1.000000 0.000000 0.000000
vn 1.000000 0.000000 0.000000
vn 0.000000 1.000000 0.000000
vn 0.000000 1.000000 0.000000
vn 0.000000 1.000000 0.000000
vn 0.000000 1.000000 0.000000
vn 0.000000 0.000000 1.000000
vn 0.000000 0.000000 1.000000
vn 0.000000 0.000000 1.000000
vn 0.000000 0.000000 1.000000
vn 0.000000 0.000000 -1.000000
vn 0.000000 0.000000 -1.000000
vn 0.000000 0.000000 -1.000000
vn 0.000000 0.000000 -1.000000
vn -1.000000 0.000016 0.000000
vn -1.000000 0.000016 0.000000
vn -1.000000 0.000016 0.000000
vn -1.000000 0.000016 0.000000
vn -0.000005 0.999867 0.016301
vn -0.000005 0.999867 0.016301
vn -0.000005 0.999867 0.016301
vn -0.000005 0.999867 0.016301
vn 1.000000 0.000000 0.000000
vn 1.000000 0.000000 0.000000
vn 1.000000 0.000000 0.000000
vn 1.000000 0.000000 0.000000
usemtl material
f 1/0/1 2/0/2 3/0/3
f 1/0/1 3/0/3 4/0/4
f 5/0/5 6/0/6 7/0/7
f 5/0/5 7/0/7 8/0/8
f 9/0/9 10/0/10 11/0/11
f 9/0/9 11/0/11 12/0/12
f 13/0/13 14/0/14 15/0/15
f 13/0/13 15/0/15 16/0/16
f 17/0/17 18/0/18 19/0/19
f 17/0/17 19/0/19 20/0/20
f 21/0/21 22/0/22 23/0/23
f 21/0/21 23/0/23 24/0/24
f 25/0/25 26/0/26 27/0/27
f 25/0/25 27/0/27 28/0/28
f 29/0/29 30/0/30 31/0/31
f 29/0/29 31/0/31 32/0/32
f 33/0/33 34/0/34 35/0/35
f 33/0/33 35/0/35 36/0/36
f 37/0/37 38/0/38 39/0/39
f 37/0/37 39/0/39 40/0/40
f 41/0/41 42/0/42 43/0/43
f 41/0/41 43/0/43 44/0/44
f 45/0/45 46/0/46 47/0/47
f 45/0/45 47/0/47 48/0/48
f 49/0/49 50/0/50 51/0/51
f 49/0/49 51/0/51 52/0/52
f 53/0/53 54/0/54 55/0/55
f 53/0/53 55/0/55 56/0/56
f 57/0/57 58/0/58 59/0/59
f 57/0/57 59/0/59 60/0/60
f 61/0/61 62/0/62 63/0/63
f 61/0/61 63/0/63 64/0/64
f 65/0/65 66/0/66 67/0/67
f 65/0/65 67/0/67 68/0/68
f 69/0/69 70/0/70 71/0/71
f 69/0/69 71/0/71 72/0/72
f 73/0/73 74/0/74 75/0/75
f 73/0/73 75/0/75 76/0/76
f 77/0/77 78/0/78 79/0/79
f 77/0/77 79/0/79 80/0/80
f 81/0/81 82/0/82 83/0/83
f 81/0/81 83/0/83 84/0/84
f 85/0/85 86/0/86 87/0/87
f 85/0/85 87/0/87 88/0/88
f 89/0/89 90/0/90 91/0/91
f 89/0/89 91/0/91 92/0/92
f 93/0/93 94/0/94 95/0/95
f 93/0/93 95/0/95 96/0/96
f 97/0/97 98/0/98 99/0/99
f 97/0/97 99/0/99 100/0/100
f 101/0/101 102/0/102 103/0/103
f 101/0/101 103/0/103 104/0/104
f 105/0/105 106/0/106 107/0/107
f 105/0/105 107/0/107 108/0/108
f 109/0/109 110/0/110 111/0/111
f 109/0/109 111/0/111 112/0/112
f 113/0/113 114/0/114 115/0/115
f 113/0/113 115/0/115 116/0/116
f 117/0/117 118/0/118 119/0/119
f 117/0/117 119/0/119 120/0/120
f 121/0/121 122/0/122 123/0/123
f 121/0/121 123/0/123 124/0/124
