# 
# Wavefront OBJ file
# Created with Kaydara FBX
# 
mtllib grass01_z04.mtl

g Grass01_Z04
v -42.947693 -2.500004 127.948746
v -42.947693 -2.500004 118.494888
v -50.000000 -2.500004 124.522049
v -50.000000 -2.500004 112.499977
v -42.947693 -2.500004 111.403160
v -38.852180 -2.500004 124.801758
v -40.524319 -2.500004 128.551956
v -38.953770 -2.500004 133.267349
v -42.947693 -2.500004 140.161591
v -35.405079 -2.500004 136.104462
v -35.625000 -2.500004 142.715591
v -35.625000 -2.500004 117.480408
v -34.930122 -2.500004 123.109253
v -28.190548 -2.500004 122.007088
v -28.437500 -2.500004 117.211327
v -35.625000 -2.500004 112.500000
v -28.437500 -2.500004 111.581367
v -29.303085 -2.500004 138.790329
v -28.437490 -2.500004 142.715591
v -35.625000 -2.500004 148.325073
v -28.437490 -2.500004 148.972885
v -42.947693 -2.500004 146.115372
v -21.250000 -2.500004 116.942253
v -21.250000 -2.500004 109.419098
v -14.088325 -2.499991 109.854248
v -14.118867 -2.500004 118.721230
v -6.926659 -2.499997 109.419090
v -6.926658 -2.500004 131.615509
v -14.118867 -2.500004 133.532120
v -0.709932 -2.500004 129.102280
v -0.709941 -2.500004 148.283371
v -17.610699 -2.500004 125.408730
v -17.708778 -2.500004 127.620186
v -16.371132 -2.500004 132.893692
v -14.118867 -2.500004 142.715591
v -17.258970 -2.500004 137.115005
v -21.249981 -2.500004 142.715591
v -21.486942 -2.500004 139.414963
v -6.926657 -2.500004 150.136368
v -14.062492 -2.500005 149.829483
v -21.249981 -2.500004 148.325073
v 7.293651 -2.500004 145.000015
v -18.457087 -2.500238 132.543976
v -18.989340 -2.500190 129.215820
v -29.239931 -2.500038 135.482697
v -35.037598 -2.500232 133.337250
v -37.137535 -2.500267 131.354996
v -37.616470 -2.500286 129.248047
v -36.800266 -2.500285 127.445313
v -34.586330 -2.500232 126.297508
v -28.182878 -2.500038 125.956924
v -21.249987 -2.500004 123.392456
v -21.588465 -2.500144 126.940338
v -34.692139 -2.500096 129.936752
v -28.771078 -2.499723 131.024033
v -21.813602 -2.500144 136.253479
v -19.131155 -2.500231 134.865341
v -21.845680 -2.499926 132.192383
v -49.999981 -2.500004 136.534271
v -50.000000 -2.500003 145.000031
v -46.403191 -2.500017 145.901077
v -58.628532 -2.500004 131.076050
v -58.806465 -2.500003 124.619789
v -56.810623 -2.591836 138.177658
v -60.851833 -3.720417 131.118591
v -58.628986 -3.783454 137.954254
v -58.348221 -2.545920 142.614807
v -59.885815 -3.846491 142.388458
v -58.210964 -2.977569 148.389175
v -60.874729 -3.720416 124.641060
v -58.419052 -3.720416 118.105331
v -56.786148 -2.500002 118.163536
v -57.214409 -2.500000 114.279922
v -58.685658 -3.548899 114.221718
v -56.816616 -2.839570 109.560410
v -57.677769 -3.377382 110.396294
v -59.885815 -3.846491 146.853500
v 29.991203 -2.500003 122.499985
v 29.991203 -2.500004 117.493988
v 24.308249 -2.500004 118.454391
v 24.308239 -2.500004 112.499969
v 29.991196 -2.500004 112.499969
v 17.499998 -2.500004 112.499985
v 17.499981 -2.500004 120.276337
v 13.329402 -2.500004 112.500000
v 13.329402 -2.500004 121.761559
v 24.308258 -2.500003 129.397415
v 7.293347 -2.499991 112.500000
v 7.293735 -2.500004 124.623207
v 13.329420 -2.500003 141.210297
v 7.293651 -2.500004 145.000015
v -0.709932 -2.500004 129.102280
v 17.499981 -2.500004 135.389221
v -0.709932 -2.500004 111.267387
v -6.926659 -2.499997 109.419090
vt 0.577203 0.391856
vt 0.594379 0.492240
vt 0.658573 0.415434
vt 0.680384 0.543090
vt 0.607311 0.567528
vt 0.539243 0.432717
vt 0.550263 0.389856
vt 0.524928 0.342646
vt 0.554973 0.262187
vt 0.481911 0.318975
vt 0.472214 0.248383
vt 0.518193 0.516309
vt 0.500522 0.457811
vt 0.430677 0.481759
vt 0.442060 0.532225
vt 0.527314 0.569179
vt 0.452359 0.591992
vt 0.411931 0.301552
vt 0.395541 0.261451
vt 0.461986 0.188827
vt 0.384125 0.195019
vt 0.544135 0.198972
vt 0.365927 0.548142
vt 0.379681 0.628008
vt 0.304322 0.645030
vt 0.286629 0.542217
vt 0.226911 0.654048
vt 0.186351 0.418402
vt 0.259572 0.384979
vt 0.124625 0.456389
vt 0.089577 0.252758
vt 0.311650 0.464873
vt 0.308658 0.441217
vt 0.284760 0.387664
vt 0.242796 0.287487
vt 0.286521 0.341235
vt 0.318869 0.274519
vt 0.327421 0.309131
vt 0.152513 0.221782
vt 0.229200 0.212064
vt 0.308626 0.214966
vt 0.010196 0.302167
vt 0.307648 0.387585
vt 0.319401 0.421950
vt 0.417290 0.336784
vt 0.483039 0.349022
vt 0.509050 0.366250
vt 0.517988 0.387750
vt 0.512550 0.408378
vt 0.491034 0.424588
vt 0.423382 0.439840
vt 0.354144 0.479665
vt 0.351272 0.441384
vt 0.485545 0.385755
vt 0.420418 0.384974
vt 0.336677 0.342101
vt 0.310599 0.361716
vt 0.344430 0.385158
vt 0.636755 0.287886
vt 0.621398 0.197990
vt 0.580748 0.198507
vt 0.738593 0.330175
vt 0.752191 0.398410
vt 0.706408 0.258061
vt 0.762829 0.325648
vt 0.727064 0.257058
vt 0.714709 0.208154
vt 0.732510 0.207679
vt 0.703195 0.147044
vt 0.775842 0.394264
vt 0.760198 0.468288
vt 0.742375 0.470635
vt 0.753972 0.511098
vt 0.769895 0.509061
vt 0.758347 0.561940
vt 0.766078 0.551508
vt 0.724506 0.160251
vt 0.849672 0.981070
vt 0.916368 0.976571
vt 0.898238 0.904918
vt 0.977578 0.899565
vt 0.982913 0.972089
vt 0.971183 0.812685
vt 0.867573 0.819676
vt 0.967268 0.759463
vt 0.843868 0.767790
vt 0.752439 0.914752
vt 0.961596 0.682438
vt 0.800074 0.693343
vt 0.584746 0.785278
vt 0.528584 0.711666
vt 0.732879 0.595233
vt 0.666220 0.833262
vt 0.970500 0.579196
vt 0.989285 0.498202
vn 0.000000 1.000000 0.000000
vn 0.000000 1.000000 0.000000
vn 0.000000 1.000000 0.000000
vn 0.000000 1.000000 0.000000
vn 0.000000 1.000000 0.000000
vn 0.000009 1.000000 0.000010
vn 0.000016 1.000000 0.000001
vn 0.000012 1.000000 -0.000009
vn 0.000000 1.000000 0.000000
vn 0.000003 1.000000 -0.000012
vn 0.000000 1.000000 0.000000
vn 0.000000 1.000000 0.000000
vn -0.000000 1.000000 0.000014
vn -0.000001 1.000000 0.000010
vn 0.000000 1.000000 0.000000
vn 0.000000 1.000000 0.000000
vn 0.000000 1.000000 0.000000
vn 0.000002 1.000000 -0.000012
vn 0.000000 1.000000 0.000000
vn 0.000000 1.000000 0.000000
vn 0.000000 1.000000 0.000000
vn 0.000000 1.000000 0.000000
vn 0.000000 1.000000 0.000000
vn 0.000000 1.000000 0.000000
vn 0.000000 1.000000 0.000000
vn 0.000000 1.000000 0.000000
vn 0.000000 1.000000 0.000000
vn 0.000000 1.000000 0.000000
vn 0.000000 1.000000 0.000000
vn 0.000000 1.000000 0.000000
vn 0.000000 1.000000 0.000000
vn 0.000000 1.000000 0.000000
vn -0.000025 1.000000 0.000017
vn -0.000031 1.000000 -0.000000
vn 0.000000 1.000000 0.000000
vn -0.000009 1.000000 -0.000010
vn 0.000000 1.000000 0.000000
vn 0.000000 1.000000 -0.000012
vn 0.000000 1.000000 0.000000
vn 0.000000 1.000000 0.000000
vn 0.000000 1.000000 0.000000
vn 0.000000 1.000000 0.000000
vn -0.000044 1.000000 0.000006
vn -0.000034 1.000000 0.000018
vn -0.000006 1.000000 0.000014
vn -0.000018 1.000000 -0.000003
vn 0.000056 1.000000 -0.000037
vn 0.000069 1.000000 -0.000002
vn 0.000037 1.000000 0.000040
vn -0.000018 1.000000 0.000003
vn -0.000001 1.000000 -0.000013
vn -0.000001 1.000000 0.000010
vn 0.000010 1.000000 -0.000009
vn 0.000000 1.000000 0.000000
vn -0.000010 1.000000 -0.000001
vn 0.000008 1.000000 0.000006
vn -0.000025 1.000000 -0.000024
vn 0.000000 1.000000 0.000000
vn 0.000000 1.000000 0.000000
vn 0.000000 1.000000 0.000000
vn 0.000001 1.000000 0.000003
vn -0.173336 0.984339 0.032105
vn -0.213355 0.976234 -0.038030
vn -0.156575 0.987614 0.010125
vn 0.000000 1.000000 0.000000
vn -0.538995 0.841205 0.043104
vn -0.219827 0.975533 -0.003380
vn -0.576596 0.814285 -0.066912
vn -0.162596 0.984247 0.069423
vn -0.516096 0.853283 -0.074525
vn -0.559605 0.821853 -0.106771
vn -0.130827 0.991152 -0.022394
vn -0.205594 0.978296 -0.025852
vn -0.590222 0.807223 -0.005286
vn -0.131433 0.987834 -0.083116
vn -0.584181 0.803871 -0.111910
vn -0.574945 0.817106 0.042153
vn 0.000000 1.000000 0.000000
vn 0.000000 1.000000 0.000000
vn 0.000000 1.000000 0.000000
vn 0.000000 1.000000 0.000000
vn 0.000000 1.000000 0.000000
vn 0.000000 1.000000 0.000000
vn -0.000000 1.000000 0.000000
vn -0.000000 1.000000 0.000000
vn 0.000000 1.000000 0.000000
vn 0.000000 1.000000 0.000000
vn 0.000000 1.000000 0.000000
vn 0.000000 1.000000 0.000000
vn 0.000000 1.000000 0.000000
vn 0.000000 1.000000 0.000000
vn 0.000000 1.000000 0.000000
vn 0.000000 1.000000 0.000000
vn 0.000000 1.000000 0.000000
vn 0.000000 1.000000 0.000000
usemtl material
f 1/0/1 2/0/2 3/0/3
f 2/0/2 4/0/4 3/0/3
f 5/0/5 4/0/4 2/0/2
f 1/0/1 6/0/6 2/0/2
f 1/0/1 7/0/7 6/0/6
f 1/0/1 8/0/8 7/0/7
f 1/0/1 9/0/9 8/0/8
f 9/0/9 10/0/10 8/0/8
f 9/0/9 11/0/11 10/0/10
f 6/0/6 12/0/12 2/0/2
f 2/0/2 12/0/12 5/0/5
f 6/0/6 13/0/13 12/0/12
f 12/0/12 13/0/13 14/0/14
f 12/0/12 14/0/14 15/0/15
f 12/0/12 16/0/16 5/0/5
f 16/0/16 12/0/12 15/0/15
f 16/0/16 15/0/15 17/0/17
f 11/0/11 18/0/18 10/0/10
f 11/0/11 19/0/19 18/0/18
f 19/0/19 11/0/11 20/0/20
f 19/0/19 20/0/20 21/0/21
f 20/0/20 11/0/11 22/0/22
f 11/0/11 9/0/9 22/0/22
f 17/0/17 15/0/15 23/0/23
f 14/0/14 23/0/23 15/0/15
f 17/0/17 23/0/23 24/0/24
f 24/0/24 23/0/23 25/0/25
f 23/0/23 26/0/26 25/0/25
f 25/0/25 26/0/26 27/0/27
f 28/0/28 27/0/27 26/0/26
f 26/0/26 29/0/29 28/0/28
f 30/0/30 27/0/27 28/0/28
f 30/0/30 28/0/28 31/0/31
f 29/0/29 26/0/26 32/0/32
f 26/0/26 23/0/23 32/0/32
f 33/0/33 29/0/29 32/0/32
f 33/0/33 34/0/34 29/0/29
f 35/0/35 29/0/29 34/0/34
f 29/0/29 35/0/35 28/0/28
f 35/0/35 34/0/34 36/0/36
f 37/0/37 35/0/35 36/0/36
f 37/0/37 36/0/36 38/0/38
f 35/0/35 39/0/39 28/0/28
f 28/0/28 39/0/39 31/0/31
f 35/0/35 40/0/40 39/0/39
f 40/0/40 35/0/35 37/0/37
f 41/0/41 40/0/40 37/0/37
f 31/0/31 42/0/42 30/0/30
f 19/0/19 37/0/37 38/0/38
f 19/0/19 38/0/38 18/0/18
f 37/0/37 19/0/19 21/0/21
f 37/0/37 21/0/21 41/0/41
f 43/0/43 34/0/34 33/0/33
f 43/0/43 33/0/33 44/0/44
f 38/0/38 45/0/45 18/0/18
f 18/0/18 45/0/45 46/0/46
f 18/0/18 46/0/46 10/0/10
f 10/0/10 46/0/46 47/0/47
f 10/0/10 47/0/47 8/0/8
f 8/0/8 47/0/47 48/0/48
f 8/0/8 48/0/48 7/0/7
f 7/0/7 48/0/48 49/0/49
f 7/0/7 49/0/49 6/0/6
f 49/0/49 13/0/13 6/0/6
f 49/0/49 50/0/50 13/0/13
f 13/0/13 50/0/50 51/0/51
f 13/0/13 51/0/51 14/0/14
f 51/0/51 52/0/52 14/0/14
f 14/0/14 52/0/52 23/0/23
f 51/0/51 53/0/53 52/0/52
f 45/0/45 54/0/54 46/0/46
f 54/0/54 50/0/50 49/0/49
f 48/0/48 54/0/54 49/0/49
f 47/0/47 54/0/54 48/0/48
f 46/0/46 54/0/54 47/0/47
f 55/0/55 53/0/53 51/0/51
f 50/0/50 54/0/54 55/0/55
f 50/0/50 55/0/55 51/0/51
f 45/0/45 55/0/55 54/0/54
f 56/0/56 55/0/55 45/0/45
f 38/0/38 56/0/56 45/0/45
f 36/0/36 56/0/56 38/0/38
f 36/0/36 57/0/57 56/0/56
f 34/0/34 57/0/57 36/0/36
f 34/0/34 43/0/43 57/0/57
f 56/0/56 58/0/58 55/0/55
f 55/0/55 58/0/58 53/0/53
f 57/0/57 58/0/58 56/0/56
f 43/0/43 58/0/58 57/0/57
f 58/0/58 43/0/43 44/0/44
f 58/0/58 44/0/44 53/0/53
f 33/0/33 52/0/52 53/0/53
f 33/0/33 53/0/53 44/0/44
f 52/0/52 33/0/33 32/0/32
f 52/0/52 32/0/32 23/0/23
f 3/0/3 59/0/59 1/0/1
f 59/0/59 9/0/9 1/0/1
f 9/0/9 59/0/59 60/0/60
f 61/0/61 9/0/9 60/0/60
f 62/0/62 59/0/59 3/0/3
f 3/0/3 63/0/63 62/0/62
f 59/0/59 62/0/62 64/0/64
f 59/0/59 64/0/64 60/0/60
f 64/0/64 62/0/62 65/0/65
f 64/0/64 65/0/65 66/0/66
f 66/0/66 67/0/67 64/0/64
f 60/0/60 64/0/64 67/0/67
f 66/0/66 68/0/68 67/0/67
f 69/0/69 60/0/60 67/0/67
f 68/0/68 69/0/69 67/0/67
f 62/0/62 63/0/63 70/0/70
f 62/0/62 70/0/70 65/0/65
f 63/0/63 71/0/71 70/0/70
f 63/0/63 72/0/72 71/0/71
f 73/0/73 71/0/71 72/0/72
f 4/0/4 73/0/73 72/0/72
f 3/0/3 4/0/4 72/0/72
f 3/0/3 72/0/72 63/0/63
f 73/0/73 74/0/74 71/0/71
f 75/0/75 74/0/74 73/0/73
f 4/0/4 75/0/75 73/0/73
f 75/0/75 76/0/76 74/0/74
f 68/0/68 77/0/77 69/0/69
f 78/0/78 79/0/79 80/0/80
f 79/0/79 81/0/81 80/0/80
f 81/0/81 79/0/79 82/0/82
f 81/0/81 83/0/83 80/0/80
f 83/0/83 84/0/84 80/0/80
f 83/0/83 85/0/85 84/0/84
f 84/0/84 85/0/85 86/0/86
f 80/0/80 84/0/84 87/0/87
f 87/0/87 78/0/78 80/0/80
f 85/0/85 88/0/88 86/0/86
f 86/0/86 88/0/88 89/0/89
f 89/0/89 90/0/90 86/0/86
f 91/0/91 90/0/90 89/0/89
f 92/0/92 91/0/91 89/0/89
f 90/0/90 93/0/93 86/0/86
f 86/0/86 93/0/93 84/0/84
f 84/0/84 93/0/93 87/0/87
f 89/0/89 88/0/88 94/0/94
f 89/0/89 94/0/94 92/0/92
f 92/0/92 94/0/94 95/0/95
f 22/0/22 9/0/9 61/0/61
