# 
# Wavefront OBJ file
# Created with Kaydara FBX
# 
mtllib ground_02.mtl

g ground_02
v -250.030014 0.149950 -27.975710
v -180.029984 0.149950 -27.975710
v -180.029984 0.149950 -97.992592
v -250.030014 0.149950 -97.992592
v -250.030014 0.149950 -97.992592
v -180.029984 0.149950 -97.992592
v -180.029984 0.149950 -147.980545
v -250.030014 0.149950 -147.980545
v -387.638336 0.149950 -27.975710
v -310.000000 0.149950 -27.975710
v -310.000000 0.149950 -96.679405
v -387.638336 0.149950 -96.679405
v -279.306305 0.149950 -69.041695
v -279.306305 0.149950 -57.173100
v -267.500000 0.149950 -57.173100
v -267.500000 0.149950 -69.041695
v -162.328400 0.149950 -27.951391
v -92.328400 0.149950 -27.951408
v -92.328400 0.149950 -147.980545
v -162.311722 0.149950 -147.980545
v -247.000092 0.026744 -10.251548
v -240.014893 0.026744 -10.251548
v -240.014893 0.026744 -13.869455
v -247.000092 0.026744 -13.869444
v -247.000092 0.026744 -12.058151
v -248.834198 0.026744 -12.058151
v -248.723587 0.026744 -11.428900
v -248.405090 0.026744 -10.877301
v -247.917206 0.026744 -10.467800
v -247.318588 0.026744 -10.251548
v -247.318588 0.026744 -13.869444
v -247.917130 0.026744 -13.648403
v -248.405090 0.026744 -13.239000
v -248.723587 0.026744 -12.687349
v -240.014893 0.026744 -10.251548
v -230.014877 0.026744 -10.251548
v -230.014877 0.026744 -13.869455
v -240.014893 0.026744 -13.869455
v -230.014877 0.026744 -10.251548
v -220.014923 0.026744 -10.251548
v -220.014923 0.026744 -13.869455
v -230.014877 0.026744 -13.869455
v -220.014923 0.026744 -10.251548
v -210.014923 0.026744 -10.251548
v -210.014923 0.026744 -13.869455
v -220.014923 0.026744 -13.869455
v -210.014923 0.026744 -10.251548
v -200.014923 0.026744 -10.251548
v -200.014923 0.026744 -13.869455
v -210.014923 0.026744 -13.869455
v -200.014923 0.026744 -10.251548
v -190.014999 0.026744 -10.251548
v -190.014999 0.026744 -13.869455
v -200.014923 0.026744 -13.869455
v -190.014999 0.026744 -13.869455
v -190.014999 0.026744 -10.251548
v -183.000000 0.026744 -10.251554
v -183.000000 0.026744 -13.869455
v -182.681503 0.026744 -13.869444
v -183.000000 0.026744 -13.869455
v -183.000000 0.026744 -12.064449
v -182.082977 0.026744 -13.654699
v -181.594971 0.026744 -13.245297
v -181.276596 0.026744 -12.693702
v -181.165985 0.026744 -12.064449
v -181.276596 0.026744 -11.435199
v -183.000000 0.026744 -10.251554
v -181.595001 0.026744 -10.883599
v -182.082977 0.026744 -10.474200
v -182.681503 0.026744 -10.251554
v -268.948212 0.026744 -11.428900
v -268.837585 0.026744 -12.056200
v -270.671600 0.026744 -12.056200
v -270.671600 0.026744 -10.251549
v -269.266602 0.026744 -10.877301
v -269.754608 0.026744 -10.467800
v -270.353088 0.026744 -10.251549
v -268.948212 0.026744 -12.683499
v -269.266602 0.026744 -13.235100
v -269.754608 0.026744 -13.644499
v -270.671600 0.026744 -13.869442
v -277.585907 0.026744 -13.869455
v -277.585907 0.026744 -10.251549
v -270.353088 0.026744 -13.869442
v -287.585907 0.026744 -13.869457
v -287.585907 0.026744 -10.251549
v -277.585907 0.026744 -10.251549
v -277.585907 0.026744 -13.869455
v -297.585999 0.026744 -13.869457
v -297.585999 0.026744 -10.251549
v -287.585907 0.026744 -10.251549
v -287.585907 0.026744 -13.869457
v -307.585938 0.026744 -13.869457
v -307.585938 0.026744 -10.251549
v -297.585999 0.026744 -10.251549
v -297.585999 0.026744 -13.869457
v -317.585999 0.026744 -13.869457
v -317.585999 0.026744 -10.251549
v -307.585938 0.026744 -10.251549
v -307.585938 0.026744 -13.869457
v -327.585999 0.026744 -13.869457
v -327.585999 0.026744 -10.251549
v -317.585999 0.026744 -10.251549
v -317.585999 0.026744 -13.869457
v -334.671661 0.026744 -12.064329
v -336.505768 0.026744 -12.064524
v -336.395142 0.026744 -11.435199
v -334.671661 0.026744 -10.251552
v -336.076721 0.026744 -10.883599
v -335.588715 0.026744 -10.474200
v -334.990173 0.026744 -10.251552
v -336.395203 0.026744 -12.693705
v -336.076721 0.026744 -13.245304
v -335.588715 0.026744 -13.654699
v -334.990173 0.026744 -13.869448
v -334.671661 0.026744 -13.869454
v -327.585999 0.026744 -13.869457
v -327.585999 0.026744 -10.251549
v -159.041107 0.026744 -10.253149
v -159.041107 0.026744 -12.064446
v -160.875198 0.026744 -12.064446
v -160.764603 0.026744 -11.435199
v -160.446106 0.026744 -10.883599
v -159.958206 0.026744 -10.474200
v -159.344025 0.026744 -10.253149
v -160.764603 0.026744 -12.693704
v -160.446106 0.026744 -13.245298
v -159.958176 0.026744 -13.654697
v -159.344025 0.026744 -13.872596
v -159.041107 0.026744 -13.872596
v -152.184738 0.026744 -13.872602
v -152.184738 0.026744 -10.253149
v -142.184738 0.026744 -13.872603
v -142.184738 0.026744 -10.253149
v -132.184662 0.026744 -10.253149
v -132.184662 0.026744 -13.872603
v -132.184662 0.026744 -13.872603
v -132.184662 0.026744 -10.253149
v -122.184677 0.026744 -10.253149
v -122.184677 0.026744 -13.872603
v -122.184677 0.026744 -13.872603
v -122.184677 0.026744 -10.253149
v -112.184654 0.026744 -10.253149
v -112.184654 0.026744 -13.872603
v -112.184654 0.026744 -13.872603
v -112.184654 0.026744 -10.253149
v -102.167946 0.026744 -10.253149
v -102.167946 0.026744 -13.872603
v -120.015800 0.149900 27.500000
v -80.031700 0.149900 27.500000
v -80.031700 0.149900 7.500000
v -120.015892 0.149900 7.500000
v -160.000000 0.149900 27.500000
v -120.015800 0.149900 27.500000
v -120.015892 0.149900 7.500000
v -160.000000 0.149900 7.500000
v -310.000092 0.149950 -27.975710
v -267.500031 0.149950 -27.975710
v -267.499969 0.149950 -48.000000
v -310.000000 0.149950 -48.000000
v -152.184738 0.026744 -13.872602
v -152.184738 0.026744 -10.253149
v -142.184738 0.026744 -10.253149
v -142.184753 0.026744 -13.872600
v -326.443420 0.149900 27.500000
v -322.142761 0.149900 27.500000
v -322.142761 0.149900 7.500000
v -326.443420 0.149900 7.500000
vt 0.925900 0.028100
vt 0.629400 0.028100
vt 0.629400 0.290900
vt 0.925900 0.290900
vt 0.925900 0.028100
vt 0.629400 0.028100
vt 0.629400 0.290900
vt 0.925900 0.290900
vt 0.925900 0.028100
vt 0.629400 0.028100
vt 0.629400 0.290900
vt 0.925900 0.290900
vt 0.629400 0.290900
vt 0.629400 0.028100
vt 0.925900 0.028100
vt 0.925900 0.290900
vt 0.925900 0.028100
vt 0.629400 0.028100
vt 0.629400 0.290900
vt 0.925900 0.290900
vt 0.050200 0.412900
vt 0.050200 0.250900
vt 0.137200 0.250900
vt 0.137200 0.412900
vt 0.093700 0.412900
vt 0.093700 0.457100
vt 0.078600 0.454500
vt 0.065300 0.446800
vt 0.055400 0.435000
vt 0.050200 0.420600
vt 0.137200 0.420600
vt 0.132000 0.435000
vt 0.122100 0.446800
vt 0.108800 0.454500
vt 0.137200 0.491800
vt 0.137200 0.250600
vt 0.049700 0.250600
vt 0.049700 0.491800
vt 0.137200 0.491800
vt 0.137200 0.250600
vt 0.049700 0.250600
vt 0.049700 0.491800
vt 0.137200 0.491800
vt 0.137200 0.250600
vt 0.049700 0.250600
vt 0.049700 0.491800
vt 0.137200 0.491800
vt 0.137200 0.250600
vt 0.049700 0.250600
vt 0.049700 0.491800
vt 0.137200 0.491800
vt 0.137200 0.250600
vt 0.049700 0.250600
vt 0.049700 0.491800
vt 0.137200 0.250900
vt 0.050200 0.250900
vt 0.050200 0.412900
vt 0.137200 0.412900
vt 0.137200 0.420600
vt 0.137200 0.412900
vt 0.093726 0.412902
vt 0.132000 0.435000
vt 0.122100 0.446800
vt 0.108800 0.454500
vt 0.093700 0.457100
vt 0.078600 0.454500
vt 0.050200 0.412900
vt 0.065300 0.446800
vt 0.055400 0.435000
vt 0.050200 0.420600
vt 0.078600 0.454500
vt 0.093700 0.457100
vt 0.093700 0.412900
vt 0.050200 0.412900
vt 0.065300 0.446800
vt 0.055400 0.435000
vt 0.050200 0.420600
vt 0.108800 0.454500
vt 0.122100 0.446800
vt 0.132000 0.435000
vt 0.137200 0.412900
vt 0.137200 0.250900
vt 0.050200 0.250900
vt 0.137200 0.420600
vt 0.049700 0.250600
vt 0.137200 0.250600
vt 0.137200 0.491800
vt 0.049700 0.491800
vt 0.049700 0.250600
vt 0.137200 0.250600
vt 0.137200 0.491800
vt 0.049700 0.491800
vt 0.049700 0.250600
vt 0.137200 0.250600
vt 0.137200 0.491800
vt 0.049700 0.491800
vt 0.049700 0.250600
vt 0.137200 0.250600
vt 0.137200 0.491800
vt 0.049700 0.491800
vt 0.049700 0.250600
vt 0.137200 0.250600
vt 0.137200 0.491800
vt 0.049700 0.491800
vt 0.093700 0.412900
vt 0.093700 0.457100
vt 0.078600 0.454500
vt 0.050200 0.412900
vt 0.065300 0.446800
vt 0.055400 0.435000
vt 0.050200 0.420600
vt 0.108800 0.454500
vt 0.122100 0.446800
vt 0.132000 0.435000
vt 0.137200 0.420600
vt 0.137200 0.412900
vt 0.137200 0.250900
vt 0.050200 0.250900
vt 0.050200 0.412900
vt 0.093700 0.412900
vt 0.093700 0.457100
vt 0.078600 0.454500
vt 0.065300 0.446800
vt 0.055400 0.435000
vt 0.050200 0.420600
vt 0.108800 0.454500
vt 0.122100 0.446800
vt 0.132000 0.435000
vt 0.137200 0.420600
vt 0.137200 0.412900
vt 0.137200 0.250900
vt 0.050200 0.250900
vt 0.049700 0.250600
vt 0.137200 0.250600
vt 0.137200 0.491800
vt 0.049700 0.491800
vt 0.049700 0.250600
vt 0.137200 0.250600
vt 0.137200 0.491800
vt 0.049700 0.491800
vt 0.049700 0.250600
vt 0.137200 0.250600
vt 0.137200 0.491800
vt 0.049700 0.491800
vt 0.049700 0.250600
vt 0.137200 0.250600
vt 0.137200 0.491800
vt 0.049700 0.491800
vt 0.925900 0.028100
vt 0.629400 0.028100
vt 0.629400 0.290900
vt 0.925900 0.290900
vt 0.925900 0.028100
vt 0.629400 0.028100
vt 0.629400 0.290900
vt 0.925900 0.290900
vt 0.925900 0.028100
vt 0.629400 0.028100
vt 0.629400 0.290900
vt 0.925900 0.290900
vt 0.049700 0.250600
vt 0.137200 0.250600
vt 0.137200 0.491798
vt 0.049700 0.491798
vt 0.925900 0.028100
vt 0.894021 0.028100
vt 0.894021 0.290900
vt 0.925900 0.290900
vn 0.000000 1.000000 0.000000
vn 0.000000 1.000000 0.000000
vn 0.000000 1.000000 0.000000
vn 0.000000 1.000000 0.000000
vn 0.000000 1.000000 0.000000
vn 0.000000 1.000000 0.000000
vn 0.000000 1.000000 0.000000
vn 0.000000 1.000000 0.000000
vn 0.000000 1.000000 0.000000
vn 0.000000 1.000000 0.000000
vn 0.000000 1.000000 0.000000
vn 0.000000 1.000000 0.000000
vn 0.000000 1.000000 0.000000
vn 0.000000 1.000000 0.000000
vn 0.000000 1.000000 0.000000
vn 0.000000 1.000000 0.000000
vn 0.000000 1.000000 0.000000
vn 0.000000 1.000000 0.000000
vn 0.000000 1.000000 0.000000
vn 0.000000 1.000000 0.000000
vn 0.000000 1.000000 0.000000
vn 0.000000 1.000000 0.000000
vn 0.000000 1.000000 0.000000
vn 0.000000 1.000000 0.000000
vn 0.000000 1.000000 0.000000
vn 0.000000 1.000000 0.000000
vn 0.000000 1.000000 0.000000
vn 0.000000 1.000000 0.000000
vn 0.000000 1.000000 0.000000
vn 0.000000 1.000000 0.000000
vn 0.000000 1.000000 0.000000
vn 0.000000 1.000000 0.000000
vn 0.000000 1.000000 0.000000
vn 0.000000 1.000000 0.000000
vn 0.000000 1.000000 0.000000
vn 0.000000 1.000000 0.000000
vn 0.000000 1.000000 0.000000
vn 0.000000 1.000000 0.000000
vn 0.000000 1.000000 0.000000
vn 0.000000 1.000000 0.000000
vn 0.000000 1.000000 0.000000
vn 0.000000 1.000000 0.000000
vn 0.000000 1.000000 0.000000
vn 0.000000 1.000000 0.000000
vn 0.000000 1.000000 0.000000
vn 0.000000 1.000000 0.000000
vn 0.000000 1.000000 0.000000
vn 0.000000 1.000000 0.000000
vn 0.000000 1.000000 0.000000
vn 0.000000 1.000000 0.000000
vn 0.000000 1.000000 0.000000
vn 0.000000 1.000000 0.000000
vn 0.000000 1.000000 0.000000
vn 0.000000 1.000000 0.000000
vn 0.000000 1.000000 0.000000
vn 0.000000 1.000000 0.000000
vn 0.000000 1.000000 0.000000
vn 0.000000 1.000000 0.000000
vn 0.000000 1.000000 0.000000
vn 0.000000 1.000000 0.000000
vn 0.000000 1.000000 0.000000
vn 0.000000 1.000000 0.000000
vn 0.000000 1.000000 0.000000
vn 0.000000 1.000000 0.000000
vn 0.000000 1.000000 0.000000
vn 0.000000 1.000000 0.000000
vn 0.000000 1.000000 0.000000
vn 0.000000 1.000000 0.000000
vn 0.000000 1.000000 0.000000
vn 0.000000 1.000000 0.000000
vn 0.000000 1.000000 0.000000
vn 0.000000 1.000000 0.000000
vn 0.000000 1.000000 0.000000
vn 0.000000 1.000000 0.000000
vn 0.000000 1.000000 0.000000
vn 0.000000 1.000000 0.000000
vn 0.000000 1.000000 0.000000
vn 0.000000 1.000000 0.000000
vn 0.000000 1.000000 0.000000
vn 0.000000 1.000000 0.000000
vn 0.000000 1.000000 0.000000
vn 0.000000 1.000000 0.000000
vn 0.000000 1.000000 0.000000
vn 0.000000 1.000000 0.000000
vn 0.000000 1.000000 0.000000
vn 0.000000 1.000000 0.000000
vn 0.000000 1.000000 0.000000
vn 0.000000 1.000000 0.000000
vn 0.000000 1.000000 0.000000
vn 0.000000 1.000000 0.000000
vn 0.000000 1.000000 0.000000
vn 0.000000 1.000000 0.000000
vn 0.000000 1.000000 0.000000
vn 0.000000 1.000000 0.000000
vn 0.000000 1.000000 0.000000
vn 0.000000 1.000000 0.000000
vn 0.000000 1.000000 0.000000
vn 0.000000 1.000000 0.000000
vn 0.000000 1.000000 0.000000
vn 0.000000 1.000000 0.000000
vn 0.000000 1.000000 0.000000
vn 0.000000 1.000000 0.000000
vn 0.000000 1.000000 0.000000
vn 0.000000 1.000000 0.000000
vn 0.000000 1.000000 0.000000
vn 0.000000 1.000000 0.000000
vn 0.000000 1.000000 0.000000
vn 0.000000 1.000000 0.000000
vn 0.000000 1.000000 0.000000
vn 0.000000 1.000000 0.000000
vn 0.000000 1.000000 0.000000
vn 0.000000 1.000000 0.000000
vn 0.000000 1.000000 0.000000
vn 0.000000 1.000000 0.000000
vn 0.000000 1.000000 0.000000
vn 0.000000 1.000000 0.000000
vn 0.000000 1.000000 0.000000
vn 0.000000 1.000000 0.000000
vn 0.000000 1.000000 0.000000
vn 0.000000 1.000000 0.000000
vn 0.000000 1.000000 0.000000
vn 0.000000 1.000000 0.000000
vn 0.000000 1.000000 0.000000
vn 0.000000 1.000000 0.000000
vn 0.000000 1.000000 0.000000
vn 0.000000 1.000000 0.000000
vn 0.000000 1.000000 0.000000
vn 0.000000 1.000000 0.000000
vn 0.000000 1.000000 0.000000
vn 0.000000 1.000000 0.000000
vn 0.000000 1.000000 0.000000
vn 0.000000 1.000000 0.000000
vn 0.000000 1.000000 0.000000
vn 0.000000 1.000000 0.000000
vn 0.000000 1.000000 0.000000
vn 0.000000 1.000000 0.000000
vn 0.000000 1.000000 0.000000
vn 0.000000 1.000000 0.000000
vn 0.000000 1.000000 0.000000
vn 0.000000 1.000000 0.000000
vn 0.000000 1.000000 0.000000
vn 0.000000 1.000000 0.000000
vn 0.000000 1.000000 0.000000
vn 0.000000 1.000000 0.000000
vn 0.000000 1.000000 0.000000
vn 0.000000 1.000000 0.000000
vn 0.000000 1.000000 0.000000
vn 0.000000 1.000000 0.000000
vn 0.000000 1.000000 0.000000
vn 0.000000 1.000000 0.000000
vn 0.000000 1.000000 0.000000
vn 0.000000 1.000000 0.000000
vn 0.000000 1.000000 0.000000
vn 0.000000 1.000000 0.000000
vn 0.000000 1.000000 0.000000
vn 0.000000 1.000000 0.000000
vn 0.000000 1.000000 0.000000
vn 0.000000 1.000000 0.000000
vn 0.000000 1.000000 0.000000
vn 0.000000 1.000000 0.000000
vn 0.000000 1.000000 0.000000
vn 0.000000 1.000000 0.000000
vn 0.000000 1.000000 0.000000
vn 0.000000 1.000000 0.000000
vn 0.000000 1.000000 0.000000
vn 0.000000 1.000000 0.000000
vn 0.000000 1.000000 0.000000
vn 0.000000 1.000000 0.000000
usemtl material
f 1/0/1 2/0/2 3/0/3
f 1/0/1 3/0/3 4/0/4
f 5/0/5 6/0/6 7/0/7
f 5/0/5 7/0/7 8/0/8
f 9/0/9 10/0/10 11/0/11
f 9/0/9 11/0/11 12/0/12
f 13/0/13 14/0/14 15/0/15
f 13/0/13 15/0/15 16/0/16
f 17/0/17 18/0/18 19/0/19
f 17/0/17 19/0/19 20/0/20
f 21/0/21 22/0/22 23/0/23
f 21/0/21 23/0/23 24/0/24
f 21/0/21 25/0/25 26/0/26
f 26/0/26 27/0/27 21/0/21
f 27/0/27 28/0/28 21/0/21
f 28/0/28 29/0/29 21/0/21
f 29/0/29 30/0/30 21/0/21
f 25/0/25 24/0/24 31/0/31
f 31/0/31 32/0/32 25/0/25
f 32/0/32 33/0/33 25/0/25
f 33/0/33 34/0/34 25/0/25
f 34/0/34 26/0/26 25/0/25
f 35/0/35 36/0/36 37/0/37
f 35/0/35 37/0/37 38/0/38
f 39/0/39 40/0/40 41/0/41
f 39/0/39 41/0/41 42/0/42
f 43/0/43 44/0/44 45/0/45
f 43/0/43 45/0/45 46/0/46
f 47/0/47 48/0/48 49/0/49
f 47/0/47 49/0/49 50/0/50
f 51/0/51 52/0/52 53/0/53
f 51/0/51 53/0/53 54/0/54
f 55/0/55 56/0/56 57/0/57
f 55/0/55 57/0/57 58/0/58
f 59/0/59 60/0/60 61/0/61
f 61/0/61 62/0/62 59/0/59
f 61/0/61 63/0/63 62/0/62
f 61/0/61 64/0/64 63/0/63
f 61/0/61 65/0/65 64/0/64
f 66/0/66 65/0/65 61/0/61
f 61/0/61 67/0/67 66/0/66
f 67/0/67 68/0/68 66/0/66
f 67/0/67 69/0/69 68/0/68
f 67/0/67 70/0/70 69/0/69
f 71/0/71 72/0/72 73/0/73
f 73/0/73 74/0/74 71/0/71
f 74/0/74 75/0/75 71/0/71
f 74/0/74 76/0/76 75/0/75
f 74/0/74 77/0/77 76/0/76
f 73/0/73 72/0/72 78/0/78
f 73/0/73 78/0/78 79/0/79
f 73/0/73 79/0/79 80/0/80
f 81/0/81 73/0/73 80/0/80
f 82/0/82 74/0/74 81/0/81
f 82/0/82 83/0/83 74/0/74
f 80/0/80 84/0/84 81/0/81
f 85/0/85 86/0/86 87/0/87
f 85/0/85 87/0/87 88/0/88
f 89/0/89 90/0/90 91/0/91
f 89/0/89 91/0/91 92/0/92
f 93/0/93 94/0/94 95/0/95
f 93/0/93 95/0/95 96/0/96
f 97/0/97 98/0/98 99/0/99
f 97/0/97 99/0/99 100/0/100
f 101/0/101 102/0/102 103/0/103
f 101/0/101 103/0/103 104/0/104
f 105/0/105 106/0/106 107/0/107
f 107/0/107 108/0/108 105/0/105
f 107/0/107 109/0/109 108/0/108
f 109/0/109 110/0/110 108/0/108
f 110/0/110 111/0/111 108/0/108
f 112/0/112 106/0/106 105/0/105
f 113/0/113 112/0/112 105/0/105
f 114/0/114 113/0/113 105/0/105
f 115/0/115 114/0/114 105/0/105
f 105/0/105 116/0/116 115/0/115
f 108/0/108 117/0/117 116/0/116
f 108/0/108 118/0/118 117/0/117
f 119/0/119 120/0/120 121/0/121
f 121/0/121 122/0/122 119/0/119
f 122/0/122 123/0/123 119/0/119
f 123/0/123 124/0/124 119/0/119
f 124/0/124 125/0/125 119/0/119
f 126/0/126 121/0/121 120/0/120
f 127/0/127 126/0/126 120/0/120
f 128/0/128 127/0/127 120/0/120
f 129/0/129 128/0/128 120/0/120
f 120/0/120 130/0/130 129/0/129
f 119/0/119 131/0/131 130/0/130
f 119/0/119 132/0/132 131/0/131
f 133/0/133 134/0/134 135/0/135
f 133/0/133 135/0/135 136/0/136
f 137/0/137 138/0/138 139/0/139
f 137/0/137 139/0/139 140/0/140
f 141/0/141 142/0/142 143/0/143
f 141/0/141 143/0/143 144/0/144
f 145/0/145 146/0/146 147/0/147
f 145/0/145 147/0/147 148/0/148
f 149/0/149 150/0/150 151/0/151
f 149/0/149 151/0/151 152/0/152
f 153/0/153 154/0/154 155/0/155
f 153/0/153 155/0/155 156/0/156
f 157/0/157 158/0/158 159/0/159
f 157/0/157 159/0/159 160/0/160
f 161/0/161 162/0/162 163/0/163
f 161/0/161 163/0/163 164/0/164
f 165/0/165 166/0/166 167/0/167
f 165/0/165 167/0/167 168/0/168
