# 
# Wavefront OBJ file
# Created with Kaydara FBX
# 
mtllib hedra001 #220290.mtl

g Hedra001
v -0.045999 0.000000 0.304067
v -0.215008 0.119508 0.184560
v -0.215008 -0.119508 0.184560
v -0.215008 0.184560 0.119508
v -0.045999 0.304067 0.000000
v -0.215008 0.184560 -0.119508
v 0.045999 0.304067 0.000000
v 0.215008 0.184560 0.119508
v 0.215008 0.184560 -0.119508
v 0.215008 0.119508 0.184560
v 0.045999 0.000000 0.304067
v 0.215008 -0.119508 0.184560
v 0.215008 -0.184560 0.119508
v 0.045999 -0.304067 0.000000
v 0.215008 -0.184560 -0.119508
v -0.045999 -0.304067 0.000000
v -0.215008 -0.184560 0.119508
v -0.215008 -0.184560 -0.119508
v -0.215008 -0.119508 -0.184560
v -0.215008 0.119508 -0.184560
v -0.045999 -0.000000 -0.304067
v 0.215008 -0.119508 -0.184560
v 0.045999 0.000000 -0.304067
v 0.215008 0.119508 -0.184560
v 0.215008 0.184560 0.119508
v 0.045999 0.304067 0.000000
v -0.045999 0.304067 0.000000
v -0.215008 0.184560 0.119508
v 0.215008 0.119508 0.184560
v -0.215008 0.119508 0.184560
v 0.045999 0.000000 0.304067
v -0.045999 0.000000 0.304067
v -0.045999 -0.304067 0.000000
v 0.045999 -0.304067 0.000000
v 0.215008 -0.184560 0.119508
v -0.215008 -0.184560 0.119508
v -0.215008 -0.119508 0.184560
v 0.215008 -0.119508 0.184560
v -0.045999 0.000000 0.304067
v 0.045999 0.000000 0.304067
v -0.215008 -0.119508 -0.184560
v -0.215008 -0.184560 -0.119508
v -0.215008 -0.184560 0.119508
v -0.215008 -0.119508 0.184560
v -0.215008 0.119508 -0.184560
v -0.215008 0.119508 0.184560
v -0.215008 0.184560 -0.119508
v -0.215008 0.184560 0.119508
v -0.045999 -0.304067 0.000000
v -0.215008 -0.184560 -0.119508
v -0.215008 -0.119508 -0.184560
v -0.045999 -0.000000 -0.304067
v 0.045999 -0.304067 0.000000
v 0.045999 0.000000 -0.304067
v 0.215008 -0.184560 -0.119508
v 0.215008 -0.119508 -0.184560
v -0.045999 -0.000000 -0.304067
v -0.215008 0.119508 -0.184560
v -0.215008 0.184560 -0.119508
v -0.045999 0.304067 0.000000
v 0.045999 0.000000 -0.304067
v 0.045999 0.304067 0.000000
v 0.215008 0.119508 -0.184560
v 0.215008 0.184560 -0.119508
v 0.215008 -0.119508 0.184560
v 0.215008 -0.184560 0.119508
v 0.215008 -0.184560 -0.119508
v 0.215008 -0.119508 -0.184560
v 0.215008 0.119508 0.184560
v 0.215008 0.119508 -0.184560
v 0.215008 0.184560 0.119508
v 0.215008 0.184560 -0.119508
vt 0.106969 0.000000
vt 0.500000 0.196515
vt 0.500000 -0.196515
vt 0.196515 0.500000
vt 0.000000 0.106969
vt -0.196515 0.500000
vt 0.000000 -0.106969
vt 0.196515 -0.500000
vt -0.196515 -0.500000
vt -0.500000 0.196515
vt -0.106969 0.000000
vt -0.500000 -0.196515
vt 0.196515 -0.500000
vt 0.000000 -0.106969
vt -0.196515 -0.500000
vt 0.000000 0.106969
vt 0.196515 0.500000
vt -0.196515 0.500000
vt 0.500000 -0.196515
vt 0.500000 0.196515
vt 0.106969 -0.000000
vt -0.500000 -0.196515
vt -0.106969 0.000000
vt -0.500000 0.196515
vt 0.196515 -0.500000
vt 0.000000 -0.106969
vt 0.000000 0.106969
vt 0.196515 0.500000
vt 0.303485 -0.500000
vt 0.303485 0.500000
vt 0.500000 -0.106969
vt 0.500000 0.106969
vt 0.000000 0.106969
vt 0.000000 -0.106969
vt 0.196515 -0.500000
vt 0.196515 0.500000
vt 0.303485 0.500000
vt 0.303485 -0.500000
vt 0.500000 0.106969
vt 0.500000 -0.106969
vt -0.196515 -0.303485
vt -0.303485 -0.196515
vt -0.303485 0.196515
vt -0.196515 0.303485
vt 0.196515 -0.303485
vt 0.196515 0.303485
vt 0.303485 -0.196515
vt 0.303485 0.196515
vt 0.106969 -0.500000
vt 0.500000 -0.303485
vt 0.500000 -0.196515
vt 0.106969 0.000000
vt -0.106969 -0.500000
vt -0.106969 0.000000
vt -0.500000 -0.303485
vt -0.500000 -0.196515
vt -0.500000 0.106969
vt -0.303485 0.500000
vt -0.196515 0.500000
vt 0.000000 0.106969
vt -0.500000 -0.106969
vt 0.000000 -0.106969
vt -0.303485 -0.500000
vt -0.196515 -0.500000
vt -0.196515 0.303485
vt -0.303485 0.196515
vt -0.303485 -0.196515
vt -0.196515 -0.303485
vt 0.196515 0.303485
vt 0.196515 -0.303485
vt 0.303485 0.196515
vt 0.303485 -0.196515
vn -0.577350 0.000000 0.816497
vn -0.577350 0.000000 0.816497
vn -0.577350 0.000000 0.816497
vn -0.577350 0.816497 0.000000
vn -0.577350 0.816497 0.000000
vn -0.577350 0.816497 0.000000
vn 0.577350 0.816497 0.000000
vn 0.577350 0.816497 0.000000
vn 0.577350 0.816497 0.000000
vn 0.577350 0.000000 0.816497
vn 0.577350 0.000000 0.816497
vn 0.577350 0.000000 0.816497
vn 0.577350 -0.816497 0.000000
vn 0.577350 -0.816497 0.000000
vn 0.577350 -0.816497 0.000000
vn -0.577350 -0.816497 0.000000
vn -0.577350 -0.816497 0.000000
vn -0.577350 -0.816497 0.000000
vn -0.577350 0.000000 -0.816497
vn -0.577350 0.000000 -0.816497
vn -0.577350 0.000000 -0.816497
vn 0.577350 0.000000 -0.816497
vn 0.577350 0.000000 -0.816497
vn 0.577350 0.000000 -0.816497
vn 0.000000 0.707107 0.707107
vn 0.000000 0.707107 0.707107
vn 0.000000 0.707107 0.707107
vn 0.000000 0.707107 0.707107
vn 0.000000 0.707107 0.707107
vn 0.000000 0.707107 0.707107
vn 0.000000 0.707107 0.707107
vn 0.000000 0.707107 0.707107
vn 0.000000 -0.707107 0.707107
vn 0.000000 -0.707107 0.707107
vn 0.000000 -0.707107 0.707107
vn 0.000000 -0.707107 0.707107
vn 0.000000 -0.707107 0.707107
vn 0.000000 -0.707107 0.707107
vn 0.000000 -0.707107 0.707107
vn 0.000000 -0.707107 0.707107
vn -1.000000 0.000000 0.000000
vn -1.000000 0.000000 0.000000
vn -1.000000 0.000000 0.000000
vn -1.000000 0.000000 0.000000
vn -1.000000 0.000000 0.000000
vn -1.000000 0.000000 0.000000
vn -1.000000 0.000000 0.000000
vn -1.000000 0.000000 0.000000
vn 0.000000 -0.707107 -0.707107
vn 0.000000 -0.707107 -0.707107
vn 0.000000 -0.707107 -0.707107
vn 0.000000 -0.707107 -0.707107
vn 0.000000 -0.707107 -0.707107
vn 0.000000 -0.707107 -0.707107
vn 0.000000 -0.707107 -0.707107
vn 0.000000 -0.707107 -0.707107
vn 0.000000 0.707107 -0.707107
vn 0.000000 0.707107 -0.707107
vn 0.000000 0.707107 -0.707107
vn 0.000000 0.707107 -0.707107
vn 0.000000 0.707107 -0.707107
vn 0.000000 0.707107 -0.707107
vn 0.000000 0.707107 -0.707107
vn 0.000000 0.707107 -0.707107
vn 1.000000 0.000000 0.000000
vn 1.000000 0.000000 0.000000
vn 1.000000 0.000000 0.000000
vn 1.000000 0.000000 0.000000
vn 1.000000 0.000000 0.000000
vn 1.000000 0.000000 0.000000
vn 1.000000 0.000000 0.000000
vn 1.000000 0.000000 0.000000
usemtl material
f 1/0/1 2/0/2 3/0/3
f 4/0/4 5/0/5 6/0/6
f 7/0/7 8/0/8 9/0/9
f 10/0/10 11/0/11 12/0/12
f 13/0/13 14/0/14 15/0/15
f 16/0/16 17/0/17 18/0/18
f 19/0/19 20/0/20 21/0/21
f 22/0/22 23/0/23 24/0/24
f 25/0/25 26/0/26 27/0/27
f 27/0/27 28/0/28 25/0/25
f 28/0/28 29/0/29 25/0/25
f 28/0/28 30/0/30 29/0/29
f 30/0/30 31/0/31 29/0/29
f 30/0/30 32/0/32 31/0/31
f 33/0/33 34/0/34 35/0/35
f 35/0/35 36/0/36 33/0/33
f 35/0/35 37/0/37 36/0/36
f 35/0/35 38/0/38 37/0/37
f 38/0/38 39/0/39 37/0/37
f 38/0/38 40/0/40 39/0/39
f 41/0/41 42/0/42 43/0/43
f 43/0/43 44/0/44 41/0/41
f 44/0/44 45/0/45 41/0/41
f 44/0/44 46/0/46 45/0/45
f 46/0/46 47/0/47 45/0/45
f 46/0/46 48/0/48 47/0/47
f 49/0/49 50/0/50 51/0/51
f 51/0/51 52/0/52 49/0/49
f 52/0/52 53/0/53 49/0/49
f 52/0/52 54/0/54 53/0/53
f 54/0/54 55/0/55 53/0/53
f 54/0/54 56/0/56 55/0/55
f 57/0/57 58/0/58 59/0/59
f 59/0/59 60/0/60 57/0/57
f 60/0/60 61/0/61 57/0/57
f 60/0/60 62/0/62 61/0/61
f 62/0/62 63/0/63 61/0/61
f 62/0/62 64/0/64 63/0/63
f 65/0/65 66/0/66 67/0/67
f 67/0/67 68/0/68 65/0/65
f 68/0/68 69/0/69 65/0/65
f 68/0/68 70/0/70 69/0/69
f 70/0/70 71/0/71 69/0/69
f 70/0/70 72/0/72 71/0/71
