# 
# Wavefront OBJ file
# Created with Kaydara FBX
# 
mtllib himeko_back.mtl

g Himeko_back
v -0.074621 -0.074163 0.032875
v -0.045709 -0.073867 0.018232
v -0.045898 -0.101647 0.029774
v -0.071759 -0.100774 0.044714
v -0.021112 -0.070330 0.014825
v -0.020745 -0.100651 0.026134
v -0.000049 -0.067889 0.019557
v -0.000049 -0.101179 0.033184
v -0.021866 -0.123886 0.033230
v -0.000049 -0.124081 0.042277
v -0.000049 -0.042755 0.008907
v -0.022089 -0.045414 0.004429
v -0.053178 -0.049226 0.006100
v -0.081089 -0.052644 0.020732
v -0.072395 -0.122418 0.046534
v -0.045823 -0.123447 0.037219
v -0.026138 -0.011642 -0.015173
v -0.059176 -0.014296 -0.010574
v -0.062334 0.018234 -0.027864
v -0.029183 0.018704 -0.033239
v -0.000049 0.020123 -0.030822
v -0.000049 0.049757 -0.039842
v -0.030212 0.049251 -0.042400
v -0.030255 0.075042 -0.046534
v -0.000048 0.075113 -0.044605
v -0.000049 -0.008855 -0.013100
v -0.031421 0.107225 -0.045339
v -0.000046 0.108877 -0.044271
v -0.066803 0.104729 -0.043863
v -0.065069 0.073363 -0.043481
v -0.098263 0.100066 -0.041597
v -0.096795 0.127905 -0.033903
v -0.066462 0.136813 -0.036494
v -0.098813 0.071137 -0.036942
v -0.065452 0.046924 -0.037906
v -0.098534 0.045278 -0.029260
v -0.098082 0.021847 -0.018842
v -0.089827 -0.017739 -0.001198
v -0.031333 0.142956 -0.040354
v -0.000046 0.144244 -0.040477
v 0.031241 0.142956 -0.040354
v 0.031329 0.107225 -0.045339
v 0.030159 0.075042 -0.046534
v 0.030114 0.049251 -0.042400
v 0.029084 0.018704 -0.033239
v 0.026040 -0.011642 -0.015173
v 0.066712 0.104729 -0.043863
v 0.064973 0.073363 -0.043481
v 0.098042 0.099996 -0.041597
v 0.096409 0.127860 -0.033903
v 0.066371 0.136813 -0.036494
v 0.098717 0.071137 -0.036942
v 0.062236 0.018234 -0.027864
v 0.059078 -0.014296 -0.010574
v 0.065353 0.046924 -0.037906
v 0.098813 0.045278 -0.029260
v 0.098812 0.021847 -0.018842
v 0.053080 -0.049226 0.006100
v 0.021991 -0.045414 0.004429
v 0.021014 -0.070330 0.014825
v 0.020647 -0.100651 0.026134
v 0.045799 -0.101647 0.029774
v 0.045611 -0.073867 0.018232
v 0.075414 -0.074163 0.032875
v 0.071661 -0.100774 0.044714
v 0.082498 -0.052644 0.020732
v 0.072297 -0.122418 0.046534
v 0.045725 -0.123447 0.037219
v 0.045725 -0.123447 0.037219
v 0.021768 -0.123886 0.033230
v 0.045725 -0.143610 0.035118
v 0.072297 -0.142581 0.044433
v 0.021768 -0.144049 0.031129
v 0.045725 -0.143610 0.035118
v 0.021768 -0.123886 0.033230
v -0.000049 -0.101179 0.033184
v -0.000049 -0.144244 0.040176
v 0.021768 -0.144049 0.031129
v 0.090865 -0.017739 -0.001198
v -0.000049 -0.144244 0.040176
v -0.021866 -0.144049 0.031129
v -0.021866 -0.123886 0.033230
v -0.045823 -0.123447 0.037219
v -0.045823 -0.143610 0.035118
v -0.021866 -0.144049 0.031129
v -0.045823 -0.143610 0.035118
v -0.072395 -0.142581 0.044433
vt 0.240527 0.234653
vt 0.347835 0.254325
vt 0.345748 0.153918
vt 0.248094 0.139107
vt 0.428962 0.268110
vt 0.429920 0.161329
vt 0.499709 0.269438
vt 0.500614 0.152949
vt 0.427614 0.080266
vt 0.501657 0.077324
vt 0.499351 0.356874
vt 0.426675 0.356411
vt 0.325429 0.345279
vt 0.226113 0.316663
vt 0.253927 0.069298
vt 0.346200 0.076983
vt 0.415332 0.482120
vt 0.309195 0.470280
vt 0.302972 0.586915
vt 0.407550 0.593292
vt 0.499229 0.593808
vt 0.499237 0.691626
vt 0.404725 0.692117
vt 0.404550 0.773082
vt 0.499184 0.772893
vt 0.499216 0.485769
vt 0.400326 0.873650
vt 0.499099 0.879299
vt 0.289115 0.864861
vt 0.295655 0.766496
vt 0.189625 0.849011
vt 0.191371 0.940763
vt 0.287912 0.968787
vt 0.187582 0.755964
vt 0.294393 0.682066
vt 0.187168 0.670199
vt 0.186047 0.588832
vt 0.208152 0.450574
vt 0.399932 0.987433
vt 0.498960 0.991670
vt 0.597921 0.987648
vt 0.597883 0.873868
vt 0.593892 0.773199
vt 0.593772 0.692120
vt 0.590949 0.593158
vt 0.583036 0.481960
vt 0.709296 0.865419
vt 0.703004 0.766759
vt 0.808792 0.849697
vt 0.806028 0.941822
vt 0.710015 0.969512
vt 0.811624 0.756362
vt 0.695594 0.586530
vt 0.688900 0.469731
vt 0.704349 0.682013
vt 0.813248 0.669951
vt 0.815472 0.587992
vt 0.672398 0.345379
vt 0.571858 0.356538
vt 0.570351 0.268706
vt 0.570817 0.162831
vt 0.653805 0.157331
vt 0.651158 0.255487
vt 0.756245 0.237167
vt 0.748498 0.145010
vt 0.774046 0.316661
vt 0.744811 0.077417
vt 0.655177 0.082148
vt 0.655177 0.082148
vt 0.575184 0.082738
vt 0.650652 0.017936
vt 0.737984 0.014957
vt 0.575721 0.017855
vt 0.650652 0.017936
vt 0.575184 0.082738
vt 0.500614 0.152949
vt 0.502827 0.016378
vt 0.575721 0.017855
vt 0.793043 0.449297
vt 0.502827 0.016378
vt 0.429564 0.014643
vt 0.427614 0.080266
vt 0.346200 0.076983
vt 0.353177 0.011366
vt 0.429564 0.014643
vt 0.353177 0.011366
vt 0.263136 0.005027
vn -0.406506 -0.445468 -0.797691
vn -0.224154 -0.424633 -0.877178
vn -0.284234 -0.313652 -0.905998
vn -0.432946 -0.276532 -0.857955
vn 0.099597 -0.382230 -0.918684
vn 0.096888 -0.343129 -0.934278
vn 0.000000 -0.373763 -0.927524
vn 0.000000 -0.350216 -0.936669
vn 0.108507 -0.114334 -0.987499
vn 0.000000 -0.114275 -0.993449
vn 0.000000 -0.451919 -0.892059
vn 0.089094 -0.448009 -0.889578
vn -0.184252 -0.487240 -0.853609
vn -0.322374 -0.513938 -0.794948
vn -0.377079 -0.046066 -0.925035
vn -0.272257 -0.072199 -0.959512
vn 0.032667 -0.499272 -0.865829
vn -0.167898 -0.484035 -0.858790
vn -0.177568 -0.410279 -0.894506
vn -0.010165 -0.404085 -0.914665
vn 0.000000 -0.402410 -0.915459
vn 0.000001 -0.230067 -0.973175
vn -0.014392 -0.238118 -0.971130
vn -0.008497 -0.078580 -0.996872
vn 0.000000 -0.074112 -0.997250
vn 0.000000 -0.514247 -0.857642
vn -0.026824 0.084960 -0.996023
vn -0.000001 0.074938 -0.997188
vn -0.105045 0.092357 -0.990170
vn -0.120519 -0.123328 -0.985021
vn -0.128472 0.063738 -0.989663
vn -0.129418 0.245401 -0.960744
vn -0.110677 0.208100 -0.971826
vn -0.166353 -0.168363 -0.971587
vn -0.167847 -0.278089 -0.945777
vn -0.223308 -0.309740 -0.924226
vn -0.240337 -0.408844 -0.880389
vn -0.257107 -0.481668 -0.837790
vn -0.040328 0.149320 -0.987966
vn 0.000000 0.122517 -0.992466
vn 0.040328 0.149320 -0.987966
vn 0.026827 0.084959 -0.996023
vn 0.008496 -0.078581 -0.996872
vn 0.014389 -0.238118 -0.971130
vn 0.010165 -0.404085 -0.914665
vn -0.032667 -0.499272 -0.865829
vn 0.105470 0.092586 -0.990103
vn 0.120334 -0.122981 -0.985087
vn 0.129181 0.063073 -0.989613
vn 0.130807 0.245638 -0.960496
vn 0.111264 0.208165 -0.971745
vn 0.166153 -0.168062 -0.971673
vn 0.175010 -0.409586 -0.895327
vn 0.163661 -0.483336 -0.860001
vn 0.166632 -0.277315 -0.946219
vn 0.221018 -0.308864 -0.925070
vn 0.235380 -0.407895 -0.882167
vn 0.178186 -0.487212 -0.854912
vn -0.089094 -0.448009 -0.889578
vn -0.099597 -0.382230 -0.918684
vn -0.096888 -0.343129 -0.934278
vn 0.282239 -0.315558 -0.905960
vn 0.219241 -0.426417 -0.877555
vn 0.395743 -0.451867 -0.799502
vn 0.429859 -0.280966 -0.858067
vn 0.310120 -0.514742 -0.799291
vn 0.377079 -0.046066 -0.925035
vn 0.272257 -0.072199 -0.959512
vn 0.272257 -0.072199 -0.959512
vn -0.108507 -0.114334 -0.987499
vn 0.242340 0.100550 -0.964967
vn 0.325853 0.097982 -0.940329
vn -0.116421 0.102934 -0.987852
vn 0.242340 0.100550 -0.964967
vn -0.108507 -0.114334 -0.987499
vn 0.000000 -0.350216 -0.936669
vn 0.000000 0.103639 -0.994615
vn -0.116421 0.102934 -0.987852
vn 0.248904 -0.480564 -0.840896
vn 0.000000 0.103639 -0.994615
vn 0.116421 0.102934 -0.987852
vn 0.108507 -0.114334 -0.987499
vn -0.272257 -0.072199 -0.959512
vn -0.242340 0.100550 -0.964967
vn 0.116421 0.102934 -0.987852
vn -0.242340 0.100550 -0.964967
vn -0.325853 0.097982 -0.940329
usemtl material
f 1/0/1 2/0/2 3/0/3
f 1/0/1 3/0/3 4/0/4
f 5/0/5 3/0/3 2/0/2
f 5/0/5 6/0/6 3/0/3
f 7/0/7 6/0/6 5/0/5
f 7/0/7 8/0/8 6/0/6
f 9/0/9 6/0/6 8/0/8
f 9/0/9 8/0/8 10/0/10
f 5/0/5 11/0/11 7/0/7
f 5/0/5 12/0/12 11/0/11
f 13/0/13 2/0/2 1/0/1
f 13/0/13 12/0/12 5/0/5
f 13/0/13 5/0/5 2/0/2
f 13/0/13 1/0/1 14/0/14
f 3/0/3 15/0/15 4/0/4
f 3/0/3 16/0/16 15/0/15
f 17/0/17 12/0/12 13/0/13
f 17/0/17 13/0/13 18/0/18
f 18/0/18 13/0/13 14/0/14
f 17/0/17 18/0/18 19/0/19
f 17/0/17 19/0/19 20/0/20
f 21/0/21 17/0/17 20/0/20
f 20/0/20 22/0/22 21/0/21
f 20/0/20 23/0/23 22/0/22
f 19/0/19 23/0/23 20/0/20
f 22/0/22 23/0/23 24/0/24
f 22/0/22 24/0/24 25/0/25
f 21/0/21 26/0/26 17/0/17
f 12/0/12 17/0/17 26/0/26
f 12/0/12 26/0/26 11/0/11
f 27/0/27 25/0/25 24/0/24
f 27/0/27 28/0/28 25/0/25
f 29/0/29 27/0/27 24/0/24
f 29/0/29 24/0/24 30/0/30
f 31/0/31 29/0/29 30/0/30
f 29/0/29 31/0/31 32/0/32
f 29/0/29 32/0/32 33/0/33
f 31/0/31 30/0/30 34/0/34
f 19/0/19 35/0/35 23/0/23
f 35/0/35 34/0/34 30/0/30
f 24/0/24 23/0/23 35/0/35
f 24/0/24 35/0/35 30/0/30
f 35/0/35 36/0/36 34/0/34
f 19/0/19 36/0/36 35/0/35
f 19/0/19 37/0/37 36/0/36
f 19/0/19 38/0/38 37/0/37
f 19/0/19 18/0/18 38/0/38
f 39/0/39 28/0/28 27/0/27
f 39/0/39 27/0/27 29/0/29
f 39/0/39 29/0/29 33/0/33
f 39/0/39 40/0/40 28/0/28
f 18/0/18 14/0/14 38/0/38
f 41/0/41 28/0/28 40/0/40
f 41/0/41 42/0/42 28/0/28
f 42/0/42 25/0/25 28/0/28
f 42/0/42 43/0/43 25/0/25
f 22/0/22 25/0/25 43/0/43
f 22/0/22 43/0/43 44/0/44
f 45/0/45 22/0/22 44/0/44
f 45/0/45 21/0/21 22/0/22
f 21/0/21 45/0/45 46/0/46
f 21/0/21 46/0/46 26/0/26
f 47/0/47 43/0/43 42/0/42
f 41/0/41 47/0/47 42/0/42
f 47/0/47 48/0/48 43/0/43
f 49/0/49 48/0/48 47/0/47
f 47/0/47 50/0/50 49/0/49
f 47/0/47 51/0/51 50/0/50
f 41/0/41 51/0/51 47/0/47
f 49/0/49 52/0/52 48/0/48
f 46/0/46 45/0/45 53/0/53
f 53/0/53 45/0/45 44/0/44
f 46/0/46 53/0/53 54/0/54
f 53/0/53 44/0/44 55/0/55
f 55/0/55 48/0/48 52/0/52
f 43/0/43 48/0/48 55/0/55
f 43/0/43 55/0/55 44/0/44
f 53/0/53 55/0/55 56/0/56
f 55/0/55 52/0/52 56/0/56
f 53/0/53 56/0/56 57/0/57
f 46/0/46 54/0/54 58/0/58
f 46/0/46 58/0/58 59/0/59
f 59/0/59 26/0/26 46/0/46
f 59/0/59 11/0/11 26/0/26
f 60/0/60 11/0/11 59/0/59
f 58/0/58 60/0/60 59/0/59
f 60/0/60 7/0/7 11/0/11
f 7/0/7 60/0/60 61/0/61
f 60/0/60 62/0/62 61/0/61
f 60/0/60 63/0/63 62/0/62
f 58/0/58 63/0/63 60/0/60
f 64/0/64 62/0/62 63/0/63
f 58/0/58 64/0/64 63/0/63
f 64/0/64 65/0/65 62/0/62
f 7/0/7 61/0/61 8/0/8
f 58/0/58 66/0/66 64/0/64
f 54/0/54 66/0/66 58/0/58
f 62/0/62 65/0/65 67/0/67
f 62/0/62 67/0/67 68/0/68
f 61/0/61 62/0/62 69/0/69
f 61/0/61 69/0/69 70/0/70
f 67/0/67 71/0/71 69/0/69
f 67/0/67 72/0/72 71/0/71
f 69/0/69 73/0/73 70/0/70
f 69/0/69 74/0/74 73/0/73
f 75/0/75 76/0/76 61/0/61
f 75/0/75 10/0/10 76/0/76
f 70/0/70 77/0/77 10/0/10
f 70/0/70 78/0/78 77/0/77
f 54/0/54 79/0/79 66/0/66
f 53/0/53 79/0/79 54/0/54
f 53/0/53 57/0/57 79/0/79
f 10/0/10 80/0/80 81/0/81
f 10/0/10 81/0/81 82/0/82
f 6/0/6 82/0/82 83/0/83
f 6/0/6 83/0/83 3/0/3
f 82/0/82 84/0/84 83/0/83
f 82/0/82 85/0/85 84/0/84
f 83/0/83 86/0/86 87/0/87
f 83/0/83 87/0/87 15/0/15
