# 
# Wavefront OBJ file
# Created with Kaydara FBX
# 
mtllib himeko_logo01.mtl

g Himeko_logo01
v -0.000040 -0.037619 -0.000073
v -0.034897 -0.037603 -0.000809
v -0.034902 0.001862 -0.003269
v -0.000040 0.001867 -0.004483
v -0.034898 0.037387 0.004483
v -0.000040 0.037619 0.003200
v 0.034901 0.001862 -0.003269
v 0.034902 -0.037603 -0.000809
v 0.034902 0.037387 0.004483
vt 0.500409 0.004235
vt 0.067370 0.004235
vt 0.067370 0.500237
vt 0.500409 0.500237
vt 0.067370 0.994987
vt 0.500409 0.994987
vt 0.931286 0.500237
vt 0.931286 0.004235
vt 0.931286 0.994987
vn 0.000000 -0.086679 -0.996236
vn -0.006850 -0.086677 -0.996213
vn -0.020947 0.057149 -0.998146
vn 0.000000 0.056770 -0.998387
vn -0.035715 0.211502 -0.976725
vn 0.000000 0.211636 -0.977349
vn 0.020898 0.057146 -0.998147
vn 0.006834 -0.086677 -0.996213
vn 0.035632 0.211500 -0.976728
usemtl material
f 1/0/1 2/0/2 3/0/3
f 1/0/1 3/0/3 4/0/4
f 4/0/4 3/0/3 5/0/5
f 4/0/4 5/0/5 6/0/6
f 1/0/1 4/0/4 7/0/7
f 1/0/1 7/0/7 8/0/8
f 4/0/4 6/0/6 9/0/9
f 4/0/4 9/0/9 7/0/7
