# 
# Wavefront OBJ file
# Created with Kaydara FBX
# 
mtllib house03_c09.mtl

g House03_C09
v -15.560009 8.813411 -5.250000
v -0.000029 8.813408 -5.249985
v -0.000029 8.745723 -5.374980
v -15.560009 8.745725 -5.374990
v -0.000029 8.471401 -5.374980
v -15.560009 8.471398 -5.374990
v -15.560009 8.745725 -5.124990
v -0.000029 8.745720 -5.124985
v -15.560009 8.471401 -5.124990
v -0.000029 8.471401 -5.124985
v -15.560009 8.530413 -5.250000
v -15.560009 8.813411 -5.250000
v -15.560009 8.745725 -5.374990
v -15.560009 8.471398 -5.374990
v -15.560009 8.471401 -5.124990
v -15.560009 8.745725 -5.124990
v -0.000029 8.530408 -5.249985
v -0.000029 8.813408 -5.249985
v -0.000029 8.745720 -5.124985
v -0.000029 8.471401 -5.124985
v -0.000029 8.471401 -5.374980
v -0.000029 8.745723 -5.374980
v -0.219414 6.037527 -10.898364
v -0.619121 6.037527 -10.898364
v -0.419268 6.198452 -10.910405
v -0.619121 8.530402 -5.249995
v -0.419268 8.739685 -5.249995
v -0.419268 6.198452 -10.910405
v -0.619121 6.037527 -10.898364
v -0.219414 8.530402 -5.249995
v -0.219414 6.037527 -10.898364
v -0.619121 8.530402 -5.249995
v -0.619121 6.037545 0.398364
v -0.419268 6.198469 0.410415
v -0.419268 8.739685 -5.249995
v -0.619121 6.037545 0.398364
v -0.219414 6.037545 0.398364
v -0.419268 6.198469 0.410415
v -0.419268 6.198469 0.410415
v -0.219414 6.037545 0.398364
v -0.219414 8.530402 -5.249995
v -0.419268 8.739685 -5.249995
v -14.940937 6.037527 -10.898359
v -15.340644 6.037527 -10.898359
v -15.140791 6.198452 -10.910400
v -15.340644 8.530402 -5.249990
v -15.140791 8.739685 -5.249990
v -15.140791 6.198452 -10.910400
v -15.340644 6.037527 -10.898359
v -14.940937 8.530402 -5.249990
v -14.940937 6.037527 -10.898359
v -15.340644 8.530402 -5.249990
v -15.340644 6.037545 0.398369
v -15.140791 6.198469 0.410420
v -15.140791 8.739685 -5.249990
v -15.340644 6.037545 0.398369
v -14.940937 6.037545 0.398369
v -15.140791 6.198469 0.410420
v -15.140791 6.198469 0.410420
v -14.940937 6.037545 0.398369
v -14.940937 8.530402 -5.249990
v -15.140791 8.739685 -5.249990
vt 3.825996 0.152257
vt -2.789574 0.152284
vt -2.789575 0.196083
vt 3.825990 0.196238
vt -2.789574 0.197831
vt 3.826005 0.198134
vt 3.825994 0.108127
vt -2.789580 0.108205
vt 3.825996 0.107103
vt -2.789567 0.106927
vt 0.328606 0.032083
vt 0.329072 0.103649
vt 0.287059 0.086991
vt 0.287995 0.014505
vt 0.369912 0.014383
vt 0.369560 0.085945
vt 0.328898 0.031950
vt 0.328902 0.103751
vt 0.286926 0.087298
vt 0.288010 0.015069
vt 0.369792 0.015074
vt 0.369795 0.084941
vt 0.622972 0.017681
vt 0.424323 0.017681
vt 0.523648 0.117005
vt -0.475537 0.119241
vt -0.475537 0.196874
vt 1.475537 0.196874
vt 1.475537 0.119241
vt -0.475537 0.119241
vt 1.475537 0.119241
vt 1.475537 0.119241
vt -0.475537 0.119241
vt -0.475537 0.196874
vt 1.475537 0.196874
vt 0.622972 0.017681
vt 0.424323 0.017681
vt 0.523648 0.117005
vt -0.475537 0.119241
vt -0.475537 0.196874
vt 1.475537 0.196874
vt 1.475537 0.119241
vt 0.622972 0.017681
vt 0.424323 0.017681
vt 0.523648 0.117005
vt -0.475537 0.119241
vt -0.475537 0.196874
vt 1.475537 0.196874
vt 1.475537 0.119241
vt -0.475537 0.119241
vt 1.475537 0.119241
vt 1.475537 0.119241
vt -0.475537 0.119241
vt -0.475537 0.196874
vt 1.475537 0.196874
vt 0.622972 0.017681
vt 0.424323 0.017681
vt 0.523648 0.117005
vt -0.475537 0.119241
vt -0.475537 0.196874
vt 1.475537 0.196874
vt 1.475537 0.119241
vn 0.000000 1.000000 0.000003
vn 0.000000 1.000000 0.000004
vn 0.000001 0.343261 -0.939240
vn 0.000001 0.343261 -0.939240
vn 0.000001 0.000000 -1.000000
vn 0.000001 0.000000 -1.000000
vn -0.000000 0.343291 0.939229
vn -0.000000 0.343291 0.939229
vn -0.000000 0.000000 1.000000
vn -0.000000 0.000000 1.000000
vn -1.000000 0.000000 0.000000
vn -1.000000 0.000000 0.000000
vn -1.000000 0.000000 0.000000
vn -1.000000 0.000000 0.000000
vn -1.000000 0.000000 0.000000
vn -1.000000 0.000000 0.000000
vn 1.000000 0.000000 0.000000
vn 1.000000 0.000000 0.000000
vn 1.000000 0.000000 0.000000
vn 1.000000 0.000000 0.000000
vn 1.000000 0.000000 0.000000
vn 1.000000 0.000000 0.000000
vn 0.000000 -0.074615 -0.997212
vn 0.000000 -0.074615 -0.997212
vn 0.000000 -0.074615 -0.997212
vn -0.684759 0.728769 -0.000001
vn 0.000000 1.000000 -0.000001
vn 0.000000 0.913572 -0.406677
vn -0.651340 0.693205 -0.308581
vn 0.684760 0.728769 -0.000001
vn 0.651341 0.693205 -0.308581
vn -0.684759 0.728769 -0.000001
vn -0.651344 0.693203 0.308578
vn 0.000000 0.913573 0.406675
vn 0.000000 1.000000 -0.000001
vn 0.000000 -0.074676 0.997208
vn 0.000000 -0.074676 0.997208
vn 0.000000 -0.074676 0.997208
vn 0.000000 0.913573 0.406675
vn 0.651344 0.693203 0.308578
vn 0.684760 0.728769 -0.000001
vn 0.000000 1.000000 -0.000001
vn 0.000000 -0.074615 -0.997212
vn 0.000000 -0.074615 -0.997212
vn 0.000000 -0.074615 -0.997212
vn -0.684759 0.728769 -0.000001
vn -0.000000 1.000000 -0.000001
vn -0.000000 0.913572 -0.406677
vn -0.651341 0.693205 -0.308581
vn 0.684760 0.728769 -0.000001
vn 0.651341 0.693205 -0.308581
vn -0.684759 0.728769 -0.000001
vn -0.651344 0.693204 0.308578
vn -0.000000 0.913573 0.406675
vn -0.000000 1.000000 -0.000001
vn 0.000000 -0.074676 0.997208
vn 0.000000 -0.074676 0.997208
vn 0.000000 -0.074676 0.997208
vn -0.000000 0.913573 0.406675
vn 0.651345 0.693202 0.308578
vn 0.684760 0.728769 -0.000001
vn -0.000000 1.000000 -0.000001
usemtl material
f 1/0/1 2/0/2 3/0/3
f 1/0/1 3/0/3 4/0/4
f 5/0/5 4/0/4 3/0/3
f 5/0/5 6/0/6 4/0/4
f 7/0/7 2/0/2 1/0/1
f 7/0/7 8/0/8 2/0/2
f 9/0/9 8/0/8 7/0/7
f 9/0/9 10/0/10 8/0/8
f 11/0/11 12/0/12 13/0/13
f 11/0/11 13/0/13 14/0/14
f 15/0/15 12/0/12 11/0/11
f 15/0/15 16/0/16 12/0/12
f 17/0/17 18/0/18 19/0/19
f 17/0/17 19/0/19 20/0/20
f 21/0/21 18/0/18 17/0/17
f 21/0/21 22/0/22 18/0/18
f 23/0/23 24/0/24 25/0/25
f 26/0/26 27/0/27 28/0/28
f 26/0/26 28/0/28 29/0/29
f 30/0/30 28/0/28 27/0/27
f 30/0/30 31/0/31 28/0/28
f 32/0/32 33/0/33 34/0/34
f 32/0/32 34/0/34 35/0/35
f 36/0/36 37/0/37 38/0/38
f 39/0/39 40/0/40 41/0/41
f 39/0/39 41/0/41 42/0/42
f 43/0/43 44/0/44 45/0/45
f 46/0/46 47/0/47 48/0/48
f 46/0/46 48/0/48 49/0/49
f 50/0/50 48/0/48 47/0/47
f 50/0/50 51/0/51 48/0/48
f 52/0/52 53/0/53 54/0/54
f 52/0/52 54/0/54 55/0/55
f 56/0/56 57/0/57 58/0/58
f 59/0/59 60/0/60 61/0/61
f 59/0/59 61/0/61 62/0/62
