# 
# Wavefront OBJ file
# Created with Kaydara FBX
# 
mtllib house_01_lowpoly_far04.mtl

g House_01_LowPoly_Far04
v -1.318843 5.578228 -9.082031
v -1.318853 7.800338 -5.250020
v -1.318853 5.578228 -1.433086
v -14.197441 5.578228 -1.433086
v -14.197436 7.800338 -5.250000
v -14.197441 5.578228 -9.082050
v -14.197441 5.578228 -1.433086
v -1.318853 5.578228 -1.433086
v -1.318853 7.800338 -5.250020
v -14.197436 7.800338 -5.250000
v -14.197436 7.800338 -5.250000
v -1.318853 7.800338 -5.250020
v -1.318843 5.578228 -9.082031
v -14.197441 5.578228 -9.082050
v -14.197441 5.578228 -1.433086
v -16.552847 4.837208 1.052891
v 1.052876 4.837208 1.052871
v -1.318853 5.578228 -1.433086
v -1.318843 5.578228 -9.082031
v 1.052866 4.837208 -11.552891
v -16.552851 4.837213 -11.552891
v -14.197441 5.578228 -9.082050
v -1.318853 5.578228 -1.433086
v 1.052876 4.837208 1.052871
v 1.052866 4.837208 -11.552891
v -1.318843 5.578228 -9.082031
v -14.197441 5.578228 -9.082050
v -16.552851 4.837213 -11.552891
v -16.552847 4.837208 1.052891
v -14.197441 5.578228 -1.433086
v -0.163579 4.827962 -10.303633
v -0.163579 3.171381 -10.303633
v -15.261137 3.171386 -10.303633
v -15.261137 4.827968 -10.303633
v -0.163579 0.012509 -10.303633
v -15.261137 0.012513 -10.303633
v -0.163574 4.827962 -0.229102
v -0.163574 3.171381 -0.229102
v -0.163579 3.171381 -10.303633
v -0.163579 4.827962 -10.303633
v -0.163574 0.012509 -0.229102
v -0.163579 0.012509 -10.303633
v -15.261137 4.827962 -0.229102
v -15.261137 3.171381 -0.229102
v -0.163574 3.171381 -0.229102
v -0.163574 4.827962 -0.229102
v -0.163574 0.012509 -0.229102
v -15.261137 0.012509 -0.229102
v -15.261137 4.827968 -10.303633
v -15.261137 3.171386 -10.303633
v -15.261137 3.171381 -0.229102
v -15.261137 4.827962 -0.229102
v -15.261137 0.012513 -10.303633
v -15.261137 0.012509 -0.229102
v -15.261137 3.171381 -0.229102
v -16.552856 2.971471 1.063125
v 1.052866 2.971471 1.063105
v -0.163574 3.171381 -0.229102
v -0.163579 3.171381 -10.303633
v 1.052866 2.971471 -11.539961
v -16.552851 2.971476 -11.539961
v -15.261137 3.171386 -10.303633
v -0.163574 3.171381 -0.229102
v 1.052866 2.971471 1.063105
v 1.052866 2.971471 -11.539961
v -0.163579 3.171381 -10.303633
v -15.261137 3.171386 -10.303633
v -16.552851 2.971476 -11.539961
v -16.552856 2.971471 1.063125
v -15.261137 3.171381 -0.229102
v -16.552847 4.837208 1.052891
v -15.261137 4.827962 -0.229102
v -0.163574 4.827962 -0.229102
v 1.052876 4.837208 1.052871
v 1.052866 4.837208 -11.552891
v -0.163579 4.827962 -10.303633
v -15.261137 4.827968 -10.303633
v -16.552851 4.837213 -11.552891
v 1.052876 4.837208 1.052871
v -0.163574 4.827962 -0.229102
v -0.163579 4.827962 -10.303633
v 1.052866 4.837208 -11.552891
v -16.552851 4.837213 -11.552891
v -15.261137 4.827968 -10.303633
v -15.261137 4.827962 -0.229102
v -16.552847 4.837208 1.052891
vt 0.605958 0.907977
vt 0.753149 0.998652
vt 0.899760 0.907977
vt 0.393986 0.907977
vt 0.247375 0.998652
vt 0.100184 0.907977
vt 0.646093 0.571041
vt 0.109010 0.571041
vt 0.109010 0.677611
vt 0.646093 0.677611
vt 0.646375 0.336757
vt 0.109292 0.336757
vt 0.109292 0.230186
vt 0.646375 0.230186
vt 0.646093 0.571041
vt 0.744322 0.538983
vt 0.010101 0.538983
vt 0.109010 0.571041
vt 0.109292 0.230186
vt 0.010383 0.198129
vt 0.744604 0.198129
vt 0.646375 0.230186
vt 0.899760 0.907977
vt 0.995247 0.877738
vt 0.511052 0.877738
vt 0.605958 0.907977
vt 0.100184 0.907977
vt 0.005278 0.877739
vt 0.489474 0.877738
vt 0.393986 0.907977
vt 0.061113 0.197729
vt 0.061113 0.136505
vt 0.690735 0.136505
vt 0.690735 0.197729
vt 0.061113 -0.000150
vt 0.690735 -0.000150
vt 0.946006 0.877361
vt 0.946006 0.809763
vt 0.559037 0.809763
vt 0.559037 0.877361
vt 0.946006 0.680861
vt 0.559037 0.680861
vt 0.690453 0.538583
vt 0.690453 0.477359
vt 0.060831 0.477359
vt 0.060831 0.538583
vt 0.060831 0.340704
vt 0.690453 0.340704
vt 0.053263 0.877361
vt 0.053263 0.809763
vt 0.440232 0.809763
vt 0.440232 0.877361
vt 0.053263 0.680862
vt 0.440232 0.680861
vt 0.690453 0.477359
vt 0.744322 0.462517
vt 0.010101 0.462517
vt 0.060831 0.477359
vt 0.061113 0.136505
vt 0.010383 0.121662
vt 0.744604 0.121663
vt 0.690735 0.136505
vt 0.946006 0.809763
vt 0.995641 0.801605
vt 0.511548 0.801605
vt 0.559037 0.809763
vt 0.053263 0.809763
vt 0.005774 0.801605
vt 0.489868 0.801605
vt 0.440232 0.809763
vt 0.934160 0.717119
vt 0.921004 0.703964
vt 0.767243 0.703964
vt 0.754854 0.717119
vt 0.934159 0.717119
vt 0.921771 0.703964
vt 0.768010 0.703964
vt 0.754854 0.717119
vt 0.934160 0.717119
vt 0.921103 0.703964
vt 0.818499 0.703964
vt 0.805776 0.717119
vt 0.934159 0.717119
vt 0.921437 0.703964
vt 0.818833 0.703964
vt 0.805776 0.717119
vn 1.000000 0.000002 0.000001
vn 1.000000 0.000002 0.000001
vn 1.000000 0.000002 0.000001
vn -1.000000 0.000001 0.000000
vn -1.000000 0.000001 0.000000
vn -1.000000 0.000001 0.000000
vn 0.000000 0.864215 0.503123
vn 0.000000 0.864215 0.503123
vn 0.000000 0.864215 0.503123
vn 0.000000 0.864215 0.503123
vn 0.000000 0.865077 -0.501639
vn 0.000000 0.865077 -0.501639
vn 0.000000 0.865077 -0.501639
vn 0.000000 0.865077 -0.501639
vn 0.000000 0.958331 0.285660
vn 0.000000 0.958331 0.285660
vn 0.000000 0.958331 0.285661
vn 0.000000 0.958331 0.285660
vn 0.000000 0.957852 -0.287264
vn 0.000000 0.957852 -0.287264
vn 0.000000 0.957852 -0.287264
vn 0.000000 0.957852 -0.287264
vn 0.298223 0.954496 0.000000
vn 0.298223 0.954496 0.000000
vn 0.298223 0.954496 0.000000
vn 0.298223 0.954496 0.000000
vn -0.300102 0.953907 0.000000
vn -0.300102 0.953907 0.000000
vn -0.300102 0.953907 0.000000
vn -0.300102 0.953907 0.000000
vn 0.000000 0.000000 -1.000000
vn 0.000000 0.000000 -1.000000
vn 0.000000 0.000000 -1.000000
vn 0.000000 0.000000 -1.000000
vn 0.000000 0.000000 -1.000000
vn 0.000000 0.000000 -1.000000
vn 1.000000 0.000000 -0.000000
vn 1.000000 0.000000 -0.000000
vn 1.000000 0.000000 -0.000000
vn 1.000000 0.000000 -0.000000
vn 1.000000 0.000000 -0.000000
vn 1.000000 0.000000 -0.000000
vn 0.000000 0.000000 1.000000
vn 0.000000 0.000000 1.000000
vn 0.000000 0.000000 1.000000
vn 0.000000 0.000000 1.000000
vn 0.000000 0.000000 1.000000
vn 0.000000 0.000000 1.000000
vn -1.000000 0.000000 0.000000
vn -1.000000 0.000000 0.000000
vn -1.000000 0.000000 0.000000
vn -1.000000 0.000000 0.000000
vn -1.000000 0.000000 0.000000
vn -1.000000 0.000000 0.000000
vn 0.000000 0.988244 0.152884
vn 0.000000 0.988244 0.152884
vn 0.000000 0.988244 0.152884
vn 0.000000 0.988244 0.152884
vn 0.000000 0.987178 -0.159623
vn 0.000000 0.987178 -0.159623
vn 0.000000 0.987178 -0.159623
vn 0.000000 0.987178 -0.159623
vn 0.162164 0.986764 0.000000
vn 0.162164 0.986764 0.000000
vn 0.162164 0.986764 0.000000
vn 0.162164 0.986764 0.000000
vn -0.152942 0.988235 0.000000
vn -0.152942 0.988235 0.000000
vn -0.152942 0.988235 0.000000
vn -0.152942 0.988235 0.000000
vn 0.000000 -0.999974 0.007212
vn 0.000000 -0.999974 0.007212
vn 0.000000 -0.999974 0.007212
vn 0.000000 -0.999974 0.007212
vn -0.000000 -0.999973 -0.007401
vn -0.000000 -0.999973 -0.007401
vn -0.000000 -0.999973 -0.007401
vn -0.000000 -0.999973 -0.007401
vn 0.007600 -0.999971 0.000000
vn 0.007600 -0.999971 0.000000
vn 0.007600 -0.999971 0.000000
vn 0.007600 -0.999971 0.000000
vn -0.007157 -0.999974 -0.000000
vn -0.007157 -0.999974 -0.000000
vn -0.007157 -0.999974 -0.000000
vn -0.007157 -0.999974 -0.000000
usemtl material
f 1/0/1 2/0/2 3/0/3
f 4/0/4 5/0/5 6/0/6
f 7/0/7 8/0/8 9/0/9
f 7/0/7 9/0/9 10/0/10
f 11/0/11 12/0/12 13/0/13
f 11/0/11 13/0/13 14/0/14
f 15/0/15 16/0/16 17/0/17
f 15/0/15 17/0/17 18/0/18
f 19/0/19 20/0/20 21/0/21
f 19/0/19 21/0/21 22/0/22
f 23/0/23 24/0/24 25/0/25
f 23/0/23 25/0/25 26/0/26
f 27/0/27 28/0/28 29/0/29
f 27/0/27 29/0/29 30/0/30
f 31/0/31 32/0/32 33/0/33
f 31/0/31 33/0/33 34/0/34
f 33/0/33 32/0/32 35/0/35
f 33/0/33 35/0/35 36/0/36
f 37/0/37 38/0/38 39/0/39
f 37/0/37 39/0/39 40/0/40
f 39/0/39 38/0/38 41/0/41
f 39/0/39 41/0/41 42/0/42
f 43/0/43 44/0/44 45/0/45
f 43/0/43 45/0/45 46/0/46
f 44/0/44 47/0/47 45/0/45
f 44/0/44 48/0/48 47/0/47
f 49/0/49 50/0/50 51/0/51
f 49/0/49 51/0/51 52/0/52
f 51/0/51 50/0/50 53/0/53
f 51/0/51 53/0/53 54/0/54
f 55/0/55 56/0/56 57/0/57
f 55/0/55 57/0/57 58/0/58
f 59/0/59 60/0/60 61/0/61
f 59/0/59 61/0/61 62/0/62
f 63/0/63 64/0/64 65/0/65
f 63/0/63 65/0/65 66/0/66
f 67/0/67 68/0/68 69/0/69
f 67/0/67 69/0/69 70/0/70
f 71/0/71 72/0/72 73/0/73
f 71/0/71 73/0/73 74/0/74
f 75/0/75 76/0/76 77/0/77
f 75/0/75 77/0/77 78/0/78
f 79/0/79 80/0/80 81/0/81
f 79/0/79 81/0/81 82/0/82
f 83/0/83 84/0/84 85/0/85
f 83/0/83 85/0/85 86/0/86
