# 
# Wavefront OBJ file
# Created with Kaydara FBX
# 
mtllib house05_c09.mtl

g House05_C09
v -1.318859 8.083347 -5.250009
v -14.181126 8.083345 -5.250016
v -14.181126 8.015657 -5.125024
v -1.318859 8.015659 -5.125016
v -14.181126 7.741334 -5.125024
v -1.318859 7.741334 -5.125009
v -1.318859 8.015659 -5.375009
v -14.181126 8.015657 -5.375016
v -1.318859 7.741334 -5.375013
v -14.181126 7.741336 -5.375016
v -1.318859 7.800346 -5.250009
v -1.318859 8.083347 -5.250009
v -1.318859 8.015659 -5.125016
v -1.318859 7.741334 -5.125009
v -1.318859 7.741334 -5.375013
v -1.318859 8.015659 -5.375009
v -14.181126 7.800344 -5.250016
v -14.181126 8.083345 -5.250016
v -14.181126 8.015657 -5.375016
v -14.181126 7.741336 -5.375016
v -14.181126 7.741334 -5.125024
v -14.181126 8.015657 -5.125024
vt 3.239752 0.152218
vt -2.228841 0.152242
vt -2.228843 0.196102
vt 3.239746 0.196227
vt -2.228841 0.197850
vt 3.239759 0.198111
vt 3.239749 0.108134
vt -2.228848 0.108209
vt 3.239752 0.107098
vt -2.228836 0.106930
vt 0.328609 0.032083
vt 0.329075 0.103649
vt 0.287059 0.086991
vt 0.287995 0.014505
vt 0.369918 0.014383
vt 0.369567 0.085945
vt 0.328899 0.031951
vt 0.328903 0.103752
vt 0.286930 0.087299
vt 0.288014 0.015071
vt 0.369791 0.015075
vt 0.369794 0.084941
vn -0.000000 1.000000 0.000000
vn -0.000000 1.000000 -0.000000
vn -0.000001 0.343267 0.939238
vn -0.000001 0.343267 0.939238
vn -0.000001 0.000013 1.000000
vn -0.000001 0.000013 1.000000
vn 0.000000 0.343283 -0.939232
vn 0.000000 0.343283 -0.939232
vn 0.000000 0.000009 -1.000000
vn 0.000000 0.000009 -1.000000
vn 1.000000 -0.000000 0.000000
vn 1.000000 -0.000000 0.000000
vn 1.000000 -0.000000 0.000000
vn 1.000000 -0.000000 0.000000
vn 1.000000 0.000000 0.000000
vn 1.000000 0.000000 0.000000
vn -1.000000 0.000002 0.000000
vn -1.000000 0.000002 0.000000
vn -1.000000 0.000002 0.000000
vn -1.000000 0.000002 0.000000
vn -1.000000 0.000006 0.000000
vn -1.000000 0.000006 0.000000
usemtl material
f 1/0/1 2/0/2 3/0/3
f 1/0/1 3/0/3 4/0/4
f 5/0/5 4/0/4 3/0/3
f 5/0/5 6/0/6 4/0/4
f 7/0/7 2/0/2 1/0/1
f 7/0/7 8/0/8 2/0/2
f 9/0/9 8/0/8 7/0/7
f 9/0/9 10/0/10 8/0/8
f 11/0/11 12/0/12 13/0/13
f 11/0/11 13/0/13 14/0/14
f 15/0/15 12/0/12 11/0/11
f 15/0/15 16/0/16 12/0/12
f 17/0/17 18/0/18 19/0/19
f 17/0/17 19/0/19 20/0/20
f 21/0/21 18/0/18 17/0/17
f 21/0/21 22/0/22 18/0/18
