# 
# Wavefront OBJ file
# Created with Kaydara FBX
# 
mtllib house04_c09.mtl

g House04_C09
v -0.559082 5.719619 0.398367
v -0.159375 5.719619 0.398367
v -0.359238 5.880544 0.410408
v -0.159375 8.212496 -5.250002
v -0.359238 8.421779 -5.250002
v -0.359238 5.880544 0.410408
v -0.159375 5.719619 0.398367
v -0.559082 8.212496 -5.250002
v -0.559082 5.719619 0.398367
v -0.159375 8.212496 -5.250002
v -0.159375 5.719637 -10.898361
v -0.359238 5.880561 -10.910413
v -0.359238 8.421779 -5.250002
v -0.159375 5.719637 -10.898361
v -0.559082 5.719637 -10.898361
v -0.359238 5.880561 -10.910413
v -0.359238 5.880561 -10.910413
v -0.559082 5.719637 -10.898361
v -0.559082 8.212496 -5.250002
v -0.359238 8.421779 -5.250002
v -15.280620 5.719619 0.398367
v -14.880913 5.719619 0.398367
v -15.080767 5.880544 0.410408
v -14.880913 8.212496 -5.250002
v -15.080767 8.421779 -5.250002
v -15.080767 5.880544 0.410408
v -14.880913 5.719619 0.398367
v -15.280620 8.212496 -5.250002
v -15.280620 5.719619 0.398367
v -14.880913 8.212496 -5.250002
v -14.880913 5.719637 -10.898361
v -15.080767 5.880561 -10.910413
v -15.080767 8.421779 -5.250002
v -14.880913 5.719637 -10.898361
v -15.280620 5.719637 -10.898361
v -15.080767 5.880561 -10.910413
v -15.080767 5.880561 -10.910413
v -15.280620 5.719637 -10.898361
v -15.280620 8.212496 -5.250002
v -15.080767 8.421779 -5.250002
v 0.059990 8.495502 -5.249992
v -15.500000 8.495499 -5.250005
v -15.500000 8.427814 -5.125007
v 0.059990 8.427816 -5.125000
v -15.500000 8.153490 -5.125007
v 0.059990 8.153487 -5.124995
v 0.059980 8.427816 -5.374995
v -15.500000 8.427811 -5.375005
v 0.059980 8.153490 -5.375000
v -15.500000 8.153490 -5.375005
v 0.059990 8.212501 -5.249992
v 0.059990 8.495502 -5.249992
v 0.059990 8.427816 -5.125000
v 0.059990 8.153487 -5.124995
v 0.059980 8.153490 -5.375000
v 0.059980 8.427816 -5.374995
v -15.500000 8.212499 -5.250005
v -15.500000 8.495499 -5.250005
v -15.500000 8.427811 -5.375005
v -15.500000 8.153490 -5.375005
v -15.500000 8.153490 -5.125007
v -15.500000 8.427814 -5.125007
vt 0.622972 0.017681
vt 0.424323 0.017681
vt 0.523648 0.117005
vt -0.475537 0.119241
vt -0.475537 0.196874
vt 1.475537 0.196874
vt 1.475537 0.119241
vt -0.475537 0.119241
vt 1.475537 0.119241
vt 1.475537 0.119241
vt -0.475537 0.119241
vt -0.475537 0.196874
vt 1.475537 0.196874
vt 0.622972 0.017681
vt 0.424323 0.017681
vt 0.523648 0.117005
vt -0.475537 0.119241
vt -0.475537 0.196874
vt 1.475537 0.196874
vt 1.475537 0.119241
vt 0.622972 0.017681
vt 0.424323 0.017681
vt 0.523648 0.117005
vt -0.475537 0.119241
vt -0.475537 0.196874
vt 1.475537 0.196874
vt 1.475537 0.119241
vt -0.475537 0.119241
vt 1.475537 0.119241
vt 1.475537 0.119241
vt -0.475537 0.119241
vt -0.475537 0.196874
vt 1.475537 0.196874
vt 0.622972 0.017681
vt 0.424323 0.017681
vt 0.523648 0.117005
vt -0.475537 0.119241
vt -0.475537 0.196874
vt 1.475537 0.196874
vt 1.475537 0.119241
vt 3.825996 0.152257
vt -2.789574 0.152284
vt -2.789575 0.196083
vt 3.825990 0.196238
vt -2.789574 0.197831
vt 3.826005 0.198134
vt 3.825994 0.108127
vt -2.789580 0.108205
vt 3.825996 0.107103
vt -2.789567 0.106927
vt 0.328606 0.032083
vt 0.329072 0.103649
vt 0.287059 0.086991
vt 0.287995 0.014505
vt 0.369912 0.014383
vt 0.369560 0.085945
vt 0.328898 0.031950
vt 0.328902 0.103751
vt 0.286926 0.087298
vt 0.288010 0.015069
vt 0.369792 0.015074
vt 0.369795 0.084941
vn 0.000000 -0.074615 0.997212
vn 0.000000 -0.074615 0.997212
vn 0.000000 -0.074615 0.997212
vn 0.684742 0.728786 0.000001
vn 0.000005 1.000000 0.000001
vn -0.000003 0.913572 0.406677
vn 0.651322 0.693219 0.308587
vn -0.684777 0.728753 0.000001
vn -0.651359 0.693191 0.308574
vn 0.684742 0.728786 0.000001
vn 0.651325 0.693218 -0.308585
vn -0.000003 0.913573 -0.406675
vn 0.000005 1.000000 0.000001
vn 0.000000 -0.074676 -0.997208
vn 0.000000 -0.074676 -0.997208
vn 0.000000 -0.074676 -0.997208
vn -0.000003 0.913573 -0.406675
vn -0.651362 0.693189 -0.308572
vn -0.684777 0.728753 0.000001
vn 0.000005 1.000000 0.000001
vn 0.000000 -0.074616 0.997212
vn 0.000000 -0.074616 0.997212
vn 0.000000 -0.074616 0.997212
vn 0.684759 0.728769 0.000001
vn 0.000000 1.000000 0.000001
vn 0.000000 0.913572 0.406677
vn 0.651340 0.693205 0.308581
vn -0.684760 0.728769 0.000001
vn -0.651341 0.693205 0.308581
vn 0.684759 0.728769 0.000001
vn 0.651343 0.693204 -0.308578
vn 0.000000 0.913573 -0.406675
vn 0.000000 1.000000 0.000001
vn 0.000000 -0.074675 -0.997208
vn 0.000000 -0.074675 -0.997208
vn 0.000000 -0.074675 -0.997208
vn 0.000000 0.913573 -0.406675
vn -0.651345 0.693202 -0.308579
vn -0.684760 0.728769 0.000001
vn 0.000000 1.000000 0.000001
vn -0.000000 1.000000 0.000009
vn -0.000000 1.000000 -0.000003
vn -0.000001 0.343270 0.939237
vn -0.000001 0.343270 0.939237
vn -0.000001 0.000009 1.000000
vn -0.000001 0.000009 1.000000
vn 0.000000 0.343297 -0.939227
vn 0.000000 0.343286 -0.939231
vn 0.000000 0.000009 -1.000000
vn 0.000000 0.000009 -1.000000
vn 1.000000 0.000000 -0.000039
vn 1.000000 0.000000 -0.000039
vn 1.000000 0.000000 0.000000
vn 1.000000 0.000000 0.000000
vn 1.000000 0.000000 -0.000078
vn 1.000000 0.000000 -0.000078
vn -1.000000 0.000000 0.000000
vn -1.000000 0.000000 0.000000
vn -1.000000 0.000000 0.000000
vn -1.000000 0.000000 0.000000
vn -1.000000 0.000000 0.000000
vn -1.000000 0.000000 0.000000
usemtl material
f 1/0/1 2/0/2 3/0/3
f 4/0/4 5/0/5 6/0/6
f 4/0/4 6/0/6 7/0/7
f 8/0/8 6/0/6 5/0/5
f 8/0/8 9/0/9 6/0/6
f 10/0/10 11/0/11 12/0/12
f 10/0/10 12/0/12 13/0/13
f 14/0/14 15/0/15 16/0/16
f 17/0/17 18/0/18 19/0/19
f 17/0/17 19/0/19 20/0/20
f 21/0/21 22/0/22 23/0/23
f 24/0/24 25/0/25 26/0/26
f 24/0/24 26/0/26 27/0/27
f 28/0/28 26/0/26 25/0/25
f 28/0/28 29/0/29 26/0/26
f 30/0/30 31/0/31 32/0/32
f 30/0/30 32/0/32 33/0/33
f 34/0/34 35/0/35 36/0/36
f 37/0/37 38/0/38 39/0/39
f 37/0/37 39/0/39 40/0/40
f 41/0/41 42/0/42 43/0/43
f 41/0/41 43/0/43 44/0/44
f 45/0/45 44/0/44 43/0/43
f 45/0/45 46/0/46 44/0/44
f 47/0/47 42/0/42 41/0/41
f 47/0/47 48/0/48 42/0/42
f 49/0/49 48/0/48 47/0/47
f 49/0/49 50/0/50 48/0/48
f 51/0/51 52/0/52 53/0/53
f 51/0/51 53/0/53 54/0/54
f 55/0/55 52/0/52 51/0/51
f 55/0/55 56/0/56 52/0/52
f 57/0/57 58/0/58 59/0/59
f 57/0/57 59/0/59 60/0/60
f 61/0/61 58/0/58 57/0/57
f 61/0/61 62/0/62 58/0/58
