# 
# Wavefront OBJ file
# Created with Kaydara FBX
# 
mtllib house06_c07.mtl

g House06_C07
v -13.251587 3.037787 2.126289
v -7.691582 3.037787 2.126289
v -7.691582 3.070361 2.141348
v -13.251587 3.070361 2.141348
v -7.691582 3.150954 1.491016
v -7.691582 3.115338 1.479727
v -7.691582 3.292491 0.833164
v -7.691582 3.337363 0.840693
v -7.691582 3.575324 0.186602
v -7.691582 3.628848 0.190361
v -7.691582 3.878320 -0.459971
v -7.691582 3.929023 -0.459971
v -7.691582 3.037787 2.126289
v -7.691582 3.070361 2.141348
v -7.691582 3.337363 0.840693
v -7.691582 3.628848 0.190361
v -13.251587 3.628850 0.190361
v -13.251587 3.337363 0.840693
v -13.251587 3.929023 -0.459971
v -7.691582 3.929023 -0.459971
v -13.251587 3.337363 0.840693
v -13.251587 3.628850 0.190361
v -13.251587 3.575324 0.186602
v -13.251587 3.292491 0.833164
v -13.251587 3.150954 1.491016
v -13.251587 3.115338 1.479727
v -13.251587 3.070361 2.141348
v -13.251587 3.037787 2.126289
v -13.251587 3.878320 -0.459971
v -13.251587 3.929023 -0.459971
v -7.691582 3.070361 2.141348
v -7.691582 3.150954 1.491016
v -13.251587 3.150954 1.491016
v -13.251587 3.070361 2.141348
v -7.691582 3.150954 1.491016
v -7.691582 3.337363 0.840693
v -13.251587 3.337363 0.840693
v -13.251587 3.150954 1.491016
v -15.601580 3.074271 -13.120029
v -16.804436 2.745422 -14.322890
v -16.804434 2.745420 0.782910
v -15.601577 3.074267 -0.419971
v -16.778547 2.686417 0.757021
v -16.804434 2.745420 0.782910
v -16.804436 2.745422 -14.322890
v -16.778549 2.686418 -14.297002
v -0.401592 3.074267 -13.120019
v 0.801284 2.745420 -14.322871
v -16.804436 2.745422 -14.322890
v -15.601580 3.074271 -13.120029
v -16.778549 2.686418 -14.297002
v -16.804436 2.745422 -14.322890
v 0.801284 2.745420 -14.322871
v 0.775396 2.686415 -14.297002
v -0.401577 3.074264 -0.419961
v 0.801284 2.745417 0.782910
v 0.801284 2.745420 -14.322871
v -0.401592 3.074267 -13.120019
v 0.775396 2.686415 -14.297002
v 0.801284 2.745420 -14.322871
v 0.801284 2.745417 0.782910
v 0.775405 2.686413 0.757012
v -15.601577 3.074267 -0.419971
v -16.804434 2.745420 0.782910
v 0.801284 2.745417 0.782910
v -0.401577 3.074264 -0.419961
v 0.775405 2.686413 0.757012
v 0.801284 2.745417 0.782910
v -16.804434 2.745420 0.782910
v -16.778547 2.686417 0.757021
v 0.712964 2.685701 -14.411221
v 0.801348 2.617308 -14.322842
v -0.501523 2.950169 -13.019980
v -0.589912 3.011821 -13.108359
v 0.889741 2.685700 -14.234453
v -0.413130 3.011821 -12.931591
v -0.501519 3.234097 -13.019980
v 0.819658 2.884564 -14.341143
v 0.731255 2.799650 -14.429522
v -0.589912 3.149184 -13.108359
v 0.712964 2.685701 -14.411221
v -0.589912 3.011821 -13.108359
v -0.413130 3.149184 -12.931602
v 0.908042 2.799650 -14.252753
v -0.413130 3.011821 -12.931591
v 0.889741 2.685700 -14.234453
v -0.501523 2.950169 -13.019980
v -0.589912 3.149184 -13.108359
v -0.589912 3.011821 -13.108359
v -0.501519 3.234097 -13.019980
v -0.413130 3.011821 -12.931591
v -0.413130 3.149184 -12.931602
v 0.801348 2.617308 -14.322842
v 0.908042 2.799650 -14.252753
v 0.889741 2.685700 -14.234453
v 0.908042 2.799650 -14.252753
v 0.801348 2.617308 -14.322842
v 0.819658 2.884564 -14.341143
v 0.712964 2.685701 -14.411221
v 0.819658 2.884564 -14.341143
v 0.712964 2.685701 -14.411221
v 0.731255 2.799650 -14.429522
v 0.889692 2.685698 0.706074
v 0.801313 2.617304 0.794473
v -0.501533 2.950169 -0.508398
v -0.413154 3.011818 -0.596797
v 0.712935 2.685698 0.882861
v -0.589927 3.011818 -0.420010
v -0.501533 3.234093 -0.508398
v 0.819624 2.884562 0.812773
v 0.908003 2.799647 0.724375
v -0.413154 3.149180 -0.596797
v 0.889692 2.685698 0.706074
v -0.413154 3.011818 -0.596797
v -0.589912 3.149180 -0.420000
v 0.731235 2.799647 0.901172
v -0.589927 3.011818 -0.420010
v 0.712935 2.685698 0.882861
v 0.801313 2.617304 0.794473
v 0.731235 2.799647 0.901172
v 0.712935 2.685698 0.882861
v 0.731235 2.799647 0.901172
v 0.801313 2.617304 0.794473
v 0.819624 2.884562 0.812773
v 0.889692 2.685698 0.706074
v 0.819624 2.884562 0.812773
v 0.889692 2.685698 0.706074
v 0.908003 2.799647 0.724375
v -16.715998 2.685698 0.882822
v -16.804399 2.617304 0.794443
v -15.501526 2.950169 -0.508418
v -15.413125 3.011818 -0.420039
v -16.892788 2.685698 0.706055
v -15.589929 3.011818 -0.596797
v -15.501526 3.234093 -0.508408
v -16.822710 2.884562 0.812754
v -16.734308 2.799647 0.901123
v -15.413139 3.149180 -0.420039
v -16.715998 2.685698 0.882822
v -15.413125 3.011818 -0.420039
v -15.589929 3.149180 -0.596797
v -16.911098 2.799647 0.724365
v -15.589929 3.011818 -0.596797
v -16.892788 2.685698 0.706055
v -16.804399 2.617304 0.794443
v -16.911098 2.799647 0.724365
v -16.892788 2.685698 0.706055
v -16.911098 2.799647 0.724365
v -16.804399 2.617304 0.794443
v -16.822710 2.884562 0.812754
v -16.715998 2.685698 0.882822
v -16.822710 2.884562 0.812754
v -16.715998 2.685698 0.882822
v -16.734308 2.799647 0.901123
v -16.892746 2.685701 -14.234472
v -16.804367 2.617308 -14.322871
v -15.501501 2.950170 -13.019990
v -15.589897 3.011821 -12.931602
v -16.715988 2.685701 -14.411260
v -15.413122 3.011821 -13.108388
v -15.501518 3.234097 -13.020000
v -16.822670 2.884564 -14.341171
v -16.911057 2.799650 -14.252773
v -15.589897 3.149184 -12.931602
v -16.892746 2.685701 -14.234472
v -15.589897 3.011821 -12.931602
v -15.413122 3.149184 -13.108388
v -16.734291 2.799650 -14.429570
v -15.413122 3.011821 -13.108388
v -16.715988 2.685701 -14.411260
v -15.501501 2.950170 -13.019990
v -15.589897 3.149184 -12.931602
v -15.589897 3.011821 -12.931602
v -15.501518 3.234097 -13.020000
v -15.413122 3.011821 -13.108388
v -15.413122 3.149184 -13.108388
v -16.804367 2.617308 -14.322871
v -16.734291 2.799650 -14.429570
v -16.715988 2.685701 -14.411260
v -16.734291 2.799650 -14.429570
v -16.804367 2.617308 -14.322871
v -16.822670 2.884564 -14.341171
v -16.892746 2.685701 -14.234472
v -16.822670 2.884564 -14.341171
v -16.892746 2.685701 -14.234472
v -16.911057 2.799650 -14.252773
v -0.251587 5.334484 -13.815380
v -15.851563 5.334484 -13.815380
v -15.851563 5.483317 -13.830440
v -0.251587 5.483317 -13.830440
v -15.851563 6.467668 -11.476953
v -15.851563 6.304524 -11.466914
v -15.851563 7.379766 -9.118457
v -15.851563 7.565831 -9.123466
v -15.851563 8.548734 -6.769980
v -15.851563 8.758016 -6.769990
v -15.851563 5.483317 -13.830440
v -15.851563 5.334484 -13.815380
v -15.851563 6.467668 -11.476953
v -15.851563 7.565831 -9.123466
v -0.251587 7.565831 -9.123466
v -0.251587 6.467668 -11.476953
v -15.851563 5.483317 -13.830440
v -0.251587 5.483317 -13.830440
v -0.251587 8.758014 -6.769990
v -15.851563 8.758016 -6.769990
v -0.251587 6.467668 -11.476953
v -0.251587 7.565831 -9.123466
v -0.251587 7.379766 -9.118447
v -0.251587 6.304524 -11.466914
v -0.251587 5.483317 -13.830440
v -0.251587 5.334484 -13.815380
v -0.251587 8.548734 -6.769980
v -0.251587 8.758014 -6.769990
v -0.251587 5.334483 0.275410
v -0.251587 5.483317 0.290469
v -15.851563 5.483317 0.290469
v -15.851563 5.334483 0.275410
v -15.851563 7.379766 -4.421524
v -15.851563 6.304522 -2.073057
v -15.851563 6.467668 -2.063018
v -15.851563 7.565831 -4.416494
v -15.851563 8.548734 -6.769980
v -15.851563 8.758016 -6.769990
v -15.851563 5.483317 0.290469
v -15.851563 5.334483 0.275410
v -0.251587 6.467668 -2.063018
v -0.251587 7.565831 -4.416494
v -15.851563 7.565831 -4.416494
v -15.851563 6.467668 -2.063018
v -0.251587 5.483317 0.290469
v -15.851563 5.483317 0.290469
v -15.851563 8.758016 -6.769990
v -0.251587 8.758014 -6.769990
v -0.251587 7.379766 -4.421524
v -0.251587 7.565831 -4.416494
v -0.251587 6.467668 -2.063018
v -0.251587 6.304522 -2.073057
v -0.251587 5.483317 0.290469
v -0.251587 5.334483 0.275410
v -0.251587 8.548734 -6.769980
v -0.251587 8.758014 -6.769990
vt -1.767178 1.748826
vt 4.193298 1.748823
vt 4.129293 1.671216
vt -1.703173 1.671216
vt 4.129293 1.309829
vt 4.193298 1.303553
vt 4.193298 0.944258
vt 4.129293 0.948443
vt 4.193298 0.584964
vt 4.129293 0.587057
vt 4.193298 0.225670
vt 4.129293 0.225670
vt 4.193298 1.748823
vt 4.129293 1.671216
vt 4.129293 0.948443
vt 4.129293 0.587057
vt -1.703174 0.587058
vt -1.703173 0.948444
vt -1.703174 0.225671
vt 4.129293 0.225670
vt -1.703173 0.948444
vt -1.703174 0.587058
vt -1.767179 0.584966
vt -1.767179 0.944260
vt -1.703173 1.309830
vt -1.767179 1.303555
vt -1.703173 1.671216
vt -1.767178 1.748826
vt -1.767179 0.225671
vt -1.703174 0.225671
vt 4.129293 1.671216
vt 4.129293 1.309829
vt -1.703173 1.309830
vt -1.703173 1.671216
vt 4.129293 1.309829
vt 4.129293 0.948443
vt -1.703173 0.948444
vt -1.703173 1.309830
vt -6.759443 5.065774
vt -8.021255 5.773370
vt 7.824821 5.773368
vt 6.562996 5.065771
vt -8.392883 0.744062
vt -8.420039 0.800806
vt 7.426035 0.800808
vt 7.598659 0.746007
vt -6.404341 5.162393
vt -7.533877 5.844952
vt 10.305326 5.844954
vt 8.997228 5.162395
vt -8.392888 1.535226
vt -8.387805 1.602965
vt 10.048443 1.602965
vt 9.989092 1.535226
vt 6.562993 -3.265478
vt 7.824804 -3.876482
vt -8.021255 -3.876479
vt -6.759440 -3.265474
vt -11.015445 0.535442
vt -11.242276 0.614392
vt 4.803465 0.614392
vt 4.776309 0.535439
vt 8.824564 -1.945523
vt 10.132662 -2.628088
vt -7.706543 -2.628080
vt -6.577011 -1.945522
vt -8.392888 0.745996
vt -8.420039 0.800806
vt 10.048470 0.800817
vt 10.021315 0.746007
vt 0.349353 0.178505
vt 0.305855 0.178504
vt 0.306033 0.747923
vt 0.349150 0.747709
vt 0.262644 0.178508
vt 0.262557 0.747692
vt 0.630181 0.876423
vt 0.631566 0.019872
vt 0.711073 0.012596
vt 0.709686 0.869146
vt 0.763790 0.016378
vt 0.772098 0.858792
vt 0.709686 0.869146
vt 0.711073 0.012596
vt 0.772098 0.858792
vt 0.763790 0.016378
vt 0.541533 0.165919
vt 0.584006 0.234024
vt 0.584157 0.187111
vt 0.541222 0.262888
vt 0.498774 0.186837
vt 0.498624 0.233751
vt 0.541533 0.165919
vt 0.498624 0.233751
vt 0.498774 0.186837
vt 0.498624 0.233751
vt 0.541533 0.165919
vt 0.541222 0.262888
vt 0.584157 0.187111
vt 0.541222 0.262888
vt 0.584157 0.187111
vt 0.584006 0.234024
vt 0.349353 0.178505
vt 0.305855 0.178504
vt 0.306033 0.747923
vt 0.349150 0.747709
vt 0.262644 0.178508
vt 0.262557 0.747692
vt 0.630181 0.876423
vt 0.631566 0.019872
vt 0.711073 0.012596
vt 0.709686 0.869146
vt 0.763790 0.016378
vt 0.772098 0.858792
vt 0.709686 0.869146
vt 0.711073 0.012596
vt 0.772098 0.858792
vt 0.763790 0.016378
vt 0.541533 0.165918
vt 0.498624 0.233751
vt 0.498774 0.186837
vt 0.498624 0.233751
vt 0.541533 0.165918
vt 0.541222 0.262888
vt 0.584157 0.187111
vt 0.541222 0.262888
vt 0.584157 0.187111
vt 0.584006 0.234024
vt 0.349353 0.178505
vt 0.305855 0.178504
vt 0.306033 0.747923
vt 0.349150 0.747709
vt 0.262644 0.178508
vt 0.262557 0.747692
vt 0.630181 0.876423
vt 0.631566 0.019872
vt 0.711073 0.012596
vt 0.709686 0.869146
vt 0.763790 0.016378
vt 0.772098 0.858792
vt 0.709686 0.869146
vt 0.711073 0.012596
vt 0.772098 0.858792
vt 0.763790 0.016378
vt 0.541533 0.165918
vt 0.498624 0.233751
vt 0.498774 0.186837
vt 0.498624 0.233751
vt 0.541533 0.165918
vt 0.541222 0.262888
vt 0.584157 0.187111
vt 0.541222 0.262888
vt 0.584157 0.187111
vt 0.584006 0.234024
vt 0.349353 0.178505
vt 0.305855 0.178504
vt 0.306033 0.747923
vt 0.349150 0.747709
vt 0.262644 0.178508
vt 0.262557 0.747692
vt 0.630181 0.876423
vt 0.631566 0.019872
vt 0.711073 0.012596
vt 0.709686 0.869146
vt 0.763790 0.016378
vt 0.772098 0.858792
vt 0.709686 0.869146
vt 0.711073 0.012596
vt 0.772098 0.858792
vt 0.763790 0.016378
vt 0.541533 0.165919
vt 0.584006 0.234024
vt 0.584157 0.187111
vt 0.541222 0.262888
vt 0.498774 0.186837
vt 0.498624 0.233751
vt 0.541533 0.165918
vt 0.498624 0.233751
vt 0.498774 0.186837
vt 0.498624 0.233751
vt 0.541533 0.165918
vt 0.541222 0.262888
vt 0.584157 0.187111
vt 0.541222 0.262888
vt 0.584157 0.187111
vt 0.584006 0.234024
vt 2.076056 6.172405
vt -10.743748 6.172405
vt -10.743748 6.216254
vt 2.076056 6.216254
vt 2.564631 5.100272
vt 2.676019 5.110612
vt 2.676014 3.995551
vt 2.564626 3.985211
vt 2.676010 2.880490
vt 2.564622 2.870152
vt 2.564631 6.215333
vt 2.676020 6.225672
vt 2.002043 5.057345
vt 2.002043 3.942284
vt -10.817760 3.942284
vt -10.817760 5.057344
vt 2.002043 6.172406
vt -10.817761 6.172405
vt -10.817761 2.827223
vt 2.002043 2.827223
vt 2.676014 5.110612
vt 2.676014 3.995551
vt 2.564626 3.985211
vt 2.564626 5.100272
vt 2.676014 6.225673
vt 2.564626 6.215333
vt 2.564626 2.870150
vt 2.676014 2.880490
vt 2.076056 6.172405
vt 2.076056 6.216254
vt -10.743748 6.216254
vt -10.743748 6.172405
vt 2.564633 3.985213
vt 2.564633 5.100273
vt 2.676020 5.110614
vt 2.676021 3.995553
vt 2.564631 2.870154
vt 2.676021 2.880491
vt 2.676019 6.225674
vt 2.564631 6.215333
vt -10.817760 5.057344
vt -10.817760 3.942284
vt 2.002043 3.942284
vt 2.002043 5.057345
vt -10.817761 6.172405
vt 2.002043 6.172405
vt 2.002043 2.827223
vt -10.817761 2.827223
vt 2.676014 3.995551
vt 2.564628 3.985211
vt 2.564628 5.100271
vt 2.676014 5.110611
vt 2.564629 6.215332
vt 2.676014 6.225672
vt 2.676014 2.880490
vt 2.564628 2.870150
vn 0.000000 -0.419624 0.907698
vn 0.000000 -0.419624 0.907698
vn 0.000000 -0.419624 0.907698
vn 0.000000 -0.419624 0.907698
vn 1.000000 -0.000010 0.000000
vn 1.000000 -0.000010 0.000000
vn 1.000000 -0.000010 0.000000
vn 1.000000 -0.000010 0.000000
vn 1.000000 -0.000005 0.000000
vn 1.000000 -0.000005 0.000000
vn 1.000000 -0.000005 0.000000
vn 1.000000 -0.000005 0.000000
vn 1.000000 0.000000 0.000000
vn 1.000000 0.000000 0.000000
vn 0.000000 0.912532 0.409006
vn 0.000000 0.912532 0.409006
vn 0.000000 0.912532 0.409006
vn 0.000000 0.912532 0.409006
vn 0.000000 0.907948 0.419082
vn 0.000000 0.907948 0.419082
vn -1.000000 0.000000 0.000000
vn -1.000000 0.000000 0.000000
vn -1.000000 0.000000 0.000000
vn -1.000000 0.000000 0.000000
vn -1.000000 0.000000 0.000000
vn -1.000000 0.000000 0.000000
vn -1.000000 0.000000 0.000000
vn -1.000000 0.000000 0.000000
vn -1.000000 0.000000 0.000000
vn -1.000000 0.000000 0.000000
vn 0.000000 0.992408 0.122986
vn 0.000000 0.992408 0.122986
vn 0.000000 0.992408 0.122986
vn 0.000000 0.992408 0.122986
vn 0.000000 0.961288 0.275544
vn 0.000000 0.961288 0.275544
vn 0.000000 0.961288 0.275544
vn 0.000000 0.961288 0.275544
vn -0.263712 0.964602 0.000000
vn -0.263712 0.964602 0.000000
vn -0.263712 0.964602 0.000000
vn -0.263712 0.964602 0.000000
vn -0.915745 -0.401760 0.000000
vn -0.915745 -0.401760 0.000000
vn -0.915745 -0.401760 0.000000
vn -0.915745 -0.401760 0.000000
vn 0.000000 0.964602 -0.263712
vn 0.000000 0.964602 -0.263712
vn 0.000000 0.964602 -0.263712
vn 0.000000 0.964602 -0.263712
vn 0.000000 -0.401656 -0.915791
vn 0.000000 -0.401656 -0.915791
vn 0.000000 -0.401656 -0.915791
vn 0.000000 -0.401656 -0.915791
vn 0.263708 0.964603 0.000000
vn 0.263708 0.964603 0.000000
vn 0.263708 0.964603 0.000000
vn 0.263708 0.964603 0.000000
vn 0.915764 -0.401718 -0.000000
vn 0.915764 -0.401718 -0.000000
vn 0.915764 -0.401718 -0.000000
vn 0.915764 -0.401718 -0.000000
vn 0.000000 0.964603 0.263707
vn 0.000000 0.964603 0.263707
vn 0.000000 0.964603 0.263706
vn 0.000000 0.964603 0.263706
vn 0.000000 -0.401851 0.915705
vn 0.000000 -0.401851 0.915705
vn 0.000000 -0.401851 0.915705
vn 0.000000 -0.401851 0.915705
vn -0.657869 -0.544682 -0.520125
vn -0.124462 -0.984384 0.124486
vn -0.124479 -0.984384 0.124469
vn -0.672514 -0.499354 -0.546233
vn 0.520123 -0.544674 0.657877
vn 0.546211 -0.499382 0.672511
vn 0.129998 0.982948 -0.130054
vn 0.130033 0.982948 -0.130019
vn -0.544965 0.495823 -0.676146
vn -0.515486 0.546440 -0.660059
vn -0.657869 -0.544682 -0.520125
vn -0.672514 -0.499354 -0.546233
vn 0.660049 0.546454 0.515484
vn 0.676140 0.495825 0.544970
vn 0.546211 -0.499382 0.672511
vn 0.520123 -0.544674 0.657877
vn -0.707061 0.000000 0.707152
vn -0.707061 0.000000 0.707152
vn -0.707061 0.000000 0.707152
vn -0.707056 0.000012 0.707158
vn -0.707093 0.000012 0.707121
vn -0.707040 0.000050 0.707174
vn 0.769582 -0.219880 -0.599497
vn 0.769582 -0.219880 -0.599497
vn 0.769582 -0.219880 -0.599497
vn 0.656113 -0.096207 -0.748505
vn 0.656113 -0.096207 -0.748505
vn 0.656113 -0.096207 -0.748505
vn 0.665559 -0.096280 -0.740109
vn 0.786976 -0.218965 -0.576821
vn 0.786976 -0.218965 -0.576821
vn 0.786976 -0.218965 -0.576821
vn 0.520112 -0.544706 -0.657859
vn -0.124502 -0.984384 -0.124448
vn -0.124473 -0.984384 -0.124477
vn 0.546223 -0.499375 -0.672506
vn -0.657881 -0.544663 0.520129
vn -0.672509 -0.499389 0.546206
vn 0.130069 0.982948 0.129983
vn 0.130019 0.982948 0.130034
vn 0.676144 0.495835 -0.544955
vn 0.660062 0.546435 -0.515486
vn 0.520112 -0.544706 -0.657859
vn 0.546223 -0.499375 -0.672506
vn -0.515480 0.546462 0.660046
vn -0.544965 0.495834 0.676137
vn -0.672509 -0.499389 0.546206
vn -0.657881 -0.544663 0.520129
vn 0.599466 -0.219944 0.769588
vn 0.599466 -0.219944 0.769588
vn 0.599466 -0.219944 0.769588
vn 0.748556 -0.096209 0.656055
vn 0.748556 -0.096209 0.656055
vn 0.748556 -0.096209 0.656055
vn 0.740159 -0.096281 0.665503
vn 0.576711 -0.219073 0.787027
vn 0.576711 -0.219073 0.787027
vn 0.576711 -0.219073 0.787027
vn 0.657871 -0.544674 0.520130
vn 0.124450 -0.984384 -0.124500
vn 0.124490 -0.984384 -0.124459
vn 0.672515 -0.499347 0.546238
vn -0.520130 -0.544664 -0.657880
vn -0.546203 -0.499397 -0.672506
vn -0.129990 0.982948 0.130061
vn -0.130036 0.982948 0.130015
vn 0.544951 0.495848 0.676139
vn 0.515496 0.546424 0.660064
vn 0.657871 -0.544674 0.520130
vn 0.672515 -0.499347 0.546238
vn -0.660037 0.546489 -0.515462
vn -0.676130 0.495864 -0.544948
vn -0.546203 -0.499397 -0.672506
vn -0.520130 -0.544664 -0.657880
vn -0.769625 -0.219991 0.599401
vn -0.769625 -0.219991 0.599401
vn -0.769625 -0.219991 0.599401
vn -0.656079 -0.096234 0.748532
vn -0.656079 -0.096234 0.748532
vn -0.656079 -0.096234 0.748532
vn -0.665481 -0.096311 0.740175
vn -0.786998 -0.219083 0.576746
vn -0.786998 -0.219083 0.576746
vn -0.786998 -0.219083 0.576746
vn -0.520113 -0.544704 0.657860
vn 0.124499 -0.984384 0.124448
vn 0.124473 -0.984384 0.124474
vn -0.546211 -0.499398 0.672500
vn 0.657882 -0.544655 -0.520137
vn 0.672508 -0.499386 -0.546211
vn -0.130044 0.982948 -0.130008
vn -0.130011 0.982948 -0.130042
vn -0.676143 0.495840 0.544953
vn -0.660059 0.546445 0.515481
vn -0.520113 -0.544704 0.657860
vn -0.546211 -0.499398 0.672500
vn 0.515480 0.546458 -0.660048
vn 0.544970 0.495823 -0.676141
vn 0.672508 -0.499386 -0.546211
vn 0.657882 -0.544655 -0.520137
vn 0.707078 0.000000 0.707135
vn 0.707078 0.000000 0.707135
vn 0.707078 0.000000 0.707135
vn 0.707155 0.000066 0.707059
vn 0.707154 0.000066 0.707059
vn 0.707078 0.000000 0.707135
vn -0.599457 -0.219971 -0.769587
vn -0.599457 -0.219971 -0.769587
vn -0.599457 -0.219971 -0.769587
vn -0.748586 -0.096183 -0.656024
vn -0.748586 -0.096183 -0.656024
vn -0.748586 -0.096183 -0.656024
vn -0.740152 -0.096256 -0.665515
vn -0.576678 -0.219084 -0.787048
vn -0.576678 -0.219084 -0.787048
vn -0.576678 -0.219084 -0.787048
vn 0.000000 -0.100663 -0.994921
vn 0.000000 -0.100663 -0.994921
vn 0.000000 -0.100663 -0.994921
vn 0.000000 -0.100663 -0.994921
vn -1.000000 0.000001 0.000000
vn -1.000000 0.000001 0.000000
vn -1.000000 0.000001 0.000000
vn -1.000000 0.000001 0.000000
vn -1.000000 -0.000006 0.000000
vn -1.000000 -0.000006 0.000000
vn -1.000000 0.000007 0.000000
vn -1.000000 0.000007 0.000000
vn 0.000000 0.906202 -0.422844
vn 0.000000 0.906202 -0.422844
vn 0.000000 0.906202 -0.422844
vn 0.000000 0.906202 -0.422844
vn 0.000000 0.922557 -0.385861
vn 0.000000 0.922557 -0.385861
vn 0.000000 0.892073 -0.451891
vn 0.000000 0.892073 -0.451891
vn 1.000000 0.000000 0.000000
vn 1.000000 0.000000 0.000000
vn 1.000000 0.000000 0.000000
vn 1.000000 0.000000 0.000000
vn 1.000000 0.000000 0.000000
vn 1.000000 0.000000 0.000000
vn 1.000000 0.000000 0.000000
vn 1.000000 0.000000 0.000000
vn 0.000000 -0.100663 0.994921
vn 0.000000 -0.100663 0.994921
vn 0.000000 -0.100663 0.994921
vn 0.000000 -0.100663 0.994921
vn -1.000000 0.000000 0.000000
vn -1.000000 0.000000 0.000000
vn -1.000000 0.000000 0.000000
vn -1.000000 0.000000 0.000000
vn -1.000000 0.000000 0.000000
vn -1.000000 0.000000 0.000000
vn -1.000000 0.000008 0.000000
vn -1.000000 0.000008 0.000000
vn 0.000000 0.906202 0.422845
vn 0.000000 0.906202 0.422845
vn 0.000000 0.906202 0.422845
vn 0.000000 0.906202 0.422845
vn 0.000000 0.922557 0.385861
vn 0.000000 0.922557 0.385861
vn 0.000000 0.892074 0.451888
vn 0.000000 0.892075 0.451888
vn 1.000000 0.000000 0.000000
vn 1.000000 0.000000 0.000000
vn 1.000000 0.000000 0.000000
vn 1.000000 0.000000 0.000000
vn 1.000000 0.000000 0.000000
vn 1.000000 0.000000 0.000000
vn 1.000000 0.000000 0.000000
vn 1.000000 0.000000 0.000000
usemtl material
f 1/0/1 2/0/2 3/0/3
f 1/0/1 3/0/3 4/0/4
f 5/0/5 6/0/6 7/0/7
f 5/0/5 7/0/7 8/0/8
f 8/0/8 7/0/7 9/0/9
f 8/0/8 9/0/9 10/0/10
f 10/0/10 9/0/9 11/0/11
f 10/0/10 11/0/11 12/0/12
f 13/0/13 6/0/6 5/0/5
f 13/0/13 5/0/5 14/0/14
f 15/0/15 16/0/16 17/0/17
f 15/0/15 17/0/17 18/0/18
f 19/0/19 17/0/17 16/0/16
f 19/0/19 16/0/16 20/0/20
f 21/0/21 22/0/22 23/0/23
f 21/0/21 23/0/23 24/0/24
f 25/0/25 21/0/21 24/0/24
f 25/0/25 24/0/24 26/0/26
f 27/0/27 25/0/25 26/0/26
f 27/0/27 26/0/26 28/0/28
f 29/0/29 23/0/23 22/0/22
f 29/0/29 22/0/22 30/0/30
f 31/0/31 32/0/32 33/0/33
f 31/0/31 33/0/33 34/0/34
f 35/0/35 36/0/36 37/0/37
f 35/0/35 37/0/37 38/0/38
f 39/0/39 40/0/40 41/0/41
f 39/0/39 41/0/41 42/0/42
f 43/0/43 44/0/44 45/0/45
f 43/0/43 45/0/45 46/0/46
f 47/0/47 48/0/48 49/0/49
f 47/0/47 49/0/49 50/0/50
f 51/0/51 52/0/52 53/0/53
f 51/0/51 53/0/53 54/0/54
f 55/0/55 56/0/56 57/0/57
f 55/0/55 57/0/57 58/0/58
f 59/0/59 60/0/60 61/0/61
f 59/0/59 61/0/61 62/0/62
f 63/0/63 64/0/64 65/0/65
f 63/0/63 65/0/65 66/0/66
f 67/0/67 68/0/68 69/0/69
f 67/0/67 69/0/69 70/0/70
f 71/0/71 72/0/72 73/0/73
f 71/0/71 73/0/73 74/0/74
f 75/0/75 73/0/73 72/0/72
f 75/0/75 76/0/76 73/0/73
f 77/0/77 78/0/78 79/0/79
f 77/0/77 79/0/79 80/0/80
f 81/0/81 80/0/80 79/0/79
f 81/0/81 82/0/82 80/0/80
f 83/0/83 78/0/78 77/0/77
f 83/0/83 84/0/84 78/0/78
f 85/0/85 84/0/84 83/0/83
f 85/0/85 86/0/86 84/0/84
f 87/0/87 88/0/88 89/0/89
f 88/0/88 87/0/87 90/0/90
f 91/0/91 90/0/90 87/0/87
f 90/0/90 91/0/91 92/0/92
f 93/0/93 94/0/94 95/0/95
f 96/0/96 97/0/97 98/0/98
f 99/0/99 98/0/98 97/0/97
f 100/0/100 101/0/101 102/0/102
f 103/0/103 104/0/104 105/0/105
f 103/0/103 105/0/105 106/0/106
f 107/0/107 105/0/105 104/0/104
f 107/0/107 108/0/108 105/0/105
f 109/0/109 110/0/110 111/0/111
f 109/0/109 111/0/111 112/0/112
f 113/0/113 112/0/112 111/0/111
f 113/0/113 114/0/114 112/0/112
f 115/0/115 110/0/110 109/0/109
f 115/0/115 116/0/116 110/0/110
f 117/0/117 116/0/116 115/0/115
f 117/0/117 118/0/118 116/0/116
f 119/0/119 120/0/120 121/0/121
f 122/0/122 123/0/123 124/0/124
f 125/0/125 124/0/124 123/0/123
f 126/0/126 127/0/127 128/0/128
f 129/0/129 130/0/130 131/0/131
f 129/0/129 131/0/131 132/0/132
f 133/0/133 131/0/131 130/0/130
f 133/0/133 134/0/134 131/0/131
f 135/0/135 136/0/136 137/0/137
f 135/0/135 137/0/137 138/0/138
f 139/0/139 138/0/138 137/0/137
f 139/0/139 140/0/140 138/0/138
f 141/0/141 136/0/136 135/0/135
f 141/0/141 142/0/142 136/0/136
f 143/0/143 142/0/142 141/0/141
f 143/0/143 144/0/144 142/0/142
f 145/0/145 146/0/146 147/0/147
f 148/0/148 149/0/149 150/0/150
f 151/0/151 150/0/150 149/0/149
f 152/0/152 153/0/153 154/0/154
f 155/0/155 156/0/156 157/0/157
f 155/0/155 157/0/157 158/0/158
f 159/0/159 157/0/157 156/0/156
f 159/0/159 160/0/160 157/0/157
f 161/0/161 162/0/162 163/0/163
f 161/0/161 163/0/163 164/0/164
f 165/0/165 164/0/164 163/0/163
f 165/0/165 166/0/166 164/0/164
f 167/0/167 162/0/162 161/0/161
f 167/0/167 168/0/168 162/0/162
f 169/0/169 168/0/168 167/0/167
f 169/0/169 170/0/170 168/0/168
f 171/0/171 172/0/172 173/0/173
f 172/0/172 171/0/171 174/0/174
f 175/0/175 174/0/174 171/0/171
f 174/0/174 175/0/175 176/0/176
f 177/0/177 178/0/178 179/0/179
f 180/0/180 181/0/181 182/0/182
f 183/0/183 182/0/182 181/0/181
f 184/0/184 185/0/185 186/0/186
f 187/0/187 188/0/188 189/0/189
f 187/0/187 189/0/189 190/0/190
f 191/0/191 192/0/192 193/0/193
f 191/0/191 193/0/193 194/0/194
f 194/0/194 193/0/193 195/0/195
f 194/0/194 195/0/195 196/0/196
f 192/0/192 191/0/191 197/0/197
f 192/0/192 197/0/197 198/0/198
f 199/0/199 200/0/200 201/0/201
f 199/0/199 201/0/201 202/0/202
f 203/0/203 199/0/199 202/0/202
f 203/0/203 202/0/202 204/0/204
f 205/0/205 201/0/201 200/0/200
f 205/0/205 200/0/200 206/0/206
f 207/0/207 208/0/208 209/0/209
f 207/0/207 209/0/209 210/0/210
f 211/0/211 207/0/207 210/0/210
f 211/0/211 210/0/210 212/0/212
f 213/0/213 209/0/209 208/0/208
f 213/0/213 208/0/208 214/0/214
f 215/0/215 216/0/216 217/0/217
f 215/0/215 217/0/217 218/0/218
f 219/0/219 220/0/220 221/0/221
f 219/0/219 221/0/221 222/0/222
f 223/0/223 219/0/219 222/0/222
f 223/0/223 222/0/222 224/0/224
f 225/0/225 221/0/221 220/0/220
f 225/0/225 220/0/220 226/0/226
f 227/0/227 228/0/228 229/0/229
f 227/0/227 229/0/229 230/0/230
f 231/0/231 227/0/227 230/0/230
f 231/0/231 230/0/230 232/0/232
f 233/0/233 229/0/229 228/0/228
f 233/0/233 228/0/228 234/0/234
f 235/0/235 236/0/236 237/0/237
f 235/0/235 237/0/237 238/0/238
f 238/0/238 237/0/237 239/0/239
f 238/0/238 239/0/239 240/0/240
f 236/0/236 235/0/235 241/0/241
f 236/0/236 241/0/241 242/0/242
