# 
# Wavefront OBJ file
# Created with Kaydara FBX
# 
mtllib house03_c07.mtl

g House03_C07
v -2.507236 7.512321 -10.882202
v -8.067236 7.512321 -10.882193
v -8.067236 7.547373 -10.897256
v -2.507236 7.547373 -10.897256
v -8.067236 7.547373 -10.897256
v -8.067236 7.512321 -10.882193
v -8.067236 9.988044 -5.257202
v -8.067236 10.038748 -5.257202
v -8.067236 7.547383 0.382866
v -8.067236 7.512331 0.367808
v -2.507236 10.038748 -5.257202
v -2.507236 7.547373 -10.897256
v -8.067236 7.547373 -10.897256
v -8.067236 10.038748 -5.257202
v -2.507236 10.038748 -5.257202
v -2.507236 9.988044 -5.257202
v -2.507236 7.512321 -10.882202
v -2.507236 7.547373 -10.897256
v -2.507236 7.512331 0.367808
v -2.507236 7.547380 0.382866
v -2.507236 7.512331 0.367808
v -2.507236 7.547380 0.382866
v -8.067236 7.547383 0.382866
v -8.067236 7.512331 0.367808
v -2.507236 10.038748 -5.257202
v -8.067236 10.038748 -5.257202
v -8.067236 7.547383 0.382866
v -2.507236 7.547380 0.382866
v -0.150020 4.100770 -0.149976
v 1.052832 3.771923 1.052886
v 1.052832 3.771919 -11.552876
v -0.150020 4.100767 -10.349999
v 1.026953 3.712915 -11.526987
v 1.052832 3.771919 -11.552876
v 1.052832 3.771923 1.052886
v 1.026953 3.712919 1.026997
v -15.350009 4.100767 -0.149980
v -16.552881 3.771919 1.052886
v 1.052832 3.771923 1.052886
v -0.150020 4.100770 -0.149976
v 1.026953 3.712919 1.026997
v 1.052832 3.771923 1.052886
v -16.552881 3.771919 1.052886
v -16.527002 3.712915 1.027007
v -15.350019 4.100763 -10.349995
v -16.552891 3.771916 -11.552861
v -16.552881 3.771919 1.052886
v -15.350009 4.100767 -0.149980
v -16.527002 3.712915 1.027007
v -16.552881 3.771919 1.052886
v -16.552891 3.771916 -11.552861
v -16.527002 3.712911 -11.526973
v -0.150020 4.100767 -10.349999
v 1.052832 3.771919 -11.552876
v -16.552891 3.771916 -11.552861
v -15.350019 4.100763 -10.349995
v -16.527002 3.712911 -11.526973
v -16.552891 3.771916 -11.552861
v 1.052832 3.771919 -11.552876
v 1.026953 3.712915 -11.526987
v -0.000020 5.888685 -10.883144
v -15.560019 5.888685 -10.883144
v -15.560019 6.037528 -10.898203
v -0.000020 6.037528 -10.898203
v -15.560019 6.037528 -10.898203
v -15.560019 5.888685 -10.883144
v -15.560019 8.365908 -5.249990
v -15.560019 8.530405 -5.249990
v -0.000020 8.530405 -5.249990
v -0.000020 6.037528 -10.898203
v -15.560019 6.037528 -10.898203
v -15.560019 8.530405 -5.249990
v -0.000020 8.530405 -5.249990
v -0.000020 8.365908 -5.249990
v -0.000020 5.888685 -10.883144
v -0.000020 6.037528 -10.898203
v -0.000020 5.888700 0.383159
v -0.000020 6.037546 0.398213
v -15.560019 6.037546 0.398213
v -15.560019 5.888702 0.383159
v -15.560019 6.037546 0.398213
v -15.560019 8.530405 -5.249990
v -15.560019 8.365908 -5.249990
v -15.560019 5.888702 0.383159
v -0.000020 8.530405 -5.249990
v -15.560019 8.530405 -5.249990
v -15.560019 6.037546 0.398213
v -0.000020 6.037546 0.398213
v -0.000020 8.530405 -5.249990
v -0.000020 6.037546 0.398213
v -0.000020 5.888700 0.383159
v -0.000020 8.365908 -5.249990
v 1.004453 3.712200 -11.681215
v 1.092842 3.643809 -11.592836
v -0.210039 3.976669 -10.289985
v -0.298418 4.038320 -10.378364
v -0.210020 4.260597 -10.289985
v 1.111152 3.911064 -11.611147
v 1.022754 3.826151 -11.699526
v -0.298418 4.175683 -10.378364
v 1.004453 3.712200 -11.681215
v -0.298418 4.038320 -10.378364
v -0.121631 4.175683 -10.201606
v 1.199531 3.826151 -11.522768
v -0.121631 4.038320 -10.201601
v 1.181240 3.712200 -11.504462
v 1.092842 3.643809 -11.592836
v 1.111152 3.911064 -11.611147
v 1.199531 3.826151 -11.522768
v 1.181240 3.712200 -11.504462
v 1.004453 3.712200 -11.681215
v 1.022754 3.826151 -11.699526
v 1.181240 3.712200 -11.504462
v -0.121631 4.038320 -10.201601
v -0.210039 3.976669 -10.289985
v 1.092842 3.643809 -11.592836
v 1.201201 3.712198 1.024482
v 1.112813 3.643804 1.112876
v -0.190029 3.976669 -0.189985
v -0.101650 4.038319 -0.278389
v -0.190029 4.260593 -0.189985
v 1.131123 3.911062 1.131186
v 1.219502 3.826147 1.042788
v -0.101650 4.175680 -0.278384
v 1.201201 3.712198 1.024482
v -0.101650 4.038319 -0.278389
v -0.278408 4.175680 -0.101587
v 1.042744 3.826146 1.219580
v -0.278408 4.038319 -0.101597
v 1.024434 3.712198 1.201274
v 1.112813 3.643804 1.112876
v 1.131123 3.911062 1.131186
v 1.042744 3.826146 1.219580
v 1.024434 3.712198 1.201274
v 1.201201 3.712198 1.024482
v 1.219502 3.826147 1.042788
v 1.024434 3.712198 1.201274
v -0.278408 4.038319 -0.101597
v -0.190029 3.976669 -0.189985
v 1.112813 3.643804 1.112876
v -16.404491 3.712198 1.201226
v -16.492889 3.643804 1.112847
v -15.190020 3.976669 -0.190000
v -15.101621 4.038319 -0.101621
v -15.190020 4.260593 -0.190000
v -16.511200 3.911062 1.131147
v -16.422792 3.826146 1.219531
v -15.101621 4.175680 -0.101621
v -16.404491 3.712198 1.201226
v -15.101621 4.038319 -0.101621
v -15.278418 4.175680 -0.278379
v -16.599590 3.826147 1.042773
v -15.278418 4.038319 -0.278389
v -16.581280 3.712198 1.024468
v -16.492889 3.643804 1.112847
v -16.511200 3.911062 1.131147
v -16.599590 3.826147 1.042773
v -16.581280 3.712198 1.024468
v -16.404491 3.712198 1.201226
v -16.422792 3.826146 1.219531
v -16.581280 3.712198 1.024468
v -15.278418 4.038319 -0.278389
v -15.190020 3.976669 -0.190000
v -16.492889 3.643804 1.112847
v -16.601250 3.712200 -11.504473
v -16.512871 3.643809 -11.592866
v -15.210010 3.976669 -10.289995
v -15.298398 4.038320 -10.201606
v -16.601250 3.712200 -11.504473
v -15.298398 4.038320 -10.201606
v -15.298398 4.175683 -10.201612
v -16.619551 3.826151 -11.522779
v -15.210019 4.260597 -10.290005
v -16.531172 3.911064 -11.611176
v -15.121631 4.175683 -10.378393
v -16.442793 3.826151 -11.699570
v -15.121631 4.038320 -10.378393
v -16.424492 3.712200 -11.681259
v -15.210010 3.976669 -10.289995
v -16.512871 3.643809 -11.592866
v -16.512871 3.643809 -11.592866
v -16.531172 3.911064 -11.611176
v -16.442793 3.826151 -11.699570
v -16.424492 3.712200 -11.681259
v -16.601250 3.712200 -11.504473
v -16.619551 3.826151 -11.522779
vt -1.608660 -0.843563
vt 4.223807 -0.843563
vt 4.223807 -0.793841
vt -1.608660 -0.793841
vt 1.172808 2.751999
vt 1.279366 2.751999
vt 1.279454 -0.793827
vt 1.172896 -0.793827
vt 1.172808 2.751999
vt 1.279366 2.751999
vt -1.608660 2.740449
vt -1.608660 -0.793841
vt 4.223807 -0.793841
vt 4.223807 2.740448
vt 1.172896 -0.791853
vt 1.279451 -0.791853
vt 1.279364 2.751999
vt 1.172808 2.751999
vt 1.279366 2.751999
vt 1.172811 2.751999
vt -1.608662 -0.843549
vt -1.608662 -0.793827
vt 4.223805 -0.793827
vt 4.223805 -0.843550
vt -1.608660 2.740449
vt 4.223807 2.740448
vt 4.223805 -0.793827
vt -1.608662 -0.793827
vt -4.136888 5.065773
vt -5.398700 5.773368
vt 7.824821 5.773368
vt 6.562996 5.065771
vt -8.392883 0.744062
vt -8.420039 0.800806
vt 4.803481 0.800807
vt 4.776326 0.744063
vt -6.577005 3.842416
vt -7.706540 4.524975
vt 10.132662 4.524976
vt 8.824565 3.842418
vt -8.392888 0.745996
vt -8.420039 0.800806
vt 10.048467 0.800796
vt 10.021308 0.745986
vt 6.562993 -3.265478
vt 7.824804 -3.876482
vt -5.398700 -3.876480
vt -4.136885 -3.265475
vt -8.392891 0.751666
vt -8.420039 0.800806
vt 4.803465 0.800804
vt 4.776309 0.751663
vt 8.824564 -1.945523
vt 10.132662 -2.628088
vt -7.706543 -2.628080
vt -6.577011 -1.945522
vt -8.392888 0.745996
vt -8.420039 0.800806
vt 10.048470 0.800817
vt 10.021315 0.746007
vt 2.723628 6.172405
vt -11.957084 6.172405
vt -11.957084 6.216254
vt 2.723628 6.216254
vt 2.723628 6.172406
vt 2.612240 6.150047
vt 2.612240 2.804864
vt 2.723628 2.827223
vt -11.957084 2.827223
vt -11.957084 6.172405
vt 2.723628 6.172406
vt 2.723628 2.827223
vt 2.612240 2.804864
vt 2.723628 2.827223
vt 2.723628 6.172406
vt 2.612240 6.150047
vt 2.723628 6.172405
vt 2.723628 6.216254
vt -11.957084 6.216254
vt -11.957084 6.172405
vt 2.612240 6.150047
vt 2.612240 2.804864
vt 2.723628 2.827223
vt 2.723628 6.172406
vt -11.957084 2.827223
vt 2.723628 2.827223
vt 2.723628 6.172406
vt -11.957084 6.172405
vt 2.723626 2.827223
vt 2.723625 6.172405
vt 2.612240 6.150046
vt 2.612240 2.804864
vt 0.349353 0.178505
vt 0.305855 0.178504
vt 0.306033 0.747923
vt 0.349150 0.747709
vt 0.630181 0.876423
vt 0.631566 0.019872
vt 0.711073 0.012596
vt 0.709686 0.869146
vt 0.763790 0.016378
vt 0.772098 0.858792
vt 0.709686 0.869146
vt 0.711073 0.012596
vt 0.772098 0.858792
vt 0.763790 0.016378
vt 0.541533 0.165919
vt 0.541222 0.262888
vt 0.498624 0.233751
vt 0.498774 0.186837
vt 0.584157 0.187111
vt 0.584006 0.234024
vt 0.262644 0.178508
vt 0.262557 0.747692
vt 0.306033 0.747923
vt 0.305855 0.178504
vt 0.349353 0.178505
vt 0.305855 0.178504
vt 0.306033 0.747923
vt 0.349150 0.747709
vt 0.630181 0.876423
vt 0.631566 0.019872
vt 0.711073 0.012596
vt 0.709686 0.869146
vt 0.763790 0.016378
vt 0.772098 0.858792
vt 0.709686 0.869146
vt 0.711073 0.012596
vt 0.772098 0.858792
vt 0.763790 0.016378
vt 0.541533 0.165918
vt 0.541222 0.262888
vt 0.498624 0.233751
vt 0.498774 0.186837
vt 0.584157 0.187111
vt 0.584006 0.234024
vt 0.262644 0.178508
vt 0.262557 0.747692
vt 0.306033 0.747923
vt 0.305855 0.178504
vt 0.349353 0.178505
vt 0.305855 0.178504
vt 0.306033 0.747923
vt 0.349150 0.747709
vt 0.630181 0.876423
vt 0.631566 0.019872
vt 0.711073 0.012596
vt 0.709686 0.869146
vt 0.763790 0.016378
vt 0.772098 0.858792
vt 0.709686 0.869146
vt 0.711073 0.012596
vt 0.772098 0.858792
vt 0.763790 0.016378
vt 0.541533 0.165918
vt 0.541222 0.262888
vt 0.498624 0.233751
vt 0.498774 0.186837
vt 0.584157 0.187111
vt 0.584006 0.234024
vt 0.262644 0.178508
vt 0.262557 0.747692
vt 0.306033 0.747923
vt 0.305855 0.178504
vt 0.349353 0.178505
vt 0.305855 0.178504
vt 0.306033 0.747923
vt 0.349150 0.747709
vt 0.763790 0.016378
vt 0.772098 0.858792
vt 0.709686 0.869146
vt 0.711073 0.012596
vt 0.630181 0.876423
vt 0.631566 0.019872
vt 0.709686 0.869146
vt 0.711073 0.012596
vt 0.772098 0.858792
vt 0.262644 0.178508
vt 0.306033 0.747923
vt 0.305855 0.178504
vt 0.541533 0.165918
vt 0.541222 0.262888
vt 0.498624 0.233751
vt 0.498774 0.186837
vt 0.584157 0.187111
vt 0.584006 0.234024
vn -0.000001 -0.394731 -0.918797
vn -0.000001 -0.394731 -0.918797
vn -0.000001 -0.394731 -0.918797
vn -0.000001 -0.394731 -0.918797
vn -1.000000 -0.000005 0.000000
vn -1.000000 -0.000005 0.000000
vn -1.000000 -0.000002 0.000000
vn -1.000000 -0.000002 0.000000
vn -1.000000 0.000000 0.000000
vn -1.000000 0.000000 0.000000
vn 0.000000 0.914731 -0.404063
vn 0.000000 0.914731 -0.404063
vn 0.000000 0.914731 -0.404063
vn 0.000000 0.914731 -0.404063
vn 1.000000 0.000000 0.000000
vn 1.000000 0.000000 0.000000
vn 1.000000 -0.000006 0.000000
vn 1.000000 -0.000006 0.000000
vn 1.000000 0.000006 0.000000
vn 1.000000 0.000006 0.000000
vn 0.000000 -0.394742 0.918792
vn 0.000000 -0.394742 0.918792
vn 0.000000 -0.394742 0.918792
vn 0.000000 -0.394742 0.918792
vn 0.000000 0.914732 0.404061
vn 0.000000 0.914732 0.404061
vn 0.000000 0.914732 0.404061
vn 0.000000 0.914732 0.404061
vn 0.110012 0.981251 0.158250
vn 0.110011 0.981251 0.158251
vn 0.110010 0.981251 -0.158251
vn 0.110012 0.981251 -0.158249
vn 0.915788 -0.401663 0.000000
vn 0.915788 -0.401663 0.000000
vn 0.915788 -0.401663 0.000000
vn 0.915788 -0.401663 0.000000
vn -0.110011 0.981252 0.158249
vn -0.110012 0.981252 0.158249
vn 0.110011 0.981251 0.158251
vn 0.110012 0.981251 0.158250
vn 0.000000 -0.401724 0.915761
vn 0.000000 -0.401724 0.915761
vn 0.000000 -0.401724 0.915761
vn 0.000000 -0.401724 0.915761
vn -0.110011 0.981252 -0.158249
vn -0.110011 0.981252 -0.158249
vn -0.110012 0.981252 0.158249
vn -0.110011 0.981252 0.158249
vn -0.915762 -0.401721 0.000000
vn -0.915762 -0.401721 0.000000
vn -0.915762 -0.401721 0.000000
vn -0.915762 -0.401721 0.000000
vn 0.110012 0.981251 -0.158249
vn 0.110010 0.981251 -0.158251
vn -0.110011 0.981252 -0.158249
vn -0.110011 0.981252 -0.158249
vn -0.000001 -0.401785 -0.915734
vn -0.000001 -0.401785 -0.915734
vn -0.000001 -0.401785 -0.915734
vn -0.000001 -0.401785 -0.915734
vn 0.000000 -0.100657 -0.994921
vn 0.000000 -0.100657 -0.994921
vn 0.000000 -0.100657 -0.994921
vn 0.000000 -0.100657 -0.994921
vn -1.000000 0.000006 0.000000
vn -1.000000 0.000006 0.000000
vn -1.000000 0.000003 0.000000
vn -1.000000 0.000003 0.000000
vn 0.000000 0.914857 -0.403778
vn 0.000000 0.914857 -0.403778
vn 0.000000 0.914857 -0.403778
vn 0.000000 0.914857 -0.403778
vn 1.000000 0.000000 0.000000
vn 1.000000 0.000000 0.000000
vn 1.000000 0.000000 0.000000
vn 1.000000 0.000000 0.000000
vn 0.000000 -0.100623 0.994925
vn 0.000000 -0.100623 0.994925
vn 0.000000 -0.100623 0.994925
vn 0.000000 -0.100623 0.994925
vn -1.000000 0.000000 0.000000
vn -1.000000 0.000003 0.000000
vn -1.000000 0.000003 0.000000
vn -1.000000 0.000000 0.000000
vn 0.000000 0.914858 0.403776
vn 0.000000 0.914858 0.403776
vn 0.000000 0.914858 0.403776
vn 0.000000 0.914858 0.403776
vn 1.000000 0.000000 0.000000
vn 1.000000 0.000000 0.000000
vn 1.000000 0.000000 0.000000
vn 1.000000 0.000000 0.000000
vn -0.657875 -0.544661 -0.520140
vn -0.124440 -0.984384 0.124508
vn -0.124480 -0.984384 0.124468
vn -0.672513 -0.499353 -0.546236
vn 0.129994 0.982948 -0.130059
vn 0.130032 0.982948 -0.130021
vn -0.544958 0.495832 -0.676144
vn -0.515489 0.546433 -0.660062
vn -0.657875 -0.544661 -0.520140
vn -0.672513 -0.499353 -0.546236
vn 0.660052 0.546449 0.515484
vn 0.676146 0.495812 0.544975
vn 0.546213 -0.499381 0.672510
vn 0.520139 -0.544651 0.657884
vn 0.700621 -0.134590 -0.700725
vn 0.700622 -0.134590 -0.700725
vn 0.694311 -0.134572 -0.706982
vn 0.694311 -0.134572 -0.706982
vn 0.706876 -0.134598 -0.694413
vn 0.706876 -0.134598 -0.694413
vn 0.520139 -0.544651 0.657884
vn 0.546213 -0.499381 0.672510
vn -0.124480 -0.984384 0.124468
vn -0.124440 -0.984384 0.124508
vn 0.520125 -0.544686 -0.657866
vn -0.124502 -0.984384 -0.124450
vn -0.124466 -0.984384 -0.124485
vn 0.546233 -0.499358 -0.672511
vn 0.130070 0.982948 0.129983
vn 0.130014 0.982948 0.130038
vn 0.676139 0.495853 -0.544946
vn 0.660057 0.546449 -0.515478
vn 0.520125 -0.544686 -0.657866
vn 0.546233 -0.499358 -0.672511
vn -0.515481 0.546461 0.660045
vn -0.544973 0.495823 0.676140
vn -0.672513 -0.499383 0.546207
vn -0.657891 -0.544642 0.520139
vn 0.700730 -0.134604 0.700613
vn 0.700730 -0.134604 0.700613
vn 0.707000 -0.134608 0.694285
vn 0.707000 -0.134608 0.694285
vn 0.694405 -0.134589 0.706886
vn 0.694405 -0.134589 0.706886
vn -0.657891 -0.544642 0.520139
vn -0.672513 -0.499383 0.546207
vn -0.124466 -0.984384 -0.124485
vn -0.124502 -0.984384 -0.124450
vn 0.657858 -0.544707 0.520112
vn 0.124445 -0.984384 -0.124505
vn 0.124482 -0.984384 -0.124467
vn 0.672507 -0.499371 0.546226
vn -0.129977 0.982948 0.130074
vn -0.130040 0.982948 0.130011
vn 0.544941 0.495860 0.676138
vn 0.515472 0.546458 0.660055
vn 0.657858 -0.544707 0.520112
vn 0.672507 -0.499371 0.546226
vn -0.660047 0.546458 -0.515482
vn -0.676141 0.495821 -0.544972
vn -0.546211 -0.499382 -0.672511
vn -0.520137 -0.544652 -0.657885
vn -0.700606 -0.134587 0.700741
vn -0.700605 -0.134587 0.700741
vn -0.694307 -0.134588 0.706982
vn -0.694307 -0.134588 0.706982
vn -0.706848 -0.134575 0.694446
vn -0.706848 -0.134575 0.694446
vn -0.520137 -0.544652 -0.657885
vn -0.546211 -0.499382 -0.672511
vn 0.124482 -0.984384 -0.124467
vn 0.124445 -0.984384 -0.124505
vn -0.520130 -0.544675 0.657871
vn 0.124500 -0.984384 0.124447
vn 0.124470 -0.984384 0.124477
vn -0.546230 -0.499362 0.672511
vn -0.520130 -0.544675 0.657871
vn -0.546230 -0.499362 0.672511
vn -0.660058 0.546445 0.515481
vn -0.676141 0.495845 0.544951
vn -0.130049 0.982948 -0.130005
vn -0.130012 0.982948 -0.130042
vn 0.515487 0.546446 -0.660052
vn 0.544979 0.495807 -0.676146
vn 0.672507 -0.499392 -0.546207
vn 0.657881 -0.544660 -0.520133
vn 0.124470 -0.984384 0.124477
vn 0.124500 -0.984384 0.124447
vn -0.700734 -0.134581 -0.700614
vn -0.700734 -0.134581 -0.700614
vn -0.706989 -0.134577 -0.694302
vn -0.706989 -0.134577 -0.694302
vn -0.694424 -0.134574 -0.706870
vn -0.694424 -0.134574 -0.706870
usemtl material
f 1/0/1 2/0/2 3/0/3
f 1/0/1 3/0/3 4/0/4
f 5/0/5 6/0/6 7/0/7
f 5/0/5 7/0/7 8/0/8
f 9/0/9 8/0/8 7/0/7
f 9/0/9 7/0/7 10/0/10
f 11/0/11 12/0/12 13/0/13
f 11/0/11 13/0/13 14/0/14
f 15/0/15 16/0/16 17/0/17
f 15/0/15 17/0/17 18/0/18
f 15/0/15 19/0/19 16/0/16
f 15/0/15 20/0/20 19/0/19
f 21/0/21 22/0/22 23/0/23
f 21/0/21 23/0/23 24/0/24
f 25/0/25 26/0/26 27/0/27
f 25/0/25 27/0/27 28/0/28
f 29/0/29 30/0/30 31/0/31
f 29/0/29 31/0/31 32/0/32
f 33/0/33 34/0/34 35/0/35
f 33/0/33 35/0/35 36/0/36
f 37/0/37 38/0/38 39/0/39
f 37/0/37 39/0/39 40/0/40
f 41/0/41 42/0/42 43/0/43
f 41/0/41 43/0/43 44/0/44
f 45/0/45 46/0/46 47/0/47
f 45/0/45 47/0/47 48/0/48
f 49/0/49 50/0/50 51/0/51
f 49/0/49 51/0/51 52/0/52
f 53/0/53 54/0/54 55/0/55
f 53/0/53 55/0/55 56/0/56
f 57/0/57 58/0/58 59/0/59
f 57/0/57 59/0/59 60/0/60
f 61/0/61 62/0/62 63/0/63
f 61/0/61 63/0/63 64/0/64
f 65/0/65 66/0/66 67/0/67
f 65/0/65 67/0/67 68/0/68
f 69/0/69 70/0/70 71/0/71
f 69/0/69 71/0/71 72/0/72
f 73/0/73 74/0/74 75/0/75
f 73/0/73 75/0/75 76/0/76
f 77/0/77 78/0/78 79/0/79
f 77/0/77 79/0/79 80/0/80
f 81/0/81 82/0/82 83/0/83
f 81/0/81 83/0/83 84/0/84
f 85/0/85 86/0/86 87/0/87
f 85/0/85 87/0/87 88/0/88
f 89/0/89 90/0/90 91/0/91
f 89/0/89 91/0/91 92/0/92
f 93/0/93 94/0/94 95/0/95
f 93/0/93 95/0/95 96/0/96
f 97/0/97 98/0/98 99/0/99
f 97/0/97 99/0/99 100/0/100
f 101/0/101 100/0/100 99/0/99
f 101/0/101 102/0/102 100/0/100
f 103/0/103 98/0/98 97/0/97
f 103/0/103 104/0/104 98/0/98
f 105/0/105 104/0/104 103/0/103
f 105/0/105 106/0/106 104/0/104
f 107/0/107 108/0/108 109/0/109
f 107/0/107 109/0/109 110/0/110
f 111/0/111 108/0/108 107/0/107
f 111/0/111 112/0/112 108/0/108
f 113/0/113 114/0/114 115/0/115
f 113/0/113 115/0/115 116/0/116
f 117/0/117 118/0/118 119/0/119
f 117/0/117 119/0/119 120/0/120
f 121/0/121 122/0/122 123/0/123
f 121/0/121 123/0/123 124/0/124
f 125/0/125 124/0/124 123/0/123
f 125/0/125 126/0/126 124/0/124
f 127/0/127 122/0/122 121/0/121
f 127/0/127 128/0/128 122/0/122
f 129/0/129 128/0/128 127/0/127
f 129/0/129 130/0/130 128/0/128
f 131/0/131 132/0/132 133/0/133
f 131/0/131 133/0/133 134/0/134
f 135/0/135 132/0/132 131/0/131
f 135/0/135 136/0/136 132/0/132
f 137/0/137 138/0/138 139/0/139
f 137/0/137 139/0/139 140/0/140
f 141/0/141 142/0/142 143/0/143
f 141/0/141 143/0/143 144/0/144
f 145/0/145 146/0/146 147/0/147
f 145/0/145 147/0/147 148/0/148
f 149/0/149 148/0/148 147/0/147
f 149/0/149 150/0/150 148/0/148
f 151/0/151 146/0/146 145/0/145
f 151/0/151 152/0/152 146/0/146
f 153/0/153 152/0/152 151/0/151
f 153/0/153 154/0/154 152/0/152
f 155/0/155 156/0/156 157/0/157
f 155/0/155 157/0/157 158/0/158
f 159/0/159 156/0/156 155/0/155
f 159/0/159 160/0/160 156/0/156
f 161/0/161 162/0/162 163/0/163
f 161/0/161 163/0/163 164/0/164
f 165/0/165 166/0/166 167/0/167
f 165/0/165 167/0/167 168/0/168
f 169/0/169 170/0/170 171/0/171
f 169/0/169 171/0/171 172/0/172
f 173/0/173 172/0/172 171/0/171
f 173/0/173 174/0/174 172/0/172
f 175/0/175 174/0/174 173/0/173
f 175/0/175 176/0/176 174/0/174
f 177/0/177 176/0/176 175/0/175
f 177/0/177 178/0/178 176/0/176
f 178/0/178 177/0/177 179/0/179
f 178/0/178 179/0/179 180/0/180
f 181/0/181 182/0/182 183/0/183
f 181/0/181 183/0/183 184/0/184
f 185/0/185 182/0/182 181/0/181
f 185/0/185 186/0/186 182/0/182
