# 
# Wavefront OBJ file
# Created with Kaydara FBX
# 
mtllib house02_c07.mtl

g House02_C07
v 0.000010 3.070004 -10.349985
v 0.000000 2.741157 -11.552846
v -15.499995 2.741157 -11.552876
v -15.499990 3.070004 -10.350015
v 0.000010 2.950001 -10.349976
v 0.000010 3.070004 -10.349985
v -15.499990 3.070004 -10.350015
v -15.499990 2.950001 -10.350015
v -15.499990 2.950001 -10.350015
v -15.499990 3.070004 -10.350015
v -15.499995 2.741157 -11.552876
v -15.499995 2.644567 -11.526987
v -15.499995 2.644567 -11.526987
v -15.499995 2.741157 -11.552876
v 0.000000 2.741157 -11.552846
v 0.000000 2.644565 -11.526958
v 0.000000 2.644565 -11.526958
v 0.000000 2.741157 -11.552846
v 0.000010 3.070004 -10.349985
v 0.000010 2.950001 -10.349976
v 0.000000 5.570775 -10.883154
v -15.559995 5.719618 -10.898203
v 0.000000 5.719618 -10.898203
v -15.559995 5.570775 -10.883154
v -15.559995 5.719618 -10.898203
v -15.559995 8.047999 -5.250000
v -15.559995 8.212496 -5.250000
v -15.559995 5.570775 -10.883154
v 0.000000 8.212496 -5.250000
v 0.000000 5.719618 -10.898203
v -15.559995 5.719618 -10.898203
v -15.559995 8.212496 -5.250000
v 0.000000 8.212496 -5.250000
v 0.000000 5.570775 -10.883154
v 0.000000 5.719618 -10.898203
v 0.000000 8.047999 -5.250000
v 0.000000 5.570790 0.383145
v -15.559995 5.719635 0.398213
v -15.559995 5.570791 0.383145
v 0.000000 5.719635 0.398213
v -15.559995 5.719635 0.398213
v -15.559995 8.047999 -5.250000
v -15.559995 5.570791 0.383145
v -15.559995 8.212496 -5.250000
v 0.000000 8.212496 -5.250000
v -15.559995 8.212496 -5.250000
v -15.559995 5.719635 0.398213
v 0.000000 5.719635 0.398213
v 0.000000 8.212496 -5.250000
v 0.000000 5.570790 0.383145
v 0.000000 8.047999 -5.250000
v 0.000000 5.719635 0.398213
v 0.000010 3.070004 -0.150000
v -15.499990 3.070004 -0.149971
v -15.499995 2.741157 1.052891
v 0.000000 2.741157 1.052861
v 0.000010 2.950001 -0.150010
v -15.499990 2.950001 -0.149971
v -15.499990 3.070004 -0.149971
v 0.000010 3.070004 -0.150000
v -15.499990 2.950001 -0.149971
v -15.499995 2.644567 1.027002
v -15.499995 2.741157 1.052891
v -15.499990 3.070004 -0.149971
v -15.499995 2.644567 1.027002
v 0.000000 2.644565 1.026973
v 0.000000 2.741157 1.052861
v -15.499995 2.741157 1.052891
v 0.000000 2.644565 1.026973
v 0.000010 2.950001 -0.150010
v 0.000010 3.070004 -0.150000
v 0.000000 2.741157 1.052861
vt -6.864281 0.827742
vt -6.864281 0.145183
vt 9.395306 0.145164
vt 9.395309 0.827722
vt 9.552341 0.814417
vt 9.552341 0.882512
vt -6.706918 0.882547
vt -6.706918 0.814452
vt 1.987571 0.890365
vt 1.872179 0.890365
vt 1.872179 0.191566
vt 1.987571 0.191566
vt 9.395308 0.827738
vt 9.395309 0.882547
vt -6.863946 0.882462
vt -6.863947 0.827652
vt 1.880421 0.199567
vt 1.986708 0.190852
vt 1.995088 0.897672
vt 1.871844 0.890156
vt 2.723628 6.172405
vt -11.957084 6.216254
vt 2.723628 6.216254
vt -11.957084 6.172405
vt 2.723628 6.172406
vt 2.612240 2.804864
vt 2.723628 2.827223
vt 2.612240 6.150047
vt -11.957084 2.827223
vt -11.957084 6.172405
vt 2.723628 6.172406
vt 2.723628 2.827223
vt 2.612240 2.804864
vt 2.723628 6.172406
vt 2.612240 6.150047
vt 2.723628 2.827223
vt 2.723628 6.172405
vt -11.957084 6.216254
vt -11.957084 6.172405
vt 2.723628 6.216254
vt 2.612240 6.150047
vt 2.723628 2.827223
vt 2.723628 6.172406
vt 2.612240 2.804864
vt -11.957084 2.827223
vt 2.723628 2.827223
vt 2.723628 6.172406
vt -11.957084 6.172405
vt 2.723626 2.827223
vt 2.612240 6.150046
vt 2.612240 2.804864
vt 2.723625 6.172405
vt -6.864381 0.827716
vt 9.395309 0.827722
vt 9.395306 0.145164
vt -6.864381 0.145158
vt 9.552945 0.814191
vt -6.706918 0.814452
vt -6.706918 0.882547
vt 9.552945 0.882286
vt 1.987571 0.890365
vt 1.987571 0.191566
vt 1.872179 0.191566
vt 1.872179 0.890365
vt 9.395308 0.827738
vt -6.863609 0.827663
vt -6.863608 0.882473
vt 9.395309 0.882547
vt 1.880034 0.199648
vt 1.871457 0.890237
vt 1.994700 0.897753
vt 1.986321 0.190933
vn 0.000001 0.964602 -0.263710
vn 0.000001 0.964602 -0.263710
vn 0.000001 0.964602 -0.263709
vn 0.000001 0.964602 -0.263710
vn -0.000002 0.000041 1.000000
vn -0.000002 0.000041 1.000000
vn -0.000002 0.000041 1.000000
vn -0.000002 0.000041 1.000000
vn -1.000000 0.000000 0.000004
vn -1.000000 0.000000 0.000004
vn -1.000000 0.000000 0.000004
vn -1.000000 0.000000 0.000004
vn 0.000002 -0.258885 -0.965908
vn 0.000002 -0.258885 -0.965908
vn 0.000002 -0.258885 -0.965908
vn 0.000002 -0.258885 -0.965908
vn 1.000000 -0.000001 -0.000008
vn 1.000000 -0.000001 -0.000008
vn 1.000000 -0.000001 -0.000008
vn 1.000000 -0.000001 -0.000008
vn 0.000000 -0.100593 -0.994928
vn 0.000000 -0.100593 -0.994928
vn 0.000000 -0.100593 -0.994928
vn 0.000000 -0.100592 -0.994928
vn -1.000000 0.000000 0.000000
vn -1.000000 0.000000 0.000000
vn -1.000000 0.000000 0.000000
vn -1.000000 0.000014 0.000000
vn 0.000000 0.914857 -0.403779
vn 0.000000 0.914857 -0.403779
vn 0.000000 0.914857 -0.403779
vn 0.000000 0.914857 -0.403779
vn 1.000000 0.000000 0.000000
vn 1.000000 0.000000 0.000000
vn 1.000000 0.000000 0.000000
vn 1.000000 0.000000 0.000000
vn 0.000000 -0.100721 0.994915
vn 0.000000 -0.100721 0.994915
vn 0.000000 -0.100721 0.994915
vn 0.000000 -0.100720 0.994915
vn -1.000000 0.000000 0.000000
vn -1.000000 0.000000 0.000000
vn -1.000000 0.000000 0.000000
vn -1.000000 0.000000 0.000000
vn 0.000000 0.914858 0.403776
vn 0.000000 0.914858 0.403776
vn 0.000000 0.914858 0.403776
vn 0.000000 0.914858 0.403776
vn 1.000000 0.000000 0.000000
vn 1.000000 0.000000 0.000000
vn 1.000000 0.000000 0.000000
vn 1.000000 0.000000 0.000000
vn 0.000000 0.964602 0.263710
vn 0.000000 0.964602 0.263710
vn 0.000000 0.964602 0.263710
vn 0.000000 0.964602 0.263710
vn -0.000002 0.000041 -1.000000
vn -0.000002 0.000041 -1.000000
vn -0.000002 0.000041 -1.000000
vn -0.000002 0.000041 -1.000000
vn -1.000000 0.000000 -0.000004
vn -1.000000 0.000000 -0.000004
vn -1.000000 0.000000 -0.000004
vn -1.000000 0.000000 -0.000004
vn 0.000002 -0.258885 0.965908
vn 0.000002 -0.258885 0.965908
vn 0.000002 -0.258885 0.965908
vn 0.000002 -0.258885 0.965908
vn 1.000000 -0.000001 0.000008
vn 1.000000 -0.000001 0.000008
vn 1.000000 -0.000001 0.000008
vn 1.000000 -0.000001 0.000008
usemtl material
f 1/0/1 2/0/2 3/0/3
f 1/0/1 3/0/3 4/0/4
f 5/0/5 6/0/6 7/0/7
f 5/0/5 7/0/7 8/0/8
f 9/0/9 10/0/10 11/0/11
f 9/0/9 11/0/11 12/0/12
f 13/0/13 14/0/14 15/0/15
f 13/0/13 15/0/15 16/0/16
f 17/0/17 18/0/18 19/0/19
f 17/0/17 19/0/19 20/0/20
f 21/0/21 22/0/22 23/0/23
f 22/0/22 21/0/21 24/0/24
f 25/0/25 26/0/26 27/0/27
f 26/0/26 25/0/25 28/0/28
f 29/0/29 30/0/30 31/0/31
f 29/0/29 31/0/31 32/0/32
f 33/0/33 34/0/34 35/0/35
f 34/0/34 33/0/33 36/0/36
f 37/0/37 38/0/38 39/0/39
f 38/0/38 37/0/37 40/0/40
f 41/0/41 42/0/42 43/0/43
f 42/0/42 41/0/41 44/0/44
f 45/0/45 46/0/46 47/0/47
f 45/0/45 47/0/47 48/0/48
f 49/0/49 50/0/50 51/0/51
f 50/0/50 49/0/49 52/0/52
f 53/0/53 54/0/54 55/0/55
f 53/0/53 55/0/55 56/0/56
f 57/0/57 58/0/58 59/0/59
f 57/0/57 59/0/59 60/0/60
f 61/0/61 62/0/62 63/0/63
f 61/0/61 63/0/63 64/0/64
f 65/0/65 66/0/66 67/0/67
f 65/0/65 67/0/67 68/0/68
f 69/0/69 70/0/70 71/0/71
f 69/0/69 71/0/71 72/0/72
