# 
# Wavefront OBJ file
# Created with Kaydara FBX
# 
mtllib house03_c12.mtl

g House03_C12
v -7.750010 0.100002 -10.190004
v -10.250010 0.100002 -10.190004
v -10.250010 2.451143 -10.190004
v -7.750010 2.451143 -10.190004
v -5.250010 0.100001 -10.190004
v -5.250010 2.451141 -10.190004
v -12.749980 0.100002 -0.250005
v -10.249980 0.100004 -0.250005
v -10.249980 3.161965 -0.250005
v -12.749980 3.161963 -0.250005
v -15.249980 0.100001 -0.250005
v -15.249980 3.161960 -0.250005
vt 0.456665 1.000000
vt 0.251575 1.000000
vt 0.251576 0.750392
vt 0.456665 0.750392
vt 0.251575 1.000000
vt 0.251575 0.750392
vt 0.500000 0.749608
vt 0.251715 0.749608
vt 0.251715 0.500000
vt 0.500000 0.500000
vt 0.251715 0.749608
vt 0.251715 0.500000
vn 0.000000 0.000000 -1.000000
vn 0.000000 0.000000 -1.000000
vn 0.000000 0.000000 -1.000000
vn 0.000000 0.000000 -1.000000
vn 0.000000 0.000000 -1.000000
vn 0.000000 0.000000 -1.000000
vn 0.000000 0.000000 1.000000
vn 0.000000 0.000000 1.000000
vn 0.000000 0.000000 1.000000
vn 0.000000 0.000000 1.000000
vn 0.000000 0.000000 1.000000
vn 0.000000 0.000000 1.000000
usemtl material
f 1/0/1 2/0/2 3/0/3
f 1/0/1 3/0/3 4/0/4
f 5/0/5 1/0/1 4/0/4
f 5/0/5 4/0/4 6/0/6
f 7/0/7 8/0/8 9/0/9
f 7/0/7 9/0/9 10/0/10
f 11/0/11 7/0/7 10/0/10
f 11/0/11 10/0/10 12/0/12
