# 
# Wavefront OBJ file
# Created with Kaydara FBX
# 
mtllib house05_c06.mtl

g House05_C06
v -2.333774 0.032003 -11.467246
v -2.633809 0.032003 -11.467246
v -2.633809 0.031998 -11.155723
v -2.333784 0.031998 -11.155723
v -2.649814 0.000004 -11.483252
v -2.649814 -0.000001 -11.139727
v -2.633809 0.031998 -11.155723
v -2.633809 0.032003 -11.467246
v -2.649814 -0.000001 -11.139727
v -2.317783 -0.000001 -11.139727
v -2.333784 0.031998 -11.155723
v -2.633809 0.031998 -11.155723
v -2.317783 -0.000001 -11.139727
v -2.317783 0.000004 -11.483252
v -2.333774 0.032003 -11.467246
v -2.333784 0.031998 -11.155723
v -2.317783 0.000004 -11.483252
v -2.649814 0.000004 -11.483252
v -2.633809 0.032003 -11.467246
v -2.333774 0.032003 -11.467246
v -5.399785 0.032003 -11.467246
v -5.699819 0.032003 -11.467246
v -5.699819 0.031998 -11.155723
v -5.399792 0.031998 -11.155723
v -5.715825 0.000004 -11.483252
v -5.715825 -0.000001 -11.139727
v -5.699819 0.031998 -11.155723
v -5.699819 0.032003 -11.467246
v -5.715825 -0.000001 -11.139727
v -5.383794 -0.000001 -11.139727
v -5.399792 0.031998 -11.155723
v -5.699819 0.031998 -11.155723
v -5.383794 -0.000001 -11.139727
v -5.383794 0.000004 -11.483252
v -5.399785 0.032003 -11.467246
v -5.399792 0.031998 -11.155723
v -5.383794 0.000004 -11.483252
v -5.715825 0.000004 -11.483252
v -5.699819 0.032003 -11.467246
v -5.399785 0.032003 -11.467246
vt 0.071053 0.341160
vt 0.177977 0.341160
vt 0.177977 0.210016
vt 0.071053 0.210016
vt 0.183679 0.346862
vt 0.183679 0.204314
vt 0.177977 0.210016
vt 0.177977 0.341160
vt 0.183679 0.204314
vt 0.065351 0.204314
vt 0.071053 0.210016
vt 0.177977 0.210016
vt 0.065351 0.204314
vt 0.065351 0.346862
vt 0.071053 0.341160
vt 0.071053 0.210016
vt 0.065351 0.346862
vt 0.183679 0.346862
vt 0.177977 0.341160
vt 0.071053 0.341160
vt 0.071053 0.341160
vt 0.177977 0.341160
vt 0.177977 0.210016
vt 0.071053 0.210016
vt 0.183679 0.346862
vt 0.183679 0.204314
vt 0.177977 0.210016
vt 0.177977 0.341160
vt 0.183679 0.204314
vt 0.065351 0.204314
vt 0.071053 0.210016
vt 0.177977 0.210016
vt 0.065351 0.204314
vt 0.065351 0.346862
vt 0.071053 0.341160
vt 0.071053 0.210016
vt 0.065351 0.346862
vt 0.183679 0.346862
vt 0.177977 0.341160
vt 0.071053 0.341160
vn 0.000000 1.000000 0.000016
vn 0.000000 1.000000 0.000016
vn 0.000000 1.000000 0.000016
vn 0.000000 1.000000 0.000016
vn -0.894360 0.447348 0.000007
vn -0.894360 0.447348 0.000007
vn -0.894360 0.447348 0.000007
vn -0.894360 0.447348 0.000007
vn 0.000000 0.447132 0.894468
vn 0.000000 0.447132 0.894468
vn 0.000000 0.447132 0.894468
vn 0.000000 0.447132 0.894468
vn 0.894468 0.447132 0.000020
vn 0.894468 0.447132 0.000020
vn 0.894468 0.447132 0.000020
vn 0.894468 0.447132 0.000020
vn 0.000000 0.447350 -0.894359
vn 0.000000 0.447350 -0.894359
vn 0.000000 0.447350 -0.894359
vn 0.000000 0.447350 -0.894359
vn 0.000000 1.000000 0.000016
vn 0.000000 1.000000 0.000016
vn 0.000000 1.000000 0.000016
vn 0.000000 1.000000 0.000016
vn -0.894363 0.447342 0.000007
vn -0.894363 0.447342 0.000007
vn -0.894363 0.447342 0.000007
vn -0.894363 0.447342 0.000007
vn 0.000000 0.447132 0.894468
vn 0.000000 0.447132 0.894468
vn 0.000000 0.447132 0.894468
vn 0.000000 0.447132 0.894468
vn 0.894483 0.447102 0.000017
vn 0.894483 0.447102 0.000017
vn 0.894483 0.447102 0.000017
vn 0.894483 0.447102 0.000017
vn 0.000000 0.447350 -0.894359
vn 0.000000 0.447350 -0.894359
vn 0.000000 0.447350 -0.894359
vn 0.000000 0.447350 -0.894359
usemtl material
f 1/0/1 2/0/2 3/0/3
f 1/0/1 3/0/3 4/0/4
f 5/0/5 6/0/6 7/0/7
f 5/0/5 7/0/7 8/0/8
f 9/0/9 10/0/10 11/0/11
f 9/0/9 11/0/11 12/0/12
f 13/0/13 14/0/14 15/0/15
f 13/0/13 15/0/15 16/0/16
f 17/0/17 18/0/18 19/0/19
f 17/0/17 19/0/19 20/0/20
f 21/0/21 22/0/22 23/0/23
f 21/0/21 23/0/23 24/0/24
f 25/0/25 26/0/26 27/0/27
f 25/0/25 27/0/27 28/0/28
f 29/0/29 30/0/30 31/0/31
f 29/0/29 31/0/31 32/0/32
f 33/0/33 34/0/34 35/0/35
f 33/0/33 35/0/35 36/0/36
f 37/0/37 38/0/38 39/0/39
f 37/0/37 39/0/39 40/0/40
