# 
# Wavefront OBJ file
# Created with Kaydara FBX
# 
mtllib house02_c09.mtl

g House02_C09
v -0.219375 5.719618 -10.898359
v -0.619082 5.719618 -10.898359
v -0.419228 5.880543 -10.910400
v -0.619082 8.212494 -5.249990
v -0.419228 8.421776 -5.249990
v -0.419228 5.880543 -10.910400
v -0.619082 5.719618 -10.898359
v -0.219375 8.212494 -5.249990
v -0.219375 5.719618 -10.898359
v -0.619082 8.212494 -5.249990
v -0.619082 5.719636 0.398369
v -0.419228 5.880560 0.410420
v -0.419228 8.421776 -5.249990
v -0.619082 5.719636 0.398369
v -0.219375 5.719636 0.398369
v -0.419228 5.880560 0.410420
v -0.419228 5.880560 0.410420
v -0.219375 5.719636 0.398369
v -0.219375 8.212494 -5.249990
v -0.419228 8.421776 -5.249990
v -14.940903 5.719618 -10.898369
v -15.340610 5.719618 -10.898369
v -15.140757 5.880543 -10.910410
v -15.340610 8.212494 -5.250000
v -15.140757 8.421776 -5.250000
v -15.140757 5.880543 -10.910410
v -15.340610 5.719618 -10.898369
v -14.940903 8.212494 -5.250000
v -14.940903 5.719618 -10.898369
v -15.340610 8.212494 -5.250000
v -15.340610 5.719636 0.398359
v -15.140757 5.880560 0.410410
v -15.140757 8.421776 -5.250000
v -15.340610 5.719636 0.398359
v -14.940903 5.719636 0.398359
v -15.140757 5.880560 0.410410
v -15.140757 5.880560 0.410410
v -14.940903 5.719636 0.398359
v -14.940903 8.212494 -5.250000
v -15.140757 8.421776 -5.250000
v -15.559985 8.495499 -5.250000
v 0.000000 8.495497 -5.249990
v 0.000000 8.427814 -5.374990
v -15.559985 8.427814 -5.375000
v -15.559985 8.427814 -5.125000
v 0.000000 8.427809 -5.125000
v -15.559985 8.212499 -5.250000
v -15.559985 8.427814 -5.375000
v -15.559985 8.153487 -5.374990
v -15.559985 8.495499 -5.250000
v -15.559985 8.153487 -5.124990
v -15.559985 8.427814 -5.125000
v -15.559985 8.153487 -5.124990
v 0.000000 8.153487 -5.124990
v 0.000000 8.427809 -5.125000
v -15.559985 8.427814 -5.125000
v 0.000000 8.212496 -5.249990
v 0.000000 8.427809 -5.125000
v 0.000000 8.153487 -5.124990
v 0.000000 8.495497 -5.249990
v 0.000000 8.153490 -5.374980
v 0.000000 8.427814 -5.374990
v 0.000000 8.153490 -5.374980
v -15.559985 8.153487 -5.374990
v -15.559985 8.427814 -5.375000
v 0.000000 8.427814 -5.374990
vt 0.622972 0.017681
vt 0.424323 0.017681
vt 0.523648 0.117005
vt -0.475537 0.119241
vt -0.475537 0.196874
vt 1.475537 0.196874
vt 1.475537 0.119241
vt -0.475537 0.119241
vt 1.475537 0.119241
vt 1.475537 0.119241
vt -0.475537 0.119241
vt -0.475537 0.196874
vt 1.475537 0.196874
vt 0.622972 0.017681
vt 0.424323 0.017681
vt 0.523648 0.117005
vt -0.475537 0.119241
vt -0.475537 0.196874
vt 1.475537 0.196874
vt 1.475537 0.119241
vt 0.622972 0.017681
vt 0.424323 0.017681
vt 0.523648 0.117005
vt -0.475537 0.119241
vt -0.475537 0.196874
vt 1.475537 0.196874
vt 1.475537 0.119241
vt -0.475537 0.119241
vt 1.475537 0.119241
vt 1.475537 0.119241
vt -0.475537 0.119241
vt -0.475537 0.196874
vt 1.475537 0.196874
vt 0.622972 0.017681
vt 0.424323 0.017681
vt 0.523648 0.117005
vt -0.475537 0.119241
vt -0.475537 0.196874
vt 1.475537 0.196874
vt 1.475537 0.119241
vt 3.825996 0.152257
vt -2.789574 0.152284
vt -2.789575 0.196083
vt 3.825990 0.196238
vt 3.825994 0.108127
vt -2.789580 0.108205
vt 0.328606 0.032083
vt 0.287059 0.086991
vt 0.287995 0.014505
vt 0.329072 0.103649
vt 0.369912 0.014383
vt 0.369560 0.085945
vt 3.825996 0.107103
vt -2.789567 0.106927
vt -2.789580 0.108205
vt 3.825994 0.108127
vt 0.328898 0.031950
vt 0.286926 0.087298
vt 0.288010 0.015069
vt 0.328902 0.103751
vt 0.369792 0.015074
vt 0.369795 0.084941
vt -2.789574 0.197831
vt 3.826005 0.198134
vt 3.825990 0.196238
vt -2.789575 0.196083
vn 0.000000 -0.074615 -0.997212
vn 0.000000 -0.074615 -0.997212
vn 0.000000 -0.074615 -0.997212
vn -0.651341 0.693205 -0.308581
vn 0.000000 0.913572 -0.406677
vn 0.000000 0.913572 -0.406677
vn -0.651341 0.693205 -0.308581
vn 0.651341 0.693205 -0.308581
vn 0.651341 0.693205 -0.308581
vn -0.651344 0.693203 0.308578
vn -0.651344 0.693203 0.308578
vn 0.000000 0.913573 0.406675
vn 0.000000 0.913573 0.406675
vn 0.000000 -0.074676 0.997208
vn 0.000000 -0.074676 0.997208
vn 0.000000 -0.074676 0.997208
vn 0.000000 0.913573 0.406675
vn 0.651344 0.693203 0.308578
vn 0.651344 0.693203 0.308578
vn 0.000000 0.913573 0.406675
vn 0.000000 -0.074615 -0.997212
vn 0.000000 -0.074615 -0.997212
vn 0.000000 -0.074615 -0.997212
vn -0.651340 0.693205 -0.308581
vn 0.000000 0.913572 -0.406677
vn 0.000000 0.913572 -0.406677
vn -0.651341 0.693205 -0.308581
vn 0.651341 0.693205 -0.308581
vn 0.651341 0.693205 -0.308581
vn -0.651344 0.693204 0.308578
vn -0.651344 0.693204 0.308578
vn -0.000000 0.913573 0.406675
vn -0.000000 0.913573 0.406675
vn 0.000000 -0.074676 0.997208
vn 0.000000 -0.074676 0.997208
vn 0.000000 -0.074676 0.997208
vn -0.000000 0.913573 0.406675
vn 0.651345 0.693202 0.308578
vn 0.651345 0.693202 0.308578
vn -0.000000 0.913573 0.406675
vn 0.000000 1.000000 0.000009
vn 0.000000 1.000000 0.000010
vn 0.000001 0.343254 -0.939243
vn 0.000001 0.343254 -0.939243
vn 0.000000 0.343289 0.939230
vn 0.000000 0.343289 0.939230
vn -1.000000 0.000000 0.000000
vn -1.000000 0.000000 0.000000
vn -1.000000 0.000000 0.000000
vn -1.000000 0.000000 0.000000
vn -1.000000 0.000000 0.000000
vn -1.000000 0.000000 0.000000
vn 0.000000 0.000036 1.000000
vn 0.000000 0.000036 1.000000
vn 0.000000 0.343289 0.939230
vn 0.000000 0.343289 0.939230
vn 1.000000 0.000000 0.000000
vn 1.000000 0.000000 0.000000
vn 1.000000 0.000000 0.000000
vn 1.000000 0.000000 0.000000
vn 1.000000 0.000000 0.000000
vn 1.000000 0.000000 0.000000
vn 0.000001 -0.000036 -1.000000
vn 0.000001 -0.000036 -1.000000
vn 0.000001 0.343254 -0.939243
vn 0.000001 0.343254 -0.939243
usemtl material
f 1/0/1 2/0/2 3/0/3
f 4/0/4 5/0/5 6/0/6
f 4/0/4 6/0/6 7/0/7
f 8/0/8 6/0/6 5/0/5
f 8/0/8 9/0/9 6/0/6
f 10/0/10 11/0/11 12/0/12
f 10/0/10 12/0/12 13/0/13
f 14/0/14 15/0/15 16/0/16
f 17/0/17 18/0/18 19/0/19
f 17/0/17 19/0/19 20/0/20
f 21/0/21 22/0/22 23/0/23
f 24/0/24 25/0/25 26/0/26
f 24/0/24 26/0/26 27/0/27
f 28/0/28 26/0/26 25/0/25
f 28/0/28 29/0/29 26/0/26
f 30/0/30 31/0/31 32/0/32
f 30/0/30 32/0/32 33/0/33
f 34/0/34 35/0/35 36/0/36
f 37/0/37 38/0/38 39/0/39
f 37/0/37 39/0/39 40/0/40
f 41/0/41 42/0/42 43/0/43
f 41/0/41 43/0/43 44/0/44
f 45/0/45 42/0/42 41/0/41
f 45/0/45 46/0/46 42/0/42
f 47/0/47 48/0/48 49/0/49
f 48/0/48 47/0/47 50/0/50
f 51/0/51 50/0/50 47/0/47
f 50/0/50 51/0/51 52/0/52
f 53/0/53 54/0/54 55/0/55
f 53/0/53 55/0/55 56/0/56
f 57/0/57 58/0/58 59/0/59
f 58/0/58 57/0/57 60/0/60
f 61/0/61 60/0/60 57/0/57
f 60/0/60 61/0/61 62/0/62
f 63/0/63 64/0/64 65/0/65
f 63/0/63 65/0/65 66/0/66
