# 
# Wavefront OBJ file
# Created with Kaydara FBX
# 
mtllib house_lightplane.mtl

g House_LightPlane
v 64.127617 13.547464 65.083366
v 64.127617 16.272251 65.083366
v 49.870186 16.272251 65.083366
v 49.870186 13.547464 65.083366
v 64.216103 16.343456 65.083366
v 64.216103 18.402983 65.083366
v 55.024128 18.402983 65.083366
v 55.024128 16.343456 65.083366
v 85.663940 16.203432 63.896805
v 85.663940 19.051544 63.896805
v 69.430138 19.051544 63.896805
v 69.430138 16.203432 63.896805
v 81.500412 13.493204 65.083366
v 81.500412 15.552731 65.083366
v 74.476349 15.552731 65.083366
v 74.476349 13.493204 65.083366
v 93.283257 12.742608 65.083366
v 93.283257 16.766083 65.083366
v 87.116089 16.766083 65.083366
v 87.116089 12.742608 65.083366
v 116.603165 12.742608 65.083366
v 116.603165 16.766083 65.083366
v 110.435997 16.766083 65.083366
v 110.435997 12.742608 65.083366
v 121.469086 16.203432 63.896805
v 121.469086 19.051544 63.896805
v 105.235291 19.051544 63.896805
v 105.235291 16.203432 63.896805
v 82.974953 16.203432 37.833374
v 82.974953 19.051544 37.833374
v 66.741150 19.051544 37.833374
v 66.741150 16.203432 37.833374
v 78.811417 12.608848 39.077282
v 78.811417 16.176979 39.077282
v 71.787354 16.176979 39.077282
v 71.787354 12.608848 39.077282
v 104.042816 15.937326 37.948338
v 104.042816 18.785439 37.948338
v 91.933456 18.785439 37.948338
v 91.933456 15.937326 37.948338
v 101.852943 12.608848 39.192249
v 101.852943 16.176979 39.192249
v 94.828888 16.176979 39.192249
v 94.828888 12.608848 39.192249
v 82.474571 7.971537 82.378868
v 66.240761 7.971537 82.378868
v 66.240761 10.819648 82.378868
v 82.474571 10.819648 82.378868
v 78.531792 4.376950 81.163589
v 71.507729 4.376950 81.163589
v 71.507729 7.945082 81.163589
v 78.531792 7.945082 81.163589
v 124.417938 2.038367 98.320839
v 119.451172 2.038367 103.287605
v 119.451172 5.606499 103.287605
v 124.417938 5.606499 98.320839
v 128.483398 5.454704 96.002655
v 117.004364 5.454704 107.481674
v 117.004364 8.302816 107.481674
v 128.483398 8.302816 96.002655
vt 0.000000 0.000000
vt 0.000000 1.000000
vt 1.000000 1.000000
vt 1.000000 0.000000
vt 0.000000 0.000000
vt 0.000000 1.000000
vt 1.000000 1.000000
vt 1.000000 0.000000
vt 0.000000 0.000000
vt 0.000000 1.000000
vt 1.000000 1.000000
vt 1.000000 0.000000
vt 0.000000 0.000000
vt 0.000000 1.000000
vt 1.000000 1.000000
vt 1.000000 0.000000
vt 0.000000 0.000000
vt 0.000000 1.000000
vt 1.000000 1.000000
vt 1.000000 0.000000
vt 0.000000 0.000000
vt 0.000000 1.000000
vt 1.000000 1.000000
vt 1.000000 0.000000
vt 0.000000 0.000000
vt 0.000000 1.000000
vt 1.000000 1.000000
vt 1.000000 0.000000
vt 0.000000 0.000000
vt 0.000000 1.000000
vt 1.000000 1.000000
vt 1.000000 0.000000
vt 0.000000 0.000000
vt 0.000000 1.000000
vt 1.000000 1.000000
vt 1.000000 0.000000
vt 0.000000 0.000000
vt 0.000000 1.000000
vt 1.000000 1.000000
vt 1.000000 0.000000
vt 0.000000 0.000000
vt 0.000000 1.000000
vt 1.000000 1.000000
vt 1.000000 0.000000
vt 0.000000 0.000000
vt 1.000000 0.000000
vt 1.000000 1.000000
vt 0.000000 1.000000
vt 0.000000 0.000000
vt 1.000000 0.000000
vt 1.000000 1.000000
vt 0.000000 1.000000
vt 0.000000 0.000000
vt 1.000000 0.000000
vt 1.000000 1.000000
vt 0.000000 1.000000
vt 0.000000 0.000000
vt 1.000000 0.000000
vt 1.000000 1.000000
vt 0.000000 1.000000
vn 0.000000 0.000000 1.000000
vn 0.000000 0.000000 1.000000
vn 0.000000 0.000000 1.000000
vn 0.000000 0.000000 1.000000
vn 0.000000 0.000000 1.000000
vn 0.000000 0.000000 1.000000
vn 0.000000 0.000000 1.000000
vn 0.000000 0.000000 1.000000
vn 0.000000 0.000000 1.000000
vn 0.000000 0.000000 1.000000
vn 0.000000 0.000000 1.000000
vn 0.000000 0.000000 1.000000
vn 0.000000 0.000000 1.000000
vn 0.000000 0.000000 1.000000
vn 0.000000 0.000000 1.000000
vn 0.000000 0.000000 1.000000
vn 0.000000 0.000000 1.000000
vn 0.000000 0.000000 1.000000
vn 0.000000 0.000000 1.000000
vn 0.000000 0.000000 1.000000
vn 0.000000 0.000000 1.000000
vn 0.000000 0.000000 1.000000
vn 0.000000 0.000000 1.000000
vn 0.000000 0.000000 1.000000
vn 0.000000 0.000000 1.000000
vn 0.000000 0.000000 1.000000
vn 0.000000 0.000000 1.000000
vn 0.000000 0.000000 1.000000
vn 0.000000 0.000000 1.000000
vn 0.000000 0.000000 1.000000
vn 0.000000 0.000000 1.000000
vn 0.000000 0.000000 1.000000
vn 0.000000 0.000000 1.000000
vn 0.000000 0.000000 1.000000
vn 0.000000 0.000000 1.000000
vn 0.000000 0.000000 1.000000
vn 0.000000 0.000000 1.000000
vn 0.000000 0.000000 1.000000
vn 0.000000 0.000000 1.000000
vn 0.000000 0.000000 1.000000
vn 0.000000 0.000000 1.000000
vn 0.000000 0.000000 1.000000
vn 0.000000 0.000000 1.000000
vn 0.000000 0.000000 1.000000
vn 0.000000 0.000000 -1.000000
vn 0.000000 0.000000 -1.000000
vn 0.000000 0.000000 -1.000000
vn 0.000000 0.000000 -1.000000
vn 0.000000 0.000000 -1.000000
vn 0.000000 0.000000 -1.000000
vn 0.000000 0.000000 -1.000000
vn 0.000000 0.000000 -1.000000
vn -0.707107 0.000000 -0.707107
vn -0.707107 0.000000 -0.707107
vn -0.707107 0.000000 -0.707107
vn -0.707107 0.000000 -0.707107
vn -0.707107 0.000000 -0.707107
vn -0.707107 0.000000 -0.707107
vn -0.707107 0.000000 -0.707107
vn -0.707107 0.000000 -0.707107
usemtl material
f 1/0/1 2/0/2 3/0/3
f 1/0/1 3/0/3 4/0/4
f 5/0/5 6/0/6 7/0/7
f 5/0/5 7/0/7 8/0/8
f 9/0/9 10/0/10 11/0/11
f 9/0/9 11/0/11 12/0/12
f 13/0/13 14/0/14 15/0/15
f 13/0/13 15/0/15 16/0/16
f 17/0/17 18/0/18 19/0/19
f 17/0/17 19/0/19 20/0/20
f 21/0/21 22/0/22 23/0/23
f 21/0/21 23/0/23 24/0/24
f 25/0/25 26/0/26 27/0/27
f 25/0/25 27/0/27 28/0/28
f 29/0/29 30/0/30 31/0/31
f 29/0/29 31/0/31 32/0/32
f 33/0/33 34/0/34 35/0/35
f 33/0/33 35/0/35 36/0/36
f 37/0/37 38/0/38 39/0/39
f 37/0/37 39/0/39 40/0/40
f 41/0/41 42/0/42 43/0/43
f 41/0/41 43/0/43 44/0/44
f 45/0/45 46/0/46 47/0/47
f 45/0/45 47/0/47 48/0/48
f 49/0/49 50/0/50 51/0/51
f 49/0/49 51/0/51 52/0/52
f 53/0/53 54/0/54 55/0/55
f 53/0/53 55/0/55 56/0/56
f 57/0/57 58/0/58 59/0/59
f 57/0/57 59/0/59 60/0/60
