# 
# Wavefront OBJ file
# Created with Kaydara FBX
# 
mtllib item04_part_4.mtl

g Item04_Part_4
v -0.095272 0.132277 0.040694
v 0.031721 0.052820 0.157100
v -0.006319 0.132277 0.040694
v -0.132866 0.052820 0.157100
v -0.144522 0.052820 0.148633
v 0.045403 -0.007192 0.199208
v -0.146548 -0.007192 0.199208
v 0.049978 -0.080138 0.213293
v -0.151088 -0.080941 0.213183
v -0.162707 -0.007192 0.187468
v -0.101843 0.132277 0.035920
v 0.141762 0.071328 0.043599
v 0.133781 0.052820 0.082949
v 0.065646 0.132277 -0.011591
v -0.173556 -0.083316 0.196460
v 0.150122 0.075019 0.000340
v 0.066599 0.132277 -0.014524
v 0.114534 -0.080138 0.166390
v 0.120500 -0.007192 0.144647
v 0.049197 -0.097791 0.210886
v 0.114895 -0.122237 0.159035
v -0.006319 0.163871 0.040694
v 0.063093 0.193213 0.025050
v 0.002826 0.193213 0.068837
v 0.052450 0.163871 -0.002004
v -0.104416 0.193213 0.068837
v -0.095272 0.163871 0.040694
v -0.105167 0.193213 0.068291
v 0.065646 0.132277 -0.011591
v -0.006319 0.132277 0.040694
v 0.065646 0.137445 -0.011591
v -0.095272 0.132277 0.040694
v -0.099082 0.163871 0.037926
v -0.101843 0.132277 0.035920
v 0.066599 0.132277 -0.014524
v -0.104416 0.193213 0.068837
v -0.103765 0.202205 0.066833
v -0.105167 0.193213 0.068291
v -0.100805 0.219188 0.063049
v 0.000945 0.219188 0.063049
v 0.002826 0.193213 0.068837
v 0.044920 0.219188 0.031100
v 0.063093 0.193213 0.025050
v 0.000945 0.219188 0.063049
v 0.017557 0.219188 0.013347
v -0.008947 0.219188 0.032604
v 0.044920 0.219188 0.031100
v -0.100805 0.219188 0.063049
v -0.091567 0.219188 0.032604
v -0.091567 0.219188 0.032604
v -0.057457 0.045505 -0.054501
v -0.090998 0.209908 0.027469
v -0.008947 0.219188 0.032604
v 0.017557 0.219188 0.013347
v 0.017623 0.132210 -0.046342
v 0.000728 0.075543 -0.096219
v -0.077148 0.041410 -0.077400
v -0.073274 0.024159 -0.096228
v -0.069265 0.024568 -0.109296
v -0.073274 0.024159 -0.096228
v -0.061549 0.043752 -0.127981
v -0.038620 0.056333 -0.134937
v -0.017706 0.057519 -0.120555
v 0.000728 0.075543 -0.096219
v -0.043934 0.046623 -0.151718
v -0.100805 0.219188 0.063049
v -0.105167 0.193213 0.068291
v -0.103765 0.202205 0.066833
v -0.099082 0.163871 0.037926
v -0.100805 0.219188 0.063049
v -0.091567 0.219188 0.032604
v -0.090998 0.209908 0.027469
v -0.077148 0.041410 -0.077400
v -0.099082 0.163871 0.037926
v -0.101843 0.132277 0.035920
v -0.073274 0.024159 -0.096228
v -0.162707 -0.007192 0.187468
v -0.144522 0.052820 0.148633
v -0.173556 -0.083316 0.196460
v 0.052450 0.163871 -0.002004
v 0.044920 0.219188 0.031100
v 0.063093 0.193213 0.025050
v 0.017623 0.132210 -0.046342
v 0.000728 0.075543 -0.096219
v 0.044920 0.219188 0.031100
v 0.017623 0.132210 -0.046342
v 0.017557 0.219188 0.013347
v 0.066599 0.132277 -0.014524
v 0.052450 0.163871 -0.002004
v 0.065646 0.137445 -0.011591
v 0.120500 -0.007192 0.144647
v 0.141762 0.071328 0.043599
v 0.133781 0.052820 0.082949
v -0.173556 -0.083316 0.196460
v 0.049197 -0.097791 0.210886
v -0.151088 -0.080941 0.213183
v -0.016993 0.027091 0.030181
v -0.061549 0.043752 -0.127981
v -0.043934 0.046623 -0.151718
v -0.016993 0.027091 0.030181
v -0.069265 0.024568 -0.109296
v -0.061549 0.043752 -0.127981
v -0.016993 0.027091 0.030181
v -0.173556 -0.083316 0.196460
v -0.101843 0.132277 0.035920
v 0.049197 -0.097791 0.210886
v 0.114895 -0.122237 0.159035
v -0.038620 0.056333 -0.134937
v -0.016993 0.027091 0.030181
v -0.043934 0.046623 -0.151718
v -0.017706 0.057519 -0.120555
v -0.016993 0.027091 0.030181
v -0.038620 0.056333 -0.134937
v 0.000728 0.075543 -0.096219
v 0.052450 0.163871 -0.002004
v 0.066599 0.132277 -0.014524
v -0.016993 0.027091 0.030181
v 0.052450 0.163871 -0.002004
v 0.150122 0.075019 0.000340
v 0.141762 0.071328 0.043599
v -0.016993 0.027091 0.030181
v 0.150122 0.075019 0.000340
v 0.120500 -0.007192 0.144647
v 0.120500 -0.007192 0.144647
v 0.114895 -0.122237 0.159035
v -0.016993 0.027091 0.030181
v -0.016993 0.027091 0.030181
v -0.101843 0.132277 0.035920
v -0.073274 0.024159 -0.096228
v -0.069265 0.024568 -0.109296
vt 0.399434 0.192175
vt 0.350459 0.143572
vt 0.350459 0.192169
vt 0.399434 0.143603
vt 0.403863 0.143606
vt 0.350459 0.125596
vt 0.399434 0.125622
vt 0.350459 0.109077
vt 0.399434 0.108918
vt 0.404700 0.125624
vt 0.404055 0.192175
vt 0.300985 0.154871
vt 0.312538 0.143552
vt 0.300985 0.192162
vt 0.406468 0.108391
vt 0.288433 0.157132
vt 0.299308 0.192163
vt 0.330828 0.109070
vt 0.326534 0.125587
vt 0.350459 0.105139
vt 0.329752 0.099683
vt 0.350292 0.207696
vt 0.316041 0.225812
vt 0.350292 0.225812
vt 0.310026 0.207690
vt 0.399434 0.225812
vt 0.399434 0.207696
vt 0.399871 0.225812
vt 0.300985 0.192162
vt 0.350459 0.192169
vt 0.300985 0.194702
vt 0.399434 0.192175
vt 0.402113 0.207696
vt 0.404055 0.192175
vt 0.299308 0.192163
vt 0.399434 0.225812
vt 0.399434 0.227977
vt 0.399871 0.225812
vt 0.398612 0.232067
vt 0.350292 0.232067
vt 0.350292 0.225812
vt 0.324392 0.232067
vt 0.316041 0.225812
vt 0.350292 0.232067
vt 0.330992 0.239785
vt 0.350292 0.239785
vt 0.324392 0.232067
vt 0.398612 0.232067
vt 0.398802 0.239785
vt 0.398802 0.239785
vt 0.375254 0.249047
vt 0.398470 0.240154
vt 0.350292 0.239785
vt 0.330992 0.239785
vt 0.328728 0.243244
vt 0.328269 0.245498
vt 0.392941 0.246856
vt 0.395066 0.247542
vt 0.363062 0.247522
vt 0.355336 0.247538
vt 0.369100 0.246759
vt 0.382523 0.246259
vt 0.398116 0.246212
vt 0.421986 0.245495
vt 0.372496 0.245905
vt 0.398612 0.232067
vt 0.399871 0.225812
vt 0.399434 0.227977
vt 0.402113 0.207696
vt 0.384131 0.219988
vt 0.386742 0.223935
vt 0.388314 0.223798
vt 0.417886 0.222854
vt 0.393698 0.218592
vt 0.398976 0.216647
vt 0.421158 0.223674
vt 0.393429 0.198125
vt 0.393720 0.204759
vt 0.396263 0.191756
vt 0.423787 0.207218
vt 0.425352 0.203897
vt 0.423829 0.204893
vt 0.424993 0.210574
vt 0.424721 0.214813
vt 0.324392 0.232067
vt 0.328728 0.243244
vt 0.330992 0.239785
vt 0.299308 0.192163
vt 0.310026 0.207690
vt 0.300985 0.194702
vt 0.326534 0.125587
vt 0.300985 0.154871
vt 0.312538 0.143552
vt 0.396263 0.191756
vt 0.413802 0.189869
vt 0.397956 0.190320
vt 0.412943 0.208521
vt 0.424783 0.223710
vt 0.427454 0.223528
vt 0.412943 0.208521
vt 0.422346 0.224052
vt 0.424783 0.223710
vt 0.412943 0.208521
vt 0.396263 0.191756
vt 0.398976 0.216647
vt 0.413802 0.189869
vt 0.419056 0.191489
vt 0.426745 0.221214
vt 0.412943 0.208521
vt 0.427454 0.223528
vt 0.426056 0.218356
vt 0.412943 0.208521
vt 0.426745 0.221214
vt 0.424721 0.214813
vt 0.423787 0.207218
vt 0.421917 0.206725
vt 0.412943 0.208521
vt 0.423787 0.207218
vt 0.422544 0.204364
vt 0.421654 0.203773
vt 0.412943 0.208521
vt 0.422544 0.204364
vt 0.421022 0.198884
vt 0.421022 0.198884
vt 0.419056 0.191489
vt 0.412943 0.208521
vt 0.412943 0.208521
vt 0.398976 0.216647
vt 0.421158 0.223674
vt 0.422346 0.224052
vn -0.000000 0.825933 0.563768
vn -0.000000 0.825933 0.563768
vn -0.000000 0.825933 0.563768
vn -0.000000 0.825933 0.563768
vn -0.331620 0.825633 0.456463
vn 0.000000 0.189580 0.981865
vn -0.000000 0.189580 0.981865
vn -0.000000 0.189580 0.981865
vn -0.000000 0.189580 0.981865
vn -0.481139 0.574376 0.662267
vn -0.331623 0.825632 0.456461
vn 0.331129 0.826217 0.455763
vn 0.331129 0.826216 0.455763
vn 0.331125 0.826220 0.455760
vn -0.578544 0.176511 0.796324
vn 0.535564 0.826387 0.173944
vn 0.535564 0.826387 0.173944
vn 0.577128 0.189576 0.794345
vn 0.577126 0.189573 0.794347
vn -0.000001 -0.135081 0.990834
vn 0.981927 -0.024362 0.187688
vn 0.424204 -0.692204 0.583871
vn 0.424203 -0.692204 0.583871
vn 0.424203 -0.692204 0.583871
vn 0.424203 -0.692204 0.583871
vn 0.000000 -0.692204 0.721702
vn 0.000000 -0.692204 0.721702
vn -0.424328 -0.692182 0.583807
vn 0.587783 0.000000 0.809018
vn 0.587783 0.000000 0.809019
vn 0.587789 0.000000 0.809014
vn 0.000000 0.000000 1.000000
vn -0.424150 -0.692210 0.583902
vn -0.587773 -0.000010 0.809026
vn 0.951079 -0.000006 0.308947
vn -0.573864 0.217489 0.789544
vn -0.573864 0.217489 0.789544
vn -0.573864 0.217489 0.789544
vn -0.000237 0.217526 0.976055
vn -0.000000 0.217494 0.976062
vn 0.000000 0.217494 0.976062
vn 0.573713 0.217492 0.789653
vn 0.573711 0.217494 0.789653
vn -0.000000 1.000000 0.000000
vn -0.000000 1.000000 0.000000
vn -0.000000 1.000000 0.000000
vn -0.000000 1.000000 0.000000
vn -0.000000 1.000000 0.000002
vn -0.000000 1.000000 0.000002
vn -0.000244 0.484117 -0.875003
vn -0.000244 0.484117 -0.875003
vn -0.000244 0.484117 -0.875003
vn 0.000000 0.484149 -0.874985
vn -0.513998 0.485101 -0.707448
vn -0.831371 0.485640 -0.270142
vn -0.831413 0.485561 0.270154
vn 0.638730 0.443726 -0.628595
vn 0.480077 0.693749 -0.536878
vn 0.833078 0.482394 0.270697
vn 0.833078 0.482394 0.270697
vn 0.514718 0.482935 0.708406
vn -0.514064 0.484893 0.707543
vn -0.514064 0.484893 0.707543
vn -0.831413 0.485561 0.270154
vn -0.000020 0.483899 0.875124
vn -0.951964 0.101544 -0.288885
vn -0.951961 0.101555 -0.288890
vn -0.951912 0.101511 -0.289065
vn -0.951963 0.101553 -0.288883
vn -0.951964 0.101544 -0.288885
vn -0.951972 0.101509 -0.288868
vn -0.951969 0.101530 -0.288873
vn -0.951954 0.101575 -0.288904
vn -0.951963 0.101553 -0.288883
vn -0.951967 0.101545 -0.288872
vn -0.951954 0.101575 -0.288904
vn -0.951967 0.101545 -0.288872
vn -0.951967 0.101545 -0.288872
vn -0.951966 0.101538 -0.288880
vn 0.471584 0.499205 -0.726913
vn 0.471580 0.499203 -0.726917
vn 0.471550 0.499208 -0.726933
vn 0.471595 0.499199 -0.726910
vn 0.471614 0.499184 -0.726908
vn 0.471580 0.499203 -0.726917
vn 0.471595 0.499199 -0.726910
vn 0.471592 0.499201 -0.726911
vn 0.471714 0.499243 -0.726802
vn 0.471714 0.499243 -0.726802
vn 0.471714 0.499243 -0.726802
vn 0.981926 -0.024350 0.187694
vn 0.981926 -0.024350 0.187694
vn 0.981926 -0.024350 0.187694
vn -0.078557 -0.966872 0.242872
vn -0.078557 -0.966872 0.242872
vn -0.078557 -0.966872 0.242872
vn 0.015137 -0.993930 -0.108965
vn 0.015137 -0.993930 -0.108965
vn 0.015137 -0.993930 -0.108965
vn 0.767224 -0.578444 -0.277073
vn 0.767224 -0.578444 -0.277073
vn 0.767224 -0.578444 -0.277073
vn -0.529738 -0.386129 -0.755170
vn -0.529738 -0.386129 -0.755170
vn -0.529738 -0.386129 -0.755170
vn -0.547216 -0.768814 -0.330876
vn -0.547216 -0.768814 -0.330876
vn 0.957469 -0.235243 -0.167073
vn 0.957469 -0.235243 -0.167073
vn 0.957469 -0.235243 -0.167073
vn 0.188808 -0.962423 -0.195174
vn 0.188808 -0.962423 -0.195174
vn 0.188808 -0.962423 -0.195174
vn 0.774883 -0.618884 -0.128599
vn 0.885328 -0.461941 -0.052956
vn -0.549489 0.083357 -0.831332
vn -0.549489 0.083357 -0.831332
vn -0.549489 0.083357 -0.831332
vn -0.068755 -0.343445 -0.936653
vn 0.270639 -0.962219 -0.029804
vn 0.270639 -0.962219 -0.029804
vn 0.270639 -0.962219 -0.029804
vn 0.266400 -0.787450 -0.555837
vn 0.615684 -0.127253 -0.777650
vn 0.615684 -0.127253 -0.777650
vn 0.615684 -0.127253 -0.777650
vn -0.692317 -0.645161 0.323210
vn -0.692317 -0.645161 0.323210
vn -0.692317 -0.645161 0.323210
vn -0.692317 -0.645161 0.323210
usemtl material
f 1/0/1 2/0/2 3/0/3
f 2/0/2 1/0/1 4/0/4
f 1/0/1 5/0/5 4/0/4
f 4/0/4 6/0/6 2/0/2
f 6/0/6 4/0/4 7/0/7
f 7/0/7 8/0/8 6/0/6
f 8/0/8 7/0/7 9/0/9
f 10/0/10 4/0/4 5/0/5
f 4/0/4 10/0/10 7/0/7
f 5/0/5 1/0/1 11/0/11
f 12/0/12 3/0/3 2/0/2
f 12/0/12 2/0/2 13/0/13
f 12/0/12 14/0/14 3/0/3
f 15/0/15 7/0/7 10/0/10
f 7/0/7 15/0/15 9/0/9
f 16/0/16 14/0/14 12/0/12
f 14/0/14 16/0/16 17/0/17
f 18/0/18 6/0/6 8/0/8
f 6/0/6 18/0/18 19/0/19
f 19/0/19 2/0/2 6/0/6
f 2/0/2 19/0/19 13/0/13
f 8/0/8 9/0/9 20/0/20
f 20/0/20 18/0/18 8/0/8
f 18/0/18 21/0/21 19/0/19
f 18/0/18 20/0/20 21/0/21
f 22/0/22 23/0/23 24/0/24
f 23/0/23 22/0/22 25/0/25
f 26/0/26 22/0/22 24/0/24
f 22/0/22 26/0/26 27/0/27
f 28/0/28 27/0/27 26/0/26
f 29/0/29 25/0/25 22/0/22
f 29/0/29 22/0/22 30/0/30
f 27/0/27 30/0/30 22/0/22
f 29/0/29 31/0/31 25/0/25
f 30/0/30 27/0/27 32/0/32
f 27/0/27 28/0/28 33/0/33
f 33/0/33 32/0/32 27/0/27
f 32/0/32 33/0/33 34/0/34
f 35/0/35 31/0/31 29/0/29
f 36/0/36 37/0/37 38/0/38
f 36/0/36 39/0/39 37/0/37
f 36/0/36 40/0/40 39/0/39
f 36/0/36 41/0/41 40/0/40
f 41/0/41 42/0/42 40/0/40
f 42/0/42 41/0/41 43/0/43
f 44/0/44 45/0/45 46/0/46
f 45/0/45 44/0/44 47/0/47
f 46/0/46 48/0/48 44/0/44
f 48/0/48 46/0/46 49/0/49
f 50/0/50 51/0/51 52/0/52
f 51/0/51 50/0/50 53/0/53
f 54/0/54 51/0/51 53/0/53
f 51/0/51 54/0/54 55/0/55
f 55/0/55 56/0/56 51/0/51
f 57/0/57 52/0/52 51/0/51
f 58/0/58 57/0/57 51/0/51
f 59/0/59 60/0/60 51/0/51
f 61/0/61 59/0/59 51/0/51
f 62/0/62 61/0/61 51/0/51
f 63/0/63 62/0/62 51/0/51
f 64/0/64 63/0/63 51/0/51
f 61/0/61 62/0/62 65/0/65
f 66/0/66 67/0/67 68/0/68
f 66/0/66 69/0/69 67/0/67
f 70/0/70 71/0/71 72/0/72
f 70/0/70 72/0/72 73/0/73
f 70/0/70 73/0/73 74/0/74
f 74/0/74 73/0/73 75/0/75
f 75/0/75 73/0/73 76/0/76
f 75/0/75 77/0/77 78/0/78
f 75/0/75 79/0/79 77/0/77
f 80/0/80 81/0/81 82/0/82
f 80/0/80 83/0/83 81/0/81
f 80/0/80 84/0/84 83/0/83
f 85/0/85 86/0/86 87/0/87
f 88/0/88 89/0/89 90/0/90
f 91/0/91 92/0/92 93/0/93
f 94/0/94 95/0/95 96/0/96
f 97/0/97 98/0/98 99/0/99
f 100/0/100 101/0/101 102/0/102
f 103/0/103 104/0/104 105/0/105
f 106/0/106 104/0/104 103/0/103
f 103/0/103 107/0/107 106/0/106
f 108/0/108 109/0/109 110/0/110
f 111/0/111 112/0/112 113/0/113
f 114/0/114 112/0/112 111/0/111
f 115/0/115 112/0/112 114/0/114
f 116/0/116 117/0/117 118/0/118
f 117/0/117 116/0/116 119/0/119
f 120/0/120 121/0/121 122/0/122
f 121/0/121 120/0/120 123/0/123
f 124/0/124 125/0/125 126/0/126
f 127/0/127 128/0/128 129/0/129
f 127/0/127 129/0/129 130/0/130
