# 
# Wavefront OBJ file
# Created with Kaydara FBX
# 
mtllib itemflag_c15_v01.mtl

g ItemFlag_C15_V01
v 0.808828 5.704196 -0.002056
v 0.808828 2.616483 -0.002056
v 0.113594 2.616483 -0.002056
v 0.113594 5.704196 -0.002056
v 0.808828 5.704196 0.000005
v 0.113594 5.704196 0.000005
v 0.113594 2.616483 0.000005
v 0.808828 2.616483 0.000005
v 0.046250 0.000000 0.000005
v 0.046250 5.968340 0.000005
v 0.000000 5.968340 0.046245
v 0.000000 0.000000 0.046245
v -0.046250 5.968340 0.000005
v -0.046250 0.000000 0.000005
v 0.000000 5.968340 -0.046245
v 0.000000 0.000000 -0.046245
v -0.046250 0.000000 0.000005
v -0.046250 5.968340 0.000005
v 0.046250 5.968340 0.000005
v 0.046250 0.000000 0.000005
v -0.077949 5.758874 0.000005
v 0.908301 5.758874 0.000005
v 0.908301 5.805112 0.046245
v -0.077949 5.805112 0.046245
v 0.908301 5.851357 0.000005
v -0.077949 5.851357 0.000005
v 0.908301 5.805112 -0.046245
v -0.077949 5.805112 -0.046245
v -0.077949 5.805112 -0.046245
v 0.908301 5.805112 -0.046245
v 0.908301 5.758874 0.000005
v 0.908301 5.805112 -0.046245
v 0.908301 5.851357 0.000005
v 0.908301 5.805112 0.046245
v -0.077949 5.805112 0.046245
v -0.077949 5.851357 0.000005
v -0.077949 5.805112 -0.046245
v -0.077949 5.758874 0.000005
v 0.113594 5.704196 -0.004106
v 0.113594 5.628044 -0.004106
v 0.027969 5.628044 -0.004106
v 0.027969 5.704196 -0.004106
v 0.113594 5.704196 -0.002056
v 0.027969 5.704196 -0.002056
v 0.027969 5.628044 -0.002056
v 0.113594 5.628044 -0.002056
v 0.113594 4.999207 -0.004106
v 0.113594 4.923054 -0.004106
v 0.027969 4.923054 -0.004106
v 0.027969 4.999207 -0.004106
v 0.113594 4.999207 -0.002056
v 0.027969 4.999207 -0.002056
v 0.027969 4.923054 -0.002056
v 0.113594 4.923054 -0.002056
v 0.113594 4.256330 -0.004106
v 0.113594 4.180178 -0.004106
v 0.027969 4.180178 -0.004106
v 0.027969 4.256330 -0.004106
v 0.113594 4.256330 -0.002056
v 0.027969 4.256330 -0.002056
v 0.027969 4.180178 -0.002056
v 0.113594 4.180178 -0.002056
v 0.113594 3.443582 -0.004106
v 0.113594 3.367429 -0.004106
v 0.027969 3.367429 -0.004106
v 0.027969 3.443582 -0.004106
v 0.113594 3.443582 -0.002056
v 0.027969 3.443582 -0.002056
v 0.027969 3.367429 -0.002056
v 0.113594 3.367429 -0.002056
v 0.113594 2.692689 -0.004106
v 0.113594 2.616537 -0.004106
v 0.027969 2.616537 -0.004106
v 0.027969 2.692689 -0.004106
v 0.113594 2.692689 -0.002056
v 0.027969 2.692689 -0.002056
v 0.027969 2.616537 -0.002056
v 0.113594 2.616537 -0.002056
v 0.808848 5.704194 -0.004106
v 0.732695 5.704194 -0.004106
v 0.732695 5.789812 -0.004106
v 0.808848 5.789812 -0.004106
v 0.808848 5.704194 -0.002056
v 0.808848 5.789812 -0.002056
v 0.732695 5.789812 -0.002056
v 0.732695 5.704194 -0.002056
v 0.492676 5.704194 -0.004106
v 0.416523 5.704194 -0.004106
v 0.416523 5.789812 -0.004106
v 0.492676 5.789812 -0.004106
v 0.492676 5.704194 -0.002056
v 0.492676 5.789812 -0.002056
v 0.416523 5.789812 -0.002056
v 0.416523 5.704194 -0.002056
v 0.190645 5.704194 -0.004106
v 0.114492 5.704194 -0.004106
v 0.114492 5.789812 -0.004106
v 0.190645 5.789812 -0.004106
v 0.190645 5.704194 -0.002056
v 0.190645 5.789812 -0.002056
v 0.114492 5.789812 -0.002056
v 0.114492 5.704194 -0.002056
vt 0.681556 0.984672
vt 0.681538 0.557192
vt 0.581847 0.557195
vt 0.581865 0.984676
vt 0.581847 0.984672
vt 0.681538 0.984676
vt 0.681556 0.557195
vt 0.581865 0.557192
vt 0.571264 0.289769
vt 0.571264 0.935459
vt 0.573658 0.935459
vt 0.573627 0.289769
vt 0.575990 0.935459
vt 0.575990 0.289769
vt 0.568875 0.935459
vt 0.568900 0.289769
vt 0.566537 0.289769
vt 0.566570 0.935459
vt 0.571264 0.935459
vt 0.571264 0.289769
vt 0.635387 0.997178
vt 0.630944 0.997178
vt 0.630944 0.997300
vt 0.635387 0.997300
vt 0.630944 0.996935
vt 0.635387 0.996935
vt 0.630944 0.997056
vt 0.635387 0.997056
vt 0.635387 0.997056
vt 0.630944 0.997056
vt 0.635806 0.997060
vt 0.635927 0.997182
vt 0.636049 0.997060
vt 0.635927 0.996938
vt 0.636227 0.997180
vt 0.636349 0.997058
vt 0.636227 0.996937
vt 0.636105 0.997058
vt 0.572691 0.906998
vt 0.572691 0.898477
vt 0.576750 0.898477
vt 0.576750 0.906998
vt 0.572691 0.906998
vt 0.576750 0.906998
vt 0.576750 0.898477
vt 0.572691 0.898477
vt 0.572691 0.906998
vt 0.572691 0.898477
vt 0.576750 0.898477
vt 0.576750 0.906998
vt 0.572691 0.906998
vt 0.576750 0.906998
vt 0.576750 0.898477
vt 0.572691 0.898477
vt 0.572691 0.906998
vt 0.572691 0.898477
vt 0.576750 0.898477
vt 0.576750 0.906998
vt 0.572691 0.906998
vt 0.576750 0.906998
vt 0.576750 0.898477
vt 0.572691 0.898477
vt 0.572691 0.906998
vt 0.572691 0.898477
vt 0.576750 0.898477
vt 0.576750 0.906998
vt 0.572691 0.906998
vt 0.576750 0.906998
vt 0.576750 0.898477
vt 0.572691 0.898477
vt 0.572691 0.906998
vt 0.572691 0.898477
vt 0.576750 0.898477
vt 0.576750 0.906998
vt 0.572691 0.906998
vt 0.576750 0.906998
vt 0.576750 0.898477
vt 0.572691 0.898477
vt 0.572691 0.906998
vt 0.572691 0.898477
vt 0.576750 0.898477
vt 0.576750 0.906998
vt 0.572691 0.906998
vt 0.576750 0.906998
vt 0.576750 0.898477
vt 0.572691 0.898477
vt 0.572691 0.906998
vt 0.572691 0.898477
vt 0.576750 0.898477
vt 0.576750 0.906998
vt 0.572691 0.906998
vt 0.576750 0.906998
vt 0.576750 0.898477
vt 0.572691 0.898477
vt 0.572691 0.906998
vt 0.572691 0.898477
vt 0.576750 0.898477
vt 0.576750 0.906998
vt 0.572691 0.906998
vt 0.576750 0.906998
vt 0.576750 0.898477
vt 0.572691 0.898477
vn 0.000000 0.000000 -1.000000
vn 0.000000 0.000000 -1.000000
vn 0.000000 0.000000 -1.000000
vn 0.000000 0.000000 -1.000000
vn 0.000000 0.000000 1.000000
vn 0.000000 0.000000 1.000000
vn 0.000000 0.000000 1.000000
vn 0.000000 0.000000 1.000000
vn 1.000000 0.000000 0.000000
vn 1.000000 0.000000 0.000000
vn 0.000000 0.000000 1.000000
vn 0.000000 0.000000 1.000000
vn -1.000000 0.000000 0.000000
vn -1.000000 0.000000 0.000000
vn 0.000000 0.000000 -1.000000
vn 0.000000 0.000000 -1.000000
vn -1.000000 0.000000 0.000000
vn -1.000000 0.000000 0.000000
vn 1.000000 0.000000 0.000000
vn 1.000000 0.000000 0.000000
vn 0.000000 -1.000000 0.000000
vn 0.000000 -1.000000 0.000000
vn 0.000000 0.000000 1.000000
vn 0.000000 0.000000 1.000000
vn 0.000000 1.000000 0.000000
vn 0.000000 1.000000 0.000000
vn 0.000000 0.000000 -1.000000
vn 0.000000 0.000000 -1.000000
vn 0.000000 0.000000 -1.000000
vn 0.000000 0.000000 -1.000000
vn 1.000000 0.000000 0.000000
vn 1.000000 0.000000 0.000000
vn 1.000000 0.000000 0.000000
vn 1.000000 0.000000 0.000000
vn -1.000000 0.000000 0.000000
vn -1.000000 0.000000 0.000000
vn -1.000000 0.000000 0.000000
vn -1.000000 0.000000 0.000000
vn 0.000000 0.000000 -1.000000
vn 0.000000 0.000000 -1.000000
vn 0.000000 0.000000 -1.000000
vn 0.000000 0.000000 -1.000000
vn 0.000000 0.000000 1.000000
vn 0.000000 0.000000 1.000000
vn 0.000000 0.000000 1.000000
vn 0.000000 0.000000 1.000000
vn 0.000000 0.000000 -1.000000
vn 0.000000 0.000000 -1.000000
vn 0.000000 0.000000 -1.000000
vn 0.000000 0.000000 -1.000000
vn 0.000000 0.000000 1.000000
vn 0.000000 0.000000 1.000000
vn 0.000000 0.000000 1.000000
vn 0.000000 0.000000 1.000000
vn 0.000000 0.000000 -1.000000
vn 0.000000 0.000000 -1.000000
vn 0.000000 0.000000 -1.000000
vn 0.000000 0.000000 -1.000000
vn 0.000000 0.000000 1.000000
vn 0.000000 0.000000 1.000000
vn 0.000000 0.000000 1.000000
vn 0.000000 0.000000 1.000000
vn 0.000000 0.000000 -1.000000
vn 0.000000 0.000000 -1.000000
vn 0.000000 0.000000 -1.000000
vn 0.000000 0.000000 -1.000000
vn 0.000000 0.000000 1.000000
vn 0.000000 0.000000 1.000000
vn 0.000000 0.000000 1.000000
vn 0.000000 0.000000 1.000000
vn 0.000000 0.000000 -1.000000
vn 0.000000 0.000000 -1.000000
vn 0.000000 0.000000 -1.000000
vn 0.000000 0.000000 -1.000000
vn 0.000000 0.000000 1.000000
vn 0.000000 0.000000 1.000000
vn 0.000000 0.000000 1.000000
vn 0.000000 0.000000 1.000000
vn 0.000000 0.000000 -1.000000
vn 0.000000 0.000000 -1.000000
vn 0.000000 0.000000 -1.000000
vn 0.000000 0.000000 -1.000000
vn 0.000000 0.000000 1.000000
vn 0.000000 0.000000 1.000000
vn 0.000000 0.000000 1.000000
vn 0.000000 0.000000 1.000000
vn 0.000000 0.000000 -1.000000
vn 0.000000 0.000000 -1.000000
vn 0.000000 0.000000 -1.000000
vn 0.000000 0.000000 -1.000000
vn 0.000000 0.000000 1.000000
vn 0.000000 0.000000 1.000000
vn 0.000000 0.000000 1.000000
vn 0.000000 0.000000 1.000000
vn 0.000000 0.000000 -1.000000
vn 0.000000 0.000000 -1.000000
vn 0.000000 0.000000 -1.000000
vn 0.000000 0.000000 -1.000000
vn 0.000000 0.000000 1.000000
vn 0.000000 0.000000 1.000000
vn 0.000000 0.000000 1.000000
vn 0.000000 0.000000 1.000000
usemtl material
f 1/0/1 2/0/2 3/0/3
f 1/0/1 3/0/3 4/0/4
f 5/0/5 6/0/6 7/0/7
f 5/0/5 7/0/7 8/0/8
f 9/0/9 10/0/10 11/0/11
f 9/0/9 11/0/11 12/0/12
f 12/0/12 11/0/11 13/0/13
f 12/0/12 13/0/13 14/0/14
f 15/0/15 16/0/16 17/0/17
f 15/0/15 17/0/17 18/0/18
f 16/0/16 15/0/15 19/0/19
f 16/0/16 19/0/19 20/0/20
f 21/0/21 22/0/22 23/0/23
f 21/0/21 23/0/23 24/0/24
f 24/0/24 23/0/23 25/0/25
f 24/0/24 25/0/25 26/0/26
f 27/0/27 26/0/26 25/0/25
f 27/0/27 28/0/28 26/0/26
f 29/0/29 22/0/22 21/0/21
f 29/0/29 30/0/30 22/0/22
f 31/0/31 32/0/32 33/0/33
f 31/0/31 33/0/33 34/0/34
f 35/0/35 36/0/36 37/0/37
f 35/0/35 37/0/37 38/0/38
f 39/0/39 40/0/40 41/0/41
f 39/0/39 41/0/41 42/0/42
f 43/0/43 44/0/44 45/0/45
f 43/0/43 45/0/45 46/0/46
f 47/0/47 48/0/48 49/0/49
f 47/0/47 49/0/49 50/0/50
f 51/0/51 52/0/52 53/0/53
f 51/0/51 53/0/53 54/0/54
f 55/0/55 56/0/56 57/0/57
f 55/0/55 57/0/57 58/0/58
f 59/0/59 60/0/60 61/0/61
f 59/0/59 61/0/61 62/0/62
f 63/0/63 64/0/64 65/0/65
f 63/0/63 65/0/65 66/0/66
f 67/0/67 68/0/68 69/0/69
f 67/0/67 69/0/69 70/0/70
f 71/0/71 72/0/72 73/0/73
f 71/0/71 73/0/73 74/0/74
f 75/0/75 76/0/76 77/0/77
f 75/0/75 77/0/77 78/0/78
f 79/0/79 80/0/80 81/0/81
f 79/0/79 81/0/81 82/0/82
f 83/0/83 84/0/84 85/0/85
f 83/0/83 85/0/85 86/0/86
f 87/0/87 88/0/88 89/0/89
f 87/0/87 89/0/89 90/0/90
f 91/0/91 92/0/92 93/0/93
f 91/0/91 93/0/93 94/0/94
f 95/0/95 96/0/96 97/0/97
f 95/0/95 97/0/97 98/0/98
f 99/0/99 100/0/100 101/0/101
f 99/0/99 101/0/101 102/0/102
