# 
# Wavefront OBJ file
# Created with Kaydara FBX
# 
mtllib item03_part_2.mtl

g Item03_Part_2
v 0.100408 -0.075518 -0.072204
v 0.147667 -0.123893 0.065827
v 0.100454 -0.076659 -0.072238
v 0.149201 -0.102379 0.073848
v 0.147863 -0.075518 0.073848
v 0.121835 -0.009720 0.073843
v 0.079339 -0.009720 -0.056948
v 0.088951 0.045523 0.073838
v 0.052722 0.045523 -0.037661
v 0.082055 0.089403 0.073838
v 0.047143 0.089403 -0.033608
v 0.097774 0.110046 0.073838
v 0.059860 0.110046 -0.042848
v -0.044256 0.089403 -0.100013
v -0.039398 0.110046 -0.114964
v -0.077247 0.110046 -0.114964
v -0.090231 0.089403 -0.100013
v -0.042125 0.045523 -0.106572
v -0.109863 0.045523 -0.106572
v -0.118013 0.022955 -0.119322
v -0.032072 -0.008892 -0.137314
v -0.030381 -0.009720 -0.136664
v 0.098387 -0.075518 -0.073672
v 0.085552 0.123893 0.073838
v 0.059860 0.110046 -0.042848
v 0.049972 0.123893 -0.035663
v 0.097774 0.110046 0.073838
v -0.039398 0.110046 -0.114964
v -0.043175 0.123893 -0.103339
v -0.073037 0.123893 -0.103338
v -0.077247 0.110046 -0.114964
v -0.073037 0.123893 -0.103338
v -0.054182 0.123893 -0.069464
v -0.043175 0.123893 -0.103339
v -0.080074 0.123893 -0.069464
v 0.021156 0.123893 -0.014727
v 0.049972 0.123893 -0.035663
v 0.049934 0.123893 0.073838
v 0.085552 0.123893 0.073838
v 0.021156 0.123893 -0.014727
v -0.078278 -0.018175 0.003731
v -0.049546 -0.036591 0.036363
v -0.054182 0.123893 -0.069464
v -0.127572 0.004516 -0.007961
v -0.080074 0.123893 -0.069464
v -0.132504 0.034349 -0.023331
v -0.046283 -0.041663 0.054898
v -0.019771 -0.004230 0.073817
v 0.049934 0.123893 0.073838
v -0.149201 0.011127 0.003554
v 0.049934 0.123893 0.073838
v -0.019771 -0.004230 0.073817
v 0.031565 0.123893 0.130370
v 0.145021 -0.075518 0.082594
v 0.149201 -0.102379 0.073848
v 0.147863 -0.075518 0.073848
v 0.121835 -0.009720 0.073843
v 0.113472 -0.009720 0.099583
v 0.088951 0.045523 0.073838
v 0.076649 0.045523 0.111697
v 0.082055 0.089403 0.073838
v 0.065409 0.089403 0.125066
v 0.097774 0.110046 0.073838
v 0.077884 0.110046 0.135052
v 0.077884 0.110046 0.135052
v 0.085552 0.123893 0.073838
v 0.064927 0.123893 0.137314
v 0.097774 0.110046 0.073838
v 0.064927 0.123893 0.137314
v 0.049934 0.123893 0.073838
v 0.031565 0.123893 0.130370
v 0.085552 0.123893 0.073838
v -0.073037 0.123893 -0.103338
v -0.132504 0.034349 -0.023331
v -0.080074 0.123893 -0.069464
v -0.090231 0.089403 -0.100013
v -0.109863 0.045523 -0.106572
v -0.118013 0.022955 -0.119322
v -0.149201 0.011127 0.003554
v -0.077247 0.110046 -0.114964
v 0.076649 0.045523 0.111697
v 0.145021 -0.075518 0.082594
v 0.113472 -0.009720 0.099583
v 0.147667 -0.123893 0.065827
v 0.149201 -0.102379 0.073848
v -0.019771 -0.004230 0.073817
v -0.046283 -0.041663 0.054898
v 0.065409 0.089403 0.125066
v 0.064927 0.123893 0.137314
v 0.031565 0.123893 0.130370
v 0.077884 0.110046 0.135052
v 0.098387 -0.075518 -0.073672
v -0.032072 -0.008892 -0.137314
v -0.030381 -0.009720 -0.136664
v 0.147667 -0.123893 0.065827
v -0.078278 -0.018175 0.003731
v -0.127572 0.004516 -0.007961
v -0.149201 0.011127 0.003554
v -0.118013 0.022955 -0.119322
v -0.049546 -0.036591 0.036363
v -0.046283 -0.041663 0.054898
v 0.100454 -0.076659 -0.072238
vt 0.386808 0.417933
vt 0.418890 0.404385
vt 0.386808 0.417613
vt 0.420728 0.410401
vt 0.420728 0.417914
vt 0.420728 0.438788
vt 0.386808 0.438797
vt 0.420728 0.460339
vt 0.386808 0.460347
vt 0.420728 0.477019
vt 0.386808 0.477013
vt 0.420728 0.483142
vt 0.386808 0.483142
vt 0.352887 0.476992
vt 0.352887 0.483142
vt 0.342423 0.483142
vt 0.339084 0.476985
vt 0.352887 0.460333
vt 0.333289 0.460324
vt 0.331431 0.451534
vt 0.352887 0.439127
vt 0.353356 0.438804
vt 0.386256 0.417933
vt 0.420728 0.488299
vt 0.386808 0.483142
vt 0.386808 0.488299
vt 0.420728 0.483142
vt 0.352887 0.483142
vt 0.352888 0.488299
vt 0.344090 0.488299
vt 0.342423 0.483142
vt 0.344090 0.488299
vt 0.352888 0.492268
vt 0.352888 0.488299
vt 0.343457 0.492268
vt 0.386808 0.492268
vt 0.386808 0.488299
vt 0.420728 0.492268
vt 0.420728 0.488299
vt 0.386808 0.492268
vt 0.344224 0.495913
vt 0.357443 0.496385
vt 0.352888 0.492268
vt 0.326251 0.495331
vt 0.343457 0.492268
vt 0.324431 0.494566
vt 0.362996 0.496516
vt 0.381655 0.495555
vt 0.420728 0.492268
vt 0.316602 0.495162
vt 0.251132 0.492268
vt 0.290205 0.495555
vt 0.272781 0.492268
vt 0.253163 0.417925
vt 0.251132 0.410411
vt 0.251132 0.417924
vt 0.251132 0.438799
vt 0.257807 0.438801
vt 0.251132 0.460346
vt 0.262648 0.460350
vt 0.251132 0.477019
vt 0.267303 0.477020
vt 0.251132 0.483142
vt 0.268925 0.483142
vt 0.268925 0.483142
vt 0.251132 0.488299
vt 0.270793 0.488299
vt 0.251132 0.483142
vt 0.270793 0.488299
vt 0.251132 0.492268
vt 0.272781 0.492268
vt 0.251132 0.488299
vt 0.344090 0.488299
vt 0.324431 0.494566
vt 0.343457 0.492268
vt 0.339084 0.476985
vt 0.333289 0.460324
vt 0.331431 0.451534
vt 0.316602 0.495162
vt 0.342423 0.483142
vt 0.262648 0.460350
vt 0.253163 0.417925
vt 0.257807 0.438801
vt 0.334854 0.404390
vt 0.251132 0.410411
vt 0.381655 0.495555
vt 0.362996 0.496516
vt 0.267303 0.477020
vt 0.270793 0.488299
vt 0.272781 0.492268
vt 0.268925 0.483142
vt 0.386256 0.417933
vt 0.352887 0.439127
vt 0.353356 0.438804
vt 0.334854 0.404390
vt 0.344224 0.495913
vt 0.326251 0.495331
vt 0.316602 0.495162
vt 0.331431 0.451534
vt 0.357443 0.496385
vt 0.362996 0.496516
vt 0.386808 0.417613
vn 0.949997 0.047435 -0.308637
vn 0.949997 0.047435 -0.308637
vn 0.949997 0.047435 -0.308637
vn 0.949990 0.047330 -0.308671
vn 0.949991 0.047337 -0.308670
vn 0.890152 0.352104 -0.289228
vn 0.890152 0.352104 -0.289228
vn 0.940607 0.147819 -0.305626
vn 0.940606 0.147824 -0.305628
vn 0.770277 -0.586542 -0.250283
vn 0.476056 -0.586548 -0.655235
vn 0.770271 -0.586553 -0.250278
vn 0.476055 -0.586555 -0.655229
vn 0.000001 -0.586559 -0.809907
vn 0.000001 -0.586559 -0.809907
vn 0.000001 -0.586559 -0.809907
vn 0.000000 -0.586560 -0.809906
vn 0.581327 0.147832 -0.800128
vn 0.000000 0.147833 -0.989012
vn 0.000005 0.491875 -0.870666
vn 0.000005 0.491875 -0.870666
vn 0.550217 0.351778 -0.757307
vn 0.586972 0.047471 -0.808215
vn 0.728411 0.642963 -0.236678
vn 0.728411 0.642963 -0.236677
vn 0.728411 0.642963 -0.236677
vn 0.728413 0.642960 -0.236678
vn 0.450182 0.642968 -0.619620
vn 0.450182 0.642968 -0.619620
vn -0.000016 0.642970 -0.765891
vn -0.000001 0.642991 -0.765874
vn 0.000000 1.000000 0.000000
vn 0.000000 1.000000 0.000000
vn 0.000000 1.000000 0.000000
vn 0.000000 1.000000 0.000000
vn 0.000000 1.000000 0.000000
vn 0.000000 1.000000 0.000000
vn 0.000000 1.000000 0.000000
vn 0.000000 1.000000 0.000000
vn -0.522237 0.458904 0.718802
vn -0.522237 0.458904 0.718802
vn -0.522237 0.458904 0.718802
vn -0.522243 0.458908 0.718795
vn -0.000006 0.457999 0.888953
vn 0.000000 0.457996 0.888954
vn -0.000010 0.457999 0.888953
vn -0.844697 0.459514 0.274471
vn -0.844662 0.459585 -0.274458
vn -0.844662 0.459585 -0.274458
vn 0.522766 0.457135 0.719543
vn -0.844662 0.459585 -0.274458
vn -0.844662 0.459585 -0.274458
vn -0.844662 0.459585 -0.274458
vn 0.949992 0.047338 0.308665
vn 0.949990 0.047330 -0.308671
vn 0.949991 0.047337 -0.308670
vn 0.890152 0.352104 -0.289228
vn 0.890141 0.352140 0.289217
vn 0.940607 0.147819 -0.305626
vn 0.940605 0.147822 0.305631
vn 0.770277 -0.586542 -0.250283
vn 0.770272 -0.586551 0.250279
vn 0.770271 -0.586553 -0.250278
vn 0.770272 -0.586551 0.250279
vn 0.728411 0.642963 0.236678
vn 0.728411 0.642963 -0.236678
vn 0.728411 0.642963 0.236678
vn 0.728413 0.642960 -0.236678
vn 0.000000 1.000000 0.000000
vn 0.000000 1.000000 0.000000
vn 0.000000 1.000000 0.000000
vn 0.000000 1.000000 0.000000
vn -0.886622 0.424230 -0.184203
vn -0.886618 0.424237 -0.184202
vn -0.886620 0.424236 -0.184197
vn -0.886622 0.424227 -0.184208
vn -0.886619 0.424236 -0.184203
vn -0.886618 0.424238 -0.184202
vn -0.886618 0.424239 -0.184202
vn -0.886623 0.424226 -0.184204
vn -0.192295 -0.330760 0.923916
vn -0.192287 -0.330760 0.923917
vn -0.192282 -0.330758 0.923919
vn -0.192293 -0.330762 0.923916
vn -0.192305 -0.330760 0.923914
vn -0.192295 -0.330762 0.923915
vn -0.192295 -0.330764 0.923915
vn -0.192282 -0.330764 0.923917
vn -0.192277 -0.330761 0.923919
vn -0.192307 -0.330753 0.923916
vn -0.192233 -0.330769 0.923926
vn -0.375024 -0.908837 -0.182682
vn -0.375025 -0.908835 -0.182688
vn -0.374864 -0.908836 -0.183015
vn -0.375030 -0.908835 -0.182679
vn -0.375031 -0.908835 -0.182678
vn -0.375019 -0.908842 -0.182667
vn -0.375023 -0.908840 -0.182671
vn -0.375031 -0.908835 -0.182678
vn -0.375030 -0.908835 -0.182680
vn -0.375030 -0.908835 -0.182677
vn -0.375008 -0.908842 -0.182689
usemtl material
f 1/0/1 2/0/2 3/0/3
f 1/0/1 4/0/4 2/0/2
f 5/0/5 4/0/4 1/0/1
f 1/0/1 6/0/6 5/0/5
f 6/0/6 1/0/1 7/0/7
f 7/0/7 8/0/8 6/0/6
f 8/0/8 7/0/7 9/0/9
f 9/0/9 10/0/10 8/0/8
f 10/0/10 9/0/9 11/0/11
f 11/0/11 12/0/12 10/0/10
f 12/0/12 11/0/11 13/0/13
f 14/0/14 13/0/13 11/0/11
f 13/0/13 14/0/14 15/0/15
f 14/0/14 16/0/16 15/0/15
f 16/0/16 14/0/14 17/0/17
f 11/0/11 18/0/18 14/0/14
f 18/0/18 11/0/11 9/0/9
f 18/0/18 17/0/17 14/0/14
f 17/0/17 18/0/18 19/0/19
f 18/0/18 20/0/20 19/0/19
f 20/0/20 18/0/18 21/0/21
f 9/0/9 21/0/21 18/0/18
f 7/0/7 21/0/21 9/0/9
f 22/0/22 21/0/21 7/0/7
f 7/0/7 23/0/23 22/0/22
f 3/0/3 23/0/23 1/0/1
f 23/0/23 7/0/7 1/0/1
f 24/0/24 25/0/25 26/0/26
f 25/0/25 24/0/24 27/0/27
f 28/0/28 26/0/26 25/0/25
f 26/0/26 28/0/28 29/0/29
f 28/0/28 30/0/30 29/0/29
f 30/0/30 28/0/28 31/0/31
f 32/0/32 33/0/33 34/0/34
f 33/0/33 32/0/32 35/0/35
f 36/0/36 34/0/34 33/0/33
f 34/0/34 36/0/36 37/0/37
f 38/0/38 37/0/37 36/0/36
f 37/0/37 38/0/38 39/0/39
f 40/0/40 41/0/41 42/0/42
f 41/0/41 40/0/40 43/0/43
f 43/0/43 44/0/44 41/0/41
f 45/0/45 44/0/44 43/0/43
f 46/0/46 44/0/44 45/0/45
f 42/0/42 47/0/47 40/0/40
f 40/0/40 47/0/47 48/0/48
f 40/0/40 48/0/48 49/0/49
f 50/0/50 44/0/44 46/0/46
f 51/0/51 52/0/52 53/0/53
f 54/0/54 55/0/55 56/0/56
f 57/0/57 54/0/54 56/0/56
f 54/0/54 57/0/57 58/0/58
f 59/0/59 58/0/58 57/0/57
f 58/0/58 59/0/59 60/0/60
f 61/0/61 60/0/60 59/0/59
f 60/0/60 61/0/61 62/0/62
f 63/0/63 62/0/62 61/0/61
f 62/0/62 63/0/63 64/0/64
f 65/0/65 66/0/66 67/0/67
f 66/0/66 65/0/65 68/0/68
f 69/0/69 70/0/70 71/0/71
f 70/0/70 69/0/69 72/0/72
f 73/0/73 74/0/74 75/0/75
f 73/0/73 76/0/76 74/0/74
f 74/0/74 76/0/76 77/0/77
f 74/0/74 77/0/77 78/0/78
f 74/0/74 78/0/78 79/0/79
f 73/0/73 80/0/80 76/0/76
f 81/0/81 82/0/82 83/0/83
f 81/0/81 84/0/84 82/0/82
f 82/0/82 84/0/84 85/0/85
f 81/0/81 86/0/86 84/0/84
f 84/0/84 86/0/86 87/0/87
f 81/0/81 88/0/88 86/0/86
f 86/0/86 88/0/88 89/0/89
f 86/0/86 89/0/89 90/0/90
f 89/0/89 88/0/88 91/0/91
f 92/0/92 93/0/93 94/0/94
f 92/0/92 95/0/95 93/0/93
f 93/0/93 95/0/95 96/0/96
f 93/0/93 96/0/96 97/0/97
f 93/0/93 97/0/97 98/0/98
f 93/0/93 98/0/98 99/0/99
f 96/0/96 95/0/95 100/0/100
f 100/0/100 95/0/95 101/0/101
f 92/0/92 102/0/102 95/0/95
