# 
# Wavefront OBJ file
# Created with Kaydara FBX
# 
mtllib item_mailstone.mtl

g Item_Mailstone
v -0.222268 0.432515 -0.211888
v -0.222268 3.013520 -0.211888
v -0.848660 3.013520 -0.211888
v -0.848660 0.432515 -0.211888
v -0.222268 3.013520 -0.859079
v -0.222268 0.432515 -0.859079
v -0.848660 0.432515 -0.859079
v -0.848660 3.013520 -0.859079
v -0.848660 0.432515 -0.211888
v -0.848660 3.013520 -0.211888
v -0.848660 3.013520 -0.859079
v -0.848660 0.432515 -0.859079
v -0.222268 0.432515 -0.859079
v -0.222268 3.013520 -0.859079
v -0.222268 3.013520 -0.211888
v -0.222268 0.432515 -0.211888
v -0.222268 3.013520 -0.211888
v -0.535464 3.212573 -0.535483
v -0.848660 3.013520 -0.211888
v -0.848660 3.013520 -0.211888
v -0.535464 3.212573 -0.535483
v -0.848660 3.013520 -0.859079
v -0.848660 3.013520 -0.859079
v -0.535464 3.212573 -0.535483
v -0.222268 3.013520 -0.859079
v -0.222268 3.013520 -0.859079
v -0.535464 3.212573 -0.535483
v -0.222268 3.013520 -0.211888
v 0.000000 0.000000 -0.000020
v 0.000000 0.375142 -0.000020
v -1.070928 0.375142 -0.000020
v -1.070928 0.000000 -0.000020
v 0.000000 0.375142 -1.070947
v 0.000000 0.000000 -1.070947
v -1.070928 0.000000 -1.070947
v -1.070928 0.375142 -1.070947
v -1.070928 0.000000 -0.000020
v -1.070928 0.375142 -0.000020
v -1.070928 0.375142 -1.070947
v -1.070928 0.000000 -1.070947
v 0.000000 0.000000 -1.070947
v 0.000000 0.375142 -1.070947
v 0.000000 0.375142 -0.000020
v 0.000000 0.000000 -0.000020
v 0.000000 0.375142 -0.000020
v -0.535464 0.556274 -0.535483
v -1.070928 0.375142 -0.000020
v -1.070928 0.375142 -0.000020
v -0.535464 0.556274 -0.535483
v -1.070928 0.375142 -1.070947
v -1.070928 0.375142 -1.070947
v -0.535464 0.556274 -0.535483
v 0.000000 0.375142 -1.070947
v 0.000000 0.375142 -1.070947
v -0.535464 0.556274 -0.535483
v 0.000000 0.375142 -0.000020
vt 0.687114 0.906429
vt 0.687114 0.755086
vt 0.720797 0.755086
vt 0.720797 0.906429
vt 0.672438 0.917523
vt 0.672438 0.764549
vt 0.639927 0.764549
vt 0.639927 0.917523
vt 0.779512 0.844038
vt 0.779512 0.997464
vt 0.813772 0.997464
vt 0.813772 0.844038
vt 0.813772 0.844038
vt 0.813772 0.997464
vt 0.779512 0.997464
vt 0.779512 0.844038
vt 0.734552 0.870721
vt 0.751391 0.887560
vt 0.768230 0.870721
vt 0.768230 0.870721
vt 0.751391 0.887560
vt 0.768230 0.904400
vt 0.768230 0.904400
vt 0.751391 0.887560
vt 0.734552 0.904400
vt 0.734552 0.904400
vt 0.751391 0.887560
vt 0.734552 0.870721
vt 0.756079 0.789975
vt 0.756079 0.817433
vt 0.838591 0.817433
vt 0.838591 0.789975
vt 0.756079 0.817433
vt 0.756079 0.789975
vt 0.838591 0.789975
vt 0.838591 0.817433
vt 0.756079 0.789975
vt 0.756079 0.817433
vt 0.838591 0.817433
vt 0.838591 0.789975
vt 0.756079 0.789975
vt 0.756079 0.817433
vt 0.838591 0.817433
vt 0.838591 0.789975
vt 0.723046 0.758370
vt 0.797373 0.834757
vt 0.871701 0.758370
vt 0.723046 0.758370
vt 0.797373 0.834757
vt 0.871701 0.758370
vt 0.871701 0.758370
vt 0.797373 0.834757
vt 0.723046 0.758370
vt 0.871701 0.758370
vt 0.797373 0.834757
vt 0.723046 0.758370
vn 0.000000 0.000000 1.000000
vn 0.000000 0.000000 1.000000
vn 0.000000 0.000000 1.000000
vn 0.000000 0.000000 1.000000
vn 0.000000 0.000000 -1.000000
vn 0.000000 0.000000 -1.000000
vn 0.000000 0.000000 -1.000000
vn 0.000000 0.000000 -1.000000
vn -1.000000 0.000000 0.000000
vn -1.000000 0.000000 0.000000
vn -1.000000 0.000000 0.000000
vn -1.000000 0.000000 0.000000
vn 1.000000 0.000000 0.000000
vn 1.000000 0.000000 0.000000
vn 1.000000 0.000000 0.000000
vn 1.000000 0.000000 0.000000
vn 0.286005 0.914617 0.285793
vn 0.000000 1.000000 0.000000
vn -0.286005 0.914617 0.285793
vn -0.286005 0.914617 0.285793
vn 0.000000 1.000000 0.000000
vn -0.286005 0.914617 -0.285793
vn -0.286005 0.914617 -0.285793
vn 0.000000 1.000000 0.000000
vn 0.286005 0.914617 -0.285793
vn 0.286005 0.914617 -0.285793
vn 0.000000 1.000000 0.000000
vn 0.286005 0.914617 0.285793
vn 0.000000 0.000000 1.000000
vn 0.000000 0.000000 1.000000
vn 0.000000 0.000000 1.000000
vn 0.000000 0.000000 1.000000
vn 0.000000 0.000000 -1.000000
vn 0.000000 0.000000 -1.000000
vn 0.000000 0.000000 -1.000000
vn 0.000000 0.000000 -1.000000
vn -1.000000 0.000000 0.000000
vn -1.000000 0.000000 0.000000
vn -1.000000 0.000000 0.000000
vn -1.000000 0.000000 0.000000
vn 1.000000 0.000000 0.000000
vn 1.000000 0.000000 0.000000
vn 1.000000 0.000000 0.000000
vn 1.000000 0.000000 0.000000
vn 0.000000 0.947270 0.320436
vn 0.000000 0.947270 0.320436
vn 0.000000 0.947270 0.320436
vn -0.320436 0.947270 0.000000
vn -0.320436 0.947270 0.000000
vn -0.320436 0.947270 0.000000
vn 0.000000 0.947270 -0.320436
vn 0.000000 0.947270 -0.320436
vn 0.000000 0.947270 -0.320436
vn 0.320436 0.947270 0.000000
vn 0.320436 0.947270 0.000000
vn 0.320436 0.947270 0.000000
usemtl material
f 1/0/1 2/0/2 3/0/3
f 1/0/1 3/0/3 4/0/4
f 5/0/5 6/0/6 7/0/7
f 5/0/5 7/0/7 8/0/8
f 9/0/9 10/0/10 11/0/11
f 9/0/9 11/0/11 12/0/12
f 13/0/13 14/0/14 15/0/15
f 13/0/13 15/0/15 16/0/16
f 17/0/17 18/0/18 19/0/19
f 20/0/20 21/0/21 22/0/22
f 23/0/23 24/0/24 25/0/25
f 26/0/26 27/0/27 28/0/28
f 29/0/29 30/0/30 31/0/31
f 29/0/29 31/0/31 32/0/32
f 33/0/33 34/0/34 35/0/35
f 33/0/33 35/0/35 36/0/36
f 37/0/37 38/0/38 39/0/39
f 37/0/37 39/0/39 40/0/40
f 41/0/41 42/0/42 43/0/43
f 41/0/41 43/0/43 44/0/44
f 45/0/45 46/0/46 47/0/47
f 48/0/48 49/0/49 50/0/50
f 51/0/51 52/0/52 53/0/53
f 54/0/54 55/0/55 56/0/56
