# 
# Wavefront OBJ file
# Created with Kaydara FBX
# 
mtllib item04_part_2.mtl

g Item04_Part_2
v -0.011647 0.121144 0.006480
v -0.045572 0.041687 -0.162177
v -0.083612 0.121144 -0.045805
v 0.087582 0.041687 -0.065435
v 0.015841 0.121144 0.091080
v 0.138442 0.041687 0.091097
v 0.123401 -0.018325 -0.091459
v 0.182717 -0.018325 0.091097
v 0.135382 -0.091270 -0.100164
v 0.188805 -0.048312 0.091097
v -0.027313 -0.091270 -0.218370
v -0.031890 -0.018325 -0.204285
v -0.174056 0.041687 -0.162178
v -0.166977 0.121144 -0.045805
v -0.169833 -0.018325 -0.204285
v -0.112366 -0.091270 -0.218370
v -0.162283 -0.061057 -0.212537
v 0.189105 -0.091270 0.065177
v -0.029451 -0.139529 -0.211792
v 0.165858 -0.165463 0.026356
v 0.126780 -0.165463 -0.093914
v 0.130768 -0.208056 0.009509
v 0.105400 -0.203471 -0.078380
v 0.022897 -0.165463 -0.169390
v -0.074467 0.182081 -0.073949
v -0.172840 0.149815 -0.045605
v -0.183609 0.182081 -0.072569
v -0.083612 0.152739 -0.045805
v 0.012293 0.182081 -0.010913
v -0.011647 0.152739 0.006480
v 0.045432 0.182081 0.091080
v 0.015841 0.152739 0.091080
v -0.011647 0.121144 0.006480
v 0.015841 0.121144 0.091080
v -0.083612 0.121144 -0.045805
v -0.166977 0.121144 -0.045805
v 0.012293 0.182081 0.193073
v 0.015841 0.152739 0.091080
v 0.045432 0.182081 0.091080
v -0.011647 0.152739 0.175679
v -0.014200 0.182081 0.212321
v -0.024843 0.152739 0.185267
v 0.015841 0.121144 0.091080
v -0.010694 0.121144 0.172747
v -0.014200 0.182081 0.212321
v 0.007370 0.208056 0.189495
v -0.032373 0.208056 0.218370
v 0.012293 0.182081 0.193073
v 0.045432 0.182081 0.091080
v 0.039347 0.208056 0.091080
v 0.039347 0.208056 0.091080
v 0.012293 0.182081 -0.010913
v 0.007370 0.208056 -0.007336
v 0.045432 0.182081 0.091080
v -0.074467 0.182081 -0.073949
v -0.076348 0.208056 -0.068161
v -0.183609 0.182081 -0.072569
v -0.179829 0.208056 -0.068161
v -0.189105 0.208056 -0.061421
v -0.086240 0.208056 -0.037716
v -0.179829 0.208056 -0.068161
v -0.169936 0.208056 -0.037716
v -0.076348 0.208056 -0.068161
v -0.018529 0.208056 0.011480
v 0.007370 0.208056 -0.007336
v 0.007336 0.208056 0.091080
v 0.039347 0.208056 0.091080
v -0.189105 0.208056 -0.061421
v -0.182275 0.208056 -0.028750
v -0.018529 0.208056 0.170679
v 0.039347 0.208056 0.091080
v 0.007336 0.208056 0.091080
v 0.007370 0.208056 0.189495
v -0.032373 0.208056 0.218370
v -0.059736 0.208056 0.200618
v -0.153724 0.116584 0.012863
v -0.086240 0.208056 -0.037716
v -0.169936 0.208056 -0.037716
v -0.115914 0.045200 0.052333
v -0.132944 0.054113 0.047406
v -0.094999 0.046387 0.066716
v -0.018529 0.208056 0.011480
v -0.076566 0.064410 0.091052
v 0.007336 0.208056 0.091080
v -0.182275 0.208056 -0.028750
v -0.059670 0.121077 0.140929
v 0.007336 0.208056 0.091080
v -0.076566 0.064410 0.091052
v -0.018529 0.208056 0.170679
v -0.059736 0.208056 0.200618
v 0.072831 0.063885 0.187611
v 0.015841 0.121144 0.091080
v -0.010694 0.121144 0.172747
v 0.138442 0.041687 0.091097
v 0.114836 0.041687 0.163748
v 0.175797 -0.018325 0.112392
v 0.182717 -0.018325 0.091097
v 0.188805 -0.048312 0.091097
v -0.172840 0.149815 -0.045605
v -0.189105 0.208056 -0.061421
v -0.183609 0.182081 -0.072569
v -0.153724 0.116584 0.012863
v -0.182275 0.208056 -0.028750
v -0.166977 0.121144 -0.045805
v -0.169833 -0.018325 -0.204285
v -0.174056 0.041687 -0.162178
v -0.032373 0.208056 0.218370
v -0.024843 0.152739 0.185267
v -0.014200 0.182081 0.212321
v -0.076566 0.064410 0.091052
v -0.059736 0.208056 0.200618
v -0.059670 0.121077 0.140929
v -0.032373 0.208056 0.218370
v -0.059670 0.121077 0.140929
v -0.076566 0.064410 0.091052
v 0.036835 0.041822 -0.052369
v 0.130768 -0.208056 0.009509
v 0.175797 -0.018325 0.112392
v 0.105400 -0.203471 -0.078380
v -0.029451 -0.139529 -0.211792
v -0.162283 -0.061057 -0.212537
v -0.169833 -0.018325 -0.204285
v -0.153724 0.116584 0.012863
v -0.112366 -0.091270 -0.218370
v 0.022897 -0.165463 -0.169390
v 0.105400 -0.203471 -0.078380
v 0.072831 0.063885 0.187611
v 0.175797 -0.018325 0.112392
v 0.114836 0.041687 0.163748
v 0.130768 -0.208056 0.009509
v 0.189105 -0.091270 0.065177
v 0.165858 -0.165463 0.026356
v 0.175797 -0.018325 0.112392
v 0.189105 -0.091270 0.065177
v 0.188805 -0.048312 0.091097
v -0.153724 0.116584 0.012863
v 0.036835 0.041822 -0.052369
v -0.132944 0.054113 0.047406
v -0.115914 0.045200 0.052333
v -0.094999 0.046387 0.066716
v -0.076566 0.064410 0.091052
v -0.024843 0.152739 0.185267
v -0.010694 0.121144 0.172747
v 0.036835 0.041822 -0.052369
v 0.072831 0.063885 0.187611
v -0.024843 0.152739 0.185267
v 0.175797 -0.018325 0.112392
vt 0.450040 0.192157
vt 0.399434 0.143570
vt 0.399434 0.192166
vt 0.450040 0.143545
vt 0.497238 0.192161
vt 0.497238 0.143547
vt 0.450040 0.125572
vt 0.497238 0.125589
vt 0.450040 0.109055
vt 0.497238 0.118802
vt 0.399434 0.109072
vt 0.399434 0.125599
vt 0.361202 0.143596
vt 0.353535 0.192169
vt 0.364239 0.125617
vt 0.378721 0.109082
vt 0.366363 0.115934
vt 0.490842 0.109076
vt 0.399434 0.098311
vt 0.480722 0.092538
vt 0.450040 0.092523
vt 0.473954 0.080226
vt 0.450040 0.081546
vt 0.416636 0.092527
vt 0.399434 0.225806
vt 0.350119 0.206256
vt 0.349212 0.225806
vt 0.399434 0.207689
vt 0.450040 0.225806
vt 0.450040 0.207682
vt 0.497238 0.225806
vt 0.497238 0.207683
vt 0.450040 0.192157
vt 0.497238 0.192161
vt 0.399434 0.192166
vt 0.353535 0.192169
vt 0.300985 0.225812
vt 0.252606 0.207691
vt 0.252606 0.225812
vt 0.300985 0.207688
vt 0.316041 0.225812
vt 0.310026 0.207690
vt 0.252606 0.192172
vt 0.299308 0.192163
vt 0.316041 0.225812
vt 0.300985 0.232067
vt 0.324392 0.232067
vt 0.300985 0.225812
vt 0.252606 0.225812
vt 0.252606 0.232067
vt 0.497238 0.232067
vt 0.450040 0.225806
vt 0.450040 0.232067
vt 0.497238 0.225806
vt 0.399434 0.225806
vt 0.399434 0.232067
vt 0.349212 0.225806
vt 0.350292 0.232067
vt 0.344829 0.232067
vt 0.399434 0.239785
vt 0.350292 0.232067
vt 0.350292 0.239785
vt 0.399434 0.232067
vt 0.450040 0.239785
vt 0.450040 0.232067
vt 0.497238 0.239785
vt 0.497238 0.232067
vt 0.344829 0.232067
vt 0.341306 0.239785
vt 0.300985 0.239785
vt 0.252606 0.232067
vt 0.252606 0.239785
vt 0.300985 0.232067
vt 0.324392 0.232067
vt 0.330992 0.239785
vt 0.360099 0.243421
vt 0.399434 0.239785
vt 0.350292 0.239785
vt 0.382523 0.246259
vt 0.372496 0.245905
vt 0.398116 0.246212
vt 0.450040 0.239785
vt 0.421986 0.245495
vt 0.497238 0.239785
vt 0.341306 0.239785
vt 0.328728 0.243244
vt 0.252606 0.239785
vt 0.328269 0.245498
vt 0.300985 0.239785
vt 0.330992 0.239785
vt 0.288648 0.157131
vt 0.252606 0.192172
vt 0.299308 0.192163
vt 0.252606 0.143557
vt 0.275060 0.143552
vt 0.258249 0.125595
vt 0.252606 0.125597
vt 0.252606 0.118810
vt 0.410161 0.191585
vt 0.413526 0.189747
vt 0.411750 0.189481
vt 0.408492 0.195830
vt 0.413893 0.191857
vt 0.408155 0.191974
vt 0.397524 0.183583
vt 0.401824 0.185506
vt 0.408409 0.217683
vt 0.406216 0.214140
vt 0.406548 0.216771
vt 0.406331 0.205210
vt 0.410652 0.215702
vt 0.406786 0.206830
vt 0.324392 0.232067
vt 0.328728 0.243244
vt 0.421986 0.245495
vt 0.395389 0.200486
vt 0.377968 0.203745
vt 0.388480 0.213203
vt 0.379023 0.197970
vt 0.386067 0.187245
vt 0.394840 0.182679
vt 0.397524 0.183583
vt 0.408492 0.195830
vt 0.391342 0.184055
vt 0.383144 0.190832
vt 0.379023 0.197970
vt 0.397757 0.216067
vt 0.388480 0.213203
vt 0.394381 0.215640
vt 0.377968 0.203745
vt 0.383217 0.211181
vt 0.379331 0.207185
vt 0.258249 0.125595
vt 0.490842 0.109076
vt 0.252606 0.118810
vt 0.408492 0.195830
vt 0.395389 0.200486
vt 0.408156 0.200565
vt 0.407328 0.201528
vt 0.406614 0.202977
vt 0.406331 0.205210
vt 0.406216 0.214140
vt 0.403880 0.213741
vt 0.395389 0.200486
vt 0.397757 0.216067
vt 0.406216 0.214140
vt 0.388480 0.213203
vn 0.331179 0.826158 -0.455832
vn 0.331179 0.826158 -0.455832
vn 0.331179 0.826158 -0.455832
vn 0.331180 0.826158 -0.455832
vn 0.535580 0.826360 -0.174023
vn 0.535583 0.826358 -0.174020
vn 0.933809 0.189581 -0.303414
vn 0.933809 0.189580 -0.303414
vn 0.933809 0.189580 -0.303414
vn 0.933809 0.189580 -0.303414
vn 0.577126 0.189585 -0.794344
vn 0.577126 0.189585 -0.794344
vn 0.000002 0.825856 -0.563881
vn -0.000000 0.825857 -0.563879
vn 0.000009 0.189594 -0.981862
vn 0.000009 0.189595 -0.981862
vn 0.000009 0.189595 -0.981862
vn 0.933807 0.189587 -0.303416
vn 0.000007 -0.135052 -0.990838
vn 0.942345 -0.135043 -0.306186
vn 0.942345 -0.135043 -0.306186
vn 0.793288 -0.551597 -0.257752
vn 0.793288 -0.551597 -0.257752
vn 0.490278 -0.551599 -0.674808
vn 0.000000 -0.692212 -0.721695
vn 0.000000 -0.692211 -0.721695
vn 0.000000 -0.692211 -0.721695
vn 0.000000 -0.692212 -0.721695
vn 0.424205 -0.692209 -0.583863
vn 0.424205 -0.692202 -0.583871
vn 0.686379 -0.692205 -0.223015
vn 0.686386 -0.692196 -0.223022
vn 0.951056 0.000000 -0.309020
vn 0.951055 0.000000 0.309020
vn 0.587783 -0.000000 -0.809018
vn -0.000000 -0.000000 -1.000000
vn 0.686387 -0.692197 0.223017
vn 0.686386 -0.692196 -0.223022
vn 0.686379 -0.692205 -0.223015
vn 0.686375 -0.692208 0.223019
vn 0.424209 -0.692203 0.583868
vn 0.424209 -0.692203 0.583868
vn 0.951055 0.000000 0.309020
vn 0.951055 -0.000008 0.309023
vn 0.573718 0.217501 0.789646
vn 0.573718 0.217501 0.789646
vn 0.573718 0.217501 0.789646
vn 0.573704 0.217518 0.789652
vn 0.928290 0.217494 0.301618
vn 0.928290 0.217494 0.301618
vn 0.928290 0.217494 0.301618
vn 0.928289 0.217501 -0.301617
vn 0.928289 0.217501 -0.301617
vn 0.928290 0.217494 0.301618
vn 0.573714 0.217508 -0.789647
vn 0.573714 0.217508 -0.789647
vn -0.000000 0.217515 -0.976057
vn -0.000000 0.217515 -0.976057
vn -0.573711 0.217521 -0.789646
vn -0.000000 1.000000 -0.000000
vn -0.000000 1.000000 -0.000000
vn -0.000000 1.000000 -0.000000
vn -0.000000 1.000000 -0.000000
vn -0.000000 1.000000 -0.000000
vn -0.000000 1.000000 -0.000000
vn -0.000000 1.000000 -0.000000
vn -0.000000 1.000000 -0.000000
vn 0.000003 1.000000 -0.000001
vn 0.000001 1.000000 0.000001
vn -0.000000 1.000000 -0.000000
vn -0.000000 1.000000 -0.000000
vn -0.000000 1.000000 -0.000000
vn -0.000000 1.000000 -0.000000
vn -0.000000 1.000000 -0.000000
vn -0.000000 1.000000 -0.000000
vn 0.000000 0.483894 0.875127
vn 0.000000 0.483894 0.875127
vn 0.000000 0.483894 0.875127
vn 0.000008 0.483889 0.875129
vn 0.000042 0.483903 0.875122
vn -0.514082 0.484890 0.707532
vn -0.514068 0.484894 0.707539
vn -0.831413 0.485561 0.270154
vn -0.831412 0.485561 0.270156
vn 0.514717 0.482935 0.708406
vn -0.831371 0.485640 -0.270141
vn -0.831412 0.485561 0.270156
vn -0.831413 0.485561 0.270154
vn -0.831371 0.485639 -0.270143
vn -0.514001 0.485099 -0.707448
vn 0.535547 0.826383 0.174013
vn 0.535580 0.826360 -0.174023
vn 0.535547 0.826383 0.174013
vn 0.535583 0.826358 -0.174020
vn 0.535548 0.826383 0.174009
vn 0.933805 0.189590 0.303422
vn 0.933809 0.189580 -0.303414
vn 0.933809 0.189580 -0.303414
vn -0.957475 -0.207818 0.200132
vn -0.957474 -0.207815 0.200141
vn -0.957474 -0.207821 0.200132
vn -0.957475 -0.207813 0.200140
vn -0.957474 -0.207807 0.200150
vn -0.957475 -0.207813 0.200140
vn -0.957475 -0.207814 0.200137
vn -0.957479 -0.207803 0.200129
vn -0.471580 -0.499202 0.726918
vn -0.471580 -0.499203 0.726917
vn -0.471550 -0.499207 0.726934
vn -0.471585 -0.499206 0.726912
vn -0.471593 -0.499200 0.726911
vn -0.471863 -0.499049 0.726839
vn -0.471580 -0.499202 0.726918
vn -0.471863 -0.499049 0.726839
vn -0.471585 -0.499206 0.726912
vn -0.781708 -0.143570 0.606894
vn -0.781708 -0.143570 0.606894
vn -0.781708 -0.143570 0.606894
vn -0.924735 -0.285210 0.252033
vn -0.506435 -0.856283 0.101506
vn -0.525227 -0.249872 0.813450
vn -0.525227 -0.249872 0.813450
vn -0.146364 -0.835366 0.529850
vn -0.506435 -0.856283 0.101506
vn -0.506431 -0.856286 0.101498
vn -0.506431 -0.856286 0.101498
vn 0.209595 -0.504076 0.837841
vn 0.209595 -0.504076 0.837841
vn 0.209595 -0.504076 0.837841
vn 0.209599 -0.504072 0.837842
vn 0.209540 -0.504088 0.837847
vn 0.209594 -0.504072 0.837844
vn 0.209540 -0.504088 0.837847
vn 0.209540 -0.504088 0.837847
vn 0.209540 -0.504088 0.837847
vn -0.454600 -0.542022 -0.706789
vn -0.454600 -0.542022 -0.706789
vn -0.454600 -0.542022 -0.706789
vn -0.316032 -0.843748 -0.433834
vn 0.017217 -0.998207 0.057329
vn 0.324260 -0.860934 0.391981
vn 0.443863 -0.762317 0.471018
vn -0.577360 -0.800618 0.160208
vn -0.577360 -0.800618 0.160208
vn -0.577360 -0.800618 0.160208
vn -0.919414 -0.389139 -0.057002
vn -0.543429 -0.824582 0.157322
usemtl material
f 1/0/1 2/0/2 3/0/3
f 2/0/2 1/0/1 4/0/4
f 5/0/5 4/0/4 1/0/1
f 4/0/4 5/0/5 6/0/6
f 6/0/6 7/0/7 4/0/4
f 7/0/7 6/0/6 8/0/8
f 9/0/9 7/0/7 8/0/8
f 9/0/9 8/0/8 10/0/10
f 11/0/11 7/0/7 9/0/9
f 7/0/7 11/0/11 12/0/12
f 4/0/4 12/0/12 2/0/2
f 12/0/12 4/0/4 7/0/7
f 13/0/13 3/0/3 2/0/2
f 3/0/3 13/0/13 14/0/14
f 12/0/12 11/0/11 15/0/15
f 15/0/15 2/0/2 12/0/12
f 2/0/2 15/0/15 13/0/13
f 15/0/15 11/0/11 16/0/16
f 15/0/15 16/0/16 17/0/17
f 9/0/9 10/0/10 18/0/18
f 11/0/11 19/0/19 16/0/16
f 9/0/9 19/0/19 11/0/11
f 20/0/20 9/0/9 18/0/18
f 9/0/9 20/0/20 21/0/21
f 21/0/21 19/0/19 9/0/9
f 22/0/22 21/0/21 20/0/20
f 21/0/21 22/0/22 23/0/23
f 23/0/23 24/0/24 21/0/21
f 24/0/24 19/0/19 21/0/21
f 25/0/25 26/0/26 27/0/27
f 26/0/26 25/0/25 28/0/28
f 29/0/29 28/0/28 25/0/25
f 28/0/28 29/0/29 30/0/30
f 31/0/31 30/0/30 29/0/29
f 30/0/30 31/0/31 32/0/32
f 32/0/32 33/0/33 30/0/30
f 33/0/33 32/0/32 34/0/34
f 30/0/30 35/0/35 28/0/28
f 35/0/35 30/0/30 33/0/33
f 26/0/26 28/0/28 35/0/35
f 26/0/26 35/0/35 36/0/36
f 37/0/37 38/0/38 39/0/39
f 38/0/38 37/0/37 40/0/40
f 41/0/41 40/0/40 37/0/37
f 40/0/40 41/0/41 42/0/42
f 40/0/40 43/0/43 38/0/38
f 40/0/40 44/0/44 43/0/43
f 42/0/42 44/0/44 40/0/40
f 45/0/45 46/0/46 47/0/47
f 46/0/46 45/0/45 48/0/48
f 49/0/49 46/0/46 48/0/48
f 46/0/46 49/0/49 50/0/50
f 51/0/51 52/0/52 53/0/53
f 52/0/52 51/0/51 54/0/54
f 55/0/55 53/0/53 52/0/52
f 53/0/53 55/0/55 56/0/56
f 57/0/57 56/0/56 55/0/55
f 56/0/56 57/0/57 58/0/58
f 58/0/58 57/0/57 59/0/59
f 60/0/60 61/0/61 62/0/62
f 61/0/61 60/0/60 63/0/63
f 64/0/64 63/0/63 60/0/60
f 63/0/63 64/0/64 65/0/65
f 66/0/66 65/0/65 64/0/64
f 65/0/65 66/0/66 67/0/67
f 68/0/68 62/0/62 61/0/61
f 62/0/62 68/0/68 69/0/69
f 70/0/70 71/0/71 72/0/72
f 71/0/71 70/0/70 73/0/73
f 70/0/70 74/0/74 73/0/73
f 74/0/74 70/0/70 75/0/75
f 76/0/76 77/0/77 78/0/78
f 76/0/76 79/0/79 77/0/77
f 76/0/76 80/0/80 79/0/79
f 81/0/81 77/0/77 79/0/79
f 77/0/77 81/0/81 82/0/82
f 83/0/83 82/0/82 81/0/81
f 82/0/82 83/0/83 84/0/84
f 85/0/85 76/0/76 78/0/78
f 86/0/86 87/0/87 88/0/88
f 87/0/87 86/0/86 89/0/89
f 86/0/86 90/0/90 89/0/89
f 91/0/91 92/0/92 93/0/93
f 91/0/91 94/0/94 92/0/92
f 91/0/91 95/0/95 94/0/94
f 96/0/96 94/0/94 95/0/95
f 94/0/94 96/0/96 97/0/97
f 96/0/96 98/0/98 97/0/97
f 99/0/99 100/0/100 101/0/101
f 99/0/99 102/0/102 100/0/100
f 100/0/100 102/0/102 103/0/103
f 104/0/104 102/0/102 99/0/99
f 104/0/104 105/0/105 102/0/102
f 104/0/104 106/0/106 105/0/105
f 107/0/107 108/0/108 109/0/109
f 107/0/107 110/0/110 108/0/108
f 107/0/107 111/0/111 112/0/112
f 113/0/113 114/0/114 115/0/115
f 116/0/116 117/0/117 118/0/118
f 116/0/116 119/0/119 117/0/117
f 120/0/120 119/0/119 116/0/116
f 120/0/120 116/0/116 121/0/121
f 116/0/116 122/0/122 121/0/121
f 123/0/123 122/0/122 116/0/116
f 120/0/120 121/0/121 124/0/124
f 125/0/125 126/0/126 120/0/120
f 127/0/127 128/0/128 129/0/129
f 130/0/130 131/0/131 128/0/128
f 132/0/132 131/0/131 130/0/130
f 133/0/133 134/0/134 135/0/135
f 136/0/136 137/0/137 138/0/138
f 137/0/137 139/0/139 138/0/138
f 137/0/137 140/0/140 139/0/139
f 137/0/137 141/0/141 140/0/140
f 142/0/142 141/0/141 137/0/137
f 143/0/143 144/0/144 145/0/145
f 146/0/146 144/0/144 143/0/143
f 147/0/147 145/0/145 144/0/144
