# 
# Wavefront OBJ file
# Created with Kaydara FBX
# 
mtllib item03_part_6.mtl

g Item03_Part_6
v 0.183550 -0.104211 -0.033385
v 0.063493 -0.182139 -0.109653
v 0.066374 -0.104211 -0.118518
v 0.176009 -0.182139 -0.027906
v 0.197781 0.070092 -0.043724
v -0.078464 -0.104211 -0.118518
v -0.021593 -0.182139 -0.109653
v 0.057738 -0.231863 -0.091939
v 0.071810 0.070092 -0.135248
v -0.083899 0.070092 -0.135248
v -0.209871 0.070092 -0.043724
v -0.082829 0.139598 -0.131954
v -0.207418 0.139810 -0.040356
v -0.244853 0.124326 0.072257
v -0.077076 -0.141762 -0.114246
v -0.205144 0.012197 -0.040289
v 0.070739 0.139598 -0.131954
v -0.077139 0.206884 -0.104578
v 0.063114 0.205671 -0.106737
v 0.193991 0.139027 -0.042439
v 0.242240 0.091220 0.096350
v 0.244509 0.056328 0.104364
v 0.228228 -0.103919 0.104030
v 0.189668 -0.182139 0.014133
v 0.167112 -0.211499 -0.021442
v 0.088553 -0.238070 -0.066818
v -0.023441 0.238070 -0.088806
v 0.244509 0.056328 0.104364
v 0.221487 -0.072358 0.135248
v 0.057738 -0.231863 -0.091939
v -0.077076 -0.141762 -0.114246
v -0.021593 -0.182139 -0.109653
v 0.221487 -0.072358 0.135248
v 0.244509 0.056328 0.104364
v 0.242240 0.091220 0.096350
v -0.205144 0.012197 -0.040289
v 0.044548 0.063642 -0.117401
v -0.244853 0.124326 0.072257
v -0.077076 -0.141762 -0.114246
v 0.057738 -0.231863 -0.091939
v 0.088553 -0.238070 -0.066818
v 0.167112 -0.211499 -0.021442
v 0.189668 -0.182139 0.014133
v 0.228228 -0.103919 0.104030
v 0.221487 -0.072358 0.135248
v 0.044548 0.063642 -0.117401
v 0.221487 -0.072358 0.135248
v 0.242240 0.091220 0.096350
v 0.193991 0.139027 -0.042439
v -0.077139 0.206884 -0.104578
v 0.044548 0.063642 -0.117401
v -0.023441 0.238070 -0.088806
v -0.207418 0.139810 -0.040356
v 0.063114 0.205671 -0.106737
v 0.193991 0.139027 -0.042439
v 0.044548 0.063642 -0.117401
v -0.207418 0.139810 -0.040356
v -0.244853 0.124326 0.072257
vt 0.386808 0.348126
vt 0.352887 0.324240
vt 0.352887 0.348121
vt 0.386808 0.324249
vt 0.386808 0.398488
vt 0.318968 0.348123
vt 0.332136 0.324241
vt 0.352887 0.306413
vt 0.352887 0.398495
vt 0.318968 0.398501
vt 0.285050 0.398497
vt 0.318968 0.417944
vt 0.284752 0.418011
vt 0.258588 0.413660
vt 0.318968 0.336615
vt 0.285050 0.381768
vt 0.352887 0.417944
vt 0.318193 0.439388
vt 0.353044 0.438912
vt 0.386532 0.417773
vt 0.418867 0.404385
vt 0.420728 0.394499
vt 0.364141 0.348245
vt 0.397588 0.324254
vt 0.386808 0.313723
vt 0.362883 0.304190
vt 0.330207 0.451530
vt 0.251132 0.394509
vt 0.258278 0.357340
vt 0.352887 0.306413
vt 0.318968 0.336615
vt 0.332136 0.324241
vt 0.258278 0.357340
vt 0.420728 0.394499
vt 0.418867 0.404385
vt 0.492549 0.334110
vt 0.451074 0.312016
vt 0.487818 0.361596
vt 0.490505 0.298482
vt 0.483801 0.272177
vt 0.479851 0.266766
vt 0.465981 0.259339
vt 0.457544 0.258028
vt 0.436757 0.256335
vt 0.429468 0.258001
vt 0.451074 0.312016
vt 0.429468 0.258001
vt 0.412049 0.280191
vt 0.420501 0.304488
vt 0.444353 0.344054
vt 0.451074 0.312016
vt 0.435085 0.340569
vt 0.467703 0.357106
vt 0.431119 0.326484
vt 0.420501 0.304488
vt 0.451074 0.312016
vt 0.467703 0.357106
vt 0.487818 0.361596
vn 0.584017 -0.113034 -0.803833
vn 0.584017 -0.113034 -0.803833
vn 0.584017 -0.113034 -0.803833
vn 0.584018 -0.113035 -0.803832
vn 0.585096 -0.095536 -0.805317
vn 0.000000 -0.113033 -0.993591
vn -0.000001 -0.335584 -0.942010
vn -0.000001 -0.335584 -0.942010
vn 0.585099 -0.095541 -0.805314
vn -0.587128 0.047336 -0.808109
vn -0.591222 0.059652 -0.804300
vn -0.591222 0.059652 -0.804300
vn -0.591222 0.059652 -0.804300
vn -0.949805 0.048341 -0.309084
vn 0.000003 -0.113030 -0.993592
vn -0.594890 -0.112529 -0.795891
vn 0.000000 0.047340 -0.998879
vn -0.553692 0.353566 -0.753934
vn -0.010987 0.377634 -0.925890
vn 0.587128 0.047340 -0.808109
vn 0.953431 -0.007281 -0.301524
vn 0.953431 -0.007281 -0.301524
vn 0.944974 -0.113016 -0.307003
vn 0.944974 -0.113016 -0.307003
vn 0.553703 -0.335567 -0.762107
vn 0.553697 -0.335566 -0.762113
vn -0.009616 0.464410 -0.885568
vn 0.953431 -0.007281 -0.301524
vn 0.948121 -0.096955 0.302764
vn -0.538640 -0.684224 0.491635
vn -0.538640 -0.684224 0.491635
vn -0.538640 -0.684224 0.491635
vn 0.041097 0.226212 0.973211
vn 0.041097 0.226212 0.973211
vn 0.041097 0.226212 0.973211
vn 0.346300 -0.600660 0.720614
vn 0.346300 -0.600660 0.720614
vn 0.346300 -0.600660 0.720614
vn 0.323570 -0.177317 0.929441
vn -0.110157 0.080442 0.990654
vn -0.516124 0.067870 0.853821
vn -0.516124 0.067870 0.853821
vn -0.823577 -0.202789 0.529714
vn -0.817674 -0.483587 0.312333
vn -0.817674 -0.483587 0.312333
vn -0.727356 0.244740 0.641136
vn -0.727357 0.244740 0.641136
vn -0.727357 0.244740 0.641136
vn -0.570227 0.695173 0.437694
vn -0.155915 -0.218685 0.963259
vn -0.155915 -0.218685 0.963259
vn -0.155915 -0.218685 0.963259
vn 0.343335 0.209715 0.915500
vn -0.444664 -0.009125 0.895651
vn -0.444664 -0.009125 0.895651
vn 0.347436 0.906437 0.240126
vn 0.347436 0.906437 0.240126
vn 0.347436 0.906437 0.240126
usemtl material
f 1/0/1 2/0/2 3/0/3
f 2/0/2 1/0/1 4/0/4
f 3/0/3 5/0/5 1/0/1
f 6/0/6 3/0/3 2/0/2
f 6/0/6 2/0/2 7/0/7
f 2/0/2 8/0/8 7/0/7
f 5/0/5 3/0/3 9/0/9
f 6/0/6 9/0/9 3/0/3
f 6/0/6 10/0/10 9/0/9
f 6/0/6 11/0/11 10/0/10
f 11/0/11 12/0/12 10/0/10
f 12/0/12 11/0/11 13/0/13
f 11/0/11 14/0/14 13/0/13
f 6/0/6 7/0/7 15/0/15
f 15/0/15 16/0/16 6/0/6
f 14/0/14 11/0/11 16/0/16
f 6/0/6 16/0/16 11/0/11
f 10/0/10 17/0/17 9/0/9
f 10/0/10 12/0/12 17/0/17
f 13/0/13 18/0/18 12/0/12
f 19/0/19 12/0/12 18/0/18
f 17/0/17 12/0/12 19/0/19
f 20/0/20 9/0/9 17/0/17
f 20/0/20 5/0/5 9/0/9
f 17/0/17 19/0/19 20/0/20
f 21/0/21 5/0/5 20/0/20
f 21/0/21 22/0/22 5/0/5
f 5/0/5 22/0/22 23/0/23
f 5/0/5 23/0/23 1/0/1
f 24/0/24 1/0/1 23/0/23
f 1/0/1 24/0/24 4/0/4
f 24/0/24 25/0/25 4/0/4
f 25/0/25 2/0/2 4/0/4
f 25/0/25 8/0/8 2/0/2
f 25/0/25 26/0/26 8/0/8
f 18/0/18 27/0/27 19/0/19
f 28/0/28 29/0/29 23/0/23
f 30/0/30 31/0/31 32/0/32
f 33/0/33 34/0/34 35/0/35
f 36/0/36 37/0/37 38/0/38
f 39/0/39 37/0/37 36/0/36
f 40/0/40 37/0/37 39/0/39
f 41/0/41 37/0/37 40/0/40
f 42/0/42 37/0/37 41/0/41
f 37/0/37 42/0/42 43/0/43
f 43/0/43 44/0/44 37/0/37
f 37/0/37 44/0/44 45/0/45
f 46/0/46 47/0/47 48/0/48
f 46/0/46 48/0/48 49/0/49
f 50/0/50 51/0/51 52/0/52
f 50/0/50 53/0/53 51/0/51
f 54/0/54 52/0/52 51/0/51
f 51/0/51 55/0/55 54/0/54
f 56/0/56 57/0/57 58/0/58
