# 
# Wavefront OBJ file
# Created with Kaydara FBX
# 
mtllib item05_part_5.mtl

g Item05_Part_5
v -0.157272 0.028200 0.118099
v -0.017260 -0.119685 0.151344
v -0.148382 0.028200 0.124558
v -0.015237 -0.136308 0.145116
v -0.104847 -0.136308 0.080010
v -0.162140 0.043892 0.121636
v -0.200453 0.019509 -0.025333
v -0.139075 -0.136308 -0.025333
v -0.201173 0.028200 -0.017014
v -0.208922 0.136308 0.086717
v 0.015345 -0.136308 0.145116
v -0.017260 -0.119685 0.151344
v -0.015237 -0.136308 0.145116
v -0.162140 0.043892 0.121636
v -0.076401 -0.136308 -0.151344
v -0.208922 0.136308 0.086717
v -0.104847 -0.136308 -0.130677
v -0.139075 -0.136308 -0.025333
v -0.017260 -0.119685 0.151344
v -0.104847 -0.136308 0.080010
v -0.148382 0.028200 0.124558
v -0.017260 -0.119685 0.151344
v -0.015237 -0.136308 0.145116
v -0.104847 -0.136308 0.080010
v -0.017260 -0.119685 0.151344
v -0.015237 -0.136308 0.145116
v 0.015345 -0.136308 0.145116
v -0.015237 -0.136308 0.145116
v -0.017260 -0.119685 0.151344
v -0.112282 -0.112977 -0.136079
v -0.076401 -0.136308 -0.151344
v -0.104847 -0.136308 -0.130677
v -0.139075 -0.136308 -0.025333
v -0.200453 0.019509 -0.025333
v -0.208922 0.136308 0.086717
v -0.200453 0.019509 -0.025333
v -0.201173 0.028200 -0.017014
v -0.112282 -0.112977 -0.136079
v -0.076401 -0.136308 -0.151344
vt 0.196197 0.310270
vt 0.147321 0.256707
vt 0.192635 0.310270
vt 0.147321 0.250687
vt 0.196197 0.250687
vt 0.196197 0.314607
vt 0.245073 0.307122
vt 0.245073 0.250687
vt 0.242238 0.310270
vt 0.211223 0.340152
vt 0.133826 0.250687
vt 0.147321 0.256707
vt 0.147321 0.250687
vt 0.196197 0.314607
vt 0.065083 0.250687
vt 0.211223 0.340152
vt 0.049568 0.250687
vt 0.000691 0.250687
vt 0.147321 0.256707
vt 0.196197 0.250687
vt 0.192635 0.310270
vt 0.147321 0.256707
vt 0.147321 0.250687
vt 0.196197 0.250687
vt 0.147321 0.256707
vt 0.147321 0.250687
vt 0.133826 0.250687
vt 0.147321 0.250687
vt 0.147321 0.256707
vt 0.049567 0.259137
vt 0.065083 0.250687
vt 0.049568 0.250687
vt 0.000691 0.250687
vt 0.000691 0.307122
vt 0.211223 0.340152
vt 0.245073 0.307122
vt 0.242238 0.310270
vt 0.049567 0.259137
vt 0.065083 0.250687
vn -0.550416 -0.350801 0.757615
vn -0.550416 -0.350801 0.757615
vn -0.550416 -0.350801 0.757615
vn -0.550428 -0.350816 0.757600
vn -0.550431 -0.350818 0.757597
vn -0.552200 -0.342591 0.760070
vn -0.890611 -0.350818 0.289378
vn -0.890611 -0.350818 0.289378
vn -0.890610 -0.350819 0.289377
vn -0.893499 -0.342603 0.290315
vn 0.000000 -0.350814 0.936445
vn 0.000000 -0.350814 0.936445
vn 0.000000 -0.350814 0.936445
vn 0.895519 0.423846 -0.135647
vn 0.674182 -0.501118 0.542550
vn 0.894285 0.447268 -0.014370
vn 0.570852 -0.601304 0.559072
vn 0.998761 -0.019254 0.045878
vn 0.779457 0.275465 -0.562642
vn 0.249079 -0.965096 -0.080931
vn 0.399380 0.493999 0.772309
vn 0.550431 0.350815 -0.757598
vn 0.550431 0.350815 -0.757598
vn 0.550431 0.350815 -0.757598
vn 0.330740 0.366111 -0.869812
vn 0.287517 0.366495 -0.884882
vn 0.000000 0.350814 -0.936445
vn 0.000000 0.350814 -0.936445
vn 0.000000 0.350814 -0.936445
vn -0.550428 -0.350815 -0.757600
vn -0.550428 -0.350815 -0.757600
vn -0.550428 -0.350815 -0.757600
vn -0.890611 -0.350818 0.289378
vn -0.890611 -0.350818 0.289378
vn 0.147454 0.690261 -0.708376
vn 0.147456 0.690261 -0.708376
vn 0.149428 0.690130 -0.708091
vn 0.147447 0.690261 -0.708378
vn 0.147447 0.690261 -0.708378
usemtl material
f 1/0/1 2/0/2 3/0/3
f 1/0/1 4/0/4 2/0/2
f 1/0/1 5/0/5 4/0/4
f 5/0/5 4/0/4 2/0/2
f 3/0/3 6/0/6 1/0/1
f 5/0/5 1/0/1 7/0/7
f 5/0/5 7/0/7 8/0/8
f 7/0/7 1/0/1 9/0/9
f 1/0/1 10/0/10 9/0/9
f 10/0/10 1/0/1 6/0/6
f 11/0/11 12/0/12 13/0/13
f 11/0/11 12/0/12 13/0/13
f 14/0/14 15/0/15 16/0/16
f 14/0/14 17/0/17 15/0/15
f 14/0/14 18/0/18 17/0/17
f 14/0/14 19/0/19 18/0/18
f 18/0/18 19/0/19 20/0/20
f 14/0/14 21/0/21 19/0/19
f 22/0/22 23/0/23 24/0/24
f 25/0/25 26/0/26 24/0/24
f 26/0/26 25/0/25 27/0/27
f 27/0/27 28/0/28 29/0/29
f 30/0/30 31/0/31 32/0/32
f 33/0/33 30/0/30 32/0/32
f 30/0/30 33/0/33 34/0/34
f 35/0/35 36/0/36 37/0/37
f 35/0/35 38/0/38 36/0/36
f 35/0/35 39/0/39 38/0/38
