# 
# Wavefront OBJ file
# Created with Kaydara FBX
# 
mtllib item05_part_3.mtl

g Item05_Part_3
v 0.130363 0.047593 0.054753
v 0.124801 -0.120570 -0.126580
v 0.189282 0.047593 -0.126580
v 0.078197 -0.120570 0.016852
v -0.023888 0.047593 0.166823
v 0.146325 0.211691 0.066350
v 0.192802 0.211691 -0.076694
v 0.202908 0.160931 -0.126580
v -0.017792 0.211691 0.185587
v -0.019966 0.232372 0.178896
v 0.132123 0.263295 0.056032
v 0.156979 0.262134 -0.019252
v -0.072407 0.214593 0.184648
v 0.060001 -0.285079 -0.126580
v 0.025773 -0.285079 -0.021237
v -0.043814 -0.120570 0.105499
v -0.063838 -0.285079 0.043870
v -0.084633 -0.120570 0.105499
v -0.091485 -0.285079 0.043870
v -0.077692 0.047593 0.166823
v 0.124801 -0.120570 -0.126580
v 0.170816 0.047593 -0.183413
v 0.189282 0.047593 -0.126580
v 0.107174 -0.120570 -0.180831
v 0.178379 0.096708 -0.178309
v 0.202908 0.160931 -0.126580
v 0.060001 -0.285079 -0.126580
v 0.049555 -0.269312 -0.177842
v 0.047483 -0.285079 -0.165104
v 0.049555 -0.269312 -0.177842
v 0.047483 -0.285079 -0.165104
v 0.036193 -0.256782 -0.168414
v 0.107174 -0.120570 -0.180831
v 0.178379 0.096708 -0.178309
v 0.107174 -0.120570 -0.180831
v 0.178379 0.096708 -0.178309
v 0.170816 0.047593 -0.183413
v 0.156979 0.262134 -0.019252
v 0.202908 0.160931 -0.126580
v 0.178379 0.096708 -0.178309
v 0.192802 0.211691 -0.076694
v -0.063838 -0.285079 0.043870
v 0.060001 -0.285079 -0.126580
v 0.025773 -0.285079 -0.021237
v -0.091485 -0.285079 0.043870
v 0.060001 -0.285079 -0.126580
v 0.036193 -0.256782 -0.168414
v 0.047483 -0.285079 -0.165104
v 0.112880 0.069739 0.022664
v -0.084633 -0.120570 0.105499
v -0.077692 0.047593 0.166823
v 0.112880 0.069739 0.022664
v -0.072407 0.214593 0.184648
v -0.019966 0.232372 0.178896
v 0.132123 0.263295 0.056032
v 0.156979 0.262134 -0.019252
v 0.178379 0.096708 -0.178309
v 0.036193 -0.256782 -0.168414
v -0.091485 -0.285079 0.043870
v 0.060001 -0.285079 -0.126580
vt 0.049569 0.356751
vt 0.000693 0.310270
vt 0.000693 0.356751
vt 0.049569 0.310270
vt 0.098445 0.356751
vt 0.049569 0.393986
vt 0.013330 0.393986
vt 0.000693 0.382468
vt 0.098445 0.393986
vt 0.098445 0.399104
vt 0.049569 0.406757
vt 0.029419 0.406470
vt 0.111562 0.394704
vt 0.000693 0.250687
vt 0.049569 0.250687
vt 0.098445 0.310270
vt 0.098445 0.250687
vt 0.111673 0.310270
vt 0.110644 0.250687
vt 0.112237 0.356751
vt 0.245071 0.310270
vt 0.229752 0.356751
vt 0.245070 0.356751
vt 0.226585 0.310270
vt 0.231320 0.367896
vt 0.245069 0.382468
vt 0.245073 0.250687
vt 0.221930 0.256397
vt 0.227199 0.250687
vt 0.406794 0.198609
vt 0.406025 0.198211
vt 0.406360 0.199037
vt 0.408371 0.203325
vt 0.410109 0.210132
vt 0.226585 0.310270
vt 0.231320 0.367896
vt 0.229752 0.356751
vt 0.406277 0.216123
vt 0.409641 0.212745
vt 0.410109 0.210132
vt 0.408356 0.214552
vt 0.098445 0.250687
vt 0.000693 0.250687
vt 0.049569 0.250687
vt 0.110644 0.250687
vt 0.404701 0.198651
vt 0.406360 0.199037
vt 0.406025 0.198211
vt 0.403570 0.210541
vt 0.396950 0.204731
vt 0.396200 0.210202
vt 0.403570 0.210541
vt 0.396246 0.215381
vt 0.397786 0.216136
vt 0.403874 0.216601
vt 0.406277 0.216123
vt 0.410109 0.210132
vt 0.406360 0.199037
vt 0.397720 0.199377
vt 0.404701 0.198651
vn 0.893500 -0.342602 0.290314
vn 0.893500 -0.342602 0.290314
vn 0.893500 -0.342602 0.290314
vn 0.893499 -0.342603 0.290316
vn 0.552211 -0.342604 0.760056
vn 0.944900 -0.113606 0.307015
vn 0.944900 -0.113606 0.307016
vn 0.944900 -0.113606 0.307015
vn 0.583979 -0.113605 0.803780
vn 0.559245 0.307812 0.769738
vn 0.559245 0.307812 0.769738
vn 0.904880 0.307812 0.294013
vn -0.023073 -0.112730 0.993358
vn 0.890611 -0.350816 0.289377
vn 0.890613 -0.350814 0.289375
vn 0.550429 -0.350816 0.757599
vn 0.550429 -0.350816 0.757599
vn -0.000002 -0.350815 0.936445
vn -0.000001 -0.350815 0.936445
vn -0.000003 -0.342602 0.939481
vn 0.893500 -0.342602 0.290314
vn 0.893500 -0.342602 -0.290314
vn 0.893500 -0.342602 0.290314
vn 0.893499 -0.342602 -0.290316
vn 0.944900 -0.113606 -0.307015
vn 0.944900 -0.113606 0.307015
vn 0.890611 -0.350816 0.289377
vn 0.890613 -0.350816 -0.289374
vn 0.890607 -0.350828 -0.289376
vn -0.739575 -0.361499 -0.567757
vn -0.739575 -0.361499 -0.567757
vn -0.739575 -0.361499 -0.567757
vn -0.463066 0.161868 -0.871418
vn -0.463117 0.161884 -0.871388
vn -0.463066 0.161868 -0.871418
vn -0.463117 0.161884 -0.871388
vn -0.463117 0.161884 -0.871388
vn -0.218942 0.661410 -0.717357
vn -0.218942 0.661410 -0.717357
vn -0.218942 0.661410 -0.717357
vn -0.218919 0.661418 -0.717356
vn -0.000001 -1.000000 -0.000001
vn -0.000001 -1.000000 -0.000001
vn -0.000001 -1.000000 -0.000001
vn -0.000002 -1.000000 -0.000002
vn -0.899518 -0.324723 0.292271
vn -0.899518 -0.324723 0.292271
vn -0.899518 -0.324723 0.292271
vn -0.884942 -0.062242 0.461523
vn -0.597862 0.296296 -0.744829
vn -0.597862 0.296296 -0.744829
vn -0.597862 0.296296 -0.744829
vn -0.271103 0.542419 -0.795163
vn -0.271103 0.542419 -0.795163
vn -0.640045 0.191893 -0.743989
vn -0.938572 0.147125 -0.312149
vn -0.901592 0.355764 -0.246099
vn -0.901592 0.355764 -0.246099
vn -0.696187 0.364005 -0.618728
vn -0.696187 0.364005 -0.618728
usemtl material
f 1/0/1 2/0/2 3/0/3
f 2/0/2 1/0/1 4/0/4
f 5/0/5 4/0/4 1/0/1
f 3/0/3 6/0/6 1/0/1
f 3/0/3 7/0/7 6/0/6
f 3/0/3 8/0/8 7/0/7
f 9/0/9 1/0/1 6/0/6
f 1/0/1 9/0/9 5/0/5
f 6/0/6 10/0/10 9/0/9
f 10/0/10 6/0/6 11/0/11
f 6/0/6 12/0/12 11/0/11
f 12/0/12 6/0/6 7/0/7
f 13/0/13 5/0/5 9/0/9
f 13/0/13 9/0/9 10/0/10
f 4/0/4 14/0/14 2/0/2
f 14/0/14 4/0/4 15/0/15
f 16/0/16 15/0/15 4/0/4
f 4/0/4 5/0/5 16/0/16
f 15/0/15 16/0/16 17/0/17
f 18/0/18 17/0/17 16/0/16
f 17/0/17 18/0/18 19/0/19
f 16/0/16 20/0/20 18/0/18
f 20/0/20 16/0/16 5/0/5
f 5/0/5 13/0/13 20/0/20
f 21/0/21 22/0/22 23/0/23
f 22/0/22 21/0/21 24/0/24
f 25/0/25 23/0/23 22/0/22
f 23/0/23 25/0/25 26/0/26
f 27/0/27 24/0/24 21/0/21
f 27/0/27 28/0/28 24/0/24
f 27/0/27 29/0/29 28/0/28
f 30/0/30 31/0/31 32/0/32
f 32/0/32 33/0/33 30/0/30
f 32/0/32 34/0/34 33/0/33
f 35/0/35 36/0/36 37/0/37
f 38/0/38 39/0/39 40/0/40
f 41/0/41 39/0/39 38/0/38
f 42/0/42 43/0/43 44/0/44
f 45/0/45 43/0/43 42/0/42
f 46/0/46 47/0/47 48/0/48
f 49/0/49 47/0/47 46/0/46
f 50/0/50 51/0/51 52/0/52
f 51/0/51 53/0/53 52/0/52
f 54/0/54 52/0/52 53/0/53
f 55/0/55 52/0/52 54/0/54
f 56/0/56 52/0/52 55/0/55
f 56/0/56 57/0/57 52/0/52
f 52/0/52 57/0/57 58/0/58
f 52/0/52 59/0/59 50/0/50
f 52/0/52 60/0/60 59/0/59
