# 
# Wavefront OBJ file
# Created with Kaydara FBX
# 
mtllib item02_part_1.mtl

g Item02_Part_1
v -0.013485 -0.002617 0.158228
v 0.145380 -0.067968 0.136910
v 0.117505 -0.002617 0.158228
v 0.137892 -0.138617 0.113864
v 0.000929 -0.138617 0.113864
v -0.147615 -0.002617 0.060778
v 0.055688 0.166199 0.157959
v -0.013575 0.164083 0.158502
v 0.181324 -0.138617 0.082308
v 0.022368 -0.225441 0.047881
v 0.112631 -0.240916 0.036120
v 0.199134 -0.167217 0.042502
v 0.178577 -0.222191 0.005798
v -0.106368 -0.145747 0.026622
v -0.186903 -0.002617 -0.060137
v -0.009545 0.212481 0.146099
v -0.147847 0.164083 0.060947
v -0.131097 0.240916 0.048778
v -0.193143 0.186318 -0.096900
v -0.198942 0.052418 -0.096900
v -0.179061 0.130557 -0.158502
v 0.181324 -0.138617 0.082308
v 0.117505 -0.002617 0.158228
v 0.145380 -0.067968 0.136910
v 0.022368 -0.225441 0.047881
v 0.178577 -0.222191 0.005798
v 0.112631 -0.240916 0.036120
v -0.106368 -0.145747 0.026622
v -0.198942 0.052418 -0.096900
v -0.106368 -0.145747 0.026622
v -0.186903 -0.002617 -0.060137
v -0.106368 -0.145747 0.026622
v -0.198942 0.052418 -0.096900
v -0.019244 -0.077855 0.105455
v -0.179061 0.130557 -0.158502
v -0.019244 -0.077855 0.105455
v -0.009545 0.212481 0.146099
v 0.055688 0.166199 0.157959
v 0.117505 -0.002617 0.158228
v 0.181324 -0.138617 0.082308
v 0.199134 -0.167217 0.042502
v 0.178577 -0.222191 0.005798
v -0.106368 -0.145747 0.026622
v -0.131097 0.240916 0.048778
v -0.193143 0.186318 -0.096900
v -0.179061 0.130557 -0.158502
vt 0.175393 0.092320
vt 0.150755 0.075418
vt 0.155926 0.092320
vt 0.150755 0.057145
vt 0.175393 0.057145
vt 0.200031 0.092320
vt 0.165130 0.130220
vt 0.175393 0.129692
vt 0.141075 0.057145
vt 0.175393 0.020366
vt 0.150755 0.013810
vt 0.132986 0.045030
vt 0.131743 0.021742
vt 0.200671 0.054125
vt 0.218924 0.092320
vt 0.175393 0.141756
vt 0.200031 0.129692
vt 0.200031 0.148844
vt 0.224669 0.135235
vt 0.224669 0.104658
vt 0.234283 0.122176
vt 0.008159 0.117099
vt 0.005042 0.107696
vt 0.005654 0.112018
vt 0.020515 0.116280
vt 0.012900 0.121984
vt 0.017029 0.120442
vt 0.022566 0.107527
vt 0.026206 0.093213
vt 0.022566 0.107527
vt 0.026011 0.097163
vt 0.022566 0.107527
vt 0.026206 0.093213
vt 0.014654 0.106551
vt 0.025130 0.087347
vt 0.014654 0.106551
vt 0.003976 0.093024
vt 0.002317 0.097480
vt 0.005042 0.107696
vt 0.008159 0.117099
vt 0.009401 0.119902
vt 0.012900 0.121984
vt 0.022566 0.107527
vt 0.010879 0.086784
vt 0.020613 0.085313
vt 0.025130 0.087347
vn 0.000000 -0.310116 0.950699
vn 0.000000 -0.310116 0.950699
vn 0.000000 -0.310116 0.950699
vn -0.000003 -0.310123 0.950696
vn 0.000000 -0.310120 0.950697
vn -0.558803 -0.310119 0.769133
vn 0.000000 -0.001644 0.999999
vn 0.000000 -0.001644 0.999999
vn 0.558813 -0.310120 0.769125
vn 0.000000 -0.605063 0.796178
vn 0.000004 -0.605067 0.796175
vn 0.925211 0.339065 0.170352
vn 0.822373 0.069501 -0.564688
vn -0.578687 -0.343298 0.739775
vn -0.898273 -0.328509 0.291869
vn -0.000001 0.248247 0.968697
vn -0.587789 -0.001648 0.809013
vn -0.569389 0.248242 0.783691
vn -0.921285 0.248245 0.299346
vn -0.965118 0.041797 -0.258458
vn -0.965118 0.041797 -0.258458
vn 0.925210 0.339067 0.170354
vn 0.925211 0.339065 0.170351
vn 0.925211 0.339070 0.170341
vn -0.201821 -0.574154 -0.793483
vn -0.201821 -0.574154 -0.793483
vn -0.201821 -0.574154 -0.793483
vn -0.206622 -0.549683 -0.809417
vn -0.145258 -0.571354 -0.807747
vn -0.145258 -0.571354 -0.807747
vn -0.145258 -0.571354 -0.807747
vn 0.710126 -0.102461 -0.696580
vn 0.710126 -0.102461 -0.696580
vn 0.710126 -0.102461 -0.696580
vn 0.327590 -0.634936 -0.699672
vn 0.262742 0.125152 -0.956715
vn 0.262742 0.125152 -0.956715
vn 0.262742 0.125152 -0.956715
vn 0.304577 0.110027 -0.946112
vn 0.053902 0.505884 -0.860916
vn 0.193905 0.835757 -0.513723
vn -0.010836 0.558044 -0.829740
vn 0.128574 0.676735 -0.724912
vn 0.634894 0.086271 -0.767768
vn 0.880707 0.433439 -0.191012
vn 0.880707 0.433439 -0.191011
usemtl material
f 1/0/1 2/0/2 3/0/3
f 1/0/1 4/0/4 2/0/2
f 1/0/1 5/0/5 4/0/4
f 6/0/6 5/0/5 1/0/1
f 7/0/7 1/0/1 3/0/3
f 1/0/1 7/0/7 8/0/8
f 9/0/9 2/0/2 4/0/4
f 10/0/10 4/0/4 5/0/5
f 4/0/4 10/0/10 11/0/11
f 4/0/4 12/0/12 9/0/9
f 4/0/4 13/0/13 12/0/12
f 11/0/11 13/0/13 4/0/4
f 5/0/5 6/0/6 14/0/14
f 5/0/5 14/0/14 10/0/10
f 14/0/14 6/0/6 15/0/15
f 8/0/8 7/0/7 16/0/16
f 17/0/17 1/0/1 8/0/8
f 1/0/1 17/0/17 6/0/6
f 16/0/16 17/0/17 8/0/8
f 15/0/15 6/0/6 17/0/17
f 17/0/17 16/0/16 18/0/18
f 19/0/19 17/0/17 18/0/18
f 15/0/15 17/0/17 19/0/19
f 20/0/20 15/0/15 19/0/19
f 19/0/19 21/0/21 20/0/20
f 22/0/22 23/0/23 24/0/24
f 25/0/25 26/0/26 27/0/27
f 28/0/28 26/0/26 25/0/25
f 29/0/29 30/0/30 31/0/31
f 32/0/32 33/0/33 34/0/34
f 35/0/35 34/0/34 33/0/33
f 36/0/36 37/0/37 38/0/38
f 39/0/39 36/0/36 38/0/38
f 40/0/40 36/0/36 39/0/39
f 41/0/41 36/0/36 40/0/40
f 42/0/42 36/0/36 41/0/41
f 36/0/36 42/0/42 43/0/43
f 44/0/44 37/0/37 36/0/36
f 36/0/36 45/0/45 44/0/44
f 36/0/36 46/0/46 45/0/45
