# 
# Wavefront OBJ file
# Created with Kaydara FBX
# 
mtllib item02_part_5.mtl

g Item02_Part_5
v -0.017117 0.037633 -0.229850
v -0.024698 0.038818 -0.253183
v -0.157161 0.043068 -0.155595
v -0.137760 0.050569 -0.129499
v 0.002437 0.048592 -0.250678
v -0.190728 -0.001250 -0.061061
v -0.166809 -0.001209 -0.053289
v -0.137760 0.050569 -0.129499
v -0.178305 0.029175 -0.019359
v -0.172790 0.081114 0.000542
v -0.023855 0.048936 -0.250590
v -0.149502 0.078206 -0.150030
v 0.002437 0.048592 -0.250678
v -0.187109 0.120204 0.000542
v -0.118733 0.127115 0.128761
v -0.132192 0.157607 0.138539
v -0.015971 0.144609 0.196443
v -0.036105 0.174245 0.203081
v -0.013421 0.174245 0.219561
v 0.060407 0.099133 0.212848
v 0.043346 0.036508 0.254859
v -0.021212 0.080675 0.243541
v 0.077468 0.174245 0.219561
v -0.142765 0.109110 0.146220
v -0.172790 0.081114 0.000542
v -0.204810 0.054511 0.000542
v -0.201850 0.032277 -0.027010
v -0.190728 -0.001250 -0.061061
v 0.077468 0.174245 0.219561
v 0.043346 0.036508 0.254859
v 0.077468 0.174245 0.219561
v 0.043346 0.036508 0.254859
v -0.021212 0.080675 0.243541
v -0.013421 0.174245 0.219561
v -0.142765 0.109110 0.146220
v -0.036105 0.174245 0.203081
v -0.132192 0.157607 0.138539
v -0.187109 0.120204 0.000542
v -0.204810 0.054511 0.000542
v -0.149502 0.078206 -0.150030
v -0.201850 0.032277 -0.027010
v -0.190728 -0.001250 -0.061061
v -0.157161 0.043068 -0.155595
v -0.157161 0.043068 -0.155595
v -0.024698 0.038818 -0.253183
v -0.023855 0.048936 -0.250590
v -0.149502 0.078206 -0.150030
v 0.002437 0.048592 -0.250678
vt 0.019291 0.086161
vt 0.017089 0.083587
vt 0.007139 0.103046
vt 0.009973 0.105293
vt 0.022397 0.081769
vt 0.003630 0.109256
vt 0.004844 0.109678
vt 0.009973 0.105293
vt 0.005255 0.112136
vt 0.007061 0.114947
vt 0.024549 0.086988
vt 0.013496 0.106582
vt 0.022397 0.081769
vt 0.009072 0.116295
vt 0.005617 0.122156
vt 0.006894 0.122796
vt 0.004662 0.126686
vt 0.005861 0.126568
vt 0.005725 0.127205
vt 0.003167 0.128805
vt 0.001089 0.128898
vt 0.001991 0.126668
vt 0.004988 0.129805
vt 0.004268 0.121705
vt 0.007061 0.114947
vt 0.005127 0.114007
vt 0.003966 0.112471
vt 0.003630 0.109256
vt 0.004988 0.129805
vt 0.001089 0.128898
vt 0.159659 0.165080
vt 0.165263 0.130747
vt 0.175393 0.141756
vt 0.175393 0.165080
vt 0.200031 0.148844
vt 0.180246 0.165080
vt 0.200031 0.160933
vt 0.224669 0.151609
vt 0.224669 0.135235
vt 0.249305 0.141141
vt 0.228969 0.129692
vt 0.234289 0.122176
vt 0.249305 0.132382
vt 0.002929 0.132382
vt 0.027565 0.131323
vt 0.027565 0.133845
vt 0.002929 0.141141
vt 0.031530 0.133759
vn -0.569391 0.248243 -0.783690
vn -0.022294 0.993145 -0.114739
vn -0.022294 0.993145 -0.114739
vn -0.569391 0.248243 -0.783690
vn -0.347550 0.923939 0.159828
vn -0.406544 0.851824 0.330329
vn -0.951053 -0.001625 -0.309023
vn -0.921284 0.248250 -0.299345
vn -0.921284 0.248250 -0.299345
vn -0.921284 0.248250 -0.299345
vn -0.477555 -0.743974 -0.467379
vn -0.742633 -0.591827 -0.313426
vn -0.013098 -0.879787 -0.475188
vn -0.888739 -0.407456 0.210053
vn -0.569388 0.248250 0.783690
vn -0.645952 -0.433117 0.628614
vn 0.000003 0.248247 0.968697
vn -0.442486 -0.459411 0.770160
vn -0.183922 -0.261524 0.947512
vn 0.000003 0.248247 0.968697
vn 0.184856 0.543796 0.818605
vn -0.060632 0.617238 0.784436
vn -0.159802 -0.242598 0.956875
vn -0.551591 0.752656 0.359523
vn -0.921285 0.248249 0.299344
vn -0.537717 0.794875 -0.281128
vn 0.068509 0.659498 -0.748578
vn 0.248929 0.745605 -0.618149
vn -0.972392 0.226049 -0.057926
vn -0.972392 0.226049 -0.057926
vn -0.000003 -0.248247 -0.968697
vn -0.000003 -0.248247 -0.968697
vn -0.000003 -0.248247 -0.968697
vn 0.000000 -0.248250 -0.968696
vn 0.569388 -0.248250 -0.783690
vn 0.569388 -0.248250 -0.783690
vn 0.569388 -0.248250 -0.783690
vn 0.921285 -0.248249 -0.299344
vn 0.921285 -0.248249 -0.299344
vn 0.569391 -0.248243 0.783690
vn 0.921284 -0.248250 0.299345
vn 0.951053 0.001625 0.309023
vn 0.569389 -0.248261 0.783685
vn 0.569389 -0.248261 0.783685
vn 0.569389 -0.248261 0.783686
vn 0.569389 -0.248261 0.783686
vn 0.569391 -0.248243 0.783690
vn -0.000009 -0.248237 0.968699
usemtl material
f 1/0/1 2/0/2 3/0/3
f 1/0/1 3/0/3 4/0/4
f 2/0/2 1/0/1 5/0/5
f 4/0/4 3/0/3 6/0/6
f 4/0/4 6/0/6 7/0/7
f 8/0/8 7/0/7 9/0/9
f 8/0/8 9/0/9 10/0/10
f 11/0/11 1/0/1 8/0/8
f 11/0/11 8/0/8 12/0/12
f 12/0/12 8/0/8 10/0/10
f 13/0/13 1/0/1 11/0/11
f 12/0/12 10/0/10 14/0/14
f 14/0/14 10/0/10 15/0/15
f 14/0/14 15/0/15 16/0/16
f 16/0/16 15/0/15 17/0/17
f 16/0/16 17/0/17 18/0/18
f 18/0/18 17/0/17 19/0/19
f 19/0/19 17/0/17 20/0/20
f 21/0/21 20/0/20 17/0/17
f 21/0/21 17/0/17 22/0/22
f 22/0/22 17/0/17 15/0/15
f 19/0/19 20/0/20 23/0/23
f 22/0/22 15/0/15 24/0/24
f 24/0/24 15/0/15 25/0/25
f 24/0/24 25/0/25 26/0/26
f 26/0/26 25/0/25 9/0/9
f 26/0/26 9/0/9 27/0/27
f 27/0/27 9/0/9 7/0/7
f 27/0/27 7/0/7 28/0/28
f 29/0/29 20/0/20 30/0/30
f 31/0/31 32/0/32 33/0/33
f 33/0/33 34/0/34 31/0/31
f 35/0/35 34/0/34 33/0/33
f 35/0/35 36/0/36 34/0/34
f 35/0/35 37/0/37 36/0/36
f 38/0/38 37/0/37 35/0/35
f 35/0/35 39/0/39 38/0/38
f 40/0/40 38/0/38 39/0/39
f 40/0/40 39/0/39 41/0/41
f 40/0/40 41/0/41 42/0/42
f 40/0/40 42/0/42 43/0/43
f 44/0/44 45/0/45 46/0/46
f 46/0/46 47/0/47 44/0/44
f 46/0/46 45/0/45 48/0/48
