# 
# Wavefront OBJ file
# Created with Kaydara FBX
# 
mtllib item03_part_4.mtl

g Item03_Part_4
v 0.020283 -0.173845 -0.174602
v 0.009143 -0.077597 -0.208889
v 0.137079 -0.173845 -0.174602
v 0.063134 -0.077597 -0.208889
v 0.142465 -0.127321 -0.191176
v 0.007651 -0.037220 -0.213482
v -0.023929 0.000331 -0.195819
v -0.110913 0.000331 -0.132621
v -0.103372 -0.077597 -0.127142
v -0.146349 -0.077597 0.005128
v -0.110298 -0.173845 0.005128
v -0.155671 0.000331 0.005128
v -0.144033 0.174634 -0.084826
v -0.120417 0.116739 -0.139526
v -0.173261 0.174634 0.005128
v -0.074207 -0.173845 -0.105952
v -0.032877 -0.250242 -0.075924
v -0.059213 -0.250242 0.005128
v -0.169715 0.244215 0.004963
v 0.036070 -0.250242 -0.126017
v 0.098812 -0.250242 -0.126017
v 0.129401 -0.211406 -0.135368
v 0.155081 -0.173845 -0.161524
v -0.155671 0.000331 0.005128
v -0.103372 -0.077597 0.137398
v -0.110913 0.000331 0.142877
v -0.146349 -0.077597 0.005128
v -0.173261 0.174634 0.005128
v -0.071603 -0.077597 0.160479
v -0.059575 0.000331 0.180177
v -0.125144 0.174634 0.153216
v -0.036495 0.139735 0.213482
v -0.123819 0.207519 0.152253
v -0.072161 -0.176100 0.115921
v -0.110298 -0.173845 0.005128
v -0.059213 -0.250242 0.005128
v -0.169715 0.244215 0.004963
v -0.156865 0.244140 0.044930
v -0.071603 -0.077597 0.160479
v -0.036495 0.139735 0.213482
v -0.059575 0.000331 0.180177
v -0.144033 0.174634 -0.084826
v -0.023929 0.000331 -0.195819
v -0.120417 0.116739 -0.139526
v 0.063134 -0.077597 -0.208889
v 0.007651 -0.037220 -0.213482
v -0.072161 -0.176100 0.115921
v -0.036495 0.139735 0.213482
v -0.071603 -0.077597 0.160479
v 0.129401 -0.211406 -0.135368
v 0.036070 -0.250242 -0.126017
v 0.098812 -0.250242 -0.126017
v -0.107419 -0.039501 -0.009555
v 0.155081 -0.173845 -0.161524
v -0.032877 -0.250242 -0.075924
v 0.036070 -0.250242 -0.126017
v -0.059213 -0.250242 0.005128
v -0.107419 -0.039501 -0.009555
v -0.036495 0.139735 0.213482
v -0.072161 -0.176100 0.115921
v -0.123819 0.207519 0.152253
v -0.156865 0.244140 0.044930
v -0.169715 0.244215 0.004963
v -0.144033 0.174634 -0.084826
v -0.023929 0.000331 -0.195819
v 0.063134 -0.077597 -0.208889
v 0.142465 -0.127321 -0.191176
v -0.059213 -0.250242 0.005128
v 0.036070 -0.250242 -0.126017
v 0.137079 -0.173845 -0.174602
v -0.107419 -0.039501 -0.009555
v 0.155081 -0.173845 -0.161524
v -0.107419 -0.039501 -0.009555
v 0.137079 -0.173845 -0.174602
v 0.142465 -0.127321 -0.191176
vt 0.318968 0.289733
vt 0.318968 0.324242
vt 0.352887 0.289732
vt 0.332136 0.324241
vt 0.352887 0.306413
vt 0.318968 0.336615
vt 0.310228 0.348125
vt 0.285050 0.348131
vt 0.285050 0.324253
vt 0.251132 0.324270
vt 0.251132 0.289766
vt 0.251132 0.348136
vt 0.271735 0.398493
vt 0.285050 0.381768
vt 0.251132 0.398486
vt 0.285050 0.289745
vt 0.285050 0.251010
vt 0.251132 0.251011
vt 0.251170 0.417953
vt 0.318968 0.251008
vt 0.343940 0.251008
vt 0.352887 0.268046
vt 0.359350 0.289734
vt 0.420728 0.348145
vt 0.386808 0.324259
vt 0.386808 0.348140
vt 0.420728 0.324276
vt 0.420728 0.398500
vt 0.377230 0.324256
vt 0.371946 0.348136
vt 0.386808 0.398511
vt 0.363497 0.388428
vt 0.386808 0.407713
vt 0.386512 0.288603
vt 0.420728 0.289768
vt 0.420728 0.251008
vt 0.420728 0.417980
vt 0.411484 0.417949
vt 0.377230 0.324256
vt 0.363497 0.388428
vt 0.371946 0.348136
vt 0.453674 0.496579
vt 0.447809 0.496430
vt 0.451708 0.497122
vt 0.445021 0.495933
vt 0.446558 0.496550
vt 0.449585 0.487011
vt 0.457394 0.489279
vt 0.452210 0.487331
vt 0.442232 0.492208
vt 0.443409 0.490020
vt 0.442208 0.490977
vt 0.450314 0.491735
vt 0.442062 0.493484
vt 0.444615 0.488359
vt 0.443409 0.490020
vt 0.446567 0.487725
vt 0.450314 0.491735
vt 0.457394 0.489279
vt 0.449585 0.487011
vt 0.457825 0.492322
vt 0.457005 0.495080
vt 0.456445 0.495935
vt 0.453674 0.496579
vt 0.447809 0.496430
vt 0.445021 0.495933
vt 0.442845 0.495054
vt 0.446567 0.487725
vt 0.443409 0.490020
vt 0.442369 0.493936
vt 0.450314 0.491735
vt 0.442062 0.493484
vt 0.450314 0.491735
vt 0.442369 0.493936
vt 0.442845 0.495054
vn 0.000000 -0.335574 -0.942014
vn 0.000000 -0.335574 -0.942014
vn 0.000000 -0.335574 -0.942014
vn -0.000002 -0.335576 -0.942013
vn -0.000002 -0.335576 -0.942013
vn 0.000000 -0.113035 -0.993591
vn -0.584009 -0.113032 -0.803839
vn -0.584017 -0.113033 -0.803833
vn -0.895909 -0.335572 -0.291098
vn -0.895909 -0.335572 -0.291098
vn -0.895909 -0.335572 -0.291098
vn -0.944961 -0.113032 0.307037
vn -0.946707 -0.095539 -0.307602
vn -0.946707 -0.095539 -0.307602
vn -0.946706 -0.095540 0.307603
vn -0.553701 -0.335573 -0.762106
vn -0.495980 -0.536635 -0.682661
vn -0.801553 -0.535992 0.265000
vn -0.949907 0.049149 0.308643
vn -0.495982 -0.536634 -0.682661
vn 0.638524 -0.614500 -0.463332
vn 0.638524 -0.614500 -0.463332
vn 0.422914 -0.694482 -0.582099
vn -0.944961 -0.113032 0.307037
vn -0.944961 -0.113032 0.307037
vn -0.944961 -0.113032 0.307037
vn -0.895909 -0.335572 -0.291098
vn -0.946706 -0.095540 0.307603
vn -0.584012 -0.113033 0.803837
vn -0.584020 -0.113038 0.803830
vn -0.946706 -0.095540 0.307603
vn -0.579601 -0.070302 0.811862
vn -0.579601 -0.070302 0.811862
vn -0.892331 -0.345952 0.289935
vn -0.895909 -0.335572 -0.291098
vn -0.801553 -0.535992 0.265000
vn -0.949907 0.049149 0.308643
vn -0.949990 0.047337 0.308670
vn 0.747910 -0.268833 0.606926
vn 0.747943 -0.268827 0.606888
vn 0.748328 -0.268781 0.606434
vn 0.538638 0.684222 -0.491640
vn 0.538638 0.684222 -0.491640
vn 0.538638 0.684222 -0.491640
vn 0.538640 0.684227 -0.491631
vn 0.538640 0.684227 -0.491631
vn 0.772160 -0.265524 0.577292
vn 0.747943 -0.268827 0.606888
vn 0.747910 -0.268833 0.606926
vn 0.000000 0.234094 0.972214
vn 0.000000 0.234094 0.972214
vn 0.000000 0.234094 0.972214
vn 0.234001 -0.343345 0.909592
vn 0.560221 0.180018 0.808546
vn 0.000000 -1.000000 0.000000
vn 0.000000 -1.000000 0.000000
vn 0.000000 -1.000000 0.000000
vn 0.957056 -0.018713 -0.289298
vn 0.957056 -0.018713 -0.289298
vn 0.957056 -0.018713 -0.289298
vn 0.715896 0.415219 -0.561325
vn 0.952437 0.208691 -0.222061
vn 0.971242 0.207259 0.117182
vn 0.971243 0.207259 0.117182
vn 0.638617 0.642420 0.423633
vn 0.475058 0.845177 0.244940
vn 0.475058 0.845177 0.244940
vn 0.789114 0.220453 0.573324
vn 0.789114 0.220453 0.573324
vn 0.256317 0.899909 -0.352796
vn 0.256317 0.899909 -0.352796
vn 0.256317 0.899909 -0.352796
vn 0.620904 0.198295 0.758391
vn 0.620904 0.198295 0.758391
vn 0.620904 0.198295 0.758391
usemtl material
f 1/0/1 2/0/2 3/0/3
f 3/0/3 2/0/2 4/0/4
f 3/0/3 4/0/4 5/0/5
f 6/0/6 4/0/4 2/0/2
f 2/0/2 7/0/7 6/0/6
f 2/0/2 8/0/8 7/0/7
f 9/0/9 8/0/8 2/0/2
f 10/0/10 8/0/8 9/0/9
f 9/0/9 11/0/11 10/0/10
f 8/0/8 10/0/10 12/0/12
f 12/0/12 13/0/13 8/0/8
f 8/0/8 13/0/13 14/0/14
f 14/0/14 7/0/7 8/0/8
f 15/0/15 13/0/13 12/0/12
f 2/0/2 16/0/16 9/0/9
f 16/0/16 2/0/2 1/0/1
f 11/0/11 9/0/9 16/0/16
f 1/0/1 17/0/17 16/0/16
f 18/0/18 16/0/16 17/0/17
f 16/0/16 18/0/18 11/0/11
f 19/0/19 13/0/13 15/0/15
f 17/0/17 1/0/1 20/0/20
f 3/0/3 20/0/20 1/0/1
f 3/0/3 21/0/21 20/0/20
f 3/0/3 22/0/22 21/0/21
f 23/0/23 22/0/22 3/0/3
f 24/0/24 25/0/25 26/0/26
f 25/0/25 24/0/24 27/0/27
f 26/0/26 28/0/28 24/0/24
f 29/0/29 26/0/26 25/0/25
f 26/0/26 29/0/29 30/0/30
f 28/0/28 26/0/26 31/0/31
f 30/0/30 31/0/31 26/0/26
f 32/0/32 31/0/31 30/0/30
f 32/0/32 33/0/33 31/0/31
f 27/0/27 34/0/34 25/0/25
f 25/0/25 34/0/34 29/0/29
f 34/0/34 27/0/27 35/0/35
f 34/0/34 35/0/35 36/0/36
f 31/0/31 37/0/37 28/0/28
f 38/0/38 31/0/31 33/0/33
f 38/0/38 37/0/37 31/0/31
f 39/0/39 40/0/40 41/0/41
f 42/0/42 43/0/43 44/0/44
f 43/0/43 45/0/45 46/0/46
f 47/0/47 48/0/48 49/0/49
f 50/0/50 51/0/51 52/0/52
f 51/0/51 50/0/50 53/0/53
f 53/0/53 50/0/50 54/0/54
f 55/0/55 56/0/56 57/0/57
f 58/0/58 59/0/59 60/0/60
f 59/0/59 58/0/58 61/0/61
f 62/0/62 61/0/61 58/0/58
f 63/0/63 62/0/62 58/0/58
f 64/0/64 63/0/63 58/0/58
f 58/0/58 65/0/65 64/0/64
f 58/0/58 66/0/66 65/0/65
f 67/0/67 66/0/66 58/0/58
f 58/0/58 60/0/60 68/0/68
f 68/0/68 69/0/69 58/0/58
f 70/0/70 71/0/71 72/0/72
f 73/0/73 74/0/74 75/0/75
