# 
# Wavefront OBJ file
# Created with Kaydara FBX
# 
mtllib itempole_c15_01.mtl

g ItemPole_C15_01
v 1.514849 0.485014 -0.010218
v -1.509077 0.485014 -0.010218
v -1.509077 0.433706 -0.010218
v 1.514849 0.433706 -0.010218
v -1.480806 -0.680708 0.000000
v -1.480806 0.680708 0.000000
v -1.530552 0.680708 0.049746
v -1.530552 -0.680708 0.049746
v -1.580298 0.680708 0.000000
v -1.580298 -0.680708 0.000000
v -1.530552 0.680708 -0.049746
v -1.530552 -0.680708 -0.049746
v -1.480806 0.680708 0.000000
v -1.530552 0.680708 -0.049746
v -1.580298 0.680708 0.000000
v -1.530552 0.680708 0.049746
v 1.514849 -0.264416 -0.010218
v -1.509077 -0.264416 -0.010218
v -1.509077 -0.315724 -0.010218
v 1.514849 -0.315724 -0.010218
v 0.006206 0.621316 -0.003603
v 1.157798 -0.530280 -0.003603
v 1.198511 -0.489570 -0.003603
v 0.046909 0.662026 -0.003603
v 1.110171 0.662026 0.003604
v -0.041431 -0.489570 0.003603
v -0.000718 -0.530280 0.003603
v 1.150874 0.621316 0.003604
v 0.387769 0.621316 -0.003603
v 1.510390 -0.501310 -0.003603
v 1.551102 -0.460600 -0.003603
v 0.428472 0.662026 -0.003603
v 1.503486 0.673788 0.003604
v 0.340122 -0.489570 0.003603
v 0.380835 -0.530280 0.003603
v 1.544189 0.633079 0.003604
v 0.769321 0.621316 -0.003603
v 1.510118 -0.119484 -0.003603
v 1.550830 -0.078774 -0.003603
v 0.810024 0.662026 -0.003603
v 1.150884 0.621316 -0.003603
v 1.510296 0.261896 -0.003603
v 1.551009 0.302605 -0.003603
v 1.191587 0.662026 -0.003603
v 1.511053 0.299791 0.003604
v 0.721685 -0.489570 0.003603
v 0.762397 -0.530280 0.003603
v 1.551756 0.259081 0.003604
v 1.509599 -0.083212 0.003604
v 1.103237 -0.489570 0.003604
v 1.143950 -0.530280 0.003604
v 1.550312 -0.123922 0.003604
v 0.728608 0.662026 0.003603
v -0.422993 -0.489570 0.003603
v -0.382280 -0.530280 0.003603
v 0.769311 0.621316 0.003603
v 0.347056 0.662026 0.003603
v -0.804546 -0.489570 0.003603
v -0.763833 -0.530280 0.003603
v 0.387759 0.621316 0.003603
v -0.375347 0.621316 -0.003603
v 0.776245 -0.530280 -0.003603
v 0.816958 -0.489570 -0.003603
v -0.334644 0.662026 -0.003603
v -0.034507 0.662026 0.003603
v -1.186108 -0.489570 0.003603
v -1.145396 -0.530280 0.003603
v 0.006196 0.621316 0.003603
v -0.756909 0.621316 -0.003604
v 0.394683 -0.530280 -0.003603
v 0.435396 -0.489570 -0.003603
v -0.716206 0.662026 -0.003603
v -0.416060 0.662026 0.003603
v -1.552329 -0.474238 0.003603
v -1.511616 -0.514948 0.003603
v -0.375356 0.621316 0.003603
v -1.138472 0.621316 -0.003604
v 0.013120 -0.530280 -0.003603
v 0.053833 -0.489570 -0.003603
v -1.097769 0.662026 -0.003604
v -0.797622 0.662026 0.003603
v -1.551334 -0.091683 0.003603
v -1.510621 -0.132393 0.003603
v -0.756919 0.621316 0.003603
v -1.528977 0.630268 -0.003604
v -0.368433 -0.530280 -0.003603
v -0.327720 -0.489570 -0.003603
v -1.488273 0.670978 -0.003604
v -1.179175 0.662026 0.003603
v -1.550830 0.290377 0.003603
v -1.510118 0.249667 0.003603
v -1.138472 0.621316 0.003603
v -1.550966 0.270693 -0.003604
v -0.749995 -0.530280 -0.003604
v -0.709282 -0.489570 -0.003603
v -1.510262 0.311402 -0.003604
v -1.551535 -0.104922 -0.003604
v -1.126177 -0.530280 -0.003604
v -1.085464 -0.489570 -0.003604
v -1.510822 -0.064212 -0.003604
v 1.580298 -0.680708 0.000000
v 1.580298 0.680708 0.000000
v 1.530552 0.680708 0.049746
v 1.530552 -0.680708 0.049746
v 1.480806 0.680708 0.000000
v 1.480806 -0.680708 0.000000
v 1.530552 0.680708 -0.049746
v 1.530552 -0.680708 -0.049746
v 1.580298 0.680708 0.000000
v 1.530552 0.680708 -0.049746
v 1.480806 0.680708 0.000000
v 1.530552 0.680708 0.049746
vt 0.749804 0.999045
vt 0.749804 0.375743
vt 0.716720 0.375743
vt 0.716720 0.999045
vt 0.716720 0.519158
vt 0.716720 0.999045
vt 0.733262 0.999045
vt 0.733262 0.519158
vt 0.749804 0.999045
vt 0.749804 0.519158
vt 0.733262 0.999045
vt 0.733262 0.519158
vt 0.522786 0.778967
vt 0.522803 0.759470
vt 0.503305 0.759453
vt 0.503289 0.778950
vt 0.749804 0.999045
vt 0.749804 0.375743
vt 0.716720 0.375743
vt 0.716720 0.999045
vt 0.749804 0.999045
vt 0.749804 0.519158
vt 0.716720 0.519158
vt 0.716720 0.999045
vt 0.749804 0.999045
vt 0.749804 0.519158
vt 0.716720 0.519158
vt 0.716720 0.999045
vt 0.749804 0.999045
vt 0.749804 0.519158
vt 0.716720 0.519158
vt 0.716720 0.999045
vt 0.749804 0.999045
vt 0.749804 0.519158
vt 0.716720 0.519158
vt 0.716720 0.999045
vt 0.749804 0.999045
vt 0.749804 0.689397
vt 0.716720 0.689397
vt 0.716720 0.999045
vt 0.749804 0.999045
vt 0.749804 0.848495
vt 0.716720 0.848495
vt 0.716720 0.999045
vt 0.749804 0.848527
vt 0.749804 0.519158
vt 0.716720 0.519158
vt 0.716720 0.848527
vt 0.749804 0.689526
vt 0.749804 0.519158
vt 0.716720 0.519158
vt 0.716720 0.689526
vt 0.749804 0.999045
vt 0.749804 0.519158
vt 0.716720 0.519158
vt 0.716720 0.999045
vt 0.749804 0.999045
vt 0.749804 0.519158
vt 0.716720 0.519158
vt 0.716720 0.999045
vt 0.749804 0.999045
vt 0.749804 0.519158
vt 0.716720 0.519158
vt 0.716720 0.999045
vt 0.749804 0.999045
vt 0.749804 0.519158
vt 0.716720 0.519158
vt 0.716720 0.999045
vt 0.749804 0.999045
vt 0.749804 0.519158
vt 0.716720 0.519158
vt 0.716720 0.999045
vt 0.749804 0.999045
vt 0.749804 0.519158
vt 0.716720 0.519158
vt 0.716720 0.999045
vt 0.749804 0.999045
vt 0.749804 0.519158
vt 0.716720 0.519158
vt 0.716720 0.999045
vt 0.749804 0.999045
vt 0.749804 0.685416
vt 0.716720 0.685416
vt 0.716720 0.999045
vt 0.749804 0.999045
vt 0.749804 0.519158
vt 0.716720 0.519158
vt 0.716720 0.999045
vt 0.749804 0.999045
vt 0.749804 0.843382
vt 0.716720 0.843382
vt 0.716720 0.999045
vt 0.749804 0.848526
vt 0.749804 0.519158
vt 0.716720 0.519158
vt 0.716720 0.848526
vt 0.749804 0.690646
vt 0.749804 0.519158
vt 0.716720 0.519158
vt 0.716720 0.690646
vt 0.716720 0.519158
vt 0.716720 0.999045
vt 0.733262 0.999045
vt 0.733262 0.519158
vt 0.749804 0.999045
vt 0.749804 0.519158
vt 0.733262 0.999045
vt 0.733262 0.519158
vt 0.522786 0.778967
vt 0.522803 0.759470
vt 0.503305 0.759453
vt 0.503289 0.778950
vn 0.000000 0.000000 1.000000
vn 0.000000 0.000000 1.000000
vn 0.000000 0.000000 1.000000
vn 0.000000 0.000000 1.000000
vn 1.000000 0.000000 0.000000
vn 1.000000 0.000000 0.000000
vn 0.000000 0.000000 1.000000
vn 0.000000 0.000000 1.000000
vn -1.000000 0.000000 0.000000
vn -1.000000 0.000000 0.000000
vn 0.000000 0.000000 -1.000000
vn 0.000000 0.000000 -1.000000
vn 0.000000 1.000000 0.000000
vn 0.000000 1.000000 0.000000
vn 0.000000 1.000000 0.000000
vn 0.000000 1.000000 0.000000
vn 0.000000 0.000000 1.000000
vn 0.000000 0.000000 1.000000
vn 0.000000 0.000000 1.000000
vn 0.000000 0.000000 1.000000
vn -0.000000 0.000000 1.000000
vn -0.000000 0.000000 1.000000
vn -0.000000 0.000000 1.000000
vn -0.000000 0.000000 1.000000
vn -0.000000 0.000000 1.000000
vn -0.000000 0.000000 1.000000
vn -0.000000 0.000000 1.000000
vn -0.000000 0.000000 1.000000
vn -0.000000 0.000000 1.000000
vn -0.000000 0.000000 1.000000
vn -0.000000 0.000000 1.000000
vn -0.000000 0.000000 1.000000
vn -0.000000 0.000000 1.000000
vn -0.000000 0.000000 1.000000
vn -0.000000 0.000000 1.000000
vn -0.000000 0.000000 1.000000
vn -0.000000 0.000000 1.000000
vn -0.000000 0.000000 1.000000
vn -0.000000 0.000000 1.000000
vn -0.000000 0.000000 1.000000
vn -0.000000 0.000000 1.000000
vn -0.000000 0.000000 1.000000
vn -0.000000 0.000000 1.000000
vn -0.000000 0.000000 1.000000
vn -0.000000 0.000000 1.000000
vn -0.000000 0.000000 1.000000
vn -0.000000 0.000000 1.000000
vn -0.000000 0.000000 1.000000
vn -0.000000 0.000000 1.000000
vn -0.000000 0.000000 1.000000
vn -0.000000 0.000000 1.000000
vn -0.000000 0.000000 1.000000
vn -0.000000 0.000000 1.000000
vn -0.000000 0.000000 1.000000
vn -0.000000 0.000000 1.000000
vn -0.000000 0.000000 1.000000
vn -0.000000 0.000000 1.000000
vn -0.000000 0.000000 1.000000
vn -0.000000 0.000000 1.000000
vn -0.000000 0.000000 1.000000
vn -0.000000 0.000000 1.000000
vn -0.000000 0.000000 1.000000
vn -0.000000 0.000000 1.000000
vn -0.000000 0.000000 1.000000
vn -0.000000 0.000000 1.000000
vn -0.000000 0.000000 1.000000
vn -0.000000 0.000000 1.000000
vn -0.000000 0.000000 1.000000
vn -0.000000 0.000000 1.000000
vn -0.000000 0.000000 1.000000
vn -0.000000 0.000000 1.000000
vn -0.000000 0.000000 1.000000
vn -0.000000 0.000000 1.000000
vn -0.000000 0.000000 1.000000
vn -0.000000 0.000000 1.000000
vn -0.000000 0.000000 1.000000
vn -0.000000 0.000000 1.000000
vn -0.000000 0.000000 1.000000
vn -0.000000 0.000000 1.000000
vn -0.000000 0.000000 1.000000
vn -0.000000 0.000000 1.000000
vn -0.000000 0.000000 1.000000
vn -0.000000 0.000000 1.000000
vn -0.000000 0.000000 1.000000
vn -0.000000 0.000000 1.000000
vn -0.000000 0.000000 1.000000
vn -0.000000 0.000000 1.000000
vn -0.000000 0.000000 1.000000
vn -0.000000 0.000000 1.000000
vn -0.000000 0.000000 1.000000
vn -0.000000 0.000000 1.000000
vn -0.000000 0.000000 1.000000
vn -0.000000 0.000000 1.000000
vn -0.000000 0.000000 1.000000
vn -0.000000 0.000000 1.000000
vn -0.000000 0.000000 1.000000
vn -0.000000 0.000000 1.000000
vn -0.000000 0.000000 1.000000
vn -0.000000 0.000000 1.000000
vn -0.000000 0.000000 1.000000
vn 1.000000 0.000000 0.000000
vn 1.000000 0.000000 0.000000
vn 0.000000 0.000000 1.000000
vn 0.000000 0.000000 1.000000
vn -1.000000 0.000000 0.000000
vn -1.000000 0.000000 0.000000
vn 0.000000 0.000000 -1.000000
vn 0.000000 0.000000 -1.000000
vn 0.000000 1.000000 0.000000
vn 0.000000 1.000000 0.000000
vn 0.000000 1.000000 0.000000
vn 0.000000 1.000000 0.000000
usemtl material
f 1/0/1 2/0/2 3/0/3
f 1/0/1 3/0/3 4/0/4
f 5/0/5 6/0/6 7/0/7
f 5/0/5 7/0/7 8/0/8
f 8/0/8 7/0/7 9/0/9
f 8/0/8 9/0/9 10/0/10
f 10/0/10 9/0/9 11/0/11
f 10/0/10 11/0/11 12/0/12
f 12/0/12 11/0/11 6/0/6
f 12/0/12 6/0/6 5/0/5
f 13/0/13 14/0/14 15/0/15
f 13/0/13 15/0/15 16/0/16
f 17/0/17 18/0/18 19/0/19
f 17/0/17 19/0/19 20/0/20
f 21/0/21 22/0/22 23/0/23
f 21/0/21 23/0/23 24/0/24
f 25/0/25 26/0/26 27/0/27
f 25/0/25 27/0/27 28/0/28
f 29/0/29 30/0/30 31/0/31
f 29/0/29 31/0/31 32/0/32
f 33/0/33 34/0/34 35/0/35
f 33/0/33 35/0/35 36/0/36
f 37/0/37 38/0/38 39/0/39
f 37/0/37 39/0/39 40/0/40
f 41/0/41 42/0/42 43/0/43
f 41/0/41 43/0/43 44/0/44
f 45/0/45 46/0/46 47/0/47
f 45/0/45 47/0/47 48/0/48
f 49/0/49 50/0/50 51/0/51
f 49/0/49 51/0/51 52/0/52
f 53/0/53 54/0/54 55/0/55
f 53/0/53 55/0/55 56/0/56
f 57/0/57 58/0/58 59/0/59
f 57/0/57 59/0/59 60/0/60
f 61/0/61 62/0/62 63/0/63
f 61/0/61 63/0/63 64/0/64
f 65/0/65 66/0/66 67/0/67
f 65/0/65 67/0/67 68/0/68
f 69/0/69 70/0/70 71/0/71
f 69/0/69 71/0/71 72/0/72
f 73/0/73 74/0/74 75/0/75
f 73/0/73 75/0/75 76/0/76
f 77/0/77 78/0/78 79/0/79
f 77/0/77 79/0/79 80/0/80
f 81/0/81 82/0/82 83/0/83
f 81/0/81 83/0/83 84/0/84
f 85/0/85 86/0/86 87/0/87
f 85/0/85 87/0/87 88/0/88
f 89/0/89 90/0/90 91/0/91
f 89/0/89 91/0/91 92/0/92
f 93/0/93 94/0/94 95/0/95
f 93/0/93 95/0/95 96/0/96
f 97/0/97 98/0/98 99/0/99
f 97/0/97 99/0/99 100/0/100
f 101/0/101 102/0/102 103/0/103
f 101/0/101 103/0/103 104/0/104
f 104/0/104 103/0/103 105/0/105
f 104/0/104 105/0/105 106/0/106
f 106/0/106 105/0/105 107/0/107
f 106/0/106 107/0/107 108/0/108
f 108/0/108 107/0/107 102/0/102
f 108/0/108 102/0/102 101/0/101
f 109/0/109 110/0/110 111/0/111
f 109/0/109 111/0/111 112/0/112
