# 
# Wavefront OBJ file
# Created with Kaydara FBX
# 
mtllib item05.mtl

g Item05
v -0.144993 -0.402165 -0.105344
v -0.197418 -0.237656 -0.143433
v -0.075407 -0.237656 -0.232079
v -0.055382 -0.402165 -0.170450
v 0.075407 -0.237656 -0.232079
v 0.055383 -0.402165 -0.170450
v 0.197418 -0.237656 -0.143433
v 0.144993 -0.402165 -0.105344
v 0.244022 -0.237656 -0.000000
v 0.179221 -0.402165 -0.000000
v -0.179221 -0.402165 -0.000000
v -0.244022 -0.237656 -0.000000
v -0.095333 -0.069493 -0.293403
v -0.249584 -0.069493 -0.181333
v 0.095333 -0.069493 -0.293403
v 0.249584 -0.069493 -0.181333
v 0.308503 -0.069493 -0.000000
v -0.308503 -0.069493 -0.000000
v -0.101429 0.094605 -0.312168
v -0.265546 0.094605 -0.192930
v 0.101430 0.094605 -0.312168
v 0.265545 0.094605 -0.192930
v 0.328232 0.094605 -0.000000
v -0.328232 0.094605 -0.000000
v -0.086686 0.234857 -0.266793
v -0.226948 0.234857 -0.164887
v 0.086686 0.234857 -0.266793
v 0.226948 0.234857 -0.164887
v 0.280523 0.234857 -0.000000
v -0.280523 0.234857 -0.000000
v 0.178107 0.347009 -0.000096
v 0.143855 0.347009 -0.105514
v 0.192248 0.372431 -0.000096
v 0.155296 0.372431 -0.113826
v 0.054181 0.347009 -0.170666
v 0.058551 0.372431 -0.184115
v -0.056662 0.347009 -0.170666
v -0.061033 0.372431 -0.184115
v -0.146337 0.347009 -0.105514
v -0.157778 0.372431 -0.113826
v -0.180589 0.347009 -0.000096
v -0.194731 0.372431 -0.000096
v -0.056839 0.402165 -0.171209
v -0.146799 0.402165 -0.105849
v -0.181160 0.402165 -0.000096
v 0.178678 0.402165 -0.000096
v 0.144317 0.402165 -0.105849
v 0.054357 0.402165 -0.171209
v 0.179221 -0.402165 -0.000000
v 0.244022 -0.237656 -0.000000
v 0.197418 -0.237656 0.143433
v 0.144993 -0.402165 0.105344
v 0.075407 -0.237656 0.232079
v 0.055383 -0.402165 0.170450
v -0.075407 -0.237656 0.232079
v -0.055382 -0.402165 0.170450
v -0.197418 -0.237656 0.143433
v -0.144993 -0.402165 0.105344
v -0.244022 -0.237656 -0.000000
v -0.179221 -0.402165 -0.000000
v 0.249584 -0.069493 0.181333
v 0.308503 -0.069493 -0.000000
v 0.095333 -0.069493 0.293403
v -0.095333 -0.069493 0.293403
v -0.249584 -0.069493 0.181333
v -0.308503 -0.069493 -0.000000
v 0.265545 0.094605 0.192930
v 0.328232 0.094605 -0.000000
v 0.101429 0.094605 0.312168
v -0.101429 0.094605 0.312167
v -0.265545 0.094605 0.192930
v -0.328232 0.094605 -0.000000
v 0.226948 0.234857 0.164887
v 0.280523 0.234857 -0.000000
v 0.086686 0.234857 0.266793
v -0.086686 0.234857 0.266793
v -0.226948 0.234857 0.164887
v -0.280523 0.234857 -0.000000
v 0.054180 0.347009 0.170475
v 0.143855 0.347009 0.105323
v 0.058551 0.372431 0.183924
v 0.155296 0.372431 0.113635
v 0.178107 0.347009 -0.000096
v 0.192248 0.372431 -0.000096
v -0.061033 0.372431 0.183924
v -0.056662 0.347009 0.170475
v -0.157778 0.372431 0.113635
v -0.146337 0.347009 0.105323
v -0.194731 0.372431 -0.000096
v -0.180589 0.347009 -0.000096
v -0.181160 0.402165 -0.000096
v -0.146799 0.402165 0.105658
v -0.056839 0.402165 0.171018
v 0.054357 0.402165 0.171018
v 0.144317 0.402165 0.105658
v 0.178678 0.402165 -0.000096
v -0.181160 0.402165 -0.000096
v -0.150893 0.402165 -0.000096
v -0.122312 0.402165 -0.088059
v -0.146799 0.402165 -0.105849
v -0.047486 0.402165 -0.142423
v -0.056839 0.402165 -0.171209
v 0.045004 0.402165 -0.142423
v 0.054357 0.402165 -0.171209
v 0.119830 0.402165 -0.088059
v 0.144317 0.402165 -0.105849
v 0.148411 0.402165 -0.000096
v 0.178678 0.402165 -0.000096
v 0.178678 0.402165 -0.000096
v 0.148411 0.402165 -0.000096
v 0.119830 0.402165 0.087868
v 0.144317 0.402165 0.105658
v 0.045004 0.402165 0.142232
v 0.054357 0.402165 0.171018
v -0.047486 0.402165 0.142232
v -0.056839 0.402165 0.171018
v -0.122312 0.402165 0.087868
v -0.146799 0.402165 0.105658
v -0.150893 0.402165 -0.000096
v -0.181160 0.402165 -0.000096
v -0.150893 0.402165 -0.000096
v -0.001241 0.027022 -0.000095
v -0.122312 0.402165 -0.088059
v -0.047486 0.402165 -0.142423
v 0.045004 0.402165 -0.142423
v 0.119830 0.402165 -0.088059
v 0.148411 0.402165 -0.000096
v 0.148411 0.402165 -0.000096
v 0.119830 0.402165 0.087868
v 0.045004 0.402165 0.142232
v -0.047486 0.402165 0.142232
v -0.122312 0.402165 0.087868
v -0.150893 0.402165 -0.000096
vt 0.049568 0.250687
vt 0.049567 0.310270
vt 0.098443 0.310270
vt 0.098444 0.250687
vt 0.147319 0.310270
vt 0.147320 0.250687
vt 0.196195 0.310270
vt 0.196197 0.250687
vt 0.245071 0.310270
vt 0.245073 0.250687
vt 0.000691 0.250687
vt 0.000691 0.310270
vt 0.098442 0.356751
vt 0.049566 0.356751
vt 0.147318 0.356751
vt 0.196194 0.356751
vt 0.245070 0.356751
vt 0.000691 0.356751
vt 0.098441 0.393986
vt 0.049566 0.393986
vt 0.147317 0.393986
vt 0.196193 0.393986
vt 0.245069 0.393986
vt 0.000691 0.393986
vt 0.098440 0.428695
vt 0.049565 0.428695
vt 0.147316 0.428695
vt 0.196192 0.428695
vt 0.245068 0.428695
vt 0.000691 0.428695
vt 0.245073 0.475080
vt 0.196197 0.475080
vt 0.245073 0.484411
vt 0.196197 0.484411
vt 0.147315 0.475080
vt 0.147315 0.484411
vt 0.098439 0.475079
vt 0.098439 0.484411
vt 0.049569 0.475078
vt 0.049569 0.484410
vt 0.000691 0.475079
vt 0.000691 0.484410
vt 0.098439 0.491316
vt 0.049569 0.491316
vt 0.000691 0.491316
vt 0.245073 0.491317
vt 0.196197 0.491316
vt 0.147315 0.491316
vt 0.000693 0.250687
vt 0.000693 0.310270
vt 0.049569 0.310270
vt 0.049569 0.250687
vt 0.098445 0.310270
vt 0.098445 0.250687
vt 0.147321 0.310270
vt 0.147321 0.250687
vt 0.196197 0.310270
vt 0.196197 0.250687
vt 0.245073 0.310270
vt 0.245073 0.250687
vt 0.049569 0.356751
vt 0.000693 0.356751
vt 0.098445 0.356751
vt 0.147321 0.356751
vt 0.196197 0.356751
vt 0.245073 0.356751
vt 0.049569 0.393986
vt 0.000693 0.393986
vt 0.098445 0.393986
vt 0.147321 0.393986
vt 0.196197 0.393986
vt 0.245073 0.393986
vt 0.049569 0.428695
vt 0.000693 0.428695
vt 0.098445 0.428695
vt 0.147321 0.428695
vt 0.196197 0.428695
vt 0.245073 0.428695
vt 0.098439 0.475080
vt 0.049569 0.475080
vt 0.098439 0.484411
vt 0.049569 0.484411
vt 0.000691 0.475080
vt 0.000691 0.484411
vt 0.147315 0.484411
vt 0.147315 0.475080
vt 0.196197 0.484411
vt 0.196197 0.475080
vt 0.245073 0.484411
vt 0.245073 0.475080
vt 0.245073 0.491317
vt 0.196197 0.491317
vt 0.147315 0.491317
vt 0.098439 0.491317
vt 0.049569 0.491317
vt 0.000691 0.491317
vt 0.000691 0.491316
vt 0.000691 0.496092
vt 0.049567 0.496093
vt 0.049569 0.491316
vt 0.098440 0.496093
vt 0.098439 0.491316
vt 0.147316 0.496093
vt 0.147315 0.491316
vt 0.196196 0.496093
vt 0.196197 0.491316
vt 0.245073 0.496093
vt 0.245073 0.491317
vt 0.000691 0.491317
vt 0.000691 0.496093
vt 0.049567 0.496093
vt 0.049569 0.491317
vt 0.098440 0.496094
vt 0.098439 0.491317
vt 0.147316 0.496094
vt 0.147315 0.491317
vt 0.196196 0.496093
vt 0.196197 0.491317
vt 0.245073 0.496093
vt 0.245073 0.491317
vt 0.000691 0.496092
vt 0.122880 0.501135
vt 0.049567 0.496093
vt 0.098440 0.496093
vt 0.147316 0.496093
vt 0.196196 0.496093
vt 0.245073 0.496093
vt 0.000691 0.496093
vt 0.049567 0.496093
vt 0.098440 0.496094
vt 0.147316 0.496094
vt 0.196196 0.496093
vt 0.245073 0.496093
vn -0.752725 -0.366498 -0.546886
vn -0.754346 -0.361370 -0.548064
vn -0.288134 -0.361370 -0.886787
vn -0.287515 -0.366497 -0.884881
vn 0.288134 -0.361369 -0.886787
vn 0.287516 -0.366496 -0.884882
vn 0.754346 -0.361369 -0.548064
vn 0.752726 -0.366496 -0.546886
vn 0.932423 -0.361369 0.000000
vn 0.930420 -0.366496 0.000000
vn -0.930418 -0.366499 0.000000
vn -0.932422 -0.361370 0.000000
vn -0.300632 -0.231368 -0.925251
vn -0.787066 -0.231368 -0.571836
vn 0.300632 -0.231368 -0.925251
vn 0.787066 -0.231368 -0.571836
vn 0.972866 -0.231367 0.000000
vn -0.972866 -0.231368 0.000000
vn -0.307981 0.081776 -0.947871
vn -0.806308 0.081776 -0.585816
vn 0.307982 0.081776 -0.947871
vn 0.806308 0.081776 -0.585816
vn 0.996651 0.081776 0.000000
vn -0.996651 0.081775 0.000001
vn -0.273190 0.464346 -0.842467
vn -0.716827 0.463187 -0.521169
vn 0.273952 0.465856 -0.841385
vn 0.715531 0.467140 -0.519419
vn 0.883881 0.467712 0.000043
vn -0.886449 0.462827 0.000043
vn 0.822505 0.568757 -0.000078
vn 0.665737 0.567497 -0.484502
vn 0.999982 -0.006080 -0.000000
vn 0.809003 -0.006079 -0.587773
vn 0.254091 0.564669 -0.785230
vn 0.309011 -0.006078 -0.951039
vn -0.256643 0.561340 -0.786786
vn -0.309012 -0.006078 -0.951039
vn -0.671247 0.558783 -0.487020
vn -0.809002 -0.006079 -0.587774
vn -0.829847 0.557991 -0.000080
vn -0.999982 -0.006078 0.000000
vn -0.281121 0.415210 -0.865200
vn -0.735982 0.415212 -0.534724
vn -0.909725 0.415212 0.000000
vn 0.909725 0.415212 -0.000000
vn 0.735983 0.415212 -0.534723
vn 0.281121 0.415210 -0.865200
vn 0.930420 -0.366496 0.000000
vn 0.932423 -0.361369 0.000000
vn 0.754346 -0.361369 0.548064
vn 0.752726 -0.366496 0.546886
vn 0.288134 -0.361369 0.886787
vn 0.287516 -0.366496 0.884882
vn -0.288134 -0.361370 0.886787
vn -0.287515 -0.366497 0.884881
vn -0.754346 -0.361370 0.548064
vn -0.752725 -0.366498 0.546886
vn -0.932422 -0.361370 0.000000
vn -0.930418 -0.366499 0.000000
vn 0.787066 -0.231367 0.571836
vn 0.972866 -0.231367 0.000000
vn 0.300632 -0.231368 0.925251
vn -0.300632 -0.231368 0.925251
vn -0.787066 -0.231367 0.571836
vn -0.972866 -0.231368 0.000000
vn 0.806308 0.081776 0.585816
vn 0.996651 0.081776 0.000000
vn 0.307982 0.081776 0.947871
vn -0.307982 0.081776 0.947871
vn -0.806307 0.081776 0.585817
vn -0.996651 0.081775 0.000001
vn 0.715396 0.467359 0.519407
vn 0.883881 0.467712 0.000043
vn 0.273869 0.466213 0.841214
vn -0.273108 0.464704 0.842296
vn -0.716692 0.463409 0.521157
vn -0.886449 0.462827 0.000043
vn 0.253972 0.565454 0.784703
vn 0.665542 0.567979 0.484204
vn 0.309012 -0.006077 0.951039
vn 0.809003 -0.006079 0.587773
vn 0.822505 0.568757 -0.000078
vn 0.999982 -0.006080 -0.000000
vn -0.309012 -0.006076 0.951039
vn -0.256523 0.562130 0.786260
vn -0.809002 -0.006078 0.587774
vn -0.671055 0.559274 0.486722
vn -0.999982 -0.006078 0.000000
vn -0.829847 0.557991 -0.000080
vn -0.909725 0.415212 0.000000
vn -0.735982 0.415214 0.534723
vn -0.281121 0.415215 0.865198
vn 0.281120 0.415214 0.865199
vn 0.735983 0.415213 0.534722
vn 0.909725 0.415212 -0.000000
vn 0.000000 1.000000 0.000001
vn 0.000000 1.000000 0.000001
vn 0.000000 1.000000 0.000001
vn 0.000000 1.000000 0.000001
vn 0.000000 1.000000 0.000003
vn 0.000000 1.000000 0.000003
vn 0.000000 1.000000 -0.000003
vn 0.000000 1.000000 -0.000003
vn 0.000000 1.000000 0.000001
vn 0.000000 1.000000 0.000001
vn 0.000000 1.000000 -0.000001
vn 0.000000 1.000000 -0.000001
vn 0.000000 1.000000 -0.000001
vn 0.000000 1.000000 -0.000001
vn 0.000000 1.000000 0.000001
vn 0.000000 1.000000 0.000001
vn 0.000000 1.000000 -0.000003
vn 0.000000 1.000000 -0.000003
vn 0.000000 1.000000 0.000001
vn 0.000000 1.000000 0.000001
vn 0.000000 1.000000 -0.000001
vn 0.000000 1.000000 -0.000001
vn 0.000000 1.000000 0.000001
vn 0.000000 1.000000 0.000001
vn 0.928822 0.370526 -0.000000
vn 0.000000 1.000000 -0.000000
vn 0.751432 0.370526 0.545949
vn 0.287022 0.370526 0.883362
vn -0.287022 0.370526 0.883362
vn -0.751433 0.370526 0.545947
vn -0.928822 0.370526 0.000000
vn -0.928822 0.370526 0.000000
vn -0.751434 0.370526 -0.545947
vn -0.287022 0.370526 -0.883362
vn 0.287022 0.370526 -0.883362
vn 0.751432 0.370526 -0.545949
vn 0.928822 0.370526 -0.000000
usemtl material
f 1/0/1 2/0/2 3/0/3
f 1/0/1 3/0/3 4/0/4
f 4/0/4 3/0/3 5/0/5
f 4/0/4 5/0/5 6/0/6
f 6/0/6 5/0/5 7/0/7
f 6/0/6 7/0/7 8/0/8
f 8/0/8 7/0/7 9/0/9
f 8/0/8 9/0/9 10/0/10
f 11/0/11 2/0/2 1/0/1
f 11/0/11 12/0/12 2/0/2
f 2/0/2 13/0/13 3/0/3
f 2/0/2 14/0/14 13/0/13
f 12/0/12 14/0/14 2/0/2
f 3/0/3 13/0/13 15/0/15
f 3/0/3 15/0/15 5/0/5
f 5/0/5 15/0/15 16/0/16
f 5/0/5 16/0/16 7/0/7
f 7/0/7 16/0/16 17/0/17
f 7/0/7 17/0/17 9/0/9
f 12/0/12 18/0/18 14/0/14
f 14/0/14 19/0/19 13/0/13
f 14/0/14 20/0/20 19/0/19
f 18/0/18 20/0/20 14/0/14
f 13/0/13 19/0/19 21/0/21
f 13/0/13 21/0/21 15/0/15
f 15/0/15 21/0/21 22/0/22
f 15/0/15 22/0/22 16/0/16
f 16/0/16 22/0/22 23/0/23
f 16/0/16 23/0/23 17/0/17
f 18/0/18 24/0/24 20/0/20
f 20/0/20 25/0/25 19/0/19
f 20/0/20 26/0/26 25/0/25
f 24/0/24 26/0/26 20/0/20
f 19/0/19 25/0/25 27/0/27
f 19/0/19 27/0/27 21/0/21
f 21/0/21 27/0/27 28/0/28
f 21/0/21 28/0/28 22/0/22
f 22/0/22 28/0/28 29/0/29
f 22/0/22 29/0/29 23/0/23
f 24/0/24 30/0/30 26/0/26
f 28/0/28 31/0/31 29/0/29
f 28/0/28 32/0/32 31/0/31
f 27/0/27 32/0/32 28/0/28
f 32/0/32 33/0/33 31/0/31
f 32/0/32 34/0/34 33/0/33
f 35/0/35 34/0/34 32/0/32
f 27/0/27 35/0/35 32/0/32
f 25/0/25 35/0/35 27/0/27
f 35/0/35 36/0/36 34/0/34
f 37/0/37 36/0/36 35/0/35
f 25/0/25 37/0/37 35/0/35
f 26/0/26 37/0/37 25/0/25
f 37/0/37 38/0/38 36/0/36
f 39/0/39 38/0/38 37/0/37
f 26/0/26 39/0/39 37/0/37
f 30/0/30 39/0/39 26/0/26
f 39/0/39 40/0/40 38/0/38
f 41/0/41 40/0/40 39/0/39
f 30/0/30 41/0/41 39/0/39
f 41/0/41 42/0/42 40/0/40
f 40/0/40 43/0/43 38/0/38
f 40/0/40 44/0/44 43/0/43
f 42/0/42 44/0/44 40/0/40
f 42/0/42 45/0/45 44/0/44
f 34/0/34 46/0/46 33/0/33
f 34/0/34 47/0/47 46/0/46
f 36/0/36 47/0/47 34/0/34
f 36/0/36 48/0/48 47/0/47
f 38/0/38 43/0/43 48/0/48
f 38/0/38 48/0/48 36/0/36
f 49/0/49 50/0/50 51/0/51
f 49/0/49 51/0/51 52/0/52
f 52/0/52 51/0/51 53/0/53
f 52/0/52 53/0/53 54/0/54
f 54/0/54 53/0/53 55/0/55
f 54/0/54 55/0/55 56/0/56
f 56/0/56 55/0/55 57/0/57
f 56/0/56 57/0/57 58/0/58
f 58/0/58 57/0/57 59/0/59
f 58/0/58 59/0/59 60/0/60
f 50/0/50 61/0/61 51/0/51
f 50/0/50 62/0/62 61/0/61
f 51/0/51 61/0/61 63/0/63
f 51/0/51 63/0/63 53/0/53
f 53/0/53 63/0/63 64/0/64
f 53/0/53 64/0/64 55/0/55
f 55/0/55 64/0/64 65/0/65
f 55/0/55 65/0/65 57/0/57
f 57/0/57 65/0/65 66/0/66
f 57/0/57 66/0/66 59/0/59
f 62/0/62 67/0/67 61/0/61
f 62/0/62 68/0/68 67/0/67
f 61/0/61 67/0/67 69/0/69
f 61/0/61 69/0/69 63/0/63
f 63/0/63 69/0/69 70/0/70
f 63/0/63 70/0/70 64/0/64
f 64/0/64 70/0/70 71/0/71
f 64/0/64 71/0/71 65/0/65
f 65/0/65 71/0/71 72/0/72
f 65/0/65 72/0/72 66/0/66
f 68/0/68 73/0/73 67/0/67
f 68/0/68 74/0/74 73/0/73
f 67/0/67 73/0/73 75/0/75
f 67/0/67 75/0/75 69/0/69
f 69/0/69 75/0/75 76/0/76
f 69/0/69 76/0/76 70/0/70
f 70/0/70 76/0/76 77/0/77
f 70/0/70 77/0/77 71/0/71
f 71/0/71 77/0/77 78/0/78
f 71/0/71 78/0/78 72/0/72
f 73/0/73 79/0/79 75/0/75
f 73/0/73 80/0/80 79/0/79
f 74/0/74 80/0/80 73/0/73
f 80/0/80 81/0/81 79/0/79
f 80/0/80 82/0/82 81/0/81
f 83/0/83 82/0/82 80/0/80
f 74/0/74 83/0/83 80/0/80
f 83/0/83 84/0/84 82/0/82
f 79/0/79 81/0/81 85/0/85
f 79/0/79 85/0/85 86/0/86
f 75/0/75 79/0/79 86/0/86
f 75/0/75 86/0/86 76/0/76
f 86/0/86 85/0/85 87/0/87
f 86/0/86 87/0/87 88/0/88
f 76/0/76 86/0/86 88/0/88
f 76/0/76 88/0/88 77/0/77
f 88/0/88 87/0/87 89/0/89
f 88/0/88 89/0/89 90/0/90
f 77/0/77 88/0/88 90/0/90
f 77/0/77 90/0/90 78/0/78
f 87/0/87 91/0/91 89/0/89
f 87/0/87 92/0/92 91/0/91
f 85/0/85 92/0/92 87/0/87
f 85/0/85 93/0/93 92/0/92
f 81/0/81 93/0/93 85/0/85
f 81/0/81 94/0/94 93/0/93
f 82/0/82 94/0/94 81/0/81
f 82/0/82 95/0/95 94/0/94
f 84/0/84 95/0/95 82/0/82
f 84/0/84 96/0/96 95/0/95
f 97/0/97 98/0/98 99/0/99
f 97/0/97 99/0/99 100/0/100
f 100/0/100 99/0/99 101/0/101
f 100/0/100 101/0/101 102/0/102
f 102/0/102 101/0/101 103/0/103
f 102/0/102 103/0/103 104/0/104
f 104/0/104 103/0/103 105/0/105
f 104/0/104 105/0/105 106/0/106
f 106/0/106 105/0/105 107/0/107
f 106/0/106 107/0/107 108/0/108
f 109/0/109 110/0/110 111/0/111
f 109/0/109 111/0/111 112/0/112
f 112/0/112 111/0/111 113/0/113
f 112/0/112 113/0/113 114/0/114
f 114/0/114 113/0/113 115/0/115
f 114/0/114 115/0/115 116/0/116
f 116/0/116 115/0/115 117/0/117
f 116/0/116 117/0/117 118/0/118
f 118/0/118 117/0/117 119/0/119
f 118/0/118 119/0/119 120/0/120
f 121/0/121 122/0/122 123/0/123
f 123/0/123 122/0/122 124/0/124
f 124/0/124 122/0/122 125/0/125
f 125/0/125 122/0/122 126/0/126
f 126/0/126 122/0/122 127/0/127
f 128/0/128 122/0/122 129/0/129
f 129/0/129 122/0/122 130/0/130
f 130/0/130 122/0/122 131/0/131
f 131/0/131 122/0/122 132/0/132
f 132/0/132 122/0/122 133/0/133
