# 
# Wavefront OBJ file
# Created with Kaydara FBX
# 
mtllib item02_part_4.mtl

g Item02_Part_4
v -0.002449 -0.074129 -0.155454
v -0.043421 -0.182154 -0.024211
v -0.113255 -0.074129 -0.074949
v 0.024225 -0.182154 -0.073358
v -0.016863 0.061870 -0.199817
v -0.040967 -0.239362 -0.022428
v 0.025162 -0.239362 -0.070473
v 0.107839 -0.182154 -0.073358
v 0.106902 -0.239362 -0.070473
v 0.175484 -0.182154 -0.024211
v 0.173031 -0.239362 -0.022428
v 0.201323 -0.182154 0.055310
v 0.198289 -0.239362 0.055310
v 0.175484 -0.182154 0.134832
v 0.173031 -0.239362 0.133049
v 0.107839 -0.182154 0.183979
v 0.106902 -0.239362 0.181095
v 0.024225 -0.182154 0.183979
v 0.109253 -0.176429 0.188330
v 0.025162 -0.239362 0.181095
v 0.018990 -0.160954 0.200091
v -0.043421 -0.182154 0.134832
v -0.040967 -0.239362 0.133049
v -0.069258 -0.182154 0.055310
v -0.066225 -0.239362 0.055310
v -0.043421 -0.182154 -0.024211
v -0.113255 -0.074129 -0.074949
v -0.040967 -0.239362 -0.022428
v -0.155578 -0.074129 0.055310
v -0.150993 0.061870 -0.102367
v -0.202226 0.061870 0.055310
v -0.202320 0.116905 0.055310
v -0.117658 -0.074129 0.172018
v -0.182441 0.195039 -0.006286
v -0.190280 0.061870 0.092074
v -0.148872 0.239362 -0.100827
v 0.173031 -0.239362 0.133049
v 0.173031 -0.239362 -0.022428
v 0.198289 -0.239362 0.055310
v 0.025162 -0.239362 -0.070473
v 0.106902 -0.239362 -0.070473
v 0.025162 -0.239362 0.181095
v -0.066225 -0.239362 0.055310
v -0.040967 -0.239362 -0.022428
v -0.040967 -0.239362 0.133049
v 0.106902 -0.239362 0.181095
v -0.150993 0.061870 -0.102367
v -0.016953 0.228570 -0.200091
v 0.096923 0.061870 -0.199817
v 0.134514 -0.074129 -0.155454
v 0.196812 -0.149162 -0.039707
v 0.166109 -0.074129 -0.132498
v 0.202320 -0.180906 0.055310
v 0.183980 -0.169012 0.141006
v 0.175196 -0.157705 0.158009
v 0.140280 -0.019724 -0.173201
v 0.000336 0.227641 -0.200089
v -0.190280 0.061870 0.092074
v -0.182441 0.195039 -0.006286
v -0.202320 0.116905 0.055310
v -0.029404 -0.138729 -0.062112
v -0.148872 0.239362 -0.100827
v -0.117658 -0.074129 0.172018
v -0.043421 -0.182154 0.134832
v 0.000336 0.227641 -0.200089
v 0.140280 -0.019724 -0.173201
v 0.166109 -0.074129 -0.132498
v 0.202320 -0.180906 0.055310
v 0.175196 -0.157705 0.158009
v 0.109253 -0.176429 0.188330
v 0.018990 -0.160954 0.200091
v -0.043421 -0.182154 0.134832
v 0.196812 -0.149162 -0.039707
v 0.166109 -0.074129 -0.132498
v 0.202320 -0.180906 0.055310
v 0.202320 -0.180906 0.055310
v 0.175196 -0.157705 0.158009
v 0.183980 -0.169012 0.141006
v -0.148872 0.239362 -0.100827
v -0.148872 0.239362 -0.100827
v 0.000336 0.227641 -0.200089
v -0.016953 0.228570 -0.200091
v 0.000336 0.227641 -0.200089
v 0.140280 -0.019724 -0.173201
v 0.096923 0.061870 -0.199817
vt 0.027565 0.057145
vt 0.002929 0.011385
vt 0.002929 0.057145
vt 0.027565 0.011385
vt 0.027565 0.092320
vt 0.002929 0.000199
vt 0.027565 0.000199
vt 0.052203 0.011385
vt 0.052203 0.000199
vt 0.076841 0.011385
vt 0.076841 0.000199
vt 0.101479 0.011385
vt 0.101479 0.000199
vt 0.126060 0.011385
vt 0.126060 0.000199
vt 0.150755 0.011385
vt 0.150755 0.000199
vt 0.175393 0.011385
vt 0.150755 0.013810
vt 0.175393 0.000199
vt 0.175393 0.020366
vt 0.200031 0.011385
vt 0.200031 0.000199
vt 0.224669 0.011385
vt 0.224669 0.000199
vt 0.249305 0.011385
vt 0.249305 0.057145
vt 0.249305 0.000198
vt 0.224669 0.057145
vt 0.249305 0.092320
vt 0.224669 0.092320
vt 0.224669 0.104658
vt 0.202594 0.057145
vt 0.234282 0.122175
vt 0.218924 0.092320
vt 0.249305 0.132382
vt 0.126060 0.000199
vt 0.076841 0.000199
vt 0.101479 0.000199
vt 0.027565 0.000199
vt 0.052203 0.000199
vt 0.175393 0.000199
vt 0.224669 0.000199
vt 0.002929 0.000199
vt 0.200031 0.000199
vt 0.150755 0.000199
vt 0.002929 0.092320
vt 0.027565 0.129692
vt 0.044475 0.092320
vt 0.052203 0.057145
vt 0.076841 0.025361
vt 0.059228 0.057145
vt 0.101479 0.011914
vt 0.126060 0.016952
vt 0.131744 0.021742
vt 0.052203 0.071217
vt 0.030132 0.129484
vt 0.004048 0.098079
vt 0.008745 0.092406
vt 0.005374 0.095400
vt 0.012541 0.107598
vt 0.013337 0.090885
vt 0.001748 0.106449
vt 0.005332 0.111801
vt 0.020814 0.093442
vt 0.022097 0.105952
vt 0.021285 0.109320
vt 0.015971 0.117756
vt 0.011588 0.119846
vt 0.008451 0.118667
vt 0.005349 0.115887
vt 0.005332 0.111801
vt 0.019199 0.114526
vt 0.021285 0.109320
vt 0.015971 0.117756
vt 0.101479 0.011914
vt 0.131744 0.021742
vt 0.126060 0.016952
vt 0.002929 0.132382
vt 0.002929 0.132382
vt 0.030132 0.129484
vt 0.027565 0.129692
vt 0.020814 0.093442
vt 0.022097 0.105952
vt 0.022460 0.101732
vn -0.467979 -0.605066 -0.644120
vn -0.467979 -0.605066 -0.644120
vn -0.467979 -0.605066 -0.644120
vn -0.467982 -0.605064 -0.644120
vn -0.558805 -0.310118 -0.769132
vn -0.587034 -0.050369 -0.807994
vn -0.587034 -0.050369 -0.807994
vn 0.000000 -0.050369 -0.998731
vn 0.000000 -0.050369 -0.998731
vn 0.587035 -0.050358 -0.807994
vn 0.587035 -0.050358 -0.807994
vn 0.949850 -0.050366 -0.308625
vn 0.949850 -0.050366 -0.308625
vn 0.949850 -0.050360 0.308625
vn 0.949850 -0.050360 0.308625
vn 0.587040 -0.050361 0.807990
vn 0.587040 -0.050361 0.807990
vn 0.000000 -0.050358 0.998731
vn 0.467972 -0.605078 0.644114
vn 0.000000 -0.050358 0.998731
vn 0.000000 -0.605081 0.796164
vn -0.467973 -0.605075 0.644116
vn -0.949854 -0.050366 0.308611
vn -0.757211 -0.605064 -0.246026
vn -0.949854 -0.050357 -0.308611
vn -0.467979 -0.605066 -0.644120
vn -0.467979 -0.605066 -0.644120
vn -0.587034 -0.050369 -0.807994
vn -0.757210 -0.605065 -0.246027
vn -0.558802 -0.310121 -0.769133
vn -0.904164 -0.310129 -0.293783
vn -0.951055 -0.001635 -0.309019
vn -0.757211 -0.605063 0.246027
vn -0.951055 -0.001634 -0.309019
vn -0.904164 -0.310129 0.293782
vn -0.600464 0.014114 -0.799527
vn 0.000000 -1.000000 0.000000
vn 0.000000 -1.000000 0.000000
vn 0.000000 -1.000000 0.000000
vn 0.000000 -1.000000 0.000000
vn 0.000000 -1.000000 0.000000
vn -0.000001 -1.000000 0.000000
vn 0.000000 -1.000000 0.000000
vn 0.000000 -1.000000 0.000000
vn -0.000001 -1.000000 0.000000
vn 0.000000 -1.000000 0.000001
vn -0.558802 -0.310121 -0.769133
vn -0.587781 -0.001648 -0.809019
vn -0.000001 -0.001644 -0.999999
vn 0.000000 -0.605067 -0.796175
vn 0.467981 -0.605068 -0.644117
vn 0.467981 -0.605068 -0.644117
vn 0.757252 -0.605003 -0.246052
vn 0.757205 -0.605069 0.246033
vn 0.467968 -0.605073 0.644121
vn -0.000004 -0.310121 -0.950697
vn 0.000035 -0.001620 -0.999999
vn 0.201785 0.574183 0.793471
vn 0.201785 0.574183 0.793471
vn 0.201785 0.574183 0.793471
vn 0.828184 0.300614 0.473015
vn 0.840256 0.310979 0.444141
vn 0.827126 0.537735 0.163412
vn 0.838512 0.516502 0.173562
vn 0.364744 0.302085 0.880742
vn 0.364744 0.302085 0.880742
vn 0.076134 0.620229 0.780717
vn 0.250123 0.956520 -0.150029
vn -0.163978 0.958063 0.235005
vn -0.163978 0.958063 0.235005
vn 0.175208 0.983210 0.051000
vn -0.462820 0.872015 0.159334
vn 0.861050 0.495222 0.115535
vn 0.861050 0.495222 0.115535
vn 0.861050 0.495222 0.115535
vn 0.861046 0.495227 0.115539
vn 0.861046 0.495227 0.115539
vn 0.861046 0.495227 0.115539
vn -0.600464 0.014114 -0.799527
vn 0.053643 0.997867 -0.037193
vn 0.053643 0.997867 -0.037193
vn 0.053643 0.997867 -0.037193
vn 0.855993 0.498974 0.135284
vn 0.855993 0.498974 0.135284
vn 0.855993 0.498974 0.135284
usemtl material
f 1/0/1 2/0/2 3/0/3
f 2/0/2 1/0/1 4/0/4
f 3/0/3 5/0/5 1/0/1
f 4/0/4 6/0/6 2/0/2
f 6/0/6 4/0/4 7/0/7
f 8/0/8 7/0/7 4/0/4
f 7/0/7 8/0/8 9/0/9
f 10/0/10 9/0/9 8/0/8
f 9/0/9 10/0/10 11/0/11
f 12/0/12 11/0/11 10/0/10
f 11/0/11 12/0/12 13/0/13
f 14/0/14 13/0/13 12/0/12
f 13/0/13 14/0/14 15/0/15
f 16/0/16 15/0/15 14/0/14
f 15/0/15 16/0/16 17/0/17
f 18/0/18 17/0/17 16/0/16
f 19/0/19 16/0/16 14/0/14
f 19/0/19 18/0/18 16/0/16
f 17/0/17 18/0/18 20/0/20
f 18/0/18 19/0/19 21/0/21
f 21/0/21 22/0/22 18/0/18
f 22/0/22 20/0/20 18/0/18
f 20/0/20 22/0/22 23/0/23
f 24/0/24 23/0/23 22/0/22
f 23/0/23 24/0/24 25/0/25
f 26/0/26 25/0/25 24/0/24
f 24/0/24 27/0/27 26/0/26
f 25/0/25 26/0/26 28/0/28
f 27/0/27 24/0/24 29/0/29
f 29/0/29 24/0/24 22/0/22
f 29/0/29 30/0/30 27/0/27
f 30/0/30 29/0/29 31/0/31
f 30/0/30 31/0/31 32/0/32
f 29/0/29 22/0/22 33/0/33
f 30/0/30 32/0/32 34/0/34
f 29/0/29 35/0/35 31/0/31
f 35/0/35 29/0/29 33/0/33
f 35/0/35 32/0/32 31/0/31
f 30/0/30 34/0/34 36/0/36
f 37/0/37 38/0/38 39/0/39
f 37/0/37 40/0/40 38/0/38
f 38/0/38 40/0/40 41/0/41
f 37/0/37 42/0/42 40/0/40
f 40/0/40 42/0/42 43/0/43
f 40/0/40 43/0/43 44/0/44
f 43/0/43 42/0/42 45/0/45
f 37/0/37 46/0/46 42/0/42
f 5/0/5 3/0/3 47/0/47
f 47/0/47 48/0/48 5/0/5
f 5/0/5 48/0/48 49/0/49
f 50/0/50 5/0/5 49/0/49
f 1/0/1 5/0/5 50/0/50
f 50/0/50 4/0/4 1/0/1
f 4/0/4 50/0/50 8/0/8
f 8/0/8 50/0/50 10/0/10
f 10/0/10 50/0/50 51/0/51
f 51/0/51 50/0/50 52/0/52
f 53/0/53 10/0/10 51/0/51
f 10/0/10 53/0/53 12/0/12
f 53/0/53 14/0/14 12/0/12
f 14/0/14 53/0/53 54/0/54
f 55/0/55 14/0/14 54/0/54
f 19/0/19 14/0/14 55/0/55
f 50/0/50 49/0/49 56/0/56
f 56/0/56 52/0/52 50/0/50
f 49/0/49 48/0/48 57/0/57
f 58/0/58 59/0/59 60/0/60
f 61/0/61 59/0/59 58/0/58
f 62/0/62 59/0/59 61/0/61
f 61/0/61 58/0/58 63/0/63
f 63/0/63 64/0/64 61/0/61
f 61/0/61 65/0/65 62/0/62
f 66/0/66 65/0/65 61/0/61
f 67/0/67 66/0/66 61/0/61
f 61/0/61 68/0/68 67/0/67
f 61/0/61 69/0/69 68/0/68
f 69/0/69 61/0/61 70/0/70
f 71/0/71 70/0/70 61/0/61
f 61/0/61 72/0/72 71/0/71
f 73/0/73 74/0/74 75/0/75
f 76/0/76 77/0/77 78/0/78
f 48/0/48 47/0/47 79/0/79
f 80/0/80 81/0/81 82/0/82
f 83/0/83 84/0/84 85/0/85
