# 
# Wavefront OBJ file
# Created with Kaydara FBX
# 
mtllib jet_lightbeam01.mtl

g Jet_lightbeam01
v 0.010000 -0.000000 0.005000
v 0.010000 0.000000 -0.005000
v 0.000000 0.000000 -0.005000
v 0.000000 -0.000000 0.005000
v 0.010000 0.004330 -0.002500
v 0.010000 -0.004330 0.002500
v 0.000000 -0.004330 0.002500
v 0.000000 0.004330 -0.002500
v 0.010000 -0.004330 -0.002500
v 0.010000 0.004330 0.002500
v 0.000000 0.004330 0.002500
v 0.000000 -0.004330 -0.002500
vt 0.000000 0.000000
vt 0.000000 1.000000
vt 1.000000 1.000000
vt 1.000000 0.000000
vt 0.000000 0.000000
vt 0.000000 1.000000
vt 1.000000 1.000000
vt 1.000000 0.000000
vt 0.000000 0.000000
vt 0.000000 1.000000
vt 1.000000 1.000000
vt 1.000000 0.000000
vn 0.000000 1.000000 0.000000
vn 0.000000 1.000000 0.000000
vn 0.000000 1.000000 0.000000
vn 0.000000 1.000000 0.000000
vn 0.000000 -0.500000 -0.866025
vn 0.000000 -0.500000 -0.866025
vn 0.000000 -0.500000 -0.866025
vn 0.000000 -0.500000 -0.866025
vn 0.000000 -0.500000 0.866025
vn 0.000000 -0.500000 0.866025
vn 0.000000 -0.500000 0.866025
vn 0.000000 -0.500000 0.866025
usemtl material
f 1/0/1 2/0/2 3/0/3
f 1/0/1 2/0/2 3/0/3
f 1/0/1 3/0/3 4/0/4
f 1/0/1 3/0/3 4/0/4
f 5/0/5 6/0/6 7/0/7
f 5/0/5 6/0/6 7/0/7
f 5/0/5 7/0/7 8/0/8
f 5/0/5 7/0/7 8/0/8
f 9/0/9 10/0/10 11/0/11
f 9/0/9 10/0/10 11/0/11
f 9/0/9 11/0/11 12/0/12
f 9/0/9 11/0/11 12/0/12
