# 
# Wavefront OBJ file
# Created with Kaydara FBX
# 
mtllib kiana_logo01.mtl

g Kiana_logo01
v -0.000035 -0.032701 -0.000064
v -0.030335 -0.032687 -0.000703
v -0.030339 0.001618 -0.002841
v -0.000035 0.001623 -0.003897
v -0.030336 0.032499 0.003897
v -0.000035 0.032701 0.002781
v 0.030338 0.001618 -0.002841
v 0.030339 -0.032687 -0.000703
v 0.030339 0.032499 0.003897
vt 0.500409 0.004235
vt 0.067370 0.004235
vt 0.067370 0.500237
vt 0.500409 0.500237
vt 0.067370 0.994987
vt 0.500409 0.994987
vt 0.931286 0.500237
vt 0.931286 0.004235
vt 0.931286 0.994987
vn 0.000000 -0.086679 -0.996236
vn -0.006850 -0.086677 -0.996213
vn -0.020947 0.057149 -0.998146
vn 0.000000 0.056770 -0.998387
vn -0.035714 0.211501 -0.976725
vn 0.000000 0.211635 -0.977349
vn 0.020898 0.057146 -0.998147
vn 0.006834 -0.086677 -0.996213
vn 0.035632 0.211500 -0.976728
usemtl material
f 1/0/1 2/0/2 3/0/3
f 1/0/1 3/0/3 4/0/4
f 4/0/4 3/0/3 5/0/5
f 4/0/4 5/0/5 6/0/6
f 1/0/1 4/0/4 7/0/7
f 1/0/1 7/0/7 8/0/8
f 4/0/4 6/0/6 9/0/9
f 4/0/4 9/0/9 7/0/7
