# 
# Wavefront OBJ file
# Created with Kaydara FBX
# 
mtllib kiana_logo03.mtl

g Kiana_logo03
v 0.000018 -0.000378 0.001056
v -0.030364 -0.000379 0.000867
v -0.030324 0.032669 -0.018370
v 0.000018 0.032668 -0.016966
v -0.030385 -0.032663 0.017348
v 0.000018 -0.032669 0.018370
v 0.030385 0.032669 -0.018370
v 0.030380 -0.000379 0.000867
v 0.030377 -0.032663 0.017348
vt 0.500409 0.500237
vt 0.067370 0.500237
vt 0.067370 0.994987
vt 0.500409 0.994987
vt 0.067370 0.004235
vt 0.500409 0.004235
vt 0.931286 0.994987
vt 0.931286 0.500237
vt 0.931286 0.004235
vn 0.000000 -0.477695 -0.878526
vn 0.020307 -0.477641 -0.878320
vn 0.022874 -0.490954 -0.870885
vn 0.000000 -0.491077 -0.871116
vn 0.017624 -0.463635 -0.885851
vn 0.000000 -0.463704 -0.885990
vn -0.022872 -0.490942 -0.870892
vn -0.020318 -0.477648 -0.878316
vn -0.017643 -0.463630 -0.885853
usemtl material
f 1/0/1 2/0/2 3/0/3
f 1/0/1 3/0/3 4/0/4
f 5/0/5 2/0/2 1/0/1
f 5/0/5 1/0/1 6/0/6
f 1/0/1 4/0/4 7/0/7
f 1/0/1 7/0/7 8/0/8
f 9/0/9 6/0/6 1/0/1
f 9/0/9 1/0/1 8/0/8
