# 
# Wavefront OBJ file
# Created with Kaydara FBX
# 
mtllib l01.mtl

g L01
v -0.037428 2.819566 1.741737
v -0.046700 2.726454 1.800866
v 0.095287 2.800968 1.878212
v 0.104131 2.894848 1.818897
v 0.002919 2.885420 1.673901
v 0.144137 2.961156 1.750951
v 0.067637 2.914176 1.607641
v 0.208653 2.989983 1.684674
v 0.146469 2.902081 1.552894
v 0.287456 2.977565 1.630005
v 0.119344 2.694167 1.919781
v -0.023094 2.620619 1.842200
v 0.172630 2.591400 1.937105
v 0.029787 2.518867 1.859278
v 0.246632 2.508935 1.927396
v 0.103492 2.437313 1.849349
v 0.329519 2.459514 1.892087
v 0.186234 2.388561 1.813879
v -0.080045 2.559629 1.807659
v -0.053156 2.507952 1.816313
v 0.349537 2.672107 1.524066
v 0.491370 2.744996 1.601806
v 0.515388 2.641401 1.642598
v 0.373104 2.569478 1.564623
v 0.298516 2.770982 1.507686
v 0.439945 2.844886 1.585180
v 0.227405 2.851672 1.517824
v 0.368536 2.926488 1.595097
v 0.146469 2.902081 1.552894
v 0.287456 2.977565 1.630005
v 0.508351 2.549178 1.701512
v 0.365638 2.478023 1.623352
v 0.470939 2.482008 1.769667
v 0.327884 2.411307 1.691396
v 0.408282 2.450303 1.836641
v 0.265028 2.379673 1.758353
v 0.329519 2.459514 1.892087
v 0.186234 2.388561 1.813879
v 0.286404 2.426822 1.600993
v 0.267047 2.392885 1.635695
vt 0.121114 0.119967
vt 0.121114 0.104467
vt 0.093836 0.104503
vt 0.093836 0.120028
vt 0.121114 0.135345
vt 0.093836 0.135474
vt 0.121114 0.150816
vt 0.093836 0.150868
vt 0.121114 0.166327
vt 0.093836 0.166238
vt 0.093836 0.088978
vt 0.121114 0.088910
vt 0.093836 0.073301
vt 0.121114 0.073338
vt 0.093836 0.057663
vt 0.121114 0.057702
vt 0.093836 0.041929
vt 0.121113 0.041929
vt 0.134685 0.085106
vt 0.134685 0.077164
vt 0.121114 0.119967
vt 0.093836 0.120028
vt 0.093836 0.104503
vt 0.121114 0.104467
vt 0.121114 0.135345
vt 0.093836 0.135474
vt 0.121114 0.150816
vt 0.093836 0.150868
vt 0.121114 0.166327
vt 0.093836 0.166238
vt 0.093836 0.088978
vt 0.121114 0.088910
vt 0.093836 0.073301
vt 0.121114 0.073338
vt 0.093836 0.057663
vt 0.121114 0.057702
vt 0.093836 0.041929
vt 0.121113 0.041929
vt 0.134685 0.085106
vt 0.134685 0.077164
vn -0.604055 0.608948 0.514101
vn -0.580813 0.336462 0.741248
vn -0.580813 0.336462 0.741248
vn -0.604055 0.608948 0.514101
vn -0.532109 0.831627 0.158923
vn -0.532109 0.831627 0.158923
vn -0.334749 0.901848 -0.273154
vn -0.334749 0.901848 -0.273154
vn -0.063724 0.769267 -0.635742
vn -0.063724 0.769267 -0.635742
vn -0.500940 0.058013 0.863536
vn -0.484882 0.010180 0.874520
vn -0.374225 -0.228488 0.898748
vn -0.400672 -0.180578 0.898250
vn -0.188275 -0.527121 0.828671
vn -0.188275 -0.527121 0.828671
vn 0.064537 -0.794716 0.603541
vn 0.064537 -0.794716 0.603541
vn -0.449330 -0.084455 0.889365
vn -0.449330 -0.084455 0.889365
vn 0.501883 -0.057410 -0.863028
vn 0.501883 -0.057410 -0.863028
vn 0.577135 -0.335339 -0.744623
vn 0.577135 -0.335339 -0.744623
vn 0.373804 0.226645 -0.899390
vn 0.373804 0.226645 -0.899390
vn 0.186201 0.513542 -0.837618
vn 0.186201 0.513542 -0.837618
vn -0.063724 0.769267 -0.635742
vn -0.063724 0.769267 -0.635742
vn 0.592892 -0.603712 -0.532926
vn 0.588962 -0.645884 -0.485754
vn 0.521698 -0.828327 -0.204219
vn 0.542443 -0.796296 -0.267708
vn 0.333676 -0.917061 0.218311
vn 0.333676 -0.917061 0.218311
vn 0.064537 -0.794716 0.603541
vn 0.064537 -0.794716 0.603541
vn 0.574320 -0.721218 -0.387300
vn 0.574320 -0.721218 -0.387300
usemtl material
f 1/0/1 2/0/2 3/0/3
f 1/0/1 3/0/3 4/0/4
f 5/0/5 1/0/1 4/0/4
f 5/0/5 4/0/4 6/0/6
f 7/0/7 5/0/5 6/0/6
f 7/0/7 6/0/6 8/0/8
f 9/0/9 7/0/7 8/0/8
f 9/0/9 8/0/8 10/0/10
f 2/0/2 11/0/11 3/0/3
f 2/0/2 12/0/12 11/0/11
f 12/0/12 13/0/13 11/0/11
f 12/0/12 14/0/14 13/0/13
f 14/0/14 15/0/15 13/0/13
f 14/0/14 16/0/16 15/0/15
f 16/0/16 17/0/17 15/0/15
f 16/0/16 18/0/18 17/0/17
f 14/0/14 12/0/12 19/0/19
f 14/0/14 19/0/19 20/0/20
f 21/0/21 22/0/22 23/0/23
f 21/0/21 23/0/23 24/0/24
f 25/0/25 22/0/22 21/0/21
f 25/0/25 26/0/26 22/0/22
f 27/0/27 26/0/26 25/0/25
f 27/0/27 28/0/28 26/0/26
f 29/0/29 28/0/28 27/0/27
f 29/0/29 30/0/30 28/0/28
f 24/0/24 23/0/23 31/0/31
f 24/0/24 31/0/31 32/0/32
f 32/0/32 31/0/31 33/0/33
f 32/0/32 33/0/33 34/0/34
f 34/0/34 33/0/33 35/0/35
f 34/0/34 35/0/35 36/0/36
f 36/0/36 35/0/35 37/0/37
f 36/0/36 37/0/37 38/0/38
f 34/0/34 39/0/39 32/0/32
f 34/0/34 40/0/40 39/0/39
