# 
# Wavefront OBJ file
# Created with Kaydara FBX
# 
mtllib l01_alpha.mtl

g L01_Alpha
v 2.006016 1.405687 1.539734
v 2.420604 2.104523 1.528688
v 2.142464 2.109687 0.751555
v 1.769681 1.480822 0.762601
v 1.743845 1.603921 1.060422
v 2.275046 2.535520 1.002514
v 1.758761 2.482338 -0.092368
v 1.308556 1.691318 -0.034459
v -1.743844 1.603921 1.060422
v -1.308556 1.691317 -0.034460
v -1.758761 2.482338 -0.092368
v -2.275046 2.535520 1.002513
v -2.006016 1.405687 1.539734
v -1.769681 1.480822 0.762601
v -2.142464 2.109687 0.751555
v -2.420603 2.104523 1.528688
v -1.272398 1.527180 0.589562
v -0.969395 1.574088 0.081528
v -1.177755 1.970753 0.009703
v -1.496276 1.955647 0.517737
v 1.272399 1.527180 0.589562
v 1.496276 1.955647 0.517736
v 1.177756 1.970753 0.009703
v 0.969396 1.574088 0.081528
vt 0.525889 0.446600
vt 0.525889 0.096111
vt 0.975768 0.096111
vt 0.975768 0.446600
vt 0.525889 0.446601
vt 0.525889 0.096111
vt 0.975768 0.096111
vt 0.975768 0.446601
vt 0.525889 0.446601
vt 0.975768 0.446601
vt 0.975768 0.096111
vt 0.525889 0.096111
vt 0.525889 0.446600
vt 0.975768 0.446600
vt 0.975768 0.096111
vt 0.525889 0.096111
vt 0.525889 0.446600
vt 0.975768 0.446600
vt 0.975768 0.096111
vt 0.525889 0.096111
vt 0.525889 0.446600
vt 0.525889 0.096111
vt 0.975768 0.096111
vt 0.975768 0.446600
vn -0.819264 0.490786 0.296539
vn -0.819264 0.490786 0.296539
vn -0.819264 0.490786 0.296539
vn -0.819264 0.490786 0.296539
vn -0.801529 0.480568 0.355818
vn -0.801529 0.480568 0.355818
vn -0.801529 0.480568 0.355818
vn -0.801529 0.480568 0.355818
vn 0.801529 0.480568 0.355818
vn 0.801529 0.480568 0.355818
vn 0.801529 0.480568 0.355818
vn 0.801529 0.480568 0.355818
vn 0.819265 0.490785 0.296539
vn 0.819265 0.490785 0.296539
vn 0.819265 0.490785 0.296539
vn 0.819265 0.490785 0.296539
vn 0.739393 0.471068 0.481033
vn 0.739393 0.471068 0.481033
vn 0.739393 0.471068 0.481033
vn 0.739393 0.471068 0.481033
vn -0.739393 0.471068 0.481033
vn -0.739393 0.471068 0.481033
vn -0.739393 0.471068 0.481033
vn -0.739393 0.471068 0.481033
usemtl material
f 1/0/1 2/0/2 3/0/3
f 1/0/1 3/0/3 4/0/4
f 5/0/5 6/0/6 7/0/7
f 5/0/5 7/0/7 8/0/8
f 9/0/9 10/0/10 11/0/11
f 9/0/9 11/0/11 12/0/12
f 13/0/13 14/0/14 15/0/15
f 13/0/13 15/0/15 16/0/16
f 17/0/17 18/0/18 19/0/19
f 17/0/17 19/0/19 20/0/20
f 21/0/21 22/0/22 23/0/23
f 21/0/21 23/0/23 24/0/24
