# 
# Wavefront OBJ file
# Created with Kaydara FBX
# 
mtllib l02 #224060.mtl

g L02
v 0.097867 -0.026517 0.264459
v 0.090920 -0.037804 0.220576
v 0.104856 -0.024470 0.183261
v 0.113460 0.000000 0.271440
v 0.122987 0.000000 0.172954
v 0.113460 0.000000 0.271440
v 0.122987 0.000000 0.172954
v 0.104856 0.024470 0.183261
v 0.097867 0.026517 0.264459
v 0.090920 0.037804 0.220577
v 0.118120 0.000000 0.167948
v 0.098937 -0.025541 0.179922
v 0.098937 0.025541 0.179922
v 0.098937 0.025541 0.179922
v 0.098937 -0.025541 0.179922
v 0.083947 -0.037804 0.220060
v 0.083947 0.037804 0.220060
v 0.083947 0.037804 0.220060
v 0.083947 -0.037804 0.220060
v 0.091507 -0.026899 0.267816
v 0.091507 0.026899 0.267816
v 0.091507 0.026899 0.267816
v 0.091507 -0.026899 0.267816
v 0.109839 0.000000 0.276710
v 0.118120 0.000000 0.167948
v 0.122987 0.000000 0.172954
v 0.104856 -0.024470 0.183261
v 0.098937 -0.025541 0.179922
v 0.098937 -0.025541 0.179922
v 0.104856 -0.024470 0.183261
v 0.090920 -0.037804 0.220576
v 0.083947 -0.037804 0.220060
v 0.083947 -0.037804 0.220060
v 0.090920 -0.037804 0.220576
v 0.097867 -0.026517 0.264459
v 0.091507 -0.026899 0.267816
v 0.091507 -0.026899 0.267816
v 0.097867 -0.026517 0.264459
v 0.113460 0.000000 0.271440
v 0.109839 0.000000 0.276710
v 0.109839 0.000000 0.276710
v 0.113460 0.000000 0.271440
v 0.097867 0.026517 0.264459
v 0.091507 0.026899 0.267816
v 0.091507 0.026899 0.267816
v 0.097867 0.026517 0.264459
v 0.090920 0.037804 0.220577
v 0.083947 0.037804 0.220060
v 0.083947 0.037804 0.220060
v 0.090920 0.037804 0.220577
v 0.104856 0.024470 0.183261
v 0.098937 0.025541 0.179922
v 0.098937 0.025541 0.179922
v 0.104856 0.024470 0.183261
v 0.122987 0.000000 0.172954
v 0.118120 0.000000 0.167948
v -0.097867 -0.026517 0.264459
v -0.104856 -0.024470 0.183261
v -0.090920 -0.037804 0.220576
v -0.113460 0.000000 0.271440
v -0.122987 0.000000 0.172954
v -0.113460 0.000000 0.271440
v -0.097867 0.026517 0.264459
v -0.104856 0.024470 0.183261
v -0.122987 0.000000 0.172954
v -0.090920 0.037804 0.220577
v -0.118120 0.000000 0.167948
v -0.098937 0.025541 0.179922
v -0.098937 -0.025541 0.179922
v -0.098937 0.025541 0.179922
v -0.083947 0.037804 0.220060
v -0.083947 -0.037804 0.220060
v -0.098937 -0.025541 0.179922
v -0.083947 0.037804 0.220060
v -0.091507 0.026899 0.267816
v -0.091507 -0.026899 0.267816
v -0.083947 -0.037804 0.220060
v -0.091507 0.026899 0.267816
v -0.109839 0.000000 0.276710
v -0.091507 -0.026899 0.267816
v -0.118120 0.000000 0.167948
v -0.098937 -0.025541 0.179922
v -0.104856 -0.024470 0.183261
v -0.122987 0.000000 0.172954
v -0.098937 -0.025541 0.179922
v -0.083947 -0.037804 0.220060
v -0.090920 -0.037804 0.220576
v -0.104856 -0.024470 0.183261
v -0.083947 -0.037804 0.220060
v -0.091507 -0.026899 0.267816
v -0.097867 -0.026517 0.264459
v -0.090920 -0.037804 0.220576
v -0.091507 -0.026899 0.267816
v -0.109839 0.000000 0.276710
v -0.113460 0.000000 0.271440
v -0.097867 -0.026517 0.264459
v -0.109839 0.000000 0.276710
v -0.091507 0.026899 0.267816
v -0.097867 0.026517 0.264459
v -0.113460 0.000000 0.271440
v -0.091507 0.026899 0.267816
v -0.083947 0.037804 0.220060
v -0.090920 0.037804 0.220577
v -0.097867 0.026517 0.264459
v -0.083947 0.037804 0.220060
v -0.098937 0.025541 0.179922
v -0.104856 0.024470 0.183261
v -0.090920 0.037804 0.220577
v -0.098937 0.025541 0.179922
v -0.118120 0.000000 0.167948
v -0.122987 0.000000 0.172954
v -0.104856 0.024470 0.183261
vt 0.681304 0.581670
vt 0.646946 0.480708
vt 0.685770 0.392733
vt 0.751631 0.596181
vt 0.751632 0.366904
vt 0.751631 0.596181
vt 0.751631 0.366904
vt 0.685769 0.392733
vt 0.681303 0.581670
vt 0.646945 0.480708
vt 0.706489 0.229316
vt 0.680554 0.241472
vt 0.732423 0.241476
vt 0.732423 0.241476
vt 0.680554 0.241472
vt 0.668099 0.282226
vt 0.744871 0.282232
vt 0.744871 0.282232
vt 0.668099 0.282226
vt 0.679168 0.330719
vt 0.733794 0.330721
vt 0.733794 0.330721
vt 0.679168 0.330719
vt 0.706481 0.349334
vt 0.751632 0.355823
vt 0.751632 0.366904
vt 0.685770 0.392733
vt 0.672947 0.385627
vt 0.672947 0.385627
vt 0.685770 0.392733
vt 0.646946 0.480708
vt 0.631057 0.480256
vt 0.631057 0.480256
vt 0.646946 0.480708
vt 0.681304 0.581670
vt 0.669310 0.590130
vt 0.669310 0.590130
vt 0.681304 0.581670
vt 0.751631 0.596181
vt 0.751632 0.608783
vt 0.751630 0.608783
vt 0.751631 0.596181
vt 0.681303 0.581670
vt 0.669309 0.590130
vt 0.669309 0.590130
vt 0.681303 0.581670
vt 0.646945 0.480708
vt 0.631057 0.480256
vt 0.631057 0.480256
vt 0.646945 0.480708
vt 0.685769 0.392733
vt 0.672947 0.385627
vt 0.672947 0.385627
vt 0.685769 0.392733
vt 0.751631 0.366904
vt 0.751631 0.355823
vt 0.681304 0.581670
vt 0.685770 0.392733
vt 0.646946 0.480708
vt 0.751631 0.596181
vt 0.751632 0.366904
vt 0.751631 0.596181
vt 0.681303 0.581670
vt 0.685769 0.392733
vt 0.751631 0.366904
vt 0.646945 0.480708
vt 0.706489 0.229316
vt 0.732423 0.241476
vt 0.680554 0.241472
vt 0.732423 0.241476
vt 0.744871 0.282232
vt 0.668099 0.282226
vt 0.680554 0.241472
vt 0.744871 0.282232
vt 0.733794 0.330721
vt 0.679168 0.330719
vt 0.668099 0.282226
vt 0.733794 0.330721
vt 0.706481 0.349334
vt 0.679168 0.330719
vt 0.751632 0.355823
vt 0.672947 0.385627
vt 0.685770 0.392733
vt 0.751632 0.366904
vt 0.672947 0.385627
vt 0.631057 0.480256
vt 0.646946 0.480708
vt 0.685770 0.392733
vt 0.631057 0.480256
vt 0.669310 0.590130
vt 0.681304 0.581670
vt 0.646946 0.480708
vt 0.669310 0.590130
vt 0.751632 0.608783
vt 0.751631 0.596181
vt 0.681304 0.581670
vt 0.751630 0.608783
vt 0.669309 0.590130
vt 0.681303 0.581670
vt 0.751631 0.596181
vt 0.669309 0.590130
vt 0.631057 0.480256
vt 0.646945 0.480708
vt 0.681303 0.581670
vt 0.631057 0.480256
vt 0.672947 0.385627
vt 0.685769 0.392733
vt 0.646945 0.480708
vt 0.672947 0.385627
vt 0.751631 0.355823
vt 0.751631 0.366904
vt 0.685769 0.392733
vn 0.830603 -0.552525 0.069392
vn 0.755315 -0.653563 0.048530
vn 0.830727 -0.552333 0.069429
vn 0.834094 -0.547108 0.070430
vn 0.834094 -0.547108 0.070430
vn 0.834094 0.547108 0.070430
vn 0.834094 0.547108 0.070430
vn 0.830727 0.552333 0.069429
vn 0.830603 0.552525 0.069392
vn 0.755315 0.653563 0.048529
vn -0.529529 0.000000 -0.848292
vn -0.529528 0.000000 -0.848292
vn -0.529529 0.000000 -0.848292
vn -0.936802 0.000000 -0.349860
vn -0.936802 0.000000 -0.349860
vn -0.936802 0.000000 -0.349860
vn -0.936802 0.000000 -0.349860
vn -0.987699 -0.000000 0.156366
vn -0.987699 -0.000000 0.156366
vn -0.987699 -0.000000 0.156366
vn -0.987699 -0.000000 0.156366
vn -0.436525 -0.000001 0.899692
vn -0.436525 -0.000001 0.899692
vn -0.436525 -0.000001 0.899692
vn 0.509983 -0.637705 -0.577278
vn 0.509983 -0.637705 -0.577278
vn 0.509983 -0.637705 -0.577278
vn 0.509983 -0.637705 -0.577278
vn 0.156129 -0.953743 -0.256899
vn 0.156129 -0.953744 -0.256899
vn 0.156129 -0.953744 -0.256899
vn 0.156129 -0.953743 -0.256899
vn 0.075419 -0.971803 0.223407
vn 0.075419 -0.971803 0.223407
vn 0.075419 -0.971803 0.223407
vn 0.075419 -0.971803 0.223407
vn 0.561210 -0.542264 0.625294
vn 0.561210 -0.542265 0.625294
vn 0.561210 -0.542265 0.625294
vn 0.561210 -0.542265 0.625294
vn 0.561215 0.542263 0.625291
vn 0.561215 0.542263 0.625291
vn 0.561215 0.542263 0.625291
vn 0.561215 0.542263 0.625291
vn 0.075422 0.971803 0.223407
vn 0.075422 0.971803 0.223407
vn 0.075422 0.971803 0.223407
vn 0.075422 0.971803 0.223407
vn 0.156130 0.953743 -0.256899
vn 0.156130 0.953743 -0.256899
vn 0.156130 0.953743 -0.256899
vn 0.156130 0.953743 -0.256899
vn 0.509983 0.637705 -0.577278
vn 0.509983 0.637705 -0.577278
vn 0.509983 0.637705 -0.577278
vn 0.509983 0.637705 -0.577278
vn -0.830603 -0.552525 0.069392
vn -0.830727 -0.552333 0.069429
vn -0.755315 -0.653563 0.048530
vn -0.834094 -0.547108 0.070430
vn -0.834094 -0.547108 0.070430
vn -0.834094 0.547108 0.070430
vn -0.830603 0.552524 0.069392
vn -0.830727 0.552333 0.069429
vn -0.834094 0.547108 0.070430
vn -0.755315 0.653563 0.048529
vn 0.529529 0.000000 -0.848292
vn 0.529529 0.000000 -0.848292
vn 0.529528 0.000000 -0.848292
vn 0.936802 0.000000 -0.349860
vn 0.936802 0.000000 -0.349860
vn 0.936802 0.000000 -0.349860
vn 0.936802 0.000000 -0.349860
vn 0.987699 -0.000000 0.156366
vn 0.987699 -0.000000 0.156366
vn 0.987699 -0.000000 0.156366
vn 0.987699 -0.000000 0.156366
vn 0.436525 -0.000001 0.899692
vn 0.436525 -0.000001 0.899692
vn 0.436525 -0.000001 0.899692
vn -0.509983 -0.637705 -0.577278
vn -0.509983 -0.637705 -0.577278
vn -0.509983 -0.637705 -0.577278
vn -0.509983 -0.637705 -0.577278
vn -0.156129 -0.953744 -0.256899
vn -0.156128 -0.953744 -0.256899
vn -0.156129 -0.953744 -0.256899
vn -0.156129 -0.953744 -0.256899
vn -0.075419 -0.971803 0.223408
vn -0.075419 -0.971803 0.223408
vn -0.075419 -0.971803 0.223408
vn -0.075419 -0.971803 0.223408
vn -0.561209 -0.542265 0.625294
vn -0.561209 -0.542265 0.625294
vn -0.561209 -0.542265 0.625294
vn -0.561209 -0.542265 0.625294
vn -0.561215 0.542263 0.625291
vn -0.561215 0.542263 0.625291
vn -0.561214 0.542263 0.625291
vn -0.561214 0.542263 0.625291
vn -0.075422 0.971803 0.223407
vn -0.075422 0.971803 0.223407
vn -0.075422 0.971803 0.223407
vn -0.075422 0.971803 0.223407
vn -0.156130 0.953743 -0.256899
vn -0.156130 0.953743 -0.256899
vn -0.156130 0.953743 -0.256899
vn -0.156130 0.953743 -0.256899
vn -0.509983 0.637705 -0.577278
vn -0.509983 0.637705 -0.577278
vn -0.509983 0.637705 -0.577278
vn -0.509983 0.637705 -0.577278
usemtl material
f 1/0/1 2/0/2 3/0/3
f 4/0/4 1/0/1 3/0/3
f 4/0/4 3/0/3 5/0/5
f 6/0/6 7/0/7 8/0/8
f 6/0/6 8/0/8 9/0/9
f 8/0/8 10/0/10 9/0/9
f 11/0/11 12/0/12 13/0/13
f 14/0/14 15/0/15 16/0/16
f 14/0/14 16/0/16 17/0/17
f 18/0/18 19/0/19 20/0/20
f 18/0/18 20/0/20 21/0/21
f 22/0/22 23/0/23 24/0/24
f 25/0/25 26/0/26 27/0/27
f 25/0/25 27/0/27 28/0/28
f 29/0/29 30/0/30 31/0/31
f 29/0/29 31/0/31 32/0/32
f 33/0/33 34/0/34 35/0/35
f 33/0/33 35/0/35 36/0/36
f 37/0/37 38/0/38 39/0/39
f 37/0/37 39/0/39 40/0/40
f 41/0/41 42/0/42 43/0/43
f 41/0/41 43/0/43 44/0/44
f 45/0/45 46/0/46 47/0/47
f 45/0/45 47/0/47 48/0/48
f 49/0/49 50/0/50 51/0/51
f 49/0/49 51/0/51 52/0/52
f 53/0/53 54/0/54 55/0/55
f 53/0/53 55/0/55 56/0/56
f 57/0/57 58/0/58 59/0/59
f 60/0/60 58/0/58 57/0/57
f 60/0/60 61/0/61 58/0/58
f 62/0/62 63/0/63 64/0/64
f 62/0/62 64/0/64 65/0/65
f 64/0/64 63/0/63 66/0/66
f 67/0/67 68/0/68 69/0/69
f 70/0/70 71/0/71 72/0/72
f 70/0/70 72/0/72 73/0/73
f 74/0/74 75/0/75 76/0/76
f 74/0/74 76/0/76 77/0/77
f 78/0/78 79/0/79 80/0/80
f 81/0/81 82/0/82 83/0/83
f 81/0/81 83/0/83 84/0/84
f 85/0/85 86/0/86 87/0/87
f 85/0/85 87/0/87 88/0/88
f 89/0/89 90/0/90 91/0/91
f 89/0/89 91/0/91 92/0/92
f 93/0/93 94/0/94 95/0/95
f 93/0/93 95/0/95 96/0/96
f 97/0/97 98/0/98 99/0/99
f 97/0/97 99/0/99 100/0/100
f 101/0/101 102/0/102 103/0/103
f 101/0/101 103/0/103 104/0/104
f 105/0/105 106/0/106 107/0/107
f 105/0/105 107/0/107 108/0/108
f 109/0/109 110/0/110 111/0/111
f 109/0/109 111/0/111 112/0/112
