# 
# Wavefront OBJ file
# Created with Kaydara FBX
# 
mtllib l02.mtl

g L02
v -1.485924 3.161865 -1.909327
v -1.709744 2.814245 -1.909327
v -1.709743 1.151145 -1.909327
v 1.709743 1.151145 -1.909327
v 1.485924 3.161866 -1.909327
v 1.709743 2.814246 -1.909327
v 2.741791 0.544576 0.693371
v 1.709743 1.151145 -1.909327
v -1.709743 1.151145 -1.909327
v -2.741791 0.544576 0.693371
v 2.538522 0.439314 1.145037
v -2.538521 0.439314 1.145037
v -1.098062 3.180565 -1.042230
v -0.974270 3.065060 -1.626084
v -1.061041 3.255353 -1.626084
v -1.195860 3.395037 -1.042231
v -1.175227 3.201076 -0.938553
v -1.274983 3.419842 -0.938553
v -1.513565 3.443810 -0.838369
v -1.411919 3.220896 -0.838368
v -1.515149 3.298753 -0.444818
v -1.624228 3.537966 -0.444818
v -1.540478 3.589659 -0.228748
v -1.427320 3.341498 -0.228748
v -1.418506 3.368898 -0.090248
v -1.534279 3.622794 -0.090248
v -2.484844 4.531540 3.708127
v -2.297343 4.120341 3.708127
v -0.974020 3.027622 -1.815328
v -1.057217 3.210077 -1.815327
v -2.297343 4.120341 3.708127
v -2.476029 4.120047 3.706637
v -1.534294 3.373046 -0.069284
v -1.418506 3.368898 -0.090248
v -1.539098 3.353492 -0.168123
v -1.427320 3.341498 -0.228748
v -1.631407 3.307285 -0.401688
v -1.515149 3.298753 -0.444818
v -1.484243 3.203434 -0.926633
v -1.411919 3.220896 -0.838368
v -1.211379 3.180354 -1.043296
v -1.175227 3.201076 -0.938553
v -1.182316 3.172706 -1.081955
v -1.098062 3.180565 -1.042230
v -1.061826 3.069095 -1.605689
v -0.974270 3.065060 -1.626084
v -1.060216 3.047279 -1.715962
v -0.974020 3.027622 -1.815328
v -1.122260 3.040007 -1.752719
v -1.077985 3.015142 -1.878410
v -1.515616 3.040008 -1.752719
v -1.505786 3.015143 -1.878410
v -2.476029 4.120047 3.706637
v -2.476029 3.723249 3.706637
v -1.534294 3.127166 -0.069283
v -1.534294 3.373046 -0.069284
v -1.539098 3.111562 -0.168123
v -1.539098 3.353492 -0.168123
v -1.631407 3.074692 -0.401687
v -1.631407 3.307285 -0.401688
v -1.484243 2.991822 -0.926633
v -1.484243 3.203434 -0.926633
v -1.211379 2.973405 -1.043296
v -1.211379 3.180354 -1.043296
v -1.182316 2.967302 -1.081955
v -1.182316 3.172706 -1.081955
v -1.061826 2.884624 -1.605689
v -1.061826 3.069095 -1.605689
v -1.060216 2.867216 -1.715962
v -1.060216 3.047279 -1.715962
v -2.783131 3.723249 3.706637
v -1.631407 3.074692 -0.401687
v -1.450859 3.007710 -0.838368
v -2.676080 3.726946 3.707233
v -2.863567 3.315784 3.707233
v -1.552506 2.784796 -0.838368
v -1.213443 2.991858 -0.938553
v -1.313197 2.773093 -0.938553
v -1.233325 2.760982 -1.042229
v -1.135528 2.975454 -1.042229
v -1.094283 2.692779 -1.626084
v -1.007511 2.883072 -1.626084
v -1.089090 2.670673 -1.815328
v -1.005892 2.853129 -1.815328
v -3.817768 3.315784 3.707218
v -1.759176 2.690422 -1.646259
v -1.552506 2.784796 -0.838368
v -2.863567 3.315784 3.707233
v -1.563246 2.670083 -1.820377
v -1.386385 2.663305 -1.878409
v -1.191408 2.663305 -1.878410
v -1.313197 2.773093 -0.938553
v -1.089090 2.670673 -1.815328
v -1.233325 2.760982 -1.042229
v -1.094283 2.692779 -1.626084
v 1.098063 3.180565 -1.042230
v 1.195860 3.395037 -1.042231
v 1.061042 3.255352 -1.626084
v 0.974270 3.065060 -1.626084
v 1.175227 3.201076 -0.938553
v 1.274982 3.419842 -0.938553
v 1.513566 3.443810 -0.838368
v 1.411919 3.220896 -0.838368
v 1.515149 3.298753 -0.444818
v 1.624228 3.537966 -0.444818
v 1.540478 3.589659 -0.228748
v 1.427320 3.341498 -0.228748
v 1.418505 3.368898 -0.090249
v 1.534279 3.622794 -0.090249
v 2.484844 4.531540 3.708127
v 2.297343 4.120341 3.708127
v 0.974020 3.027622 -1.815328
v 1.057217 3.210077 -1.815328
v 2.297343 4.120341 3.708127
v 1.418505 3.368898 -0.090249
v 1.534294 3.373046 -0.069284
v 2.476028 4.120047 3.706637
v 1.539098 3.353492 -0.168123
v 1.427320 3.341498 -0.228748
v 1.631407 3.307285 -0.401688
v 1.515149 3.298753 -0.444818
v 1.484243 3.203434 -0.926633
v 1.411919 3.220896 -0.838368
v 1.211379 3.180354 -1.043296
v 1.175227 3.201076 -0.938553
v 1.182317 3.172707 -1.081955
v 1.098063 3.180565 -1.042230
v 1.061826 3.069095 -1.605689
v 0.974270 3.065060 -1.626084
v 1.060215 3.047280 -1.715961
v 0.974020 3.027622 -1.815328
v 1.122261 3.040008 -1.752719
v 1.077985 3.015143 -1.878410
v 1.515616 3.040008 -1.752719
v 1.505786 3.015142 -1.878409
v 2.476028 4.120047 3.706637
v 1.534294 3.373046 -0.069284
v 1.534294 3.127166 -0.069283
v 2.476028 3.723249 3.706637
v 1.539098 3.111562 -0.168123
v 1.539098 3.353492 -0.168123
v 1.631406 3.074692 -0.401687
v 1.631407 3.307285 -0.401688
v 1.484243 2.991822 -0.926633
v 1.484243 3.203434 -0.926633
v 1.211379 2.973405 -1.043296
v 1.211379 3.180354 -1.043296
v 1.182317 2.967302 -1.081955
v 1.182317 3.172707 -1.081955
v 1.061826 2.884624 -1.605689
v 1.061826 3.069095 -1.605689
v 1.060215 2.867216 -1.715962
v 1.060215 3.047280 -1.715961
v 2.783130 3.723249 3.706637
v 1.631406 3.074692 -0.401687
v 1.450859 3.007710 -0.838368
v 1.552506 2.784796 -0.838368
v 2.863566 3.315784 3.707233
v 2.676080 3.726946 3.707233
v 1.213443 2.991858 -0.938553
v 1.313199 2.773093 -0.938553
v 1.233326 2.760982 -1.042229
v 1.135529 2.975454 -1.042229
v 1.094283 2.692779 -1.626084
v 1.007511 2.883072 -1.626084
v 1.089091 2.670673 -1.815327
v 1.005892 2.853129 -1.815327
v 3.817768 3.315784 3.707218
v 2.863566 3.315784 3.707233
v 1.552506 2.784796 -0.838368
v 1.759176 2.690422 -1.646259
v 1.563246 2.670083 -1.820377
v 1.386386 2.663305 -1.878409
v 1.191408 2.663305 -1.878410
v 1.313199 2.773093 -0.938553
v 1.089091 2.670673 -1.815327
v 1.233326 2.760982 -1.042229
v 1.094283 2.692779 -1.626084
vt 0.447871 0.489445
vt 0.477959 0.417873
vt 0.477959 0.004139
vt 0.018268 0.004139
vt 0.048356 0.489445
vt 0.018268 0.417873
vt 0.018268 0.417873
vt 0.018268 0.004139
vt 0.477959 0.004139
vt 0.477959 0.417873
vt 0.048356 0.489445
vt 0.447871 0.489445
vt 0.449482 0.932176
vt 0.449482 0.973985
vt 0.468134 0.974372
vt 0.468134 0.931023
vt 0.449482 0.924784
vt 0.468134 0.921522
vt 0.468134 0.906114
vt 0.449482 0.908126
vt 0.449482 0.878007
vt 0.468134 0.878966
vt 0.468134 0.861564
vt 0.449482 0.859942
vt 0.449482 0.850392
vt 0.468134 0.850528
vt 0.468134 0.578094
vt 0.449482 0.578093
vt 0.449482 0.987723
vt 0.468134 0.988724
vt 0.441615 0.576235
vt 0.435656 0.576334
vt 0.435656 0.828774
vt 0.441616 0.830122
vt 0.435656 0.836238
vt 0.441615 0.837828
vt 0.435656 0.851817
vt 0.441615 0.853213
vt 0.435656 0.878889
vt 0.441616 0.875990
vt 0.435656 0.888601
vt 0.441615 0.886984
vt 0.435656 0.892416
vt 0.441615 0.890443
vt 0.435656 0.926929
vt 0.441616 0.927977
vt 0.435656 0.934762
vt 0.441616 0.936283
vt 0.435656 0.940370
vt 0.441616 0.940232
vt 0.435656 0.961016
vt 0.441616 0.963039
vt 0.426802 0.573994
vt 0.409113 0.573963
vt 0.409095 0.857001
vt 0.426783 0.856961
vt 0.409094 0.864431
vt 0.426783 0.864431
vt 0.409094 0.884532
vt 0.426783 0.884533
vt 0.409094 0.923874
vt 0.426783 0.923880
vt 0.409080 0.943093
vt 0.426769 0.943120
vt 0.409077 0.946356
vt 0.426765 0.946361
vt 0.409030 0.985752
vt 0.426719 0.985773
vt 0.409021 0.994282
vt 0.426709 0.994302
vt 0.397614 0.573950
vt 0.397593 0.882006
vt 0.343523 0.894691
vt 0.343523 0.573347
vt 0.325195 0.573352
vt 0.325195 0.894373
vt 0.343523 0.911572
vt 0.325195 0.908596
vt 0.325195 0.918074
vt 0.343523 0.919156
vt 0.325195 0.961788
vt 0.343523 0.961395
vt 0.325195 0.976386
vt 0.343523 0.975419
vt 0.351847 0.564688
vt 0.351848 0.967712
vt 0.387575 0.906891
vt 0.387575 0.564687
vt 0.362743 0.980820
vt 0.376117 0.985188
vt 0.392808 0.985188
vt 0.402383 0.914433
vt 0.402901 0.980439
vt 0.406266 0.922238
vt 0.406266 0.966192
vt 0.449482 0.932176
vt 0.468134 0.931023
vt 0.468134 0.974372
vt 0.449482 0.973985
vt 0.449482 0.924784
vt 0.468134 0.921522
vt 0.468134 0.906114
vt 0.449482 0.908126
vt 0.449482 0.878007
vt 0.468134 0.878966
vt 0.468134 0.861564
vt 0.449482 0.859942
vt 0.449482 0.850392
vt 0.468134 0.850528
vt 0.468134 0.578094
vt 0.449482 0.578093
vt 0.449482 0.987723
vt 0.468134 0.988724
vt 0.441615 0.576235
vt 0.441616 0.830122
vt 0.435656 0.828774
vt 0.435656 0.576334
vt 0.435656 0.836238
vt 0.441615 0.837828
vt 0.435656 0.851817
vt 0.441615 0.853213
vt 0.435656 0.878889
vt 0.441616 0.875990
vt 0.435656 0.888601
vt 0.441615 0.886984
vt 0.435656 0.892416
vt 0.441615 0.890443
vt 0.435656 0.926929
vt 0.441616 0.927977
vt 0.435656 0.934762
vt 0.441616 0.936283
vt 0.435656 0.940370
vt 0.441616 0.940232
vt 0.435656 0.961016
vt 0.441616 0.963039
vt 0.426802 0.573994
vt 0.426783 0.856961
vt 0.409095 0.857001
vt 0.409113 0.573963
vt 0.409094 0.864431
vt 0.426783 0.864431
vt 0.409094 0.884532
vt 0.426783 0.884533
vt 0.409094 0.923874
vt 0.426783 0.923880
vt 0.409080 0.943093
vt 0.426769 0.943120
vt 0.409077 0.946356
vt 0.426765 0.946361
vt 0.409030 0.985752
vt 0.426719 0.985773
vt 0.409021 0.994282
vt 0.426709 0.994302
vt 0.397614 0.573950
vt 0.397593 0.882006
vt 0.343767 0.894691
vt 0.325195 0.894373
vt 0.325195 0.573352
vt 0.343767 0.573347
vt 0.343767 0.911572
vt 0.325195 0.908596
vt 0.325195 0.918074
vt 0.343767 0.919156
vt 0.325195 0.961788
vt 0.343767 0.961395
vt 0.325195 0.976386
vt 0.343767 0.975419
vt 0.351847 0.564688
vt 0.387575 0.564687
vt 0.387575 0.906891
vt 0.351848 0.967712
vt 0.362743 0.980820
vt 0.376117 0.985188
vt 0.392808 0.985188
vt 0.402383 0.914433
vt 0.402901 0.980439
vt 0.406266 0.922238
vt 0.406266 0.966192
vn 0.000000 0.000000 1.000000
vn 0.000000 0.000000 1.000000
vn 0.000000 0.621703 0.783253
vn 0.000000 0.288929 0.957351
vn 0.000000 0.000000 1.000000
vn 0.000000 0.000000 1.000000
vn 0.000000 0.973901 0.226972
vn 0.000000 0.288929 0.957351
vn 0.000000 0.621703 0.783253
vn 0.000000 0.973901 0.226971
vn 0.000000 0.973901 0.226971
vn 0.000000 0.973901 0.226972
vn 0.733398 -0.518910 0.439158
vn 0.831430 -0.521500 0.191737
vn 0.909771 0.414845 0.014843
vn 0.862644 0.393359 0.317984
vn 0.456590 -0.552216 0.697555
vn 0.615016 0.280444 0.736957
vn 0.730991 0.333324 0.595439
vn 0.545306 -0.577447 0.607616
vn 0.825544 -0.560856 0.062592
vn 0.901646 0.411140 -0.134159
vn 0.873991 0.398529 -0.278055
vn 0.825227 -0.559470 -0.077417
vn 0.832491 -0.526016 0.173972
vn 0.909857 0.414883 -0.005671
vn 0.902458 0.411509 0.127394
vn 0.809754 -0.510979 0.288443
vn 0.498128 -0.850493 0.168911
vn 0.906911 0.413539 -0.080613
vn 0.809754 -0.510979 0.288443
vn 0.670525 -0.677927 0.301349
vn 0.693373 -0.690864 0.204795
vn 0.832491 -0.526016 0.173972
vn 0.701020 -0.713069 -0.010159
vn 0.825227 -0.559470 -0.077417
vn 0.690413 -0.715612 0.105965
vn 0.825544 -0.560856 0.062592
vn 0.474210 -0.686121 0.551691
vn 0.545306 -0.577447 0.607616
vn 0.399398 -0.657146 0.639250
vn 0.456590 -0.552216 0.697555
vn 0.609581 -0.674226 0.416931
vn 0.733398 -0.518910 0.439158
vn 0.692005 -0.687639 0.219733
vn 0.831430 -0.521500 0.191737
vn 0.446659 -0.876430 0.179906
vn 0.498128 -0.850493 0.168911
vn 0.000000 -0.980989 0.194066
vn 0.000000 -0.980989 0.194066
vn 0.000000 -0.980989 0.194064
vn 0.000000 -0.980989 0.194064
vn 0.670525 -0.677927 0.301349
vn 0.673501 -0.685640 0.276213
vn 0.694650 -0.696910 0.178264
vn 0.693373 -0.690864 0.204795
vn 0.698104 -0.715002 -0.037721
vn 0.701020 -0.713069 -0.010159
vn 0.886219 -0.462461 0.027300
vn 0.690413 -0.715612 0.105965
vn 0.751775 0.000000 0.659420
vn 0.474210 -0.686121 0.551691
vn 0.617131 0.000000 0.786861
vn 0.399398 -0.657146 0.639250
vn 0.906709 0.000000 0.421758
vn 0.609581 -0.674226 0.416931
vn 0.992765 0.000000 0.120072
vn 0.692005 -0.687639 0.219733
vn 0.999893 0.000000 0.014600
vn 0.446659 -0.876430 0.179906
vn 0.000007 -0.987767 0.155936
vn 0.886219 -0.462461 0.027300
vn 0.681248 -0.310644 0.662873
vn 0.868849 -0.396189 0.296877
vn 0.514128 -0.822178 0.244329
vn 0.208929 -0.930501 0.300860
vn 0.568781 -0.259359 0.780526
vn 0.340788 -0.769974 0.539448
vn 0.630098 -0.676626 0.380990
vn 0.818831 -0.373379 0.436009
vn 0.692380 -0.700575 0.172640
vn 0.897327 -0.409172 0.165478
vn 0.351148 -0.928837 0.118137
vn 0.907428 -0.413777 0.073236
vn 0.000000 -0.993246 0.116025
vn 0.000000 -0.993246 0.116025
vn 0.208929 -0.930501 0.300860
vn 0.514128 -0.822178 0.244329
vn 0.000000 -0.993246 0.116025
vn 0.000000 -0.993246 0.116025
vn 0.000000 -0.993246 0.116025
vn 0.340788 -0.769974 0.539448
vn 0.351148 -0.928837 0.118137
vn 0.630098 -0.676626 0.380990
vn 0.692380 -0.700575 0.172640
vn -0.733397 -0.518911 0.439158
vn -0.862644 0.393359 0.317984
vn -0.909770 0.414847 0.014844
vn -0.831429 -0.521500 0.191738
vn -0.456590 -0.552217 0.697554
vn -0.615017 0.280444 0.736957
vn -0.730991 0.333325 0.595438
vn -0.545305 -0.577448 0.607615
vn -0.825543 -0.560857 0.062591
vn -0.901646 0.411140 -0.134160
vn -0.873990 0.398529 -0.278057
vn -0.825227 -0.559470 -0.077419
vn -0.832491 -0.526016 0.173971
vn -0.909857 0.414884 -0.005673
vn -0.902458 0.411510 0.127393
vn -0.809754 -0.510979 0.288443
vn -0.498126 -0.850493 0.168913
vn -0.906910 0.413541 -0.080611
vn -0.809754 -0.510979 0.288443
vn -0.832491 -0.526016 0.173971
vn -0.693373 -0.690864 0.204793
vn -0.670526 -0.677926 0.301349
vn -0.701020 -0.713069 -0.010161
vn -0.825227 -0.559470 -0.077419
vn -0.690413 -0.715613 0.105966
vn -0.825543 -0.560857 0.062591
vn -0.474209 -0.686122 0.551690
vn -0.545305 -0.577448 0.607615
vn -0.399400 -0.657147 0.639247
vn -0.456590 -0.552217 0.697554
vn -0.609581 -0.674227 0.416928
vn -0.733397 -0.518911 0.439158
vn -0.692003 -0.687640 0.219735
vn -0.831429 -0.521500 0.191738
vn -0.446657 -0.876430 0.179909
vn -0.498126 -0.850493 0.168913
vn 0.000000 -0.980988 0.194067
vn 0.000000 -0.980988 0.194067
vn 0.000000 -0.980988 0.194066
vn 0.000000 -0.980988 0.194066
vn -0.670526 -0.677926 0.301349
vn -0.693373 -0.690864 0.204793
vn -0.694649 -0.696912 0.178262
vn -0.673501 -0.685640 0.276213
vn -0.698102 -0.715004 -0.037724
vn -0.701020 -0.713069 -0.010161
vn -0.886219 -0.462461 0.027300
vn -0.690413 -0.715613 0.105966
vn -0.751775 0.000000 0.659419
vn -0.474209 -0.686122 0.551690
vn -0.617135 0.000000 0.786857
vn -0.399400 -0.657147 0.639247
vn -0.906711 0.000000 0.421753
vn -0.609581 -0.674227 0.416928
vn -0.992765 0.000000 0.120075
vn -0.692003 -0.687640 0.219735
vn -0.999893 0.000000 0.014604
vn -0.446657 -0.876430 0.179909
vn -0.000004 -0.987767 0.155935
vn -0.886219 -0.462461 0.027300
vn -0.681249 -0.310644 0.662873
vn -0.208930 -0.930501 0.300860
vn -0.514129 -0.822177 0.244329
vn -0.868849 -0.396188 0.296877
vn -0.568781 -0.259360 0.780526
vn -0.340788 -0.769974 0.539448
vn -0.630098 -0.676627 0.380990
vn -0.818830 -0.373380 0.436009
vn -0.692380 -0.700575 0.172640
vn -0.897326 -0.409173 0.165477
vn -0.351149 -0.928837 0.118137
vn -0.907427 -0.413779 0.073235
vn 0.000000 -0.993246 0.116025
vn -0.514129 -0.822177 0.244329
vn -0.208930 -0.930501 0.300860
vn 0.000000 -0.993246 0.116025
vn 0.000000 -0.993246 0.116025
vn 0.000000 -0.993246 0.116025
vn 0.000000 -0.993246 0.116025
vn -0.340788 -0.769974 0.539448
vn -0.351149 -0.928837 0.118137
vn -0.630098 -0.676627 0.380990
vn -0.692380 -0.700575 0.172640
usemtl material
f 1/0/1 2/0/2 3/0/3
f 3/0/3 4/0/4 1/0/1
f 4/0/4 5/0/5 1/0/1
f 4/0/4 6/0/6 5/0/5
f 7/0/7 8/0/8 9/0/9
f 9/0/9 10/0/10 7/0/7
f 10/0/10 11/0/11 7/0/7
f 10/0/10 12/0/12 11/0/11
f 13/0/13 14/0/14 15/0/15
f 13/0/13 15/0/15 16/0/16
f 16/0/16 17/0/17 13/0/13
f 16/0/16 18/0/18 17/0/17
f 19/0/19 17/0/17 18/0/18
f 19/0/19 20/0/20 17/0/17
f 21/0/21 20/0/20 19/0/19
f 21/0/21 19/0/19 22/0/22
f 21/0/21 22/0/22 23/0/23
f 21/0/21 23/0/23 24/0/24
f 23/0/23 25/0/25 24/0/24
f 23/0/23 26/0/26 25/0/25
f 25/0/25 26/0/26 27/0/27
f 25/0/25 27/0/27 28/0/28
f 15/0/15 14/0/14 29/0/29
f 15/0/15 29/0/29 30/0/30
f 31/0/31 32/0/32 33/0/33
f 31/0/31 33/0/33 34/0/34
f 34/0/34 33/0/33 35/0/35
f 34/0/34 35/0/35 36/0/36
f 36/0/36 35/0/35 37/0/37
f 36/0/36 37/0/37 38/0/38
f 38/0/38 37/0/37 39/0/39
f 38/0/38 39/0/39 40/0/40
f 40/0/40 39/0/39 41/0/41
f 40/0/40 41/0/41 42/0/42
f 42/0/42 41/0/41 43/0/43
f 42/0/42 43/0/43 44/0/44
f 44/0/44 43/0/43 45/0/45
f 44/0/44 45/0/45 46/0/46
f 46/0/46 45/0/45 47/0/47
f 46/0/46 47/0/47 48/0/48
f 48/0/48 47/0/47 49/0/49
f 48/0/48 49/0/49 50/0/50
f 50/0/50 49/0/49 51/0/51
f 50/0/50 51/0/51 52/0/52
f 53/0/53 54/0/54 55/0/55
f 53/0/53 55/0/55 56/0/56
f 56/0/56 55/0/55 57/0/57
f 56/0/56 57/0/57 58/0/58
f 58/0/58 57/0/57 59/0/59
f 58/0/58 59/0/59 60/0/60
f 60/0/60 59/0/59 61/0/61
f 60/0/60 61/0/61 62/0/62
f 62/0/62 61/0/61 63/0/63
f 62/0/62 63/0/63 64/0/64
f 64/0/64 63/0/63 65/0/65
f 64/0/64 65/0/65 66/0/66
f 66/0/66 65/0/65 67/0/67
f 66/0/66 67/0/67 68/0/68
f 68/0/68 67/0/67 69/0/69
f 68/0/68 69/0/69 70/0/70
f 57/0/57 55/0/55 71/0/71
f 71/0/71 72/0/72 57/0/57
f 55/0/55 54/0/54 71/0/71
f 73/0/73 74/0/74 75/0/75
f 73/0/73 75/0/75 76/0/76
f 76/0/76 77/0/77 73/0/73
f 76/0/76 78/0/78 77/0/77
f 79/0/79 77/0/77 78/0/78
f 79/0/79 80/0/80 77/0/77
f 80/0/80 79/0/79 81/0/81
f 80/0/80 81/0/81 82/0/82
f 82/0/82 81/0/81 83/0/83
f 82/0/82 83/0/83 84/0/84
f 85/0/85 86/0/86 87/0/87
f 85/0/85 87/0/87 88/0/88
f 86/0/86 89/0/89 87/0/87
f 89/0/89 90/0/90 87/0/87
f 90/0/90 91/0/91 87/0/87
f 91/0/91 92/0/92 87/0/87
f 91/0/91 93/0/93 92/0/92
f 93/0/93 94/0/94 92/0/92
f 93/0/93 95/0/95 94/0/94
f 96/0/96 97/0/97 98/0/98
f 96/0/96 98/0/98 99/0/99
f 97/0/97 96/0/96 100/0/100
f 97/0/97 100/0/100 101/0/101
f 102/0/102 101/0/101 100/0/100
f 102/0/102 100/0/100 103/0/103
f 104/0/104 102/0/102 103/0/103
f 104/0/104 105/0/105 102/0/102
f 104/0/104 106/0/106 105/0/105
f 104/0/104 107/0/107 106/0/106
f 106/0/106 107/0/107 108/0/108
f 106/0/106 108/0/108 109/0/109
f 108/0/108 110/0/110 109/0/109
f 108/0/108 111/0/111 110/0/110
f 98/0/98 112/0/112 99/0/99
f 98/0/98 113/0/113 112/0/112
f 114/0/114 115/0/115 116/0/116
f 114/0/114 116/0/116 117/0/117
f 115/0/115 118/0/118 116/0/116
f 115/0/115 119/0/119 118/0/118
f 119/0/119 120/0/120 118/0/118
f 119/0/119 121/0/121 120/0/120
f 121/0/121 122/0/122 120/0/120
f 121/0/121 123/0/123 122/0/122
f 123/0/123 124/0/124 122/0/122
f 123/0/123 125/0/125 124/0/124
f 125/0/125 126/0/126 124/0/124
f 125/0/125 127/0/127 126/0/126
f 127/0/127 128/0/128 126/0/126
f 127/0/127 129/0/129 128/0/128
f 129/0/129 130/0/130 128/0/128
f 129/0/129 131/0/131 130/0/130
f 131/0/131 132/0/132 130/0/130
f 131/0/131 133/0/133 132/0/132
f 133/0/133 134/0/134 132/0/132
f 133/0/133 135/0/135 134/0/134
f 136/0/136 137/0/137 138/0/138
f 136/0/136 138/0/138 139/0/139
f 137/0/137 140/0/140 138/0/138
f 137/0/137 141/0/141 140/0/140
f 141/0/141 142/0/142 140/0/140
f 141/0/141 143/0/143 142/0/142
f 143/0/143 144/0/144 142/0/142
f 143/0/143 145/0/145 144/0/144
f 145/0/145 146/0/146 144/0/144
f 145/0/145 147/0/147 146/0/146
f 147/0/147 148/0/148 146/0/146
f 147/0/147 149/0/149 148/0/148
f 149/0/149 150/0/150 148/0/148
f 149/0/149 151/0/151 150/0/150
f 151/0/151 152/0/152 150/0/150
f 151/0/151 153/0/153 152/0/152
f 154/0/154 138/0/138 140/0/140
f 140/0/140 155/0/155 154/0/154
f 154/0/154 139/0/139 138/0/138
f 156/0/156 157/0/157 158/0/158
f 156/0/156 158/0/158 159/0/159
f 157/0/157 156/0/156 160/0/160
f 157/0/157 160/0/160 161/0/161
f 162/0/162 161/0/161 160/0/160
f 162/0/162 160/0/160 163/0/163
f 163/0/163 164/0/164 162/0/162
f 163/0/163 165/0/165 164/0/164
f 165/0/165 166/0/166 164/0/164
f 165/0/165 167/0/167 166/0/166
f 168/0/168 169/0/169 170/0/170
f 168/0/168 170/0/170 171/0/171
f 171/0/171 170/0/170 172/0/172
f 172/0/172 170/0/170 173/0/173
f 173/0/173 170/0/170 174/0/174
f 174/0/174 170/0/170 175/0/175
f 174/0/174 175/0/175 176/0/176
f 176/0/176 175/0/175 177/0/177
f 176/0/176 177/0/177 178/0/178
