# 
# Wavefront OBJ file
# Created with Kaydara FBX
# 
mtllib l04 #2212309.mtl

g L04
v 1.283146 2.954636 1.929132
v -0.241675 2.245731 1.929132
v 1.491590 1.148663 1.953670
v 1.618148 1.221731 1.953670
v 1.120878 2.853642 0.898451
v -0.211113 2.234387 0.898451
v 1.303529 1.275671 0.922989
v 1.414130 1.339527 0.922989
v 0.960816 2.754022 -0.118221
v -0.180966 2.223196 -0.118222
v 1.118024 1.400954 -0.093684
v 1.212885 1.455722 -0.093685
v -0.960816 2.754021 -0.118221
v -1.212885 1.455722 -0.093684
v -1.118023 1.400954 -0.093684
v 0.180966 2.223196 -0.118222
v -1.120879 2.853642 0.898450
v -1.414131 1.339527 0.922989
v -1.303529 1.275671 0.922989
v 0.211113 2.234387 0.898451
v -1.283145 2.954635 1.929132
v -1.618148 1.221731 1.953670
v -1.491590 1.148663 1.953670
v 0.241675 2.245731 1.929132
vt 0.034719 0.982834
vt 0.475130 0.982834
vt 0.276035 0.501689
vt 0.223739 0.501645
vt 0.034719 0.982834
vt 0.475130 0.982834
vt 0.276035 0.501689
vt 0.223739 0.501645
vt 0.034718 0.982834
vt 0.475129 0.982834
vt 0.276035 0.501689
vt 0.223739 0.501644
vt 0.475130 0.982834
vt 0.276035 0.501644
vt 0.223739 0.501689
vt 0.034718 0.982834
vt 0.475130 0.982834
vt 0.276035 0.501645
vt 0.223739 0.501689
vt 0.034718 0.982834
vt 0.475130 0.982834
vt 0.276035 0.501645
vt 0.223739 0.501689
vt 0.034718 0.982834
vn -0.006100 0.012882 0.999898
vn -0.006100 0.012882 0.999898
vn -0.006100 0.012882 0.999898
vn -0.006100 0.012882 0.999898
vn -0.006980 0.014740 0.999867
vn -0.006980 0.014740 0.999867
vn -0.006980 0.014740 0.999867
vn -0.006980 0.014740 0.999867
vn -0.008138 0.017186 0.999819
vn -0.008138 0.017186 0.999819
vn -0.008138 0.017186 0.999819
vn -0.008138 0.017186 0.999819
vn 0.008138 0.017186 0.999819
vn 0.008138 0.017186 0.999819
vn 0.008138 0.017186 0.999819
vn 0.008138 0.017186 0.999819
vn 0.006980 0.014741 0.999867
vn 0.006980 0.014741 0.999867
vn 0.006980 0.014741 0.999867
vn 0.006980 0.014741 0.999867
vn 0.006100 0.012882 0.999898
vn 0.006100 0.012882 0.999898
vn 0.006100 0.012882 0.999898
vn 0.006100 0.012882 0.999898
usemtl material
f 1/0/1 2/0/2 3/0/3
f 1/0/1 3/0/3 4/0/4
f 5/0/5 6/0/6 7/0/7
f 5/0/5 7/0/7 8/0/8
f 9/0/9 10/0/10 11/0/11
f 9/0/9 11/0/11 12/0/12
f 13/0/13 14/0/14 15/0/15
f 13/0/13 15/0/15 16/0/16
f 17/0/17 18/0/18 19/0/19
f 17/0/17 19/0/19 20/0/20
f 21/0/21 22/0/22 23/0/23
f 21/0/21 23/0/23 24/0/24
