# 
# Wavefront OBJ file
# Created with Kaydara FBX
# 
mtllib l04.mtl

g L04
v -0.093838 3.516057 1.205468
v -0.164442 3.898802 1.004653
v -0.528666 3.709046 0.884760
v -0.463630 3.332117 1.084165
v 0.257959 1.570497 0.502477
v 0.287406 1.959393 0.506935
v -0.109148 1.964135 0.591242
v -0.134170 1.571430 0.587706
v -0.866034 3.287353 2.015483
v -0.829726 3.700508 1.661329
v -1.430261 3.653161 1.622537
v -1.482015 3.241561 1.976314
v -0.791142 2.201541 2.299868
v -0.774226 2.818418 2.198604
v -1.407259 2.839596 2.259425
v -1.421367 2.218754 2.361651
vt 0.579884 0.641663
vt 0.579884 0.949125
vt 0.887347 0.949125
vt 0.887347 0.641663
vt 0.579884 0.641663
vt 0.579884 0.949125
vt 0.887347 0.949125
vt 0.887347 0.641663
vt 0.579884 0.641663
vt 0.579884 0.949125
vt 0.887347 0.949125
vt 0.887347 0.641663
vt 0.579884 0.641663
vt 0.579884 0.949125
vt 0.887347 0.949125
vt 0.887347 0.641663
vn -0.449172 0.352346 0.821034
vn -0.449172 0.352346 0.821034
vn -0.449172 0.352346 0.821034
vn -0.449172 0.352346 0.821034
vn 0.209927 -0.024627 0.977407
vn 0.209927 -0.024627 0.977407
vn 0.209927 -0.024627 0.977407
vn 0.209927 -0.024627 0.977407
vn -0.098146 0.654189 0.749936
vn -0.098146 0.654189 0.749936
vn -0.098146 0.654189 0.749936
vn -0.098146 0.654189 0.749936
vn 0.100157 0.158969 0.982190
vn 0.100157 0.158969 0.982190
vn 0.100157 0.158969 0.982190
vn 0.100157 0.158969 0.982190
usemtl material
f 1/0/1 2/0/2 3/0/3
f 1/0/1 3/0/3 4/0/4
f 5/0/5 6/0/6 7/0/7
f 5/0/5 7/0/7 8/0/8
f 9/0/9 10/0/10 11/0/11
f 9/0/9 11/0/11 12/0/12
f 13/0/13 14/0/14 15/0/15
f 13/0/13 15/0/15 16/0/16
