# 
# Wavefront OBJ file
# Created with Kaydara FBX
# 
mtllib labelcharalock.mtl

g LabelCharaLock
v -0.371157 -0.091089 -0.065445
v -0.371157 0.091089 -0.065445
v -0.354154 0.091089 -0.128901
v -0.354154 -0.091089 -0.128901
v -0.326390 0.091089 -0.188441
v -0.326390 -0.091089 -0.188441
v -0.288709 0.091089 -0.242255
v -0.288709 -0.091089 -0.242255
v -0.242255 0.091089 -0.288709
v -0.242255 -0.091089 -0.288709
v -0.188441 0.091089 -0.326390
v -0.188441 -0.091089 -0.326390
v -0.128901 0.091089 -0.354154
v -0.128901 -0.091089 -0.354154
v -0.065445 0.091089 -0.371157
v -0.065445 -0.091089 -0.371157
v -0.000000 0.091089 -0.376882
v -0.000000 -0.091089 -0.376882
v 0.065445 0.091089 -0.371157
v 0.065445 -0.091089 -0.371157
v 0.128901 0.091089 -0.354154
v 0.128901 -0.091089 -0.354154
v 0.188441 0.091089 -0.326390
v 0.188441 -0.091089 -0.326390
v 0.242255 0.091089 -0.288709
v 0.242255 -0.091089 -0.288709
v 0.288709 0.091089 -0.242256
v 0.288709 -0.091089 -0.242256
v 0.326390 0.091089 -0.188441
v 0.326390 -0.091089 -0.188441
v 0.354154 0.091089 -0.128902
v 0.354154 -0.091089 -0.128902
v 0.371157 0.091089 -0.065445
v 0.371157 -0.091089 -0.065445
v 0.376883 0.091089 -0.000000
v 0.376883 -0.091089 -0.000000
v 0.371157 0.091089 0.065445
v 0.371157 -0.091089 0.065445
v 0.354154 0.091089 0.128901
v 0.354154 -0.091089 0.128901
v 0.326390 0.091089 0.188441
v 0.326390 -0.091089 0.188441
v 0.288709 0.091089 0.242255
v 0.288709 -0.091089 0.242255
v 0.242256 0.091089 0.288709
v 0.242256 -0.091089 0.288709
v 0.188441 0.091089 0.326390
v 0.188441 -0.091089 0.326390
v 0.128902 0.091089 0.354154
v 0.128902 -0.091089 0.354154
v 0.065445 0.091089 0.371157
v 0.065445 -0.091089 0.371157
v 0.000000 0.091089 0.376882
v 0.000000 -0.091089 0.376882
v -0.065445 0.091089 0.371157
v -0.065445 -0.091089 0.371157
v -0.128901 0.091089 0.354154
v -0.128901 -0.091089 0.354154
v -0.188441 0.091089 0.326390
v -0.188441 -0.091089 0.326390
v -0.242255 0.091089 0.288709
v -0.242255 -0.091089 0.288709
v -0.288709 0.091089 0.242255
v -0.288709 -0.091089 0.242255
v -0.326390 0.091089 0.188441
v -0.326390 -0.091089 0.188441
v -0.354154 0.091089 0.128901
v -0.354154 -0.091089 0.128901
v -0.371157 0.091089 0.065445
v -0.371157 -0.091089 0.065445
v -0.376883 0.091089 -0.000000
v -0.376883 -0.091089 -0.000000
v -0.371157 0.091089 -0.065445
v -0.371157 -0.091089 -0.065445
vt -3.543424 0.081675
vt -3.543424 0.930934
vt -3.336146 0.930934
vt -3.336146 0.081675
vt -3.128869 0.930934
vt -3.128869 0.081675
vt -2.921591 0.930934
vt -2.921591 0.081675
vt -2.714312 0.930934
vt -2.714312 0.081675
vt -2.507035 0.930934
vt -2.507035 0.081675
vt -2.299758 0.930934
vt -2.299758 0.081675
vt -2.092480 0.930934
vt -2.092480 0.081675
vt -1.885202 0.930934
vt -1.885202 0.081675
vt -1.677924 0.930934
vt -1.677924 0.081675
vt -1.470647 0.930934
vt -1.470647 0.081675
vt -1.263369 0.930934
vt -1.263369 0.081675
vt -1.056091 0.930934
vt -1.056091 0.081675
vt -0.848814 0.930934
vt -0.848814 0.081675
vt -0.641536 0.930934
vt -0.641536 0.081675
vt -0.434258 0.930934
vt -0.434258 0.081675
vt -0.226981 0.930934
vt -0.226981 0.081675
vt -0.019703 0.930934
vt -0.019703 0.081675
vt 0.187575 0.930934
vt 0.187575 0.081675
vt 0.394852 0.930934
vt 0.394852 0.081675
vt 0.602129 0.930934
vt 0.602129 0.081675
vt 0.809405 0.930934
vt 0.809405 0.081675
vt 1.016682 0.930934
vt 1.016682 0.081675
vt 1.223959 0.930934
vt 1.223959 0.081675
vt 1.431236 0.930934
vt 1.431236 0.081675
vt 1.638513 0.930934
vt 1.638513 0.081675
vt 1.845789 0.930934
vt 1.845789 0.081675
vt 2.053066 0.930934
vt 2.053066 0.081675
vt 2.260343 0.930934
vt 2.260343 0.081675
vt 2.467620 0.930934
vt 2.467620 0.081675
vt 2.674897 0.930934
vt 2.674897 0.081675
vt 2.882174 0.930934
vt 2.882174 0.081675
vt 3.089450 0.930934
vt 3.089450 0.081675
vt 3.296727 0.930934
vt 3.296727 0.081675
vt 3.504004 0.930934
vt 3.504004 0.081675
vt 3.711281 0.930934
vt 3.711281 0.081675
vt 3.918558 0.930934
vt 3.918558 0.081675
vn -0.984807 0.000000 -0.173650
vn -0.984807 0.000000 -0.173650
vn -0.939693 0.000000 -0.342019
vn -0.939693 0.000000 -0.342019
vn -0.866026 0.000000 -0.499999
vn -0.866026 0.000000 -0.499999
vn -0.766045 0.000000 -0.642787
vn -0.766045 0.000000 -0.642787
vn -0.642788 0.000000 -0.766044
vn -0.642788 0.000000 -0.766044
vn -0.500001 0.000000 -0.866025
vn -0.500001 0.000000 -0.866025
vn -0.342021 0.000000 -0.939692
vn -0.342021 0.000000 -0.939692
vn -0.173649 0.000000 -0.984808
vn -0.173649 0.000000 -0.984808
vn -0.000001 0.000000 -1.000000
vn -0.000001 0.000000 -1.000000
vn 0.173647 0.000000 -0.984808
vn 0.173647 0.000000 -0.984808
vn 0.342020 0.000000 -0.939693
vn 0.342020 0.000000 -0.939693
vn 0.500000 0.000000 -0.866026
vn 0.500000 0.000000 -0.866026
vn 0.642787 0.000000 -0.766045
vn 0.642787 0.000000 -0.766045
vn 0.766044 0.000000 -0.642788
vn 0.766044 0.000000 -0.642788
vn 0.866025 0.000000 -0.500000
vn 0.866025 0.000000 -0.500000
vn 0.939693 0.000000 -0.342020
vn 0.939693 0.000000 -0.342020
vn 0.984808 0.000000 -0.173649
vn 0.984808 0.000000 -0.173649
vn 1.000000 0.000000 -0.000001
vn 1.000000 0.000000 -0.000001
vn 0.984808 0.000000 0.173647
vn 0.984808 0.000000 0.173647
vn 0.939693 0.000000 0.342020
vn 0.939693 0.000000 0.342020
vn 0.866026 0.000000 0.500000
vn 0.866026 0.000000 0.500000
vn 0.766045 0.000000 0.642787
vn 0.766045 0.000000 0.642787
vn 0.642788 0.000000 0.766044
vn 0.642788 0.000000 0.766044
vn 0.500000 0.000000 0.866025
vn 0.500000 0.000000 0.866025
vn 0.342020 0.000000 0.939692
vn 0.342020 0.000000 0.939692
vn 0.173648 0.000000 0.984808
vn 0.173648 0.000000 0.984808
vn 0.000000 0.000000 1.000000
vn 0.000000 0.000000 1.000000
vn -0.173648 0.000000 0.984808
vn -0.173648 0.000000 0.984808
vn -0.342020 0.000000 0.939693
vn -0.342020 0.000000 0.939693
vn -0.499999 0.000000 0.866026
vn -0.499999 0.000000 0.866026
vn -0.642787 0.000000 0.766045
vn -0.642787 0.000000 0.766045
vn -0.766045 0.000000 0.642787
vn -0.766045 0.000000 0.642787
vn -0.866025 0.000000 0.500000
vn -0.866025 0.000000 0.500000
vn -0.939692 0.000000 0.342021
vn -0.939692 0.000000 0.342021
vn -0.984808 0.000000 0.173649
vn -0.984808 0.000000 0.173649
vn -1.000000 0.000000 -0.000002
vn -1.000000 0.000000 -0.000002
vn -0.984807 0.000000 -0.173650
vn -0.984807 0.000000 -0.173650
usemtl material
f 1/0/1 2/0/2 3/0/3
f 1/0/1 3/0/3 4/0/4
f 4/0/4 3/0/3 5/0/5
f 4/0/4 5/0/5 6/0/6
f 6/0/6 5/0/5 7/0/7
f 6/0/6 7/0/7 8/0/8
f 8/0/8 7/0/7 9/0/9
f 8/0/8 9/0/9 10/0/10
f 10/0/10 9/0/9 11/0/11
f 10/0/10 11/0/11 12/0/12
f 12/0/12 11/0/11 13/0/13
f 12/0/12 13/0/13 14/0/14
f 14/0/14 13/0/13 15/0/15
f 14/0/14 15/0/15 16/0/16
f 16/0/16 15/0/15 17/0/17
f 16/0/16 17/0/17 18/0/18
f 18/0/18 17/0/17 19/0/19
f 18/0/18 19/0/19 20/0/20
f 20/0/20 19/0/19 21/0/21
f 20/0/20 21/0/21 22/0/22
f 22/0/22 21/0/21 23/0/23
f 22/0/22 23/0/23 24/0/24
f 24/0/24 23/0/23 25/0/25
f 24/0/24 25/0/25 26/0/26
f 26/0/26 25/0/25 27/0/27
f 26/0/26 27/0/27 28/0/28
f 28/0/28 27/0/27 29/0/29
f 28/0/28 29/0/29 30/0/30
f 30/0/30 29/0/29 31/0/31
f 30/0/30 31/0/31 32/0/32
f 32/0/32 31/0/31 33/0/33
f 32/0/32 33/0/33 34/0/34
f 34/0/34 33/0/33 35/0/35
f 34/0/34 35/0/35 36/0/36
f 36/0/36 35/0/35 37/0/37
f 36/0/36 37/0/37 38/0/38
f 38/0/38 37/0/37 39/0/39
f 38/0/38 39/0/39 40/0/40
f 40/0/40 39/0/39 41/0/41
f 40/0/40 41/0/41 42/0/42
f 42/0/42 41/0/41 43/0/43
f 42/0/42 43/0/43 44/0/44
f 44/0/44 43/0/43 45/0/45
f 44/0/44 45/0/45 46/0/46
f 46/0/46 45/0/45 47/0/47
f 46/0/46 47/0/47 48/0/48
f 48/0/48 47/0/47 49/0/49
f 48/0/48 49/0/49 50/0/50
f 50/0/50 49/0/49 51/0/51
f 50/0/50 51/0/51 52/0/52
f 52/0/52 51/0/51 53/0/53
f 52/0/52 53/0/53 54/0/54
f 54/0/54 53/0/53 55/0/55
f 54/0/54 55/0/55 56/0/56
f 56/0/56 55/0/55 57/0/57
f 56/0/56 57/0/57 58/0/58
f 58/0/58 57/0/57 59/0/59
f 58/0/58 59/0/59 60/0/60
f 60/0/60 59/0/59 61/0/61
f 60/0/60 61/0/61 62/0/62
f 62/0/62 61/0/61 63/0/63
f 62/0/62 63/0/63 64/0/64
f 64/0/64 63/0/63 65/0/65
f 64/0/64 65/0/65 66/0/66
f 66/0/66 65/0/65 67/0/67
f 66/0/66 67/0/67 68/0/68
f 68/0/68 67/0/67 69/0/69
f 68/0/68 69/0/69 70/0/70
f 70/0/70 69/0/69 71/0/71
f 70/0/70 71/0/71 72/0/72
f 72/0/72 71/0/71 73/0/73
f 72/0/72 73/0/73 74/0/74
