# 
# Wavefront OBJ file
# Created with Kaydara FBX
# 
mtllib lantern_c12_01.mtl

g Lantern_C12_01
v 0.000000 -1.378392 0.000000
v -0.243130 -1.376844 -0.113037
v -0.091978 -1.376844 -0.251851
v 0.113042 -1.376844 -0.243125
v 0.251851 -1.376844 -0.091982
v 0.243130 -1.376844 0.113042
v 0.091987 -1.376844 0.251860
v -0.113042 -1.376844 0.243130
v -0.251855 -1.376844 0.091987
v -0.243135 -1.297786 -0.113037
v -0.408047 -1.063987 -0.189722
v -0.154380 -1.063987 -0.422681
v -0.091978 -1.297786 -0.251851
v 0.189727 -1.063987 -0.408047
v 0.113042 -1.297786 -0.243125
v -0.251855 -1.297786 0.091987
v -0.422690 -1.063987 0.154385
v -0.113042 -1.297786 0.243130
v -0.189722 -1.063987 0.408052
v 0.091987 -1.297786 0.251860
v 0.154390 -1.063987 0.422690
v 0.243130 -1.297786 0.113042
v 0.408047 -1.063987 0.189727
v 0.251851 -1.297786 -0.091982
v 0.422686 -1.063987 -0.154380
v 0.113042 -1.297786 -0.243125
v 0.189727 -1.063987 -0.408047
v 0.189727 -0.300933 -0.408047
v 0.422686 -0.300933 -0.154380
v 0.189727 -0.300933 -0.408047
v 0.408047 -0.300933 0.189727
v 0.154390 -0.300933 0.422690
v -0.189722 -0.300933 0.408052
v -0.422690 -0.300933 0.154385
v -0.408047 -0.300933 -0.189722
v -0.154380 -0.300933 -0.422681
v -0.091978 -0.067214 -0.251851
v -0.243130 -0.067214 -0.113037
v 0.113042 -0.067214 -0.243125
v 0.251851 -0.067214 -0.091982
v 0.113042 -0.067214 -0.243125
v 0.243130 -0.067214 0.113042
v 0.091987 -0.067214 0.251860
v -0.113042 -0.067214 0.243130
v -0.251855 -0.067214 0.091987
v -0.243130 -0.002263 -0.113037
v 0.000000 0.000000 0.000000
v -0.091978 -0.002263 -0.251851
v 0.113042 -0.002263 -0.243125
v 0.251851 -0.002263 -0.091982
v 0.243130 -0.002263 0.113042
v 0.091987 -0.002263 0.251860
v -0.113042 -0.002263 0.243130
v -0.251855 -0.002263 0.091987
v -0.091978 -1.297786 -0.251851
v -0.091978 -1.376844 -0.251851
v -0.243130 -1.376844 -0.113037
v -0.243135 -1.297786 -0.113037
v -0.251855 -1.376844 0.091987
v -0.251855 -1.297786 0.091987
v -0.113042 -1.376844 0.243130
v -0.113042 -1.297786 0.243130
v 0.113042 -1.297786 -0.243125
v 0.113042 -1.376844 -0.243125
v 0.251851 -1.297786 -0.091982
v 0.251851 -1.376844 -0.091982
v 0.243130 -1.297786 0.113042
v 0.243130 -1.376844 0.113042
v 0.091987 -1.297786 0.251860
v 0.091987 -1.376844 0.251860
v -0.113042 -1.297786 0.243130
v -0.113042 -1.376844 0.243130
v -0.243130 -0.067214 -0.113037
v -0.243130 -0.002263 -0.113037
v -0.091978 -0.002263 -0.251851
v -0.091978 -0.067214 -0.251851
v 0.113042 -0.002263 -0.243125
v 0.113042 -0.067214 -0.243125
v 0.251851 -0.002263 -0.091982
v 0.251851 -0.067214 -0.091982
v 0.243130 -0.002263 0.113042
v 0.243130 -0.067214 0.113042
v 0.091987 -0.002263 0.251860
v 0.091987 -0.067214 0.251860
v -0.113042 -0.002263 0.243130
v -0.113042 -0.067214 0.243130
v -0.251855 -0.067214 0.091987
v -0.251855 -0.002263 0.091987
v -0.113042 -0.067214 0.243130
v -0.113042 -0.002263 0.243130
vt 0.020993 0.859971
vt 0.015152 0.845470
vt 0.006609 0.853847
vt 0.006491 0.865811
vt 0.014869 0.874355
vt 0.026833 0.874472
vt 0.035376 0.866095
vt 0.035494 0.854130
vt 0.027116 0.845587
vt 0.184449 0.875465
vt 0.184449 0.899581
vt 0.214688 0.899581
vt 0.214688 0.875465
vt 0.244927 0.899581
vt 0.244927 0.875465
vt 0.154210 0.875465
vt 0.154210 0.899581
vt 0.123971 0.875465
vt 0.123971 0.899581
vt 0.093732 0.875465
vt 0.093732 0.899581
vt 0.063493 0.875465
vt 0.063493 0.899581
vt 0.033254 0.875465
vt 0.033254 0.899581
vt 0.003015 0.875465
vt 0.003015 0.899581
vt 0.244927 0.974161
vt 0.033254 0.974161
vt 0.003015 0.974161
vt 0.063493 0.974161
vt 0.093732 0.974161
vt 0.123971 0.974161
vt 0.154210 0.974161
vt 0.184449 0.974161
vt 0.214688 0.974161
vt 0.214688 0.997401
vt 0.184449 0.997401
vt 0.244927 0.997401
vt 0.033254 0.997401
vt 0.003015 0.997401
vt 0.063493 0.997401
vt 0.093732 0.997401
vt 0.123971 0.997401
vt 0.154210 0.997401
vt 0.015152 0.845470
vt 0.020993 0.859971
vt 0.027116 0.845587
vt 0.035494 0.854130
vt 0.035376 0.866095
vt 0.026833 0.874472
vt 0.014869 0.874355
vt 0.006492 0.865811
vt 0.006609 0.853847
vt 0.209300 0.874420
vt 0.209300 0.845296
vt 0.123854 0.845296
vt 0.123854 0.874420
vt 0.038408 0.845296
vt 0.038408 0.874420
vt 0.003015 0.845296
vt 0.003015 0.874420
vt 0.244693 0.874420
vt 0.244693 0.845296
vt 0.209300 0.874420
vt 0.209300 0.845296
vt 0.123854 0.874420
vt 0.123854 0.845296
vt 0.038408 0.874420
vt 0.038408 0.845296
vt 0.003015 0.874420
vt 0.003015 0.845296
vt 0.123854 0.845296
vt 0.123854 0.874420
vt 0.209300 0.874420
vt 0.209300 0.845296
vt 0.244693 0.874420
vt 0.244693 0.845296
vt 0.209300 0.874420
vt 0.209300 0.845296
vt 0.123854 0.874420
vt 0.123854 0.845296
vt 0.038408 0.874420
vt 0.038408 0.845296
vt 0.003015 0.874420
vt 0.003015 0.845296
vt 0.038408 0.845296
vt 0.038408 0.874420
vt 0.003015 0.845296
vt 0.003015 0.874420
vn -0.004227 -0.999980 -0.004602
vn -0.004227 -0.999980 -0.004602
vn -0.004227 -0.999980 -0.004602
vn 0.000266 -0.999980 -0.006243
vn 0.004602 -0.999980 -0.004226
vn 0.006243 -0.999980 0.000265
vn 0.004227 -0.999980 0.004602
vn -0.000266 -0.999980 0.006243
vn -0.004602 -0.999980 0.004226
vn -0.715723 -0.614000 -0.332783
vn -0.898776 -0.132532 -0.417895
vn -0.340041 -0.132533 -0.931025
vn -0.270777 -0.614001 -0.741406
vn 0.417882 -0.132532 -0.898782
vn 0.332773 -0.614007 -0.715722
vn -0.741400 -0.614003 0.270790
vn -0.931025 -0.132531 0.340041
vn -0.332775 -0.614002 0.715726
vn -0.417879 -0.132532 0.898784
vn 0.270780 -0.614007 0.741400
vn 0.340043 -0.132534 0.931024
vn 0.715733 -0.614002 0.332758
vn 0.898787 -0.132533 0.417872
vn 0.741401 -0.614005 -0.270781
vn 0.931027 -0.132533 -0.340034
vn 0.332773 -0.614007 -0.715722
vn 0.417882 -0.132532 -0.898782
vn 0.417882 0.132536 -0.898782
vn 0.931027 0.132536 -0.340034
vn 0.417882 0.132536 -0.898782
vn 0.898786 0.132536 0.417872
vn 0.340043 0.132537 0.931024
vn -0.417879 0.132535 0.898783
vn -0.931025 0.132536 0.340040
vn -0.898776 0.132537 -0.417894
vn -0.340041 0.132536 -0.931024
vn -0.270744 0.614135 -0.741307
vn -0.715627 0.614136 -0.332740
vn 0.332730 0.614139 -0.715629
vn 0.741304 0.614137 -0.270746
vn 0.332730 0.614139 -0.715629
vn 0.715640 0.614134 0.332715
vn 0.270745 0.614139 0.741303
vn -0.332731 0.614134 0.715632
vn -0.741302 0.614138 0.270749
vn -0.006180 0.999958 -0.006729
vn -0.006180 0.999958 -0.006729
vn -0.006180 0.999958 -0.006729
vn 0.000388 0.999958 -0.009128
vn 0.006729 0.999958 -0.006180
vn 0.009128 0.999958 0.000388
vn 0.006180 0.999958 0.006728
vn -0.000389 0.999958 0.009127
vn -0.006729 0.999958 0.006180
vn -0.343070 -0.000011 -0.939310
vn -0.343070 -0.000011 -0.939310
vn -0.906765 -0.000028 -0.421636
vn -0.906771 -0.000028 -0.421624
vn -0.939305 -0.000017 0.343082
vn -0.939305 -0.000017 0.343082
vn -0.421614 0.000000 0.906775
vn -0.421614 0.000000 0.906775
vn 0.421618 0.000000 -0.906773
vn 0.421618 0.000000 -0.906773
vn 0.939307 0.000000 -0.343077
vn 0.939307 0.000000 -0.343077
vn 0.906785 0.000000 0.421593
vn 0.906785 0.000000 0.421593
vn 0.343072 0.000000 0.939309
vn 0.343072 0.000000 0.939309
vn -0.421614 0.000000 0.906775
vn -0.421614 0.000000 0.906775
vn -0.906768 0.000000 -0.421630
vn -0.906768 0.000000 -0.421630
vn -0.343072 0.000000 -0.939309
vn -0.343072 0.000000 -0.939309
vn 0.421618 0.000000 -0.906773
vn 0.421618 0.000000 -0.906773
vn 0.939307 0.000000 -0.343076
vn 0.939307 0.000000 -0.343076
vn 0.906785 0.000000 0.421593
vn 0.906785 0.000000 0.421593
vn 0.343072 0.000000 0.939309
vn 0.343072 0.000000 0.939309
vn -0.421614 0.000000 0.906775
vn -0.421614 0.000000 0.906775
vn -0.939307 0.000000 0.343077
vn -0.939307 0.000000 0.343077
vn -0.421614 0.000000 0.906775
vn -0.421614 0.000000 0.906775
usemtl material
f 1/0/1 2/0/2 3/0/3
f 1/0/1 3/0/3 4/0/4
f 1/0/1 4/0/4 5/0/5
f 1/0/1 5/0/5 6/0/6
f 1/0/1 6/0/6 7/0/7
f 1/0/1 7/0/7 8/0/8
f 1/0/1 8/0/8 9/0/9
f 1/0/1 9/0/9 2/0/2
f 10/0/10 11/0/11 12/0/12
f 10/0/10 12/0/12 13/0/13
f 13/0/13 12/0/12 14/0/14
f 13/0/13 14/0/14 15/0/15
f 16/0/16 11/0/11 10/0/10
f 16/0/16 17/0/17 11/0/11
f 18/0/18 17/0/17 16/0/16
f 18/0/18 19/0/19 17/0/17
f 20/0/20 19/0/19 18/0/18
f 20/0/20 21/0/21 19/0/19
f 22/0/22 21/0/21 20/0/20
f 22/0/22 23/0/23 21/0/21
f 24/0/24 23/0/23 22/0/22
f 24/0/24 25/0/25 23/0/23
f 26/0/26 25/0/25 24/0/24
f 26/0/26 27/0/27 25/0/25
f 12/0/12 28/0/28 14/0/14
f 27/0/27 29/0/29 25/0/25
f 27/0/27 30/0/30 29/0/29
f 25/0/25 29/0/29 31/0/31
f 25/0/25 31/0/31 23/0/23
f 23/0/23 31/0/31 32/0/32
f 23/0/23 32/0/32 21/0/21
f 21/0/21 32/0/32 33/0/33
f 21/0/21 33/0/33 19/0/19
f 19/0/19 33/0/33 34/0/34
f 19/0/19 34/0/34 17/0/17
f 17/0/17 34/0/34 35/0/35
f 17/0/17 35/0/35 11/0/11
f 11/0/11 35/0/35 36/0/36
f 11/0/11 36/0/36 12/0/12
f 12/0/12 36/0/36 28/0/28
f 35/0/35 37/0/37 36/0/36
f 35/0/35 38/0/38 37/0/37
f 34/0/34 38/0/38 35/0/35
f 36/0/36 37/0/37 39/0/39
f 36/0/36 39/0/39 28/0/28
f 30/0/30 40/0/40 29/0/29
f 30/0/30 41/0/41 40/0/40
f 29/0/29 40/0/40 42/0/42
f 29/0/29 42/0/42 31/0/31
f 31/0/31 42/0/42 43/0/43
f 31/0/31 43/0/43 32/0/32
f 32/0/32 43/0/43 44/0/44
f 32/0/32 44/0/44 33/0/33
f 33/0/33 44/0/44 45/0/45
f 33/0/33 45/0/45 34/0/34
f 34/0/34 45/0/45 38/0/38
f 46/0/46 47/0/47 48/0/48
f 48/0/48 47/0/47 49/0/49
f 49/0/49 47/0/47 50/0/50
f 50/0/50 47/0/47 51/0/51
f 51/0/51 47/0/47 52/0/52
f 52/0/52 47/0/47 53/0/53
f 53/0/53 47/0/47 54/0/54
f 54/0/54 47/0/47 46/0/46
f 55/0/55 56/0/56 57/0/57
f 55/0/55 57/0/57 58/0/58
f 58/0/58 57/0/57 59/0/59
f 58/0/58 59/0/59 60/0/60
f 60/0/60 59/0/59 61/0/61
f 60/0/60 61/0/61 62/0/62
f 63/0/63 56/0/56 55/0/55
f 63/0/63 64/0/64 56/0/56
f 65/0/65 64/0/64 63/0/63
f 65/0/65 66/0/66 64/0/64
f 67/0/67 66/0/66 65/0/65
f 67/0/67 68/0/68 66/0/66
f 69/0/69 68/0/68 67/0/67
f 69/0/69 70/0/70 68/0/68
f 71/0/71 70/0/70 69/0/69
f 71/0/71 72/0/72 70/0/70
f 73/0/73 74/0/74 75/0/75
f 73/0/73 75/0/75 76/0/76
f 76/0/76 75/0/75 77/0/77
f 76/0/76 77/0/77 78/0/78
f 78/0/78 77/0/77 79/0/79
f 78/0/78 79/0/79 80/0/80
f 80/0/80 79/0/79 81/0/81
f 80/0/80 81/0/81 82/0/82
f 82/0/82 81/0/81 83/0/83
f 82/0/82 83/0/83 84/0/84
f 84/0/84 83/0/83 85/0/85
f 84/0/84 85/0/85 86/0/86
f 87/0/87 74/0/74 73/0/73
f 87/0/87 88/0/88 74/0/74
f 89/0/89 88/0/88 87/0/87
f 89/0/89 90/0/90 88/0/88
