# 
# Wavefront OBJ file
# Created with Kaydara FBX
# 
mtllib line #225800.mtl

g Line
v -1.549458 0.000000 -0.434547
v -1.625679 0.000000 -0.447986
v -1.664878 0.000000 -0.000000
v -1.587476 0.000000 -0.000000
v -1.436567 0.000000 -0.855890
v -1.509292 0.000000 -0.882361
v -1.252212 0.000000 -1.251228
v -1.319243 0.000000 -1.289926
v -1.002017 0.000000 -1.608548
v -1.061304 0.000000 -1.658296
v -0.693569 0.000000 -1.916992
v -0.743315 0.000000 -1.976280
v -0.336255 0.000000 -2.167190
v -0.374946 0.000000 -2.234215
v 0.059087 0.000000 -2.351538
v 0.032612 0.000000 -2.424267
v 0.480425 0.000000 -2.464437
v 0.466987 0.000000 -2.540656
v 0.914976 0.000000 -2.502455
v 0.914976 0.000000 -2.579850
v 1.349526 0.000000 -2.464436
v 1.362964 0.000000 -2.540656
v 1.770864 0.000000 -2.351538
v 1.797339 0.000000 -2.424265
v 2.166206 0.000000 -2.167189
v 2.204897 0.000000 -2.234215
v 2.523520 0.000000 -1.916991
v 2.573267 0.000000 -1.976280
v 2.831968 0.000000 -1.608546
v 2.891255 0.000000 -1.658295
v 3.082163 0.000000 -1.251227
v 3.149194 0.000000 -1.289925
v 3.266519 0.000000 -0.855889
v 3.339243 0.000000 -0.882360
v 3.379409 0.000000 -0.434546
v 3.455630 0.000000 -0.447986
v 3.417427 0.000000 0.000001
v 3.494829 0.000000 0.000001
v 3.379409 0.000000 0.434547
v 3.455630 0.000000 0.447987
v 3.266509 0.000000 0.855891
v 3.339243 0.000000 0.882361
v 3.082163 0.000000 1.251228
v 3.149194 0.000000 1.289926
v 2.831968 0.000000 1.608548
v 2.891255 0.000000 1.658296
v 2.523520 0.000000 1.916992
v 2.573267 0.000000 1.976280
v 2.166206 0.000000 2.167190
v 2.204897 0.000000 2.234215
v 1.770864 0.000000 2.351538
v 1.797339 0.000000 2.424265
v 1.349517 0.000000 2.464436
v 1.362964 0.000000 2.540656
v 0.914976 0.000000 2.502455
v 0.914976 0.000000 2.579849
v 0.480425 0.000000 2.464436
v 0.466987 0.000000 2.540655
v 0.059087 0.000000 2.351537
v 0.032612 0.000000 2.424264
v -0.336255 0.000000 2.167188
v -0.374946 0.000000 2.234214
v -0.693569 0.000000 1.916990
v -0.743325 0.000000 1.976278
v -1.002017 0.000000 1.608545
v -1.061304 0.000000 1.658294
v -1.252212 0.000000 1.251226
v -1.319243 0.000000 1.289923
v -1.436558 0.000000 0.855888
v -1.509292 0.000000 0.882359
v -1.549458 0.000000 0.434544
v -1.625679 0.000000 0.447983
v -1.587476 0.000000 -0.000000
v -1.664878 0.000000 -0.000000
v 3.774829 0.000000 -6.202845
v 3.774848 0.000000 -36.323906
v 3.707036 0.000000 -36.323906
v 3.707016 0.000000 -6.270667
v 1.274829 0.000000 -6.202845
v 3.774829 0.000000 -6.202845
v 3.707016 0.000000 -6.270667
v 1.207017 0.000000 -6.270667
v 1.274849 -0.000000 -2.546790
v 1.274829 0.000000 -6.202845
v 1.207017 0.000000 -6.270667
v 1.207036 -0.000000 -2.546790
v 3.080630 0.000000 2.297340
v 3.138306 0.000000 2.354260
v 3.513335 0.000000 1.932416
v 3.444409 0.000000 1.888151
v 2.651313 0.000000 2.637143
v 2.695708 0.000000 2.704572
v 2.169517 0.000000 2.897234
v 2.199018 0.000000 2.972707
v 1.649878 0.000000 3.069710
v 1.663306 0.000000 3.150517
v 2.172065 0.000000 -2.896131
v 2.201626 0.000000 -2.971579
v 1.666069 0.000000 -3.149860
v 1.652573 0.000000 -3.069064
v 2.653638 0.000000 -2.635617
v 2.698091 0.000000 -2.703007
v 3.082651 0.000000 -2.295436
v 3.140376 0.000000 -2.352305
v 3.446069 0.000000 -1.885927
v 3.515034 0.000000 -1.930131
v -2.194751 0.000000 0.545434
v -2.274009 0.000000 0.562303
v -2.127925 0.000000 1.107520
v -2.053052 0.000000 1.074295
v -2.242476 0.000000 -0.000000
v -2.323208 0.000000 -0.000002
v -2.194751 0.000000 -0.545435
v -2.274009 0.000000 -0.562304
v -2.053042 0.000000 -1.074296
v -2.127925 0.000000 -1.107521
v 3.774829 0.000000 6.202844
v 3.707016 0.000000 6.270666
v 3.707036 0.000000 36.323910
v 3.774848 0.000000 36.323910
v 1.274829 0.000000 6.202844
v 1.207017 0.000000 6.270666
v 3.707016 0.000000 6.270666
v 3.774829 0.000000 6.202844
v 1.274849 -0.000000 2.546790
v 1.207036 -0.000000 2.546790
v 1.207017 0.000000 6.270666
v 1.274829 0.000000 6.202844
v 1.257241 -0.000000 -33.752316
v 1.189429 -0.000000 -33.820126
v -3.774848 -0.000000 -33.820107
v -3.774848 -0.000000 -33.752293
v 1.257241 -0.000000 -36.252316
v 1.189429 -0.000000 -36.320126
v 1.189429 -0.000000 -33.820126
v 1.257241 -0.000000 -33.752316
v 3.706313 -0.000000 -36.252293
v 3.706313 -0.000000 -36.320107
v 1.189429 -0.000000 -36.320126
v 1.257241 -0.000000 -36.252316
v 1.257241 -0.000000 33.752319
v -3.774848 -0.000000 33.752300
v -3.774848 -0.000000 33.820110
v 1.189429 -0.000000 33.820129
v 1.257241 -0.000000 36.252319
v 1.257241 -0.000000 33.752319
v 1.189429 -0.000000 33.820129
v 1.189429 -0.000000 36.320129
v 3.706313 -0.000000 36.252300
v 1.257241 -0.000000 36.252319
v 1.189429 -0.000000 36.320129
v 3.706313 -0.000000 36.320110
vt 0.027778 0.750000
vt 0.027778 0.500000
vt 0.000000 0.500000
vt 0.000000 0.750000
vt 0.055556 0.750000
vt 0.055556 0.500000
vt 0.083333 0.750000
vt 0.083333 0.500000
vt 0.111111 0.750000
vt 0.111111 0.500000
vt 0.138889 0.750000
vt 0.138889 0.500000
vt 0.166667 0.750000
vt 0.166667 0.500000
vt 0.194444 0.750000
vt 0.194444 0.500000
vt 0.222222 0.750000
vt 0.222222 0.500000
vt 0.250000 0.750000
vt 0.250000 0.500000
vt 0.277778 0.750000
vt 0.277778 0.500000
vt 0.305556 0.750000
vt 0.305556 0.500000
vt 0.333333 0.750000
vt 0.333333 0.500000
vt 0.361111 0.750000
vt 0.361111 0.500000
vt 0.388889 0.750000
vt 0.388889 0.500000
vt 0.416667 0.750000
vt 0.416667 0.500000
vt 0.444445 0.750000
vt 0.444445 0.500000
vt 0.472222 0.750000
vt 0.472222 0.500000
vt 0.500000 0.750000
vt 0.500000 0.500000
vt 0.527778 0.750000
vt 0.527778 0.500000
vt 0.555556 0.750000
vt 0.555556 0.500000
vt 0.583333 0.750000
vt 0.583333 0.500000
vt 0.611111 0.750000
vt 0.611111 0.500000
vt 0.638889 0.750000
vt 0.638889 0.500000
vt 0.666667 0.750000
vt 0.666667 0.500000
vt 0.694445 0.750000
vt 0.694445 0.500000
vt 0.722222 0.750000
vt 0.722222 0.500000
vt 0.750000 0.750000
vt 0.750000 0.500000
vt 0.777778 0.750000
vt 0.777778 0.500000
vt 0.805556 0.750000
vt 0.805556 0.500000
vt 0.833334 0.750000
vt 0.833334 0.500000
vt 0.861111 0.750000
vt 0.861111 0.500000
vt 0.888889 0.750000
vt 0.888889 0.500000
vt 0.916667 0.750000
vt 0.916667 0.500000
vt 0.944445 0.750000
vt 0.944445 0.500000
vt 0.972223 0.750000
vt 0.972223 0.500000
vt 1.000000 0.750000
vt 1.000000 0.500000
vt 0.004544 0.983642
vt 3.972005 0.983650
vt 3.972009 0.992587
vt 0.013482 0.992579
vt -0.390008 0.983642
vt 0.004544 0.983642
vt -0.006157 0.992580
vt -0.400709 0.992579
vt -0.901074 0.983643
vt -0.409739 0.983642
vt -0.400625 0.992579
vt -0.901074 0.992581
vt 0.722365 0.641207
vt 0.722222 0.500000
vt 0.694445 0.500000
vt 0.694917 0.700586
vt 0.750000 0.640713
vt 0.750000 0.500000
vt 0.777635 0.641207
vt 0.777778 0.500000
vt 0.805083 0.700586
vt 0.805556 0.500000
vt 0.722365 0.641207
vt 0.722222 0.500000
vt 0.694445 0.500000
vt 0.694917 0.700586
vt 0.750000 0.640713
vt 0.750000 0.500000
vt 0.777635 0.641207
vt 0.777778 0.500000
vt 0.805083 0.700586
vt 0.805556 0.500000
vt 0.722365 0.641207
vt 0.722222 0.500000
vt 0.694445 0.500000
vt 0.694917 0.700586
vt 0.750000 0.640713
vt 0.750000 0.500000
vt 0.777635 0.641207
vt 0.777778 0.500000
vt 0.805083 0.700586
vt 0.805556 0.500000
vt 0.004544 0.983642
vt 0.013482 0.992579
vt 3.972009 0.992587
vt 3.972005 0.983650
vt -0.390008 0.983642
vt -0.400709 0.992579
vt -0.006157 0.992580
vt 0.004544 0.983642
vt -0.901074 0.983643
vt -0.901074 0.992581
vt -0.400625 0.992579
vt -0.409739 0.983642
vt -1.739403 0.983642
vt -1.730465 0.992579
vt -1.076554 0.992592
vt -1.076558 0.983654
vt -2.133955 0.983642
vt -2.144656 0.992579
vt -1.750104 0.992580
vt -1.739403 0.983642
vt -2.482842 0.983650
vt -2.482841 0.992587
vt -2.144571 0.992579
vt -2.153686 0.983642
vt -1.739403 0.983642
vt -1.076497 0.983579
vt -1.076494 0.992516
vt -1.730465 0.992579
vt -2.133955 0.983642
vt -1.739403 0.983642
vt -1.750104 0.992580
vt -2.144656 0.992579
vt -2.482842 0.983650
vt -2.153686 0.983642
vt -2.144571 0.992579
vt -2.482841 0.992587
vn 0.000000 1.000000 0.000000
vn 0.000000 1.000000 0.000000
vn 0.000000 1.000000 0.000000
vn 0.000000 1.000000 0.000000
vn 0.000000 1.000000 0.000000
vn 0.000000 1.000000 0.000000
vn 0.000000 1.000000 0.000000
vn 0.000000 1.000000 0.000000
vn 0.000000 1.000000 0.000000
vn 0.000000 1.000000 0.000000
vn 0.000000 1.000000 0.000000
vn 0.000000 1.000000 0.000000
vn 0.000000 1.000000 0.000000
vn 0.000000 1.000000 0.000000
vn 0.000000 1.000000 0.000000
vn 0.000000 1.000000 0.000000
vn 0.000000 1.000000 0.000000
vn 0.000000 1.000000 0.000000
vn 0.000000 1.000000 0.000000
vn 0.000000 1.000000 0.000000
vn 0.000000 1.000000 0.000000
vn 0.000000 1.000000 0.000000
vn 0.000000 1.000000 0.000000
vn 0.000000 1.000000 0.000000
vn 0.000000 1.000000 0.000000
vn 0.000000 1.000000 0.000000
vn 0.000000 1.000000 0.000000
vn 0.000000 1.000000 0.000000
vn 0.000000 1.000000 0.000000
vn 0.000000 1.000000 0.000000
vn 0.000000 1.000000 0.000000
vn 0.000000 1.000000 0.000000
vn 0.000000 1.000000 0.000000
vn 0.000000 1.000000 0.000000
vn 0.000000 1.000000 0.000000
vn 0.000000 1.000000 0.000000
vn 0.000000 1.000000 0.000000
vn 0.000000 1.000000 0.000000
vn 0.000000 1.000000 0.000000
vn 0.000000 1.000000 0.000000
vn 0.000000 1.000000 0.000000
vn 0.000000 1.000000 0.000000
vn 0.000000 1.000000 0.000000
vn 0.000000 1.000000 0.000000
vn 0.000000 1.000000 0.000000
vn 0.000000 1.000000 0.000000
vn 0.000000 1.000000 0.000000
vn 0.000000 1.000000 0.000000
vn 0.000000 1.000000 0.000000
vn 0.000000 1.000000 0.000000
vn 0.000000 1.000000 0.000000
vn 0.000000 1.000000 0.000000
vn 0.000000 1.000000 0.000000
vn 0.000000 1.000000 0.000000
vn 0.000000 1.000000 0.000000
vn 0.000000 1.000000 0.000000
vn 0.000000 1.000000 0.000000
vn 0.000000 1.000000 0.000000
vn 0.000000 1.000000 0.000000
vn 0.000000 1.000000 0.000000
vn 0.000000 1.000000 0.000000
vn 0.000000 1.000000 0.000000
vn 0.000000 1.000000 0.000000
vn 0.000000 1.000000 0.000000
vn 0.000000 1.000000 0.000000
vn 0.000000 1.000000 0.000000
vn 0.000000 1.000000 0.000000
vn 0.000000 1.000000 0.000000
vn 0.000000 1.000000 0.000000
vn 0.000000 1.000000 0.000000
vn 0.000000 1.000000 0.000000
vn 0.000000 1.000000 0.000000
vn 0.000000 1.000000 0.000000
vn 0.000000 1.000000 0.000000
vn 0.000000 1.000000 0.000000
vn 0.000000 1.000000 0.000000
vn 0.000000 1.000000 0.000000
vn 0.000000 1.000000 0.000000
vn 0.000000 1.000000 0.000000
vn 0.000000 1.000000 0.000000
vn 0.000000 1.000000 0.000000
vn 0.000000 1.000000 0.000000
vn 0.000000 1.000000 0.000000
vn 0.000000 1.000000 0.000000
vn 0.000000 1.000000 0.000000
vn 0.000000 1.000000 0.000000
vn 0.000000 1.000000 0.000000
vn 0.000000 1.000000 0.000000
vn 0.000000 1.000000 0.000000
vn 0.000000 1.000000 0.000000
vn 0.000000 1.000000 0.000000
vn 0.000000 1.000000 0.000000
vn 0.000000 1.000000 0.000000
vn 0.000000 1.000000 0.000000
vn 0.000000 1.000000 0.000000
vn 0.000000 1.000000 0.000000
vn 0.000000 1.000000 0.000000
vn 0.000000 1.000000 0.000000
vn 0.000000 1.000000 0.000000
vn 0.000000 1.000000 0.000000
vn 0.000000 1.000000 0.000000
vn 0.000000 1.000000 0.000000
vn 0.000000 1.000000 0.000000
vn 0.000000 1.000000 0.000000
vn 0.000000 1.000000 0.000000
vn 0.000000 1.000000 0.000000
vn 0.000000 1.000000 0.000000
vn 0.000000 1.000000 0.000000
vn 0.000000 1.000000 0.000000
vn 0.000000 1.000000 0.000000
vn 0.000000 1.000000 0.000000
vn 0.000000 1.000000 0.000000
vn 0.000000 1.000000 0.000000
vn 0.000000 1.000000 0.000000
vn 0.000000 1.000000 0.000000
vn 0.000000 1.000000 0.000000
vn 0.000000 1.000000 0.000000
vn 0.000000 1.000000 0.000000
vn 0.000000 1.000000 0.000000
vn 0.000000 1.000000 0.000000
vn 0.000000 1.000000 0.000000
vn 0.000000 1.000000 0.000000
vn 0.000000 1.000000 0.000000
vn 0.000000 1.000000 0.000000
vn 0.000000 1.000000 0.000000
vn 0.000000 1.000000 0.000000
vn 0.000000 1.000000 0.000000
vn 0.000000 1.000000 0.000000
vn 0.000000 1.000000 0.000000
vn 0.000000 1.000000 0.000000
vn 0.000000 1.000000 0.000000
vn 0.000000 1.000000 0.000000
vn 0.000000 1.000000 0.000000
vn 0.000000 1.000000 0.000000
vn 0.000000 1.000000 0.000000
vn 0.000000 1.000000 0.000000
vn 0.000000 1.000000 0.000000
vn 0.000000 1.000000 0.000000
vn 0.000000 1.000000 0.000000
vn 0.000000 1.000000 0.000000
vn 0.000000 1.000000 0.000000
vn 0.000000 1.000000 0.000000
vn 0.000000 1.000000 0.000000
vn 0.000000 1.000000 0.000000
vn 0.000000 1.000000 0.000000
vn 0.000000 1.000000 0.000000
vn 0.000000 1.000000 0.000000
vn 0.000000 1.000000 0.000000
vn 0.000000 1.000000 0.000000
vn 0.000000 1.000000 0.000000
vn 0.000000 1.000000 0.000000
vn 0.000000 1.000000 0.000000
usemtl material
f 1/0/1 2/0/2 3/0/3
f 1/0/1 3/0/3 4/0/4
f 5/0/5 2/0/2 1/0/1
f 5/0/5 6/0/6 2/0/2
f 7/0/7 6/0/6 5/0/5
f 7/0/7 8/0/8 6/0/6
f 9/0/9 8/0/8 7/0/7
f 9/0/9 10/0/10 8/0/8
f 11/0/11 10/0/10 9/0/9
f 11/0/11 12/0/12 10/0/10
f 13/0/13 12/0/12 11/0/11
f 13/0/13 14/0/14 12/0/12
f 15/0/15 14/0/14 13/0/13
f 15/0/15 16/0/16 14/0/14
f 17/0/17 16/0/16 15/0/15
f 17/0/17 18/0/18 16/0/16
f 19/0/19 18/0/18 17/0/17
f 19/0/19 20/0/20 18/0/18
f 21/0/21 20/0/20 19/0/19
f 21/0/21 22/0/22 20/0/20
f 23/0/23 22/0/22 21/0/21
f 23/0/23 24/0/24 22/0/22
f 25/0/25 24/0/24 23/0/23
f 25/0/25 26/0/26 24/0/24
f 27/0/27 26/0/26 25/0/25
f 27/0/27 28/0/28 26/0/26
f 29/0/29 28/0/28 27/0/27
f 29/0/29 30/0/30 28/0/28
f 31/0/31 30/0/30 29/0/29
f 31/0/31 32/0/32 30/0/30
f 33/0/33 32/0/32 31/0/31
f 33/0/33 34/0/34 32/0/32
f 35/0/35 34/0/34 33/0/33
f 35/0/35 36/0/36 34/0/34
f 37/0/37 36/0/36 35/0/35
f 37/0/37 38/0/38 36/0/36
f 39/0/39 38/0/38 37/0/37
f 39/0/39 40/0/40 38/0/38
f 41/0/41 40/0/40 39/0/39
f 41/0/41 42/0/42 40/0/40
f 43/0/43 42/0/42 41/0/41
f 43/0/43 44/0/44 42/0/42
f 45/0/45 44/0/44 43/0/43
f 45/0/45 46/0/46 44/0/44
f 47/0/47 46/0/46 45/0/45
f 47/0/47 48/0/48 46/0/46
f 49/0/49 48/0/48 47/0/47
f 49/0/49 50/0/50 48/0/48
f 51/0/51 50/0/50 49/0/49
f 51/0/51 52/0/52 50/0/50
f 53/0/53 52/0/52 51/0/51
f 53/0/53 54/0/54 52/0/52
f 55/0/55 54/0/54 53/0/53
f 55/0/55 56/0/56 54/0/54
f 57/0/57 56/0/56 55/0/55
f 57/0/57 58/0/58 56/0/56
f 59/0/59 58/0/58 57/0/57
f 59/0/59 60/0/60 58/0/58
f 61/0/61 60/0/60 59/0/59
f 61/0/61 62/0/62 60/0/60
f 63/0/63 62/0/62 61/0/61
f 63/0/63 64/0/64 62/0/62
f 65/0/65 64/0/64 63/0/63
f 65/0/65 66/0/66 64/0/64
f 67/0/67 66/0/66 65/0/65
f 67/0/67 68/0/68 66/0/66
f 69/0/69 68/0/68 67/0/67
f 69/0/69 70/0/70 68/0/68
f 71/0/71 70/0/70 69/0/69
f 71/0/71 72/0/72 70/0/70
f 73/0/73 72/0/72 71/0/71
f 73/0/73 74/0/74 72/0/72
f 75/0/75 76/0/76 77/0/77
f 75/0/75 77/0/77 78/0/78
f 79/0/79 80/0/80 81/0/81
f 79/0/79 81/0/81 82/0/82
f 83/0/83 84/0/84 85/0/85
f 83/0/83 85/0/85 86/0/86
f 87/0/87 88/0/88 89/0/89
f 87/0/87 89/0/89 90/0/90
f 91/0/91 88/0/88 87/0/87
f 91/0/91 92/0/92 88/0/88
f 93/0/93 92/0/92 91/0/91
f 93/0/93 94/0/94 92/0/92
f 95/0/95 94/0/94 93/0/93
f 95/0/95 96/0/96 94/0/94
f 97/0/97 98/0/98 99/0/99
f 97/0/97 99/0/99 100/0/100
f 101/0/101 98/0/98 97/0/97
f 101/0/101 102/0/102 98/0/98
f 103/0/103 102/0/102 101/0/101
f 103/0/103 104/0/104 102/0/102
f 105/0/105 104/0/104 103/0/103
f 105/0/105 106/0/106 104/0/104
f 107/0/107 108/0/108 109/0/109
f 107/0/107 109/0/109 110/0/110
f 111/0/111 108/0/108 107/0/107
f 111/0/111 112/0/112 108/0/108
f 113/0/113 112/0/112 111/0/111
f 113/0/113 114/0/114 112/0/112
f 115/0/115 114/0/114 113/0/113
f 115/0/115 116/0/116 114/0/114
f 117/0/117 118/0/118 119/0/119
f 117/0/117 119/0/119 120/0/120
f 121/0/121 122/0/122 123/0/123
f 121/0/121 123/0/123 124/0/124
f 125/0/125 126/0/126 127/0/127
f 125/0/125 127/0/127 128/0/128
f 129/0/129 130/0/130 131/0/131
f 129/0/129 131/0/131 132/0/132
f 133/0/133 134/0/134 135/0/135
f 133/0/133 135/0/135 136/0/136
f 137/0/137 138/0/138 139/0/139
f 137/0/137 139/0/139 140/0/140
f 141/0/141 142/0/142 143/0/143
f 141/0/141 143/0/143 144/0/144
f 145/0/145 146/0/146 147/0/147
f 145/0/145 147/0/147 148/0/148
f 149/0/149 150/0/150 151/0/151
f 149/0/149 151/0/151 152/0/152
