# 
# Wavefront OBJ file
# Created with Kaydara FBX
# 
mtllib m.mtl

g M
v -0.020318 1.446841 0.083387
v -0.017876 1.453176 0.087630
v -0.025890 1.458076 0.085935
v -0.031956 1.452250 0.080266
v -0.008098 1.442643 0.085688
v -0.008226 1.448552 0.090186
v 0.000000 1.441717 0.086902
v 0.000000 1.447289 0.091728
v 0.008098 1.442643 0.085687
v 0.008226 1.448552 0.090186
v 0.017876 1.453176 0.087630
v 0.020318 1.446841 0.083387
v 0.025890 1.458076 0.085935
v 0.031956 1.452250 0.080265
v 0.017251 1.454841 0.088362
v 0.016626 1.456267 0.090865
v 0.017305 1.464678 0.092154
v 0.007919 1.454528 0.094995
v 0.008073 1.451561 0.091227
v 0.000000 1.450573 0.092697
v 0.000000 1.453717 0.096921
v -0.007827 1.454530 0.095009
v -0.008026 1.451562 0.091230
v -0.017263 1.454835 0.088350
v -0.016626 1.456267 0.090865
v -0.017305 1.464678 0.092154
v 0.007795 1.462007 0.095932
v 0.000000 1.461198 0.097766
v -0.007749 1.462499 0.096308
vt 0.837687 0.386153
vt 0.780413 0.558385
vt 0.890800 0.713699
vt 0.996680 0.553262
vt 0.634963 0.245568
vt 0.625975 0.429651
vt 0.500091 0.219069
vt 0.500143 0.389056
vt 0.365261 0.244971
vt 0.374400 0.429051
vt 0.219997 0.557828
vt 0.162648 0.386153
vt 0.109690 0.713699
vt 0.003603 0.553394
vt 0.233092 0.600340
vt 0.258673 0.641024
vt 0.252603 0.854506
vt 0.395023 0.609849
vt 0.378326 0.517063
vt 0.500150 0.501502
vt 0.500144 0.604682
vt 0.604278 0.610931
vt 0.621457 0.517788
vt 0.767613 0.600894
vt 0.741874 0.642207
vt 0.747961 0.857144
vt 0.396197 0.789608
vt 0.499949 0.779685
vt 0.602545 0.803117
vn -0.392186 -0.435855 0.810074
vn -0.388034 -0.414419 0.823217
vn -0.420956 -0.363680 0.830983
vn -0.406736 -0.389181 0.826501
vn -0.304430 -0.548954 0.778442
vn -0.309649 -0.484545 0.818128
vn 0.000001 -0.631914 0.775038
vn 0.000015 -0.541235 0.840872
vn 0.304432 -0.548954 0.778441
vn 0.309500 -0.484978 0.817928
vn 0.388201 -0.414867 0.822913
vn 0.392187 -0.435853 0.810075
vn 0.420948 -0.363639 0.831005
vn 0.406735 -0.389177 0.826504
vn 0.413400 -0.545889 0.728770
vn 0.457983 -0.342156 0.820476
vn 0.442783 -0.149437 0.884088
vn 0.347679 -0.374814 0.859438
vn 0.321473 -0.575802 0.751736
vn 0.000132 -0.621789 0.783185
vn 0.003617 -0.416859 0.908964
vn -0.347763 -0.379757 0.857231
vn -0.321647 -0.574439 0.752703
vn -0.412186 -0.544970 0.730144
vn -0.461817 -0.345922 0.816740
vn -0.449851 -0.160258 0.878608
vn 0.352871 -0.129968 0.926602
vn 0.000435 -0.126649 0.991948
vn -0.356107 -0.147956 0.922657
usemtl material
f 1/0/1 2/0/2 3/0/3
f 1/0/1 3/0/3 4/0/4
f 2/0/2 1/0/1 5/0/5
f 2/0/2 5/0/5 6/0/6
f 6/0/6 5/0/5 7/0/7
f 6/0/6 7/0/7 8/0/8
f 8/0/8 7/0/7 9/0/9
f 8/0/8 9/0/9 10/0/10
f 11/0/11 10/0/10 9/0/9
f 11/0/11 9/0/9 12/0/12
f 12/0/12 13/0/13 11/0/11
f 12/0/12 14/0/14 13/0/13
f 15/0/15 11/0/11 13/0/13
f 16/0/16 15/0/15 13/0/13
f 16/0/16 13/0/13 17/0/17
f 15/0/15 16/0/16 18/0/18
f 15/0/15 18/0/18 19/0/19
f 11/0/11 15/0/15 19/0/19
f 11/0/11 19/0/19 10/0/10
f 18/0/18 20/0/20 19/0/19
f 20/0/20 8/0/8 10/0/10
f 20/0/20 10/0/10 19/0/19
f 18/0/18 21/0/21 20/0/20
f 22/0/22 20/0/20 21/0/21
f 22/0/22 23/0/23 20/0/20
f 23/0/23 8/0/8 20/0/20
f 24/0/24 23/0/23 22/0/22
f 24/0/24 22/0/22 25/0/25
f 3/0/3 24/0/24 25/0/25
f 25/0/25 26/0/26 3/0/3
f 16/0/16 17/0/17 27/0/27
f 16/0/16 27/0/27 18/0/18
f 21/0/21 18/0/18 27/0/27
f 21/0/21 27/0/27 28/0/28
f 21/0/21 28/0/28 29/0/29
f 21/0/21 29/0/29 22/0/22
f 25/0/25 22/0/22 29/0/29
f 25/0/25 29/0/29 26/0/26
f 2/0/2 23/0/23 24/0/24
f 3/0/3 2/0/2 24/0/24
f 2/0/2 6/0/6 23/0/23
f 23/0/23 6/0/6 8/0/8
