# 
# Wavefront OBJ file
# Created with Kaydara FBX
# 
mtllib m18_01 #224351.mtl

g M18_01
v 0.055412 0.005880 0.179321
v 0.056288 0.015363 0.186703
v 0.045556 0.002878 0.224667
v 0.047072 -0.003792 0.208371
v 0.036604 -0.014911 0.229612
v 0.044029 -0.005540 0.192404
v 0.036984 -0.013145 0.208521
v 0.049750 0.001111 0.172240
v 0.055412 0.005880 0.179321
v 0.060591 0.012648 0.149917
v 0.062165 0.023195 0.151074
v 0.063031 0.017109 0.117090
v 0.066169 0.029728 0.108956
v 0.065914 0.021906 0.085383
v 0.073756 0.039979 0.060863
v 0.053320 0.005980 0.148941
v 0.054902 0.009059 0.124876
v 0.029189 -0.015021 0.265567
v 0.055017 0.010185 0.109665
v 0.046294 0.015726 0.179982
v 0.037953 0.006054 0.209031
v 0.045556 0.002878 0.224667
v 0.056288 0.015363 0.186703
v 0.027485 -0.005065 0.230272
v 0.034910 0.004306 0.193065
v 0.027865 -0.003299 0.209181
v 0.040631 0.010957 0.172900
v 0.046294 0.015726 0.179982
v 0.051473 0.022494 0.150578
v 0.062165 0.023195 0.151074
v 0.053913 0.026955 0.117750
v 0.066169 0.029728 0.108956
v 0.056796 0.031752 0.086043
v 0.073756 0.039979 0.060863
v 0.044202 0.015826 0.149601
v 0.045784 0.018905 0.125536
v 0.029189 -0.015021 0.265567
v 0.045898 0.020031 0.110325
v 0.056796 0.031752 0.086043
v 0.073756 0.039979 0.060863
v 0.065914 0.021906 0.085383
v 0.045898 0.020031 0.110325
v 0.055017 0.010185 0.109665
v 0.027485 -0.005065 0.230272
v 0.027865 -0.003299 0.209181
v 0.036984 -0.013145 0.208521
v 0.036604 -0.014911 0.229612
v 0.029189 -0.015021 0.265567
v 0.027865 -0.003299 0.209181
v 0.034910 0.004306 0.193065
v 0.044029 -0.005540 0.192404
v 0.036984 -0.013145 0.208521
v 0.040631 0.010957 0.172900
v 0.049750 0.001111 0.172240
v 0.044029 -0.005540 0.192404
v 0.044202 0.015826 0.149601
v 0.053320 0.005980 0.148941
v 0.049750 0.001111 0.172240
v 0.044202 0.015826 0.149601
v 0.054902 0.009059 0.124876
v 0.045784 0.018905 0.125536
v 0.045784 0.018905 0.125536
v 0.055017 0.010185 0.109665
v 0.045898 0.020031 0.110325
v -0.055418 0.005880 0.179321
v -0.047077 -0.003792 0.208371
v -0.045561 0.002878 0.224667
v -0.056293 0.015363 0.186703
v -0.036609 -0.014911 0.229612
v -0.044034 -0.005540 0.192404
v -0.036989 -0.013145 0.208521
v -0.049755 0.001111 0.172240
v -0.055418 0.005880 0.179321
v -0.060597 0.012648 0.149917
v -0.062170 0.023195 0.151074
v -0.063037 0.017109 0.117090
v -0.066175 0.029728 0.108956
v -0.065920 0.021906 0.085383
v -0.073761 0.039979 0.060863
v -0.053326 0.005980 0.148941
v -0.054907 0.009059 0.124876
v -0.029195 -0.015021 0.265567
v -0.055022 0.010185 0.109665
v -0.046299 0.015726 0.179982
v -0.056293 0.015363 0.186703
v -0.045561 0.002878 0.224667
v -0.037959 0.006054 0.209031
v -0.027491 -0.005065 0.230272
v -0.034915 0.004306 0.193065
v -0.027870 -0.003299 0.209181
v -0.040637 0.010957 0.172900
v -0.046299 0.015726 0.179982
v -0.051478 0.022494 0.150578
v -0.062170 0.023195 0.151074
v -0.053918 0.026955 0.117750
v -0.066175 0.029728 0.108956
v -0.056801 0.031752 0.086043
v -0.073761 0.039979 0.060863
v -0.044207 0.015826 0.149601
v -0.045789 0.018905 0.125536
v -0.029195 -0.015021 0.265567
v -0.045903 0.020031 0.110325
v -0.056801 0.031752 0.086043
v -0.065920 0.021906 0.085383
v -0.073761 0.039979 0.060863
v -0.045903 0.020031 0.110325
v -0.055022 0.010185 0.109665
v -0.027491 -0.005065 0.230272
v -0.036609 -0.014911 0.229612
v -0.036989 -0.013145 0.208521
v -0.027870 -0.003299 0.209181
v -0.029195 -0.015021 0.265567
v -0.027870 -0.003299 0.209181
v -0.036989 -0.013145 0.208521
v -0.044034 -0.005540 0.192404
v -0.034915 0.004306 0.193065
v -0.044034 -0.005540 0.192404
v -0.049755 0.001111 0.172240
v -0.040637 0.010957 0.172900
v -0.049755 0.001111 0.172240
v -0.053326 0.005980 0.148941
v -0.044207 0.015826 0.149601
v -0.044207 0.015826 0.149601
v -0.054907 0.009059 0.124876
v -0.045789 0.018905 0.125536
v -0.045789 0.018905 0.125536
v -0.055022 0.010185 0.109665
v -0.045903 0.020031 0.110325
vt 0.689510 0.270313
vt 0.677978 0.297149
vt 0.577959 0.284212
vt 0.613579 0.260769
vt 0.554164 0.240798
vt 0.648017 0.241809
vt 0.603550 0.229297
vt 0.700714 0.248166
vt 0.689510 0.270313
vt 0.763683 0.268542
vt 0.768460 0.294122
vt 0.842735 0.255148
vt 0.871109 0.278904
vt 0.919399 0.243924
vt 0.990292 0.270199
vt 0.758630 0.245055
vt 0.816702 0.234585
vt 0.466917 0.255414
vt 0.852009 0.225276
vt 0.689510 0.270313
vt 0.613579 0.260769
vt 0.577959 0.284212
vt 0.677978 0.297149
vt 0.554178 0.240820
vt 0.648059 0.241862
vt 0.603574 0.229292
vt 0.700714 0.248166
vt 0.689510 0.270313
vt 0.763683 0.268542
vt 0.768460 0.294122
vt 0.842735 0.255148
vt 0.871109 0.278904
vt 0.919406 0.243957
vt 0.990292 0.270199
vt 0.758630 0.245055
vt 0.816702 0.234585
vt 0.466947 0.255446
vt 0.852029 0.225373
vt 0.437641 0.216086
vt 0.505124 0.230989
vt 0.437641 0.245891
vt 0.372529 0.215760
vt 0.372529 0.246217
vt 0.072959 0.220169
vt 0.115010 0.216381
vt 0.115010 0.245596
vt 0.072959 0.241809
vt 0.013884 0.230989
vt 0.115010 0.216381
vt 0.162147 0.214139
vt 0.162147 0.247838
vt 0.115010 0.245596
vt 0.219723 0.213899
vt 0.219723 0.248079
vt 0.162147 0.247838
vt 0.278917 0.214731
vt 0.278917 0.247246
vt 0.219723 0.248079
vt 0.278917 0.214731
vt 0.336931 0.246924
vt 0.336931 0.215054
vt 0.336931 0.215054
vt 0.372529 0.246217
vt 0.372529 0.215760
vt 0.689510 0.270313
vt 0.613579 0.260769
vt 0.577959 0.284212
vt 0.677978 0.297149
vt 0.554164 0.240798
vt 0.648017 0.241809
vt 0.603550 0.229297
vt 0.700714 0.248166
vt 0.689510 0.270313
vt 0.763683 0.268542
vt 0.768460 0.294122
vt 0.842735 0.255148
vt 0.871109 0.278904
vt 0.919399 0.243924
vt 0.990292 0.270199
vt 0.758630 0.245055
vt 0.816702 0.234585
vt 0.466917 0.255414
vt 0.852009 0.225276
vt 0.689510 0.270313
vt 0.677978 0.297149
vt 0.577959 0.284212
vt 0.613579 0.260769
vt 0.554178 0.240820
vt 0.648059 0.241862
vt 0.603574 0.229292
vt 0.700714 0.248166
vt 0.689510 0.270313
vt 0.763683 0.268542
vt 0.768460 0.294122
vt 0.842735 0.255148
vt 0.871109 0.278904
vt 0.919406 0.243957
vt 0.990292 0.270199
vt 0.758630 0.245055
vt 0.816702 0.234585
vt 0.466947 0.255446
vt 0.852029 0.225373
vt 0.437641 0.216086
vt 0.437641 0.245891
vt 0.505124 0.230989
vt 0.372529 0.215760
vt 0.372529 0.246217
vt 0.072959 0.220169
vt 0.072959 0.241809
vt 0.115010 0.245596
vt 0.115010 0.216381
vt 0.013884 0.230989
vt 0.115010 0.216381
vt 0.115010 0.245596
vt 0.162147 0.247838
vt 0.162147 0.214139
vt 0.162147 0.247838
vt 0.219723 0.248079
vt 0.219723 0.213899
vt 0.219723 0.248079
vt 0.278917 0.247246
vt 0.278917 0.214731
vt 0.278917 0.214731
vt 0.336931 0.246924
vt 0.336931 0.215054
vt 0.336931 0.215054
vt 0.372529 0.246217
vt 0.372529 0.215760
vn 0.901465 -0.425236 0.080838
vn 0.961083 -0.218563 0.168965
vn 0.908871 -0.365558 0.200799
vn 0.882556 -0.455140 0.118078
vn 0.884749 -0.429218 0.181634
vn 0.678649 -0.732817 -0.049148
vn 0.678650 -0.732815 -0.049145
vn 0.678649 -0.732817 -0.049147
vn 0.901465 -0.425236 0.080838
vn 0.907754 -0.417751 0.038286
vn 0.979998 -0.178584 0.087814
vn 0.902749 -0.429652 0.021065
vn 0.966982 -0.244342 0.072406
vn 0.950822 -0.302235 0.067755
vn 0.961882 -0.262490 0.076701
vn 0.678651 -0.732814 -0.049145
vn 0.678653 -0.732813 -0.049145
vn 0.896189 -0.394654 0.202715
vn 0.678653 -0.732813 -0.049146
vn -0.346475 0.922302 0.171212
vn -0.375223 0.903027 0.209164
vn -0.278523 0.916612 0.286788
vn -0.130329 0.959952 0.248003
vn -0.345022 0.898713 0.270692
vn -0.678650 0.732816 0.049148
vn -0.678649 0.732816 0.049145
vn -0.678650 0.732816 0.049147
vn -0.346475 0.922302 0.171212
vn -0.341377 0.931068 0.128742
vn -0.094489 0.981652 0.165623
vn -0.354758 0.928210 0.112128
vn -0.161948 0.974683 0.154159
vn -0.221115 0.963231 0.152624
vn -0.180114 0.970644 0.159401
vn -0.678652 0.732814 0.049144
vn -0.678654 0.732813 0.049144
vn -0.308334 0.906015 0.289945
vn -0.678653 0.732813 0.049146
vn -0.626174 -0.542329 -0.560165
vn -0.613650 -0.528986 -0.586181
vn -0.626174 -0.542329 -0.560165
vn -0.631673 -0.548231 -0.548117
vn -0.631673 -0.548231 -0.548117
vn -0.733124 -0.671872 -0.105436
vn -0.709460 -0.636779 -0.301957
vn -0.709460 -0.636779 -0.301958
vn -0.733124 -0.671872 -0.105436
vn -0.730185 -0.665987 -0.152614
vn -0.709460 -0.636779 -0.301957
vn -0.665254 -0.584978 -0.463938
vn -0.665254 -0.584978 -0.463938
vn -0.709460 -0.636779 -0.301958
vn -0.706027 -0.632485 -0.318572
vn -0.706027 -0.632485 -0.318572
vn -0.665254 -0.584978 -0.463938
vn -0.726671 -0.660236 -0.189839
vn -0.726671 -0.660236 -0.189839
vn -0.706027 -0.632485 -0.318572
vn -0.726671 -0.660236 -0.189839
vn -0.733204 -0.672068 -0.103619
vn -0.733204 -0.672068 -0.103619
vn -0.733204 -0.672068 -0.103619
vn -0.734420 -0.676414 -0.055601
vn -0.734420 -0.676414 -0.055601
vn -0.901465 -0.425236 0.080838
vn -0.882556 -0.455140 0.118078
vn -0.908871 -0.365558 0.200799
vn -0.961083 -0.218563 0.168965
vn -0.884749 -0.429217 0.181634
vn -0.678649 -0.732816 -0.049148
vn -0.678650 -0.732816 -0.049146
vn -0.678649 -0.732817 -0.049147
vn -0.901465 -0.425236 0.080838
vn -0.907754 -0.417751 0.038286
vn -0.979998 -0.178584 0.087814
vn -0.902749 -0.429652 0.021065
vn -0.966982 -0.244342 0.072406
vn -0.950822 -0.302235 0.067755
vn -0.961882 -0.262490 0.076701
vn -0.678651 -0.732814 -0.049145
vn -0.678653 -0.732813 -0.049145
vn -0.896189 -0.394653 0.202715
vn -0.678653 -0.732813 -0.049146
vn 0.346475 0.922302 0.171212
vn 0.130330 0.959952 0.248003
vn 0.278524 0.916612 0.286788
vn 0.375224 0.903027 0.209164
vn 0.345022 0.898713 0.270692
vn 0.678650 0.732816 0.049148
vn 0.678650 0.732816 0.049145
vn 0.678650 0.732816 0.049147
vn 0.346475 0.922302 0.171212
vn 0.341377 0.931068 0.128742
vn 0.094489 0.981652 0.165623
vn 0.354758 0.928210 0.112128
vn 0.161948 0.974684 0.154159
vn 0.221115 0.963231 0.152624
vn 0.180113 0.970644 0.159401
vn 0.678652 0.732814 0.049144
vn 0.678654 0.732812 0.049144
vn 0.308334 0.906015 0.289945
vn 0.678653 0.732813 0.049146
vn 0.626174 -0.542330 -0.560165
vn 0.626173 -0.542330 -0.560166
vn 0.613650 -0.528987 -0.586180
vn 0.631673 -0.548231 -0.548117
vn 0.631673 -0.548231 -0.548117
vn 0.733124 -0.671872 -0.105436
vn 0.733124 -0.671872 -0.105436
vn 0.709461 -0.636778 -0.301958
vn 0.709461 -0.636779 -0.301958
vn 0.730185 -0.665987 -0.152614
vn 0.709461 -0.636779 -0.301958
vn 0.709461 -0.636778 -0.301958
vn 0.665255 -0.584977 -0.463938
vn 0.665255 -0.584977 -0.463938
vn 0.665255 -0.584977 -0.463938
vn 0.706028 -0.632485 -0.318572
vn 0.706028 -0.632485 -0.318572
vn 0.706028 -0.632485 -0.318572
vn 0.726671 -0.660235 -0.189839
vn 0.726671 -0.660235 -0.189839
vn 0.726671 -0.660235 -0.189839
vn 0.733204 -0.672068 -0.103619
vn 0.733204 -0.672068 -0.103619
vn 0.733204 -0.672068 -0.103619
vn 0.734419 -0.676414 -0.055601
vn 0.734419 -0.676414 -0.055601
usemtl material
f 1/0/1 2/0/2 3/0/3
f 1/0/1 3/0/3 4/0/4
f 5/0/5 4/0/4 3/0/3
f 6/0/6 4/0/4 5/0/5
f 6/0/6 5/0/5 7/0/7
f 8/0/8 4/0/4 6/0/6
f 8/0/8 9/0/9 4/0/4
f 10/0/10 2/0/2 9/0/9
f 10/0/10 11/0/11 2/0/2
f 12/0/12 11/0/11 10/0/10
f 12/0/12 13/0/13 11/0/11
f 14/0/14 13/0/13 12/0/12
f 14/0/14 15/0/15 13/0/13
f 16/0/16 10/0/10 9/0/9
f 16/0/16 9/0/9 8/0/8
f 17/0/17 12/0/12 10/0/10
f 17/0/17 10/0/10 16/0/16
f 14/0/14 12/0/12 17/0/17
f 5/0/5 3/0/3 18/0/18
f 14/0/14 17/0/17 19/0/19
f 20/0/20 21/0/21 22/0/22
f 20/0/20 22/0/22 23/0/23
f 24/0/24 22/0/22 21/0/21
f 25/0/25 24/0/24 21/0/21
f 25/0/25 26/0/26 24/0/24
f 27/0/27 25/0/25 21/0/21
f 27/0/27 21/0/21 28/0/28
f 29/0/29 28/0/28 23/0/23
f 29/0/29 23/0/23 30/0/30
f 31/0/31 29/0/29 30/0/30
f 31/0/31 30/0/30 32/0/32
f 33/0/33 31/0/31 32/0/32
f 33/0/33 32/0/32 34/0/34
f 35/0/35 27/0/27 28/0/28
f 35/0/35 28/0/28 29/0/29
f 36/0/36 35/0/35 29/0/29
f 36/0/36 29/0/29 31/0/31
f 33/0/33 36/0/36 31/0/31
f 24/0/24 37/0/37 22/0/22
f 33/0/33 38/0/38 36/0/36
f 39/0/39 40/0/40 41/0/41
f 42/0/42 39/0/39 41/0/41
f 42/0/42 41/0/41 43/0/43
f 44/0/44 45/0/45 46/0/46
f 44/0/44 46/0/46 47/0/47
f 48/0/48 44/0/44 47/0/47
f 49/0/49 50/0/50 51/0/51
f 49/0/49 51/0/51 52/0/52
f 50/0/50 53/0/53 54/0/54
f 50/0/50 54/0/54 55/0/55
f 53/0/53 56/0/56 57/0/57
f 53/0/53 57/0/57 58/0/58
f 59/0/59 60/0/60 57/0/57
f 59/0/59 61/0/61 60/0/60
f 62/0/62 63/0/63 60/0/60
f 62/0/62 64/0/64 63/0/63
f 65/0/65 66/0/66 67/0/67
f 65/0/65 67/0/67 68/0/68
f 69/0/69 67/0/67 66/0/66
f 70/0/70 69/0/69 66/0/66
f 70/0/70 71/0/71 69/0/69
f 72/0/72 70/0/70 66/0/66
f 72/0/72 66/0/66 73/0/73
f 74/0/74 73/0/73 68/0/68
f 74/0/74 68/0/68 75/0/75
f 76/0/76 74/0/74 75/0/75
f 76/0/76 75/0/75 77/0/77
f 78/0/78 76/0/76 77/0/77
f 78/0/78 77/0/77 79/0/79
f 80/0/80 72/0/72 73/0/73
f 80/0/80 73/0/73 74/0/74
f 81/0/81 80/0/80 74/0/74
f 81/0/81 74/0/74 76/0/76
f 78/0/78 81/0/81 76/0/76
f 69/0/69 82/0/82 67/0/67
f 78/0/78 83/0/83 81/0/81
f 84/0/84 85/0/85 86/0/86
f 84/0/84 86/0/86 87/0/87
f 88/0/88 87/0/87 86/0/86
f 89/0/89 87/0/87 88/0/88
f 89/0/89 88/0/88 90/0/90
f 91/0/91 87/0/87 89/0/89
f 91/0/91 92/0/92 87/0/87
f 93/0/93 85/0/85 92/0/92
f 93/0/93 94/0/94 85/0/85
f 95/0/95 94/0/94 93/0/93
f 95/0/95 96/0/96 94/0/94
f 97/0/97 96/0/96 95/0/95
f 97/0/97 98/0/98 96/0/96
f 99/0/99 93/0/93 92/0/92
f 99/0/99 92/0/92 91/0/91
f 100/0/100 95/0/95 93/0/93
f 100/0/100 93/0/93 99/0/99
f 97/0/97 95/0/95 100/0/100
f 88/0/88 86/0/86 101/0/101
f 97/0/97 100/0/100 102/0/102
f 103/0/103 104/0/104 105/0/105
f 106/0/106 104/0/104 103/0/103
f 106/0/106 107/0/107 104/0/104
f 108/0/108 109/0/109 110/0/110
f 108/0/108 110/0/110 111/0/111
f 112/0/112 109/0/109 108/0/108
f 113/0/113 114/0/114 115/0/115
f 113/0/113 115/0/115 116/0/116
f 116/0/116 117/0/117 118/0/118
f 116/0/116 118/0/118 119/0/119
f 119/0/119 120/0/120 121/0/121
f 119/0/119 121/0/121 122/0/122
f 123/0/123 121/0/121 124/0/124
f 123/0/123 124/0/124 125/0/125
f 126/0/126 124/0/124 127/0/127
f 126/0/126 127/0/127 128/0/128
