# 
# Wavefront OBJ file
# Created with Kaydara FBX
# 
mtllib mc_050_lefthand.mtl

g MC_050_LeftHand
v -0.458498 -0.354186 -0.177739
v -0.458732 -0.338385 -0.163074
v -0.384503 -0.338385 -0.163074
v -0.384737 -0.354186 -0.177739
v -0.384179 -0.316498 -0.151582
v -0.459056 -0.316498 -0.151582
v -0.383783 -0.289831 -0.146985
v -0.459452 -0.289831 -0.146985
v -0.464896 0.073470 -0.113893
v -0.378339 0.073470 -0.113893
v -0.377651 0.118913 -0.130123
v -0.465584 0.118913 -0.130123
v -0.390171 -0.724439 -0.177739
v -0.453064 -0.724439 -0.177739
v -0.458498 -0.354186 -0.177739
v -0.384737 -0.354186 -0.177739
v -0.421618 -0.847356 -0.177739
v -0.465584 0.118913 -0.130123
v -0.474671 0.709128 -0.016372
v -0.368564 0.709128 -0.016372
v -0.377651 0.118913 -0.130123
v -0.421618 0.688896 0.070865
v -0.378542 0.698741 0.042753
v -0.464693 0.698741 0.042753
v -0.378291 0.715547 -0.005234
v -0.464945 0.715547 -0.005234
v -0.474344 0.687127 0.046283
v -0.464693 0.698741 0.042753
v -0.464945 0.715547 -0.005234
v -0.474671 0.709128 -0.016372
v -0.464693 0.698741 0.042753
v -0.474344 0.687127 0.046283
v -0.421618 0.675205 0.080856
v -0.421618 0.688896 0.070865
v -0.421618 0.688896 0.070865
v -0.421618 0.675205 0.080856
v -0.368892 0.687127 0.046283
v -0.378542 0.698741 0.042753
v -0.474671 0.709128 -0.016372
v -0.464945 0.715547 -0.005234
v -0.378291 0.715547 -0.005234
v -0.368564 0.709128 -0.016372
v -0.368564 0.709128 -0.016372
v -0.378291 0.715547 -0.005234
v -0.378542 0.698741 0.042753
v -0.368892 0.687127 0.046283
v -0.390026 -0.714434 -0.162483
v -0.384737 -0.354186 -0.177739
v -0.389487 -0.677451 -0.144444
v -0.421618 -0.796450 -0.133625
v -0.421618 -0.847356 -0.177739
v -0.390171 -0.724439 -0.177739
v -0.421618 -0.725402 -0.108613
v -0.388692 -0.622968 -0.132117
v -0.421618 -0.667766 -0.096288
v -0.385835 -0.428447 -0.105629
v -0.421618 -0.486751 -0.072412
v -0.384859 -0.362392 -0.096634
v -0.421618 -0.396243 -0.060473
v -0.388692 -0.622968 -0.132117
v -0.384503 -0.338385 -0.163074
v -0.385835 -0.428447 -0.105629
v -0.383921 -0.299123 -0.088018
v -0.421618 -0.305736 -0.048535
v -0.384179 -0.316498 -0.151582
v -0.384859 -0.362392 -0.096634
v -0.383921 -0.299123 -0.088018
v -0.383783 -0.289831 -0.146985
v -0.378339 0.073470 -0.113893
v -0.368892 0.687127 0.046283
v -0.368892 0.687127 0.046283
v -0.421618 0.675205 0.080856
v -0.368564 0.709128 -0.016372
v -0.377651 0.118913 -0.130123
v -0.453210 -0.714434 -0.162483
v -0.453748 -0.677451 -0.144444
v -0.458498 -0.354186 -0.177739
v -0.421618 -0.796450 -0.133625
v -0.421618 -0.847356 -0.177739
v -0.453064 -0.724439 -0.177739
v -0.421618 -0.725402 -0.108613
v -0.454544 -0.622968 -0.132117
v -0.421618 -0.667766 -0.096288
v -0.457400 -0.428447 -0.105629
v -0.421618 -0.486751 -0.072412
v -0.458376 -0.362392 -0.096634
v -0.421618 -0.396243 -0.060473
v -0.454544 -0.622968 -0.132117
v -0.458732 -0.338385 -0.163074
v -0.457400 -0.428447 -0.105629
v -0.459314 -0.299123 -0.088018
v -0.421618 -0.305736 -0.048535
v -0.459056 -0.316498 -0.151582
v -0.458376 -0.362392 -0.096634
v -0.459314 -0.299123 -0.088018
v -0.459452 -0.289831 -0.146985
v -0.464896 0.073470 -0.113893
v -0.474344 0.687127 0.046283
v -0.474344 0.687127 0.046283
v -0.421618 0.675205 0.080856
v -0.474671 0.709128 -0.016372
v -0.465584 0.118913 -0.130123
v -0.458498 -0.354186 -0.177739
v -0.384737 -0.354186 -0.177739
v -0.384503 -0.338385 -0.192404
v -0.458732 -0.338385 -0.192404
v -0.384179 -0.316498 -0.203896
v -0.459056 -0.316498 -0.203896
v -0.383783 -0.289831 -0.208493
v -0.459452 -0.289831 -0.208493
v -0.464896 0.073470 -0.241584
v -0.378339 0.073470 -0.241584
v -0.377651 0.118913 -0.225355
v -0.465584 0.118913 -0.225355
v -0.390171 -0.724439 -0.177739
v -0.384737 -0.354186 -0.177739
v -0.458498 -0.354186 -0.177739
v -0.453064 -0.724439 -0.177739
v -0.421618 -0.847356 -0.177739
v -0.465584 0.118913 -0.225355
v -0.377651 0.118913 -0.225355
v -0.368564 0.709128 -0.339106
v -0.474671 0.709128 -0.339106
v -0.421618 0.688896 -0.426343
v -0.464693 0.698741 -0.398230
v -0.378542 0.698741 -0.398230
v -0.378291 0.715547 -0.350243
v -0.464945 0.715547 -0.350243
v -0.474344 0.687127 -0.401761
v -0.474671 0.709128 -0.339106
v -0.464945 0.715547 -0.350243
v -0.464693 0.698741 -0.398230
v -0.464693 0.698741 -0.398230
v -0.421618 0.688896 -0.426343
v -0.421618 0.675205 -0.436334
v -0.474344 0.687127 -0.401761
v -0.421618 0.688896 -0.426343
v -0.378542 0.698741 -0.398230
v -0.368892 0.687127 -0.401761
v -0.421618 0.675205 -0.436334
v -0.474671 0.709128 -0.339106
v -0.368564 0.709128 -0.339106
v -0.378291 0.715547 -0.350243
v -0.464945 0.715547 -0.350243
v -0.368564 0.709128 -0.339106
v -0.368892 0.687127 -0.401761
v -0.378542 0.698741 -0.398230
v -0.378291 0.715547 -0.350243
v -0.390026 -0.714434 -0.192994
v -0.389487 -0.677451 -0.211034
v -0.384737 -0.354186 -0.177739
v -0.421618 -0.796450 -0.221853
v -0.421618 -0.847356 -0.177739
v -0.390171 -0.724439 -0.177739
v -0.421618 -0.725402 -0.246865
v -0.388692 -0.622968 -0.223360
v -0.421618 -0.667766 -0.259189
v -0.385835 -0.428447 -0.249849
v -0.421618 -0.486751 -0.283066
v -0.384859 -0.362392 -0.258844
v -0.421618 -0.396243 -0.295004
v -0.388692 -0.622968 -0.223360
v -0.384503 -0.338385 -0.192404
v -0.385835 -0.428447 -0.249849
v -0.383921 -0.299123 -0.267459
v -0.421618 -0.305736 -0.306943
v -0.384179 -0.316498 -0.203896
v -0.384859 -0.362392 -0.258844
v -0.383921 -0.299123 -0.267459
v -0.383783 -0.289831 -0.208493
v -0.378339 0.073470 -0.241584
v -0.368892 0.687127 -0.401761
v -0.368892 0.687127 -0.401761
v -0.421618 0.675205 -0.436334
v -0.368564 0.709128 -0.339106
v -0.377651 0.118913 -0.225355
v -0.453210 -0.714434 -0.192994
v -0.458498 -0.354186 -0.177739
v -0.453748 -0.677451 -0.211034
v -0.421618 -0.796450 -0.221853
v -0.421618 -0.847356 -0.177739
v -0.453064 -0.724439 -0.177739
v -0.421618 -0.725402 -0.246865
v -0.454544 -0.622968 -0.223360
v -0.421618 -0.667766 -0.259189
v -0.457400 -0.428447 -0.249849
v -0.421618 -0.486751 -0.283066
v -0.458376 -0.362392 -0.258844
v -0.421618 -0.396243 -0.295004
v -0.454544 -0.622968 -0.223360
v -0.458732 -0.338385 -0.192404
v -0.457400 -0.428447 -0.249849
v -0.459314 -0.299123 -0.267459
v -0.421618 -0.305736 -0.306943
v -0.459056 -0.316498 -0.203896
v -0.458376 -0.362392 -0.258844
v -0.459314 -0.299123 -0.267459
v -0.459452 -0.289831 -0.208493
v -0.464896 0.073470 -0.241584
v -0.474344 0.687127 -0.401761
v -0.474344 0.687127 -0.401761
v -0.421618 0.675205 -0.436334
v -0.474671 0.709128 -0.339106
v -0.465584 0.118913 -0.225355
vt 0.986027 0.407023
vt 0.986078 0.399017
vt 0.958397 0.399017
vt 0.958449 0.407023
vt 0.958267 0.389820
vt 0.986208 0.389820
vt 0.958105 0.379723
vt 0.986370 0.379723
vt 0.988398 0.243433
vt 0.956078 0.243433
vt 0.955873 0.225406
vt 0.988603 0.225406
vt 0.960313 0.545518
vt 0.984163 0.545518
vt 0.986027 0.407023
vt 0.958449 0.407023
vt 0.972237 0.592129
vt 0.988603 0.225406
vt 0.991969 0.001820
vt 0.952506 0.001820
vt 0.955873 0.225406
vt 0.841808 0.035565
vt 0.852651 0.051678
vt 0.852754 0.019640
vt 0.871477 0.051678
vt 0.871541 0.019640
vt 0.849480 0.014847
vt 0.852754 0.019640
vt 0.871541 0.019640
vt 0.875840 0.014847
vt 0.852754 0.019640
vt 0.849480 0.014847
vt 0.835415 0.035497
vt 0.841808 0.035565
vt 0.841808 0.035565
vt 0.835415 0.035497
vt 0.849330 0.056498
vt 0.852651 0.051678
vt 0.875840 0.014847
vt 0.871541 0.019640
vt 0.871477 0.051678
vt 0.875765 0.056498
vt 0.875765 0.056498
vt 0.871477 0.051678
vt 0.852651 0.051678
vt 0.849330 0.056498
vt 0.920302 0.058785
vt 0.896506 0.193451
vt 0.925199 0.073567
vt 0.936485 0.027584
vt 0.921464 0.006695
vt 0.915108 0.054259
vt 0.944347 0.055757
vt 0.927104 0.094634
vt 0.946990 0.078998
vt 0.927434 0.169155
vt 0.947812 0.148641
vt 0.927533 0.194495
vt 0.948159 0.183355
vt 0.927104 0.094634
vt 0.901273 0.200166
vt 0.927434 0.169155
vt 0.927591 0.218759
vt 0.948395 0.218113
vt 0.904548 0.208980
vt 0.927533 0.194495
vt 0.927591 0.218759
vt 0.904994 0.219197
vt 0.898408 0.357047
vt 0.926288 0.595402
vt 0.926288 0.595402
vt 0.950391 0.592481
vt 0.901655 0.600368
vt 0.889952 0.373227
vt 0.920302 0.058785
vt 0.925199 0.073567
vt 0.896506 0.193451
vt 0.936485 0.027584
vt 0.921464 0.006695
vt 0.915108 0.054259
vt 0.944347 0.055757
vt 0.927104 0.094634
vt 0.946990 0.078998
vt 0.927434 0.169155
vt 0.947812 0.148641
vt 0.927533 0.194495
vt 0.948159 0.183355
vt 0.927104 0.094634
vt 0.901273 0.200166
vt 0.927434 0.169155
vt 0.927591 0.218759
vt 0.948395 0.218113
vt 0.904548 0.208980
vt 0.927533 0.194495
vt 0.927591 0.218759
vt 0.904994 0.219197
vt 0.898408 0.357047
vt 0.926288 0.595402
vt 0.926288 0.595402
vt 0.950391 0.592481
vt 0.901655 0.600368
vt 0.889952 0.373227
vt 0.986027 0.407023
vt 0.958449 0.407023
vt 0.958397 0.399017
vt 0.986078 0.399017
vt 0.958267 0.389820
vt 0.986208 0.389820
vt 0.958105 0.379723
vt 0.986370 0.379723
vt 0.988398 0.243433
vt 0.956078 0.243433
vt 0.955873 0.225406
vt 0.988603 0.225406
vt 0.960313 0.545518
vt 0.958449 0.407023
vt 0.986027 0.407023
vt 0.984163 0.545518
vt 0.972237 0.592129
vt 0.988603 0.225406
vt 0.955873 0.225406
vt 0.952506 0.001820
vt 0.991969 0.001820
vt 0.841808 0.035565
vt 0.852754 0.019640
vt 0.852651 0.051678
vt 0.871477 0.051678
vt 0.871541 0.019640
vt 0.849480 0.014847
vt 0.875840 0.014847
vt 0.871541 0.019640
vt 0.852754 0.019640
vt 0.852754 0.019640
vt 0.841808 0.035565
vt 0.835415 0.035497
vt 0.849480 0.014847
vt 0.841808 0.035565
vt 0.852651 0.051678
vt 0.849330 0.056498
vt 0.835415 0.035497
vt 0.875840 0.014847
vt 0.875765 0.056498
vt 0.871477 0.051678
vt 0.871541 0.019640
vt 0.875765 0.056498
vt 0.849330 0.056498
vt 0.852651 0.051678
vt 0.871477 0.051678
vt 0.920302 0.058785
vt 0.925199 0.073567
vt 0.896506 0.193451
vt 0.936485 0.027584
vt 0.921464 0.006695
vt 0.915108 0.054259
vt 0.944347 0.055757
vt 0.927104 0.094634
vt 0.946990 0.078998
vt 0.927434 0.169155
vt 0.947812 0.148641
vt 0.927533 0.194495
vt 0.948159 0.183355
vt 0.927104 0.094634
vt 0.901273 0.200166
vt 0.927434 0.169155
vt 0.927591 0.218759
vt 0.948395 0.218113
vt 0.904548 0.208980
vt 0.927533 0.194495
vt 0.927591 0.218759
vt 0.904994 0.219197
vt 0.898408 0.357047
vt 0.926288 0.595402
vt 0.926288 0.595402
vt 0.950391 0.592481
vt 0.901655 0.600368
vt 0.889952 0.373227
vt 0.920302 0.058785
vt 0.896506 0.193451
vt 0.925199 0.073567
vt 0.936485 0.027584
vt 0.921464 0.006695
vt 0.915108 0.054259
vt 0.944347 0.055757
vt 0.927104 0.094634
vt 0.946990 0.078998
vt 0.927434 0.169155
vt 0.947812 0.148641
vt 0.927533 0.194495
vt 0.948159 0.183355
vt 0.927104 0.094634
vt 0.901273 0.200166
vt 0.927434 0.169155
vt 0.927591 0.218759
vt 0.948395 0.218113
vt 0.904548 0.208980
vt 0.927533 0.194495
vt 0.927591 0.218759
vt 0.904994 0.219197
vt 0.898408 0.357047
vt 0.926288 0.595402
vt 0.926288 0.595402
vt 0.950391 0.592481
vt 0.901655 0.600368
vt 0.889952 0.373227
vn -0.000002 0.680263 -0.732968
vn -0.000002 0.568935 -0.822382
vn -0.000002 0.568935 -0.822382
vn -0.000002 0.680263 -0.732968
vn -0.000002 0.312507 -0.949916
vn -0.000002 0.312507 -0.949915
vn -0.000003 0.095738 -0.995407
vn -0.000003 0.095738 -0.995407
vn -0.000003 0.037032 -0.999314
vn -0.000003 0.037032 -0.999314
vn -0.000002 -0.336334 -0.941743
vn -0.000002 -0.336334 -0.941743
vn -0.000002 0.000001 -1.000000
vn -0.000002 0.000001 -1.000000
vn -0.000002 0.000001 -1.000000
vn -0.000002 0.000001 -1.000000
vn -0.000002 -0.000001 -1.000000
vn -0.000002 0.189245 -0.981930
vn -0.000002 0.189245 -0.981930
vn -0.000002 0.189245 -0.981930
vn -0.000002 0.189245 -0.981930
vn 0.000001 0.943793 0.330536
vn 0.000001 0.943794 0.330535
vn 0.000001 0.943794 0.330535
vn 0.000001 0.943794 0.330535
vn 0.000001 0.943794 0.330535
vn -0.710093 0.663256 0.236347
vn -0.710093 0.663256 0.236347
vn -0.710093 0.663256 0.236347
vn -0.710093 0.663256 0.236347
vn -0.369588 0.543592 0.753600
vn -0.369588 0.543592 0.753600
vn -0.369588 0.543592 0.753600
vn -0.369588 0.543592 0.753600
vn 0.369592 0.543592 0.753598
vn 0.369592 0.543592 0.753598
vn 0.369592 0.543592 0.753598
vn 0.369592 0.543592 0.753598
vn -0.000001 0.866377 -0.499390
vn -0.000001 0.866377 -0.499390
vn -0.000001 0.866377 -0.499391
vn -0.000001 0.866377 -0.499391
vn 0.710096 0.663254 0.236344
vn 0.710096 0.663254 0.236344
vn 0.710096 0.663254 0.236344
vn 0.710096 0.663254 0.236344
vn 0.956505 -0.144658 0.253323
vn 0.999892 -0.014706 0.000076
vn 0.952326 -0.091341 0.291089
vn 0.919923 -0.236528 0.312722
vn 0.933616 -0.251215 0.255444
vn 0.962561 -0.192009 0.191333
vn 0.850163 -0.173820 0.497001
vn 0.775731 -0.095508 0.623795
vn 0.788728 -0.107586 0.605255
vn 0.757438 -0.091734 0.646431
vn 0.767414 -0.090799 0.634690
vn 0.738751 -0.093761 0.667425
vn 0.742770 -0.093237 0.663023
vn 0.999892 -0.014673 0.000233
vn 0.999891 -0.014737 0.000048
vn 0.999892 -0.014715 0.000066
vn 0.649246 -0.105830 0.753180
vn 0.649689 -0.105777 0.752805
vn 0.999890 -0.014812 -0.000001
vn 0.999890 -0.014802 0.000002
vn 0.999887 -0.015036 -0.000926
vn 0.999887 -0.015036 -0.000929
vn 0.999886 -0.015078 -0.000903
vn 0.999883 -0.015305 -0.000331
vn 0.642997 -0.106575 0.758418
vn 0.642997 -0.106575 0.758418
vn 0.999882 -0.015338 -0.000250
vn 0.999882 -0.015338 -0.000250
vn -0.956503 -0.144658 0.253328
vn -0.952324 -0.091341 0.291094
vn -0.999892 -0.014707 0.000080
vn -0.919922 -0.236528 0.312727
vn -0.933615 -0.251215 0.255449
vn -0.962560 -0.192008 0.191338
vn -0.850160 -0.173820 0.497005
vn -0.775728 -0.095508 0.623799
vn -0.788725 -0.107586 0.605259
vn -0.757434 -0.091734 0.646435
vn -0.767411 -0.090798 0.634694
vn -0.738748 -0.093761 0.667429
vn -0.742767 -0.093238 0.663027
vn -0.999892 -0.014673 0.000237
vn -0.999891 -0.014737 0.000053
vn -0.999892 -0.014715 0.000071
vn -0.649243 -0.105830 0.753183
vn -0.649685 -0.105777 0.752808
vn -0.999890 -0.014812 0.000004
vn -0.999890 -0.014802 0.000007
vn -0.999887 -0.015036 -0.000922
vn -0.999887 -0.015036 -0.000925
vn -0.999886 -0.015078 -0.000899
vn -0.999883 -0.015306 -0.000327
vn -0.642993 -0.106575 0.758421
vn -0.642993 -0.106575 0.758421
vn -0.999882 -0.015338 -0.000246
vn -0.999882 -0.015338 -0.000246
vn 0.000002 0.680261 0.732970
vn 0.000002 0.680261 0.732970
vn 0.000002 0.568935 0.822383
vn 0.000002 0.568934 0.822383
vn 0.000002 0.312506 0.949916
vn 0.000002 0.312506 0.949916
vn 0.000003 0.095737 0.995407
vn 0.000003 0.095737 0.995407
vn 0.000003 0.037031 0.999314
vn 0.000003 0.037031 0.999314
vn 0.000002 -0.336335 0.941742
vn 0.000002 -0.336335 0.941742
vn 0.000003 -0.000000 1.000000
vn 0.000003 0.000000 1.000000
vn 0.000003 0.000000 1.000000
vn 0.000003 -0.000000 1.000000
vn 0.000002 -0.000002 1.000000
vn 0.000003 0.189245 0.981930
vn 0.000003 0.189245 0.981930
vn 0.000003 0.189244 0.981930
vn 0.000003 0.189245 0.981930
vn -0.000001 0.943794 -0.330534
vn -0.000001 0.943794 -0.330534
vn -0.000001 0.943794 -0.330534
vn -0.000001 0.943794 -0.330534
vn -0.000001 0.943794 -0.330534
vn -0.710096 0.663254 -0.236342
vn -0.710096 0.663254 -0.236342
vn -0.710096 0.663254 -0.236342
vn -0.710096 0.663254 -0.236342
vn -0.369590 0.543592 -0.753598
vn -0.369590 0.543592 -0.753598
vn -0.369590 0.543592 -0.753598
vn -0.369590 0.543592 -0.753598
vn 0.369585 0.543592 -0.753601
vn 0.369585 0.543592 -0.753601
vn 0.369585 0.543593 -0.753601
vn 0.369585 0.543592 -0.753601
vn 0.000001 0.866380 0.499384
vn 0.000001 0.866380 0.499384
vn 0.000001 0.866380 0.499384
vn 0.000001 0.866380 0.499384
vn 0.710095 0.663254 -0.236346
vn 0.710095 0.663254 -0.236346
vn 0.710095 0.663254 -0.236346
vn 0.710095 0.663254 -0.236346
vn 0.956504 -0.144658 -0.253328
vn 0.952324 -0.091340 -0.291093
vn 0.999892 -0.014707 -0.000081
vn 0.919922 -0.236528 -0.312727
vn 0.933615 -0.251215 -0.255448
vn 0.962561 -0.192008 -0.191337
vn 0.850161 -0.173820 -0.497005
vn 0.775728 -0.095507 -0.623799
vn 0.788725 -0.107585 -0.605259
vn 0.757434 -0.091733 -0.646435
vn 0.767411 -0.090798 -0.634694
vn 0.738748 -0.093760 -0.667428
vn 0.742767 -0.093237 -0.663026
vn 0.999892 -0.014672 -0.000239
vn 0.999891 -0.014737 -0.000053
vn 0.999892 -0.014715 -0.000071
vn 0.649242 -0.105830 -0.753183
vn 0.649685 -0.105777 -0.752808
vn 0.999890 -0.014813 -0.000003
vn 0.999890 -0.014802 -0.000006
vn 0.999887 -0.015036 0.000921
vn 0.999887 -0.015036 0.000924
vn 0.999886 -0.015078 0.000898
vn 0.999883 -0.015306 0.000326
vn 0.642993 -0.106575 -0.758421
vn 0.642993 -0.106575 -0.758421
vn 0.999882 -0.015338 0.000245
vn 0.999882 -0.015338 0.000245
vn -0.956505 -0.144658 -0.253323
vn -0.999892 -0.014707 -0.000076
vn -0.952326 -0.091341 -0.291088
vn -0.919924 -0.236527 -0.312723
vn -0.933616 -0.251214 -0.255445
vn -0.962562 -0.192008 -0.191333
vn -0.850163 -0.173820 -0.497000
vn -0.775731 -0.095507 -0.623794
vn -0.788728 -0.107585 -0.605255
vn -0.757438 -0.091733 -0.646431
vn -0.767415 -0.090798 -0.634689
vn -0.738751 -0.093760 -0.667425
vn -0.742770 -0.093237 -0.663023
vn -0.999892 -0.014672 -0.000233
vn -0.999891 -0.014737 -0.000048
vn -0.999892 -0.014715 -0.000066
vn -0.649247 -0.105830 -0.753179
vn -0.649690 -0.105776 -0.752805
vn -0.999890 -0.014812 0.000001
vn -0.999890 -0.014802 -0.000001
vn -0.999887 -0.015036 0.000926
vn -0.999887 -0.015036 0.000929
vn -0.999886 -0.015078 0.000903
vn -0.999883 -0.015305 0.000331
vn -0.642998 -0.106574 -0.758417
vn -0.642998 -0.106574 -0.758417
vn -0.999882 -0.015337 0.000251
vn -0.999882 -0.015337 0.000251
usemtl material
f 1/0/1 2/0/2 3/0/3
f 1/0/1 3/0/3 4/0/4
f 2/0/2 5/0/5 3/0/3
f 2/0/2 6/0/6 5/0/5
f 6/0/6 7/0/7 5/0/5
f 6/0/6 8/0/8 7/0/7
f 7/0/7 8/0/8 9/0/9
f 7/0/7 9/0/9 10/0/10
f 9/0/9 11/0/11 10/0/10
f 9/0/9 12/0/12 11/0/11
f 13/0/13 14/0/14 15/0/15
f 13/0/13 15/0/15 16/0/16
f 17/0/17 14/0/14 13/0/13
f 18/0/18 19/0/19 20/0/20
f 18/0/18 20/0/20 21/0/21
f 22/0/22 23/0/23 24/0/24
f 24/0/24 23/0/23 25/0/25
f 24/0/24 25/0/25 26/0/26
f 27/0/27 28/0/28 29/0/29
f 27/0/27 29/0/29 30/0/30
f 31/0/31 32/0/32 33/0/33
f 31/0/31 33/0/33 34/0/34
f 35/0/35 36/0/36 37/0/37
f 35/0/35 37/0/37 38/0/38
f 39/0/39 40/0/40 41/0/41
f 39/0/39 41/0/41 42/0/42
f 43/0/43 44/0/44 45/0/45
f 43/0/43 45/0/45 46/0/46
f 47/0/47 48/0/48 49/0/49
f 49/0/49 50/0/50 47/0/47
f 47/0/47 50/0/50 51/0/51
f 47/0/47 51/0/51 52/0/52
f 47/0/47 52/0/52 48/0/48
f 49/0/49 53/0/53 50/0/50
f 54/0/54 53/0/53 49/0/49
f 54/0/54 55/0/55 53/0/53
f 56/0/56 55/0/55 54/0/54
f 56/0/56 57/0/57 55/0/55
f 58/0/58 57/0/57 56/0/56
f 58/0/58 59/0/59 57/0/57
f 49/0/49 48/0/48 60/0/60
f 61/0/61 60/0/60 48/0/48
f 61/0/61 62/0/62 60/0/60
f 63/0/63 59/0/59 58/0/58
f 63/0/63 64/0/64 59/0/59
f 65/0/65 62/0/62 61/0/61
f 65/0/65 66/0/66 62/0/62
f 65/0/65 67/0/67 66/0/66
f 65/0/65 68/0/68 67/0/67
f 69/0/69 67/0/67 68/0/68
f 69/0/69 70/0/70 67/0/67
f 71/0/71 64/0/64 63/0/63
f 71/0/71 72/0/72 64/0/64
f 73/0/73 70/0/70 69/0/69
f 73/0/73 69/0/69 74/0/74
f 75/0/75 76/0/76 77/0/77
f 76/0/76 75/0/75 78/0/78
f 75/0/75 79/0/79 78/0/78
f 75/0/75 80/0/80 79/0/79
f 75/0/75 77/0/77 80/0/80
f 76/0/76 78/0/78 81/0/81
f 82/0/82 76/0/76 81/0/81
f 82/0/82 81/0/81 83/0/83
f 84/0/84 82/0/82 83/0/83
f 84/0/84 83/0/83 85/0/85
f 86/0/86 84/0/84 85/0/85
f 86/0/86 85/0/85 87/0/87
f 76/0/76 88/0/88 77/0/77
f 89/0/89 77/0/77 88/0/88
f 89/0/89 88/0/88 90/0/90
f 91/0/91 86/0/86 87/0/87
f 91/0/91 87/0/87 92/0/92
f 93/0/93 89/0/89 90/0/90
f 93/0/93 90/0/90 94/0/94
f 93/0/93 94/0/94 95/0/95
f 93/0/93 95/0/95 96/0/96
f 97/0/97 96/0/96 95/0/95
f 97/0/97 95/0/95 98/0/98
f 99/0/99 91/0/91 92/0/92
f 99/0/99 92/0/92 100/0/100
f 101/0/101 97/0/97 98/0/98
f 101/0/101 102/0/102 97/0/97
f 103/0/103 104/0/104 105/0/105
f 103/0/103 105/0/105 106/0/106
f 106/0/106 105/0/105 107/0/107
f 106/0/106 107/0/107 108/0/108
f 108/0/108 107/0/107 109/0/109
f 108/0/108 109/0/109 110/0/110
f 109/0/109 111/0/111 110/0/110
f 109/0/109 112/0/112 111/0/111
f 111/0/111 112/0/112 113/0/113
f 111/0/111 113/0/113 114/0/114
f 115/0/115 116/0/116 117/0/117
f 115/0/115 117/0/117 118/0/118
f 119/0/119 115/0/115 118/0/118
f 120/0/120 121/0/121 122/0/122
f 120/0/120 122/0/122 123/0/123
f 124/0/124 125/0/125 126/0/126
f 125/0/125 127/0/127 126/0/126
f 125/0/125 128/0/128 127/0/127
f 129/0/129 130/0/130 131/0/131
f 129/0/129 131/0/131 132/0/132
f 133/0/133 134/0/134 135/0/135
f 133/0/133 135/0/135 136/0/136
f 137/0/137 138/0/138 139/0/139
f 137/0/137 139/0/139 140/0/140
f 141/0/141 142/0/142 143/0/143
f 141/0/141 143/0/143 144/0/144
f 145/0/145 146/0/146 147/0/147
f 145/0/145 147/0/147 148/0/148
f 149/0/149 150/0/150 151/0/151
f 150/0/150 149/0/149 152/0/152
f 149/0/149 153/0/153 152/0/152
f 149/0/149 154/0/154 153/0/153
f 149/0/149 151/0/151 154/0/154
f 150/0/150 152/0/152 155/0/155
f 156/0/156 150/0/150 155/0/155
f 156/0/156 155/0/155 157/0/157
f 158/0/158 156/0/156 157/0/157
f 158/0/158 157/0/157 159/0/159
f 160/0/160 158/0/158 159/0/159
f 160/0/160 159/0/159 161/0/161
f 150/0/150 162/0/162 151/0/151
f 163/0/163 151/0/151 162/0/162
f 163/0/163 162/0/162 164/0/164
f 165/0/165 160/0/160 161/0/161
f 165/0/165 161/0/161 166/0/166
f 167/0/167 163/0/163 164/0/164
f 167/0/167 164/0/164 168/0/168
f 167/0/167 168/0/168 169/0/169
f 167/0/167 169/0/169 170/0/170
f 171/0/171 170/0/170 169/0/169
f 171/0/171 169/0/169 172/0/172
f 173/0/173 165/0/165 166/0/166
f 173/0/173 166/0/166 174/0/174
f 175/0/175 171/0/171 172/0/172
f 175/0/175 176/0/176 171/0/171
f 177/0/177 178/0/178 179/0/179
f 179/0/179 180/0/180 177/0/177
f 177/0/177 180/0/180 181/0/181
f 177/0/177 181/0/181 182/0/182
f 177/0/177 182/0/182 178/0/178
f 179/0/179 183/0/183 180/0/180
f 184/0/184 183/0/183 179/0/179
f 184/0/184 185/0/185 183/0/183
f 186/0/186 185/0/185 184/0/184
f 186/0/186 187/0/187 185/0/185
f 188/0/188 187/0/187 186/0/186
f 188/0/188 189/0/189 187/0/187
f 179/0/179 178/0/178 190/0/190
f 191/0/191 190/0/190 178/0/178
f 191/0/191 192/0/192 190/0/190
f 193/0/193 189/0/189 188/0/188
f 193/0/193 194/0/194 189/0/189
f 195/0/195 192/0/192 191/0/191
f 195/0/195 196/0/196 192/0/192
f 195/0/195 197/0/197 196/0/196
f 195/0/195 198/0/198 197/0/197
f 199/0/199 197/0/197 198/0/198
f 199/0/199 200/0/200 197/0/197
f 201/0/201 194/0/194 193/0/193
f 201/0/201 202/0/202 194/0/194
f 203/0/203 200/0/200 199/0/199
f 203/0/203 199/0/199 204/0/204
