# 
# Wavefront OBJ file
# Created with Kaydara FBX
# 
mtllib mine_01_light.mtl

g Mine_01_Light
v 0.249995 7.174060 3.584990
v 0.101019 7.294547 3.667119
v 0.101019 2.355827 3.667119
v 0.249995 2.356064 3.584990
v -0.047956 2.355827 3.667119
v -0.047956 7.294547 3.667119
v -0.196918 2.356064 3.584990
v -0.196918 7.174060 3.584990
v 1.949107 9.385402 0.212832
v 2.069593 9.409741 0.063857
v -2.016516 9.409741 0.063857
v -1.896029 9.385402 0.212832
v -2.016516 9.409741 -0.085117
v 2.069593 9.409741 -0.085117
v -1.896029 9.385402 -0.234082
v 1.949107 9.385402 -0.234082
v -0.196918 7.174060 -3.614062
v -0.047943 7.294547 -3.667119
v -0.047943 2.355827 -3.667119
v -0.196918 2.356064 -3.614062
v 0.101033 2.355827 -3.667119
v 0.101033 7.294547 -3.667119
v 0.249995 2.356064 -3.614062
v 0.249995 7.174060 -3.614062
vt 0.449270 0.970513
vt 0.483091 1.000000
vt 0.483091 0.014719
vt 0.449270 0.014768
vt 0.516909 0.014719
vt 0.516909 1.000000
vt 0.550730 0.014768
vt 0.550730 0.970513
vt 0.449270 0.970513
vt 0.483091 1.000000
vt 0.483091 -0.000000
vt 0.449270 0.029487
vt 0.516909 0.000000
vt 0.516909 1.000000
vt 0.550730 0.029487
vt 0.550730 0.970513
vt 0.449270 0.970513
vt 0.483091 1.000000
vt 0.483091 0.014719
vt 0.449270 0.014768
vt 0.516909 0.014719
vt 0.516909 1.000000
vt 0.550730 0.014768
vt 0.550730 0.970513
vn 0.482786 0.000000 0.875738
vn 0.249261 0.000000 0.968436
vn 0.249261 0.000000 0.968436
vn 0.482786 0.000000 0.875738
vn -0.249279 0.000000 0.968432
vn -0.249279 0.000000 0.968432
vn -0.482820 0.000000 0.875719
vn -0.482820 0.000000 0.875719
vn 0.000000 0.986915 0.161243
vn 0.000000 0.996723 0.080887
vn 0.000000 0.996723 0.080887
vn 0.000000 0.986915 0.161243
vn 0.000000 0.996723 -0.080892
vn 0.000000 0.996723 -0.080892
vn 0.000000 0.986913 -0.161253
vn 0.000000 0.986913 -0.161253
vn -0.335501 0.000000 -0.942040
vn -0.170235 0.000000 -0.985403
vn -0.170235 0.000000 -0.985403
vn -0.335501 0.000000 -0.942040
vn 0.170250 0.000000 -0.985401
vn 0.170250 0.000000 -0.985401
vn 0.335528 0.000000 -0.942030
vn 0.335528 0.000000 -0.942030
usemtl material
f 1/0/1 2/0/2 3/0/3
f 1/0/1 3/0/3 4/0/4
f 2/0/2 5/0/5 3/0/3
f 2/0/2 6/0/6 5/0/5
f 6/0/6 7/0/7 5/0/5
f 6/0/6 8/0/8 7/0/7
f 9/0/9 10/0/10 11/0/11
f 9/0/9 11/0/11 12/0/12
f 10/0/10 13/0/13 11/0/11
f 10/0/10 14/0/14 13/0/13
f 14/0/14 15/0/15 13/0/13
f 14/0/14 16/0/16 15/0/15
f 17/0/17 18/0/18 19/0/19
f 17/0/17 19/0/19 20/0/20
f 18/0/18 21/0/21 19/0/19
f 18/0/18 22/0/22 21/0/21
f 22/0/22 23/0/23 21/0/21
f 22/0/22 24/0/24 23/0/23
