# 
# Wavefront OBJ file
# Created with Kaydara FBX
# 
mtllib model #223430.mtl

g Model
v -0.439157 0.731928 -0.439157
v -0.292771 0.878313 -0.439157
v 0.292771 0.878313 -0.439157
v 0.439157 0.731928 -0.439157
v -0.439157 0.146386 -0.439157
v 0.439157 0.146386 -0.439157
v 0.292771 -0.000000 -0.439157
v -0.292771 -0.000000 -0.439157
v -0.439157 0.878313 -0.292771
v -0.292771 0.878313 -0.439157
v -0.439157 0.731928 -0.439157
v 0.439157 -0.000000 -0.292771
v 0.292771 -0.000000 -0.439157
v 0.439157 0.146386 -0.439157
v -0.439157 0.146386 -0.439157
v -0.292771 -0.000000 -0.439157
v -0.439157 -0.000000 -0.292771
v 0.439157 0.731928 -0.439157
v 0.292771 0.878313 -0.439157
v 0.439157 0.878313 -0.292771
v -0.439157 -0.000000 -0.292771
v -0.292771 -0.000000 -0.439157
v 0.292771 -0.000000 -0.439157
v 0.439157 -0.000000 -0.292771
v -0.439157 0.878313 0.292771
v -0.439157 0.731928 0.439157
v -0.292771 0.878313 0.439157
v 0.439157 0.000000 0.292771
v 0.439157 0.146386 0.439157
v 0.292771 0.000000 0.439157
v -0.439157 -0.000000 -0.292771
v 0.439157 -0.000000 -0.292771
v 0.439157 0.000000 0.292771
v -0.439157 0.000000 0.292771
v -0.439157 0.146386 0.439157
v -0.439157 0.000000 0.292771
v -0.292771 0.000000 0.439157
v 0.439157 0.731928 0.439157
v 0.439157 0.878313 0.292771
v 0.292771 0.878313 0.439157
v -0.439157 0.000000 0.292771
v 0.439157 0.000000 0.292771
v 0.292771 0.000000 0.439157
v -0.292771 0.000000 0.439157
v 0.351244 0.865553 0.351244
v 0.284883 0.865553 0.417605
v 0.292771 0.878313 0.439157
v 0.439157 0.878313 0.292771
v 0.417605 0.865553 0.284883
v 0.292771 0.878313 -0.439157
v 0.284883 0.865553 -0.417605
v 0.351244 0.865553 -0.351244
v 0.439157 0.878313 -0.292771
v 0.417605 0.865553 -0.284883
v 0.439157 0.878313 -0.292771
v 0.417605 0.865553 -0.284883
v 0.417605 0.865553 0.284883
v 0.439157 0.878313 0.292771
v 0.292771 0.878313 0.439157
v 0.284883 0.865553 0.417605
v -0.284883 0.865553 0.417605
v -0.292771 0.878313 0.439157
v -0.292771 0.878313 -0.439157
v -0.284883 0.865553 -0.417605
v 0.284883 0.865553 -0.417605
v 0.292771 0.878313 -0.439157
v -0.439157 0.878313 0.292771
v -0.417605 0.865553 0.284883
v -0.417605 0.865553 -0.284883
v -0.439157 0.878313 -0.292771
v -0.351244 0.865553 -0.351244
v -0.284883 0.865553 -0.417605
v -0.292771 0.878313 -0.439157
v -0.439157 0.878313 -0.292771
v -0.417605 0.865553 -0.284883
v -0.292771 0.878313 0.439157
v -0.284883 0.865553 0.417605
v -0.351244 0.865553 0.351244
v -0.439157 0.878313 0.292771
v -0.417605 0.865553 0.284883
v 0.351244 0.865553 0.351244
v 0.351244 0.048438 0.351244
v 0.284883 0.048438 0.417605
v 0.284883 0.865553 0.417605
v 0.417605 0.865553 0.284883
v 0.417605 0.048438 0.284883
v 0.284883 0.865553 -0.417605
v 0.284883 0.048438 -0.417605
v 0.351244 0.048438 -0.351244
v 0.351244 0.865553 -0.351244
v 0.417605 0.865553 -0.284883
v 0.417605 0.048438 -0.284883
v 0.417605 0.865553 -0.284883
v 0.417605 0.048438 -0.284883
v 0.417605 0.048438 0.284883
v 0.417605 0.865553 0.284883
v 0.284883 0.865553 0.417605
v 0.284883 0.048438 0.417605
v -0.284883 0.048438 0.417605
v -0.284883 0.865553 0.417605
v -0.284883 0.865553 -0.417605
v -0.284883 0.048438 -0.417605
v 0.284883 0.048438 -0.417605
v 0.284883 0.865553 -0.417605
v -0.417605 0.865553 0.284883
v -0.417605 0.048438 0.284883
v -0.417605 0.048438 -0.284883
v -0.417605 0.865553 -0.284883
v -0.351244 0.865553 -0.351244
v -0.351244 0.048438 -0.351244
v -0.284883 0.048438 -0.417605
v -0.284883 0.865553 -0.417605
v -0.417605 0.865553 -0.284883
v -0.417605 0.048438 -0.284883
v -0.284883 0.865553 0.417605
v -0.284883 0.048438 0.417605
v -0.351244 0.048438 0.351244
v -0.351244 0.865553 0.351244
v -0.417605 0.865553 0.284883
v -0.417605 0.048438 0.284883
v -0.417605 0.048438 0.284883
v 0.417605 0.048438 0.284883
v 0.417605 0.048438 -0.284883
v -0.417605 0.048438 -0.284883
v -0.351244 0.048438 -0.351244
v 0.351244 0.048438 -0.351244
v -0.284883 0.048438 -0.417605
v 0.284883 0.048438 -0.417605
v 0.351244 0.048438 0.351244
v -0.351244 0.048438 0.351244
v 0.284883 0.048438 0.417605
v -0.284883 0.048438 0.417605
v 0.439157 -0.000000 -0.292771
v 0.439157 0.146386 -0.439157
v 0.439157 0.731928 -0.439157
v 0.439157 0.878313 -0.292771
v 0.439157 0.878313 0.292771
v 0.439157 0.000000 0.292771
v 0.439157 0.731928 0.439157
v 0.439157 0.146386 0.439157
v -0.439157 0.731928 0.439157
v 0.439157 0.731928 0.439157
v 0.292771 0.878313 0.439157
v -0.292771 0.878313 0.439157
v -0.439157 0.146386 0.439157
v 0.439157 0.146386 0.439157
v 0.292771 0.000000 0.439157
v -0.292771 0.000000 0.439157
v -0.439157 0.731928 -0.439157
v -0.439157 0.146386 -0.439157
v -0.439157 -0.000000 -0.292771
v -0.439157 0.878313 -0.292771
v -0.439157 0.000000 0.292771
v -0.439157 0.878313 0.292771
v -0.439157 0.731928 0.439157
v -0.439157 0.146386 0.439157
vt 0.985523 0.806439
vt 0.908705 0.960874
vt 0.601703 0.960874
vt 0.524613 0.806439
vt 0.985523 0.188701
vt 0.524613 0.188701
vt 0.601703 0.034266
vt 0.908705 0.034266
vt 0.448018 0.986133
vt 0.556656 0.986133
vt 0.502337 0.836389
vt 0.448018 0.014386
vt 0.557435 0.014386
vt 0.502337 0.166798
vt 0.502337 0.166798
vt 0.448018 0.014386
vt 0.557435 0.014386
vt 0.502337 0.836389
vt 0.556656 0.986133
vt 0.448018 0.986133
vt 0.477119 0.186468
vt 0.400300 0.032034
vt 0.093027 0.032034
vt 0.016265 0.186468
vt 0.556656 0.986133
vt 0.502337 0.836389
vt 0.448018 0.986133
vt 0.557435 0.014386
vt 0.502337 0.166798
vt 0.448018 0.014386
vt 0.477119 0.804207
vt 0.016265 0.804207
vt 0.016265 0.186469
vt 0.477119 0.186469
vt 0.502337 0.166798
vt 0.557435 0.014386
vt 0.448018 0.014386
vt 0.502337 0.836389
vt 0.448018 0.986133
vt 0.556656 0.986133
vt 0.477119 0.804206
vt 0.016265 0.804206
vt 0.093027 0.958641
vt 0.400300 0.958641
vt 0.233376 0.958136
vt 0.255271 0.958136
vt 0.257525 0.963164
vt 0.209226 0.963164
vt 0.211480 0.958136
vt 0.257050 0.963164
vt 0.254796 0.958136
vt 0.232900 0.958136
vt 0.208751 0.963164
vt 0.211005 0.958136
vt 0.174732 0.963164
vt 0.176573 0.958136
vt 0.309502 0.958136
vt 0.311342 0.963164
vt 0.175272 0.963164
vt 0.177112 0.958136
vt 0.310041 0.958136
vt 0.311882 0.963164
vt 0.311882 0.963164
vt 0.310041 0.958136
vt 0.177112 0.958136
vt 0.175272 0.963164
vt 0.311342 0.963164
vt 0.309502 0.958136
vt 0.176573 0.958136
vt 0.174732 0.963164
vt 0.233340 0.958136
vt 0.211444 0.958136
vt 0.209190 0.963164
vt 0.257489 0.963164
vt 0.255235 0.958136
vt 0.208715 0.963164
vt 0.210969 0.958136
vt 0.232864 0.958136
vt 0.257014 0.963164
vt 0.254760 0.958136
vt 0.008471 0.966865
vt 0.008471 0.908960
vt 0.012009 0.908960
vt 0.012009 0.966865
vt 0.012009 0.966634
vt 0.012009 0.909214
vt 0.012009 0.966634
vt 0.012009 0.909214
vt 0.008471 0.909214
vt 0.008471 0.966634
vt 0.012009 0.966865
vt 0.012009 0.908960
vt 0.038131 0.966794
vt 0.038131 0.909060
vt 0.021739 0.909060
vt 0.021739 0.966794
vt 0.038131 0.966794
vt 0.038131 0.909060
vt 0.021739 0.909060
vt 0.021739 0.966794
vt 0.038131 0.966794
vt 0.038131 0.909060
vt 0.021739 0.909060
vt 0.021739 0.966794
vt 0.038131 0.966794
vt 0.038131 0.909060
vt 0.021739 0.909060
vt 0.021739 0.966794
vt 0.008471 0.966865
vt 0.008471 0.908960
vt 0.012009 0.908960
vt 0.012009 0.966865
vt 0.012009 0.966634
vt 0.012009 0.909214
vt 0.012009 0.966634
vt 0.012009 0.909214
vt 0.008471 0.909214
vt 0.008471 0.966634
vt 0.012009 0.966865
vt 0.012009 0.908960
vt 0.462468 0.203083
vt 0.029986 0.203083
vt 0.029986 0.793100
vt 0.462468 0.793100
vt 0.428106 0.861820
vt 0.064349 0.861820
vt 0.393742 0.930540
vt 0.098712 0.930540
vt 0.064349 0.134363
vt 0.428106 0.134363
vt 0.098712 0.065643
vt 0.393742 0.065644
vt 0.601703 0.034266
vt 0.524613 0.188701
vt 0.524613 0.806439
vt 0.601703 0.960874
vt 0.908705 0.960874
vt 0.908705 0.034266
vt 0.985523 0.806439
vt 0.985523 0.188701
vt 0.524613 0.806438
vt 0.985523 0.806438
vt 0.908705 0.960873
vt 0.601703 0.960873
vt 0.524613 0.188700
vt 0.985523 0.188700
vt 0.908705 0.034266
vt 0.601703 0.034266
vt 0.985523 0.806438
vt 0.985523 0.188700
vt 0.908705 0.034266
vt 0.908705 0.960874
vt 0.601703 0.034266
vt 0.601703 0.960874
vt 0.524613 0.806438
vt 0.524613 0.188700
vn 0.069878 0.511462 -0.856460
vn -0.285711 0.714013 -0.639183
vn 0.411308 0.747837 -0.521119
vn 0.021909 0.461058 -0.887099
vn -0.101437 -0.277130 -0.955463
vn 0.101437 -0.277130 -0.955463
vn 0.147784 -0.491675 -0.858147
vn -0.147784 -0.491675 -0.858147
vn -0.570700 0.820233 -0.038976
vn 0.135347 0.990658 0.016686
vn -0.512730 0.187672 -0.837787
vn 0.698400 -0.698399 -0.156448
vn 0.250563 -0.684550 -0.684550
vn 0.512730 -0.187672 -0.837787
vn -0.512730 -0.187672 -0.837787
vn -0.250563 -0.684550 -0.684550
vn -0.698400 -0.698400 -0.156448
vn 0.512730 0.187672 -0.837787
vn 0.046454 0.977586 -0.205349
vn 0.320172 0.938640 0.128240
vn -0.698400 -0.698400 -0.156448
vn -0.250563 -0.684550 -0.684550
vn 0.250563 -0.684550 -0.684550
vn 0.698400 -0.698399 -0.156448
vn -0.320172 0.938640 -0.128240
vn -0.512730 0.187672 0.837787
vn -0.046453 0.977586 0.205348
vn 0.698400 -0.698400 0.156448
vn 0.512730 -0.187672 0.837787
vn 0.250563 -0.684550 0.684550
vn -0.698400 -0.698400 -0.156448
vn 0.698400 -0.698399 -0.156448
vn 0.698400 -0.698400 0.156448
vn -0.698400 -0.698400 0.156448
vn -0.512730 -0.187672 0.837787
vn -0.698400 -0.698400 0.156448
vn -0.250563 -0.684550 0.684550
vn 0.512730 0.187672 0.837787
vn 0.570700 0.820233 0.038976
vn -0.135347 0.990658 -0.016686
vn -0.698400 -0.698400 0.156448
vn 0.698400 -0.698400 0.156448
vn 0.250563 -0.684550 0.684550
vn -0.250563 -0.684550 0.684550
vn -0.647716 0.401158 -0.647716
vn -0.346372 0.432428 -0.832486
vn -0.135347 0.990658 -0.016686
vn 0.570700 0.820233 0.038976
vn -0.832486 0.432429 -0.346371
vn 0.046454 0.977586 -0.205349
vn -0.346372 0.432429 0.832485
vn -0.647717 0.401159 0.647715
vn 0.320172 0.938640 0.128240
vn -0.832486 0.432429 0.346371
vn 0.320172 0.938640 0.128240
vn -0.832486 0.432429 0.346371
vn -0.832486 0.432429 -0.346371
vn 0.570700 0.820233 0.038976
vn -0.135347 0.990658 -0.016686
vn -0.346372 0.432428 -0.832486
vn 0.346372 0.432428 -0.832486
vn -0.046453 0.977586 0.205348
vn 0.135347 0.990658 0.016686
vn 0.346372 0.432428 0.832486
vn -0.346372 0.432429 0.832485
vn 0.046454 0.977586 -0.205349
vn -0.320172 0.938640 -0.128240
vn 0.832486 0.432429 -0.346371
vn 0.832486 0.432429 0.346371
vn -0.570700 0.820233 -0.038976
vn 0.647716 0.401158 0.647716
vn 0.346372 0.432428 0.832486
vn 0.135347 0.990658 0.016686
vn -0.570700 0.820233 -0.038976
vn 0.832486 0.432429 0.346371
vn -0.046453 0.977586 0.205348
vn 0.346372 0.432428 -0.832486
vn 0.647716 0.401159 -0.647715
vn -0.320172 0.938640 -0.128240
vn 0.832486 0.432429 -0.346371
vn -0.647716 0.401158 -0.647716
vn -0.500001 0.707107 -0.500000
vn -0.336557 0.475963 -0.812520
vn -0.346372 0.432428 -0.832486
vn -0.832486 0.432429 -0.346371
vn -0.626943 0.734510 -0.259688
vn -0.346372 0.432429 0.832485
vn -0.336557 0.475963 0.812520
vn -0.500001 0.707107 0.500000
vn -0.647717 0.401159 0.647715
vn -0.832486 0.432429 0.346371
vn -0.626943 0.734509 0.259688
vn -0.832486 0.432429 0.346371
vn -0.626943 0.734509 0.259688
vn -0.626943 0.734510 -0.259688
vn -0.832486 0.432429 -0.346371
vn -0.346372 0.432428 -0.832486
vn -0.336557 0.475963 -0.812520
vn 0.336557 0.475963 -0.812520
vn 0.346372 0.432428 -0.832486
vn 0.346372 0.432428 0.832486
vn 0.336557 0.475963 0.812520
vn -0.336557 0.475963 0.812520
vn -0.346372 0.432429 0.832485
vn 0.832486 0.432429 -0.346371
vn 0.626943 0.734510 -0.259688
vn 0.626943 0.734509 0.259688
vn 0.832486 0.432429 0.346371
vn 0.647716 0.401158 0.647716
vn 0.500001 0.707107 0.500000
vn 0.336557 0.475963 0.812520
vn 0.346372 0.432428 0.832486
vn 0.832486 0.432429 0.346371
vn 0.626943 0.734509 0.259688
vn 0.346372 0.432428 -0.832486
vn 0.336557 0.475963 -0.812520
vn 0.500000 0.707107 -0.500000
vn 0.647716 0.401159 -0.647715
vn 0.832486 0.432429 -0.346371
vn 0.626943 0.734510 -0.259688
vn 0.626943 0.734510 -0.259688
vn -0.626943 0.734510 -0.259688
vn -0.626943 0.734509 0.259688
vn 0.626943 0.734509 0.259688
vn 0.500001 0.707107 0.500000
vn -0.500001 0.707107 0.500000
vn 0.336557 0.475963 0.812520
vn -0.336557 0.475963 0.812520
vn -0.500001 0.707107 -0.500000
vn 0.500000 0.707107 -0.500000
vn -0.336557 0.475963 -0.812520
vn 0.336557 0.475963 -0.812520
vn 0.940039 0.032271 -0.339538
vn 0.734871 -0.309892 -0.603267
vn 0.627621 0.565881 -0.534669
vn 0.871185 0.151326 -0.467052
vn 0.786790 0.219864 0.576733
vn 0.926566 -0.034236 0.374570
vn 0.707857 0.413283 0.572832
vn 0.734871 -0.309892 0.603267
vn -0.021909 0.461059 0.887099
vn -0.069878 0.511462 0.856460
vn 0.285711 0.714013 0.639182
vn -0.411308 0.747837 0.521119
vn -0.101437 -0.277130 0.955463
vn 0.101437 -0.277130 0.955463
vn 0.147784 -0.491675 0.858147
vn -0.147784 -0.491675 0.858147
vn -0.707857 0.413283 -0.572832
vn -0.734871 -0.309892 -0.603267
vn -0.926566 -0.034237 -0.374570
vn -0.786790 0.219863 -0.576733
vn -0.940039 0.032271 0.339538
vn -0.871185 0.151326 0.467052
vn -0.627621 0.565881 0.534669
vn -0.734871 -0.309892 0.603267
usemtl material
f 1/0/1 2/0/2 3/0/3
f 1/0/1 3/0/3 4/0/4
f 5/0/5 1/0/1 4/0/4
f 5/0/5 4/0/4 6/0/6
f 7/0/7 5/0/5 6/0/6
f 7/0/7 8/0/8 5/0/5
f 9/0/9 10/0/10 11/0/11
f 12/0/12 13/0/13 14/0/14
f 15/0/15 16/0/16 17/0/17
f 18/0/18 19/0/19 20/0/20
f 21/0/21 22/0/22 23/0/23
f 21/0/21 23/0/23 24/0/24
f 25/0/25 26/0/26 27/0/27
f 28/0/28 29/0/29 30/0/30
f 31/0/31 32/0/32 33/0/33
f 31/0/31 33/0/33 34/0/34
f 35/0/35 36/0/36 37/0/37
f 38/0/38 39/0/39 40/0/40
f 41/0/41 42/0/42 43/0/43
f 41/0/41 43/0/43 44/0/44
f 45/0/45 46/0/46 47/0/47
f 48/0/48 45/0/45 47/0/47
f 48/0/48 49/0/49 45/0/45
f 50/0/50 51/0/51 52/0/52
f 50/0/50 52/0/52 53/0/53
f 52/0/52 54/0/54 53/0/53
f 55/0/55 56/0/56 57/0/57
f 55/0/55 57/0/57 58/0/58
f 59/0/59 60/0/60 61/0/61
f 59/0/59 61/0/61 62/0/62
f 63/0/63 64/0/64 65/0/65
f 63/0/63 65/0/65 66/0/66
f 67/0/67 68/0/68 69/0/69
f 67/0/67 69/0/69 70/0/70
f 71/0/71 72/0/72 73/0/73
f 74/0/74 71/0/71 73/0/73
f 74/0/74 75/0/75 71/0/71
f 76/0/76 77/0/77 78/0/78
f 76/0/76 78/0/78 79/0/79
f 78/0/78 80/0/80 79/0/79
f 81/0/81 82/0/82 83/0/83
f 81/0/81 83/0/83 84/0/84
f 85/0/85 82/0/82 81/0/81
f 85/0/85 86/0/86 82/0/82
f 87/0/87 88/0/88 89/0/89
f 87/0/87 89/0/89 90/0/90
f 89/0/89 91/0/91 90/0/90
f 89/0/89 92/0/92 91/0/91
f 93/0/93 94/0/94 95/0/95
f 93/0/93 95/0/95 96/0/96
f 97/0/97 98/0/98 99/0/99
f 97/0/97 99/0/99 100/0/100
f 101/0/101 102/0/102 103/0/103
f 101/0/101 103/0/103 104/0/104
f 105/0/105 106/0/106 107/0/107
f 105/0/105 107/0/107 108/0/108
f 109/0/109 110/0/110 111/0/111
f 109/0/109 111/0/111 112/0/112
f 113/0/113 110/0/110 109/0/109
f 113/0/113 114/0/114 110/0/110
f 115/0/115 116/0/116 117/0/117
f 115/0/115 117/0/117 118/0/118
f 117/0/117 119/0/119 118/0/118
f 117/0/117 120/0/120 119/0/119
f 121/0/121 122/0/122 123/0/123
f 121/0/121 123/0/123 124/0/124
f 125/0/125 124/0/124 123/0/123
f 125/0/125 123/0/123 126/0/126
f 127/0/127 125/0/125 126/0/126
f 127/0/127 126/0/126 128/0/128
f 129/0/129 122/0/122 121/0/121
f 129/0/129 121/0/121 130/0/130
f 131/0/131 129/0/129 130/0/130
f 131/0/131 130/0/130 132/0/132
f 133/0/133 134/0/134 135/0/135
f 133/0/133 135/0/135 136/0/136
f 133/0/133 136/0/136 137/0/137
f 133/0/133 137/0/137 138/0/138
f 138/0/138 137/0/137 139/0/139
f 138/0/138 139/0/139 140/0/140
f 141/0/141 142/0/142 143/0/143
f 141/0/141 143/0/143 144/0/144
f 145/0/145 142/0/142 141/0/141
f 145/0/145 146/0/146 142/0/142
f 147/0/147 146/0/146 145/0/145
f 147/0/147 145/0/145 148/0/148
f 149/0/149 150/0/150 151/0/151
f 149/0/149 151/0/151 152/0/152
f 152/0/152 151/0/151 153/0/153
f 152/0/152 153/0/153 154/0/154
f 155/0/155 154/0/154 153/0/153
f 155/0/155 153/0/153 156/0/156
