# 
# Wavefront OBJ file
# Created with Kaydara FBX
# 
mtllib mouth #221705.mtl

g Mouth
v -0.016632 1.605034 0.095974
v -0.006671 1.604153 0.101514
v -0.005823 1.610262 0.104963
v -0.010957 1.615388 0.101980
v -0.019098 1.612430 0.095740
v -0.014476 1.598795 0.095707
v -0.007377 1.598587 0.099838
v -0.007919 1.593454 0.095351
v -0.017284 1.595959 0.091488
v -0.006671 1.604153 0.101514
v -0.000000 1.603823 0.103985
v -0.000000 1.608285 0.107420
v -0.024935 1.601558 0.089968
v -0.016632 1.605034 0.095974
v -0.029756 1.608872 0.089806
v -0.014476 1.598795 0.095707
v -0.000000 1.598618 0.102128
v -0.000000 1.603823 0.103985
v -0.007377 1.598587 0.099838
v -0.000000 1.592519 0.096936
v -0.007919 1.593454 0.095351
v -0.000000 1.586483 0.094271
v -0.007899 1.587478 0.092362
v -0.007176 1.579839 0.085909
v -0.000000 1.578031 0.087151
v -0.030972 1.597334 0.084736
v -0.024935 1.601558 0.089968
v -0.029756 1.608872 0.089806
v -0.039121 1.604745 0.083071
v -0.019709 1.592743 0.087377
v -0.017284 1.595959 0.091488
v -0.035169 1.592688 0.078688
v -0.023657 1.587376 0.081662
v -0.019709 1.592743 0.087377
v -0.013931 1.582502 0.083372
v -0.007899 1.587478 0.092362
v -0.013931 1.582502 0.083372
v -0.007176 1.579839 0.085909
v -0.017284 1.595959 0.091488
v -0.019709 1.592743 0.087377
v -0.007899 1.587478 0.092362
v -0.007919 1.593454 0.095351
v 0.016632 1.605033 0.095974
v 0.005823 1.610262 0.104963
v 0.006671 1.604153 0.101514
v 0.010957 1.615388 0.101980
v 0.019098 1.612429 0.095740
v 0.014476 1.598795 0.095707
v 0.007377 1.598586 0.099838
v 0.007919 1.593453 0.095351
v 0.017284 1.595958 0.091488
v -0.000000 1.608285 0.107420
v -0.000000 1.603823 0.103985
v 0.006671 1.604153 0.101514
v 0.024935 1.601558 0.089968
v 0.029756 1.608872 0.089806
v 0.016632 1.605033 0.095974
v 0.014476 1.598795 0.095707
v -0.000000 1.598618 0.102128
v 0.007377 1.598586 0.099838
v -0.000000 1.592519 0.096936
v 0.007919 1.593453 0.095351
v -0.000000 1.586483 0.094271
v 0.007899 1.587478 0.092362
v -0.000000 1.603823 0.103985
v 0.007176 1.579839 0.085909
v -0.000000 1.578031 0.087151
v 0.030971 1.597334 0.084736
v 0.039121 1.604745 0.083071
v 0.029756 1.608872 0.089806
v 0.024935 1.601558 0.089968
v 0.019709 1.592743 0.087377
v 0.017284 1.595958 0.091488
v 0.019709 1.592743 0.087377
v 0.023657 1.587376 0.081662
v 0.035169 1.592688 0.078688
v 0.013931 1.582501 0.083372
v 0.007899 1.587478 0.092362
v 0.013931 1.582501 0.083372
v 0.007176 1.579839 0.085909
v 0.017284 1.595958 0.091488
v 0.007919 1.593453 0.095351
v 0.007899 1.587478 0.092362
v 0.019709 1.592743 0.087377
vt 0.714186 0.714002
vt 0.589214 0.688771
vt 0.576717 0.840156
vt 0.639203 0.966311
vt 0.739180 0.890618
vt 0.690153 0.568009
vt 0.587720 0.554729
vt 0.599303 0.422558
vt 0.714936 0.475945
vt 0.589214 0.688771
vt 0.502133 0.688771
vt 0.502133 0.789695
vt 0.814164 0.613079
vt 0.714186 0.714002
vt 0.876649 0.814925
vt 0.690153 0.568009
vt 0.502133 0.552442
vt 0.502133 0.688771
vt 0.587720 0.554729
vt 0.502133 0.400567
vt 0.599303 0.422558
vt 0.502133 0.248073
vt 0.601213 0.272023
vt 0.600967 0.071726
vt 0.502133 0.047261
vt 0.889147 0.512156
vt 0.814164 0.613079
vt 0.876649 0.814925
vt 1.001621 0.688771
vt 0.749420 0.403797
vt 0.714936 0.475945
vt 0.939135 0.411232
vt 0.801858 0.271486
vt 0.749420 0.403797
vt 0.688007 0.149097
vt 0.601213 0.272023
vt 0.688007 0.149097
vt 0.600967 0.071726
vt 0.714936 0.475945
vt 0.749420 0.403797
vt 0.601213 0.272023
vt 0.599303 0.422558
vt 0.290079 0.714002
vt 0.427548 0.840156
vt 0.415051 0.688771
vt 0.365062 0.966311
vt 0.265085 0.890618
vt 0.314113 0.568009
vt 0.416546 0.554729
vt 0.404962 0.422558
vt 0.289330 0.475945
vt 0.502133 0.789695
vt 0.502133 0.688771
vt 0.415051 0.688771
vt 0.190102 0.613079
vt 0.127616 0.814925
vt 0.290079 0.714002
vt 0.314113 0.568009
vt 0.502133 0.552442
vt 0.416546 0.554729
vt 0.502133 0.400567
vt 0.404962 0.422558
vt 0.502133 0.248073
vt 0.403052 0.272023
vt 0.502133 0.688771
vt 0.403298 0.071726
vt 0.502133 0.047261
vt 0.115119 0.512156
vt 0.002644 0.688771
vt 0.127616 0.814925
vt 0.190102 0.613079
vt 0.254845 0.403797
vt 0.289330 0.475945
vt 0.254845 0.403797
vt 0.202408 0.271486
vt 0.065130 0.411232
vt 0.316258 0.149097
vt 0.403052 0.272023
vt 0.316258 0.149097
vt 0.403298 0.071726
vt 0.289330 0.475945
vt 0.404962 0.422558
vt 0.403052 0.272023
vt 0.254845 0.403797
vn -0.512528 -0.240336 0.824351
vn -0.421886 -0.335952 0.842109
vn -0.560820 -0.426975 0.709347
vn -0.698122 -0.079340 0.711569
vn -0.506042 -0.093968 0.857375
vn -0.484607 -0.399831 0.778005
vn -0.372231 -0.428934 0.823080
vn -0.355328 -0.523747 0.774229
vn -0.473763 -0.449704 0.757176
vn -0.421886 -0.335952 0.842109
vn -0.000003 -0.416694 0.909047
vn -0.000006 -0.631068 0.775728
vn -0.467004 -0.342643 0.815171
vn -0.512528 -0.240336 0.824351
vn -0.480279 -0.190018 0.856285
vn -0.484607 -0.399831 0.778005
vn -0.000003 -0.463462 0.886117
vn -0.000003 -0.416694 0.909047
vn -0.372231 -0.428934 0.823080
vn -0.000004 -0.541625 0.840620
vn -0.355328 -0.523747 0.774229
vn -0.000004 -0.542223 0.840234
vn -0.370355 -0.523135 0.767572
vn -0.396477 -0.463853 0.792241
vn -0.000004 -0.457690 0.889112
vn -0.471948 -0.440344 0.763782
vn -0.467004 -0.342643 0.815171
vn -0.480279 -0.190018 0.856285
vn -0.566136 -0.304315 0.766082
vn -0.448379 -0.504201 0.738064
vn -0.473763 -0.449704 0.757176
vn -0.553242 -0.543557 0.631245
vn -0.471921 -0.534707 0.700984
vn -0.448379 -0.504201 0.738064
vn -0.482667 -0.475470 0.735501
vn -0.370355 -0.523135 0.767572
vn -0.482667 -0.475470 0.735501
vn -0.396477 -0.463853 0.792241
vn -0.473763 -0.449704 0.757176
vn -0.448379 -0.504201 0.738064
vn -0.370355 -0.523135 0.767572
vn -0.355328 -0.523747 0.774229
vn 0.512528 -0.240336 0.824351
vn 0.560816 -0.426976 0.709350
vn 0.421884 -0.335952 0.842111
vn 0.698122 -0.079339 0.711569
vn 0.506042 -0.093967 0.857375
vn 0.484608 -0.399832 0.778004
vn 0.372227 -0.428936 0.823080
vn 0.355325 -0.523747 0.774231
vn 0.473762 -0.449704 0.757176
vn -0.000006 -0.631068 0.775728
vn -0.000003 -0.416694 0.909047
vn 0.421884 -0.335952 0.842111
vn 0.467004 -0.342643 0.815171
vn 0.480279 -0.190018 0.856285
vn 0.512528 -0.240336 0.824351
vn 0.484608 -0.399832 0.778004
vn -0.000003 -0.463462 0.886117
vn 0.372227 -0.428936 0.823080
vn -0.000004 -0.541625 0.840620
vn 0.355325 -0.523747 0.774231
vn -0.000004 -0.542223 0.840234
vn 0.370351 -0.523135 0.767574
vn -0.000003 -0.416694 0.909047
vn 0.396473 -0.463853 0.792243
vn -0.000004 -0.457690 0.889112
vn 0.471948 -0.440343 0.763782
vn 0.566137 -0.304314 0.766082
vn 0.480279 -0.190018 0.856285
vn 0.467004 -0.342643 0.815171
vn 0.448379 -0.504199 0.738064
vn 0.473762 -0.449704 0.757176
vn 0.448379 -0.504199 0.738064
vn 0.471921 -0.534707 0.700984
vn 0.553242 -0.543556 0.631245
vn 0.482666 -0.475470 0.735501
vn 0.370351 -0.523135 0.767574
vn 0.482666 -0.475470 0.735501
vn 0.396473 -0.463853 0.792243
vn 0.473762 -0.449704 0.757176
vn 0.355325 -0.523747 0.774231
vn 0.370351 -0.523135 0.767574
vn 0.448379 -0.504199 0.738064
usemtl material
f 1/0/1 2/0/2 3/0/3
f 1/0/1 3/0/3 4/0/4
f 5/0/5 1/0/1 4/0/4
f 6/0/6 2/0/2 1/0/1
f 6/0/6 7/0/7 2/0/2
f 6/0/6 8/0/8 7/0/7
f 6/0/6 9/0/9 8/0/8
f 3/0/3 10/0/10 11/0/11
f 3/0/3 11/0/11 12/0/12
f 13/0/13 14/0/14 5/0/5
f 13/0/13 5/0/5 15/0/15
f 16/0/16 14/0/14 13/0/13
f 16/0/16 13/0/13 9/0/9
f 17/0/17 18/0/18 10/0/10
f 17/0/17 10/0/10 19/0/19
f 19/0/19 20/0/20 17/0/17
f 19/0/19 21/0/21 20/0/20
f 21/0/21 22/0/22 20/0/20
f 21/0/21 23/0/23 22/0/22
f 22/0/22 23/0/23 24/0/24
f 22/0/22 24/0/24 25/0/25
f 26/0/26 27/0/27 28/0/28
f 26/0/26 28/0/28 29/0/29
f 30/0/30 27/0/27 26/0/26
f 30/0/30 31/0/31 27/0/27
f 26/0/26 32/0/32 33/0/33
f 26/0/26 33/0/33 34/0/34
f 30/0/30 33/0/33 35/0/35
f 30/0/30 35/0/35 36/0/36
f 37/0/37 38/0/38 36/0/36
f 39/0/39 40/0/40 41/0/41
f 39/0/39 41/0/41 42/0/42
f 43/0/43 44/0/44 45/0/45
f 43/0/43 46/0/46 44/0/44
f 47/0/47 46/0/46 43/0/43
f 48/0/48 43/0/43 45/0/45
f 48/0/48 45/0/45 49/0/49
f 48/0/48 49/0/49 50/0/50
f 48/0/48 50/0/50 51/0/51
f 44/0/44 52/0/52 53/0/53
f 44/0/44 53/0/53 54/0/54
f 55/0/55 56/0/56 47/0/47
f 55/0/55 47/0/47 57/0/57
f 58/0/58 51/0/51 55/0/55
f 58/0/58 55/0/55 57/0/57
f 59/0/59 60/0/60 54/0/54
f 60/0/60 59/0/59 61/0/61
f 60/0/60 61/0/61 62/0/62
f 62/0/62 61/0/61 63/0/63
f 62/0/62 63/0/63 64/0/64
f 59/0/59 54/0/54 65/0/65
f 63/0/63 66/0/66 64/0/64
f 63/0/63 67/0/67 66/0/66
f 68/0/68 69/0/69 70/0/70
f 68/0/68 70/0/70 71/0/71
f 72/0/72 68/0/68 71/0/71
f 72/0/72 71/0/71 73/0/73
f 68/0/68 74/0/74 75/0/75
f 68/0/68 75/0/75 76/0/76
f 72/0/72 77/0/77 75/0/75
f 72/0/72 78/0/78 77/0/77
f 79/0/79 78/0/78 80/0/80
f 81/0/81 82/0/82 83/0/83
f 81/0/81 83/0/83 84/0/84
