# 
# Wavefront OBJ file
# Created with Kaydara FBX
# 
mtllib mouth #2214110.mtl

g Mouth
v -0.012079 1.322048 0.129871
v -0.005455 1.322818 0.133495
v -0.005715 1.329951 0.135597
v -0.011422 1.333287 0.132984
v -0.021167 1.328601 0.124197
v -0.018733 1.320060 0.124162
v 0.000005 1.322913 0.135480
v 0.000005 1.328068 0.137966
v -0.024195 1.317289 0.120107
v -0.028893 1.325037 0.119824
v -0.005444 1.318220 0.132927
v 0.000005 1.318083 0.134487
v 0.000005 1.314173 0.129680
v -0.005438 1.314395 0.128553
v -0.012025 1.314311 0.125489
v -0.012053 1.316787 0.128243
v -0.017207 1.314209 0.122947
v -0.019331 1.312956 0.120798
v -0.012025 1.314311 0.125489
v -0.012205 1.309736 0.123584
v -0.020913 1.308815 0.117214
v -0.012552 1.305566 0.119426
v -0.012995 1.300238 0.115443
v -0.005451 1.303951 0.121683
v -0.005441 1.298944 0.118053
v -0.005671 1.292341 0.114336
v -0.013680 1.294867 0.110699
v 0.000005 1.298175 0.120024
v 0.000005 1.291474 0.116285
v 0.000005 1.303195 0.122916
v -0.022293 1.303285 0.112718
v -0.005467 1.307860 0.125407
v 0.000005 1.303195 0.122916
v 0.000005 1.307318 0.126565
v 0.000005 1.314173 0.129680
v -0.023769 1.299241 0.107876
v -0.022293 1.303285 0.112718
v -0.035790 1.306329 0.104421
v -0.033109 1.309468 0.110056
v -0.028662 1.313589 0.115964
v 0.005449 1.314395 0.128553
v 0.000005 1.307318 0.126565
v 0.005478 1.307860 0.125407
v 0.005462 1.303951 0.121683
v 0.012216 1.309736 0.123584
v 0.012563 1.305566 0.119426
v 0.020924 1.308815 0.117214
v 0.019342 1.312956 0.120798
v 0.013006 1.300238 0.115443
v 0.005451 1.298944 0.118053
v 0.005682 1.292341 0.114336
v 0.013690 1.294867 0.110699
v 0.000005 1.298175 0.120024
v 0.000005 1.291474 0.116285
v 0.022303 1.303285 0.112718
v 0.012035 1.314311 0.125489
v 0.017217 1.314209 0.122947
v 0.024205 1.317289 0.120107
v 0.018744 1.320060 0.124162
v 0.021177 1.328601 0.124197
v 0.012089 1.322048 0.129871
v 0.011432 1.333287 0.132984
v 0.005725 1.329951 0.135597
v 0.005465 1.322818 0.133495
v 0.000005 1.322913 0.135480
v 0.000005 1.328068 0.137966
v 0.028903 1.325037 0.119824
v 0.005455 1.318220 0.132927
v 0.000005 1.318083 0.134487
v 0.012064 1.316787 0.128243
v 0.012035 1.314311 0.125489
v -0.012053 1.316787 0.128243
v -0.017207 1.314209 0.122947
v 0.028672 1.313589 0.115964
v 0.022303 1.303285 0.112718
v 0.033119 1.309468 0.110056
v 0.035800 1.306329 0.104421
v 0.023779 1.299241 0.107876
v 0.012064 1.316787 0.128243
v 0.017217 1.314209 0.122947
vt 0.688945 0.605830
vt 0.591448 0.615918
vt 0.592294 0.720865
vt 0.678471 0.770390
vt 0.827100 0.701711
vt 0.790142 0.576510
vt 0.502974 0.618327
vt 0.502974 0.693888
vt 0.873329 0.540113
vt 0.944379 0.651377
vt 0.589860 0.543693
vt 0.502974 0.542337
vt 0.502974 0.492505
vt 0.582895 0.495305
vt 0.691971 0.499177
vt 0.692548 0.524066
vt 0.767150 0.482943
vt 0.796648 0.476281
vt 0.691971 0.499177
vt 0.691278 0.425300
vt 0.823506 0.424944
vt 0.696116 0.375096
vt 0.716959 0.291217
vt 0.586317 0.336956
vt 0.593137 0.251416
vt 0.607298 0.159546
vt 0.744835 0.208527
vt 0.502974 0.222187
vt 0.502974 0.123120
vt 0.502974 0.329315
vt 0.868750 0.370938
vt 0.588958 0.397014
vt 0.502974 0.329315
vt 0.502974 0.389746
vt 0.502974 0.492505
vt 0.905020 0.295295
vt 0.868750 0.370938
vt 0.969636 0.400276
vt 0.960075 0.459186
vt 0.941260 0.495211
vt 0.422073 0.495465
vt 0.502974 0.389746
vt 0.415816 0.397186
vt 0.418337 0.337122
vt 0.313552 0.425674
vt 0.308615 0.375480
vt 0.181323 0.425581
vt 0.208283 0.476865
vt 0.287606 0.291643
vt 0.411349 0.251596
vt 0.397005 0.159754
vt 0.259566 0.209009
vt 0.502974 0.222187
vt 0.502974 0.123120
vt 0.135972 0.371665
vt 0.313620 0.499537
vt 0.237794 0.483468
vt 0.131729 0.540848
vt 0.214988 0.577081
vt 0.178279 0.702354
vt 0.316243 0.606200
vt 0.327044 0.770739
vt 0.413122 0.721043
vt 0.413760 0.616094
vt 0.502974 0.618327
vt 0.502974 0.693888
vt 0.060900 0.652253
vt 0.415205 0.543866
vt 0.502974 0.542337
vt 0.312478 0.524443
vt 0.313620 0.499537
vt 0.692548 0.524066
vt 0.767150 0.482943
vt 0.063710 0.496081
vt 0.135972 0.371665
vt 0.044808 0.460221
vt 0.035145 0.401425
vt 0.099553 0.296093
vt 0.312478 0.524443
vt 0.237794 0.483468
vn -0.503319 -0.113830 0.856570
vn -0.374740 -0.186372 0.908205
vn -0.459337 -0.184673 0.868853
vn -0.641353 0.032833 0.766543
vn -0.554169 -0.081331 0.828421
vn -0.520880 -0.178432 0.834773
vn 0.000003 -0.016851 0.999858
vn 0.000001 -0.035695 0.999363
vn -0.481424 -0.247306 0.840875
vn -0.468753 -0.161132 0.868509
vn -0.292403 -0.132272 0.947103
vn 0.000002 -0.016729 0.999860
vn 0.000003 -0.020571 0.999788
vn -0.274240 -0.160410 0.948188
vn -0.427615 -0.139979 0.893057
vn -0.455917 -0.118738 0.882066
vn -0.467738 -0.165455 0.868243
vn -0.466230 -0.219292 0.857053
vn -0.427615 -0.139979 0.893057
vn -0.427517 -0.153554 0.890871
vn -0.480762 -0.324824 0.814468
vn -0.439408 -0.163160 0.883346
vn -0.468162 -0.297311 0.832124
vn -0.265512 -0.128552 0.955499
vn -0.298443 -0.218377 0.929109
vn -0.339685 -0.340422 0.876771
vn -0.539966 -0.472320 0.696671
vn 0.000001 -0.095098 0.995468
vn 0.000002 -0.214238 0.976782
vn 0.000001 -0.098118 0.995175
vn -0.530935 -0.417486 0.737437
vn -0.265569 -0.164450 0.949963
vn 0.000001 -0.098118 0.995175
vn 0.000002 -0.023279 0.999729
vn 0.000003 -0.020571 0.999788
vn -0.592867 -0.551850 0.586490
vn -0.530935 -0.417486 0.737437
vn -0.603809 -0.635079 0.481756
vn -0.553173 -0.458948 0.695246
vn -0.492402 -0.348043 0.797751
vn 0.274243 -0.160410 0.948187
vn 0.000002 -0.023279 0.999729
vn 0.265573 -0.164450 0.949962
vn 0.265514 -0.128553 0.955498
vn 0.427519 -0.153554 0.890870
vn 0.439408 -0.163159 0.883346
vn 0.480760 -0.324823 0.814469
vn 0.466231 -0.219292 0.857053
vn 0.468163 -0.297312 0.832123
vn 0.298444 -0.218377 0.929108
vn 0.339688 -0.340423 0.876769
vn 0.539967 -0.472320 0.696670
vn 0.000001 -0.095098 0.995468
vn 0.000002 -0.214238 0.976782
vn 0.530935 -0.417486 0.737437
vn 0.427618 -0.139980 0.893056
vn 0.467739 -0.165455 0.868242
vn 0.481424 -0.247306 0.840875
vn 0.520881 -0.178432 0.834773
vn 0.554169 -0.081331 0.828422
vn 0.503320 -0.113830 0.856570
vn 0.641353 0.032833 0.766543
vn 0.459337 -0.184673 0.868853
vn 0.374741 -0.186372 0.908204
vn 0.000003 -0.016851 0.999858
vn 0.000001 -0.035695 0.999363
vn 0.468754 -0.161133 0.868508
vn 0.292407 -0.132273 0.947102
vn 0.000002 -0.016729 0.999860
vn 0.455920 -0.118739 0.882065
vn 0.427618 -0.139980 0.893056
vn -0.455917 -0.118738 0.882066
vn -0.467738 -0.165455 0.868243
vn 0.492402 -0.348044 0.797750
vn 0.530935 -0.417486 0.737437
vn 0.553173 -0.458948 0.695245
vn 0.603811 -0.635080 0.481753
vn 0.592869 -0.551851 0.586488
vn 0.455920 -0.118739 0.882065
vn 0.467739 -0.165455 0.868242
usemtl material
f 1/0/1 2/0/2 3/0/3
f 1/0/1 3/0/3 4/0/4
f 5/0/5 1/0/1 4/0/4
f 5/0/5 6/0/6 1/0/1
f 3/0/3 2/0/2 7/0/7
f 3/0/3 7/0/7 8/0/8
f 9/0/9 6/0/6 5/0/5
f 9/0/9 5/0/5 10/0/10
f 11/0/11 7/0/7 2/0/2
f 11/0/11 12/0/12 7/0/7
f 13/0/13 12/0/12 11/0/11
f 13/0/13 11/0/11 14/0/14
f 15/0/15 14/0/14 11/0/11
f 15/0/15 11/0/11 16/0/16
f 16/0/16 11/0/11 2/0/2
f 16/0/16 2/0/2 1/0/1
f 6/0/6 16/0/16 1/0/1
f 9/0/9 17/0/17 6/0/6
f 6/0/6 17/0/17 16/0/16
f 9/0/9 18/0/18 17/0/17
f 19/0/19 17/0/17 18/0/18
f 19/0/19 18/0/18 20/0/20
f 21/0/21 20/0/20 18/0/18
f 21/0/21 18/0/18 9/0/9
f 21/0/21 22/0/22 20/0/20
f 21/0/21 23/0/23 22/0/22
f 23/0/23 24/0/24 22/0/22
f 24/0/24 20/0/20 22/0/22
f 23/0/23 25/0/25 24/0/24
f 26/0/26 25/0/25 23/0/23
f 26/0/26 23/0/23 27/0/27
f 26/0/26 28/0/28 25/0/25
f 26/0/26 29/0/29 28/0/28
f 30/0/30 24/0/24 25/0/25
f 30/0/30 25/0/25 28/0/28
f 21/0/21 31/0/31 23/0/23
f 24/0/24 32/0/32 20/0/20
f 33/0/33 32/0/32 24/0/24
f 33/0/33 34/0/34 32/0/32
f 14/0/14 32/0/32 34/0/34
f 14/0/14 34/0/34 35/0/35
f 15/0/15 32/0/32 14/0/14
f 15/0/15 20/0/20 32/0/32
f 36/0/36 27/0/27 23/0/23
f 36/0/36 23/0/23 37/0/37
f 38/0/38 36/0/36 37/0/37
f 38/0/38 37/0/37 39/0/39
f 40/0/40 39/0/39 37/0/37
f 40/0/40 37/0/37 21/0/21
f 21/0/21 9/0/9 40/0/40
f 41/0/41 35/0/35 42/0/42
f 41/0/41 42/0/42 43/0/43
f 30/0/30 43/0/43 34/0/34
f 30/0/30 44/0/44 43/0/43
f 44/0/44 45/0/45 43/0/43
f 44/0/44 46/0/46 45/0/45
f 47/0/47 45/0/45 46/0/46
f 47/0/47 48/0/48 45/0/45
f 49/0/49 46/0/46 44/0/44
f 47/0/47 46/0/46 49/0/49
f 49/0/49 44/0/44 50/0/50
f 51/0/51 49/0/49 50/0/50
f 51/0/51 52/0/52 49/0/49
f 51/0/51 50/0/50 53/0/53
f 51/0/51 53/0/53 54/0/54
f 33/0/33 53/0/53 50/0/50
f 33/0/33 50/0/50 44/0/44
f 47/0/47 49/0/49 55/0/55
f 56/0/56 45/0/45 48/0/48
f 56/0/56 48/0/48 57/0/57
f 58/0/58 57/0/57 48/0/48
f 47/0/47 58/0/58 48/0/48
f 58/0/58 59/0/59 57/0/57
f 58/0/58 60/0/60 59/0/59
f 60/0/60 61/0/61 59/0/59
f 60/0/60 62/0/62 61/0/61
f 61/0/61 62/0/62 63/0/63
f 61/0/61 63/0/63 64/0/64
f 63/0/63 65/0/65 64/0/64
f 63/0/63 66/0/66 65/0/65
f 58/0/58 67/0/67 60/0/60
f 68/0/68 64/0/64 65/0/65
f 68/0/68 65/0/65 69/0/69
f 70/0/70 61/0/61 64/0/64
f 70/0/70 64/0/64 68/0/68
f 59/0/59 61/0/61 70/0/70
f 59/0/59 70/0/70 57/0/57
f 71/0/71 70/0/70 68/0/68
f 71/0/71 68/0/68 41/0/41
f 35/0/35 41/0/41 68/0/68
f 35/0/35 68/0/68 12/0/12
f 71/0/71 41/0/41 43/0/43
f 71/0/71 43/0/43 45/0/45
f 72/0/72 73/0/73 19/0/19
f 74/0/74 47/0/47 75/0/75
f 74/0/74 75/0/75 76/0/76
f 47/0/47 74/0/74 58/0/58
f 77/0/77 76/0/76 75/0/75
f 77/0/77 75/0/75 78/0/78
f 78/0/78 75/0/75 49/0/49
f 78/0/78 49/0/49 52/0/52
f 79/0/79 56/0/56 80/0/80
