# 
# Wavefront OBJ file
# Created with Kaydara FBX
# 
mtllib mouth #221453.mtl

g Mouth
v -0.016473 1.472105 0.108078
v -0.006607 1.471418 0.112560
v -0.007281 1.479254 0.116097
v -0.018915 1.479376 0.105970
v -0.011660 1.482548 0.112616
v -0.000000 1.471124 0.114487
v -0.000000 1.477705 0.117881
v -0.024697 1.468129 0.101582
v -0.029471 1.475602 0.099675
v -0.014337 1.464362 0.107093
v -0.017119 1.461356 0.104194
v -0.007843 1.458919 0.106941
v -0.007307 1.464325 0.109917
v -0.000000 1.458304 0.108376
v -0.000000 1.464342 0.111644
v -0.000000 1.453101 0.105861
v -0.007953 1.454027 0.104013
v -0.006428 1.445992 0.098734
v -0.000000 1.445505 0.099908
v -0.005582 1.435651 0.093936
v -0.000000 1.434742 0.095532
v -0.030685 1.463439 0.095650
v -0.038517 1.471586 0.092997
v -0.043752 1.467765 0.085035
v -0.033397 1.459052 0.090040
v -0.014424 1.447727 0.097174
v -0.015038 1.440592 0.088155
v -0.022675 1.452062 0.094355
v -0.025564 1.446551 0.082831
v -0.020501 1.457444 0.100027
v 0.016473 1.472105 0.108078
v 0.007281 1.479254 0.116097
v 0.006607 1.471418 0.112560
v 0.018915 1.479376 0.105970
v 0.011660 1.482548 0.112616
v -0.000000 1.471124 0.114487
v -0.000000 1.477705 0.117881
v -0.000000 1.464342 0.111644
v 0.007307 1.464325 0.109917
v -0.000000 1.458304 0.108376
v 0.007843 1.458919 0.106941
v -0.000000 1.453101 0.105861
v 0.007953 1.454027 0.104013
v 0.014337 1.464362 0.107093
v 0.006428 1.445992 0.098734
v 0.014424 1.447727 0.097174
v -0.000000 1.445505 0.099908
v 0.005582 1.435651 0.093936
v -0.000000 1.434742 0.095532
v 0.017119 1.461356 0.104194
v 0.024697 1.468129 0.101582
v 0.029471 1.475602 0.099675
v 0.015038 1.440592 0.088155
v 0.022675 1.452062 0.094355
v 0.030685 1.463439 0.095650
v 0.038517 1.471586 0.092997
v 0.020501 1.457444 0.100027
v 0.033397 1.459052 0.090040
v 0.043752 1.467765 0.085035
v 0.025564 1.446551 0.082831
vt 0.776934 0.664586
vt 0.611379 0.657554
vt 0.622681 0.772498
vt 0.817911 0.782984
vt 0.714347 0.839821
vt 0.500503 0.654728
vt 0.500503 0.751190
vt 0.914947 0.596600
vt 0.926530 0.716463
vt 0.741096 0.538049
vt 0.787775 0.488348
vt 0.632121 0.449734
vt 0.623117 0.539294
vt 0.500503 0.440238
vt 0.500503 0.540820
vt 0.500503 0.336074
vt 0.633963 0.354088
vt 0.632921 0.242137
vt 0.500503 0.233175
vt 0.630002 0.112168
vt 0.500503 0.075485
vt 0.920375 0.536542
vt 0.950855 0.665420
vt 0.975377 0.616265
vt 0.980452 0.480184
vt 0.769643 0.286792
vt 0.785705 0.184189
vt 0.892763 0.365195
vt 0.927551 0.285485
vt 0.828663 0.432672
vt 0.224071 0.664586
vt 0.378324 0.772498
vt 0.389627 0.657554
vt 0.183095 0.782984
vt 0.286659 0.839821
vt 0.500503 0.654728
vt 0.500503 0.751190
vt 0.500503 0.540820
vt 0.377888 0.539294
vt 0.500503 0.440238
vt 0.368885 0.449734
vt 0.500503 0.336074
vt 0.367042 0.354088
vt 0.259909 0.538049
vt 0.368085 0.242137
vt 0.231363 0.286792
vt 0.500503 0.233175
vt 0.371004 0.112168
vt 0.500503 0.075485
vt 0.213231 0.488348
vt 0.086058 0.596600
vt 0.074476 0.716463
vt 0.215301 0.184189
vt 0.108242 0.365195
vt 0.080631 0.536542
vt 0.050150 0.665420
vt 0.172343 0.432672
vt 0.020553 0.480184
vt 0.025628 0.616265
vt 0.073455 0.285485
vn -0.533244 -0.161833 0.830338
vn -0.379475 -0.294238 0.877168
vn -0.548723 -0.445644 0.707322
vn -0.575918 0.005302 0.817490
vn -0.775410 -0.040954 0.630128
vn 0.000000 -0.315914 0.948788
vn 0.000000 -0.677331 0.735678
vn -0.505837 -0.221636 0.833670
vn -0.578792 -0.107456 0.808364
vn -0.387859 -0.331813 0.859922
vn -0.378968 -0.389043 0.839660
vn -0.318747 -0.507275 0.800670
vn -0.361646 -0.340376 0.867961
vn 0.000000 -0.552533 0.833491
vn 0.000000 -0.349991 0.936753
vn 0.000000 -0.535908 0.844277
vn -0.308129 -0.507778 0.804499
vn -0.340969 -0.516092 0.785741
vn 0.000000 -0.496812 0.867858
vn -0.443408 -0.646183 0.621158
vn 0.000000 -0.664513 0.747276
vn -0.525515 -0.225118 0.820460
vn -0.621403 -0.263707 0.737779
vn -0.727471 -0.485469 0.484878
vn -0.449820 -0.356651 0.818818
vn -0.412785 -0.553857 0.723084
vn -0.574903 -0.537399 0.617000
vn -0.452641 -0.412198 0.790702
vn -0.588583 -0.687436 0.425443
vn -0.400575 -0.458648 0.793210
vn 0.533244 -0.161833 0.830338
vn 0.548723 -0.445644 0.707322
vn 0.379475 -0.294238 0.877168
vn 0.575918 0.005302 0.817490
vn 0.735523 0.039930 0.676322
vn 0.000000 -0.315914 0.948788
vn 0.000000 -0.677331 0.735678
vn 0.000000 -0.349991 0.936753
vn 0.361646 -0.340376 0.867961
vn 0.000000 -0.552533 0.833491
vn 0.318747 -0.507275 0.800670
vn 0.000000 -0.535908 0.844277
vn 0.308129 -0.507778 0.804499
vn 0.387149 -0.300600 0.871639
vn 0.340969 -0.516092 0.785741
vn 0.412869 -0.558019 0.719830
vn 0.000000 -0.496812 0.867858
vn 0.443408 -0.646183 0.621158
vn 0.000000 -0.664513 0.747276
vn 0.386811 -0.387483 0.836800
vn 0.430774 -0.273396 0.860051
vn 0.545468 -0.138962 0.826531
vn 0.610446 -0.649107 0.453890
vn 0.369028 -0.610899 0.700444
vn 0.570323 -0.317733 0.757481
vn 0.620028 -0.267943 0.737409
vn 0.400575 -0.458648 0.793210
vn 0.568305 -0.535712 0.624533
vn 0.727471 -0.485468 0.484878
vn 0.614846 -0.711316 0.340579
usemtl material
f 1/0/1 2/0/2 3/0/3
f 4/0/4 1/0/1 3/0/3
f 4/0/4 3/0/3 5/0/5
f 3/0/3 2/0/2 6/0/6
f 3/0/3 6/0/6 7/0/7
f 8/0/8 1/0/1 4/0/4
f 8/0/8 4/0/4 9/0/9
f 10/0/10 1/0/1 8/0/8
f 10/0/10 2/0/2 1/0/1
f 10/0/10 8/0/8 11/0/11
f 10/0/10 11/0/11 12/0/12
f 10/0/10 12/0/12 13/0/13
f 10/0/10 13/0/13 2/0/2
f 13/0/13 12/0/12 14/0/14
f 13/0/13 14/0/14 15/0/15
f 15/0/15 6/0/6 2/0/2
f 15/0/15 2/0/2 13/0/13
f 12/0/12 16/0/16 14/0/14
f 12/0/12 17/0/17 16/0/16
f 11/0/11 17/0/17 12/0/12
f 16/0/16 17/0/17 18/0/18
f 16/0/16 18/0/18 19/0/19
f 20/0/20 19/0/19 18/0/18
f 20/0/20 21/0/21 19/0/19
f 22/0/22 8/0/8 9/0/9
f 22/0/22 9/0/9 23/0/23
f 22/0/22 23/0/23 24/0/24
f 24/0/24 25/0/25 22/0/22
f 26/0/26 18/0/18 17/0/17
f 20/0/20 18/0/18 26/0/26
f 26/0/26 27/0/27 20/0/20
f 22/0/22 25/0/25 28/0/28
f 27/0/27 26/0/26 28/0/28
f 29/0/29 28/0/28 25/0/25
f 28/0/28 29/0/29 27/0/27
f 22/0/22 28/0/28 30/0/30
f 26/0/26 17/0/17 30/0/30
f 30/0/30 28/0/28 26/0/26
f 30/0/30 8/0/8 22/0/22
f 30/0/30 11/0/11 8/0/8
f 11/0/11 30/0/30 17/0/17
f 31/0/31 32/0/32 33/0/33
f 34/0/34 32/0/32 31/0/31
f 34/0/34 35/0/35 32/0/32
f 32/0/32 36/0/36 33/0/33
f 32/0/32 37/0/37 36/0/36
f 38/0/38 33/0/33 36/0/36
f 38/0/38 39/0/39 33/0/33
f 39/0/39 38/0/38 40/0/40
f 39/0/39 40/0/40 41/0/41
f 41/0/41 40/0/40 42/0/42
f 41/0/41 42/0/42 43/0/43
f 44/0/44 31/0/31 33/0/33
f 44/0/44 33/0/33 39/0/39
f 44/0/44 39/0/39 41/0/41
f 42/0/42 45/0/45 43/0/43
f 46/0/46 43/0/43 45/0/45
f 42/0/42 47/0/47 45/0/45
f 46/0/46 45/0/45 48/0/48
f 48/0/48 45/0/45 47/0/47
f 48/0/48 47/0/47 49/0/49
f 44/0/44 41/0/41 50/0/50
f 50/0/50 41/0/41 43/0/43
f 50/0/50 31/0/31 44/0/44
f 50/0/50 51/0/51 31/0/31
f 51/0/51 34/0/34 31/0/31
f 51/0/51 52/0/52 34/0/34
f 48/0/48 53/0/53 46/0/46
f 54/0/54 46/0/46 53/0/53
f 55/0/55 52/0/52 51/0/51
f 55/0/55 56/0/56 52/0/52
f 50/0/50 43/0/43 57/0/57
f 46/0/46 54/0/54 57/0/57
f 57/0/57 55/0/55 51/0/51
f 57/0/57 51/0/51 50/0/50
f 55/0/55 57/0/57 54/0/54
f 55/0/55 54/0/54 58/0/58
f 55/0/55 58/0/58 59/0/59
f 59/0/59 56/0/56 55/0/55
f 58/0/58 54/0/54 60/0/60
f 53/0/53 60/0/60 54/0/54
f 57/0/57 43/0/43 46/0/46
