# 
# Wavefront OBJ file
# Created with Kaydara FBX
# 
mtllib mouth #2213609.mtl

g Mouth
v -0.012079 1.322048 0.129870
v -0.005455 1.322818 0.133495
v -0.005715 1.329951 0.135596
v -0.011422 1.333287 0.132984
v -0.021167 1.328601 0.124196
v -0.018733 1.320060 0.124161
v 0.000005 1.322913 0.135480
v 0.000005 1.328068 0.137965
v -0.024195 1.317289 0.120107
v -0.028893 1.325037 0.119823
v -0.005444 1.318220 0.132927
v 0.000005 1.318083 0.134487
v 0.000005 1.314173 0.129679
v -0.005438 1.314395 0.128552
v 0.000005 1.307318 0.126565
v -0.005467 1.307860 0.125406
v 0.000005 1.303195 0.122916
v -0.005451 1.303951 0.121682
v -0.012025 1.314311 0.125489
v -0.012053 1.316787 0.128243
v -0.005441 1.298944 0.118052
v -0.012995 1.300238 0.115443
v -0.005671 1.292341 0.114336
v -0.013680 1.294867 0.110699
v 0.000005 1.298175 0.120024
v 0.000005 1.291474 0.116285
v -0.012552 1.305566 0.119425
v -0.020913 1.308815 0.117214
v -0.012205 1.309736 0.123584
v -0.019331 1.312956 0.120798
v -0.022293 1.303285 0.112718
v -0.028662 1.313589 0.115964
v -0.033109 1.309467 0.110056
v -0.017207 1.314209 0.122946
v -0.035790 1.306328 0.104421
v -0.023769 1.299241 0.107876
v 0.012089 1.322048 0.129870
v 0.011432 1.333287 0.132984
v 0.005725 1.329951 0.135596
v 0.005465 1.322818 0.133495
v 0.021177 1.328601 0.124196
v 0.018744 1.320060 0.124161
v 0.024205 1.317289 0.120107
v 0.028903 1.325037 0.119823
v 0.005455 1.318220 0.132927
v 0.005449 1.314395 0.128552
v 0.005478 1.307860 0.125406
v 0.005462 1.303951 0.121682
v 0.012035 1.314311 0.125489
v 0.012064 1.316787 0.128243
v 0.005451 1.298944 0.118052
v 0.013006 1.300238 0.115443
v 0.005682 1.292341 0.114336
v 0.013690 1.294867 0.110699
v 0.012563 1.305566 0.119425
v 0.020924 1.308815 0.117214
v 0.012216 1.309736 0.123584
v 0.019342 1.312956 0.120798
v 0.022303 1.303285 0.112718
v 0.028672 1.313589 0.115964
v 0.033119 1.309467 0.110056
v 0.017217 1.314209 0.122946
v 0.035800 1.306328 0.104421
v 0.023779 1.299241 0.107876
vt 0.688945 0.605830
vt 0.591448 0.615918
vt 0.592294 0.720865
vt 0.678471 0.770390
vt 0.827100 0.701711
vt 0.790142 0.576510
vt 0.502974 0.618327
vt 0.502974 0.693888
vt 0.873329 0.540113
vt 0.944379 0.651377
vt 0.589860 0.543693
vt 0.502974 0.542337
vt 0.502974 0.492505
vt 0.582895 0.495305
vt 0.502974 0.389746
vt 0.588958 0.397014
vt 0.502974 0.329315
vt 0.586317 0.336956
vt 0.691971 0.499177
vt 0.692548 0.524066
vt 0.593137 0.251416
vt 0.716959 0.291217
vt 0.607298 0.159546
vt 0.744835 0.208527
vt 0.502974 0.222187
vt 0.502974 0.123120
vt 0.696116 0.375096
vt 0.823506 0.424944
vt 0.691278 0.425300
vt 0.796648 0.476281
vt 0.868750 0.370938
vt 0.941260 0.495211
vt 0.960075 0.459186
vt 0.767150 0.482943
vt 0.969636 0.400276
vt 0.905020 0.295295
vt 0.316243 0.606200
vt 0.327044 0.770739
vt 0.413122 0.721043
vt 0.413760 0.616094
vt 0.178279 0.702354
vt 0.214988 0.577081
vt 0.131729 0.540848
vt 0.060900 0.652253
vt 0.415205 0.543866
vt 0.422073 0.495465
vt 0.415816 0.397186
vt 0.418337 0.337122
vt 0.313620 0.499537
vt 0.312478 0.524443
vt 0.411349 0.251596
vt 0.287606 0.291643
vt 0.397005 0.159754
vt 0.259566 0.209009
vt 0.308615 0.375480
vt 0.181323 0.425581
vt 0.313552 0.425674
vt 0.208283 0.476865
vt 0.135972 0.371665
vt 0.063710 0.496081
vt 0.044808 0.460221
vt 0.237794 0.483468
vt 0.035145 0.401425
vt 0.099553 0.296093
vn -0.565087 -0.203274 0.799598
vn -0.436812 -0.232786 0.868911
vn -0.451768 -0.259901 0.853439
vn -0.554186 -0.201231 0.807703
vn -0.558073 -0.182590 0.809454
vn -0.551717 -0.216938 0.805324
vn 0.000000 -0.285500 0.958379
vn 0.000000 -0.357480 0.933921
vn -0.459608 -0.301088 0.835528
vn -0.462579 -0.189265 0.866141
vn -0.353999 -0.455032 0.817087
vn 0.000001 -0.506206 0.862412
vn 0.000000 -0.599635 0.800274
vn -0.271192 -0.567022 0.777779
vn 0.000001 -0.534348 0.845265
vn -0.301289 -0.525120 0.795911
vn 0.000001 -0.610918 0.791694
vn -0.326381 -0.589282 0.739069
vn -0.361214 -0.509376 0.781064
vn -0.486902 -0.428938 0.760880
vn -0.371179 -0.504235 0.779727
vn -0.406174 -0.541789 0.735858
vn -0.396957 -0.481225 0.781568
vn -0.425144 -0.554695 0.715238
vn -0.000001 -0.511991 0.858991
vn -0.000001 -0.483854 0.875149
vn -0.395737 -0.557098 0.730091
vn -0.436518 -0.507818 0.742680
vn -0.406346 -0.508372 0.759237
vn -0.455917 -0.450585 0.767537
vn -0.452579 -0.562603 0.691846
vn -0.450535 -0.490968 0.745633
vn -0.492492 -0.567587 0.659770
vn -0.503043 -0.347365 0.791382
vn -0.512916 -0.599433 0.614490
vn -0.476468 -0.599248 0.643335
vn 0.565087 -0.203273 0.799598
vn 0.554186 -0.201231 0.807703
vn 0.451768 -0.259901 0.853438
vn 0.436813 -0.232785 0.868911
vn 0.558074 -0.182590 0.809453
vn 0.551717 -0.216937 0.805324
vn 0.459607 -0.301087 0.835528
vn 0.462581 -0.189266 0.866140
vn 0.353999 -0.455034 0.817086
vn 0.271193 -0.567025 0.777777
vn 0.301293 -0.525122 0.795908
vn 0.326383 -0.589283 0.739067
vn 0.361218 -0.509383 0.781057
vn 0.486901 -0.428938 0.760881
vn 0.371179 -0.504234 0.779727
vn 0.406172 -0.541788 0.735861
vn 0.396956 -0.481223 0.781569
vn 0.425140 -0.554690 0.715245
vn 0.395737 -0.557097 0.730093
vn 0.436517 -0.507817 0.742681
vn 0.406348 -0.508371 0.759237
vn 0.455914 -0.450581 0.767541
vn 0.452579 -0.562603 0.691845
vn 0.450535 -0.490968 0.745633
vn 0.492497 -0.567591 0.659763
vn 0.503043 -0.347365 0.791382
vn 0.512923 -0.599440 0.614477
vn 0.476470 -0.599249 0.643333
usemtl material
f 1/0/1 2/0/2 3/0/3
f 1/0/1 3/0/3 4/0/4
f 5/0/5 1/0/1 4/0/4
f 5/0/5 6/0/6 1/0/1
f 3/0/3 2/0/2 7/0/7
f 3/0/3 7/0/7 8/0/8
f 9/0/9 6/0/6 5/0/5
f 9/0/9 5/0/5 10/0/10
f 11/0/11 7/0/7 2/0/2
f 11/0/11 12/0/12 7/0/7
f 13/0/13 12/0/12 11/0/11
f 13/0/13 11/0/11 14/0/14
f 14/0/14 15/0/15 13/0/13
f 14/0/14 16/0/16 15/0/15
f 17/0/17 15/0/15 16/0/16
f 17/0/17 16/0/16 18/0/18
f 19/0/19 14/0/14 11/0/11
f 19/0/19 16/0/16 14/0/14
f 19/0/19 11/0/11 20/0/20
f 17/0/17 18/0/18 21/0/21
f 22/0/22 21/0/21 18/0/18
f 23/0/23 21/0/21 22/0/22
f 23/0/23 22/0/22 24/0/24
f 23/0/23 25/0/25 21/0/21
f 17/0/17 21/0/21 25/0/25
f 23/0/23 26/0/26 25/0/25
f 22/0/22 18/0/18 27/0/27
f 28/0/28 22/0/22 27/0/27
f 28/0/28 27/0/27 29/0/29
f 18/0/18 16/0/16 29/0/29
f 18/0/18 29/0/29 27/0/27
f 19/0/19 29/0/29 16/0/16
f 28/0/28 29/0/29 30/0/30
f 19/0/19 30/0/30 29/0/29
f 28/0/28 31/0/31 22/0/22
f 32/0/32 31/0/31 28/0/28
f 32/0/32 33/0/33 31/0/31
f 19/0/19 34/0/34 30/0/30
f 20/0/20 34/0/34 19/0/19
f 9/0/9 30/0/30 34/0/34
f 28/0/28 30/0/30 9/0/9
f 28/0/28 9/0/9 32/0/32
f 9/0/9 34/0/34 6/0/6
f 6/0/6 34/0/34 20/0/20
f 6/0/6 20/0/20 1/0/1
f 20/0/20 2/0/2 1/0/1
f 20/0/20 11/0/11 2/0/2
f 35/0/35 31/0/31 33/0/33
f 35/0/35 36/0/36 31/0/31
f 36/0/36 22/0/22 31/0/31
f 36/0/36 24/0/24 22/0/22
f 37/0/37 38/0/38 39/0/39
f 37/0/37 39/0/39 40/0/40
f 41/0/41 38/0/38 37/0/37
f 41/0/41 37/0/37 42/0/42
f 39/0/39 7/0/7 40/0/40
f 39/0/39 8/0/8 7/0/7
f 43/0/43 41/0/41 42/0/42
f 43/0/43 44/0/44 41/0/41
f 45/0/45 40/0/40 7/0/7
f 45/0/45 7/0/7 12/0/12
f 13/0/13 45/0/45 12/0/12
f 13/0/13 46/0/46 45/0/45
f 46/0/46 13/0/13 15/0/15
f 46/0/46 15/0/15 47/0/47
f 17/0/17 47/0/47 15/0/15
f 17/0/17 48/0/48 47/0/47
f 49/0/49 45/0/45 46/0/46
f 49/0/49 46/0/46 47/0/47
f 49/0/49 50/0/50 45/0/45
f 17/0/17 51/0/51 48/0/48
f 52/0/52 48/0/48 51/0/51
f 53/0/53 52/0/52 51/0/51
f 53/0/53 54/0/54 52/0/52
f 53/0/53 51/0/51 25/0/25
f 17/0/17 25/0/25 51/0/51
f 53/0/53 25/0/25 26/0/26
f 52/0/52 55/0/55 48/0/48
f 56/0/56 55/0/55 52/0/52
f 56/0/56 57/0/57 55/0/55
f 48/0/48 55/0/55 57/0/57
f 48/0/48 57/0/57 47/0/47
f 49/0/49 47/0/47 57/0/57
f 56/0/56 58/0/58 57/0/57
f 49/0/49 57/0/57 58/0/58
f 56/0/56 52/0/52 59/0/59
f 60/0/60 56/0/56 59/0/59
f 60/0/60 59/0/59 61/0/61
f 49/0/49 58/0/58 62/0/62
f 50/0/50 49/0/49 62/0/62
f 43/0/43 62/0/62 58/0/58
f 56/0/56 60/0/60 43/0/43
f 56/0/56 43/0/43 58/0/58
f 43/0/43 42/0/42 62/0/62
f 42/0/42 50/0/50 62/0/62
f 42/0/42 37/0/37 50/0/50
f 50/0/50 37/0/37 40/0/40
f 50/0/50 40/0/40 45/0/45
f 63/0/63 61/0/61 59/0/59
f 63/0/63 59/0/59 64/0/64
f 64/0/64 59/0/59 52/0/52
f 64/0/64 52/0/52 54/0/54
