# 
# Wavefront OBJ file
# Created with Kaydara FBX
# 
mtllib mouth #221485.mtl

g Mouth
v 0.000000 1.558044 0.102774
v -0.005575 1.559669 0.100542
v 0.000000 1.553825 0.099947
v -0.006235 1.553696 0.097689
v 0.005575 1.559669 0.100542
v 0.006235 1.553696 0.097689
v 0.015545 1.553156 0.093140
v 0.000000 1.547099 0.098355
v 0.006895 1.547045 0.095716
v 0.000000 1.542779 0.093581
v 0.007402 1.543011 0.091502
v 0.000000 1.537524 0.091042
v 0.007383 1.538305 0.089233
v 0.000000 1.529619 0.084989
v -0.007383 1.538305 0.089233
v -0.006707 1.530101 0.083689
v -0.005532 1.516457 0.076315
v -0.013241 1.521960 0.072890
v -0.013616 1.531494 0.079728
v -0.023941 1.530022 0.068894
v -0.022111 1.535487 0.077610
v -0.032872 1.541814 0.074205
v -0.035012 1.537522 0.065101
v 0.000000 1.514406 0.078346
v -0.028948 1.545510 0.080488
v -0.018421 1.540912 0.084866
v 0.005532 1.516457 0.076315
v 0.006707 1.530101 0.083689
v 0.013241 1.521960 0.072890
v 0.013616 1.531494 0.079728
v 0.023941 1.530022 0.068894
v 0.022111 1.535487 0.077610
v 0.032872 1.541814 0.074205
v 0.035012 1.537522 0.065101
v 0.028948 1.545510 0.080488
v 0.018421 1.540912 0.084866
v 0.023306 1.549269 0.086163
v 0.016155 1.544237 0.088086
v 0.013530 1.546503 0.091823
v -0.015545 1.553156 0.093140
v -0.006895 1.547045 0.095716
v -0.007402 1.543011 0.091502
v -0.013530 1.546503 0.091823
v -0.023306 1.549269 0.086163
v -0.016155 1.544237 0.088086
vt 0.500328 0.644758
vt 0.576528 0.667373
vt 0.500328 0.596721
vt 0.587720 0.595018
vt 0.424127 0.667373
vt 0.412935 0.595018
vt 0.287517 0.591428
vt 0.500117 0.525105
vt 0.404604 0.523572
vt 0.500328 0.462441
vt 0.401101 0.466862
vt 0.499960 0.389268
vt 0.400468 0.401945
vt 0.500328 0.294938
vt 0.602021 0.401535
vt 0.597943 0.305945
vt 0.593790 0.141176
vt 0.694972 0.193061
vt 0.681376 0.319782
vt 0.852391 0.280277
vt 0.806821 0.385195
vt 0.937123 0.452223
vt 1.002456 0.367171
vt 0.500328 0.128245
vt 0.888724 0.502423
vt 0.757813 0.449744
vt 0.406865 0.141176
vt 0.402770 0.305982
vt 0.305683 0.193061
vt 0.323194 0.320059
vt 0.148264 0.280277
vt 0.193392 0.381658
vt 0.061764 0.451781
vt -0.001801 0.367172
vt 0.111931 0.502423
vt 0.242842 0.449744
vt 0.187182 0.553065
vt 0.282258 0.484253
vt 0.322049 0.515773
vt 0.713139 0.591428
vt 0.595993 0.523764
vt 0.599554 0.466862
vt 0.676320 0.515373
vt 0.813473 0.553065
vt 0.721835 0.484253
vn 0.000000 -0.556702 0.830712
vn -0.373957 -0.396382 0.838473
vn 0.000000 -0.349035 0.937110
vn -0.374031 -0.297170 0.878516
vn 0.373957 -0.396382 0.838473
vn 0.374033 -0.297170 0.878515
vn 0.481224 -0.301814 0.823002
vn 0.000000 -0.478643 0.878010
vn 0.358077 -0.437469 0.824864
vn 0.000000 -0.604705 0.796450
vn 0.309571 -0.542604 0.780863
vn 0.000000 -0.546355 0.837554
vn 0.353770 -0.527880 0.772133
vn -0.000001 -0.520156 0.854071
vn -0.353771 -0.527880 0.772133
vn -0.385082 -0.506337 0.771580
vn -0.492497 -0.408844 0.768306
vn -0.589844 -0.459598 0.663968
vn -0.500742 -0.555101 0.664169
vn -0.567323 -0.614508 0.548201
vn -0.503591 -0.626329 0.595069
vn -0.566319 -0.623895 0.538552
vn -0.601218 -0.658929 0.452051
vn 0.000000 -0.400197 0.916429
vn -0.516627 -0.510488 0.687385
vn -0.463074 -0.528227 0.711716
vn 0.492498 -0.408844 0.768304
vn 0.385083 -0.506337 0.771579
vn 0.589845 -0.459598 0.663967
vn 0.500743 -0.555102 0.664168
vn 0.567323 -0.614509 0.548199
vn 0.503592 -0.626331 0.595067
vn 0.566319 -0.623895 0.538552
vn 0.601218 -0.658929 0.452051
vn 0.516627 -0.510488 0.687385
vn 0.463074 -0.528227 0.711716
vn 0.510568 -0.397243 0.762573
vn 0.461104 -0.481362 0.745436
vn 0.467368 -0.449903 0.761022
vn -0.481227 -0.301815 0.823000
vn -0.358076 -0.437470 0.824864
vn -0.309571 -0.542605 0.780862
vn -0.467370 -0.449905 0.761019
vn -0.510569 -0.397242 0.762573
vn -0.461102 -0.481360 0.745438
usemtl material
f 1/0/1 2/0/2 3/0/3
f 2/0/2 4/0/4 3/0/3
f 5/0/5 1/0/1 3/0/3
f 6/0/6 5/0/5 3/0/3
f 7/0/7 5/0/5 6/0/6
f 3/0/3 8/0/8 6/0/6
f 8/0/8 3/0/3 4/0/4
f 8/0/8 9/0/9 6/0/6
f 7/0/7 6/0/6 9/0/9
f 9/0/9 8/0/8 10/0/10
f 11/0/11 9/0/9 10/0/10
f 11/0/11 10/0/10 12/0/12
f 13/0/13 11/0/11 12/0/12
f 12/0/12 14/0/14 13/0/13
f 12/0/12 15/0/15 14/0/14
f 15/0/15 16/0/16 14/0/14
f 16/0/16 17/0/17 14/0/14
f 17/0/17 16/0/16 18/0/18
f 16/0/16 19/0/19 18/0/18
f 19/0/19 16/0/16 15/0/15
f 18/0/18 19/0/19 20/0/20
f 19/0/19 21/0/21 20/0/20
f 21/0/21 22/0/22 20/0/20
f 22/0/22 23/0/23 20/0/20
f 17/0/17 24/0/24 14/0/14
f 25/0/25 22/0/22 21/0/21
f 26/0/26 25/0/25 21/0/21
f 15/0/15 26/0/26 19/0/19
f 26/0/26 21/0/21 19/0/19
f 24/0/24 27/0/27 14/0/14
f 27/0/27 28/0/28 14/0/14
f 14/0/14 28/0/28 13/0/13
f 27/0/27 29/0/29 28/0/28
f 29/0/29 30/0/30 28/0/28
f 29/0/29 31/0/31 30/0/30
f 31/0/31 32/0/32 30/0/30
f 33/0/33 32/0/32 31/0/31
f 34/0/34 33/0/33 31/0/31
f 30/0/30 13/0/13 28/0/28
f 33/0/33 35/0/35 32/0/32
f 35/0/35 36/0/36 32/0/32
f 32/0/32 36/0/36 30/0/30
f 36/0/36 13/0/13 30/0/30
f 36/0/36 35/0/35 37/0/37
f 38/0/38 36/0/36 37/0/37
f 36/0/36 38/0/38 13/0/13
f 39/0/39 38/0/38 37/0/37
f 38/0/38 39/0/39 11/0/11
f 38/0/38 11/0/11 13/0/13
f 39/0/39 9/0/9 11/0/11
f 39/0/39 7/0/7 9/0/9
f 37/0/37 7/0/7 39/0/39
f 40/0/40 4/0/4 2/0/2
f 41/0/41 4/0/4 40/0/40
f 41/0/41 8/0/8 4/0/4
f 8/0/8 41/0/41 10/0/10
f 41/0/41 42/0/42 10/0/10
f 41/0/41 43/0/43 42/0/42
f 43/0/43 41/0/41 40/0/40
f 43/0/43 40/0/40 44/0/44
f 43/0/43 45/0/45 42/0/42
f 44/0/44 45/0/45 43/0/43
f 26/0/26 45/0/45 44/0/44
f 25/0/25 26/0/26 44/0/44
f 10/0/10 42/0/42 12/0/12
f 42/0/42 15/0/15 12/0/12
f 42/0/42 45/0/45 15/0/15
f 45/0/45 26/0/26 15/0/15
