# 
# Wavefront OBJ file
# Created with Kaydara FBX
# 
mtllib nurbstopoly1.mtl

g nurbsToPoly1
v 0.138329 0.319483 0.403096
v 0.145075 0.557806 0.424441
v -0.098489 0.573891 0.472732
v -0.092415 0.335568 0.448967
v 0.315699 0.303397 0.263214
v 0.332410 0.541720 0.276848
v 0.397754 0.287312 0.060902
v 0.419175 0.525635 0.063222
v 0.366709 0.271227 -0.149409
v 0.386489 0.509550 -0.158988
v 0.236790 0.255141 -0.310516
v 0.249275 0.493464 -0.329330
v 0.048249 0.239056 -0.381481
v 0.049994 0.477379 -0.404470
v -0.144904 0.222971 -0.347909
v -0.154294 0.461294 -0.369090
v -0.290295 0.206885 -0.224457
v -0.308179 0.445208 -0.238593
v -0.351312 0.190800 -0.049312
v -0.372863 0.429123 -0.053297
v -0.316196 0.174715 0.127465
v -0.335806 0.413038 0.133848
v -0.199856 0.158629 0.258185
v -0.212698 0.396952 0.272337
v -0.038325 0.142544 0.310352
v -0.041624 0.380867 0.327692
v 0.122247 0.126459 0.274618
v 0.128550 0.364782 0.289917
v 0.238713 0.110373 0.165972
v 0.252077 0.348696 0.174807
v 0.282481 0.094288 0.018217
v 0.298580 0.332611 0.018132
v 0.246397 0.078203 -0.126362
v 0.260387 0.316526 -0.135283
v 0.145363 0.062117 -0.229015
v 0.153221 0.300440 -0.244305
v 0.010889 0.046032 -0.264841
v 0.010465 0.284355 -0.282442
v -0.118554 0.029947 -0.228667
v -0.127051 0.268270 -0.244121
v -0.208457 0.013861 -0.135152
v -0.222649 0.252184 -0.144833
v -0.237402 -0.002224 -0.013459
v -0.253512 0.236099 -0.015510
v -0.201991 -0.018309 0.101694
v -0.215948 0.220014 0.106955
v -0.116493 -0.034395 0.179882
v -0.125061 0.203929 0.190184
v -0.007680 -0.050480 0.202961
v -0.009283 0.187843 0.214815
v 0.093414 -0.066565 0.169106
v 0.098367 0.171758 0.178835
v 0.160289 -0.082651 0.092063
v 0.169647 0.155673 0.096813
v 0.177868 -0.098736 -0.003824
v 0.188443 0.139587 -0.005361
v 0.145704 -0.114821 -0.091129
v 0.154212 0.123502 -0.098470
v 0.076893 -0.130907 -0.147111
v 0.080857 0.107417 -0.158242
v -0.006674 -0.146992 -0.159556
v -0.008310 0.091331 -0.171599
v -0.081094 -0.163077 -0.129209
v -0.087788 0.075246 -0.139274
v -0.127220 -0.179163 -0.068396
v -0.137110 0.059161 -0.074376
v -0.135498 -0.195248 0.003455
v -0.146025 0.043075 0.002378
v -0.107685 -0.211333 0.065879
v -0.116355 0.026990 0.069121
v -0.055230 -0.227419 0.103151
v -0.060297 0.010905 0.109017
v 0.004910 -0.243504 0.108179
v 0.004040 -0.005181 0.114438
v 0.055608 -0.259589 0.083557
v 0.058326 -0.021266 0.088112
v 0.084393 -0.275675 0.039762
v 0.089185 -0.037351 0.041218
v 0.086435 -0.291760 -0.008720
v 0.091407 -0.053437 -0.010746
v 0.065004 -0.307845 -0.047994
v 0.068454 -0.069522 -0.052886
v 0.029511 -0.323931 -0.068670
v 0.030389 -0.085607 -0.075109
v -0.008010 -0.340016 -0.067990
v -0.009893 -0.101693 -0.074426
v -0.036791 -0.356101 -0.049738
v -0.040827 -0.117778 -0.054866
v -0.047803 -0.384882 0.005067
v -0.052731 -0.163713 0.003998
v -0.013930 -0.428643 0.031649
v -0.016335 -0.243615 0.032600
v 0.013042 -0.454613 0.017836
v 0.012701 -0.334958 0.017721
v 0.010042 -0.416801 -0.002160
vt 0.980392 0.157946
vt 0.980392 0.768202
vt 1.000000 0.768202
vt 1.000000 0.157946
vt 0.960784 0.157946
vt 0.960784 0.768202
vt 0.941176 0.157946
vt 0.941176 0.768202
vt 0.921569 0.157946
vt 0.921569 0.768202
vt 0.901961 0.157946
vt 0.901961 0.768202
vt 0.882353 0.157946
vt 0.882353 0.768202
vt 0.862745 0.157946
vt 0.862745 0.768202
vt 0.843137 0.157946
vt 0.843137 0.768202
vt 0.823529 0.157946
vt 0.823529 0.768202
vt 0.803922 0.157946
vt 0.803922 0.768202
vt 0.784314 0.157946
vt 0.784314 0.768202
vt 0.764706 0.157946
vt 0.764706 0.768202
vt 0.745098 0.157946
vt 0.745098 0.768202
vt 0.725490 0.157946
vt 0.725490 0.768202
vt 0.705882 0.157946
vt 0.705882 0.768202
vt 0.686275 0.157946
vt 0.686275 0.768202
vt 0.666667 0.157946
vt 0.666667 0.768202
vt 0.647059 0.157946
vt 0.647059 0.768202
vt 0.627451 0.157946
vt 0.627451 0.768202
vt 0.607843 0.157946
vt 0.607843 0.768202
vt 0.588235 0.157946
vt 0.588235 0.768202
vt 0.568627 0.157946
vt 0.568627 0.768202
vt 0.549020 0.157946
vt 0.549020 0.768202
vt 0.529412 0.157946
vt 0.529412 0.768202
vt 0.509804 0.157946
vt 0.509804 0.768202
vt 0.490196 0.157946
vt 0.490196 0.768202
vt 0.470588 0.157946
vt 0.470588 0.768202
vt 0.450980 0.157946
vt 0.450980 0.768202
vt 0.431373 0.157946
vt 0.431373 0.768202
vt 0.411765 0.157946
vt 0.411765 0.768202
vt 0.392157 0.157946
vt 0.392157 0.768202
vt 0.372549 0.157946
vt 0.372549 0.768202
vt 0.352941 0.157946
vt 0.352941 0.768202
vt 0.333333 0.157946
vt 0.333333 0.768202
vt 0.313726 0.157946
vt 0.313726 0.768202
vt 0.294118 0.157946
vt 0.294118 0.768202
vt 0.274510 0.157946
vt 0.274510 0.768202
vt 0.254902 0.157946
vt 0.254902 0.768202
vt 0.235294 0.157946
vt 0.235294 0.768202
vt 0.215686 0.157946
vt 0.215686 0.768202
vt 0.196078 0.157946
vt 0.196078 0.768202
vt 0.176471 0.157946
vt 0.176471 0.768202
vt 0.156863 0.157946
vt 0.156863 0.768202
vt 0.117647 0.157946
vt 0.117647 0.768202
vt 0.078431 0.157946
vt 0.078431 0.768202
vt 0.039216 0.157946
vt 0.039216 0.768202
vt 0.000000 0.463074
vn 0.417794 -0.092769 0.903793
vn 0.395842 -0.093017 0.913596
vn 0.187826 -0.092804 0.977808
vn 0.187826 -0.092804 0.977808
vn 0.797367 -0.090048 0.596739
vn 0.782319 -0.090106 0.616327
vn 0.989126 -0.090039 0.116283
vn 0.985959 -0.089985 0.140667
vn 0.911447 -0.091771 -0.401051
vn 0.921019 -0.091656 -0.378581
vn 0.581912 -0.094258 -0.807771
vn 0.602033 -0.094131 -0.792903
vn 0.091324 -0.096279 -0.991156
vn 0.117578 -0.096197 -0.988393
vn -0.424649 -0.096740 -0.900175
vn -0.398805 -0.096756 -0.911917
vn -0.823125 -0.094977 -0.559861
vn -0.805492 -0.095131 -0.584921
vn -0.993771 -0.090942 -0.064407
vn -0.991088 -0.091236 -0.097065
vn -0.889429 -0.085215 0.449059
vn -0.904375 -0.085605 0.418064
vn -0.539071 -0.078844 0.838562
vn -0.568455 -0.079250 0.818888
vn -0.039587 -0.073055 0.996542
vn -0.075144 -0.073388 0.994469
vn 0.471100 -0.068912 0.879384
vn 0.439620 -0.069108 0.895521
vn 0.851980 -0.067028 0.519266
vn 0.833248 -0.067066 0.548817
vn 0.997608 -0.067391 0.015371
vn 0.996468 -0.067294 0.050220
vn 0.867196 -0.069368 -0.493111
vn 0.884140 -0.069193 -0.462071
vn 0.496289 -0.071875 -0.865177
vn 0.527768 -0.071697 -0.846357
vn -0.012568 -0.073678 -0.997203
vn 0.026222 -0.073580 -0.996944
vn -0.518088 -0.073734 -0.852143
vn -0.482185 -0.073793 -0.872956
vn -0.879689 -0.071486 -0.470146
vn -0.857852 -0.071747 -0.508864
vn -0.996842 -0.067016 0.042611
vn -0.997710 -0.067471 -0.004636
vn -0.837091 -0.061026 0.543649
vn -0.863031 -0.061601 0.501382
vn -0.444899 -0.054636 0.893913
vn -0.490212 -0.055216 0.869852
vn 0.070923 -0.049079 0.996274
vn 0.018535 -0.049539 0.998600
vn 0.567394 -0.045358 0.822196
vn 0.522774 -0.045609 0.851250
vn 0.906670 -0.043966 0.419544
vn 0.882628 -0.043981 0.468011
vn 0.993948 -0.044756 -0.100316
vn 0.997990 -0.044570 -0.045043
vn 0.803993 -0.046968 -0.592781
vn 0.836800 -0.046674 -0.545515
vn 0.388923 -0.049442 -0.919943
vn 0.444015 -0.049167 -0.894669
vn -0.135557 -0.050936 -0.989459
vn -0.071293 -0.050821 -0.996160
vn -0.622313 -0.050476 -0.781139
vn -0.566633 -0.050642 -0.822413
vn -0.934368 -0.047638 -0.353112
vn -0.905481 -0.048146 -0.421647
vn -0.983742 -0.042666 0.174447
vn -0.994460 -0.043482 0.095698
vn -0.756286 -0.036402 0.653227
vn -0.808677 -0.037396 0.587063
vn -0.315577 -0.030054 0.948424
vn -0.398771 -0.031028 0.916525
vn 0.214826 -0.024857 0.976336
vn 0.122388 -0.025602 0.992152
vn 0.685479 -0.021727 0.727768
vn 0.610279 -0.022088 0.791878
vn 0.962270 -0.021009 0.271284
vn 0.928622 -0.020931 0.370436
vn 0.964108 -0.022366 -0.264567
vn 0.987652 -0.021918 -0.155121
vn 0.687198 -0.024856 -0.726044
vn 0.769873 -0.024230 -0.637737
vn 0.208565 -0.027190 -0.977630
vn 0.335596 -0.026671 -0.941628
vn -0.333739 -0.028091 -0.942247
vn -0.193627 -0.028005 -0.980675
vn -0.915658 -0.024774 -0.401193
vn -0.773130 -0.027076 -0.633670
vn -0.898852 -0.018094 0.437879
vn -0.996024 -0.021915 -0.086345
vn 0.042958 -0.003886 0.999069
vn -0.582563 -0.010723 0.812715
vn 0.570723 0.001973 0.821140
vn 0.477067 0.001740 0.878865
vn 0.989659 0.002680 -0.143414
usemtl material
f 1/0/1 2/0/2 3/0/3
f 1/0/1 3/0/3 4/0/4
f 5/0/5 2/0/2 1/0/1
f 5/0/5 6/0/6 2/0/2
f 7/0/7 6/0/6 5/0/5
f 7/0/7 8/0/8 6/0/6
f 9/0/9 8/0/8 7/0/7
f 9/0/9 10/0/10 8/0/8
f 11/0/11 10/0/10 9/0/9
f 11/0/11 12/0/12 10/0/10
f 13/0/13 12/0/12 11/0/11
f 13/0/13 14/0/14 12/0/12
f 15/0/15 14/0/14 13/0/13
f 15/0/15 16/0/16 14/0/14
f 17/0/17 16/0/16 15/0/15
f 17/0/17 18/0/18 16/0/16
f 19/0/19 18/0/18 17/0/17
f 19/0/19 20/0/20 18/0/18
f 21/0/21 20/0/20 19/0/19
f 21/0/21 22/0/22 20/0/20
f 23/0/23 22/0/22 21/0/21
f 23/0/23 24/0/24 22/0/22
f 25/0/25 24/0/24 23/0/23
f 25/0/25 26/0/26 24/0/24
f 27/0/27 26/0/26 25/0/25
f 27/0/27 28/0/28 26/0/26
f 29/0/29 28/0/28 27/0/27
f 29/0/29 30/0/30 28/0/28
f 31/0/31 30/0/30 29/0/29
f 31/0/31 32/0/32 30/0/30
f 33/0/33 32/0/32 31/0/31
f 33/0/33 34/0/34 32/0/32
f 35/0/35 34/0/34 33/0/33
f 35/0/35 36/0/36 34/0/34
f 37/0/37 36/0/36 35/0/35
f 37/0/37 38/0/38 36/0/36
f 39/0/39 38/0/38 37/0/37
f 39/0/39 40/0/40 38/0/38
f 41/0/41 40/0/40 39/0/39
f 41/0/41 42/0/42 40/0/40
f 43/0/43 42/0/42 41/0/41
f 43/0/43 44/0/44 42/0/42
f 45/0/45 44/0/44 43/0/43
f 45/0/45 46/0/46 44/0/44
f 47/0/47 46/0/46 45/0/45
f 47/0/47 48/0/48 46/0/46
f 49/0/49 48/0/48 47/0/47
f 49/0/49 50/0/50 48/0/48
f 51/0/51 50/0/50 49/0/49
f 51/0/51 52/0/52 50/0/50
f 53/0/53 52/0/52 51/0/51
f 53/0/53 54/0/54 52/0/52
f 55/0/55 54/0/54 53/0/53
f 55/0/55 56/0/56 54/0/54
f 57/0/57 56/0/56 55/0/55
f 57/0/57 58/0/58 56/0/56
f 59/0/59 58/0/58 57/0/57
f 59/0/59 60/0/60 58/0/58
f 61/0/61 60/0/60 59/0/59
f 61/0/61 62/0/62 60/0/60
f 63/0/63 62/0/62 61/0/61
f 63/0/63 64/0/64 62/0/62
f 65/0/65 64/0/64 63/0/63
f 65/0/65 66/0/66 64/0/64
f 67/0/67 66/0/66 65/0/65
f 67/0/67 68/0/68 66/0/66
f 69/0/69 68/0/68 67/0/67
f 69/0/69 70/0/70 68/0/68
f 71/0/71 70/0/70 69/0/69
f 71/0/71 72/0/72 70/0/70
f 73/0/73 72/0/72 71/0/71
f 73/0/73 74/0/74 72/0/72
f 75/0/75 74/0/74 73/0/73
f 75/0/75 76/0/76 74/0/74
f 77/0/77 76/0/76 75/0/75
f 77/0/77 78/0/78 76/0/76
f 79/0/79 78/0/78 77/0/77
f 79/0/79 80/0/80 78/0/78
f 81/0/81 80/0/80 79/0/79
f 81/0/81 82/0/82 80/0/80
f 83/0/83 82/0/82 81/0/81
f 83/0/83 84/0/84 82/0/82
f 85/0/85 84/0/84 83/0/83
f 85/0/85 86/0/86 84/0/84
f 87/0/87 86/0/86 85/0/85
f 87/0/87 88/0/88 86/0/86
f 88/0/88 87/0/87 89/0/89
f 88/0/88 89/0/89 90/0/90
f 91/0/91 90/0/90 89/0/89
f 91/0/91 92/0/92 90/0/90
f 92/0/92 91/0/91 93/0/93
f 92/0/92 93/0/93 94/0/94
f 94/0/94 93/0/93 95/0/95
