# 
# Wavefront OBJ file
# Created with Kaydara FBX
# 
mtllib object010 #220825.mtl

g Object010
v 0.013364 0.062540 0.005336
v -0.013364 0.062540 0.005336
v -0.013364 0.062148 0.021544
v 0.013364 0.062148 0.021544
v 0.013364 0.064174 0.040318
v -0.013364 0.064174 0.040318
v -0.013364 0.066634 -0.011246
v 0.013364 0.066634 -0.011245
v -0.013364 0.076962 -0.023555
v 0.013364 0.076962 -0.023555
v -0.013364 0.080853 -0.034607
v 0.013364 0.080853 -0.034607
v -0.013364 0.080891 -0.040249
v 0.013364 0.080891 -0.040249
v 0.013364 -0.001736 -0.016056
v 0.013364 0.015163 -0.008845
v 0.013364 0.015596 0.010361
v 0.013364 -0.002988 0.007839
v 0.013364 0.032534 0.017119
v 0.013364 0.032848 -0.007578
v 0.013364 0.062148 0.021544
v 0.013364 0.062540 0.005336
v 0.013364 0.040163 0.037712
v 0.013364 0.064174 0.040318
v 0.013364 0.066634 -0.011245
v 0.013364 0.048769 -0.019068
v 0.013364 0.076962 -0.023555
v 0.013364 0.061953 -0.031584
v 0.013364 0.080853 -0.034607
v 0.013364 0.072632 -0.037966
v 0.013364 0.080891 -0.040249
v 0.013364 0.075851 -0.042149
v 0.013364 -0.002988 0.007839
v 0.013364 0.015596 0.010361
v -0.013364 0.015596 0.010361
v -0.013364 -0.002987 0.007839
v -0.013364 0.032534 0.017119
v 0.013364 0.032534 0.017119
v -0.013364 -0.002987 0.007839
v -0.013364 0.015596 0.010361
v -0.013364 0.015163 -0.008845
v -0.013364 -0.001736 -0.016056
v -0.013364 0.032848 -0.007578
v -0.013364 0.032534 0.017119
v -0.013364 0.062540 0.005336
v -0.013364 0.062148 0.021544
v -0.013364 0.064174 0.040318
v -0.013364 0.040163 0.037712
v -0.013364 0.048769 -0.019068
v -0.013364 0.066634 -0.011246
v -0.013364 0.061953 -0.031584
v -0.013364 0.076962 -0.023555
v -0.013364 0.072632 -0.037966
v -0.013364 0.080853 -0.034607
v -0.013364 0.075852 -0.042149
v -0.013364 0.080891 -0.040249
v -0.013364 -0.001736 -0.016056
v -0.013364 0.015163 -0.008845
v 0.013364 0.015163 -0.008845
v 0.013364 -0.001736 -0.016056
v 0.013364 0.032848 -0.007578
v -0.013364 0.032848 -0.007578
v 0.013364 0.048769 -0.019068
v -0.013364 0.048769 -0.019068
v 0.013364 0.061953 -0.031584
v -0.013364 0.061953 -0.031584
v 0.013364 0.072632 -0.037966
v -0.013364 0.072632 -0.037966
v 0.013364 0.075851 -0.042149
v -0.013364 0.075852 -0.042149
v 0.013364 0.040163 0.037712
v 0.013364 0.064174 0.040318
v -0.013364 0.064174 0.040318
v -0.013364 0.040163 0.037712
v -0.013364 0.075852 -0.042149
v -0.013364 0.080891 -0.040249
v 0.013364 0.080891 -0.040249
v 0.013364 0.075851 -0.042149
v 0.013364 0.032534 0.017119
v 0.013364 0.040163 0.037712
v -0.013364 0.040163 0.037712
v -0.013364 0.032534 0.017119
vt 0.583574 0.490281
vt 0.583657 0.459582
vt 0.565228 0.459582
vt 0.565299 0.490281
vt 0.544099 0.490282
vt 0.544136 0.459582
vt 0.603132 0.459582
vt 0.603206 0.490281
vt 0.621854 0.459582
vt 0.621808 0.490281
vt 0.635562 0.459582
vt 0.635555 0.490281
vt 0.642066 0.459582
vt 0.642108 0.490281
vt 0.228281 0.051478
vt 0.216201 0.079786
vt 0.184029 0.080511
vt 0.188254 0.049382
vt 0.172709 0.108884
vt 0.214079 0.109411
vt 0.165297 0.158491
vt 0.192446 0.159148
vt 0.138213 0.121664
vt 0.133848 0.161885
vt 0.220222 0.166005
vt 0.233327 0.136080
vt 0.240842 0.183306
vt 0.254291 0.158165
vt 0.259356 0.189824
vt 0.264982 0.176053
vt 0.268806 0.189887
vt 0.271989 0.181446
vt 0.450863 0.490283
vt 0.471961 0.490286
vt 0.471971 0.459587
vt 0.450867 0.459583
vt 0.492519 0.459590
vt 0.492518 0.490290
vt 0.188254 0.049382
vt 0.184029 0.080512
vt 0.216201 0.079786
vt 0.228281 0.051478
vt 0.214079 0.109411
vt 0.172709 0.108884
vt 0.192446 0.159148
vt 0.165297 0.158491
vt 0.133848 0.161885
vt 0.138213 0.121664
vt 0.233327 0.136080
vt 0.220222 0.166005
vt 0.254291 0.158165
vt 0.240842 0.183306
vt 0.264982 0.176053
vt 0.259356 0.189824
vt 0.271989 0.181446
vt 0.268806 0.189887
vt 0.753025 0.459582
vt 0.732064 0.459582
vt 0.732069 0.490281
vt 0.753023 0.490281
vt 0.711832 0.490281
vt 0.711839 0.459582
vt 0.689540 0.490281
vt 0.689538 0.459582
vt 0.668834 0.490281
vt 0.668822 0.459582
vt 0.654513 0.490281
vt 0.654540 0.459582
vt 0.648356 0.490281
vt 0.648361 0.459582
vt 0.517161 0.490289
vt 0.544099 0.490282
vt 0.544136 0.459582
vt 0.517145 0.459590
vt 0.648361 0.459582
vt 0.642066 0.459582
vt 0.642108 0.490281
vt 0.648356 0.490281
vt 0.492518 0.490290
vt 0.517161 0.490289
vt 0.517145 0.459590
vt 0.492519 0.459590
vn 0.000001 0.991154 0.132718
vn 0.000001 0.991154 0.132718
vn 0.000001 0.999133 -0.041637
vn 0.000001 0.999133 -0.041638
vn 0.000001 0.994227 -0.107296
vn 0.000001 0.994227 -0.107296
vn 0.000000 0.891538 0.452945
vn 0.000000 0.891538 0.452945
vn 0.000000 0.868655 0.495417
vn 0.000000 0.868655 0.495417
vn 0.000001 0.985144 0.171730
vn 0.000001 0.985144 0.171730
vn 0.000001 0.999978 0.006655
vn 0.000001 0.999978 0.006655
vn 1.000000 -0.000001 0.000001
vn 1.000000 -0.000001 0.000000
vn 1.000000 -0.000001 0.000000
vn 1.000000 -0.000001 0.000001
vn 1.000000 0.000000 0.000000
vn 1.000000 -0.000000 0.000000
vn 1.000000 0.000000 0.000000
vn 1.000000 -0.000000 0.000000
vn 1.000000 0.000000 0.000000
vn 1.000000 0.000000 0.000000
vn 1.000000 -0.000001 0.000000
vn 1.000000 -0.000001 0.000000
vn 1.000000 -0.000001 0.000000
vn 1.000000 -0.000001 0.000000
vn 1.000000 0.000000 0.000000
vn 1.000000 0.000000 0.000000
vn 1.000000 0.000000 0.000000
vn 1.000000 0.000000 0.000000
vn 0.000000 -0.134486 0.990916
vn -0.000000 -0.254430 0.967091
vn -0.000000 -0.254430 0.967091
vn 0.000000 -0.134486 0.990916
vn -0.000000 -0.370569 0.928805
vn -0.000000 -0.370569 0.928805
vn -1.000000 0.000001 -0.000001
vn -1.000000 0.000001 -0.000000
vn -1.000000 0.000001 -0.000000
vn -1.000000 0.000001 -0.000001
vn -1.000000 0.000000 -0.000001
vn -1.000000 0.000000 0.000000
vn -1.000000 0.000000 -0.000001
vn -1.000000 0.000000 0.000000
vn -1.000000 0.000000 0.000000
vn -1.000000 0.000000 0.000000
vn -1.000000 0.000001 -0.000001
vn -1.000000 0.000000 -0.000001
vn -1.000000 0.000000 0.000000
vn -1.000000 0.000000 0.000000
vn -1.000000 0.000000 0.000000
vn -1.000000 0.000000 0.000000
vn -1.000000 0.000000 0.000000
vn -1.000000 0.000000 0.000000
vn 0.000001 0.392477 -0.919762
vn 0.000001 0.235184 -0.971951
vn 0.000001 0.235184 -0.971951
vn 0.000001 0.392477 -0.919762
vn 0.000000 -0.273305 -0.961927
vn 0.000000 -0.273306 -0.961927
vn -0.000000 -0.638280 -0.769805
vn -0.000000 -0.638280 -0.769805
vn -0.000000 -0.604410 -0.796673
vn -0.000000 -0.604410 -0.796673
vn -0.000000 -0.664458 -0.747325
vn -0.000000 -0.664458 -0.747325
vn -0.000001 -0.792478 -0.609900
vn -0.000001 -0.792478 -0.609900
vn 0.000000 -0.107880 0.994164
vn 0.000000 -0.107880 0.994164
vn 0.000000 -0.107880 0.994164
vn 0.000000 -0.107880 0.994164
vn 0.000000 0.352881 -0.935668
vn 0.000000 0.352881 -0.935668
vn 0.000000 0.352881 -0.935668
vn 0.000000 0.352881 -0.935668
vn -0.000001 -0.937723 0.347383
vn -0.000001 -0.937723 0.347383
vn -0.000001 -0.937723 0.347383
vn -0.000001 -0.937723 0.347383
usemtl material
f 1/0/1 2/0/2 3/0/3
f 1/0/1 3/0/3 4/0/4
f 3/0/3 5/0/5 4/0/4
f 3/0/3 6/0/6 5/0/5
f 1/0/1 7/0/7 2/0/2
f 1/0/1 8/0/8 7/0/7
f 8/0/8 9/0/9 7/0/7
f 8/0/8 10/0/10 9/0/9
f 10/0/10 11/0/11 9/0/9
f 10/0/10 12/0/12 11/0/11
f 12/0/12 13/0/13 11/0/11
f 12/0/12 14/0/14 13/0/13
f 15/0/15 16/0/16 17/0/17
f 15/0/15 17/0/17 18/0/18
f 16/0/16 19/0/19 17/0/17
f 16/0/16 20/0/20 19/0/19
f 20/0/20 21/0/21 19/0/19
f 20/0/20 22/0/22 21/0/21
f 21/0/21 23/0/23 19/0/19
f 21/0/21 24/0/24 23/0/23
f 20/0/20 25/0/25 22/0/22
f 20/0/20 26/0/26 25/0/25
f 26/0/26 27/0/27 25/0/25
f 26/0/26 28/0/28 27/0/27
f 28/0/28 29/0/29 27/0/27
f 28/0/28 30/0/30 29/0/29
f 30/0/30 31/0/31 29/0/29
f 30/0/30 32/0/32 31/0/31
f 33/0/33 34/0/34 35/0/35
f 33/0/33 35/0/35 36/0/36
f 34/0/34 37/0/37 35/0/35
f 34/0/34 38/0/38 37/0/37
f 39/0/39 40/0/40 41/0/41
f 39/0/39 41/0/41 42/0/42
f 40/0/40 43/0/43 41/0/41
f 40/0/40 44/0/44 43/0/43
f 44/0/44 45/0/45 43/0/43
f 44/0/44 46/0/46 45/0/45
f 44/0/44 47/0/47 46/0/46
f 44/0/44 48/0/48 47/0/47
f 45/0/45 49/0/49 43/0/43
f 45/0/45 50/0/50 49/0/49
f 50/0/50 51/0/51 49/0/49
f 50/0/50 52/0/52 51/0/51
f 52/0/52 53/0/53 51/0/51
f 52/0/52 54/0/54 53/0/53
f 54/0/54 55/0/55 53/0/53
f 54/0/54 56/0/56 55/0/55
f 57/0/57 58/0/58 59/0/59
f 57/0/57 59/0/59 60/0/60
f 58/0/58 61/0/61 59/0/59
f 58/0/58 62/0/62 61/0/61
f 62/0/62 63/0/63 61/0/61
f 62/0/62 64/0/64 63/0/63
f 64/0/64 65/0/65 63/0/63
f 64/0/64 66/0/66 65/0/65
f 66/0/66 67/0/67 65/0/65
f 66/0/66 68/0/68 67/0/67
f 68/0/68 69/0/69 67/0/67
f 68/0/68 70/0/70 69/0/69
f 71/0/71 72/0/72 73/0/73
f 71/0/71 73/0/73 74/0/74
f 75/0/75 76/0/76 77/0/77
f 75/0/75 77/0/77 78/0/78
f 79/0/79 80/0/80 81/0/81
f 79/0/79 81/0/81 82/0/82
