# 
# Wavefront OBJ file
# Created with Kaydara FBX
# 
mtllib object003.mtl

g Object003
v 0.017728 -0.028270 0.206809
v 0.017728 -0.028270 0.113716
v 0.005226 -0.022440 0.103525
v -0.003725 -0.018252 0.206808
v -0.003725 -0.018252 -0.186943
v 0.005226 -0.022440 -0.152857
v 0.017728 -0.028270 -0.186950
v 0.017728 -0.028270 -0.160032
v -0.003725 0.029378 0.107229
v -0.003725 0.036684 0.118355
v -0.003725 0.036681 0.206808
v -0.003725 -0.018252 0.206808
v -0.003725 0.029380 -0.133404
v -0.003725 -0.018252 -0.186943
v -0.003725 0.029381 -0.173362
v -0.003725 0.036692 -0.141050
v -0.003725 0.036692 -0.168022
v -0.003725 0.029382 -0.198599
v -0.003725 0.013405 -0.206182
v 0.012001 -0.040552 0.206809
v -0.014891 -0.028012 0.206809
v -0.000501 -0.034722 0.103525
v 0.012001 -0.040552 0.113716
v -0.000501 -0.034722 -0.152857
v -0.014891 -0.028012 -0.185226
v 0.012001 -0.040552 -0.160032
v 0.012001 -0.040552 -0.185226
v -0.014891 0.027052 0.107230
v -0.014891 -0.028012 0.206809
v -0.014891 0.034343 0.206809
v -0.014891 0.034346 0.118355
v -0.014891 0.027060 -0.133404
v -0.014891 -0.028012 -0.185226
v -0.014891 0.027061 -0.173362
v -0.014891 0.034353 -0.141050
v -0.014891 0.034354 -0.168022
v -0.014891 0.011224 -0.206809
v -0.014891 0.027074 -0.198990
v 0.012001 -0.040552 0.206809
v 0.017728 -0.028270 0.206809
v -0.003725 -0.018252 0.206808
v -0.014891 -0.028012 0.206809
v -0.014891 -0.028012 -0.185226
v -0.003725 -0.018252 -0.186943
v 0.017728 -0.028270 -0.186950
v 0.012001 -0.040552 -0.185226
v -0.014891 -0.028012 0.206809
v -0.003725 -0.018252 0.206808
v -0.003725 0.036681 0.206808
v -0.014891 0.034343 0.206809
v -0.014891 0.034343 0.206809
v -0.003725 0.036681 0.206808
v -0.003725 0.036684 0.118355
v -0.014891 0.034346 0.118355
v -0.014891 0.034346 0.118355
v -0.003725 0.036684 0.118355
v -0.003725 0.029378 0.107229
v -0.014891 0.027052 0.107230
v -0.014891 0.027060 -0.133404
v -0.003725 0.029380 -0.133404
v -0.003725 0.036692 -0.141050
v -0.014891 0.034353 -0.141050
v -0.014891 0.034353 -0.141050
v -0.003725 0.036692 -0.141050
v -0.003725 0.036692 -0.168022
v -0.014891 0.034354 -0.168022
v -0.014891 0.034354 -0.168022
v -0.003725 0.036692 -0.168022
v -0.003725 0.029381 -0.173362
v -0.014891 0.027061 -0.173362
v -0.014891 0.027052 0.107230
v -0.003725 0.029378 0.107229
v -0.003725 0.029380 -0.133404
v -0.014891 0.027060 -0.133404
v -0.014891 0.027061 -0.173362
v -0.003725 0.029381 -0.173362
v -0.003725 0.029382 -0.198599
v -0.014891 0.027074 -0.198990
v -0.014891 0.027074 -0.198990
v -0.003725 0.029382 -0.198599
v -0.003725 0.013405 -0.206182
v -0.014891 0.011224 -0.206809
v -0.014891 0.011224 -0.206809
v -0.003725 0.013405 -0.206182
v -0.003725 -0.018252 -0.186943
v -0.014891 -0.028012 -0.185226
v -0.000501 -0.034722 0.103525
v -0.000501 -0.034722 -0.152857
v 0.005226 -0.022440 -0.152857
v 0.005226 -0.022440 0.103525
v 0.012001 -0.040552 -0.160032
v 0.012001 -0.040552 -0.185226
v 0.017728 -0.028270 -0.186950
v 0.017728 -0.028270 -0.160032
v -0.000501 -0.034722 -0.152857
v 0.012001 -0.040552 -0.160032
v 0.017728 -0.028270 -0.160032
v 0.005226 -0.022440 -0.152857
v 0.017728 -0.028270 0.113716
v 0.017728 -0.028270 0.206809
v 0.012001 -0.040552 0.206809
v 0.012001 -0.040552 0.113716
v 0.005226 -0.022440 0.103525
v 0.017728 -0.028270 0.113716
v 0.012001 -0.040552 0.113716
v -0.000501 -0.034722 0.103525
vt 0.684197 0.934951
vt 0.754850 0.934951
vt 0.762467 0.946219
vt 0.684198 0.954291
vt 0.982459 0.954291
vt 0.956616 0.946219
vt 0.983154 0.934950
vt 0.961970 0.934950
vt 0.759601 0.989555
vt 0.751171 0.994964
vt 0.684198 0.994962
vt 0.684198 0.954291
vt 0.941874 0.989556
vt 0.982459 0.954291
vt 0.971915 0.989557
vt 0.947642 0.994970
vt 0.967887 0.994970
vt 0.990731 0.989558
vt 0.996427 0.977729
vt 0.008726 0.856040
vt 0.008726 0.809438
vt 0.158836 0.834374
vt 0.144106 0.856040
vt 0.533552 0.834375
vt 0.580923 0.809438
vt 0.544213 0.856041
vt 0.582627 0.856040
vt 0.153281 0.731058
vt 0.008726 0.809438
vt 0.008726 0.720679
vt 0.137018 0.720675
vt 0.505043 0.731047
vt 0.580923 0.809438
vt 0.562859 0.731045
vt 0.516135 0.720665
vt 0.555113 0.720663
vt 0.610886 0.753588
vt 0.599600 0.731026
vt 0.874085 0.939106
vt 0.874305 0.929635
vt 0.891502 0.929635
vt 0.887468 0.939106
vt 0.855747 0.939106
vt 0.853089 0.929635
vt 0.870071 0.929635
vt 0.870266 0.939106
vt 0.887468 0.939106
vt 0.891502 0.929635
vt 0.933608 0.929632
vt 0.931622 0.939103
vt 0.682978 0.926614
vt 0.682978 0.917145
vt 0.749292 0.917145
vt 0.749414 0.926614
vt 0.749414 0.926614
vt 0.749292 0.917145
vt 0.759263 0.917145
vt 0.759314 0.926614
vt 0.939884 0.926615
vt 0.939939 0.917145
vt 0.947927 0.917145
vt 0.947650 0.926615
vt 0.947650 0.926615
vt 0.947927 0.917145
vt 0.967867 0.917145
vt 0.968190 0.926615
vt 0.968190 0.926615
vt 0.967867 0.917145
vt 0.974598 0.917145
vt 0.974941 0.926615
vt 0.759314 0.926614
vt 0.759263 0.917145
vt 0.939939 0.917145
vt 0.939884 0.926615
vt 0.974941 0.926615
vt 0.974598 0.917145
vt 0.993701 0.917145
vt 0.994024 0.926615
vt 0.811682 0.939103
vt 0.809805 0.929634
vt 0.824870 0.929634
vt 0.826473 0.939103
vt 0.826473 0.939103
vt 0.824870 0.929634
vt 0.853089 0.929635
vt 0.855747 0.939106
vt 0.891519 0.913164
vt 0.712356 0.913164
vt 0.712357 0.903693
vt 0.891519 0.903693
vt 0.701490 0.913164
vt 0.683885 0.913164
vt 0.682680 0.903693
vt 0.701490 0.903693
vt 0.712356 0.913164
vt 0.701490 0.913164
vt 0.701490 0.903693
vt 0.712357 0.903693
vt 0.903503 0.903693
vt 0.968558 0.903693
vt 0.968558 0.913164
vt 0.903503 0.913164
vt 0.891519 0.903693
vt 0.903503 0.903693
vt 0.903503 0.913164
vt 0.891519 0.913164
vn 0.422951 0.906153 -0.000049
vn 0.422951 0.906153 -0.000049
vn 0.422951 0.906153 -0.000049
vn 0.422951 0.906153 -0.000049
vn 0.423835 0.905739 0.000000
vn 0.423835 0.905739 0.000000
vn 0.422966 0.906145 0.000155
vn 0.422966 0.906145 0.000155
vn 1.000000 0.000000 0.000000
vn 1.000000 0.000000 0.000000
vn 1.000000 0.000000 0.000000
vn 1.000000 0.000000 0.000000
vn 1.000000 0.000002 -0.000000
vn 1.000000 0.000000 0.000000
vn 1.000000 0.000002 -0.000000
vn 1.000000 0.000002 -0.000000
vn 1.000000 0.000002 -0.000000
vn 1.000000 -0.000000 0.000000
vn 1.000000 -0.000000 0.000000
vn -0.422618 -0.906308 0.000000
vn -0.422618 -0.906308 0.000000
vn -0.422618 -0.906308 0.000000
vn -0.422618 -0.906308 0.000000
vn -0.422624 -0.906305 -0.000003
vn -0.422624 -0.906305 -0.000003
vn -0.422624 -0.906305 -0.000003
vn -0.422624 -0.906305 -0.000003
vn -1.000000 -0.000001 -0.000000
vn -1.000000 -0.000001 -0.000000
vn -1.000000 -0.000001 -0.000000
vn -1.000000 -0.000001 -0.000000
vn -1.000000 0.000000 -0.000001
vn -1.000000 -0.000000 0.000000
vn -1.000000 0.000000 -0.000001
vn -1.000000 0.000000 -0.000001
vn -1.000000 0.000000 -0.000001
vn -1.000000 -0.000000 0.000000
vn -1.000000 -0.000000 0.000000
vn 0.000000 0.000045 1.000000
vn 0.000000 0.000045 1.000000
vn 0.000000 0.000045 1.000000
vn 0.000000 0.000045 1.000000
vn -0.053326 -0.113962 -0.992053
vn -0.053326 -0.113962 -0.992053
vn -0.053326 -0.113962 -0.992053
vn -0.053326 -0.113962 -0.992053
vn 0.000077 -0.000003 1.000000
vn 0.000077 -0.000003 1.000000
vn 0.000077 -0.000003 1.000000
vn 0.000077 -0.000003 1.000000
vn -0.204956 0.978771 0.000029
vn -0.204956 0.978771 0.000029
vn -0.204956 0.978771 0.000029
vn -0.204956 0.978771 0.000029
vn -0.172080 0.823620 -0.540406
vn -0.172080 0.823620 -0.540406
vn -0.172080 0.823620 -0.540406
vn -0.172080 0.823620 -0.540406
vn -0.149180 0.715068 0.682952
vn -0.149180 0.715068 0.682952
vn -0.149180 0.715068 0.682952
vn -0.149180 0.715068 0.682952
vn -0.204964 0.978770 0.000029
vn -0.204964 0.978770 0.000029
vn -0.204964 0.978770 0.000029
vn -0.204964 0.978770 0.000029
vn -0.122180 0.585829 -0.801172
vn -0.122180 0.585829 -0.801172
vn -0.122180 0.585829 -0.801172
vn -0.122180 0.585829 -0.801172
vn -0.203741 0.979025 0.000020
vn -0.203741 0.979025 0.000020
vn -0.203741 0.979025 0.000020
vn -0.203741 0.979025 0.000020
vn -0.202923 0.979195 0.000281
vn -0.202923 0.979195 0.000281
vn -0.202923 0.979195 0.000281
vn -0.202923 0.979195 0.000281
vn -0.046476 0.435130 -0.899167
vn -0.046476 0.435130 -0.899167
vn -0.046476 0.435130 -0.899167
vn -0.046476 0.435130 -0.899167
vn 0.219073 -0.486891 -0.845544
vn 0.219073 -0.486891 -0.845544
vn 0.219073 -0.486891 -0.845544
vn 0.219073 -0.486891 -0.845544
vn 0.906308 -0.422618 0.000000
vn 0.906308 -0.422618 0.000000
vn 0.906308 -0.422618 0.000000
vn 0.906308 -0.422618 0.000000
vn 0.906308 -0.422618 0.000000
vn 0.906308 -0.422618 0.000000
vn 0.906308 -0.422618 0.000000
vn 0.906308 -0.422618 0.000000
vn 0.418187 -0.195004 0.887183
vn 0.418187 -0.195004 0.887183
vn 0.418187 -0.195004 0.887183
vn 0.418187 -0.195004 0.887183
vn 0.906308 -0.422618 0.000000
vn 0.906308 -0.422618 0.000000
vn 0.906308 -0.422618 0.000000
vn 0.906308 -0.422618 0.000000
vn 0.538510 -0.251111 -0.804332
vn 0.538510 -0.251111 -0.804332
vn 0.538510 -0.251111 -0.804332
vn 0.538510 -0.251111 -0.804332
usemtl material
f 1/0/1 2/0/2 3/0/3
f 1/0/1 3/0/3 4/0/4
f 3/0/3 5/0/5 4/0/4
f 3/0/3 6/0/6 5/0/5
f 6/0/6 7/0/7 5/0/5
f 6/0/6 8/0/8 7/0/7
f 9/0/9 10/0/10 11/0/11
f 9/0/9 11/0/11 12/0/12
f 12/0/12 13/0/13 9/0/9
f 12/0/12 14/0/14 13/0/13
f 14/0/14 15/0/15 13/0/13
f 15/0/15 16/0/16 13/0/13
f 15/0/15 17/0/17 16/0/16
f 14/0/14 18/0/18 15/0/15
f 14/0/14 19/0/19 18/0/18
f 20/0/20 21/0/21 22/0/22
f 20/0/20 22/0/22 23/0/23
f 21/0/21 24/0/24 22/0/22
f 21/0/21 25/0/25 24/0/24
f 25/0/25 26/0/26 24/0/24
f 25/0/25 27/0/27 26/0/26
f 28/0/28 29/0/29 30/0/30
f 28/0/28 30/0/30 31/0/31
f 29/0/29 28/0/28 32/0/32
f 29/0/29 32/0/32 33/0/33
f 32/0/32 34/0/34 33/0/33
f 34/0/34 32/0/32 35/0/35
f 34/0/34 35/0/35 36/0/36
f 34/0/34 37/0/37 33/0/33
f 34/0/34 38/0/38 37/0/37
f 39/0/39 40/0/40 41/0/41
f 39/0/39 41/0/41 42/0/42
f 43/0/43 44/0/44 45/0/45
f 43/0/43 45/0/45 46/0/46
f 47/0/47 48/0/48 49/0/49
f 47/0/47 49/0/49 50/0/50
f 51/0/51 52/0/52 53/0/53
f 51/0/51 53/0/53 54/0/54
f 55/0/55 56/0/56 57/0/57
f 55/0/55 57/0/57 58/0/58
f 59/0/59 60/0/60 61/0/61
f 59/0/59 61/0/61 62/0/62
f 63/0/63 64/0/64 65/0/65
f 63/0/63 65/0/65 66/0/66
f 67/0/67 68/0/68 69/0/69
f 67/0/67 69/0/69 70/0/70
f 71/0/71 72/0/72 73/0/73
f 71/0/71 73/0/73 74/0/74
f 75/0/75 76/0/76 77/0/77
f 75/0/75 77/0/77 78/0/78
f 79/0/79 80/0/80 81/0/81
f 79/0/79 81/0/81 82/0/82
f 83/0/83 84/0/84 85/0/85
f 83/0/83 85/0/85 86/0/86
f 87/0/87 88/0/88 89/0/89
f 87/0/87 89/0/89 90/0/90
f 91/0/91 92/0/92 93/0/93
f 91/0/91 93/0/93 94/0/94
f 95/0/95 96/0/96 97/0/97
f 95/0/95 97/0/97 98/0/98
f 99/0/99 100/0/100 101/0/101
f 99/0/99 101/0/101 102/0/102
f 103/0/103 104/0/104 105/0/105
f 103/0/103 105/0/105 106/0/106
