# 
# Wavefront OBJ file
# Created with Kaydara FBX
# 
mtllib object002 #220572.mtl

g Object002
v 0.498680 -0.004855 0.005151
v 0.498680 -0.004855 -0.005700
v -0.311982 -0.001823 -0.001411
v -0.311982 -0.001823 0.002477
v -0.311982 0.001823 -0.001411
v 0.498680 0.004855 -0.005700
v 0.498680 0.004855 0.005151
v -0.311982 0.001823 0.002477
v -0.284365 -0.004855 -0.004691
v -0.285064 -0.004855 0.005686
v -0.284365 0.004855 -0.004691
v -0.285064 0.004855 0.005686
v 0.449924 -0.000000 0.027897
v 0.449924 0.000000 -0.027917
v 0.476763 0.000000 -0.000030
v 0.310465 0.000000 0.000249
v 0.463541 0.000000 -0.021013
v 0.463541 -0.000000 0.020953
v 0.449924 -0.027897 -0.000000
v 0.449924 0.027917 0.000000
v 0.476763 0.000030 0.000000
v 0.310465 -0.000249 0.000000
v 0.463541 0.021014 0.000000
v 0.463541 -0.020953 -0.000000
v 0.498680 -0.004855 -0.005700
v 0.498680 -0.004855 0.005151
v -0.311982 0.001823 -0.001411
v -0.284365 0.004855 -0.004691
v -0.284365 -0.004855 -0.004691
v -0.311982 0.001823 0.002477
v -0.311982 0.001823 -0.001411
v -0.311982 -0.001823 -0.001411
v 0.498680 -0.004855 0.005151
v 0.498680 0.004855 0.005151
v -0.285064 0.004855 0.005686
v -0.285064 -0.004855 0.005686
v -0.311982 -0.001823 0.002477
v -0.311982 -0.001823 -0.001411
v 0.498680 0.004855 0.005151
v 0.498680 0.004855 -0.005700
v 0.498680 0.004855 -0.005700
v 0.498680 -0.004855 -0.005700
v -0.311982 0.001823 0.002477
v -0.311982 -0.001823 0.002477
vt 0.004446 0.439451
vt 0.004445 0.437065
vt 0.187500 0.434570
vt 0.198242 0.441406
vt 0.191406 0.437500
vt 0.035465 0.441575
vt 0.035465 0.440396
vt 0.191406 0.438965
vt 0.185547 0.436523
vt 0.186035 0.438965
vt 0.185547 0.437500
vt 0.186035 0.439941
vt 0.187012 0.415527
vt 0.187012 0.413086
vt 0.187012 0.414063
vt 0.194336 0.414551
vt 0.187012 0.413574
vt 0.187012 0.415039
vt 0.187012 0.415527
vt 0.187012 0.413086
vt 0.187012 0.414063
vt 0.194336 0.414551
vt 0.187012 0.413574
vt 0.187012 0.415039
vt 0.030670 0.441575
vt 0.030670 0.440396
vt 0.187500 0.435547
vt 0.182129 0.435547
vt 0.182129 0.434570
vt 0.198242 0.440430
vt 0.197754 0.440430
vt 0.197754 0.441406
vt 0.004431 0.434541
vt 0.004431 0.435740
vt 0.182617 0.435547
vt 0.182617 0.434570
vt 0.191406 0.438965
vt 0.191406 0.437500
vt 0.004446 0.439451
vt 0.004446 0.437072
vt 0.004431 0.435740
vt 0.004431 0.434541
vt 0.187500 0.435547
vt 0.187500 0.434570
vn 0.000000 -1.000000 -0.000000
vn 0.000000 -1.000000 -0.000000
vn -0.117939 0.000000 -0.993021
vn -0.727272 0.000000 0.686349
vn -0.110530 0.993858 -0.005418
vn 1.000000 0.000000 0.000000
vn 1.000000 0.000000 0.000000
vn -0.110530 0.993858 -0.005418
vn -0.050722 -0.998710 -0.002486
vn -0.055659 -0.998446 -0.002728
vn -0.050722 0.998710 -0.002486
vn -0.055659 0.998446 -0.002728
vn 0.000000 -1.000000 0.000000
vn -0.000000 -1.000000 -0.000001
vn 0.000000 -1.000000 -0.000000
vn 0.000000 -1.000000 -0.000000
vn 0.000000 -1.000000 -0.000000
vn 0.000000 -1.000000 -0.000000
vn -0.000001 0.000002 -1.000000
vn 0.000003 -0.000016 -1.000000
vn 0.000000 0.000007 -1.000000
vn 0.000000 0.000003 -1.000000
vn 0.000001 0.000002 -1.000000
vn -0.000000 0.000006 -1.000000
vn 1.000000 0.000000 0.000000
vn 1.000000 0.000000 0.000000
vn -0.117939 0.000000 -0.993021
vn -0.057623 0.000000 -0.998338
vn -0.057623 0.000000 -0.998338
vn -0.727272 0.000000 0.686349
vn -1.000000 0.000000 0.000000
vn -1.000000 0.000000 0.000000
vn 0.000682 0.000000 1.000000
vn 0.000682 0.000000 1.000000
vn -0.056767 0.000000 0.998387
vn -0.056767 0.000000 0.998387
vn -0.110530 -0.993858 -0.005418
vn -0.110530 -0.993858 -0.005418
vn 0.000000 1.000000 0.000000
vn 0.000000 1.000000 0.000000
vn -0.001289 0.000000 -0.999999
vn -0.001289 0.000000 -0.999999
vn -0.727272 0.000000 0.686349
vn -0.727272 0.000000 0.686349
usemtl material
f 1/0/1 10/0/10 9/0/9
f 1/0/1 9/0/9 2/0/2
f 9/0/9 10/0/10 37/0/37
f 9/0/9 37/0/37 38/0/38
f 5/0/5 8/0/8 12/0/12
f 5/0/5 12/0/12 11/0/11
f 11/0/11 12/0/12 39/0/39
f 11/0/11 39/0/39 40/0/40
f 25/0/25 6/0/6 7/0/7
f 25/0/25 7/0/7 26/0/26
f 3/0/3 27/0/27 28/0/28
f 3/0/3 28/0/28 29/0/29
f 29/0/29 28/0/28 41/0/41
f 29/0/29 41/0/41 42/0/42
f 4/0/4 30/0/30 31/0/31
f 4/0/4 31/0/31 32/0/32
f 33/0/33 34/0/34 35/0/35
f 33/0/33 35/0/35 36/0/36
f 36/0/36 35/0/35 43/0/43
f 36/0/36 43/0/43 44/0/44
f 13/0/13 16/0/16 18/0/18
f 18/0/18 16/0/16 15/0/15
f 15/0/15 16/0/16 17/0/17
f 17/0/17 16/0/16 14/0/14
f 19/0/19 22/0/22 24/0/24
f 24/0/24 22/0/22 21/0/21
f 21/0/21 22/0/22 23/0/23
f 23/0/23 22/0/22 20/0/20
