# 
# Wavefront OBJ file
# Created with Kaydara FBX
# 
mtllib object001 #220320.mtl

g Object001
v 0.836171 0.430959 1.138183
v 0.993514 -0.142202 0.857840
v 0.933085 -0.198849 0.913296
v 0.990248 0.581730 0.943822
v 0.583818 0.942680 1.281173
v 0.755390 1.160684 1.169616
v 0.144688 1.262229 1.151179
v 0.279530 1.556296 1.388244
v -0.404399 1.390330 1.195016
v -0.368679 1.742443 1.473655
v -0.967694 1.345007 1.212557
v -1.072069 1.713611 1.530378
v -1.459881 1.072451 1.261653
v -1.730593 1.492208 1.577781
v -1.906304 0.597923 1.333845
v -2.293967 0.909574 1.708398
v -2.146917 -0.003078 1.430582
v -2.617283 0.132755 1.876848
v -2.257990 -0.571947 1.487562
v -2.764114 -0.571986 1.973361
v -2.240175 -1.060625 1.487852
v -2.718010 -1.191851 2.011478
v -2.038765 -1.548810 1.492648
v -2.436926 -1.792856 2.053800
v -1.636702 -1.982773 1.504944
v -1.920098 -2.306544 2.100990
v -1.044145 -2.298618 1.525336
v -1.196989 -2.663863 2.153418
v -0.305200 -2.435949 1.554002
v -0.333038 -2.803147 2.211043
v 0.503784 -2.352299 1.590501
v 0.578953 -2.684538 2.273449
v 1.288119 -2.024048 1.604958
v 1.442132 -2.303681 2.339618
v 1.978340 -1.433539 1.604007
v 2.190396 -1.694038 2.407454
v 2.543725 -0.733454 1.639311
v 2.776395 -0.913412 2.467703
v 2.934412 0.070192 1.666688
v 3.157974 0.001389 2.515580
v 3.077078 0.996965 1.739274
v 3.275662 0.959142 2.599894
v 2.912890 1.884227 1.821195
v 3.077296 1.848310 2.689961
v 2.445959 2.656276 2.103443
v 2.567872 2.591855 2.898894
v 1.582194 3.163501 2.252326
v 1.706997 3.110373 3.022447
v 0.436061 3.476546 2.383032
v 0.590183 3.406152 3.147569
v -0.924236 3.545126 2.526119
v -0.724161 3.463691 3.282290
v -2.333297 3.337171 2.679061
v -2.065253 3.254732 3.423138
v -2.892330 3.003121 3.168907
v -2.351474 2.940956 3.569381
v -3.356657 2.370886 3.515049
v -2.989197 2.295746 3.703295
v -3.744886 1.378476 3.899961
v -3.421721 1.435814 3.822635
v -3.923829 0.301877 4.359400
v -3.587922 0.453258 3.944663
v -3.796122 -0.827644 4.505748
v -3.477504 -0.562882 4.069061
v -3.408522 -1.794130 4.656241
v -3.131934 -1.448203 4.195658
v -2.781911 -2.667444 4.810584
v -2.574287 -2.225869 4.324116
v -2.093893 -3.208028 4.967539
v -1.855865 -2.818967 4.453285
v -1.093157 -3.466144 5.126371
v -1.045478 -3.009474 4.582290
v -0.080752 -3.680804 5.285433
v -0.128082 -3.207366 4.710248
v 0.898811 -3.591348 5.444445
v 0.763966 -3.139955 4.838076
v 1.746575 -3.195701 5.607897
v 1.534474 -2.804835 4.969347
v 2.467466 -2.546461 5.773756
v 2.173212 -2.242581 5.102026
v 3.035212 -1.703260 5.938390
v 2.671587 -1.514323 5.233226
v 3.424230 -0.704518 6.102652
v 2.992786 -0.657830 5.362759
v 3.547092 0.428075 6.263690
v 3.103086 0.337251 5.489436
v 3.401062 1.523985 6.417044
v 2.973839 1.316864 5.611220
v 2.979506 2.489351 6.563592
v 2.609066 2.200808 5.728708
v 1.364814 -2.423166 4.459016
v 0.667507 -2.676058 4.363490
v 1.956193 -1.961861 4.559156
v 2.433282 -1.331650 4.662598
v 2.768134 -0.580928 4.769108
v 2.915698 0.312296 4.877219
v 2.860749 1.222430 4.985644
v 2.570816 2.082807 5.096205
v -0.110554 -2.700142 4.273501
v -0.892140 -2.504557 4.186358
v -1.548548 -2.468787 4.100855
v -2.140183 -1.913166 4.016904
v -2.584258 -1.224778 3.934965
v -2.848308 -0.455731 3.855331
v -2.920926 0.381735 3.779273
v -2.770868 1.221677 3.701893
v -2.410807 1.929303 3.628752
v -1.910691 2.448936 3.561576
v -1.259879 2.805285 3.492862
v -0.522234 2.939429 3.403749
v 0.545286 2.902363 3.319302
v 1.470903 2.668932 3.241843
v 2.224875 2.243831 3.165042
v 2.744029 1.618625 3.078792
v 2.979927 0.835806 3.007502
v 2.927357 -0.026468 2.935475
v 2.620624 -0.876027 2.865105
v 2.113709 -1.634674 2.798583
v 1.430138 -2.265987 2.731990
v 0.587920 -2.705403 2.663088
v -0.355124 -2.890547 2.590786
v -1.302059 -2.798624 2.515319
v -2.147626 -2.450382 2.436886
v -2.802387 -1.896490 2.355245
v -3.210120 -1.201784 2.269794
v -3.334224 -0.436880 2.179658
v -3.164066 0.371889 2.060615
v -2.727341 1.308090 1.832204
v -1.996176 2.110311 1.649842
v -1.074677 2.411129 1.181727
v -0.090749 2.436811 0.978465
v 0.771369 2.173242 0.729983
v 1.369053 1.602758 0.427791
v 1.600421 0.829264 0.298603
v 1.270732 -0.087648 0.275791
v 2.298989 2.511888 5.834516
v 2.530036 2.925122 6.696286
v 2.609066 2.200808 5.728708
v 2.246757 2.391106 5.200478
v 2.570816 2.082807 5.096205
v 1.012864 3.607123 6.814094
v 0.810683 3.212837 5.980723
v -0.727682 3.442860 6.034426
v -0.780238 3.858878 6.865290
v -0.772827 3.341503 5.401999
v 0.757525 3.105870 5.346818
v -1.730412 3.664367 6.961560
v -1.643031 3.244689 6.167954
v -2.514708 2.597438 6.486259
v -2.730543 2.994642 7.207893
v -2.555867 2.285041 5.905315
v -1.655266 3.105844 5.539230
v -3.423461 1.720851 7.442366
v -3.122831 1.296988 6.789017
v -3.165791 0.150718 6.890449
v -3.552899 0.141288 7.569145
v -3.033458 -0.014005 6.298663
v -3.059330 0.925073 6.213523
v -3.110276 -1.433625 7.716442
v -2.778677 -1.253003 7.035054
v -1.985464 -2.237528 7.161865
v -2.434182 -2.357080 7.818302
v -1.821079 -2.220126 6.567999
v -2.538078 -1.421054 6.453339
v -0.947830 -3.120792 7.927643
v -0.724383 -2.739348 7.266167
v 0.405036 -3.229696 7.983766
v 0.457934 -2.939863 7.321881
v -0.567953 -2.629760 6.684187
v 0.452038 -2.870012 6.737055
v 2.126089 -2.469870 8.059724
v 1.793701 -2.296001 7.389704
v 2.998082 -1.145438 8.067977
v 2.540356 -1.206526 7.366430
v 2.267609 0.319628 7.211523
v 2.467913 0.523006 7.980541
v 1.861131 0.036514 6.686051
v 2.231554 -1.367650 6.796559
v 1.530880 1.509479 7.969358
v 1.455979 1.462529 7.254272
v 1.214126 1.341155 6.845598
v 1.523830 -2.400226 6.795565
v -0.027898 1.474571 7.958004
v 0.007804 1.576339 7.294368
v -0.078445 1.604587 7.000924
vt 0.020902 0.931164
vt 0.004876 0.540256
vt 0.004876 0.931164
vt 0.020902 0.538369
vt 0.036927 0.931164
vt 0.036927 0.536477
vt 0.052952 0.931164
vt 0.052952 0.534581
vt 0.068978 0.931164
vt 0.068978 0.532679
vt 0.085003 0.931164
vt 0.085003 0.530773
vt 0.101029 0.931164
vt 0.101029 0.528864
vt 0.117054 0.931164
vt 0.117054 0.526952
vt 0.133080 0.931164
vt 0.133080 0.525038
vt 0.149105 0.931164
vt 0.149105 0.523122
vt 0.165131 0.931164
vt 0.165131 0.521204
vt 0.181156 0.931164
vt 0.181156 0.519287
vt 0.197181 0.931164
vt 0.197181 0.517368
vt 0.213207 0.931164
vt 0.213207 0.515449
vt 0.229232 0.931164
vt 0.229232 0.513530
vt 0.245258 0.931164
vt 0.245258 0.511614
vt 0.261283 0.931164
vt 0.261283 0.509697
vt 0.277309 0.931164
vt 0.277309 0.507782
vt 0.293334 0.931164
vt 0.293334 0.505869
vt 0.309359 0.931164
vt 0.309359 0.503958
vt 0.325385 0.931164
vt 0.325385 0.502051
vt 0.341410 0.931164
vt 0.341410 0.500146
vt 0.357436 0.931164
vt 0.357436 0.498244
vt 0.373461 0.931164
vt 0.373461 0.496346
vt 0.389487 0.931164
vt 0.389487 0.494452
vt 0.405512 0.931164
vt 0.405512 0.492562
vt 0.421538 0.931164
vt 0.421538 0.490677
vt 0.437563 0.931164
vt 0.437563 0.488797
vt 0.453588 0.931164
vt 0.453588 0.486922
vt 0.469614 0.931164
vt 0.469614 0.485051
vt 0.485639 0.931164
vt 0.485639 0.483186
vt 0.501665 0.931164
vt 0.501665 0.481328
vt 0.517690 0.931164
vt 0.517690 0.479475
vt 0.533716 0.931164
vt 0.533716 0.477628
vt 0.549741 0.931164
vt 0.549741 0.475787
vt 0.565767 0.931164
vt 0.565767 0.473954
vt 0.581792 0.931164
vt 0.581792 0.472127
vt 0.597817 0.931164
vt 0.597817 0.470307
vt 0.613843 0.931164
vt 0.613843 0.468494
vt 0.629868 0.931164
vt 0.629868 0.466689
vt 0.645894 0.931164
vt 0.645894 0.464891
vt 0.661919 0.931164
vt 0.661919 0.463099
vt 0.677945 0.931164
vt 0.677945 0.461317
vt 0.693970 0.931164
vt 0.693970 0.459542
vt 0.709995 0.931164
vt 0.709995 0.457773
vt 0.613843 0.072409
vt 0.597817 0.072409
vt 0.629868 0.072409
vt 0.645894 0.072409
vt 0.661919 0.072409
vt 0.677945 0.072409
vt 0.693970 0.072409
vt 0.709995 0.072409
vt 0.581792 0.072409
vt 0.565767 0.072409
vt 0.549741 0.072409
vt 0.533716 0.072409
vt 0.517690 0.072409
vt 0.501665 0.072409
vt 0.485639 0.072409
vt 0.469614 0.072409
vt 0.453588 0.072409
vt 0.437563 0.072409
vt 0.421538 0.072409
vt 0.405512 0.072409
vt 0.389487 0.072409
vt 0.373461 0.072409
vt 0.357436 0.072409
vt 0.341410 0.072409
vt 0.325385 0.072409
vt 0.309359 0.072409
vt 0.293334 0.072409
vt 0.277309 0.072409
vt 0.261283 0.072409
vt 0.245258 0.072409
vt 0.229232 0.072409
vt 0.213207 0.072409
vt 0.197181 0.072409
vt 0.181156 0.072409
vt 0.165131 0.072409
vt 0.149105 0.072409
vt 0.133080 0.072409
vt 0.117054 0.072409
vt 0.101029 0.072409
vt 0.085003 0.072409
vt 0.068978 0.072409
vt 0.052952 0.072409
vt 0.036927 0.072409
vt 0.020902 0.072409
vt 0.004876 0.072409
vt 0.725513 0.455347
vt 0.725381 0.931690
vt 0.709968 0.455291
vt 0.724910 0.065529
vt 0.709963 0.065470
vt 0.745116 0.932426
vt 0.747259 0.455540
vt 0.767612 0.455536
vt 0.765996 0.932700
vt 0.768505 0.065595
vt 0.747528 0.065688
vt 0.780602 0.932647
vt 0.783496 0.455504
vt 0.804209 0.455434
vt 0.801356 0.932307
vt 0.806214 0.065570
vt 0.784124 0.065564
vt 0.821635 0.932591
vt 0.826026 0.455568
vt 0.842068 0.455467
vt 0.842165 0.932295
vt 0.842251 0.065661
vt 0.828465 0.065809
vt 0.861952 0.931525
vt 0.861441 0.455282
vt 0.878201 0.455076
vt 0.874751 0.930767
vt 0.878429 0.065126
vt 0.862954 0.065382
vt 0.895000 0.931256
vt 0.895933 0.455255
vt 0.908564 0.931079
vt 0.910477 0.455254
vt 0.897090 0.065440
vt 0.911562 0.065365
vt 0.925103 0.932084
vt 0.926266 0.455387
vt 0.940461 0.931678
vt 0.941060 0.455236
vt 0.960796 0.455291
vt 0.961958 0.931685
vt 0.960570 0.065158
vt 0.942033 0.065192
vt 0.977864 0.931989
vt 0.977954 0.455525
vt 0.978656 0.065386
vt 0.926623 0.065437
vt 0.995855 0.932160
vt 0.994802 0.455299
vt 0.995662 0.065255
vn -0.765413 -0.035237 -0.642574
vn -0.782400 0.155219 -0.603123
vn -0.732369 0.126223 -0.669107
vn -0.739305 -0.011155 -0.673278
vn -0.397997 -0.199583 -0.895413
vn -0.525046 -0.119818 -0.842597
vn 0.082808 0.484243 -0.871006
vn -0.241453 0.040580 -0.969564
vn 0.000597 0.618842 -0.785516
vn -0.116716 0.021020 -0.992943
vn -0.229669 0.594505 -0.770595
vn -0.200101 0.091572 -0.975487
vn -0.382638 0.417394 -0.824239
vn -0.268516 0.203726 -0.941486
vn -0.568997 0.225349 -0.790860
vn -0.437947 0.087692 -0.894714
vn -0.665085 0.092456 -0.741022
vn -0.511700 0.006051 -0.859143
vn -0.689084 0.015224 -0.724522
vn -0.539588 -0.062221 -0.839627
vn -0.694392 -0.169142 -0.699436
vn -0.583639 -0.227259 -0.779563
vn -0.622639 -0.432360 -0.652216
vn -0.555310 -0.474713 -0.682846
vn -0.463992 -0.656085 -0.595200
vn -0.431073 -0.702719 -0.566006
vn -0.247712 -0.803572 -0.541212
vn -0.229430 -0.863551 -0.449046
vn -0.005619 -0.868280 -0.496042
vn 0.018029 -0.939745 -0.341402
vn 0.242657 -0.857350 -0.453948
vn 0.282020 -0.929337 -0.238322
vn 0.492587 -0.769081 -0.407274
vn 0.532287 -0.834478 -0.142535
vn 0.669217 -0.635950 -0.384338
vn 0.724511 -0.686597 -0.060574
vn 0.805286 -0.483865 -0.342621
vn 0.867368 -0.496840 0.028681
vn 0.923723 -0.260128 -0.281193
vn 0.962243 -0.250101 0.107410
vn 0.972087 0.039324 -0.231303
vn 0.977647 0.041296 0.206156
vn 0.910919 0.377214 -0.167141
vn 0.887300 0.348164 0.302458
vn 0.685510 0.725629 -0.059493
vn 0.659051 0.582206 0.476117
vn 0.388003 0.921650 0.003821
vn 0.388862 0.752710 0.531239
vn 0.154552 0.986307 0.057548
vn 0.183820 0.788109 0.587448
vn -0.046176 0.992038 0.117165
vn 0.029967 0.771117 0.635988
vn -0.234786 0.953815 0.187381
vn -0.124101 0.731289 0.670683
vn -0.395221 0.749805 0.530653
vn -0.102165 0.417386 0.902968
vn -0.345245 0.504127 0.791620
vn -0.089855 0.277401 0.956543
vn 0.117651 0.304463 0.945230
vn 0.246362 0.082191 0.965686
vn 0.717603 0.130219 0.684170
vn 0.560214 0.065752 0.825734
vn 0.679101 0.290597 0.674073
vn 0.536770 0.219162 0.814767
vn 0.574751 0.447177 0.685342
vn 0.485856 0.364070 0.794605
vn 0.408286 0.581264 0.703872
vn 0.400968 0.497971 0.768927
vn 0.232554 0.712100 0.662444
vn 0.211745 0.664683 0.716492
vn 0.071623 0.763446 0.641889
vn 0.054041 0.695453 0.716536
vn -0.069088 0.765407 0.639827
vn -0.038842 0.724566 0.688110
vn -0.311215 0.724117 0.615466
vn -0.269833 0.714037 0.646020
vn -0.532859 0.625859 0.569528
vn -0.504288 0.636112 0.584000
vn -0.696257 0.484822 0.529315
vn -0.684463 0.507824 0.523093
vn -0.801128 0.323690 0.503407
vn -0.806369 0.354740 0.473211
vn -0.855209 0.117541 0.504780
vn -0.886697 0.162024 0.433032
vn -0.857893 -0.093075 0.505328
vn -0.918183 -0.047052 0.393352
vn -0.802929 -0.311720 0.508070
vn -0.893191 -0.276801 0.354389
vn -0.651353 -0.575679 0.494301
vn -0.743676 -0.578758 0.334641
vn -0.458526 0.618579 0.638055
vn -0.226740 0.662568 0.713857
vn -0.654743 0.518452 0.550018
vn -0.794694 0.383385 0.470614
vn -0.899318 0.205767 0.385858
vn -0.951437 0.004483 0.307812
vn -0.948573 -0.220508 0.227123
vn -0.826728 -0.535717 0.171837
vn -0.025028 0.643447 0.765082
vn 0.029250 0.630960 0.775264
vn 0.110098 0.640126 0.760340
vn 0.306632 0.395687 0.865684
vn 0.308633 0.269712 0.912141
vn 0.282364 0.164558 0.945088
vn 0.240149 0.089543 0.966597
vn 0.187273 0.044311 0.981308
vn 0.135464 0.039917 0.989978
vn 0.082402 0.122631 0.989026
vn 0.048025 0.231469 0.971656
vn 0.090284 0.265479 0.959880
vn 0.133977 0.317224 0.938839
vn 0.231170 0.343084 0.910414
vn 0.421453 0.303309 0.854623
vn 0.669617 0.253087 0.698255
vn 0.817172 0.012298 0.576262
vn 0.862712 -0.235876 0.447314
vn 0.814947 -0.463739 0.347573
vn 0.718583 -0.658851 0.222606
vn 0.557512 -0.826549 0.077438
vn 0.320726 -0.944025 -0.077146
vn 0.043924 -0.969595 -0.240742
vn -0.217583 -0.882736 -0.416456
vn -0.404084 -0.688350 -0.602403
vn -0.468367 -0.440128 -0.766107
vn -0.425817 -0.223447 -0.876785
vn -0.358405 -0.108014 -0.927297
vn -0.341403 -0.065584 -0.937626
vn -0.290221 -0.023908 -0.956661
vn -0.224858 -0.100581 -0.969186
vn -0.184820 -0.469765 -0.863228
vn -0.264740 -0.519118 -0.812668
vn -0.536299 -0.391398 -0.747791
vn -0.692233 -0.177543 -0.699494
vn -0.761938 0.026945 -0.647089
vn -0.866370 0.321032 -0.382545
vn -0.486170 -0.798070 0.355981
vn -0.422919 -0.767660 0.481495
vn -0.743676 -0.578758 0.334641
vn -0.548571 -0.813730 0.192129
vn -0.826728 -0.535717 0.171837
vn -0.230196 -0.856561 0.461858
vn -0.252998 -0.908623 0.332260
vn 0.048409 -0.949307 0.310600
vn 0.066832 -0.890477 0.450093
vn 0.053371 -0.984171 0.168996
vn -0.282330 -0.941780 0.182593
vn 0.436786 -0.766578 0.470719
vn 0.476780 -0.815120 0.329030
vn 0.750234 -0.538845 0.383139
vn 0.701266 -0.514838 0.493121
vn 0.820580 -0.525462 0.224807
vn 0.490605 -0.852842 0.178792
vn 0.853482 -0.180048 0.489031
vn 0.923327 -0.145224 0.355496
vn 0.931518 0.121345 0.342854
vn 0.860573 0.129302 0.492642
vn 0.970050 0.167629 0.175795
vn 0.982765 -0.085677 0.163808
vn 0.747696 0.440692 0.496731
vn 0.816198 0.454704 0.356463
vn 0.541063 0.764167 0.351140
vn 0.554284 0.665359 0.500066
vn 0.543727 0.819865 0.179395
vn 0.814903 0.551695 0.177669
vn 0.188846 0.836836 0.513851
vn 0.202725 0.903587 0.377403
vn -0.132481 0.901976 0.410960
vn -0.143286 0.950259 0.276544
vn 0.222316 0.950079 0.218918
vn -0.098645 0.989241 0.108036
vn -0.609130 0.646313 0.459608
vn -0.628351 0.701250 0.336784
vn -0.854278 0.154524 0.496317
vn -0.845158 0.199873 0.495740
vn -0.778902 -0.360176 0.513406
vn -0.811353 -0.477250 0.337548
vn -0.725327 -0.253830 0.639900
vn -0.878774 0.252996 0.404660
vn -0.440426 -0.885085 0.150498
vn -0.476431 -0.828762 0.293541
vn -0.420576 -0.787480 0.450546
vn -0.569111 0.813891 0.117024
vn -0.051511 -0.994463 -0.091598
vn -0.134506 -0.989261 -0.057185
vn -0.203545 -0.978462 -0.034364
usemtl material
f 1/0/1 2/0/2 3/0/3
f 2/0/2 1/0/1 4/0/4
f 5/0/5 4/0/4 1/0/1
f 4/0/4 5/0/5 6/0/6
f 7/0/7 6/0/6 5/0/5
f 6/0/6 7/0/7 8/0/8
f 9/0/9 8/0/8 7/0/7
f 8/0/8 9/0/9 10/0/10
f 11/0/11 10/0/10 9/0/9
f 10/0/10 11/0/11 12/0/12
f 13/0/13 12/0/12 11/0/11
f 12/0/12 13/0/13 14/0/14
f 15/0/15 14/0/14 13/0/13
f 14/0/14 15/0/15 16/0/16
f 17/0/17 16/0/16 15/0/15
f 16/0/16 17/0/17 18/0/18
f 19/0/19 18/0/18 17/0/17
f 18/0/18 19/0/19 20/0/20
f 21/0/21 20/0/20 19/0/19
f 20/0/20 21/0/21 22/0/22
f 23/0/23 22/0/22 21/0/21
f 22/0/22 23/0/23 24/0/24
f 25/0/25 24/0/24 23/0/23
f 24/0/24 25/0/25 26/0/26
f 27/0/27 26/0/26 25/0/25
f 26/0/26 27/0/27 28/0/28
f 29/0/29 28/0/28 27/0/27
f 28/0/28 29/0/29 30/0/30
f 31/0/31 30/0/30 29/0/29
f 30/0/30 31/0/31 32/0/32
f 33/0/33 32/0/32 31/0/31
f 32/0/32 33/0/33 34/0/34
f 35/0/35 34/0/34 33/0/33
f 34/0/34 35/0/35 36/0/36
f 37/0/37 36/0/36 35/0/35
f 36/0/36 37/0/37 38/0/38
f 39/0/39 38/0/38 37/0/37
f 38/0/38 39/0/39 40/0/40
f 41/0/41 40/0/40 39/0/39
f 40/0/40 41/0/41 42/0/42
f 43/0/43 42/0/42 41/0/41
f 42/0/42 43/0/43 44/0/44
f 45/0/45 44/0/44 43/0/43
f 44/0/44 45/0/45 46/0/46
f 47/0/47 46/0/46 45/0/45
f 46/0/46 47/0/47 48/0/48
f 49/0/49 48/0/48 47/0/47
f 48/0/48 49/0/49 50/0/50
f 51/0/51 50/0/50 49/0/49
f 50/0/50 51/0/51 52/0/52
f 53/0/53 52/0/52 51/0/51
f 52/0/52 53/0/53 54/0/54
f 55/0/55 54/0/54 53/0/53
f 54/0/54 55/0/55 56/0/56
f 57/0/57 56/0/56 55/0/55
f 56/0/56 57/0/57 58/0/58
f 59/0/59 58/0/58 57/0/57
f 58/0/58 59/0/59 60/0/60
f 61/0/61 60/0/60 59/0/59
f 60/0/60 61/0/61 62/0/62
f 63/0/63 62/0/62 61/0/61
f 62/0/62 63/0/63 64/0/64
f 65/0/65 64/0/64 63/0/63
f 64/0/64 65/0/65 66/0/66
f 67/0/67 66/0/66 65/0/65
f 66/0/66 67/0/67 68/0/68
f 69/0/69 68/0/68 67/0/67
f 68/0/68 69/0/69 70/0/70
f 71/0/71 70/0/70 69/0/69
f 70/0/70 71/0/71 72/0/72
f 73/0/73 72/0/72 71/0/71
f 72/0/72 73/0/73 74/0/74
f 75/0/75 74/0/74 73/0/73
f 74/0/74 75/0/75 76/0/76
f 77/0/77 76/0/76 75/0/75
f 76/0/76 77/0/77 78/0/78
f 79/0/79 78/0/78 77/0/77
f 78/0/78 79/0/79 80/0/80
f 81/0/81 80/0/80 79/0/79
f 80/0/80 81/0/81 82/0/82
f 83/0/83 82/0/82 81/0/81
f 82/0/82 83/0/83 84/0/84
f 85/0/85 84/0/84 83/0/83
f 84/0/84 85/0/85 86/0/86
f 87/0/87 86/0/86 85/0/85
f 86/0/86 87/0/87 88/0/88
f 89/0/89 88/0/88 87/0/87
f 88/0/88 89/0/89 90/0/90
f 91/0/91 76/0/76 78/0/78
f 76/0/76 91/0/91 92/0/92
f 78/0/78 93/0/93 91/0/91
f 93/0/93 78/0/78 80/0/80
f 80/0/80 94/0/94 93/0/93
f 94/0/94 80/0/80 82/0/82
f 82/0/82 95/0/95 94/0/94
f 95/0/95 82/0/82 84/0/84
f 84/0/84 96/0/96 95/0/95
f 96/0/96 84/0/84 86/0/86
f 86/0/86 97/0/97 96/0/96
f 97/0/97 86/0/86 88/0/88
f 88/0/88 98/0/98 97/0/97
f 98/0/98 88/0/88 90/0/90
f 74/0/74 92/0/92 99/0/99
f 99/0/99 72/0/72 74/0/74
f 72/0/72 99/0/99 100/0/100
f 100/0/100 70/0/70 72/0/72
f 70/0/70 100/0/100 101/0/101
f 101/0/101 68/0/68 70/0/70
f 68/0/68 101/0/101 102/0/102
f 102/0/102 66/0/66 68/0/68
f 66/0/66 102/0/102 103/0/103
f 103/0/103 64/0/64 66/0/66
f 64/0/64 103/0/103 104/0/104
f 104/0/104 62/0/62 64/0/64
f 62/0/62 104/0/104 105/0/105
f 105/0/105 60/0/60 62/0/62
f 60/0/60 105/0/105 106/0/106
f 106/0/106 58/0/58 60/0/60
f 58/0/58 106/0/106 107/0/107
f 107/0/107 56/0/56 58/0/58
f 56/0/56 107/0/107 108/0/108
f 108/0/108 54/0/54 56/0/56
f 54/0/54 108/0/108 109/0/109
f 109/0/109 52/0/52 54/0/54
f 52/0/52 109/0/109 110/0/110
f 110/0/110 50/0/50 52/0/52
f 50/0/50 110/0/110 111/0/111
f 111/0/111 48/0/48 50/0/50
f 48/0/48 111/0/111 112/0/112
f 112/0/112 46/0/46 48/0/48
f 46/0/46 112/0/112 113/0/113
f 113/0/113 44/0/44 46/0/46
f 44/0/44 113/0/113 114/0/114
f 114/0/114 42/0/42 44/0/44
f 42/0/42 114/0/114 115/0/115
f 115/0/115 40/0/40 42/0/42
f 40/0/40 115/0/115 116/0/116
f 116/0/116 38/0/38 40/0/40
f 38/0/38 116/0/116 117/0/117
f 117/0/117 36/0/36 38/0/38
f 36/0/36 117/0/117 118/0/118
f 118/0/118 34/0/34 36/0/36
f 34/0/34 118/0/118 119/0/119
f 119/0/119 32/0/32 34/0/34
f 32/0/32 119/0/119 120/0/120
f 120/0/120 30/0/30 32/0/32
f 30/0/30 120/0/120 121/0/121
f 121/0/121 28/0/28 30/0/30
f 28/0/28 121/0/121 122/0/122
f 122/0/122 26/0/26 28/0/28
f 26/0/26 122/0/122 123/0/123
f 123/0/123 24/0/24 26/0/26
f 24/0/24 123/0/123 124/0/124
f 124/0/124 22/0/22 24/0/24
f 22/0/22 124/0/124 125/0/125
f 125/0/125 20/0/20 22/0/22
f 20/0/20 125/0/125 126/0/126
f 126/0/126 18/0/18 20/0/20
f 18/0/18 126/0/126 127/0/127
f 127/0/127 16/0/16 18/0/18
f 16/0/16 127/0/127 128/0/128
f 128/0/128 14/0/14 16/0/16
f 14/0/14 128/0/128 129/0/129
f 129/0/129 12/0/12 14/0/14
f 12/0/12 129/0/129 130/0/130
f 130/0/130 10/0/10 12/0/12
f 10/0/10 130/0/130 131/0/131
f 131/0/131 8/0/8 10/0/10
f 8/0/8 131/0/131 132/0/132
f 132/0/132 6/0/6 8/0/8
f 6/0/6 132/0/132 133/0/133
f 133/0/133 4/0/4 6/0/6
f 4/0/4 133/0/133 134/0/134
f 134/0/134 2/0/2 4/0/4
f 2/0/2 134/0/134 135/0/135
f 92/0/92 74/0/74 76/0/76
f 136/0/136 89/0/89 137/0/137
f 89/0/89 136/0/136 138/0/138
f 139/0/139 138/0/138 136/0/136
f 138/0/138 139/0/139 140/0/140
f 141/0/141 136/0/136 137/0/137
f 136/0/136 141/0/141 142/0/142
f 142/0/142 139/0/139 136/0/136
f 141/0/141 143/0/143 142/0/142
f 143/0/143 141/0/141 144/0/144
f 145/0/145 142/0/142 143/0/143
f 142/0/142 145/0/145 146/0/146
f 139/0/139 142/0/142 146/0/146
f 147/0/147 143/0/143 144/0/144
f 143/0/143 147/0/147 148/0/148
f 148/0/148 145/0/145 143/0/143
f 147/0/147 149/0/149 148/0/148
f 149/0/149 147/0/147 150/0/150
f 151/0/151 148/0/148 149/0/149
f 148/0/148 151/0/151 152/0/152
f 145/0/145 148/0/148 152/0/152
f 153/0/153 149/0/149 150/0/150
f 149/0/149 153/0/153 154/0/154
f 154/0/154 151/0/151 149/0/149
f 153/0/153 155/0/155 154/0/154
f 155/0/155 153/0/153 156/0/156
f 157/0/157 154/0/154 155/0/155
f 154/0/154 157/0/157 158/0/158
f 151/0/151 154/0/154 158/0/158
f 159/0/159 155/0/155 156/0/156
f 155/0/155 159/0/159 160/0/160
f 160/0/160 157/0/157 155/0/155
f 159/0/159 161/0/161 160/0/160
f 161/0/161 159/0/159 162/0/162
f 163/0/163 160/0/160 161/0/161
f 160/0/160 163/0/163 164/0/164
f 157/0/157 160/0/160 164/0/164
f 165/0/165 161/0/161 162/0/162
f 161/0/161 165/0/165 166/0/166
f 166/0/166 163/0/163 161/0/161
f 167/0/167 166/0/166 165/0/165
f 166/0/166 167/0/167 168/0/168
f 168/0/168 169/0/169 166/0/166
f 163/0/163 166/0/166 169/0/169
f 169/0/169 168/0/168 170/0/170
f 171/0/171 168/0/168 167/0/167
f 168/0/168 171/0/171 172/0/172
f 172/0/172 170/0/170 168/0/168
f 173/0/173 172/0/172 171/0/171
f 172/0/172 173/0/173 174/0/174
f 173/0/173 175/0/175 174/0/174
f 175/0/175 173/0/173 176/0/176
f 177/0/177 174/0/174 175/0/175
f 174/0/174 177/0/177 178/0/178
f 179/0/179 175/0/175 176/0/176
f 175/0/175 179/0/179 180/0/180
f 180/0/180 177/0/177 175/0/175
f 177/0/177 180/0/180 181/0/181
f 174/0/174 182/0/182 172/0/172
f 182/0/182 174/0/174 178/0/178
f 170/0/170 172/0/172 182/0/182
f 183/0/183 180/0/180 179/0/179
f 180/0/180 183/0/183 184/0/184
f 184/0/184 181/0/181 180/0/180
f 181/0/181 184/0/184 185/0/185
