# 
# Wavefront OBJ file
# Created with Kaydara FBX
# 
mtllib object011.mtl

g Object011
v -0.007374 0.006428 0.060625
v -0.002511 0.008696 0.060625
v -0.004870 0.013755 0.056129
v -0.009733 0.011487 0.056129
v -0.009733 0.011487 0.056129
v -0.004870 0.013755 0.056129
v -0.004870 0.013755 -0.016687
v -0.009733 0.011487 -0.016687
v -0.011478 0.015229 -0.042908
v -0.006615 0.017497 -0.042908
v 0.003644 -0.004503 -0.060625
v -0.001219 -0.006771 -0.060625
v 0.000974 -0.011476 0.049274
v 0.005838 -0.009208 0.049274
v -0.002511 0.008696 0.060625
v -0.007374 0.006428 0.060625
v 0.000444 0.015272 -0.022373
v 0.011478 -0.008392 -0.014263
v 0.011478 -0.008392 -0.051593
v 0.008729 -0.002495 -0.055450
v 0.000444 0.015272 -0.041143
v 0.002189 0.011530 -0.018228
v 0.008671 -0.002370 -0.008412
v 0.008671 -0.002370 0.047222
v 0.002189 0.011530 0.054480
v 0.002665 0.010509 0.055387
v 0.000974 -0.011476 0.049274
v -0.007374 0.006428 0.060625
v -0.009733 0.011487 0.056129
v -0.009733 0.011487 -0.016687
v 0.000974 -0.011476 -0.006866
v -0.011478 0.015229 -0.021023
v 0.003782 -0.017497 -0.012718
v -0.011478 0.015229 -0.042908
v 0.003782 -0.017497 -0.053607
v -0.001219 -0.006771 -0.060625
v -0.011478 0.015229 -0.021023
v -0.006615 0.017497 -0.021023
v -0.006615 0.017497 -0.042908
v -0.011478 0.015229 -0.042908
v 0.003782 -0.017497 -0.053607
v 0.008646 -0.015229 -0.053607
v 0.008646 -0.015229 -0.012718
v 0.003782 -0.017497 -0.012718
v -0.009733 0.011487 -0.016687
v -0.004870 0.013755 -0.016687
v -0.006615 0.017497 -0.021023
v -0.011478 0.015229 -0.021023
v 0.000974 -0.011476 -0.006866
v 0.005838 -0.009208 -0.006866
v 0.005838 -0.009208 0.049274
v 0.000974 -0.011476 0.049274
v -0.001219 -0.006771 -0.060625
v 0.003644 -0.004503 -0.060625
v 0.008646 -0.015229 -0.053607
v 0.003782 -0.017497 -0.053607
v 0.005838 -0.009208 -0.006866
v 0.000974 -0.011476 -0.006866
v 0.003782 -0.017497 -0.012718
v 0.008646 -0.015229 -0.012718
v -0.004870 0.013755 -0.016687
v -0.004870 0.013755 0.056129
v 0.002189 0.011530 0.054480
v 0.002189 0.011530 -0.018228
v -0.004870 0.013755 0.056129
v -0.002511 0.008696 0.060625
v 0.002665 0.010509 0.055387
v 0.002189 0.011530 0.054480
v -0.002511 0.008696 0.060625
v 0.005838 -0.009208 0.049274
v 0.008671 -0.002370 0.047222
v 0.002665 0.010509 0.055387
v 0.005838 -0.009208 0.049274
v 0.005838 -0.009208 -0.006866
v 0.008671 -0.002370 -0.008412
v 0.008671 -0.002370 0.047222
v 0.005838 -0.009208 -0.006866
v 0.008646 -0.015229 -0.012718
v 0.011478 -0.008392 -0.014263
v 0.008671 -0.002370 -0.008412
v 0.008646 -0.015229 -0.012718
v 0.008646 -0.015229 -0.053607
v 0.011478 -0.008392 -0.051593
v 0.011478 -0.008392 -0.014263
v 0.008646 -0.015229 -0.053607
v 0.003644 -0.004503 -0.060625
v 0.008729 -0.002495 -0.055450
v 0.011478 -0.008392 -0.051593
v 0.003644 -0.004503 -0.060625
v -0.006615 0.017497 -0.042908
v 0.000444 0.015272 -0.041143
v 0.008729 -0.002495 -0.055450
v -0.006615 0.017497 -0.042908
v -0.006615 0.017497 -0.021023
v 0.000444 0.015272 -0.022373
v 0.000444 0.015272 -0.041143
v -0.006615 0.017497 -0.021023
v -0.004870 0.013755 -0.016687
v 0.002189 0.011530 -0.018228
v 0.000444 0.015272 -0.022373
vt 0.791577 0.587033
vt 0.792175 0.575169
vt 0.797464 0.575169
vt 0.797809 0.587033
vt 0.797809 0.587033
vt 0.797464 0.575169
vt 0.930711 0.575169
vt 0.930864 0.587033
vt 0.498629 0.587033
vt 0.498633 0.575169
vt 0.550082 0.575169
vt 0.549848 0.587033
vt 0.757594 0.587033
vt 0.757709 0.575169
vt 0.792175 0.575169
vt 0.791577 0.587033
vt 0.239755 0.637241
vt 0.218262 0.570157
vt 0.315490 0.570157
vt 0.325597 0.586872
vt 0.288688 0.637241
vt 0.228849 0.626633
vt 0.203422 0.587228
vt 0.059026 0.587228
vt 0.040219 0.626633
vt 0.037947 0.623738
vt 0.576126 0.605277
vt 0.589163 0.625841
vt 0.583999 0.631651
vt 0.500366 0.631651
vt 0.511646 0.605277
vt 0.495386 0.635950
vt 0.504925 0.598361
vt 0.470250 0.635950
vt 0.457962 0.598361
vt 0.449901 0.610681
vt 0.461159 0.587033
vt 0.461325 0.575169
vt 0.498633 0.575169
vt 0.498629 0.587033
vt 0.568407 0.587033
vt 0.568183 0.575169
vt 0.640977 0.575169
vt 0.640953 0.587033
vt 0.449941 0.587033
vt 0.451565 0.575169
vt 0.461325 0.575169
vt 0.461159 0.587033
vt 0.656300 0.587033
vt 0.656268 0.575169
vt 0.757709 0.575169
vt 0.757594 0.587033
vt 0.549848 0.587033
vt 0.550082 0.575169
vt 0.568183 0.575169
vt 0.568407 0.587033
vt 0.656268 0.575169
vt 0.656300 0.587033
vt 0.640953 0.587033
vt 0.640977 0.575169
vt 0.930711 0.575169
vt 0.797464 0.575169
vt 0.798280 0.563306
vt 0.933379 0.563306
vt 0.797464 0.575169
vt 0.792175 0.575169
vt 0.792523 0.563306
vt 0.798280 0.563306
vt 0.792175 0.575169
vt 0.757709 0.575169
vt 0.757030 0.563306
vt 0.792523 0.563306
vt 0.757709 0.575169
vt 0.656268 0.575169
vt 0.654430 0.563306
vt 0.757030 0.563306
vt 0.656268 0.575169
vt 0.640977 0.575169
vt 0.639562 0.563306
vt 0.654430 0.563306
vt 0.640977 0.575169
vt 0.568183 0.575169
vt 0.568700 0.563306
vt 0.639562 0.563306
vt 0.568183 0.575169
vt 0.550082 0.575169
vt 0.548986 0.563306
vt 0.568700 0.563306
vt 0.550082 0.575169
vt 0.498633 0.575169
vt 0.500504 0.563306
vt 0.548986 0.563306
vt 0.498633 0.575169
vt 0.461325 0.575169
vt 0.462388 0.563306
vt 0.500504 0.563306
vt 0.461325 0.575169
vt 0.451565 0.575169
vt 0.451046 0.563306
vt 0.462388 0.563306
vn -0.265099 0.568507 0.778795
vn -0.265099 0.568507 0.778795
vn -0.265099 0.568507 0.778795
vn -0.265099 0.568507 0.778795
vn -0.422618 0.906308 0.000000
vn -0.422618 0.906308 0.000000
vn -0.422618 0.906308 0.000000
vn -0.422618 0.906308 0.000000
vn -0.249144 0.534291 -0.807750
vn -0.249144 0.534291 -0.807750
vn -0.249144 0.534291 -0.807750
vn -0.249144 0.534291 -0.807750
vn 0.210552 -0.451530 0.867057
vn 0.210552 -0.451530 0.867057
vn 0.210552 -0.451530 0.867057
vn 0.210552 -0.451530 0.867057
vn 0.906308 0.422618 -0.000000
vn 0.906308 0.422619 -0.000000
vn 0.906308 0.422618 -0.000000
vn 0.906308 0.422618 -0.000000
vn 0.906308 0.422618 -0.000000
vn 0.906308 0.422618 -0.000000
vn 0.906308 0.422618 -0.000000
vn 0.906308 0.422618 -0.000000
vn 0.906308 0.422618 -0.000000
vn 0.906311 0.422611 0.000012
vn -0.906308 -0.422618 -0.000001
vn -0.906308 -0.422618 -0.000001
vn -0.906308 -0.422618 -0.000001
vn -0.906308 -0.422618 -0.000000
vn -0.906308 -0.422618 -0.000000
vn -0.906308 -0.422618 0.000000
vn -0.906308 -0.422618 0.000000
vn -0.906308 -0.422618 0.000000
vn -0.906308 -0.422618 0.000000
vn -0.906308 -0.422618 0.000002
vn -0.422617 0.906308 0.000000
vn -0.422617 0.906308 0.000000
vn -0.422617 0.906308 0.000000
vn -0.422617 0.906308 0.000000
vn 0.422618 -0.906308 0.000000
vn 0.422618 -0.906308 0.000000
vn 0.422618 -0.906308 0.000000
vn 0.422618 -0.906308 0.000000
vn -0.306042 0.656311 0.689633
vn -0.306042 0.656311 0.689633
vn -0.306042 0.656311 0.689633
vn -0.306042 0.656311 0.689633
vn 0.422618 -0.906308 0.000000
vn 0.422618 -0.906308 0.000000
vn 0.422618 -0.906308 0.000000
vn 0.422618 -0.906308 0.000000
vn 0.215555 -0.462259 -0.860147
vn 0.215555 -0.462259 -0.860147
vn 0.215555 -0.462259 -0.860147
vn 0.215555 -0.462259 -0.860147
vn 0.279328 -0.599021 0.750433
vn 0.279328 -0.599021 0.750433
vn 0.279327 -0.599021 0.750433
vn 0.279327 -0.599021 0.750433
vn 0.300687 0.953723 0.000000
vn 0.300687 0.953723 0.000000
vn 0.300687 0.953723 0.000000
vn 0.300687 0.953723 0.000000
vn 0.364509 0.707769 0.605142
vn 0.364509 0.707769 0.605142
vn 0.364509 0.707769 0.605142
vn 0.364509 0.707769 0.605142
vn 0.724349 -0.095147 0.682836
vn 0.724349 -0.095147 0.682836
vn 0.724349 -0.095147 0.682836
vn 0.724349 -0.095147 0.682836
vn 0.923871 -0.382704 0.000000
vn 0.923871 -0.382704 0.000000
vn 0.923871 -0.382704 0.000000
vn 0.923871 -0.382704 0.000000
vn 0.790087 -0.196012 0.580812
vn 0.790087 -0.196012 0.580812
vn 0.790087 -0.196012 0.580812
vn 0.790087 -0.196012 0.580812
vn 0.923872 -0.382702 0.000000
vn 0.923872 -0.382702 0.000000
vn 0.923872 -0.382702 0.000000
vn 0.923872 -0.382702 0.000000
vn 0.729118 -0.102714 -0.676636
vn 0.729118 -0.102714 -0.676636
vn 0.729118 -0.102714 -0.676636
vn 0.729118 -0.102714 -0.676636
vn 0.372402 0.681215 -0.630288
vn 0.372402 0.681215 -0.630288
vn 0.372402 0.681215 -0.630288
vn 0.372402 0.681215 -0.630288
vn 0.300688 0.953723 -0.000000
vn 0.300688 0.953723 -0.000000
vn 0.300688 0.953723 -0.000000
vn 0.300688 0.953723 -0.000000
vn 0.351744 0.768956 0.533838
vn 0.351744 0.768956 0.533838
vn 0.351744 0.768956 0.533838
vn 0.351744 0.768956 0.533838
usemtl material
f 1/0/1 2/0/2 3/0/3
f 1/0/1 3/0/3 4/0/4
f 5/0/5 6/0/6 7/0/7
f 5/0/5 7/0/7 8/0/8
f 9/0/9 10/0/10 11/0/11
f 9/0/9 11/0/11 12/0/12
f 13/0/13 14/0/14 15/0/15
f 13/0/13 15/0/15 16/0/16
f 17/0/17 18/0/18 19/0/19
f 19/0/19 20/0/20 17/0/17
f 20/0/20 21/0/21 17/0/17
f 22/0/22 18/0/18 17/0/17
f 22/0/22 23/0/23 18/0/18
f 22/0/22 24/0/24 23/0/23
f 22/0/22 25/0/25 24/0/24
f 25/0/25 26/0/26 24/0/24
f 27/0/27 28/0/28 29/0/29
f 27/0/27 29/0/29 30/0/30
f 27/0/27 30/0/30 31/0/31
f 31/0/31 30/0/30 32/0/32
f 31/0/31 32/0/32 33/0/33
f 33/0/33 32/0/32 34/0/34
f 33/0/33 34/0/34 35/0/35
f 35/0/35 34/0/34 36/0/36
f 37/0/37 38/0/38 39/0/39
f 37/0/37 39/0/39 40/0/40
f 41/0/41 42/0/42 43/0/43
f 41/0/41 43/0/43 44/0/44
f 45/0/45 46/0/46 47/0/47
f 45/0/45 47/0/47 48/0/48
f 49/0/49 50/0/50 51/0/51
f 49/0/49 51/0/51 52/0/52
f 53/0/53 54/0/54 55/0/55
f 53/0/53 55/0/55 56/0/56
f 57/0/57 58/0/58 59/0/59
f 57/0/57 59/0/59 60/0/60
f 61/0/61 62/0/62 63/0/63
f 61/0/61 63/0/63 64/0/64
f 65/0/65 66/0/66 67/0/67
f 65/0/65 67/0/67 68/0/68
f 69/0/69 70/0/70 71/0/71
f 69/0/69 71/0/71 72/0/72
f 73/0/73 74/0/74 75/0/75
f 73/0/73 75/0/75 76/0/76
f 77/0/77 78/0/78 79/0/79
f 77/0/77 79/0/79 80/0/80
f 81/0/81 82/0/82 83/0/83
f 81/0/81 83/0/83 84/0/84
f 85/0/85 86/0/86 87/0/87
f 85/0/85 87/0/87 88/0/88
f 89/0/89 90/0/90 91/0/91
f 89/0/89 91/0/91 92/0/92
f 93/0/93 94/0/94 95/0/95
f 93/0/93 95/0/95 96/0/96
f 97/0/97 98/0/98 99/0/99
f 97/0/97 99/0/99 100/0/100
