# 
# Wavefront OBJ file
# Created with Kaydara FBX
# 
mtllib object014.mtl

g Object014
v 0.006271 0.011732 0.053539
v -0.003943 -0.010171 0.047000
v -0.003943 -0.010171 -0.006549
v 0.006271 0.011732 -0.015917
v -0.006621 -0.015915 -0.012131
v 0.007936 0.015302 -0.020053
v 0.007936 0.015302 -0.040928
v -0.006621 -0.015915 -0.051133
v 0.004021 0.006907 0.057827
v -0.001850 -0.005684 -0.057827
v -0.005257 -0.009558 -0.006549
v -0.005257 -0.009558 0.047000
v 0.004956 0.012345 0.053539
v 0.004956 0.012345 -0.015917
v -0.007936 -0.015302 -0.012131
v 0.006621 0.015915 -0.020053
v 0.006621 0.015915 -0.040928
v -0.007936 -0.015302 -0.051133
v 0.002706 0.007520 0.057827
v -0.003165 -0.005071 -0.057827
v 0.006271 0.011732 -0.015917
v 0.004956 0.012345 -0.015917
v 0.004956 0.012345 0.053539
v 0.006271 0.011732 0.053539
v -0.003943 -0.010171 0.047000
v -0.005257 -0.009558 0.047000
v -0.005257 -0.009558 -0.006549
v -0.003943 -0.010171 -0.006549
v 0.007936 0.015302 -0.020053
v 0.006621 0.015915 -0.020053
v 0.004956 0.012345 -0.015917
v 0.006271 0.011732 -0.015917
v -0.003943 -0.010171 -0.006549
v -0.005257 -0.009558 -0.006549
v -0.007936 -0.015302 -0.012131
v -0.006621 -0.015915 -0.012131
v -0.006621 -0.015915 -0.012131
v -0.007936 -0.015302 -0.012131
v -0.007936 -0.015302 -0.051133
v -0.006621 -0.015915 -0.051133
v 0.007936 0.015302 -0.040928
v 0.006621 0.015915 -0.040928
v 0.006621 0.015915 -0.020053
v 0.007936 0.015302 -0.020053
v 0.004021 0.006907 0.057827
v 0.002706 0.007520 0.057827
v -0.005257 -0.009558 0.047000
v -0.003943 -0.010171 0.047000
v 0.006271 0.011732 0.053539
v 0.004956 0.012345 0.053539
v 0.002706 0.007520 0.057827
v 0.004021 0.006907 0.057827
v -0.001850 -0.005684 -0.057827
v -0.003165 -0.005071 -0.057827
v 0.006621 0.015915 -0.040928
v 0.007936 0.015302 -0.040928
v -0.006621 -0.015915 -0.051133
v -0.007936 -0.015302 -0.051133
v -0.003165 -0.005071 -0.057827
v -0.001850 -0.005684 -0.057827
vt 0.711366 0.630533
vt 0.703856 0.605376
vt 0.642351 0.605376
vt 0.631591 0.630533
vt 0.635940 0.598779
vt 0.626841 0.634633
vt 0.602865 0.634633
vt 0.591144 0.598779
vt 0.716291 0.624990
vt 0.583455 0.610530
vt 0.642351 0.605376
vt 0.703856 0.605376
vt 0.711366 0.630533
vt 0.631592 0.630533
vt 0.635940 0.598779
vt 0.626841 0.634633
vt 0.602865 0.634633
vt 0.591144 0.598779
vt 0.716292 0.624990
vt 0.583455 0.610530
vt 0.453728 0.591484
vt 0.453728 0.595224
vt 0.559156 0.595224
vt 0.559156 0.591484
vt 0.602525 0.591484
vt 0.602525 0.595224
vt 0.683815 0.595224
vt 0.683815 0.591484
vt 0.850954 0.591484
vt 0.850954 0.595224
vt 0.859622 0.595224
vt 0.859622 0.591484
vt 0.683815 0.591484
vt 0.683815 0.595224
vt 0.696634 0.595224
vt 0.696634 0.591484
vt 0.696634 0.591484
vt 0.696634 0.595224
vt 0.755835 0.595224
vt 0.755835 0.591484
vt 0.819267 0.591484
vt 0.819267 0.595224
vt 0.850954 0.595224
vt 0.850954 0.591484
vt 0.569534 0.591484
vt 0.569534 0.595224
vt 0.602525 0.595224
vt 0.602525 0.591484
vt 0.559156 0.591484
vt 0.559156 0.595224
vt 0.569534 0.595224
vt 0.569534 0.591484
vt 0.775756 0.591484
vt 0.775756 0.595224
vt 0.819267 0.595224
vt 0.819267 0.591484
vt 0.755835 0.591484
vt 0.755835 0.595224
vt 0.775756 0.595224
vt 0.775756 0.591484
vn 0.906308 -0.422618 0.000000
vn 0.906308 -0.422618 0.000000
vn 0.906308 -0.422618 0.000000
vn 0.906308 -0.422618 0.000000
vn 0.906308 -0.422618 0.000001
vn 0.906308 -0.422618 0.000001
vn 0.906307 -0.422619 0.000000
vn 0.906307 -0.422619 0.000000
vn 0.906308 -0.422619 0.000002
vn 0.906308 -0.422619 -0.000001
vn -0.906308 0.422618 0.000000
vn -0.906308 0.422618 0.000000
vn -0.906308 0.422618 0.000000
vn -0.906308 0.422618 0.000000
vn -0.906308 0.422619 0.000002
vn -0.906308 0.422619 0.000002
vn -0.906308 0.422618 0.000000
vn -0.906308 0.422618 0.000000
vn -0.906308 0.422619 -0.000002
vn -0.906308 0.422618 -0.000001
vn 0.422622 0.906306 0.000000
vn 0.422622 0.906306 0.000000
vn 0.422622 0.906306 0.000000
vn 0.422622 0.906306 0.000000
vn -0.422622 -0.906306 0.000000
vn -0.422622 -0.906306 0.000000
vn -0.422622 -0.906306 0.000000
vn -0.422622 -0.906306 0.000000
vn 0.306042 0.656313 0.689632
vn 0.306042 0.656313 0.689632
vn 0.306042 0.656313 0.689632
vn 0.306042 0.656313 0.689632
vn -0.279330 -0.599018 0.750435
vn -0.279330 -0.599018 0.750435
vn -0.279330 -0.599018 0.750435
vn -0.279330 -0.599018 0.750435
vn -0.422622 -0.906306 0.000000
vn -0.422622 -0.906306 0.000000
vn -0.422622 -0.906306 0.000000
vn -0.422622 -0.906306 0.000000
vn 0.422612 0.906311 0.000000
vn 0.422612 0.906311 0.000000
vn 0.422612 0.906311 0.000000
vn 0.422612 0.906311 0.000000
vn -0.210554 -0.451530 0.867057
vn -0.210554 -0.451530 0.867057
vn -0.210554 -0.451530 0.867057
vn -0.210554 -0.451530 0.867057
vn 0.265102 0.568506 0.778795
vn 0.265102 0.568506 0.778795
vn 0.265102 0.568506 0.778795
vn 0.265102 0.568506 0.778795
vn 0.249142 0.534292 -0.807750
vn 0.249142 0.534292 -0.807750
vn 0.249142 0.534292 -0.807750
vn 0.249142 0.534292 -0.807750
vn -0.215556 -0.462259 -0.860146
vn -0.215556 -0.462259 -0.860146
vn -0.215556 -0.462260 -0.860146
vn -0.215556 -0.462259 -0.860146
usemtl material
f 1/0/1 2/0/2 3/0/3
f 1/0/1 3/0/3 4/0/4
f 4/0/4 3/0/3 5/0/5
f 4/0/4 5/0/5 6/0/6
f 7/0/7 6/0/6 5/0/5
f 7/0/7 5/0/5 8/0/8
f 2/0/2 1/0/1 9/0/9
f 7/0/7 8/0/8 10/0/10
f 11/0/11 12/0/12 13/0/13
f 11/0/11 13/0/13 14/0/14
f 15/0/15 11/0/11 14/0/14
f 15/0/15 14/0/14 16/0/16
f 15/0/15 16/0/16 17/0/17
f 15/0/15 17/0/17 18/0/18
f 13/0/13 12/0/12 19/0/19
f 18/0/18 17/0/17 20/0/20
f 21/0/21 22/0/22 23/0/23
f 21/0/21 23/0/23 24/0/24
f 25/0/25 26/0/26 27/0/27
f 25/0/25 27/0/27 28/0/28
f 29/0/29 30/0/30 31/0/31
f 29/0/29 31/0/31 32/0/32
f 33/0/33 34/0/34 35/0/35
f 33/0/33 35/0/35 36/0/36
f 37/0/37 38/0/38 39/0/39
f 37/0/37 39/0/39 40/0/40
f 41/0/41 42/0/42 43/0/43
f 41/0/41 43/0/43 44/0/44
f 45/0/45 46/0/46 47/0/47
f 45/0/45 47/0/47 48/0/48
f 49/0/49 50/0/50 51/0/51
f 49/0/49 51/0/51 52/0/52
f 53/0/53 54/0/54 55/0/55
f 53/0/53 55/0/55 56/0/56
f 57/0/57 58/0/58 59/0/59
f 57/0/57 59/0/59 60/0/60
