# 
# Wavefront OBJ file
# Created with Kaydara FBX
# 
mtllib pasted__boss_cross_t6_w68.mtl

g pasted__Boss_Cross_T6_W68
v 0.245473 0.513557 -0.072140
v 0.020049 0.052554 -0.024208
v 0.161212 0.488496 -0.136692
v 0.022389 0.027895 -0.001901
v -0.003603 0.034403 -0.009300
v 0.076967 0.555744 -0.120106
v 0.117350 0.577210 -0.116410
v 0.148446 0.627839 -0.121985
v 0.205565 0.647009 -0.153086
v 0.224454 0.608810 -0.100348
v 0.222796 0.550810 -0.086393
v 0.000000 0.000000 -0.000000
v 0.148236 0.670518 -0.132572
v 0.248568 0.645399 -0.104013
v 0.247462 0.701138 -0.118025
v 0.180442 0.717918 -0.137103
v 0.259671 0.836809 -0.176226
v 0.228153 0.850804 -0.159292
v 0.273494 0.873478 -0.192532
v 0.226464 0.890950 -0.169584
v 0.283535 0.915952 -0.190454
v 0.253782 0.926734 -0.172334
v 0.301513 0.914784 -0.158747
v 0.304931 0.871305 -0.147248
v 0.533300 1.852279 -0.338640
v 0.562727 1.841831 -0.356915
v 0.580236 1.840528 -0.325280
v 0.280966 0.837582 -0.144258
v 0.527940 1.882330 -0.347256
v 0.573120 1.867552 -0.370803
v 0.612368 2.000585 -0.391674
v 0.568350 2.013964 -0.370763
v 0.585773 2.032830 -0.371540
v 0.601694 1.863865 -0.326261
v 0.640772 1.995832 -0.350147
v 0.636373 2.020162 -0.357136
v 0.622977 2.043648 -0.391072
v 0.597057 2.073089 -0.378969
v 0.640347 2.095922 -0.406113
v 0.649248 2.060022 -0.364112
v 0.674721 2.076813 -0.362583
v 0.665950 2.099204 -0.370067
v 0.719263 2.147815 -0.370193
v 0.662932 2.165614 -0.424160
v 0.707001 2.190476 -0.383462
v 0.586102 2.181154 -0.408100
v 0.620565 2.212116 -0.408067
v 0.604673 2.114546 -0.387510
v 0.584577 2.099381 -0.388242
v 0.709444 2.261022 -0.400341
v 0.694491 2.303133 -0.414074
v 0.658024 2.273896 -0.414978
v 0.245473 0.513557 -0.072140
v 0.013750 0.059535 0.004056
v 0.022389 0.027895 -0.001901
v 0.140360 0.511608 -0.043113
v 0.000000 0.000000 -0.000000
v -0.003603 0.034403 -0.009300
v 0.222796 0.550810 -0.086393
v 0.224454 0.608810 -0.100348
v 0.189878 0.664397 -0.082687
v 0.148446 0.627839 -0.121985
v 0.117350 0.577210 -0.116410
v 0.076967 0.555744 -0.120106
v 0.148236 0.670518 -0.132572
v 0.180442 0.717918 -0.137103
v 0.248568 0.645399 -0.104013
v 0.248671 0.849000 -0.126861
v 0.247462 0.701138 -0.118025
v 0.280966 0.837582 -0.144258
v 0.258349 0.890265 -0.124566
v 0.228153 0.850804 -0.159292
v 0.226464 0.890950 -0.169584
v 0.272537 0.928144 -0.141090
v 0.253782 0.926734 -0.172334
v 0.301513 0.914784 -0.158747
v 0.304931 0.871305 -0.147248
v 0.533300 1.852279 -0.338640
v 0.551727 1.854023 -0.307551
v 0.580236 1.840528 -0.325280
v 0.527940 1.882330 -0.347256
v 0.558168 1.884126 -0.303700
v 0.568350 2.013964 -0.370763
v 0.598716 2.015718 -0.330405
v 0.585773 2.032830 -0.371540
v 0.640772 1.995832 -0.350147
v 0.636373 2.020162 -0.357136
v 0.601694 1.863865 -0.326261
v 0.612886 2.054833 -0.345783
v 0.597057 2.073089 -0.378969
v 0.649248 2.060022 -0.364112
v 0.627847 2.109777 -0.350017
v 0.584577 2.099381 -0.388242
v 0.604673 2.114546 -0.387510
v 0.586102 2.181154 -0.408100
v 0.648079 2.182078 -0.357498
v 0.620565 2.212116 -0.408067
v 0.719263 2.147815 -0.370193
v 0.707001 2.190476 -0.383462
v 0.665950 2.099204 -0.370067
v 0.674721 2.076813 -0.362583
v 0.709444 2.261022 -0.400341
v 0.694491 2.303133 -0.414074
v 0.658024 2.273896 -0.414978
vt 0.957723 0.382191
vt 0.976790 0.482691
vt 0.976790 0.389456
vt 0.973849 0.487919
vt 0.979731 0.487919
vt 0.995857 0.382191
vt 0.988722 0.376026
vt 0.985391 0.364621
vt 0.976790 0.356772
vt 0.968190 0.364621
vt 0.964858 0.376026
vt 0.976790 0.494459
vt 0.988143 0.356298
vt 0.965437 0.356298
vt 0.969206 0.345470
vt 0.984374 0.345470
vt 0.976790 0.317463
vt 0.982766 0.317192
vt 0.976790 0.309280
vt 0.985669 0.309436
vt 0.976790 0.300844
vt 0.982191 0.301114
vt 0.971389 0.301114
vt 0.967911 0.309436
vt 0.982101 0.106744
vt 0.976790 0.106424
vt 0.971479 0.106744
vt 0.970814 0.317192
vt 0.985136 0.101138
vt 0.976790 0.100563
vt 0.976790 0.072779
vt 0.984985 0.073462
vt 0.982516 0.068927
vt 0.968445 0.101138
vt 0.968595 0.073462
vt 0.971065 0.068927
vt 0.976790 0.064151
vt 0.982696 0.060515
vt 0.976790 0.052894
vt 0.970885 0.060515
vt 0.966590 0.055992
vt 0.969856 0.052049
vt 0.961722 0.039952
vt 0.976790 0.037986
vt 0.967009 0.032222
vt 0.991858 0.039952
vt 0.986571 0.032222
vt 0.983724 0.052049
vt 0.986990 0.055992
vt 0.970972 0.018329
vt 0.976790 0.010838
vt 0.982608 0.018329
vt 0.995857 0.382191
vt 0.976790 0.482691
vt 0.979731 0.487919
vt 0.976790 0.389456
vt 0.976790 0.494459
vt 0.973849 0.487919
vt 0.988722 0.376026
vt 0.985391 0.364621
vt 0.976790 0.356772
vt 0.968190 0.364621
vt 0.964858 0.376026
vt 0.957723 0.382191
vt 0.965437 0.356298
vt 0.969206 0.345470
vt 0.988143 0.356298
vt 0.976790 0.317463
vt 0.984374 0.345470
vt 0.982766 0.317192
vt 0.976790 0.309280
vt 0.970814 0.317192
vt 0.967911 0.309436
vt 0.976790 0.300844
vt 0.971389 0.301114
vt 0.982191 0.301114
vt 0.985669 0.309436
vt 0.971479 0.106744
vt 0.976790 0.106424
vt 0.982101 0.106744
vt 0.968445 0.101138
vt 0.976790 0.100563
vt 0.968595 0.073462
vt 0.976790 0.072779
vt 0.971065 0.068927
vt 0.984985 0.073462
vt 0.982516 0.068927
vt 0.985136 0.101138
vt 0.976790 0.064151
vt 0.970884 0.060515
vt 0.982696 0.060515
vt 0.976790 0.052894
vt 0.966590 0.055992
vt 0.969856 0.052049
vt 0.961722 0.039952
vt 0.976790 0.037986
vt 0.967009 0.032222
vt 0.991858 0.039952
vt 0.986571 0.032222
vt 0.983724 0.052049
vt 0.986990 0.055992
vt 0.982608 0.018329
vt 0.976790 0.010838
vt 0.970972 0.018329
vn 0.634621 -0.341339 -0.693356
vn 0.334355 -0.359281 -0.871277
vn 0.179856 -0.285646 -0.941307
vn 0.709525 -0.434525 -0.554763
vn -0.369650 -0.142404 -0.918194
vn -0.284547 -0.121959 -0.950873
vn -0.188244 0.129529 -0.973543
vn -0.451506 0.013250 -0.892170
vn 0.229023 -0.174154 -0.957716
vn 0.787940 -0.297064 -0.539354
vn 0.682235 -0.088387 -0.725771
vn 0.135879 -0.456805 -0.879128
vn -0.347496 -0.029536 -0.937216
vn 0.713745 -0.295247 -0.635135
vn 0.799579 -0.273688 -0.534572
vn -0.452324 0.039737 -0.890968
vn 0.209236 -0.241758 -0.947509
vn -0.480953 -0.049975 -0.875321
vn 0.185167 -0.212213 -0.959520
vn -0.464588 -0.042034 -0.884529
vn 0.211022 -0.220237 -0.952347
vn -0.515678 0.016486 -0.856624
vn 0.817798 -0.317577 -0.479949
vn 0.772674 -0.314410 -0.551472
vn -0.528723 -0.005460 -0.848777
vn 0.206577 -0.250567 -0.945802
vn 0.816006 -0.342152 -0.465904
vn 0.773942 -0.364184 -0.518058
vn -0.470693 -0.043570 -0.881221
vn 0.203506 -0.260399 -0.943810
vn 0.225455 -0.186648 -0.956207
vn -0.427829 0.005272 -0.903844
vn -0.433594 0.132634 -0.891294
vn 0.772000 -0.354712 -0.527443
vn 0.772528 -0.295241 -0.562168
vn 0.826369 -0.182832 -0.532623
vn 0.214397 -0.224477 -0.950602
vn -0.426284 -0.200228 -0.882151
vn 0.161808 -0.386231 -0.908099
vn 0.670612 -0.474849 -0.569910
vn 0.594179 -0.449945 -0.666709
vn 0.721209 -0.512960 -0.465543
vn 0.637383 -0.312481 -0.704342
vn 0.226735 -0.182211 -0.956761
vn 0.710961 -0.128424 -0.691406
vn -0.263383 -0.086946 -0.960765
vn -0.244381 0.110757 -0.963333
vn -0.532830 -0.199016 -0.822487
vn -0.309968 -0.223546 -0.924093
vn 0.603805 -0.096825 -0.791230
vn 0.275484 0.007293 -0.961278
vn -0.100582 0.079538 -0.991744
vn 0.265821 0.067402 0.961663
vn -0.080590 0.100812 0.991636
vn 0.380535 -0.069746 0.922133
vn -0.242240 0.182199 0.952955
vn -0.274290 -0.002183 0.961645
vn -0.719114 0.244980 0.650277
vn 0.321246 0.311706 0.894226
vn 0.471630 0.053540 0.880170
vn -0.193000 0.293619 0.936237
vn -0.767799 0.363846 0.527353
vn -0.549172 0.529627 0.646456
vn -0.652728 0.286149 0.701474
vn -0.695398 0.356096 0.624193
vn -0.765495 0.386790 0.514209
vn 0.365834 0.090392 0.926280
vn -0.213698 0.226932 0.950176
vn 0.486509 0.073357 0.870591
vn 0.460742 -0.017060 0.887370
vn -0.237479 0.256200 0.936998
vn -0.794173 0.297113 0.530106
vn -0.782155 0.309924 0.540538
vn -0.211833 0.248414 0.945207
vn -0.811684 0.344521 0.471673
vn 0.520628 0.011818 0.853702
vn 0.451151 0.041964 0.891461
vn -0.822594 0.320222 0.469890
vn -0.216264 0.218052 0.951674
vn 0.522170 -0.016509 0.852682
vn -0.792209 0.298419 0.532307
vn -0.222529 0.196828 0.954851
vn -0.753573 0.372815 0.541421
vn -0.193531 0.291902 0.936664
vn -0.739323 0.471492 0.480726
vn 0.457917 0.069493 0.886275
vn 0.520673 0.156046 0.839374
vn 0.458779 -0.014798 0.888427
vn -0.208443 0.244182 0.947062
vn -0.761959 0.171850 0.624408
vn 0.334862 -0.102770 0.936646
vn -0.255330 0.076101 0.963854
vn -0.675201 0.181244 0.715020
vn -0.834946 0.135836 0.533305
vn -0.633972 0.323796 0.702307
vn -0.195487 0.285786 0.938143
vn -0.598082 0.502800 0.624091
vn 0.266804 0.098260 0.958729
vn 0.357299 0.263616 0.896016
vn 0.419076 -0.178102 0.890312
vn 0.228943 -0.045100 0.972395
vn 0.222675 0.325546 0.918932
vn -0.134197 0.461329 0.877021
vn -0.481622 0.501927 0.718408
usemtl material
f 1/0/1 2/0/2 3/0/3
f 2/0/2 1/0/1 4/0/4
f 5/0/5 3/0/3 2/0/2
f 3/0/3 5/0/5 6/0/6
f 7/0/7 3/0/3 6/0/6
f 8/0/8 3/0/3 7/0/7
f 3/0/3 8/0/8 9/0/9
f 10/0/10 3/0/3 9/0/9
f 3/0/3 10/0/10 11/0/11
f 1/0/1 3/0/3 11/0/11
f 5/0/5 2/0/2 12/0/12
f 2/0/2 4/0/4 12/0/12
f 9/0/9 8/0/8 13/0/13
f 10/0/10 9/0/9 14/0/14
f 14/0/14 9/0/9 15/0/15
f 16/0/16 9/0/9 13/0/13
f 16/0/16 17/0/17 9/0/9
f 17/0/17 15/0/15 9/0/9
f 17/0/17 16/0/16 18/0/18
f 18/0/18 19/0/19 17/0/17
f 19/0/19 18/0/18 20/0/20
f 20/0/20 21/0/21 19/0/19
f 21/0/21 20/0/20 22/0/22
f 23/0/23 19/0/19 21/0/21
f 19/0/19 23/0/23 24/0/24
f 25/0/25 21/0/21 22/0/22
f 21/0/21 25/0/25 26/0/26
f 21/0/21 27/0/27 23/0/23
f 27/0/27 21/0/21 26/0/26
f 19/0/19 28/0/28 17/0/17
f 28/0/28 19/0/19 24/0/24
f 15/0/15 17/0/17 28/0/28
f 29/0/29 26/0/26 25/0/25
f 26/0/26 29/0/29 30/0/30
f 29/0/29 31/0/31 30/0/30
f 31/0/31 29/0/29 32/0/32
f 31/0/31 32/0/32 33/0/33
f 31/0/31 34/0/34 30/0/30
f 26/0/26 34/0/34 27/0/27
f 34/0/34 26/0/26 30/0/30
f 34/0/34 31/0/31 35/0/35
f 36/0/36 35/0/35 31/0/31
f 31/0/31 33/0/33 37/0/37
f 36/0/36 31/0/31 37/0/37
f 37/0/37 33/0/33 38/0/38
f 37/0/37 38/0/38 39/0/39
f 40/0/40 36/0/36 37/0/37
f 39/0/39 40/0/40 37/0/37
f 41/0/41 40/0/40 39/0/39
f 42/0/42 41/0/41 39/0/39
f 39/0/39 43/0/43 42/0/42
f 43/0/43 39/0/39 44/0/44
f 43/0/43 44/0/44 45/0/45
f 39/0/39 46/0/46 44/0/44
f 44/0/44 46/0/46 47/0/47
f 46/0/46 39/0/39 48/0/48
f 39/0/39 49/0/49 48/0/48
f 39/0/39 38/0/38 49/0/49
f 44/0/44 50/0/50 45/0/45
f 51/0/51 50/0/50 44/0/44
f 51/0/51 44/0/44 52/0/52
f 52/0/52 44/0/44 47/0/47
f 53/0/53 54/0/54 55/0/55
f 54/0/54 53/0/53 56/0/56
f 57/0/57 55/0/55 54/0/54
f 58/0/58 57/0/57 54/0/54
f 56/0/56 58/0/58 54/0/54
f 56/0/56 53/0/53 59/0/59
f 60/0/60 56/0/56 59/0/59
f 56/0/56 60/0/60 61/0/61
f 62/0/62 56/0/56 61/0/61
f 56/0/56 62/0/62 63/0/63
f 56/0/56 63/0/63 64/0/64
f 58/0/58 56/0/56 64/0/64
f 62/0/62 61/0/61 65/0/65
f 65/0/65 61/0/61 66/0/66
f 61/0/61 60/0/60 67/0/67
f 68/0/68 66/0/66 61/0/61
f 69/0/69 68/0/68 61/0/61
f 69/0/69 61/0/61 67/0/67
f 68/0/68 69/0/69 70/0/70
f 70/0/70 71/0/71 68/0/68
f 71/0/71 72/0/72 68/0/68
f 66/0/66 68/0/68 72/0/72
f 72/0/72 71/0/71 73/0/73
f 74/0/74 73/0/73 71/0/71
f 73/0/73 74/0/74 75/0/75
f 71/0/71 76/0/76 74/0/74
f 76/0/76 71/0/71 77/0/77
f 71/0/71 70/0/70 77/0/77
f 74/0/74 78/0/78 75/0/75
f 78/0/78 74/0/74 79/0/79
f 80/0/80 74/0/74 76/0/76
f 74/0/74 80/0/80 79/0/79
f 79/0/79 81/0/81 78/0/78
f 81/0/81 79/0/79 82/0/82
f 82/0/82 83/0/83 81/0/81
f 83/0/83 82/0/82 84/0/84
f 85/0/85 83/0/83 84/0/84
f 82/0/82 86/0/86 84/0/84
f 84/0/84 86/0/86 87/0/87
f 86/0/86 82/0/82 88/0/88
f 88/0/88 79/0/79 80/0/80
f 79/0/79 88/0/88 82/0/82
f 85/0/85 84/0/84 89/0/89
f 84/0/84 87/0/87 89/0/89
f 90/0/90 85/0/85 89/0/89
f 89/0/89 87/0/87 91/0/91
f 89/0/89 91/0/91 92/0/92
f 92/0/92 90/0/90 89/0/89
f 93/0/93 90/0/90 92/0/92
f 94/0/94 93/0/93 92/0/92
f 92/0/92 95/0/95 94/0/94
f 95/0/95 92/0/92 96/0/96
f 95/0/95 96/0/96 97/0/97
f 92/0/92 98/0/98 96/0/96
f 96/0/96 98/0/98 99/0/99
f 98/0/98 92/0/92 100/0/100
f 92/0/92 101/0/101 100/0/100
f 92/0/92 91/0/91 101/0/101
f 102/0/102 96/0/96 99/0/99
f 103/0/103 96/0/96 102/0/102
f 103/0/103 104/0/104 96/0/96
f 96/0/96 104/0/104 97/0/97
