# 
# Wavefront OBJ file
# Created with Kaydara FBX
# 
mtllib pasted__boss_cross_t6_w41.mtl

g pasted__Boss_Cross_T6_W41
v -0.024449 0.568581 -0.072927
v -0.012303 0.055862 -0.021862
v -0.107030 0.509167 -0.112232
v 0.007048 0.034797 -0.004747
v -0.020180 0.029426 -0.003146
v -0.200955 0.533765 -0.062556
v -0.174117 0.570547 -0.068217
v -0.170149 0.629581 -0.076004
v -0.139439 0.671198 -0.119848
v -0.090531 0.645286 -0.080682
v -0.063664 0.592334 -0.074707
v 0.000000 -0.000000 -0.000000
v -0.191243 0.667926 -0.080277
v -0.086147 0.688657 -0.086453
v -0.114463 0.738379 -0.091962
v -0.184667 0.724531 -0.087836
v -0.178536 0.865610 -0.132580
v -0.205612 0.864826 -0.105336
v -0.187072 0.904521 -0.147232
v -0.226834 0.900252 -0.109226
v -0.195219 0.947199 -0.142608
v -0.219091 0.944283 -0.115194
v -0.169093 0.954145 -0.118131
v -0.144641 0.916464 -0.114056
v -0.413795 1.898616 -0.232500
v -0.390390 1.901691 -0.259919
v -0.364631 1.908314 -0.235389
v -0.150292 0.875738 -0.108587
v -0.433469 1.923364 -0.235057
v -0.396581 1.929265 -0.272720
v -0.424370 2.066061 -0.286438
v -0.460554 2.059376 -0.251797
v -0.453676 2.083895 -0.255205
v -0.356212 1.938603 -0.239596
v -0.384693 2.074339 -0.256254
v -0.400675 2.094350 -0.258320
v -0.432755 2.109503 -0.283297
v -0.462955 2.125028 -0.260232
v -0.444243 2.164036 -0.295735
v -0.408285 2.135812 -0.263444
v -0.392949 2.161940 -0.267341
v -0.412026 2.178316 -0.268833
v -0.386521 2.245133 -0.278344
v -0.459391 2.236511 -0.310249
v -0.418753 2.278254 -0.281570
v -0.526006 2.217619 -0.270148
v -0.509293 2.260395 -0.276250
v -0.476213 2.165655 -0.265061
v -0.487373 2.143314 -0.261793
v -0.451039 2.342844 -0.288875
v -0.485490 2.374309 -0.291813
v -0.504900 2.332220 -0.285711
v -0.024449 0.568581 -0.072927
v -0.011324 0.059691 0.007660
v 0.007048 0.034797 -0.004747
v -0.103787 0.521844 -0.014484
v 0.000000 -0.000000 -0.000000
v -0.020180 0.029426 -0.003146
v -0.063664 0.592334 -0.074707
v -0.090531 0.645286 -0.080682
v -0.136999 0.680735 -0.046311
v -0.170149 0.629581 -0.076004
v -0.174117 0.570547 -0.068217
v -0.200955 0.533765 -0.062556
v -0.191243 0.667926 -0.080277
v -0.184667 0.724531 -0.087836
v -0.086147 0.688657 -0.086453
v -0.176825 0.872297 -0.081016
v -0.114463 0.738379 -0.091962
v -0.150292 0.875738 -0.108587
v -0.184717 0.913728 -0.076239
v -0.205612 0.864826 -0.105336
v -0.226834 0.900252 -0.109226
v -0.193508 0.953886 -0.091044
v -0.219091 0.944283 -0.115194
v -0.169093 0.954145 -0.118131
v -0.144641 0.916464 -0.114056
v -0.413795 1.898616 -0.232500
v -0.388679 1.908379 -0.208355
v -0.364631 1.908314 -0.235389
v -0.433469 1.923364 -0.235057
v -0.394255 1.938355 -0.202628
v -0.460554 2.059376 -0.251797
v -0.422247 2.074361 -0.222438
v -0.453676 2.083895 -0.255205
v -0.384693 2.074339 -0.256254
v -0.400675 2.094350 -0.258320
v -0.356212 1.938603 -0.239596
v -0.431186 2.115638 -0.235991
v -0.462955 2.125028 -0.260232
v -0.408285 2.135812 -0.263444
v -0.442299 2.171635 -0.237138
v -0.487373 2.143314 -0.261793
v -0.476213 2.165655 -0.265061
v -0.526006 2.217619 -0.270148
v -0.457081 2.245541 -0.240615
v -0.509293 2.260395 -0.276250
v -0.386521 2.245133 -0.278344
v -0.418753 2.278254 -0.281570
v -0.412026 2.178316 -0.268833
v -0.392949 2.161940 -0.267341
v -0.451039 2.342844 -0.288875
v -0.485490 2.374309 -0.291813
v -0.504900 2.332220 -0.285711
vt 0.957723 0.382191
vt 0.976790 0.482691
vt 0.976790 0.389456
vt 0.973849 0.487919
vt 0.979731 0.487919
vt 0.995857 0.382191
vt 0.988722 0.376026
vt 0.985391 0.364621
vt 0.976790 0.356772
vt 0.968190 0.364621
vt 0.964858 0.376026
vt 0.976790 0.494459
vt 0.988143 0.356298
vt 0.965437 0.356298
vt 0.969206 0.345470
vt 0.984374 0.345470
vt 0.976790 0.317463
vt 0.982766 0.317192
vt 0.976790 0.309280
vt 0.985669 0.309436
vt 0.976790 0.300844
vt 0.982191 0.301114
vt 0.971389 0.301114
vt 0.967911 0.309436
vt 0.982101 0.106744
vt 0.976790 0.106424
vt 0.971479 0.106744
vt 0.970814 0.317192
vt 0.985136 0.101138
vt 0.976790 0.100563
vt 0.976790 0.072779
vt 0.984985 0.073462
vt 0.982516 0.068927
vt 0.968445 0.101138
vt 0.968595 0.073462
vt 0.971065 0.068927
vt 0.976790 0.064151
vt 0.982696 0.060515
vt 0.976790 0.052894
vt 0.970885 0.060515
vt 0.966590 0.055992
vt 0.969856 0.052049
vt 0.961722 0.039952
vt 0.976790 0.037986
vt 0.967009 0.032222
vt 0.991858 0.039952
vt 0.986571 0.032222
vt 0.983724 0.052049
vt 0.986990 0.055992
vt 0.970972 0.018329
vt 0.976790 0.010838
vt 0.982608 0.018329
vt 0.995857 0.382191
vt 0.976790 0.482691
vt 0.979731 0.487919
vt 0.976790 0.389456
vt 0.976790 0.494459
vt 0.973849 0.487919
vt 0.988722 0.376026
vt 0.985391 0.364621
vt 0.976790 0.356772
vt 0.968190 0.364621
vt 0.964858 0.376026
vt 0.957723 0.382191
vt 0.965437 0.356298
vt 0.969206 0.345470
vt 0.988143 0.356298
vt 0.976790 0.317463
vt 0.984374 0.345470
vt 0.982766 0.317192
vt 0.976790 0.309280
vt 0.970814 0.317192
vt 0.967911 0.309436
vt 0.976790 0.300844
vt 0.971389 0.301114
vt 0.982191 0.301114
vt 0.985669 0.309436
vt 0.971479 0.106744
vt 0.976790 0.106424
vt 0.982101 0.106744
vt 0.968445 0.101138
vt 0.976790 0.100563
vt 0.968595 0.073462
vt 0.976790 0.072779
vt 0.971065 0.068927
vt 0.984985 0.073462
vt 0.982516 0.068927
vt 0.985136 0.101138
vt 0.976790 0.064151
vt 0.970884 0.060515
vt 0.982696 0.060515
vt 0.976790 0.052894
vt 0.966590 0.055992
vt 0.969856 0.052049
vt 0.961722 0.039952
vt 0.976790 0.037986
vt 0.967009 0.032222
vt 0.991858 0.039952
vt 0.986571 0.032222
vt 0.983724 0.052049
vt 0.986990 0.055992
vt 0.982608 0.018329
vt 0.976790 0.010838
vt 0.970972 0.018329
vn 0.454818 -0.040902 -0.889644
vn 0.148292 -0.187767 -0.970955
vn -0.036335 -0.188359 -0.981428
vn 0.601901 -0.091631 -0.793296
vn -0.555777 -0.295274 -0.777127
vn -0.502273 -0.240479 -0.830597
vn -0.530459 0.027787 -0.847255
vn -0.680783 -0.189779 -0.707473
vn -0.045411 -0.066712 -0.996738
vn 0.617524 0.066321 -0.783751
vn 0.381325 0.207637 -0.900821
vn 0.016509 -0.361257 -0.932320
vn -0.589299 -0.184037 -0.786675
vn 0.522349 0.035242 -0.852003
vn 0.619434 0.092460 -0.779585
vn -0.691977 -0.166213 -0.702525
vn -0.031309 -0.136174 -0.990190
vn -0.674544 -0.259397 -0.691161
vn -0.067815 -0.119975 -0.990458
vn -0.666836 -0.245255 -0.703690
vn -0.040133 -0.116010 -0.992437
vn -0.725254 -0.214194 -0.654315
vn 0.670719 0.061167 -0.739185
vn 0.607655 0.043981 -0.792982
vn -0.724880 -0.239555 -0.645882
vn -0.029491 -0.145277 -0.988951
vn 0.683775 0.038308 -0.728686
vn 0.639973 -0.000097 -0.768398
vn -0.670337 -0.249251 -0.698944
vn -0.027358 -0.155451 -0.987465
vn -0.042841 -0.079497 -0.995914
vn -0.661143 -0.186859 -0.726618
vn -0.714116 -0.074291 -0.696074
vn 0.631389 0.007517 -0.775430
vn 0.596205 0.061149 -0.800500
vn 0.605699 0.186042 -0.773639
vn -0.034967 -0.118397 -0.992350
vn -0.568648 -0.371570 -0.733877
vn 0.000246 -0.286657 -0.958033
vn 0.580316 -0.144930 -0.801392
vn 0.473489 -0.156095 -0.866858
vn 0.673027 -0.156659 -0.722837
vn 0.441786 -0.013746 -0.897015
vn -0.043751 -0.074957 -0.996227
vn 0.433408 0.184160 -0.882181
vn -0.501807 -0.199872 -0.841571
vn -0.567324 -0.013232 -0.823388
vn -0.640543 -0.415756 -0.645641
vn -0.473634 -0.342926 -0.811217
vn 0.296580 0.165748 -0.940515
vn -0.081247 0.117035 -0.989799
vn -0.441240 0.020193 -0.897162
vn 0.512171 0.183295 0.839097
vn 0.212903 0.064589 0.974936
vn 0.653083 0.108440 0.749482
vn 0.029302 0.068250 0.997238
vn 0.080271 -0.111883 0.990474
vn -0.501405 -0.082798 0.861242
vn 0.437452 0.427084 0.791350
vn 0.666725 0.258616 0.698996
vn 0.020231 0.189861 0.981602
vn -0.631613 0.002520 0.775280
vn -0.474315 0.247241 0.844925
vn -0.445014 -0.016643 0.895369
vn -0.535181 0.027481 0.844290
vn -0.643262 0.024142 0.765265
vn 0.576489 0.246754 0.778957
vn 0.034429 0.120896 0.992068
vn 0.668124 0.282822 0.688202
vn 0.688664 0.190284 0.699667
vn -0.002097 0.136940 0.990577
vn -0.625842 -0.069015 0.776890
vn -0.617439 -0.052218 0.784883
vn 0.025661 0.141041 0.989671
vn -0.679197 -0.034258 0.733156
vn 0.716941 0.241821 0.653849
vn 0.657649 0.239445 0.714257
vn -0.679174 -0.060938 0.731444
vn 0.036319 0.111768 0.993070
vn 0.729503 0.216933 0.648665
vn -0.624004 -0.067003 0.778543
vn 0.040730 0.089941 0.995114
vn -0.618564 0.016850 0.785554
vn 0.020594 0.188089 0.981936
vn -0.666571 0.111567 0.737046
vn 0.650469 0.267183 0.710987
vn 0.653265 0.371912 0.659490
vn 0.686420 0.191482 0.701542
vn 0.030812 0.138671 0.989859
vn -0.516425 -0.167483 0.839794
vn 0.632519 0.059152 0.772283
vn 0.065124 -0.033077 0.997329
vn -0.416836 -0.120875 0.900909
vn -0.593557 -0.232110 0.770594
vn -0.444156 0.025416 0.895589
vn 0.021921 0.181736 0.983103
vn -0.512311 0.201815 0.834751
vn 0.499404 0.211539 0.840147
vn 0.488421 0.399191 0.775946
vn 0.720026 0.027005 0.693421
vn 0.530263 0.065937 0.845265
vn 0.355885 0.397407 0.845821
vn -0.017551 0.366062 0.930425
vn -0.382021 0.251852 0.889174
usemtl material
f 1/0/1 2/0/2 3/0/3
f 2/0/2 1/0/1 4/0/4
f 5/0/5 3/0/3 2/0/2
f 3/0/3 5/0/5 6/0/6
f 7/0/7 3/0/3 6/0/6
f 8/0/8 3/0/3 7/0/7
f 3/0/3 8/0/8 9/0/9
f 10/0/10 3/0/3 9/0/9
f 3/0/3 10/0/10 11/0/11
f 1/0/1 3/0/3 11/0/11
f 5/0/5 2/0/2 12/0/12
f 2/0/2 4/0/4 12/0/12
f 9/0/9 8/0/8 13/0/13
f 10/0/10 9/0/9 14/0/14
f 14/0/14 9/0/9 15/0/15
f 16/0/16 9/0/9 13/0/13
f 16/0/16 17/0/17 9/0/9
f 17/0/17 15/0/15 9/0/9
f 17/0/17 16/0/16 18/0/18
f 18/0/18 19/0/19 17/0/17
f 19/0/19 18/0/18 20/0/20
f 20/0/20 21/0/21 19/0/19
f 21/0/21 20/0/20 22/0/22
f 23/0/23 19/0/19 21/0/21
f 19/0/19 23/0/23 24/0/24
f 25/0/25 21/0/21 22/0/22
f 21/0/21 25/0/25 26/0/26
f 21/0/21 27/0/27 23/0/23
f 27/0/27 21/0/21 26/0/26
f 19/0/19 28/0/28 17/0/17
f 28/0/28 19/0/19 24/0/24
f 15/0/15 17/0/17 28/0/28
f 29/0/29 26/0/26 25/0/25
f 26/0/26 29/0/29 30/0/30
f 29/0/29 31/0/31 30/0/30
f 31/0/31 29/0/29 32/0/32
f 31/0/31 32/0/32 33/0/33
f 31/0/31 34/0/34 30/0/30
f 26/0/26 34/0/34 27/0/27
f 34/0/34 26/0/26 30/0/30
f 34/0/34 31/0/31 35/0/35
f 36/0/36 35/0/35 31/0/31
f 31/0/31 33/0/33 37/0/37
f 36/0/36 31/0/31 37/0/37
f 37/0/37 33/0/33 38/0/38
f 37/0/37 38/0/38 39/0/39
f 40/0/40 36/0/36 37/0/37
f 39/0/39 40/0/40 37/0/37
f 41/0/41 40/0/40 39/0/39
f 42/0/42 41/0/41 39/0/39
f 39/0/39 43/0/43 42/0/42
f 43/0/43 39/0/39 44/0/44
f 43/0/43 44/0/44 45/0/45
f 39/0/39 46/0/46 44/0/44
f 44/0/44 46/0/46 47/0/47
f 46/0/46 39/0/39 48/0/48
f 39/0/39 49/0/49 48/0/48
f 39/0/39 38/0/38 49/0/49
f 44/0/44 50/0/50 45/0/45
f 51/0/51 50/0/50 44/0/44
f 51/0/51 44/0/44 52/0/52
f 52/0/52 44/0/44 47/0/47
f 53/0/53 54/0/54 55/0/55
f 54/0/54 53/0/53 56/0/56
f 57/0/57 55/0/55 54/0/54
f 58/0/58 57/0/57 54/0/54
f 56/0/56 58/0/58 54/0/54
f 56/0/56 53/0/53 59/0/59
f 60/0/60 56/0/56 59/0/59
f 56/0/56 60/0/60 61/0/61
f 62/0/62 56/0/56 61/0/61
f 56/0/56 62/0/62 63/0/63
f 56/0/56 63/0/63 64/0/64
f 58/0/58 56/0/56 64/0/64
f 62/0/62 61/0/61 65/0/65
f 65/0/65 61/0/61 66/0/66
f 61/0/61 60/0/60 67/0/67
f 68/0/68 66/0/66 61/0/61
f 69/0/69 68/0/68 61/0/61
f 69/0/69 61/0/61 67/0/67
f 68/0/68 69/0/69 70/0/70
f 70/0/70 71/0/71 68/0/68
f 71/0/71 72/0/72 68/0/68
f 66/0/66 68/0/68 72/0/72
f 72/0/72 71/0/71 73/0/73
f 74/0/74 73/0/73 71/0/71
f 73/0/73 74/0/74 75/0/75
f 71/0/71 76/0/76 74/0/74
f 76/0/76 71/0/71 77/0/77
f 71/0/71 70/0/70 77/0/77
f 74/0/74 78/0/78 75/0/75
f 78/0/78 74/0/74 79/0/79
f 80/0/80 74/0/74 76/0/76
f 74/0/74 80/0/80 79/0/79
f 79/0/79 81/0/81 78/0/78
f 81/0/81 79/0/79 82/0/82
f 82/0/82 83/0/83 81/0/81
f 83/0/83 82/0/82 84/0/84
f 85/0/85 83/0/83 84/0/84
f 82/0/82 86/0/86 84/0/84
f 84/0/84 86/0/86 87/0/87
f 86/0/86 82/0/82 88/0/88
f 88/0/88 79/0/79 80/0/80
f 79/0/79 88/0/88 82/0/82
f 85/0/85 84/0/84 89/0/89
f 84/0/84 87/0/87 89/0/89
f 90/0/90 85/0/85 89/0/89
f 89/0/89 87/0/87 91/0/91
f 89/0/89 91/0/91 92/0/92
f 92/0/92 90/0/90 89/0/89
f 93/0/93 90/0/90 92/0/92
f 94/0/94 93/0/93 92/0/92
f 92/0/92 95/0/95 94/0/94
f 95/0/95 92/0/92 96/0/96
f 95/0/95 96/0/96 97/0/97
f 92/0/92 98/0/98 96/0/96
f 96/0/96 98/0/98 99/0/99
f 98/0/98 92/0/92 100/0/100
f 92/0/92 101/0/101 100/0/100
f 92/0/92 91/0/91 101/0/101
f 102/0/102 96/0/96 99/0/99
f 103/0/103 96/0/96 102/0/102
f 103/0/103 104/0/104 96/0/96
f 96/0/96 104/0/104 97/0/97
