# 
# Wavefront OBJ file
# Created with Kaydara FBX
# 
mtllib pasted__boss_cross_t6_w39.mtl

g pasted__Boss_Cross_T6_W39
v -0.085285 0.558490 0.100080
v -0.016582 0.058701 -0.005402
v -0.155383 0.507971 0.033530
v 0.003243 0.034969 0.007047
v -0.023147 0.027155 0.003138
v -0.256361 0.507833 0.074741
v -0.233730 0.546590 0.084283
v -0.236141 0.605178 0.095376
v -0.206201 0.660882 0.070923
v -0.158974 0.628028 0.106806
v -0.126677 0.578290 0.100139
v 0.000000 -0.000000 -0.000000
v -0.261152 0.641045 0.100027
v -0.159289 0.671207 0.115115
v -0.192677 0.717626 0.121041
v -0.260719 0.697478 0.110962
v -0.266998 0.845469 0.112369
v -0.296532 0.833904 0.134048
v -0.278576 0.886179 0.109154
v -0.321356 0.866880 0.138157
v -0.292285 0.924392 0.125308
v -0.318415 0.911021 0.146947
v -0.269958 0.925370 0.154125
v -0.241693 0.890468 0.149957
v -0.613759 1.834207 0.298342
v -0.588108 1.847693 0.276681
v -0.566108 1.848317 0.305400
v -0.242915 0.849781 0.141990
v -0.635903 1.856795 0.300690
v -0.596193 1.877292 0.272104
v -0.638741 2.008656 0.296741
v -0.677336 1.988429 0.322339
v -0.673160 2.013247 0.327510
v -0.561023 1.878968 0.311781
v -0.603811 2.010201 0.333229
v -0.621788 2.028458 0.335119
v -0.652619 2.048041 0.311695
v -0.686767 2.052956 0.333940
v -0.669240 2.102576 0.314889
v -0.633780 2.068646 0.341788
v -0.621397 2.095832 0.348164
v -0.642050 2.110219 0.349064
v -0.623967 2.178473 0.363887
v -0.691429 2.174426 0.321052
v -0.659447 2.208159 0.366392
v -0.759157 2.138442 0.343863
v -0.747201 2.182174 0.353394
v -0.704261 2.091797 0.339848
v -0.712915 2.068733 0.334608
v -0.698361 2.268874 0.374576
v -0.735861 2.296720 0.376543
v -0.750565 2.253416 0.366844
v -0.085285 0.558490 0.100080
v -0.019231 0.053076 0.023728
v 0.003243 0.034969 0.007047
v -0.164155 0.489348 0.129978
v 0.000000 -0.000000 -0.000000
v -0.023147 0.027155 0.003138
v -0.126677 0.578290 0.100139
v -0.158974 0.628028 0.106806
v -0.212800 0.646872 0.143481
v -0.236141 0.605178 0.095376
v -0.233730 0.546590 0.084283
v -0.256361 0.507833 0.074741
v -0.261152 0.641045 0.100027
v -0.260719 0.697478 0.110962
v -0.159289 0.671207 0.115115
v -0.271626 0.835645 0.163247
v -0.192677 0.717626 0.121041
v -0.242915 0.849781 0.141990
v -0.284947 0.872653 0.179203
v -0.296532 0.833904 0.134048
v -0.321356 0.866880 0.138157
v -0.296911 0.914568 0.176186
v -0.318415 0.911021 0.146947
v -0.269958 0.925370 0.154125
v -0.241693 0.890468 0.149957
v -0.613759 1.834207 0.298342
v -0.592734 1.837869 0.327559
v -0.566108 1.848317 0.305400
v -0.635903 1.856795 0.300690
v -0.602484 1.863939 0.341264
v -0.677336 1.988429 0.322339
v -0.644484 1.996462 0.359890
v -0.673160 2.013247 0.327510
v -0.603811 2.010201 0.333229
v -0.621788 2.028458 0.335119
v -0.561023 1.878968 0.311781
v -0.656864 2.039028 0.358372
v -0.686767 2.052956 0.333940
v -0.633780 2.068646 0.341788
v -0.674499 2.091412 0.372707
v -0.712915 2.068733 0.334608
v -0.704261 2.091797 0.339848
v -0.759157 2.138442 0.343863
v -0.697678 2.161160 0.389759
v -0.747201 2.182174 0.353394
v -0.623967 2.178473 0.363887
v -0.659447 2.208159 0.366392
v -0.642050 2.110219 0.349064
v -0.621397 2.095832 0.348164
v -0.698361 2.268874 0.374576
v -0.735861 2.296720 0.376543
v -0.750565 2.253416 0.366844
vt 0.957723 0.382191
vt 0.976790 0.482691
vt 0.976790 0.389456
vt 0.973849 0.487919
vt 0.979731 0.487919
vt 0.995857 0.382191
vt 0.988722 0.376026
vt 0.985391 0.364621
vt 0.976790 0.356772
vt 0.968190 0.364621
vt 0.964858 0.376026
vt 0.976790 0.494459
vt 0.988143 0.356298
vt 0.965437 0.356298
vt 0.969206 0.345470
vt 0.984374 0.345470
vt 0.976790 0.317463
vt 0.982766 0.317192
vt 0.976790 0.309280
vt 0.985669 0.309436
vt 0.976790 0.300844
vt 0.982191 0.301114
vt 0.971389 0.301114
vt 0.967911 0.309436
vt 0.982101 0.106744
vt 0.976790 0.106424
vt 0.971479 0.106744
vt 0.970814 0.317192
vt 0.985136 0.101138
vt 0.976790 0.100563
vt 0.976790 0.072779
vt 0.984985 0.073462
vt 0.982516 0.068927
vt 0.968445 0.101138
vt 0.968595 0.073462
vt 0.971065 0.068927
vt 0.976790 0.064151
vt 0.982696 0.060515
vt 0.976790 0.052894
vt 0.970885 0.060515
vt 0.966590 0.055992
vt 0.969856 0.052049
vt 0.961722 0.039952
vt 0.976790 0.037986
vt 0.967009 0.032222
vt 0.991858 0.039952
vt 0.986571 0.032222
vt 0.983724 0.052049
vt 0.986990 0.055992
vt 0.970972 0.018329
vt 0.976790 0.010838
vt 0.982608 0.018329
vt 0.995857 0.382191
vt 0.976790 0.482691
vt 0.979731 0.487919
vt 0.976790 0.389456
vt 0.976790 0.494459
vt 0.973849 0.487919
vt 0.988722 0.376026
vt 0.985391 0.364621
vt 0.976790 0.356772
vt 0.968190 0.364621
vt 0.964858 0.376026
vt 0.957723 0.382191
vt 0.965437 0.356298
vt 0.969206 0.345470
vt 0.988143 0.356298
vt 0.976790 0.317463
vt 0.984374 0.345470
vt 0.982766 0.317192
vt 0.976790 0.309280
vt 0.970814 0.317192
vt 0.967911 0.309436
vt 0.976790 0.300844
vt 0.971389 0.301114
vt 0.982191 0.301114
vt 0.985669 0.309436
vt 0.971479 0.106744
vt 0.976790 0.106424
vt 0.982101 0.106744
vt 0.968445 0.101138
vt 0.976790 0.100563
vt 0.968595 0.073462
vt 0.976790 0.072779
vt 0.971065 0.068927
vt 0.984985 0.073462
vt 0.982516 0.068927
vt 0.985136 0.101138
vt 0.976790 0.064151
vt 0.970884 0.060515
vt 0.982696 0.060515
vt 0.976790 0.052894
vt 0.966590 0.055992
vt 0.969856 0.052049
vt 0.961722 0.039952
vt 0.976790 0.037986
vt 0.967009 0.032222
vt 0.991858 0.039952
vt 0.986571 0.032222
vt 0.983724 0.052049
vt 0.986990 0.055992
vt 0.982608 0.018329
vt 0.976790 0.010838
vt 0.970972 0.018329
vn 0.548781 0.279595 -0.787823
vn 0.272783 0.141322 -0.951639
vn 0.091758 0.128931 -0.987399
vn 0.689814 0.213269 -0.691862
vn -0.429723 -0.079240 -0.899477
vn -0.377842 -0.006173 -0.925849
vn -0.436411 0.250377 -0.864209
vn -0.573311 -0.011771 -0.819253
vn 0.069680 0.248015 -0.966247
vn 0.685031 0.360852 -0.632865
vn 0.447272 0.512042 -0.733322
vn 0.159588 -0.045665 -0.986127
vn -0.475247 0.026194 -0.879462
vn 0.602159 0.345217 -0.719882
vn 0.683316 0.384395 -0.620742
vn -0.587735 0.008036 -0.809014
vn 0.091322 0.181441 -0.979152
vn -0.560437 -0.082210 -0.824107
vn 0.053362 0.193843 -0.979580
vn -0.553205 -0.064261 -0.830563
vn 0.080402 0.200483 -0.976392
vn -0.619937 -0.055277 -0.782702
vn 0.733430 0.346249 -0.584972
vn 0.678994 0.341834 -0.649705
vn -0.617356 -0.081884 -0.782411
vn 0.094129 0.172598 -0.980484
vn 0.747955 0.322400 -0.580191
vn 0.713611 0.295035 -0.635385
vn -0.556689 -0.069816 -0.827782
vn 0.097265 0.162689 -0.981872
vn 0.073665 0.235878 -0.968987
vn -0.552248 -0.001356 -0.833679
vn -0.621413 0.091061 -0.778173
vn 0.704953 0.303776 -0.640906
vn 0.666409 0.359502 -0.653190
vn 0.657782 0.469845 -0.588701
vn 0.085779 0.198631 -0.976313
vn -0.437798 -0.166069 -0.883603
vn 0.137283 0.031627 -0.990027
vn 0.675825 0.163683 -0.718658
vn 0.578728 0.165038 -0.798647
vn 0.760357 0.135368 -0.635242
vn 0.533399 0.306533 -0.788367
vn 0.072265 0.240196 -0.968031
vn 0.499542 0.488229 -0.715605
vn -0.381126 0.035715 -0.923833
vn -0.470381 0.201028 -0.859261
vn -0.512783 -0.241592 -0.823825
vn -0.339236 -0.106777 -0.934622
vn 0.373006 0.478026 -0.795210
vn 0.011318 0.416577 -0.909030
vn -0.342105 0.266270 -0.901146
vn 0.393632 -0.049758 0.917920
vn 0.098230 -0.229407 0.968361
vn 0.551360 -0.080652 0.830360
vn -0.085822 -0.248036 0.964942
vn -0.012964 -0.411999 0.911092
vn -0.576704 -0.391385 0.717099
vn 0.295444 0.189652 0.936347
vn 0.551980 0.078353 0.830168
vn -0.107843 -0.128891 0.985777
vn -0.706370 -0.294258 0.643781
vn -0.588276 -0.072024 0.805446
vn -0.532739 -0.334995 0.777153
vn -0.621600 -0.284565 0.729819
vn -0.719453 -0.271597 0.639236
vn 0.455812 0.034487 0.889408
vn -0.086593 -0.196228 0.976727
vn 0.551591 0.104752 0.827511
vn 0.581857 0.015357 0.813146
vn -0.124427 -0.183558 0.975102
vn -0.692202 -0.361912 0.624400
vn -0.686800 -0.347846 0.638208
vn -0.097443 -0.177143 0.979349
vn -0.744400 -0.319609 0.586275
vn 0.608426 0.080862 0.789481
vn 0.543743 0.054712 0.837466
vn -0.740948 -0.344289 0.576594
vn -0.083742 -0.205013 0.975170
vn 0.624360 0.060002 0.778829
vn -0.690795 -0.360366 0.626847
vn -0.076923 -0.225923 0.971103
vn -0.696340 -0.282886 0.659611
vn -0.107299 -0.130643 0.985606
vn -0.750009 -0.181986 0.635899
vn 0.533634 0.081338 0.841795
vn 0.529174 0.196824 0.825370
vn 0.579306 0.015720 0.814958
vn -0.092071 -0.179001 0.979531
vn -0.579001 -0.465874 0.669118
vn 0.534602 -0.136112 0.834071
vn -0.038191 -0.340908 0.939321
vn -0.492897 -0.432941 0.754728
vn -0.639864 -0.511442 0.573587
vn -0.537021 -0.295233 0.790219
vn -0.105355 -0.136900 0.984966
vn -0.619166 -0.114868 0.776813
vn 0.377508 -0.024441 0.925684
vn 0.350748 0.172322 0.920479
vn 0.633251 -0.134452 0.762179
vn 0.425070 -0.161168 0.890697
vn 0.212728 0.137706 0.967359
vn -0.161024 0.050736 0.985646
vn -0.502456 -0.074080 0.861423
usemtl material
f 1/0/1 2/0/2 3/0/3
f 2/0/2 1/0/1 4/0/4
f 5/0/5 3/0/3 2/0/2
f 3/0/3 5/0/5 6/0/6
f 7/0/7 3/0/3 6/0/6
f 8/0/8 3/0/3 7/0/7
f 3/0/3 8/0/8 9/0/9
f 10/0/10 3/0/3 9/0/9
f 3/0/3 10/0/10 11/0/11
f 1/0/1 3/0/3 11/0/11
f 5/0/5 2/0/2 12/0/12
f 2/0/2 4/0/4 12/0/12
f 9/0/9 8/0/8 13/0/13
f 10/0/10 9/0/9 14/0/14
f 14/0/14 9/0/9 15/0/15
f 16/0/16 9/0/9 13/0/13
f 16/0/16 17/0/17 9/0/9
f 17/0/17 15/0/15 9/0/9
f 17/0/17 16/0/16 18/0/18
f 18/0/18 19/0/19 17/0/17
f 19/0/19 18/0/18 20/0/20
f 20/0/20 21/0/21 19/0/19
f 21/0/21 20/0/20 22/0/22
f 23/0/23 19/0/19 21/0/21
f 19/0/19 23/0/23 24/0/24
f 25/0/25 21/0/21 22/0/22
f 21/0/21 25/0/25 26/0/26
f 21/0/21 27/0/27 23/0/23
f 27/0/27 21/0/21 26/0/26
f 19/0/19 28/0/28 17/0/17
f 28/0/28 19/0/19 24/0/24
f 15/0/15 17/0/17 28/0/28
f 29/0/29 26/0/26 25/0/25
f 26/0/26 29/0/29 30/0/30
f 29/0/29 31/0/31 30/0/30
f 31/0/31 29/0/29 32/0/32
f 31/0/31 32/0/32 33/0/33
f 31/0/31 34/0/34 30/0/30
f 26/0/26 34/0/34 27/0/27
f 34/0/34 26/0/26 30/0/30
f 34/0/34 31/0/31 35/0/35
f 36/0/36 35/0/35 31/0/31
f 31/0/31 33/0/33 37/0/37
f 36/0/36 31/0/31 37/0/37
f 37/0/37 33/0/33 38/0/38
f 37/0/37 38/0/38 39/0/39
f 40/0/40 36/0/36 37/0/37
f 39/0/39 40/0/40 37/0/37
f 41/0/41 40/0/40 39/0/39
f 42/0/42 41/0/41 39/0/39
f 39/0/39 43/0/43 42/0/42
f 43/0/43 39/0/39 44/0/44
f 43/0/43 44/0/44 45/0/45
f 39/0/39 46/0/46 44/0/44
f 44/0/44 46/0/46 47/0/47
f 46/0/46 39/0/39 48/0/48
f 39/0/39 49/0/49 48/0/48
f 39/0/39 38/0/38 49/0/49
f 44/0/44 50/0/50 45/0/45
f 51/0/51 50/0/50 44/0/44
f 51/0/51 44/0/44 52/0/52
f 52/0/52 44/0/44 47/0/47
f 53/0/53 54/0/54 55/0/55
f 54/0/54 53/0/53 56/0/56
f 57/0/57 55/0/55 54/0/54
f 58/0/58 57/0/57 54/0/54
f 56/0/56 58/0/58 54/0/54
f 56/0/56 53/0/53 59/0/59
f 60/0/60 56/0/56 59/0/59
f 56/0/56 60/0/60 61/0/61
f 62/0/62 56/0/56 61/0/61
f 56/0/56 62/0/62 63/0/63
f 56/0/56 63/0/63 64/0/64
f 58/0/58 56/0/56 64/0/64
f 62/0/62 61/0/61 65/0/65
f 65/0/65 61/0/61 66/0/66
f 61/0/61 60/0/60 67/0/67
f 68/0/68 66/0/66 61/0/61
f 69/0/69 68/0/68 61/0/61
f 69/0/69 61/0/61 67/0/67
f 68/0/68 69/0/69 70/0/70
f 70/0/70 71/0/71 68/0/68
f 71/0/71 72/0/72 68/0/68
f 66/0/66 68/0/68 72/0/72
f 72/0/72 71/0/71 73/0/73
f 74/0/74 73/0/73 71/0/71
f 73/0/73 74/0/74 75/0/75
f 71/0/71 76/0/76 74/0/74
f 76/0/76 71/0/71 77/0/77
f 71/0/71 70/0/70 77/0/77
f 74/0/74 78/0/78 75/0/75
f 78/0/78 74/0/74 79/0/79
f 80/0/80 74/0/74 76/0/76
f 74/0/74 80/0/80 79/0/79
f 79/0/79 81/0/81 78/0/78
f 81/0/81 79/0/79 82/0/82
f 82/0/82 83/0/83 81/0/81
f 83/0/83 82/0/82 84/0/84
f 85/0/85 83/0/83 84/0/84
f 82/0/82 86/0/86 84/0/84
f 84/0/84 86/0/86 87/0/87
f 86/0/86 82/0/82 88/0/88
f 88/0/88 79/0/79 80/0/80
f 79/0/79 88/0/88 82/0/82
f 85/0/85 84/0/84 89/0/89
f 84/0/84 87/0/87 89/0/89
f 90/0/90 85/0/85 89/0/89
f 89/0/89 87/0/87 91/0/91
f 89/0/89 91/0/91 92/0/92
f 92/0/92 90/0/90 89/0/89
f 93/0/93 90/0/90 92/0/92
f 94/0/94 93/0/93 92/0/92
f 92/0/92 95/0/95 94/0/94
f 95/0/95 92/0/92 96/0/96
f 95/0/95 96/0/96 97/0/97
f 92/0/92 98/0/98 96/0/96
f 96/0/96 98/0/98 99/0/99
f 98/0/98 92/0/92 100/0/100
f 92/0/92 101/0/101 100/0/100
f 92/0/92 91/0/91 101/0/101
f 102/0/102 96/0/96 99/0/99
f 103/0/103 96/0/96 102/0/102
f 103/0/103 104/0/104 96/0/96
f 96/0/96 104/0/104 97/0/97
