# 
# Wavefront OBJ file
# Created with Kaydara FBX
# 
mtllib pasted__boss_cross_t6_w38.mtl

g pasted__Boss_Cross_T6_W38
v 0.206724 0.519589 0.128426
v 0.013806 0.059642 -0.001450
v 0.115708 0.514996 0.068513
v 0.020465 0.028331 0.007846
v -0.006599 0.034567 0.006677
v 0.031275 0.560017 0.120847
v 0.070639 0.582095 0.129110
v 0.098053 0.633401 0.142433
v 0.149259 0.669639 0.116702
v 0.177194 0.615166 0.145852
v 0.180430 0.556796 0.133852
v 0.000000 -0.000000 -0.000000
v 0.094212 0.676335 0.151126
v 0.198678 0.652264 0.155638
v 0.192815 0.708326 0.166911
v 0.123031 0.724406 0.163896
v 0.189935 0.856369 0.171145
v 0.160401 0.858664 0.195609
v 0.199484 0.897724 0.170676
v 0.155267 0.899032 0.203642
v 0.207550 0.936274 0.189594
v 0.180089 0.935359 0.213572
v 0.229786 0.923907 0.215719
v 0.236966 0.880207 0.207171
v 0.386527 1.869828 0.429374
v 0.413627 1.871077 0.405434
v 0.435398 1.858568 0.431485
v 0.215390 0.845994 0.197984
v 0.378507 1.899997 0.434994
v 0.420675 1.901177 0.402831
v 0.449850 2.034133 0.436670
v 0.408536 2.032908 0.465749
v 0.424704 2.052096 0.471275
v 0.455301 1.882302 0.438311
v 0.483943 2.015532 0.469006
v 0.477389 2.039956 0.473550
v 0.458242 2.073890 0.454456
v 0.432791 2.092732 0.480578
v 0.470684 2.129184 0.461403
v 0.487133 2.080211 0.482925
v 0.511687 2.097407 0.488800
v 0.500838 2.119829 0.492528
v 0.551084 2.169371 0.507575
v 0.486983 2.202008 0.472528
v 0.534952 2.212142 0.515105
v 0.412434 2.201319 0.501586
v 0.444953 2.232880 0.511218
v 0.437035 2.134531 0.489773
v 0.417827 2.119034 0.484746
v 0.531448 2.283143 0.529742
v 0.512619 2.325329 0.536902
v 0.477909 2.295479 0.527429
v 0.206724 0.519589 0.128426
v 0.011142 0.053527 0.027580
v 0.020465 0.028331 0.007846
v 0.106890 0.494747 0.164629
v 0.000000 -0.000000 -0.000000
v -0.006599 0.034567 0.006677
v 0.180430 0.556796 0.133852
v 0.177194 0.615166 0.145852
v 0.142626 0.654406 0.189010
v 0.098053 0.633401 0.142433
v 0.070639 0.582095 0.129110
v 0.031275 0.560017 0.120847
v 0.094212 0.676335 0.151126
v 0.123031 0.724406 0.163896
v 0.198678 0.652264 0.155638
v 0.185283 0.845687 0.221848
v 0.192815 0.708326 0.166911
v 0.215390 0.845994 0.197984
v 0.193080 0.883017 0.240484
v 0.160401 0.858664 0.195609
v 0.155267 0.899032 0.203642
v 0.202899 0.925593 0.240297
v 0.180089 0.935359 0.213572
v 0.229786 0.923907 0.215719
v 0.236966 0.880207 0.207171
v 0.386527 1.869828 0.429374
v 0.408976 1.860395 0.456136
v 0.435398 1.858568 0.431485
v 0.378507 1.899997 0.434994
v 0.414353 1.886657 0.471753
v 0.408536 2.032908 0.465749
v 0.444077 2.020875 0.499602
v 0.424704 2.052096 0.471275
v 0.483943 2.015532 0.469006
v 0.477389 2.039956 0.473550
v 0.455301 1.882302 0.438311
v 0.453975 2.064090 0.500973
v 0.432791 2.092732 0.480578
v 0.487133 2.080211 0.482925
v 0.465398 2.117046 0.519021
v 0.417827 2.119034 0.484746
v 0.437035 2.134531 0.489773
v 0.412434 2.201319 0.501586
v 0.480702 2.187584 0.540997
v 0.444953 2.232880 0.511218
v 0.551084 2.169371 0.507575
v 0.534952 2.212142 0.515105
v 0.500838 2.119829 0.492528
v 0.511687 2.097407 0.488800
v 0.531448 2.283143 0.529742
v 0.512619 2.325329 0.536902
v 0.477909 2.295479 0.527429
vt 0.957723 0.382191
vt 0.976790 0.482691
vt 0.976790 0.389456
vt 0.973849 0.487919
vt 0.979731 0.487919
vt 0.995857 0.382191
vt 0.988722 0.376026
vt 0.985391 0.364621
vt 0.976790 0.356772
vt 0.968190 0.364621
vt 0.964858 0.376026
vt 0.976790 0.494459
vt 0.988143 0.356298
vt 0.965437 0.356298
vt 0.969206 0.345470
vt 0.984374 0.345470
vt 0.976790 0.317463
vt 0.982766 0.317192
vt 0.976790 0.309280
vt 0.985669 0.309436
vt 0.976790 0.300844
vt 0.982191 0.301114
vt 0.971389 0.301114
vt 0.967911 0.309436
vt 0.982101 0.106744
vt 0.976790 0.106424
vt 0.971479 0.106744
vt 0.970814 0.317192
vt 0.985136 0.101138
vt 0.976790 0.100563
vt 0.976790 0.072779
vt 0.984985 0.073462
vt 0.982516 0.068927
vt 0.968445 0.101138
vt 0.968595 0.073462
vt 0.971065 0.068927
vt 0.976790 0.064151
vt 0.982696 0.060515
vt 0.976790 0.052894
vt 0.970885 0.060515
vt 0.966590 0.055992
vt 0.969856 0.052049
vt 0.961722 0.039952
vt 0.976790 0.037986
vt 0.967009 0.032222
vt 0.991858 0.039952
vt 0.986571 0.032222
vt 0.983724 0.052049
vt 0.986990 0.055992
vt 0.970972 0.018329
vt 0.976790 0.010838
vt 0.982608 0.018329
vt 0.995857 0.382191
vt 0.976790 0.482691
vt 0.979731 0.487919
vt 0.976790 0.389456
vt 0.976790 0.494459
vt 0.973849 0.487919
vt 0.988722 0.376026
vt 0.985391 0.364621
vt 0.976790 0.356772
vt 0.968190 0.364621
vt 0.964858 0.376026
vt 0.957723 0.382191
vt 0.965437 0.356298
vt 0.969206 0.345470
vt 0.988143 0.356298
vt 0.976790 0.317463
vt 0.984374 0.345470
vt 0.982766 0.317192
vt 0.976790 0.309280
vt 0.970814 0.317192
vt 0.967911 0.309436
vt 0.976790 0.300844
vt 0.971389 0.301114
vt 0.982191 0.301114
vt 0.985669 0.309436
vt 0.971479 0.106744
vt 0.976790 0.106424
vt 0.982101 0.106744
vt 0.968445 0.101138
vt 0.976790 0.100563
vt 0.968595 0.073462
vt 0.976790 0.072779
vt 0.971065 0.068927
vt 0.984985 0.073462
vt 0.982516 0.068927
vt 0.985136 0.101138
vt 0.976790 0.064151
vt 0.970884 0.060515
vt 0.982696 0.060515
vt 0.976790 0.052894
vt 0.966590 0.055992
vt 0.969856 0.052049
vt 0.961722 0.039952
vt 0.976790 0.037986
vt 0.967009 0.032222
vt 0.991858 0.039952
vt 0.986571 0.032222
vt 0.983724 0.052049
vt 0.986990 0.055992
vt 0.982608 0.018329
vt 0.976790 0.010838
vt 0.970972 0.018329
vn 0.548838 0.046639 -0.834627
vn 0.228118 0.073056 -0.970889
vn 0.061835 0.152533 -0.986362
vn 0.646853 -0.087341 -0.757597
vn -0.485688 0.214783 -0.847334
vn -0.407118 0.255761 -0.876836
vn -0.327735 0.502433 -0.800094
vn -0.570965 0.335974 -0.749080
vn 0.102520 0.265212 -0.958724
vn 0.719577 0.038607 -0.693338
vn 0.578589 0.293584 -0.760949
vn 0.035649 -0.032534 -0.998835
vn -0.472167 0.326936 -0.818640
vn 0.632832 0.072316 -0.770904
vn 0.730558 0.058945 -0.680302
vn -0.572980 0.359307 -0.736608
vn 0.087754 0.197823 -0.976302
vn -0.594566 0.268750 -0.757803
vn 0.060799 0.226987 -0.971998
vn -0.580054 0.281478 -0.764400
vn 0.087830 0.219460 -0.971660
vn -0.629685 0.317369 -0.709066
vn 0.758406 -0.001520 -0.651780
vn 0.703668 0.026401 -0.710038
vn -0.640454 0.292898 -0.709950
vn 0.085763 0.188876 -0.978249
vn 0.759795 -0.029749 -0.649482
vn 0.712070 -0.032326 -0.701364
vn -0.585552 0.278067 -0.761451
vn 0.083548 0.178846 -0.980323
vn 0.099851 0.252926 -0.962319
vn -0.548726 0.336123 -0.765454
vn -0.559195 0.445323 -0.699277
vn 0.708364 -0.020082 -0.705561
vn 0.701072 0.048138 -0.711464
vn 0.752729 0.143028 -0.642606
vn 0.091590 0.215237 -0.972257
vn -0.533783 0.141595 -0.833682
vn 0.053676 0.045962 -0.997500
vn 0.608294 -0.121572 -0.784346
vn 0.518044 -0.066774 -0.852744
vn 0.674763 -0.194105 -0.712053
vn 0.548567 0.077579 -0.832500
vn 0.100797 0.257299 -0.961060
vn 0.613798 0.246138 -0.750112
vn -0.389350 0.293693 -0.873012
vn -0.380895 0.475352 -0.793070
vn -0.630932 0.106756 -0.768458
vn -0.423395 0.150158 -0.893415
vn 0.492386 0.305029 -0.815177
vn 0.138769 0.435461 -0.889447
vn -0.241086 0.474011 -0.846871
vn 0.392899 -0.311467 0.865228
vn 0.052568 -0.330060 0.942495
vn 0.507675 -0.406948 0.759381
vn -0.116649 -0.257347 0.959253
vn -0.137805 -0.430857 0.891836
vn -0.633491 -0.124606 0.763650
vn 0.425942 -0.056940 0.902957
vn 0.585821 -0.268546 0.764654
vn -0.075930 -0.144598 0.986573
vn -0.704711 0.028822 0.708909
vn -0.480382 0.151900 0.863805
vn -0.562810 -0.101774 0.820297
vn -0.619283 -0.010898 0.785092
vn -0.705379 0.055262 0.706673
vn 0.485700 -0.265522 0.832823
vn -0.091049 -0.212811 0.972842
vn 0.598159 -0.245109 0.762973
vn 0.579649 -0.336435 0.742172
vn -0.117906 -0.183385 0.975945
vn -0.726994 -0.035367 0.685733
vn -0.714333 -0.026862 0.699290
vn -0.090973 -0.191142 0.977338
vn -0.754850 0.029948 0.655213
vn 0.632764 -0.290087 0.717955
vn 0.567713 -0.285823 0.772015
vn -0.764681 0.007585 0.644365
vn -0.093001 -0.221701 0.970670
vn 0.635569 -0.315061 0.704832
vn -0.724851 -0.034895 0.688021
vn -0.097639 -0.242861 0.965135
vn -0.689158 0.032564 0.723879
vn -0.076332 -0.146375 0.986280
vn -0.688480 0.148449 0.709900
vn 0.572302 -0.258112 0.778363
vn 0.623455 -0.153862 0.766570
vn 0.577760 -0.335043 0.744271
vn -0.087213 -0.195378 0.976842
vn -0.675748 -0.184388 0.713698
vn 0.466341 -0.447559 0.763031
vn -0.122707 -0.359094 0.925200
vn -0.577840 -0.204488 0.790117
vn -0.758699 -0.186627 0.624137
vn -0.546044 -0.066152 0.835140
vn -0.077742 -0.152720 0.985207
vn -0.530476 0.131859 0.837382
vn 0.391871 -0.282271 0.875648
vn 0.464241 -0.097344 0.880344
vn 0.547001 -0.487480 0.680554
vn 0.363585 -0.421443 0.830778
vn 0.331234 -0.065032 0.941305
vn -0.034453 0.037678 0.998696
vn -0.402211 0.103976 0.909624
usemtl material
f 1/0/1 2/0/2 3/0/3
f 2/0/2 1/0/1 4/0/4
f 5/0/5 3/0/3 2/0/2
f 3/0/3 5/0/5 6/0/6
f 7/0/7 3/0/3 6/0/6
f 8/0/8 3/0/3 7/0/7
f 3/0/3 8/0/8 9/0/9
f 10/0/10 3/0/3 9/0/9
f 3/0/3 10/0/10 11/0/11
f 1/0/1 3/0/3 11/0/11
f 5/0/5 2/0/2 12/0/12
f 2/0/2 4/0/4 12/0/12
f 9/0/9 8/0/8 13/0/13
f 10/0/10 9/0/9 14/0/14
f 14/0/14 9/0/9 15/0/15
f 16/0/16 9/0/9 13/0/13
f 16/0/16 17/0/17 9/0/9
f 17/0/17 15/0/15 9/0/9
f 17/0/17 16/0/16 18/0/18
f 18/0/18 19/0/19 17/0/17
f 19/0/19 18/0/18 20/0/20
f 20/0/20 21/0/21 19/0/19
f 21/0/21 20/0/20 22/0/22
f 23/0/23 19/0/19 21/0/21
f 19/0/19 23/0/23 24/0/24
f 25/0/25 21/0/21 22/0/22
f 21/0/21 25/0/25 26/0/26
f 21/0/21 27/0/27 23/0/23
f 27/0/27 21/0/21 26/0/26
f 19/0/19 28/0/28 17/0/17
f 28/0/28 19/0/19 24/0/24
f 15/0/15 17/0/17 28/0/28
f 29/0/29 26/0/26 25/0/25
f 26/0/26 29/0/29 30/0/30
f 29/0/29 31/0/31 30/0/30
f 31/0/31 29/0/29 32/0/32
f 31/0/31 32/0/32 33/0/33
f 31/0/31 34/0/34 30/0/30
f 26/0/26 34/0/34 27/0/27
f 34/0/34 26/0/26 30/0/30
f 34/0/34 31/0/31 35/0/35
f 36/0/36 35/0/35 31/0/31
f 31/0/31 33/0/33 37/0/37
f 36/0/36 31/0/31 37/0/37
f 37/0/37 33/0/33 38/0/38
f 37/0/37 38/0/38 39/0/39
f 40/0/40 36/0/36 37/0/37
f 39/0/39 40/0/40 37/0/37
f 41/0/41 40/0/40 39/0/39
f 42/0/42 41/0/41 39/0/39
f 39/0/39 43/0/43 42/0/42
f 43/0/43 39/0/39 44/0/44
f 43/0/43 44/0/44 45/0/45
f 39/0/39 46/0/46 44/0/44
f 44/0/44 46/0/46 47/0/47
f 46/0/46 39/0/39 48/0/48
f 39/0/39 49/0/49 48/0/48
f 39/0/39 38/0/38 49/0/49
f 44/0/44 50/0/50 45/0/45
f 51/0/51 50/0/50 44/0/44
f 51/0/51 44/0/44 52/0/52
f 52/0/52 44/0/44 47/0/47
f 53/0/53 54/0/54 55/0/55
f 54/0/54 53/0/53 56/0/56
f 57/0/57 55/0/55 54/0/54
f 58/0/58 57/0/57 54/0/54
f 56/0/56 58/0/58 54/0/54
f 56/0/56 53/0/53 59/0/59
f 60/0/60 56/0/56 59/0/59
f 56/0/56 60/0/60 61/0/61
f 62/0/62 56/0/56 61/0/61
f 56/0/56 62/0/62 63/0/63
f 56/0/56 63/0/63 64/0/64
f 58/0/58 56/0/56 64/0/64
f 62/0/62 61/0/61 65/0/65
f 65/0/65 61/0/61 66/0/66
f 61/0/61 60/0/60 67/0/67
f 68/0/68 66/0/66 61/0/61
f 69/0/69 68/0/68 61/0/61
f 69/0/69 61/0/61 67/0/67
f 68/0/68 69/0/69 70/0/70
f 70/0/70 71/0/71 68/0/68
f 71/0/71 72/0/72 68/0/68
f 66/0/66 68/0/68 72/0/72
f 72/0/72 71/0/71 73/0/73
f 74/0/74 73/0/73 71/0/71
f 73/0/73 74/0/74 75/0/75
f 71/0/71 76/0/76 74/0/74
f 76/0/76 71/0/71 77/0/77
f 71/0/71 70/0/70 77/0/77
f 74/0/74 78/0/78 75/0/75
f 78/0/78 74/0/74 79/0/79
f 80/0/80 74/0/74 76/0/76
f 74/0/74 80/0/80 79/0/79
f 79/0/79 81/0/81 78/0/78
f 81/0/81 79/0/79 82/0/82
f 82/0/82 83/0/83 81/0/81
f 83/0/83 82/0/82 84/0/84
f 85/0/85 83/0/83 84/0/84
f 82/0/82 86/0/86 84/0/84
f 84/0/84 86/0/86 87/0/87
f 86/0/86 82/0/82 88/0/88
f 88/0/88 79/0/79 80/0/80
f 79/0/79 88/0/88 82/0/82
f 85/0/85 84/0/84 89/0/89
f 84/0/84 87/0/87 89/0/89
f 90/0/90 85/0/85 89/0/89
f 89/0/89 87/0/87 91/0/91
f 89/0/89 91/0/91 92/0/92
f 92/0/92 90/0/90 89/0/89
f 93/0/93 90/0/90 92/0/92
f 94/0/94 93/0/93 92/0/92
f 92/0/92 95/0/95 94/0/94
f 95/0/95 92/0/92 96/0/96
f 95/0/95 96/0/96 97/0/97
f 92/0/92 98/0/98 96/0/96
f 96/0/96 98/0/98 99/0/99
f 98/0/98 92/0/92 100/0/100
f 92/0/92 101/0/101 100/0/100
f 92/0/92 91/0/91 101/0/101
f 102/0/102 96/0/96 99/0/99
f 103/0/103 96/0/96 102/0/102
f 103/0/103 104/0/104 96/0/96
f 96/0/96 104/0/104 97/0/97
