# 
# Wavefront OBJ file
# Created with Kaydara FBX
# 
mtllib pasted__boss_cross_t6_w56.mtl

g pasted__Boss_Cross_T6_W56
v -0.005509 0.564455 0.102767
v -0.005899 0.060658 -0.005976
v -0.073391 0.526522 0.026297
v 0.007941 0.033920 0.008332
v -0.018610 0.030595 0.000795
v -0.177621 0.542905 0.053908
v -0.150445 0.577342 0.067352
v -0.144713 0.635472 0.079578
v -0.103082 0.685565 0.060738
v -0.067077 0.645193 0.101617
v -0.042741 0.590828 0.097927
v -0.000000 0.000000 -0.000001
v -0.163922 0.674961 0.081859
v -0.061443 0.687793 0.110950
v -0.087286 0.739067 0.113677
v -0.155743 0.730496 0.094244
v -0.137896 0.877480 0.098725
v -0.171549 0.870863 0.116036
v -0.142135 0.919558 0.095097
v -0.190976 0.907472 0.117728
v -0.151450 0.959440 0.110322
v -0.182066 0.950479 0.127990
v -0.133314 0.956584 0.141830
v -0.110830 0.917507 0.140479
v -0.340188 1.909121 0.263732
v -0.310017 1.918274 0.245982
v -0.292247 1.915123 0.277341
v -0.117606 0.877618 0.131348
v -0.358455 1.935050 0.263756
v -0.312475 1.948823 0.241168
v -0.335899 2.085304 0.263482
v -0.380347 2.071627 0.283260
v -0.372901 2.095389 0.289588
v -0.283122 1.944483 0.285141
v -0.306375 2.080889 0.304258
v -0.321219 2.101860 0.304260
v -0.345028 2.126375 0.277524
v -0.380575 2.136773 0.295226
v -0.352794 2.182894 0.279954
v -0.327266 2.143447 0.310360
v -0.311573 2.168182 0.319018
v -0.329531 2.185783 0.317585
v -0.302686 2.250040 0.336447
v -0.363570 2.257396 0.285053
v -0.332853 2.285173 0.335067
v -0.438698 2.233010 0.297836
v -0.421140 2.274119 0.310004
v -0.392121 2.177946 0.299818
v -0.403647 2.156654 0.292880
v -0.362067 2.351452 0.339684
v -0.394437 2.385108 0.337457
v -0.414588 2.344876 0.324775
v -0.005509 0.564455 0.102767
v -0.013298 0.055420 0.022399
v 0.007941 0.033920 0.008332
v -0.097888 0.509179 0.120239
v -0.000000 0.000000 -0.000001
v -0.018610 0.030595 0.000795
v -0.042741 0.590828 0.097927
v -0.067077 0.645193 0.101617
v -0.121511 0.672518 0.131411
v -0.144713 0.635472 0.079578
v -0.150445 0.577342 0.067352
v -0.177621 0.542905 0.053908
v -0.163922 0.674961 0.081859
v -0.155743 0.730496 0.094244
v -0.061443 0.687793 0.110950
v -0.150818 0.868331 0.148281
v -0.087286 0.739067 0.113677
v -0.117606 0.877618 0.131348
v -0.159926 0.906962 0.163328
v -0.171549 0.870863 0.116036
v -0.190976 0.907472 0.117728
v -0.164372 0.950292 0.159877
v -0.182066 0.950479 0.127990
v -0.133314 0.956584 0.141830
v -0.110830 0.917507 0.140479
v -0.340188 1.909121 0.263732
v -0.322939 1.909125 0.295538
v -0.292247 1.915123 0.277341
v -0.358455 1.935050 0.263756
v -0.330041 1.936387 0.308531
v -0.380347 2.071627 0.283260
v -0.351938 2.073949 0.324990
v -0.372901 2.095389 0.289588
v -0.306375 2.080889 0.304258
v -0.321219 2.101860 0.304260
v -0.283122 1.944483 0.285141
v -0.356883 2.117982 0.322989
v -0.380575 2.136773 0.295226
v -0.327266 2.143447 0.310360
v -0.367479 2.172497 0.336268
v -0.403647 2.156654 0.292880
v -0.392121 2.177946 0.299818
v -0.438698 2.233010 0.297836
v -0.381021 2.245042 0.351975
v -0.421140 2.274119 0.310004
v -0.302686 2.250040 0.336447
v -0.332853 2.285173 0.335067
v -0.329531 2.185783 0.317585
v -0.311573 2.168182 0.319018
v -0.362067 2.351452 0.339684
v -0.394437 2.385108 0.337457
v -0.414588 2.344876 0.324775
vt 0.957723 0.382191
vt 0.976790 0.482691
vt 0.976790 0.389456
vt 0.973849 0.487919
vt 0.979731 0.487919
vt 0.995857 0.382191
vt 0.988722 0.376026
vt 0.985391 0.364621
vt 0.976790 0.356772
vt 0.968190 0.364621
vt 0.964858 0.376026
vt 0.976790 0.494459
vt 0.988143 0.356298
vt 0.965437 0.356298
vt 0.969206 0.345470
vt 0.984374 0.345470
vt 0.976790 0.317463
vt 0.982766 0.317192
vt 0.976790 0.309280
vt 0.985669 0.309436
vt 0.976790 0.300844
vt 0.982191 0.301114
vt 0.971389 0.301114
vt 0.967911 0.309436
vt 0.982101 0.106744
vt 0.976790 0.106424
vt 0.971479 0.106744
vt 0.970814 0.317192
vt 0.985136 0.101138
vt 0.976790 0.100563
vt 0.976790 0.072779
vt 0.984985 0.073462
vt 0.982516 0.068927
vt 0.968445 0.101138
vt 0.968595 0.073462
vt 0.971065 0.068927
vt 0.976790 0.064151
vt 0.982696 0.060515
vt 0.976790 0.052894
vt 0.970885 0.060515
vt 0.966590 0.055992
vt 0.969856 0.052049
vt 0.961722 0.039952
vt 0.976790 0.037986
vt 0.967009 0.032222
vt 0.991858 0.039952
vt 0.986571 0.032222
vt 0.983724 0.052049
vt 0.986990 0.055992
vt 0.970972 0.018329
vt 0.976790 0.010838
vt 0.982608 0.018329
vt 0.995857 0.382191
vt 0.976790 0.482691
vt 0.979731 0.487919
vt 0.976790 0.389456
vt 0.976790 0.494459
vt 0.973849 0.487919
vt 0.988722 0.376026
vt 0.985391 0.364621
vt 0.976790 0.356772
vt 0.968190 0.364621
vt 0.964858 0.376026
vt 0.957723 0.382191
vt 0.965437 0.356298
vt 0.969206 0.345470
vt 0.988143 0.356298
vt 0.976790 0.317463
vt 0.984374 0.345470
vt 0.982766 0.317192
vt 0.976790 0.309280
vt 0.970814 0.317192
vt 0.967911 0.309436
vt 0.976790 0.300844
vt 0.971389 0.301114
vt 0.982191 0.301114
vt 0.985669 0.309436
vt 0.971479 0.106744
vt 0.976790 0.106424
vt 0.982101 0.106744
vt 0.968445 0.101138
vt 0.976790 0.100563
vt 0.968595 0.073462
vt 0.976790 0.072779
vt 0.971065 0.068927
vt 0.984985 0.073462
vt 0.982516 0.068927
vt 0.985136 0.101138
vt 0.976790 0.064151
vt 0.970884 0.060515
vt 0.982696 0.060515
vt 0.976790 0.052894
vt 0.966590 0.055992
vt 0.969856 0.052049
vt 0.961722 0.039952
vt 0.976790 0.037986
vt 0.967009 0.032222
vt 0.991858 0.039952
vt 0.986571 0.032222
vt 0.983724 0.052049
vt 0.986990 0.055992
vt 0.982608 0.018329
vt 0.976790 0.010838
vt 0.970972 0.018329
vn 0.687303 0.188466 -0.701495
vn 0.416751 0.098467 -0.903672
vn 0.242618 0.116354 -0.963119
vn 0.801514 0.099293 -0.589674
vn -0.312894 -0.003087 -0.949783
vn -0.246686 0.060514 -0.967204
vn -0.270274 0.322931 -0.907010
vn -0.452930 0.086860 -0.887305
vn 0.237654 0.237351 -0.941905
vn 0.813073 0.245362 -0.527929
vn 0.618791 0.434253 -0.654616
vn 0.280251 -0.067085 -0.957580
vn -0.342819 0.108325 -0.933135
vn 0.741142 0.244044 -0.625421
vn 0.813615 0.268826 -0.515523
vn -0.465152 0.108721 -0.878529
vn 0.249660 0.168172 -0.953618
vn -0.451191 0.015267 -0.892297
vn 0.214606 0.186703 -0.958690
vn -0.440342 0.031811 -0.897266
vn 0.241769 0.188750 -0.951799
vn -0.510441 0.051490 -0.858370
vn 0.851592 0.222763 -0.474518
vn 0.806311 0.227699 -0.545909
vn -0.512363 0.024822 -0.858410
vn 0.251129 0.158986 -0.954808
vn 0.861279 0.196803 -0.468472
vn 0.830594 0.175757 -0.528415
vn -0.444997 0.026890 -0.895128
vn 0.252773 0.148710 -0.956029
vn 0.239967 0.224724 -0.944412
vn -0.428665 0.093701 -0.898591
vn -0.488627 0.196033 -0.850185
vn 0.824295 0.185829 -0.534795
vn 0.797370 0.247194 -0.550541
vn 0.798341 0.357186 -0.484841
vn 0.246701 0.186023 -0.951070
vn -0.337004 -0.087443 -0.937434
vn 0.271580 0.012870 -0.962330
vn 0.783312 0.052837 -0.619379
vn 0.699312 0.070597 -0.711322
vn 0.850190 0.010545 -0.526371
vn 0.676731 0.217567 -0.703349
vn 0.239141 0.229217 -0.943542
vn 0.663578 0.402062 -0.630881
vn -0.243329 0.102361 -0.964527
vn -0.312174 0.279871 -0.907865
vn -0.430653 -0.149808 -0.889997
vn -0.224212 -0.045015 -0.973500
vn 0.548922 0.413254 -0.726571
vn 0.200498 0.412981 -0.888396
vn -0.170633 0.323154 -0.930836
vn 0.254093 -0.118247 0.959924
vn -0.070828 -0.246764 0.966484
vn 0.414914 -0.174415 0.892987
vn -0.253247 -0.234700 0.938500
vn -0.201588 -0.408239 0.890339
vn -0.723452 -0.293759 0.624758
vn 0.194692 0.134014 0.971666
vn 0.441482 -0.017699 0.897096
vn -0.258111 -0.113645 0.959408
vn -0.824505 -0.176214 0.537717
vn -0.694361 0.022691 0.719269
vn -0.679247 -0.245706 0.691558
vn -0.751561 -0.181042 0.634335
vn -0.832977 -0.151696 0.532107
vn 0.332386 -0.045323 0.942054
vn -0.247121 -0.183533 0.951445
vn 0.445768 0.008409 0.895109
vn 0.462660 -0.084700 0.882481
vn -0.281829 -0.164772 0.945210
vn -0.819106 -0.245198 0.518598
vn -0.813401 -0.232276 0.533317
vn -0.255047 -0.162914 0.953105
vn -0.858169 -0.194668 0.475027
vn 0.502458 -0.024379 0.864258
vn 0.428631 -0.039704 0.902607
vn -0.857492 -0.219552 0.465301
vn -0.245542 -0.192658 0.950048
vn 0.516094 -0.047552 0.855211
vn -0.817838 -0.243918 0.521195
vn -0.241811 -0.214384 0.946344
vn -0.814962 -0.166725 0.555013
vn -0.257834 -0.115458 0.959266
vn -0.847790 -0.058217 0.527127
vn 0.422483 -0.011781 0.906294
vn 0.439188 0.102914 0.892481
vn 0.459986 -0.083926 0.883951
vn -0.250068 -0.165653 0.953952
vn -0.731425 -0.366649 0.574966
vn 0.388940 -0.226366 0.893020
vn -0.218452 -0.334058 0.916888
vn -0.653273 -0.348820 0.671981
vn -0.785589 -0.401085 0.471148
vn -0.678667 -0.205854 0.705008
vn -0.256863 -0.121965 0.958721
vn -0.727716 -0.014312 0.685730
vn 0.241388 -0.090646 0.966186
vn 0.248107 0.107860 0.962709
vn 0.495209 -0.240715 0.834760
vn 0.270196 -0.233198 0.934137
vn 0.101321 0.096330 0.990179
vn -0.280743 0.072304 0.957055
vn -0.618322 0.006240 0.785900
usemtl material
f 1/0/1 2/0/2 3/0/3
f 2/0/2 1/0/1 4/0/4
f 5/0/5 3/0/3 2/0/2
f 3/0/3 5/0/5 6/0/6
f 7/0/7 3/0/3 6/0/6
f 8/0/8 3/0/3 7/0/7
f 3/0/3 8/0/8 9/0/9
f 10/0/10 3/0/3 9/0/9
f 3/0/3 10/0/10 11/0/11
f 1/0/1 3/0/3 11/0/11
f 5/0/5 2/0/2 12/0/12
f 2/0/2 4/0/4 12/0/12
f 9/0/9 8/0/8 13/0/13
f 10/0/10 9/0/9 14/0/14
f 14/0/14 9/0/9 15/0/15
f 16/0/16 9/0/9 13/0/13
f 16/0/16 17/0/17 9/0/9
f 17/0/17 15/0/15 9/0/9
f 17/0/17 16/0/16 18/0/18
f 18/0/18 19/0/19 17/0/17
f 19/0/19 18/0/18 20/0/20
f 20/0/20 21/0/21 19/0/19
f 21/0/21 20/0/20 22/0/22
f 23/0/23 19/0/19 21/0/21
f 19/0/19 23/0/23 24/0/24
f 25/0/25 21/0/21 22/0/22
f 21/0/21 25/0/25 26/0/26
f 21/0/21 27/0/27 23/0/23
f 27/0/27 21/0/21 26/0/26
f 19/0/19 28/0/28 17/0/17
f 28/0/28 19/0/19 24/0/24
f 15/0/15 17/0/17 28/0/28
f 29/0/29 26/0/26 25/0/25
f 26/0/26 29/0/29 30/0/30
f 29/0/29 31/0/31 30/0/30
f 31/0/31 29/0/29 32/0/32
f 31/0/31 32/0/32 33/0/33
f 31/0/31 34/0/34 30/0/30
f 26/0/26 34/0/34 27/0/27
f 34/0/34 26/0/26 30/0/30
f 34/0/34 31/0/31 35/0/35
f 36/0/36 35/0/35 31/0/31
f 31/0/31 33/0/33 37/0/37
f 36/0/36 31/0/31 37/0/37
f 37/0/37 33/0/33 38/0/38
f 37/0/37 38/0/38 39/0/39
f 40/0/40 36/0/36 37/0/37
f 39/0/39 40/0/40 37/0/37
f 41/0/41 40/0/40 39/0/39
f 42/0/42 41/0/41 39/0/39
f 39/0/39 43/0/43 42/0/42
f 43/0/43 39/0/39 44/0/44
f 43/0/43 44/0/44 45/0/45
f 39/0/39 46/0/46 44/0/44
f 44/0/44 46/0/46 47/0/47
f 46/0/46 39/0/39 48/0/48
f 39/0/39 49/0/49 48/0/48
f 39/0/39 38/0/38 49/0/49
f 44/0/44 50/0/50 45/0/45
f 51/0/51 50/0/50 44/0/44
f 51/0/51 44/0/44 52/0/52
f 52/0/52 44/0/44 47/0/47
f 53/0/53 54/0/54 55/0/55
f 54/0/54 53/0/53 56/0/56
f 57/0/57 55/0/55 54/0/54
f 58/0/58 57/0/57 54/0/54
f 56/0/56 58/0/58 54/0/54
f 56/0/56 53/0/53 59/0/59
f 60/0/60 56/0/56 59/0/59
f 56/0/56 60/0/60 61/0/61
f 62/0/62 56/0/56 61/0/61
f 56/0/56 62/0/62 63/0/63
f 56/0/56 63/0/63 64/0/64
f 58/0/58 56/0/56 64/0/64
f 62/0/62 61/0/61 65/0/65
f 65/0/65 61/0/61 66/0/66
f 61/0/61 60/0/60 67/0/67
f 68/0/68 66/0/66 61/0/61
f 69/0/69 68/0/68 61/0/61
f 69/0/69 61/0/61 67/0/67
f 68/0/68 69/0/69 70/0/70
f 70/0/70 71/0/71 68/0/68
f 71/0/71 72/0/72 68/0/68
f 66/0/66 68/0/68 72/0/72
f 72/0/72 71/0/71 73/0/73
f 74/0/74 73/0/73 71/0/71
f 73/0/73 74/0/74 75/0/75
f 71/0/71 76/0/76 74/0/74
f 76/0/76 71/0/71 77/0/77
f 71/0/71 70/0/70 77/0/77
f 74/0/74 78/0/78 75/0/75
f 78/0/78 74/0/74 79/0/79
f 80/0/80 74/0/74 76/0/76
f 74/0/74 80/0/80 79/0/79
f 79/0/79 81/0/81 78/0/78
f 81/0/81 79/0/79 82/0/82
f 82/0/82 83/0/83 81/0/81
f 83/0/83 82/0/82 84/0/84
f 85/0/85 83/0/83 84/0/84
f 82/0/82 86/0/86 84/0/84
f 84/0/84 86/0/86 87/0/87
f 86/0/86 82/0/82 88/0/88
f 88/0/88 79/0/79 80/0/80
f 79/0/79 88/0/88 82/0/82
f 85/0/85 84/0/84 89/0/89
f 84/0/84 87/0/87 89/0/89
f 90/0/90 85/0/85 89/0/89
f 89/0/89 87/0/87 91/0/91
f 89/0/89 91/0/91 92/0/92
f 92/0/92 90/0/90 89/0/89
f 93/0/93 90/0/90 92/0/92
f 94/0/94 93/0/93 92/0/92
f 92/0/92 95/0/95 94/0/94
f 95/0/95 92/0/92 96/0/96
f 95/0/95 96/0/96 97/0/97
f 92/0/92 98/0/98 96/0/96
f 96/0/96 98/0/98 99/0/99
f 98/0/98 92/0/92 100/0/100
f 92/0/92 101/0/101 100/0/100
f 92/0/92 91/0/91 101/0/101
f 102/0/102 96/0/96 99/0/99
f 103/0/103 96/0/96 102/0/102
f 103/0/103 104/0/104 96/0/96
f 96/0/96 104/0/104 97/0/97
