# 
# Wavefront OBJ file
# Created with Kaydara FBX
# 
mtllib pasted__boss_cross_t6_w51.mtl

g pasted__Boss_Cross_T6_W51
v 0.292606 0.480537 -0.112545
v 0.020570 0.051375 -0.026218
v 0.191212 0.472907 -0.151987
v 0.025047 0.024708 -0.006724
v -0.000661 0.035275 -0.006188
v 0.125961 0.549034 -0.109072
v 0.168635 0.564486 -0.115807
v 0.204453 0.610799 -0.127368
v 0.253262 0.624896 -0.172271
v 0.279622 0.579902 -0.128934
v 0.272918 0.521623 -0.117980
v 0.000000 -0.000000 -0.000000
v 0.207940 0.653904 -0.135331
v 0.307163 0.613120 -0.137399
v 0.310879 0.669543 -0.147744
v 0.244597 0.696787 -0.146362
v 0.327558 0.807068 -0.200200
v 0.304337 0.823561 -0.174418
v 0.341911 0.842884 -0.217887
v 0.306109 0.864338 -0.181809
v 0.358538 0.883271 -0.216603
v 0.336821 0.896250 -0.190339
v 0.384024 0.876848 -0.191323
v 0.383709 0.832441 -0.183426
v 0.699548 1.787340 -0.382192
v 0.720964 1.774749 -0.408496
v 0.745966 1.768261 -0.383159
v 0.356566 0.802094 -0.175507
v 0.696736 1.818493 -0.387448
v 0.731032 1.800000 -0.423445
v 0.783107 1.927930 -0.447855
v 0.748987 1.945126 -0.414778
v 0.768233 1.961486 -0.419479
v 0.769676 1.788513 -0.388968
v 0.820610 1.915687 -0.416270
v 0.818273 1.940918 -0.420522
v 0.799964 1.968956 -0.448113
v 0.783126 2.000381 -0.427765
v 0.820426 2.019583 -0.464808
v 0.834741 1.979165 -0.428840
v 0.861940 1.992193 -0.433696
v 0.855017 2.016140 -0.437291
v 0.913113 2.056999 -0.449971
v 0.847705 2.086975 -0.484981
v 0.904417 2.101939 -0.457119
v 0.781421 2.111129 -0.447227
v 0.818935 2.137075 -0.455338
v 0.794415 2.041049 -0.436028
v 0.772791 2.028836 -0.431838
v 0.913001 2.172761 -0.470471
v 0.901539 2.217561 -0.477335
v 0.862149 2.193662 -0.469411
v 0.292606 0.480537 -0.112545
v 0.023306 0.056549 0.002988
v 0.025047 0.024708 -0.006724
v 0.200269 0.490039 -0.055289
v 0.000000 -0.000000 -0.000000
v -0.000661 0.035275 -0.006188
v 0.272918 0.521623 -0.117980
v 0.279622 0.579902 -0.128934
v 0.260075 0.637785 -0.099524
v 0.204453 0.610799 -0.127368
v 0.168635 0.564486 -0.115807
v 0.125961 0.549034 -0.109072
v 0.207940 0.653904 -0.135331
v 0.244597 0.696787 -0.146362
v 0.307163 0.613120 -0.137399
v 0.332336 0.816105 -0.149191
v 0.310879 0.669543 -0.147744
v 0.356566 0.802094 -0.175507
v 0.348489 0.855327 -0.147656
v 0.304337 0.823561 -0.174418
v 0.306109 0.864338 -0.181809
v 0.363316 0.892308 -0.165594
v 0.336821 0.896250 -0.190339
v 0.384024 0.876848 -0.191323
v 0.383709 0.832441 -0.183426
v 0.699548 1.787340 -0.382192
v 0.725742 1.783786 -0.357486
v 0.745966 1.768261 -0.383159
v 0.696736 1.818493 -0.387448
v 0.737526 1.812285 -0.354106
v 0.748987 1.945126 -0.414778
v 0.789036 1.939147 -0.384542
v 0.768233 1.961486 -0.419479
v 0.820610 1.915687 -0.416270
v 0.818273 1.940918 -0.420522
v 0.769676 1.788513 -0.388968
v 0.804347 1.977247 -0.401315
v 0.783126 2.000381 -0.427765
v 0.834741 1.979165 -0.428840
v 0.825855 2.029854 -0.406841
v 0.772791 2.028836 -0.431838
v 0.794415 2.041049 -0.436028
v 0.781421 2.111129 -0.447227
v 0.854157 2.099179 -0.416097
v 0.818935 2.137075 -0.455338
v 0.913113 2.056999 -0.449971
v 0.904417 2.101939 -0.457119
v 0.855017 2.016140 -0.437291
v 0.861940 1.992193 -0.433696
v 0.913001 2.172761 -0.470471
v 0.901539 2.217561 -0.477335
v 0.862149 2.193662 -0.469411
vt 0.957723 0.382191
vt 0.976790 0.482691
vt 0.976790 0.389456
vt 0.973849 0.487919
vt 0.979731 0.487919
vt 0.995857 0.382191
vt 0.988722 0.376026
vt 0.985391 0.364621
vt 0.976790 0.356772
vt 0.968190 0.364621
vt 0.964858 0.376026
vt 0.976790 0.494459
vt 0.988143 0.356298
vt 0.965437 0.356298
vt 0.969206 0.345470
vt 0.984374 0.345470
vt 0.976790 0.317463
vt 0.982766 0.317192
vt 0.976790 0.309280
vt 0.985669 0.309436
vt 0.976790 0.300844
vt 0.982191 0.301114
vt 0.971389 0.301114
vt 0.967911 0.309436
vt 0.982101 0.106744
vt 0.976790 0.106424
vt 0.971479 0.106744
vt 0.970814 0.317192
vt 0.985136 0.101138
vt 0.976790 0.100563
vt 0.976790 0.072779
vt 0.984985 0.073462
vt 0.982516 0.068927
vt 0.968445 0.101138
vt 0.968595 0.073462
vt 0.971065 0.068927
vt 0.976790 0.064151
vt 0.982696 0.060515
vt 0.976790 0.052894
vt 0.970885 0.060515
vt 0.966590 0.055992
vt 0.969856 0.052049
vt 0.961722 0.039952
vt 0.976790 0.037986
vt 0.967009 0.032222
vt 0.991858 0.039952
vt 0.986571 0.032222
vt 0.983724 0.052049
vt 0.986990 0.055992
vt 0.970972 0.018329
vt 0.976790 0.010838
vt 0.982608 0.018329
vt 0.995857 0.382191
vt 0.976790 0.482691
vt 0.979731 0.487919
vt 0.976790 0.389456
vt 0.976790 0.494459
vt 0.973849 0.487919
vt 0.988722 0.376026
vt 0.985391 0.364621
vt 0.976790 0.356772
vt 0.968190 0.364621
vt 0.964858 0.376026
vt 0.957723 0.382191
vt 0.965437 0.356298
vt 0.969206 0.345470
vt 0.988143 0.356298
vt 0.976790 0.317463
vt 0.984374 0.345470
vt 0.982766 0.317192
vt 0.976790 0.309280
vt 0.970814 0.317192
vt 0.967911 0.309436
vt 0.976790 0.300844
vt 0.971389 0.301114
vt 0.982191 0.301114
vt 0.985669 0.309436
vt 0.971479 0.106744
vt 0.976790 0.106424
vt 0.982101 0.106744
vt 0.968445 0.101138
vt 0.976790 0.100563
vt 0.968595 0.073462
vt 0.976790 0.072779
vt 0.971065 0.068927
vt 0.984985 0.073462
vt 0.982516 0.068927
vt 0.985136 0.101138
vt 0.976790 0.064151
vt 0.970884 0.060515
vt 0.982696 0.060515
vt 0.976790 0.052894
vt 0.966590 0.055992
vt 0.969856 0.052049
vt 0.961722 0.039952
vt 0.976790 0.037986
vt 0.967009 0.032222
vt 0.991858 0.039952
vt 0.986571 0.032222
vt 0.983724 0.052049
vt 0.986990 0.055992
vt 0.982608 0.018329
vt 0.976790 0.010838
vt 0.970972 0.018329
vn 0.363076 -0.358989 -0.859827
vn 0.026858 -0.320464 -0.946880
vn -0.127672 -0.220802 -0.966926
vn 0.457444 -0.473489 -0.752698
vn -0.621617 -0.008084 -0.783279
vn -0.546484 0.003689 -0.837461
vn -0.422441 0.241036 -0.873753
vn -0.668508 0.154119 -0.727561
vn -0.068271 -0.115865 -0.990916
vn 0.557257 -0.349710 -0.753105
vn 0.438373 -0.112780 -0.891690
vn -0.178906 -0.389456 -0.903502
vn -0.588407 0.102056 -0.802098
vn 0.461106 -0.329338 -0.823965
vn 0.573210 -0.328628 -0.750622
vn -0.664925 0.180278 -0.724828
vn -0.094757 -0.180852 -0.978935
vn -0.701679 0.094134 -0.706247
vn -0.116327 -0.147401 -0.982212
vn -0.687381 0.100613 -0.719294
vn -0.091042 -0.159434 -0.983002
vn -0.719439 0.162673 -0.675237
vn 0.598566 -0.379326 -0.705571
vn 0.536807 -0.363686 -0.761295
vn -0.733075 0.142064 -0.665146
vn -0.098163 -0.189343 -0.976992
vn 0.596874 -0.404595 -0.692852
vn 0.539381 -0.415985 -0.732137
vn -0.692530 0.099609 -0.714479
vn -0.102035 -0.198829 -0.974708
vn -0.073164 -0.127851 -0.989091
vn -0.650367 0.144148 -0.745818
vn -0.632941 0.269473 -0.725789
vn 0.536476 -0.405543 -0.740087
vn 0.536710 -0.343794 -0.770551
vn 0.613161 -0.242689 -0.751755
vn -0.087982 -0.164241 -0.982489
vn -0.674603 -0.060869 -0.735666
vn -0.151288 -0.320668 -0.935032
vn 0.410166 -0.506745 -0.758270
vn 0.315180 -0.463170 -0.828333
vn 0.480649 -0.560537 -0.674370
vn 0.367155 -0.329868 -0.869704
vn -0.071423 -0.123591 -0.989760
vn 0.468864 -0.159236 -0.868798
vn -0.523683 0.036293 -0.851140
vn -0.475934 0.229096 -0.849118
vn -0.759495 -0.050784 -0.648528
vn -0.579004 -0.095620 -0.809698
vn 0.344850 -0.104698 -0.932800
vn 0.002763 0.057323 -0.998352
vn -0.351793 0.181643 -0.918285
vn 0.523268 -0.055996 0.850327
vn 0.207134 0.020593 0.978096
vn 0.600394 -0.203082 0.773489
vn 0.055668 0.125995 0.990468
vn -0.000716 -0.052449 0.998623
vn -0.469823 0.279069 0.837488
vn 0.595180 0.183801 0.782290
vn 0.694654 -0.089822 0.713715
vn 0.115028 0.230882 0.966158
vn -0.531136 0.414003 0.739254
vn -0.265642 0.537635 0.800240
vn -0.386571 0.306196 0.869946
vn -0.437312 0.387912 0.811346
vn -0.528922 0.437542 0.727186
vn 0.612241 -0.043470 0.789475
vn 0.088958 0.166576 0.982008
vn 0.709205 -0.071377 0.701380
vn 0.675434 -0.158687 0.720144
vn 0.067238 0.199819 0.977523
vn -0.565631 0.351438 0.746024
vn -0.549452 0.361515 0.753266
vn 0.092666 0.187967 0.977794
vn -0.590846 0.405841 0.697276
vn 0.727653 -0.135150 0.672500
vn 0.676454 -0.099528 0.729729
vn -0.605474 0.383472 0.697388
vn 0.085479 0.158041 0.983726
vn 0.724512 -0.163203 0.669662
vn -0.563041 0.352250 0.747599
vn 0.077143 0.137625 0.987476
vn -0.512426 0.419686 0.749189
vn 0.114373 0.229228 0.966630
vn -0.500153 0.520655 0.691929
vn 0.685716 -0.072792 0.724220
vn 0.745940 0.008486 0.665959
vn 0.674198 -0.156295 0.721823
vn 0.095681 0.183178 0.978413
vn -0.528789 0.214954 0.821083
vn 0.555984 -0.230909 0.798475
vn 0.029882 0.022051 0.999310
vn -0.420348 0.204469 0.884025
vn -0.628297 0.197452 0.752500
vn -0.362736 0.340762 0.867355
vn 0.111972 0.223323 0.968292
vn -0.322290 0.519728 0.791209
vn 0.528123 -0.025397 0.848788
vn 0.622497 0.131381 0.771516
vn 0.611884 -0.312323 0.726672
vn 0.473834 -0.163073 0.865383
vn 0.510389 0.208372 0.834316
vn 0.180680 0.393880 0.901229
vn -0.186309 0.494743 0.848833
usemtl material
f 1/0/1 2/0/2 3/0/3
f 2/0/2 1/0/1 4/0/4
f 5/0/5 3/0/3 2/0/2
f 3/0/3 5/0/5 6/0/6
f 7/0/7 3/0/3 6/0/6
f 8/0/8 3/0/3 7/0/7
f 3/0/3 8/0/8 9/0/9
f 10/0/10 3/0/3 9/0/9
f 3/0/3 10/0/10 11/0/11
f 1/0/1 3/0/3 11/0/11
f 5/0/5 2/0/2 12/0/12
f 2/0/2 4/0/4 12/0/12
f 9/0/9 8/0/8 13/0/13
f 10/0/10 9/0/9 14/0/14
f 14/0/14 9/0/9 15/0/15
f 16/0/16 9/0/9 13/0/13
f 16/0/16 17/0/17 9/0/9
f 17/0/17 15/0/15 9/0/9
f 17/0/17 16/0/16 18/0/18
f 18/0/18 19/0/19 17/0/17
f 19/0/19 18/0/18 20/0/20
f 20/0/20 21/0/21 19/0/19
f 21/0/21 20/0/20 22/0/22
f 23/0/23 19/0/19 21/0/21
f 19/0/19 23/0/23 24/0/24
f 25/0/25 21/0/21 22/0/22
f 21/0/21 25/0/25 26/0/26
f 21/0/21 27/0/27 23/0/23
f 27/0/27 21/0/21 26/0/26
f 19/0/19 28/0/28 17/0/17
f 28/0/28 19/0/19 24/0/24
f 15/0/15 17/0/17 28/0/28
f 29/0/29 26/0/26 25/0/25
f 26/0/26 29/0/29 30/0/30
f 29/0/29 31/0/31 30/0/30
f 31/0/31 29/0/29 32/0/32
f 31/0/31 32/0/32 33/0/33
f 31/0/31 34/0/34 30/0/30
f 26/0/26 34/0/34 27/0/27
f 34/0/34 26/0/26 30/0/30
f 34/0/34 31/0/31 35/0/35
f 36/0/36 35/0/35 31/0/31
f 31/0/31 33/0/33 37/0/37
f 36/0/36 31/0/31 37/0/37
f 37/0/37 33/0/33 38/0/38
f 37/0/37 38/0/38 39/0/39
f 40/0/40 36/0/36 37/0/37
f 39/0/39 40/0/40 37/0/37
f 41/0/41 40/0/40 39/0/39
f 42/0/42 41/0/41 39/0/39
f 39/0/39 43/0/43 42/0/42
f 43/0/43 39/0/39 44/0/44
f 43/0/43 44/0/44 45/0/45
f 39/0/39 46/0/46 44/0/44
f 44/0/44 46/0/46 47/0/47
f 46/0/46 39/0/39 48/0/48
f 39/0/39 49/0/49 48/0/48
f 39/0/39 38/0/38 49/0/49
f 44/0/44 50/0/50 45/0/45
f 51/0/51 50/0/50 44/0/44
f 51/0/51 44/0/44 52/0/52
f 52/0/52 44/0/44 47/0/47
f 53/0/53 54/0/54 55/0/55
f 54/0/54 53/0/53 56/0/56
f 57/0/57 55/0/55 54/0/54
f 58/0/58 57/0/57 54/0/54
f 56/0/56 58/0/58 54/0/54
f 56/0/56 53/0/53 59/0/59
f 60/0/60 56/0/56 59/0/59
f 56/0/56 60/0/60 61/0/61
f 62/0/62 56/0/56 61/0/61
f 56/0/56 62/0/62 63/0/63
f 56/0/56 63/0/63 64/0/64
f 58/0/58 56/0/56 64/0/64
f 62/0/62 61/0/61 65/0/65
f 65/0/65 61/0/61 66/0/66
f 61/0/61 60/0/60 67/0/67
f 68/0/68 66/0/66 61/0/61
f 69/0/69 68/0/68 61/0/61
f 69/0/69 61/0/61 67/0/67
f 68/0/68 69/0/69 70/0/70
f 70/0/70 71/0/71 68/0/68
f 71/0/71 72/0/72 68/0/68
f 66/0/66 68/0/68 72/0/72
f 72/0/72 71/0/71 73/0/73
f 74/0/74 73/0/73 71/0/71
f 73/0/73 74/0/74 75/0/75
f 71/0/71 76/0/76 74/0/74
f 76/0/76 71/0/71 77/0/77
f 71/0/71 70/0/70 77/0/77
f 74/0/74 78/0/78 75/0/75
f 78/0/78 74/0/74 79/0/79
f 80/0/80 74/0/74 76/0/76
f 74/0/74 80/0/80 79/0/79
f 79/0/79 81/0/81 78/0/78
f 81/0/81 79/0/79 82/0/82
f 82/0/82 83/0/83 81/0/81
f 83/0/83 82/0/82 84/0/84
f 85/0/85 83/0/83 84/0/84
f 82/0/82 86/0/86 84/0/84
f 84/0/84 86/0/86 87/0/87
f 86/0/86 82/0/82 88/0/88
f 88/0/88 79/0/79 80/0/80
f 79/0/79 88/0/88 82/0/82
f 85/0/85 84/0/84 89/0/89
f 84/0/84 87/0/87 89/0/89
f 90/0/90 85/0/85 89/0/89
f 89/0/89 87/0/87 91/0/91
f 89/0/89 91/0/91 92/0/92
f 92/0/92 90/0/90 89/0/89
f 93/0/93 90/0/90 92/0/92
f 94/0/94 93/0/93 92/0/92
f 92/0/92 95/0/95 94/0/94
f 95/0/95 92/0/92 96/0/96
f 95/0/95 96/0/96 97/0/97
f 92/0/92 98/0/98 96/0/96
f 96/0/96 98/0/98 99/0/99
f 98/0/98 92/0/92 100/0/100
f 92/0/92 101/0/101 100/0/100
f 92/0/92 91/0/91 101/0/101
f 102/0/102 96/0/96 99/0/99
f 103/0/103 96/0/96 102/0/102
f 103/0/103 104/0/104 96/0/96
f 96/0/96 104/0/104 97/0/97
