# 
# Wavefront OBJ file
# Created with Kaydara FBX
# 
mtllib pasted__boss_cross_t6_w62.mtl

g pasted__Boss_Cross_T6_W62
v -0.068300 0.563578 -0.083161
v -0.012789 0.054512 -0.024795
v -0.132241 0.496134 -0.140236
v 0.004136 0.035423 -0.003340
v -0.021945 0.027104 -0.008177
v -0.237365 0.509651 -0.114522
v -0.214122 0.549209 -0.114082
v -0.214880 0.608433 -0.121384
v -0.179385 0.653782 -0.157173
v -0.138620 0.632759 -0.107237
v -0.108327 0.582955 -0.094457
v -0.000000 -0.000000 0.000000
v -0.238413 0.644321 -0.130974
v -0.137747 0.676430 -0.112301
v -0.169199 0.722859 -0.124935
v -0.236443 0.701410 -0.137408
v -0.235303 0.842965 -0.181039
v -0.267809 0.838844 -0.160982
v -0.244314 0.880931 -0.197742
v -0.291238 0.871809 -0.170197
v -0.257926 0.922399 -0.195670
v -0.287147 0.916504 -0.174664
v -0.239258 0.931780 -0.165780
v -0.212510 0.896921 -0.155593
v -0.551348 1.845676 -0.345715
v -0.522593 1.851680 -0.366839
v -0.504255 1.860697 -0.336980
v -0.214822 0.855746 -0.151153
v -0.572432 1.868177 -0.353145
v -0.528543 1.878604 -0.381058
v -0.567031 2.011760 -0.402540
v -0.609439 2.000675 -0.377388
v -0.604666 2.025844 -0.379349
v -0.498432 1.891781 -0.339419
v -0.536776 2.023853 -0.363909
v -0.553898 2.042037 -0.369933
v -0.580604 2.053984 -0.401975
v -0.616915 2.065796 -0.386904
v -0.594692 2.107125 -0.417405
v -0.564551 2.082499 -0.377190
v -0.551669 2.110193 -0.377641
v -0.571519 2.124421 -0.383799
v -0.551925 2.193745 -0.387760
v -0.613779 2.177732 -0.435926
v -0.585888 2.223214 -0.398913
v -0.685528 2.151129 -0.412543
v -0.672610 2.195552 -0.415000
v -0.632998 2.104810 -0.395203
v -0.642112 2.081344 -0.394418
v -0.622367 2.284017 -0.414404
v -0.658360 2.311594 -0.425784
v -0.673956 2.267561 -0.423973
v -0.068300 0.563578 -0.083161
v -0.019252 0.057988 0.004073
v 0.004136 0.035423 -0.003340
v -0.153643 0.507645 -0.044655
v -0.000000 -0.000000 0.000000
v -0.021945 0.027104 -0.008177
v -0.108327 0.582955 -0.094457
v -0.138620 0.632759 -0.107237
v -0.195485 0.662442 -0.085268
v -0.214880 0.608433 -0.121384
v -0.214122 0.549209 -0.114082
v -0.237365 0.509651 -0.114522
v -0.238413 0.644321 -0.130974
v -0.236443 0.701410 -0.137408
v -0.137747 0.676430 -0.112301
v -0.246592 0.849037 -0.130619
v -0.169199 0.722859 -0.124935
v -0.214822 0.855746 -0.151153
v -0.259859 0.889291 -0.128323
v -0.267809 0.838844 -0.160982
v -0.291238 0.871809 -0.170197
v -0.269215 0.928471 -0.145250
v -0.287147 0.916504 -0.174664
v -0.239258 0.931780 -0.165780
v -0.212510 0.896921 -0.155593
v -0.551348 1.845676 -0.345715
v -0.533882 1.857752 -0.316419
v -0.504255 1.860697 -0.336980
v -0.572432 1.868177 -0.353145
v -0.543889 1.886858 -0.312520
v -0.609439 2.000675 -0.377388
v -0.581044 2.019297 -0.339959
v -0.604666 2.025844 -0.379349
v -0.536776 2.023853 -0.363909
v -0.553898 2.042037 -0.369933
v -0.498432 1.891781 -0.339419
v -0.590962 2.059554 -0.355717
v -0.616915 2.065796 -0.386904
v -0.564551 2.082499 -0.377190
v -0.607522 2.114025 -0.360108
v -0.642112 2.081344 -0.394418
v -0.632998 2.104810 -0.395203
v -0.685528 2.151129 -0.412543
v -0.629025 2.185932 -0.367838
v -0.672610 2.195552 -0.415000
v -0.551925 2.193745 -0.387760
v -0.585888 2.223214 -0.398913
v -0.571519 2.124421 -0.383799
v -0.551669 2.110193 -0.377641
v -0.622367 2.284017 -0.414404
v -0.658360 2.311594 -0.425784
v -0.673956 2.267561 -0.423973
vt 0.957723 0.382191
vt 0.976790 0.482691
vt 0.976790 0.389456
vt 0.973849 0.487919
vt 0.979731 0.487919
vt 0.995857 0.382191
vt 0.988722 0.376026
vt 0.985391 0.364621
vt 0.976790 0.356772
vt 0.968190 0.364621
vt 0.964858 0.376026
vt 0.976790 0.494459
vt 0.988143 0.356298
vt 0.965437 0.356298
vt 0.969206 0.345470
vt 0.984374 0.345470
vt 0.976790 0.317463
vt 0.982766 0.317192
vt 0.976790 0.309280
vt 0.985669 0.309436
vt 0.976790 0.300844
vt 0.982191 0.301114
vt 0.971389 0.301114
vt 0.967911 0.309436
vt 0.982101 0.106744
vt 0.976790 0.106424
vt 0.971479 0.106744
vt 0.970814 0.317192
vt 0.985136 0.101138
vt 0.976790 0.100563
vt 0.976790 0.072779
vt 0.984985 0.073462
vt 0.982516 0.068927
vt 0.968445 0.101138
vt 0.968595 0.073462
vt 0.971065 0.068927
vt 0.976790 0.064151
vt 0.982696 0.060515
vt 0.976790 0.052894
vt 0.970885 0.060515
vt 0.966590 0.055992
vt 0.969856 0.052049
vt 0.961722 0.039952
vt 0.976790 0.037986
vt 0.967009 0.032222
vt 0.991858 0.039952
vt 0.986571 0.032222
vt 0.983724 0.052049
vt 0.986990 0.055992
vt 0.970972 0.018329
vt 0.976790 0.010838
vt 0.982608 0.018329
vt 0.995857 0.382191
vt 0.976790 0.482691
vt 0.979731 0.487919
vt 0.976790 0.389456
vt 0.976790 0.494459
vt 0.973849 0.487919
vt 0.988722 0.376026
vt 0.985391 0.364621
vt 0.976790 0.356772
vt 0.968190 0.364621
vt 0.964858 0.376026
vt 0.957723 0.382191
vt 0.965437 0.356298
vt 0.969206 0.345470
vt 0.988143 0.356298
vt 0.976790 0.317463
vt 0.984374 0.345470
vt 0.982766 0.317192
vt 0.976790 0.309280
vt 0.970814 0.317192
vt 0.967911 0.309436
vt 0.976790 0.300844
vt 0.971389 0.301114
vt 0.982191 0.301114
vt 0.985669 0.309436
vt 0.971479 0.106744
vt 0.976790 0.106424
vt 0.982101 0.106744
vt 0.968445 0.101138
vt 0.976790 0.100563
vt 0.968595 0.073462
vt 0.976790 0.072779
vt 0.971065 0.068927
vt 0.984985 0.073462
vt 0.982516 0.068927
vt 0.985136 0.101138
vt 0.976790 0.064151
vt 0.970884 0.060515
vt 0.982696 0.060515
vt 0.976790 0.052894
vt 0.966590 0.055992
vt 0.969856 0.052049
vt 0.961722 0.039952
vt 0.976790 0.037986
vt 0.967009 0.032222
vt 0.991858 0.039952
vt 0.986571 0.032222
vt 0.983724 0.052049
vt 0.986990 0.055992
vt 0.982608 0.018329
vt 0.976790 0.010838
vt 0.970972 0.018329
vn 0.654257 0.021867 -0.755956
vn 0.393599 -0.156191 -0.905916
vn 0.217888 -0.176688 -0.959847
vn 0.778948 -0.014011 -0.626932
vn -0.320320 -0.342382 -0.883272
vn -0.261980 -0.281320 -0.923161
vn -0.314485 -0.017479 -0.949102
vn -0.469006 -0.252121 -0.846444
vn 0.199494 -0.056530 -0.978267
vn 0.774554 0.144546 -0.615770
vn 0.558850 0.261093 -0.787094
vn 0.276075 -0.343557 -0.897636
vn -0.362534 -0.235307 -0.901776
vn 0.702230 0.104318 -0.704266
vn 0.772567 0.170675 -0.611565
vn -0.483541 -0.229988 -0.844567
vn 0.219121 -0.124137 -0.967768
vn -0.459249 -0.320883 -0.828326
vn 0.182174 -0.111978 -0.976869
vn -0.450381 -0.305811 -0.838831
vn 0.208939 -0.105017 -0.972274
vn -0.521864 -0.281993 -0.805070
vn 0.815925 0.144542 -0.559798
vn 0.769657 0.121424 -0.626805
vn -0.520719 -0.307300 -0.796504
vn 0.221612 -0.133014 -0.966020
vn 0.828541 0.123074 -0.546236
vn 0.799831 0.080734 -0.594771
vn -0.454457 -0.310222 -0.835004
vn 0.224390 -0.142911 -0.963964
vn 0.203172 -0.068976 -0.976710
vn -0.445819 -0.246815 -0.860423
vn -0.516462 -0.141125 -0.844601
vn 0.792375 0.087464 -0.603732
vn 0.758502 0.137343 -0.637034
vn 0.747706 0.262137 -0.610099
vn 0.214171 -0.106829 -0.970937
vn -0.334683 -0.420238 -0.843438
vn 0.258382 -0.270756 -0.927324
vn 0.765844 -0.069213 -0.639290
vn 0.679406 -0.090974 -0.728101
vn 0.838042 -0.071931 -0.540843
vn 0.640443 0.047543 -0.766532
vn 0.201869 -0.064554 -0.977283
vn 0.607266 0.243116 -0.756388
vn -0.263341 -0.240739 -0.934182
vn -0.351257 -0.062604 -0.934184
vn -0.420154 -0.473282 -0.774258
vn -0.227751 -0.380292 -0.896386
vn 0.491033 0.210840 -0.845241
vn 0.143221 0.122113 -0.982128
vn -0.215742 -0.014612 -0.976341
vn 0.275766 0.225428 0.934417
vn -0.032431 0.072938 0.996809
vn 0.441187 0.167656 0.881615
vn -0.215322 0.056305 0.974919
vn -0.144900 -0.117118 0.982490
vn -0.679018 -0.149455 0.718748
vn 0.188357 0.460348 0.867526
vn 0.449913 0.319151 0.834099
vn -0.233644 0.176426 0.956182
vn -0.793642 -0.077527 0.603425
vn -0.684972 0.181791 0.705525
vn -0.639865 -0.078082 0.764510
vn -0.719609 -0.043266 0.693031
vn -0.804894 -0.057151 0.590660
vn 0.345144 0.296387 0.890522
vn -0.214872 0.109261 0.970511
vn 0.451209 0.343512 0.823656
vn 0.478423 0.253596 0.840714
vn -0.251558 0.121278 0.960214
vn -0.780667 -0.148032 0.607162
vn -0.776288 -0.130527 0.616717
vn -0.225012 0.128357 0.965864
vn -0.825628 -0.118639 0.551600
vn 0.510958 0.308558 0.802318
vn 0.439654 0.298877 0.846981
vn -0.822273 -0.145115 0.550281
vn -0.212325 0.100398 0.972028
vn 0.526982 0.285291 0.800562
vn -0.779520 -0.145858 0.609158
vn -0.206155 0.079145 0.975313
vn -0.785063 -0.062029 0.616303
vn -0.233169 0.174701 0.956615
vn -0.830232 0.027594 0.556734
vn 0.430475 0.325716 0.841784
vn 0.433942 0.430881 0.791225
vn 0.475668 0.254527 0.841995
vn -0.219796 0.126595 0.967297
vn -0.679215 -0.234944 0.695318
vn 0.421314 0.116097 0.899453
vn -0.169729 -0.040514 0.984658
vn -0.602616 -0.178719 0.777762
vn -0.730229 -0.306522 0.610582
vn -0.643680 -0.036175 0.764440
vn -0.231483 0.168519 0.958132
vn -0.714285 0.132644 0.687170
vn 0.260108 0.252102 0.932088
vn 0.244231 0.438388 0.864967
vn 0.527954 0.094781 0.843967
vn 0.304564 0.110659 0.946042
vn 0.099934 0.421194 0.901448
vn -0.277181 0.348222 0.895495
vn -0.606830 0.195714 0.770359
usemtl material
f 1/0/1 2/0/2 3/0/3
f 2/0/2 1/0/1 4/0/4
f 5/0/5 3/0/3 2/0/2
f 3/0/3 5/0/5 6/0/6
f 7/0/7 3/0/3 6/0/6
f 8/0/8 3/0/3 7/0/7
f 3/0/3 8/0/8 9/0/9
f 10/0/10 3/0/3 9/0/9
f 3/0/3 10/0/10 11/0/11
f 1/0/1 3/0/3 11/0/11
f 5/0/5 2/0/2 12/0/12
f 2/0/2 4/0/4 12/0/12
f 9/0/9 8/0/8 13/0/13
f 10/0/10 9/0/9 14/0/14
f 14/0/14 9/0/9 15/0/15
f 16/0/16 9/0/9 13/0/13
f 16/0/16 17/0/17 9/0/9
f 17/0/17 15/0/15 9/0/9
f 17/0/17 16/0/16 18/0/18
f 18/0/18 19/0/19 17/0/17
f 19/0/19 18/0/18 20/0/20
f 20/0/20 21/0/21 19/0/19
f 21/0/21 20/0/20 22/0/22
f 23/0/23 19/0/19 21/0/21
f 19/0/19 23/0/23 24/0/24
f 25/0/25 21/0/21 22/0/22
f 21/0/21 25/0/25 26/0/26
f 21/0/21 27/0/27 23/0/23
f 27/0/27 21/0/21 26/0/26
f 19/0/19 28/0/28 17/0/17
f 28/0/28 19/0/19 24/0/24
f 15/0/15 17/0/17 28/0/28
f 29/0/29 26/0/26 25/0/25
f 26/0/26 29/0/29 30/0/30
f 29/0/29 31/0/31 30/0/30
f 31/0/31 29/0/29 32/0/32
f 31/0/31 32/0/32 33/0/33
f 31/0/31 34/0/34 30/0/30
f 26/0/26 34/0/34 27/0/27
f 34/0/34 26/0/26 30/0/30
f 34/0/34 31/0/31 35/0/35
f 36/0/36 35/0/35 31/0/31
f 31/0/31 33/0/33 37/0/37
f 36/0/36 31/0/31 37/0/37
f 37/0/37 33/0/33 38/0/38
f 37/0/37 38/0/38 39/0/39
f 40/0/40 36/0/36 37/0/37
f 39/0/39 40/0/40 37/0/37
f 41/0/41 40/0/40 39/0/39
f 42/0/42 41/0/41 39/0/39
f 39/0/39 43/0/43 42/0/42
f 43/0/43 39/0/39 44/0/44
f 43/0/43 44/0/44 45/0/45
f 39/0/39 46/0/46 44/0/44
f 44/0/44 46/0/46 47/0/47
f 46/0/46 39/0/39 48/0/48
f 39/0/39 49/0/49 48/0/48
f 39/0/39 38/0/38 49/0/49
f 44/0/44 50/0/50 45/0/45
f 51/0/51 50/0/50 44/0/44
f 51/0/51 44/0/44 52/0/52
f 52/0/52 44/0/44 47/0/47
f 53/0/53 54/0/54 55/0/55
f 54/0/54 53/0/53 56/0/56
f 57/0/57 55/0/55 54/0/54
f 58/0/58 57/0/57 54/0/54
f 56/0/56 58/0/58 54/0/54
f 56/0/56 53/0/53 59/0/59
f 60/0/60 56/0/56 59/0/59
f 56/0/56 60/0/60 61/0/61
f 62/0/62 56/0/56 61/0/61
f 56/0/56 62/0/62 63/0/63
f 56/0/56 63/0/63 64/0/64
f 58/0/58 56/0/56 64/0/64
f 62/0/62 61/0/61 65/0/65
f 65/0/65 61/0/61 66/0/66
f 61/0/61 60/0/60 67/0/67
f 68/0/68 66/0/66 61/0/61
f 69/0/69 68/0/68 61/0/61
f 69/0/69 61/0/61 67/0/67
f 68/0/68 69/0/69 70/0/70
f 70/0/70 71/0/71 68/0/68
f 71/0/71 72/0/72 68/0/68
f 66/0/66 68/0/68 72/0/72
f 72/0/72 71/0/71 73/0/73
f 74/0/74 73/0/73 71/0/71
f 73/0/73 74/0/74 75/0/75
f 71/0/71 76/0/76 74/0/74
f 76/0/76 71/0/71 77/0/77
f 71/0/71 70/0/70 77/0/77
f 74/0/74 78/0/78 75/0/75
f 78/0/78 74/0/74 79/0/79
f 80/0/80 74/0/74 76/0/76
f 74/0/74 80/0/80 79/0/79
f 79/0/79 81/0/81 78/0/78
f 81/0/81 79/0/79 82/0/82
f 82/0/82 83/0/83 81/0/81
f 83/0/83 82/0/82 84/0/84
f 85/0/85 83/0/83 84/0/84
f 82/0/82 86/0/86 84/0/84
f 84/0/84 86/0/86 87/0/87
f 86/0/86 82/0/82 88/0/88
f 88/0/88 79/0/79 80/0/80
f 79/0/79 88/0/88 82/0/82
f 85/0/85 84/0/84 89/0/89
f 84/0/84 87/0/87 89/0/89
f 90/0/90 85/0/85 89/0/89
f 89/0/89 87/0/87 91/0/91
f 89/0/89 91/0/91 92/0/92
f 92/0/92 90/0/90 89/0/89
f 93/0/93 90/0/90 92/0/92
f 94/0/94 93/0/93 92/0/92
f 92/0/92 95/0/95 94/0/94
f 95/0/95 92/0/92 96/0/96
f 95/0/95 96/0/96 97/0/97
f 92/0/92 98/0/98 96/0/96
f 96/0/96 98/0/98 99/0/99
f 98/0/98 92/0/92 100/0/100
f 92/0/92 101/0/101 100/0/100
f 92/0/92 91/0/91 101/0/101
f 102/0/102 96/0/96 99/0/99
f 103/0/103 96/0/96 102/0/102
f 103/0/103 104/0/104 96/0/96
f 96/0/96 104/0/104 97/0/97
