# 
# Wavefront OBJ file
# Created with Kaydara FBX
# 
mtllib pasted__boss_cross_t6_w45.mtl

g pasted__Boss_Cross_T6_W45
v -0.007178 0.556850 0.138086
v -0.010142 0.060390 -0.000317
v -0.090035 0.518717 0.078293
v 0.008107 0.033875 0.008353
v -0.019290 0.029269 0.007364
v -0.184779 0.526990 0.131678
v -0.156818 0.562337 0.140284
v -0.151055 0.619998 0.154546
v -0.117911 0.673545 0.129416
v -0.070944 0.633466 0.157437
v -0.045680 0.581022 0.144294
v 0.000000 -0.000000 -0.000000
v -0.170988 0.658015 0.164083
v -0.065240 0.675794 0.167898
v -0.092053 0.725113 0.180275
v -0.162690 0.713237 0.177726
v -0.151456 0.860624 0.187402
v -0.179377 0.850993 0.211970
v -0.158505 0.902480 0.187718
v -0.199528 0.886156 0.220800
v -0.165664 0.940844 0.207368
v -0.190444 0.929050 0.231383
v -0.140138 0.937508 0.233198
v -0.116825 0.900061 0.223784
v -0.356194 1.867351 0.464921
v -0.331874 1.879312 0.440950
v -0.306725 1.875668 0.466705
v -0.123715 0.860351 0.213978
v -0.375120 1.892031 0.471145
v -0.336936 1.909853 0.438919
v -0.360671 2.043225 0.475282
v -0.398077 2.025743 0.504421
v -0.390454 2.049567 0.510285
v -0.297383 1.905101 0.473950
v -0.321746 2.038576 0.507175
v -0.337123 2.058533 0.512209
v -0.368002 2.082847 0.493822
v -0.398484 2.090031 0.520361
v -0.377656 2.138555 0.501819
v -0.343475 2.099279 0.522345
v -0.327342 2.124476 0.528502
v -0.345925 2.140952 0.532690
v -0.318386 2.205714 0.548591
v -0.390431 2.211856 0.514326
v -0.349617 2.238886 0.556989
v -0.458734 2.182117 0.543527
v -0.440719 2.223569 0.553702
v -0.410510 2.130093 0.530360
v -0.422351 2.108502 0.525074
v -0.379947 2.302845 0.573015
v -0.413450 2.334449 0.581037
v -0.434143 2.293734 0.571060
v -0.007178 0.556850 0.138086
v -0.009980 0.053223 0.028595
v 0.008107 0.033875 0.008353
v -0.089499 0.494987 0.174015
v 0.000000 -0.000000 -0.000000
v -0.019290 0.029269 0.007364
v -0.045680 0.581022 0.144294
v -0.070944 0.633466 0.157437
v -0.117507 0.655693 0.201428
v -0.151055 0.619998 0.154546
v -0.156818 0.562337 0.140284
v -0.184779 0.526990 0.131678
v -0.170988 0.658015 0.164083
v -0.162690 0.713237 0.177726
v -0.065240 0.675794 0.167898
v -0.151173 0.848107 0.237896
v -0.092053 0.725113 0.180275
v -0.123715 0.860351 0.213978
v -0.158115 0.885245 0.257241
v -0.179377 0.850993 0.211970
v -0.199528 0.886156 0.220800
v -0.165381 0.928326 0.257862
v -0.190444 0.929050 0.231383
v -0.140138 0.937508 0.233198
v -0.116825 0.900061 0.223784
v -0.356194 1.867351 0.464921
v -0.331592 1.866795 0.491444
v -0.306725 1.875668 0.466705
v -0.375120 1.892031 0.471145
v -0.336551 1.892837 0.507559
v -0.398077 2.025743 0.504421
v -0.360320 2.027688 0.537955
v -0.390454 2.049567 0.510285
v -0.321746 2.038576 0.507175
v -0.337123 2.058533 0.512209
v -0.297383 1.905101 0.473950
v -0.367742 2.071362 0.540148
v -0.398484 2.090031 0.520361
v -0.343475 2.099279 0.522345
v -0.377334 2.124330 0.559200
v -0.422351 2.108502 0.525074
v -0.410510 2.130093 0.530360
v -0.458734 2.182117 0.543527
v -0.390049 2.194952 0.582515
v -0.440719 2.223569 0.553702
v -0.318386 2.205714 0.548591
v -0.349617 2.238886 0.556989
v -0.345925 2.140952 0.532690
v -0.327342 2.124476 0.528502
v -0.379947 2.302845 0.573015
v -0.413450 2.334449 0.581037
v -0.434143 2.293734 0.571060
vt 0.957723 0.382191
vt 0.976790 0.482691
vt 0.976790 0.389456
vt 0.973849 0.487919
vt 0.979731 0.487919
vt 0.995857 0.382191
vt 0.988722 0.376026
vt 0.985391 0.364621
vt 0.976790 0.356772
vt 0.968190 0.364621
vt 0.964858 0.376026
vt 0.976790 0.494459
vt 0.988143 0.356298
vt 0.965437 0.356298
vt 0.969206 0.345470
vt 0.984374 0.345470
vt 0.976790 0.317463
vt 0.982766 0.317192
vt 0.976790 0.309280
vt 0.985669 0.309436
vt 0.976790 0.300844
vt 0.982191 0.301114
vt 0.971389 0.301114
vt 0.967911 0.309436
vt 0.982101 0.106744
vt 0.976790 0.106424
vt 0.971479 0.106744
vt 0.970814 0.317192
vt 0.985136 0.101138
vt 0.976790 0.100563
vt 0.976790 0.072779
vt 0.984985 0.073462
vt 0.982516 0.068927
vt 0.968445 0.101138
vt 0.968595 0.073462
vt 0.971065 0.068927
vt 0.976790 0.064151
vt 0.982696 0.060515
vt 0.976790 0.052894
vt 0.970885 0.060515
vt 0.966590 0.055992
vt 0.969856 0.052049
vt 0.961722 0.039952
vt 0.976790 0.037986
vt 0.967009 0.032222
vt 0.991858 0.039952
vt 0.986571 0.032222
vt 0.983724 0.052049
vt 0.986990 0.055992
vt 0.970972 0.018329
vt 0.976790 0.010838
vt 0.982608 0.018329
vt 0.995857 0.382191
vt 0.976790 0.482691
vt 0.979731 0.487919
vt 0.976790 0.389456
vt 0.976790 0.494459
vt 0.973849 0.487919
vt 0.988722 0.376026
vt 0.985391 0.364621
vt 0.976790 0.356772
vt 0.968190 0.364621
vt 0.964858 0.376026
vt 0.957723 0.382191
vt 0.965437 0.356298
vt 0.969206 0.345470
vt 0.988143 0.356298
vt 0.976790 0.317463
vt 0.984374 0.345470
vt 0.982766 0.317192
vt 0.976790 0.309280
vt 0.970814 0.317192
vt 0.967911 0.309436
vt 0.976790 0.300844
vt 0.971389 0.301114
vt 0.982191 0.301114
vt 0.985669 0.309436
vt 0.971479 0.106744
vt 0.976790 0.106424
vt 0.982101 0.106744
vt 0.968445 0.101138
vt 0.976790 0.100563
vt 0.968595 0.073462
vt 0.976790 0.072779
vt 0.971065 0.068927
vt 0.984985 0.073462
vt 0.982516 0.068927
vt 0.985136 0.101138
vt 0.976790 0.064151
vt 0.970884 0.060515
vt 0.982696 0.060515
vt 0.976790 0.052894
vt 0.966590 0.055992
vt 0.969856 0.052049
vt 0.961722 0.039952
vt 0.976790 0.037986
vt 0.967009 0.032222
vt 0.991858 0.039952
vt 0.986571 0.032222
vt 0.983724 0.052049
vt 0.986990 0.055992
vt 0.982608 0.018329
vt 0.976790 0.010838
vt 0.970972 0.018329
vn 0.481021 0.267974 -0.834751
vn 0.173417 0.171654 -0.969774
vn -0.010763 0.181496 -0.983333
vn 0.623642 0.180549 -0.760574
vn -0.538940 0.026513 -0.841927
vn -0.482378 0.094997 -0.870797
vn -0.502951 0.351915 -0.789428
vn -0.663239 0.103986 -0.741148
vn -0.016149 0.300670 -0.953592
vn 0.643111 0.323648 -0.694018
vn 0.414462 0.506146 -0.756332
vn 0.035919 0.000789 -0.999354
vn -0.569201 0.134771 -0.811078
vn 0.549321 0.322848 -0.770724
vn 0.645585 0.346409 -0.680603
vn -0.673945 0.124558 -0.728205
vn -0.004103 0.233100 -0.972444
vn -0.659335 0.033024 -0.751124
vn -0.040142 0.249610 -0.967514
vn -0.650870 0.050451 -0.757511
vn -0.012303 0.252999 -0.967388
vn -0.709960 0.063585 -0.701366
vn 0.694756 0.300775 -0.653336
vn 0.632953 0.306533 -0.710921
vn -0.710503 0.036895 -0.702727
vn -0.002518 0.224118 -0.974559
vn 0.706894 0.275236 -0.651572
vn 0.663316 0.255394 -0.703410
vn -0.654620 0.045152 -0.754609
vn -0.000742 0.214025 -0.976828
vn -0.013944 0.288375 -0.957416
vn -0.642922 0.112953 -0.757557
vn -0.693842 0.208651 -0.689238
vn 0.655153 0.265357 -0.707362
vn 0.622187 0.325657 -0.711921
vn 0.634146 0.431908 -0.641338
vn -0.007204 0.250583 -0.968068
vn -0.555166 -0.059755 -0.829590
vn 0.022471 0.080170 -0.996528
vn 0.600923 0.134623 -0.787889
vn 0.495909 0.151786 -0.855006
vn 0.690804 0.091949 -0.717172
vn 0.468930 0.296409 -0.832013
vn -0.014725 0.292749 -0.956076
vn 0.465300 0.475644 -0.746497
vn -0.480486 0.136789 -0.866269
vn -0.541600 0.306375 -0.782818
vn -0.630889 -0.130316 -0.764851
vn -0.457070 -0.008475 -0.889391
vn 0.329962 0.484538 -0.810153
vn -0.047327 0.470576 -0.881089
vn -0.412480 0.359711 -0.836940
vn 0.490499 -0.151695 0.858137
vn 0.184094 -0.300759 0.935764
vn 0.632102 -0.193978 0.750213
vn 0.000090 -0.298836 0.954304
vn 0.046487 -0.465941 0.883594
vn -0.529963 -0.371214 0.762456
vn 0.423739 0.095343 0.900753
vn 0.651251 -0.036319 0.757993
vn -0.005297 -0.179589 0.983727
vn -0.655104 -0.255951 0.710864
vn -0.493670 -0.058899 0.867652
vn -0.472911 -0.323990 0.819381
vn -0.560249 -0.261164 0.786075
vn -0.665890 -0.231748 0.709142
vn 0.558272 -0.073129 0.826428
vn 0.006767 -0.248144 0.968699
vn 0.653643 -0.009921 0.756738
vn 0.671373 -0.101010 0.734204
vn -0.029279 -0.231325 0.972436
vn -0.651278 -0.323389 0.686481
vn -0.642701 -0.310924 0.700187
vn -0.001427 -0.228179 0.973618
vn -0.702344 -0.273225 0.657314
vn 0.702401 -0.037408 0.710797
vn 0.641216 -0.059392 0.765059
vn -0.702957 -0.297465 0.646039
vn 0.008350 -0.257053 0.966361
vn 0.714441 -0.059145 0.697191
vn -0.649463 -0.322148 0.688781
vn 0.012134 -0.278282 0.960423
vn -0.642023 -0.246792 0.725879
vn -0.004982 -0.181379 0.983401
vn -0.685980 -0.139269 0.714168
vn 0.634877 -0.032099 0.771947
vn 0.642018 0.083996 0.762074
vn 0.669092 -0.100475 0.736356
vn 0.003670 -0.230631 0.973034
vn -0.546528 -0.441779 0.711434
vn 0.609565 -0.247395 0.753144
vn 0.033199 -0.394526 0.918285
vn -0.447679 -0.424092 0.787229
vn -0.623115 -0.474124 0.622040
vn -0.470957 -0.284925 0.834876
vn -0.003869 -0.187762 0.982207
vn -0.532503 -0.096166 0.840948
vn 0.478462 -0.125308 0.869122
vn 0.474396 0.073124 0.877269
vn 0.698579 -0.251921 0.669719
vn 0.505304 -0.263883 0.821604
vn 0.339762 0.050884 0.939134
vn -0.036795 0.004419 0.999313
vn -0.402680 -0.073947 0.912349
usemtl material
f 1/0/1 2/0/2 3/0/3
f 2/0/2 1/0/1 4/0/4
f 5/0/5 3/0/3 2/0/2
f 3/0/3 5/0/5 6/0/6
f 7/0/7 3/0/3 6/0/6
f 8/0/8 3/0/3 7/0/7
f 3/0/3 8/0/8 9/0/9
f 10/0/10 3/0/3 9/0/9
f 3/0/3 10/0/10 11/0/11
f 1/0/1 3/0/3 11/0/11
f 5/0/5 2/0/2 12/0/12
f 2/0/2 4/0/4 12/0/12
f 9/0/9 8/0/8 13/0/13
f 10/0/10 9/0/9 14/0/14
f 14/0/14 9/0/9 15/0/15
f 16/0/16 9/0/9 13/0/13
f 16/0/16 17/0/17 9/0/9
f 17/0/17 15/0/15 9/0/9
f 17/0/17 16/0/16 18/0/18
f 18/0/18 19/0/19 17/0/17
f 19/0/19 18/0/18 20/0/20
f 20/0/20 21/0/21 19/0/19
f 21/0/21 20/0/20 22/0/22
f 23/0/23 19/0/19 21/0/21
f 19/0/19 23/0/23 24/0/24
f 25/0/25 21/0/21 22/0/22
f 21/0/21 25/0/25 26/0/26
f 21/0/21 27/0/27 23/0/23
f 27/0/27 21/0/21 26/0/26
f 19/0/19 28/0/28 17/0/17
f 28/0/28 19/0/19 24/0/24
f 15/0/15 17/0/17 28/0/28
f 29/0/29 26/0/26 25/0/25
f 26/0/26 29/0/29 30/0/30
f 29/0/29 31/0/31 30/0/30
f 31/0/31 29/0/29 32/0/32
f 31/0/31 32/0/32 33/0/33
f 31/0/31 34/0/34 30/0/30
f 26/0/26 34/0/34 27/0/27
f 34/0/34 26/0/26 30/0/30
f 34/0/34 31/0/31 35/0/35
f 36/0/36 35/0/35 31/0/31
f 31/0/31 33/0/33 37/0/37
f 36/0/36 31/0/31 37/0/37
f 37/0/37 33/0/33 38/0/38
f 37/0/37 38/0/38 39/0/39
f 40/0/40 36/0/36 37/0/37
f 39/0/39 40/0/40 37/0/37
f 41/0/41 40/0/40 39/0/39
f 42/0/42 41/0/41 39/0/39
f 39/0/39 43/0/43 42/0/42
f 43/0/43 39/0/39 44/0/44
f 43/0/43 44/0/44 45/0/45
f 39/0/39 46/0/46 44/0/44
f 44/0/44 46/0/46 47/0/47
f 46/0/46 39/0/39 48/0/48
f 39/0/39 49/0/49 48/0/48
f 39/0/39 38/0/38 49/0/49
f 44/0/44 50/0/50 45/0/45
f 51/0/51 50/0/50 44/0/44
f 51/0/51 44/0/44 52/0/52
f 52/0/52 44/0/44 47/0/47
f 53/0/53 54/0/54 55/0/55
f 54/0/54 53/0/53 56/0/56
f 57/0/57 55/0/55 54/0/54
f 58/0/58 57/0/57 54/0/54
f 56/0/56 58/0/58 54/0/54
f 56/0/56 53/0/53 59/0/59
f 60/0/60 56/0/56 59/0/59
f 56/0/56 60/0/60 61/0/61
f 62/0/62 56/0/56 61/0/61
f 56/0/56 62/0/62 63/0/63
f 56/0/56 63/0/63 64/0/64
f 58/0/58 56/0/56 64/0/64
f 62/0/62 61/0/61 65/0/65
f 65/0/65 61/0/61 66/0/66
f 61/0/61 60/0/60 67/0/67
f 68/0/68 66/0/66 61/0/61
f 69/0/69 68/0/68 61/0/61
f 69/0/69 61/0/61 67/0/67
f 68/0/68 69/0/69 70/0/70
f 70/0/70 71/0/71 68/0/68
f 71/0/71 72/0/72 68/0/68
f 66/0/66 68/0/68 72/0/72
f 72/0/72 71/0/71 73/0/73
f 74/0/74 73/0/73 71/0/71
f 73/0/73 74/0/74 75/0/75
f 71/0/71 76/0/76 74/0/74
f 76/0/76 71/0/71 77/0/77
f 71/0/71 70/0/70 77/0/77
f 74/0/74 78/0/78 75/0/75
f 78/0/78 74/0/74 79/0/79
f 80/0/80 74/0/74 76/0/76
f 74/0/74 80/0/80 79/0/79
f 79/0/79 81/0/81 78/0/78
f 81/0/81 79/0/79 82/0/82
f 82/0/82 83/0/83 81/0/81
f 83/0/83 82/0/82 84/0/84
f 85/0/85 83/0/83 84/0/84
f 82/0/82 86/0/86 84/0/84
f 84/0/84 86/0/86 87/0/87
f 86/0/86 82/0/82 88/0/88
f 88/0/88 79/0/79 80/0/80
f 79/0/79 88/0/88 82/0/82
f 85/0/85 84/0/84 89/0/89
f 84/0/84 87/0/87 89/0/89
f 90/0/90 85/0/85 89/0/89
f 89/0/89 87/0/87 91/0/91
f 89/0/89 91/0/91 92/0/92
f 92/0/92 90/0/90 89/0/89
f 93/0/93 90/0/90 92/0/92
f 94/0/94 93/0/93 92/0/92
f 92/0/92 95/0/95 94/0/94
f 95/0/95 92/0/92 96/0/96
f 95/0/95 96/0/96 97/0/97
f 92/0/92 98/0/98 96/0/96
f 96/0/96 98/0/98 99/0/99
f 98/0/98 92/0/92 100/0/100
f 92/0/92 101/0/101 100/0/100
f 92/0/92 91/0/91 101/0/101
f 102/0/102 96/0/96 99/0/99
f 103/0/103 96/0/96 102/0/102
f 103/0/103 104/0/104 96/0/96
f 96/0/96 104/0/104 97/0/97
