# 
# Wavefront OBJ file
# Created with Kaydara FBX
# 
mtllib pasted__boss_cross_t6_w37.mtl

g pasted__Boss_Cross_T6_W37
v -0.017166 0.571248 -0.050809
v -0.010818 0.056800 -0.020165
v -0.097978 0.514155 -0.096683
v 0.007497 0.034901 -0.002955
v -0.019810 0.029695 -0.002972
v -0.194183 0.537495 -0.050917
v -0.166864 0.574254 -0.053689
v -0.162137 0.633520 -0.058847
v -0.128955 0.676623 -0.099326
v -0.082289 0.648745 -0.058799
v -0.056091 0.595376 -0.053622
v 0.000000 0.000000 0.000000
v -0.182747 0.672180 -0.062626
v -0.077347 0.692277 -0.062561
v -0.105036 0.742412 -0.067478
v -0.175443 0.728988 -0.067521
v -0.166149 0.871706 -0.106095
v -0.194596 0.870044 -0.080328
v -0.173680 0.911247 -0.119564
v -0.215371 0.905771 -0.083849
v -0.181792 0.953768 -0.113624
v -0.207061 0.949943 -0.087610
v -0.156918 0.959504 -0.087580
v -0.132941 0.921488 -0.083799
v -0.389598 1.909811 -0.175669
v -0.364793 1.913801 -0.201706
v -0.340291 1.919213 -0.175639
v -0.139117 0.880622 -0.080294
v -0.408961 1.934803 -0.178217
v -0.370147 1.941919 -0.213670
v -0.396353 2.079382 -0.223197
v -0.434311 2.071599 -0.190755
v -0.427117 2.096179 -0.192803
v -0.331480 1.949577 -0.178170
v -0.358231 2.086106 -0.190709
v -0.373962 2.106315 -0.192771
v -0.404620 2.122729 -0.218719
v -0.435872 2.137558 -0.196614
v -0.415117 2.177814 -0.229491
v -0.381044 2.148012 -0.196581
v -0.365367 2.174149 -0.198619
v -0.384240 2.190728 -0.200414
v -0.357870 2.257663 -0.205872
v -0.429053 2.250939 -0.241790
v -0.389688 2.291152 -0.209389
v -0.497758 2.230989 -0.205956
v -0.480491 2.273838 -0.209444
v -0.448614 2.178454 -0.200453
v -0.460064 2.156092 -0.198676
v -0.421158 2.356248 -0.215694
v -0.455218 2.388089 -0.219104
v -0.475175 2.345949 -0.215727
v -0.017166 0.571248 -0.050809
v -0.011336 0.059423 0.009502
v 0.007497 0.034901 -0.002955
v -0.099694 0.522840 0.001539
v 0.000000 0.000000 0.000000
v -0.019810 0.029695 -0.002972
v -0.056091 0.595376 -0.053622
v -0.082289 0.648745 -0.058799
v -0.130246 0.683157 -0.025432
v -0.162137 0.633520 -0.058847
v -0.166864 0.574254 -0.053689
v -0.194183 0.537495 -0.050917
v -0.182747 0.672180 -0.062626
v -0.175443 0.728988 -0.067521
v -0.077347 0.692277 -0.062561
v -0.167054 0.876287 -0.054281
v -0.105036 0.742412 -0.067478
v -0.139117 0.880622 -0.080294
v -0.174926 0.917555 -0.048226
v -0.194596 0.870044 -0.080328
v -0.215371 0.905771 -0.083849
v -0.182697 0.958350 -0.061810
v -0.207061 0.949943 -0.087610
v -0.156918 0.959504 -0.087580
v -0.132941 0.921488 -0.083799
v -0.389598 1.909811 -0.175669
v -0.365698 1.918382 -0.149892
v -0.340291 1.919213 -0.175639
v -0.408961 1.934803 -0.178217
v -0.371378 1.948147 -0.143238
v -0.434311 2.071599 -0.190755
v -0.397476 2.085069 -0.158886
v -0.427117 2.096179 -0.192803
v -0.358231 2.086106 -0.190709
v -0.373962 2.106315 -0.192771
v -0.331480 1.949577 -0.178170
v -0.405450 2.126932 -0.171183
v -0.435872 2.137558 -0.196614
v -0.381044 2.148012 -0.196581
v -0.416145 2.183020 -0.170610
v -0.460064 2.156092 -0.198676
v -0.448614 2.178454 -0.200453
v -0.497758 2.230989 -0.205956
v -0.430275 2.257126 -0.171819
v -0.480491 2.273838 -0.209444
v -0.357870 2.257663 -0.205872
v -0.389688 2.291152 -0.209389
v -0.384240 2.190728 -0.200414
v -0.365367 2.174149 -0.198619
v -0.421158 2.356248 -0.215694
v -0.455218 2.388089 -0.219104
v -0.475175 2.345949 -0.215727
vt 0.957723 0.382191
vt 0.976790 0.482691
vt 0.976790 0.389456
vt 0.973849 0.487919
vt 0.979731 0.487919
vt 0.995857 0.382191
vt 0.988722 0.376026
vt 0.985391 0.364621
vt 0.976790 0.356772
vt 0.968190 0.364621
vt 0.964858 0.376026
vt 0.976790 0.494459
vt 0.988143 0.356298
vt 0.965437 0.356298
vt 0.969206 0.345470
vt 0.984374 0.345470
vt 0.976790 0.317463
vt 0.982766 0.317192
vt 0.976790 0.309280
vt 0.985669 0.309436
vt 0.976790 0.300844
vt 0.982191 0.301114
vt 0.971389 0.301114
vt 0.967911 0.309436
vt 0.982101 0.106744
vt 0.976790 0.106424
vt 0.971479 0.106744
vt 0.970814 0.317192
vt 0.985136 0.101138
vt 0.976790 0.100563
vt 0.976790 0.072779
vt 0.984985 0.073462
vt 0.982516 0.068927
vt 0.968445 0.101138
vt 0.968595 0.073462
vt 0.971065 0.068927
vt 0.976790 0.064151
vt 0.982696 0.060515
vt 0.976790 0.052894
vt 0.970885 0.060515
vt 0.966590 0.055992
vt 0.969856 0.052049
vt 0.961722 0.039952
vt 0.976790 0.037986
vt 0.967009 0.032222
vt 0.991858 0.039952
vt 0.986571 0.032222
vt 0.983724 0.052049
vt 0.986990 0.055992
vt 0.970972 0.018329
vt 0.976790 0.010838
vt 0.982608 0.018329
vt 0.995857 0.382191
vt 0.976790 0.482691
vt 0.979731 0.487919
vt 0.976790 0.389456
vt 0.976790 0.494459
vt 0.973849 0.487919
vt 0.988722 0.376026
vt 0.985391 0.364621
vt 0.976790 0.356772
vt 0.968190 0.364621
vt 0.964858 0.376026
vt 0.957723 0.382191
vt 0.965437 0.356298
vt 0.969206 0.345470
vt 0.988143 0.356298
vt 0.976790 0.317463
vt 0.984374 0.345470
vt 0.982766 0.317192
vt 0.976790 0.309280
vt 0.970814 0.317192
vt 0.967911 0.309436
vt 0.976790 0.300844
vt 0.971389 0.301114
vt 0.982191 0.301114
vt 0.985669 0.309436
vt 0.971479 0.106744
vt 0.976790 0.106424
vt 0.982101 0.106744
vt 0.968445 0.101138
vt 0.976790 0.100563
vt 0.968595 0.073462
vt 0.976790 0.072779
vt 0.971065 0.068927
vt 0.984985 0.073462
vt 0.982516 0.068927
vt 0.985136 0.101138
vt 0.976790 0.064151
vt 0.970884 0.060515
vt 0.982696 0.060515
vt 0.976790 0.052894
vt 0.966590 0.055992
vt 0.969856 0.052049
vt 0.961722 0.039952
vt 0.976790 0.037986
vt 0.967009 0.032222
vt 0.991858 0.039952
vt 0.986571 0.032222
vt 0.983724 0.052049
vt 0.986990 0.055992
vt 0.982608 0.018329
vt 0.976790 0.010838
vt 0.970972 0.018329
vn 0.499751 -0.008621 -0.866126
vn 0.197005 -0.149546 -0.968930
vn 0.013071 -0.148195 -0.988872
vn 0.641369 -0.064419 -0.764524
vn -0.516810 -0.259013 -0.815978
vn -0.460322 -0.202535 -0.864340
vn -0.485980 0.066403 -0.871444
vn -0.644623 -0.155388 -0.748542
vn 0.005551 -0.025953 -0.999648
vn 0.657444 0.092886 -0.747757
vn 0.428453 0.240757 -0.870898
vn 0.062239 -0.323360 -0.944227
vn -0.549122 -0.147199 -0.822677
vn 0.565736 0.065374 -0.821991
vn 0.659305 0.118822 -0.742428
vn -0.655910 -0.131949 -0.743217
vn 0.018867 -0.095745 -0.995227
vn -0.639647 -0.225666 -0.734797
vn -0.017478 -0.079243 -0.996702
vn -0.631216 -0.211093 -0.746328
vn 0.010306 -0.075434 -0.997098
vn -0.691923 -0.181561 -0.698769
vn 0.708267 0.085486 -0.700750
vn 0.647944 0.071016 -0.758370
vn -0.692110 -0.207260 -0.691395
vn 0.020620 -0.104906 -0.994268
vn 0.720631 0.062123 -0.690530
vn 0.678673 0.025709 -0.733990
vn -0.634977 -0.215243 -0.741939
vn 0.022559 -0.115139 -0.993093
vn 0.008008 -0.038790 -0.999215
vn -0.623982 -0.151869 -0.766539
vn -0.677782 -0.040200 -0.734163
vn 0.670499 0.033688 -0.741145
vn 0.636990 0.088568 -0.765767
vn 0.645872 0.212196 -0.733364
vn 0.015442 -0.077859 -0.996845
vn -0.532397 -0.336874 -0.776575
vn 0.047810 -0.247656 -0.967668
vn 0.619920 -0.117158 -0.775869
vn 0.516525 -0.124802 -0.847129
vn 0.708386 -0.132830 -0.693214
vn 0.487276 0.018917 -0.873043
vn 0.007128 -0.034228 -0.999389
vn 0.479343 0.216128 -0.850599
vn -0.459026 -0.161526 -0.873616
vn -0.524249 0.024758 -0.851205
vn -0.608979 -0.384022 -0.694025
vn -0.433345 -0.305919 -0.847718
vn 0.345669 0.201210 -0.916530
vn -0.029442 0.157646 -0.987057
vn -0.394359 0.060102 -0.916989
vn 0.469420 0.144973 0.870993
vn 0.162741 0.023345 0.986393
vn 0.614254 0.072664 0.785756
vn -0.021640 0.027606 0.999385
vn 0.028456 -0.152525 0.987890
vn -0.545596 -0.113443 0.830335
vn 0.398747 0.391102 0.829481
vn 0.631421 0.224627 0.742192
vn -0.029168 0.149822 0.988283
vn -0.670648 -0.023646 0.741399
vn -0.515651 0.216755 0.828928
vn -0.490604 -0.049186 0.869993
vn -0.577751 -0.002294 0.816210
vn -0.681657 -0.001539 0.731670
vn 0.537108 0.210288 0.816881
vn -0.015938 0.080373 0.996637
vn 0.633539 0.249237 0.732468
vn 0.652889 0.156142 0.741186
vn -0.052245 0.096766 0.993935
vn -0.665415 -0.095229 0.740374
vn -0.657341 -0.078831 0.749459
vn -0.024507 0.100672 0.994618
vn -0.716259 -0.058293 0.695396
vn 0.683789 0.209263 0.699029
vn 0.621473 0.204939 0.756155
vn -0.716295 -0.084880 0.692616
vn -0.014161 0.071203 0.997361
vn 0.696467 0.184496 0.693466
vn -0.663675 -0.093304 0.742179
vn -0.010014 0.049274 0.998735
vn -0.658081 -0.009849 0.752883
vn -0.028830 0.148031 0.988562
vn -0.702922 0.087136 0.705909
vn 0.614645 0.232828 0.753659
vn 0.620713 0.339540 0.706702
vn 0.650563 0.157289 0.742986
vn -0.019340 0.098260 0.994973
vn -0.560008 -0.197057 0.804711
vn 0.592290 0.022654 0.805407
vn 0.013496 -0.073929 0.997172
vn -0.463401 -0.153777 0.872704
vn -0.633843 -0.258189 0.729097
vn -0.489507 -0.007179 0.871970
vn -0.027594 0.141629 0.989535
vn -0.553355 0.172090 0.814974
vn 0.456790 0.173255 0.872540
vn 0.450271 0.363446 0.815575
vn 0.683510 -0.006995 0.729907
vn 0.486466 0.027315 0.873273
vn 0.314284 0.359921 0.878455
vn -0.063182 0.328252 0.942475
vn -0.425716 0.218817 0.878000
usemtl material
f 1/0/1 2/0/2 3/0/3
f 2/0/2 1/0/1 4/0/4
f 5/0/5 3/0/3 2/0/2
f 3/0/3 5/0/5 6/0/6
f 7/0/7 3/0/3 6/0/6
f 8/0/8 3/0/3 7/0/7
f 3/0/3 8/0/8 9/0/9
f 10/0/10 3/0/3 9/0/9
f 3/0/3 10/0/10 11/0/11
f 1/0/1 3/0/3 11/0/11
f 5/0/5 2/0/2 12/0/12
f 2/0/2 4/0/4 12/0/12
f 9/0/9 8/0/8 13/0/13
f 10/0/10 9/0/9 14/0/14
f 14/0/14 9/0/9 15/0/15
f 16/0/16 9/0/9 13/0/13
f 16/0/16 17/0/17 9/0/9
f 17/0/17 15/0/15 9/0/9
f 17/0/17 16/0/16 18/0/18
f 18/0/18 19/0/19 17/0/17
f 19/0/19 18/0/18 20/0/20
f 20/0/20 21/0/21 19/0/19
f 21/0/21 20/0/20 22/0/22
f 23/0/23 19/0/19 21/0/21
f 19/0/19 23/0/23 24/0/24
f 25/0/25 21/0/21 22/0/22
f 21/0/21 25/0/25 26/0/26
f 21/0/21 27/0/27 23/0/23
f 27/0/27 21/0/21 26/0/26
f 19/0/19 28/0/28 17/0/17
f 28/0/28 19/0/19 24/0/24
f 15/0/15 17/0/17 28/0/28
f 29/0/29 26/0/26 25/0/25
f 26/0/26 29/0/29 30/0/30
f 29/0/29 31/0/31 30/0/30
f 31/0/31 29/0/29 32/0/32
f 31/0/31 32/0/32 33/0/33
f 31/0/31 34/0/34 30/0/30
f 26/0/26 34/0/34 27/0/27
f 34/0/34 26/0/26 30/0/30
f 34/0/34 31/0/31 35/0/35
f 36/0/36 35/0/35 31/0/31
f 31/0/31 33/0/33 37/0/37
f 36/0/36 31/0/31 37/0/37
f 37/0/37 33/0/33 38/0/38
f 37/0/37 38/0/38 39/0/39
f 40/0/40 36/0/36 37/0/37
f 39/0/39 40/0/40 37/0/37
f 41/0/41 40/0/40 39/0/39
f 42/0/42 41/0/41 39/0/39
f 39/0/39 43/0/43 42/0/42
f 43/0/43 39/0/39 44/0/44
f 43/0/43 44/0/44 45/0/45
f 39/0/39 46/0/46 44/0/44
f 44/0/44 46/0/46 47/0/47
f 46/0/46 39/0/39 48/0/48
f 39/0/39 49/0/49 48/0/48
f 39/0/39 38/0/38 49/0/49
f 44/0/44 50/0/50 45/0/45
f 51/0/51 50/0/50 44/0/44
f 51/0/51 44/0/44 52/0/52
f 52/0/52 44/0/44 47/0/47
f 53/0/53 54/0/54 55/0/55
f 54/0/54 53/0/53 56/0/56
f 57/0/57 55/0/55 54/0/54
f 58/0/58 57/0/57 54/0/54
f 56/0/56 58/0/58 54/0/54
f 56/0/56 53/0/53 59/0/59
f 60/0/60 56/0/56 59/0/59
f 56/0/56 60/0/60 61/0/61
f 62/0/62 56/0/56 61/0/61
f 56/0/56 62/0/62 63/0/63
f 56/0/56 63/0/63 64/0/64
f 58/0/58 56/0/56 64/0/64
f 62/0/62 61/0/61 65/0/65
f 65/0/65 61/0/61 66/0/66
f 61/0/61 60/0/60 67/0/67
f 68/0/68 66/0/66 61/0/61
f 69/0/69 68/0/68 61/0/61
f 69/0/69 61/0/61 67/0/67
f 68/0/68 69/0/69 70/0/70
f 70/0/70 71/0/71 68/0/68
f 71/0/71 72/0/72 68/0/68
f 66/0/66 68/0/68 72/0/72
f 72/0/72 71/0/71 73/0/73
f 74/0/74 73/0/73 71/0/71
f 73/0/73 74/0/74 75/0/75
f 71/0/71 76/0/76 74/0/74
f 76/0/76 71/0/71 77/0/77
f 71/0/71 70/0/70 77/0/77
f 74/0/74 78/0/78 75/0/75
f 78/0/78 74/0/74 79/0/79
f 80/0/80 74/0/74 76/0/76
f 74/0/74 80/0/80 79/0/79
f 79/0/79 81/0/81 78/0/78
f 81/0/81 79/0/79 82/0/82
f 82/0/82 83/0/83 81/0/81
f 83/0/83 82/0/82 84/0/84
f 85/0/85 83/0/83 84/0/84
f 82/0/82 86/0/86 84/0/84
f 84/0/84 86/0/86 87/0/87
f 86/0/86 82/0/82 88/0/88
f 88/0/88 79/0/79 80/0/80
f 79/0/79 88/0/88 82/0/82
f 85/0/85 84/0/84 89/0/89
f 84/0/84 87/0/87 89/0/89
f 90/0/90 85/0/85 89/0/89
f 89/0/89 87/0/87 91/0/91
f 89/0/89 91/0/91 92/0/92
f 92/0/92 90/0/90 89/0/89
f 93/0/93 90/0/90 92/0/92
f 94/0/94 93/0/93 92/0/92
f 92/0/92 95/0/95 94/0/94
f 95/0/95 92/0/92 96/0/96
f 95/0/95 96/0/96 97/0/97
f 92/0/92 98/0/98 96/0/96
f 96/0/96 98/0/98 99/0/99
f 98/0/98 92/0/92 100/0/100
f 92/0/92 101/0/101 100/0/100
f 92/0/92 91/0/91 101/0/101
f 102/0/102 96/0/96 99/0/99
f 103/0/103 96/0/96 102/0/102
f 103/0/103 104/0/104 96/0/96
f 96/0/96 104/0/104 97/0/97
