# 
# Wavefront OBJ file
# Created with Kaydara FBX
# 
mtllib pasted__boss_cross_t6_w36.mtl

g pasted__Boss_Cross_T6_W36
v -0.004601 0.566913 -0.088259
v -0.009370 0.055559 -0.023985
v -0.085983 0.508556 -0.131458
v 0.008260 0.034476 -0.005121
v -0.019147 0.029825 -0.005188
v -0.182267 0.536761 -0.088696
v -0.154154 0.572707 -0.093473
v -0.148127 0.631401 -0.102423
v -0.113532 0.671085 -0.145152
v -0.067986 0.645001 -0.102226
v -0.042975 0.591575 -0.093200
v 0.000000 -0.000000 0.000000
v -0.167876 0.670132 -0.109014
v -0.062090 0.688085 -0.108753
v -0.088663 0.738332 -0.117331
v -0.159328 0.726340 -0.117504
v -0.146563 0.866006 -0.165182
v -0.175370 0.866605 -0.139771
v -0.153093 0.904721 -0.181313
v -0.195349 0.902432 -0.145917
v -0.160394 0.947694 -0.178279
v -0.186072 0.946087 -0.152435
v -0.135747 0.954628 -0.152312
v -0.112617 0.916472 -0.145713
v -0.347416 1.901559 -0.305616
v -0.322198 1.903336 -0.331500
v -0.297929 1.909957 -0.305495
v -0.119688 0.876055 -0.139635
v -0.366219 1.926711 -0.310069
v -0.326809 1.930710 -0.345352
v -0.350019 2.067747 -0.364212
v -0.388550 2.062868 -0.331878
v -0.380820 2.087112 -0.335424
v -0.288455 1.939909 -0.309877
v -0.312191 2.075827 -0.331690
v -0.327470 2.096166 -0.335293
v -0.357440 2.111451 -0.362694
v -0.388660 2.128317 -0.342055
v -0.366646 2.165909 -0.377191
v -0.333631 2.137656 -0.341920
v -0.317388 2.163285 -0.345436
v -0.335887 2.180085 -0.348581
v -0.308059 2.245978 -0.358021
v -0.378895 2.238333 -0.394439
v -0.339125 2.279792 -0.364174
v -0.448460 2.222150 -0.358366
v -0.430260 2.264325 -0.364397
v -0.400496 2.169120 -0.348740
v -0.412432 2.147156 -0.345669
v -0.369148 2.344948 -0.375168
v -0.402489 2.377169 -0.381138
v -0.423362 2.335748 -0.375301
v -0.004601 0.566913 -0.088259
v -0.010218 0.060133 0.005436
v 0.008260 0.034476 -0.005121
v -0.088792 0.523698 -0.034047
v 0.000000 -0.000000 0.000000
v -0.019147 0.029825 -0.005188
v -0.042975 0.591575 -0.093200
v -0.067986 0.645001 -0.102226
v -0.115646 0.682477 -0.071869
v -0.148127 0.631401 -0.102423
v -0.154154 0.572707 -0.093473
v -0.182267 0.536761 -0.088696
v -0.167876 0.670132 -0.109014
v -0.159328 0.726340 -0.117504
v -0.062090 0.688085 -0.108753
v -0.148045 0.873994 -0.113797
v -0.088663 0.738332 -0.117331
v -0.119688 0.876055 -0.139635
v -0.155134 0.915719 -0.110564
v -0.175370 0.866605 -0.139771
v -0.195349 0.902432 -0.145917
v -0.161876 0.955682 -0.126894
v -0.186072 0.946087 -0.152435
v -0.135747 0.954628 -0.152312
v -0.112617 0.916472 -0.145713
v -0.347416 1.901559 -0.305616
v -0.323680 1.911324 -0.280115
v -0.297929 1.909957 -0.305495
v -0.366219 1.926711 -0.310069
v -0.328824 1.941569 -0.275501
v -0.388550 2.062868 -0.331878
v -0.351859 2.077662 -0.300433
v -0.380820 2.087112 -0.335424
v -0.312191 2.075827 -0.331690
v -0.327470 2.096166 -0.335293
v -0.288455 1.939909 -0.309877
v -0.358800 2.118779 -0.315551
v -0.388660 2.128317 -0.342055
v -0.333631 2.137656 -0.341920
v -0.368330 2.174986 -0.318797
v -0.412432 2.147156 -0.345669
v -0.400496 2.169120 -0.348740
v -0.448460 2.222150 -0.358366
v -0.380896 2.249119 -0.325047
v -0.430260 2.264325 -0.364397
v -0.308059 2.245978 -0.358021
v -0.339125 2.279792 -0.364174
v -0.335887 2.180085 -0.348581
v -0.317388 2.163285 -0.345436
v -0.369148 2.344948 -0.375168
v -0.402489 2.377169 -0.381138
v -0.423362 2.335748 -0.375301
vt 0.957723 0.382191
vt 0.976790 0.482691
vt 0.976790 0.389456
vt 0.973849 0.487919
vt 0.979731 0.487919
vt 0.995857 0.382191
vt 0.988722 0.376026
vt 0.985391 0.364621
vt 0.976790 0.356772
vt 0.968190 0.364621
vt 0.964858 0.376026
vt 0.976790 0.494459
vt 0.988143 0.356298
vt 0.965437 0.356298
vt 0.969206 0.345470
vt 0.984374 0.345470
vt 0.976790 0.317463
vt 0.982766 0.317192
vt 0.976790 0.309280
vt 0.985669 0.309436
vt 0.976790 0.300844
vt 0.982191 0.301114
vt 0.971389 0.301114
vt 0.967911 0.309436
vt 0.982101 0.106744
vt 0.976790 0.106424
vt 0.971479 0.106744
vt 0.970814 0.317192
vt 0.985136 0.101138
vt 0.976790 0.100563
vt 0.976790 0.072779
vt 0.984985 0.073462
vt 0.982516 0.068927
vt 0.968445 0.101138
vt 0.968595 0.073462
vt 0.971065 0.068927
vt 0.976790 0.064151
vt 0.982696 0.060515
vt 0.976790 0.052894
vt 0.970885 0.060515
vt 0.966590 0.055992
vt 0.969856 0.052049
vt 0.961722 0.039952
vt 0.976790 0.037986
vt 0.967009 0.032222
vt 0.991858 0.039952
vt 0.986571 0.032222
vt 0.983724 0.052049
vt 0.986990 0.055992
vt 0.970972 0.018329
vt 0.976790 0.010838
vt 0.982608 0.018329
vt 0.995857 0.382191
vt 0.976790 0.482691
vt 0.979731 0.487919
vt 0.976790 0.389456
vt 0.976790 0.494459
vt 0.973849 0.487919
vt 0.988722 0.376026
vt 0.985391 0.364621
vt 0.976790 0.356772
vt 0.968190 0.364621
vt 0.964858 0.376026
vt 0.957723 0.382191
vt 0.965437 0.356298
vt 0.969206 0.345470
vt 0.988143 0.356298
vt 0.976790 0.317463
vt 0.984374 0.345470
vt 0.982766 0.317192
vt 0.976790 0.309280
vt 0.970814 0.317192
vt 0.967911 0.309436
vt 0.976790 0.300844
vt 0.971389 0.301114
vt 0.982191 0.301114
vt 0.985669 0.309436
vt 0.971479 0.106744
vt 0.976790 0.106424
vt 0.982101 0.106744
vt 0.968445 0.101138
vt 0.976790 0.100563
vt 0.968595 0.073462
vt 0.976790 0.072779
vt 0.971065 0.068927
vt 0.984985 0.073462
vt 0.982516 0.068927
vt 0.985136 0.101138
vt 0.976790 0.064151
vt 0.970884 0.060515
vt 0.982696 0.060515
vt 0.976790 0.052894
vt 0.966590 0.055992
vt 0.969856 0.052049
vt 0.961722 0.039952
vt 0.976790 0.037986
vt 0.967009 0.032222
vt 0.991858 0.039952
vt 0.986571 0.032222
vt 0.983724 0.052049
vt 0.986990 0.055992
vt 0.982608 0.018329
vt 0.976790 0.010838
vt 0.970972 0.018329
vn 0.510676 -0.075387 -0.856462
vn 0.206351 -0.216690 -0.954183
vn 0.022828 -0.212983 -0.976789
vn 0.649765 -0.127210 -0.749415
vn -0.511483 -0.301625 -0.804616
vn -0.453180 -0.249588 -0.855765
vn -0.473118 0.018768 -0.880799
vn -0.637946 -0.191276 -0.745948
vn 0.017991 -0.091585 -0.995635
vn 0.668890 0.030505 -0.742735
vn 0.444636 0.174520 -0.878545
vn 0.067737 -0.385788 -0.920097
vn -0.541346 -0.189879 -0.819079
vn 0.577589 0.000015 -0.816328
vn 0.671210 0.056691 -0.739096
vn -0.648792 -0.167325 -0.742342
vn 0.029780 -0.161191 -0.986474
vn -0.634621 -0.260586 -0.727565
vn -0.006189 -0.144090 -0.989545
vn -0.625740 -0.246969 -0.739902
vn 0.021678 -0.140876 -0.989790
vn -0.686405 -0.213188 -0.695269
vn 0.718918 0.025195 -0.694638
vn 0.659062 0.008184 -0.752044
vn -0.687254 -0.238326 -0.686209
vn 0.031322 -0.170296 -0.984895
vn 0.730674 0.002309 -0.682722
vn 0.688528 -0.036038 -0.724314
vn -0.629645 -0.250749 -0.735304
vn 0.033041 -0.180469 -0.983026
vn 0.020166 -0.104410 -0.994330
vn -0.617009 -0.189358 -0.763835
vn -0.668883 -0.074749 -0.739600
vn 0.680625 -0.028384 -0.732082
vn 0.648582 0.025423 -0.760720
vn 0.659618 0.150709 -0.736336
vn 0.026766 -0.143384 -0.989305
vn -0.529167 -0.376418 -0.760455
vn 0.055198 -0.311510 -0.948638
vn 0.627353 -0.180145 -0.757612
vn 0.524743 -0.190375 -0.829700
vn 0.714392 -0.192117 -0.672856
vn 0.498859 -0.048121 -0.865346
vn 0.019393 -0.099856 -0.994813
vn 0.494750 0.150254 -0.855948
vn -0.450911 -0.209304 -0.867681
vn -0.512524 -0.020690 -0.858424
vn -0.607792 -0.416503 -0.676103
vn -0.428587 -0.352164 -0.832042
vn 0.361642 0.133714 -0.922678
vn -0.013354 0.093107 -0.995567
vn -0.381095 0.007665 -0.924504
vn 0.460992 0.192415 0.866293
vn 0.150417 0.084753 0.984983
vn 0.605421 0.111784 0.788016
vn -0.034038 0.093537 0.995034
vn 0.012477 -0.087923 0.996049
vn -0.558571 -0.047823 0.828077
vn 0.396005 0.436658 0.807780
vn 0.626274 0.260204 0.734898
vn -0.038866 0.214884 0.975866
vn -0.680559 0.038422 0.731685
vn -0.521752 0.280907 0.805523
vn -0.502782 0.017785 0.864230
vn -0.588221 0.062780 0.806260
vn -0.690978 0.060054 0.720377
vn 0.530715 0.252675 0.809010
vn -0.027186 0.145886 0.988928
vn 0.629028 0.284069 0.723621
vn 0.646338 0.191383 0.738660
vn -0.063122 0.162796 0.984638
vn -0.676813 -0.033167 0.735407
vn -0.668520 -0.016373 0.743514
vn -0.035298 0.166177 0.985464
vn -0.726288 0.001746 0.687389
vn 0.678880 0.240993 0.693574
vn 0.615744 0.241671 0.749970
vn -0.726837 -0.024961 0.686356
vn -0.025643 0.136744 0.990275
vn 0.691087 0.215674 0.689844
vn -0.675051 -0.031163 0.737112
vn -0.021941 0.114876 0.993137
vn -0.667860 0.052690 0.742420
vn -0.038567 0.213115 0.976266
vn -0.710069 0.147259 0.688561
vn 0.609527 0.269473 0.745561
vn 0.618434 0.372716 0.691826
vn 0.644004 0.192693 0.740357
vn -0.030201 0.163685 0.986050
vn -0.574398 -0.132638 0.807759
vn 0.582127 0.063633 0.810604
vn -0.000999 -0.008601 0.999963
vn -0.477796 -0.086935 0.874158
vn -0.648499 -0.197108 0.735254
vn -0.500835 0.059803 0.863474
vn -0.037492 0.206766 0.977672
vn -0.560178 0.236179 0.793990
vn 0.448930 0.220987 0.865810
vn 0.447096 0.407119 0.796467
vn 0.673691 0.027279 0.738509
vn 0.475536 0.074854 0.876506
vn 0.310298 0.410437 0.857471
vn -0.068550 0.390572 0.918017
vn -0.432438 0.284388 0.855641
usemtl material
f 1/0/1 2/0/2 3/0/3
f 2/0/2 1/0/1 4/0/4
f 5/0/5 3/0/3 2/0/2
f 3/0/3 5/0/5 6/0/6
f 7/0/7 3/0/3 6/0/6
f 8/0/8 3/0/3 7/0/7
f 3/0/3 8/0/8 9/0/9
f 10/0/10 3/0/3 9/0/9
f 3/0/3 10/0/10 11/0/11
f 1/0/1 3/0/3 11/0/11
f 5/0/5 2/0/2 12/0/12
f 2/0/2 4/0/4 12/0/12
f 9/0/9 8/0/8 13/0/13
f 10/0/10 9/0/9 14/0/14
f 14/0/14 9/0/9 15/0/15
f 16/0/16 9/0/9 13/0/13
f 16/0/16 17/0/17 9/0/9
f 17/0/17 15/0/15 9/0/9
f 17/0/17 16/0/16 18/0/18
f 18/0/18 19/0/19 17/0/17
f 19/0/19 18/0/18 20/0/20
f 20/0/20 21/0/21 19/0/19
f 21/0/21 20/0/20 22/0/22
f 23/0/23 19/0/19 21/0/21
f 19/0/19 23/0/23 24/0/24
f 25/0/25 21/0/21 22/0/22
f 21/0/21 25/0/25 26/0/26
f 21/0/21 27/0/27 23/0/23
f 27/0/27 21/0/21 26/0/26
f 19/0/19 28/0/28 17/0/17
f 28/0/28 19/0/19 24/0/24
f 15/0/15 17/0/17 28/0/28
f 29/0/29 26/0/26 25/0/25
f 26/0/26 29/0/29 30/0/30
f 29/0/29 31/0/31 30/0/30
f 31/0/31 29/0/29 32/0/32
f 31/0/31 32/0/32 33/0/33
f 31/0/31 34/0/34 30/0/30
f 26/0/26 34/0/34 27/0/27
f 34/0/34 26/0/26 30/0/30
f 34/0/34 31/0/31 35/0/35
f 36/0/36 35/0/35 31/0/31
f 31/0/31 33/0/33 37/0/37
f 36/0/36 31/0/31 37/0/37
f 37/0/37 33/0/33 38/0/38
f 37/0/37 38/0/38 39/0/39
f 40/0/40 36/0/36 37/0/37
f 39/0/39 40/0/40 37/0/37
f 41/0/41 40/0/40 39/0/39
f 42/0/42 41/0/41 39/0/39
f 39/0/39 43/0/43 42/0/42
f 43/0/43 39/0/39 44/0/44
f 43/0/43 44/0/44 45/0/45
f 39/0/39 46/0/46 44/0/44
f 44/0/44 46/0/46 47/0/47
f 46/0/46 39/0/39 48/0/48
f 39/0/39 49/0/49 48/0/48
f 39/0/39 38/0/38 49/0/49
f 44/0/44 50/0/50 45/0/45
f 51/0/51 50/0/50 44/0/44
f 51/0/51 44/0/44 52/0/52
f 52/0/52 44/0/44 47/0/47
f 53/0/53 54/0/54 55/0/55
f 54/0/54 53/0/53 56/0/56
f 57/0/57 55/0/55 54/0/54
f 58/0/58 57/0/57 54/0/54
f 56/0/56 58/0/58 54/0/54
f 56/0/56 53/0/53 59/0/59
f 60/0/60 56/0/56 59/0/59
f 56/0/56 60/0/60 61/0/61
f 62/0/62 56/0/56 61/0/61
f 56/0/56 62/0/62 63/0/63
f 56/0/56 63/0/63 64/0/64
f 58/0/58 56/0/56 64/0/64
f 62/0/62 61/0/61 65/0/65
f 65/0/65 61/0/61 66/0/66
f 61/0/61 60/0/60 67/0/67
f 68/0/68 66/0/66 61/0/61
f 69/0/69 68/0/68 61/0/61
f 69/0/69 61/0/61 67/0/67
f 68/0/68 69/0/69 70/0/70
f 70/0/70 71/0/71 68/0/68
f 71/0/71 72/0/72 68/0/68
f 66/0/66 68/0/68 72/0/72
f 72/0/72 71/0/71 73/0/73
f 74/0/74 73/0/73 71/0/71
f 73/0/73 74/0/74 75/0/75
f 71/0/71 76/0/76 74/0/74
f 76/0/76 71/0/71 77/0/77
f 71/0/71 70/0/70 77/0/77
f 74/0/74 78/0/78 75/0/75
f 78/0/78 74/0/74 79/0/79
f 80/0/80 74/0/74 76/0/76
f 74/0/74 80/0/80 79/0/79
f 79/0/79 81/0/81 78/0/78
f 81/0/81 79/0/79 82/0/82
f 82/0/82 83/0/83 81/0/81
f 83/0/83 82/0/82 84/0/84
f 85/0/85 83/0/83 84/0/84
f 82/0/82 86/0/86 84/0/84
f 84/0/84 86/0/86 87/0/87
f 86/0/86 82/0/82 88/0/88
f 88/0/88 79/0/79 80/0/80
f 79/0/79 88/0/88 82/0/82
f 85/0/85 84/0/84 89/0/89
f 84/0/84 87/0/87 89/0/89
f 90/0/90 85/0/85 89/0/89
f 89/0/89 87/0/87 91/0/91
f 89/0/89 91/0/91 92/0/92
f 92/0/92 90/0/90 89/0/89
f 93/0/93 90/0/90 92/0/92
f 94/0/94 93/0/93 92/0/92
f 92/0/92 95/0/95 94/0/94
f 95/0/95 92/0/92 96/0/96
f 95/0/95 96/0/96 97/0/97
f 92/0/92 98/0/98 96/0/96
f 96/0/96 98/0/98 99/0/99
f 98/0/98 92/0/92 100/0/100
f 92/0/92 101/0/101 100/0/100
f 92/0/92 91/0/91 101/0/101
f 102/0/102 96/0/96 99/0/99
f 103/0/103 96/0/96 102/0/102
f 103/0/103 104/0/104 96/0/96
f 96/0/96 104/0/104 97/0/97
