# 
# Wavefront OBJ file
# Created with Kaydara FBX
# 
mtllib pasted__boss_cross_t6_w69.mtl

g pasted__Boss_Cross_T6_W69
v 0.206130 0.516050 0.142841
v 0.015968 0.059110 -0.000967
v 0.123714 0.512725 0.071488
v 0.020235 0.027868 0.009846
v -0.006202 0.034930 0.004948
v 0.034749 0.561828 0.111096
v 0.073431 0.582858 0.124008
v 0.100636 0.633609 0.139680
v 0.156036 0.667479 0.120160
v 0.177941 0.612960 0.154000
v 0.180676 0.554212 0.143874
v -0.000000 -0.000000 -0.000000
v 0.097194 0.676865 0.146801
v 0.199239 0.649608 0.165703
v 0.193916 0.706116 0.174812
v 0.125752 0.724324 0.162186
v 0.195717 0.854236 0.175240
v 0.163313 0.858139 0.195504
v 0.206696 0.895237 0.175099
v 0.158587 0.898855 0.201859
v 0.213546 0.934014 0.194035
v 0.183145 0.934629 0.214166
v 0.231689 0.921662 0.223158
v 0.238392 0.877538 0.216642
v 0.392066 1.867591 0.434062
v 0.422118 1.867321 0.413912
v 0.439803 1.854840 0.442905
v 0.217026 0.843792 0.205454
v 0.384442 1.898142 0.437876
v 0.430503 1.897098 0.411582
v 0.459619 2.029932 0.445949
v 0.414810 2.030819 0.469301
v 0.430772 2.049626 0.476485
v 0.459455 1.878106 0.451771
v 0.488468 2.011144 0.482945
v 0.482236 2.035880 0.486018
v 0.466984 2.069872 0.463779
v 0.438988 2.090223 0.485849
v 0.480339 2.124911 0.471051
v 0.492069 2.076045 0.495682
v 0.516221 2.092603 0.504372
v 0.505772 2.115453 0.506113
v 0.555305 2.163761 0.526565
v 0.497583 2.197455 0.482575
v 0.539836 2.207214 0.530905
v 0.419873 2.199937 0.501478
v 0.451925 2.230696 0.514621
v 0.443449 2.132101 0.494569
v 0.424539 2.117093 0.487390
v 0.536933 2.278664 0.543319
v 0.518822 2.321609 0.546948
v 0.484637 2.292633 0.533633
v 0.206130 0.516050 0.142841
v 0.009282 0.053878 0.027585
v 0.020235 0.027868 0.009846
v 0.101577 0.495402 0.166018
v -0.000000 -0.000000 -0.000000
v -0.006202 0.034930 0.004948
v 0.180676 0.554212 0.143874
v 0.177941 0.612960 0.154000
v 0.139382 0.654447 0.191273
v 0.100636 0.633609 0.139680
v 0.073431 0.582858 0.124008
v 0.034749 0.561828 0.111096
v 0.097194 0.676865 0.146801
v 0.125752 0.724324 0.162186
v 0.199239 0.649608 0.165703
v 0.184040 0.845097 0.225106
v 0.193916 0.706116 0.174812
v 0.217026 0.843792 0.205454
v 0.190618 0.882655 0.243756
v 0.163313 0.858139 0.195504
v 0.158587 0.898855 0.201859
v 0.201868 0.924875 0.243901
v 0.183145 0.934629 0.214166
v 0.231689 0.921662 0.223158
v 0.238392 0.877538 0.216642
v 0.392066 1.867591 0.434062
v 0.410439 1.858182 0.463779
v 0.439803 1.854840 0.442905
v 0.384442 1.898142 0.437876
v 0.414628 1.884677 0.479366
v 0.414810 2.030819 0.469301
v 0.445124 2.018590 0.507841
v 0.430772 2.049626 0.476485
v 0.488468 2.011144 0.482945
v 0.482236 2.035880 0.486018
v 0.459455 1.878106 0.451771
v 0.456270 2.061488 0.509529
v 0.438988 2.090223 0.485849
v 0.492069 2.076045 0.495682
v 0.467069 2.114527 0.527718
v 0.424539 2.117093 0.487390
v 0.443449 2.132101 0.494569
v 0.419873 2.199937 0.501478
v 0.481812 2.185115 0.549914
v 0.451925 2.230696 0.514621
v 0.555305 2.163761 0.526565
v 0.539836 2.207214 0.530905
v 0.505772 2.115453 0.506113
v 0.516221 2.092603 0.504372
v 0.536933 2.278664 0.543319
v 0.518822 2.321609 0.546948
v 0.484637 2.292633 0.533633
vt 0.957723 0.382191
vt 0.976790 0.482691
vt 0.976790 0.389456
vt 0.973849 0.487919
vt 0.979731 0.487919
vt 0.995857 0.382191
vt 0.988722 0.376026
vt 0.985391 0.364621
vt 0.976790 0.356772
vt 0.968190 0.364621
vt 0.964858 0.376026
vt 0.976790 0.494459
vt 0.988143 0.356298
vt 0.965437 0.356298
vt 0.969206 0.345470
vt 0.984374 0.345470
vt 0.976790 0.317463
vt 0.982766 0.317192
vt 0.976790 0.309280
vt 0.985669 0.309436
vt 0.976790 0.300844
vt 0.982191 0.301114
vt 0.971389 0.301114
vt 0.967911 0.309436
vt 0.982101 0.106744
vt 0.976790 0.106424
vt 0.971479 0.106744
vt 0.970814 0.317192
vt 0.985136 0.101138
vt 0.976790 0.100563
vt 0.976790 0.072779
vt 0.984985 0.073462
vt 0.982516 0.068927
vt 0.968445 0.101138
vt 0.968595 0.073462
vt 0.971065 0.068927
vt 0.976790 0.064151
vt 0.982696 0.060515
vt 0.976790 0.052894
vt 0.970885 0.060515
vt 0.966590 0.055992
vt 0.969856 0.052049
vt 0.961722 0.039952
vt 0.976790 0.037986
vt 0.967009 0.032222
vt 0.991858 0.039952
vt 0.986571 0.032222
vt 0.983724 0.052049
vt 0.986990 0.055992
vt 0.970972 0.018329
vt 0.976790 0.010838
vt 0.982608 0.018329
vt 0.995857 0.382191
vt 0.976790 0.482691
vt 0.979731 0.487919
vt 0.976790 0.389456
vt 0.976790 0.494459
vt 0.973849 0.487919
vt 0.988722 0.376026
vt 0.985391 0.364621
vt 0.976790 0.356772
vt 0.968190 0.364621
vt 0.964858 0.376026
vt 0.957723 0.382191
vt 0.965437 0.356298
vt 0.969206 0.345470
vt 0.988143 0.356298
vt 0.976790 0.317463
vt 0.984374 0.345470
vt 0.982766 0.317192
vt 0.976790 0.309280
vt 0.970814 0.317192
vt 0.967911 0.309436
vt 0.976790 0.300844
vt 0.971389 0.301114
vt 0.982191 0.301114
vt 0.985669 0.309436
vt 0.971479 0.106744
vt 0.976790 0.106424
vt 0.982101 0.106744
vt 0.968445 0.101138
vt 0.976790 0.100563
vt 0.968595 0.073462
vt 0.976790 0.072779
vt 0.971065 0.068927
vt 0.984985 0.073462
vt 0.982516 0.068927
vt 0.985136 0.101138
vt 0.976790 0.064151
vt 0.970884 0.060515
vt 0.982696 0.060515
vt 0.976790 0.052894
vt 0.966590 0.055992
vt 0.969856 0.052049
vt 0.961722 0.039952
vt 0.976790 0.037986
vt 0.967009 0.032222
vt 0.991858 0.039952
vt 0.986571 0.032222
vt 0.983724 0.052049
vt 0.986990 0.055992
vt 0.982608 0.018329
vt 0.976790 0.010838
vt 0.970972 0.018329
vn 0.655518 0.006305 -0.755153
vn 0.356726 0.039186 -0.933387
vn 0.196865 0.123477 -0.972624
vn 0.737752 -0.128581 -0.662713
vn -0.361732 0.206916 -0.909030
vn -0.278509 0.244551 -0.928777
vn -0.201336 0.490567 -0.847825
vn -0.454873 0.333420 -0.825785
vn 0.237478 0.235514 -0.942410
vn 0.805721 -0.003324 -0.592286
vn 0.683948 0.254095 -0.683850
vn 0.166040 -0.060972 -0.984232
vn -0.348114 0.319343 -0.881383
vn 0.731193 0.031043 -0.681464
vn 0.815596 0.017022 -0.578371
vn -0.457695 0.357121 -0.814235
vn 0.222816 0.168169 -0.960246
vn -0.479445 0.266749 -0.836049
vn 0.196537 0.198304 -0.960234
vn -0.463776 0.278831 -0.840931
vn 0.222987 0.189905 -0.956145
vn -0.519029 0.317774 -0.793491
vn 0.837283 -0.043518 -0.545035
vn 0.791743 -0.015487 -0.610657
vn -0.530383 0.293654 -0.795274
vn 0.220778 0.159235 -0.962238
vn 0.837378 -0.071703 -0.541902
vn 0.796847 -0.074159 -0.599613
vn -0.469757 0.275678 -0.838648
vn 0.218486 0.149235 -0.964361
vn 0.234860 0.223227 -0.946050
vn -0.430686 0.332403 -0.839058
vn -0.445942 0.443645 -0.777377
vn 0.794165 -0.061922 -0.604539
vn 0.790110 0.006301 -0.612932
vn 0.835538 0.101320 -0.540009
vn 0.226675 0.185569 -0.956129
vn -0.413726 0.135697 -0.900232
vn 0.186478 0.016953 -0.982313
vn 0.701852 -0.162287 -0.693590
vn 0.623399 -0.106547 -0.774611
vn 0.755614 -0.234868 -0.611461
vn 0.656070 0.037278 -0.753779
vn 0.235797 0.227600 -0.944774
vn 0.715752 0.205867 -0.667321
vn -0.260107 0.281991 -0.923486
vn -0.255856 0.465430 -0.847298
vn -0.519816 0.105778 -0.847704
vn -0.296193 0.139134 -0.944940
vn 0.606139 0.266747 -0.749294
vn 0.270174 0.406337 -0.872867
vn -0.110385 0.458151 -0.881994
vn 0.263998 -0.300073 0.916658
vn -0.083970 -0.305674 0.948426
vn 0.388382 -0.402018 0.829181
vn -0.251269 -0.227188 0.940877
vn -0.269457 -0.401700 0.875231
vn -0.732768 -0.083418 0.675346
vn 0.300729 -0.045792 0.952610
vn 0.469914 -0.266087 0.841652
vn -0.210562 -0.115094 0.970782
vn -0.790679 0.070627 0.608144
vn -0.584543 0.190682 0.788638
vn -0.669413 -0.061327 0.740354
vn -0.717501 0.030276 0.695899
vn -0.790110 0.096987 0.605243
vn 0.361837 -0.258002 0.895829
vn -0.226140 -0.183140 0.956724
vn 0.483180 -0.243107 0.841092
vn 0.464405 -0.334363 0.820079
vn -0.252110 -0.152791 0.955560
vn -0.811973 0.006596 0.583657
vn -0.800906 0.015048 0.598600
vn -0.225920 -0.161357 0.960689
vn -0.833234 0.071891 0.548226
vn 0.521805 -0.290376 0.802123
vn 0.450423 -0.282601 0.846910
vn -0.842314 0.049558 0.536705
vn -0.228047 -0.192016 0.954528
vn 0.525512 -0.315766 0.790018
vn -0.810110 0.007047 0.586235
vn -0.232703 -0.213153 0.948902
vn -0.777113 0.074282 0.624962
vn -0.210995 -0.116854 0.970477
vn -0.770514 0.189655 0.608554
vn 0.455062 -0.254848 0.853212
vn 0.510995 -0.152638 0.845923
vn 0.462258 -0.332823 0.821917
vn -0.222263 -0.165728 0.960798
vn -0.770137 -0.143167 0.621605
vn 0.345463 -0.441177 0.828262
vn -0.256362 -0.329574 0.908658
vn -0.683922 -0.164303 0.710813
vn -0.840560 -0.145185 0.521901
vn -0.653519 -0.025867 0.756468
vn -0.212455 -0.123188 0.969375
vn -0.631393 0.171521 0.756256
vn 0.262644 -0.270588 0.926175
vn 0.340257 -0.087990 0.936207
vn 0.434868 -0.485898 0.758151
vn 0.235643 -0.409941 0.881147
vn 0.201588 -0.049816 0.978203
vn -0.164630 0.066033 0.984143
vn -0.514838 0.141569 0.845518
usemtl material
f 1/0/1 2/0/2 3/0/3
f 2/0/2 1/0/1 4/0/4
f 5/0/5 3/0/3 2/0/2
f 3/0/3 5/0/5 6/0/6
f 7/0/7 3/0/3 6/0/6
f 8/0/8 3/0/3 7/0/7
f 3/0/3 8/0/8 9/0/9
f 10/0/10 3/0/3 9/0/9
f 3/0/3 10/0/10 11/0/11
f 1/0/1 3/0/3 11/0/11
f 5/0/5 2/0/2 12/0/12
f 2/0/2 4/0/4 12/0/12
f 9/0/9 8/0/8 13/0/13
f 10/0/10 9/0/9 14/0/14
f 14/0/14 9/0/9 15/0/15
f 16/0/16 9/0/9 13/0/13
f 16/0/16 17/0/17 9/0/9
f 17/0/17 15/0/15 9/0/9
f 17/0/17 16/0/16 18/0/18
f 18/0/18 19/0/19 17/0/17
f 19/0/19 18/0/18 20/0/20
f 20/0/20 21/0/21 19/0/19
f 21/0/21 20/0/20 22/0/22
f 23/0/23 19/0/19 21/0/21
f 19/0/19 23/0/23 24/0/24
f 25/0/25 21/0/21 22/0/22
f 21/0/21 25/0/25 26/0/26
f 21/0/21 27/0/27 23/0/23
f 27/0/27 21/0/21 26/0/26
f 19/0/19 28/0/28 17/0/17
f 28/0/28 19/0/19 24/0/24
f 15/0/15 17/0/17 28/0/28
f 29/0/29 26/0/26 25/0/25
f 26/0/26 29/0/29 30/0/30
f 29/0/29 31/0/31 30/0/30
f 31/0/31 29/0/29 32/0/32
f 31/0/31 32/0/32 33/0/33
f 31/0/31 34/0/34 30/0/30
f 26/0/26 34/0/34 27/0/27
f 34/0/34 26/0/26 30/0/30
f 34/0/34 31/0/31 35/0/35
f 36/0/36 35/0/35 31/0/31
f 31/0/31 33/0/33 37/0/37
f 36/0/36 31/0/31 37/0/37
f 37/0/37 33/0/33 38/0/38
f 37/0/37 38/0/38 39/0/39
f 40/0/40 36/0/36 37/0/37
f 39/0/39 40/0/40 37/0/37
f 41/0/41 40/0/40 39/0/39
f 42/0/42 41/0/41 39/0/39
f 39/0/39 43/0/43 42/0/42
f 43/0/43 39/0/39 44/0/44
f 43/0/43 44/0/44 45/0/45
f 39/0/39 46/0/46 44/0/44
f 44/0/44 46/0/46 47/0/47
f 46/0/46 39/0/39 48/0/48
f 39/0/39 49/0/49 48/0/48
f 39/0/39 38/0/38 49/0/49
f 44/0/44 50/0/50 45/0/45
f 51/0/51 50/0/50 44/0/44
f 51/0/51 44/0/44 52/0/52
f 52/0/52 44/0/44 47/0/47
f 53/0/53 54/0/54 55/0/55
f 54/0/54 53/0/53 56/0/56
f 57/0/57 55/0/55 54/0/54
f 58/0/58 57/0/57 54/0/54
f 56/0/56 58/0/58 54/0/54
f 56/0/56 53/0/53 59/0/59
f 60/0/60 56/0/56 59/0/59
f 56/0/56 60/0/60 61/0/61
f 62/0/62 56/0/56 61/0/61
f 56/0/56 62/0/62 63/0/63
f 56/0/56 63/0/63 64/0/64
f 58/0/58 56/0/56 64/0/64
f 62/0/62 61/0/61 65/0/65
f 65/0/65 61/0/61 66/0/66
f 61/0/61 60/0/60 67/0/67
f 68/0/68 66/0/66 61/0/61
f 69/0/69 68/0/68 61/0/61
f 69/0/69 61/0/61 67/0/67
f 68/0/68 69/0/69 70/0/70
f 70/0/70 71/0/71 68/0/68
f 71/0/71 72/0/72 68/0/68
f 66/0/66 68/0/68 72/0/72
f 72/0/72 71/0/71 73/0/73
f 74/0/74 73/0/73 71/0/71
f 73/0/73 74/0/74 75/0/75
f 71/0/71 76/0/76 74/0/74
f 76/0/76 71/0/71 77/0/77
f 71/0/71 70/0/70 77/0/77
f 74/0/74 78/0/78 75/0/75
f 78/0/78 74/0/74 79/0/79
f 80/0/80 74/0/74 76/0/76
f 74/0/74 80/0/80 79/0/79
f 79/0/79 81/0/81 78/0/78
f 81/0/81 79/0/79 82/0/82
f 82/0/82 83/0/83 81/0/81
f 83/0/83 82/0/82 84/0/84
f 85/0/85 83/0/83 84/0/84
f 82/0/82 86/0/86 84/0/84
f 84/0/84 86/0/86 87/0/87
f 86/0/86 82/0/82 88/0/88
f 88/0/88 79/0/79 80/0/80
f 79/0/79 88/0/88 82/0/82
f 85/0/85 84/0/84 89/0/89
f 84/0/84 87/0/87 89/0/89
f 90/0/90 85/0/85 89/0/89
f 89/0/89 87/0/87 91/0/91
f 89/0/89 91/0/91 92/0/92
f 92/0/92 90/0/90 89/0/89
f 93/0/93 90/0/90 92/0/92
f 94/0/94 93/0/93 92/0/92
f 92/0/92 95/0/95 94/0/94
f 95/0/95 92/0/92 96/0/96
f 95/0/95 96/0/96 97/0/97
f 92/0/92 98/0/98 96/0/96
f 96/0/96 98/0/98 99/0/99
f 98/0/98 92/0/92 100/0/100
f 92/0/92 101/0/101 100/0/100
f 92/0/92 91/0/91 101/0/101
f 102/0/102 96/0/96 99/0/99
f 103/0/103 96/0/96 102/0/102
f 103/0/103 104/0/104 96/0/96
f 96/0/96 104/0/104 97/0/97
