# 
# Wavefront OBJ file
# Created with Kaydara FBX
# 
mtllib pasted__boss_cross_t6_w60.mtl

g pasted__Boss_Cross_T6_W60
v -0.021398 0.565413 0.095141
v -0.013889 0.059551 -0.003267
v -0.109818 0.518191 0.052168
v 0.007116 0.034829 0.004397
v -0.019761 0.028762 0.008080
v -0.195633 0.526085 0.119012
v -0.168990 0.563413 0.120425
v -0.164795 0.622290 0.129217
v -0.139347 0.675151 0.095224
v -0.086202 0.640030 0.118450
v -0.059958 0.588023 0.105487
v 0.000000 0.000000 -0.000000
v -0.185415 0.659908 0.138878
v -0.081670 0.683325 0.124665
v -0.109359 0.732077 0.137352
v -0.178659 0.716435 0.146846
v -0.175471 0.864494 0.143501
v -0.198646 0.855554 0.172810
v -0.185035 0.905812 0.141768
v -0.219405 0.890261 0.182024
v -0.191534 0.945280 0.159351
v -0.211559 0.934302 0.187784
v -0.162206 0.945442 0.181022
v -0.138270 0.908575 0.170908
v -0.399021 1.879254 0.373109
v -0.379455 1.890379 0.344779
v -0.350489 1.890209 0.366460
v -0.144038 0.867880 0.165328
v -0.418304 1.903372 0.380354
v -0.386699 1.920341 0.341275
v -0.413034 2.054916 0.370764
v -0.444366 2.038065 0.406656
v -0.437468 2.062657 0.409436
v -0.342042 1.920586 0.369906
v -0.369482 2.054967 0.396397
v -0.385148 2.074467 0.402268
v -0.419953 2.095534 0.387187
v -0.446422 2.103363 0.417572
v -0.431795 2.151151 0.392381
v -0.392456 2.115544 0.410178
v -0.377206 2.141961 0.411804
v -0.395941 2.157761 0.417610
v -0.370471 2.224955 0.424056
v -0.447145 2.224498 0.401183
v -0.402098 2.257077 0.434737
v -0.508159 2.193876 0.442920
v -0.491474 2.236904 0.446982
v -0.459302 2.143459 0.426290
v -0.470415 2.120922 0.424574
v -0.433630 2.320527 0.450468
v -0.467456 2.350942 0.461255
v -0.486799 2.308527 0.457752
v -0.021398 0.565413 0.095141
v -0.008861 0.054864 0.025715
v 0.007116 0.034829 0.004397
v -0.093169 0.502674 0.148126
v 0.000000 0.000000 -0.000000
v -0.019761 0.028762 0.008080
v -0.059958 0.588023 0.105487
v -0.086202 0.640030 0.118450
v -0.126822 0.663477 0.167415
v -0.164795 0.622290 0.129217
v -0.168990 0.563413 0.120425
v -0.195633 0.526085 0.119012
v -0.185415 0.659908 0.138878
v -0.178659 0.716435 0.146846
v -0.081670 0.683325 0.124665
v -0.166689 0.856309 0.194121
v -0.109359 0.732077 0.137352
v -0.144038 0.867880 0.165328
v -0.172943 0.894543 0.211462
v -0.198646 0.855554 0.172810
v -0.219405 0.890261 0.182024
v -0.182752 0.937095 0.209971
v -0.211559 0.934302 0.187784
v -0.162206 0.945442 0.181022
v -0.138270 0.908575 0.170908
v -0.399021 1.879254 0.373109
v -0.370674 1.882194 0.395400
v -0.350489 1.890209 0.366460
v -0.418304 1.903372 0.380354
v -0.374761 1.909215 0.410084
v -0.444366 2.038065 0.406656
v -0.402134 2.044757 0.433592
v -0.437468 2.062657 0.409436
v -0.369482 2.054967 0.396397
v -0.385148 2.074467 0.402268
v -0.342042 1.920586 0.369906
v -0.411896 2.088024 0.433627
v -0.446422 2.103363 0.417572
v -0.392456 2.115544 0.410178
v -0.421815 2.141850 0.449906
v -0.470415 2.120922 0.424574
v -0.459302 2.143459 0.426290
v -0.508159 2.193876 0.442920
v -0.435284 2.213444 0.469541
v -0.491474 2.236904 0.446982
v -0.370471 2.224955 0.424056
v -0.402098 2.257077 0.434737
v -0.395941 2.157761 0.417610
v -0.377206 2.141961 0.411804
v -0.433630 2.320527 0.450468
v -0.467456 2.350942 0.461255
v -0.486799 2.308527 0.457752
vt 0.957723 0.382191
vt 0.976790 0.482691
vt 0.976790 0.389456
vt 0.973849 0.487919
vt 0.979731 0.487919
vt 0.995857 0.382191
vt 0.988722 0.376026
vt 0.985391 0.364621
vt 0.976790 0.356772
vt 0.968190 0.364621
vt 0.964858 0.376026
vt 0.976790 0.494459
vt 0.988143 0.356298
vt 0.965437 0.356298
vt 0.969206 0.345470
vt 0.984374 0.345470
vt 0.976790 0.317463
vt 0.982766 0.317192
vt 0.976790 0.309280
vt 0.985669 0.309436
vt 0.976790 0.300844
vt 0.982191 0.301114
vt 0.971389 0.301114
vt 0.967911 0.309436
vt 0.982101 0.106744
vt 0.976790 0.106424
vt 0.971479 0.106744
vt 0.970814 0.317192
vt 0.985136 0.101138
vt 0.976790 0.100563
vt 0.976790 0.072779
vt 0.984985 0.073462
vt 0.982516 0.068927
vt 0.968445 0.101138
vt 0.968595 0.073462
vt 0.971065 0.068927
vt 0.976790 0.064151
vt 0.982696 0.060515
vt 0.976790 0.052894
vt 0.970885 0.060515
vt 0.966590 0.055992
vt 0.969856 0.052049
vt 0.961722 0.039952
vt 0.976790 0.037986
vt 0.967009 0.032222
vt 0.991858 0.039952
vt 0.986571 0.032222
vt 0.983724 0.052049
vt 0.986990 0.055992
vt 0.970972 0.018329
vt 0.976790 0.010838
vt 0.982608 0.018329
vt 0.995857 0.382191
vt 0.976790 0.482691
vt 0.979731 0.487919
vt 0.976790 0.389456
vt 0.976790 0.494459
vt 0.973849 0.487919
vt 0.988722 0.376026
vt 0.985391 0.364621
vt 0.976790 0.356772
vt 0.968190 0.364621
vt 0.964858 0.376026
vt 0.957723 0.382191
vt 0.965437 0.356298
vt 0.969206 0.345470
vt 0.988143 0.356298
vt 0.976790 0.317463
vt 0.984374 0.345470
vt 0.982766 0.317192
vt 0.976790 0.309280
vt 0.970814 0.317192
vt 0.967911 0.309436
vt 0.976790 0.300844
vt 0.971389 0.301114
vt 0.982191 0.301114
vt 0.985669 0.309436
vt 0.971479 0.106744
vt 0.976790 0.106424
vt 0.982101 0.106744
vt 0.968445 0.101138
vt 0.976790 0.100563
vt 0.968595 0.073462
vt 0.976790 0.072779
vt 0.971065 0.068927
vt 0.984985 0.073462
vt 0.982516 0.068927
vt 0.985136 0.101138
vt 0.976790 0.064151
vt 0.970884 0.060515
vt 0.982696 0.060515
vt 0.976790 0.052894
vt 0.966590 0.055992
vt 0.969856 0.052049
vt 0.961722 0.039952
vt 0.976790 0.037986
vt 0.967009 0.032222
vt 0.991858 0.039952
vt 0.986571 0.032222
vt 0.983724 0.052049
vt 0.986990 0.055992
vt 0.982608 0.018329
vt 0.976790 0.010838
vt 0.970972 0.018329
vn 0.329938 0.220867 -0.917801
vn 0.012051 0.097914 -0.995122
vn -0.172257 0.097165 -0.980248
vn 0.487529 0.147404 -0.860574
vn -0.661748 -0.072129 -0.746249
vn -0.614703 -0.003521 -0.788751
vn -0.638909 0.257907 -0.724762
vn -0.773849 0.007131 -0.633330
vn -0.180591 0.217987 -0.959098
vn 0.507770 0.296401 -0.808898
vn 0.261106 0.461087 -0.848070
vn -0.117212 -0.081656 -0.989744
vn -0.693729 0.036653 -0.719302
vn 0.403592 0.284333 -0.869637
vn 0.510794 0.320320 -0.797800
vn -0.783735 0.028129 -0.620459
vn -0.167313 0.149762 -0.974463
vn -0.767011 -0.064155 -0.638419
vn -0.203156 0.164759 -0.965185
vn -0.760746 -0.046906 -0.647352
vn -0.175916 0.169588 -0.969687
vn -0.811282 -0.032125 -0.583772
vn 0.566321 0.279746 -0.775256
vn 0.496226 0.277432 -0.822673
vn -0.810350 -0.058807 -0.582988
vn -0.165499 0.140715 -0.976119
vn 0.580216 0.255036 -0.773503
vn 0.530590 0.228742 -0.816181
vn -0.763672 -0.052128 -0.643497
vn -0.163468 0.130585 -0.977868
vn -0.178216 0.205541 -0.962285
vn -0.756884 0.015691 -0.653361
vn -0.802758 0.114054 -0.585296
vn 0.521289 0.237911 -0.819546
vn 0.484276 0.295840 -0.823381
vn 0.500076 0.408141 -0.763770
vn -0.170812 0.167352 -0.970987
vn -0.670364 -0.157791 -0.725062
vn -0.135054 -0.003092 -0.990833
vn 0.463825 0.098227 -0.880465
vn 0.348936 0.104289 -0.931325
vn 0.565992 0.066275 -0.821742
vn 0.316625 0.248782 -0.915345
vn -0.179076 0.209978 -0.961167
vn 0.314717 0.434187 -0.844059
vn -0.614806 0.038542 -0.787736
vn -0.673120 0.211206 -0.708732
vn -0.730690 -0.226395 -0.644078
vn -0.586044 -0.106783 -0.803212
vn 0.170963 0.430700 -0.886154
vn -0.211080 0.391563 -0.895614
vn -0.557426 0.266336 -0.786347
vn 0.624378 -0.053555 0.779284
vn 0.343535 -0.210991 0.915132
vn 0.750241 -0.097499 0.653937
vn 0.164754 -0.216931 0.962183
vn 0.210310 -0.386869 0.897832
vn -0.382643 -0.332217 0.862100
vn 0.549334 0.192467 0.813135
vn 0.760301 0.061037 0.646697
vn 0.156358 -0.096046 0.983019
vn -0.521306 -0.228245 0.822280
vn -0.350680 -0.010681 0.936435
vn -0.320727 -0.277500 0.905609
vn -0.415938 -0.222248 0.881817
vn -0.533747 -0.204866 0.820454
vn 0.681377 0.025444 0.731490
vn 0.170329 -0.164888 0.971494
vn 0.760784 0.087339 0.643102
vn 0.780623 -0.004286 0.624987
vn 0.134280 -0.149696 0.979571
vn -0.516951 -0.297184 0.802772
vn -0.507213 -0.283182 0.813967
vn 0.161760 -0.145051 0.976111
vn -0.574954 -0.252369 0.778291
vn 0.803618 0.058602 0.592253
vn 0.752953 0.038198 0.656965
vn -0.575797 -0.277433 0.769083
vn 0.172063 -0.173899 0.969615
vn 0.814798 0.036401 0.578601
vn -0.514917 -0.295693 0.804628
vn 0.176252 -0.195332 0.964770
vn -0.506695 -0.217191 0.834319
vn 0.156753 -0.097842 0.982779
vn -0.558674 -0.113463 0.821590
vn 0.746033 0.065564 0.662673
vn 0.744175 0.180608 0.643105
vn 0.778671 -0.003714 0.627421
vn 0.166804 -0.147283 0.974928
vn -0.402326 -0.407560 0.819773
vn 0.731863 -0.151570 0.664382
vn 0.198000 -0.313480 0.928723
vn -0.294369 -0.378547 0.877524
vn -0.489457 -0.451216 0.746214
vn -0.318929 -0.237218 0.917612
vn 0.158066 -0.104231 0.981912
vn -0.390682 -0.052025 0.919054
vn 0.612518 -0.026992 0.789996
vn 0.597161 0.170936 0.783696
vn 0.807198 -0.158540 0.568592
vn 0.640528 -0.167526 0.749439
vn 0.475213 0.147166 0.867476
vn 0.115945 0.086763 0.989459
vn -0.253201 -0.017242 0.967260
usemtl material
f 1/0/1 2/0/2 3/0/3
f 2/0/2 1/0/1 4/0/4
f 5/0/5 3/0/3 2/0/2
f 3/0/3 5/0/5 6/0/6
f 7/0/7 3/0/3 6/0/6
f 8/0/8 3/0/3 7/0/7
f 3/0/3 8/0/8 9/0/9
f 10/0/10 3/0/3 9/0/9
f 3/0/3 10/0/10 11/0/11
f 1/0/1 3/0/3 11/0/11
f 5/0/5 2/0/2 12/0/12
f 2/0/2 4/0/4 12/0/12
f 9/0/9 8/0/8 13/0/13
f 10/0/10 9/0/9 14/0/14
f 14/0/14 9/0/9 15/0/15
f 16/0/16 9/0/9 13/0/13
f 16/0/16 17/0/17 9/0/9
f 17/0/17 15/0/15 9/0/9
f 17/0/17 16/0/16 18/0/18
f 18/0/18 19/0/19 17/0/17
f 19/0/19 18/0/18 20/0/20
f 20/0/20 21/0/21 19/0/19
f 21/0/21 20/0/20 22/0/22
f 23/0/23 19/0/19 21/0/21
f 19/0/19 23/0/23 24/0/24
f 25/0/25 21/0/21 22/0/22
f 21/0/21 25/0/25 26/0/26
f 21/0/21 27/0/27 23/0/23
f 27/0/27 21/0/21 26/0/26
f 19/0/19 28/0/28 17/0/17
f 28/0/28 19/0/19 24/0/24
f 15/0/15 17/0/17 28/0/28
f 29/0/29 26/0/26 25/0/25
f 26/0/26 29/0/29 30/0/30
f 29/0/29 31/0/31 30/0/30
f 31/0/31 29/0/29 32/0/32
f 31/0/31 32/0/32 33/0/33
f 31/0/31 34/0/34 30/0/30
f 26/0/26 34/0/34 27/0/27
f 34/0/34 26/0/26 30/0/30
f 34/0/34 31/0/31 35/0/35
f 36/0/36 35/0/35 31/0/31
f 31/0/31 33/0/33 37/0/37
f 36/0/36 31/0/31 37/0/37
f 37/0/37 33/0/33 38/0/38
f 37/0/37 38/0/38 39/0/39
f 40/0/40 36/0/36 37/0/37
f 39/0/39 40/0/40 37/0/37
f 41/0/41 40/0/40 39/0/39
f 42/0/42 41/0/41 39/0/39
f 39/0/39 43/0/43 42/0/42
f 43/0/43 39/0/39 44/0/44
f 43/0/43 44/0/44 45/0/45
f 39/0/39 46/0/46 44/0/44
f 44/0/44 46/0/46 47/0/47
f 46/0/46 39/0/39 48/0/48
f 39/0/39 49/0/49 48/0/48
f 39/0/39 38/0/38 49/0/49
f 44/0/44 50/0/50 45/0/45
f 51/0/51 50/0/50 44/0/44
f 51/0/51 44/0/44 52/0/52
f 52/0/52 44/0/44 47/0/47
f 53/0/53 54/0/54 55/0/55
f 54/0/54 53/0/53 56/0/56
f 57/0/57 55/0/55 54/0/54
f 58/0/58 57/0/57 54/0/54
f 56/0/56 58/0/58 54/0/54
f 56/0/56 53/0/53 59/0/59
f 60/0/60 56/0/56 59/0/59
f 56/0/56 60/0/60 61/0/61
f 62/0/62 56/0/56 61/0/61
f 56/0/56 62/0/62 63/0/63
f 56/0/56 63/0/63 64/0/64
f 58/0/58 56/0/56 64/0/64
f 62/0/62 61/0/61 65/0/65
f 65/0/65 61/0/61 66/0/66
f 61/0/61 60/0/60 67/0/67
f 68/0/68 66/0/66 61/0/61
f 69/0/69 68/0/68 61/0/61
f 69/0/69 61/0/61 67/0/67
f 68/0/68 69/0/69 70/0/70
f 70/0/70 71/0/71 68/0/68
f 71/0/71 72/0/72 68/0/68
f 66/0/66 68/0/68 72/0/72
f 72/0/72 71/0/71 73/0/73
f 74/0/74 73/0/73 71/0/71
f 73/0/73 74/0/74 75/0/75
f 71/0/71 76/0/76 74/0/74
f 76/0/76 71/0/71 77/0/77
f 71/0/71 70/0/70 77/0/77
f 74/0/74 78/0/78 75/0/75
f 78/0/78 74/0/74 79/0/79
f 80/0/80 74/0/74 76/0/76
f 74/0/74 80/0/80 79/0/79
f 79/0/79 81/0/81 78/0/78
f 81/0/81 79/0/79 82/0/82
f 82/0/82 83/0/83 81/0/81
f 83/0/83 82/0/82 84/0/84
f 85/0/85 83/0/83 84/0/84
f 82/0/82 86/0/86 84/0/84
f 84/0/84 86/0/86 87/0/87
f 86/0/86 82/0/82 88/0/88
f 88/0/88 79/0/79 80/0/80
f 79/0/79 88/0/88 82/0/82
f 85/0/85 84/0/84 89/0/89
f 84/0/84 87/0/87 89/0/89
f 90/0/90 85/0/85 89/0/89
f 89/0/89 87/0/87 91/0/91
f 89/0/89 91/0/91 92/0/92
f 92/0/92 90/0/90 89/0/89
f 93/0/93 90/0/90 92/0/92
f 94/0/94 93/0/93 92/0/92
f 92/0/92 95/0/95 94/0/94
f 95/0/95 92/0/92 96/0/96
f 95/0/95 96/0/96 97/0/97
f 92/0/92 98/0/98 96/0/96
f 96/0/96 98/0/98 99/0/99
f 98/0/98 92/0/92 100/0/100
f 92/0/92 101/0/101 100/0/100
f 92/0/92 91/0/91 101/0/101
f 102/0/102 96/0/96 99/0/99
f 103/0/103 96/0/96 102/0/102
f 103/0/103 104/0/104 96/0/96
f 96/0/96 104/0/104 97/0/97
