# 
# Wavefront OBJ file
# Created with Kaydara FBX
# 
mtllib pasted__boss_cross_t6_w65.mtl

g pasted__Boss_Cross_T6_W65
v -0.001510 0.544991 -0.179397
v -0.006958 0.050636 -0.033727
v -0.075562 0.477555 -0.222565
v 0.008339 0.033493 -0.009574
v -0.018743 0.027895 -0.012394
v -0.177075 0.508696 -0.197671
v -0.149128 0.544419 -0.204605
v -0.142864 0.601110 -0.222161
v -0.103527 0.634697 -0.266000
v -0.063671 0.617482 -0.213919
v -0.039264 0.567131 -0.193169
v -0.000000 -0.000000 -0.000000
v -0.162155 0.637546 -0.237456
v -0.057618 0.659157 -0.226576
v -0.083585 0.706385 -0.246566
v -0.153413 0.691949 -0.253834
v -0.136580 0.822581 -0.321621
v -0.168502 0.826179 -0.300552
v -0.141506 0.857958 -0.344552
v -0.188036 0.859811 -0.314967
v -0.149797 0.900568 -0.349529
v -0.178643 0.902174 -0.327276
v -0.128912 0.912455 -0.322100
v -0.106281 0.876712 -0.306458
v -0.332822 1.814388 -0.653643
v -0.304430 1.812928 -0.676023
v -0.283920 1.824498 -0.648553
v -0.113478 0.837554 -0.294824
v -0.351251 1.837804 -0.664510
v -0.307583 1.837552 -0.694629
v -0.330177 1.968879 -0.738405
v -0.372570 1.967824 -0.710914
v -0.364808 1.991456 -0.717348
v -0.274406 1.853691 -0.656512
v -0.297113 1.983423 -0.703061
v -0.312089 2.002355 -0.711860
v -0.338397 2.011964 -0.744998
v -0.372328 2.030760 -0.731560
v -0.346432 2.063035 -0.769243
v -0.317949 2.042001 -0.725900
v -0.301776 2.067316 -0.731438
v -0.319950 2.082711 -0.739625
v -0.292124 2.147221 -0.756043
v -0.357391 2.131279 -0.799497
v -0.322612 2.178462 -0.771557
v -0.430863 2.118539 -0.770483
v -0.412671 2.159844 -0.780930
v -0.383794 2.069512 -0.746270
v -0.395697 2.047899 -0.741214
v -0.351904 2.239888 -0.796787
v -0.384650 2.269504 -0.812155
v -0.405479 2.228812 -0.802363
v -0.001510 0.544991 -0.179397
v -0.011763 0.059816 -0.005799
v 0.008339 0.033493 -0.009574
v -0.091469 0.507947 -0.130103
v -0.000000 -0.000000 -0.000000
v -0.018743 0.027895 -0.012394
v -0.039264 0.567131 -0.193169
v -0.063671 0.617482 -0.213919
v -0.115493 0.657561 -0.196441
v -0.142864 0.601110 -0.222161
v -0.149128 0.544419 -0.204605
v -0.177075 0.508696 -0.197671
v -0.162155 0.637546 -0.237456
v -0.153413 0.691949 -0.253834
v -0.057618 0.659157 -0.226576
v -0.144971 0.838613 -0.272846
v -0.083585 0.706385 -0.246566
v -0.113478 0.837554 -0.294824
v -0.153059 0.880032 -0.277396
v -0.168502 0.826179 -0.300552
v -0.188036 0.859811 -0.314967
v -0.158189 0.916600 -0.300755
v -0.178643 0.902174 -0.327276
v -0.128912 0.912455 -0.322100
v -0.106281 0.876712 -0.306458
v -0.332822 1.814388 -0.653643
v -0.312821 1.828960 -0.627248
v -0.283920 1.824498 -0.648553
v -0.351251 1.837804 -0.664510
v -0.318991 1.859346 -0.628327
v -0.372570 1.967824 -0.710914
v -0.340592 1.988778 -0.677865
v -0.364808 1.991456 -0.717348
v -0.297113 1.983423 -0.703061
v -0.312089 2.002355 -0.711860
v -0.274406 1.853691 -0.656512
v -0.346096 2.026673 -0.700250
v -0.372328 2.030760 -0.731560
v -0.317949 2.042001 -0.725900
v -0.355968 2.081254 -0.713814
v -0.395697 2.047899 -0.741214
v -0.383794 2.069512 -0.746270
v -0.430863 2.118539 -0.770483
v -0.368723 2.152929 -0.733631
v -0.412671 2.159844 -0.780930
v -0.292124 2.147221 -0.756043
v -0.322612 2.178462 -0.771557
v -0.319950 2.082711 -0.739625
v -0.301776 2.067316 -0.731438
v -0.351904 2.239888 -0.796787
v -0.384650 2.269504 -0.812155
v -0.405479 2.228812 -0.802363
vt 0.957723 0.382191
vt 0.976790 0.482691
vt 0.976790 0.389456
vt 0.973849 0.487919
vt 0.979731 0.487919
vt 0.995857 0.382191
vt 0.988722 0.376026
vt 0.985391 0.364621
vt 0.976790 0.356772
vt 0.968190 0.364621
vt 0.964858 0.376026
vt 0.976790 0.494459
vt 0.988143 0.356298
vt 0.965437 0.356298
vt 0.969206 0.345470
vt 0.984374 0.345470
vt 0.976790 0.317463
vt 0.982766 0.317192
vt 0.976790 0.309280
vt 0.985669 0.309436
vt 0.976790 0.300844
vt 0.982191 0.301114
vt 0.971389 0.301114
vt 0.967911 0.309436
vt 0.982101 0.106744
vt 0.976790 0.106424
vt 0.971479 0.106744
vt 0.970814 0.317192
vt 0.985136 0.101138
vt 0.976790 0.100563
vt 0.976790 0.072779
vt 0.984985 0.073462
vt 0.982516 0.068927
vt 0.968445 0.101138
vt 0.968595 0.073462
vt 0.971065 0.068927
vt 0.976790 0.064151
vt 0.982696 0.060515
vt 0.976790 0.052894
vt 0.970885 0.060515
vt 0.966590 0.055992
vt 0.969856 0.052049
vt 0.961722 0.039952
vt 0.976790 0.037986
vt 0.967009 0.032222
vt 0.991858 0.039952
vt 0.986571 0.032222
vt 0.983724 0.052049
vt 0.986990 0.055992
vt 0.970972 0.018329
vt 0.976790 0.010838
vt 0.982608 0.018329
vt 0.995857 0.382191
vt 0.976790 0.482691
vt 0.979731 0.487919
vt 0.976790 0.389456
vt 0.976790 0.494459
vt 0.973849 0.487919
vt 0.988722 0.376026
vt 0.985391 0.364621
vt 0.976790 0.356772
vt 0.968190 0.364621
vt 0.964858 0.376026
vt 0.957723 0.382191
vt 0.965437 0.356298
vt 0.969206 0.345470
vt 0.988143 0.356298
vt 0.976790 0.317463
vt 0.984374 0.345470
vt 0.982766 0.317192
vt 0.976790 0.309280
vt 0.970814 0.317192
vt 0.967911 0.309436
vt 0.976790 0.300844
vt 0.971389 0.301114
vt 0.982191 0.301114
vt 0.985669 0.309436
vt 0.971479 0.106744
vt 0.976790 0.106424
vt 0.982101 0.106744
vt 0.968445 0.101138
vt 0.976790 0.100563
vt 0.968595 0.073462
vt 0.976790 0.072779
vt 0.971065 0.068927
vt 0.984985 0.073462
vt 0.982516 0.068927
vt 0.985136 0.101138
vt 0.976790 0.064151
vt 0.970884 0.060515
vt 0.982696 0.060515
vt 0.976790 0.052894
vt 0.966590 0.055992
vt 0.969856 0.052049
vt 0.961722 0.039952
vt 0.976790 0.037986
vt 0.967009 0.032222
vt 0.991858 0.039952
vt 0.986571 0.032222
vt 0.983724 0.052049
vt 0.986990 0.055992
vt 0.982608 0.018329
vt 0.976790 0.010838
vt 0.970972 0.018329
vn 0.620623 -0.192519 -0.760107
vn 0.334024 -0.358631 -0.871672
vn 0.155161 -0.365270 -0.917880
vn 0.745087 -0.221483 -0.629119
vn -0.395878 -0.444705 -0.803442
vn -0.332059 -0.399423 -0.854517
vn -0.352586 -0.139402 -0.925338
vn -0.530627 -0.331088 -0.780266
vn 0.151004 -0.248694 -0.956739
vn 0.760762 -0.064131 -0.645855
vn 0.554281 0.048066 -0.830940
vn 0.194875 -0.525038 -0.828468
vn -0.425208 -0.337873 -0.839667
vn 0.680457 -0.109295 -0.724591
vn 0.762178 -0.037622 -0.646274
vn -0.542195 -0.307290 -0.782047
vn 0.162546 -0.315486 -0.934905
vn -0.528705 -0.396436 -0.750539
vn 0.127031 -0.300404 -0.945315
vn -0.518462 -0.384634 -0.763711
vn 0.154624 -0.296272 -0.942504
vn -0.585015 -0.346388 -0.733330
vn 0.804048 -0.059884 -0.591541
vn 0.752586 -0.087980 -0.652590
vn -0.586677 -0.369782 -0.720466
vn 0.163993 -0.324136 -0.931688
vn 0.814487 -0.080074 -0.574629
vn 0.778808 -0.126115 -0.614453
vn -0.522879 -0.387757 -0.759106
vn 0.165590 -0.333812 -0.927981
vn 0.153183 -0.261064 -0.953090
vn -0.507525 -0.331309 -0.795395
vn -0.563883 -0.216270 -0.797034
vn 0.771863 -0.120095 -0.624343
vn 0.743104 -0.072742 -0.665211
vn 0.748896 0.055129 -0.660390
vn 0.159649 -0.298468 -0.940973
vn -0.418070 -0.512088 -0.750323
vn 0.184991 -0.456788 -0.870128
vn 0.724776 -0.275811 -0.631370
vn 0.632772 -0.301172 -0.713368
vn 0.800024 -0.270902 -0.535325
vn 0.609664 -0.167484 -0.774764
vn 0.152390 -0.256677 -0.954408
vn 0.601333 0.029566 -0.798452
vn -0.328874 -0.361491 -0.872448
vn -0.394029 -0.176200 -0.902050
vn -0.506574 -0.540994 -0.671348
vn -0.309313 -0.495891 -0.811430
vn 0.478492 -0.002254 -0.878089
vn 0.117110 -0.067636 -0.990813
vn -0.255461 -0.153994 -0.954477
vn 0.339287 0.344980 0.875142
vn 0.017416 0.246419 0.969007
vn 0.494090 0.258215 0.830181
vn -0.166861 0.249936 0.953776
vn -0.118162 0.072758 0.990325
vn -0.662501 0.064682 0.746263
vn 0.278916 0.574210 0.769733
vn 0.519469 0.396893 0.756722
vn -0.170945 0.366409 0.914616
vn -0.771915 0.129925 0.622307
vn -0.627984 0.386707 0.675347
vn -0.612957 0.137216 0.778110
vn -0.690647 0.169237 0.703112
vn -0.781084 0.149069 0.606371
vn 0.415082 0.397824 0.818195
vn -0.160090 0.300861 0.940135
vn 0.523327 0.418744 0.742147
vn 0.539879 0.330352 0.774208
vn -0.195353 0.315555 0.928581
vn -0.767632 0.060027 0.638073
vn -0.760732 0.078176 0.644341
vn -0.167926 0.320028 0.932407
vn -0.810822 0.085007 0.579087
vn 0.577385 0.373259 0.726157
vn 0.507319 0.380646 0.773134
vn -0.810822 0.058487 0.582363
vn -0.158594 0.292116 0.943142
vn 0.590317 0.348145 0.728231
vn -0.766123 0.062331 0.639664
vn -0.154933 0.271131 0.949991
vn -0.760970 0.146171 0.632106
vn -0.170688 0.364731 0.915334
vn -0.797111 0.229345 0.558584
vn 0.501311 0.407133 0.763498
vn 0.515676 0.500738 0.695227
vn 0.537341 0.331843 0.775335
vn -0.162933 0.317867 0.934031
vn -0.674162 -0.022779 0.738233
vn 0.468681 0.213466 0.857187
vn -0.133209 0.151177 0.979490
vn -0.587896 0.036414 0.808116
vn -0.737036 -0.100684 0.668312
vn -0.611572 0.178621 0.770762
vn -0.169707 0.358741 0.917880
vn -0.663859 0.339367 0.666424
vn 0.326982 0.372647 0.868457
vn 0.331490 0.545121 0.770037
vn 0.569543 0.169436 0.804308
vn 0.354145 0.231162 0.906171
vn 0.187820 0.553124 0.811651
vn -0.195356 0.529405 0.825570
vn -0.546142 0.401451 0.735232
usemtl material
f 1/0/1 2/0/2 3/0/3
f 2/0/2 1/0/1 4/0/4
f 5/0/5 3/0/3 2/0/2
f 3/0/3 5/0/5 6/0/6
f 7/0/7 3/0/3 6/0/6
f 8/0/8 3/0/3 7/0/7
f 3/0/3 8/0/8 9/0/9
f 10/0/10 3/0/3 9/0/9
f 3/0/3 10/0/10 11/0/11
f 1/0/1 3/0/3 11/0/11
f 5/0/5 2/0/2 12/0/12
f 2/0/2 4/0/4 12/0/12
f 9/0/9 8/0/8 13/0/13
f 10/0/10 9/0/9 14/0/14
f 14/0/14 9/0/9 15/0/15
f 16/0/16 9/0/9 13/0/13
f 16/0/16 17/0/17 9/0/9
f 17/0/17 15/0/15 9/0/9
f 17/0/17 16/0/16 18/0/18
f 18/0/18 19/0/19 17/0/17
f 19/0/19 18/0/18 20/0/20
f 20/0/20 21/0/21 19/0/19
f 21/0/21 20/0/20 22/0/22
f 23/0/23 19/0/19 21/0/21
f 19/0/19 23/0/23 24/0/24
f 25/0/25 21/0/21 22/0/22
f 21/0/21 25/0/25 26/0/26
f 21/0/21 27/0/27 23/0/23
f 27/0/27 21/0/21 26/0/26
f 19/0/19 28/0/28 17/0/17
f 28/0/28 19/0/19 24/0/24
f 15/0/15 17/0/17 28/0/28
f 29/0/29 26/0/26 25/0/25
f 26/0/26 29/0/29 30/0/30
f 29/0/29 31/0/31 30/0/30
f 31/0/31 29/0/29 32/0/32
f 31/0/31 32/0/32 33/0/33
f 31/0/31 34/0/34 30/0/30
f 26/0/26 34/0/34 27/0/27
f 34/0/34 26/0/26 30/0/30
f 34/0/34 31/0/31 35/0/35
f 36/0/36 35/0/35 31/0/31
f 31/0/31 33/0/33 37/0/37
f 36/0/36 31/0/31 37/0/37
f 37/0/37 33/0/33 38/0/38
f 37/0/37 38/0/38 39/0/39
f 40/0/40 36/0/36 37/0/37
f 39/0/39 40/0/40 37/0/37
f 41/0/41 40/0/40 39/0/39
f 42/0/42 41/0/41 39/0/39
f 39/0/39 43/0/43 42/0/42
f 43/0/43 39/0/39 44/0/44
f 43/0/43 44/0/44 45/0/45
f 39/0/39 46/0/46 44/0/44
f 44/0/44 46/0/46 47/0/47
f 46/0/46 39/0/39 48/0/48
f 39/0/39 49/0/49 48/0/48
f 39/0/39 38/0/38 49/0/49
f 44/0/44 50/0/50 45/0/45
f 51/0/51 50/0/50 44/0/44
f 51/0/51 44/0/44 52/0/52
f 52/0/52 44/0/44 47/0/47
f 53/0/53 54/0/54 55/0/55
f 54/0/54 53/0/53 56/0/56
f 57/0/57 55/0/55 54/0/54
f 58/0/58 57/0/57 54/0/54
f 56/0/56 58/0/58 54/0/54
f 56/0/56 53/0/53 59/0/59
f 60/0/60 56/0/56 59/0/59
f 56/0/56 60/0/60 61/0/61
f 62/0/62 56/0/56 61/0/61
f 56/0/56 62/0/62 63/0/63
f 56/0/56 63/0/63 64/0/64
f 58/0/58 56/0/56 64/0/64
f 62/0/62 61/0/61 65/0/65
f 65/0/65 61/0/61 66/0/66
f 61/0/61 60/0/60 67/0/67
f 68/0/68 66/0/66 61/0/61
f 69/0/69 68/0/68 61/0/61
f 69/0/69 61/0/61 67/0/67
f 68/0/68 69/0/69 70/0/70
f 70/0/70 71/0/71 68/0/68
f 71/0/71 72/0/72 68/0/68
f 66/0/66 68/0/68 72/0/72
f 72/0/72 71/0/71 73/0/73
f 74/0/74 73/0/73 71/0/71
f 73/0/73 74/0/74 75/0/75
f 71/0/71 76/0/76 74/0/74
f 76/0/76 71/0/71 77/0/77
f 71/0/71 70/0/70 77/0/77
f 74/0/74 78/0/78 75/0/75
f 78/0/78 74/0/74 79/0/79
f 80/0/80 74/0/74 76/0/76
f 74/0/74 80/0/80 79/0/79
f 79/0/79 81/0/81 78/0/78
f 81/0/81 79/0/79 82/0/82
f 82/0/82 83/0/83 81/0/81
f 83/0/83 82/0/82 84/0/84
f 85/0/85 83/0/83 84/0/84
f 82/0/82 86/0/86 84/0/84
f 84/0/84 86/0/86 87/0/87
f 86/0/86 82/0/82 88/0/88
f 88/0/88 79/0/79 80/0/80
f 79/0/79 88/0/88 82/0/82
f 85/0/85 84/0/84 89/0/89
f 84/0/84 87/0/87 89/0/89
f 90/0/90 85/0/85 89/0/89
f 89/0/89 87/0/87 91/0/91
f 89/0/89 91/0/91 92/0/92
f 92/0/92 90/0/90 89/0/89
f 93/0/93 90/0/90 92/0/92
f 94/0/94 93/0/93 92/0/92
f 92/0/92 95/0/95 94/0/94
f 95/0/95 92/0/92 96/0/96
f 95/0/95 96/0/96 97/0/97
f 92/0/92 98/0/98 96/0/96
f 96/0/96 98/0/98 99/0/99
f 98/0/98 92/0/92 100/0/100
f 92/0/92 101/0/101 100/0/100
f 92/0/92 91/0/91 101/0/101
f 102/0/102 96/0/96 99/0/99
f 103/0/103 96/0/96 102/0/102
f 103/0/103 104/0/104 96/0/96
f 96/0/96 104/0/104 97/0/97
