# 
# Wavefront OBJ file
# Created with Kaydara FBX
# 
mtllib pasted__boss_cross_t6_w54.mtl

g pasted__Boss_Cross_T6_W54
v 0.204343 0.516761 0.142839
v 0.016604 0.058928 -0.001311
v 0.125416 0.512829 0.067673
v 0.020026 0.027862 0.010281
v -0.006072 0.035075 0.003984
v 0.035164 0.563521 0.102021
v 0.073396 0.584433 0.116382
v 0.100339 0.635221 0.132385
v 0.156957 0.668186 0.114917
v 0.176652 0.614128 0.150796
v 0.179264 0.555172 0.141926
v 0.000000 -0.000000 0.000000
v 0.097007 0.678636 0.138513
v 0.197739 0.650794 0.162820
v 0.192568 0.707515 0.170593
v 0.125279 0.726114 0.154358
v 0.195873 0.855592 0.168313
v 0.162575 0.860190 0.186917
v 0.207267 0.896478 0.167927
v 0.157969 0.901064 0.192266
v 0.213600 0.935548 0.186438
v 0.182276 0.936838 0.205063
v 0.230197 0.923592 0.216626
v 0.236749 0.879289 0.211274
v 0.390005 1.871878 0.417124
v 0.420984 1.870935 0.398455
v 0.437129 1.858853 0.428494
v 0.215599 0.845535 0.199709
v 0.382522 1.902567 0.419990
v 0.429778 1.900583 0.395969
v 0.458578 2.033777 0.429187
v 0.412712 2.035537 0.450332
v 0.428505 2.054328 0.457920
v 0.456570 1.882100 0.437856
v 0.485423 2.015439 0.467876
v 0.479305 2.040287 0.470178
v 0.465489 2.073984 0.446592
v 0.436678 2.095020 0.466902
v 0.479047 2.129026 0.453459
v 0.489077 2.080537 0.479543
v 0.512955 2.097033 0.489075
v 0.502670 2.120009 0.489878
v 0.551660 2.168237 0.511777
v 0.496462 2.201614 0.464429
v 0.536449 2.211909 0.514546
v 0.417966 2.205190 0.479519
v 0.449666 2.235896 0.493608
v 0.441147 2.137014 0.475034
v 0.422451 2.122048 0.467236
v 0.533690 2.283610 0.525457
v 0.515868 2.326786 0.527397
v 0.482065 2.297879 0.513000
v 0.204343 0.516761 0.142839
v 0.008502 0.054312 0.026978
v 0.020026 0.027862 0.010281
v 0.098593 0.497546 0.161340
v 0.000000 -0.000000 0.000000
v -0.006072 0.035075 0.003984
v 0.179264 0.555172 0.141926
v 0.176652 0.614128 0.150796
v 0.136778 0.656688 0.185383
v 0.100339 0.635221 0.132385
v 0.073396 0.584433 0.116382
v 0.035164 0.563521 0.102021
v 0.097007 0.678636 0.138513
v 0.125279 0.726114 0.154358
v 0.197739 0.650794 0.162820
v 0.181723 0.847530 0.217722
v 0.192568 0.707515 0.170593
v 0.215599 0.845535 0.199709
v 0.187785 0.885378 0.235955
v 0.162575 0.860190 0.186917
v 0.157969 0.901064 0.192266
v 0.199450 0.927486 0.235845
v 0.182276 0.936838 0.205063
v 0.230197 0.923592 0.216626
v 0.236749 0.879289 0.211274
v 0.390005 1.871878 0.417124
v 0.406833 1.862873 0.447861
v 0.437129 1.858853 0.428494
v 0.382522 1.902567 0.419990
v 0.410544 1.889624 0.463132
v 0.412712 2.035537 0.450332
v 0.441014 2.023771 0.490510
v 0.428505 2.054328 0.457920
v 0.485423 2.015439 0.467876
v 0.479305 2.040287 0.470178
v 0.456570 1.882100 0.437856
v 0.452509 2.066587 0.491924
v 0.436678 2.095020 0.466902
v 0.489077 2.080537 0.479543
v 0.462967 2.119864 0.509609
v 0.422451 2.122048 0.467236
v 0.441147 2.137014 0.475034
v 0.417966 2.205190 0.479519
v 0.477355 2.190727 0.531152
v 0.449666 2.235896 0.493608
v 0.551660 2.168237 0.511777
v 0.536449 2.211909 0.514546
v 0.502670 2.120009 0.489878
v 0.512955 2.097033 0.489075
v 0.533690 2.283610 0.525457
v 0.515868 2.326786 0.527397
v 0.482065 2.297879 0.513000
vt 0.957723 0.382191
vt 0.976790 0.482691
vt 0.976790 0.389456
vt 0.973849 0.487919
vt 0.979731 0.487919
vt 0.995857 0.382191
vt 0.988722 0.376026
vt 0.985391 0.364621
vt 0.976790 0.356772
vt 0.968190 0.364621
vt 0.964858 0.376026
vt 0.976790 0.494459
vt 0.988143 0.356298
vt 0.965437 0.356298
vt 0.969206 0.345470
vt 0.984374 0.345470
vt 0.976790 0.317463
vt 0.982766 0.317192
vt 0.976790 0.309280
vt 0.985669 0.309436
vt 0.976790 0.300844
vt 0.982191 0.301114
vt 0.971389 0.301114
vt 0.967911 0.309436
vt 0.982101 0.106744
vt 0.976790 0.106424
vt 0.971479 0.106744
vt 0.970814 0.317192
vt 0.985136 0.101138
vt 0.976790 0.100563
vt 0.976790 0.072779
vt 0.984985 0.073462
vt 0.982516 0.068927
vt 0.968445 0.101138
vt 0.968595 0.073462
vt 0.971065 0.068927
vt 0.976790 0.064151
vt 0.982696 0.060515
vt 0.976790 0.052894
vt 0.970885 0.060515
vt 0.966590 0.055992
vt 0.969856 0.052049
vt 0.961722 0.039952
vt 0.976790 0.037986
vt 0.967009 0.032222
vt 0.991858 0.039952
vt 0.986571 0.032222
vt 0.983724 0.052049
vt 0.986990 0.055992
vt 0.970972 0.018329
vt 0.976790 0.010838
vt 0.982608 0.018329
vt 0.995857 0.382191
vt 0.976790 0.482691
vt 0.979731 0.487919
vt 0.976790 0.389456
vt 0.976790 0.494459
vt 0.973849 0.487919
vt 0.988722 0.376026
vt 0.985391 0.364621
vt 0.976790 0.356772
vt 0.968190 0.364621
vt 0.964858 0.376026
vt 0.957723 0.382191
vt 0.965437 0.356298
vt 0.969206 0.345470
vt 0.988143 0.356298
vt 0.976790 0.317463
vt 0.984374 0.345470
vt 0.982766 0.317192
vt 0.976790 0.309280
vt 0.970814 0.317192
vt 0.967911 0.309436
vt 0.976790 0.300844
vt 0.971389 0.301114
vt 0.982191 0.301114
vt 0.985669 0.309436
vt 0.971479 0.106744
vt 0.976790 0.106424
vt 0.982101 0.106744
vt 0.968445 0.101138
vt 0.976790 0.100563
vt 0.968595 0.073462
vt 0.976790 0.072779
vt 0.971065 0.068927
vt 0.984985 0.073462
vt 0.982516 0.068927
vt 0.985136 0.101138
vt 0.976790 0.064151
vt 0.970884 0.060515
vt 0.982696 0.060515
vt 0.976790 0.052894
vt 0.966590 0.055992
vt 0.969856 0.052049
vt 0.961722 0.039952
vt 0.976790 0.037986
vt 0.967009 0.032222
vt 0.991858 0.039952
vt 0.986571 0.032222
vt 0.983724 0.052049
vt 0.986990 0.055992
vt 0.982608 0.018329
vt 0.976790 0.010838
vt 0.970972 0.018329
vn 0.691025 -0.014464 -0.722686
vn 0.401522 0.017770 -0.915677
vn 0.244519 0.102786 -0.964181
vn 0.767274 -0.148305 -0.623936
vn -0.315500 0.192683 -0.929157
vn -0.231173 0.229144 -0.945543
vn -0.155359 0.475961 -0.865635
vn -0.411252 0.321635 -0.852891
vn 0.284831 0.215006 -0.934154
vn 0.833129 -0.022326 -0.552629
vn 0.718530 0.234413 -0.654802
vn 0.212412 -0.081517 -0.973774
vn -0.302193 0.305474 -0.902976
vn 0.763348 0.010983 -0.645894
vn 0.842546 -0.001823 -0.538621
vn -0.414469 0.345589 -0.841893
vn 0.270368 0.147477 -0.951395
vn -0.436016 0.255033 -0.863046
vn 0.244394 0.177844 -0.953228
vn -0.419993 0.266843 -0.867410
vn 0.270560 0.169284 -0.947703
vn -0.477022 0.307218 -0.823448
vn 0.861971 -0.061878 -0.503167
vn 0.819887 -0.034694 -0.571474
vn -0.488525 0.283187 -0.825317
vn 0.268352 0.138535 -0.953308
vn 0.861627 -0.089989 -0.499500
vn 0.823897 -0.093227 -0.559019
vn -0.426115 0.263807 -0.865351
vn 0.266063 0.128502 -0.955352
vn 0.282237 0.202663 -0.937694
vn -0.386523 0.320111 -0.864945
vn -0.403565 0.432669 -0.806184
vn 0.821589 -0.081052 -0.564289
vn 0.818602 -0.012965 -0.574215
vn 0.861471 0.083034 -0.500972
vn 0.274168 0.164896 -0.947439
vn -0.368611 0.122141 -0.921525
vn 0.233545 -0.003805 -0.972339
vn 0.732578 -0.182264 -0.655827
vn 0.658714 -0.127320 -0.741542
vn 0.781584 -0.253775 -0.569846
vn 0.691833 0.016525 -0.721869
vn 0.283170 0.207057 -0.936452
vn 0.749001 0.186204 -0.635866
vn -0.212658 0.266511 -0.940079
vn -0.210155 0.451311 -0.867268
vn -0.477462 0.094227 -0.873585
vn -0.249017 0.123565 -0.960584
vn 0.644135 0.246511 -0.724101
vn 0.316021 0.386817 -0.866316
vn -0.063152 0.442015 -0.894782
vn 0.216606 -0.284758 0.933806
vn -0.132299 -0.286477 0.948909
vn 0.343977 -0.389507 0.854379
vn -0.298469 -0.206582 0.931794
vn -0.315229 -0.382147 0.868674
vn -0.765073 -0.063488 0.640806
vn 0.254217 -0.030166 0.966677
vn 0.426245 -0.254168 0.868167
vn -0.258063 -0.094319 0.961513
vn -0.818178 0.089793 0.567911
vn -0.619726 0.211377 0.755817
vn -0.704766 -0.040716 0.708271
vn -0.749731 0.050517 0.659812
vn -0.817216 0.116101 0.564517
vn 0.315752 -0.244031 0.916924
vn -0.273651 -0.162457 0.948010
vn 0.439778 -0.231314 0.867807
vn 0.421055 -0.322743 0.847673
vn -0.299204 -0.131903 0.945028
vn -0.838921 0.025488 0.543656
vn -0.828492 0.034134 0.558960
vn -0.273320 -0.140633 0.951587
vn -0.857764 0.090285 0.506053
vn 0.479729 -0.279687 0.831646
vn 0.406351 -0.270353 0.872805
vn -0.866535 0.067829 0.494485
vn -0.275630 -0.171366 0.945866
vn 0.483612 -0.305360 0.820289
vn -0.837170 0.025974 0.546326
vn -0.280104 -0.192586 0.940453
vn -0.805399 0.093639 0.585290
vn -0.258525 -0.096079 0.961215
vn -0.796830 0.208611 0.567048
vn 0.410961 -0.242551 0.878794
vn 0.468243 -0.141037 0.872271
vn 0.418863 -0.321196 0.849345
vn -0.269800 -0.145042 0.951930
vn -0.800522 -0.123902 0.586356
vn 0.300801 -0.428316 0.852094
vn -0.303013 -0.309524 0.901320
vn -0.718927 -0.144099 0.679985
vn -0.866036 -0.127232 0.483522
vn -0.689278 -0.005099 0.724479
vn -0.259987 -0.102403 0.960167
vn -0.665159 0.192029 0.721587
vn 0.215118 -0.255052 0.942694
vn 0.293950 -0.073060 0.953024
vn 0.392985 -0.475203 0.787239
vn 0.188899 -0.395075 0.899018
vn 0.153865 -0.032776 0.987548
vn -0.210967 0.086590 0.973650
vn -0.553327 0.162705 0.816919
usemtl material
f 1/0/1 2/0/2 3/0/3
f 2/0/2 1/0/1 4/0/4
f 5/0/5 3/0/3 2/0/2
f 3/0/3 5/0/5 6/0/6
f 7/0/7 3/0/3 6/0/6
f 8/0/8 3/0/3 7/0/7
f 3/0/3 8/0/8 9/0/9
f 10/0/10 3/0/3 9/0/9
f 3/0/3 10/0/10 11/0/11
f 1/0/1 3/0/3 11/0/11
f 5/0/5 2/0/2 12/0/12
f 2/0/2 4/0/4 12/0/12
f 9/0/9 8/0/8 13/0/13
f 10/0/10 9/0/9 14/0/14
f 14/0/14 9/0/9 15/0/15
f 16/0/16 9/0/9 13/0/13
f 16/0/16 17/0/17 9/0/9
f 17/0/17 15/0/15 9/0/9
f 17/0/17 16/0/16 18/0/18
f 18/0/18 19/0/19 17/0/17
f 19/0/19 18/0/18 20/0/20
f 20/0/20 21/0/21 19/0/19
f 21/0/21 20/0/20 22/0/22
f 23/0/23 19/0/19 21/0/21
f 19/0/19 23/0/23 24/0/24
f 25/0/25 21/0/21 22/0/22
f 21/0/21 25/0/25 26/0/26
f 21/0/21 27/0/27 23/0/23
f 27/0/27 21/0/21 26/0/26
f 19/0/19 28/0/28 17/0/17
f 28/0/28 19/0/19 24/0/24
f 15/0/15 17/0/17 28/0/28
f 29/0/29 26/0/26 25/0/25
f 26/0/26 29/0/29 30/0/30
f 29/0/29 31/0/31 30/0/30
f 31/0/31 29/0/29 32/0/32
f 31/0/31 32/0/32 33/0/33
f 31/0/31 34/0/34 30/0/30
f 26/0/26 34/0/34 27/0/27
f 34/0/34 26/0/26 30/0/30
f 34/0/34 31/0/31 35/0/35
f 36/0/36 35/0/35 31/0/31
f 31/0/31 33/0/33 37/0/37
f 36/0/36 31/0/31 37/0/37
f 37/0/37 33/0/33 38/0/38
f 37/0/37 38/0/38 39/0/39
f 40/0/40 36/0/36 37/0/37
f 39/0/39 40/0/40 37/0/37
f 41/0/41 40/0/40 39/0/39
f 42/0/42 41/0/41 39/0/39
f 39/0/39 43/0/43 42/0/42
f 43/0/43 39/0/39 44/0/44
f 43/0/43 44/0/44 45/0/45
f 39/0/39 46/0/46 44/0/44
f 44/0/44 46/0/46 47/0/47
f 46/0/46 39/0/39 48/0/48
f 39/0/39 49/0/49 48/0/48
f 39/0/39 38/0/38 49/0/49
f 44/0/44 50/0/50 45/0/45
f 51/0/51 50/0/50 44/0/44
f 51/0/51 44/0/44 52/0/52
f 52/0/52 44/0/44 47/0/47
f 53/0/53 54/0/54 55/0/55
f 54/0/54 53/0/53 56/0/56
f 57/0/57 55/0/55 54/0/54
f 58/0/58 57/0/57 54/0/54
f 56/0/56 58/0/58 54/0/54
f 56/0/56 53/0/53 59/0/59
f 60/0/60 56/0/56 59/0/59
f 56/0/56 60/0/60 61/0/61
f 62/0/62 56/0/56 61/0/61
f 56/0/56 62/0/62 63/0/63
f 56/0/56 63/0/63 64/0/64
f 58/0/58 56/0/56 64/0/64
f 62/0/62 61/0/61 65/0/65
f 65/0/65 61/0/61 66/0/66
f 61/0/61 60/0/60 67/0/67
f 68/0/68 66/0/66 61/0/61
f 69/0/69 68/0/68 61/0/61
f 69/0/69 61/0/61 67/0/67
f 68/0/68 69/0/69 70/0/70
f 70/0/70 71/0/71 68/0/68
f 71/0/71 72/0/72 68/0/68
f 66/0/66 68/0/68 72/0/72
f 72/0/72 71/0/71 73/0/73
f 74/0/74 73/0/73 71/0/71
f 73/0/73 74/0/74 75/0/75
f 71/0/71 76/0/76 74/0/74
f 76/0/76 71/0/71 77/0/77
f 71/0/71 70/0/70 77/0/77
f 74/0/74 78/0/78 75/0/75
f 78/0/78 74/0/74 79/0/79
f 80/0/80 74/0/74 76/0/76
f 74/0/74 80/0/80 79/0/79
f 79/0/79 81/0/81 78/0/78
f 81/0/81 79/0/79 82/0/82
f 82/0/82 83/0/83 81/0/81
f 83/0/83 82/0/82 84/0/84
f 85/0/85 83/0/83 84/0/84
f 82/0/82 86/0/86 84/0/84
f 84/0/84 86/0/86 87/0/87
f 86/0/86 82/0/82 88/0/88
f 88/0/88 79/0/79 80/0/80
f 79/0/79 88/0/88 82/0/82
f 85/0/85 84/0/84 89/0/89
f 84/0/84 87/0/87 89/0/89
f 90/0/90 85/0/85 89/0/89
f 89/0/89 87/0/87 91/0/91
f 89/0/89 91/0/91 92/0/92
f 92/0/92 90/0/90 89/0/89
f 93/0/93 90/0/90 92/0/92
f 94/0/94 93/0/93 92/0/92
f 92/0/92 95/0/95 94/0/94
f 95/0/95 92/0/92 96/0/96
f 95/0/95 96/0/96 97/0/97
f 92/0/92 98/0/98 96/0/96
f 96/0/96 98/0/98 99/0/99
f 98/0/98 92/0/92 100/0/100
f 92/0/92 101/0/101 100/0/100
f 92/0/92 91/0/91 101/0/101
f 102/0/102 96/0/96 99/0/99
f 103/0/103 96/0/96 102/0/102
f 103/0/103 104/0/104 96/0/96
f 96/0/96 104/0/104 97/0/97
