# 
# Wavefront OBJ file
# Created with Kaydara FBX
# 
mtllib pasted__boss_cross_t6_w47.mtl

g pasted__Boss_Cross_T6_W47
v 0.181807 0.535743 0.095534
v 0.008570 0.060534 -0.003472
v 0.083215 0.523276 0.050601
v 0.019095 0.029953 0.004603
v -0.008232 0.034000 0.007698
v 0.004652 0.561975 0.115601
v 0.042920 0.587207 0.117643
v 0.067866 0.640673 0.126615
v 0.111344 0.680602 0.093258
v 0.147775 0.628840 0.117564
v 0.153779 0.570791 0.105086
v -0.000000 0.000000 0.000000
v 0.061991 0.683253 0.135889
v 0.167473 0.667634 0.123941
v 0.158955 0.723167 0.136107
v 0.088493 0.733600 0.144088
v 0.144881 0.870546 0.141041
v 0.119444 0.870739 0.169832
v 0.150885 0.912523 0.139167
v 0.112400 0.910652 0.178652
v 0.158682 0.951792 0.156668
v 0.135467 0.948944 0.184647
v 0.185648 0.941514 0.178963
v 0.194893 0.898436 0.169308
v 0.297295 1.899126 0.367370
v 0.320133 1.902277 0.339484
v 0.346639 1.891819 0.361781
v 0.174968 0.862517 0.163543
v 0.287851 1.928617 0.374238
v 0.324245 1.932814 0.335872
v 0.347564 2.068023 0.364997
v 0.311534 2.063817 0.400183
v 0.326772 2.084289 0.403148
v 0.365391 1.917135 0.365455
v 0.387674 2.052542 0.391558
v 0.379969 2.076412 0.397122
v 0.355410 2.108508 0.381331
v 0.332921 2.125538 0.411153
v 0.364298 2.164689 0.386356
v 0.387790 2.117413 0.404937
v 0.411497 2.136573 0.406931
v 0.399598 2.158096 0.412357
v 0.447430 2.211642 0.419453
v 0.376229 2.238694 0.394940
v 0.429288 2.253068 0.429503
v 0.307435 2.232372 0.435310
v 0.338414 2.266525 0.439796
v 0.335175 2.167636 0.419655
v 0.316727 2.150606 0.417666
v 0.422418 2.323715 0.444652
v 0.401608 2.364340 0.454757
v 0.368359 2.331720 0.450775
v 0.181807 0.535743 0.095534
v 0.010975 0.054533 0.025604
v 0.019095 0.029953 0.004603
v 0.091178 0.503407 0.146871
v -0.000000 0.000000 0.000000
v -0.008232 0.034000 0.007698
v 0.153779 0.570791 0.105086
v 0.147775 0.628840 0.117564
v 0.117334 0.665655 0.165682
v 0.067866 0.640673 0.126615
v 0.042920 0.587207 0.117643
v 0.004652 0.561975 0.115601
v 0.061991 0.683253 0.135889
v 0.088493 0.733600 0.144088
v 0.167473 0.667634 0.123941
v 0.149082 0.860065 0.191825
v 0.158955 0.723167 0.136107
v 0.174968 0.862517 0.163543
v 0.156668 0.898092 0.209087
v 0.119444 0.870739 0.169832
v 0.112400 0.910652 0.178652
v 0.162882 0.941311 0.207452
v 0.135467 0.948944 0.184647
v 0.185648 0.941514 0.178963
v 0.194893 0.898436 0.169308
v 0.297295 1.899126 0.367370
v 0.324332 1.891796 0.390268
v 0.346639 1.891819 0.361781
v 0.287851 1.928617 0.374238
v 0.329954 1.918567 0.404904
v 0.311534 2.063817 0.400183
v 0.352778 2.055014 0.428029
v 0.326772 2.084289 0.403148
v 0.387674 2.052542 0.391558
v 0.379969 2.076412 0.397122
v 0.365391 1.917135 0.365455
v 0.359264 2.098892 0.427921
v 0.332921 2.125538 0.411153
v 0.387790 2.117413 0.404937
v 0.369071 2.152778 0.444066
v 0.316727 2.150606 0.417666
v 0.335175 2.167636 0.419655
v 0.307435 2.232372 0.435310
v 0.381900 2.224540 0.463519
v 0.338414 2.266525 0.439796
v 0.447430 2.211642 0.419453
v 0.429288 2.253068 0.429503
v 0.399598 2.158096 0.412357
v 0.411497 2.136573 0.406931
v 0.422418 2.323715 0.444652
v 0.401608 2.364340 0.454757
v 0.368359 2.331720 0.450775
vt 0.957723 0.382191
vt 0.976790 0.482691
vt 0.976790 0.389456
vt 0.973849 0.487919
vt 0.979731 0.487919
vt 0.995857 0.382191
vt 0.988722 0.376026
vt 0.985391 0.364621
vt 0.976790 0.356772
vt 0.968190 0.364621
vt 0.964858 0.376026
vt 0.976790 0.494459
vt 0.988143 0.356298
vt 0.965437 0.356298
vt 0.969206 0.345470
vt 0.984374 0.345470
vt 0.976790 0.317463
vt 0.982766 0.317192
vt 0.976790 0.309280
vt 0.985669 0.309436
vt 0.976790 0.300844
vt 0.982191 0.301114
vt 0.971389 0.301114
vt 0.967911 0.309436
vt 0.982101 0.106744
vt 0.976790 0.106424
vt 0.971479 0.106744
vt 0.970814 0.317192
vt 0.985136 0.101138
vt 0.976790 0.100563
vt 0.976790 0.072779
vt 0.984985 0.073462
vt 0.982516 0.068927
vt 0.968445 0.101138
vt 0.968595 0.073462
vt 0.971065 0.068927
vt 0.976790 0.064151
vt 0.982696 0.060515
vt 0.976790 0.052894
vt 0.970885 0.060515
vt 0.966590 0.055992
vt 0.969856 0.052049
vt 0.961722 0.039952
vt 0.976790 0.037986
vt 0.967009 0.032222
vt 0.991858 0.039952
vt 0.986571 0.032222
vt 0.983724 0.052049
vt 0.986990 0.055992
vt 0.970972 0.018329
vt 0.976790 0.010838
vt 0.982608 0.018329
vt 0.995857 0.382191
vt 0.976790 0.482691
vt 0.979731 0.487919
vt 0.976790 0.389456
vt 0.976790 0.494459
vt 0.973849 0.487919
vt 0.988722 0.376026
vt 0.985391 0.364621
vt 0.976790 0.356772
vt 0.968190 0.364621
vt 0.964858 0.376026
vt 0.957723 0.382191
vt 0.965437 0.356298
vt 0.969206 0.345470
vt 0.988143 0.356298
vt 0.976790 0.317463
vt 0.984374 0.345470
vt 0.982766 0.317192
vt 0.976790 0.309280
vt 0.970814 0.317192
vt 0.967911 0.309436
vt 0.976790 0.300844
vt 0.971389 0.301114
vt 0.982191 0.301114
vt 0.985669 0.309436
vt 0.971479 0.106744
vt 0.976790 0.106424
vt 0.982101 0.106744
vt 0.968445 0.101138
vt 0.976790 0.100563
vt 0.968595 0.073462
vt 0.976790 0.072779
vt 0.971065 0.068927
vt 0.984985 0.073462
vt 0.982516 0.068927
vt 0.985136 0.101138
vt 0.976790 0.064151
vt 0.970884 0.060515
vt 0.982696 0.060515
vt 0.976790 0.052894
vt 0.966590 0.055992
vt 0.969856 0.052049
vt 0.961722 0.039952
vt 0.976790 0.037986
vt 0.967009 0.032222
vt 0.991858 0.039952
vt 0.986571 0.032222
vt 0.983724 0.052049
vt 0.986990 0.055992
vt 0.982608 0.018329
vt 0.976790 0.010838
vt 0.970972 0.018329
vn 0.406155 0.081409 -0.910171
vn 0.067042 0.080716 -0.994480
vn -0.105468 0.146533 -0.983567
vn 0.525493 -0.043538 -0.849683
vn -0.627775 0.166406 -0.760400
vn -0.558309 0.213204 -0.801770
vn -0.488002 0.466223 -0.737896
vn -0.706105 0.281446 -0.649772
vn -0.070154 0.262378 -0.962412
vn 0.596972 0.088496 -0.797366
vn 0.427096 0.330726 -0.841552
vn -0.118285 -0.040189 -0.992166
vn -0.618984 0.279600 -0.733950
vn 0.496730 0.114394 -0.860333
vn 0.608187 0.109780 -0.786166
vn -0.708022 0.304685 -0.637081
vn -0.082030 0.193844 -0.977597
vn -0.725315 0.212459 -0.654813
vn -0.110234 0.220799 -0.969070
vn -0.713062 0.226237 -0.663596
vn -0.082999 0.215463 -0.972978
vn -0.756191 0.258645 -0.601064
vn 0.644924 0.052020 -0.762474
vn 0.579679 0.074846 -0.811400
vn -0.764932 0.233394 -0.600338
vn -0.083557 0.184756 -0.979226
vn 0.648926 0.024039 -0.760472
vn 0.594041 0.017101 -0.804253
vn -0.717757 0.222425 -0.659812
vn -0.085280 0.174548 -0.980949
vn -0.072363 0.249878 -0.965570
vn -0.686789 0.283197 -0.669418
vn -0.695538 0.391918 -0.602185
vn 0.588750 0.028983 -0.807795
vn 0.575151 0.096337 -0.812355
vn 0.629138 0.195752 -0.752241
vn -0.079024 0.211543 -0.974169
vn -0.667112 0.089761 -0.739530
vn -0.106681 0.039536 -0.993507
vn 0.486064 -0.081001 -0.870161
vn 0.382132 -0.034292 -0.923471
vn 0.568653 -0.147223 -0.809295
vn 0.403751 0.112250 -0.907956
vn -0.071584 0.254328 -0.964465
vn 0.467310 0.286330 -0.836443
vn -0.543285 0.252479 -0.800684
vn -0.537081 0.435060 -0.722680
vn -0.749753 0.048029 -0.659972
vn -0.568449 0.106487 -0.815798
vn 0.332855 0.334620 -0.881610
vn -0.037367 0.435683 -0.899324
vn -0.407748 0.444308 -0.797704
vn 0.546968 -0.269993 0.792420
vn 0.225566 -0.314796 0.921967
vn 0.651127 -0.357119 0.669701
vn 0.055691 -0.255664 0.965160
vn 0.038281 -0.430983 0.901547
vn -0.494312 -0.166597 0.853171
vn 0.564949 -0.013255 0.825019
vn 0.717745 -0.212901 0.662960
vn 0.090986 -0.139749 0.985998
vn -0.585329 -0.019952 0.810550
vn -0.350149 0.122263 0.928680
vn -0.417727 -0.137628 0.898088
vn -0.486118 -0.051926 0.872349
vn -0.588471 0.006338 0.808493
vn 0.629593 -0.217125 0.745969
vn 0.079444 -0.209075 0.974667
vn 0.727761 -0.188557 0.659401
vn 0.713603 -0.281299 0.641593
vn 0.051131 -0.181886 0.981989
vn -0.605700 -0.085924 0.791040
vn -0.591824 -0.076321 0.802446
vn 0.078476 -0.187435 0.979137
vn -0.643184 -0.023379 0.765354
vn 0.758390 -0.231114 0.609452
vn 0.702470 -0.231492 0.673014
vn -0.652732 -0.046571 0.756156
vn 0.077890 -0.218128 0.972807
vn 0.761085 -0.255932 0.596028
vn -0.603299 -0.085269 0.792944
vn 0.074153 -0.239650 0.968023
vn -0.567953 -0.014813 0.822928
vn 0.090710 -0.141546 0.985767
vn -0.578783 0.100589 0.809254
vn 0.705728 -0.203424 0.678651
vn 0.745867 -0.095552 0.659206
vn 0.711952 -0.280047 0.643970
vn 0.082455 -0.191362 0.978050
vn -0.538914 -0.230113 0.810321
vn 0.614261 -0.400861 0.679701
vn 0.052594 -0.357920 0.932270
vn -0.428988 -0.241555 0.870414
vn -0.634411 -0.239878 0.734835
vn -0.401778 -0.100630 0.910191
vn 0.089646 -0.147997 0.984916
vn -0.402010 0.098000 0.910375
vn 0.545249 -0.240860 0.802926
vn 0.602363 -0.050719 0.796609
vn 0.683990 -0.435110 0.585522
vn 0.521576 -0.382306 0.762758
vn 0.478369 -0.028457 0.877698
vn 0.119091 0.045369 0.991846
vn -0.262208 0.081198 0.961589
usemtl material
f 1/0/1 2/0/2 3/0/3
f 2/0/2 1/0/1 4/0/4
f 5/0/5 3/0/3 2/0/2
f 3/0/3 5/0/5 6/0/6
f 7/0/7 3/0/3 6/0/6
f 8/0/8 3/0/3 7/0/7
f 3/0/3 8/0/8 9/0/9
f 10/0/10 3/0/3 9/0/9
f 3/0/3 10/0/10 11/0/11
f 1/0/1 3/0/3 11/0/11
f 5/0/5 2/0/2 12/0/12
f 2/0/2 4/0/4 12/0/12
f 9/0/9 8/0/8 13/0/13
f 10/0/10 9/0/9 14/0/14
f 14/0/14 9/0/9 15/0/15
f 16/0/16 9/0/9 13/0/13
f 16/0/16 17/0/17 9/0/9
f 17/0/17 15/0/15 9/0/9
f 17/0/17 16/0/16 18/0/18
f 18/0/18 19/0/19 17/0/17
f 19/0/19 18/0/18 20/0/20
f 20/0/20 21/0/21 19/0/19
f 21/0/21 20/0/20 22/0/22
f 23/0/23 19/0/19 21/0/21
f 19/0/19 23/0/23 24/0/24
f 25/0/25 21/0/21 22/0/22
f 21/0/21 25/0/25 26/0/26
f 21/0/21 27/0/27 23/0/23
f 27/0/27 21/0/21 26/0/26
f 19/0/19 28/0/28 17/0/17
f 28/0/28 19/0/19 24/0/24
f 15/0/15 17/0/17 28/0/28
f 29/0/29 26/0/26 25/0/25
f 26/0/26 29/0/29 30/0/30
f 29/0/29 31/0/31 30/0/30
f 31/0/31 29/0/29 32/0/32
f 31/0/31 32/0/32 33/0/33
f 31/0/31 34/0/34 30/0/30
f 26/0/26 34/0/34 27/0/27
f 34/0/34 26/0/26 30/0/30
f 34/0/34 31/0/31 35/0/35
f 36/0/36 35/0/35 31/0/31
f 31/0/31 33/0/33 37/0/37
f 36/0/36 31/0/31 37/0/37
f 37/0/37 33/0/33 38/0/38
f 37/0/37 38/0/38 39/0/39
f 40/0/40 36/0/36 37/0/37
f 39/0/39 40/0/40 37/0/37
f 41/0/41 40/0/40 39/0/39
f 42/0/42 41/0/41 39/0/39
f 39/0/39 43/0/43 42/0/42
f 43/0/43 39/0/39 44/0/44
f 43/0/43 44/0/44 45/0/45
f 39/0/39 46/0/46 44/0/44
f 44/0/44 46/0/46 47/0/47
f 46/0/46 39/0/39 48/0/48
f 39/0/39 49/0/49 48/0/48
f 39/0/39 38/0/38 49/0/49
f 44/0/44 50/0/50 45/0/45
f 51/0/51 50/0/50 44/0/44
f 51/0/51 44/0/44 52/0/52
f 52/0/52 44/0/44 47/0/47
f 53/0/53 54/0/54 55/0/55
f 54/0/54 53/0/53 56/0/56
f 57/0/57 55/0/55 54/0/54
f 58/0/58 57/0/57 54/0/54
f 56/0/56 58/0/58 54/0/54
f 56/0/56 53/0/53 59/0/59
f 60/0/60 56/0/56 59/0/59
f 56/0/56 60/0/60 61/0/61
f 62/0/62 56/0/56 61/0/61
f 56/0/56 62/0/62 63/0/63
f 56/0/56 63/0/63 64/0/64
f 58/0/58 56/0/56 64/0/64
f 62/0/62 61/0/61 65/0/65
f 65/0/65 61/0/61 66/0/66
f 61/0/61 60/0/60 67/0/67
f 68/0/68 66/0/66 61/0/61
f 69/0/69 68/0/68 61/0/61
f 69/0/69 61/0/61 67/0/67
f 68/0/68 69/0/69 70/0/70
f 70/0/70 71/0/71 68/0/68
f 71/0/71 72/0/72 68/0/68
f 66/0/66 68/0/68 72/0/72
f 72/0/72 71/0/71 73/0/73
f 74/0/74 73/0/73 71/0/71
f 73/0/73 74/0/74 75/0/75
f 71/0/71 76/0/76 74/0/74
f 76/0/76 71/0/71 77/0/77
f 71/0/71 70/0/70 77/0/77
f 74/0/74 78/0/78 75/0/75
f 78/0/78 74/0/74 79/0/79
f 80/0/80 74/0/74 76/0/76
f 74/0/74 80/0/80 79/0/79
f 79/0/79 81/0/81 78/0/78
f 81/0/81 79/0/79 82/0/82
f 82/0/82 83/0/83 81/0/81
f 83/0/83 82/0/82 84/0/84
f 85/0/85 83/0/83 84/0/84
f 82/0/82 86/0/86 84/0/84
f 84/0/84 86/0/86 87/0/87
f 86/0/86 82/0/82 88/0/88
f 88/0/88 79/0/79 80/0/80
f 79/0/79 88/0/88 82/0/82
f 85/0/85 84/0/84 89/0/89
f 84/0/84 87/0/87 89/0/89
f 90/0/90 85/0/85 89/0/89
f 89/0/89 87/0/87 91/0/91
f 89/0/89 91/0/91 92/0/92
f 92/0/92 90/0/90 89/0/89
f 93/0/93 90/0/90 92/0/92
f 94/0/94 93/0/93 92/0/92
f 92/0/92 95/0/95 94/0/94
f 95/0/95 92/0/92 96/0/96
f 95/0/95 96/0/96 97/0/97
f 92/0/92 98/0/98 96/0/96
f 96/0/96 98/0/98 99/0/99
f 98/0/98 92/0/92 100/0/100
f 92/0/92 101/0/101 100/0/100
f 92/0/92 91/0/91 101/0/101
f 102/0/102 96/0/96 99/0/99
f 103/0/103 96/0/96 102/0/102
f 103/0/103 104/0/104 96/0/96
f 96/0/96 104/0/104 97/0/97
