# 
# Wavefront OBJ file
# Created with Kaydara FBX
# 
mtllib pasted__boss_cross_t6_w52.mtl

g pasted__Boss_Cross_T6_W52
v -0.054740 0.560479 0.109855
v -0.012215 0.059809 -0.004854
v -0.123189 0.516469 0.037243
v 0.005060 0.034488 0.008246
v -0.021451 0.028592 0.002316
v -0.226599 0.522258 0.071413
v -0.202167 0.559139 0.083583
v -0.201445 0.617474 0.096149
v -0.166217 0.671566 0.075401
v -0.123924 0.634714 0.113489
v -0.094621 0.583056 0.107639
v -0.000000 -0.000000 -0.000000
v -0.224276 0.654847 0.100093
v -0.121948 0.677605 0.122982
v -0.152502 0.726044 0.127923
v -0.220858 0.710843 0.112634
v -0.217354 0.858842 0.117818
v -0.249043 0.848812 0.137084
v -0.225941 0.900313 0.114977
v -0.271843 0.883301 0.140419
v -0.238177 0.938979 0.131235
v -0.266597 0.926916 0.150642
v -0.217917 0.937743 0.161532
v -0.191815 0.901099 0.158319
v -0.509733 1.864282 0.307648
v -0.481780 1.876493 0.288190
v -0.461863 1.874928 0.318356
v -0.195180 0.860791 0.149132
v -0.530433 1.888270 0.309114
v -0.487536 1.906677 0.283913
v -0.522870 2.040020 0.309305
v -0.564431 2.021878 0.331609
v -0.558985 2.046222 0.337760
v -0.455211 1.904999 0.325940
v -0.490567 2.038305 0.348131
v -0.507379 2.057699 0.349303
v -0.535112 2.079895 0.324386
v -0.570337 2.086605 0.344369
v -0.548249 2.135348 0.327986
v -0.517107 2.098443 0.356275
v -0.503420 2.124559 0.364256
v -0.523081 2.140299 0.364147
v -0.501581 2.206785 0.382112
v -0.565983 2.208380 0.334654
v -0.535094 2.238760 0.383022
v -0.637393 2.176582 0.351733
v -0.623251 2.219154 0.363304
v -0.585579 2.126400 0.350167
v -0.595358 2.104112 0.343691
v -0.570359 2.301783 0.390244
v -0.605966 2.332074 0.390427
v -0.622802 2.290120 0.378514
v -0.054740 0.560479 0.109855
v -0.017276 0.053688 0.023855
v 0.005060 0.034488 0.008246
v -0.139943 0.496203 0.132294
v -0.000000 -0.000000 -0.000000
v -0.021451 0.028592 0.002316
v -0.094621 0.583056 0.107639
v -0.123924 0.634714 0.113489
v -0.178821 0.656319 0.146908
v -0.201445 0.617474 0.096149
v -0.202167 0.559139 0.083583
v -0.226599 0.522258 0.071413
v -0.224276 0.654847 0.100093
v -0.220858 0.710843 0.112634
v -0.121948 0.677605 0.122982
v -0.226192 0.848151 0.167959
v -0.152502 0.726044 0.127923
v -0.195180 0.860791 0.149132
v -0.238109 0.885593 0.184012
v -0.249043 0.848812 0.137084
v -0.271843 0.883301 0.140419
v -0.247014 0.928289 0.181376
v -0.266597 0.926916 0.150642
v -0.217917 0.937743 0.161532
v -0.191815 0.901099 0.158319
v -0.509733 1.864282 0.307648
v -0.490618 1.865802 0.338330
v -0.461863 1.874928 0.318356
v -0.530433 1.888270 0.309114
v -0.499550 1.892145 0.352070
v -0.564431 2.021878 0.331609
v -0.533840 2.026751 0.371538
v -0.558985 2.046222 0.337760
v -0.490567 2.038305 0.348131
v -0.507379 2.057699 0.349303
v -0.455211 1.904999 0.325940
v -0.543220 2.070087 0.370388
v -0.570337 2.086605 0.344369
v -0.517107 2.098443 0.356275
v -0.558292 2.123199 0.384963
v -0.595358 2.104112 0.343691
v -0.585579 2.126400 0.350167
v -0.637393 2.176582 0.351733
v -0.577918 2.193944 0.402366
v -0.623251 2.219154 0.363304
v -0.501581 2.206785 0.382112
v -0.535094 2.238760 0.383022
v -0.523081 2.140299 0.364147
v -0.503420 2.124559 0.364256
v -0.570359 2.301783 0.390244
v -0.605966 2.332074 0.390427
v -0.622802 2.290120 0.378514
vt 0.957723 0.382191
vt 0.976790 0.482691
vt 0.976790 0.389456
vt 0.973849 0.487919
vt 0.979731 0.487919
vt 0.995857 0.382191
vt 0.988722 0.376026
vt 0.985391 0.364621
vt 0.976790 0.356772
vt 0.968190 0.364621
vt 0.964858 0.376026
vt 0.976790 0.494459
vt 0.988143 0.356298
vt 0.965437 0.356298
vt 0.969206 0.345470
vt 0.984374 0.345470
vt 0.976790 0.317463
vt 0.982766 0.317192
vt 0.976790 0.309280
vt 0.985669 0.309436
vt 0.976790 0.300844
vt 0.982191 0.301114
vt 0.971389 0.301114
vt 0.967911 0.309436
vt 0.982101 0.106744
vt 0.976790 0.106424
vt 0.971479 0.106744
vt 0.970814 0.317192
vt 0.985136 0.101138
vt 0.976790 0.100563
vt 0.976790 0.072779
vt 0.984985 0.073462
vt 0.982516 0.068927
vt 0.968445 0.101138
vt 0.968595 0.073462
vt 0.971065 0.068927
vt 0.976790 0.064151
vt 0.982696 0.060515
vt 0.976790 0.052894
vt 0.970885 0.060515
vt 0.966590 0.055992
vt 0.969856 0.052049
vt 0.961722 0.039952
vt 0.976790 0.037986
vt 0.967009 0.032222
vt 0.991858 0.039952
vt 0.986571 0.032222
vt 0.983724 0.052049
vt 0.986990 0.055992
vt 0.970972 0.018329
vt 0.976790 0.010838
vt 0.982608 0.018329
vt 0.995857 0.382191
vt 0.976790 0.482691
vt 0.979731 0.487919
vt 0.976790 0.389456
vt 0.976790 0.494459
vt 0.973849 0.487919
vt 0.988722 0.376026
vt 0.985391 0.364621
vt 0.976790 0.356772
vt 0.968190 0.364621
vt 0.964858 0.376026
vt 0.957723 0.382191
vt 0.965437 0.356298
vt 0.969206 0.345470
vt 0.988143 0.356298
vt 0.976790 0.317463
vt 0.984374 0.345470
vt 0.982766 0.317192
vt 0.976790 0.309280
vt 0.970814 0.317192
vt 0.967911 0.309436
vt 0.976790 0.300844
vt 0.971389 0.301114
vt 0.982191 0.301114
vt 0.985669 0.309436
vt 0.971479 0.106744
vt 0.976790 0.106424
vt 0.982101 0.106744
vt 0.968445 0.101138
vt 0.976790 0.100563
vt 0.968595 0.073462
vt 0.976790 0.072779
vt 0.971065 0.068927
vt 0.984985 0.073462
vt 0.982516 0.068927
vt 0.985136 0.101138
vt 0.976790 0.064151
vt 0.970884 0.060515
vt 0.982696 0.060515
vt 0.976790 0.052894
vt 0.966590 0.055992
vt 0.969856 0.052049
vt 0.961722 0.039952
vt 0.976790 0.037986
vt 0.967009 0.032222
vt 0.991858 0.039952
vt 0.986571 0.032222
vt 0.983724 0.052049
vt 0.986990 0.055992
vt 0.982608 0.018329
vt 0.976790 0.010838
vt 0.970972 0.018329
vn 0.620223 0.260054 -0.740065
vn 0.347846 0.144909 -0.926285
vn 0.169344 0.145786 -0.974715
vn 0.749438 0.181966 -0.636578
vn -0.369705 -0.028259 -0.928719
vn -0.311373 0.041693 -0.949373
vn -0.356881 0.300102 -0.884633
vn -0.513774 0.046958 -0.856639
vn 0.153816 0.265561 -0.951745
vn 0.750350 0.328087 -0.573877
vn 0.530859 0.497532 -0.686040
vn 0.225250 -0.033035 -0.973741
vn -0.409400 0.079520 -0.908883
vn 0.672951 0.320222 -0.666779
vn 0.749334 0.351409 -0.561257
vn -0.527535 0.067435 -0.846853
vn 0.171841 0.197979 -0.965026
vn -0.505292 -0.024088 -0.862612
vn 0.134866 0.212979 -0.967704
vn -0.496485 -0.006513 -0.868021
vn 0.162058 0.217669 -0.962475
vn -0.565645 0.005874 -0.824628
vn 0.794183 0.309073 -0.523208
vn 0.744260 0.309929 -0.591625
vn -0.564880 -0.020847 -0.824910
vn 0.174127 0.189012 -0.966413
vn 0.806717 0.284187 -0.518116
vn 0.774579 0.260565 -0.576310
vn -0.500488 -0.011876 -0.865662
vn 0.176691 0.178953 -0.967862
vn 0.157204 0.253251 -0.954542
vn -0.491088 0.056247 -0.869292
vn -0.557700 0.151825 -0.816039
vn 0.766939 0.269994 -0.582158
vn 0.733180 0.328480 -0.595440
vn 0.727378 0.437626 -0.528588
vn 0.167299 0.215456 -0.962076
vn -0.384634 -0.114681 -0.915917
vn 0.208378 0.045682 -0.976981
vn 0.734083 0.134122 -0.665683
vn 0.643140 0.143988 -0.752090
vn 0.810466 0.098134 -0.577508
vn 0.606743 0.287961 -0.740905
vn 0.155999 0.257619 -0.953570
vn 0.580041 0.469789 -0.665470
vn -0.311978 0.083658 -0.946399
vn -0.394361 0.253097 -0.883415
vn -0.468477 -0.186318 -0.863605
vn -0.279038 -0.061065 -0.958337
vn 0.458971 0.470167 -0.753849
vn 0.102901 0.436303 -0.893896
vn -0.259381 0.310375 -0.914543
vn 0.323900 -0.098370 0.940963
vn 0.014386 -0.258541 0.965893
vn 0.485002 -0.137895 0.863573
vn -0.169786 -0.264450 0.949336
vn -0.104432 -0.431688 0.895957
vn -0.650485 -0.367955 0.664438
vn 0.240801 0.146679 0.959427
vn 0.496222 0.020659 0.867950
vn -0.185245 -0.144605 0.971995
vn -0.767925 -0.260463 0.585192
vn -0.646950 -0.050744 0.760842
vn -0.607178 -0.316152 0.728960
vn -0.688962 -0.258630 0.677083
vn -0.779111 -0.236873 0.580411
vn 0.393409 -0.017917 0.919189
vn -0.167930 -0.212994 0.962514
vn 0.497775 0.047088 0.866027
vn 0.522973 -0.043808 0.851223
vn -0.204641 -0.197744 0.958655
vn -0.756955 -0.328444 0.564929
vn -0.751619 -0.315129 0.579451
vn -0.177682 -0.193289 0.964919
vn -0.803417 -0.281793 0.524512
vn 0.555394 0.020272 0.831340
vn 0.485938 -0.002546 0.873990
vn -0.800955 -0.306395 0.514385
vn -0.165597 -0.221921 0.960900
vn 0.570653 -0.001380 0.821190
vn -0.755634 -0.327088 0.567478
vn -0.159947 -0.243155 0.956709
vn -0.758297 -0.250183 0.601992
vn -0.184799 -0.146389 0.971812
vn -0.803333 -0.145307 0.577531
vn 0.477344 0.024610 0.878372
vn 0.481753 0.140489 0.864972
vn 0.520270 -0.043321 0.852903
vn -0.172468 -0.195524 0.965414
vn -0.654364 -0.440950 0.614305
vn 0.464360 -0.192156 0.864550
vn -0.126777 -0.359729 0.924404
vn -0.572451 -0.416056 0.706539
vn -0.711257 -0.479937 0.513589
vn -0.609715 -0.276528 0.742819
vn -0.183238 -0.152762 0.971127
vn -0.678527 -0.090686 0.728957
vn 0.309014 -0.072200 0.948313
vn 0.295819 0.126008 0.946896
vn 0.567671 -0.195524 0.799700
vn 0.349704 -0.210981 0.912795
vn 0.152902 0.099796 0.983190
vn -0.226191 0.038195 0.973334
vn -0.565629 -0.059980 0.822476
usemtl material
f 1/0/1 2/0/2 3/0/3
f 2/0/2 1/0/1 4/0/4
f 5/0/5 3/0/3 2/0/2
f 3/0/3 5/0/5 6/0/6
f 7/0/7 3/0/3 6/0/6
f 8/0/8 3/0/3 7/0/7
f 3/0/3 8/0/8 9/0/9
f 10/0/10 3/0/3 9/0/9
f 3/0/3 10/0/10 11/0/11
f 1/0/1 3/0/3 11/0/11
f 5/0/5 2/0/2 12/0/12
f 2/0/2 4/0/4 12/0/12
f 9/0/9 8/0/8 13/0/13
f 10/0/10 9/0/9 14/0/14
f 14/0/14 9/0/9 15/0/15
f 16/0/16 9/0/9 13/0/13
f 16/0/16 17/0/17 9/0/9
f 17/0/17 15/0/15 9/0/9
f 17/0/17 16/0/16 18/0/18
f 18/0/18 19/0/19 17/0/17
f 19/0/19 18/0/18 20/0/20
f 20/0/20 21/0/21 19/0/19
f 21/0/21 20/0/20 22/0/22
f 23/0/23 19/0/19 21/0/21
f 19/0/19 23/0/23 24/0/24
f 25/0/25 21/0/21 22/0/22
f 21/0/21 25/0/25 26/0/26
f 21/0/21 27/0/27 23/0/23
f 27/0/27 21/0/21 26/0/26
f 19/0/19 28/0/28 17/0/17
f 28/0/28 19/0/19 24/0/24
f 15/0/15 17/0/17 28/0/28
f 29/0/29 26/0/26 25/0/25
f 26/0/26 29/0/29 30/0/30
f 29/0/29 31/0/31 30/0/30
f 31/0/31 29/0/29 32/0/32
f 31/0/31 32/0/32 33/0/33
f 31/0/31 34/0/34 30/0/30
f 26/0/26 34/0/34 27/0/27
f 34/0/34 26/0/26 30/0/30
f 34/0/34 31/0/31 35/0/35
f 36/0/36 35/0/35 31/0/31
f 31/0/31 33/0/33 37/0/37
f 36/0/36 31/0/31 37/0/37
f 37/0/37 33/0/33 38/0/38
f 37/0/37 38/0/38 39/0/39
f 40/0/40 36/0/36 37/0/37
f 39/0/39 40/0/40 37/0/37
f 41/0/41 40/0/40 39/0/39
f 42/0/42 41/0/41 39/0/39
f 39/0/39 43/0/43 42/0/42
f 43/0/43 39/0/39 44/0/44
f 43/0/43 44/0/44 45/0/45
f 39/0/39 46/0/46 44/0/44
f 44/0/44 46/0/46 47/0/47
f 46/0/46 39/0/39 48/0/48
f 39/0/39 49/0/49 48/0/48
f 39/0/39 38/0/38 49/0/49
f 44/0/44 50/0/50 45/0/45
f 51/0/51 50/0/50 44/0/44
f 51/0/51 44/0/44 52/0/52
f 52/0/52 44/0/44 47/0/47
f 53/0/53 54/0/54 55/0/55
f 54/0/54 53/0/53 56/0/56
f 57/0/57 55/0/55 54/0/54
f 58/0/58 57/0/57 54/0/54
f 56/0/56 58/0/58 54/0/54
f 56/0/56 53/0/53 59/0/59
f 60/0/60 56/0/56 59/0/59
f 56/0/56 60/0/60 61/0/61
f 62/0/62 56/0/56 61/0/61
f 56/0/56 62/0/62 63/0/63
f 56/0/56 63/0/63 64/0/64
f 58/0/58 56/0/56 64/0/64
f 62/0/62 61/0/61 65/0/65
f 65/0/65 61/0/61 66/0/66
f 61/0/61 60/0/60 67/0/67
f 68/0/68 66/0/66 61/0/61
f 69/0/69 68/0/68 61/0/61
f 69/0/69 61/0/61 67/0/67
f 68/0/68 69/0/69 70/0/70
f 70/0/70 71/0/71 68/0/68
f 71/0/71 72/0/72 68/0/68
f 66/0/66 68/0/68 72/0/72
f 72/0/72 71/0/71 73/0/73
f 74/0/74 73/0/73 71/0/71
f 73/0/73 74/0/74 75/0/75
f 71/0/71 76/0/76 74/0/74
f 76/0/76 71/0/71 77/0/77
f 71/0/71 70/0/70 77/0/77
f 74/0/74 78/0/78 75/0/75
f 78/0/78 74/0/74 79/0/79
f 80/0/80 74/0/74 76/0/76
f 74/0/74 80/0/80 79/0/79
f 79/0/79 81/0/81 78/0/78
f 81/0/81 79/0/79 82/0/82
f 82/0/82 83/0/83 81/0/81
f 83/0/83 82/0/82 84/0/84
f 85/0/85 83/0/83 84/0/84
f 82/0/82 86/0/86 84/0/84
f 84/0/84 86/0/86 87/0/87
f 86/0/86 82/0/82 88/0/88
f 88/0/88 79/0/79 80/0/80
f 79/0/79 88/0/88 82/0/82
f 85/0/85 84/0/84 89/0/89
f 84/0/84 87/0/87 89/0/89
f 90/0/90 85/0/85 89/0/89
f 89/0/89 87/0/87 91/0/91
f 89/0/89 91/0/91 92/0/92
f 92/0/92 90/0/90 89/0/89
f 93/0/93 90/0/90 92/0/92
f 94/0/94 93/0/93 92/0/92
f 92/0/92 95/0/95 94/0/94
f 95/0/95 92/0/92 96/0/96
f 95/0/95 96/0/96 97/0/97
f 92/0/92 98/0/98 96/0/96
f 96/0/96 98/0/98 99/0/99
f 98/0/98 92/0/92 100/0/100
f 92/0/92 101/0/101 100/0/100
f 92/0/92 91/0/91 101/0/101
f 102/0/102 96/0/96 99/0/99
f 103/0/103 96/0/96 102/0/102
f 103/0/103 104/0/104 96/0/96
f 96/0/96 104/0/104 97/0/97
