# 
# Wavefront OBJ file
# Created with Kaydara FBX
# 
mtllib pasted__boss_cross_t6_w63.mtl

g pasted__Boss_Cross_T6_W63
v 0.203780 0.520317 0.130171
v 0.013999 0.059594 -0.001563
v 0.114746 0.515361 0.067377
v 0.020272 0.028358 0.008239
v -0.006724 0.034644 0.006132
v 0.028773 0.561069 0.116511
v 0.067905 0.583135 0.125841
v 0.095005 0.634504 0.139564
v 0.147113 0.670379 0.115170
v 0.173945 0.616122 0.145725
v 0.177419 0.557634 0.134388
v -0.000000 -0.000000 0.000000
v 0.090992 0.677527 0.147721
v 0.195197 0.653263 0.155854
v 0.189114 0.709443 0.166401
v 0.119507 0.725651 0.160968
v 0.186479 0.857525 0.169142
v 0.156173 0.860120 0.192611
v 0.196145 0.898852 0.168594
v 0.150883 0.900575 0.200091
v 0.203691 0.937563 0.187400
v 0.175464 0.936937 0.210480
v 0.225035 0.925394 0.214349
v 0.232377 0.881598 0.206452
v 0.377187 1.872947 0.424053
v 0.405054 1.873907 0.400996
v 0.425934 1.861596 0.427858
v 0.211022 0.847349 0.196892
v 0.369066 1.903186 0.429124
v 0.412261 1.903965 0.398339
v 0.440663 2.037170 0.431854
v 0.398423 2.036315 0.459584
v 0.414452 2.055518 0.465451
v 0.445666 1.885349 0.435103
v 0.473639 2.018800 0.465455
v 0.467004 2.043281 0.469553
v 0.448575 2.077075 0.449528
v 0.422338 2.096223 0.474628
v 0.460927 2.132405 0.456353
v 0.476543 2.083601 0.478859
v 0.500936 2.100797 0.485367
v 0.490029 2.123277 0.488529
v 0.539886 2.172846 0.504733
v 0.477043 2.205294 0.467314
v 0.523629 2.215724 0.511331
v 0.401589 2.205050 0.493938
v 0.433859 2.236627 0.504324
v 0.426388 2.138097 0.483561
v 0.407314 2.122597 0.478059
v 0.519835 2.286868 0.525175
v 0.500892 2.329164 0.531321
v 0.466432 2.299304 0.521007
v 0.203780 0.520317 0.130171
v 0.010378 0.053761 0.027421
v 0.020272 0.028358 0.008239
v 0.102759 0.496047 0.163342
v -0.000000 -0.000000 0.000000
v -0.006724 0.034644 0.006132
v 0.177419 0.557634 0.134388
v 0.173945 0.616122 0.145725
v 0.138094 0.655849 0.187365
v 0.095005 0.634504 0.139564
v 0.067905 0.583135 0.125841
v 0.028773 0.561069 0.116511
v 0.090992 0.677527 0.147721
v 0.119507 0.725651 0.160968
v 0.195197 0.653263 0.155854
v 0.180155 0.847337 0.219765
v 0.189114 0.709443 0.166401
v 0.211022 0.847349 0.196892
v 0.187439 0.884825 0.238292
v 0.156173 0.860120 0.192611
v 0.150883 0.900575 0.200091
v 0.197368 0.927375 0.238023
v 0.175464 0.936937 0.210480
v 0.225035 0.925394 0.214349
v 0.232377 0.881598 0.206452
v 0.377187 1.872947 0.424053
v 0.398730 1.863719 0.451619
v 0.425934 1.861596 0.427858
v 0.369066 1.903186 0.429124
v 0.403665 1.890116 0.467153
v 0.398423 2.036315 0.459584
v 0.432814 2.024525 0.494686
v 0.414452 2.055518 0.465451
v 0.473639 2.018800 0.465455
v 0.467004 2.043281 0.469553
v 0.445666 1.885349 0.435103
v 0.442773 2.067728 0.495971
v 0.422338 2.096223 0.474628
v 0.476543 2.083601 0.478859
v 0.453740 2.120827 0.513881
v 0.407314 2.122597 0.478059
v 0.426388 2.138097 0.483561
v 0.401589 2.205050 0.493938
v 0.468505 2.191536 0.535676
v 0.433859 2.236627 0.504324
v 0.539886 2.172846 0.504733
v 0.523629 2.215724 0.511331
v 0.490029 2.123277 0.488529
v 0.500936 2.100797 0.485367
v 0.519835 2.286868 0.525175
v 0.500892 2.329164 0.531321
v 0.466432 2.299304 0.521007
vt 0.957723 0.382191
vt 0.976790 0.482691
vt 0.976790 0.389456
vt 0.973849 0.487919
vt 0.979731 0.487919
vt 0.995857 0.382191
vt 0.988722 0.376026
vt 0.985391 0.364621
vt 0.976790 0.356772
vt 0.968190 0.364621
vt 0.964858 0.376026
vt 0.976790 0.494459
vt 0.988143 0.356298
vt 0.965437 0.356298
vt 0.969206 0.345470
vt 0.984374 0.345470
vt 0.976790 0.317463
vt 0.982766 0.317192
vt 0.976790 0.309280
vt 0.985669 0.309436
vt 0.976790 0.300844
vt 0.982191 0.301114
vt 0.971389 0.301114
vt 0.967911 0.309436
vt 0.982101 0.106744
vt 0.976790 0.106424
vt 0.971479 0.106744
vt 0.970814 0.317192
vt 0.985136 0.101138
vt 0.976790 0.100563
vt 0.976790 0.072779
vt 0.984985 0.073462
vt 0.982516 0.068927
vt 0.968445 0.101138
vt 0.968595 0.073462
vt 0.971065 0.068927
vt 0.976790 0.064151
vt 0.982696 0.060515
vt 0.976790 0.052894
vt 0.970885 0.060515
vt 0.966590 0.055992
vt 0.969856 0.052049
vt 0.961722 0.039952
vt 0.976790 0.037986
vt 0.967009 0.032222
vt 0.991858 0.039952
vt 0.986571 0.032222
vt 0.983724 0.052049
vt 0.986990 0.055992
vt 0.970972 0.018329
vt 0.976790 0.010838
vt 0.982608 0.018329
vt 0.995857 0.382191
vt 0.976790 0.482691
vt 0.979731 0.487919
vt 0.976790 0.389456
vt 0.976790 0.494459
vt 0.973849 0.487919
vt 0.988722 0.376026
vt 0.985391 0.364621
vt 0.976790 0.356772
vt 0.968190 0.364621
vt 0.964858 0.376026
vt 0.957723 0.382191
vt 0.965437 0.356298
vt 0.969206 0.345470
vt 0.988143 0.356298
vt 0.976790 0.317463
vt 0.984374 0.345470
vt 0.982766 0.317192
vt 0.976790 0.309280
vt 0.970814 0.317192
vt 0.967911 0.309436
vt 0.976790 0.300844
vt 0.971389 0.301114
vt 0.982191 0.301114
vt 0.985669 0.309436
vt 0.971479 0.106744
vt 0.976790 0.106424
vt 0.982101 0.106744
vt 0.968445 0.101138
vt 0.976790 0.100563
vt 0.968595 0.073462
vt 0.976790 0.072779
vt 0.971065 0.068927
vt 0.984985 0.073462
vt 0.982516 0.068927
vt 0.985136 0.101138
vt 0.976790 0.064151
vt 0.970884 0.060515
vt 0.982696 0.060515
vt 0.976790 0.052894
vt 0.966590 0.055992
vt 0.969856 0.052049
vt 0.961722 0.039952
vt 0.976790 0.037986
vt 0.967009 0.032222
vt 0.991858 0.039952
vt 0.986571 0.032222
vt 0.983724 0.052049
vt 0.986990 0.055992
vt 0.982608 0.018329
vt 0.976790 0.010838
vt 0.970972 0.018329
vn 0.575780 0.037449 -0.816746
vn 0.259728 0.063307 -0.963605
vn 0.094237 0.142998 -0.985226
vn 0.670890 -0.095995 -0.735317
vn -0.457355 0.207808 -0.864663
vn -0.377764 0.248323 -0.891981
vn -0.300252 0.495546 -0.815036
vn -0.545464 0.330131 -0.770378
vn 0.134292 0.255842 -0.957346
vn 0.741818 0.030361 -0.669913
vn 0.603740 0.285049 -0.744476
vn 0.067982 -0.042116 -0.996797
vn -0.444467 0.320213 -0.836608
vn 0.657716 0.063580 -0.750578
vn 0.752419 0.050809 -0.656722
vn -0.547830 0.353583 -0.758196
vn 0.119945 0.188334 -0.974753
vn -0.568949 0.262867 -0.779229
vn 0.092929 0.217591 -0.971606
vn -0.554187 0.275480 -0.785485
vn 0.119884 0.210010 -0.970321
vn -0.605533 0.312022 -0.732101
vn 0.779177 -0.009437 -0.626733
vn 0.726431 0.018014 -0.687003
vn -0.616266 0.287596 -0.733147
vn 0.117992 0.179366 -0.976681
vn 0.780404 -0.037659 -0.624141
vn 0.734416 -0.040611 -0.677484
vn -0.559784 0.272141 -0.782675
vn 0.115819 0.169318 -0.978732
vn 0.131701 0.243538 -0.960908
vn -0.522714 0.330067 -0.786019
vn -0.535024 0.439908 -0.721270
vn 0.730855 -0.028406 -0.681941
vn 0.723930 0.039784 -0.688725
vn 0.773557 0.135200 -0.619137
vn 0.123675 0.205770 -0.970754
vn -0.506052 0.134867 -0.851894
vn 0.086172 0.036351 -0.995617
vn 0.633131 -0.130386 -0.762984
vn 0.545295 -0.076029 -0.834789
vn 0.697045 -0.202397 -0.687869
vn 0.575523 0.068400 -0.814920
vn 0.132628 0.247921 -0.959659
vn 0.638490 0.237571 -0.732046
vn -0.360024 0.286265 -0.887939
vn -0.353724 0.468651 -0.809472
vn -0.605369 0.100830 -0.789532
vn -0.393754 0.142624 -0.908084
vn 0.519377 0.296153 -0.801586
vn 0.168721 0.426657 -0.888536
vn -0.212201 0.466466 -0.858709
vn 0.363763 -0.304116 0.880449
vn 0.021081 -0.321182 0.946783
vn 0.481702 -0.400832 0.779292
vn -0.148413 -0.247942 0.957339
vn -0.167795 -0.422015 0.890925
vn -0.658270 -0.115894 0.743808
vn 0.396240 -0.049315 0.916822
vn 0.559971 -0.262594 0.785797
vn -0.108322 -0.135035 0.984902
vn -0.727299 0.037157 0.685314
vn -0.507775 0.161189 0.846275
vn -0.589410 -0.092684 0.802499
vn -0.644478 -0.002048 0.764620
vn -0.727841 0.063584 0.682792
vn 0.457700 -0.258685 0.850643
vn -0.123140 -0.203334 0.971335
vn 0.572420 -0.239191 0.784297
vn 0.554364 -0.330677 0.763762
vn -0.150025 -0.173827 0.973281
vn -0.748973 -0.027198 0.662042
vn -0.736731 -0.018616 0.675929
vn -0.123159 -0.181634 0.975623
vn -0.775654 0.037891 0.630020
vn 0.608348 -0.284686 0.740856
vn 0.541578 -0.279781 0.792726
vn -0.785182 0.015453 0.619073
vn -0.125075 -0.212240 0.969180
vn 0.611495 -0.309787 0.728084
vn -0.746915 -0.026699 0.664383
vn -0.129592 -0.233448 0.963695
vn -0.712219 0.041004 0.700758
vn -0.108694 -0.136810 0.984616
vn -0.710786 0.156766 0.685717
vn 0.546033 -0.251988 0.798968
vn 0.597814 -0.147965 0.787861
vn 0.552382 -0.329269 0.765804
vn -0.119404 -0.185871 0.975292
vn -0.699051 -0.176067 0.693057
vn 0.440148 -0.441347 0.781974
vn -0.153623 -0.350002 0.924066
vn -0.603723 -0.195695 0.772801
vn -0.779036 -0.178952 0.600899
vn -0.573065 -0.056960 0.817528
vn -0.110105 -0.143162 0.983556
vn -0.557054 0.141038 0.818413
vn 0.362492 -0.274819 0.890547
vn 0.435145 -0.090017 0.895849
vn 0.523352 -0.482225 0.702540
vn 0.335335 -0.414336 0.846095
vn 0.300312 -0.056822 0.952147
vn -0.066814 0.047257 0.996646
vn -0.431305 0.113538 0.895034
usemtl material
f 1/0/1 2/0/2 3/0/3
f 2/0/2 1/0/1 4/0/4
f 5/0/5 3/0/3 2/0/2
f 3/0/3 5/0/5 6/0/6
f 7/0/7 3/0/3 6/0/6
f 8/0/8 3/0/3 7/0/7
f 3/0/3 8/0/8 9/0/9
f 10/0/10 3/0/3 9/0/9
f 3/0/3 10/0/10 11/0/11
f 1/0/1 3/0/3 11/0/11
f 5/0/5 2/0/2 12/0/12
f 2/0/2 4/0/4 12/0/12
f 9/0/9 8/0/8 13/0/13
f 10/0/10 9/0/9 14/0/14
f 14/0/14 9/0/9 15/0/15
f 16/0/16 9/0/9 13/0/13
f 16/0/16 17/0/17 9/0/9
f 17/0/17 15/0/15 9/0/9
f 17/0/17 16/0/16 18/0/18
f 18/0/18 19/0/19 17/0/17
f 19/0/19 18/0/18 20/0/20
f 20/0/20 21/0/21 19/0/19
f 21/0/21 20/0/20 22/0/22
f 23/0/23 19/0/19 21/0/21
f 19/0/19 23/0/23 24/0/24
f 25/0/25 21/0/21 22/0/22
f 21/0/21 25/0/25 26/0/26
f 21/0/21 27/0/27 23/0/23
f 27/0/27 21/0/21 26/0/26
f 19/0/19 28/0/28 17/0/17
f 28/0/28 19/0/19 24/0/24
f 15/0/15 17/0/17 28/0/28
f 29/0/29 26/0/26 25/0/25
f 26/0/26 29/0/29 30/0/30
f 29/0/29 31/0/31 30/0/30
f 31/0/31 29/0/29 32/0/32
f 31/0/31 32/0/32 33/0/33
f 31/0/31 34/0/34 30/0/30
f 26/0/26 34/0/34 27/0/27
f 34/0/34 26/0/26 30/0/30
f 34/0/34 31/0/31 35/0/35
f 36/0/36 35/0/35 31/0/31
f 31/0/31 33/0/33 37/0/37
f 36/0/36 31/0/31 37/0/37
f 37/0/37 33/0/33 38/0/38
f 37/0/37 38/0/38 39/0/39
f 40/0/40 36/0/36 37/0/37
f 39/0/39 40/0/40 37/0/37
f 41/0/41 40/0/40 39/0/39
f 42/0/42 41/0/41 39/0/39
f 39/0/39 43/0/43 42/0/42
f 43/0/43 39/0/39 44/0/44
f 43/0/43 44/0/44 45/0/45
f 39/0/39 46/0/46 44/0/44
f 44/0/44 46/0/46 47/0/47
f 46/0/46 39/0/39 48/0/48
f 39/0/39 49/0/49 48/0/48
f 39/0/39 38/0/38 49/0/49
f 44/0/44 50/0/50 45/0/45
f 51/0/51 50/0/50 44/0/44
f 51/0/51 44/0/44 52/0/52
f 52/0/52 44/0/44 47/0/47
f 53/0/53 54/0/54 55/0/55
f 54/0/54 53/0/53 56/0/56
f 57/0/57 55/0/55 54/0/54
f 58/0/58 57/0/57 54/0/54
f 56/0/56 58/0/58 54/0/54
f 56/0/56 53/0/53 59/0/59
f 60/0/60 56/0/56 59/0/59
f 56/0/56 60/0/60 61/0/61
f 62/0/62 56/0/56 61/0/61
f 56/0/56 62/0/62 63/0/63
f 56/0/56 63/0/63 64/0/64
f 58/0/58 56/0/56 64/0/64
f 62/0/62 61/0/61 65/0/65
f 65/0/65 61/0/61 66/0/66
f 61/0/61 60/0/60 67/0/67
f 68/0/68 66/0/66 61/0/61
f 69/0/69 68/0/68 61/0/61
f 69/0/69 61/0/61 67/0/67
f 68/0/68 69/0/69 70/0/70
f 70/0/70 71/0/71 68/0/68
f 71/0/71 72/0/72 68/0/68
f 66/0/66 68/0/68 72/0/72
f 72/0/72 71/0/71 73/0/73
f 74/0/74 73/0/73 71/0/71
f 73/0/73 74/0/74 75/0/75
f 71/0/71 76/0/76 74/0/74
f 76/0/76 71/0/71 77/0/77
f 71/0/71 70/0/70 77/0/77
f 74/0/74 78/0/78 75/0/75
f 78/0/78 74/0/74 79/0/79
f 80/0/80 74/0/74 76/0/76
f 74/0/74 80/0/80 79/0/79
f 79/0/79 81/0/81 78/0/78
f 81/0/81 79/0/79 82/0/82
f 82/0/82 83/0/83 81/0/81
f 83/0/83 82/0/82 84/0/84
f 85/0/85 83/0/83 84/0/84
f 82/0/82 86/0/86 84/0/84
f 84/0/84 86/0/86 87/0/87
f 86/0/86 82/0/82 88/0/88
f 88/0/88 79/0/79 80/0/80
f 79/0/79 88/0/88 82/0/82
f 85/0/85 84/0/84 89/0/89
f 84/0/84 87/0/87 89/0/89
f 90/0/90 85/0/85 89/0/89
f 89/0/89 87/0/87 91/0/91
f 89/0/89 91/0/91 92/0/92
f 92/0/92 90/0/90 89/0/89
f 93/0/93 90/0/90 92/0/92
f 94/0/94 93/0/93 92/0/92
f 92/0/92 95/0/95 94/0/94
f 95/0/95 92/0/92 96/0/96
f 95/0/95 96/0/96 97/0/97
f 92/0/92 98/0/98 96/0/96
f 96/0/96 98/0/98 99/0/99
f 98/0/98 92/0/92 100/0/100
f 92/0/92 101/0/101 100/0/100
f 92/0/92 91/0/91 101/0/101
f 102/0/102 96/0/96 99/0/99
f 103/0/103 96/0/96 102/0/102
f 103/0/103 104/0/104 96/0/96
f 96/0/96 104/0/104 97/0/97
