# 
# Wavefront OBJ file
# Created with Kaydara FBX
# 
mtllib pasted__boss_cross_t6_w40.mtl

g pasted__Boss_Cross_T6_W40
v 0.248424 0.508758 -0.093017
v 0.016625 0.053529 -0.024661
v 0.150405 0.491657 -0.137676
v 0.022760 0.027166 -0.005205
v -0.003869 0.035119 -0.005893
v 0.075807 0.560315 -0.097476
v 0.117009 0.580022 -0.101872
v 0.148556 0.629821 -0.111158
v 0.197903 0.649328 -0.153368
v 0.226418 0.606565 -0.109146
v 0.225028 0.547758 -0.099081
v 0.000000 0.000000 0.000000
v 0.148115 0.673167 -0.118540
v 0.250895 0.642469 -0.115885
v 0.249470 0.699123 -0.125513
v 0.180814 0.719630 -0.127287
v 0.254940 0.838352 -0.175794
v 0.228924 0.852092 -0.151089
v 0.266514 0.875664 -0.192395
v 0.226983 0.892944 -0.158008
v 0.278938 0.917479 -0.189894
v 0.254743 0.927865 -0.164662
v 0.303639 0.913261 -0.163398
v 0.307364 0.868936 -0.155932
v 0.535823 1.853190 -0.329551
v 0.559681 1.843161 -0.354836
v 0.583904 1.838829 -0.328309
v 0.283025 0.835934 -0.149691
v 0.530181 1.883981 -0.334662
v 0.567914 1.869496 -0.369019
v 0.608109 2.002296 -0.389562
v 0.570827 2.015550 -0.358124
v 0.588553 2.033804 -0.361682
v 0.605735 1.861415 -0.332710
v 0.645017 1.993391 -0.356207
v 0.640388 2.018323 -0.360343
v 0.620776 2.044792 -0.388582
v 0.599885 2.074099 -0.368840
v 0.636891 2.097432 -0.403745
v 0.653349 2.058131 -0.367459
v 0.679321 2.073861 -0.370794
v 0.670229 2.097051 -0.374522
v 0.724516 2.143652 -0.383833
v 0.658281 2.167478 -0.421879
v 0.711747 2.187603 -0.391009
v 0.588107 2.184395 -0.387358
v 0.623201 2.214050 -0.393297
v 0.607457 2.115800 -0.376143
v 0.586977 2.101442 -0.373180
v 0.713872 2.259109 -0.403260
v 0.698352 2.302642 -0.410295
v 0.661199 2.274841 -0.404620
v 0.248424 0.508758 -0.093017
v 0.017362 0.058536 0.004693
v 0.022760 0.027166 -0.005205
v 0.152845 0.508234 -0.040489
v 0.000000 0.000000 0.000000
v -0.003869 0.035119 -0.005893
v 0.225028 0.547758 -0.099081
v 0.226418 0.606565 -0.109146
v 0.199739 0.661799 -0.080254
v 0.148556 0.629821 -0.111158
v 0.117009 0.580022 -0.101872
v 0.075807 0.560315 -0.097476
v 0.148115 0.673167 -0.118540
v 0.180814 0.719630 -0.127287
v 0.250895 0.642469 -0.115885
v 0.256228 0.847097 -0.124527
v 0.249470 0.699123 -0.125513
v 0.283025 0.835934 -0.149691
v 0.268286 0.887703 -0.121809
v 0.228924 0.852092 -0.151089
v 0.226983 0.892944 -0.158008
v 0.280226 0.926223 -0.138626
v 0.254743 0.927865 -0.164662
v 0.303639 0.913261 -0.163398
v 0.307364 0.868936 -0.155932
v 0.535823 1.853190 -0.329551
v 0.560969 1.851905 -0.303568
v 0.583904 1.838829 -0.328309
v 0.530181 1.883981 -0.334662
v 0.569664 1.881382 -0.299330
v 0.570827 2.015550 -0.358124
v 0.609707 2.013150 -0.325929
v 0.588553 2.033804 -0.361682
v 0.645017 1.993391 -0.356207
v 0.640388 2.018323 -0.360343
v 0.605735 1.861415 -0.332710
v 0.621958 2.052815 -0.341548
v 0.599885 2.074099 -0.368840
v 0.653349 2.058131 -0.367459
v 0.638354 2.107369 -0.345485
v 0.586977 2.101442 -0.373180
v 0.607457 2.115800 -0.376143
v 0.588107 2.184395 -0.387358
v 0.660019 2.179287 -0.352647
v 0.623201 2.214050 -0.393297
v 0.724516 2.143652 -0.383833
v 0.711747 2.187603 -0.391009
v 0.670229 2.097051 -0.374522
v 0.679321 2.073861 -0.370794
v 0.713872 2.259109 -0.403260
v 0.698352 2.302642 -0.410295
v 0.661199 2.274841 -0.404620
vt 0.957723 0.382191
vt 0.976790 0.482691
vt 0.976790 0.389456
vt 0.973849 0.487919
vt 0.979731 0.487919
vt 0.995857 0.382191
vt 0.988722 0.376026
vt 0.985391 0.364621
vt 0.976790 0.356772
vt 0.968190 0.364621
vt 0.964858 0.376026
vt 0.976790 0.494459
vt 0.988143 0.356298
vt 0.965437 0.356298
vt 0.969206 0.345470
vt 0.984374 0.345470
vt 0.976790 0.317463
vt 0.982766 0.317192
vt 0.976790 0.309280
vt 0.985669 0.309436
vt 0.976790 0.300844
vt 0.982191 0.301114
vt 0.971389 0.301114
vt 0.967911 0.309436
vt 0.982101 0.106744
vt 0.976790 0.106424
vt 0.971479 0.106744
vt 0.970814 0.317192
vt 0.985136 0.101138
vt 0.976790 0.100563
vt 0.976790 0.072779
vt 0.984985 0.073462
vt 0.982516 0.068927
vt 0.968445 0.101138
vt 0.968595 0.073462
vt 0.971065 0.068927
vt 0.976790 0.064151
vt 0.982696 0.060515
vt 0.976790 0.052894
vt 0.970885 0.060515
vt 0.966590 0.055992
vt 0.969856 0.052049
vt 0.961722 0.039952
vt 0.976790 0.037986
vt 0.967009 0.032222
vt 0.991858 0.039952
vt 0.986571 0.032222
vt 0.983724 0.052049
vt 0.986990 0.055992
vt 0.970972 0.018329
vt 0.976790 0.010838
vt 0.982608 0.018329
vt 0.995857 0.382191
vt 0.976790 0.482691
vt 0.979731 0.487919
vt 0.976790 0.389456
vt 0.976790 0.494459
vt 0.973849 0.487919
vt 0.988722 0.376026
vt 0.985391 0.364621
vt 0.976790 0.356772
vt 0.968190 0.364621
vt 0.964858 0.376026
vt 0.957723 0.382191
vt 0.965437 0.356298
vt 0.969206 0.345470
vt 0.988143 0.356298
vt 0.976790 0.317463
vt 0.984374 0.345470
vt 0.982766 0.317192
vt 0.976790 0.309280
vt 0.970814 0.317192
vt 0.967911 0.309436
vt 0.976790 0.300844
vt 0.971389 0.301114
vt 0.982191 0.301114
vt 0.985669 0.309436
vt 0.971479 0.106744
vt 0.976790 0.106424
vt 0.982101 0.106744
vt 0.968445 0.101138
vt 0.976790 0.100563
vt 0.968595 0.073462
vt 0.976790 0.072779
vt 0.971065 0.068927
vt 0.984985 0.073462
vt 0.982516 0.068927
vt 0.985136 0.101138
vt 0.976790 0.064151
vt 0.970884 0.060515
vt 0.982696 0.060515
vt 0.976790 0.052894
vt 0.966590 0.055992
vt 0.969856 0.052049
vt 0.961722 0.039952
vt 0.976790 0.037986
vt 0.967009 0.032222
vt 0.991858 0.039952
vt 0.986571 0.032222
vt 0.983724 0.052049
vt 0.986990 0.055992
vt 0.982608 0.018329
vt 0.976790 0.010838
vt 0.970972 0.018329
vn 0.439780 -0.308962 -0.843289
vn 0.106137 -0.302795 -0.947127
vn -0.056335 -0.218679 -0.974169
vn 0.539596 -0.415026 -0.732523
vn -0.577659 -0.058685 -0.814166
vn -0.501439 -0.038733 -0.864325
vn -0.400064 0.210255 -0.892043
vn -0.643229 0.097272 -0.759470
vn -0.006591 -0.108031 -0.994126
vn 0.626453 -0.281962 -0.726673
vn 0.491611 -0.056068 -0.869008
vn -0.093572 -0.392467 -0.914994
vn -0.554712 0.054463 -0.830258
vn 0.532423 -0.270248 -0.802179
vn 0.640058 -0.259439 -0.723199
vn -0.642428 0.123619 -0.756309
vn -0.026988 -0.175494 -0.984111
vn -0.671257 0.033980 -0.740446
vn -0.051618 -0.144298 -0.988187
vn -0.657056 0.042030 -0.752669
vn -0.025181 -0.153765 -0.987786
vn -0.697283 0.099977 -0.709790
vn 0.668108 -0.307995 -0.677326
vn 0.607931 -0.297772 -0.736037
vn -0.709335 0.077982 -0.700544
vn -0.029676 -0.184309 -0.982420
vn 0.668291 -0.333500 -0.664955
vn 0.614284 -0.349978 -0.707227
vn -0.662315 0.040457 -0.748132
vn -0.032662 -0.194158 -0.980426
vn -0.010326 -0.120483 -0.992662
vn -0.623291 0.089395 -0.776864
vn -0.619494 0.215567 -0.754823
vn 0.610727 -0.339755 -0.715247
vn 0.606321 -0.277867 -0.745093
vn 0.671246 -0.169966 -0.721485
vn -0.021764 -0.158226 -0.987163
vn -0.627407 -0.117131 -0.769831
vn -0.071434 -0.320843 -0.944435
vn 0.496223 -0.452733 -0.740807
vn 0.400982 -0.417833 -0.815248
vn 0.567449 -0.500447 -0.653877
vn 0.441411 -0.279454 -0.852679
vn -0.009001 -0.116058 -0.993202
vn 0.525379 -0.099592 -0.845020
vn -0.481350 -0.003831 -0.876520
vn -0.453244 0.192713 -0.870305
vn -0.717175 -0.116739 -0.687046
vn -0.525202 -0.141185 -0.839184
vn 0.399933 -0.056736 -0.914787
vn 0.047063 0.071431 -0.996335
vn -0.321725 0.158787 -0.933424
vn 0.482951 -0.015791 0.875505
vn 0.154697 0.027210 0.987587
vn 0.578058 -0.153403 0.801446
vn -0.006917 0.116873 0.993123
vn -0.045596 -0.066396 0.996751
vn -0.536743 0.219169 0.814783
vn 0.533848 0.230906 0.813442
vn 0.663474 -0.030511 0.747577
vn 0.042809 0.227463 0.972845
vn -0.606206 0.348729 0.714774
vn -0.357815 0.497219 0.790406
vn -0.458343 0.253961 0.851719
vn -0.513987 0.331047 0.791344
vn -0.605777 0.372538 0.703029
vn 0.573152 0.006348 0.819424
vn 0.022504 0.160665 0.986752
vn 0.676708 -0.010526 0.736177
vn 0.650937 -0.101021 0.752380
vn -0.002153 0.191656 0.981460
vn -0.634608 0.282938 0.719179
vn -0.619881 0.294477 0.727345
vn 0.024278 0.182397 0.982925
vn -0.662635 0.335287 0.669699
vn 0.702872 -0.071745 0.707689
vn 0.645564 -0.042177 0.762541
vn -0.674946 0.311546 0.668870
vn 0.019808 0.151814 0.988211
vn 0.702684 -0.099913 0.704452
vn -0.632170 0.284011 0.720901
vn 0.013399 0.130629 0.991341
vn -0.588697 0.356093 0.725695
vn 0.042277 0.225761 0.973265
vn -0.583697 0.458603 0.670060
vn 0.652355 -0.014568 0.757773
vn 0.707012 0.073085 0.703415
vn 0.649391 -0.098780 0.754012
vn 0.027726 0.177914 0.983655
vn -0.588107 0.149757 0.794798
vn 0.535515 -0.185868 0.823818
vn -0.022605 0.010761 0.999687
vn -0.482473 0.149199 0.863110
vn -0.681795 0.123415 0.721058
vn -0.437978 0.290772 0.850662
vn 0.040416 0.219618 0.974749
vn -0.411844 0.473921 0.778321
vn 0.484794 0.015148 0.874497
vn 0.566787 0.181623 0.803595
vn 0.602823 -0.260256 0.754236
vn 0.443768 -0.127458 0.887031
vn 0.444533 0.246199 0.861264
vn 0.094998 0.397081 0.912854
vn -0.277139 0.461735 0.842612
usemtl material
f 1/0/1 2/0/2 3/0/3
f 2/0/2 1/0/1 4/0/4
f 5/0/5 3/0/3 2/0/2
f 3/0/3 5/0/5 6/0/6
f 7/0/7 3/0/3 6/0/6
f 8/0/8 3/0/3 7/0/7
f 3/0/3 8/0/8 9/0/9
f 10/0/10 3/0/3 9/0/9
f 3/0/3 10/0/10 11/0/11
f 1/0/1 3/0/3 11/0/11
f 5/0/5 2/0/2 12/0/12
f 2/0/2 4/0/4 12/0/12
f 9/0/9 8/0/8 13/0/13
f 10/0/10 9/0/9 14/0/14
f 14/0/14 9/0/9 15/0/15
f 16/0/16 9/0/9 13/0/13
f 16/0/16 17/0/17 9/0/9
f 17/0/17 15/0/15 9/0/9
f 17/0/17 16/0/16 18/0/18
f 18/0/18 19/0/19 17/0/17
f 19/0/19 18/0/18 20/0/20
f 20/0/20 21/0/21 19/0/19
f 21/0/21 20/0/20 22/0/22
f 23/0/23 19/0/19 21/0/21
f 19/0/19 23/0/23 24/0/24
f 25/0/25 21/0/21 22/0/22
f 21/0/21 25/0/25 26/0/26
f 21/0/21 27/0/27 23/0/23
f 27/0/27 21/0/21 26/0/26
f 19/0/19 28/0/28 17/0/17
f 28/0/28 19/0/19 24/0/24
f 15/0/15 17/0/17 28/0/28
f 29/0/29 26/0/26 25/0/25
f 26/0/26 29/0/29 30/0/30
f 29/0/29 31/0/31 30/0/30
f 31/0/31 29/0/29 32/0/32
f 31/0/31 32/0/32 33/0/33
f 31/0/31 34/0/34 30/0/30
f 26/0/26 34/0/34 27/0/27
f 34/0/34 26/0/26 30/0/30
f 34/0/34 31/0/31 35/0/35
f 36/0/36 35/0/35 31/0/31
f 31/0/31 33/0/33 37/0/37
f 36/0/36 31/0/31 37/0/37
f 37/0/37 33/0/33 38/0/38
f 37/0/37 38/0/38 39/0/39
f 40/0/40 36/0/36 37/0/37
f 39/0/39 40/0/40 37/0/37
f 41/0/41 40/0/40 39/0/39
f 42/0/42 41/0/41 39/0/39
f 39/0/39 43/0/43 42/0/42
f 43/0/43 39/0/39 44/0/44
f 43/0/43 44/0/44 45/0/45
f 39/0/39 46/0/46 44/0/44
f 44/0/44 46/0/46 47/0/47
f 46/0/46 39/0/39 48/0/48
f 39/0/39 49/0/49 48/0/48
f 39/0/39 38/0/38 49/0/49
f 44/0/44 50/0/50 45/0/45
f 51/0/51 50/0/50 44/0/44
f 51/0/51 44/0/44 52/0/52
f 52/0/52 44/0/44 47/0/47
f 53/0/53 54/0/54 55/0/55
f 54/0/54 53/0/53 56/0/56
f 57/0/57 55/0/55 54/0/54
f 58/0/58 57/0/57 54/0/54
f 56/0/56 58/0/58 54/0/54
f 56/0/56 53/0/53 59/0/59
f 60/0/60 56/0/56 59/0/59
f 56/0/56 60/0/60 61/0/61
f 62/0/62 56/0/56 61/0/61
f 56/0/56 62/0/62 63/0/63
f 56/0/56 63/0/63 64/0/64
f 58/0/58 56/0/56 64/0/64
f 62/0/62 61/0/61 65/0/65
f 65/0/65 61/0/61 66/0/66
f 61/0/61 60/0/60 67/0/67
f 68/0/68 66/0/66 61/0/61
f 69/0/69 68/0/68 61/0/61
f 69/0/69 61/0/61 67/0/67
f 68/0/68 69/0/69 70/0/70
f 70/0/70 71/0/71 68/0/68
f 71/0/71 72/0/72 68/0/68
f 66/0/66 68/0/68 72/0/72
f 72/0/72 71/0/71 73/0/73
f 74/0/74 73/0/73 71/0/71
f 73/0/73 74/0/74 75/0/75
f 71/0/71 76/0/76 74/0/74
f 76/0/76 71/0/71 77/0/77
f 71/0/71 70/0/70 77/0/77
f 74/0/74 78/0/78 75/0/75
f 78/0/78 74/0/74 79/0/79
f 80/0/80 74/0/74 76/0/76
f 74/0/74 80/0/80 79/0/79
f 79/0/79 81/0/81 78/0/78
f 81/0/81 79/0/79 82/0/82
f 82/0/82 83/0/83 81/0/81
f 83/0/83 82/0/82 84/0/84
f 85/0/85 83/0/83 84/0/84
f 82/0/82 86/0/86 84/0/84
f 84/0/84 86/0/86 87/0/87
f 86/0/86 82/0/82 88/0/88
f 88/0/88 79/0/79 80/0/80
f 79/0/79 88/0/88 82/0/82
f 85/0/85 84/0/84 89/0/89
f 84/0/84 87/0/87 89/0/89
f 90/0/90 85/0/85 89/0/89
f 89/0/89 87/0/87 91/0/91
f 89/0/89 91/0/91 92/0/92
f 92/0/92 90/0/90 89/0/89
f 93/0/93 90/0/90 92/0/92
f 94/0/94 93/0/93 92/0/92
f 92/0/92 95/0/95 94/0/94
f 95/0/95 92/0/92 96/0/96
f 95/0/95 96/0/96 97/0/97
f 92/0/92 98/0/98 96/0/96
f 96/0/96 98/0/98 99/0/99
f 98/0/98 92/0/92 100/0/100
f 92/0/92 101/0/101 100/0/100
f 92/0/92 91/0/91 101/0/101
f 102/0/102 96/0/96 99/0/99
f 103/0/103 96/0/96 102/0/102
f 103/0/103 104/0/104 96/0/96
f 96/0/96 104/0/104 97/0/97
