# 
# Wavefront OBJ file
# Created with Kaydara FBX
# 
mtllib pasted__boss_cross_t6_w64.mtl

g pasted__Boss_Cross_T6_W64
v 0.194817 0.533089 -0.084044
v 0.013485 0.054275 -0.024946
v 0.107814 0.501578 -0.141770
v 0.019744 0.029703 -0.003306
v -0.007232 0.034057 -0.008416
v 0.019943 0.561315 -0.117170
v 0.058561 0.586083 -0.116497
v 0.084745 0.639207 -0.123824
v 0.137246 0.663413 -0.159250
v 0.163625 0.626475 -0.108881
v 0.167992 0.568420 -0.095767
v -0.000000 -0.000000 0.000000
v 0.080083 0.681808 -0.133673
v 0.184206 0.665002 -0.113949
v 0.177279 0.720572 -0.126927
v 0.107726 0.731798 -0.140102
v 0.173184 0.857305 -0.183761
v 0.142145 0.868435 -0.164046
v 0.182478 0.895157 -0.200570
v 0.136250 0.908385 -0.173518
v 0.189080 0.938306 -0.198653
v 0.160159 0.946373 -0.177955
v 0.209694 0.938378 -0.168571
v 0.217683 0.895242 -0.158093
v 0.346478 1.893682 -0.352059
v 0.375033 1.885923 -0.372879
v 0.395188 1.885820 -0.342832
v 0.196952 0.859589 -0.153664
v 0.337923 1.923249 -0.359718
v 0.382039 1.912554 -0.387169
v 0.408152 2.048609 -0.409095
v 0.365087 2.058032 -0.384388
v 0.380747 2.078309 -0.386307
v 0.414465 1.910895 -0.345218
v 0.440245 2.045901 -0.370151
v 0.433259 2.069834 -0.376361
v 0.415144 2.092407 -0.408686
v 0.387967 2.119443 -0.394002
v 0.426764 2.146095 -0.424279
v 0.442130 2.110700 -0.383742
v 0.466150 2.129569 -0.384064
v 0.454943 2.151205 -0.390435
v 0.503813 2.204147 -0.394211
v 0.441855 2.217605 -0.443022
v 0.486962 2.245736 -0.405731
v 0.365621 2.226452 -0.420389
v 0.397258 2.260214 -0.422723
v 0.391350 2.161470 -0.402482
v 0.372600 2.144668 -0.401785
v 0.482080 2.316385 -0.421622
v 0.462563 2.357203 -0.433389
v 0.428717 2.324998 -0.431730
v 0.194817 0.533089 -0.084044
v 0.009026 0.060445 0.003853
v 0.019744 0.029703 -0.003306
v 0.093049 0.522006 -0.046424
v -0.000000 -0.000000 0.000000
v -0.007232 0.034057 -0.008416
v 0.167992 0.568420 -0.095767
v 0.163625 0.626475 -0.108881
v 0.126139 0.678780 -0.087523
v 0.084745 0.639207 -0.123824
v 0.058561 0.586083 -0.116497
v 0.019943 0.561315 -0.117170
v 0.080083 0.681808 -0.133673
v 0.107726 0.731798 -0.140102
v 0.184206 0.665002 -0.113949
v 0.165395 0.868081 -0.133464
v 0.177279 0.720572 -0.126927
v 0.196952 0.859589 -0.153664
v 0.171754 0.909993 -0.131320
v 0.142145 0.868435 -0.164046
v 0.136250 0.908385 -0.173518
v 0.181290 0.949082 -0.148358
v 0.160159 0.946373 -0.177955
v 0.209694 0.938378 -0.168571
v 0.217683 0.895242 -0.158093
v 0.346478 1.893682 -0.352059
v 0.367245 1.896698 -0.322584
v 0.395188 1.885820 -0.342832
v 0.337923 1.923249 -0.359718
v 0.371451 1.927202 -0.318800
v 0.365087 2.058032 -0.384388
v 0.398485 2.061983 -0.346668
v 0.380747 2.078309 -0.386307
v 0.440245 2.045901 -0.370151
v 0.433259 2.069834 -0.376361
v 0.414465 1.910895 -0.345218
v 0.407998 2.102293 -0.362541
v 0.387967 2.119443 -0.394002
v 0.442130 2.110700 -0.383742
v 0.417913 2.158340 -0.367124
v 0.372600 2.144668 -0.401785
v 0.391350 2.161470 -0.402482
v 0.365621 2.226452 -0.420389
v 0.431338 2.232157 -0.375101
v 0.397258 2.260214 -0.422723
v 0.503813 2.204147 -0.394211
v 0.486962 2.245736 -0.405731
v 0.454943 2.151205 -0.390435
v 0.466150 2.129569 -0.384064
v 0.482080 2.316385 -0.421622
v 0.462563 2.357203 -0.433389
v 0.428717 2.324998 -0.431730
vt 0.957723 0.382191
vt 0.976790 0.482691
vt 0.976790 0.389456
vt 0.973849 0.487919
vt 0.979731 0.487919
vt 0.995857 0.382191
vt 0.988722 0.376026
vt 0.985391 0.364621
vt 0.976790 0.356772
vt 0.968190 0.364621
vt 0.964858 0.376026
vt 0.976790 0.494459
vt 0.988143 0.356298
vt 0.965437 0.356298
vt 0.969206 0.345470
vt 0.984374 0.345470
vt 0.976790 0.317463
vt 0.982766 0.317192
vt 0.976790 0.309280
vt 0.985669 0.309436
vt 0.976790 0.300844
vt 0.982191 0.301114
vt 0.971389 0.301114
vt 0.967911 0.309436
vt 0.982101 0.106744
vt 0.976790 0.106424
vt 0.971479 0.106744
vt 0.970814 0.317192
vt 0.985136 0.101138
vt 0.976790 0.100563
vt 0.976790 0.072779
vt 0.984985 0.073462
vt 0.982516 0.068927
vt 0.968445 0.101138
vt 0.968595 0.073462
vt 0.971065 0.068927
vt 0.976790 0.064151
vt 0.982696 0.060515
vt 0.976790 0.052894
vt 0.970885 0.060515
vt 0.966590 0.055992
vt 0.969856 0.052049
vt 0.961722 0.039952
vt 0.976790 0.037986
vt 0.967009 0.032222
vt 0.991858 0.039952
vt 0.986571 0.032222
vt 0.983724 0.052049
vt 0.986990 0.055992
vt 0.970972 0.018329
vt 0.976790 0.010838
vt 0.982608 0.018329
vt 0.995857 0.382191
vt 0.976790 0.482691
vt 0.979731 0.487919
vt 0.976790 0.389456
vt 0.976790 0.494459
vt 0.973849 0.487919
vt 0.988722 0.376026
vt 0.985391 0.364621
vt 0.976790 0.356772
vt 0.968190 0.364621
vt 0.964858 0.376026
vt 0.957723 0.382191
vt 0.965437 0.356298
vt 0.969206 0.345470
vt 0.988143 0.356298
vt 0.976790 0.317463
vt 0.984374 0.345470
vt 0.982766 0.317192
vt 0.976790 0.309280
vt 0.970814 0.317192
vt 0.967911 0.309436
vt 0.976790 0.300844
vt 0.971389 0.301114
vt 0.982191 0.301114
vt 0.985669 0.309436
vt 0.971479 0.106744
vt 0.976790 0.106424
vt 0.982101 0.106744
vt 0.968445 0.101138
vt 0.976790 0.100563
vt 0.968595 0.073462
vt 0.976790 0.072779
vt 0.971065 0.068927
vt 0.984985 0.073462
vt 0.982516 0.068927
vt 0.985136 0.101138
vt 0.976790 0.064151
vt 0.970884 0.060515
vt 0.982696 0.060515
vt 0.976790 0.052894
vt 0.966590 0.055992
vt 0.969856 0.052049
vt 0.961722 0.039952
vt 0.976790 0.037986
vt 0.967009 0.032222
vt 0.991858 0.039952
vt 0.986571 0.032222
vt 0.983724 0.052049
vt 0.986990 0.055992
vt 0.982608 0.018329
vt 0.976790 0.010838
vt 0.970972 0.018329
vn 0.600338 -0.280261 -0.749031
vn 0.288843 -0.321925 -0.901629
vn 0.123267 -0.260969 -0.957445
vn 0.694172 -0.368002 -0.618628
vn -0.432358 -0.164900 -0.886496
vn -0.352339 -0.137026 -0.925787
vn -0.279529 0.121884 -0.952370
vn -0.524455 -0.016948 -0.851270
vn 0.161410 -0.145580 -0.976091
vn 0.761837 -0.224563 -0.607599
vn 0.623768 -0.023910 -0.781244
vn 0.099030 -0.435794 -0.894582
vn -0.421366 -0.050409 -0.905489
vn 0.679968 -0.228155 -0.696842
vn 0.771834 -0.200338 -0.603438
vn -0.527401 0.009364 -0.849565
vn 0.148166 -0.214699 -0.965376
vn -0.547070 -0.082601 -0.833001
vn 0.120839 -0.187207 -0.974860
vn -0.532205 -0.073233 -0.843442
vn 0.147819 -0.193092 -0.969982
vn -0.585478 -0.019496 -0.810454
vn 0.798192 -0.243021 -0.551207
vn 0.747097 -0.243064 -0.618681
vn -0.595982 -0.042524 -0.801871
vn 0.146415 -0.223739 -0.963589
vn 0.799608 -0.267783 -0.537512
vn 0.755294 -0.292822 -0.586332
vn -0.537868 -0.075302 -0.839659
vn 0.144397 -0.233815 -0.961499
vn 0.159044 -0.158349 -0.974490
vn -0.501258 -0.022775 -0.864998
vn -0.516572 0.103522 -0.849963
vn 0.751795 -0.283459 -0.595361
vn 0.744451 -0.223856 -0.629032
vn 0.791011 -0.107533 -0.602278
vn 0.151664 -0.197047 -0.968592
vn -0.480746 -0.227621 -0.846801
vn 0.116542 -0.363029 -0.924461
vn 0.657575 -0.411381 -0.631158
vn 0.571522 -0.392110 -0.720841
vn 0.719814 -0.445979 -0.531950
vn 0.599743 -0.251173 -0.759750
vn 0.159881 -0.153814 -0.975079
vn 0.658547 -0.061674 -0.750008
vn -0.335082 -0.100281 -0.936837
vn -0.332884 0.098349 -0.937825
vn -0.581574 -0.235945 -0.778525
vn -0.366863 -0.240640 -0.898612
vn 0.541109 -0.038354 -0.840077
vn 0.192051 0.039169 -0.980603
vn -0.189980 0.079651 -0.978552
vn 0.339247 0.081006 0.937203
vn -0.005243 0.084734 0.996390
vn 0.461076 -0.045618 0.886187
vn -0.175574 0.152528 0.972579
vn -0.191204 -0.033961 0.980963
vn -0.679832 0.177490 0.711566
vn 0.368189 0.329705 0.869328
vn 0.537870 0.085298 0.838702
vn -0.137412 0.267847 0.953612
vn -0.748418 0.292911 0.595041
vn -0.535141 0.475511 0.698222
vn -0.613022 0.223665 0.757745
vn -0.667733 0.290425 0.685410
vn -0.749110 0.316097 0.582166
vn 0.433590 0.112677 0.894038
vn -0.151181 0.199530 0.968159
vn 0.550142 0.106394 0.828265
vn 0.533581 0.013965 0.845633
vn -0.178369 0.226788 0.957472
vn -0.768778 0.224180 0.598935
vn -0.757032 0.237863 0.608543
vn -0.151510 0.221147 0.963400
vn -0.795040 0.270475 0.542913
vn 0.587791 0.048119 0.807580
vn 0.519434 0.071939 0.851477
vn -0.804036 0.245308 0.541618
vn -0.152970 0.190462 0.969703
vn 0.591570 0.020061 0.806004
vn -0.766790 0.225603 0.600947
vn -0.157121 0.168741 0.973057
vn -0.733866 0.302931 0.608008
vn -0.137759 0.266093 0.954053
vn -0.733047 0.403012 0.547927
vn 0.523419 0.100004 0.846186
vn 0.574573 0.191958 0.795624
vn 0.531482 0.016059 0.846917
vn -0.147704 0.217168 0.964895
vn -0.718455 0.101220 0.688169
vn 0.419899 -0.082509 0.903813
vn -0.178820 0.045599 0.982825
vn -0.625473 0.117131 0.771404
vn -0.795552 0.060046 0.602902
vn -0.597482 0.262742 0.757616
vn -0.139072 0.259817 0.955591
vn -0.583357 0.444858 0.679556
vn 0.337366 0.111867 0.934703
vn 0.408102 0.284829 0.867367
vn 0.505855 -0.150002 0.849477
vn 0.312867 -0.034335 0.949176
vn 0.271265 0.334957 0.902341
vn -0.097984 0.440459 0.892410
vn -0.459755 0.452952 0.763845
usemtl material
f 1/0/1 2/0/2 3/0/3
f 2/0/2 1/0/1 4/0/4
f 5/0/5 3/0/3 2/0/2
f 3/0/3 5/0/5 6/0/6
f 7/0/7 3/0/3 6/0/6
f 8/0/8 3/0/3 7/0/7
f 3/0/3 8/0/8 9/0/9
f 10/0/10 3/0/3 9/0/9
f 3/0/3 10/0/10 11/0/11
f 1/0/1 3/0/3 11/0/11
f 5/0/5 2/0/2 12/0/12
f 2/0/2 4/0/4 12/0/12
f 9/0/9 8/0/8 13/0/13
f 10/0/10 9/0/9 14/0/14
f 14/0/14 9/0/9 15/0/15
f 16/0/16 9/0/9 13/0/13
f 16/0/16 17/0/17 9/0/9
f 17/0/17 15/0/15 9/0/9
f 17/0/17 16/0/16 18/0/18
f 18/0/18 19/0/19 17/0/17
f 19/0/19 18/0/18 20/0/20
f 20/0/20 21/0/21 19/0/19
f 21/0/21 20/0/20 22/0/22
f 23/0/23 19/0/19 21/0/21
f 19/0/19 23/0/23 24/0/24
f 25/0/25 21/0/21 22/0/22
f 21/0/21 25/0/25 26/0/26
f 21/0/21 27/0/27 23/0/23
f 27/0/27 21/0/21 26/0/26
f 19/0/19 28/0/28 17/0/17
f 28/0/28 19/0/19 24/0/24
f 15/0/15 17/0/17 28/0/28
f 29/0/29 26/0/26 25/0/25
f 26/0/26 29/0/29 30/0/30
f 29/0/29 31/0/31 30/0/30
f 31/0/31 29/0/29 32/0/32
f 31/0/31 32/0/32 33/0/33
f 31/0/31 34/0/34 30/0/30
f 26/0/26 34/0/34 27/0/27
f 34/0/34 26/0/26 30/0/30
f 34/0/34 31/0/31 35/0/35
f 36/0/36 35/0/35 31/0/31
f 31/0/31 33/0/33 37/0/37
f 36/0/36 31/0/31 37/0/37
f 37/0/37 33/0/33 38/0/38
f 37/0/37 38/0/38 39/0/39
f 40/0/40 36/0/36 37/0/37
f 39/0/39 40/0/40 37/0/37
f 41/0/41 40/0/40 39/0/39
f 42/0/42 41/0/41 39/0/39
f 39/0/39 43/0/43 42/0/42
f 43/0/43 39/0/39 44/0/44
f 43/0/43 44/0/44 45/0/45
f 39/0/39 46/0/46 44/0/44
f 44/0/44 46/0/46 47/0/47
f 46/0/46 39/0/39 48/0/48
f 39/0/39 49/0/49 48/0/48
f 39/0/39 38/0/38 49/0/49
f 44/0/44 50/0/50 45/0/45
f 51/0/51 50/0/50 44/0/44
f 51/0/51 44/0/44 52/0/52
f 52/0/52 44/0/44 47/0/47
f 53/0/53 54/0/54 55/0/55
f 54/0/54 53/0/53 56/0/56
f 57/0/57 55/0/55 54/0/54
f 58/0/58 57/0/57 54/0/54
f 56/0/56 58/0/58 54/0/54
f 56/0/56 53/0/53 59/0/59
f 60/0/60 56/0/56 59/0/59
f 56/0/56 60/0/60 61/0/61
f 62/0/62 56/0/56 61/0/61
f 56/0/56 62/0/62 63/0/63
f 56/0/56 63/0/63 64/0/64
f 58/0/58 56/0/56 64/0/64
f 62/0/62 61/0/61 65/0/65
f 65/0/65 61/0/61 66/0/66
f 61/0/61 60/0/60 67/0/67
f 68/0/68 66/0/66 61/0/61
f 69/0/69 68/0/68 61/0/61
f 69/0/69 61/0/61 67/0/67
f 68/0/68 69/0/69 70/0/70
f 70/0/70 71/0/71 68/0/68
f 71/0/71 72/0/72 68/0/68
f 66/0/66 68/0/68 72/0/72
f 72/0/72 71/0/71 73/0/73
f 74/0/74 73/0/73 71/0/71
f 73/0/73 74/0/74 75/0/75
f 71/0/71 76/0/76 74/0/74
f 76/0/76 71/0/71 77/0/77
f 71/0/71 70/0/70 77/0/77
f 74/0/74 78/0/78 75/0/75
f 78/0/78 74/0/74 79/0/79
f 80/0/80 74/0/74 76/0/76
f 74/0/74 80/0/80 79/0/79
f 79/0/79 81/0/81 78/0/78
f 81/0/81 79/0/79 82/0/82
f 82/0/82 83/0/83 81/0/81
f 83/0/83 82/0/82 84/0/84
f 85/0/85 83/0/83 84/0/84
f 82/0/82 86/0/86 84/0/84
f 84/0/84 86/0/86 87/0/87
f 86/0/86 82/0/82 88/0/88
f 88/0/88 79/0/79 80/0/80
f 79/0/79 88/0/88 82/0/82
f 85/0/85 84/0/84 89/0/89
f 84/0/84 87/0/87 89/0/89
f 90/0/90 85/0/85 89/0/89
f 89/0/89 87/0/87 91/0/91
f 89/0/89 91/0/91 92/0/92
f 92/0/92 90/0/90 89/0/89
f 93/0/93 90/0/90 92/0/92
f 94/0/94 93/0/93 92/0/92
f 92/0/92 95/0/95 94/0/94
f 95/0/95 92/0/92 96/0/96
f 95/0/95 96/0/96 97/0/97
f 92/0/92 98/0/98 96/0/96
f 96/0/96 98/0/98 99/0/99
f 98/0/98 92/0/92 100/0/100
f 92/0/92 101/0/101 100/0/100
f 92/0/92 91/0/91 101/0/101
f 102/0/102 96/0/96 99/0/99
f 103/0/103 96/0/96 102/0/102
f 103/0/103 104/0/104 96/0/96
f 96/0/96 104/0/104 97/0/97
