# 
# Wavefront OBJ file
# Created with Kaydara FBX
# 
mtllib pcylinder1 #218810.mtl

g pCylinder1
v -0.809017 0.000000 -0.587785
v -0.809017 2.000000 -0.587785
v -0.309017 2.000000 -0.951057
v -0.309017 0.000000 -0.951057
v -0.309017 0.000000 -0.951057
v -0.309017 2.000000 -0.951057
v 0.309017 2.000000 -0.951057
v 0.309017 0.000000 -0.951057
v 0.309017 0.000000 -0.951057
v 0.309017 2.000000 -0.951057
v 0.809017 2.000000 -0.587785
v 0.809017 0.000000 -0.587785
v 0.809017 0.000000 -0.587785
v 0.809017 2.000000 -0.587785
v 1.000000 2.000000 0.000000
v 1.000000 0.000000 0.000000
v 1.000000 0.000000 0.000000
v 1.000000 2.000000 0.000000
v 0.809017 2.000000 0.587785
v 0.809017 0.000000 0.587785
v 0.809017 0.000000 0.587785
v 0.809017 2.000000 0.587785
v 0.309017 2.000000 0.951057
v 0.309017 0.000000 0.951057
v 0.309017 0.000000 0.951057
v 0.309017 2.000000 0.951057
v -0.309017 2.000000 0.951057
v -0.309017 0.000000 0.951057
v -0.309017 0.000000 0.951057
v -0.309017 2.000000 0.951057
v -0.809017 2.000000 0.587785
v -0.809017 0.000000 0.587785
v -0.809017 0.000000 0.587785
v -0.809017 2.000000 0.587785
v -1.000000 2.000000 0.000000
v -1.000000 0.000000 0.000000
v -1.000000 0.000000 0.000000
v -1.000000 2.000000 0.000000
v -0.809017 2.000000 -0.587785
v -0.809017 0.000000 -0.587785
v -0.309017 0.000000 -0.951057
v 0.000000 0.000000 0.000000
v -0.809017 0.000000 -0.587785
v 0.309017 0.000000 -0.951057
v 0.809017 0.000000 -0.587785
v 1.000000 0.000000 0.000000
v 0.809017 0.000000 0.587785
v 0.309017 0.000000 0.951057
v -0.309017 0.000000 0.951057
v -0.809017 0.000000 0.587785
v -1.000000 0.000000 0.000000
v -0.809017 2.000000 -0.587785
v 0.000000 2.000000 0.000000
v -0.309017 2.000000 -0.951057
v 0.309017 2.000000 -0.951057
v 0.809017 2.000000 -0.587785
v 1.000000 2.000000 0.000000
v 0.809017 2.000000 0.587785
v 0.309017 2.000000 0.951057
v -0.309017 2.000000 0.951057
v -0.809017 2.000000 0.587785
v -1.000000 2.000000 0.000000
vt 0.375000 0.312500
vt 0.375000 0.688440
vt 0.400000 0.688440
vt 0.400000 0.312500
vt 0.400000 0.312500
vt 0.400000 0.688440
vt 0.425000 0.688440
vt 0.425000 0.312500
vt 0.425000 0.312500
vt 0.425000 0.688440
vt 0.450000 0.688440
vt 0.450000 0.312500
vt 0.450000 0.312500
vt 0.450000 0.688440
vt 0.475000 0.688440
vt 0.475000 0.312500
vt 0.475000 0.312500
vt 0.475000 0.688440
vt 0.500000 0.688440
vt 0.500000 0.312500
vt 0.500000 0.312500
vt 0.500000 0.688440
vt 0.525000 0.688440
vt 0.525000 0.312500
vt 0.525000 0.312500
vt 0.525000 0.688440
vt 0.550000 0.688440
vt 0.550000 0.312500
vt 0.550000 0.312500
vt 0.550000 0.688440
vt 0.575000 0.688440
vt 0.575000 0.312500
vt 0.575000 0.312500
vt 0.575000 0.688440
vt 0.600000 0.688440
vt 0.600000 0.312500
vt 0.600000 0.312500
vt 0.600000 0.688440
vt 0.625000 0.688440
vt 0.625000 0.312500
vt 0.548284 0.007647
vt 0.500000 0.150000
vt 0.626409 0.064409
vt 0.451716 0.007647
vt 0.373591 0.064409
vt 0.343750 0.156250
vt 0.373591 0.248091
vt 0.451716 0.304853
vt 0.548284 0.304853
vt 0.626409 0.248091
vt 0.656250 0.156250
vt 0.626409 0.935591
vt 0.500000 0.837500
vt 0.548284 0.992353
vt 0.451716 0.992353
vt 0.373591 0.935591
vt 0.343750 0.843750
vt 0.373591 0.751909
vt 0.451716 0.695147
vt 0.548284 0.695147
vt 0.626409 0.751909
vt 0.656250 0.843750
vn -0.587785 0.000000 -0.809017
vn -0.587785 0.000000 -0.809017
vn -0.587785 0.000000 -0.809017
vn -0.587785 0.000000 -0.809017
vn 0.000000 0.000000 -1.000000
vn 0.000000 0.000000 -1.000000
vn 0.000000 0.000000 -1.000000
vn 0.000000 0.000000 -1.000000
vn 0.587785 0.000000 -0.809017
vn 0.587785 0.000000 -0.809017
vn 0.587785 0.000000 -0.809017
vn 0.587785 0.000000 -0.809017
vn 0.951057 0.000000 -0.309017
vn 0.951057 0.000000 -0.309017
vn 0.951057 0.000000 -0.309017
vn 0.951057 0.000000 -0.309017
vn 0.951057 0.000000 0.309017
vn 0.951057 0.000000 0.309017
vn 0.951057 0.000000 0.309017
vn 0.951057 0.000000 0.309017
vn 0.587785 0.000000 0.809017
vn 0.587785 0.000000 0.809017
vn 0.587785 0.000000 0.809017
vn 0.587785 0.000000 0.809017
vn 0.000000 0.000000 1.000000
vn 0.000000 0.000000 1.000000
vn 0.000000 0.000000 1.000000
vn 0.000000 0.000000 1.000000
vn -0.587785 0.000000 0.809017
vn -0.587785 0.000000 0.809017
vn -0.587785 0.000000 0.809017
vn -0.587785 0.000000 0.809017
vn -0.951057 0.000000 0.309017
vn -0.951057 0.000000 0.309017
vn -0.951057 0.000000 0.309017
vn -0.951057 0.000000 0.309017
vn -0.951057 0.000000 -0.309017
vn -0.951057 0.000000 -0.309017
vn -0.951057 0.000000 -0.309017
vn -0.951057 0.000000 -0.309017
vn 0.000000 -1.000000 0.000000
vn 0.000000 -1.000000 0.000000
vn 0.000000 -1.000000 0.000000
vn 0.000000 -1.000000 0.000000
vn 0.000000 -1.000000 0.000000
vn 0.000000 -1.000000 0.000000
vn 0.000000 -1.000000 0.000000
vn 0.000000 -1.000000 0.000000
vn 0.000000 -1.000000 0.000000
vn 0.000000 -1.000000 0.000000
vn 0.000000 -1.000000 0.000000
vn 0.000000 1.000000 0.000000
vn 0.000000 1.000000 0.000000
vn 0.000000 1.000000 0.000000
vn 0.000000 1.000000 0.000000
vn 0.000000 1.000000 0.000000
vn 0.000000 1.000000 0.000000
vn 0.000000 1.000000 0.000000
vn 0.000000 1.000000 0.000000
vn 0.000000 1.000000 0.000000
vn 0.000000 1.000000 0.000000
vn 0.000000 1.000000 0.000000
usemtl material
f 1/0/1 2/0/2 3/0/3
f 1/0/1 3/0/3 4/0/4
f 5/0/5 6/0/6 7/0/7
f 5/0/5 7/0/7 8/0/8
f 9/0/9 10/0/10 11/0/11
f 9/0/9 11/0/11 12/0/12
f 13/0/13 14/0/14 15/0/15
f 13/0/13 15/0/15 16/0/16
f 17/0/17 18/0/18 19/0/19
f 17/0/17 19/0/19 20/0/20
f 21/0/21 22/0/22 23/0/23
f 21/0/21 23/0/23 24/0/24
f 25/0/25 26/0/26 27/0/27
f 25/0/25 27/0/27 28/0/28
f 29/0/29 30/0/30 31/0/31
f 29/0/29 31/0/31 32/0/32
f 33/0/33 34/0/34 35/0/35
f 33/0/33 35/0/35 36/0/36
f 37/0/37 38/0/38 39/0/39
f 37/0/37 39/0/39 40/0/40
f 41/0/41 42/0/42 43/0/43
f 44/0/44 42/0/42 41/0/41
f 45/0/45 42/0/42 44/0/44
f 46/0/46 42/0/42 45/0/45
f 47/0/47 42/0/42 46/0/46
f 48/0/48 42/0/42 47/0/47
f 49/0/49 42/0/42 48/0/48
f 50/0/50 42/0/42 49/0/49
f 51/0/51 42/0/42 50/0/50
f 43/0/43 42/0/42 51/0/51
f 52/0/52 53/0/53 54/0/54
f 54/0/54 53/0/53 55/0/55
f 55/0/55 53/0/53 56/0/56
f 56/0/56 53/0/53 57/0/57
f 57/0/57 53/0/53 58/0/58
f 58/0/58 53/0/53 59/0/59
f 59/0/59 53/0/53 60/0/60
f 60/0/60 53/0/53 61/0/61
f 61/0/61 53/0/53 62/0/62
f 62/0/62 53/0/53 52/0/52
