# 
# Wavefront OBJ file
# Created with Kaydara FBX
# 
mtllib pcylinder1 #222830.mtl

g pCylinder1
v -0.100019 0.198361 -0.173238
v -0.100019 0.337205 -0.173238
v 0.100019 0.337205 -0.173238
v 0.100019 0.198361 -0.173238
v 0.100019 0.198361 -0.173238
v 0.100019 0.337205 -0.173238
v 0.200038 0.337205 -0.000000
v 0.200038 0.198361 -0.000000
v 0.200038 0.198361 -0.000000
v 0.200038 0.337205 -0.000000
v 0.100019 0.337205 0.173238
v 0.100019 0.198361 0.173238
v 0.100019 0.198361 0.173238
v 0.100019 0.337205 0.173238
v -0.100019 0.337205 0.173238
v -0.100019 0.198361 0.173238
v -0.100019 0.198361 0.173238
v -0.100019 0.337205 0.173238
v -0.200038 0.337205 0.000000
v -0.200038 0.198361 0.000000
v -0.200038 0.198361 0.000000
v -0.200038 0.337205 0.000000
v -0.100019 0.337205 -0.173238
v -0.100019 0.198361 -0.173238
v 0.000000 0.535566 0.000000
v 0.100019 0.337205 -0.173238
v -0.100019 0.337205 -0.173238
v 0.000000 0.535566 0.000000
v 0.200038 0.337205 -0.000000
v 0.100019 0.337205 -0.173238
v 0.000000 0.535566 0.000000
v 0.100019 0.337205 0.173238
v 0.200038 0.337205 -0.000000
v 0.000000 0.535566 0.000000
v -0.100019 0.337205 0.173238
v 0.100019 0.337205 0.173238
v 0.000000 0.535566 0.000000
v -0.200038 0.337205 0.000000
v -0.100019 0.337205 0.173238
v -0.100019 0.337205 -0.173238
v -0.200038 0.337205 0.000000
v 0.000000 0.535566 0.000000
v 0.100019 0.198361 -0.173238
v 0.000000 0.000000 0.000000
v -0.100019 0.198361 -0.173238
v 0.200038 0.198361 -0.000000
v 0.000000 0.000000 0.000000
v 0.100019 0.198361 -0.173238
v 0.100019 0.198361 0.173238
v 0.000000 0.000000 0.000000
v 0.200038 0.198361 -0.000000
v -0.100019 0.198361 0.173238
v 0.000000 0.000000 0.000000
v 0.100019 0.198361 0.173238
v -0.200038 0.198361 0.000000
v 0.000000 0.000000 0.000000
v -0.100019 0.198361 0.173238
v 0.000000 0.000000 0.000000
v -0.200038 0.198361 0.000000
v -0.100019 0.198361 -0.173238
vt 0.408322 0.026382
vt 0.408320 0.283324
vt 0.778502 0.283325
vt 0.778505 0.026378
vt 0.038135 0.026382
vt 0.038135 0.283325
vt 0.408319 0.283324
vt 0.408322 0.026382
vt 0.408322 0.026382
vt 0.408319 0.283324
vt 0.778502 0.283325
vt 0.778505 0.026378
vt 0.038136 0.026382
vt 0.038135 0.283325
vt 0.408320 0.283324
vt 0.408322 0.026382
vt 0.408322 0.026382
vt 0.408320 0.283324
vt 0.778502 0.283325
vt 0.778504 0.026378
vt 0.038135 0.026382
vt 0.038135 0.283325
vt 0.408320 0.283324
vt 0.408322 0.026382
vt 0.593410 0.770688
vt 0.778502 0.283325
vt 0.408320 0.283324
vt 0.223227 0.770689
vt 0.408319 0.283323
vt 0.038135 0.283323
vt 0.593410 0.770688
vt 0.778502 0.283323
vt 0.408319 0.283323
vt 0.223227 0.770689
vt 0.408320 0.283324
vt 0.038135 0.283325
vt 0.593410 0.770688
vt 0.778502 0.283325
vt 0.408320 0.283324
vt 0.408320 0.283324
vt 0.038135 0.283325
vt 0.223227 0.770689
vt 0.969637 0.975951
vt 0.784540 0.488588
vt 0.599455 0.975955
vt 0.599455 0.975955
vt 0.414359 0.488589
vt 0.229268 0.975955
vt 0.969637 0.975951
vt 0.784540 0.488588
vt 0.599455 0.975955
vt 0.599455 0.975955
vt 0.414359 0.488589
vt 0.229268 0.975955
vt 0.969637 0.975951
vt 0.784540 0.488588
vt 0.599455 0.975955
vt 0.414359 0.488589
vt 0.229268 0.975955
vt 0.599455 0.975955
vn -0.000000 0.000000 -1.000000
vn -0.000000 0.000000 -1.000000
vn -0.000000 0.000000 -1.000000
vn -0.000000 0.000000 -1.000000
vn 0.866025 0.000000 -0.500000
vn 0.866025 0.000000 -0.500000
vn 0.866025 0.000000 -0.500000
vn 0.866025 0.000000 -0.500000
vn 0.866025 0.000000 0.500000
vn 0.866025 0.000000 0.500000
vn 0.866025 0.000000 0.500000
vn 0.866025 0.000000 0.500000
vn 0.000000 0.000000 1.000000
vn 0.000000 0.000000 1.000000
vn 0.000000 0.000000 1.000000
vn 0.000000 0.000000 1.000000
vn -0.866025 0.000000 0.500000
vn -0.866025 0.000000 0.500000
vn -0.866025 0.000000 0.500000
vn -0.866025 0.000000 0.500000
vn -0.866025 0.000000 -0.500000
vn -0.866025 0.000000 -0.500000
vn -0.866025 0.000000 -0.500000
vn -0.866025 0.000000 -0.500000
vn -0.000000 0.657798 -0.753194
vn -0.000000 0.657798 -0.753194
vn -0.000000 0.657798 -0.753194
vn 0.652285 0.657798 -0.376597
vn 0.652285 0.657798 -0.376597
vn 0.652285 0.657798 -0.376597
vn 0.652285 0.657798 0.376597
vn 0.652285 0.657798 0.376597
vn 0.652285 0.657798 0.376597
vn 0.000000 0.657798 0.753194
vn 0.000000 0.657799 0.753194
vn 0.000000 0.657799 0.753194
vn -0.652285 0.657798 0.376597
vn -0.652285 0.657798 0.376597
vn -0.652285 0.657798 0.376597
vn -0.652285 0.657798 -0.376597
vn -0.652285 0.657798 -0.376597
vn -0.652285 0.657798 -0.376597
vn -0.000000 -0.657798 -0.753194
vn -0.000000 -0.657798 -0.753194
vn -0.000000 -0.657798 -0.753194
vn 0.652285 -0.657798 -0.376597
vn 0.652285 -0.657798 -0.376597
vn 0.652285 -0.657798 -0.376597
vn 0.652285 -0.657799 0.376597
vn 0.652285 -0.657799 0.376597
vn 0.652285 -0.657799 0.376597
vn 0.000000 -0.657799 0.753194
vn 0.000000 -0.657799 0.753194
vn 0.000000 -0.657799 0.753194
vn -0.652285 -0.657798 0.376597
vn -0.652285 -0.657798 0.376597
vn -0.652285 -0.657798 0.376597
vn -0.652285 -0.657798 -0.376597
vn -0.652285 -0.657798 -0.376597
vn -0.652285 -0.657798 -0.376597
usemtl material
f 1/0/1 2/0/2 3/0/3
f 1/0/1 3/0/3 4/0/4
f 5/0/5 6/0/6 7/0/7
f 5/0/5 7/0/7 8/0/8
f 9/0/9 10/0/10 11/0/11
f 9/0/9 11/0/11 12/0/12
f 13/0/13 14/0/14 15/0/15
f 13/0/13 15/0/15 16/0/16
f 17/0/17 18/0/18 19/0/19
f 17/0/17 19/0/19 20/0/20
f 21/0/21 22/0/22 23/0/23
f 21/0/21 23/0/23 24/0/24
f 25/0/25 26/0/26 27/0/27
f 28/0/28 29/0/29 30/0/30
f 31/0/31 32/0/32 33/0/33
f 34/0/34 35/0/35 36/0/36
f 37/0/37 38/0/38 39/0/39
f 40/0/40 41/0/41 42/0/42
f 43/0/43 44/0/44 45/0/45
f 46/0/46 47/0/47 48/0/48
f 49/0/49 50/0/50 51/0/51
f 52/0/52 53/0/53 54/0/54
f 55/0/55 56/0/56 57/0/57
f 58/0/58 59/0/59 60/0/60
