# 
# Wavefront OBJ file
# Created with Kaydara FBX
# 
mtllib pcylinder1 #220130.mtl

g pCylinder1
v -0.099750 -0.047968 -0.026728
v -0.136726 0.005091 -0.036636
v -0.122586 0.005091 -0.070775
v -0.089433 -0.047968 -0.051634
v -0.100091 0.005091 -0.100091
v -0.073022 -0.047968 -0.073022
v -0.070775 0.005091 -0.122586
v -0.051634 -0.047968 -0.089433
v -0.036636 0.005091 -0.136726
v -0.026728 -0.047968 -0.099750
v 0.000000 0.005091 -0.141550
v 0.000000 -0.047968 -0.103269
v 0.036636 0.005091 -0.136726
v 0.026728 -0.047968 -0.099750
v 0.070775 0.005091 -0.122586
v 0.051634 -0.047968 -0.089433
v 0.100091 0.005091 -0.100091
v 0.073022 -0.047968 -0.073022
v 0.122586 0.005091 -0.070775
v 0.089433 -0.047968 -0.051634
v 0.136726 0.005091 -0.036636
v 0.099750 -0.047968 -0.026728
v 0.141550 0.005091 -0.000000
v 0.103269 -0.047968 -0.000000
v 0.136726 0.005091 0.036636
v 0.099750 -0.047968 0.026728
v 0.122586 0.005091 0.070775
v 0.089433 -0.047968 0.051634
v 0.100091 0.005091 0.100091
v 0.073022 -0.047968 0.073022
v 0.070775 0.005091 0.122586
v 0.051634 -0.047968 0.089433
v 0.036636 0.005091 0.136726
v 0.026728 -0.047968 0.099750
v 0.000000 0.005091 0.141550
v 0.000000 -0.047968 0.103269
v -0.036636 0.005091 0.136726
v -0.026728 -0.047968 0.099750
v -0.070775 0.005091 0.122586
v -0.051634 -0.047968 0.089433
v -0.100091 0.005091 0.100091
v -0.073022 -0.047968 0.073022
v -0.122586 0.005091 0.070775
v -0.089433 -0.047968 0.051634
v -0.136726 0.005091 0.036636
v -0.099750 -0.047968 0.026728
v -0.141550 0.005091 -0.000000
v -0.103269 -0.047968 0.000000
v -0.136726 0.005091 -0.036636
v -0.099750 -0.047968 -0.026728
v -0.044569 0.047968 0.166334
v -0.086101 0.047968 0.149131
v -0.121765 0.047968 0.121765
v -0.149131 0.047968 0.086101
v -0.166334 0.047968 0.044569
v -0.172201 0.047968 -0.000000
v -0.166333 0.047968 -0.044569
v 0.000000 0.047968 0.172201
v 0.044569 0.047968 0.166334
v 0.086101 0.047968 0.149131
v 0.121765 0.047968 0.121765
v 0.149131 0.047968 0.086101
v 0.166334 0.047968 0.044569
v 0.172201 0.047968 -0.000000
v 0.166333 0.047968 -0.044569
v 0.149131 0.047968 -0.086101
v 0.121765 0.047968 -0.121765
v 0.086101 0.047968 -0.149130
v 0.044569 0.047968 -0.166334
v 0.000000 0.047968 -0.172201
v -0.044569 0.047968 -0.166333
v -0.086100 0.047968 -0.149130
v -0.121765 0.047968 -0.121765
v -0.149130 0.047968 -0.086101
v -0.166333 0.047968 -0.044569
vt -4.000000 0.009101
vt -4.000000 0.499245
vt -3.793617 0.499245
vt -3.793617 0.009101
vt -3.583563 0.499245
vt -3.583563 0.009101
vt -3.373508 0.499245
vt -3.373508 0.009101
vt -3.163455 0.499245
vt -3.163455 0.009101
vt -2.953400 0.499245
vt -2.953400 0.009101
vt -2.743346 0.499245
vt -2.743346 0.009101
vt -2.533292 0.499245
vt -2.533292 0.009101
vt -2.323238 0.499245
vt -2.323238 0.009101
vt -2.113184 0.499245
vt -2.113184 0.009101
vt -1.903130 0.499245
vt -1.903130 0.009101
vt -1.693076 0.499245
vt -1.693076 0.009101
vt -1.483022 0.499245
vt -1.483022 0.009101
vt -1.272967 0.499245
vt -1.272967 0.009101
vt -1.062912 0.499245
vt -1.062912 0.009101
vt -0.852858 0.499245
vt -0.852858 0.009101
vt -0.642803 0.499245
vt -0.642803 0.009101
vt -0.432748 0.499245
vt -0.432748 0.009101
vt -0.222694 0.499245
vt -0.222694 0.009101
vt -0.012639 0.499245
vt -0.012639 0.009101
vt 0.197416 0.499245
vt 0.197416 0.009101
vt 0.407471 0.499245
vt 0.407471 0.009101
vt 0.617525 0.499245
vt 0.617525 0.009101
vt 0.827580 0.499245
vt 0.827580 0.009101
vt 1.000000 0.499245
vt 1.000000 0.009101
vt -0.222694 0.989388
vt -0.012639 0.989388
vt 0.197416 0.989388
vt 0.407471 0.989388
vt 0.617525 0.989388
vt 0.827580 0.989388
vt 1.000000 0.989388
vt -0.432748 0.989388
vt -0.642803 0.989388
vt -0.852858 0.989388
vt -1.062912 0.989388
vt -1.272967 0.989388
vt -1.483022 0.989388
vt -1.693076 0.989388
vt -1.903130 0.989388
vt -2.113184 0.989388
vt -2.323238 0.989388
vt -2.533292 0.989388
vt -2.743346 0.989388
vt -2.953400 0.989388
vt -3.163455 0.989388
vt -3.373508 0.989388
vt -3.583563 0.989388
vt -3.793617 0.989388
vt -4.000000 0.989388
vn -0.576663 -0.802237 -0.154517
vn -0.622968 -0.764230 -0.166924
vn -0.558538 -0.764230 -0.322472
vn -0.517022 -0.802237 -0.298503
vn -0.456044 -0.764230 -0.456044
vn -0.422147 -0.802237 -0.422147
vn -0.322472 -0.764230 -0.558538
vn -0.298503 -0.802237 -0.517022
vn -0.166924 -0.764230 -0.622968
vn -0.154517 -0.802237 -0.576663
vn -0.000000 -0.764230 -0.644944
vn -0.000000 -0.802237 -0.597006
vn 0.166923 -0.764230 -0.622968
vn 0.154516 -0.802237 -0.576663
vn 0.322472 -0.764230 -0.558538
vn 0.298503 -0.802237 -0.517022
vn 0.456044 -0.764230 -0.456044
vn 0.422147 -0.802237 -0.422147
vn 0.558538 -0.764230 -0.322472
vn 0.517022 -0.802237 -0.298503
vn 0.622968 -0.764230 -0.166924
vn 0.576663 -0.802237 -0.154516
vn 0.644944 -0.764230 -0.000000
vn 0.597005 -0.802237 -0.000000
vn 0.622968 -0.764230 0.166923
vn 0.576663 -0.802237 0.154516
vn 0.558538 -0.764230 0.322472
vn 0.517022 -0.802237 0.298503
vn 0.456044 -0.764230 0.456044
vn 0.422147 -0.802237 0.422146
vn 0.322472 -0.764230 0.558538
vn 0.298503 -0.802237 0.517022
vn 0.166924 -0.764230 0.622968
vn 0.154516 -0.802237 0.576663
vn 0.000000 -0.764230 0.644944
vn 0.000000 -0.802237 0.597005
vn -0.166924 -0.764230 0.622968
vn -0.154516 -0.802237 0.576663
vn -0.322472 -0.764230 0.558538
vn -0.298503 -0.802237 0.517022
vn -0.456044 -0.764230 0.456044
vn -0.422147 -0.802237 0.422147
vn -0.558537 -0.764230 0.322472
vn -0.517022 -0.802237 0.298503
vn -0.622968 -0.764230 0.166924
vn -0.576663 -0.802237 0.154516
vn -0.644944 -0.764230 -0.000001
vn -0.597005 -0.802237 -0.000001
vn -0.622968 -0.764230 -0.166924
vn -0.576663 -0.802237 -0.154517
vn -0.176198 -0.732489 0.657582
vn -0.340390 -0.732489 0.589572
vn -0.481384 -0.732489 0.481384
vn -0.589572 -0.732489 0.340390
vn -0.657582 -0.732489 0.176198
vn -0.680779 -0.732489 -0.000001
vn -0.657582 -0.732489 -0.176199
vn 0.000000 -0.732489 0.680779
vn 0.176199 -0.732489 0.657582
vn 0.340390 -0.732488 0.589572
vn 0.481384 -0.732488 0.481384
vn 0.589572 -0.732489 0.340390
vn 0.657582 -0.732489 0.176198
vn 0.680779 -0.732489 -0.000000
vn 0.657582 -0.732489 -0.176199
vn 0.589572 -0.732488 -0.340390
vn 0.481384 -0.732488 -0.481384
vn 0.340390 -0.732489 -0.589572
vn 0.176198 -0.732489 -0.657582
vn -0.000000 -0.732489 -0.680779
vn -0.176199 -0.732489 -0.657582
vn -0.340390 -0.732489 -0.589572
vn -0.481384 -0.732489 -0.481384
vn -0.589572 -0.732488 -0.340390
vn -0.657582 -0.732489 -0.176199
usemtl material
f 1/0/1 2/0/2 3/0/3
f 1/0/1 3/0/3 4/0/4
f 4/0/4 3/0/3 5/0/5
f 4/0/4 5/0/5 6/0/6
f 6/0/6 5/0/5 7/0/7
f 6/0/6 7/0/7 8/0/8
f 8/0/8 7/0/7 9/0/9
f 8/0/8 9/0/9 10/0/10
f 10/0/10 9/0/9 11/0/11
f 10/0/10 11/0/11 12/0/12
f 12/0/12 11/0/11 13/0/13
f 12/0/12 13/0/13 14/0/14
f 14/0/14 13/0/13 15/0/15
f 14/0/14 15/0/15 16/0/16
f 16/0/16 15/0/15 17/0/17
f 16/0/16 17/0/17 18/0/18
f 18/0/18 17/0/17 19/0/19
f 18/0/18 19/0/19 20/0/20
f 20/0/20 19/0/19 21/0/21
f 20/0/20 21/0/21 22/0/22
f 22/0/22 21/0/21 23/0/23
f 22/0/22 23/0/23 24/0/24
f 24/0/24 23/0/23 25/0/25
f 24/0/24 25/0/25 26/0/26
f 26/0/26 25/0/25 27/0/27
f 26/0/26 27/0/27 28/0/28
f 28/0/28 27/0/27 29/0/29
f 28/0/28 29/0/29 30/0/30
f 30/0/30 29/0/29 31/0/31
f 30/0/30 31/0/31 32/0/32
f 32/0/32 31/0/31 33/0/33
f 32/0/32 33/0/33 34/0/34
f 34/0/34 33/0/33 35/0/35
f 34/0/34 35/0/35 36/0/36
f 36/0/36 35/0/35 37/0/37
f 36/0/36 37/0/37 38/0/38
f 38/0/38 37/0/37 39/0/39
f 38/0/38 39/0/39 40/0/40
f 40/0/40 39/0/39 41/0/41
f 40/0/40 41/0/41 42/0/42
f 42/0/42 41/0/41 43/0/43
f 42/0/42 43/0/43 44/0/44
f 44/0/44 43/0/43 45/0/45
f 44/0/44 45/0/45 46/0/46
f 46/0/46 45/0/45 47/0/47
f 46/0/46 47/0/47 48/0/48
f 48/0/48 47/0/47 49/0/49
f 48/0/48 49/0/49 50/0/50
f 35/0/35 51/0/51 37/0/37
f 37/0/37 51/0/51 52/0/52
f 37/0/37 52/0/52 39/0/39
f 39/0/39 52/0/52 53/0/53
f 39/0/39 53/0/53 41/0/41
f 41/0/41 53/0/53 54/0/54
f 41/0/41 54/0/54 43/0/43
f 43/0/43 54/0/54 55/0/55
f 43/0/43 55/0/55 45/0/45
f 45/0/45 55/0/55 56/0/56
f 45/0/45 56/0/56 47/0/47
f 47/0/47 56/0/56 57/0/57
f 47/0/47 57/0/57 49/0/49
f 35/0/35 58/0/58 51/0/51
f 33/0/33 58/0/58 35/0/35
f 33/0/33 59/0/59 58/0/58
f 31/0/31 59/0/59 33/0/33
f 31/0/31 60/0/60 59/0/59
f 29/0/29 60/0/60 31/0/31
f 29/0/29 61/0/61 60/0/60
f 27/0/27 61/0/61 29/0/29
f 27/0/27 62/0/62 61/0/61
f 25/0/25 62/0/62 27/0/27
f 25/0/25 63/0/63 62/0/62
f 23/0/23 63/0/63 25/0/25
f 23/0/23 64/0/64 63/0/63
f 21/0/21 64/0/64 23/0/23
f 21/0/21 65/0/65 64/0/64
f 19/0/19 65/0/65 21/0/21
f 19/0/19 66/0/66 65/0/65
f 17/0/17 66/0/66 19/0/19
f 17/0/17 67/0/67 66/0/66
f 15/0/15 67/0/67 17/0/17
f 15/0/15 68/0/68 67/0/67
f 13/0/13 68/0/68 15/0/15
f 13/0/13 69/0/69 68/0/68
f 11/0/11 69/0/69 13/0/13
f 11/0/11 70/0/70 69/0/69
f 9/0/9 70/0/70 11/0/11
f 9/0/9 71/0/71 70/0/70
f 7/0/7 71/0/71 9/0/9
f 7/0/7 72/0/72 71/0/71
f 5/0/5 72/0/72 7/0/7
f 5/0/5 73/0/73 72/0/72
f 3/0/3 73/0/73 5/0/5
f 3/0/3 74/0/74 73/0/73
f 2/0/2 74/0/74 3/0/3
f 2/0/2 75/0/75 74/0/74
