# 
# Wavefront OBJ file
# Created with Kaydara FBX
# 
mtllib pcylinder1 #225590.mtl

g pCylinder1
v -1.429682 0.000000 -1.038725
v -5.182488 142.448410 -3.765302
v -1.979534 142.448410 -6.092381
v -0.546090 0.000000 -1.680692
v 1.979535 142.448410 -6.092380
v 0.546090 0.000000 -1.680692
v 5.182488 142.448410 -3.765301
v 1.429682 0.000000 -1.038725
v 6.405912 142.448410 0.000001
v 1.767184 0.000000 0.000000
v 5.182488 142.448410 3.765302
v 1.429682 0.000000 1.038725
v 1.979535 142.448410 6.092380
v 0.546090 0.000000 1.680692
v -1.979535 142.448410 6.092380
v -0.546090 0.000000 1.680692
v -5.182488 142.448410 3.765301
v -1.429682 0.000000 1.038724
v -6.405911 142.448410 0.000000
v -1.767184 0.000000 -0.000000
v -5.182488 142.448410 -3.765302
v -1.429682 0.000000 -1.038725
vt 0.003491 0.004322
vt 0.003491 0.995678
vt 0.102793 0.995678
vt 0.102793 0.004322
vt 0.202095 0.995678
vt 0.202095 0.004322
vt 0.301397 0.995678
vt 0.301397 0.004322
vt 0.400698 0.995678
vt 0.400698 0.004322
vt 0.500000 0.995678
vt 0.500000 0.004322
vt 0.599302 0.995678
vt 0.599302 0.004322
vt 0.698604 0.995678
vt 0.698604 0.004322
vt 0.797905 0.995678
vt 0.797905 0.004322
vt 0.897207 0.995678
vt 0.897207 0.004322
vt 0.996509 0.995678
vt 0.996509 0.004322
vn -0.808588 -0.032547 -0.587474
vn -0.808588 -0.032547 -0.587474
vn -0.308853 -0.032547 -0.950553
vn -0.308853 -0.032547 -0.950553
vn 0.308853 -0.032547 -0.950553
vn 0.308853 -0.032547 -0.950553
vn 0.808588 -0.032547 -0.587474
vn 0.808588 -0.032547 -0.587474
vn 0.999470 -0.032547 0.000000
vn 0.999470 -0.032547 0.000000
vn 0.808588 -0.032547 0.587474
vn 0.808588 -0.032547 0.587474
vn 0.308853 -0.032547 0.950553
vn 0.308853 -0.032547 0.950553
vn -0.308853 -0.032547 0.950553
vn -0.308853 -0.032547 0.950553
vn -0.808588 -0.032547 0.587474
vn -0.808588 -0.032547 0.587474
vn -0.999470 -0.032547 0.000000
vn -0.999470 -0.032547 0.000000
vn -0.808588 -0.032547 -0.587474
vn -0.808588 -0.032547 -0.587474
usemtl material
f 1/0/1 2/0/2 3/0/3
f 1/0/1 3/0/3 4/0/4
f 4/0/4 3/0/3 5/0/5
f 4/0/4 5/0/5 6/0/6
f 6/0/6 5/0/5 7/0/7
f 6/0/6 7/0/7 8/0/8
f 8/0/8 7/0/7 9/0/9
f 8/0/8 9/0/9 10/0/10
f 10/0/10 9/0/9 11/0/11
f 10/0/10 11/0/11 12/0/12
f 12/0/12 11/0/11 13/0/13
f 12/0/12 13/0/13 14/0/14
f 14/0/14 13/0/13 15/0/15
f 14/0/14 15/0/15 16/0/16
f 16/0/16 15/0/15 17/0/17
f 16/0/16 17/0/17 18/0/18
f 18/0/18 17/0/17 19/0/19
f 18/0/18 19/0/19 20/0/20
f 20/0/20 19/0/19 21/0/21
f 20/0/20 21/0/21 22/0/22
