# 
# Wavefront OBJ file
# Created with Kaydara FBX
# 
mtllib perpstage_cave_pebble01_06.mtl

g PerpStage_Cave_pebble01_06
v 121.875504 -3.720400 -137.676804
v 122.051491 -4.233900 -137.737000
v 121.790398 -4.059900 -137.645004
v 122.097900 -5.307199 -137.467392
v 122.382401 -5.307199 -137.654205
v 122.987389 -4.518700 -137.526093
v 122.551491 -3.802700 -137.714996
v 122.922592 -3.915900 -137.483704
v 122.774101 -4.572100 -137.766403
v 122.568794 -2.923400 -137.621094
v 122.264801 -3.106500 -137.340500
v 122.573189 -2.449400 -137.338898
v 122.551491 -3.802700 -137.714996
v 122.313591 -4.035400 -137.274307
v 122.283989 -4.220100 -137.558899
v 122.216599 -4.220100 -137.373505
v 122.313591 -4.035400 -137.274307
v 122.551491 -3.802700 -137.714996
v 122.446297 -4.578200 -137.701279
v 122.382401 -5.307199 -137.654205
v 122.283989 -4.220100 -137.558899
v 122.551491 -3.802700 -137.714996
v 122.283989 -4.220100 -137.558899
v 121.875504 -3.720400 -137.676804
v 122.095596 -3.921500 -137.522507
v 122.551491 -3.802700 -137.714996
v 122.774101 -4.572100 -137.766403
v 122.446297 -4.578200 -137.701279
v 122.283989 -4.220100 -137.558899
v 122.051491 -4.233900 -137.737000
v 121.875504 -3.720400 -137.676804
v 122.382401 -5.307199 -137.654205
v 121.909401 -4.001800 -137.434601
v 121.875504 -3.720400 -137.676804
v 121.790398 -4.059900 -137.645004
v 122.234901 -5.020900 -137.140701
v 122.255898 -5.307199 -137.167694
v 122.097900 -5.307199 -137.467392
v 122.813301 -3.076800 -137.289093
v 122.573189 -2.449400 -137.338898
v 122.480797 -3.156200 -137.043900
v 122.480797 -3.156200 -137.043900
v 122.573189 -2.449400 -137.338898
v 122.264801 -3.106500 -137.340500
v 122.462593 -4.147400 -137.004395
v 122.313591 -4.035400 -137.274307
v 122.234901 -5.020900 -137.140701
v 122.216599 -4.220100 -137.373505
v 121.909401 -4.001800 -137.434601
v 122.095596 -3.921500 -137.522507
v 121.875504 -3.720400 -137.676804
v 123.034996 -4.075300 -137.179092
v 122.922592 -3.915900 -137.483704
v 122.813301 -3.076800 -137.289093
v 123.106003 -4.536100 -137.310104
v 122.987389 -4.518700 -137.526093
v 122.551491 -3.802700 -137.714996
v 122.568794 -2.923400 -137.621094
v 122.813301 -3.076800 -137.289093
v 122.922592 -3.915900 -137.483704
v 122.462593 -4.147400 -137.004395
v 122.813004 -4.058900 -136.805405
v 123.034996 -4.075300 -137.179092
v 122.568794 -2.923400 -137.621094
v 122.573189 -2.449400 -137.338898
v 122.813301 -3.076800 -137.289093
v 122.987389 -4.518700 -137.526093
v 123.031403 -5.307199 -137.544403
v 122.828392 -5.307199 -137.815598
v 122.774101 -4.572100 -137.766403
v 122.824997 -5.307199 -137.289093
v 123.690895 -4.447100 -137.357895
v 123.106003 -4.536100 -137.310104
v 123.557396 -4.067800 -137.507507
v 123.918892 -3.987800 -137.691895
v 122.987389 -4.518700 -137.526093
v 123.560394 -4.447100 -137.900406
v 123.031403 -5.307199 -137.544403
v 123.528702 -4.158700 -137.731903
v 123.918892 -3.987800 -137.691895
v 123.557396 -4.067800 -137.507507
v 123.528702 -4.158700 -137.731903
v 122.987389 -4.518700 -137.526093
v 123.106003 -4.536100 -137.310104
v 123.918892 -3.987800 -137.691895
v 123.560394 -4.447100 -137.900406
v 123.918892 -3.987800 -137.691895
v 123.791298 -4.519100 -137.636093
v 123.031403 -5.307199 -137.544403
v 123.031403 -5.307199 -137.544403
v 123.791298 -4.519100 -137.636093
v 123.690895 -4.447100 -137.357895
v 122.824997 -5.307199 -137.289093
v 123.918892 -3.987800 -137.691895
v 123.034996 -4.075300 -137.179092
v 123.232300 -4.304100 -137.020401
v 123.106003 -4.536100 -137.310104
v 123.193794 -3.810300 -136.804199
v 122.813004 -4.058900 -136.805405
v 123.193794 -3.810300 -136.804199
v 123.034996 -4.075300 -137.179092
v 122.828201 -4.429700 -136.711502
v 122.542389 -5.307199 -136.880707
v 123.232300 -4.304100 -137.020401
v 122.824997 -5.307199 -137.289093
v 123.232300 -4.304100 -137.020401
v 123.193794 -3.810300 -136.804199
v 122.828201 -4.429700 -136.711502
v 122.813004 -4.058900 -136.805405
v 122.828201 -4.429700 -136.711502
v 123.193794 -3.810300 -136.804199
v 122.794800 -4.518400 -138.157196
v 122.828392 -5.307199 -137.815598
v 122.382401 -5.307199 -137.654205
v 122.344200 -4.518400 -138.193405
v 122.545700 -3.776500 -138.406296
v 122.756294 -4.199400 -137.959579
v 122.774101 -4.572100 -137.766403
v 122.828392 -5.307199 -137.815598
v 122.794800 -4.518400 -138.157196
v 122.545700 -3.776500 -138.406296
v 122.446297 -4.578200 -137.701279
v 122.356201 -4.199400 -137.953598
v 122.382401 -5.307199 -137.654205
v 122.344200 -4.518400 -138.193405
v 122.545700 -3.776500 -138.406296
v 122.756294 -4.199400 -137.959579
v 122.545700 -3.776500 -138.406296
v 122.356201 -4.199400 -137.953598
v 122.446297 -4.578200 -137.701279
v 122.774101 -4.572100 -137.766403
v 122.828392 -5.307199 -137.815598
v 122.859001 -4.559100 -138.106506
v 123.239792 -4.629500 -138.121002
v 123.270401 -4.071500 -138.220200
v 123.031403 -5.307199 -137.544403
v 123.324097 -4.565500 -137.798294
v 122.987389 -4.518700 -137.526093
v 122.774101 -4.548800 -137.766403
v 122.859001 -4.559100 -138.106506
v 122.828392 -5.307199 -137.815598
v 122.987389 -4.518700 -137.526093
v 123.270401 -4.071500 -138.220200
v 122.774101 -4.548800 -137.766403
v 122.774101 -4.548800 -137.766403
v 123.270401 -4.071500 -138.220200
v 122.859001 -4.559100 -138.106506
v 123.324097 -4.565500 -137.798294
v 123.270401 -4.071500 -138.220200
v 122.987389 -4.518700 -137.526093
v 123.239792 -4.629500 -138.121002
v 123.324097 -4.565500 -137.798294
v 123.031403 -5.307199 -137.544403
v 122.828392 -5.307199 -137.815598
v 123.270401 -4.071500 -138.220200
v 122.112289 -4.457400 -136.344299
v 122.387398 -5.307199 -137.036102
v 122.542389 -5.307199 -136.880707
v 122.669296 -4.457400 -136.309906
v 122.371101 -4.002100 -136.167999
v 122.387398 -5.307199 -137.036102
v 122.112289 -4.457400 -136.344299
v 122.186890 -4.419300 -136.835602
v 122.383102 -4.291500 -136.695999
v 122.371101 -4.002100 -136.167999
v 122.828201 -4.429700 -136.711502
v 122.186890 -4.419300 -136.835602
v 122.669296 -4.457400 -136.309906
v 122.828201 -4.429700 -136.711502
v 122.371101 -4.002100 -136.167999
v 122.542389 -5.307199 -136.880707
v 122.112289 -4.457400 -136.344299
v 122.371101 -4.002100 -136.167999
v 122.186890 -4.419300 -136.835602
v 122.383102 -4.291500 -136.695999
v 122.249802 -4.184300 -136.792587
v 122.186890 -4.419300 -136.835602
v 121.819000 -3.646600 -136.822098
v 122.134003 -3.483200 -136.889008
v 121.759903 -3.250800 -137.009995
v 122.462593 -4.147400 -137.004395
v 122.234901 -5.020900 -137.140701
v 122.255898 -5.307199 -137.167694
v 122.387398 -5.307199 -137.036102
v 122.234901 -5.020900 -137.140701
v 122.387398 -5.307199 -137.036102
v 122.186890 -4.419300 -136.835602
v 121.819000 -3.646600 -136.822098
v 121.758003 -3.712400 -137.165298
v 121.759903 -3.250800 -137.009995
v 122.001694 -3.373500 -137.211594
v 121.759903 -3.250800 -137.009995
v 122.134003 -3.483200 -136.889008
v 122.313591 -4.035400 -137.274307
v 122.462593 -4.147400 -137.004395
v 121.759903 -3.250800 -137.009995
v 122.001694 -3.373500 -137.211594
v 121.758003 -3.712400 -137.165298
v 122.234901 -5.020900 -137.140701
v 122.216599 -4.220100 -137.373505
v 122.313591 -4.035400 -137.274307
v 122.216599 -4.220100 -137.373505
v 121.758003 -3.712400 -137.165298
v 122.001694 -3.373500 -137.211594
v 122.383102 -4.291500 -136.695999
v 122.828201 -4.429700 -136.711502
v 122.813004 -4.058900 -136.805405
v 122.383102 -4.291500 -136.695999
v 122.462593 -4.147400 -137.004395
v 122.249802 -4.184300 -136.792587
v 122.813301 -3.076800 -137.289093
v 122.480797 -3.156200 -137.043900
v 122.462593 -4.147400 -137.004395
v 123.034996 -4.075300 -137.179092
v 122.216599 -4.220100 -137.373505
v 122.283989 -4.220100 -137.558899
v 122.095596 -3.921500 -137.522507
v 122.824997 -5.307199 -137.289093
v 123.106003 -4.536100 -137.310104
v 123.232300 -4.304100 -137.020401
v 122.383102 -4.291500 -136.695999
v 122.813004 -4.058900 -136.805405
v 122.462593 -4.147400 -137.004395
vt 0.780000 0.714300
vt 0.781300 0.630900
vt 0.752200 0.668100
vt 0.721600 0.471700
vt 0.767800 0.459000
vt 0.873700 0.630700
vt 0.798300 0.735500
vt 0.861100 0.723400
vt 0.829900 0.616700
vt 0.722700 0.677500
vt 0.657100 0.655800
vt 0.691500 0.739400
vt 0.729100 0.570000
vt 0.649500 0.542400
vt 0.689300 0.515400
vt 0.658200 0.515800
vt 0.649500 0.542400
vt 0.729100 0.570000
vt 0.730300 0.474800
vt 0.732400 0.385600
vt 0.689300 0.515400
vt 0.729100 0.570000
vt 0.767400 0.578100
vt 0.749300 0.673400
vt 0.769200 0.630100
vt 0.798300 0.735500
vt 0.829900 0.616700
vt 0.782900 0.615900
vt 0.767400 0.578100
vt 0.728600 0.593100
vt 0.749300 0.673400
vt 0.700400 0.418600
vt 0.832200 0.433900
vt 0.809000 0.383700
vt 0.797200 0.436300
vt 0.859900 0.600500
vt 0.849700 0.643700
vt 0.802800 0.634900
vt 0.763900 0.592500
vt 0.807100 0.685700
vt 0.818400 0.568900
vt 0.835100 0.536600
vt 0.855100 0.652200
vt 0.886300 0.546500
vt 0.838800 0.383700
vt 0.881300 0.402900
vt 0.892800 0.497900
vt 0.795300 0.585300
vt 0.797200 0.642100
vt 0.769200 0.630100
vt 0.749300 0.673400
vt 0.984900 0.478200
vt 0.943100 0.509100
vt 0.983200 0.636400
vt 0.960000 0.408300
vt 0.926200 0.416900
vt 0.888900 0.543300
vt 0.932100 0.672900
vt 0.983200 0.636400
vt 0.943100 0.509100
vt 0.793000 0.418000
vt 0.741800 0.390000
vt 0.711900 0.443500
vt 0.932100 0.672900
vt 0.982400 0.739400
vt 0.983200 0.636400
vt 0.964300 0.509300
vt 0.922500 0.395000
vt 0.878000 0.411900
vt 0.919200 0.518000
vt 0.821700 0.511400
vt 0.708800 0.652000
vt 0.790200 0.632800
vt 0.730600 0.713200
vt 0.677400 0.737300
vt 0.750900 0.623500
vt 0.845100 0.649200
vt 0.776100 0.503100
vt 0.820000 0.692500
vt 0.854900 0.741500
vt 0.799200 0.719700
vt 0.820000 0.692500
vt 0.750900 0.623500
vt 0.726400 0.648900
vt 0.854900 0.741500
vt 0.830900 0.514600
vt 0.829000 0.609000
vt 0.873200 0.540400
vt 0.942900 0.393800
vt 0.942900 0.393800
vt 0.873200 0.540400
vt 0.910000 0.560800
vt 0.990800 0.391900
vt 0.829000 0.609000
vt 0.888400 0.697700
vt 0.918100 0.657300
vt 0.870500 0.625700
vt 0.949000 0.733500
vt 0.728200 0.671200
vt 0.752800 0.732300
vt 0.789400 0.672300
vt 0.934000 0.581000
vt 0.877400 0.449500
vt 0.881300 0.633100
vt 0.813700 0.478000
vt 0.886200 0.556000
vt 0.925700 0.628100
vt 0.952100 0.522100
vt 0.968900 0.578400
vt 0.952100 0.522100
vt 0.925700 0.628100
vt 0.929400 0.623600
vt 0.957800 0.495800
vt 0.894300 0.475500
vt 0.866300 0.616200
vt 0.878100 0.737300
vt 0.836900 0.539400
vt 0.859700 0.480000
vt 0.844400 0.367200
vt 0.805400 0.492100
vt 0.777100 0.613600
vt 0.816200 0.595800
vt 0.862800 0.644300
vt 0.805200 0.480500
vt 0.895500 0.597000
vt 0.913400 0.718700
vt 0.824400 0.681800
vt 0.913400 0.718700
vt 0.862800 0.644300
vt 0.816200 0.595800
vt 0.780400 0.630600
vt 0.804500 0.544700
vt 0.797200 0.667000
vt 0.851700 0.662600
vt 0.846400 0.749700
vt 0.795100 0.418400
vt 0.730500 0.526100
vt 0.788100 0.543800
vt 0.709300 0.473600
vt 0.747900 0.504300
vt 0.791600 0.389800
vt 0.664000 0.476900
vt 0.711700 0.593500
vt 0.709300 0.473600
vt 0.709300 0.473600
vt 0.711700 0.593500
vt 0.747900 0.504300
vt 0.730500 0.526100
vt 0.670800 0.600700
vt 0.788100 0.543800
vt 0.686800 0.509000
vt 0.730500 0.526100
vt 0.795100 0.418400
vt 0.752200 0.393100
vt 0.670800 0.600700
vt 0.807000 0.589000
vt 0.710000 0.379800
vt 0.664200 0.405900
vt 0.717000 0.626800
vt 0.813700 0.699700
vt 0.710000 0.379800
vt 0.807000 0.589000
vt 0.872100 0.528000
vt 0.911900 0.618200
vt 0.940500 0.700000
vt 0.968300 0.583600
vt 0.875900 0.602800
vt 0.717000 0.626800
vt 0.633500 0.633300
vt 0.813700 0.699700
vt 0.664200 0.405900
vt 0.807000 0.589000
vt 0.813700 0.699700
vt 0.872100 0.528000
vt 0.684900 0.549400
vt 0.694300 0.575300
vt 0.718100 0.547100
vt 0.729500 0.672800
vt 0.679600 0.685500
vt 0.718200 0.739200
vt 0.652300 0.577800
vt 0.788000 0.521400
vt 0.782000 0.477400
vt 0.756100 0.481300
vt 0.777200 0.482400
vt 0.785300 0.430200
vt 0.691700 0.541900
vt 0.636500 0.661400
vt 0.684200 0.671400
vt 0.644000 0.731400
vt 0.856000 0.433800
vt 0.820600 0.466400
vt 0.885800 0.476300
vt 0.964600 0.408300
vt 0.994600 0.444000
vt 0.644000 0.731400
vt 0.695200 0.731600
vt 0.684200 0.671400
vt 0.777200 0.482400
vt 0.769000 0.611100
vt 0.773300 0.648000
vt 0.769000 0.611100
vt 0.684200 0.671400
vt 0.695200 0.731600
vt 0.754200 0.428400
vt 0.735600 0.376900
vt 0.635800 0.445200
vt 0.684900 0.549400
vt 0.652300 0.577800
vt 0.694300 0.575300
vt 0.763900 0.592500
vt 0.818400 0.568900
vt 0.793000 0.418000
vt 0.711900 0.443500
vt 0.795300 0.585300
vt 0.767400 0.578100
vt 0.769200 0.630100
vt 0.850900 0.501900
vt 0.870500 0.625700
vt 0.918100 0.657300
vt 0.754200 0.428400
vt 0.759600 0.445200
vt 0.765400 0.490600
vn -0.174799 -0.004500 -0.984594
vn 0.054202 0.037002 -0.997844
vn -0.974258 -0.015699 -0.224890
vn -0.877666 -0.442383 -0.184393
vn -0.189695 -0.121696 -0.974272
vn 0.530713 0.180904 -0.828020
vn -0.107798 0.340394 -0.934083
vn 0.662265 0.262286 -0.701863
vn 0.456092 0.227796 -0.860284
vn -0.473293 0.305896 -0.826088
vn -0.529302 0.138200 -0.837102
vn -0.482397 0.454697 -0.748695
vn -0.570907 -0.028800 -0.820510
vn -0.641967 -0.121394 -0.757061
vn -0.538806 0.461905 -0.704508
vn -0.526395 0.758992 -0.383196
vn -0.601007 0.721709 -0.343404
vn -0.107798 0.340394 -0.934083
vn -0.373687 0.030099 -0.927067
vn -0.189695 -0.121696 -0.974272
vn -0.538806 0.461905 -0.704508
vn -0.107798 0.340394 -0.934083
vn 0.498926 0.693136 -0.520227
vn 0.498926 0.693136 -0.520227
vn 0.498926 0.693136 -0.520227
vn -0.098896 0.009200 -0.995055
vn -0.098896 0.009200 -0.995055
vn -0.098896 0.009200 -0.995055
vn 0.345809 0.194505 -0.917924
vn 0.054202 0.037002 -0.997844
vn -0.633281 0.743778 0.213894
vn -0.189695 -0.121696 -0.974272
vn -0.666191 0.029700 0.745190
vn -0.633281 0.743778 0.213894
vn -0.974258 -0.015699 -0.224890
vn -0.622796 -0.315398 0.715995
vn -0.647929 -0.202709 0.734233
vn -0.877666 -0.442383 -0.184393
vn 0.259903 0.178402 0.949012
vn 0.298309 0.300209 0.906028
vn 0.328899 0.133399 0.934896
vn -0.530528 0.240813 0.812742
vn -0.472805 0.441804 0.762407
vn -0.551612 0.218705 0.804918
vn -0.636026 0.007500 0.771631
vn -0.674892 -0.018200 0.737692
vn 0.003800 0.279391 0.960170
vn 0.024999 0.333893 0.942280
vn 0.042401 0.538714 0.841421
vn 0.076699 0.552789 0.829784
vn 0.036201 0.657010 0.753012
vn 0.720730 0.382216 -0.578324
vn 0.662265 0.262286 -0.701863
vn 0.834397 0.321199 -0.447898
vn 0.657005 0.314602 -0.685105
vn 0.530713 0.180904 -0.828020
vn 0.428303 0.207001 -0.879606
vn 0.595884 0.242193 -0.765679
vn 0.512679 0.237890 -0.824966
vn 0.324895 0.293096 -0.899187
vn -0.084003 0.986136 -0.143105
vn -0.084003 0.986136 -0.143105
vn -0.084003 0.986136 -0.143105
vn 0.595884 0.242193 -0.765679
vn 0.597291 0.402194 -0.693890
vn 0.512679 0.237890 -0.824966
vn 0.530713 0.180904 -0.828020
vn 0.553616 0.081002 -0.828823
vn 0.526519 0.097704 -0.844530
vn 0.456092 0.227796 -0.860284
vn 0.040998 -0.002700 0.999156
vn 0.090501 0.368004 0.925410
vn 0.036400 0.057200 0.997699
vn 0.077699 0.412597 0.907594
vn 0.170605 0.463113 0.869724
vn -0.313287 0.058398 -0.947861
vn -0.219992 0.376386 -0.899965
vn -0.309806 -0.012400 -0.950719
vn -0.184398 0.465194 -0.865790
vn -0.063404 0.492931 -0.867755
vn -0.268502 0.929106 -0.254302
vn -0.283606 0.911819 -0.296906
vn -0.354009 0.882122 0.310708
vn -0.336998 0.833894 0.437097
vn -0.185999 0.926293 -0.327698
vn 0.339602 -0.569703 -0.748404
vn 0.438323 -0.299516 -0.847445
vn 0.400607 -0.420007 -0.814314
vn 0.296799 -0.653299 -0.696499
vn 0.377788 -0.708578 0.595981
vn 0.640381 -0.492485 0.589382
vn 0.538093 -0.628992 0.561093
vn 0.455212 -0.605916 0.652417
vn 0.738623 -0.290909 0.608119
vn 0.720730 0.382216 -0.578324
vn 0.993908 -0.001900 0.110201
vn 0.657005 0.314602 -0.685105
vn 0.534219 0.407714 -0.740526
vn -0.286614 0.879842 -0.379118
vn 0.249713 0.458024 0.853145
vn -0.286614 0.879842 -0.379118
vn 0.448223 -0.209011 0.869144
vn 0.050901 -0.634413 0.771316
vn 0.993908 -0.001900 0.110201
vn 0.455212 -0.605916 0.652417
vn 0.993908 -0.001900 0.110201
vn 0.249713 0.458024 0.853145
vn 0.448223 -0.209011 0.869144
vn -0.079300 0.238500 0.967899
vn -0.079300 0.238500 0.967899
vn -0.079300 0.238500 0.967899
vn -0.024800 -0.419792 -0.907282
vn -0.162904 -0.403810 -0.900222
vn -0.062901 -0.489006 -0.870010
vn 0.035802 -0.452319 -0.891137
vn 0.038300 -0.294798 -0.954792
vn 0.918072 0.341090 -0.201994
vn 0.986297 0.139800 0.087600
vn 0.982121 0.143703 0.121603
vn 0.971577 0.236694 -0.003700
vn 0.823904 0.428502 -0.370902
vn -0.669414 0.164203 0.724515
vn -0.967698 0.240099 -0.076900
vn -0.899909 0.073701 0.429804
vn -0.991748 0.115806 -0.055003
vn -0.852975 0.352990 -0.384489
vn 0.036099 0.591386 0.805580
vn 0.005100 0.728513 0.685013
vn 0.005700 0.639485 0.768782
vn 0.029800 0.529494 0.847790
vn 0.083100 0.465001 0.881401
vn -0.050799 -0.358395 -0.932187
vn -0.046299 -0.305791 -0.950972
vn -0.040201 -0.235604 -0.971017
vn -0.034500 -0.171302 -0.984614
vn 0.375913 0.020301 0.926432
vn 0.375913 0.020301 0.926432
vn 0.375913 0.020301 0.926432
vn -0.891597 -0.098900 -0.441898
vn -0.891597 -0.098900 -0.441898
vn -0.891597 -0.098900 -0.441898
vn -0.265592 0.894474 0.359690
vn -0.265592 0.894474 0.359690
vn -0.265592 0.894474 0.359690
vn -0.517600 0.807501 -0.282900
vn -0.517600 0.807501 -0.282900
vn -0.517600 0.807501 -0.282900
vn 0.322081 0.654362 0.684160
vn 0.322081 0.654362 0.684160
vn 0.322081 0.654362 0.684160
vn 0.789875 -0.469885 -0.394088
vn 0.819918 -0.463210 -0.336408
vn 0.455493 -0.722589 -0.519992
vn 0.383199 -0.723898 -0.573699
vn 0.886617 -0.173303 -0.428808
vn -0.612425 0.148106 0.776531
vn -0.368603 -0.568604 0.735405
vn 0.050901 -0.634413 0.771316
vn 0.520907 -0.072701 0.850512
vn -0.099003 0.779427 0.618621
vn -0.893547 -0.336418 -0.297316
vn -0.893547 -0.336418 -0.297316
vn -0.893547 -0.336418 -0.297316
vn -0.000900 0.876888 -0.480694
vn -0.099003 0.779427 0.618621
vn 0.127201 0.872209 -0.472305
vn -0.111695 0.869257 -0.481576
vn 0.520907 -0.072701 0.850512
vn 0.448223 -0.209011 0.869144
vn -0.099003 0.779427 0.618621
vn 0.678400 -0.538400 0.499900
vn -0.612425 0.148106 0.776531
vn -0.099003 0.779427 0.618621
vn -0.698880 -0.187295 0.690280
vn -0.337585 0.008500 0.941257
vn -0.001300 0.067402 0.997725
vn -0.197204 -0.073301 0.977618
vn 0.000900 0.294304 0.955712
vn 0.115196 0.239391 0.964065
vn -0.014200 0.425398 0.904895
vn 0.412785 0.256491 0.873968
vn -0.442602 -0.148701 0.884303
vn -0.442602 -0.148701 0.884303
vn -0.368603 -0.568604 0.735405
vn -0.622796 -0.315398 0.715995
vn -0.626225 -0.429717 0.650526
vn -0.698880 -0.187295 0.690280
vn -0.832981 -0.364592 0.416191
vn -0.850085 -0.371393 0.373393
vn -0.929605 -0.110501 0.351602
vn 0.435302 0.898804 -0.051600
vn 0.281399 0.954996 0.093800
vn 0.590385 0.769580 -0.243294
vn 0.629000 0.676400 -0.383200
vn 0.616415 0.679016 -0.398710
vn -0.299007 0.306407 -0.903720
vn -0.167904 0.107503 -0.979924
vn -0.218404 0.114502 -0.969118
vn -0.355509 -0.275907 -0.893022
vn -0.186794 0.064698 -0.980266
vn -0.004200 0.306790 -0.951768
vn -0.186794 0.064698 -0.980266
vn -0.218404 0.114502 -0.969118
vn -0.167904 0.107503 -0.979924
vn 0.033801 0.840721 0.540413
vn 0.448223 -0.209011 0.869144
vn -0.007300 0.447122 0.894443
vn 0.033801 0.840721 0.540413
vn 0.168208 0.857039 0.487022
vn 0.168208 0.857039 0.487022
vn 0.259903 0.178402 0.949012
vn 0.328899 0.133399 0.934896
vn 0.218499 0.114500 0.969096
vn 0.138298 0.168897 0.975883
vn 0.586505 0.688306 0.426904
vn 0.586505 0.688306 0.426904
vn 0.586505 0.688306 0.426904
vn 0.785118 -0.578113 -0.222205
vn 0.785118 -0.578113 -0.222205
vn 0.785118 -0.578113 -0.222205
vn 0.033801 0.840721 0.540413
vn -0.007300 0.447122 0.894443
vn -0.208596 0.922882 0.323693
usemtl material
f 1/0/1 2/0/2 3/0/3
f 4/0/4 3/0/3 2/0/2
f 4/0/4 2/0/2 5/0/5
f 6/0/6 7/0/7 8/0/8
f 7/0/7 6/0/6 9/0/9
f 10/0/10 11/0/11 12/0/12
f 11/0/11 10/0/10 13/0/13
f 11/0/11 13/0/13 14/0/14
f 15/0/15 16/0/16 17/0/17
f 15/0/15 17/0/17 18/0/18
f 19/0/19 20/0/20 21/0/21
f 19/0/19 21/0/21 22/0/22
f 23/0/23 24/0/24 25/0/25
f 26/0/26 27/0/27 28/0/28
f 29/0/29 30/0/30 31/0/31
f 32/0/32 30/0/30 29/0/29
f 33/0/33 34/0/34 35/0/35
f 36/0/36 33/0/33 35/0/35
f 37/0/37 36/0/36 35/0/35
f 35/0/35 38/0/38 37/0/37
f 39/0/39 40/0/40 41/0/41
f 42/0/42 43/0/43 44/0/44
f 45/0/45 42/0/42 44/0/44
f 45/0/45 44/0/44 46/0/46
f 47/0/47 48/0/48 49/0/49
f 48/0/48 50/0/50 49/0/49
f 49/0/49 50/0/50 51/0/51
f 52/0/52 53/0/53 54/0/54
f 52/0/52 55/0/55 53/0/53
f 53/0/53 55/0/55 56/0/56
f 57/0/57 58/0/58 59/0/59
f 57/0/57 59/0/59 60/0/60
f 61/0/61 62/0/62 63/0/63
f 64/0/64 65/0/65 66/0/66
f 67/0/67 68/0/68 69/0/69
f 67/0/67 69/0/69 70/0/70
f 71/0/71 72/0/72 73/0/73
f 72/0/72 74/0/74 73/0/73
f 72/0/72 75/0/75 74/0/74
f 76/0/76 77/0/77 78/0/78
f 76/0/76 79/0/79 77/0/77
f 77/0/77 79/0/79 80/0/80
f 81/0/81 82/0/82 83/0/83
f 81/0/81 83/0/83 84/0/84
f 82/0/82 81/0/81 85/0/85
f 86/0/86 87/0/87 88/0/88
f 88/0/88 89/0/89 86/0/86
f 90/0/90 91/0/91 92/0/92
f 90/0/90 92/0/92 93/0/93
f 91/0/91 94/0/94 92/0/92
f 95/0/95 96/0/96 97/0/97
f 95/0/95 98/0/98 96/0/96
f 99/0/99 100/0/100 101/0/101
f 102/0/102 103/0/103 104/0/104
f 104/0/104 103/0/103 105/0/105
f 106/0/106 107/0/107 108/0/108
f 109/0/109 110/0/110 111/0/111
f 112/0/112 113/0/113 114/0/114
f 112/0/112 114/0/114 115/0/115
f 115/0/115 116/0/116 112/0/112
f 117/0/117 118/0/118 119/0/119
f 117/0/117 119/0/119 120/0/120
f 120/0/120 121/0/121 117/0/117
f 122/0/122 123/0/123 124/0/124
f 124/0/124 123/0/123 125/0/125
f 123/0/123 126/0/126 125/0/125
f 127/0/127 128/0/128 129/0/129
f 130/0/130 127/0/127 129/0/129
f 130/0/130 131/0/131 127/0/127
f 132/0/132 133/0/133 134/0/134
f 133/0/133 135/0/135 134/0/134
f 136/0/136 137/0/137 138/0/138
f 139/0/139 140/0/140 141/0/141
f 142/0/142 143/0/143 144/0/144
f 145/0/145 146/0/146 147/0/147
f 148/0/148 149/0/149 150/0/150
f 151/0/151 152/0/152 153/0/153
f 151/0/151 153/0/153 154/0/154
f 151/0/151 155/0/155 152/0/152
f 156/0/156 157/0/157 158/0/158
f 156/0/156 158/0/158 159/0/159
f 156/0/156 159/0/159 160/0/160
f 161/0/161 162/0/162 163/0/163
f 164/0/164 165/0/165 166/0/166
f 165/0/165 164/0/164 167/0/167
f 168/0/168 169/0/169 170/0/170
f 171/0/171 169/0/169 168/0/168
f 172/0/172 173/0/173 174/0/174
f 175/0/175 176/0/176 177/0/177
f 176/0/176 178/0/178 177/0/177
f 176/0/176 179/0/179 178/0/178
f 178/0/178 179/0/179 180/0/180
f 179/0/179 176/0/176 181/0/181
f 182/0/182 183/0/183 184/0/184
f 185/0/185 186/0/186 187/0/187
f 185/0/185 187/0/187 188/0/188
f 185/0/185 188/0/188 189/0/189
f 190/0/190 189/0/189 188/0/188
f 191/0/191 192/0/192 193/0/193
f 194/0/194 191/0/191 193/0/193
f 194/0/194 193/0/193 195/0/195
f 196/0/196 197/0/197 198/0/198
f 199/0/199 198/0/198 200/0/200
f 201/0/201 202/0/202 203/0/203
f 201/0/201 203/0/203 204/0/204
f 205/0/205 206/0/206 207/0/207
f 208/0/208 209/0/209 210/0/210
f 211/0/211 212/0/212 213/0/213
f 211/0/211 213/0/213 214/0/214
f 215/0/215 216/0/216 217/0/217
f 218/0/218 219/0/219 220/0/220
f 221/0/221 222/0/222 223/0/223
