# 
# Wavefront OBJ file
# Created with Kaydara FBX
# 
mtllib perpstage_cave_pebble03_02.mtl

g PerpStage_Cave_pebble03_02
v -1.444434 0.151399 -0.684570
v -1.180332 -0.584699 -0.440898
v -1.572051 -0.289900 -0.426172
v -1.110957 -1.873000 0.605898
v -0.684121 -1.991400 0.352031
v 0.223457 -0.838199 0.026406
v -0.430449 0.015399 -0.684492
v 0.126270 0.008200 -0.298164
v -0.096543 -1.063100 -0.266602
v -0.404434 1.270301 -1.114180
v -0.860449 1.199300 -0.616680
v -0.397832 2.093700 -1.030977
v -0.430449 0.015399 -0.684492
v -0.787246 -0.021600 0.062305
v -0.831621 -0.453100 -0.207578
v -0.932832 -0.335600 0.044414
v -0.787246 -0.021600 0.062305
v -0.430449 0.015399 -0.684492
v -0.588262 -1.030200 -0.174180
v -0.684121 -1.991400 0.352031
v -0.831621 -0.453100 -0.207578
v -0.430449 0.015399 -0.684492
v -0.831621 -0.453100 -0.207578
v -1.444434 0.151399 -0.684570
v -1.114238 -0.024100 -0.347383
v -0.430449 0.015399 -0.684492
v -0.096543 -1.063100 -0.266602
v -0.588262 -1.030200 -0.174180
v -0.831621 -0.453100 -0.207578
v -1.180332 -0.584699 -0.440898
v -1.444434 0.151399 -0.684570
v -0.684121 -1.991400 0.352031
v -1.393535 -0.077500 -0.176992
v -1.444434 0.151399 -0.684570
v -1.572051 -0.289900 -0.426172
v -0.905332 -1.276600 0.868633
v -0.873730 -1.682999 1.013320
v -1.110957 -1.873000 0.605898
v -0.037637 1.272300 -0.565586
v -0.397832 2.093700 -1.030977
v -0.536465 1.319800 -0.181875
v -0.563848 -0.002800 0.500117
v 0.294863 -0.015500 0.216914
v -0.536465 1.319800 -0.181875
v -0.397832 2.093700 -1.030977
v -0.860449 1.199300 -0.616680
v -0.563848 -0.002800 0.500117
v -0.787246 -0.021600 0.062305
v -0.905332 -1.276600 0.868633
v -0.932832 -0.335600 0.044414
v -1.393535 -0.077500 -0.176992
v -1.114238 -0.024100 -0.347383
v -1.444434 0.151399 -0.684570
v 0.294863 -0.015500 0.216914
v 0.126270 0.008200 -0.298164
v -0.037637 1.272300 -0.565586
v 0.401270 -0.725000 0.331016
v 0.223457 -0.838199 0.026406
v -0.430449 0.015399 -0.684492
v -0.404434 1.270301 -1.114180
v -0.037637 1.272300 -0.565586
v 0.126270 0.008200 -0.298164
v -0.397832 2.093700 -1.030977
v -0.563848 -0.002800 0.500117
v -0.038145 0.243800 0.714609
v 0.294863 -0.015500 0.216914
v 0.223457 -0.838199 0.026406
v 0.289355 -1.921800 0.501211
v -0.015137 -2.093700 0.132617
v -0.096543 -1.063100 -0.266602
v -0.020137 -1.760000 0.848320
v 1.278769 -0.634300 0.209609
v 0.401270 -0.725000 0.331016
v 1.078379 -0.213399 -0.234297
v 1.620644 -0.221600 -0.535586
v 0.223457 -0.838199 0.026406
v 1.082871 -0.978200 -0.527891
v 0.289355 -1.921800 0.501211
v 1.035371 -0.479200 -0.481680
v 1.620644 -0.221600 -0.535586
v 1.078379 -0.213399 -0.234297
v 1.035371 -0.479200 -0.481680
v 0.223457 -0.838199 0.026406
v 0.401270 -0.725000 0.331016
v 1.082871 -0.978200 -0.527891
v 1.620644 -0.221600 -0.535586
v 1.429238 -0.908499 -0.123008
v 0.289355 -1.921800 0.501211
v 0.289355 -1.921800 0.501211
v 1.429238 -0.908499 -0.123008
v 1.278769 -0.634300 0.209609
v -0.020137 -1.760000 0.848320
v 1.429238 -0.908499 -0.123008
v 1.620644 -0.221600 -0.535586
v 1.278769 -0.634300 0.209609
v 0.294863 -0.015500 0.216914
v 0.590879 -0.225999 0.577734
v 0.401270 -0.725000 0.331016
v 0.532949 0.582400 0.558633
v -0.038145 0.243800 0.714609
v 0.532949 0.582400 0.558633
v 0.294863 -0.015500 0.216914
v 1.035371 -0.479200 -0.481680
v 1.078379 -0.213399 -0.234297
v 1.620644 -0.221600 -0.535586
v -0.015332 -0.200899 1.077305
v -0.444121 -1.501001 1.403633
v 0.590879 -0.225999 0.577734
v -0.020137 -1.760000 0.848320
v 0.590879 -0.225999 0.577734
v 0.532949 0.582400 0.558633
v -0.015332 -0.200899 1.077305
v -0.038145 0.243800 0.714609
v -0.015332 -0.200899 1.077305
v 0.532949 0.582400 0.558633
v -0.065527 -1.237900 -0.831875
v -0.015137 -2.093700 0.132617
v -0.684121 -1.991400 0.352031
v -0.741348 -1.260800 -0.881094
v -0.439043 -0.387201 -1.640898
v -0.123262 -0.679000 -0.765469
v -0.096543 -1.063100 -0.266602
v -0.015137 -2.093700 0.132617
v -0.065527 -1.237900 -0.831875
v -0.439043 -0.387201 -1.640898
v -0.588262 -1.030200 -0.174180
v -0.723340 -0.675200 -0.757383
v -0.684121 -1.991400 0.352031
v -0.741348 -1.260800 -0.881094
v -0.439043 -0.387201 -1.640898
v -0.123262 -0.679000 -0.765469
v -0.439043 -0.387201 -1.640898
v -0.723340 -0.675200 -0.757383
v -0.588262 -1.030200 -0.174180
v -0.096543 -1.063100 -0.266602
v -0.015137 -2.093700 0.132617
v 0.030762 -1.261100 -0.737188
v 0.602051 -1.365999 -0.712187
v 0.647871 -0.670300 -1.200781
v 0.289355 -1.921800 0.501211
v 0.728457 -1.074500 -0.314102
v 0.223457 -0.838199 0.026406
v -0.096543 -1.031400 -0.281289
v 0.030762 -1.261100 -0.737188
v -0.015137 -2.093700 0.132617
v 0.223457 -0.838199 0.026406
v 0.647871 -0.670300 -1.200781
v -0.096543 -1.031400 -0.281289
v -0.096543 -1.031400 -0.281289
v 0.647871 -0.670300 -1.200781
v 0.030762 -1.261100 -0.737188
v 0.728457 -1.074500 -0.314102
v 0.647871 -0.670300 -1.200781
v 0.223457 -0.838199 0.026406
v 0.602051 -1.365999 -0.712187
v 0.728457 -1.074500 -0.314102
v 0.289355 -1.921800 0.501211
v -0.015137 -2.093700 0.132617
v 0.647871 -0.670300 -1.200781
v -1.089121 -0.005700 1.594102
v -0.676543 -1.599599 1.192227
v -0.444121 -1.501001 1.403633
v -0.253730 0.016100 1.640898
v -0.701035 0.725100 1.545117
v -0.676543 -1.599599 1.192227
v -1.089121 -0.005700 1.594102
v -0.977324 -0.265400 0.901914
v -0.682949 -0.003199 1.010703
v -0.701035 0.725100 1.545117
v -0.015332 -0.200899 1.077305
v -0.977324 -0.265400 0.901914
v -0.253730 0.016100 1.640898
v -0.015332 -0.200899 1.077305
v -0.701035 0.725100 1.545117
v -0.444121 -1.501001 1.403633
v -1.089121 -0.005700 1.594102
v -0.701035 0.725100 1.545117
v -0.977324 -0.265400 0.901914
v -0.682949 -0.003199 1.010703
v -0.882949 0.081400 0.811406
v -0.977324 -0.265400 0.901914
v -1.529121 0.793700 0.430430
v -1.056621 0.973400 0.235898
v -1.617832 1.212600 -0.075898
v -0.563848 -0.002800 0.500117
v -0.905332 -1.276600 0.868633
v -0.873730 -1.682999 1.013320
v -0.676543 -1.599599 1.192227
v -0.905332 -1.276600 0.868633
v -0.676543 -1.599599 1.192227
v -0.977324 -0.265400 0.901914
v -1.529121 0.793700 0.430430
v -1.620644 0.486701 0.005703
v -1.617832 1.212600 -0.075898
v -1.255137 0.918001 -0.272188
v -1.617832 1.212600 -0.075898
v -1.056621 0.973400 0.235898
v -0.787246 -0.021600 0.062305
v -0.563848 -0.002800 0.500117
v -1.617832 1.212600 -0.075898
v -1.255137 0.918001 -0.272188
v -1.620644 0.486701 0.005703
v -0.905332 -1.276600 0.868633
v -0.932832 -0.335600 0.044414
v -0.787246 -0.021600 0.062305
v -0.932832 -0.335600 0.044414
v -1.620644 0.486701 0.005703
v -1.255137 0.918001 -0.272188
v -0.682949 -0.003199 1.010703
v -0.015332 -0.200899 1.077305
v -0.038145 0.243800 0.714609
v -0.038145 0.243800 0.714609
v -0.563848 -0.002800 0.500117
v -0.682949 -0.003199 1.010703
v -0.563848 -0.002800 0.500117
v -0.882949 0.081400 0.811406
v -0.932832 -0.335600 0.044414
v -0.831621 -0.453100 -0.207578
v -1.114238 -0.024100 -0.347383
v -0.020137 -1.760000 0.848320
v 0.401270 -0.725000 0.331016
v 0.590879 -0.225999 0.577734
vt 0.780000 0.714300
vt 0.781300 0.630900
vt 0.752200 0.668100
vt 0.721600 0.471700
vt 0.767800 0.459000
vt 0.873700 0.630700
vt 0.798300 0.735500
vt 0.861100 0.723400
vt 0.829900 0.616700
vt 0.722700 0.677500
vt 0.657100 0.655800
vt 0.691500 0.739400
vt 0.729100 0.570000
vt 0.649500 0.542400
vt 0.689300 0.515400
vt 0.658200 0.515800
vt 0.649500 0.542400
vt 0.729100 0.570000
vt 0.730300 0.474800
vt 0.732400 0.385600
vt 0.689300 0.515400
vt 0.729100 0.570000
vt 0.767400 0.578100
vt 0.749300 0.673400
vt 0.769200 0.630100
vt 0.798300 0.735500
vt 0.829900 0.616700
vt 0.782900 0.615900
vt 0.767400 0.578100
vt 0.728600 0.593100
vt 0.749300 0.673400
vt 0.700400 0.418600
vt 0.832200 0.433900
vt 0.809000 0.383700
vt 0.797200 0.436300
vt 0.859900 0.600500
vt 0.849700 0.643700
vt 0.802800 0.634900
vt 0.763900 0.592500
vt 0.807100 0.685700
vt 0.818400 0.568900
vt 0.793000 0.418000
vt 0.711900 0.443500
vt 0.835100 0.536600
vt 0.855100 0.652200
vt 0.886300 0.546500
vt 0.838800 0.383700
vt 0.881300 0.402900
vt 0.892800 0.497900
vt 0.795300 0.585300
vt 0.797200 0.642100
vt 0.769200 0.630100
vt 0.749300 0.673400
vt 0.984900 0.478200
vt 0.943100 0.509100
vt 0.983200 0.636400
vt 0.960000 0.408300
vt 0.926200 0.416900
vt 0.888900 0.543300
vt 0.932100 0.672900
vt 0.983200 0.636400
vt 0.943100 0.509100
vt 0.982400 0.739400
vt 0.793000 0.418000
vt 0.741800 0.390000
vt 0.711900 0.443500
vt 0.964300 0.509300
vt 0.922500 0.395000
vt 0.878000 0.411900
vt 0.919200 0.518000
vt 0.821700 0.511400
vt 0.708800 0.652000
vt 0.790200 0.632800
vt 0.730600 0.713200
vt 0.677400 0.737300
vt 0.750900 0.623500
vt 0.845100 0.649200
vt 0.776100 0.503100
vt 0.820000 0.692500
vt 0.854900 0.741500
vt 0.799200 0.719700
vt 0.820000 0.692500
vt 0.750900 0.623500
vt 0.726400 0.648900
vt 0.830900 0.514600
vt 0.829000 0.609000
vt 0.873200 0.540400
vt 0.942900 0.393800
vt 0.942900 0.393800
vt 0.873200 0.540400
vt 0.910000 0.560800
vt 0.990800 0.391900
vt 0.873200 0.540400
vt 0.829000 0.609000
vt 0.910000 0.560800
vt 0.888400 0.697700
vt 0.918100 0.657300
vt 0.870500 0.625700
vt 0.949000 0.733500
vt 0.728200 0.671200
vt 0.752800 0.732300
vt 0.789400 0.672300
vt 0.820000 0.692500
vt 0.799200 0.719700
vt 0.854900 0.741500
vt 0.934000 0.581000
vt 0.877400 0.449500
vt 0.881300 0.633100
vt 0.813700 0.478000
vt 0.886200 0.556000
vt 0.925700 0.628100
vt 0.952100 0.522100
vt 0.968900 0.578400
vt 0.952100 0.522100
vt 0.925700 0.628100
vt 0.929400 0.623600
vt 0.957800 0.495800
vt 0.894300 0.475500
vt 0.866300 0.616200
vt 0.878100 0.737300
vt 0.836900 0.539400
vt 0.859700 0.480000
vt 0.844400 0.367200
vt 0.805400 0.492100
vt 0.777100 0.613600
vt 0.816200 0.595800
vt 0.862800 0.644300
vt 0.805200 0.480500
vt 0.895500 0.597000
vt 0.913400 0.718700
vt 0.824400 0.681800
vt 0.913400 0.718700
vt 0.862800 0.644300
vt 0.816200 0.595800
vt 0.780400 0.630600
vt 0.804500 0.544700
vt 0.797200 0.667000
vt 0.851700 0.662600
vt 0.846400 0.749700
vt 0.795100 0.418400
vt 0.730500 0.526100
vt 0.788100 0.543800
vt 0.709300 0.473600
vt 0.747900 0.504300
vt 0.791600 0.389800
vt 0.664000 0.476900
vt 0.711700 0.593500
vt 0.709300 0.473600
vt 0.709300 0.473600
vt 0.711700 0.593500
vt 0.747900 0.504300
vt 0.730500 0.526100
vt 0.670800 0.600700
vt 0.788100 0.543800
vt 0.686800 0.509000
vt 0.730500 0.526100
vt 0.795100 0.418400
vt 0.752200 0.393100
vt 0.670800 0.600700
vt 0.807000 0.589000
vt 0.710000 0.379800
vt 0.664200 0.405900
vt 0.717000 0.626800
vt 0.813700 0.699700
vt 0.710000 0.379800
vt 0.807000 0.589000
vt 0.872100 0.528000
vt 0.911900 0.618200
vt 0.940500 0.700000
vt 0.968300 0.583600
vt 0.875900 0.602800
vt 0.717000 0.626800
vt 0.633500 0.633300
vt 0.813700 0.699700
vt 0.664200 0.405900
vt 0.807000 0.589000
vt 0.813700 0.699700
vt 0.872100 0.528000
vt 0.684900 0.549400
vt 0.694300 0.575300
vt 0.718100 0.547100
vt 0.729500 0.672800
vt 0.679600 0.685500
vt 0.718200 0.739200
vt 0.652300 0.577800
vt 0.788000 0.521400
vt 0.782000 0.477400
vt 0.756100 0.481300
vt 0.777200 0.482400
vt 0.785300 0.430200
vt 0.691700 0.541900
vt 0.636500 0.661400
vt 0.684200 0.671400
vt 0.644000 0.731400
vt 0.856000 0.433800
vt 0.820600 0.466400
vt 0.885800 0.476300
vt 0.964600 0.408300
vt 0.994600 0.444000
vt 0.644000 0.731400
vt 0.695200 0.731600
vt 0.684200 0.671400
vt 0.777200 0.482400
vt 0.769000 0.611100
vt 0.773300 0.648000
vt 0.769000 0.611100
vt 0.684200 0.671400
vt 0.695200 0.731600
vt 0.754200 0.428400
vt 0.735600 0.376900
vt 0.635800 0.445200
vt 0.759600 0.445200
vt 0.765400 0.490600
vt 0.684900 0.549400
vt 0.652300 0.577800
vt 0.694300 0.575300
vt 0.795300 0.585300
vt 0.767400 0.578100
vt 0.769200 0.630100
vt 0.850900 0.501900
vt 0.870500 0.625700
vt 0.918100 0.657300
vn -0.174806 -0.420214 -0.890429
vn 0.054201 -0.388108 -0.920019
vn -0.974254 -0.109295 -0.197191
vn -0.877699 -0.478799 0.019900
vn -0.189687 -0.522065 -0.831545
vn 0.530699 -0.186000 -0.826899
vn -0.107803 -0.086202 -0.990428
vn 0.662260 -0.058896 -0.746955
vn 0.456121 -0.157107 -0.875940
vn -0.473284 -0.071898 -0.877971
vn -0.529294 -0.228497 -0.817091
vn -0.482403 0.095701 -0.870706
vn -0.570921 -0.372914 -0.731427
vn -0.641989 -0.429992 -0.634789
vn -0.538806 0.120901 -0.833709
vn -0.526401 0.526001 -0.668001
vn -0.601035 0.508930 -0.616236
vn -0.107803 -0.086202 -0.990428
vn -0.373709 -0.364509 -0.852921
vn -0.189687 -0.522065 -0.831545
vn -0.538806 0.120901 -0.833709
vn -0.107803 -0.086202 -0.990428
vn 0.498921 0.408317 -0.764432
vn 0.498921 0.408317 -0.764432
vn 0.498921 0.408317 -0.764432
vn -0.098901 -0.412204 -0.905708
vn -0.098901 -0.412204 -0.905708
vn -0.098901 -0.412204 -0.905708
vn 0.345805 -0.211703 -0.914112
vn 0.054201 -0.388108 -0.920019
vn -0.633292 0.764490 -0.120398
vn -0.189687 -0.522065 -0.831545
vn -0.666215 0.341808 0.662815
vn -0.633292 0.764490 -0.120398
vn -0.974254 -0.109295 -0.197191
vn -0.622800 0.016800 0.782200
vn -0.647915 0.126603 0.751118
vn -0.877699 -0.478799 0.019900
vn 0.259909 0.562719 0.784726
vn 0.298291 0.654980 0.694279
vn 0.328908 0.516012 0.790918
vn 0.218494 0.513386 0.829877
vn 0.138297 0.565486 0.813080
vn -0.530596 0.561696 0.634795
vn -0.472822 0.722633 0.504223
vn -0.551591 0.538391 0.637089
vn -0.636040 0.332921 0.696144
vn -0.674895 0.295198 0.676295
vn 0.003800 0.658967 0.752162
vn 0.024999 0.700861 0.712860
vn 0.042398 0.843865 0.534878
vn 0.076699 0.851694 0.518396
vn 0.036200 0.913690 0.404796
vn 0.720701 0.102000 -0.685701
vn 0.662260 -0.058896 -0.746955
vn 0.834389 0.101799 -0.541693
vn 0.656989 -0.004400 -0.753887
vn 0.530699 -0.186000 -0.826899
vn 0.428294 -0.184097 -0.884688
vn 0.595898 -0.104000 -0.796297
vn 0.512695 -0.133099 -0.848191
vn 0.324901 -0.114400 -0.938803
vn 0.597277 0.071197 -0.798869
vn -0.084000 0.833301 -0.546401
vn -0.084000 0.833301 -0.546401
vn -0.084000 0.833301 -0.546401
vn 0.530699 -0.186000 -0.826899
vn 0.553615 -0.276808 -0.785422
vn 0.526513 -0.268306 -0.806719
vn 0.456121 -0.157107 -0.875940
vn 0.041000 0.419796 0.906692
vn 0.090500 0.724601 0.683201
vn 0.036398 0.473476 0.880055
vn 0.077705 0.757546 0.648140
vn 0.170600 0.787299 0.592499
vn -0.313303 -0.347704 -0.883710
vn -0.220003 -0.039200 -0.974711
vn -0.309805 -0.413007 -0.856415
vn -0.184394 0.055798 -0.981267
vn -0.063399 0.079998 -0.994777
vn -0.268486 0.734560 -0.623166
vn -0.283610 0.700925 -0.654423
vn -0.353996 0.930790 -0.091199
vn -0.336997 0.940491 0.043700
vn 0.339504 -0.832610 -0.437605
vn 0.438295 -0.629592 -0.641492
vn 0.400582 -0.724768 -0.560575
vn 0.296790 -0.886470 -0.355088
vn 0.377786 -0.390386 0.839569
vn 0.640397 -0.197199 0.742297
vn 0.538081 -0.332888 0.774373
vn 0.455191 -0.273394 0.847382
vn 0.640397 -0.197199 0.742297
vn 0.738606 -0.006600 0.674105
vn 0.538081 -0.332888 0.774373
vn 0.720701 0.102000 -0.685701
vn 0.993903 0.044900 0.100700
vn 0.656989 -0.004400 -0.753887
vn 0.534183 0.056598 -0.843472
vn -0.286606 0.637213 -0.715414
vn 0.249686 0.775656 0.579667
vn -0.286606 0.637213 -0.715414
vn -0.283610 0.700925 -0.654423
vn -0.268486 0.734560 -0.623166
vn -0.185997 0.700990 -0.688490
vn 0.448221 0.177908 0.876040
vn 0.050898 -0.248992 0.967167
vn 0.993903 0.044900 0.100700
vn 0.455191 -0.273394 0.847382
vn 0.993903 0.044900 0.100700
vn 0.249686 0.775656 0.579667
vn 0.448221 0.177908 0.876040
vn -0.079302 0.625212 0.776415
vn -0.079302 0.625212 0.776415
vn -0.079302 0.625212 0.776415
vn -0.024799 -0.763879 -0.644883
vn -0.162895 -0.746377 -0.645280
vn -0.062900 -0.810897 -0.581798
vn 0.035801 -0.786525 -0.616520
vn 0.038301 -0.670720 -0.740721
vn 0.918075 0.223794 -0.327191
vn 0.986301 0.163700 0.020300
vn 0.982125 0.181605 0.049501
vn 0.971577 0.212995 -0.103298
vn 0.823903 0.231701 -0.517202
vn -0.669425 0.455017 0.587222
vn -0.967709 0.185102 -0.171102
vn -0.899890 0.248497 0.358396
vn -0.991747 0.081704 -0.098805
vn -0.852991 0.157498 -0.497595
vn 0.036102 0.876454 0.480130
vn 0.005100 0.949775 0.312892
vn 0.005700 0.904475 0.426488
vn 0.029799 0.838176 0.544585
vn 0.083102 0.793921 0.602316
vn -0.050799 -0.718779 -0.693380
vn -0.046299 -0.678989 -0.732687
vn -0.040199 -0.623885 -0.780481
vn -0.034501 -0.571422 -0.819931
vn 0.375993 0.409992 0.830985
vn 0.375993 0.409992 0.830985
vn 0.375993 0.409992 0.830985
vn -0.891594 -0.276398 -0.358698
vn -0.891594 -0.276398 -0.358698
vn -0.891594 -0.276398 -0.358698
vn -0.265595 0.962681 -0.051999
vn -0.265595 0.962681 -0.051999
vn -0.265595 0.962681 -0.051999
vn -0.517583 0.612280 -0.597680
vn -0.517583 0.612280 -0.597680
vn -0.517583 0.612280 -0.597680
vn 0.322097 0.882192 0.343497
vn 0.322097 0.882192 0.343497
vn 0.322097 0.882192 0.343497
vn 0.789887 -0.592390 -0.158597
vn 0.819907 -0.562005 -0.109101
vn 0.455476 -0.874655 -0.165891
vn 0.383203 -0.898508 -0.214102
vn 0.886635 -0.338313 -0.315312
vn -0.612405 0.462403 0.641205
vn -0.368598 -0.204599 0.906794
vn 0.050898 -0.248992 0.967167
vn 0.520889 0.293494 0.801583
vn -0.099003 0.967830 0.231307
vn -0.893555 -0.430526 -0.127308
vn -0.893555 -0.430526 -0.127308
vn -0.893555 -0.430526 -0.127308
vn -0.000900 0.591615 -0.806220
vn -0.099003 0.967830 0.231307
vn 0.127205 0.590925 -0.796634
vn -0.111701 0.584307 -0.803809
vn 0.520889 0.293494 0.801583
vn 0.448221 0.177908 0.876040
vn -0.099003 0.967830 0.231307
vn 0.678398 -0.276699 0.680598
vn -0.612405 0.462403 0.641205
vn -0.099003 0.967830 0.231307
vn -0.698869 0.121995 0.704769
vn -0.337591 0.405489 0.849477
vn -0.001300 0.482770 0.875746
vn -0.197195 0.346792 0.916978
vn 0.000900 0.670609 0.741810
vn 0.115206 0.624430 0.772538
vn -0.014200 0.767996 0.640297
vn 0.412797 0.601796 0.683696
vn -0.442593 0.238996 0.864287
vn -0.442593 0.238996 0.864287
vn -0.368598 -0.204599 0.906794
vn -0.622800 0.016800 0.782200
vn -0.626204 -0.114501 0.771205
vn -0.698869 0.121995 0.704769
vn -0.832953 -0.154510 0.531334
vn -0.850074 -0.178795 0.495385
vn -0.929593 0.048400 0.365397
vn 0.435299 0.792798 -0.426599
vn 0.281398 0.905193 -0.318498
vn 0.590392 0.594691 -0.545692
vn 0.629005 0.451004 -0.633205
vn 0.616412 0.446909 -0.648313
vn -0.299010 -0.104304 -0.948532
vn -0.167902 -0.316804 -0.933512
vn -0.218402 -0.305802 -0.926707
vn -0.355505 -0.627509 -0.692710
vn -0.186797 -0.355594 -0.915784
vn -0.004200 -0.124095 -0.992261
vn -0.186797 -0.355594 -0.915784
vn -0.218402 -0.305802 -0.926707
vn -0.167902 -0.316804 -0.933512
vn 0.033801 0.990336 0.134505
vn 0.448221 0.177908 0.876040
vn -0.007300 0.783252 0.621662
vn -0.007300 0.783252 0.621662
vn -0.208604 0.973218 -0.096602
vn 0.033801 0.990336 0.134505
vn 0.168194 0.982567 0.079197
vn 0.168194 0.982567 0.079197
vn 0.586513 0.804218 0.096102
vn 0.586513 0.804218 0.096102
vn 0.586513 0.804218 0.096102
vn 0.785136 -0.617828 0.043002
vn 0.785136 -0.617828 0.043002
vn 0.785136 -0.617828 0.043002
usemtl material
f 1/0/1 2/0/2 3/0/3
f 4/0/4 3/0/3 2/0/2
f 4/0/4 2/0/2 5/0/5
f 6/0/6 7/0/7 8/0/8
f 7/0/7 6/0/6 9/0/9
f 10/0/10 11/0/11 12/0/12
f 11/0/11 10/0/10 13/0/13
f 11/0/11 13/0/13 14/0/14
f 15/0/15 16/0/16 17/0/17
f 15/0/15 17/0/17 18/0/18
f 19/0/19 20/0/20 21/0/21
f 19/0/19 21/0/21 22/0/22
f 23/0/23 24/0/24 25/0/25
f 26/0/26 27/0/27 28/0/28
f 29/0/29 30/0/30 31/0/31
f 32/0/32 30/0/30 29/0/29
f 33/0/33 34/0/34 35/0/35
f 36/0/36 33/0/33 35/0/35
f 37/0/37 36/0/36 35/0/35
f 35/0/35 38/0/38 37/0/37
f 39/0/39 40/0/40 41/0/41
f 39/0/39 41/0/41 42/0/42
f 39/0/39 42/0/42 43/0/43
f 44/0/44 45/0/45 46/0/46
f 47/0/47 44/0/44 46/0/46
f 47/0/47 46/0/46 48/0/48
f 49/0/49 50/0/50 51/0/51
f 50/0/50 52/0/52 51/0/51
f 51/0/51 52/0/52 53/0/53
f 54/0/54 55/0/55 56/0/56
f 54/0/54 57/0/57 55/0/55
f 55/0/55 57/0/57 58/0/58
f 59/0/59 60/0/60 61/0/61
f 59/0/59 61/0/61 62/0/62
f 60/0/60 63/0/63 61/0/61
f 64/0/64 65/0/65 66/0/66
f 67/0/67 68/0/68 69/0/69
f 67/0/67 69/0/69 70/0/70
f 71/0/71 72/0/72 73/0/73
f 72/0/72 74/0/74 73/0/73
f 72/0/72 75/0/75 74/0/74
f 76/0/76 77/0/77 78/0/78
f 76/0/76 79/0/79 77/0/77
f 77/0/77 79/0/79 80/0/80
f 81/0/81 82/0/82 83/0/83
f 81/0/81 83/0/83 84/0/84
f 85/0/85 86/0/86 87/0/87
f 87/0/87 88/0/88 85/0/85
f 89/0/89 90/0/90 91/0/91
f 89/0/89 91/0/91 92/0/92
f 93/0/93 94/0/94 95/0/95
f 96/0/96 97/0/97 98/0/98
f 96/0/96 99/0/99 97/0/97
f 100/0/100 101/0/101 102/0/102
f 103/0/103 104/0/104 105/0/105
f 106/0/106 107/0/107 108/0/108
f 108/0/108 107/0/107 109/0/109
f 110/0/110 111/0/111 112/0/112
f 113/0/113 114/0/114 115/0/115
f 116/0/116 117/0/117 118/0/118
f 116/0/116 118/0/118 119/0/119
f 119/0/119 120/0/120 116/0/116
f 121/0/121 122/0/122 123/0/123
f 121/0/121 123/0/123 124/0/124
f 124/0/124 125/0/125 121/0/121
f 126/0/126 127/0/127 128/0/128
f 128/0/128 127/0/127 129/0/129
f 127/0/127 130/0/130 129/0/129
f 131/0/131 132/0/132 133/0/133
f 134/0/134 131/0/131 133/0/133
f 134/0/134 135/0/135 131/0/131
f 136/0/136 137/0/137 138/0/138
f 137/0/137 139/0/139 138/0/138
f 140/0/140 141/0/141 142/0/142
f 143/0/143 144/0/144 145/0/145
f 146/0/146 147/0/147 148/0/148
f 149/0/149 150/0/150 151/0/151
f 152/0/152 153/0/153 154/0/154
f 155/0/155 156/0/156 157/0/157
f 155/0/155 157/0/157 158/0/158
f 155/0/155 159/0/159 156/0/156
f 160/0/160 161/0/161 162/0/162
f 160/0/160 162/0/162 163/0/163
f 160/0/160 163/0/163 164/0/164
f 165/0/165 166/0/166 167/0/167
f 168/0/168 169/0/169 170/0/170
f 169/0/169 168/0/168 171/0/171
f 172/0/172 173/0/173 174/0/174
f 175/0/175 173/0/173 172/0/172
f 176/0/176 177/0/177 178/0/178
f 179/0/179 180/0/180 181/0/181
f 180/0/180 182/0/182 181/0/181
f 180/0/180 183/0/183 182/0/182
f 182/0/182 183/0/183 184/0/184
f 183/0/183 180/0/180 185/0/185
f 186/0/186 187/0/187 188/0/188
f 189/0/189 190/0/190 191/0/191
f 189/0/189 191/0/191 192/0/192
f 189/0/189 192/0/192 193/0/193
f 194/0/194 193/0/193 192/0/192
f 195/0/195 196/0/196 197/0/197
f 198/0/198 195/0/195 197/0/197
f 198/0/198 197/0/197 199/0/199
f 200/0/200 201/0/201 202/0/202
f 203/0/203 202/0/202 204/0/204
f 205/0/205 206/0/206 207/0/207
f 205/0/205 207/0/207 208/0/208
f 209/0/209 210/0/210 211/0/211
f 209/0/209 212/0/212 213/0/213
f 214/0/214 215/0/215 216/0/216
f 217/0/217 218/0/218 219/0/219
f 220/0/220 221/0/221 222/0/222
