# 
# Wavefront OBJ file
# Created with Kaydara FBX
# 
mtllib perpstage_cave_pebble02_11.mtl

g PerpStage_Cave_pebble02_11
v -600.872437 2.180500 46.675594
v -600.883728 1.586800 46.224998
v -601.062622 1.746500 46.601395
v -601.011963 0.109700 45.928902
v -600.810913 0.220100 45.524895
v -599.768921 1.103000 45.601002
v -600.152649 2.097300 46.091099
v -599.612244 1.816000 45.995300
v -600.190735 1.184600 45.486401
v -599.774841 3.116900 46.615696
v -599.997070 2.725900 47.038799
v -599.422668 3.526800 47.140301
v -600.152649 2.097300 46.091099
v -600.209412 1.548300 46.604599
v -600.494690 1.494200 46.241497
v -600.448425 1.382900 46.482300
v -600.209412 1.548300 46.604599
v -600.152649 2.097300 46.091099
v -600.524353 1.140500 45.794598
v -600.810913 0.220100 45.524895
v -600.494690 1.494200 46.241497
v -600.872437 2.180500 46.675594
v -600.585632 1.839400 46.569199
v -600.152649 2.097300 46.091099
v -600.190735 1.184600 45.486401
v -600.524353 1.140500 45.794598
v -600.494690 1.494200 46.241497
v -600.883728 1.586800 46.224998
v -600.872437 2.180500 46.675594
v -600.810913 0.220100 45.524895
v -600.766968 1.689600 46.757996
v -600.872437 2.180500 46.675594
v -601.062622 1.746500 46.601395
v -599.325867 2.726700 46.697601
v -599.422668 3.526800 47.140301
v -599.569458 2.484200 47.157700
v -599.897095 1.247000 46.714500
v -599.334595 1.436100 46.144398
v -599.569458 2.484200 47.157700
v -599.422668 3.526800 47.140301
v -599.997070 2.725900 47.038799
v -599.897095 1.247000 46.714500
v -600.209412 1.548300 46.604599
v -600.541626 0.261800 46.306099
v -600.448425 1.382900 46.482300
v -600.766968 1.689600 46.757996
v -600.585632 1.839400 46.569199
v -600.872437 2.180500 46.675594
v -600.766968 1.689600 46.757996
v -601.062622 1.746500 46.601395
v -601.011963 0.109700 45.928902
v -600.631714 -0.072500 46.118999
v -600.541626 0.261800 46.306099
v -599.334595 1.436100 46.144398
v -599.612244 1.816000 45.995300
v -599.325867 2.726700 46.697601
v -599.495544 0.950400 45.725800
v -599.768921 1.103000 45.601002
v -600.152649 2.097300 46.091099
v -599.774841 3.116900 46.615696
v -599.325867 2.726700 46.697601
v -599.612244 1.816000 45.995300
v -599.422668 3.526800 47.140301
v -599.897095 1.247000 46.714500
v -599.334106 1.232400 46.702202
v -599.334595 1.436100 46.144398
v -599.768921 1.103000 45.601002
v -599.995850 0.148500 45.153797
v -600.408447 0.313900 45.026497
v -600.190735 1.184600 45.486401
v -600.061829 -0.004000 45.570000
v -598.828491 1.083300 45.285198
v -599.495544 0.950400 45.725800
v -598.953430 1.639200 45.421394
v -598.635925 1.845400 45.002499
v -599.768921 1.103000 45.601002
v -599.338989 1.411900 44.825199
v -599.995850 0.148500 45.153797
v -599.166016 1.663600 45.166599
v -598.953430 1.639200 45.421394
v -599.166016 1.663600 45.166599
v -599.768921 1.103000 45.601002
v -599.495544 0.950400 45.725800
v -598.635925 1.845400 45.002499
v -599.338989 1.411900 44.825199
v -598.635925 1.845400 45.002499
v -598.923218 1.162300 44.888500
v -599.995850 0.148500 45.153797
v -599.995850 0.148500 45.153797
v -598.923218 1.162300 44.888500
v -598.828491 1.083300 45.285198
v -600.061829 -0.004000 45.570000
v -598.635925 1.845400 45.002499
v -599.334595 1.436100 46.144398
v -599.080200 1.058500 46.045601
v -599.495544 0.950400 45.725800
v -598.814514 1.532800 46.544197
v -599.334106 1.232400 46.702202
v -598.814514 1.532800 46.544197
v -599.334595 1.436100 46.144398
v -599.338989 1.411900 44.825199
v -599.166016 1.663600 45.166599
v -598.635925 1.845400 45.002499
v -599.378906 0.721500 46.601299
v -600.113220 -0.248200 46.200397
v -599.080200 1.058500 46.045601
v -600.061829 -0.004000 45.570000
v -599.080200 1.058500 46.045601
v -598.814514 1.532800 46.544197
v -599.378906 0.721500 46.601299
v -599.334106 1.232400 46.702202
v -599.378906 0.721500 46.601299
v -598.814514 1.532800 46.544197
v -600.409180 1.486100 45.096298
v -600.408447 0.313900 45.026497
v -600.810913 0.220100 45.524895
v -600.948425 1.511600 45.395096
v -600.610474 2.546800 45.398201
v -600.214539 1.757600 45.488094
v -600.190735 1.184600 45.486401
v -600.408447 0.313900 45.026497
v -600.409180 1.486100 45.096298
v -600.610474 2.546800 45.398201
v -600.524353 1.140500 45.794598
v -600.668030 1.757300 45.792500
v -600.810913 0.220100 45.524895
v -600.948425 1.511600 45.395096
v -600.668030 1.757300 45.792500
v -600.610474 2.546800 45.398201
v -600.948425 1.511600 45.395096
v -600.214539 1.757600 45.488094
v -600.610474 2.546800 45.398201
v -600.668030 1.757300 45.792500
v -600.524353 1.140500 45.794598
v -600.190735 1.184600 45.486401
v -600.408447 0.313900 45.026497
v -600.315735 1.405100 45.080101
v -599.913513 1.324500 44.745995
v -599.757202 2.067300 44.901199
v -599.995850 0.148500 45.153797
v -599.580933 1.207300 45.046795
v -599.768921 1.103000 45.601002
v -600.182922 1.213100 45.498100
v -600.315735 1.405100 45.080101
v -600.408447 0.313900 45.026497
v -599.768921 1.103000 45.601002
v -599.757202 2.067300 44.901199
v -600.182922 1.213100 45.498100
v -600.182922 1.213100 45.498100
v -599.757202 2.067300 44.901199
v -600.315735 1.405100 45.080101
v -599.580933 1.207300 45.046795
v -599.757202 2.067300 44.901199
v -599.768921 1.103000 45.601002
v -599.913513 1.324500 44.745995
v -599.580933 1.207300 45.046795
v -599.995850 0.148500 45.153797
v -600.408447 0.313900 45.026497
v -599.913513 1.324500 44.745995
v -599.757202 2.067300 44.901199
v -599.580933 1.207300 45.046795
v -599.962219 0.471900 47.498501
v -600.393799 -0.153000 46.156200
v -600.113220 -0.248200 46.200397
v -599.302673 0.446500 47.118599
v -599.396118 0.920700 47.715096
v -600.393799 -0.153000 46.156200
v -599.962219 0.471900 47.498501
v -600.191223 0.814600 46.957100
v -599.830994 0.885100 47.018299
v -599.396118 0.920700 47.715096
v -599.378906 0.721500 46.601299
v -600.191223 0.814600 46.957100
v -599.302673 0.446500 47.118599
v -599.378906 0.721500 46.601299
v -599.396118 0.920700 47.715096
v -600.113220 -0.248200 46.200397
v -599.962219 0.471900 47.498501
v -599.396118 0.920700 47.715096
v -600.191223 0.814600 46.957100
v -599.830994 0.885100 47.018299
v -600.011719 1.075800 47.072300
v -600.191223 0.814600 46.957100
v -600.343323 1.755400 47.632900
v -599.972717 1.993200 47.411297
v -600.402893 2.353900 47.682396
v -600.541626 0.261800 46.306099
v -600.631714 -0.072500 46.118999
v -600.393799 -0.153000 46.156200
v -600.541626 0.261800 46.306099
v -600.393799 -0.153000 46.156200
v -600.191223 0.814600 46.957100
v -600.343323 1.755400 47.632900
v -600.663513 1.882500 47.292801
v -600.402893 2.353900 47.682396
v -600.301941 2.323400 47.233501
v -600.402893 2.353900 47.682396
v -599.972717 1.993200 47.411297
v -600.209412 1.548300 46.604599
v -599.897095 1.247000 46.714500
v -600.402893 2.353900 47.682396
v -600.301941 2.323400 47.233501
v -600.663513 1.882500 47.292801
v -600.209412 1.548300 46.604599
v -600.448425 1.382900 46.482300
v -599.972717 1.993200 47.411297
v -600.011719 1.075800 47.072300
v -599.897095 1.247000 46.714500
v -599.830994 0.885100 47.018299
v -599.378906 0.721500 46.601299
v -599.334106 1.232400 46.702202
v -599.830994 0.885100 47.018299
v -599.897095 1.247000 46.714500
v -600.011719 1.075800 47.072300
v -600.448425 1.382900 46.482300
v -600.494690 1.494200 46.241497
v -600.585632 1.839400 46.569199
v -600.061829 -0.004000 45.570000
v -599.495544 0.950400 45.725800
v -599.080200 1.058500 46.045601
v -600.541626 0.261800 46.306099
v -600.663513 1.882500 47.292801
v -600.448425 1.382900 46.482300
v -599.830994 0.885100 47.018299
v -599.334106 1.232400 46.702202
v -599.897095 1.247000 46.714500
vt 0.780000 0.714300
vt 0.781300 0.630900
vt 0.752200 0.668100
vt 0.721600 0.471700
vt 0.767800 0.459000
vt 0.873700 0.630700
vt 0.798300 0.735500
vt 0.861100 0.723400
vt 0.829900 0.616700
vt 0.722700 0.677500
vt 0.657100 0.655800
vt 0.691500 0.739400
vt 0.729100 0.570000
vt 0.649500 0.542400
vt 0.689300 0.515400
vt 0.658200 0.515800
vt 0.649500 0.542400
vt 0.729100 0.570000
vt 0.730300 0.474800
vt 0.732400 0.385600
vt 0.767400 0.578100
vt 0.749300 0.673400
vt 0.769200 0.630100
vt 0.798300 0.735500
vt 0.829900 0.616700
vt 0.782900 0.615900
vt 0.767400 0.578100
vt 0.728600 0.593100
vt 0.749300 0.673400
vt 0.700400 0.418600
vt 0.832200 0.433900
vt 0.809000 0.383700
vt 0.797200 0.436300
vt 0.763900 0.592500
vt 0.807100 0.685700
vt 0.818400 0.568900
vt 0.793000 0.418000
vt 0.711900 0.443500
vt 0.835100 0.536600
vt 0.855100 0.652200
vt 0.886300 0.546500
vt 0.838800 0.383700
vt 0.881300 0.402900
vt 0.892800 0.497900
vt 0.795300 0.585300
vt 0.797200 0.642100
vt 0.769200 0.630100
vt 0.749300 0.673400
vt 0.832200 0.433900
vt 0.797200 0.436300
vt 0.802800 0.634900
vt 0.849700 0.643700
vt 0.859900 0.600500
vt 0.984900 0.478200
vt 0.943100 0.509100
vt 0.983200 0.636400
vt 0.960000 0.408300
vt 0.926200 0.416900
vt 0.888900 0.543300
vt 0.932100 0.672900
vt 0.983200 0.636400
vt 0.943100 0.509100
vt 0.982400 0.739400
vt 0.793000 0.418000
vt 0.741800 0.390000
vt 0.711900 0.443500
vt 0.964300 0.509300
vt 0.922500 0.395000
vt 0.878000 0.411900
vt 0.919200 0.518000
vt 0.821700 0.511400
vt 0.708800 0.652000
vt 0.790200 0.632800
vt 0.730600 0.713200
vt 0.677400 0.737300
vt 0.750900 0.623500
vt 0.845100 0.649200
vt 0.776100 0.503100
vt 0.820000 0.692500
vt 0.799200 0.719700
vt 0.820000 0.692500
vt 0.750900 0.623500
vt 0.726400 0.648900
vt 0.854900 0.741500
vt 0.830900 0.514600
vt 0.829000 0.609000
vt 0.873200 0.540400
vt 0.942900 0.393800
vt 0.942900 0.393800
vt 0.873200 0.540400
vt 0.910000 0.560800
vt 0.990800 0.391900
vt 0.829000 0.609000
vt 0.888400 0.697700
vt 0.918100 0.657300
vt 0.870500 0.625700
vt 0.949000 0.733500
vt 0.728200 0.671200
vt 0.752800 0.732300
vt 0.789400 0.672300
vt 0.845100 0.649200
vt 0.820000 0.692500
vt 0.854900 0.741500
vt 0.934000 0.581000
vt 0.877400 0.449500
vt 0.881300 0.633100
vt 0.813700 0.478000
vt 0.886200 0.556000
vt 0.925700 0.628100
vt 0.952100 0.522100
vt 0.968900 0.578400
vt 0.952100 0.522100
vt 0.925700 0.628100
vt 0.929400 0.623600
vt 0.957800 0.495800
vt 0.894300 0.475500
vt 0.866300 0.616200
vt 0.878100 0.737300
vt 0.836900 0.539400
vt 0.859700 0.480000
vt 0.844400 0.367200
vt 0.805400 0.492100
vt 0.777100 0.613600
vt 0.816200 0.595800
vt 0.862800 0.644300
vt 0.805200 0.480500
vt 0.895500 0.597000
vt 0.862800 0.644300
vt 0.913400 0.718700
vt 0.895500 0.597000
vt 0.824400 0.681800
vt 0.913400 0.718700
vt 0.862800 0.644300
vt 0.816200 0.595800
vt 0.780400 0.630600
vt 0.804500 0.544700
vt 0.797200 0.667000
vt 0.851700 0.662600
vt 0.846400 0.749700
vt 0.795100 0.418400
vt 0.730500 0.526100
vt 0.788100 0.543800
vt 0.709300 0.473600
vt 0.747900 0.504300
vt 0.791600 0.389800
vt 0.664000 0.476900
vt 0.711700 0.593500
vt 0.709300 0.473600
vt 0.709300 0.473600
vt 0.711700 0.593500
vt 0.747900 0.504300
vt 0.730500 0.526100
vt 0.670800 0.600700
vt 0.788100 0.543800
vt 0.686800 0.509000
vt 0.730500 0.526100
vt 0.795100 0.418400
vt 0.752200 0.393100
vt 0.686800 0.509000
vt 0.670800 0.600700
vt 0.730500 0.526100
vt 0.807000 0.589000
vt 0.710000 0.379800
vt 0.664200 0.405900
vt 0.717000 0.626800
vt 0.813700 0.699700
vt 0.710000 0.379800
vt 0.807000 0.589000
vt 0.872100 0.528000
vt 0.911900 0.618200
vt 0.940500 0.700000
vt 0.968300 0.583600
vt 0.875900 0.602800
vt 0.717000 0.626800
vt 0.633500 0.633300
vt 0.813700 0.699700
vt 0.664200 0.405900
vt 0.807000 0.589000
vt 0.813700 0.699700
vt 0.872100 0.528000
vt 0.684900 0.549400
vt 0.694300 0.575300
vt 0.718100 0.547100
vt 0.729500 0.672800
vt 0.679600 0.685500
vt 0.718200 0.739200
vt 0.788000 0.521400
vt 0.782000 0.477400
vt 0.756100 0.481300
vt 0.777200 0.482400
vt 0.785300 0.430200
vt 0.691700 0.541900
vt 0.636500 0.661400
vt 0.684200 0.671400
vt 0.644000 0.731400
vt 0.856000 0.433800
vt 0.820600 0.466400
vt 0.885800 0.476300
vt 0.964600 0.408300
vt 0.994600 0.444000
vt 0.644000 0.731400
vt 0.695200 0.731600
vt 0.684200 0.671400
vt 0.773300 0.648000
vt 0.769000 0.611100
vt 0.679600 0.685500
vt 0.694300 0.575300
vt 0.652300 0.577800
vt 0.754200 0.428400
vt 0.735600 0.376900
vt 0.635800 0.445200
vt 0.684900 0.549400
vt 0.652300 0.577800
vt 0.694300 0.575300
vt 0.795300 0.585300
vt 0.767400 0.578100
vt 0.769200 0.630100
vt 0.850900 0.501900
vt 0.870500 0.625700
vt 0.918100 0.657300
vt 0.777200 0.482400
vt 0.684200 0.671400
vt 0.769000 0.611100
vt 0.754200 0.428400
vt 0.759600 0.445200
vt 0.765400 0.490600
vn -0.482890 0.540988 -0.688585
vn -0.294002 0.470103 -0.832205
vn -0.932331 0.243308 0.267509
vn -0.966591 -0.125499 0.223498
vn -0.578301 0.369201 -0.727502
vn 0.185594 0.425187 -0.885873
vn -0.278684 0.829054 -0.484773
vn 0.307303 0.401404 -0.862809
vn 0.163101 0.458302 -0.873703
vn -0.644532 0.764038 0.028701
vn -0.772156 0.633964 -0.043198
vn -0.574440 0.806257 0.141310
vn -0.913288 0.406194 0.030200
vn -0.947305 0.300302 0.111501
vn -0.653029 0.757333 -0.000600
vn -0.394698 0.766797 0.506198
vn -0.436690 0.683784 0.584586
vn -0.278684 0.829054 -0.484773
vn -0.724034 0.584328 -0.366517
vn -0.578301 0.369201 -0.727502
vn 0.327413 0.735530 -0.593124
vn 0.327413 0.735530 -0.593124
vn 0.327413 0.735530 -0.593124
vn -0.383799 0.532099 -0.754698
vn -0.383799 0.532099 -0.754698
vn -0.383799 0.532099 -0.754698
vn 0.079401 0.514003 -0.854105
vn -0.294002 0.470103 -0.832205
vn -0.290498 0.701295 0.650996
vn -0.578301 0.369201 -0.727502
vn -0.269595 -0.220096 0.937484
vn -0.290498 0.701295 0.650996
vn -0.932331 0.243308 0.267509
vn 0.670188 -0.335194 0.662188
vn 0.722625 -0.192407 0.663923
vn 0.723829 -0.428717 0.540622
vn 0.551295 -0.417397 0.722394
vn 0.469487 -0.353290 0.809177
vn -0.159702 -0.081301 0.983812
vn -0.123195 0.051298 0.991056
vn -0.190098 -0.139598 0.971790
vn -0.250500 -0.239600 0.937999
vn -0.280093 -0.241594 0.929075
vn 0.307904 -0.197403 0.930713
vn 0.340593 -0.129997 0.931181
vn 0.363813 0.122104 0.923434
vn 0.402922 0.160509 0.901050
vn 0.341901 0.296601 0.891702
vn -0.269595 -0.220096 0.937484
vn -0.932331 0.243308 0.267509
vn -0.966591 -0.125499 0.223498
vn -0.285897 -0.369896 0.883991
vn -0.298614 -0.456822 0.837940
vn 0.365403 0.451704 -0.813907
vn 0.307303 0.401404 -0.862809
vn 0.456378 0.345283 -0.820060
vn 0.337610 0.417312 -0.843724
vn 0.185594 0.425187 -0.885873
vn 0.139702 0.471906 -0.870511
vn 0.249411 0.387617 -0.887439
vn 0.219813 0.471828 -0.853850
vn 0.078300 0.577399 -0.812699
vn 0.297609 0.516315 -0.803024
vn 0.016000 0.939199 0.343000
vn 0.016000 0.939199 0.343000
vn 0.016000 0.939199 0.343000
vn 0.185594 0.425187 -0.885873
vn 0.208401 0.331902 -0.920005
vn 0.189403 0.358505 -0.914112
vn 0.163101 0.458302 -0.873703
vn 0.315603 -0.505704 0.802906
vn 0.416983 -0.100296 0.903364
vn 0.320608 -0.444911 0.836221
vn 0.430405 -0.027700 0.902211
vn 0.541714 0.037601 0.839722
vn -0.636270 0.620671 -0.458179
vn -0.469080 0.828565 -0.305687
vn -0.658988 0.552390 -0.510491
vn -0.298411 0.887231 -0.351812
vn -0.144193 0.906955 0.395780
vn -0.202791 0.883060 0.423181
vn -0.111102 0.602809 0.790112
vn -0.063499 0.485393 0.871987
vn -0.118305 0.950139 0.288512
vn 0.021401 -0.178308 -0.983742
vn 0.100004 0.081504 -0.991643
vn 0.072899 -0.010000 -0.997289
vn -0.001400 -0.250292 -0.968169
vn 0.373193 -0.900382 -0.223696
vn 0.532505 -0.744708 -0.402304
vn 0.559305 -0.724907 -0.402104
vn 0.456005 -0.860010 -0.229003
vn 0.719375 -0.530181 -0.448784
vn 0.365403 0.451704 -0.813907
vn 0.738279 -0.278792 -0.614182
vn 0.337610 0.417312 -0.843724
vn 0.254291 0.550780 -0.794971
vn -0.214200 0.917401 0.335400
vn 0.695516 -0.076602 0.714416
vn -0.214200 0.917401 0.335400
vn -0.469080 0.828565 -0.305687
vn -0.298411 0.887231 -0.351812
vn -0.216597 0.877687 -0.427494
vn 0.718690 -0.683690 0.126698
vn 0.147204 -0.949729 0.276308
vn 0.738279 -0.278792 -0.614182
vn 0.456005 -0.860010 -0.229003
vn 0.738279 -0.278792 -0.614182
vn 0.695516 -0.076602 0.714416
vn 0.718690 -0.683690 0.126698
vn 0.209604 -0.224704 0.951617
vn 0.209604 -0.224704 0.951617
vn 0.209604 -0.224704 0.951617
vn -0.331597 0.028500 -0.942991
vn -0.529901 0.049700 -0.846602
vn -0.410380 -0.047898 -0.910656
vn -0.267214 -0.012901 -0.963551
vn -0.259192 0.172095 -0.950370
vn 0.592187 0.247395 -0.766883
vn 0.668115 0.057701 -0.741817
vn 0.683286 0.049299 -0.728485
vn 0.631601 0.181700 -0.753701
vn 0.491880 0.405883 -0.770268
vn -0.260804 -0.118302 0.958116
vn -0.573982 0.190194 0.796474
vn -0.438602 -0.074300 0.895605
vn -0.606192 0.109898 0.787689
vn -0.573982 0.190194 0.796474
vn -0.639935 0.415923 0.646136
vn -0.606192 0.109898 0.787689
vn 0.349185 0.193491 0.916859
vn 0.292492 0.392789 0.871875
vn 0.305384 0.280585 0.909952
vn 0.351598 0.108899 0.929795
vn 0.417422 0.032002 0.908149
vn -0.371994 0.108398 -0.921884
vn -0.363000 0.172400 -0.915701
vn -0.348891 0.255094 -0.901777
vn -0.334607 0.325607 -0.884318
vn 0.740315 -0.539711 0.400808
vn 0.740315 -0.539711 0.400808
vn 0.740315 -0.539711 0.400808
vn -0.815013 0.110502 0.568809
vn -0.815013 0.110502 0.568809
vn -0.815013 0.110502 0.568809
vn -0.022501 0.587618 0.808825
vn -0.022501 0.587618 0.808825
vn -0.022501 0.587618 0.808825
vn -0.351410 0.745822 0.565916
vn -0.351410 0.745822 0.565916
vn -0.351410 0.745822 0.565916
vn 0.724879 0.392988 0.565783
vn 0.724879 0.392988 0.565783
vn 0.724879 0.392988 0.565783
vn 0.324311 -0.210507 -0.922231
vn 0.377700 -0.184800 -0.907299
vn 0.150297 -0.342594 -0.927383
vn 0.077398 -0.336290 -0.938573
vn 0.324311 -0.210507 -0.922231
vn 0.414302 0.015700 -0.910004
vn 0.377700 -0.184800 -0.907299
vn -0.195193 -0.275190 0.941366
vn -0.171301 -0.682106 0.710906
vn 0.147204 -0.949729 0.276308
vn 0.857704 -0.492502 0.147601
vn 0.484311 0.401909 0.777118
vn -0.799216 -0.147703 0.582612
vn -0.799216 -0.147703 0.582612
vn -0.799216 -0.147703 0.582612
vn -0.042699 0.999086 0.002200
vn 0.484311 0.401909 0.777118
vn 0.097798 0.980178 -0.172296
vn -0.103698 0.991482 0.078799
vn 0.857704 -0.492502 0.147601
vn 0.718690 -0.683690 0.126698
vn 0.484311 0.401909 0.777118
vn 0.566423 -0.646626 -0.510921
vn -0.195193 -0.275190 0.941366
vn 0.484311 0.401909 0.777118
vn -0.302903 -0.407705 0.861410
vn -0.045202 -0.350315 0.935541
vn 0.318811 -0.415215 0.852030
vn 0.078002 -0.490011 0.868219
vn 0.306300 -0.214300 0.927500
vn 0.463113 -0.249607 0.850425
vn 0.292603 -0.020700 0.956010
vn -0.141702 -0.424205 0.894411
vn -0.141702 -0.424205 0.894411
vn -0.171301 -0.682106 0.710906
vn -0.298614 -0.456822 0.837940
vn -0.325989 -0.518082 0.790773
vn -0.302903 -0.407705 0.861410
vn -0.453686 -0.388388 0.802075
vn -0.490712 -0.397010 0.775619
vn -0.488119 -0.168107 0.856434
vn 0.481524 0.853842 -0.197710
vn 0.417095 0.899989 0.126698
vn 0.476985 0.734376 -0.482884
vn 0.447397 0.645795 -0.618696
vn 0.427595 0.661693 -0.615893
vn -0.515614 0.807322 -0.287008
vn -0.463000 0.683600 -0.564200
vn -0.489104 0.618105 -0.615405
vn -0.243802 0.706206 -0.664706
vn -0.569187 0.529888 -0.628685
vn 0.463113 -0.249607 0.850425
vn 0.318811 -0.415215 0.852030
vn 0.865521 -0.236706 0.441411
vn 0.249087 0.550572 0.796760
vn 0.718690 -0.683690 0.126698
vn 0.301486 0.005100 0.953457
vn 0.249087 0.550572 0.796760
vn 0.441197 0.665995 0.601495
vn 0.441197 0.665995 0.601495
vn 0.847199 0.524799 -0.082700
vn 0.847199 0.524799 -0.082700
vn 0.847199 0.524799 -0.082700
vn 0.376484 -0.303887 -0.875164
vn 0.376484 -0.303887 -0.875164
vn 0.376484 -0.303887 -0.875164
vn -0.798670 0.220592 -0.559879
vn -0.489104 0.618105 -0.615405
vn -0.569187 0.529888 -0.628685
vn 0.249087 0.550572 0.796760
vn 0.301486 0.005100 0.953457
vn 0.016800 0.646407 0.762808
usemtl material
f 1/0/1 2/0/2 3/0/3
f 4/0/4 3/0/3 2/0/2
f 4/0/4 2/0/2 5/0/5
f 6/0/6 7/0/7 8/0/8
f 7/0/7 6/0/6 9/0/9
f 10/0/10 11/0/11 12/0/12
f 11/0/11 10/0/10 13/0/13
f 11/0/11 13/0/13 14/0/14
f 15/0/15 16/0/16 17/0/17
f 15/0/15 17/0/17 18/0/18
f 19/0/19 15/0/15 18/0/18
f 19/0/19 20/0/20 15/0/15
f 21/0/21 22/0/22 23/0/23
f 24/0/24 25/0/25 26/0/26
f 27/0/27 28/0/28 29/0/29
f 30/0/30 28/0/28 27/0/27
f 31/0/31 32/0/32 33/0/33
f 34/0/34 35/0/35 36/0/36
f 34/0/34 36/0/36 37/0/37
f 34/0/34 37/0/37 38/0/38
f 39/0/39 40/0/40 41/0/41
f 42/0/42 39/0/39 41/0/41
f 42/0/42 41/0/41 43/0/43
f 44/0/44 45/0/45 46/0/46
f 45/0/45 47/0/47 46/0/46
f 46/0/46 47/0/47 48/0/48
f 49/0/49 50/0/50 51/0/51
f 51/0/51 52/0/52 49/0/49
f 52/0/52 53/0/53 49/0/49
f 54/0/54 55/0/55 56/0/56
f 54/0/54 57/0/57 55/0/55
f 55/0/55 57/0/57 58/0/58
f 59/0/59 60/0/60 61/0/61
f 59/0/59 61/0/61 62/0/62
f 60/0/60 63/0/63 61/0/61
f 64/0/64 65/0/65 66/0/66
f 67/0/67 68/0/68 69/0/69
f 67/0/67 69/0/69 70/0/70
f 71/0/71 72/0/72 73/0/73
f 72/0/72 74/0/74 73/0/73
f 72/0/72 75/0/75 74/0/74
f 76/0/76 77/0/77 78/0/78
f 76/0/76 79/0/79 77/0/77
f 80/0/80 81/0/81 82/0/82
f 80/0/80 82/0/82 83/0/83
f 81/0/81 80/0/80 84/0/84
f 85/0/85 86/0/86 87/0/87
f 87/0/87 88/0/88 85/0/85
f 89/0/89 90/0/90 91/0/91
f 89/0/89 91/0/91 92/0/92
f 90/0/90 93/0/93 91/0/91
f 94/0/94 95/0/95 96/0/96
f 94/0/94 97/0/97 95/0/95
f 98/0/98 99/0/99 100/0/100
f 101/0/101 102/0/102 103/0/103
f 104/0/104 105/0/105 106/0/106
f 106/0/106 105/0/105 107/0/107
f 108/0/108 109/0/109 110/0/110
f 111/0/111 112/0/112 113/0/113
f 114/0/114 115/0/115 116/0/116
f 114/0/114 116/0/116 117/0/117
f 117/0/117 118/0/118 114/0/114
f 119/0/119 120/0/120 121/0/121
f 119/0/119 121/0/121 122/0/122
f 122/0/122 123/0/123 119/0/119
f 124/0/124 125/0/125 126/0/126
f 126/0/126 125/0/125 127/0/127
f 128/0/128 129/0/129 130/0/130
f 131/0/131 132/0/132 133/0/133
f 134/0/134 131/0/131 133/0/133
f 134/0/134 135/0/135 131/0/131
f 136/0/136 137/0/137 138/0/138
f 137/0/137 139/0/139 138/0/138
f 140/0/140 141/0/141 142/0/142
f 143/0/143 144/0/144 145/0/145
f 146/0/146 147/0/147 148/0/148
f 149/0/149 150/0/150 151/0/151
f 152/0/152 153/0/153 154/0/154
f 155/0/155 156/0/156 157/0/157
f 155/0/155 157/0/157 158/0/158
f 159/0/159 160/0/160 161/0/161
f 162/0/162 163/0/163 164/0/164
f 162/0/162 164/0/164 165/0/165
f 162/0/162 165/0/165 166/0/166
f 167/0/167 168/0/168 169/0/169
f 170/0/170 171/0/171 172/0/172
f 171/0/171 170/0/170 173/0/173
f 174/0/174 175/0/175 176/0/176
f 177/0/177 175/0/175 174/0/174
f 178/0/178 179/0/179 180/0/180
f 181/0/181 182/0/182 183/0/183
f 182/0/182 184/0/184 183/0/183
f 182/0/182 185/0/185 184/0/184
f 184/0/184 185/0/185 186/0/186
f 187/0/187 188/0/188 189/0/189
f 190/0/190 191/0/191 192/0/192
f 190/0/190 192/0/192 193/0/193
f 190/0/190 193/0/193 194/0/194
f 195/0/195 194/0/194 193/0/193
f 196/0/196 197/0/197 198/0/198
f 199/0/199 196/0/196 198/0/198
f 199/0/199 198/0/198 200/0/200
f 201/0/201 202/0/202 203/0/203
f 204/0/204 203/0/203 202/0/202
f 204/0/204 205/0/205 203/0/203
f 206/0/206 207/0/207 208/0/208
f 209/0/209 210/0/210 211/0/211
f 212/0/212 213/0/213 214/0/214
f 215/0/215 216/0/216 217/0/217
f 218/0/218 219/0/219 220/0/220
f 221/0/221 222/0/222 223/0/223
f 224/0/224 225/0/225 226/0/226
