# 
# Wavefront OBJ file
# Created with Kaydara FBX
# 
mtllib perpstage_extrastory01_trap.mtl

g PerpStage_ExtraStory01_Trap
v 0.938650 2.345465 -1.262794
v 0.883909 3.070633 1.143432
v 1.433432 2.733402 0.714251
v 2.022924 1.972370 -0.943542
v 0.138960 3.332158 1.169176
v 0.202675 1.763152 -1.433404
v -0.715038 3.225754 0.967466
v -1.616804 2.305113 0.033148
v -0.635753 1.200930 -1.545185
v -1.297561 0.811949 -1.510582
v -1.690347 -0.093785 -1.185057
v -0.316987 -0.093785 1.846819
v 0.525478 0.640963 1.997638
v -0.475442 1.015850 1.714180
v 0.434965 -0.093785 1.846819
v -1.036937 -0.093785 1.466248
v -1.828258 0.637377 0.808769
v -1.735392 1.487754 1.006890
v 0.703213 1.497885 1.926122
v -0.000145 1.978924 1.680630
v -1.014198 2.567573 1.205216
v 0.138960 3.332158 1.169176
v -0.715038 3.225754 0.967466
v 0.835310 2.186285 1.671894
v 0.883909 3.070633 1.143432
v -0.237573 -1.265368 1.470349
v -0.793854 -1.265368 1.176294
v 0.343436 -1.265368 1.470349
v -0.410697 -2.739426 0.789175
v 0.142400 -2.007917 1.107882
v -1.778629 -0.093785 0.677704
v -1.597180 -1.771406 0.567013
v -1.350075 -2.375281 0.269162
v 0.525478 0.640963 1.997638
v 0.434965 -0.093785 1.846819
v 1.235191 -0.093785 1.396930
v 0.703213 1.497885 1.926122
v 0.835310 2.186285 1.671894
v 1.816996 -0.093785 0.677704
v 1.433432 2.733402 0.714251
v 0.883909 3.070633 1.143432
v 2.022924 1.972370 -0.943542
v 2.211908 1.046033 -1.049635
v 2.188313 -0.093785 -0.491411
v 1.816996 -0.093785 -1.179195
v 0.961743 -1.265368 1.122735
v 0.343436 -1.265368 1.470349
v 1.368697 -1.265368 0.567013
v 1.038184 -1.717449 0.758469
v 0.142400 -2.007917 1.107882
v 1.485712 -1.451217 -0.194929
v 1.272788 -1.265368 -0.789323
v 1.029638 -1.949491 -0.540578
v 0.045608 0.713993 -1.891126
v 0.647882 -0.093785 -1.722218
v -0.378846 -0.093785 -1.848208
v -0.926111 0.378584 -1.637778
v 0.762964 0.823946 -1.757224
v 1.816996 -0.093785 -1.179195
v 2.211908 1.046033 -1.049635
v 0.832574 1.517272 -1.668321
v 2.022924 1.972370 -0.943542
v 0.938650 2.345465 -1.262794
v 0.202675 1.763152 -1.433404
v -0.635753 1.200930 -1.545185
v -0.285369 -1.546203 -1.294517
v 0.507950 -1.429392 -1.145034
v 1.272788 -1.265368 -0.789323
v 0.099787 -2.669191 -0.832215
v -0.150429 -2.823823 -0.734636
v 0.439605 -2.383556 -0.736288
v 1.029638 -1.949491 -0.540578
v -1.298722 -1.574101 -0.814786
v -0.740463 -2.976007 -0.520761
v -1.690347 -0.093785 -1.185057
v -1.297561 0.811949 -1.510582
v -0.150429 -2.823823 -0.734636
v 0.099787 -2.669191 -0.832215
v 0.281516 -2.811034 -0.029117
v -0.003306 -3.277413 -0.011109
v 0.142400 -2.007917 1.107882
v 0.439605 -2.383556 -0.736288
v 0.890472 -2.431568 -0.132278
v 1.038184 -1.717449 0.758469
v 1.485712 -1.451217 -0.194929
v 1.029638 -1.949491 -0.540578
v 0.890472 -2.431568 -0.132278
v 0.439605 -2.383556 -0.736288
v 1.029638 -1.949491 -0.540578
v -0.150429 -2.823823 -0.734636
v -0.003306 -3.277413 -0.011109
v -0.622335 -3.143149 -0.051517
v -0.740463 -2.976007 -0.520761
v -1.195373 -2.873674 -0.159500
v -1.350075 -2.375281 0.269162
v -0.410697 -2.739426 0.789175
v -0.003306 -3.277413 -0.011109
v 0.142400 -2.007917 1.107882
v -0.410697 -2.739426 0.789175
v -0.622335 -3.143149 -0.051517
v -1.616804 2.305113 0.033148
v -1.735392 1.487754 1.006890
v -1.014198 2.567573 1.205216
v -0.715038 3.225754 0.967466
v -1.828258 0.637377 0.808769
v -2.211908 -0.093785 -0.491411
v -1.778629 -0.093785 0.677704
v -1.798903 -1.768508 0.022704
v -1.597180 -1.771406 0.567013
v -1.195373 -2.873674 -0.159500
v -1.350075 -2.375281 0.269162
v -1.931959 -1.715707 -0.336323
v -1.298722 -1.574101 -0.814786
v -1.690347 -0.093785 -1.185057
v -0.740463 -2.976007 -0.520761
v -1.616804 2.305113 0.033148
v -1.735392 1.487754 1.006890
vt -0.368109 0.033159
vt -0.011881 -0.738407
vt -0.284834 -0.650785
vt -0.709937 -0.073806
vt 0.231520 -0.615353
vt -0.204921 0.215786
vt 0.429602 -0.400909
vt 0.426376 0.075229
vt -0.034416 0.392892
vt 0.094745 0.502191
vt 0.211835 0.702188
vt 0.267933 0.503351
vt 0.028923 0.645129
vt 0.268148 0.801610
vt 0.087010 0.468378
vt 0.477076 0.523176
vt 0.748529 0.759764
vt 0.657402 1.008356
vt -0.079623 0.841300
vt 0.075421 1.054823
vt 0.337908 1.378487
vt -0.211074 1.507692
vt 0.083570 1.646879
vt -0.208095 0.991605
vt -0.433461 1.234919
vt 0.302832 0.190547
vt 0.472503 0.186459
vt 0.156356 0.168873
vt 0.401727 -0.262888
vt 0.228467 -0.044784
vt 0.783952 0.531831
vt 0.757774 0.008212
vt 0.738058 -0.244770
vt 0.028923 0.645129
vt 0.087010 0.468378
vt -0.122959 0.397438
vt -0.079623 0.841300
vt -0.208095 0.991605
vt -0.333190 0.312527
vt -0.567189 1.030662
vt -0.433461 1.234919
vt -0.934134 0.655805
vt -0.877088 0.401575
vt -0.613774 0.185679
vt -0.778686 0.056464
vt -0.014707 0.116187
vt 0.156356 0.168873
vt -0.174322 0.042088
vt -0.039839 -0.028275
vt 0.228467 -0.044784
vt -0.321460 -0.111311
vt -0.483903 -0.207047
vt -0.275616 -0.327124
vt -0.223317 0.494379
vt -0.397070 0.685706
vt -0.135485 0.689918
vt 0.005678 0.589231
vt -0.399873 0.439193
vt -0.791739 0.670344
vt -0.865457 0.245261
vt -0.383696 0.256952
vt -0.709937 -0.073806
vt -0.368109 0.033159
vt -0.204921 0.215786
vt -0.034416 0.392892
vt -0.119314 1.089484
vt -0.359836 1.099089
vt -0.638870 1.100808
vt -0.144896 1.468712
vt -0.050862 1.500072
vt -0.288049 1.422732
vt -0.536721 1.348104
vt 0.184898 1.079594
vt 0.140237 1.474531
vt 0.211835 0.702188
vt 0.094745 0.502191
vt 0.060865 -0.673864
vt -0.017828 -0.643170
vt 0.118046 -0.436500
vt 0.250754 -0.529829
vt 0.228467 -0.044784
vt -0.103856 -0.552463
vt -0.078995 -0.344129
vt -0.039839 -0.028275
vt -0.321460 -0.111311
vt -0.275616 -0.327124
vt -0.502767 1.566982
vt -0.288049 1.422732
vt -0.536721 1.348104
vt -0.050862 1.500072
vt 0.065162 1.769253
vt 0.223280 1.624022
vt 0.140237 1.474531
vt 0.296653 1.448375
vt 0.472159 1.550156
vt 0.524542 1.768074
vt 0.250754 -0.529829
vt 0.228467 -0.044784
vt 0.401727 -0.262888
vt 0.435963 -0.540957
vt 0.426376 0.075229
vt 0.751405 0.194445
vt 0.646527 -0.240625
vt 0.429602 -0.400909
vt 0.743652 0.462783
vt 0.414705 0.704320
vt 0.738471 0.706124
vt 0.475371 1.148374
vt 0.622242 1.226137
vt 0.296653 1.448375
vt 0.457419 1.371424
vt 0.388616 1.103323
vt 0.184898 1.079594
vt 0.211835 0.702188
vt 0.140237 1.474531
vt 0.426376 0.075229
vt 0.751405 0.194445
vn -0.118269 0.900639 -0.418165
vn 0.320363 0.908990 -0.266656
vn 0.358337 0.895099 -0.265315
vn 0.383296 0.883498 -0.269285
vn 0.056122 0.895703 -0.441098
vn -0.333111 0.753268 -0.567119
vn -0.098257 0.832747 -0.544865
vn -0.320505 0.738732 -0.592918
vn -0.368112 0.638733 -0.675658
vn -0.748380 0.392653 -0.534557
vn -0.881457 0.235037 -0.409624
vn -0.267634 -0.196559 0.943258
vn -0.212810 0.090305 0.972912
vn -0.403309 0.097507 0.909854
vn 0.000000 -0.276918 0.960893
vn -0.562626 -0.140143 0.814746
vn -0.578608 -0.024980 0.815223
vn -0.479108 0.078338 0.874253
vn -0.179768 0.215491 0.959816
vn -0.255837 0.248701 0.934182
vn -0.328365 0.254778 0.909541
vn -0.141230 0.396240 0.907220
vn -0.225857 0.382865 0.895770
vn -0.053197 0.373605 0.926061
vn 0.202675 0.494085 0.845460
vn -0.225357 -0.344200 0.911450
vn -0.497249 -0.296200 0.815481
vn 0.000000 -0.331887 0.943319
vn -0.396401 -0.398875 0.826901
vn -0.220048 -0.389406 0.894395
vn -0.641355 -0.193441 0.742458
vn -0.542295 -0.316460 0.778312
vn -0.474644 -0.402066 0.782979
vn 0.657656 -0.060006 0.750925
vn 0.583264 -0.166394 0.795057
vn 0.736728 -0.039822 0.675015
vn 0.657656 -0.060006 0.750925
vn 0.781910 0.103698 0.614706
vn 0.878727 -0.043449 0.475343
vn 0.849140 0.122741 0.513708
vn 0.791499 0.119347 0.599404
vn 0.948771 0.131038 0.287510
vn 0.966688 0.108214 0.231958
vn 0.956566 -0.291470 -0.005203
vn 0.795048 -0.423620 -0.434102
vn 0.579668 -0.369617 0.726201
vn 0.459540 -0.376094 0.804597
vn 0.840688 -0.376825 0.388905
vn 0.567111 -0.486212 0.664818
vn 0.439474 -0.499853 0.746330
vn 0.890914 -0.454013 -0.011985
vn 0.767692 -0.484402 -0.419528
vn 0.795385 -0.435840 -0.421198
vn -0.094161 0.210915 -0.972959
vn 0.328150 -0.276524 -0.903245
vn -0.182600 -0.305559 -0.934500
vn -0.343183 0.052173 -0.937818
vn 0.397300 0.013566 -0.917589
vn 0.432204 -0.215830 -0.875567
vn 0.442396 0.046601 -0.895608
vn 0.251329 0.264920 -0.930941
vn 0.434041 0.181817 -0.882355
vn 0.264302 0.396610 -0.879116
vn -0.162413 0.421058 -0.892374
vn -0.212978 0.302543 -0.929036
vn -0.173705 -0.366609 -0.914015
vn 0.322692 -0.391636 -0.861679
vn 0.429161 -0.419361 -0.799973
vn 0.198417 -0.356162 -0.913115
vn -0.317681 -0.367901 -0.873915
vn 0.370566 -0.353776 -0.858792
vn 0.492018 -0.403208 -0.771584
vn -0.386713 -0.345006 -0.855234
vn -0.335137 -0.363680 -0.869149
vn -0.416989 -0.313989 -0.852954
vn -0.316393 0.102719 -0.943051
vn 0.659551 -0.641239 -0.392179
vn 0.593707 -0.715828 -0.367562
vn 0.641608 -0.735105 0.218996
vn 0.783238 -0.620003 -0.046206
vn 0.495727 -0.693851 0.522327
vn 0.552336 -0.744879 -0.374273
vn 0.620939 -0.736173 0.269227
vn 0.581652 -0.666140 0.466840
vn 0.848843 -0.505507 0.154687
vn 0.738837 -0.546835 -0.393816
vn 0.620939 -0.736173 0.269227
vn 0.552336 -0.744879 -0.374273
vn 0.738837 -0.546835 -0.393816
vn -0.051645 -0.890541 -0.451962
vn 0.139464 -0.937702 0.318220
vn -0.190798 -0.930228 0.313484
vn -0.117248 -0.903313 -0.412649
vn -0.505687 -0.726743 0.464893
vn -0.504262 -0.693055 0.515164
vn -0.016096 -0.785331 0.618866
vn 0.139464 -0.937702 0.318220
vn 0.200333 -0.762826 0.614787
vn -0.016096 -0.785331 0.618866
vn -0.190798 -0.930228 0.313484
vn -0.816281 0.487031 0.310622
vn -0.815890 0.487944 0.310216
vn -0.816733 0.485973 0.311091
vn -0.817478 0.484219 0.311867
vn -0.977944 0.153896 0.141215
vn -0.972907 0.003283 -0.231173
vn -0.930505 -0.123887 0.344692
vn -0.918620 -0.218142 0.329471
vn -0.920779 -0.194378 0.338207
vn -0.627029 -0.452091 -0.634388
vn -0.821990 -0.490439 0.289485
vn -0.755228 -0.342727 -0.558720
vn -0.623662 -0.324816 -0.711013
vn -0.738055 -0.035966 -0.673781
vn -0.547597 -0.411043 -0.728821
vn -0.978184 0.206914 0.018508
vn -0.976266 0.179878 0.120618
usemtl material
f 1/0/1 2/0/2 3/0/3
f 4/0/4 1/0/1 3/0/3
f 5/0/5 2/0/2 1/0/1
f 6/0/6 5/0/5 1/0/1
f 7/0/7 5/0/5 6/0/6
f 8/0/8 7/0/7 6/0/6
f 9/0/9 8/0/8 6/0/6
f 10/0/10 8/0/8 9/0/9
f 11/0/11 8/0/8 10/0/10
f 12/0/12 13/0/13 14/0/14
f 13/0/13 12/0/12 15/0/15
f 12/0/12 14/0/14 16/0/16
f 14/0/14 17/0/17 16/0/16
f 14/0/14 18/0/18 17/0/17
f 14/0/14 13/0/13 19/0/19
f 14/0/14 19/0/19 20/0/20
f 21/0/21 18/0/18 14/0/14
f 21/0/21 14/0/14 20/0/20
f 22/0/22 21/0/21 20/0/20
f 22/0/22 23/0/23 21/0/21
f 20/0/20 19/0/19 24/0/24
f 20/0/20 24/0/24 22/0/22
f 24/0/24 25/0/25 22/0/22
f 16/0/16 26/0/26 12/0/12
f 16/0/16 27/0/27 26/0/26
f 12/0/12 26/0/26 28/0/28
f 12/0/12 28/0/28 15/0/15
f 29/0/29 26/0/26 27/0/27
f 29/0/29 30/0/30 26/0/26
f 26/0/26 30/0/30 28/0/28
f 31/0/31 16/0/16 17/0/17
f 31/0/31 27/0/27 16/0/16
f 31/0/31 32/0/32 27/0/27
f 32/0/32 29/0/29 27/0/27
f 32/0/32 33/0/33 29/0/29
f 34/0/34 35/0/35 36/0/36
f 36/0/36 37/0/37 34/0/34
f 36/0/36 38/0/38 37/0/37
f 38/0/38 36/0/36 39/0/39
f 39/0/39 40/0/40 38/0/38
f 40/0/40 41/0/41 38/0/38
f 40/0/40 39/0/39 42/0/42
f 42/0/42 39/0/39 43/0/43
f 39/0/39 44/0/44 43/0/43
f 43/0/43 44/0/44 45/0/45
f 35/0/35 46/0/46 36/0/36
f 35/0/35 47/0/47 46/0/46
f 36/0/36 46/0/46 48/0/48
f 36/0/36 48/0/48 39/0/39
f 47/0/47 49/0/49 46/0/46
f 46/0/46 49/0/49 48/0/48
f 47/0/47 50/0/50 49/0/49
f 39/0/39 48/0/48 51/0/51
f 39/0/39 51/0/51 44/0/44
f 48/0/48 49/0/49 51/0/51
f 44/0/44 51/0/51 52/0/52
f 44/0/44 52/0/52 45/0/45
f 51/0/51 53/0/53 52/0/52
f 54/0/54 55/0/55 56/0/56
f 57/0/57 54/0/54 56/0/56
f 55/0/55 54/0/54 58/0/58
f 58/0/58 59/0/59 55/0/55
f 58/0/58 60/0/60 59/0/59
f 60/0/60 58/0/58 61/0/61
f 58/0/58 54/0/54 61/0/61
f 60/0/60 61/0/61 62/0/62
f 61/0/61 63/0/63 62/0/62
f 64/0/64 63/0/63 61/0/61
f 65/0/65 64/0/64 61/0/61
f 65/0/65 61/0/61 54/0/54
f 57/0/57 65/0/65 54/0/54
f 55/0/55 66/0/66 56/0/56
f 55/0/55 67/0/67 66/0/66
f 68/0/68 67/0/67 55/0/55
f 68/0/68 55/0/55 59/0/59
f 67/0/67 69/0/69 66/0/66
f 66/0/66 69/0/69 70/0/70
f 67/0/67 71/0/71 69/0/69
f 72/0/72 71/0/71 67/0/67
f 72/0/72 67/0/67 68/0/68
f 70/0/70 73/0/73 66/0/66
f 70/0/70 74/0/74 73/0/73
f 66/0/66 73/0/73 75/0/75
f 66/0/66 75/0/75 56/0/56
f 57/0/57 56/0/56 75/0/75
f 57/0/57 76/0/76 65/0/65
f 75/0/75 76/0/76 57/0/57
f 77/0/77 78/0/78 79/0/79
f 77/0/77 79/0/79 80/0/80
f 79/0/79 81/0/81 80/0/80
f 79/0/79 78/0/78 82/0/82
f 79/0/79 82/0/82 83/0/83
f 84/0/84 81/0/81 79/0/79
f 84/0/84 79/0/79 83/0/83
f 85/0/85 84/0/84 83/0/83
f 86/0/86 85/0/85 83/0/83
f 87/0/87 88/0/88 89/0/89
f 90/0/90 91/0/91 92/0/92
f 90/0/90 92/0/92 93/0/93
f 94/0/94 93/0/93 92/0/92
f 92/0/92 95/0/95 94/0/94
f 92/0/92 96/0/96 95/0/95
f 97/0/97 98/0/98 99/0/99
f 97/0/97 99/0/99 100/0/100
f 101/0/101 102/0/102 103/0/103
f 103/0/103 104/0/104 101/0/101
f 105/0/105 106/0/106 107/0/107
f 108/0/108 107/0/107 106/0/106
f 108/0/108 109/0/109 107/0/107
f 110/0/110 109/0/109 108/0/108
f 110/0/110 111/0/111 109/0/109
f 108/0/108 112/0/112 110/0/110
f 108/0/108 106/0/106 112/0/112
f 113/0/113 112/0/112 106/0/106
f 113/0/113 110/0/110 112/0/112
f 113/0/113 106/0/106 114/0/114
f 113/0/113 115/0/115 110/0/110
f 116/0/116 106/0/106 105/0/105
f 116/0/116 114/0/114 106/0/106
f 116/0/116 105/0/105 117/0/117
