# 
# Wavefront OBJ file
# Created with Kaydara FBX
# 
mtllib perpstage_cave_lake03.mtl

g PerpStage_Cave_lake03
v -613.804504 -15.000001 82.828476
v -645.302734 -15.000002 49.235840
v -645.302734 -15.000002 82.828476
v -613.804504 -15.000002 49.235840
v -664.677124 -15.000002 49.235840
v -664.677124 -15.000001 82.828476
v -645.302734 -15.000002 29.617920
v -613.804504 -15.000002 29.617920
v -664.677124 -15.000002 29.617920
v -645.302734 -15.000002 10.000000
v -613.804504 -15.000002 10.000000
v -664.677124 -15.000002 10.000000
v -645.302734 -15.000002 -9.617920
v -613.804504 -15.000002 -9.617920
v -664.677124 -15.000002 -9.617920
v -645.302734 -15.000002 -29.235840
v -613.804504 -15.000002 -29.235840
v -664.677124 -15.000002 -29.235840
v -645.302734 -15.000002 -48.853745
v -613.804504 -15.000001 -48.853745
v -664.677124 -15.000001 -48.853745
v -553.195984 -0.249947 28.888872
v -541.195984 -0.249947 41.111103
v -541.195984 -0.249947 28.888872
v -553.195984 -0.249947 41.111103
v -565.195984 -0.249947 28.888872
v -565.195984 -0.249947 41.111103
v -577.195984 -0.249947 28.888872
v -577.195984 -0.249947 41.111103
v -529.195984 -0.249947 41.111103
v -529.195984 -0.249947 28.888872
v -553.195984 -0.249947 16.666672
v -541.195984 -0.249947 16.666639
v -553.195984 -0.249947 4.444443
v -541.195984 -0.249947 4.444443
v -553.195984 -0.249947 -7.777787
v -541.195984 -0.249947 -7.777787
v -553.195984 -0.249947 -20.000017
v -541.195984 -0.249947 -20.000017
v -577.195984 -0.249947 16.666672
v -565.195984 -0.249947 16.666672
v -577.195984 -0.249947 4.444443
v -565.195984 -0.249947 4.444443
v -577.195984 -0.249947 -7.777787
v -565.195984 -0.249947 -7.777787
v -577.195984 -0.249947 -20.000015
v -565.195984 -0.249947 -20.000017
v -529.195984 -0.249947 -7.777787
v -529.195984 -0.249947 -20.000015
v -529.195984 -0.249947 4.444443
v -529.195984 -0.249947 16.666639
v -541.195984 -0.249947 90.000000
v -553.195984 -0.249947 77.777771
v -553.195984 -0.249947 90.000000
v -541.195984 -0.249947 77.777771
v -553.195984 -0.249947 65.555542
v -541.195984 -0.249947 65.555542
v -553.195984 -0.249947 53.333321
v -541.195984 -0.249947 53.333321
v -565.195984 -0.249947 77.777771
v -565.195984 -0.249947 90.000000
v -577.195984 -0.249947 77.777771
v -577.195984 -0.249947 90.000000
v -577.195984 -0.249947 65.555542
v -565.195984 -0.249947 65.555542
v -577.195984 -0.249947 53.333313
v -565.195984 -0.249947 53.333321
v -529.195984 -0.249947 65.555542
v -529.195984 -0.249947 77.777771
v -529.195984 -0.249947 53.333313
v -529.195984 -0.249947 90.000000
vt -0.312883 -0.118725
vt 0.500000 0.166667
vt 0.500006 -0.118721
vt -0.312877 0.166670
vt 1.000000 0.166667
vt 1.000005 -0.118723
vt 0.500000 0.333333
vt -0.312883 0.333323
vt 1.000000 0.333333
vt 0.500000 0.500000
vt -0.312881 0.500005
vt 1.000000 0.500000
vt 0.500000 0.666667
vt -0.312883 0.666695
vt 1.000000 0.666667
vt 0.500000 0.833333
vt -0.312883 0.833320
vt 1.000000 0.833333
vt 0.500000 1.000000
vt -0.312883 0.999994
vt 1.000000 1.000000
vt 0.500000 0.555556
vt 0.250000 0.444444
vt 0.250000 0.555556
vt 0.500000 0.444444
vt 0.750000 0.555556
vt 0.750000 0.444444
vt 1.000000 0.555556
vt 1.000000 0.444444
vt -0.000000 0.444444
vt -0.000000 0.555556
vt 0.500000 0.666667
vt 0.250000 0.666667
vt 0.500000 0.777778
vt 0.250000 0.777778
vt 0.500000 0.888889
vt 0.250000 0.888889
vt 0.500000 1.000000
vt 0.250000 1.000000
vt 1.000000 0.666667
vt 0.750000 0.666667
vt 1.000000 0.777778
vt 0.750000 0.777778
vt 1.000000 0.888889
vt 0.750000 0.888889
vt 1.000000 1.000000
vt 0.750000 1.000000
vt -0.000000 0.888889
vt 0.000000 1.000000
vt 0.000000 0.777778
vt -0.000000 0.666667
vt 0.250000 -0.000000
vt 0.500000 0.111111
vt 0.500000 -0.000000
vt 0.250000 0.111111
vt 0.500000 0.222222
vt 0.250000 0.222222
vt 0.500000 0.333333
vt 0.250000 0.333333
vt 0.750000 0.111111
vt 0.750000 0.000000
vt 1.000000 0.111111
vt 1.000000 0.000000
vt 1.000000 0.222222
vt 0.750000 0.222222
vt 1.000000 0.333333
vt 0.750000 0.333333
vt -0.000000 0.222222
vt 0.000000 0.111111
vt 0.000000 0.333333
vt 0.000000 -0.000000
vn 0.000000 1.000000 0.000000
vn 0.000000 1.000000 0.000000
vn 0.000000 1.000000 0.000000
vn 0.000000 1.000000 0.000000
vn 0.000000 1.000000 0.000000
vn 0.000000 1.000000 0.000000
vn 0.000000 1.000000 0.000000
vn 0.000000 1.000000 0.000000
vn 0.000000 1.000000 0.000000
vn 0.000000 1.000000 0.000000
vn 0.000000 1.000000 0.000000
vn 0.000000 1.000000 0.000000
vn 0.000000 1.000000 0.000000
vn 0.000000 1.000000 0.000000
vn 0.000000 1.000000 0.000000
vn 0.000000 1.000000 0.000000
vn 0.000000 1.000000 0.000000
vn 0.000000 1.000000 0.000000
vn 0.000000 1.000000 0.000000
vn 0.000000 1.000000 0.000000
vn 0.000000 1.000000 0.000000
vn 0.000000 1.000000 0.000000
vn 0.000000 1.000000 0.000000
vn 0.000000 1.000000 0.000000
vn 0.000000 1.000000 0.000000
vn 0.000000 1.000000 0.000000
vn 0.000000 1.000000 0.000000
vn 0.000000 1.000000 0.000000
vn 0.000000 1.000000 0.000000
vn 0.000000 1.000000 0.000000
vn 0.000000 1.000000 0.000000
vn 0.000000 1.000000 0.000000
vn 0.000000 1.000000 0.000000
vn 0.000000 1.000000 0.000000
vn 0.000000 1.000000 0.000000
vn 0.000000 1.000000 0.000000
vn 0.000000 1.000000 0.000000
vn 0.000000 1.000000 0.000000
vn 0.000000 1.000000 0.000000
vn 0.000000 1.000000 0.000000
vn 0.000000 1.000000 0.000000
vn 0.000000 1.000000 0.000000
vn 0.000000 1.000000 0.000000
vn 0.000000 1.000000 0.000000
vn 0.000000 1.000000 0.000000
vn 0.000000 1.000000 0.000000
vn 0.000000 1.000000 0.000000
vn 0.000000 1.000000 0.000000
vn 0.000000 1.000000 0.000000
vn 0.000000 1.000000 0.000000
vn 0.000000 1.000000 0.000000
vn 0.000000 1.000000 0.000000
vn 0.000000 1.000000 0.000000
vn 0.000000 1.000000 0.000000
vn 0.000000 1.000000 0.000000
vn 0.000000 1.000000 0.000000
vn 0.000000 1.000000 0.000000
vn 0.000000 1.000000 0.000000
vn 0.000000 1.000000 0.000000
vn 0.000000 1.000000 0.000000
vn 0.000000 1.000000 0.000000
vn 0.000000 1.000000 0.000000
vn 0.000000 1.000000 0.000000
vn 0.000000 1.000000 0.000000
vn 0.000000 1.000000 0.000000
vn 0.000000 1.000000 0.000000
vn 0.000000 1.000000 0.000000
vn 0.000000 1.000000 0.000000
vn 0.000000 1.000000 0.000000
vn 0.000000 1.000000 0.000000
vn 0.000000 1.000000 0.000000
usemtl material
f 1/0/1 2/0/2 3/0/3
f 2/0/2 1/0/1 4/0/4
f 5/0/5 3/0/3 2/0/2
f 3/0/3 5/0/5 6/0/6
f 4/0/4 7/0/7 2/0/2
f 7/0/7 4/0/4 8/0/8
f 2/0/2 9/0/9 5/0/5
f 9/0/9 2/0/2 7/0/7
f 8/0/8 10/0/10 7/0/7
f 10/0/10 8/0/8 11/0/11
f 7/0/7 12/0/12 9/0/9
f 12/0/12 7/0/7 10/0/10
f 11/0/11 13/0/13 10/0/10
f 13/0/13 11/0/11 14/0/14
f 10/0/10 15/0/15 12/0/12
f 15/0/15 10/0/10 13/0/13
f 14/0/14 16/0/16 13/0/13
f 16/0/16 14/0/14 17/0/17
f 13/0/13 18/0/18 15/0/15
f 18/0/18 13/0/13 16/0/16
f 17/0/17 19/0/19 16/0/16
f 19/0/19 17/0/17 20/0/20
f 16/0/16 21/0/21 18/0/18
f 21/0/21 16/0/16 19/0/19
f 22/0/22 23/0/23 24/0/24
f 23/0/23 22/0/22 25/0/25
f 26/0/26 25/0/25 22/0/22
f 25/0/25 26/0/26 27/0/27
f 28/0/28 27/0/27 26/0/26
f 27/0/27 28/0/28 29/0/29
f 30/0/30 24/0/24 23/0/23
f 24/0/24 30/0/30 31/0/31
f 24/0/24 32/0/32 22/0/22
f 32/0/32 24/0/24 33/0/33
f 31/0/31 33/0/33 24/0/24
f 33/0/33 34/0/34 32/0/32
f 34/0/34 33/0/33 35/0/35
f 35/0/35 36/0/36 34/0/34
f 36/0/36 35/0/35 37/0/37
f 37/0/37 38/0/38 36/0/36
f 38/0/38 37/0/37 39/0/39
f 26/0/26 40/0/40 28/0/28
f 40/0/40 26/0/26 41/0/41
f 41/0/41 42/0/42 40/0/40
f 42/0/42 41/0/41 43/0/43
f 43/0/43 32/0/32 34/0/34
f 32/0/32 43/0/43 41/0/41
f 43/0/43 44/0/44 42/0/42
f 44/0/44 43/0/43 45/0/45
f 45/0/45 34/0/34 36/0/36
f 34/0/34 45/0/45 43/0/43
f 45/0/45 46/0/46 44/0/44
f 46/0/46 45/0/45 47/0/47
f 47/0/47 36/0/36 38/0/38
f 36/0/36 47/0/47 45/0/45
f 41/0/41 22/0/22 32/0/32
f 22/0/22 41/0/41 26/0/26
f 48/0/48 39/0/39 37/0/37
f 39/0/39 48/0/48 49/0/49
f 37/0/37 50/0/50 48/0/48
f 50/0/50 37/0/37 35/0/35
f 35/0/35 51/0/51 50/0/50
f 51/0/51 35/0/35 33/0/33
f 33/0/33 31/0/31 51/0/51
f 52/0/52 53/0/53 54/0/54
f 53/0/53 52/0/52 55/0/55
f 55/0/55 56/0/56 53/0/53
f 56/0/56 55/0/55 57/0/57
f 57/0/57 58/0/58 56/0/56
f 58/0/58 57/0/57 59/0/59
f 59/0/59 25/0/25 58/0/58
f 25/0/25 59/0/59 23/0/23
f 60/0/60 54/0/54 53/0/53
f 54/0/54 60/0/60 61/0/61
f 62/0/62 61/0/61 60/0/60
f 61/0/61 62/0/62 63/0/63
f 60/0/60 64/0/64 62/0/62
f 64/0/64 60/0/60 65/0/65
f 53/0/53 65/0/65 60/0/60
f 65/0/65 53/0/53 56/0/56
f 65/0/65 66/0/66 64/0/64
f 66/0/66 65/0/65 67/0/67
f 56/0/56 67/0/67 65/0/65
f 67/0/67 56/0/56 58/0/58
f 67/0/67 29/0/29 66/0/66
f 29/0/29 67/0/67 27/0/27
f 58/0/58 27/0/27 67/0/67
f 27/0/27 58/0/58 25/0/25
f 68/0/68 59/0/59 57/0/57
f 57/0/57 69/0/69 68/0/68
f 59/0/59 68/0/68 70/0/70
f 70/0/70 23/0/23 59/0/59
f 23/0/23 70/0/70 30/0/30
f 55/0/55 71/0/71 69/0/69
f 71/0/71 55/0/55 52/0/52
f 69/0/69 57/0/57 55/0/55
