# 
# Wavefront OBJ file
# Created with Kaydara FBX
# 
mtllib perpstage_cave_lake01.mtl

g PerpStage_Cave_lake01
v 210.699982 -15.000224 -99.726494
v 162.849991 -15.000227 -152.379318
v 162.849991 -15.000224 -99.726494
v 210.699982 -15.000227 -152.379288
v 115.000000 -15.000227 -152.379318
v 115.000000 -15.000224 -99.726494
v 67.150009 -15.000227 -152.379318
v 67.150009 -15.000224 -99.726494
v 19.300013 -15.000227 -152.379288
v 19.300011 -15.000224 -99.726494
v 162.849991 -15.000224 -205.032104
v 210.699982 -15.000224 -205.032104
v 115.000000 -15.000224 -205.032104
v 67.150009 -15.000224 -205.032104
v 19.300013 -15.000224 -205.032104
v 162.849991 -15.000224 -257.684937
v 210.699982 -15.000224 -257.684937
v 115.000000 -15.000224 -257.684937
v 67.150009 -15.000224 -257.684937
v 19.300013 -15.000224 -257.684937
v 162.849991 -15.000227 -310.337738
v 210.699982 -15.000225 -310.337738
v 115.000000 -15.000227 -310.337738
v 67.150009 -15.000227 -310.337738
v 19.300011 -15.000225 -310.337738
v 93.685562 -20.000000 -8.260193
v 88.492722 -19.999998 9.975510
v 91.140007 -20.000000 0.857666
v 82.781990 -19.999996 25.171909
v 88.860542 -19.999998 19.093369
v 75.011520 -19.999996 29.346754
v 93.419487 -19.999998 -17.378035
v 66.977715 -19.999996 3.593002
v 60.472630 -19.999992 25.171936
v 66.065933 -19.999994 37.329041
v 70.624855 -19.999994 37.329041
v 61.507000 -19.999994 32.770126
v 61.507000 -19.999994 9.975510
v 60.472630 -19.999994 17.573715
v 72.448418 -19.999996 -2.789474
v 77.919128 -19.999996 -9.171982
v 83.389839 -19.999996 -15.554474
v 88.860542 -19.999996 -21.936964
vt -0.000003 0.053371
vt 0.250020 0.293270
vt 0.249977 0.053365
vt 0.000003 0.293281
vt 0.500057 0.293267
vt 0.500002 0.053370
vt 0.750015 0.293272
vt 0.749998 0.053367
vt 1.000002 0.293253
vt 0.999990 0.053365
vt 0.250032 0.533216
vt 0.000001 0.533167
vt 0.499993 0.533213
vt 0.749958 0.533177
vt 0.999931 0.533120
vt 0.250015 0.773102
vt 0.000002 0.773049
vt 0.499968 0.773035
vt 0.750010 0.773034
vt 1.000027 0.773053
vt 0.250001 1.012954
vt -0.000000 1.012949
vt 0.499964 1.012915
vt 0.750005 1.012895
vt 1.000044 1.012881
vt 1.161291 -0.797328
vt 1.097155 0.198920
vt 1.097155 0.198920
vt 0.972510 1.044590
vt 1.217636 0.664062
vt 0.619122 1.345977
vt 1.046052 -1.263587
vt -0.081137 0.110111
vt -0.175575 1.293053
vt 0.247663 1.856390
vt 0.482275 1.805616
vt -0.037721 1.672552
vt -0.291589 0.499495
vt -0.260197 0.902035
vt 0.129315 -0.279274
vt 0.339766 -0.668657
vt 0.550217 -1.058042
vt 0.760668 -1.447425
vn 0.000000 1.000000 0.000000
vn 0.000000 1.000000 0.000000
vn 0.000000 1.000000 0.000000
vn 0.000000 1.000000 0.000000
vn 0.000000 1.000000 0.000000
vn 0.000000 1.000000 0.000000
vn 0.000000 1.000000 0.000000
vn 0.000000 1.000000 0.000000
vn 0.000000 1.000000 0.000000
vn 0.000000 1.000000 0.000000
vn 0.000000 1.000000 0.000000
vn 0.000000 1.000000 0.000000
vn 0.000000 1.000000 0.000000
vn 0.000000 1.000000 0.000000
vn 0.000000 1.000000 0.000000
vn 0.000000 1.000000 0.000000
vn 0.000000 1.000000 0.000000
vn 0.000000 1.000000 0.000000
vn 0.000000 1.000000 0.000000
vn 0.000000 1.000000 0.000000
vn 0.000000 1.000000 0.000000
vn 0.000000 1.000000 0.000000
vn 0.000000 1.000000 0.000000
vn 0.000000 1.000000 0.000000
vn 0.000000 1.000000 0.000000
vn 0.000000 1.000000 0.000000
vn 0.000000 1.000000 -0.000000
vn 0.000012 1.000000 -0.000013
vn 0.000000 1.000000 0.000000
vn 0.000000 1.000000 -0.000000
vn 0.000000 1.000000 0.000000
vn 0.000000 1.000000 0.000000
vn 0.000000 1.000000 0.000000
vn 0.000000 1.000000 -0.000000
vn 0.000000 1.000000 0.000000
vn 0.000000 1.000000 -0.000001
vn -0.000000 1.000000 0.000001
vn 0.000000 1.000000 0.000000
vn -0.000001 1.000000 0.000000
vn 0.000000 1.000000 0.000001
vn 0.000000 1.000000 -0.000001
vn 0.000000 1.000000 0.000000
vn 0.000000 1.000000 0.000000
usemtl material
f 1/0/1 2/0/2 3/0/3
f 2/0/2 1/0/1 4/0/4
f 5/0/5 3/0/3 2/0/2
f 3/0/3 5/0/5 6/0/6
f 7/0/7 6/0/6 5/0/5
f 6/0/6 7/0/7 8/0/8
f 9/0/9 8/0/8 7/0/7
f 8/0/8 9/0/9 10/0/10
f 4/0/4 11/0/11 2/0/2
f 11/0/11 4/0/4 12/0/12
f 2/0/2 13/0/13 5/0/5
f 13/0/13 2/0/2 11/0/11
f 5/0/5 14/0/14 7/0/7
f 14/0/14 5/0/5 13/0/13
f 7/0/7 15/0/15 9/0/9
f 15/0/15 7/0/7 14/0/14
f 12/0/12 16/0/16 11/0/11
f 16/0/16 12/0/12 17/0/17
f 11/0/11 18/0/18 13/0/13
f 18/0/18 11/0/11 16/0/16
f 13/0/13 19/0/19 14/0/14
f 19/0/19 13/0/13 18/0/18
f 14/0/14 20/0/20 15/0/15
f 20/0/20 14/0/14 19/0/19
f 17/0/17 21/0/21 16/0/16
f 21/0/21 17/0/17 22/0/22
f 16/0/16 23/0/23 18/0/18
f 23/0/23 16/0/16 21/0/21
f 18/0/18 24/0/24 19/0/19
f 24/0/24 18/0/18 23/0/23
f 19/0/19 25/0/25 20/0/20
f 25/0/25 19/0/19 24/0/24
f 26/0/26 27/0/27 28/0/28
f 26/0/26 29/0/29 27/0/27
f 27/0/27 29/0/29 30/0/30
f 26/0/26 31/0/31 29/0/29
f 32/0/32 31/0/31 26/0/26
f 32/0/32 33/0/33 31/0/31
f 31/0/31 33/0/33 34/0/34
f 31/0/31 34/0/34 35/0/35
f 31/0/31 35/0/35 36/0/36
f 35/0/35 34/0/34 37/0/37
f 34/0/34 33/0/33 38/0/38
f 34/0/34 38/0/38 39/0/39
f 32/0/32 40/0/40 33/0/33
f 32/0/32 41/0/41 40/0/40
f 32/0/32 42/0/42 41/0/41
f 43/0/43 42/0/42 32/0/32
