# 
# Wavefront OBJ file
# Created with Kaydara FBX
# 
mtllib perpstage_cave_shuihua01.mtl

g PerpStage_Cave_shuihua01
v 99.079178 -13.584503 -107.680283
v 98.772293 -13.097831 -107.590508
v 98.580063 -13.097831 -107.049629
v 98.886940 -13.584503 -107.139389
v 99.271423 -13.584503 -108.221169
v 98.964516 -13.097831 -108.131393
v 99.180016 -13.584503 -108.724525
v 98.873100 -13.097831 -108.634750
v 99.082886 -13.584503 -109.218468
v 98.775963 -13.097831 -109.128677
v 98.977470 -13.584503 -109.712791
v 98.670547 -13.097831 -109.623016
v 98.863487 -13.584503 -110.197655
v 98.556557 -13.097831 -110.107880
v 98.657990 -13.584503 -110.653748
v 98.351044 -13.097831 -110.563972
v 98.443924 -13.584503 -111.100357
v 98.136963 -13.097831 -111.010590
v 98.221573 -13.584503 -111.547379
v 97.914604 -13.097831 -111.457603
v 97.993492 -13.584503 -111.984978
v 97.686531 -13.097831 -111.895203
v 97.527390 -13.584503 -112.272682
v 97.201286 -13.097831 -112.243790
v 97.061287 -13.584503 -112.560387
v 96.716042 -13.097831 -112.592377
v 97.027176 -13.584503 -112.978584
v 96.680450 -13.097831 -113.015343
v 96.716042 -13.097831 -112.592377
v 97.061287 -13.584503 -112.560387
v 97.217850 -13.584503 -113.539665
v 96.890350 -13.097832 -113.515251
v 96.680450 -13.097831 -113.015343
v 97.027176 -13.584503 -112.978584
v 97.409225 -13.584503 -114.129082
v 97.100952 -13.097832 -114.043472
v 97.599754 -13.584503 -114.695869
v 97.291580 -13.097832 -114.609955
v 97.504860 -13.584503 -115.219452
v 97.196785 -13.097832 -115.133247
v 97.409966 -13.584503 -115.743637
v 97.101997 -13.097832 -115.657158
v 97.318436 -13.584503 -116.258812
v 97.010574 -13.097832 -116.172028
v 97.225067 -13.584503 -116.764626
v 96.917290 -13.097832 -116.677536
v 97.122261 -13.584503 -117.267479
v 96.814575 -13.097832 -117.180092
v 96.918846 -13.584503 -117.738686
v 96.611267 -13.097832 -117.651001
v 96.705994 -13.584503 -118.206940
v 96.398521 -13.097832 -118.118950
v 96.488785 -13.584503 -118.673828
v 96.181427 -13.097832 -118.585541
v 96.272049 -13.584503 -119.140854
v 95.964790 -13.097832 -119.052269
v 96.065269 -13.584503 -119.611015
v 95.758102 -13.097832 -119.522125
v 95.860527 -13.584503 -120.081810
v 95.553444 -13.097831 -119.992638
v 95.668373 -13.584503 -120.521591
v 95.361397 -13.097831 -120.432098
v 95.489326 -13.584503 -120.944656
v 95.182449 -13.097831 -120.854874
v 83.128662 0.343033 27.650713
v 82.925415 0.034458 27.343664
v 82.097321 0.034458 27.338711
v 82.300575 0.343033 27.645737
v 81.429840 0.034458 27.574165
v 81.633087 0.343033 27.881203
v 80.820374 0.034458 27.896471
v 81.023613 0.343033 28.203512
v 80.219215 0.034458 28.237732
v 80.422470 0.343033 28.544767
v 79.679771 0.034458 28.658360
v 79.883018 0.343033 28.965387
v 79.148621 0.034458 29.097923
v 79.351868 0.343033 29.404964
v 78.675491 0.034458 29.624346
v 78.878738 0.343033 29.931383
v 78.362961 0.034458 30.391193
v 78.566208 0.343033 30.698221
v 80.967804 -18.351225 23.589546
v 80.894104 -18.856768 23.473818
v 80.523354 -18.856768 23.458662
v 80.597054 -18.351225 23.574389
v 80.126442 -18.856768 23.456562
v 80.200150 -18.351225 23.572294
v 79.716499 -18.856768 23.472998
v 79.790199 -18.351225 23.588730
v 79.342850 -18.856768 23.637241
v 79.416550 -18.351225 23.752974
v 78.984520 -18.856768 23.824419
v 79.058212 -18.351225 23.940153
v 78.627998 -18.856768 24.014309
v 78.701698 -18.351225 24.130045
v 78.266083 -18.856768 24.196119
v 78.339783 -18.351225 24.311859
v 77.910034 -18.856768 24.386713
v 77.983727 -18.351225 24.502455
v 77.597618 -18.856768 24.642624
v 77.671310 -18.351225 24.758366
v 77.291069 -18.856768 24.907316
v 77.364761 -18.351225 25.023058
v 76.979126 -18.856768 25.163935
v 77.052803 -18.351225 25.279673
v 76.668991 -18.856768 25.423265
v 76.742661 -18.351225 25.538998
v 76.374168 -18.856768 25.705526
v 76.447845 -18.351225 25.821264
v 76.186714 -18.856768 26.094456
v 76.260391 -18.351225 26.210199
v 76.021286 -18.856768 26.466181
v 76.094971 -18.351225 26.581921
v 75.863129 -18.856768 26.845049
v 75.936813 -18.351225 26.960781
v 83.169800 0.343033 27.742949
v 82.341736 0.343033 27.737976
v 82.267052 -0.016713 27.636835
v 83.095139 -0.016713 27.641792
v 81.599571 -0.016713 27.872290
v 81.674248 0.343033 27.973442
v 80.990097 -0.016713 28.194599
v 81.064774 0.343033 28.295750
v 80.388947 -0.016713 28.535856
v 80.463623 0.343033 28.637007
v 79.849487 -0.016713 28.956484
v 79.924171 0.343033 29.057623
v 79.318344 -0.016713 29.396051
v 79.393028 0.343033 29.497202
v 78.845215 -0.016713 29.922470
v 78.919891 0.343033 30.023621
v 78.532677 -0.016713 30.689318
v 78.607353 0.343033 30.790461
vt -0.338540 -0.864467
vt -0.338540 0.176928
vt -0.306260 0.176928
vt -0.306260 -0.864467
vt -0.370821 -0.864467
vt -0.370821 0.176928
vt -0.403102 -0.864467
vt -0.403102 0.176928
vt -0.435383 -0.864467
vt -0.435383 0.176928
vt -0.467664 -0.864467
vt -0.467664 0.176928
vt -0.499944 -0.864467
vt -0.499944 0.176928
vt -0.532225 -0.864467
vt -0.532225 0.176928
vt -0.564506 -0.864467
vt -0.564506 0.176928
vt -0.596787 -0.864467
vt -0.596787 0.176928
vt -0.629067 -0.864467
vt -0.629067 0.176928
vt -0.661348 -0.864467
vt -0.661348 0.176928
vt -0.693629 -0.864467
vt -0.693629 0.176928
vt -0.230385 -0.980714
vt -0.230717 0.071298
vt -0.225290 0.071298
vt -0.225290 -0.980714
vt -0.264436 -0.980714
vt -0.264747 0.071298
vt -0.230717 0.071298
vt -0.230385 -0.980714
vt -0.298488 -0.980714
vt -0.298778 0.071298
vt -0.332539 -0.980714
vt -0.332809 0.071298
vt -0.366591 -0.980714
vt -0.366840 0.071298
vt -0.400642 -0.980714
vt -0.400870 0.071298
vt -0.434694 -0.980714
vt -0.434901 0.071298
vt -0.468745 -0.980714
vt -0.468932 0.071298
vt -0.502796 -0.980714
vt -0.502962 0.071298
vt -0.536848 -0.980714
vt -0.536993 0.071298
vt -0.570899 -0.980714
vt -0.571024 0.071298
vt -0.604951 -0.980714
vt -0.605055 0.071298
vt -0.639002 -0.980714
vt -0.639085 0.071298
vt -0.673054 -0.980714
vt -0.673116 0.071298
vt -0.707105 -0.980714
vt -0.707147 0.071298
vt -0.741157 -0.980714
vt -0.741177 0.071298
vt -0.775208 -0.980714
vt -0.775208 0.071298
vt -0.354625 0.560773
vt -0.354642 -0.035247
vt -0.390965 -0.035207
vt -0.390947 0.560791
vt -0.427265 -0.035208
vt -0.427243 0.560787
vt -0.463759 -0.035100
vt -0.463726 0.560878
vt -0.500159 -0.035078
vt -0.500113 0.560897
vt -0.536579 -0.035188
vt -0.536538 0.560769
vt -0.572851 -0.035206
vt -0.572834 0.560727
vt -0.609076 -0.035205
vt -0.609085 0.560677
vt -0.645556 -0.035228
vt -0.645576 0.560629
vt -0.330544 -0.646099
vt -0.330411 -1.282369
vt -0.351925 -1.282343
vt -0.352229 -0.644905
vt -0.373100 -1.282398
vt -0.373911 -0.644866
vt -0.394313 -1.281290
vt -0.394375 -0.644952
vt -0.415522 -1.282294
vt -0.415873 -0.645926
vt -0.436949 -1.282086
vt -0.437307 -0.647557
vt -0.458355 -1.281999
vt -0.458441 -0.647310
vt -0.479706 -1.281555
vt -0.479458 -0.645591
vt -0.500701 -1.282017
vt -0.501717 -0.645366
vt -0.522430 -1.281798
vt -0.522787 -0.645684
vt -0.543760 -1.282226
vt -0.545138 -0.647859
vt -0.565447 -1.283148
vt -0.565825 -0.646505
vt -0.586549 -1.282441
vt -0.586521 -0.645470
vt -0.607600 -1.282655
vt -0.608079 -0.647538
vt -0.628896 -1.282223
vt -0.628395 -0.647819
vt -0.650355 -1.282247
vt -0.650205 -0.646677
vt -0.671560 -1.282122
vt -0.671179 -0.646053
vt -0.354301 0.604525
vt -0.390753 0.604558
vt -0.390717 -0.035235
vt -0.354264 -0.035270
vt -0.427078 -0.035016
vt -0.427117 0.604777
vt -0.463742 -0.035376
vt -0.463780 0.604416
vt -0.500151 -0.035050
vt -0.500189 0.604746
vt -0.536618 -0.035428
vt -0.536656 0.604363
vt -0.572752 -0.035240
vt -0.572790 0.604554
vt -0.609516 -0.035181
vt -0.609554 0.604613
vt -0.645369 -0.035085
vt -0.645407 0.604707
vn 0.831721 0.469960 0.295597
vn 0.831721 0.469958 0.295599
vn 0.831722 0.469956 0.295602
vn 0.831722 0.469956 0.295602
vn 0.848982 0.525927 0.051286
vn 0.849779 0.516026 0.107666
vn 0.822320 0.547315 -0.155679
vn 0.822409 0.547296 -0.155273
vn 0.819508 0.547840 -0.168162
vn 0.819594 0.547826 -0.167787
vn 0.815974 0.548349 -0.183031
vn 0.816067 0.548337 -0.182653
vn 0.791953 0.548820 -0.267593
vn 0.791212 0.548774 -0.269871
vn 0.760629 0.544844 -0.352970
vn 0.760232 0.544774 -0.353933
vn 0.754328 0.543665 -0.367990
vn 0.754043 0.543609 -0.368657
vn 0.748812 0.542538 -0.380701
vn 0.748395 0.542449 -0.381646
vn 0.657898 0.501969 -0.561424
vn 0.620378 0.482964 -0.617962
vn 0.509989 0.398120 -0.762504
vn 0.514313 0.379717 -0.768959
vn 0.519561 0.355872 -0.776795
vn 0.519561 0.355872 -0.776795
vn 0.815405 0.574933 -0.067573
vn 0.815405 0.574933 -0.067573
vn 0.815405 0.574933 -0.067573
vn 0.815405 0.574933 -0.067573
vn 0.801989 0.519727 0.294446
vn 0.797241 0.526765 0.294832
vn 0.783492 0.546478 0.295808
vn 0.783492 0.546478 0.295808
vn 0.825682 0.486634 0.285372
vn 0.822192 0.490955 0.288035
vn 0.847614 0.528565 0.046586
vn 0.848486 0.520087 0.097888
vn 0.823348 0.547603 -0.149092
vn 0.823346 0.547605 -0.149098
vn 0.823696 0.547470 -0.147653
vn 0.823676 0.547477 -0.147742
vn 0.823412 0.547482 -0.149183
vn 0.823450 0.547475 -0.148999
vn 0.821121 0.547895 -0.159912
vn 0.821221 0.547878 -0.159455
vn 0.797547 0.549099 -0.249816
vn 0.797057 0.549078 -0.251422
vn 0.766422 0.545479 -0.339190
vn 0.766136 0.545430 -0.339915
vn 0.761987 0.544712 -0.350234
vn 0.761838 0.544688 -0.350598
vn 0.760634 0.544507 -0.353480
vn 0.760649 0.544512 -0.353440
vn 0.763783 0.545127 -0.345647
vn 0.764097 0.545186 -0.344860
vn 0.767638 0.545840 -0.335843
vn 0.767695 0.545851 -0.335695
vn 0.768032 0.545951 -0.334760
vn 0.768007 0.545950 -0.334820
vn 0.769375 0.546207 -0.331240
vn 0.769524 0.546232 -0.330853
vn 0.771223 0.546506 -0.326414
vn 0.771223 0.546506 -0.326414
vn 0.004258 0.703925 -0.710262
vn 0.004258 0.703925 -0.710262
vn -0.127744 0.740572 -0.659724
vn -0.082752 0.729779 -0.678656
vn -0.262999 0.762018 -0.591744
vn -0.255987 0.761328 -0.595693
vn -0.309691 0.765364 -0.564188
vn -0.309025 0.765332 -0.564598
vn -0.356680 0.766445 -0.534174
vn -0.356853 0.766444 -0.534059
vn -0.402966 0.765118 -0.502208
vn -0.403649 0.765080 -0.501717
vn -0.446121 0.761577 -0.470081
vn -0.452794 0.760819 -0.464901
vn -0.561207 0.739507 -0.371721
vn -0.596860 0.728236 -0.336794
vn -0.659585 0.701914 -0.268821
vn -0.659585 0.701914 -0.268821
vn 0.039867 0.217443 -0.975259
vn 0.039867 0.217443 -0.975259
vn 0.020304 0.220288 -0.975224
vn 0.023533 0.219824 -0.975256
vn -0.019242 0.225774 -0.973990
vn -0.015384 0.225255 -0.974178
vn -0.227684 0.248711 -0.941436
vn -0.208203 0.247004 -0.946383
vn -0.418475 0.260207 -0.870156
vn -0.417319 0.260168 -0.870722
vn -0.450415 0.261119 -0.853782
vn -0.450322 0.261116 -0.853832
vn -0.443447 0.260953 -0.857472
vn -0.443752 0.260961 -0.857312
vn -0.444647 0.260987 -0.856840
vn -0.444320 0.260979 -0.857012
vn -0.535767 0.261881 -0.802728
vn -0.536338 0.261877 -0.802348
vn -0.621363 0.259811 -0.739193
vn -0.621789 0.259792 -0.738842
vn -0.622546 0.259756 -0.738216
vn -0.622152 0.259773 -0.738542
vn -0.616367 0.260003 -0.743297
vn -0.616492 0.259997 -0.743195
vn -0.643644 0.258695 -0.720277
vn -0.644968 0.258623 -0.719118
vn -0.780874 0.245322 -0.574502
vn -0.793651 0.243314 -0.557598
vn -0.883734 0.222989 -0.411450
vn -0.884936 0.222618 -0.409060
vn -0.895547 0.219176 -0.387244
vn -0.896455 0.218867 -0.385313
vn -0.900753 0.217370 -0.376025
vn -0.900753 0.217370 -0.376025
vn -0.005773 -0.269556 0.962967
vn 0.130799 -0.293413 0.946996
vn 0.161391 -0.298025 0.940816
vn -0.005773 -0.269556 0.962967
vn 0.381869 -0.322768 0.866023
vn 0.375989 -0.322316 0.868761
vn 0.454529 -0.327290 0.828423
vn 0.453837 -0.327256 0.828816
vn 0.524973 -0.329618 0.784700
vn 0.523854 -0.329599 0.785457
vn 0.591235 -0.329682 0.736038
vn 0.591419 -0.329679 0.735891
vn 0.653625 -0.327511 0.682284
vn 0.656372 -0.327359 0.679714
vn 0.805901 -0.309234 0.504873
vn 0.819792 -0.306223 0.483909
vn 0.887392 -0.285886 0.361668
vn 0.887392 -0.285886 0.361668
usemtl material
f 1/0/1 2/0/2 3/0/3
f 1/0/1 3/0/3 4/0/4
f 5/0/5 2/0/2 1/0/1
f 5/0/5 6/0/6 2/0/2
f 7/0/7 6/0/6 5/0/5
f 7/0/7 8/0/8 6/0/6
f 9/0/9 8/0/8 7/0/7
f 9/0/9 10/0/10 8/0/8
f 11/0/11 10/0/10 9/0/9
f 11/0/11 12/0/12 10/0/10
f 13/0/13 12/0/12 11/0/11
f 13/0/13 14/0/14 12/0/12
f 15/0/15 14/0/14 13/0/13
f 15/0/15 16/0/16 14/0/14
f 17/0/17 16/0/16 15/0/15
f 17/0/17 18/0/18 16/0/16
f 19/0/19 18/0/18 17/0/17
f 19/0/19 20/0/20 18/0/18
f 21/0/21 20/0/20 19/0/19
f 21/0/21 22/0/22 20/0/20
f 23/0/23 22/0/22 21/0/21
f 23/0/23 24/0/24 22/0/22
f 25/0/25 24/0/24 23/0/23
f 25/0/25 26/0/26 24/0/24
f 27/0/27 28/0/28 29/0/29
f 27/0/27 29/0/29 30/0/30
f 31/0/31 32/0/32 33/0/33
f 31/0/31 33/0/33 34/0/34
f 35/0/35 32/0/32 31/0/31
f 35/0/35 36/0/36 32/0/32
f 37/0/37 36/0/36 35/0/35
f 37/0/37 38/0/38 36/0/36
f 39/0/39 38/0/38 37/0/37
f 39/0/39 40/0/40 38/0/38
f 41/0/41 40/0/40 39/0/39
f 41/0/41 42/0/42 40/0/40
f 43/0/43 42/0/42 41/0/41
f 43/0/43 44/0/44 42/0/42
f 45/0/45 44/0/44 43/0/43
f 45/0/45 46/0/46 44/0/44
f 47/0/47 46/0/46 45/0/45
f 47/0/47 48/0/48 46/0/46
f 49/0/49 48/0/48 47/0/47
f 49/0/49 50/0/50 48/0/48
f 51/0/51 50/0/50 49/0/49
f 51/0/51 52/0/52 50/0/50
f 53/0/53 52/0/52 51/0/51
f 53/0/53 54/0/54 52/0/52
f 55/0/55 54/0/54 53/0/53
f 55/0/55 56/0/56 54/0/54
f 57/0/57 56/0/56 55/0/55
f 57/0/57 58/0/58 56/0/56
f 59/0/59 58/0/58 57/0/57
f 59/0/59 60/0/60 58/0/58
f 61/0/61 60/0/60 59/0/59
f 61/0/61 62/0/62 60/0/60
f 63/0/63 62/0/62 61/0/61
f 63/0/63 64/0/64 62/0/62
f 65/0/65 66/0/66 67/0/67
f 65/0/65 67/0/67 68/0/68
f 68/0/68 67/0/67 69/0/69
f 68/0/68 69/0/69 70/0/70
f 70/0/70 69/0/69 71/0/71
f 70/0/70 71/0/71 72/0/72
f 72/0/72 71/0/71 73/0/73
f 72/0/72 73/0/73 74/0/74
f 74/0/74 73/0/73 75/0/75
f 74/0/74 75/0/75 76/0/76
f 76/0/76 75/0/75 77/0/77
f 76/0/76 77/0/77 78/0/78
f 78/0/78 77/0/77 79/0/79
f 78/0/78 79/0/79 80/0/80
f 80/0/80 79/0/79 81/0/81
f 80/0/80 81/0/81 82/0/82
f 83/0/83 84/0/84 85/0/85
f 83/0/83 85/0/85 86/0/86
f 86/0/86 85/0/85 87/0/87
f 86/0/86 87/0/87 88/0/88
f 88/0/88 87/0/87 89/0/89
f 88/0/88 89/0/89 90/0/90
f 90/0/90 89/0/89 91/0/91
f 90/0/90 91/0/91 92/0/92
f 92/0/92 91/0/91 93/0/93
f 92/0/92 93/0/93 94/0/94
f 94/0/94 93/0/93 95/0/95
f 94/0/94 95/0/95 96/0/96
f 96/0/96 95/0/95 97/0/97
f 96/0/96 97/0/97 98/0/98
f 98/0/98 97/0/97 99/0/99
f 98/0/98 99/0/99 100/0/100
f 100/0/100 99/0/99 101/0/101
f 100/0/100 101/0/101 102/0/102
f 102/0/102 101/0/101 103/0/103
f 102/0/102 103/0/103 104/0/104
f 104/0/104 103/0/103 105/0/105
f 104/0/104 105/0/105 106/0/106
f 106/0/106 105/0/105 107/0/107
f 106/0/106 107/0/107 108/0/108
f 108/0/108 107/0/107 109/0/109
f 108/0/108 109/0/109 110/0/110
f 110/0/110 109/0/109 111/0/111
f 110/0/110 111/0/111 112/0/112
f 112/0/112 111/0/111 113/0/113
f 112/0/112 113/0/113 114/0/114
f 114/0/114 113/0/113 115/0/115
f 114/0/114 115/0/115 116/0/116
f 117/0/117 118/0/118 119/0/119
f 117/0/117 119/0/119 120/0/120
f 118/0/118 121/0/121 119/0/119
f 118/0/118 122/0/122 121/0/121
f 122/0/122 123/0/123 121/0/121
f 122/0/122 124/0/124 123/0/123
f 124/0/124 125/0/125 123/0/123
f 124/0/124 126/0/126 125/0/125
f 126/0/126 127/0/127 125/0/125
f 126/0/126 128/0/128 127/0/127
f 128/0/128 129/0/129 127/0/127
f 128/0/128 130/0/130 129/0/129
f 130/0/130 131/0/131 129/0/129
f 130/0/130 132/0/132 131/0/131
f 132/0/132 133/0/133 131/0/131
f 132/0/132 134/0/134 133/0/133
