# 
# Wavefront OBJ file
# Created with Kaydara FBX
# 
mtllib perpstage_memory_temple_pole.mtl

g PerpStage_Memory_Temple_pole
v 4.047981 1.981821 -3.177963
v 4.047981 1.981821 -3.381671
v 4.047981 0.083751 -3.381671
v 4.047981 0.083751 -3.177963
v 4.251837 0.083751 -3.381671
v 4.251837 1.981821 -3.381671
v 4.251837 1.981821 -3.177963
v 4.251837 0.083751 -3.177963
v 4.251837 0.083751 -3.177963
v 4.251837 1.981821 -3.177963
v 4.047981 1.981821 -3.177963
v 4.047981 0.083751 -3.177963
v 4.047981 0.083751 -3.381671
v 4.047981 1.981821 -3.381671
v 4.251837 1.981821 -3.381671
v 4.251837 0.083751 -3.381671
v 4.251837 7.676023 -3.177963
v 4.251837 7.676023 -3.381671
v 4.047981 7.676023 -3.381671
v 4.047981 7.676023 -3.177963
v 4.251837 3.879883 -3.381671
v 4.251837 5.777953 -3.381671
v 4.251837 5.777953 -3.177963
v 4.251837 3.879883 -3.177963
v 4.047981 3.879883 -3.381671
v 4.047981 5.777953 -3.381671
v 4.251837 5.777953 -3.381671
v 4.251837 3.879883 -3.381671
v 4.047981 5.777953 -3.177963
v 4.047981 5.777953 -3.381671
v 4.047981 3.879883 -3.381671
v 4.047981 3.879883 -3.177963
v 4.251837 3.879883 -3.177963
v 4.251837 5.777953 -3.177963
v 4.047981 5.777953 -3.177963
v 4.047981 3.879883 -3.177963
v 4.251837 1.981821 -3.381671
v 4.251837 3.879883 -3.381671
v 4.251837 3.879883 -3.177963
v 4.251837 1.981821 -3.177963
v 4.047981 1.981821 -3.381671
v 4.047981 3.879883 -3.381671
v 4.251837 3.879883 -3.381671
v 4.251837 1.981821 -3.381671
v 4.047981 3.879883 -3.177963
v 4.047981 3.879883 -3.381671
v 4.047981 1.981821 -3.381671
v 4.047981 1.981821 -3.177963
v 4.251837 1.981821 -3.177963
v 4.251837 3.879883 -3.177963
v 4.047981 3.879883 -3.177963
v 4.047981 1.981821 -3.177963
v 4.251837 5.777953 -3.381671
v 4.251837 7.676023 -3.381671
v 4.251837 7.676023 -3.177963
v 4.251837 5.777953 -3.177963
v 4.047981 5.777953 -3.381671
v 4.047981 7.676023 -3.381671
v 4.251837 7.676023 -3.381671
v 4.251837 5.777953 -3.381671
v 4.047981 7.676023 -3.177963
v 4.047981 7.676023 -3.381671
v 4.047981 5.777953 -3.381671
v 4.047981 5.777953 -3.177963
v 4.251837 5.777953 -3.177963
v 4.251837 7.676023 -3.177963
v 4.047981 7.676023 -3.177963
v 4.047981 5.777953 -3.177963
v 3.815419 0.090632 -3.614069
v 3.815419 0.090632 -2.945565
v 4.484392 0.090632 -2.945565
v 4.484392 0.090632 -3.614069
v 4.537341 -0.010655 -2.892656
v 4.484392 0.090632 -2.945565
v 3.815419 0.090632 -2.945565
v 3.762469 -0.010655 -2.892656
v 3.815419 0.090632 -3.614069
v 4.484392 0.090632 -3.614069
v 4.537341 -0.010655 -3.666977
v 3.762469 -0.010655 -3.666977
v 3.762469 -0.010655 -2.892656
v 3.815419 0.090632 -2.945565
v 3.815419 0.090632 -3.614069
v 3.762469 -0.010655 -3.666977
v 4.484392 0.090632 -3.614069
v 4.484392 0.090632 -2.945565
v 4.537341 -0.010655 -2.892656
v 4.537341 -0.010655 -3.666977
v 4.196537 0.080537 -3.024121
v 4.196537 0.385252 -3.192365
v 4.103282 0.385252 -3.192365
v 4.103282 0.080537 -3.024121
v 4.196537 0.340129 -3.274079
v 4.196537 0.035422 -3.105834
v 4.103282 0.035422 -3.105834
v 4.103282 0.340129 -3.274079
v 4.196537 0.035422 -3.105834
v 4.196537 0.340129 -3.274079
v 4.196537 0.385252 -3.192365
v 4.196537 0.080537 -3.024121
v 4.103282 0.080537 -3.024121
v 4.103282 0.385252 -3.192365
v 4.103282 0.340129 -3.274079
v 4.103282 0.035422 -3.105834
v 3.894222 0.080537 -3.233189
v 4.062458 0.385252 -3.233189
v 4.062458 0.385252 -3.326444
v 3.894222 0.080537 -3.326444
v 4.144171 0.340129 -3.233189
v 3.975935 0.035422 -3.233189
v 3.975935 0.035422 -3.326444
v 4.144171 0.340129 -3.326444
v 3.975935 0.035422 -3.233189
v 4.144171 0.340129 -3.233189
v 4.062458 0.385252 -3.233189
v 3.894222 0.080537 -3.233189
v 3.894222 0.080537 -3.326444
v 4.062458 0.385252 -3.326444
v 4.144171 0.340129 -3.326444
v 3.975935 0.035422 -3.326444
v 4.405597 0.080537 -3.326444
v 4.237361 0.385252 -3.326444
v 4.237361 0.385252 -3.233189
v 4.405597 0.080537 -3.233189
v 4.155647 0.340129 -3.326444
v 4.323883 0.035422 -3.326444
v 4.323883 0.035422 -3.233189
v 4.155647 0.340129 -3.233189
v 4.323883 0.035422 -3.326444
v 4.155647 0.340129 -3.326444
v 4.237361 0.385252 -3.326444
v 4.405597 0.080537 -3.326444
v 4.405597 0.080537 -3.233189
v 4.237361 0.385252 -3.233189
v 4.155647 0.340129 -3.233189
v 4.323883 0.035422 -3.233189
v 4.103282 0.080537 -3.535496
v 4.103282 0.385252 -3.367268
v 4.196537 0.385252 -3.367268
v 4.196537 0.080537 -3.535496
v 4.103282 0.340129 -3.285555
v 4.103282 0.035422 -3.453783
v 4.196537 0.035422 -3.453783
v 4.196537 0.340129 -3.285555
v 4.103282 0.035422 -3.453783
v 4.103282 0.340129 -3.285555
v 4.103282 0.385252 -3.367268
v 4.103282 0.080537 -3.535496
v 4.196537 0.080537 -3.535496
v 4.196537 0.385252 -3.367268
v 4.196537 0.340129 -3.285555
v 4.196537 0.035422 -3.453783
v 4.107228 6.480860 -3.214249
v 3.244386 7.311305 -3.214249
v 3.244386 7.311305 -3.345385
v 4.107228 6.480860 -3.345385
v 3.335389 7.405859 -3.214249
v 4.198239 6.575415 -3.214249
v 4.198239 6.575415 -3.345385
v 3.335389 7.405859 -3.345385
v 4.198239 6.575415 -3.214249
v 3.335389 7.405859 -3.214249
v 3.244386 7.311305 -3.214249
v 4.107228 6.480860 -3.214249
v 4.107228 6.480860 -3.345385
v 3.244386 7.311305 -3.345385
v 3.335389 7.405859 -3.345385
v 4.198239 6.575415 -3.345385
v 2.321838 7.451714 -3.192727
v 4.557252 7.451714 -3.192727
v 4.557252 7.451714 -3.366906
v 2.321838 7.451714 -3.366906
v 2.321838 7.265794 -3.192727
v 4.557252 7.265794 -3.192727
v 4.557252 7.451714 -3.192727
v 2.321838 7.451714 -3.192727
v 2.321838 7.451714 -3.366906
v 4.557252 7.451714 -3.366906
v 4.557252 7.265794 -3.366906
v 2.321838 7.265794 -3.366906
v 2.321838 7.265794 -3.366906
v 2.321838 7.265794 -3.192727
v 2.321838 7.451714 -3.192727
v 2.321838 7.451714 -3.366906
v 4.557252 7.451714 -3.366906
v 4.557252 7.451714 -3.192727
v 4.557252 7.265794 -3.192727
v 4.557252 7.265794 -3.366906
v 4.557252 7.265794 -3.366906
v 4.557252 7.265794 -3.192727
v 2.321838 7.265794 -3.192727
v 2.321838 7.265794 -3.366906
vt 0.812067 0.936557
vt 0.845387 0.936557
vt 0.845387 0.626080
vt 0.812067 0.626080
vt 0.824564 0.626080
vt 0.824564 0.936557
vt 0.857909 0.936557
vt 0.857909 0.626080
vt 0.824564 0.626080
vt 0.824564 0.936557
vt 0.857909 0.936557
vt 0.857909 0.626080
vt 0.812381 0.626080
vt 0.812381 0.936557
vt 0.845725 0.936557
vt 0.845725 0.626080
vt 0.751325 0.869331
vt 0.784565 0.869331
vt 0.784565 0.836067
vt 0.751325 0.836067
vt 0.751266 0.626080
vt 0.751266 0.936557
vt 0.784586 0.936557
vt 0.784586 0.626080
vt 0.812381 0.626080
vt 0.812381 0.936557
vt 0.845725 0.936557
vt 0.845725 0.626080
vt 0.812067 0.936557
vt 0.845387 0.936557
vt 0.845387 0.626080
vt 0.812067 0.626080
vt 0.824564 0.626080
vt 0.824564 0.936557
vt 0.857909 0.936557
vt 0.857909 0.626080
vt 0.824564 0.626080
vt 0.824564 0.936557
vt 0.857909 0.936557
vt 0.857909 0.626080
vt 0.901773 0.626080
vt 0.901773 0.936557
vt 0.935117 0.936557
vt 0.935117 0.626080
vt 0.812067 0.936557
vt 0.845387 0.936557
vt 0.845387 0.626080
vt 0.812067 0.626080
vt 0.824564 0.626080
vt 0.824564 0.936557
vt 0.857909 0.936557
vt 0.857909 0.626080
vt 0.824564 0.626080
vt 0.824564 0.936557
vt 0.857909 0.936557
vt 0.857909 0.626080
vt 0.901773 0.626080
vt 0.901773 0.936557
vt 0.935117 0.936557
vt 0.935117 0.626080
vt 0.812067 0.936557
vt 0.845387 0.936557
vt 0.845387 0.626080
vt 0.812067 0.626080
vt 0.824564 0.626080
vt 0.824564 0.936557
vt 0.857909 0.936557
vt 0.857909 0.626080
vt 0.905200 0.638308
vt 0.905200 0.718966
vt 0.985917 0.718966
vt 0.985917 0.638308
vt 0.992305 0.731187
vt 0.985917 0.718966
vt 0.905200 0.718966
vt 0.898811 0.731187
vt 0.905200 0.638308
vt 0.985917 0.638308
vt 0.992305 0.626087
vt 0.898811 0.626087
vt 0.892979 0.725351
vt 0.905200 0.718966
vt 0.905200 0.638308
vt 0.892979 0.631924
vt 0.985917 0.638308
vt 0.985917 0.718966
vt 0.998137 0.725351
vt 0.998137 0.631924
vt 0.780598 0.628528
vt 0.780598 0.733699
vt 0.808917 0.733699
vt 0.808917 0.628528
vt 0.866015 0.733699
vt 0.866015 0.628528
vt 0.837392 0.628528
vt 0.837392 0.733699
vt 0.752871 0.628528
vt 0.752871 0.733699
vt 0.780598 0.733699
vt 0.780598 0.628528
vt 0.808917 0.628528
vt 0.808917 0.733699
vt 0.837392 0.733699
vt 0.837392 0.628528
vt 0.865624 0.829779
vt 0.865625 0.934949
vt 0.893944 0.934949
vt 0.893944 0.829778
vt 0.951042 0.934949
vt 0.951041 0.829778
vt 0.922419 0.829778
vt 0.922419 0.934949
vt 0.837898 0.829778
vt 0.837898 0.934949
vt 0.865625 0.934949
vt 0.865624 0.829779
vt 0.893944 0.829778
vt 0.893944 0.934949
vt 0.922419 0.934949
vt 0.922419 0.829778
vt 0.912721 0.625997
vt 0.912721 0.731168
vt 0.941041 0.731168
vt 0.941041 0.625997
vt 0.998138 0.731168
vt 0.998138 0.625997
vt 0.969515 0.625997
vt 0.969515 0.731168
vt 0.884994 0.625997
vt 0.884995 0.731168
vt 0.912721 0.731168
vt 0.912721 0.625997
vt 0.941041 0.625997
vt 0.941041 0.731168
vt 0.969515 0.731168
vt 0.969515 0.625997
vt 0.780598 0.628528
vt 0.780598 0.733699
vt 0.808917 0.733699
vt 0.808917 0.628528
vt 0.866015 0.733699
vt 0.866015 0.628528
vt 0.837392 0.628528
vt 0.837392 0.733699
vt 0.752871 0.628528
vt 0.752871 0.733699
vt 0.780598 0.733699
vt 0.780598 0.628528
vt 0.808917 0.628528
vt 0.808917 0.733699
vt 0.837392 0.733699
vt 0.837392 0.628528
vt 0.816775 0.627147
vt 0.816775 0.936557
vt 0.850614 0.936557
vt 0.850614 0.627147
vt 0.850614 0.936557
vt 0.850614 0.627147
vt 0.816775 0.627147
vt 0.816775 0.936557
vt 0.816775 0.627147
vt 0.816775 0.936557
vt 0.850614 0.936557
vt 0.850614 0.627147
vt 0.816775 0.627147
vt 0.816775 0.936557
vt 0.850614 0.936557
vt 0.850614 0.627147
vt 0.821174 0.627147
vt 0.821174 0.936557
vt 0.846485 0.936557
vt 0.846485 0.627147
vt 0.821174 0.627147
vt 0.821174 0.936557
vt 0.846485 0.936557
vt 0.846485 0.627147
vt 0.846485 0.936557
vt 0.846485 0.627147
vt 0.821174 0.627147
vt 0.821174 0.936557
vt 0.846485 0.796502
vt 0.821174 0.796502
vt 0.821174 0.824168
vt 0.846485 0.824168
vt 0.846485 0.796502
vt 0.821174 0.796502
vt 0.821174 0.824168
vt 0.846485 0.824168
vt 0.846485 0.627147
vt 0.821174 0.627147
vt 0.821174 0.936557
vt 0.846485 0.936557
vn -1.000000 0.000000 0.000000
vn -1.000000 0.000000 0.000000
vn -1.000000 0.000000 0.000000
vn -1.000000 0.000000 0.000000
vn 1.000000 0.000000 0.000000
vn 1.000000 0.000000 0.000000
vn 1.000000 0.000000 0.000000
vn 1.000000 0.000000 0.000000
vn 0.000000 0.000000 1.000000
vn 0.000000 0.000000 1.000000
vn 0.000000 0.000000 1.000000
vn 0.000000 0.000000 1.000000
vn 0.000000 0.000000 -1.000000
vn 0.000000 0.000000 -1.000000
vn 0.000000 0.000000 -1.000000
vn 0.000000 0.000000 -1.000000
vn 0.000000 1.000000 0.000000
vn 0.000000 1.000000 0.000000
vn 0.000000 1.000000 0.000000
vn 0.000000 1.000000 0.000000
vn 1.000000 0.000000 0.000000
vn 1.000000 0.000000 0.000000
vn 1.000000 0.000000 0.000000
vn 1.000000 0.000000 0.000000
vn 0.000000 0.000000 -1.000000
vn 0.000000 0.000000 -1.000000
vn 0.000000 0.000000 -1.000000
vn 0.000000 0.000000 -1.000000
vn -1.000000 0.000000 0.000000
vn -1.000000 0.000000 0.000000
vn -1.000000 0.000000 0.000000
vn -1.000000 0.000000 0.000000
vn 0.000000 0.000000 1.000000
vn 0.000000 0.000000 1.000000
vn 0.000000 0.000000 1.000000
vn 0.000000 0.000000 1.000000
vn 1.000000 0.000000 0.000000
vn 1.000000 0.000000 0.000000
vn 1.000000 0.000000 0.000000
vn 1.000000 0.000000 0.000000
vn 0.000000 0.000000 -1.000000
vn 0.000000 0.000000 -1.000000
vn 0.000000 0.000000 -1.000000
vn 0.000000 0.000000 -1.000000
vn -1.000000 0.000000 0.000000
vn -1.000000 0.000000 0.000000
vn -1.000000 0.000000 0.000000
vn -1.000000 0.000000 0.000000
vn 0.000000 0.000000 1.000000
vn 0.000000 0.000000 1.000000
vn 0.000000 0.000000 1.000000
vn 0.000000 0.000000 1.000000
vn 1.000000 0.000000 0.000000
vn 1.000000 0.000000 0.000000
vn 1.000000 0.000000 0.000000
vn 1.000000 0.000000 0.000000
vn 0.000000 0.000000 -1.000000
vn 0.000000 0.000000 -1.000000
vn 0.000000 0.000000 -1.000000
vn 0.000000 0.000000 -1.000000
vn -1.000000 0.000000 0.000000
vn -1.000000 0.000000 0.000000
vn -1.000000 0.000000 0.000000
vn -1.000000 0.000000 0.000000
vn 0.000000 0.000000 1.000000
vn 0.000000 0.000000 1.000000
vn 0.000000 0.000000 1.000000
vn 0.000000 0.000000 1.000000
vn 0.000000 1.000000 0.000000
vn 0.000000 1.000000 0.000000
vn 0.000000 1.000000 0.000000
vn 0.000000 1.000000 0.000000
vn 0.000000 0.462999 0.886359
vn 0.000000 0.462999 0.886359
vn 0.000000 0.462999 0.886359
vn 0.000000 0.462999 0.886359
vn 0.000000 0.462999 -0.886359
vn 0.000000 0.462999 -0.886359
vn 0.000000 0.462999 -0.886359
vn 0.000000 0.462999 -0.886359
vn -0.886211 0.463281 0.000000
vn -0.886211 0.463281 0.000000
vn -0.886211 0.463281 0.000000
vn -0.886211 0.463281 0.000000
vn 0.886212 0.463280 0.000000
vn 0.886212 0.463280 0.000000
vn 0.886212 0.463280 0.000000
vn 0.886212 0.463280 0.000000
vn 0.000000 0.483354 0.875425
vn 0.000000 0.483354 0.875425
vn 0.000000 0.483354 0.875425
vn 0.000000 0.483354 0.875425
vn 0.000000 -0.483363 -0.875420
vn 0.000000 -0.483363 -0.875420
vn 0.000000 -0.483363 -0.875420
vn 0.000000 -0.483363 -0.875420
vn 1.000000 0.000000 0.000000
vn 1.000000 0.000000 0.000000
vn 1.000000 0.000000 0.000000
vn 1.000000 0.000000 0.000000
vn -1.000000 0.000000 0.000000
vn -1.000000 0.000000 0.000000
vn -1.000000 0.000000 0.000000
vn -1.000000 0.000000 0.000000
vn -0.875436 0.483334 0.000000
vn -0.875436 0.483334 0.000000
vn -0.875436 0.483334 0.000000
vn -0.875436 0.483334 0.000000
vn 0.875430 -0.483345 0.000000
vn 0.875430 -0.483345 0.000000
vn 0.875430 -0.483345 0.000000
vn 0.875430 -0.483345 0.000000
vn 0.000000 0.000000 1.000000
vn 0.000000 0.000000 1.000000
vn 0.000000 0.000000 1.000000
vn 0.000000 0.000000 1.000000
vn 0.000000 0.000000 -1.000000
vn 0.000000 0.000000 -1.000000
vn 0.000000 0.000000 -1.000000
vn 0.000000 0.000000 -1.000000
vn 0.875436 0.483335 0.000000
vn 0.875436 0.483335 0.000000
vn 0.875436 0.483335 0.000000
vn 0.875436 0.483335 0.000000
vn -0.875431 -0.483344 0.000000
vn -0.875431 -0.483344 0.000000
vn -0.875431 -0.483344 0.000000
vn -0.875431 -0.483344 0.000000
vn 0.000000 0.000000 -1.000000
vn 0.000000 0.000000 -1.000000
vn 0.000000 0.000000 -1.000000
vn 0.000000 0.000000 -1.000000
vn 0.000000 0.000000 1.000000
vn 0.000000 0.000000 1.000000
vn 0.000000 0.000000 1.000000
vn 0.000000 0.000000 1.000000
vn 0.000000 0.483317 -0.875445
vn 0.000000 0.483317 -0.875445
vn 0.000000 0.483317 -0.875445
vn 0.000000 0.483317 -0.875445
vn 0.000000 -0.483327 0.875440
vn 0.000000 -0.483327 0.875440
vn 0.000000 -0.483327 0.875440
vn 0.000000 -0.483327 0.875440
vn -1.000000 -0.000002 0.000000
vn -1.000000 -0.000002 0.000000
vn -1.000000 -0.000002 0.000000
vn -1.000000 -0.000002 0.000000
vn 1.000000 0.000000 0.000000
vn 1.000000 0.000000 0.000000
vn 1.000000 0.000000 0.000000
vn 1.000000 0.000000 0.000000
vn -0.693451 -0.720504 0.000000
vn -0.693451 -0.720504 0.000000
vn -0.693451 -0.720504 0.000000
vn -0.693451 -0.720504 0.000000
vn 0.693448 0.720507 0.000000
vn 0.693448 0.720507 0.000000
vn 0.693448 0.720507 0.000000
vn 0.693448 0.720507 0.000000
vn -0.000001 0.000000 1.000000
vn -0.000001 0.000000 1.000000
vn -0.000001 0.000000 1.000000
vn -0.000001 0.000000 1.000000
vn -0.000001 0.000000 -1.000000
vn -0.000001 0.000000 -1.000000
vn -0.000001 0.000000 -1.000000
vn -0.000001 0.000000 -1.000000
vn 0.000000 1.000000 0.000000
vn 0.000000 1.000000 0.000000
vn 0.000000 1.000000 0.000000
vn 0.000000 1.000000 0.000000
vn 0.000000 0.000000 1.000000
vn 0.000000 0.000000 1.000000
vn 0.000000 0.000000 1.000000
vn 0.000000 0.000000 1.000000
vn 0.000000 0.000000 -1.000000
vn 0.000000 0.000000 -1.000000
vn 0.000000 0.000000 -1.000000
vn 0.000000 0.000000 -1.000000
vn -1.000000 0.000000 0.000000
vn -1.000000 0.000000 0.000000
vn -1.000000 0.000000 0.000000
vn -1.000000 0.000000 0.000000
vn 1.000000 0.000000 0.000000
vn 1.000000 0.000000 0.000000
vn 1.000000 0.000000 0.000000
vn 1.000000 0.000000 0.000000
vn 0.000000 -1.000000 0.000000
vn 0.000000 -1.000000 0.000000
vn 0.000000 -1.000000 0.000000
vn 0.000000 -1.000000 0.000000
usemtl material
f 1/0/1 2/0/2 3/0/3
f 1/0/1 3/0/3 4/0/4
f 5/0/5 6/0/6 7/0/7
f 5/0/5 7/0/7 8/0/8
f 9/0/9 10/0/10 11/0/11
f 9/0/9 11/0/11 12/0/12
f 13/0/13 14/0/14 15/0/15
f 13/0/13 15/0/15 16/0/16
f 17/0/17 18/0/18 19/0/19
f 17/0/17 19/0/19 20/0/20
f 21/0/21 22/0/22 23/0/23
f 21/0/21 23/0/23 24/0/24
f 25/0/25 26/0/26 27/0/27
f 25/0/25 27/0/27 28/0/28
f 29/0/29 30/0/30 31/0/31
f 29/0/29 31/0/31 32/0/32
f 33/0/33 34/0/34 35/0/35
f 33/0/33 35/0/35 36/0/36
f 37/0/37 38/0/38 39/0/39
f 37/0/37 39/0/39 40/0/40
f 41/0/41 42/0/42 43/0/43
f 41/0/41 43/0/43 44/0/44
f 45/0/45 46/0/46 47/0/47
f 45/0/45 47/0/47 48/0/48
f 49/0/49 50/0/50 51/0/51
f 49/0/49 51/0/51 52/0/52
f 53/0/53 54/0/54 55/0/55
f 53/0/53 55/0/55 56/0/56
f 57/0/57 58/0/58 59/0/59
f 57/0/57 59/0/59 60/0/60
f 61/0/61 62/0/62 63/0/63
f 61/0/61 63/0/63 64/0/64
f 65/0/65 66/0/66 67/0/67
f 65/0/65 67/0/67 68/0/68
f 69/0/69 70/0/70 71/0/71
f 69/0/69 71/0/71 72/0/72
f 73/0/73 74/0/74 75/0/75
f 73/0/73 75/0/75 76/0/76
f 77/0/77 78/0/78 79/0/79
f 77/0/77 79/0/79 80/0/80
f 81/0/81 82/0/82 83/0/83
f 81/0/81 83/0/83 84/0/84
f 85/0/85 86/0/86 87/0/87
f 85/0/85 87/0/87 88/0/88
f 89/0/89 90/0/90 91/0/91
f 89/0/89 91/0/91 92/0/92
f 93/0/93 94/0/94 95/0/95
f 93/0/93 95/0/95 96/0/96
f 97/0/97 98/0/98 99/0/99
f 97/0/97 99/0/99 100/0/100
f 101/0/101 102/0/102 103/0/103
f 101/0/101 103/0/103 104/0/104
f 105/0/105 106/0/106 107/0/107
f 105/0/105 107/0/107 108/0/108
f 109/0/109 110/0/110 111/0/111
f 109/0/109 111/0/111 112/0/112
f 113/0/113 114/0/114 115/0/115
f 113/0/113 115/0/115 116/0/116
f 117/0/117 118/0/118 119/0/119
f 117/0/117 119/0/119 120/0/120
f 121/0/121 122/0/122 123/0/123
f 121/0/121 123/0/123 124/0/124
f 125/0/125 126/0/126 127/0/127
f 125/0/125 127/0/127 128/0/128
f 129/0/129 130/0/130 131/0/131
f 129/0/129 131/0/131 132/0/132
f 133/0/133 134/0/134 135/0/135
f 133/0/133 135/0/135 136/0/136
f 137/0/137 138/0/138 139/0/139
f 137/0/137 139/0/139 140/0/140
f 141/0/141 142/0/142 143/0/143
f 141/0/141 143/0/143 144/0/144
f 145/0/145 146/0/146 147/0/147
f 145/0/145 147/0/147 148/0/148
f 149/0/149 150/0/150 151/0/151
f 149/0/149 151/0/151 152/0/152
f 153/0/153 154/0/154 155/0/155
f 153/0/153 155/0/155 156/0/156
f 157/0/157 158/0/158 159/0/159
f 157/0/157 159/0/159 160/0/160
f 161/0/161 162/0/162 163/0/163
f 161/0/161 163/0/163 164/0/164
f 165/0/165 166/0/166 167/0/167
f 165/0/165 167/0/167 168/0/168
f 169/0/169 170/0/170 171/0/171
f 169/0/169 171/0/171 172/0/172
f 173/0/173 174/0/174 175/0/175
f 173/0/173 175/0/175 176/0/176
f 177/0/177 178/0/178 179/0/179
f 177/0/177 179/0/179 180/0/180
f 181/0/181 182/0/182 183/0/183
f 181/0/181 183/0/183 184/0/184
f 185/0/185 186/0/186 187/0/187
f 185/0/185 187/0/187 188/0/188
f 189/0/189 190/0/190 191/0/191
f 189/0/189 191/0/191 192/0/192
