# 
# Wavefront OBJ file
# Created with Kaydara FBX
# 
mtllib perpstage_cave_pebble01_09.mtl

g PerpStage_Cave_pebble01_09
v 114.316101 2.385300 -73.689400
v 115.024391 1.781300 -73.243500
v 114.458504 1.767500 -73.491501
v 115.643204 0.169600 -72.059196
v 116.207603 0.478100 -72.046501
v 116.114693 2.354800 -71.808197
v 115.232597 2.990900 -73.014702
v 115.485703 3.218000 -72.231400
v 116.197998 2.041000 -72.331299
v 114.408897 4.371100 -73.474197
v 113.859489 3.758100 -73.242897
v 113.677399 5.109800 -73.391502
v 115.232597 2.990900 -73.014702
v 114.608200 2.372600 -72.450996
v 115.072304 2.054600 -72.763901
v 114.767097 1.981500 -72.562599
v 114.608200 2.372600 -72.450996
v 115.232597 2.990900 -73.014702
v 115.735191 1.676100 -72.559097
v 116.207603 0.478100 -72.046501
v 115.072304 2.054600 -72.763901
v 114.316101 2.385300 -73.689400
v 114.556694 2.312600 -73.106796
v 115.232597 2.990900 -73.014702
v 116.197998 2.041000 -72.331299
v 115.735191 1.676100 -72.559097
v 115.072304 2.054600 -72.763901
v 115.024391 1.781300 -73.243500
v 114.316101 2.385300 -73.689400
v 114.295700 1.986500 -73.108902
v 114.316101 2.385300 -73.689400
v 114.458504 1.767500 -73.491501
v 115.170990 0.761500 -71.649200
v 115.466698 0.341000 -71.467903
v 115.643204 0.169600 -72.059196
v 114.422798 4.398700 -72.643303
v 113.677399 5.109800 -73.391502
v 113.796402 3.915300 -72.563797
v 114.550095 2.360700 -71.834099
v 115.381393 3.093000 -71.567596
v 113.796402 3.915300 -72.563797
v 113.677399 5.109800 -73.391502
v 113.859489 3.758100 -73.242897
v 114.550095 2.360700 -71.834099
v 114.608200 2.372600 -72.450996
v 115.170990 0.761500 -71.649200
v 114.767097 1.981500 -72.562599
v 114.295700 1.986500 -73.108902
v 114.767097 1.981500 -72.562599
v 114.556694 2.312600 -73.106796
v 114.295700 1.986500 -73.108902
v 114.316101 2.385300 -73.689400
v 116.207603 0.478100 -72.046501
v 115.024391 1.781300 -73.243500
v 115.072304 2.054600 -72.763901
v 115.381393 3.093000 -71.567596
v 115.485703 3.218000 -72.231400
v 114.422798 4.398700 -72.643303
v 116.007401 2.456400 -71.365501
v 116.114693 2.354800 -71.808197
v 115.232597 2.990900 -73.014702
v 114.408897 4.371100 -73.474197
v 114.422798 4.398700 -72.643303
v 115.485703 3.218000 -72.231400
v 113.677399 5.109800 -73.391502
v 114.550095 2.360700 -71.834099
v 114.650398 2.877800 -71.258797
v 115.381393 3.093000 -71.567596
v 116.114693 2.354800 -71.808197
v 116.844002 1.181700 -71.241600
v 116.932701 0.961600 -71.836304
v 116.197998 2.041000 -72.331299
v 116.289101 0.958000 -71.077301
v 116.685394 3.228400 -70.914497
v 116.007401 2.456400 -71.365501
v 116.393600 3.671000 -71.528397
v 116.979996 4.186700 -71.491302
v 116.114693 2.354800 -71.808197
v 117.189598 3.086800 -71.829903
v 116.844002 1.181700 -71.241600
v 116.707802 3.499100 -71.818497
v 116.979996 4.186700 -71.491302
v 116.393600 3.671000 -71.528397
v 116.707802 3.499100 -71.818497
v 116.114693 2.354800 -71.808197
v 116.007401 2.456400 -71.365501
v 116.979996 4.186700 -71.491302
v 117.189598 3.086800 -71.829903
v 116.979996 4.186700 -71.491302
v 117.202095 3.225700 -71.167290
v 116.844002 1.181700 -71.241600
v 116.844002 1.181700 -71.241600
v 117.202095 3.225700 -71.167290
v 116.685394 3.228400 -70.914497
v 116.289101 0.958000 -71.077301
v 116.979996 4.186700 -71.491302
v 115.381393 3.093000 -71.567596
v 115.612701 2.952700 -70.981903
v 116.007401 2.456400 -71.365501
v 114.894089 3.675400 -71.051399
v 114.650398 2.877800 -71.258797
v 114.894089 3.675400 -71.051399
v 115.381393 3.093000 -71.567596
v 114.862389 2.320100 -70.849297
v 115.457603 0.651500 -70.767197
v 115.612701 2.952700 -70.981903
v 116.289101 0.958000 -71.077301
v 115.612701 2.952700 -70.981903
v 114.894089 3.675400 -71.051399
v 114.862389 2.320100 -70.849297
v 114.650398 2.877800 -71.258797
v 114.862389 2.320100 -70.849297
v 114.894089 3.675400 -71.051399
v 116.652802 2.146500 -72.914101
v 116.932701 0.961600 -71.836304
v 116.207603 0.478100 -72.046501
v 116.162300 1.658000 -73.414803
v 116.043892 3.025200 -74.039597
v 116.102097 2.598600 -72.888496
v 116.197998 2.041000 -72.331299
v 116.932701 0.961600 -71.836304
v 116.652802 2.146500 -72.914101
v 116.043892 3.025200 -74.039597
v 115.735191 1.676100 -72.559097
v 115.620399 2.164900 -73.278099
v 116.207603 0.478100 -72.046501
v 116.162300 1.658000 -73.414803
v 116.043892 3.025200 -74.039597
v 116.102097 2.598600 -72.888496
v 116.043892 3.025200 -74.039597
v 115.620399 2.164900 -73.278099
v 115.735191 1.676100 -72.559097
v 116.197998 2.041000 -72.331299
v 116.932701 0.961600 -71.836304
v 116.701195 2.153000 -72.748398
v 117.228897 2.456900 -72.341202
v 116.922302 3.354000 -72.843399
v 116.844002 1.181700 -71.241600
v 116.883698 2.647400 -71.834702
v 116.114693 2.354800 -71.808197
v 116.178589 2.077100 -72.347603
v 116.701195 2.153000 -72.748398
v 116.932701 0.961600 -71.836304
v 116.114693 2.354800 -71.808197
v 116.922302 3.354000 -72.843399
v 116.178589 2.077100 -72.347603
v 116.178589 2.077100 -72.347603
v 116.922302 3.354000 -72.843399
v 116.701195 2.153000 -72.748398
v 116.883698 2.647400 -71.834702
v 116.922302 3.354000 -72.843399
v 116.114693 2.354800 -71.808197
v 117.228897 2.456900 -72.341202
v 116.883698 2.647400 -71.834702
v 116.844002 1.181700 -71.241600
v 116.932701 0.961600 -71.836304
v 116.922302 3.354000 -72.843399
v 113.590103 1.501100 -71.010696
v 115.462692 0.483600 -71.146599
v 115.457603 0.651500 -70.767197
v 114.208794 2.104900 -70.406700
v 113.304596 2.486600 -70.815300
v 114.862389 2.320100 -70.849297
v 115.457603 0.651500 -70.767197
v 115.462692 0.483600 -71.146599
v 113.590103 1.501100 -71.010696
v 114.243896 1.641000 -71.674599
v 114.200897 2.051500 -71.366203
v 113.304596 2.486600 -70.815300
v 114.862389 2.320100 -70.849297
v 114.243896 1.641000 -71.674599
v 113.590103 1.501100 -71.010696
v 113.304596 2.486600 -70.815300
v 114.243896 1.641000 -71.674599
v 114.200897 2.051500 -71.366203
v 114.071091 2.073000 -71.713501
v 114.243896 1.641000 -71.674599
v 113.149391 2.438500 -72.559601
v 113.468590 3.033000 -72.456802
v 112.978897 2.987200 -73.166298
v 115.170990 0.761500 -71.649200
v 115.466698 0.341000 -71.467903
v 115.462692 0.483600 -71.146599
v 115.170990 0.761500 -71.649200
v 115.462692 0.483600 -71.146599
v 114.243896 1.641000 -71.674599
v 113.149391 2.438500 -72.559601
v 113.548599 2.270500 -73.071297
v 112.978897 2.987200 -73.166298
v 113.612495 3.059400 -73.132004
v 112.978897 2.987200 -73.166298
v 113.468590 3.033000 -72.456802
v 114.608200 2.372600 -72.450996
v 114.550095 2.360700 -71.834099
v 112.978897 2.987200 -73.166298
v 113.612495 3.059400 -73.132004
v 113.548599 2.270500 -73.071297
v 114.608200 2.372600 -72.450996
v 114.767097 1.981500 -72.562599
v 115.170990 0.761500 -71.649200
v 113.468590 3.033000 -72.456802
v 114.071091 2.073000 -71.713501
v 114.550095 2.360700 -71.834099
v 114.200897 2.051500 -71.366203
v 114.862389 2.320100 -70.849297
v 114.650398 2.877800 -71.258797
v 114.200897 2.051500 -71.366203
v 114.550095 2.360700 -71.834099
v 114.071091 2.073000 -71.713501
v 114.767097 1.981500 -72.562599
v 115.072304 2.054600 -72.763901
v 114.556694 2.312600 -73.106796
v 116.289101 0.958000 -71.077301
v 116.007401 2.456400 -71.365501
v 115.612701 2.952700 -70.981903
v 114.200897 2.051500 -71.366203
v 114.650398 2.877800 -71.258797
v 114.550095 2.360700 -71.834099
vt 0.780000 0.714300
vt 0.781300 0.630900
vt 0.752200 0.668100
vt 0.721600 0.471700
vt 0.767800 0.459000
vt 0.873700 0.630700
vt 0.798300 0.735500
vt 0.861100 0.723400
vt 0.829900 0.616700
vt 0.722700 0.677500
vt 0.657100 0.655800
vt 0.691500 0.739400
vt 0.729100 0.570000
vt 0.649500 0.542400
vt 0.689300 0.515400
vt 0.658200 0.515800
vt 0.649500 0.542400
vt 0.729100 0.570000
vt 0.730300 0.474800
vt 0.732400 0.385600
vt 0.767400 0.578100
vt 0.749300 0.673400
vt 0.769200 0.630100
vt 0.798300 0.735500
vt 0.829900 0.616700
vt 0.782900 0.615900
vt 0.767400 0.578100
vt 0.728600 0.593100
vt 0.749300 0.673400
vt 0.832200 0.433900
vt 0.809000 0.383700
vt 0.797200 0.436300
vt 0.859900 0.600500
vt 0.849700 0.643700
vt 0.802800 0.634900
vt 0.763900 0.592500
vt 0.807100 0.685700
vt 0.818400 0.568900
vt 0.793000 0.418000
vt 0.711900 0.443500
vt 0.835100 0.536600
vt 0.855100 0.652200
vt 0.886300 0.546500
vt 0.838800 0.383700
vt 0.881300 0.402900
vt 0.892800 0.497900
vt 0.795300 0.585300
vt 0.797200 0.642100
vt 0.795300 0.585300
vt 0.769200 0.630100
vt 0.797200 0.642100
vt 0.749300 0.673400
vt 0.700400 0.418600
vt 0.728600 0.593100
vt 0.767400 0.578100
vt 0.984900 0.478200
vt 0.943100 0.509100
vt 0.983200 0.636400
vt 0.960000 0.408300
vt 0.926200 0.416900
vt 0.888900 0.543300
vt 0.932100 0.672900
vt 0.983200 0.636400
vt 0.943100 0.509100
vt 0.982400 0.739400
vt 0.793000 0.418000
vt 0.741800 0.390000
vt 0.711900 0.443500
vt 0.964300 0.509300
vt 0.922500 0.395000
vt 0.878000 0.411900
vt 0.919200 0.518000
vt 0.821700 0.511400
vt 0.708800 0.652000
vt 0.790200 0.632800
vt 0.730600 0.713200
vt 0.677400 0.737300
vt 0.750900 0.623500
vt 0.845100 0.649200
vt 0.776100 0.503100
vt 0.820000 0.692500
vt 0.854900 0.741500
vt 0.799200 0.719700
vt 0.820000 0.692500
vt 0.750900 0.623500
vt 0.726400 0.648900
vt 0.854900 0.741500
vt 0.830900 0.514600
vt 0.829000 0.609000
vt 0.873200 0.540400
vt 0.942900 0.393800
vt 0.942900 0.393800
vt 0.873200 0.540400
vt 0.910000 0.560800
vt 0.990800 0.391900
vt 0.829000 0.609000
vt 0.888400 0.697700
vt 0.918100 0.657300
vt 0.870500 0.625700
vt 0.949000 0.733500
vt 0.728200 0.671200
vt 0.752800 0.732300
vt 0.789400 0.672300
vt 0.934000 0.581000
vt 0.877400 0.449500
vt 0.881300 0.633100
vt 0.813700 0.478000
vt 0.886200 0.556000
vt 0.925700 0.628100
vt 0.952100 0.522100
vt 0.968900 0.578400
vt 0.952100 0.522100
vt 0.925700 0.628100
vt 0.929400 0.623600
vt 0.957800 0.495800
vt 0.894300 0.475500
vt 0.866300 0.616200
vt 0.878100 0.737300
vt 0.836900 0.539400
vt 0.859700 0.480000
vt 0.844400 0.367200
vt 0.805400 0.492100
vt 0.777100 0.613600
vt 0.816200 0.595800
vt 0.862800 0.644300
vt 0.805200 0.480500
vt 0.895500 0.597000
vt 0.913400 0.718700
vt 0.824400 0.681800
vt 0.913400 0.718700
vt 0.862800 0.644300
vt 0.816200 0.595800
vt 0.780400 0.630600
vt 0.804500 0.544700
vt 0.797200 0.667000
vt 0.851700 0.662600
vt 0.846400 0.749700
vt 0.795100 0.418400
vt 0.730500 0.526100
vt 0.788100 0.543800
vt 0.709300 0.473600
vt 0.747900 0.504300
vt 0.791600 0.389800
vt 0.664000 0.476900
vt 0.711700 0.593500
vt 0.709300 0.473600
vt 0.709300 0.473600
vt 0.711700 0.593500
vt 0.747900 0.504300
vt 0.730500 0.526100
vt 0.670800 0.600700
vt 0.788100 0.543800
vt 0.686800 0.509000
vt 0.730500 0.526100
vt 0.795100 0.418400
vt 0.752200 0.393100
vt 0.670800 0.600700
vt 0.807000 0.589000
vt 0.710000 0.379800
vt 0.664200 0.405900
vt 0.717000 0.626800
vt 0.813700 0.699700
vt 0.633500 0.633300
vt 0.664200 0.405900
vt 0.710000 0.379800
vt 0.807000 0.589000
vt 0.872100 0.528000
vt 0.911900 0.618200
vt 0.940500 0.700000
vt 0.968300 0.583600
vt 0.875900 0.602800
vt 0.807000 0.589000
vt 0.813700 0.699700
vt 0.872100 0.528000
vt 0.684900 0.549400
vt 0.694300 0.575300
vt 0.718100 0.547100
vt 0.729500 0.672800
vt 0.679600 0.685500
vt 0.718200 0.739200
vt 0.788000 0.521400
vt 0.782000 0.477400
vt 0.756100 0.481300
vt 0.777200 0.482400
vt 0.785300 0.430200
vt 0.691700 0.541900
vt 0.636500 0.661400
vt 0.684200 0.671400
vt 0.644000 0.731400
vt 0.856000 0.433800
vt 0.820600 0.466400
vt 0.885800 0.476300
vt 0.964600 0.408300
vt 0.994600 0.444000
vt 0.644000 0.731400
vt 0.695200 0.731600
vt 0.684200 0.671400
vt 0.773300 0.648000
vt 0.769000 0.611100
vt 0.777200 0.482400
vt 0.679600 0.685500
vt 0.694300 0.575300
vt 0.652300 0.577800
vt 0.754200 0.428400
vt 0.735600 0.376900
vt 0.635800 0.445200
vt 0.684900 0.549400
vt 0.652300 0.577800
vt 0.694300 0.575300
vt 0.795300 0.585300
vt 0.767400 0.578100
vt 0.769200 0.630100
vt 0.850900 0.501900
vt 0.870500 0.625700
vt 0.918100 0.657300
vt 0.754200 0.428400
vt 0.759600 0.445200
vt 0.765400 0.490600
vn 0.211796 -0.208196 -0.954881
vn 0.459219 0.161407 -0.873536
vn -0.330182 -0.656564 -0.678162
vn -0.138607 -0.757937 -0.637431
vn 0.211291 -0.351685 -0.911961
vn 0.575198 0.794897 -0.193099
vn 0.156494 0.120796 -0.980264
vn 0.547600 0.833300 -0.075800
vn 0.576708 0.768411 -0.277404
vn -0.053099 -0.267895 -0.961984
vn -0.086401 -0.291004 -0.952812
vn -0.127302 -0.142203 -0.981617
vn -0.064701 -0.490008 -0.869314
vn -0.089900 -0.565698 -0.819697
vn -0.155502 -0.197402 -0.967911
vn -0.314691 0.015100 -0.949074
vn -0.339095 -0.066699 -0.938385
vn 0.156494 0.120796 -0.980264
vn 0.044700 -0.349698 -0.935795
vn 0.211291 -0.351685 -0.911961
vn 0.274903 0.955410 -0.107801
vn 0.274903 0.955410 -0.107801
vn 0.274903 0.955410 -0.107801
vn 0.280202 -0.116001 -0.952906
vn 0.280202 -0.116001 -0.952906
vn 0.280202 -0.116001 -0.952906
vn 0.548480 0.674576 -0.494082
vn 0.459219 0.161407 -0.873536
vn -0.696412 -0.236904 -0.677412
vn -0.693477 -0.694177 -0.192894
vn -0.696412 -0.236904 -0.677412
vn -0.330182 -0.656564 -0.678162
vn -0.502489 -0.864580 0.002400
vn -0.540791 -0.839486 -0.052999
vn -0.138607 -0.757937 -0.637431
vn -0.157694 0.409085 0.898767
vn -0.156407 0.541325 0.826138
vn -0.121503 0.459511 0.879822
vn -0.223706 0.335410 0.915126
vn -0.286593 0.322393 0.902179
vn -0.850992 -0.523895 -0.036700
vn -0.955956 -0.270088 -0.114895
vn -0.858434 -0.509520 -0.059002
vn -0.655423 -0.748626 -0.099903
vn -0.633792 -0.761791 -0.134098
vn -0.476629 0.302418 0.825450
vn -0.464221 0.370216 0.804636
vn -0.457213 0.630917 0.626817
vn -0.464221 0.370216 0.804636
vn -0.421689 0.670983 0.609885
vn -0.457213 0.630917 0.626817
vn -0.466708 0.743912 0.478308
vn 0.211291 -0.351685 -0.911961
vn 0.459219 0.161407 -0.873536
vn 0.548480 0.674576 -0.494082
vn 0.441210 0.893520 0.083402
vn 0.547600 0.833300 -0.075800
vn 0.420102 0.858703 0.293501
vn 0.507478 0.859263 0.064297
vn 0.575198 0.794897 -0.193099
vn 0.529602 0.725203 -0.440002
vn 0.546493 0.836189 -0.046199
vn 0.561720 0.819629 -0.112604
vn 0.489598 0.700297 -0.519498
vn 0.448286 0.892772 -0.044699
vn -0.239302 0.762106 -0.601605
vn -0.239302 0.762106 -0.601605
vn -0.239302 0.762106 -0.601605
vn 0.575198 0.794897 -0.193099
vn 0.644913 0.759115 -0.088502
vn 0.642410 0.756812 -0.120602
vn 0.576708 0.768411 -0.277404
vn -0.341690 0.051999 0.938373
vn -0.389405 0.421605 0.818910
vn -0.389402 0.153401 0.908204
vn -0.407325 0.512032 0.756247
vn -0.295399 0.619498 0.727298
vn 0.069203 -0.232012 -0.970248
vn 0.082803 -0.007500 -0.996538
vn 0.101898 -0.327094 -0.939482
vn 0.048002 0.139606 -0.989043
vn 0.133407 0.337717 -0.931746
vn -0.358709 0.416611 -0.835322
vn -0.260000 0.471800 -0.842499
vn -0.686229 0.417518 -0.595625
vn -0.771224 0.427213 -0.471914
vn -0.218703 0.555108 -0.802511
vn 0.999098 -0.027900 -0.032000
vn 0.915897 0.384499 -0.115300
vn 0.997885 0.044799 -0.047099
vn 0.942813 -0.331604 0.033800
vn 0.186392 -0.126795 0.974259
vn 0.235410 0.145506 0.960942
vn 0.225809 0.059702 0.972340
vn 0.171507 -0.026001 0.984840
vn 0.218603 0.401005 0.889611
vn 0.441210 0.893520 0.083402
vn 0.390092 0.705586 0.591588
vn 0.507478 0.859263 0.064297
vn 0.450196 0.881193 -0.144299
vn -0.244401 0.381201 -0.891602
vn -0.402714 0.885930 -0.230108
vn -0.244401 0.381201 -0.891602
vn 0.046699 0.252094 0.966575
vn -0.055300 -0.452997 0.889795
vn 0.390092 0.705586 0.591588
vn 0.171507 -0.026001 0.984840
vn 0.390092 0.705586 0.591588
vn -0.402714 0.885930 -0.230108
vn 0.046699 0.252094 0.966575
vn -0.580592 0.146598 0.800888
vn -0.580592 0.146598 0.800888
vn -0.580592 0.146598 0.800888
vn 0.497401 -0.489101 -0.716501
vn 0.298893 -0.560987 -0.771982
vn 0.417206 -0.584508 -0.695909
vn 0.572579 -0.441883 -0.690574
vn 0.541086 -0.270193 -0.796380
vn 0.354795 0.834189 0.422195
vn 0.324581 0.722059 0.610965
vn 0.314002 0.717904 0.621303
vn 0.327692 0.766981 0.551686
vn 0.369193 0.882982 0.289894
vn -0.718204 -0.660304 -0.219501
vn -0.428902 -0.591803 -0.682504
vn -0.511699 -0.709798 -0.484099
vn -0.375695 -0.616892 -0.691591
vn -0.311593 -0.439090 -0.842680
vn -0.481597 0.693995 0.535196
vn -0.497681 0.795670 0.345287
vn -0.514605 0.705006 0.488004
vn -0.473111 0.605114 0.640315
vn -0.401906 0.574408 0.713110
vn 0.430512 -0.437213 -0.789623
vn 0.422598 -0.343998 -0.838496
vn 0.420901 -0.329101 -0.845302
vn 0.405518 -0.219510 -0.887339
vn -0.055799 0.377097 0.924492
vn -0.055799 0.377097 0.924492
vn -0.055799 0.377097 0.924492
vn -0.231808 -0.646522 -0.726825
vn -0.231808 -0.646522 -0.726825
vn -0.231808 -0.646522 -0.726825
vn -0.661495 0.591295 -0.461296
vn -0.661495 0.591295 -0.461296
vn -0.661495 0.591295 -0.461296
vn -0.361198 0.059400 -0.930595
vn -0.361198 0.059400 -0.930595
vn -0.361198 0.059400 -0.930595
vn -0.145497 0.815486 0.560190
vn -0.145497 0.815486 0.560190
vn -0.145497 0.815486 0.560190
vn 0.670774 0.410684 0.617576
vn 0.606500 0.442900 0.660300
vn 0.861877 -0.089898 0.499086
vn 0.903373 -0.237193 0.357290
vn 0.553566 0.661560 0.505869
vn -0.778297 -0.610398 0.147199
vn -0.410295 -0.837590 0.360696
vn -0.055300 -0.452997 0.889795
vn -0.046603 0.221912 0.973952
vn -0.887365 0.446982 0.113096
vn 0.046699 0.252094 0.966575
vn 0.275201 0.242101 0.930404
vn -0.228307 -0.759024 -0.609720
vn -0.228307 -0.759024 -0.609720
vn -0.228307 -0.759024 -0.609720
vn -0.029798 0.734956 -0.677460
vn -0.887365 0.446982 0.113096
vn 0.039201 0.842217 -0.537711
vn -0.106099 0.582894 -0.805592
vn -0.778297 -0.610398 0.147199
vn -0.887365 0.446982 0.113096
vn -0.482086 -0.872174 0.083098
vn -0.700904 -0.516303 0.492103
vn -0.414191 0.004100 0.910181
vn -0.611975 -0.429682 0.663973
vn -0.480981 0.339886 0.808168
vn -0.381594 0.347094 0.856686
vn -0.536702 0.453402 0.711602
vn -0.612303 -0.728204 0.307902
vn -0.612303 -0.728204 0.307902
vn -0.410295 -0.837590 0.360696
vn -0.502489 -0.864580 0.002400
vn -0.428515 -0.903532 -0.002300
vn -0.482086 -0.872174 0.083098
vn -0.420299 -0.841198 -0.340199
vn -0.364009 -0.889622 -0.275807
vn -0.449319 -0.773432 -0.447119
vn 0.136501 0.985909 0.096701
vn -0.057297 0.998250 0.014599
vn 0.117696 0.989765 0.080697
vn 0.277094 0.956978 0.086098
vn 0.277411 0.958139 0.070803
vn 0.031602 -0.081804 -0.996147
vn 0.160596 -0.101598 -0.981777
vn 0.170696 -0.124897 -0.977376
vn 0.245690 0.361885 -0.899264
vn 0.159395 -0.307291 -0.938171
vn 0.107897 -0.549083 -0.828774
vn -0.381594 0.347094 0.856686
vn -0.414191 0.004100 0.910181
vn -0.064003 0.559526 0.826338
vn -0.422115 0.873531 0.242409
vn 0.046699 0.252094 0.966575
vn -0.604732 0.588132 0.537029
vn -0.422115 0.873531 0.242409
vn -0.250301 0.936603 0.245201
vn -0.250301 0.936603 0.245201
vn 0.056100 0.871599 0.486999
vn 0.056100 0.871599 0.486999
vn 0.056100 0.871599 0.486999
vn 0.580674 0.358884 0.730767
vn 0.580674 0.358884 0.730767
vn 0.580674 0.358884 0.730767
vn -0.422115 0.873531 0.242409
vn -0.604732 0.588132 0.537029
vn -0.587020 0.693124 -0.418314
usemtl material
f 1/0/1 2/0/2 3/0/3
f 4/0/4 3/0/3 2/0/2
f 4/0/4 2/0/2 5/0/5
f 6/0/6 7/0/7 8/0/8
f 7/0/7 6/0/6 9/0/9
f 10/0/10 11/0/11 12/0/12
f 11/0/11 10/0/10 13/0/13
f 11/0/11 13/0/13 14/0/14
f 15/0/15 16/0/16 17/0/17
f 15/0/15 17/0/17 18/0/18
f 19/0/19 15/0/15 18/0/18
f 19/0/19 20/0/20 15/0/15
f 21/0/21 22/0/22 23/0/23
f 24/0/24 25/0/25 26/0/26
f 27/0/27 28/0/28 29/0/29
f 30/0/30 31/0/31 32/0/32
f 33/0/33 30/0/30 32/0/32
f 34/0/34 33/0/33 32/0/32
f 32/0/32 35/0/35 34/0/34
f 36/0/36 37/0/37 38/0/38
f 36/0/36 38/0/38 39/0/39
f 36/0/36 39/0/39 40/0/40
f 41/0/41 42/0/42 43/0/43
f 44/0/44 41/0/41 43/0/43
f 44/0/44 43/0/43 45/0/45
f 46/0/46 47/0/47 48/0/48
f 49/0/49 50/0/50 51/0/51
f 51/0/51 50/0/50 52/0/52
f 53/0/53 54/0/54 55/0/55
f 56/0/56 57/0/57 58/0/58
f 56/0/56 59/0/59 57/0/57
f 57/0/57 59/0/59 60/0/60
f 61/0/61 62/0/62 63/0/63
f 61/0/61 63/0/63 64/0/64
f 62/0/62 65/0/65 63/0/63
f 66/0/66 67/0/67 68/0/68
f 69/0/69 70/0/70 71/0/71
f 69/0/69 71/0/71 72/0/72
f 73/0/73 74/0/74 75/0/75
f 74/0/74 76/0/76 75/0/75
f 74/0/74 77/0/77 76/0/76
f 78/0/78 79/0/79 80/0/80
f 78/0/78 81/0/81 79/0/79
f 79/0/79 81/0/81 82/0/82
f 83/0/83 84/0/84 85/0/85
f 83/0/83 85/0/85 86/0/86
f 84/0/84 83/0/83 87/0/87
f 88/0/88 89/0/89 90/0/90
f 90/0/90 91/0/91 88/0/88
f 92/0/92 93/0/93 94/0/94
f 92/0/92 94/0/94 95/0/95
f 93/0/93 96/0/96 94/0/94
f 97/0/97 98/0/98 99/0/99
f 97/0/97 100/0/100 98/0/98
f 101/0/101 102/0/102 103/0/103
f 104/0/104 105/0/105 106/0/106
f 106/0/106 105/0/105 107/0/107
f 108/0/108 109/0/109 110/0/110
f 111/0/111 112/0/112 113/0/113
f 114/0/114 115/0/115 116/0/116
f 114/0/114 116/0/116 117/0/117
f 117/0/117 118/0/118 114/0/114
f 119/0/119 120/0/120 121/0/121
f 119/0/119 121/0/121 122/0/122
f 122/0/122 123/0/123 119/0/119
f 124/0/124 125/0/125 126/0/126
f 126/0/126 125/0/125 127/0/127
f 125/0/125 128/0/128 127/0/127
f 129/0/129 130/0/130 131/0/131
f 132/0/132 129/0/129 131/0/131
f 132/0/132 133/0/133 129/0/129
f 134/0/134 135/0/135 136/0/136
f 135/0/135 137/0/137 136/0/136
f 138/0/138 139/0/139 140/0/140
f 141/0/141 142/0/142 143/0/143
f 144/0/144 145/0/145 146/0/146
f 147/0/147 148/0/148 149/0/149
f 150/0/150 151/0/151 152/0/152
f 153/0/153 154/0/154 155/0/155
f 153/0/153 155/0/155 156/0/156
f 153/0/153 157/0/157 154/0/154
f 158/0/158 159/0/159 160/0/160
f 158/0/158 160/0/160 161/0/161
f 158/0/158 161/0/161 162/0/162
f 161/0/161 163/0/163 162/0/162
f 164/0/164 163/0/163 161/0/161
f 165/0/165 166/0/166 167/0/167
f 168/0/168 169/0/169 170/0/170
f 169/0/169 168/0/168 171/0/171
f 172/0/172 173/0/173 174/0/174
f 175/0/175 176/0/176 177/0/177
f 176/0/176 178/0/178 177/0/177
f 176/0/176 179/0/179 178/0/178
f 178/0/178 179/0/179 180/0/180
f 181/0/181 182/0/182 183/0/183
f 184/0/184 185/0/185 186/0/186
f 184/0/184 186/0/186 187/0/187
f 184/0/184 187/0/187 188/0/188
f 189/0/189 188/0/188 187/0/187
f 190/0/190 191/0/191 192/0/192
f 193/0/193 190/0/190 192/0/192
f 193/0/193 192/0/192 194/0/194
f 195/0/195 196/0/196 197/0/197
f 198/0/198 197/0/197 196/0/196
f 198/0/198 199/0/199 197/0/197
f 200/0/200 197/0/197 199/0/199
f 201/0/201 202/0/202 203/0/203
f 204/0/204 205/0/205 206/0/206
f 207/0/207 208/0/208 209/0/209
f 210/0/210 211/0/211 212/0/212
f 213/0/213 214/0/214 215/0/215
f 216/0/216 217/0/217 218/0/218
