# 
# Wavefront OBJ file
# Created with Kaydara FBX
# 
mtllib perpstage_memory_temple_tree01_lod.mtl

g PerpStage_Memory_Temple_Tree01_LOD
v 0.563958 1.386899 0.000000
v 0.148148 3.104482 0.000000
v -0.783756 3.140385 0.000000
v -0.331683 1.238739 0.000000
v -0.767612 3.808796 0.000000
v 0.118684 3.641986 0.000000
v 0.820670 0.564369 0.000000
v -0.336741 0.480067 0.000000
v 1.039085 0.000000 0.000000
v -0.498984 0.000000 0.000000
v -1.171844 4.138509 0.000000
v -1.180174 3.925321 0.000000
v 1.196828 3.971738 0.000000
v 2.031401 4.512895 0.000000
v -2.196206 4.715484 0.000000
v -2.008584 4.448266 0.000000
v 5.298534 7.697388 0.000000
v 3.303107 4.588272 0.000000
v 2.876940 4.312620 0.000000
v 5.365712 5.829897 0.000000
v 5.769685 6.352878 0.000000
v 5.828808 6.991229 0.000000
v 5.641783 7.679533 0.000000
v 5.555552 5.383260 0.000000
v 3.572243 4.377631 0.000000
v 4.353987 4.291679 0.000000
v 5.279468 4.532234 0.000000
v -5.338728 8.557106 0.000000
v 5.238053 8.078897 0.000000
v -4.184686 9.432880 0.000000
v 5.343294 9.266647 0.000000
v -3.695388 10.914853 0.000000
v -4.210298 10.323956 0.000000
v -4.354039 9.748583 0.000000
v 3.796375 12.294932 0.000000
v 4.615193 12.234907 0.000000
v 6.070239 10.010320 0.000000
v 5.280831 11.782044 0.000000
v 6.070819 10.508078 0.000000
v 3.513118 12.493370 0.000000
v -3.117113 12.645154 0.000000
v -2.280834 13.258641 0.000000
v 1.141990 13.988588 0.000000
v 0.708973 14.814238 0.000000
v 1.016870 14.800572 0.000000
v 1.279608 14.313622 0.000000
v -2.678906 13.630153 0.000000
v 0.424839 15.093038 0.000000
v -0.225431 15.118978 0.000000
v -2.435276 14.221567 0.000000
v -1.163971 14.763311 0.000000
v 3.735264 12.874871 0.000000
v 3.328831 13.742986 0.000000
v 2.694885 14.300755 0.000000
v 2.197461 14.441594 0.000000
v -4.360916 11.424066 0.000000
v -4.029246 11.081300 0.000000
v -4.224390 12.225776 0.000000
v -6.730080 8.267132 0.000000
v -7.645763 7.167804 0.000000
v -7.047059 6.459438 0.000000
v -5.405189 5.531622 0.000000
v -5.877296 8.640790 0.000000
v -4.725050 5.531799 0.000000
v -3.651409 4.887343 0.000000
v -4.269245 5.070713 0.000000
v -2.725908 4.539366 0.000000
v -3.436928 4.504660 0.000000
v 5.763506 8.265101 0.000000
v 5.823336 8.901742 0.000000
v 0.000000 13.395919 1.086627
v 0.000000 13.200138 1.818995
v 0.000000 12.711544 2.043854
v 0.000000 11.061837 -4.137015
v 0.000000 11.829422 -4.074411
v 0.000000 13.834940 0.557262
v 0.000000 14.427307 -0.270854
v 0.000000 14.970572 -2.043211
v 0.000000 14.999448 -2.721988
v 0.000000 13.668557 -4.614406
v 0.000000 12.461640 -5.107147
v 0.000000 9.112967 4.244332
v 0.000000 9.266163 4.564204
v 0.000000 12.895801 2.949676
v 0.000000 9.281720 5.142648
v 0.000000 9.826215 5.953858
v 0.000000 12.364338 4.925907
v 0.000000 11.522524 5.656715
v 0.000000 9.783355 -5.165588
v 0.000000 8.384002 4.734463
v 0.000000 4.439941 0.943510
v 0.000000 3.743964 -0.396109
v -0.000000 3.806043 0.412208
v 0.000000 3.150943 -0.574303
v 0.000000 3.178866 0.218983
v 0.000000 2.175980 -0.725119
v 0.000000 2.037137 -0.014032
v 0.000000 1.183720 -0.711170
v 0.000000 1.187666 0.061050
v 0.000000 0.401575 -0.667658
v 0.000000 0.439311 0.383366
v 0.000000 0.000000 -0.764349
v 0.000000 0.000000 0.733001
v 0.000000 4.332905 -2.705799
v 0.000000 3.466095 -1.079516
v 0.000000 4.699874 2.000723
v 0.000000 4.399490 1.576598
v 0.000000 4.370840 -3.702798
v 0.000000 4.767563 -3.914404
v 0.000000 4.997159 -4.372513
v 0.000000 6.122727 -5.849248
v 0.000000 6.462534 -6.579002
v 0.000000 9.952289 -6.229400
v 0.000000 9.216328 -7.900404
v 0.000000 6.269362 -6.858279
v 0.000000 6.400476 -7.900404
v 0.000000 5.984589 -6.386360
v 0.000000 5.813605 -5.839912
v 0.000000 4.779630 -4.272884
v 0.000000 10.575555 -4.822688
v 0.000000 6.208518 5.043940
v 0.000000 5.275267 4.938956
v 0.000000 5.354432 3.885549
v 0.000000 4.825770 2.846211
v 0.000000 6.641561 5.647805
v 0.000000 8.227967 5.522832
v 0.000000 7.109476 6.478344
v 0.000000 6.394146 5.999264
v 0.000000 6.694469 6.478344
vt 0.135759 0.665715
vt 0.135759 0.707287
vt 0.154312 0.708156
vt 0.154312 0.662129
vt 0.154312 0.724335
vt 0.135759 0.720297
vt 0.133769 0.645806
vt 0.158287 0.643765
vt 0.130294 0.634184
vt 0.162299 0.634184
vt 0.161496 0.732315
vt 0.161672 0.727155
vt 0.111320 0.728279
vt 0.093641 0.741377
vt 0.183195 0.746280
vt 0.179221 0.739813
vt 0.020985 0.818455
vt 0.066702 0.743201
vt 0.075729 0.736529
vt 0.019562 0.773254
vt 0.011005 0.785912
vt 0.009752 0.801363
vt 0.013714 0.818023
vt 0.015541 0.762443
vt 0.061001 0.738103
vt 0.044441 0.736023
vt 0.024836 0.741845
vt 0.246318 0.839264
vt 0.022266 0.827689
vt 0.221871 0.860461
vt 0.020037 0.856438
vt 0.211506 0.896331
vt 0.222414 0.882029
vt 0.225459 0.868103
vt 0.052806 0.929735
vt 0.035461 0.928282
vt 0.004638 0.874438
vt 0.021360 0.917321
vt 0.004626 0.886486
vt 0.058806 0.934538
vt 0.199256 0.938212
vt 0.181541 0.953061
vt 0.109035 0.970729
vt 0.118207 0.990713
vt 0.111685 0.990382
vt 0.106119 0.978596
vt 0.189974 0.962053
vt 0.124226 0.997461
vt 0.138001 0.998089
vt 0.184813 0.976368
vt 0.157882 0.989480
vt 0.054100 0.943772
vt 0.062710 0.964784
vt 0.076139 0.978284
vt 0.086676 0.981693
vt 0.225604 0.908656
vt 0.218578 0.900360
vt 0.222712 0.928061
vt 0.275791 0.832245
vt 0.295188 0.805637
vt 0.282506 0.788491
vt 0.247725 0.766034
vt 0.257726 0.841289
vt 0.233318 0.766039
vt 0.214021 0.750440
vt 0.227109 0.754878
vt 0.194416 0.742018
vt 0.209478 0.741178
vt 0.011136 0.832196
vt 0.009868 0.847606
vt 0.408660 0.959252
vt 0.393988 0.954456
vt 0.389483 0.942486
vt 0.513313 0.902072
vt 0.512059 0.920876
vt 0.419266 0.970007
vt 0.435857 0.984519
vt 0.471365 0.997827
vt 0.484964 0.998535
vt 0.522877 0.965931
vt 0.532749 0.936364
vt 0.345398 0.854329
vt 0.338989 0.858082
vt 0.371335 0.947000
vt 0.327401 0.858464
vt 0.311148 0.871802
vt 0.331743 0.933981
vt 0.317102 0.913358
vt 0.533920 0.870752
vt 0.335578 0.836472
vt 0.411906 0.739851
vt 0.445921 0.722801
vt 0.428594 0.724322
vt 0.446847 0.708274
vt 0.432465 0.708958
vt 0.447602 0.684389
vt 0.433356 0.680988
vt 0.448078 0.660081
vt 0.432607 0.660178
vt 0.449851 0.643187
vt 0.428794 0.644112
vt 0.452166 0.633349
vt 0.422167 0.633349
vt 0.485017 0.737229
vt 0.458480 0.715994
vt 0.390725 0.746219
vt 0.399222 0.738860
vt 0.504992 0.738158
vt 0.509231 0.747877
vt 0.518409 0.753502
vt 0.547617 0.781076
vt 0.562237 0.789400
vt 0.555233 0.874891
vt 0.588710 0.856862
vt 0.567832 0.784668
vt 0.588710 0.787880
vt 0.558377 0.777691
vt 0.547429 0.773503
vt 0.516413 0.748173
vt 0.527050 0.890159
vt 0.329756 0.783177
vt 0.331859 0.760315
vt 0.352964 0.762254
vt 0.373786 0.749303
vt 0.317280 0.793786
vt 0.319784 0.832649
vt 0.301625 0.805249
vt 0.310239 0.787725
vt 0.301625 0.795082
vn 0.000000 0.000000 1.000000
vn 0.000000 0.000000 1.000000
vn 0.000000 0.000000 1.000000
vn 0.000000 0.000000 1.000000
vn 0.000000 0.000000 1.000000
vn 0.000000 0.000000 1.000000
vn 0.000000 0.000000 1.000000
vn 0.000000 0.000000 1.000000
vn 0.000000 0.000000 1.000000
vn 0.000000 0.000000 1.000000
vn 0.000000 0.000000 1.000000
vn 0.000000 0.000000 1.000000
vn 0.000000 0.000000 1.000000
vn 0.000000 0.000000 1.000000
vn 0.000000 0.000000 1.000000
vn 0.000000 0.000000 1.000000
vn 0.000000 0.000000 1.000000
vn 0.000000 0.000000 1.000000
vn 0.000000 0.000000 1.000000
vn 0.000000 0.000000 1.000000
vn 0.000000 0.000000 1.000000
vn 0.000000 0.000000 1.000000
vn 0.000000 0.000000 1.000000
vn 0.000000 0.000000 1.000000
vn 0.000000 0.000000 1.000000
vn 0.000000 0.000000 1.000000
vn 0.000000 0.000000 1.000000
vn 0.000000 0.000000 1.000000
vn 0.000000 0.000000 1.000000
vn 0.000000 0.000000 1.000000
vn 0.000000 0.000000 1.000000
vn 0.000000 0.000000 1.000000
vn 0.000000 0.000000 1.000000
vn 0.000000 0.000000 1.000000
vn 0.000000 0.000000 1.000000
vn 0.000000 0.000000 1.000000
vn 0.000000 0.000000 1.000000
vn 0.000000 0.000000 1.000000
vn 0.000000 0.000000 1.000000
vn 0.000000 0.000000 1.000000
vn 0.000000 0.000000 1.000000
vn 0.000000 0.000000 1.000000
vn 0.000000 0.000000 1.000000
vn 0.000000 0.000000 1.000000
vn 0.000000 0.000000 1.000000
vn 0.000000 0.000000 1.000000
vn 0.000000 0.000000 1.000000
vn 0.000000 0.000000 1.000000
vn 0.000000 0.000000 1.000000
vn 0.000000 0.000000 1.000000
vn 0.000000 0.000000 1.000000
vn 0.000000 0.000000 1.000000
vn 0.000000 0.000000 1.000000
vn 0.000000 0.000000 1.000000
vn 0.000000 0.000000 1.000000
vn 0.000000 0.000000 1.000000
vn 0.000000 0.000000 1.000000
vn 0.000000 0.000000 1.000000
vn 0.000000 0.000000 1.000000
vn 0.000000 0.000000 1.000000
vn 0.000000 0.000000 1.000000
vn 0.000000 0.000000 1.000000
vn 0.000000 0.000000 1.000000
vn 0.000000 0.000000 1.000000
vn 0.000000 0.000000 1.000000
vn 0.000000 0.000000 1.000000
vn 0.000000 0.000000 1.000000
vn 0.000000 0.000000 1.000000
vn 0.000000 0.000000 1.000000
vn 0.000000 0.000000 1.000000
vn 1.000000 0.000000 0.000000
vn 1.000000 0.000000 0.000000
vn 1.000000 0.000000 0.000000
vn 1.000000 0.000000 0.000000
vn 1.000000 0.000000 0.000000
vn 1.000000 0.000000 0.000000
vn 1.000000 0.000000 0.000000
vn 1.000000 0.000000 0.000000
vn 1.000000 0.000000 0.000000
vn 1.000000 0.000000 0.000000
vn 1.000000 0.000000 0.000000
vn 1.000000 0.000000 0.000000
vn 1.000000 0.000000 0.000000
vn 1.000000 0.000000 0.000000
vn 1.000000 0.000000 0.000000
vn 1.000000 0.000000 0.000000
vn 1.000000 0.000000 0.000000
vn 1.000000 0.000000 0.000000
vn 1.000000 0.000000 0.000000
vn 1.000000 0.000000 0.000000
vn 1.000000 0.000000 0.000000
vn 1.000000 0.000000 0.000000
vn 1.000000 0.000000 0.000000
vn 1.000000 0.000000 0.000000
vn 1.000000 0.000000 0.000000
vn 1.000000 0.000000 0.000000
vn 1.000000 0.000000 0.000000
vn 1.000000 0.000000 0.000000
vn 1.000000 0.000000 0.000000
vn 1.000000 0.000000 0.000000
vn 1.000000 0.000000 0.000000
vn 1.000000 0.000000 0.000000
vn 1.000000 0.000000 0.000000
vn 1.000000 0.000000 0.000000
vn 1.000000 0.000000 0.000000
vn 1.000000 0.000000 0.000000
vn 1.000000 0.000000 0.000000
vn 1.000000 0.000000 0.000000
vn 1.000000 0.000000 0.000000
vn 1.000000 0.000000 0.000000
vn 1.000000 0.000000 0.000000
vn 1.000000 0.000000 0.000000
vn 1.000000 0.000000 0.000000
vn 1.000000 0.000000 0.000000
vn 1.000000 0.000000 0.000000
vn 1.000000 0.000000 0.000000
vn 1.000000 0.000000 0.000000
vn 1.000000 0.000000 0.000000
vn 1.000000 0.000000 0.000000
vn 1.000000 0.000000 0.000000
vn 1.000000 0.000000 0.000000
vn 1.000000 0.000000 0.000000
vn 1.000000 0.000000 0.000000
vn 1.000000 0.000000 0.000000
vn 1.000000 0.000000 0.000000
vn 1.000000 0.000000 0.000000
vn 1.000000 0.000000 0.000000
vn 1.000000 0.000000 0.000000
vn 1.000000 0.000000 0.000000
usemtl material
f 1/0/1 2/0/2 3/0/3
f 1/0/1 3/0/3 4/0/4
f 2/0/2 5/0/5 3/0/3
f 2/0/2 6/0/6 5/0/5
f 7/0/7 1/0/1 4/0/4
f 7/0/7 4/0/4 8/0/8
f 9/0/9 7/0/7 8/0/8
f 9/0/9 8/0/8 10/0/10
f 6/0/6 11/0/11 5/0/5
f 11/0/11 12/0/12 5/0/5
f 6/0/6 13/0/13 11/0/11
f 13/0/13 14/0/14 11/0/11
f 14/0/14 15/0/15 11/0/11
f 15/0/15 16/0/16 11/0/11
f 14/0/14 17/0/17 15/0/15
f 14/0/14 18/0/18 17/0/17
f 14/0/14 19/0/19 18/0/18
f 18/0/18 20/0/20 17/0/17
f 20/0/20 21/0/21 17/0/17
f 21/0/21 22/0/22 17/0/17
f 22/0/22 23/0/23 17/0/17
f 18/0/18 24/0/24 20/0/20
f 18/0/18 25/0/25 24/0/24
f 25/0/25 26/0/26 24/0/24
f 26/0/26 27/0/27 24/0/24
f 17/0/17 28/0/28 15/0/15
f 17/0/17 29/0/29 28/0/28
f 29/0/29 30/0/30 28/0/28
f 29/0/29 31/0/31 30/0/30
f 31/0/31 32/0/32 30/0/30
f 32/0/32 33/0/33 30/0/30
f 33/0/33 34/0/34 30/0/30
f 31/0/31 35/0/35 32/0/32
f 31/0/31 36/0/36 35/0/35
f 31/0/31 37/0/37 36/0/36
f 37/0/37 38/0/38 36/0/36
f 37/0/37 39/0/39 38/0/38
f 35/0/35 40/0/40 32/0/32
f 40/0/40 41/0/41 32/0/32
f 40/0/40 42/0/42 41/0/41
f 40/0/40 43/0/43 42/0/42
f 43/0/43 44/0/44 42/0/42
f 43/0/43 45/0/45 44/0/44
f 43/0/43 46/0/46 45/0/45
f 44/0/44 47/0/47 42/0/42
f 44/0/44 48/0/48 47/0/47
f 48/0/48 49/0/49 47/0/47
f 49/0/49 50/0/50 47/0/47
f 49/0/49 51/0/51 50/0/50
f 40/0/40 52/0/52 43/0/43
f 52/0/52 53/0/53 43/0/43
f 53/0/53 54/0/54 43/0/43
f 54/0/54 55/0/55 43/0/43
f 41/0/41 56/0/56 57/0/57
f 41/0/41 57/0/57 32/0/32
f 41/0/41 58/0/58 56/0/56
f 59/0/59 60/0/60 61/0/61
f 59/0/59 61/0/61 62/0/62
f 63/0/63 59/0/59 62/0/62
f 28/0/28 63/0/63 62/0/62
f 28/0/28 62/0/62 64/0/64
f 28/0/28 64/0/64 65/0/65
f 64/0/64 66/0/66 65/0/65
f 28/0/28 65/0/65 15/0/15
f 65/0/65 67/0/67 15/0/15
f 65/0/65 68/0/68 67/0/67
f 69/0/69 70/0/70 31/0/31
f 29/0/29 69/0/69 31/0/31
f 71/0/71 72/0/72 73/0/73
f 74/0/74 71/0/71 73/0/73
f 74/0/74 75/0/75 71/0/71
f 75/0/75 76/0/76 71/0/71
f 75/0/75 77/0/77 76/0/76
f 75/0/75 78/0/78 77/0/77
f 75/0/75 79/0/79 78/0/78
f 75/0/75 80/0/80 79/0/79
f 75/0/75 81/0/81 80/0/80
f 74/0/74 73/0/73 82/0/82
f 73/0/73 83/0/83 82/0/82
f 73/0/73 84/0/84 83/0/83
f 84/0/84 85/0/85 83/0/83
f 84/0/84 86/0/86 85/0/85
f 84/0/84 87/0/87 86/0/86
f 87/0/87 88/0/88 86/0/86
f 89/0/89 74/0/74 82/0/82
f 89/0/89 82/0/82 90/0/90
f 89/0/89 90/0/90 91/0/91
f 92/0/92 89/0/89 91/0/91
f 92/0/92 91/0/91 93/0/93
f 94/0/94 92/0/92 93/0/93
f 94/0/94 93/0/93 95/0/95
f 96/0/96 94/0/94 95/0/95
f 96/0/96 95/0/95 97/0/97
f 98/0/98 96/0/96 97/0/97
f 98/0/98 97/0/97 99/0/99
f 100/0/100 98/0/98 99/0/99
f 100/0/100 99/0/99 101/0/101
f 102/0/102 100/0/100 101/0/101
f 102/0/102 101/0/101 103/0/103
f 92/0/92 104/0/104 89/0/89
f 92/0/92 105/0/105 104/0/104
f 90/0/90 106/0/106 91/0/91
f 106/0/106 107/0/107 91/0/91
f 104/0/104 108/0/108 109/0/109
f 104/0/104 109/0/109 89/0/89
f 109/0/109 110/0/110 89/0/89
f 110/0/110 111/0/111 89/0/89
f 111/0/111 112/0/112 89/0/89
f 112/0/112 113/0/113 89/0/89
f 112/0/112 114/0/114 113/0/113
f 112/0/112 115/0/115 114/0/114
f 115/0/115 116/0/116 114/0/114
f 111/0/111 117/0/117 112/0/112
f 110/0/110 118/0/118 111/0/111
f 109/0/109 119/0/119 110/0/110
f 89/0/89 120/0/120 74/0/74
f 121/0/121 122/0/122 123/0/123
f 90/0/90 121/0/121 123/0/123
f 90/0/90 123/0/123 106/0/106
f 123/0/123 124/0/124 106/0/106
f 90/0/90 125/0/125 121/0/121
f 90/0/90 126/0/126 125/0/125
f 126/0/126 127/0/127 125/0/125
f 127/0/127 128/0/128 125/0/125
f 127/0/127 129/0/129 128/0/128
