# 
# Wavefront OBJ file
# Created with Kaydara FBX
# 
mtllib perpstage_cave_stone02.mtl

g PerpStage_Cave_stone02
v 24.431128 0.952585 -4.706903
v 24.420708 1.053658 -4.696484
v 24.426767 1.642310 -4.702543
v 24.577959 2.192830 -4.853691
v 25.304939 0.591773 -5.580473
v 24.752350 2.698477 -5.028037
v 25.304939 2.698477 -5.580474
v 25.304939 -0.007649 -5.580473
v 24.420708 0.484326 -4.696484
v 24.420708 -0.007649 -4.696484
v 24.417274 0.794808 -4.693053
v 24.637875 1.642310 -4.631739
v 24.561632 1.053658 -4.555518
v 24.588652 0.952585 -4.582529
v 25.445864 0.591773 -5.439508
v 24.801613 2.077722 -4.795433
v 24.893276 2.698477 -4.887072
v 25.445864 2.698477 -5.439508
v 24.603062 0.794808 -4.596935
v 25.445864 -0.007649 -5.439508
v 24.561632 -0.007649 -4.555518
v 24.561632 0.484326 -4.555518
v 25.445864 2.698477 -5.439508
v 25.445864 0.591773 -5.439508
v 25.304939 0.591773 -5.580473
v 25.304939 2.698477 -5.580474
v 25.304939 -0.007649 -5.580473
v 25.445864 -0.007649 -5.439508
v 24.588652 0.952585 -4.582529
v 24.561632 1.053658 -4.555518
v 24.420708 1.053658 -4.696484
v 24.431128 0.952585 -4.706903
v 24.561632 1.053658 -4.555518
v 24.637875 1.642310 -4.631739
v 24.426767 1.642310 -4.702543
v 24.420708 1.053658 -4.696484
v 24.637875 1.642310 -4.631739
v 24.801613 2.077722 -4.795433
v 24.577959 2.192830 -4.853691
v 24.426767 1.642310 -4.702543
v 24.801613 2.077722 -4.795433
v 24.893276 2.698477 -4.887072
v 24.752350 2.698477 -5.028037
v 24.577959 2.192830 -4.853691
v 24.561632 0.484326 -4.555518
v 24.603062 0.794808 -4.596935
v 24.417274 0.794808 -4.693053
v 24.420708 0.484326 -4.696484
v 24.603062 0.794808 -4.596935
v 24.588652 0.952585 -4.582529
v 24.431128 0.952585 -4.706903
v 24.417274 0.794808 -4.693053
v 24.561632 -0.007649 -4.555518
v 24.561632 0.484326 -4.555518
v 24.420708 0.484326 -4.696484
v 24.420708 -0.007649 -4.696484
v 25.304939 2.698477 -5.580474
v 24.752350 2.698477 -5.028037
v 24.799208 3.086813 -5.074882
v 24.877367 3.303401 -5.153022
v 24.972076 3.650851 -5.247703
v 25.195280 3.650851 -5.470845
v 25.256884 3.592100 -5.532432
v 25.304939 3.481977 -5.580474
v 24.940134 3.086813 -4.933918
v 24.893276 2.698477 -4.887072
v 25.445864 2.698477 -5.439508
v 25.050146 3.203209 -5.043900
v 25.113003 3.650851 -5.106738
v 25.336206 3.650851 -5.329880
v 25.397810 3.592100 -5.391467
v 25.445864 3.481977 -5.439508
v 24.940134 3.086813 -4.933918
v 25.050146 3.203209 -5.043900
v 24.877367 3.303401 -5.153022
v 24.799208 3.086813 -5.074882
v 25.050146 3.203209 -5.043900
v 25.113003 3.650851 -5.106738
v 24.972076 3.650851 -5.247703
v 24.877367 3.303401 -5.153022
v 25.113003 3.650851 -5.106738
v 25.336206 3.650851 -5.329880
v 25.195280 3.650851 -5.470845
v 24.972076 3.650851 -5.247703
v 25.336206 3.650851 -5.329880
v 25.397810 3.592100 -5.391467
v 25.256884 3.592100 -5.532432
v 25.195280 3.650851 -5.470845
v 25.397810 3.592100 -5.391467
v 25.445864 3.481977 -5.439508
v 25.304939 3.481977 -5.580474
v 25.256884 3.592100 -5.532432
v 25.445864 3.481977 -5.439508
v 25.445864 2.698477 -5.439508
v 25.304939 2.698477 -5.580474
v 25.304939 3.481977 -5.580474
v 24.893276 2.698477 -4.887072
v 24.940134 3.086813 -4.933918
v 24.799208 3.086813 -5.074882
v 24.752350 2.698477 -5.028037
v 24.755215 -0.007649 -4.360495
v 24.699911 0.089662 -4.415813
v 24.560938 0.089662 -4.554826
v 24.560938 -0.007649 -4.554826
v 24.699911 0.089662 -4.415813
v 25.584145 0.089662 -5.299804
v 25.445169 0.089662 -5.438816
v 24.560938 0.089662 -4.554826
v 25.584145 0.089662 -5.299804
v 25.639448 -0.007649 -5.244485
v 25.445169 -0.007649 -5.438816
v 25.445169 0.089662 -5.438816
v 25.639448 -0.007649 -5.244485
v 25.584145 0.089662 -5.299804
v 24.699911 0.089662 -4.415813
v 24.755215 -0.007649 -4.360495
v 129.596909 -5.001897 -134.729874
v 129.596909 -4.904481 -134.808182
v 129.596909 -4.904481 -135.004974
v 129.596909 -5.001897 -135.004974
v 129.596909 -4.904481 -134.808182
v 130.848587 -4.904481 -134.808182
v 130.848587 -4.904481 -135.004974
v 129.596909 -4.904481 -135.004974
v 130.848587 -4.904481 -134.808182
v 130.848587 -5.001897 -134.729874
v 130.848587 -5.001897 -135.004974
v 130.848587 -4.904481 -135.004974
v 130.848587 -5.001897 -134.729874
v 130.848587 -4.904481 -134.808182
v 129.596909 -4.904481 -134.808182
v 129.596909 -5.001897 -134.729874
v 130.848587 -2.330161 -135.201752
v 129.596909 -2.330161 -135.201752
v 129.596909 -1.545812 -135.201752
v 129.664932 -1.435570 -135.201752
v 129.752121 -1.376756 -135.201752
v 130.698975 -1.376756 -135.201752
v 130.787949 -1.422451 -135.201752
v 130.848587 -1.515252 -135.201752
v 129.664932 -1.435570 -135.004974
v 129.596909 -1.545812 -135.004974
v 129.596909 -2.330161 -135.004974
v 130.848587 -2.330161 -135.004974
v 129.752121 -1.376756 -135.004974
v 130.698975 -1.376756 -135.004974
v 130.787949 -1.422451 -135.004974
v 130.848587 -1.515252 -135.004974
v 130.848587 -1.515252 -135.004974
v 130.848587 -2.330161 -135.004974
v 130.848587 -2.330161 -135.201752
v 130.848587 -1.515252 -135.201752
v 129.596909 -2.330161 -135.004974
v 129.596909 -1.545812 -135.004974
v 129.596909 -1.545812 -135.201752
v 129.596909 -2.330161 -135.201752
v 129.596909 -1.545812 -135.004974
v 129.664932 -1.435570 -135.004974
v 129.664932 -1.435570 -135.201752
v 129.596909 -1.545812 -135.201752
v 129.664932 -1.435570 -135.004974
v 129.752121 -1.376756 -135.004974
v 129.752121 -1.376756 -135.201752
v 129.664932 -1.435570 -135.201752
v 129.752121 -1.376756 -135.004974
v 130.698975 -1.376756 -135.004974
v 130.698975 -1.376756 -135.201752
v 129.752121 -1.376756 -135.201752
v 130.698975 -1.376756 -135.004974
v 130.787949 -1.422451 -135.004974
v 130.787949 -1.422451 -135.201752
v 130.698975 -1.376756 -135.201752
v 130.787949 -1.422451 -135.004974
v 130.848587 -1.515252 -135.004974
v 130.848587 -1.515252 -135.201752
v 130.787949 -1.422451 -135.201752
v 129.596909 -5.001897 -135.004974
v 129.596909 -2.330161 -135.004974
v 129.596909 -2.330161 -135.201752
v 129.596909 -5.001897 -135.201752
v 130.848587 -2.330161 -135.004974
v 130.848587 -5.001897 -135.004974
v 130.848587 -5.001897 -135.201752
v 130.848587 -2.330161 -135.201752
v 129.596909 -5.001897 -135.201752
v 129.596909 -2.330161 -135.201752
v 130.848587 -2.330161 -135.201752
v 130.848587 -5.001897 -135.201752
v 130.848587 -5.001897 -135.004974
v 130.848587 -2.330161 -135.004974
v 129.596909 -2.330161 -135.004974
v 129.596909 -5.001897 -135.004974
vt 0.647896 0.996613
vt 0.633238 0.998901
vt 0.548240 0.997560
vt 0.468735 0.964366
vt 0.700054 0.804743
vt 0.395703 0.926077
vt 0.395747 0.804757
vt 0.786733 0.804743
vt 0.715591 0.998908
vt 0.786733 0.998908
vt 0.670768 0.999657
vt 0.548231 0.982153
vt 0.633238 0.998901
vt 0.647904 0.992967
vt 0.700054 0.804743
vt 0.485392 0.946201
vt 0.395747 0.926074
vt 0.395794 0.804755
vt 0.670780 0.989804
vt 0.786733 0.804743
vt 0.786733 0.998908
vt 0.715591 0.998908
vt 0.404440 0.420023
vt 0.404437 0.724762
vt 0.420628 0.724762
vt 0.420626 0.420025
vt 0.420633 0.778097
vt 0.404431 0.778097
vt 0.404420 0.563294
vt 0.404423 0.581008
vt 0.420642 0.581008
vt 0.420648 0.562583
vt 0.404423 0.581008
vt 0.404431 0.676731
vt 0.420657 0.661651
vt 0.420642 0.581008
vt 0.404431 0.676731
vt 0.404477 0.733969
vt 0.420743 0.724549
vt 0.420657 0.661651
vt 0.404477 0.733969
vt 0.404642 0.788028
vt 0.420788 0.789642
vt 0.420743 0.724549
vt 0.404405 0.491673
vt 0.404414 0.537269
vt 0.420654 0.534735
vt 0.420661 0.491673
vt 0.404414 0.537269
vt 0.404420 0.563294
vt 0.420648 0.562583
vt 0.420654 0.534735
vt 0.404404 0.420031
vt 0.404405 0.491673
vt 0.420661 0.491673
vt 0.420662 0.420032
vt 0.611389 0.255703
vt 0.480614 0.255718
vt 0.491724 0.320704
vt 0.510217 0.356947
vt 0.532611 0.415089
vt 0.585428 0.415096
vt 0.600005 0.405261
vt 0.611381 0.386833
vt 0.491724 0.320704
vt 0.480614 0.255718
vt 0.611389 0.255703
vt 0.517751 0.340181
vt 0.532611 0.415089
vt 0.585428 0.415096
vt 0.600005 0.405261
vt 0.611381 0.386833
vt 0.410570 0.531685
vt 0.410570 0.568739
vt 0.429735 0.575265
vt 0.429737 0.531685
vt 0.410570 0.568739
vt 0.410570 0.639006
vt 0.429737 0.639006
vt 0.429735 0.575265
vt 0.410570 0.639006
vt 0.410570 0.680650
vt 0.429737 0.680650
vt 0.429737 0.639006
vt 0.410570 0.680650
vt 0.410570 0.692844
vt 0.429737 0.692844
vt 0.429737 0.680650
vt 0.410570 0.692844
vt 0.410570 0.706227
vt 0.429737 0.706228
vt 0.429737 0.692844
vt 0.410570 0.706227
vt 0.410570 0.781518
vt 0.429737 0.781518
vt 0.429737 0.706228
vt 0.410570 0.446446
vt 0.410570 0.531685
vt 0.429737 0.531685
vt 0.429737 0.446446
vt 0.436539 0.944383
vt 0.424620 0.954672
vt 0.424620 0.980537
vt 0.437662 0.980538
vt 0.786725 0.954670
vt 0.624560 0.954670
vt 0.624560 0.980539
vt 0.786725 0.980539
vt 0.782279 0.954672
vt 0.770360 0.944383
vt 0.769237 0.980538
vt 0.782279 0.980537
vt 0.416303 0.804774
vt 0.405494 0.804760
vt 0.405494 0.998891
vt 0.416303 0.998877
vt 0.436539 0.944383
vt 0.424620 0.954672
vt 0.424620 0.980537
vt 0.437662 0.980538
vt 0.786725 0.954670
vt 0.624560 0.954670
vt 0.624560 0.980539
vt 0.786725 0.980539
vt 0.782279 0.954672
vt 0.770360 0.944383
vt 0.769237 0.980538
vt 0.782279 0.980537
vt 0.416303 0.804774
vt 0.405494 0.804760
vt 0.405494 0.998891
vt 0.416303 0.998877
vt 0.402111 0.255703
vt 0.611389 0.255703
vt 0.611381 0.386833
vt 0.600005 0.405261
vt 0.585428 0.415096
vt 0.427131 0.415096
vt 0.412257 0.407455
vt 0.402120 0.391942
vt 0.600005 0.405261
vt 0.611381 0.386833
vt 0.611389 0.255703
vt 0.402111 0.255703
vt 0.585428 0.415096
vt 0.427131 0.415096
vt 0.412257 0.407455
vt 0.402120 0.391942
vt 0.404611 0.695771
vt 0.404610 0.800237
vt 0.430210 0.800237
vt 0.430209 0.695771
vt 0.404614 0.416822
vt 0.404611 0.517365
vt 0.430208 0.517365
vt 0.430206 0.416822
vt 0.404611 0.517365
vt 0.404616 0.533969
vt 0.430206 0.533971
vt 0.430208 0.517365
vt 0.404616 0.533969
vt 0.404618 0.547446
vt 0.430202 0.547446
vt 0.430206 0.533971
vt 0.404618 0.547446
vt 0.404617 0.668748
vt 0.430203 0.668748
vt 0.430202 0.547446
vt 0.404617 0.668748
vt 0.404614 0.681565
vt 0.430206 0.681565
vt 0.430203 0.668748
vt 0.404614 0.681565
vt 0.404611 0.695771
vt 0.430209 0.695771
vt 0.430206 0.681565
vt 0.786733 0.954668
vt 0.420166 0.954668
vt 0.420166 0.980541
vt 0.786733 0.980541
vt 0.786733 0.954668
vt 0.420166 0.954668
vt 0.420166 0.980541
vt 0.786733 0.980541
vt 0.786733 0.804743
vt 0.400805 0.804743
vt 0.400805 0.998908
vt 0.786733 0.998908
vt 0.786733 0.804743
vt 0.400805 0.804743
vt 0.400805 0.998908
vt 0.786733 0.998908
vn -0.707010 0.000001 -0.707204
vn -0.707010 0.000001 -0.707204
vn -0.707010 0.000001 -0.707204
vn -0.707010 0.000001 -0.707204
vn -0.707010 0.000001 -0.707204
vn -0.707010 0.000001 -0.707204
vn -0.707010 0.000001 -0.707204
vn -0.707010 -0.000001 -0.707203
vn -0.707010 -0.000001 -0.707203
vn -0.707010 -0.000001 -0.707203
vn -0.707010 -0.000001 -0.707203
vn 0.707010 0.000001 0.707203
vn 0.707010 0.000001 0.707203
vn 0.707010 0.000001 0.707203
vn 0.707010 0.000001 0.707203
vn 0.707010 0.000001 0.707203
vn 0.707010 0.000001 0.707203
vn 0.707010 0.000001 0.707203
vn 0.707010 -0.000002 0.707203
vn 0.707010 -0.000002 0.707203
vn 0.707010 -0.000002 0.707203
vn 0.707010 -0.000002 0.707203
vn 0.707208 0.000000 -0.707006
vn 0.707208 0.000000 -0.707006
vn 0.707208 0.000000 -0.707006
vn 0.707208 0.000000 -0.707006
vn 0.707207 0.000000 -0.707006
vn 0.707207 0.000000 -0.707006
vn -0.642833 -0.252929 0.723044
vn -0.642833 -0.252929 0.723044
vn -0.642833 -0.252929 0.723044
vn -0.642833 -0.252929 0.723044
vn -0.513123 0.095487 0.852987
vn -0.513123 0.095487 0.852987
vn -0.513123 0.095487 0.852987
vn -0.513123 0.095487 0.852987
vn -0.179892 0.350920 0.918964
vn -0.179892 0.350920 0.918964
vn -0.179892 0.350920 0.918964
vn -0.179892 0.350920 0.918964
vn -0.383921 0.297126 0.874254
vn -0.383921 0.297126 0.874254
vn -0.383921 0.297126 0.874254
vn -0.383921 0.297126 0.874254
vn -0.585188 0.085133 0.806416
vn -0.585188 0.085133 0.806416
vn -0.585188 0.085133 0.806416
vn -0.585188 0.085133 0.806416
vn -0.540397 -0.002439 0.841407
vn -0.540397 -0.002439 0.841407
vn -0.540397 -0.002439 0.841407
vn -0.540397 -0.002439 0.841407
vn -0.707208 0.000000 0.707006
vn -0.707208 0.000000 0.707006
vn -0.707208 0.000000 0.707006
vn -0.707208 0.000000 0.707006
vn -0.707010 -0.000001 -0.707204
vn -0.707010 -0.000001 -0.707203
vn -0.707010 -0.000001 -0.707203
vn -0.707010 -0.000001 -0.707203
vn -0.707010 -0.000001 -0.707204
vn -0.707010 -0.000001 -0.707203
vn -0.707010 -0.000001 -0.707203
vn -0.707010 -0.000001 -0.707203
vn 0.707010 0.000002 0.707204
vn 0.707010 0.000002 0.707204
vn 0.707010 0.000002 0.707204
vn 0.707010 0.000002 0.707204
vn 0.707010 0.000002 0.707204
vn 0.707010 0.000002 0.707204
vn 0.707010 0.000002 0.707204
vn 0.707010 0.000002 0.707204
vn -0.368253 0.606298 0.704835
vn -0.368253 0.606298 0.704835
vn -0.368253 0.606298 0.704835
vn -0.368253 0.606298 0.704835
vn -0.547642 0.265717 0.793400
vn -0.547642 0.265717 0.793400
vn -0.547642 0.265717 0.793400
vn -0.547642 0.265717 0.793400
vn 0.000000 1.000000 0.000000
vn 0.000000 1.000000 0.000000
vn 0.000000 1.000000 0.000000
vn 0.000000 1.000000 0.000000
vn 0.395438 0.829062 -0.395329
vn 0.395438 0.829062 -0.395329
vn 0.395438 0.829062 -0.395329
vn 0.395438 0.829062 -0.395329
vn 0.601860 0.525102 -0.601691
vn 0.601860 0.525102 -0.601691
vn 0.601860 0.525103 -0.601690
vn 0.601860 0.525102 -0.601691
vn 0.707208 0.000000 -0.707006
vn 0.707208 0.000000 -0.707006
vn 0.707208 0.000000 -0.707006
vn 0.707208 0.000000 -0.707006
vn -0.697130 0.168194 0.696937
vn -0.697130 0.168194 0.696937
vn -0.697130 0.168194 0.696937
vn -0.697130 0.168194 0.696937
vn -0.707204 -0.000013 0.707010
vn -0.707204 -0.000013 0.707010
vn -0.707204 -0.000013 0.707010
vn -0.707204 -0.000013 0.707010
vn 0.000000 1.000000 0.000000
vn 0.000000 1.000000 0.000000
vn 0.000000 1.000000 0.000000
vn 0.000000 1.000000 0.000000
vn 0.707203 0.000009 -0.707011
vn 0.707203 0.000009 -0.707011
vn 0.707203 0.000009 -0.707011
vn 0.707203 0.000009 -0.707011
vn 0.551048 0.626518 0.551199
vn 0.551048 0.626518 0.551199
vn 0.551048 0.626518 0.551199
vn 0.551048 0.626518 0.551199
vn -1.000000 0.000068 0.000000
vn -1.000000 0.000068 0.000000
vn -1.000000 0.000068 0.000000
vn -1.000000 0.000068 0.000000
vn 0.000000 1.000000 0.000000
vn 0.000000 1.000000 0.000000
vn 0.000000 1.000000 0.000000
vn 0.000000 1.000000 0.000000
vn 1.000000 -0.000034 0.000000
vn 1.000000 -0.000034 0.000000
vn 1.000000 -0.000034 0.000000
vn 1.000000 -0.000034 0.000000
vn 0.000000 0.626488 0.779431
vn 0.000000 0.626488 0.779431
vn 0.000000 0.626488 0.779431
vn 0.000000 0.626488 0.779431
vn 0.000000 0.000000 -1.000000
vn 0.000000 0.000000 -1.000000
vn 0.000000 0.000000 -1.000000
vn 0.000000 0.000000 -1.000000
vn 0.000000 0.000000 -1.000000
vn 0.000000 0.000000 -1.000000
vn 0.000000 0.000000 -1.000000
vn 0.000000 0.000000 -1.000000
vn -0.000001 0.000000 1.000000
vn -0.000001 0.000000 1.000000
vn -0.000001 0.000000 1.000000
vn -0.000001 0.000000 1.000000
vn -0.000001 0.000000 1.000000
vn -0.000001 0.000000 1.000000
vn -0.000001 0.000000 1.000000
vn -0.000001 0.000000 1.000000
vn 1.000000 0.000000 0.000000
vn 1.000000 0.000000 0.000000
vn 1.000000 0.000000 0.000000
vn 1.000000 0.000000 0.000000
vn -1.000000 0.000000 0.000000
vn -1.000000 0.000000 0.000000
vn -1.000000 0.000000 0.000000
vn -1.000000 0.000000 0.000000
vn -0.851012 0.525147 0.000000
vn -0.851012 0.525147 0.000000
vn -0.851012 0.525147 0.000000
vn -0.851012 0.525147 0.000000
vn -0.559178 0.829047 0.000000
vn -0.559178 0.829047 0.000000
vn -0.559178 0.829047 0.000000
vn -0.559178 0.829047 0.000000
vn 0.000000 1.000000 0.000000
vn 0.000000 1.000000 0.000000
vn 0.000000 1.000000 0.000000
vn 0.000000 1.000000 0.000000
vn 0.456809 0.889565 0.000000
vn 0.456809 0.889565 0.000000
vn 0.456809 0.889565 0.000000
vn 0.456809 0.889565 0.000000
vn 0.837172 0.546940 0.000000
vn 0.837172 0.546940 0.000000
vn 0.837172 0.546940 0.000000
vn 0.837172 0.546940 0.000000
vn -1.000000 0.000000 0.000000
vn -1.000000 0.000000 0.000000
vn -1.000000 0.000000 0.000000
vn -1.000000 0.000000 0.000000
vn 1.000000 0.000000 0.000000
vn 1.000000 0.000000 0.000000
vn 1.000000 0.000000 0.000000
vn 1.000000 0.000000 0.000000
vn 0.000000 0.000000 -1.000000
vn 0.000000 0.000000 -1.000000
vn 0.000000 0.000000 -1.000000
vn 0.000000 0.000000 -1.000000
vn 0.000000 0.000000 1.000000
vn 0.000000 0.000000 1.000000
vn 0.000000 0.000000 1.000000
vn 0.000000 0.000000 1.000000
usemtl material
f 1/0/1 2/0/2 3/0/3
f 3/0/3 4/0/4 1/0/1
f 4/0/4 5/0/5 1/0/1
f 4/0/4 6/0/6 5/0/5
f 6/0/6 7/0/7 5/0/5
f 1/0/1 5/0/5 8/0/8
f 9/0/9 1/0/1 8/0/8
f 8/0/8 10/0/10 9/0/9
f 1/0/1 9/0/9 11/0/11
f 12/0/12 13/0/13 14/0/14
f 14/0/14 15/0/15 12/0/12
f 15/0/15 16/0/16 12/0/12
f 15/0/15 17/0/17 16/0/16
f 15/0/15 18/0/18 17/0/17
f 15/0/15 14/0/14 19/0/19
f 20/0/20 15/0/15 19/0/19
f 21/0/21 20/0/20 19/0/19
f 19/0/19 22/0/22 21/0/21
f 23/0/23 24/0/24 25/0/25
f 23/0/23 25/0/25 26/0/26
f 24/0/24 27/0/27 25/0/25
f 24/0/24 28/0/28 27/0/27
f 29/0/29 30/0/30 31/0/31
f 29/0/29 31/0/31 32/0/32
f 33/0/33 34/0/34 35/0/35
f 33/0/33 35/0/35 36/0/36
f 37/0/37 38/0/38 39/0/39
f 37/0/37 39/0/39 40/0/40
f 41/0/41 42/0/42 43/0/43
f 41/0/41 43/0/43 44/0/44
f 45/0/45 46/0/46 47/0/47
f 45/0/45 47/0/47 48/0/48
f 49/0/49 50/0/50 51/0/51
f 49/0/49 51/0/51 52/0/52
f 53/0/53 54/0/54 55/0/55
f 53/0/53 55/0/55 56/0/56
f 57/0/57 58/0/58 59/0/59
f 59/0/59 60/0/60 57/0/57
f 60/0/60 61/0/61 57/0/57
f 61/0/61 62/0/62 57/0/57
f 62/0/62 63/0/63 57/0/57
f 63/0/63 64/0/64 57/0/57
f 65/0/65 66/0/66 67/0/67
f 67/0/67 68/0/68 65/0/65
f 67/0/67 69/0/69 68/0/68
f 67/0/67 70/0/70 69/0/69
f 67/0/67 71/0/71 70/0/70
f 67/0/67 72/0/72 71/0/71
f 73/0/73 74/0/74 75/0/75
f 73/0/73 75/0/75 76/0/76
f 77/0/77 78/0/78 79/0/79
f 77/0/77 79/0/79 80/0/80
f 81/0/81 82/0/82 83/0/83
f 81/0/81 83/0/83 84/0/84
f 85/0/85 86/0/86 87/0/87
f 85/0/85 87/0/87 88/0/88
f 89/0/89 90/0/90 91/0/91
f 89/0/89 91/0/91 92/0/92
f 93/0/93 94/0/94 95/0/95
f 93/0/93 95/0/95 96/0/96
f 97/0/97 98/0/98 99/0/99
f 97/0/97 99/0/99 100/0/100
f 101/0/101 102/0/102 103/0/103
f 101/0/101 103/0/103 104/0/104
f 105/0/105 106/0/106 107/0/107
f 105/0/105 107/0/107 108/0/108
f 109/0/109 110/0/110 111/0/111
f 109/0/109 111/0/111 112/0/112
f 113/0/113 114/0/114 115/0/115
f 113/0/113 115/0/115 116/0/116
f 117/0/117 118/0/118 119/0/119
f 117/0/117 119/0/119 120/0/120
f 121/0/121 122/0/122 123/0/123
f 121/0/121 123/0/123 124/0/124
f 125/0/125 126/0/126 127/0/127
f 125/0/125 127/0/127 128/0/128
f 129/0/129 130/0/130 131/0/131
f 129/0/129 131/0/131 132/0/132
f 133/0/133 134/0/134 135/0/135
f 135/0/135 136/0/136 133/0/133
f 136/0/136 137/0/137 133/0/133
f 137/0/137 138/0/138 133/0/133
f 138/0/138 139/0/139 133/0/133
f 139/0/139 140/0/140 133/0/133
f 141/0/141 142/0/142 143/0/143
f 143/0/143 144/0/144 141/0/141
f 144/0/144 145/0/145 141/0/141
f 144/0/144 146/0/146 145/0/145
f 144/0/144 147/0/147 146/0/146
f 144/0/144 148/0/148 147/0/147
f 149/0/149 150/0/150 151/0/151
f 149/0/149 151/0/151 152/0/152
f 153/0/153 154/0/154 155/0/155
f 153/0/153 155/0/155 156/0/156
f 157/0/157 158/0/158 159/0/159
f 157/0/157 159/0/159 160/0/160
f 161/0/161 162/0/162 163/0/163
f 161/0/161 163/0/163 164/0/164
f 165/0/165 166/0/166 167/0/167
f 165/0/165 167/0/167 168/0/168
f 169/0/169 170/0/170 171/0/171
f 169/0/169 171/0/171 172/0/172
f 173/0/173 174/0/174 175/0/175
f 173/0/173 175/0/175 176/0/176
f 177/0/177 178/0/178 179/0/179
f 177/0/177 179/0/179 180/0/180
f 181/0/181 182/0/182 183/0/183
f 181/0/181 183/0/183 184/0/184
f 185/0/185 186/0/186 187/0/187
f 185/0/185 187/0/187 188/0/188
f 189/0/189 190/0/190 191/0/191
f 189/0/189 191/0/191 192/0/192
