# 
# Wavefront OBJ file
# Created with Kaydara FBX
# 
mtllib perpstage_cave_grass.mtl

g PerpStage_Cave_grass
v 176.919495 -21.364300 103.529198
v 194.877686 -2.705900 101.348701
v 186.167297 -2.705900 64.044701
v 169.252884 -21.364300 64.686089
v 176.919495 -21.364300 135.565094
v 194.877579 -2.705900 137.745605
v 169.252792 -21.364300 166.670090
v 186.167297 -2.705900 173.084885
v 154.365005 -21.364300 195.036407
v 169.252792 -2.705900 205.312683
v 133.121201 -21.364300 219.015579
v 145.117096 -2.705900 232.556198
v 106.756195 -21.364300 237.214005
v 115.163101 -2.705900 253.231903
v 76.802200 -21.364300 248.574005
v 81.131401 -2.705900 266.138397
v 44.999901 -21.364300 252.435501
v 44.999901 -2.705900 270.525604
v 13.197599 -21.364300 248.574005
v 8.868300 -2.705900 266.138397
v -16.756500 -21.364300 237.213898
v -25.163300 -2.705900 253.231796
v -43.121498 -21.364300 219.015381
v -55.117397 -2.705900 232.556015
v -64.365097 -21.364300 195.036209
v -79.252998 -2.705900 205.312500
v -79.252899 -21.364300 166.669800
v -96.167389 -2.705900 173.084579
v -86.919502 -21.364300 135.564804
v -104.877701 -2.705900 137.745300
v -86.919502 -21.364300 103.528900
v -104.877602 -2.705900 101.348396
v -79.252800 -21.364300 64.686089
v -96.167198 -2.705900 64.044601
v -8.730599 -30.464300 221.921982
v 17.330601 -30.464300 231.805695
v 44.999901 -30.464300 235.165405
v 72.669197 -30.464300 231.805801
v 98.730400 -30.464300 221.922104
v 121.669090 -30.464300 206.088684
v 140.151993 -30.464300 185.225906
v 153.104996 -30.464300 160.546005
v 159.775299 -30.464300 133.483398
v 159.775406 -30.464300 105.610893
v 153.104996 -30.464300 65.298492
v 135.380493 -34.965801 65.970703
v 140.957199 -34.965801 107.895790
v 140.957199 -34.965801 131.198486
v 135.380493 -34.965801 153.823898
v 124.551201 -34.965801 174.457397
v 109.098602 -34.965801 191.899612
v -45.380398 -34.965801 65.970703
v -50.957100 -34.965801 107.895592
v -63.104900 -30.464300 65.298492
v -69.775299 -30.464300 105.610603
v -69.775398 -30.464300 133.483200
v -63.105095 -30.464300 160.545807
v -50.152100 -30.464300 185.225693
v -31.669298 -30.464300 206.088593
v 0.078900 -34.965801 205.136887
v 21.867199 -34.965801 213.400208
v 44.999901 -34.965801 216.209000
v 68.132599 -34.965801 213.400208
v 89.920998 -34.965801 205.136993
v -19.098799 -34.965801 191.899506
v -34.551296 -34.965801 174.457199
v -45.380497 -34.965801 153.823807
v -50.957195 -34.965801 131.198196
v 140.729904 -7.713000 179.035782
v 130.391983 -24.162199 173.381195
v 138.869003 -14.382600 200.305481
v 131.010300 -11.445100 158.052795
v 127.543892 -28.169498 157.397293
v 132.185989 -11.803099 134.933807
v 143.874603 1.612100 143.091293
v 145.113586 10.267299 128.929901
v 133.377701 -8.412800 120.267891
v 122.852402 -25.196398 126.982300
v 121.613495 -28.169498 141.143692
v 117.075699 -28.169498 125.434402
v 124.091400 -20.706799 112.821007
v 105.857697 -28.169498 109.140800
v 104.885689 -28.169498 91.560799
v 110.662491 -25.196398 93.108696
v 125.335289 -13.592400 98.603493
v 134.660797 -4.762400 104.476990
v 146.352493 13.684401 114.768600
v 147.322098 9.235600 103.686401
v 136.616806 -7.497500 78.865196
v 127.041298 -21.393501 79.102898
v 149.825500 -0.544000 75.072403
v 137.655106 -10.232701 63.743298
v 145.720596 15.021700 121.991394
v 120.123093 -24.059599 50.622498
v 112.140503 -24.628000 76.776703
v 107.129692 -26.114498 75.817101
v 142.918503 2.252100 154.019501
v 141.849106 -1.755700 166.242889
v 167.826691 13.046600 103.680092
v 160.725601 -4.762400 104.653397
v 170.152298 -4.762400 132.951797
v 161.970505 2.221600 89.505508
v 159.804596 -4.762400 88.922997
v 169.400986 24.271498 90.062302
v 164.002594 12.197499 67.548698
v 170.975388 29.571098 76.444504
v 172.549683 35.068100 62.826801
v 156.940201 -4.762400 72.669991
v 158.514496 -1.681500 59.052200
v 154.930405 -4.762400 57.062500
v 165.574905 15.710699 53.437996
v 174.123978 37.948502 49.209000
v 167.267883 19.493401 38.244900
v 175.355988 33.999001 38.552200
v 178.537079 23.864799 11.036500
v 160.088806 2.970900 45.434399
v 148.708801 -4.762400 40.322300
v 161.669403 10.343299 31.762699
v 149.068405 -4.762400 23.204399
v 152.652588 -1.681500 25.194099
v 169.934189 16.659100 13.592099
v 171.434387 13.824800 -0.973500
v 163.837296 2.259300 13.010600
v 161.024902 -0.503400 -15.174400
v 154.499481 -1.092500 9.493200
v 151.369202 -2.632900 8.138500
v -40.319099 29.231701 163.200607
v -31.734100 15.000000 178.074585
v -32.837898 15.000000 161.184677
v -37.974899 20.581202 150.188690
v -35.917599 15.000000 148.907501
v -45.400703 38.201897 153.491806
v -45.652603 28.553200 134.338394
v -50.482395 42.437099 143.783096
v -55.563999 46.829903 134.074295
v -37.151402 15.000000 135.480804
v -42.233101 17.462000 125.772011
v -39.090801 15.000000 122.874489
v -50.858101 31.360701 124.255409
v -60.645699 49.131699 124.365593
v -56.462997 34.383598 113.398895
v -64.622398 45.975498 116.767891
v -74.890190 37.876900 97.150703
v -47.314701 21.179899 116.063301
v -37.029701 15.000000 107.776901
v -52.416496 27.071398 106.316101
v -41.768196 15.000000 94.944794
v -44.910503 17.462000 97.842300
v -65.475403 32.118599 95.751503
v -70.723602 29.853598 85.295799
v -59.414101 20.611198 92.946808
v -63.748501 18.403400 70.498589
v -50.801800 17.932699 86.660797
v -47.959599 16.701698 84.420395
v -36.157101 51.065300 34.137901
v -67.997597 24.273001 39.748001
v -37.407799 24.273001 48.670399
v -14.647999 34.779896 46.662998
v -13.706000 24.273001 51.127396
v -15.710000 67.952400 31.399498
v 18.335400 49.787899 43.286499
v 4.737200 75.925301 28.661100
v 25.184299 84.195099 25.922699
v 10.840800 24.273001 57.589901
v 31.288000 28.907999 54.851501
v 34.390499 24.273001 62.276001
v 39.524502 55.073299 40.569901
v 45.631496 88.528397 23.184299
v 62.338997 60.764099 37.645000
v 61.632603 82.586700 21.041401
v 102.947601 67.340500 15.508199
v 51.735096 35.907200 52.113098
v 59.771698 24.272900 75.643204
v 72.263298 46.998299 49.363796
v 85.523201 24.272900 75.522903
v 82.420700 28.907999 68.098396
v 99.360802 56.500095 33.064400
v 121.236595 52.235996 30.512199
v 100.419609 34.836494 45.592899
v 142.922394 30.680199 52.379204
v 105.994698 29.794102 64.875999
v 108.127899 27.476599 71.346397
vt 0.891300 0.128200
vt 0.980800 0.122900
vt 0.963700 0.008600
vt 0.874900 0.012300
vt 0.888400 0.220700
vt 0.976900 0.233500
vt 0.865800 0.309800
vt 0.949600 0.341500
vt 0.823600 0.391600
vt 0.898500 0.441700
vt 0.763600 0.461700
vt 0.825200 0.528100
vt 0.688400 0.516000
vt 0.732900 0.595500
vt 0.602000 0.551000
vt 0.626600 0.639500
vt 0.509400 0.564500
vt 0.512000 0.656900
vt 0.415900 0.555100
vt 0.396000 0.645100
vt 0.327700 0.523500
vt 0.286800 0.605800
vt 0.249800 0.471900
vt 0.190800 0.541800
vt 0.186300 0.403700
vt 0.113200 0.457700
vt 0.140500 0.322900
vt 0.057400 0.358800
vt 0.114200 0.234000
vt 0.025400 0.250700
vt 0.107900 0.140600
vt 0.017200 0.138800
vt 0.120400 0.022500
vt 0.030200 0.022300
vt 0.354400 0.469600
vt 0.429000 0.496300
vt 0.507900 0.504300
vt 0.586200 0.493100
vt 0.659500 0.463700
vt 0.723400 0.417900
vt 0.774500 0.358400
vt 0.810400 0.288700
vt 0.829400 0.212300
vt 0.831000 0.132700
vt 0.814400 0.014300
vt 0.758300 0.016900
vt 0.774200 0.138100
vt 0.773800 0.204900
vt 0.758400 0.268900
vt 0.728500 0.327300
vt 0.686200 0.377000
vt 0.238700 0.024700
vt 0.226500 0.146900
vt 0.182100 0.023200
vt 0.169000 0.143200
vt 0.173400 0.223300
vt 0.195500 0.299300
vt 0.234500 0.368100
vt 0.288400 0.426000
vt 0.379400 0.419400
vt 0.441200 0.441600
vt 0.506700 0.448200
vt 0.571800 0.439100
vt 0.632800 0.414700
vt 0.324400 0.383200
vt 0.279500 0.334900
vt 0.246900 0.277300
vt 0.229100 0.213800
vt 0.207100 0.867900
vt 0.230500 0.793900
vt 0.136600 0.834700
vt 0.280500 0.849600
vt 0.285400 0.778700
vt 0.358500 0.852800
vt 0.326800 0.915300
vt 0.373200 0.953900
vt 0.407600 0.870400
vt 0.388400 0.792600
vt 0.341800 0.776700
vt 0.395300 0.774300
vt 0.435600 0.813700
vt 0.454400 0.759700
vt 0.512600 0.765000
vt 0.506700 0.784200
vt 0.484200 0.845500
vt 0.461000 0.889700
vt 0.419500 0.971900
vt 0.459200 0.958400
vt 0.549500 0.888600
vt 0.555500 0.826600
vt 0.562600 0.933300
vt 0.601800 0.883500
vt 0.395300 0.975200
vt 0.649200 0.814300
vt 0.562700 0.788300
vt 0.566000 0.774400
vt 0.289500 0.915100
vt 0.249200 0.895500
vt 0.163600 0.899200
vt 0.153600 0.819100
vt 0.047000 0.837600
vt 0.211000 0.846100
vt 0.210600 0.815500
vt 0.217200 0.943400
vt 0.294300 0.884700
vt 0.268400 0.964200
vt 0.319400 0.985900
vt 0.269500 0.808900
vt 0.319700 0.821200
vt 0.325100 0.802100
vt 0.347300 0.898400
vt 0.369700 0.997600
vt 0.405000 0.913600
vt 0.409600 0.983300
vt 0.515400 0.949400
vt 0.371100 0.838700
vt 0.385600 0.782400
vt 0.425000 0.866900
vt 0.447000 0.783000
vt 0.442600 0.802900
vt 0.497400 0.905200
vt 0.551600 0.895800
vt 0.497700 0.841900
vt 0.594600 0.821800
vt 0.501600 0.802500
vt 0.503800 0.788100
vt 0.651000 0.849000
vt 0.548400 0.800200
vt 0.642300 0.785500
vt 0.692800 0.806900
vt 0.692400 0.782700
vt 0.698200 0.884000
vt 0.766100 0.837500
vt 0.743300 0.900400
vt 0.788100 0.917600
vt 0.744200 0.777400
vt 0.788500 0.787200
vt 0.793200 0.772000
vt 0.812800 0.848400
vt 0.832500 0.926900
vt 0.863500 0.860400
vt 0.867600 0.915600
vt 0.960700 0.888700
vt 0.833700 0.801100
vt 0.846400 0.756500
vt 0.881100 0.823400
vt 0.900400 0.756900
vt 0.896600 0.772700
vt 0.944800 0.853700
vt 0.992500 0.846200
vt 0.945100 0.803600
vt 0.995000 0.787700
vt 0.948500 0.772400
vt 0.950400 0.761000
vt 0.651000 0.849000
vt 0.548400 0.800200
vt 0.642300 0.785500
vt 0.692800 0.806900
vt 0.692400 0.782700
vt 0.698200 0.884000
vt 0.766100 0.837500
vt 0.743300 0.900400
vt 0.788100 0.917600
vt 0.744200 0.777400
vt 0.788500 0.787200
vt 0.793200 0.772000
vt 0.812800 0.848400
vt 0.832500 0.926900
vt 0.863500 0.860400
vt 0.867600 0.915600
vt 0.960700 0.888700
vt 0.833700 0.801100
vt 0.846400 0.756500
vt 0.881100 0.823400
vt 0.900400 0.756900
vt 0.896600 0.772700
vt 0.944800 0.853700
vt 0.992500 0.846200
vt 0.945100 0.803600
vt 0.995000 0.787700
vt 0.948500 0.772400
vt 0.950400 0.761000
vn -0.695181 0.715180 0.072398
vn -0.794794 0.599896 0.091799
vn -0.796052 0.581238 0.168711
vn -0.692895 0.709295 0.129599
vn -0.692296 0.716696 -0.084100
vn -0.794266 0.599874 -0.096396
vn -0.652084 0.716682 -0.247294
vn -0.748093 0.599894 -0.283697
vn -0.573969 0.716661 -0.396178
vn -0.658476 0.599878 -0.454483
vn -0.462489 0.716682 -0.521987
vn -0.530574 0.599871 -0.598871
vn -0.324099 0.716698 -0.617498
vn -0.371810 0.599916 -0.708419
vn -0.166902 0.716708 -0.677107
vn -0.191503 0.599909 -0.776811
vn 0.000000 0.716691 -0.697391
vn 0.000000 0.599888 -0.800084
vn 0.166902 0.716708 -0.677107
vn 0.191503 0.599909 -0.776811
vn 0.324099 0.716698 -0.617498
vn 0.371810 0.599916 -0.708419
vn 0.462489 0.716682 -0.521987
vn 0.530574 0.599871 -0.598871
vn 0.573969 0.716661 -0.396178
vn 0.658476 0.599878 -0.454483
vn 0.652084 0.716682 -0.247294
vn 0.748093 0.599894 -0.283697
vn 0.692296 0.716696 -0.084100
vn 0.794266 0.599874 -0.096396
vn 0.695084 0.715984 0.064999
vn 0.800217 0.593713 0.084602
vn 0.690020 0.709320 0.144004
vn 0.802000 0.567200 0.187300
vn 0.205597 0.896787 -0.391794
vn 0.105899 0.896790 -0.429595
vn 0.000000 0.896814 -0.442407
vn -0.105899 0.896790 -0.429595
vn -0.205597 0.896787 -0.391794
vn -0.293396 0.896788 -0.331195
vn -0.364105 0.896813 -0.251304
vn -0.413697 0.896793 -0.156899
vn -0.439203 0.896805 -0.053300
vn -0.441606 0.896412 0.037801
vn -0.442610 0.893721 0.073202
vn -0.143304 0.989425 0.022401
vn -0.154394 0.987960 0.009900
vn -0.158398 0.987189 -0.019200
vn -0.149198 0.987186 -0.056599
vn -0.131299 0.987194 -0.090599
vn -0.105799 0.987193 -0.119399
vn 0.146195 0.989066 0.019399
vn 0.155592 0.987751 0.011799
vn 0.435195 0.897290 0.073999
vn 0.438308 0.898116 0.035701
vn 0.439203 0.896805 -0.053300
vn 0.413697 0.896793 -0.156899
vn 0.364105 0.896813 -0.251304
vn 0.293396 0.896788 -0.331195
vn 0.074099 0.987190 -0.141299
vn 0.038200 0.987192 -0.154899
vn 0.000000 0.987198 -0.159500
vn -0.038200 0.987192 -0.154899
vn -0.074099 0.987190 -0.141299
vn 0.105799 0.987193 -0.119399
vn 0.131299 0.987194 -0.090599
vn 0.149198 0.987186 -0.056599
vn 0.158398 0.987189 -0.019200
vn -0.879056 0.429678 0.206490
vn -0.936929 0.294009 0.189006
vn -0.904941 0.416019 0.089504
vn -0.919787 0.380495 0.095999
vn -0.955196 0.265799 0.130199
vn -0.893297 0.444698 0.065300
vn -0.854323 0.511714 0.091002
vn -0.895735 0.387915 0.217209
vn -0.895578 0.440189 0.064598
vn -0.750367 0.643872 0.149593
vn -0.820437 0.535724 0.199709
vn -0.551013 0.793219 0.259206
vn -0.738703 0.641102 0.208101
vn -0.484188 0.865178 0.130497
vn -0.518602 0.853903 0.043600
vn -0.571397 0.820196 0.028000
vn -0.781942 0.623333 -0.004700
vn -0.826800 0.558900 -0.063500
vn -0.882250 0.434925 -0.180210
vn -0.780934 0.531923 -0.327414
vn -0.723473 0.660476 -0.200893
vn -0.637074 0.755869 -0.150994
vn -0.654205 0.722105 -0.224902
vn -0.761510 0.643008 -0.081501
vn -0.926036 0.377415 -0.003800
vn -0.552416 0.833124 0.027201
vn -0.329801 0.944004 -0.009400
vn -0.361799 0.931997 0.022000
vn -0.830683 0.556688 -0.008000
vn -0.803629 0.555320 0.214008
vn -0.944918 0.272305 0.181603
vn -0.939006 0.284502 0.193201
vn -0.907249 0.292516 0.302216
vn -0.965434 0.250009 0.073703
vn -0.962303 0.259101 0.082700
vn -0.961892 0.263198 0.074099
vn -0.958523 0.283907 0.025101
vn -0.958310 0.283603 0.034800
vn -0.959872 0.280292 -0.009100
vn -0.926369 0.364388 0.095197
vn -0.875704 0.477702 0.070300
vn -0.750985 0.636488 0.175797
vn -0.955934 0.293410 -0.010000
vn -0.942386 0.315995 -0.109798
vn -0.915224 0.389610 -0.102803
vn -0.878499 0.383500 -0.284900
vn -0.788588 0.571291 -0.227497
vn -0.867924 0.483413 0.114103
vn -0.678320 0.730221 0.081602
vn -0.895127 0.442113 -0.057302
vn -0.709697 0.704497 -0.003800
vn -0.749785 0.660787 -0.034399
vn -0.839238 0.501823 -0.209410
vn -0.880791 0.461395 -0.106399
vn -0.745588 0.646989 -0.159697
vn -0.736214 0.676512 -0.017900
vn -0.485219 0.873735 -0.033901
vn -0.529885 0.847776 -0.022299
vn 0.929165 0.352387 -0.111696
vn 0.922365 0.381585 -0.060298
vn 0.920054 0.370222 -0.128207
vn 0.920672 0.329990 -0.208494
vn 0.919486 0.341695 -0.194397
vn 0.915142 0.346816 -0.205509
vn 0.889127 0.373411 -0.264608
vn 0.892754 0.373081 -0.252587
vn 0.876498 0.369899 -0.308099
vn 0.867008 0.469404 -0.167202
vn 0.792755 0.582267 -0.180290
vn 0.675295 0.737494 -0.008900
vn 0.869859 0.385982 -0.307186
vn 0.805085 0.413992 -0.424792
vn 0.770999 0.499299 -0.395299
vn 0.642095 0.483296 -0.595095
vn 0.563082 0.672078 -0.480884
vn 0.804806 0.580204 -0.125101
vn 0.560629 0.822342 -0.097205
vn 0.761501 0.556201 -0.332801
vn 0.557264 0.808048 -0.191088
vn 0.594205 0.770906 -0.229402
vn 0.629795 0.608495 -0.482796
vn 0.717369 0.576775 -0.390783
vn 0.566610 0.719713 -0.401207
vn 0.575630 0.788140 -0.217911
vn 0.347716 0.924241 -0.157707
vn 0.391591 0.908078 -0.148496
vn -0.212902 0.352404 0.911309
vn -0.258790 0.381586 0.887367
vn -0.194205 0.370209 0.908422
vn -0.118994 0.329985 0.936456
vn -0.131803 0.341707 0.930518
vn -0.119905 0.346814 0.930238
vn -0.055500 0.373403 0.926007
vn -0.068000 0.373099 0.925296
vn -0.010200 0.369905 0.929013
vn -0.139402 0.469405 0.871909
vn -0.101699 0.582294 0.806592
vn -0.222601 0.737503 0.637603
vn -0.008900 0.385984 0.922462
vn 0.123802 0.414007 0.901815
vn 0.107800 0.499299 0.859698
vn 0.339601 0.483301 0.806902
vn 0.259295 0.672088 0.693588
vn -0.157695 0.580182 0.799075
vn -0.100402 0.822313 0.560109
vn 0.052300 0.556201 0.829401
vn -0.011000 0.808073 0.588980
vn 0.012400 0.770917 0.636814
vn 0.238211 0.608528 0.756934
vn 0.121805 0.576825 0.807735
vn 0.183197 0.719690 0.669691
vn 0.007900 0.788147 0.615437
vn 0.029301 0.924229 0.380712
vn 0.005600 0.908106 0.418703
usemtl material
f 1/0/1 2/0/2 3/0/3
f 1/0/1 3/0/3 4/0/4
f 5/0/5 2/0/2 1/0/1
f 5/0/5 6/0/6 2/0/2
f 7/0/7 6/0/6 5/0/5
f 7/0/7 8/0/8 6/0/6
f 9/0/9 8/0/8 7/0/7
f 9/0/9 10/0/10 8/0/8
f 11/0/11 10/0/10 9/0/9
f 11/0/11 12/0/12 10/0/10
f 13/0/13 12/0/12 11/0/11
f 13/0/13 14/0/14 12/0/12
f 15/0/15 14/0/14 13/0/13
f 15/0/15 16/0/16 14/0/14
f 17/0/17 16/0/16 15/0/15
f 17/0/17 18/0/18 16/0/16
f 19/0/19 18/0/18 17/0/17
f 19/0/19 20/0/20 18/0/18
f 21/0/21 20/0/20 19/0/19
f 21/0/21 22/0/22 20/0/20
f 23/0/23 22/0/22 21/0/21
f 23/0/23 24/0/24 22/0/22
f 25/0/25 24/0/24 23/0/23
f 25/0/25 26/0/26 24/0/24
f 27/0/27 26/0/26 25/0/25
f 27/0/27 28/0/28 26/0/26
f 29/0/29 28/0/28 27/0/27
f 29/0/29 30/0/30 28/0/28
f 31/0/31 30/0/30 29/0/29
f 31/0/31 32/0/32 30/0/30
f 33/0/33 32/0/32 31/0/31
f 33/0/33 34/0/34 32/0/32
f 35/0/35 21/0/21 19/0/19
f 35/0/35 19/0/19 36/0/36
f 36/0/36 19/0/19 17/0/17
f 36/0/36 17/0/17 37/0/37
f 37/0/37 17/0/17 15/0/15
f 37/0/37 15/0/15 38/0/38
f 38/0/38 15/0/15 13/0/13
f 38/0/38 13/0/13 39/0/39
f 39/0/39 13/0/13 11/0/11
f 39/0/39 11/0/11 40/0/40
f 40/0/40 11/0/11 9/0/9
f 40/0/40 9/0/9 41/0/41
f 41/0/41 9/0/9 7/0/7
f 41/0/41 7/0/7 42/0/42
f 42/0/42 7/0/7 5/0/5
f 42/0/42 5/0/5 43/0/43
f 43/0/43 5/0/5 1/0/1
f 43/0/43 1/0/1 44/0/44
f 44/0/44 1/0/1 4/0/4
f 44/0/44 4/0/4 45/0/45
f 44/0/44 45/0/45 46/0/46
f 44/0/44 46/0/46 47/0/47
f 43/0/43 44/0/44 47/0/47
f 43/0/43 47/0/47 48/0/48
f 42/0/42 43/0/43 48/0/48
f 42/0/42 48/0/48 49/0/49
f 41/0/41 42/0/42 49/0/49
f 41/0/41 49/0/49 50/0/50
f 40/0/40 41/0/41 50/0/50
f 40/0/40 50/0/50 51/0/51
f 47/0/47 46/0/46 52/0/52
f 52/0/52 53/0/53 47/0/47
f 54/0/54 53/0/53 52/0/52
f 54/0/54 55/0/55 53/0/53
f 54/0/54 31/0/31 55/0/55
f 55/0/55 31/0/31 29/0/29
f 55/0/55 29/0/29 56/0/56
f 56/0/56 29/0/29 27/0/27
f 56/0/56 27/0/27 57/0/57
f 57/0/57 27/0/27 25/0/25
f 57/0/57 25/0/25 58/0/58
f 58/0/58 25/0/25 23/0/23
f 58/0/58 23/0/23 59/0/59
f 59/0/59 23/0/23 21/0/21
f 59/0/59 21/0/21 35/0/35
f 54/0/54 33/0/33 31/0/31
f 59/0/59 35/0/35 60/0/60
f 35/0/35 61/0/61 60/0/60
f 35/0/35 36/0/36 61/0/61
f 36/0/36 62/0/62 61/0/61
f 36/0/36 37/0/37 62/0/62
f 37/0/37 63/0/63 62/0/62
f 61/0/61 62/0/62 63/0/63
f 37/0/37 38/0/38 63/0/63
f 38/0/38 64/0/64 63/0/63
f 60/0/60 61/0/61 64/0/64
f 61/0/61 63/0/63 64/0/64
f 38/0/38 39/0/39 64/0/64
f 39/0/39 51/0/51 64/0/64
f 60/0/60 64/0/64 51/0/51
f 39/0/39 40/0/40 51/0/51
f 59/0/59 60/0/60 65/0/65
f 65/0/65 60/0/60 51/0/51
f 58/0/58 59/0/59 65/0/65
f 58/0/58 65/0/65 66/0/66
f 57/0/57 58/0/58 66/0/66
f 57/0/57 66/0/66 67/0/67
f 56/0/56 57/0/57 67/0/67
f 56/0/56 67/0/67 68/0/68
f 55/0/55 56/0/56 68/0/68
f 55/0/55 68/0/68 53/0/53
f 53/0/53 68/0/68 47/0/47
f 68/0/68 48/0/48 47/0/47
f 68/0/68 67/0/67 48/0/48
f 67/0/67 49/0/49 48/0/48
f 67/0/67 66/0/66 49/0/49
f 66/0/66 50/0/50 49/0/49
f 66/0/66 65/0/65 50/0/50
f 65/0/65 51/0/51 50/0/50
f 69/0/69 70/0/70 71/0/71
f 69/0/69 72/0/72 70/0/70
f 70/0/70 72/0/72 73/0/73
f 73/0/73 72/0/72 74/0/74
f 75/0/75 74/0/74 72/0/72
f 76/0/76 74/0/74 75/0/75
f 76/0/76 77/0/77 74/0/74
f 78/0/78 74/0/74 77/0/77
f 74/0/74 78/0/78 79/0/79
f 73/0/73 74/0/74 79/0/79
f 78/0/78 80/0/80 79/0/79
f 81/0/81 80/0/80 78/0/78
f 78/0/78 77/0/77 81/0/81
f 81/0/81 82/0/82 80/0/80
f 81/0/81 83/0/83 82/0/82
f 81/0/81 84/0/84 83/0/83
f 85/0/85 84/0/84 81/0/81
f 86/0/86 85/0/85 81/0/81
f 81/0/81 77/0/77 86/0/86
f 87/0/87 86/0/86 77/0/77
f 88/0/88 86/0/86 87/0/87
f 85/0/85 86/0/86 89/0/89
f 85/0/85 89/0/89 90/0/90
f 84/0/84 85/0/85 90/0/90
f 91/0/91 86/0/86 88/0/88
f 91/0/91 89/0/89 86/0/86
f 91/0/91 92/0/92 89/0/89
f 90/0/90 89/0/89 92/0/92
f 87/0/87 77/0/77 93/0/93
f 90/0/90 92/0/92 94/0/94
f 94/0/94 95/0/95 90/0/90
f 84/0/84 90/0/90 95/0/95
f 83/0/83 84/0/84 95/0/95
f 94/0/94 96/0/96 95/0/95
f 83/0/83 95/0/95 96/0/96
f 93/0/93 77/0/77 76/0/76
f 97/0/97 72/0/72 98/0/98
f 75/0/75 72/0/72 97/0/97
f 98/0/98 72/0/72 69/0/69
f 99/0/99 100/0/100 101/0/101
f 99/0/99 102/0/102 100/0/100
f 100/0/100 102/0/102 103/0/103
f 99/0/99 104/0/104 102/0/102
f 104/0/104 105/0/105 102/0/102
f 105/0/105 103/0/103 102/0/102
f 104/0/104 106/0/106 105/0/105
f 107/0/107 105/0/105 106/0/106
f 105/0/105 108/0/108 103/0/103
f 105/0/105 109/0/109 108/0/108
f 109/0/109 110/0/110 108/0/108
f 109/0/109 105/0/105 111/0/111
f 107/0/107 111/0/111 105/0/105
f 112/0/112 111/0/111 107/0/107
f 112/0/112 113/0/113 111/0/111
f 114/0/114 113/0/113 112/0/112
f 115/0/115 113/0/113 114/0/114
f 116/0/116 110/0/110 109/0/109
f 116/0/116 111/0/111 113/0/113
f 109/0/109 111/0/111 116/0/116
f 116/0/116 117/0/117 110/0/110
f 113/0/113 118/0/118 116/0/116
f 116/0/116 119/0/119 117/0/117
f 116/0/116 120/0/120 119/0/119
f 118/0/118 120/0/120 116/0/116
f 118/0/118 113/0/113 121/0/121
f 115/0/115 121/0/121 113/0/113
f 115/0/115 122/0/122 121/0/121
f 118/0/118 121/0/121 123/0/123
f 123/0/123 121/0/121 122/0/122
f 120/0/120 118/0/118 123/0/123
f 123/0/123 122/0/122 124/0/124
f 124/0/124 125/0/125 123/0/123
f 120/0/120 123/0/123 125/0/125
f 119/0/119 120/0/120 125/0/125
f 124/0/124 126/0/126 125/0/125
f 119/0/119 125/0/125 126/0/126
f 127/0/127 128/0/128 129/0/129
f 127/0/127 129/0/129 130/0/130
f 129/0/129 131/0/131 130/0/130
f 127/0/127 130/0/130 132/0/132
f 132/0/132 130/0/130 133/0/133
f 133/0/133 130/0/130 131/0/131
f 132/0/132 133/0/133 134/0/134
f 135/0/135 134/0/134 133/0/133
f 133/0/133 131/0/131 136/0/136
f 133/0/133 136/0/136 137/0/137
f 137/0/137 136/0/136 138/0/138
f 137/0/137 139/0/139 133/0/133
f 135/0/135 133/0/133 139/0/139
f 140/0/140 135/0/135 139/0/139
f 140/0/140 139/0/139 141/0/141
f 142/0/142 140/0/140 141/0/141
f 143/0/143 142/0/142 141/0/141
f 144/0/144 137/0/137 138/0/138
f 144/0/144 141/0/141 139/0/139
f 137/0/137 144/0/144 139/0/139
f 144/0/144 138/0/138 145/0/145
f 141/0/141 144/0/144 146/0/146
f 144/0/144 145/0/145 147/0/147
f 144/0/144 147/0/147 148/0/148
f 146/0/146 144/0/144 148/0/148
f 146/0/146 149/0/149 141/0/141
f 143/0/143 141/0/141 149/0/149
f 143/0/143 149/0/149 150/0/150
f 146/0/146 151/0/151 149/0/149
f 151/0/151 150/0/150 149/0/149
f 148/0/148 151/0/151 146/0/146
f 151/0/151 152/0/152 150/0/150
f 152/0/152 151/0/151 153/0/153
f 148/0/148 153/0/153 151/0/151
f 147/0/147 153/0/153 148/0/148
f 152/0/152 153/0/153 154/0/154
f 147/0/147 154/0/154 153/0/153
f 155/0/155 156/0/156 157/0/157
f 155/0/155 157/0/157 158/0/158
f 157/0/157 159/0/159 158/0/158
f 155/0/155 158/0/158 160/0/160
f 160/0/160 158/0/158 161/0/161
f 161/0/161 158/0/158 159/0/159
f 160/0/160 161/0/161 162/0/162
f 163/0/163 162/0/162 161/0/161
f 161/0/161 159/0/159 164/0/164
f 161/0/161 164/0/164 165/0/165
f 165/0/165 164/0/164 166/0/166
f 165/0/165 167/0/167 161/0/161
f 163/0/163 161/0/161 167/0/167
f 168/0/168 163/0/163 167/0/167
f 168/0/168 167/0/167 169/0/169
f 170/0/170 168/0/168 169/0/169
f 171/0/171 170/0/170 169/0/169
f 172/0/172 165/0/165 166/0/166
f 172/0/172 169/0/169 167/0/167
f 165/0/165 172/0/172 167/0/167
f 172/0/172 166/0/166 173/0/173
f 169/0/169 172/0/172 174/0/174
f 172/0/172 173/0/173 175/0/175
f 172/0/172 175/0/175 176/0/176
f 174/0/174 172/0/172 176/0/176
f 174/0/174 177/0/177 169/0/169
f 171/0/171 169/0/169 177/0/177
f 171/0/171 177/0/177 178/0/178
f 174/0/174 179/0/179 177/0/177
f 179/0/179 178/0/178 177/0/177
f 176/0/176 179/0/179 174/0/174
f 179/0/179 180/0/180 178/0/178
f 180/0/180 179/0/179 181/0/181
f 176/0/176 181/0/181 179/0/179
f 175/0/175 181/0/181 176/0/176
f 180/0/180 181/0/181 182/0/182
f 175/0/175 182/0/182 181/0/181
