# 
# Wavefront OBJ file
# Created with Kaydara FBX
# 
mtllib perpstage_memory_temple_glim01.mtl

g PerpStage_Memory_Temple_glim01
v 3.060507 5.439886 -3.279817
v 3.060802 5.441415 -3.015884
v 2.874078 5.441415 -3.092986
v 2.796574 5.441415 -3.279521
v 2.873667 5.441415 -3.466228
v 3.060227 5.441415 -3.543741
v 3.246935 5.441415 -3.466656
v 3.324439 5.441415 -3.280113
v 3.247362 5.441415 -3.093389
v 3.060802 5.519240 -3.015876
v 3.060934 5.565408 -2.915230
v 2.803002 5.565408 -3.021737
v 2.874078 5.519240 -3.092986
v 2.695936 5.565408 -3.279406
v 2.796574 5.519240 -3.279521
v 3.247362 5.519240 -3.093389
v 3.318603 5.565408 -3.022296
v 3.324439 5.519240 -3.280113
v 3.425093 5.565408 -3.280220
v 3.246935 5.519240 -3.466656
v 3.318011 5.565408 -3.537913
v 3.060227 5.519240 -3.543741
v 3.060096 5.565408 -3.644395
v 2.873667 5.519240 -3.466228
v 2.802427 5.565408 -3.537329
v 2.796574 5.519240 -3.279521
v 2.695936 5.565408 -3.279406
v 3.476423 5.627219 -3.280277
v 3.354280 5.627219 -3.574248
v 3.503485 5.696650 -3.280310
v 3.373369 5.696650 -3.593394
v 3.523133 5.910799 -3.280335
v 3.387262 5.910799 -3.607303
v 3.060013 5.696650 -3.722771
v 3.059997 5.910799 -3.742427
v 2.746954 5.696650 -3.592679
v 2.733028 5.910799 -3.606564
v 2.617544 5.696650 -3.279324
v 2.597897 5.910799 -3.279299
v 3.388002 5.910799 -2.953062
v 3.374076 5.696650 -2.966938
v 3.061016 5.910799 -2.817199
v 3.061016 5.696650 -2.836854
v 2.733768 5.910799 -2.952330
v 2.747644 5.696650 -2.966248
v 2.597897 5.910799 -3.279299
v 2.617544 5.696650 -3.279324
v 2.766092 5.627219 -3.573574
v 3.060046 5.627219 -3.695725
v 2.644607 5.627219 -3.279356
v 2.766733 5.627219 -2.985402
v 2.644607 5.627219 -3.279356
v 3.060967 5.627219 -2.863900
v 3.354938 5.627219 -2.986043
v 3.061016 6.553227 -2.836854
v 3.060967 6.622626 -2.863900
v 2.766733 6.622626 -2.985402
v 2.747644 6.553227 -2.966248
v 2.644607 6.622626 -3.279356
v 2.617544 6.553227 -3.279324
v 3.374076 6.553227 -2.966938
v 3.354938 6.622626 -2.986043
v 3.503485 6.553227 -3.280310
v 3.476423 6.622626 -3.280277
v 3.373369 6.553227 -3.593394
v 3.354280 6.622626 -3.574248
v 3.060013 6.553227 -3.722771
v 3.060046 6.622626 -3.695725
v 2.746954 6.553227 -3.592679
v 2.766092 6.622626 -3.573574
v 2.617544 6.553227 -3.279324
v 2.644607 6.622626 -3.279356
v 3.425093 6.684412 -3.280220
v 3.318011 6.684412 -3.537913
v 3.060096 6.684412 -3.644395
v 2.802427 6.684412 -3.537329
v 2.695936 6.684412 -3.279406
v 3.318603 6.684412 -3.022296
v 3.060934 6.684412 -2.915238
v 2.803002 6.684412 -3.021737
v 2.695936 6.684412 -3.279406
v 3.324439 6.730572 -3.280113
v 3.246935 6.730572 -3.466656
v 3.060227 6.730572 -3.543741
v 2.873667 6.730572 -3.466228
v 2.796574 6.730572 -3.279521
v 2.796574 6.730572 -3.279521
v 2.874078 6.730572 -3.092986
v 3.060802 6.730572 -3.015884
v 3.247362 6.730572 -3.093389
v 3.060802 6.794496 -3.015884
v 3.060507 6.796732 -3.279817
v 2.874078 6.794496 -3.092986
v 2.796574 6.794496 -3.279521
v 2.873667 6.794496 -3.466228
v 3.060227 6.794496 -3.543741
v 3.246935 6.794496 -3.466656
v 3.324439 6.794496 -3.280113
v 3.247362 6.794496 -3.093389
v 2.874078 5.519240 -3.092986
v 2.874078 5.441415 -3.092986
v 3.060802 5.441415 -3.015884
v 3.060802 5.519240 -3.015876
v 3.247362 5.441415 -3.093389
v 3.247362 5.519240 -3.093389
v 3.324439 5.441415 -3.280113
v 3.324439 5.519240 -3.280113
v 2.796574 5.519240 -3.279521
v 2.796574 5.441415 -3.279521
v 2.873667 5.519240 -3.466228
v 2.873667 5.441415 -3.466228
v 3.060227 5.519240 -3.543741
v 3.060227 5.441415 -3.543741
v 3.246935 5.519240 -3.466656
v 3.246935 5.441415 -3.466656
v 3.324439 5.519240 -3.280113
v 3.324439 5.441415 -3.280113
v 3.060802 6.730572 -3.015884
v 3.060802 6.794496 -3.015884
v 2.874078 6.794496 -3.092986
v 2.874078 6.730572 -3.092986
v 2.796574 6.794496 -3.279521
v 2.796574 6.730572 -3.279521
v 2.873667 6.794496 -3.466228
v 2.873667 6.730572 -3.466228
v 3.060227 6.794496 -3.543741
v 3.060227 6.730572 -3.543741
v 3.246935 6.794496 -3.466656
v 3.246935 6.730572 -3.466656
v 3.324439 6.794496 -3.280113
v 3.324439 6.730572 -3.280113
v 3.247362 6.730572 -3.093389
v 3.247362 6.794496 -3.093389
v 3.324439 6.730572 -3.280113
v 3.324439 6.794496 -3.280113
v 3.059997 6.124939 -3.747121
v 3.059997 6.339087 -3.742427
v 3.387262 6.339087 -3.607303
v 3.390566 6.124939 -3.610625
v 2.729707 6.124939 -3.609885
v 2.733028 6.339087 -3.606564
v 2.593211 6.124939 -3.279291
v 2.597897 6.339087 -3.279299
v 3.523133 6.339087 -3.280335
v 3.527818 6.124939 -3.280343
v 3.388002 6.339087 -2.953062
v 3.391323 6.124939 -2.949741
v 3.061016 6.339087 -2.817199
v 3.061033 6.124939 -2.812505
v 2.733768 6.339087 -2.952330
v 2.730447 6.124939 -2.949017
v 2.597897 6.339087 -3.279299
v 2.593211 6.124939 -3.279291
vt 0.773784 0.627093
vt 0.771684 0.622544
vt 0.768613 0.625172
vt 0.768613 0.628926
vt 0.771684 0.631606
vt 0.775985 0.631606
vt 0.778997 0.628926
vt 0.778997 0.625172
vt 0.775985 0.622544
vt 0.938065 0.500700
vt 0.938065 0.512875
vt 0.968552 0.512875
vt 0.968552 0.500700
vt 0.999038 0.512875
vt 0.999038 0.500700
vt 0.907579 0.500700
vt 0.907579 0.512875
vt 0.877093 0.500700
vt 0.877093 0.512875
vt 0.846607 0.500700
vt 0.846607 0.512875
vt 0.816120 0.500700
vt 0.816120 0.512875
vt 0.785634 0.500700
vt 0.785634 0.512875
vt 0.755148 0.500700
vt 0.755148 0.512875
vt 0.877093 0.520235
vt 0.846607 0.520235
vt 0.877093 0.526542
vt 0.846607 0.526542
vt 0.877093 0.543944
vt 0.846607 0.543944
vt 0.816120 0.526542
vt 0.816120 0.543944
vt 0.785634 0.526542
vt 0.785634 0.543944
vt 0.755148 0.526542
vt 0.755148 0.543944
vt 0.907579 0.543944
vt 0.907579 0.526542
vt 0.938065 0.543944
vt 0.938065 0.526542
vt 0.968552 0.543944
vt 0.968552 0.526542
vt 0.999038 0.543944
vt 0.999038 0.526542
vt 0.785634 0.520235
vt 0.816120 0.520235
vt 0.755148 0.520235
vt 0.968552 0.520235
vt 0.999038 0.520235
vt 0.938065 0.520235
vt 0.907579 0.520235
vt 0.938065 0.595026
vt 0.938065 0.601299
vt 0.968552 0.601299
vt 0.968552 0.595026
vt 0.999038 0.601299
vt 0.999038 0.595026
vt 0.907579 0.595026
vt 0.907579 0.601299
vt 0.877093 0.595026
vt 0.877093 0.601299
vt 0.846607 0.595026
vt 0.846607 0.601299
vt 0.816120 0.595026
vt 0.816120 0.601299
vt 0.785634 0.595026
vt 0.785634 0.601299
vt 0.755148 0.595026
vt 0.755148 0.601299
vt 0.877093 0.608580
vt 0.846607 0.608580
vt 0.816120 0.608580
vt 0.785634 0.608580
vt 0.755148 0.608580
vt 0.907579 0.608580
vt 0.938065 0.608580
vt 0.968552 0.608580
vt 0.999038 0.608580
vt 0.877093 0.620624
vt 0.846607 0.620624
vt 0.816120 0.620624
vt 0.785634 0.620624
vt 0.755148 0.620624
vt 0.999038 0.620624
vt 0.968552 0.620624
vt 0.938065 0.620624
vt 0.907579 0.620624
vt 0.771684 0.622544
vt 0.773784 0.627093
vt 0.775985 0.622544
vt 0.778997 0.625172
vt 0.778997 0.628926
vt 0.775985 0.631606
vt 0.771684 0.631606
vt 0.768613 0.628926
vt 0.768613 0.625172
vt 0.962092 0.631589
vt 0.962092 0.622527
vt 0.876646 0.622527
vt 0.876646 0.631589
vt 0.791200 0.622527
vt 0.791200 0.631589
vt 0.755807 0.622527
vt 0.755807 0.631589
vt 0.997485 0.631589
vt 0.997485 0.622527
vt 0.962092 0.631589
vt 0.962092 0.622527
vt 0.876646 0.631589
vt 0.876646 0.622527
vt 0.791200 0.631589
vt 0.791200 0.622527
vt 0.755807 0.631589
vt 0.755807 0.622527
vt 0.876646 0.622527
vt 0.876646 0.631589
vt 0.962092 0.631589
vt 0.962092 0.622527
vt 0.997485 0.631589
vt 0.997485 0.622527
vt 0.962092 0.631589
vt 0.962092 0.622527
vt 0.876646 0.631589
vt 0.876646 0.622527
vt 0.791200 0.631589
vt 0.791200 0.622527
vt 0.755807 0.631589
vt 0.755807 0.622527
vt 0.791200 0.622527
vt 0.791200 0.631589
vt 0.755807 0.622527
vt 0.755807 0.631589
vt 0.816120 0.560829
vt 0.816120 0.577688
vt 0.846607 0.577688
vt 0.846607 0.560829
vt 0.785634 0.560829
vt 0.785634 0.577688
vt 0.755148 0.560829
vt 0.755148 0.577688
vt 0.877093 0.577688
vt 0.877093 0.560829
vt 0.907579 0.577688
vt 0.907579 0.560829
vt 0.938065 0.577688
vt 0.938065 0.560829
vt 0.968552 0.577688
vt 0.968552 0.560829
vt 0.999038 0.577688
vt 0.999038 0.560829
vn -0.002393 -0.999980 0.005793
vn -0.002393 -0.999980 0.005793
vn -0.002393 -0.999980 0.005793
vn -0.005790 -0.999980 0.002407
vn -0.005795 -0.999980 -0.002395
vn -0.002406 -0.999980 -0.005789
vn 0.002393 -0.999980 -0.005794
vn 0.005790 -0.999980 -0.002407
vn 0.005795 -0.999980 0.002391
vn 0.000433 -0.908935 0.416938
vn 0.000729 -0.772766 0.634690
vn -0.448278 -0.772771 0.449301
vn -0.294518 -0.908922 0.295162
vn -0.634700 -0.772758 0.000713
vn -0.416967 -0.908922 0.000460
vn 0.295150 -0.908942 0.294466
vn 0.449298 -0.772762 0.448296
vn 0.416942 -0.908933 -0.000486
vn 0.634684 -0.772771 -0.000718
vn 0.294496 -0.908937 -0.295138
vn 0.448262 -0.772781 -0.449299
vn -0.000459 -0.908945 -0.416915
vn -0.000744 -0.772772 -0.634684
vn -0.295145 -0.908941 -0.294476
vn -0.449291 -0.772760 -0.448307
vn -0.416967 -0.908922 0.000460
vn -0.634700 -0.772758 0.000713
vn 0.872744 -0.488178 -0.000979
vn 0.616453 -0.488169 -0.617800
vn 0.988071 -0.153993 -0.001115
vn 0.697869 -0.153985 -0.699477
vn 0.998441 -0.055801 -0.001132
vn 0.705214 -0.055804 -0.706795
vn -0.001131 -0.153984 -0.988073
vn -0.001128 -0.055819 -0.998440
vn -0.699438 -0.153996 -0.697905
vn -0.706793 -0.055816 -0.705215
vn -0.988073 -0.153985 0.001099
vn -0.998441 -0.055803 0.001119
vn 0.706796 -0.055810 0.705213
vn 0.699436 -0.153986 0.697910
vn 0.001088 -0.055814 0.998441
vn 0.001128 -0.153986 0.988072
vn -0.705213 -0.055804 0.706796
vn -0.697890 -0.153984 0.699456
vn -0.998441 -0.055803 0.001119
vn -0.988073 -0.153985 0.001099
vn -0.617839 -0.488144 -0.616433
vn -0.000981 -0.488133 -0.872769
vn -0.872745 -0.488175 0.000946
vn -0.616468 -0.488176 0.617779
vn -0.872745 -0.488175 0.000946
vn 0.000893 -0.488156 0.872756
vn 0.617829 -0.488157 0.616433
vn 0.001128 0.154003 0.988070
vn 0.000893 0.488330 0.872659
vn -0.616399 0.488345 0.617715
vn -0.697887 0.154001 0.699455
vn -0.872655 0.488336 0.000945
vn -0.988070 0.154003 0.001099
vn 0.699433 0.154004 0.697909
vn 0.617760 0.488326 0.616368
vn 0.988069 0.154011 -0.001115
vn 0.872654 0.488337 -0.000979
vn 0.697867 0.154003 -0.699475
vn 0.616389 0.488328 -0.617738
vn -0.001131 0.154002 -0.988070
vn -0.000981 0.488292 -0.872680
vn -0.699437 0.154014 -0.697903
vn -0.617776 0.488304 -0.616370
vn -0.988070 0.154003 0.001099
vn -0.872655 0.488336 0.000945
vn 0.634561 0.772873 -0.000719
vn 0.448176 0.772883 -0.449211
vn -0.000743 0.772874 -0.634559
vn -0.449204 0.772862 -0.448219
vn -0.634577 0.772860 0.000713
vn 0.449203 0.772871 0.448205
vn 0.000729 0.772879 0.634553
vn -0.448182 0.772878 0.449212
vn -0.634577 0.772860 0.000713
vn 0.416878 0.908962 -0.000486
vn 0.294451 0.908966 -0.295092
vn -0.000459 0.908973 -0.416854
vn -0.295100 0.908969 -0.294434
vn -0.416903 0.908951 0.000458
vn -0.416903 0.908951 0.000458
vn -0.294466 0.908952 0.295120
vn 0.000433 0.908961 0.416881
vn 0.295098 0.908973 0.294425
vn -0.003500 0.999958 0.008478
vn -0.003500 0.999958 0.008478
vn -0.003500 0.999958 0.008478
vn -0.008469 0.999958 0.003517
vn -0.008477 0.999958 -0.003497
vn -0.003519 0.999958 -0.008469
vn 0.003500 0.999958 -0.008475
vn 0.008469 0.999958 -0.003517
vn 0.008477 0.999958 0.003497
vn -0.706318 -0.000027 0.707894
vn -0.706318 -0.000027 0.707894
vn 0.001079 -0.000054 0.999999
vn 0.001079 -0.000054 0.999999
vn 0.707906 -0.000027 0.706307
vn 0.707906 -0.000027 0.706307
vn 0.999999 0.000000 -0.001145
vn 0.999999 0.000000 -0.001145
vn -0.999999 0.000000 0.001101
vn -0.999999 0.000000 0.001101
vn -0.707867 0.000000 -0.706346
vn -0.707867 0.000000 -0.706346
vn -0.001146 0.000000 -0.999999
vn -0.001146 0.000000 -0.999999
vn 0.706325 0.000000 -0.707888
vn 0.706325 0.000000 -0.707888
vn 0.999999 0.000000 -0.001145
vn 0.999999 0.000000 -0.001145
vn 0.001079 0.000000 0.999999
vn 0.001079 0.000000 0.999999
vn -0.706314 0.000000 0.707899
vn -0.706314 0.000000 0.707899
vn -0.999999 0.000000 0.001101
vn -0.999999 0.000000 0.001101
vn -0.707866 0.000000 -0.706347
vn -0.707866 0.000000 -0.706347
vn -0.001146 0.000000 -0.999999
vn -0.001146 0.000000 -0.999999
vn 0.706323 0.000000 -0.707890
vn 0.706323 0.000000 -0.707890
vn 0.999999 0.000000 -0.001146
vn 0.999999 0.000000 -0.001146
vn 0.707899 0.000000 0.706314
vn 0.707899 0.000000 0.706314
vn 0.999999 0.000000 -0.001146
vn 0.999999 0.000000 -0.001146
vn -0.001119 0.000000 -0.999999
vn -0.001129 0.055819 -0.998440
vn 0.705215 0.055804 -0.706794
vn 0.706307 0.000000 -0.707905
vn -0.707889 0.000000 -0.706324
vn -0.706793 0.055816 -0.705215
vn -0.999999 0.000000 0.001128
vn -0.998441 0.055803 0.001119
vn 0.998441 0.055801 -0.001132
vn 0.999999 0.000000 -0.001141
vn 0.706796 0.055810 0.705212
vn 0.707889 0.000000 0.706323
vn 0.001088 0.055814 0.998441
vn 0.001120 0.000000 0.999999
vn -0.705213 0.055804 0.706795
vn -0.706334 0.000000 0.707878
vn -0.998441 0.055803 0.001119
vn -0.999999 0.000000 0.001128
usemtl material
f 1/0/1 2/0/2 3/0/3
f 1/0/1 3/0/3 4/0/4
f 1/0/1 4/0/4 5/0/5
f 1/0/1 5/0/5 6/0/6
f 1/0/1 6/0/6 7/0/7
f 1/0/1 7/0/7 8/0/8
f 1/0/1 8/0/8 9/0/9
f 1/0/1 9/0/9 2/0/2
f 10/0/10 11/0/11 12/0/12
f 10/0/10 12/0/12 13/0/13
f 13/0/13 12/0/12 14/0/14
f 13/0/13 14/0/14 15/0/15
f 16/0/16 11/0/11 10/0/10
f 16/0/16 17/0/17 11/0/11
f 18/0/18 17/0/17 16/0/16
f 18/0/18 19/0/19 17/0/17
f 20/0/20 19/0/19 18/0/18
f 20/0/20 21/0/21 19/0/19
f 22/0/22 21/0/21 20/0/20
f 22/0/22 23/0/23 21/0/21
f 24/0/24 23/0/23 22/0/22
f 24/0/24 25/0/25 23/0/23
f 26/0/26 25/0/25 24/0/24
f 26/0/26 27/0/27 25/0/25
f 21/0/21 28/0/28 19/0/19
f 21/0/21 29/0/29 28/0/28
f 23/0/23 29/0/29 21/0/21
f 29/0/29 30/0/30 28/0/28
f 29/0/29 31/0/31 30/0/30
f 31/0/31 32/0/32 30/0/30
f 31/0/31 33/0/33 32/0/32
f 34/0/34 33/0/33 31/0/31
f 34/0/34 35/0/35 33/0/33
f 36/0/36 35/0/35 34/0/34
f 36/0/36 37/0/37 35/0/35
f 38/0/38 37/0/37 36/0/36
f 38/0/38 39/0/39 37/0/37
f 30/0/30 32/0/32 40/0/40
f 30/0/30 40/0/40 41/0/41
f 28/0/28 30/0/30 41/0/41
f 41/0/41 40/0/40 42/0/42
f 41/0/41 42/0/42 43/0/43
f 43/0/43 42/0/42 44/0/44
f 43/0/43 44/0/44 45/0/45
f 45/0/45 44/0/44 46/0/46
f 45/0/45 46/0/46 47/0/47
f 48/0/48 36/0/36 34/0/34
f 48/0/48 34/0/34 49/0/49
f 49/0/49 34/0/34 31/0/31
f 49/0/49 31/0/31 29/0/29
f 50/0/50 38/0/38 36/0/36
f 50/0/50 36/0/36 48/0/48
f 51/0/51 45/0/45 47/0/47
f 51/0/51 47/0/47 52/0/52
f 53/0/53 43/0/43 45/0/45
f 53/0/53 45/0/45 51/0/51
f 54/0/54 41/0/41 43/0/43
f 54/0/54 43/0/43 53/0/53
f 28/0/28 41/0/41 54/0/54
f 23/0/23 49/0/49 29/0/29
f 25/0/25 48/0/48 49/0/49
f 25/0/25 49/0/49 23/0/23
f 27/0/27 50/0/50 48/0/48
f 27/0/27 48/0/48 25/0/25
f 12/0/12 51/0/51 52/0/52
f 12/0/12 52/0/52 14/0/14
f 11/0/11 53/0/53 51/0/51
f 11/0/11 51/0/51 12/0/12
f 17/0/17 54/0/54 53/0/53
f 17/0/17 53/0/53 11/0/11
f 19/0/19 28/0/28 54/0/54
f 19/0/19 54/0/54 17/0/17
f 55/0/55 56/0/56 57/0/57
f 55/0/55 57/0/57 58/0/58
f 58/0/58 57/0/57 59/0/59
f 58/0/58 59/0/59 60/0/60
f 61/0/61 56/0/56 55/0/55
f 61/0/61 62/0/62 56/0/56
f 63/0/63 62/0/62 61/0/61
f 63/0/63 64/0/64 62/0/62
f 65/0/65 64/0/64 63/0/63
f 65/0/65 66/0/66 64/0/64
f 67/0/67 66/0/66 65/0/65
f 67/0/67 68/0/68 66/0/66
f 69/0/69 68/0/68 67/0/67
f 69/0/69 70/0/70 68/0/68
f 71/0/71 70/0/70 69/0/69
f 71/0/71 72/0/72 70/0/70
f 66/0/66 73/0/73 64/0/64
f 66/0/66 74/0/74 73/0/73
f 68/0/68 74/0/74 66/0/66
f 68/0/68 75/0/75 74/0/74
f 70/0/70 75/0/75 68/0/68
f 70/0/70 76/0/76 75/0/75
f 72/0/72 76/0/76 70/0/70
f 72/0/72 77/0/77 76/0/76
f 64/0/64 73/0/73 78/0/78
f 64/0/64 78/0/78 62/0/62
f 62/0/62 78/0/78 79/0/79
f 62/0/62 79/0/79 56/0/56
f 56/0/56 79/0/79 80/0/80
f 56/0/56 80/0/80 57/0/57
f 57/0/57 80/0/80 81/0/81
f 57/0/57 81/0/81 59/0/59
f 74/0/74 82/0/82 73/0/73
f 74/0/74 83/0/83 82/0/82
f 75/0/75 83/0/83 74/0/74
f 75/0/75 84/0/84 83/0/83
f 76/0/76 84/0/84 75/0/75
f 76/0/76 85/0/85 84/0/84
f 77/0/77 85/0/85 76/0/76
f 77/0/77 86/0/86 85/0/85
f 80/0/80 87/0/87 81/0/81
f 80/0/80 88/0/88 87/0/87
f 79/0/79 88/0/88 80/0/80
f 79/0/79 89/0/89 88/0/88
f 78/0/78 89/0/89 79/0/79
f 78/0/78 90/0/90 89/0/89
f 73/0/73 82/0/82 90/0/90
f 73/0/73 90/0/90 78/0/78
f 91/0/91 92/0/92 93/0/93
f 93/0/93 92/0/92 94/0/94
f 94/0/94 92/0/92 95/0/95
f 95/0/95 92/0/92 96/0/96
f 96/0/96 92/0/92 97/0/97
f 97/0/97 92/0/92 98/0/98
f 98/0/98 92/0/92 99/0/99
f 99/0/99 92/0/92 91/0/91
f 100/0/100 101/0/101 102/0/102
f 100/0/100 102/0/102 103/0/103
f 103/0/103 102/0/102 104/0/104
f 103/0/103 104/0/104 105/0/105
f 105/0/105 104/0/104 106/0/106
f 105/0/105 106/0/106 107/0/107
f 108/0/108 101/0/101 100/0/100
f 108/0/108 109/0/109 101/0/101
f 110/0/110 109/0/109 108/0/108
f 110/0/110 111/0/111 109/0/109
f 112/0/112 111/0/111 110/0/110
f 112/0/112 113/0/113 111/0/111
f 114/0/114 113/0/113 112/0/112
f 114/0/114 115/0/115 113/0/113
f 116/0/116 115/0/115 114/0/114
f 116/0/116 117/0/117 115/0/115
f 118/0/118 119/0/119 120/0/120
f 118/0/118 120/0/120 121/0/121
f 121/0/121 120/0/120 122/0/122
f 121/0/121 122/0/122 123/0/123
f 123/0/123 122/0/122 124/0/124
f 123/0/123 124/0/124 125/0/125
f 125/0/125 124/0/124 126/0/126
f 125/0/125 126/0/126 127/0/127
f 127/0/127 126/0/126 128/0/128
f 127/0/127 128/0/128 129/0/129
f 129/0/129 128/0/128 130/0/130
f 129/0/129 130/0/130 131/0/131
f 132/0/132 119/0/119 118/0/118
f 132/0/132 133/0/133 119/0/119
f 134/0/134 133/0/133 132/0/132
f 134/0/134 135/0/135 133/0/133
f 136/0/136 137/0/137 138/0/138
f 136/0/136 138/0/138 139/0/139
f 140/0/140 137/0/137 136/0/136
f 140/0/140 141/0/141 137/0/137
f 142/0/142 141/0/141 140/0/140
f 142/0/142 143/0/143 141/0/141
f 139/0/139 138/0/138 144/0/144
f 139/0/139 144/0/144 145/0/145
f 145/0/145 144/0/144 146/0/146
f 145/0/145 146/0/146 147/0/147
f 147/0/147 146/0/146 148/0/148
f 147/0/147 148/0/148 149/0/149
f 149/0/149 148/0/148 150/0/150
f 149/0/149 150/0/150 151/0/151
f 151/0/151 150/0/150 152/0/152
f 151/0/151 152/0/152 153/0/153
f 138/0/138 63/0/63 144/0/144
f 143/0/143 69/0/69 141/0/141
f 141/0/141 69/0/69 67/0/67
f 141/0/141 67/0/67 137/0/137
f 137/0/137 67/0/67 65/0/65
f 138/0/138 65/0/65 63/0/63
f 137/0/137 65/0/65 138/0/138
f 150/0/150 60/0/60 152/0/152
f 150/0/150 58/0/58 60/0/60
f 148/0/148 58/0/58 150/0/150
f 148/0/148 55/0/55 58/0/58
f 146/0/146 55/0/55 148/0/148
f 146/0/146 61/0/61 55/0/55
f 144/0/144 63/0/63 61/0/61
f 144/0/144 61/0/61 146/0/146
f 44/0/44 151/0/151 153/0/153
f 44/0/44 153/0/153 46/0/46
f 143/0/143 71/0/71 69/0/69
f 42/0/42 151/0/151 44/0/44
f 42/0/42 149/0/149 151/0/151
f 40/0/40 149/0/149 42/0/42
f 40/0/40 147/0/147 149/0/149
f 32/0/32 147/0/147 40/0/40
f 32/0/32 145/0/145 147/0/147
f 33/0/33 145/0/145 32/0/32
f 33/0/33 139/0/139 145/0/145
f 35/0/35 139/0/139 33/0/33
f 35/0/35 136/0/136 139/0/139
f 37/0/37 136/0/136 35/0/35
f 37/0/37 140/0/140 136/0/136
f 39/0/39 140/0/140 37/0/37
f 39/0/39 142/0/142 140/0/140
