# 
# Wavefront OBJ file
# Created with Kaydara FBX
# 
mtllib platform_blktek.mtl

g Platform_Blktek
v 4.074427 -7.873048 4.074427
v 4.483543 -5.385840 4.483543
v 2.426478 -5.385840 5.858031
v 2.205064 -7.873048 5.323493
v 0.000002 -5.385840 6.340688
v 0.000001 -7.873048 5.762108
v -2.426476 -5.385840 5.858033
v -2.205062 -7.873048 5.323493
v -4.483544 -5.385840 4.483543
v -4.074427 -7.873048 4.074426
v -5.858033 -5.385840 2.426475
v -5.323494 -7.873048 2.205061
v -6.340688 -5.385840 -0.000003
v -5.762108 -7.873048 -0.000002
v -5.858030 -5.385840 -2.426480
v -5.323492 -7.873048 -2.205066
v -4.483543 -5.385840 -4.483543
v -4.074427 -7.873048 -4.074428
v 2.973694 -2.439710 7.179128
v 0.000002 -2.439711 7.770633
v 0.000002 0.298462 11.222878
v 4.294811 0.298462 10.368587
v 5.494667 -2.439710 5.494668
v 7.935772 0.298462 7.935774
v -4.294807 0.298462 10.368588
v -2.973691 -2.439711 7.179130
v -7.935776 0.298462 7.935775
v -5.494668 -2.439710 5.494667
v -10.368588 0.298462 4.294807
v -7.179129 -2.439711 2.973691
v -11.222880 0.298462 -0.000005
v -7.770633 -2.439711 -0.000004
v -10.368584 0.298462 -4.294815
v -7.179126 -2.439710 -2.973697
v -7.935772 0.298462 -7.935774
v -5.494667 -2.439710 -5.494668
v -5.077853 -9.223974 2.103313
v -3.886420 -9.223974 3.886420
v -5.496228 -9.223974 -0.000003
v -5.077851 -9.223974 -2.103319
v -3.886420 -9.223974 -3.886421
v -2.205062 -7.873048 5.323493
v 0.000000 -7.873048 0.000000
v 0.000001 -7.873048 5.762108
v 2.205064 -7.873048 5.323493
v 4.074427 -7.873048 4.074427
v -4.074427 -7.873048 4.074426
v 0.000000 -9.223974 0.000000
v -3.886420 -9.223974 3.886420
v -5.077853 -9.223974 2.103313
v -5.496228 -9.223974 -0.000003
v -5.077851 -9.223974 -2.103319
v -3.886420 -9.223974 -3.886421
v 4.074427 -7.873048 4.074427
v 5.323493 -7.873048 2.205064
v 5.858030 -5.385840 2.426479
v 4.483543 -5.385840 4.483543
v 6.340688 -5.385840 0.000003
v 5.762108 -7.873048 0.000002
v 5.858033 -5.385840 -2.426475
v 5.323494 -7.873048 -2.205062
v 4.483544 -5.385840 -4.483543
v 4.074427 -7.873048 -4.074427
v 2.426476 -5.385840 -5.858032
v 2.205062 -7.873048 -5.323493
v -0.000003 -5.385840 -6.340688
v -0.000001 -7.873048 -5.762108
v -2.426479 -5.385840 -5.858030
v -2.205065 -7.873048 -5.323492
v -4.483543 -5.385840 -4.483543
v -4.074427 -7.873048 -4.074428
v 5.494667 -2.439710 5.494668
v 7.770633 -2.439711 0.000003
v 7.179128 -2.439710 2.973695
v 10.368587 0.298462 4.294812
v 7.935772 0.298462 7.935774
v 11.222878 0.298462 0.000004
v 10.368588 0.298462 -4.294806
v 7.179130 -2.439711 -2.973690
v 7.935776 0.298462 -7.935775
v 5.494668 -2.439710 -5.494667
v 4.294808 0.298462 -10.368588
v 2.973691 -2.439711 -7.179129
v -0.000004 0.298462 -11.222879
v -0.000003 -2.439711 -7.770633
v -4.294814 0.298462 -10.368585
v -2.973696 -2.439710 -7.179127
v -7.935772 0.298462 -7.935774
v -5.494667 -2.439710 -5.494668
v 3.886420 -9.223974 -3.886420
v 2.103314 -9.223974 -5.077853
v -0.000002 -9.223974 -5.496229
v -2.103318 -9.223974 -5.077851
v -3.886420 -9.223974 -3.886421
v 5.323494 -7.873048 -2.205062
v 5.762108 -7.873048 0.000002
v 0.000000 -7.873048 0.000000
v 5.323493 -7.873048 2.205064
v 4.074427 -7.873048 4.074427
v 4.074427 -7.873048 -4.074427
v 0.000000 -9.223974 0.000000
v 3.886420 -9.223974 -3.886420
v 2.103314 -9.223974 -5.077853
v -0.000002 -9.223974 -5.496229
v -2.103318 -9.223974 -5.077851
v -3.886420 -9.223974 -3.886421
vt 0.701687 0.621576
vt 0.681658 0.646176
vt 0.706213 0.666132
vt 0.723714 0.638707
vt 0.733979 0.681938
vt 0.746719 0.652044
vt 0.764592 0.691963
vt 0.771059 0.660331
vt 0.796936 0.695176
vt 0.795958 0.663280
vt 0.829460 0.691325
vt 0.822739 0.659217
vt 0.860775 0.681771
vt 0.849245 0.651007
vt 0.889681 0.667194
vt 0.874351 0.638488
vt 0.915571 0.648794
vt 0.898223 0.623087
vt 0.682265 0.700550
vt 0.717213 0.720376
vt 0.693957 0.771583
vt 0.647557 0.744841
vt 0.653387 0.674146
vt 0.608688 0.706193
vt 0.744299 0.787549
vt 0.756040 0.732695
vt 0.796461 0.792862
vt 0.796785 0.736777
vt 0.848414 0.787805
vt 0.837522 0.732642
vt 0.898568 0.772945
vt 0.876571 0.721045
vt 0.945494 0.747995
vt 0.912241 0.702584
vt 0.985678 0.710935
vt 0.942220 0.677497
vt 0.818475 0.642068
vt 0.792390 0.646666
vt 0.842928 0.634595
vt 0.866144 0.623045
vt 0.888803 0.608666
vt 0.034637 0.153463
vt 0.007281 0.142130
vt 0.028219 0.163068
vt 0.018613 0.169486
vt 0.007281 0.171740
vt 0.036891 0.142132
vt 0.007282 0.135189
vt 0.035526 0.135190
vt 0.033376 0.124381
vt 0.027253 0.115218
vt 0.018090 0.109094
vt 0.007282 0.106944
vt 0.701687 0.621576
vt 0.723714 0.638707
vt 0.706213 0.666132
vt 0.681658 0.646176
vt 0.733979 0.681938
vt 0.746719 0.652044
vt 0.764592 0.691963
vt 0.771059 0.660331
vt 0.796936 0.695176
vt 0.795958 0.663280
vt 0.829460 0.691325
vt 0.822739 0.659217
vt 0.860775 0.681771
vt 0.849245 0.651007
vt 0.889681 0.667194
vt 0.874351 0.638488
vt 0.915571 0.648794
vt 0.898223 0.623087
vt 0.653387 0.674146
vt 0.717213 0.720376
vt 0.682265 0.700550
vt 0.647557 0.744841
vt 0.608688 0.706193
vt 0.693957 0.771583
vt 0.744299 0.787549
vt 0.756040 0.732695
vt 0.796461 0.792862
vt 0.796785 0.736777
vt 0.848414 0.787805
vt 0.837522 0.732642
vt 0.898568 0.772945
vt 0.876571 0.721045
vt 0.945494 0.747995
vt 0.912241 0.702584
vt 0.985678 0.710935
vt 0.942220 0.677497
vt 0.792390 0.646666
vt 0.818475 0.642068
vt 0.842928 0.634595
vt 0.866144 0.623045
vt 0.888803 0.608666
vt 0.034637 0.153463
vt 0.028219 0.163068
vt 0.007281 0.142130
vt 0.018613 0.169486
vt 0.007281 0.171740
vt 0.036891 0.142132
vt 0.007282 0.135189
vt 0.035526 0.135190
vt 0.033376 0.124381
vt 0.027253 0.115218
vt 0.018090 0.109094
vt 0.007282 0.106944
vn 0.459127 -0.760529 0.459127
vn 0.660068 -0.358638 0.660068
vn 0.357226 -0.358638 0.862420
vn 0.248477 -0.760530 0.599878
vn 0.000000 -0.358639 0.933477
vn 0.000000 -0.760530 0.649303
vn -0.357226 -0.358638 0.862420
vn -0.248477 -0.760529 0.599878
vn -0.660068 -0.358638 0.660068
vn -0.333404 -0.487297 0.807084
vn -0.862420 -0.358638 0.357226
vn -0.902109 -0.215807 0.373666
vn -0.933477 -0.358639 -0.000001
vn -0.976436 -0.215807 -0.000000
vn -0.862420 -0.358638 -0.357226
vn -0.902109 -0.215806 -0.373666
vn -0.660068 -0.358638 -0.660068
vn -0.690445 -0.215806 -0.690445
vn 0.278202 -0.686663 0.671638
vn 0.000000 -0.686663 0.726976
vn 0.000000 -0.783477 0.621420
vn 0.237807 -0.783477 0.574118
vn 0.514050 -0.686663 0.514050
vn 0.439411 -0.783477 0.439411
vn -0.237807 -0.783477 0.574118
vn -0.278202 -0.686663 0.671638
vn -0.439410 -0.783477 0.439410
vn -0.514050 -0.686663 0.514050
vn -0.574117 -0.783477 0.237807
vn -0.671638 -0.686663 0.278202
vn -0.621420 -0.783477 -0.000000
vn -0.726976 -0.686663 -0.000000
vn -0.574117 -0.783477 -0.237808
vn -0.671638 -0.686663 -0.278202
vn -0.439411 -0.783477 -0.439411
vn -0.514050 -0.686663 -0.514050
vn -0.431355 -0.884312 0.178673
vn 0.344824 -0.553504 0.758109
vn -0.466896 -0.884312 0.000000
vn -0.431355 -0.884313 -0.178673
vn -0.330145 -0.884312 -0.330145
vn -0.248477 -0.760529 0.599878
vn 0.542661 -0.641122 0.542662
vn 0.000000 -0.760530 0.649303
vn 0.248477 -0.760530 0.599878
vn 0.459127 -0.760529 0.459127
vn -0.333404 -0.487297 0.807084
vn 0.562948 -0.605127 0.562948
vn 0.344824 -0.553504 0.758109
vn -0.431355 -0.884312 0.178673
vn -0.466896 -0.884312 0.000000
vn -0.431355 -0.884313 -0.178673
vn -0.330145 -0.884312 -0.330145
vn 0.459127 -0.760529 0.459127
vn 0.599878 -0.760530 0.248478
vn 0.862420 -0.358638 0.357226
vn 0.660068 -0.358638 0.660068
vn 0.933476 -0.358639 0.000000
vn 0.649303 -0.760529 0.000000
vn 0.862420 -0.358638 -0.357226
vn 0.599878 -0.760530 -0.248477
vn 0.660068 -0.358638 -0.660068
vn 0.807084 -0.487297 -0.333404
vn 0.357226 -0.358638 -0.862420
vn 0.373666 -0.215807 -0.902109
vn -0.000000 -0.358639 -0.933476
vn -0.000000 -0.215807 -0.976436
vn -0.357226 -0.358638 -0.862420
vn -0.373666 -0.215806 -0.902110
vn -0.660068 -0.358638 -0.660068
vn -0.690445 -0.215806 -0.690445
vn 0.514050 -0.686663 0.514050
vn 0.726976 -0.686663 0.000000
vn 0.671638 -0.686663 0.278202
vn 0.574117 -0.783477 0.237807
vn 0.439411 -0.783477 0.439411
vn 0.621420 -0.783477 0.000000
vn 0.574118 -0.783477 -0.237807
vn 0.671638 -0.686663 -0.278201
vn 0.439410 -0.783478 -0.439410
vn 0.514050 -0.686663 -0.514050
vn 0.237807 -0.783477 -0.574117
vn 0.278202 -0.686663 -0.671638
vn -0.000000 -0.783477 -0.621420
vn -0.000000 -0.686663 -0.726976
vn -0.237807 -0.783477 -0.574118
vn -0.278202 -0.686663 -0.671638
vn -0.439411 -0.783477 -0.439411
vn -0.514050 -0.686663 -0.514050
vn 0.758109 -0.553504 0.344825
vn 0.178673 -0.884313 -0.431355
vn -0.000000 -0.884312 -0.466896
vn -0.178673 -0.884312 -0.431355
vn -0.330145 -0.884312 -0.330145
vn 0.599878 -0.760530 -0.248477
vn 0.649303 -0.760529 0.000000
vn 0.542661 -0.641122 0.542662
vn 0.599878 -0.760530 0.248478
vn 0.459127 -0.760529 0.459127
vn 0.807084 -0.487297 -0.333404
vn 0.562948 -0.605127 0.562948
vn 0.758109 -0.553504 0.344825
vn 0.178673 -0.884313 -0.431355
vn -0.000000 -0.884312 -0.466896
vn -0.178673 -0.884312 -0.431355
vn -0.330145 -0.884312 -0.330145
usemtl material
f 1/0/1 2/0/2 3/0/3
f 1/0/1 3/0/3 4/0/4
f 4/0/4 3/0/3 5/0/5
f 4/0/4 5/0/5 6/0/6
f 6/0/6 5/0/5 7/0/7
f 6/0/6 7/0/7 8/0/8
f 8/0/8 7/0/7 9/0/9
f 8/0/8 9/0/9 10/0/10
f 10/0/10 9/0/9 11/0/11
f 10/0/10 11/0/11 12/0/12
f 12/0/12 11/0/11 13/0/13
f 12/0/12 13/0/13 14/0/14
f 14/0/14 13/0/13 15/0/15
f 14/0/14 15/0/15 16/0/16
f 16/0/16 15/0/15 17/0/17
f 16/0/16 17/0/17 18/0/18
f 5/0/5 3/0/3 19/0/19
f 5/0/5 19/0/19 20/0/20
f 7/0/7 5/0/5 20/0/20
f 19/0/19 21/0/21 20/0/20
f 19/0/19 22/0/22 21/0/21
f 23/0/23 22/0/22 19/0/19
f 23/0/23 24/0/24 22/0/22
f 20/0/20 21/0/21 25/0/25
f 20/0/20 25/0/25 26/0/26
f 26/0/26 25/0/25 27/0/27
f 26/0/26 27/0/27 28/0/28
f 28/0/28 27/0/27 29/0/29
f 28/0/28 29/0/29 30/0/30
f 30/0/30 29/0/29 31/0/31
f 30/0/30 31/0/31 32/0/32
f 32/0/32 31/0/31 33/0/33
f 32/0/32 33/0/33 34/0/34
f 34/0/34 33/0/33 35/0/35
f 34/0/34 35/0/35 36/0/36
f 9/0/9 26/0/26 28/0/28
f 9/0/9 7/0/7 26/0/26
f 7/0/7 20/0/20 26/0/26
f 11/0/11 9/0/9 28/0/28
f 11/0/11 28/0/28 30/0/30
f 13/0/13 11/0/11 30/0/30
f 13/0/13 30/0/30 32/0/32
f 15/0/15 13/0/13 32/0/32
f 15/0/15 32/0/32 34/0/34
f 17/0/17 15/0/15 34/0/34
f 17/0/17 34/0/34 36/0/36
f 3/0/3 2/0/2 23/0/23
f 3/0/3 23/0/23 19/0/19
f 12/0/12 37/0/37 38/0/38
f 12/0/12 38/0/38 10/0/10
f 14/0/14 37/0/37 12/0/12
f 14/0/14 39/0/39 37/0/37
f 16/0/16 39/0/39 14/0/14
f 16/0/16 40/0/40 39/0/39
f 18/0/18 40/0/40 16/0/16
f 18/0/18 41/0/41 40/0/40
f 42/0/42 43/0/43 44/0/44
f 44/0/44 43/0/43 45/0/45
f 45/0/45 43/0/43 46/0/46
f 43/0/43 42/0/42 47/0/47
f 48/0/48 43/0/43 47/0/47
f 48/0/48 47/0/47 49/0/49
f 48/0/48 49/0/49 50/0/50
f 48/0/48 50/0/50 51/0/51
f 48/0/48 51/0/51 52/0/52
f 53/0/53 48/0/48 52/0/52
f 54/0/54 55/0/55 56/0/56
f 54/0/54 56/0/56 57/0/57
f 55/0/55 58/0/58 56/0/56
f 55/0/55 59/0/59 58/0/58
f 59/0/59 60/0/60 58/0/58
f 59/0/59 61/0/61 60/0/60
f 61/0/61 62/0/62 60/0/60
f 61/0/61 63/0/63 62/0/62
f 63/0/63 64/0/64 62/0/62
f 63/0/63 65/0/65 64/0/64
f 65/0/65 66/0/66 64/0/64
f 65/0/65 67/0/67 66/0/66
f 67/0/67 68/0/68 66/0/66
f 67/0/67 69/0/69 68/0/68
f 69/0/69 70/0/70 68/0/68
f 69/0/69 71/0/71 70/0/70
f 56/0/56 72/0/72 57/0/57
f 60/0/60 73/0/73 58/0/58
f 58/0/58 73/0/73 74/0/74
f 72/0/72 74/0/74 75/0/75
f 72/0/72 75/0/75 76/0/76
f 74/0/74 73/0/73 77/0/77
f 74/0/74 77/0/77 75/0/75
f 73/0/73 78/0/78 77/0/77
f 73/0/73 79/0/79 78/0/78
f 79/0/79 80/0/80 78/0/78
f 79/0/79 81/0/81 80/0/80
f 81/0/81 82/0/82 80/0/80
f 81/0/81 83/0/83 82/0/82
f 83/0/83 84/0/84 82/0/82
f 83/0/83 85/0/85 84/0/84
f 85/0/85 86/0/86 84/0/84
f 85/0/85 87/0/87 86/0/86
f 87/0/87 88/0/88 86/0/86
f 87/0/87 89/0/89 88/0/88
f 62/0/62 81/0/81 79/0/79
f 62/0/62 79/0/79 60/0/60
f 60/0/60 79/0/79 73/0/73
f 64/0/64 83/0/83 81/0/81
f 64/0/64 81/0/81 62/0/62
f 66/0/66 85/0/85 83/0/83
f 66/0/66 83/0/83 64/0/64
f 68/0/68 87/0/87 85/0/85
f 68/0/68 85/0/85 66/0/66
f 70/0/70 89/0/89 87/0/87
f 70/0/70 87/0/87 68/0/68
f 56/0/56 74/0/74 72/0/72
f 58/0/58 74/0/74 56/0/56
f 65/0/65 63/0/63 90/0/90
f 65/0/65 90/0/90 91/0/91
f 67/0/67 65/0/65 91/0/91
f 67/0/67 91/0/91 92/0/92
f 69/0/69 67/0/67 92/0/92
f 69/0/69 92/0/92 93/0/93
f 71/0/71 69/0/69 93/0/93
f 71/0/71 93/0/93 94/0/94
f 95/0/95 96/0/96 97/0/97
f 96/0/96 98/0/98 97/0/97
f 98/0/98 99/0/99 97/0/97
f 97/0/97 100/0/100 95/0/95
f 101/0/101 100/0/100 97/0/97
f 101/0/101 102/0/102 100/0/100
f 101/0/101 103/0/103 102/0/102
f 101/0/101 104/0/104 103/0/103
f 101/0/101 105/0/105 104/0/104
f 106/0/106 105/0/105 101/0/101
