# 
# Wavefront OBJ file
# Created with Kaydara FBX
# 
mtllib poly03.mtl

g Poly03
v -1.960029 -0.636851 1.878597
v -1.960029 -0.636851 2.580694
v -2.060896 0.000001 2.580688
v -2.060896 0.000001 1.878592
v -1.960029 0.636849 2.580699
v -1.960029 0.636849 1.878592
v -1.667302 1.211362 2.580700
v -1.667302 1.211362 1.878591
v -1.211367 1.667298 2.580699
v -1.211367 1.667298 1.878592
v -0.636853 1.960027 2.580698
v -0.636853 1.960027 1.878592
v 0.000000 2.060895 2.580700
v 0.000000 2.060895 1.878593
v 0.636848 1.960028 2.580699
v 0.636848 1.960029 1.878593
v -1.667300 -1.211364 1.878597
v -1.211365 -1.667299 1.878596
v -1.667300 -1.211364 2.580694
v -1.211365 -1.667300 2.580693
v -0.636851 -1.960028 1.878592
v -0.636851 -1.960028 2.580694
v 0.636848 1.960029 1.878593
v 0.636848 1.960028 2.580699
v 1.211362 1.667300 2.580698
v 1.211362 1.667300 1.878592
v 1.667300 1.211365 2.580699
v 1.667300 1.211365 1.878592
v 1.960029 0.636853 2.580698
v 1.960029 0.636853 1.878591
v 2.060894 0.000001 2.580689
v 2.060894 0.000001 1.878592
v 1.960029 -0.636851 2.580694
v 1.960029 -0.636851 1.878598
v 1.667300 -1.211364 2.580694
v 1.667300 -1.211364 1.878597
v 1.211362 -1.667300 2.580693
v 1.211362 -1.667299 1.878596
v 0.636851 -1.960028 2.580694
v 0.636851 -1.960028 1.878598
v 0.000000 -2.060896 2.580688
v 0.000000 -2.060895 1.878592
v -0.636851 -1.960028 2.580694
v -0.636851 -1.960028 1.878592
v -1.960029 -0.636851 -2.580694
v -1.960029 -0.636852 -1.878595
v -2.060896 0.000000 -1.878601
v -2.060896 0.000000 -2.580700
v -1.960029 0.636849 -1.878596
v -1.960029 0.636849 -2.580695
v -1.667302 1.211362 -1.878594
v -1.667302 1.211362 -2.580694
v -1.211367 1.667298 -1.878600
v -1.211367 1.667299 -2.580694
v -0.636853 1.960028 -1.878600
v -0.636853 1.960028 -2.580699
v 0.000000 2.060895 -1.878599
v 0.000000 2.060896 -2.580696
v 0.636848 1.960029 -1.878594
v 0.636848 1.960029 -2.580696
v -1.667300 -1.211364 -2.580699
v -1.211365 -1.667299 -2.580699
v -1.667300 -1.211364 -1.878600
v -1.211365 -1.667299 -1.878601
v -0.636851 -1.960027 -2.580694
v -0.636851 -1.960028 -1.878595
v 0.636848 1.960029 -2.580696
v 0.636848 1.960029 -1.878594
v 1.211362 1.667301 -1.878605
v 1.211362 1.667301 -2.580695
v 1.667300 1.211365 -1.878596
v 1.667300 1.211365 -2.580695
v 1.960029 0.636853 -1.878596
v 1.960029 0.636853 -2.580696
v 2.060894 0.000001 -1.878595
v 2.060894 0.000001 -2.580700
v 1.960029 -0.636851 -1.878595
v 1.960029 -0.636851 -2.580694
v 1.667300 -1.211364 -1.878600
v 1.667300 -1.211364 -2.580699
v 1.211362 -1.667299 -1.878601
v 1.211362 -1.667299 -2.580699
v 0.636851 -1.960028 -1.878595
v 0.636851 -1.960027 -2.580694
v 0.000000 -2.060895 -1.878596
v 0.000000 -2.060895 -2.580694
v -0.636851 -1.960028 -1.878595
v -0.636851 -1.960027 -2.580694
vt 0.118195 0.442548
vt 0.118195 0.489570
vt 0.143394 0.489570
vt 0.143394 0.442548
vt 0.168592 0.489570
vt 0.168592 0.442548
vt 0.193790 0.489570
vt 0.193790 0.442548
vt 0.218989 0.489570
vt 0.218989 0.442548
vt 0.244187 0.489570
vt 0.244187 0.442548
vt 0.269385 0.489570
vt 0.269385 0.442548
vt 0.294584 0.489570
vt 0.294584 0.442548
vt 0.092997 0.442548
vt 0.067798 0.442548
vt 0.092997 0.489570
vt 0.067798 0.489570
vt 0.042600 0.442548
vt 0.042600 0.489570
vt 0.042600 0.442548
vt 0.042600 0.489570
vt 0.067798 0.489570
vt 0.067798 0.442548
vt 0.092997 0.489570
vt 0.092997 0.442548
vt 0.118195 0.489570
vt 0.118195 0.442548
vt 0.143394 0.489570
vt 0.143394 0.442548
vt 0.168592 0.489570
vt 0.168592 0.442548
vt 0.193790 0.489570
vt 0.193790 0.442548
vt 0.218989 0.489570
vt 0.218989 0.442548
vt 0.244187 0.489570
vt 0.244187 0.442548
vt 0.269385 0.489570
vt 0.269385 0.442548
vt 0.294584 0.489570
vt 0.294584 0.442548
vt 0.118195 0.489570
vt 0.118195 0.442548
vt 0.143394 0.442548
vt 0.143394 0.489570
vt 0.168592 0.442548
vt 0.168592 0.489570
vt 0.193790 0.442548
vt 0.193790 0.489570
vt 0.218989 0.442548
vt 0.218989 0.489570
vt 0.244187 0.442548
vt 0.244187 0.489570
vt 0.269385 0.442548
vt 0.269385 0.489570
vt 0.294584 0.442548
vt 0.294584 0.489570
vt 0.092997 0.489570
vt 0.067798 0.489570
vt 0.092997 0.442548
vt 0.067798 0.442549
vt 0.042600 0.489570
vt 0.042600 0.442549
vt 0.042600 0.489570
vt 0.042600 0.442548
vt 0.067798 0.442548
vt 0.067798 0.489570
vt 0.092997 0.442548
vt 0.092997 0.489570
vt 0.118195 0.442548
vt 0.118195 0.489570
vt 0.143394 0.442548
vt 0.143394 0.489570
vt 0.168592 0.442548
vt 0.168592 0.489570
vt 0.193790 0.442548
vt 0.193790 0.489570
vt 0.218989 0.442549
vt 0.218989 0.489570
vt 0.244187 0.442549
vt 0.244187 0.489570
vt 0.269385 0.442549
vt 0.269385 0.489570
vt 0.294584 0.442549
vt 0.294584 0.489570
vn -0.951057 -0.309017 0.000000
vn -0.951056 -0.309017 0.000000
vn -1.000000 0.000001 0.000000
vn -1.000000 0.000001 0.000000
vn -0.951057 0.309016 0.000000
vn -0.951057 0.309016 0.000000
vn -0.809018 0.587784 0.000000
vn -0.809018 0.587784 0.000000
vn -0.587786 0.809017 0.000000
vn -0.587786 0.809017 0.000000
vn -0.309017 0.951056 0.000000
vn -0.309017 0.951056 0.000000
vn -0.000000 1.000000 0.000000
vn -0.000000 1.000000 0.000000
vn 0.309016 0.951057 0.000001
vn 0.309016 0.951057 0.000001
vn -0.809017 -0.587785 -0.000000
vn -0.587785 -0.809017 -0.000000
vn -0.809017 -0.587785 -0.000000
vn -0.587785 -0.809017 -0.000000
vn -0.309016 -0.951057 -0.000001
vn -0.309017 -0.951057 -0.000001
vn 0.309016 0.951057 0.000001
vn 0.309016 0.951057 0.000001
vn 0.587783 0.809018 0.000001
vn 0.587783 0.809018 0.000001
vn 0.809016 0.587787 0.000000
vn 0.809016 0.587787 0.000000
vn 0.951057 0.309016 0.000000
vn 0.951057 0.309015 0.000000
vn 1.000000 0.000000 0.000000
vn 1.000000 0.000000 0.000000
vn 0.951057 -0.309016 0.000000
vn 0.951057 -0.309015 0.000000
vn 0.809016 -0.587786 -0.000000
vn 0.809016 -0.587786 -0.000000
vn 0.587785 -0.809018 -0.000001
vn 0.587785 -0.809017 -0.000001
vn 0.309018 -0.951056 -0.000001
vn 0.309017 -0.951057 -0.000001
vn 0.000000 -1.000000 -0.000001
vn -0.000000 -1.000000 -0.000001
vn -0.309017 -0.951057 -0.000001
vn -0.309016 -0.951057 -0.000001
vn -0.951056 -0.309017 0.000000
vn -0.951056 -0.309017 0.000000
vn -1.000000 0.000000 0.000000
vn -1.000000 0.000000 0.000000
vn -0.951057 0.309016 0.000000
vn -0.951057 0.309015 0.000000
vn -0.809018 0.587783 0.000000
vn -0.809018 0.587784 0.000000
vn -0.587786 0.809016 0.000001
vn -0.587785 0.809017 0.000001
vn -0.309017 0.951056 0.000001
vn -0.309017 0.951056 0.000001
vn 0.000000 1.000000 0.000001
vn -0.000001 1.000000 0.000001
vn 0.309016 0.951057 0.000001
vn 0.309016 0.951057 0.000001
vn -0.809017 -0.587786 -0.000000
vn -0.587785 -0.809017 -0.000001
vn -0.809017 -0.587785 -0.000000
vn -0.587785 -0.809017 -0.000001
vn -0.309017 -0.951057 -0.000001
vn -0.309016 -0.951057 -0.000001
vn 0.309016 0.951057 0.000001
vn 0.309016 0.951057 0.000001
vn 0.587784 0.809018 0.000000
vn 0.587784 0.809018 0.000000
vn 0.809016 0.587786 0.000000
vn 0.809016 0.587787 0.000000
vn 0.951057 0.309015 0.000000
vn 0.951057 0.309015 0.000000
vn 1.000000 0.000000 0.000000
vn 1.000000 0.000000 0.000000
vn 0.951057 -0.309015 0.000000
vn 0.951057 -0.309015 0.000000
vn 0.809016 -0.587786 -0.000000
vn 0.809016 -0.587787 -0.000000
vn 0.587784 -0.809018 -0.000001
vn 0.587785 -0.809017 -0.000001
vn 0.309017 -0.951057 -0.000001
vn 0.309018 -0.951056 -0.000001
vn 0.000000 -1.000000 -0.000001
vn 0.000000 -1.000000 -0.000001
vn -0.309016 -0.951057 -0.000001
vn -0.309017 -0.951057 -0.000001
usemtl material
f 1/0/1 2/0/2 3/0/3
f 1/0/1 3/0/3 4/0/4
f 4/0/4 3/0/3 5/0/5
f 4/0/4 5/0/5 6/0/6
f 6/0/6 5/0/5 7/0/7
f 6/0/6 7/0/7 8/0/8
f 8/0/8 7/0/7 9/0/9
f 8/0/8 9/0/9 10/0/10
f 10/0/10 9/0/9 11/0/11
f 10/0/10 11/0/11 12/0/12
f 12/0/12 11/0/11 13/0/13
f 12/0/12 13/0/13 14/0/14
f 14/0/14 13/0/13 15/0/15
f 14/0/14 15/0/15 16/0/16
f 17/0/17 2/0/2 1/0/1
f 18/0/18 19/0/19 17/0/17
f 18/0/18 20/0/20 19/0/19
f 21/0/21 20/0/20 18/0/18
f 21/0/21 22/0/22 20/0/20
f 17/0/17 19/0/19 2/0/2
f 23/0/23 24/0/24 25/0/25
f 23/0/23 25/0/25 26/0/26
f 26/0/26 25/0/25 27/0/27
f 26/0/26 27/0/27 28/0/28
f 28/0/28 27/0/27 29/0/29
f 28/0/28 29/0/29 30/0/30
f 30/0/30 29/0/29 31/0/31
f 30/0/30 31/0/31 32/0/32
f 32/0/32 31/0/31 33/0/33
f 32/0/32 33/0/33 34/0/34
f 34/0/34 33/0/33 35/0/35
f 34/0/34 35/0/35 36/0/36
f 36/0/36 35/0/35 37/0/37
f 36/0/36 37/0/37 38/0/38
f 38/0/38 37/0/37 39/0/39
f 38/0/38 39/0/39 40/0/40
f 40/0/40 39/0/39 41/0/41
f 40/0/40 41/0/41 42/0/42
f 42/0/42 41/0/41 43/0/43
f 42/0/42 43/0/43 44/0/44
f 45/0/45 46/0/46 47/0/47
f 45/0/45 47/0/47 48/0/48
f 48/0/48 47/0/47 49/0/49
f 48/0/48 49/0/49 50/0/50
f 50/0/50 49/0/49 51/0/51
f 50/0/50 51/0/51 52/0/52
f 52/0/52 51/0/51 53/0/53
f 52/0/52 53/0/53 54/0/54
f 54/0/54 53/0/53 55/0/55
f 54/0/54 55/0/55 56/0/56
f 56/0/56 55/0/55 57/0/57
f 56/0/56 57/0/57 58/0/58
f 58/0/58 57/0/57 59/0/59
f 58/0/58 59/0/59 60/0/60
f 61/0/61 46/0/46 45/0/45
f 62/0/62 63/0/63 61/0/61
f 62/0/62 64/0/64 63/0/63
f 65/0/65 64/0/64 62/0/62
f 65/0/65 66/0/66 64/0/64
f 61/0/61 63/0/63 46/0/46
f 67/0/67 68/0/68 69/0/69
f 67/0/67 69/0/69 70/0/70
f 70/0/70 69/0/69 71/0/71
f 70/0/70 71/0/71 72/0/72
f 72/0/72 71/0/71 73/0/73
f 72/0/72 73/0/73 74/0/74
f 74/0/74 73/0/73 75/0/75
f 74/0/74 75/0/75 76/0/76
f 76/0/76 75/0/75 77/0/77
f 76/0/76 77/0/77 78/0/78
f 78/0/78 77/0/77 79/0/79
f 78/0/78 79/0/79 80/0/80
f 80/0/80 79/0/79 81/0/81
f 80/0/80 81/0/81 82/0/82
f 82/0/82 81/0/81 83/0/83
f 82/0/82 83/0/83 84/0/84
f 84/0/84 83/0/83 85/0/85
f 84/0/84 85/0/85 86/0/86
f 86/0/86 85/0/85 87/0/87
f 86/0/86 87/0/87 88/0/88
