# 
# Wavefront OBJ file
# Created with Kaydara FBX
# 
mtllib polysurface664.mtl

g polySurface664
v 61.273762 0.019513 -34.898323
v 61.273762 1.534136 -34.898323
v 61.397449 1.587498 -34.898323
v 61.397449 0.019513 -34.898323
v 61.504562 1.695350 -34.836483
v 61.504562 0.019513 -34.836483
v 61.566406 1.712709 -34.729370
v 61.566406 0.019513 -34.729370
v 61.566406 1.732622 -34.605682
v 61.566406 0.019513 -34.605682
v 61.566406 0.019513 -34.605682
v 61.566406 1.732622 -34.605682
v 61.504562 1.747975 -34.498569
v 61.504562 0.019513 -34.498569
v 61.397449 1.732622 -34.436722
v 61.397449 0.019513 -34.436722
v 61.397449 0.019513 -34.436722
v 61.397449 1.732622 -34.436722
v 61.273762 1.492450 -34.436722
v 61.273762 0.019513 -34.436722
v 61.273762 0.019513 -34.436722
v 61.273762 1.492450 -34.436722
v 61.166649 1.414479 -34.498566
v 61.166649 0.019513 -34.498566
v 61.104805 1.507224 -34.605682
v 61.104805 0.019513 -34.605682
v 61.104805 1.534136 -34.729370
v 61.104805 0.019513 -34.729370
v 61.104805 0.019513 -34.729370
v 61.104805 1.534136 -34.729370
v 61.166649 1.518784 -34.836483
v 61.166649 0.019513 -34.836483
v 61.273762 1.534136 -34.898323
v 61.273762 0.019513 -34.898323
v 61.104805 1.534136 -34.729370
v 61.104805 1.507224 -34.605682
v 61.166649 1.518784 -34.836483
v 61.166649 1.518784 -34.836483
v 61.104805 1.507224 -34.605682
v 61.166649 1.414479 -34.498566
v 61.273762 1.534136 -34.898323
v 61.273762 1.534136 -34.898323
v 61.166649 1.414479 -34.498566
v 61.273762 1.492450 -34.436722
v 61.397449 1.587498 -34.898323
v 61.397449 1.587498 -34.898323
v 61.273762 1.492450 -34.436722
v 61.397449 1.732622 -34.436722
v 61.504562 1.695350 -34.836483
v 61.504562 1.695350 -34.836483
v 61.397449 1.732622 -34.436722
v 61.504562 1.747975 -34.498569
v 61.566406 1.712709 -34.729370
v 61.566406 1.712709 -34.729370
v 61.504562 1.747975 -34.498569
v 61.566406 1.732622 -34.605682
vt 0.734937 0.927047
vt 0.593999 0.927047
vt 0.590096 0.934591
vt 0.734937 0.934591
vt 0.584765 0.942134
vt 0.734937 0.942134
vt 0.579433 0.949677
vt 0.734937 0.949677
vt 0.575530 0.957221
vt 0.734937 0.957221
vt 0.734937 0.957221
vt 0.575530 0.957221
vt 0.574102 0.964764
vt 0.734937 0.964764
vt 0.575530 0.972307
vt 0.734937 0.972307
vt 0.734937 0.927000
vt 0.575530 0.927000
vt 0.579433 0.934543
vt 0.734937 0.934543
vt 0.734937 0.934543
vt 0.579433 0.934543
vt 0.584765 0.942086
vt 0.734937 0.942086
vt 0.590096 0.949630
vt 0.734937 0.949630
vt 0.593999 0.957173
vt 0.734937 0.957173
vt 0.734937 0.957173
vt 0.593999 0.957173
vt 0.595428 0.964716
vt 0.734937 0.964716
vt 0.593999 0.972260
vt 0.734937 0.972260
vt 0.087320 0.838930
vt 0.079387 0.830573
vt 0.090223 0.850345
vt 0.090223 0.850345
vt 0.079387 0.830573
vt 0.068552 0.827515
vt 0.087320 0.861760
vt 0.087320 0.861760
vt 0.068552 0.827515
vt 0.057716 0.830573
vt 0.079387 0.870117
vt 0.079387 0.870117
vt 0.057716 0.830573
vt 0.049783 0.838930
vt 0.068552 0.873175
vt 0.068552 0.873175
vt 0.049783 0.838930
vt 0.046880 0.850345
vt 0.057716 0.870117
vt 0.057716 0.870117
vt 0.046880 0.850345
vt 0.049783 0.861760
vn -0.255892 0.000000 -0.966705
vn -0.215650 0.000000 -0.976471
vn 0.347446 0.000000 -0.937700
vn 0.265385 0.000000 -0.964143
vn 0.770177 0.000000 -0.637830
vn 0.710678 0.000000 -0.703517
vn 0.972516 0.000000 -0.232834
vn 0.966309 0.000000 -0.257384
vn 0.958932 0.000000 0.283636
vn 0.965570 0.000000 0.260145
vn 0.965570 0.000000 0.260145
vn 0.958932 0.000000 0.283636
vn 0.707110 0.000000 0.707104
vn 0.707110 0.000000 0.707103
vn 0.405878 0.000000 0.913927
vn 0.268785 0.000000 0.963200
vn 0.268785 0.000000 0.963200
vn 0.405878 0.000000 0.913927
vn -0.130344 0.000000 0.991469
vn -0.245197 0.000000 0.969473
vn -0.245197 0.000000 0.969473
vn -0.130344 0.000000 0.991469
vn -0.711113 0.000000 0.703078
vn -0.707598 0.000000 0.706615
vn -0.985168 0.000000 0.171595
vn -0.967320 0.000000 0.253557
vn -0.963504 0.000000 -0.267694
vn -0.965789 0.000000 -0.259328
vn -0.965789 0.000000 -0.259328
vn -0.963504 0.000000 -0.267694
vn -0.707092 0.000000 -0.707122
vn -0.707092 0.000000 -0.707122
vn -0.215650 0.000000 -0.976471
vn -0.255892 0.000000 -0.966705
vn 0.521233 0.833905 0.181436
vn 0.521233 0.833905 0.181436
vn 0.521233 0.833905 0.181436
vn 0.337613 0.899408 0.277639
vn 0.337613 0.899408 0.277639
vn 0.337613 0.899408 0.277639
vn 0.337613 0.899408 0.277639
vn -0.508651 0.857483 0.077434
vn -0.508651 0.857483 0.077434
vn -0.508651 0.857483 0.077434
vn -0.508651 0.857483 0.077434
vn -0.805262 0.565624 -0.177828
vn -0.805262 0.565624 -0.177828
vn -0.805262 0.565624 -0.177828
vn -0.805262 0.565624 -0.177828
vn -0.148403 0.977150 -0.152164
vn -0.148403 0.977150 -0.152164
vn -0.148403 0.977150 -0.152164
vn -0.148403 0.977150 -0.152164
vn -0.030196 0.986830 -0.158918
vn -0.030196 0.986830 -0.158918
vn -0.030196 0.986830 -0.158918
usemtl material
f 1/0/1 2/0/2 3/0/3
f 1/0/1 3/0/3 4/0/4
f 4/0/4 3/0/3 5/0/5
f 4/0/4 5/0/5 6/0/6
f 6/0/6 5/0/5 7/0/7
f 6/0/6 7/0/7 8/0/8
f 8/0/8 7/0/7 9/0/9
f 8/0/8 9/0/9 10/0/10
f 11/0/11 12/0/12 13/0/13
f 11/0/11 13/0/13 14/0/14
f 14/0/14 13/0/13 15/0/15
f 14/0/14 15/0/15 16/0/16
f 17/0/17 18/0/18 19/0/19
f 17/0/17 19/0/19 20/0/20
f 21/0/21 22/0/22 23/0/23
f 21/0/21 23/0/23 24/0/24
f 24/0/24 23/0/23 25/0/25
f 24/0/24 25/0/25 26/0/26
f 26/0/26 25/0/25 27/0/27
f 26/0/26 27/0/27 28/0/28
f 29/0/29 30/0/30 31/0/31
f 29/0/29 31/0/31 32/0/32
f 32/0/32 31/0/31 33/0/33
f 32/0/32 33/0/33 34/0/34
f 35/0/35 36/0/36 37/0/37
f 38/0/38 39/0/39 40/0/40
f 38/0/38 40/0/40 41/0/41
f 42/0/42 43/0/43 44/0/44
f 42/0/42 44/0/44 45/0/45
f 46/0/46 47/0/47 48/0/48
f 46/0/46 48/0/48 49/0/49
f 50/0/50 51/0/51 52/0/52
f 50/0/50 52/0/52 53/0/53
f 54/0/54 55/0/55 56/0/56
