# 
# Wavefront OBJ file
# Created with Kaydara FBX
# 
mtllib polysurface687.mtl

g polySurface687
v 10.154523 4.020871 -58.966053
v 9.217108 4.020871 -59.045467
v 9.594216 3.309623 -59.017937
v 9.438592 3.391446 -59.029297
v 9.217108 3.398912 -59.045467
v 9.739326 3.188396 -59.007336
v 9.831348 3.030088 -59.000622
v 9.860135 2.870318 -58.998516
v 10.154523 2.870318 -58.966053
v 9.217108 3.398912 -59.045467
v 9.252872 3.398912 -59.535370
v 9.474347 3.391446 -59.519199
v 9.438592 3.391446 -59.029297
v 9.629981 3.309623 -59.507847
v 9.594216 3.309623 -59.017937
v 9.775087 3.188396 -59.497246
v 9.739326 3.188396 -59.007336
v 9.867113 3.030088 -59.490532
v 9.831348 3.030088 -59.000622
v 9.831348 3.030088 -59.000622
v 9.867113 3.030088 -59.490532
v 9.895906 2.870318 -59.488422
v 9.860135 2.870318 -58.998516
v 8.220517 4.020871 -59.119614
v 8.840031 3.309623 -59.072990
v 9.217108 4.020871 -59.045467
v 8.995655 3.391446 -59.061630
v 9.217108 3.398912 -59.045467
v 8.694935 3.188396 -59.083584
v 8.602918 3.030088 -59.090298
v 8.574118 2.870318 -59.092407
v 8.220517 2.870318 -59.119614
v 9.217108 3.398912 -59.045467
v 8.995655 3.391446 -59.061630
v 9.031413 3.391446 -59.551537
v 9.252872 3.398912 -59.535370
v 8.875795 3.309623 -59.562904
v 8.840031 3.309623 -59.072990
v 8.730700 3.188396 -59.573490
v 8.694935 3.188396 -59.083584
v 8.638679 3.030088 -59.580212
v 8.602918 3.030088 -59.090298
v 8.602918 3.030088 -59.090298
v 8.574118 2.870318 -59.092407
v 8.609883 2.870318 -59.582314
v 8.638679 3.030088 -59.580212
v 8.355008 4.020871 -59.592934
v 7.895236 3.309623 -59.870922
v 7.565193 4.020871 -60.055771
v 7.756882 3.391446 -59.943089
v 7.559996 3.398912 -60.045795
v 8.024219 3.188396 -59.803616
v 8.106027 3.030088 -59.760952
v 8.131628 2.870318 -59.747597
v 8.355008 2.870318 -59.592934
v 10.097472 4.020871 -59.456303
v 9.629981 3.309623 -59.507847
v 9.253702 4.020871 -59.546604
v 9.474347 3.391446 -59.519199
v 9.252872 3.398912 -59.535370
v 9.775087 3.188396 -59.497246
v 9.867113 3.030088 -59.490532
v 9.895906 2.870318 -59.488422
v 10.097472 2.870318 -59.456299
v 8.355008 4.020871 -59.592934
v 9.253702 4.020871 -59.546604
v 8.875795 3.309623 -59.562904
v 9.031413 3.391446 -59.551537
v 9.252872 3.398912 -59.535370
v 8.730700 3.188396 -59.573490
v 8.638679 3.030088 -59.580212
v 8.609883 2.870318 -59.582314
v 8.355008 2.870318 -59.592934
v 10.097472 2.870318 -59.456299
v 10.097472 4.020871 -59.456303
v 10.267326 2.870318 -59.505283
v 10.294875 3.030088 -59.513950
v 10.294875 3.030088 -59.513950
v 10.097472 4.020871 -59.456303
v 10.382889 3.188396 -59.541611
v 10.521677 3.309623 -59.585243
v 8.220517 4.020871 -59.119614
v 7.332804 4.020871 -59.610283
v 7.668037 3.309623 -59.435394
v 7.529690 3.391446 -59.507576
v 7.332804 3.398912 -59.610283
v 7.797032 3.188396 -59.368111
v 7.878841 3.030088 -59.325439
v 7.904455 2.870318 -59.312084
v 8.220517 2.870318 -59.119614
v 7.332804 3.398912 -59.610283
v 7.559996 3.398912 -60.045795
v 7.756882 3.391446 -59.943089
v 7.529690 3.391446 -59.507576
v 7.895236 3.309623 -59.870922
v 7.668037 3.309623 -59.435394
v 8.024219 3.188396 -59.803616
v 7.797032 3.188396 -59.368111
v 8.106027 3.030088 -59.760952
v 7.878841 3.030088 -59.325439
v 7.878841 3.030088 -59.325439
v 8.106027 3.030088 -59.760952
v 8.131628 2.870318 -59.747597
v 7.904455 2.870318 -59.312084
v 10.154523 4.020871 -58.966053
v 10.668983 3.309623 -59.116638
v 11.029665 4.020871 -59.230022
v 10.817827 3.391446 -59.163437
v 11.029665 3.398912 -59.230022
v 10.530200 3.188396 -59.073017
v 10.442180 3.030088 -59.045345
v 10.414639 2.870318 -59.036690
v 10.154523 2.870318 -58.966053
v 10.817827 3.391446 -59.163437
v 10.668983 3.309623 -59.116638
v 10.521677 3.309623 -59.585243
v 10.670523 3.391446 -59.632030
v 10.382889 3.188396 -59.541611
v 10.530200 3.188396 -59.073017
v 10.294875 3.030088 -59.513950
v 10.442180 3.030088 -59.045345
v 10.442180 3.030088 -59.045345
v 10.414639 2.870318 -59.036690
v 10.267326 2.870318 -59.505283
v 10.294875 3.030088 -59.513950
v 10.097472 4.020871 -59.456303
v 10.670523 3.391446 -59.632030
v 10.521677 3.309623 -59.585243
v 10.817827 3.391446 -59.163437
v 10.670523 3.391446 -59.632030
v 11.029665 3.398912 -59.230022
v 11.029665 4.020871 -59.230022
v 11.029665 3.398912 -59.230022
v 10.670523 3.391446 -59.632030
v 9.829919 0.297295 -59.283577
v 9.765265 0.218309 -59.316864
v 9.910999 0.218309 -58.853260
v 9.948526 0.297295 -58.920898
v 9.829919 2.572921 -59.283577
v 9.948526 2.572921 -58.920898
v 9.721398 2.870318 -59.333664
v 9.885634 2.870318 -58.815098
v 9.910999 -0.400690 -58.853260
v 9.765265 -0.400690 -59.316864
v 10.389509 0.297295 -59.059521
v 9.948526 0.297295 -58.920898
v 9.910999 0.218309 -58.853260
v 10.458984 0.218309 -59.025532
v 10.389509 2.572921 -59.059521
v 9.948526 2.572921 -58.920898
v 10.501631 2.870318 -59.008739
v 9.885634 2.870318 -58.815098
v 9.910999 -0.400690 -58.853260
v 10.458971 -0.400690 -59.025520
v 10.279259 0.297295 -59.424839
v 10.389509 0.297295 -59.059521
v 10.458984 0.218309 -59.025532
v 10.313237 0.218309 -59.489124
v 10.279259 2.572921 -59.424839
v 10.389509 2.572921 -59.059521
v 10.339591 2.870318 -59.528008
v 10.501631 2.870318 -59.008739
v 10.458971 -0.400690 -59.025520
v 10.313237 -0.400690 -59.489124
v 8.105765 0.297295 -59.670483
v 8.523420 0.297295 -59.452618
v 8.592901 0.218309 -59.474052
v 8.083598 0.218309 -59.739735
v 8.105765 2.572921 -59.670483
v 8.523420 2.572921 -59.452618
v 8.064462 2.870318 -59.782635
v 8.639040 2.870318 -59.482899
v 8.592901 -0.400690 -59.474052
v 8.083598 -0.400690 -59.739735
v 8.523420 0.297295 -59.452618
v 8.343057 0.297295 -59.116344
v 8.368141 0.218309 -59.043182
v 8.592901 0.218309 -59.474052
v 8.523420 2.572921 -59.452618
v 8.343057 2.572921 -59.116344
v 8.639040 2.870318 -59.482899
v 8.386419 2.870318 -59.001160
v 8.368141 -0.400690 -59.043182
v 8.592901 -0.400690 -59.474052
v 7.933191 0.297295 -59.330166
v 7.858833 0.218309 -59.308872
v 8.368141 0.218309 -59.043182
v 8.343057 0.297295 -59.116344
v 7.933191 2.572921 -59.330166
v 8.343057 2.572921 -59.116344
v 7.813900 2.870318 -59.299816
v 8.386419 2.870318 -59.001160
v 8.368141 -0.400690 -59.043182
v 7.858839 -0.400690 -59.308872
v 8.105765 0.297295 -59.670483
v 8.083598 0.218309 -59.739735
v 7.858833 0.218309 -59.308872
v 7.933191 0.297295 -59.330166
v 8.105765 2.572921 -59.670483
v 7.933191 2.572921 -59.330166
v 8.064462 2.870318 -59.782635
v 7.813900 2.870318 -59.299816
v 7.858839 -0.400690 -59.308872
v 8.083598 -0.400690 -59.739735
v 10.097472 4.020871 -59.456303
v 11.029665 4.020871 -59.230022
v 10.670523 3.391446 -59.632030
v 10.339591 2.870318 -59.528008
v 9.721398 2.870318 -59.333664
v 9.885634 2.870318 -58.815098
v 10.501631 2.870318 -59.008739
v 8.639040 2.870318 -59.482899
v 8.064462 2.870318 -59.782635
v 7.813900 2.870318 -59.299816
v 8.386419 2.870318 -59.001160
v 10.154523 4.020871 -58.966053
v 10.097472 4.020871 -59.456303
v 9.253702 4.020871 -59.546604
v 9.217108 4.020871 -59.045467
v 8.355008 4.020871 -59.592934
v 8.220517 4.020871 -59.119614
v 7.565193 4.020871 -60.055771
v 7.332804 4.020871 -59.610283
v 11.029665 4.020871 -59.230022
v 7.565193 4.020871 -60.055771
v 7.559996 3.398912 -60.045795
v 7.332804 3.398912 -59.610283
v 7.332804 4.020871 -59.610283
v 8.220517 2.870318 -59.119614
v 8.355008 2.870318 -59.592934
v 8.609883 2.870318 -59.582314
v 8.574118 2.870318 -59.092407
vt 0.210978 1.001076
vt 0.299173 0.999272
vt 0.262361 0.926148
vt 0.277667 0.934592
vt 0.299316 0.935374
vt 0.248301 0.913676
vt 0.238983 0.897393
vt 0.236153 0.879467
vt 0.210332 0.879306
vt 0.049124 0.909496
vt 0.117809 0.909496
vt 0.117809 0.873044
vt 0.049124 0.873044
vt 0.117809 0.842934
vt 0.049124 0.842934
vt 0.117809 0.809440
vt 0.049124 0.809440
vt 0.117809 0.775219
vt 0.049124 0.775219
vt 0.049124 0.775219
vt 0.117809 0.775219
vt 0.117809 0.743882
vt 0.049124 0.743882
vt 0.225991 0.999564
vt 0.168697 0.926148
vt 0.131885 0.999272
vt 0.153391 0.934592
vt 0.131742 0.935374
vt 0.182757 0.913676
vt 0.192074 0.897393
vt 0.194904 0.879467
vt 0.225976 0.879642
vt 0.049124 0.909496
vt 0.049124 0.873044
vt 0.117809 0.873044
vt 0.117809 0.909496
vt 0.117809 0.842934
vt 0.049124 0.842934
vt 0.117809 0.809440
vt 0.049124 0.809440
vt 0.117809 0.775219
vt 0.049124 0.775219
vt 0.049124 0.775219
vt 0.049124 0.743882
vt 0.117809 0.743882
vt 0.117809 0.775219
vt 0.204018 0.999515
vt 0.262361 0.926148
vt 0.299173 0.999272
vt 0.277667 0.934592
vt 0.299316 0.935374
vt 0.248301 0.913676
vt 0.238983 0.897393
vt 0.236153 0.879467
vt 0.203928 0.879283
vt 0.210978 1.001076
vt 0.262361 0.926148
vt 0.299173 0.999272
vt 0.277667 0.934592
vt 0.299316 0.935374
vt 0.248301 0.913676
vt 0.238983 0.897393
vt 0.236153 0.879467
vt 0.210332 0.879306
vt 0.225991 0.999564
vt 0.131885 0.999272
vt 0.168697 0.926148
vt 0.153391 0.934592
vt 0.131742 0.935374
vt 0.182757 0.913676
vt 0.192074 0.897393
vt 0.194904 0.879467
vt 0.225976 0.879642
vt 0.218772 0.879670
vt 0.218314 0.999410
vt 0.194904 0.879467
vt 0.192074 0.897393
vt 0.192074 0.897393
vt 0.218314 0.999410
vt 0.182757 0.913676
vt 0.168697 0.926148
vt 0.204018 0.999515
vt 0.299173 0.999272
vt 0.262361 0.926148
vt 0.277667 0.934592
vt 0.299316 0.935374
vt 0.248301 0.913676
vt 0.238983 0.897393
vt 0.236153 0.879467
vt 0.203928 0.879283
vt 0.049124 0.909496
vt 0.117809 0.909496
vt 0.117809 0.873044
vt 0.049124 0.873044
vt 0.117809 0.842934
vt 0.049124 0.842934
vt 0.117809 0.809440
vt 0.049124 0.809440
vt 0.117809 0.775219
vt 0.049124 0.775219
vt 0.049124 0.775219
vt 0.117809 0.775219
vt 0.117809 0.743882
vt 0.049124 0.743882
vt 0.218314 0.999410
vt 0.168697 0.926148
vt 0.131885 0.999272
vt 0.153391 0.934592
vt 0.131742 0.935374
vt 0.182757 0.913676
vt 0.192074 0.897393
vt 0.194904 0.879467
vt 0.218772 0.879670
vt 0.049124 0.873044
vt 0.049124 0.842934
vt 0.117809 0.842934
vt 0.117809 0.873044
vt 0.117809 0.809440
vt 0.049124 0.809440
vt 0.117809 0.775219
vt 0.049124 0.775219
vt 0.049124 0.775219
vt 0.049124 0.743882
vt 0.117809 0.743882
vt 0.117809 0.775219
vt 0.437104 0.511437
vt 0.514283 0.527367
vt 0.513096 0.511437
vt 0.437811 0.511437
vt 0.437810 0.588617
vt 0.472721 0.511437
vt 0.480884 0.566050
vt 0.514990 0.535227
vt 0.503624 0.511437
vt 0.197783 0.732058
vt 0.193489 0.727536
vt 0.234294 0.727536
vt 0.229999 0.732058
vt 0.197783 0.862346
vt 0.229999 0.862346
vt 0.191038 0.879372
vt 0.236744 0.879372
vt 0.234294 0.692096
vt 0.193489 0.692096
vt 0.197783 0.732058
vt 0.229999 0.732058
vt 0.234294 0.727536
vt 0.193489 0.727536
vt 0.197783 0.862346
vt 0.229999 0.862346
vt 0.191038 0.879372
vt 0.236744 0.879372
vt 0.234294 0.692096
vt 0.193489 0.692096
vt 0.197783 0.732058
vt 0.229999 0.732058
vt 0.234294 0.727536
vt 0.193489 0.727536
vt 0.197783 0.862346
vt 0.229999 0.862346
vt 0.191038 0.879372
vt 0.236744 0.879372
vt 0.234294 0.692096
vt 0.193489 0.692096
vt 0.197783 0.732058
vt 0.229999 0.732058
vt 0.234294 0.727536
vt 0.193489 0.727536
vt 0.197783 0.862346
vt 0.229999 0.862346
vt 0.191038 0.879372
vt 0.236744 0.879372
vt 0.234294 0.692096
vt 0.193489 0.692096
vt 0.197783 0.732058
vt 0.229999 0.732058
vt 0.234294 0.727536
vt 0.193489 0.727536
vt 0.197783 0.862346
vt 0.229999 0.862346
vt 0.191038 0.879372
vt 0.236744 0.879372
vt 0.234294 0.692096
vt 0.193489 0.692096
vt 0.197783 0.732058
vt 0.193489 0.727536
vt 0.234294 0.727536
vt 0.229999 0.732058
vt 0.197783 0.862346
vt 0.229999 0.862346
vt 0.191038 0.879372
vt 0.236744 0.879372
vt 0.234294 0.692096
vt 0.193489 0.692096
vt 0.197783 0.732058
vt 0.193489 0.727536
vt 0.234294 0.727536
vt 0.229999 0.732058
vt 0.197783 0.862346
vt 0.229999 0.862346
vt 0.191038 0.879372
vt 0.236744 0.879372
vt 0.234294 0.692096
vt 0.193489 0.692096
vt 0.437810 0.511437
vt 0.480884 0.566050
vt 0.503624 0.511437
vt 0.201653 0.698368
vt 0.201653 0.722008
vt 0.228398 0.722008
vt 0.228398 0.698368
vt 0.201653 0.698368
vt 0.201653 0.722008
vt 0.228398 0.722008
vt 0.228398 0.698368
vt 0.134392 0.859260
vt 0.171112 0.859260
vt 0.171112 0.801007
vt 0.134392 0.801007
vt 0.171112 0.739863
vt 0.134392 0.739863
vt 0.171112 0.682879
vt 0.134392 0.682879
vt 0.153696 0.911557
vt 0.171112 0.682879
vt 0.171112 0.721226
vt 0.134392 0.721227
vt 0.134392 0.682879
vt 0.091711 0.581822
vt 0.053448 0.581822
vt 0.053448 0.611450
vt 0.091711 0.611450
vn -0.084409 -0.006189 0.996412
vn -0.083539 -0.005724 0.996488
vn -0.083736 -0.005827 0.996471
vn -0.072831 0.000008 0.997344
vn -0.072807 0.000000 0.997346
vn -0.083059 -0.008013 0.996512
vn -0.091082 -0.005046 0.995831
vn -0.108530 -0.000279 0.994093
vn -0.109608 0.000000 0.993975
vn -0.033508 -0.999435 -0.002446
vn -0.033508 -0.999435 -0.002446
vn -0.229214 -0.973232 -0.016731
vn -0.229216 -0.973232 -0.016731
vn -0.557073 -0.829467 -0.040664
vn -0.557074 -0.829467 -0.040664
vn -0.759704 -0.647900 -0.055458
vn -0.759705 -0.647898 -0.055458
vn -0.932042 -0.355905 -0.068044
vn -0.932043 -0.355903 -0.068044
vn -0.932043 -0.355903 -0.068044
vn -0.932042 -0.355905 -0.068044
vn -0.981454 -0.177803 -0.071656
vn -0.981454 -0.177803 -0.071656
vn -0.074196 0.000743 0.997243
vn -0.074122 0.000704 0.997249
vn -0.074095 0.000690 0.997251
vn -0.072786 0.000007 0.997348
vn -0.072769 0.000000 0.997349
vn -0.074022 0.000980 0.997256
vn -0.074871 0.000580 0.997193
vn -0.076625 0.000032 0.997060
vn -0.076739 0.000000 0.997051
vn 0.033512 -0.999435 0.002447
vn 0.229231 -0.973228 0.016733
vn 0.229236 -0.973227 0.016733
vn 0.033512 -0.999435 0.002447
vn 0.557091 -0.829455 0.040668
vn 0.557091 -0.829455 0.040668
vn 0.759725 -0.647874 0.055461
vn 0.759727 -0.647873 0.055461
vn 0.932041 -0.355907 0.068038
vn 0.932040 -0.355910 0.068038
vn 0.932040 -0.355910 0.068038
vn 0.981446 -0.177849 0.071645
vn 0.981446 -0.177849 0.071645
vn 0.932041 -0.355907 0.068038
vn 0.505566 0.010381 -0.862726
vn 0.502378 0.008413 -0.864607
vn 0.502110 0.008129 -0.864765
vn 0.456656 -0.020147 -0.889415
vn 0.461856 -0.018082 -0.886770
vn 0.490956 0.025304 -0.870817
vn 0.514084 0.016252 -0.857586
vn 0.566127 0.000890 -0.824318
vn 0.569224 0.000000 -0.822182
vn 0.106421 0.002112 -0.994319
vn 0.103309 0.000449 -0.994649
vn 0.103416 0.000376 -0.994638
vn 0.066295 -0.020191 -0.997596
vn 0.072201 -0.018111 -0.997226
vn 0.090780 0.013826 -0.995775
vn 0.107603 0.009320 -0.994150
vn 0.154629 0.000500 -0.987972
vn 0.157447 -0.000004 -0.987527
vn 0.051480 -0.004468 -0.998664
vn 0.053375 -0.005598 -0.998559
vn 0.053544 -0.005566 -0.998550
vn 0.079312 -0.020184 -0.996646
vn 0.073437 -0.018111 -0.997135
vn 0.065039 0.006047 -0.997864
vn 0.058459 0.003922 -0.998282
vn 0.042613 0.000214 -0.999092
vn 0.041652 0.000000 -0.999132
vn -0.277113 -0.000004 -0.960837
vn -0.288946 -0.002251 -0.957343
vn -0.277937 -0.000136 -0.960599
vn -0.291385 -0.002388 -0.956603
vn -0.291385 -0.002388 -0.956603
vn -0.288946 -0.002251 -0.957343
vn -0.295578 -0.003437 -0.955312
vn -0.296792 -0.003903 -0.954934
vn -0.483722 -0.012806 0.875128
vn -0.482247 -0.011910 0.875954
vn -0.482635 -0.012145 0.875738
vn -0.462515 -0.000018 0.886611
vn -0.462483 0.000000 0.886628
vn -0.481139 -0.016867 0.876482
vn -0.493971 -0.010258 0.869418
vn -0.518530 -0.000597 0.855059
vn -0.520119 0.000000 0.854094
vn -0.029788 -0.999435 -0.015539
vn -0.029788 -0.999435 -0.015539
vn -0.203772 -0.973230 -0.106299
vn -0.203772 -0.973230 -0.106299
vn -0.495223 -0.829467 -0.258338
vn -0.495225 -0.829465 -0.258339
vn -0.675361 -0.647894 -0.352308
vn -0.675361 -0.647894 -0.352308
vn -0.828558 -0.355929 -0.432212
vn -0.828556 -0.355935 -0.432211
vn -0.828556 -0.355935 -0.432211
vn -0.828558 -0.355929 -0.432212
vn -0.872486 -0.177875 -0.455115
vn -0.872486 -0.177875 -0.455115
vn 0.288768 0.006179 0.957379
vn 0.289455 0.005800 0.957174
vn 0.289627 0.005702 0.957123
vn 0.299929 -0.000014 0.953962
vn 0.299857 0.000000 0.953984
vn 0.290056 0.007958 0.956977
vn 0.282075 0.005112 0.959379
vn 0.263237 0.000280 0.964731
vn 0.262079 0.000000 0.965047
vn 0.443057 -0.885609 -0.139275
vn 0.532881 -0.829444 -0.167514
vn 0.532880 -0.829445 -0.167514
vn 0.443057 -0.885609 -0.139275
vn 0.726694 -0.647866 -0.228441
vn 0.726692 -0.647869 -0.228441
vn 0.891510 -0.355905 -0.280252
vn 0.891511 -0.355904 -0.280252
vn 0.891511 -0.355904 -0.280252
vn 0.938767 -0.177844 -0.295108
vn 0.938767 -0.177844 -0.295108
vn 0.891510 -0.355905 -0.280252
vn -0.297661 -0.004451 -0.954661
vn -0.297661 -0.004451 -0.954661
vn -0.297661 -0.004451 -0.954661
vn 0.032053 -0.999435 -0.010076
vn 0.032053 -0.999435 -0.010076
vn 0.032053 -0.999435 -0.010076
vn 0.745745 0.000000 -0.666232
vn 0.745745 0.000000 -0.666232
vn 0.745745 0.000000 -0.666232
vn -0.950022 0.033761 0.310352
vn -0.952708 0.049249 0.299869
vn -0.952721 0.048983 0.299871
vn -0.950025 0.033657 0.310354
vn -0.949675 -0.047121 0.309674
vn -0.949676 -0.047075 0.309675
vn -0.911241 -0.290001 0.292470
vn -0.911241 -0.290001 0.292470
vn -0.953976 0.000000 0.299884
vn -0.953976 0.000000 0.299884
vn 0.299723 0.033378 0.953442
vn 0.299723 0.033377 0.953442
vn 0.299553 0.047664 0.952888
vn 0.299553 0.047664 0.952888
vn 0.299609 -0.043128 0.953087
vn 0.299609 -0.043128 0.953087
vn 0.289075 -0.266017 0.919604
vn 0.289075 -0.266017 0.919604
vn 0.299894 0.000004 0.953973
vn 0.299894 0.000004 0.953973
vn 0.956715 0.033758 -0.289063
vn 0.956718 0.033655 -0.289063
vn 0.952936 0.048973 -0.299191
vn 0.952924 0.049238 -0.299185
vn 0.956041 -0.047120 -0.289422
vn 0.956044 -0.047073 -0.289422
vn 0.914677 -0.289992 -0.281551
vn 0.914677 -0.289992 -0.281551
vn 0.953972 -0.000013 -0.299896
vn 0.953972 -0.000013 -0.299896
vn 0.462267 0.031308 -0.886188
vn 0.462267 0.031309 -0.886188
vn 0.461990 0.047348 -0.885620
vn 0.461990 0.047350 -0.885620
vn 0.462094 -0.041725 -0.885849
vn 0.462094 -0.041726 -0.885849
vn 0.446515 -0.260761 -0.855937
vn 0.446515 -0.260761 -0.855937
vn 0.462509 0.000000 -0.886615
vn 0.462509 0.000000 -0.886615
vn 0.880890 0.033757 0.472116
vn 0.880892 0.033653 0.472119
vn 0.885387 0.048979 0.462267
vn 0.885375 0.049245 0.462263
vn 0.880666 -0.047120 0.471389
vn 0.880667 -0.047073 0.471391
vn 0.845843 -0.289994 0.447719
vn 0.845843 -0.289994 0.447719
vn 0.886619 0.000000 0.462500
vn 0.886619 0.000000 0.462500
vn -0.462269 0.033379 0.886112
vn -0.461988 0.047665 0.885604
vn -0.461988 0.047664 0.885604
vn -0.462269 0.033379 0.886112
vn -0.462094 -0.043130 0.885782
vn -0.462094 -0.043129 0.885782
vn -0.445841 -0.266031 0.854665
vn -0.445841 -0.266031 0.854665
vn -0.462513 -0.000002 0.886612
vn -0.462513 -0.000002 0.886612
vn -0.891225 0.033757 -0.452303
vn -0.885708 0.049234 -0.461624
vn -0.885719 0.048971 -0.461632
vn -0.891229 0.033652 -0.452304
vn -0.890500 -0.047121 -0.452537
vn -0.890502 -0.047074 -0.452537
vn -0.851160 -0.289985 -0.437533
vn -0.851160 -0.289985 -0.437533
vn -0.886614 -0.000004 -0.462509
vn -0.886614 -0.000004 -0.462509
vn 0.212162 0.437163 -0.874000
vn 0.212162 0.437163 -0.874000
vn 0.212162 0.437163 -0.874000
vn 0.000000 1.000000 0.000000
vn 0.000000 1.000000 0.000000
vn 0.000000 1.000000 0.000000
vn 0.000000 1.000000 0.000000
vn 0.000000 1.000000 0.000000
vn 0.000000 1.000000 0.000000
vn 0.000000 1.000000 0.000000
vn 0.000000 1.000000 0.000000
vn 0.000000 1.000000 0.000001
vn 0.000000 1.000000 0.000001
vn 0.000000 1.000000 0.000001
vn 0.000000 1.000000 0.000001
vn 0.000000 1.000000 0.000000
vn 0.000000 1.000000 0.000000
vn 0.000000 1.000000 0.000000
vn 0.000000 1.000000 0.000000
vn 0.000000 1.000000 0.000000
vn -0.886613 -0.000005 -0.462512
vn -0.886613 -0.000005 -0.462512
vn -0.886613 -0.000005 -0.462512
vn -0.886613 -0.000005 -0.462512
vn 0.000000 -1.000000 0.000000
vn 0.000000 -1.000000 0.000000
vn 0.000000 -1.000000 0.000000
vn 0.000000 -1.000000 0.000000
usemtl material
f 1/0/1 2/0/2 3/0/3
f 3/0/3 2/0/2 4/0/4
f 4/0/4 2/0/2 5/0/5
f 6/0/6 1/0/1 3/0/3
f 7/0/7 1/0/1 6/0/6
f 8/0/8 1/0/1 7/0/7
f 9/0/9 1/0/1 8/0/8
f 10/0/10 11/0/11 12/0/12
f 10/0/10 12/0/12 13/0/13
f 13/0/13 12/0/12 14/0/14
f 13/0/13 14/0/14 15/0/15
f 15/0/15 14/0/14 16/0/16
f 15/0/15 16/0/16 17/0/17
f 17/0/17 16/0/16 18/0/18
f 17/0/17 18/0/18 19/0/19
f 20/0/20 21/0/21 22/0/22
f 20/0/20 22/0/22 23/0/23
f 24/0/24 25/0/25 26/0/26
f 25/0/25 27/0/27 26/0/26
f 27/0/27 28/0/28 26/0/26
f 29/0/29 25/0/25 24/0/24
f 30/0/30 29/0/29 24/0/24
f 31/0/31 30/0/30 24/0/24
f 32/0/32 31/0/31 24/0/24
f 33/0/33 34/0/34 35/0/35
f 33/0/33 35/0/35 36/0/36
f 34/0/34 37/0/37 35/0/35
f 34/0/34 38/0/38 37/0/37
f 38/0/38 39/0/39 37/0/37
f 38/0/38 40/0/40 39/0/39
f 40/0/40 41/0/41 39/0/39
f 40/0/40 42/0/42 41/0/41
f 43/0/43 44/0/44 45/0/45
f 43/0/43 45/0/45 46/0/46
f 47/0/47 48/0/48 49/0/49
f 48/0/48 50/0/50 49/0/49
f 50/0/50 51/0/51 49/0/49
f 52/0/52 48/0/48 47/0/47
f 53/0/53 52/0/52 47/0/47
f 54/0/54 53/0/53 47/0/47
f 55/0/55 54/0/54 47/0/47
f 56/0/56 57/0/57 58/0/58
f 57/0/57 59/0/59 58/0/58
f 59/0/59 60/0/60 58/0/58
f 61/0/61 57/0/57 56/0/56
f 62/0/62 61/0/61 56/0/56
f 63/0/63 62/0/62 56/0/56
f 64/0/64 63/0/63 56/0/56
f 65/0/65 66/0/66 67/0/67
f 67/0/67 66/0/66 68/0/68
f 68/0/68 66/0/66 69/0/69
f 70/0/70 65/0/65 67/0/67
f 71/0/71 65/0/65 70/0/70
f 72/0/72 65/0/65 71/0/71
f 73/0/73 65/0/65 72/0/72
f 74/0/74 75/0/75 76/0/76
f 76/0/76 75/0/75 77/0/77
f 78/0/78 79/0/79 80/0/80
f 80/0/80 79/0/79 81/0/81
f 82/0/82 83/0/83 84/0/84
f 84/0/84 83/0/83 85/0/85
f 85/0/85 83/0/83 86/0/86
f 87/0/87 82/0/82 84/0/84
f 88/0/88 82/0/82 87/0/87
f 89/0/89 82/0/82 88/0/88
f 90/0/90 82/0/82 89/0/89
f 91/0/91 92/0/92 93/0/93
f 91/0/91 93/0/93 94/0/94
f 94/0/94 93/0/93 95/0/95
f 94/0/94 95/0/95 96/0/96
f 96/0/96 95/0/95 97/0/97
f 96/0/96 97/0/97 98/0/98
f 98/0/98 97/0/97 99/0/99
f 98/0/98 99/0/99 100/0/100
f 101/0/101 102/0/102 103/0/103
f 101/0/101 103/0/103 104/0/104
f 105/0/105 106/0/106 107/0/107
f 106/0/106 108/0/108 107/0/107
f 108/0/108 109/0/109 107/0/107
f 110/0/110 106/0/106 105/0/105
f 111/0/111 110/0/110 105/0/105
f 112/0/112 111/0/111 105/0/105
f 113/0/113 112/0/112 105/0/105
f 114/0/114 115/0/115 116/0/116
f 114/0/114 116/0/116 117/0/117
f 115/0/115 118/0/118 116/0/116
f 115/0/115 119/0/119 118/0/118
f 119/0/119 120/0/120 118/0/118
f 119/0/119 121/0/121 120/0/120
f 122/0/122 123/0/123 124/0/124
f 122/0/122 124/0/124 125/0/125
f 126/0/126 127/0/127 128/0/128
f 129/0/129 130/0/130 131/0/131
f 132/0/132 133/0/133 134/0/134
f 135/0/135 136/0/136 137/0/137
f 135/0/135 137/0/137 138/0/138
f 139/0/139 135/0/135 138/0/138
f 139/0/139 138/0/138 140/0/140
f 141/0/141 139/0/139 140/0/140
f 141/0/141 140/0/140 142/0/142
f 136/0/136 143/0/143 137/0/137
f 136/0/136 144/0/144 143/0/143
f 145/0/145 146/0/146 147/0/147
f 145/0/145 147/0/147 148/0/148
f 149/0/149 146/0/146 145/0/145
f 149/0/149 150/0/150 146/0/146
f 151/0/151 150/0/150 149/0/149
f 151/0/151 152/0/152 150/0/150
f 148/0/148 147/0/147 153/0/153
f 148/0/148 153/0/153 154/0/154
f 155/0/155 156/0/156 157/0/157
f 155/0/155 157/0/157 158/0/158
f 159/0/159 156/0/156 155/0/155
f 159/0/159 160/0/160 156/0/156
f 161/0/161 160/0/160 159/0/159
f 161/0/161 162/0/162 160/0/160
f 158/0/158 157/0/157 163/0/163
f 158/0/158 163/0/163 164/0/164
f 165/0/165 166/0/166 167/0/167
f 165/0/165 167/0/167 168/0/168
f 169/0/169 166/0/166 165/0/165
f 169/0/169 170/0/170 166/0/166
f 171/0/171 170/0/170 169/0/169
f 171/0/171 172/0/172 170/0/170
f 168/0/168 167/0/167 173/0/173
f 168/0/168 173/0/173 174/0/174
f 175/0/175 176/0/176 177/0/177
f 175/0/175 177/0/177 178/0/178
f 179/0/179 176/0/176 175/0/175
f 179/0/179 180/0/180 176/0/176
f 181/0/181 180/0/180 179/0/179
f 181/0/181 182/0/182 180/0/180
f 178/0/178 177/0/177 183/0/183
f 178/0/178 183/0/183 184/0/184
f 185/0/185 186/0/186 187/0/187
f 185/0/185 187/0/187 188/0/188
f 189/0/189 185/0/185 188/0/188
f 189/0/189 188/0/188 190/0/190
f 191/0/191 189/0/189 190/0/190
f 191/0/191 190/0/190 192/0/192
f 186/0/186 193/0/193 187/0/187
f 186/0/186 194/0/194 193/0/193
f 195/0/195 196/0/196 197/0/197
f 195/0/195 197/0/197 198/0/198
f 199/0/199 195/0/195 198/0/198
f 199/0/199 198/0/198 200/0/200
f 201/0/201 199/0/199 200/0/200
f 201/0/201 200/0/200 202/0/202
f 196/0/196 203/0/203 197/0/197
f 196/0/196 204/0/204 203/0/203
f 205/0/205 206/0/206 207/0/207
f 208/0/208 209/0/209 210/0/210
f 208/0/208 210/0/210 211/0/211
f 212/0/212 213/0/213 214/0/214
f 212/0/212 214/0/214 215/0/215
f 216/0/216 217/0/217 218/0/218
f 216/0/216 218/0/218 219/0/219
f 219/0/219 218/0/218 220/0/220
f 219/0/219 220/0/220 221/0/221
f 221/0/221 220/0/220 222/0/222
f 221/0/221 222/0/222 223/0/223
f 224/0/224 217/0/217 216/0/216
f 225/0/225 226/0/226 227/0/227
f 225/0/225 227/0/227 228/0/228
f 229/0/229 230/0/230 231/0/231
f 229/0/229 231/0/231 232/0/232
