# 
# Wavefront OBJ file
# Created with Kaydara FBX
# 
mtllib polysurface148.mtl

g polySurface148
v -0.119742 0.113108 -0.119910
v -0.119742 0.113108 -0.036295
v -0.105465 0.126843 -0.036295
v -0.105465 0.126843 -0.119910
v -0.119742 0.113108 -0.036295
v -0.119742 0.000904 -0.036204
v -0.119742 -0.058673 0.026433
v -0.119742 -0.025043 0.105716
v -0.119742 -0.126843 0.105716
v -0.119742 0.079037 -0.119910
v -0.119742 0.113108 -0.119910
v -0.011824 0.126843 -0.119910
v -0.105465 0.126843 -0.119910
v -0.105465 0.126843 -0.036295
v -0.011824 0.126843 -0.036295
v -0.011824 0.126843 -0.119910
v -0.011824 0.116663 -0.119910
v -0.082276 0.116663 -0.119910
v -0.105465 0.126843 -0.119910
v -0.093349 0.101293 -0.119910
v -0.119742 0.113108 -0.119910
v -0.093349 0.079037 -0.119910
v -0.119742 0.079037 -0.119910
v -0.090213 0.116663 -0.036295
v -0.105465 0.126843 -0.036295
v -0.119742 0.113108 -0.036295
v -0.105583 0.101293 -0.036295
v -0.093349 0.000928 -0.036295
v -0.119742 0.000904 -0.036204
v -0.119742 0.079037 -0.119910
v -0.093349 0.079037 -0.119910
v -0.093349 -0.058673 0.026433
v -0.119742 -0.058673 0.026433
v -0.105583 0.101293 -0.036295
v -0.119742 0.113108 -0.036295
v -0.119742 -0.025043 0.105716
v -0.105340 -0.026928 0.094795
v -0.105465 0.126843 -0.036295
v -0.090213 0.116663 -0.036295
v -0.011824 0.116663 -0.036295
v -0.011824 0.126843 -0.036295
v -0.093349 -0.058673 0.026433
v -0.105340 -0.026928 0.094795
v -0.093349 -0.117718 0.085887
v -0.105583 0.101293 -0.036295
v -0.093349 0.000928 -0.036295
v -0.093349 0.079037 -0.119910
v -0.090213 0.116663 -0.036295
v -0.105583 0.101293 -0.036295
v -0.093349 0.101293 -0.119910
v -0.082276 0.116663 -0.119910
v -0.093349 0.079037 -0.119910
v -0.093349 0.101293 -0.119910
v -0.105583 0.101293 -0.036295
v -0.011824 0.116663 -0.036295
v -0.090213 0.116663 -0.036295
v -0.082276 0.116663 -0.119910
v -0.011824 0.116663 -0.119910
v -0.093349 -0.117718 0.085887
v -0.119742 -0.126843 0.105716
v -0.119742 -0.058673 0.026433
v -0.093349 -0.058673 0.026433
v 0.119742 0.126843 0.105483
v 0.119742 0.126843 0.011656
v 0.036126 0.126843 0.011656
v 0.036126 0.126843 0.105483
v 0.119742 0.113108 0.119573
v 0.119742 0.126843 0.105483
v 0.036126 0.126843 0.105483
v 0.036126 0.113108 0.119573
v 0.036126 0.113108 0.119573
v -0.105885 -0.025043 0.119573
v -0.026265 -0.058673 0.119910
v 0.036036 0.000904 0.119573
v -0.105548 -0.126843 0.119910
v 0.119742 0.079037 0.119573
v 0.119742 0.113108 0.119573
v 0.036126 0.126843 0.011656
v 0.036126 0.116663 0.011656
v 0.036126 0.116663 0.090045
v 0.036126 0.126843 0.105483
v 0.036126 0.101293 0.105415
v 0.036126 0.113108 0.119573
v 0.036126 0.126843 0.105483
v 0.036126 0.116663 0.090045
v 0.119742 0.116663 0.083839
v 0.119742 0.126843 0.105483
v 0.119742 0.113108 0.119573
v 0.119742 0.101293 0.093181
v 0.119742 0.079037 0.119573
v 0.119742 0.079037 0.093181
v 0.119742 0.116663 0.011656
v 0.119742 0.126843 0.011656
v 0.119742 0.079037 0.093181
v 0.119742 0.079037 0.119573
v 0.036036 0.000904 0.119573
v 0.036126 0.000928 0.093181
v -0.026265 -0.058673 0.119910
v -0.026602 -0.058673 0.093181
v -0.094963 -0.026928 0.105172
v -0.105885 -0.025043 0.119573
v 0.036126 0.113108 0.119573
v 0.036126 0.101293 0.105415
v -0.026602 -0.058673 0.093181
v -0.085873 -0.117718 0.093181
v -0.094963 -0.026928 0.105172
v 0.036126 0.101293 0.105415
v 0.036126 0.000928 0.093181
v 0.119742 0.079037 0.093181
v 0.036126 0.116663 0.090045
v 0.119742 0.116663 0.083839
v 0.119742 0.101293 0.093181
v 0.036126 0.101293 0.105415
v 0.119742 0.079037 0.093181
v 0.036126 0.101293 0.105415
v 0.119742 0.101293 0.093181
v 0.036126 0.116663 0.090045
v 0.036126 0.116663 0.011656
v 0.119742 0.116663 0.011656
v 0.119742 0.116663 0.083839
v -0.026602 -0.058673 0.093181
v -0.026265 -0.058673 0.119910
v -0.105548 -0.126843 0.119910
v -0.085873 -0.117718 0.093181
v -0.105340 -0.026928 0.094795
v -0.094963 -0.026928 0.105172
v -0.085873 -0.117718 0.093181
v -0.093349 -0.117718 0.085887
v -0.105340 -0.026928 0.094795
v -0.119742 -0.025043 0.105716
v -0.105885 -0.025043 0.119573
v -0.094963 -0.026928 0.105172
v -0.105885 -0.025043 0.119573
v -0.119742 -0.025043 0.105716
v -0.119742 -0.126843 0.105716
v -0.105548 -0.126843 0.119910
v -0.085873 -0.117718 0.093181
v -0.105548 -0.126843 0.119910
v -0.119742 -0.126843 0.105716
v -0.093349 -0.117718 0.085887
v 0.119742 0.126843 0.011656
v 0.119742 0.116663 0.011656
v 0.036126 0.116663 0.011656
v 0.036126 0.126843 0.011656
v -0.011824 0.126843 -0.036295
v -0.011824 0.116663 -0.036295
v -0.011824 0.116663 -0.119910
v -0.011824 0.126843 -0.119910
vt 0.696035 0.255718
vt 0.737315 0.211509
vt 0.753438 0.226565
vt 0.712160 0.270773
vt 0.737315 0.211509
vt 0.682435 0.157886
vt 0.682435 0.095369
vt 0.737315 0.070049
vt 0.682435 0.019774
vt 0.682436 0.240705
vt 0.696035 0.255718
vt 0.759950 0.315396
vt 0.712160 0.270773
vt 0.753438 0.226565
vt 0.801228 0.271188
vt 0.944345 0.519123
vt 0.931269 0.519121
vt 0.931269 0.460869
vt 0.944345 0.453738
vt 0.931269 0.432986
vt 0.944346 0.430937
vt 0.931269 0.409914
vt 0.944345 0.409915
vt 0.069698 0.483810
vt 0.059281 0.475903
vt 0.059281 0.493964
vt 0.069699 0.499592
vt 0.931269 0.353413
vt 0.944345 0.353398
vt 0.944345 0.409915
vt 0.931269 0.409914
vt 0.931269 0.310301
vt 0.944346 0.310303
vt 0.069699 0.499592
vt 0.059281 0.493964
vt 0.059282 0.591232
vt 0.069699 0.592589
vt 0.944346 0.645208
vt 0.931269 0.636308
vt 0.931269 0.579602
vt 0.944345 0.579607
vt 0.608089 0.144901
vt 0.661139 0.124687
vt 0.608088 0.084560
vt 0.661139 0.255996
vt 0.608089 0.206683
vt 0.608088 0.288635
vt 0.671284 0.267946
vt 0.661139 0.255996
vt 0.618936 0.299764
vt 0.627838 0.310087
vt 0.608088 0.288635
vt 0.618936 0.299764
vt 0.661139 0.255996
vt 0.706644 0.312134
vt 0.671284 0.267946
vt 0.627838 0.310087
vt 0.659530 0.349801
vt 0.931269 0.263475
vt 0.944346 0.256263
vt 0.944346 0.310303
vt 0.931269 0.310301
vt 0.712160 0.270773
vt 0.759949 0.315396
vt 0.801228 0.271188
vt 0.753438 0.226565
vt 0.696035 0.255718
vt 0.712160 0.270773
vt 0.753438 0.226565
vt 0.737315 0.211509
vt 0.737315 0.211509
vt 0.737315 0.070049
vt 0.682435 0.095369
vt 0.682435 0.157886
vt 0.682435 0.019774
vt 0.682436 0.240705
vt 0.696035 0.255718
vt 0.944345 0.579604
vt 0.931269 0.579606
vt 0.931269 0.636308
vt 0.944346 0.645208
vt 0.069699 0.499592
vt 0.059281 0.493710
vt 0.059281 0.475657
vt 0.069698 0.483810
vt 0.931269 0.460869
vt 0.944345 0.453738
vt 0.944346 0.430784
vt 0.931269 0.432986
vt 0.944346 0.409916
vt 0.931269 0.409915
vt 0.931269 0.519122
vt 0.944345 0.519121
vt 0.931269 0.409915
vt 0.944346 0.409916
vt 0.944345 0.353398
vt 0.931269 0.353413
vt 0.944346 0.310303
vt 0.931269 0.310301
vt 0.069699 0.592426
vt 0.059281 0.590894
vt 0.059281 0.493710
vt 0.069699 0.499592
vt 0.608089 0.144901
vt 0.608088 0.084560
vt 0.661139 0.124687
vt 0.661139 0.255996
vt 0.608089 0.206683
vt 0.608088 0.288635
vt 0.671284 0.267946
vt 0.627838 0.310087
vt 0.618936 0.299764
vt 0.661139 0.255996
vt 0.608088 0.288635
vt 0.661139 0.255996
vt 0.618936 0.299764
vt 0.671284 0.267946
vt 0.706644 0.312134
vt 0.659530 0.349801
vt 0.627838 0.310087
vt 0.931269 0.310301
vt 0.944346 0.310303
vt 0.944346 0.256570
vt 0.931269 0.263169
vt 0.661139 0.124687
vt 0.664546 0.116447
vt 0.611301 0.078523
vt 0.608088 0.084560
vt 0.069699 0.616692
vt 0.059281 0.616692
vt 0.059281 0.590894
vt 0.069699 0.592426
vt 0.737315 0.070049
vt 0.745917 0.059686
vt 0.692111 0.009415
vt 0.682435 0.019774
vt 0.931269 0.256364
vt 0.944346 0.243376
vt 0.944346 0.256263
vt 0.931269 0.263475
vt 0.944345 0.519121
vt 0.931269 0.519122
vt 0.931269 0.579606
vt 0.944345 0.579604
vt 0.944345 0.579607
vt 0.931269 0.579602
vt 0.931269 0.519121
vt 0.944345 0.519123
vn -0.693308 0.720641 0.000000
vn -0.693308 0.720641 0.000000
vn -0.693308 0.720641 0.000000
vn -0.693308 0.720641 0.000000
vn -1.000000 -0.000001 -0.000001
vn -1.000000 -0.000001 -0.000001
vn -1.000000 -0.000001 -0.000001
vn -1.000000 -0.000001 -0.000001
vn -1.000000 0.000000 -0.000002
vn -1.000000 0.000000 0.000000
vn -1.000000 0.000000 0.000000
vn 0.000003 1.000000 0.000000
vn 0.000003 1.000000 0.000000
vn 0.000003 1.000000 0.000000
vn 0.000003 1.000000 0.000000
vn 0.000000 0.000000 -1.000000
vn 0.000000 0.000000 -1.000000
vn 0.000000 0.000000 -1.000000
vn 0.000000 0.000000 -1.000000
vn 0.000000 0.000000 -1.000000
vn 0.000000 0.000000 -1.000000
vn 0.000000 0.000000 -1.000000
vn 0.000000 0.000000 -1.000000
vn 0.000000 0.000000 1.000000
vn 0.000000 0.000000 1.000000
vn 0.000000 0.000000 1.000000
vn 0.000000 0.000000 1.000000
vn -0.000834 -0.730888 -0.682497
vn -0.000834 -0.730888 -0.682497
vn -0.000834 -0.730888 -0.682497
vn -0.000834 -0.730888 -0.682497
vn -0.000848 -0.724767 -0.688993
vn -0.000848 -0.724767 -0.688993
vn 0.521031 0.611256 0.595728
vn 0.521031 0.611256 0.595728
vn 0.521031 0.611256 0.595728
vn 0.521031 0.611256 0.595728
vn 0.000000 0.000000 1.000000
vn 0.000000 0.000000 1.000000
vn 0.000000 0.000000 1.000000
vn 0.000000 0.000000 1.000000
vn 0.985919 0.118654 0.117833
vn 0.985919 0.118654 0.117833
vn 0.985919 0.118654 0.117833
vn 0.985890 0.120826 0.115854
vn 0.985890 0.120826 0.115854
vn 0.986372 0.120233 0.112313
vn 0.754942 -0.649439 0.091061
vn 0.754942 -0.649439 0.091061
vn 0.754942 -0.649439 0.091061
vn 0.754942 -0.649439 0.091061
vn 0.989465 0.000000 0.144770
vn 0.989465 0.000000 0.144770
vn 0.989465 0.000000 0.144770
vn 0.000001 -1.000000 0.000000
vn 0.000001 -1.000000 0.000000
vn 0.000001 -1.000000 0.000000
vn 0.000001 -1.000000 0.000000
vn -0.125468 -0.731227 -0.670496
vn -0.125468 -0.731227 -0.670496
vn -0.125468 -0.731227 -0.670496
vn -0.125468 -0.731227 -0.670496
vn 0.000000 1.000000 -0.000005
vn 0.000000 1.000000 -0.000005
vn 0.000000 1.000000 -0.000005
vn 0.000000 1.000000 -0.000005
vn 0.000000 0.716091 0.698007
vn 0.000000 0.716091 0.698007
vn 0.000000 0.716091 0.698007
vn 0.000000 0.716091 0.698007
vn -0.000383 0.002099 0.999998
vn -0.000383 0.002099 0.999998
vn -0.000383 0.002099 0.999998
vn -0.000383 0.002099 0.999998
vn -0.002836 0.003296 0.999991
vn 0.000000 0.000000 1.000000
vn 0.000000 0.000000 1.000000
vn -1.000000 0.000000 0.000000
vn -1.000000 0.000000 0.000000
vn -1.000000 0.000000 0.000000
vn -1.000000 0.000000 0.000000
vn -1.000000 0.000000 0.000000
vn -1.000000 0.000000 0.000000
vn -1.000000 0.000000 0.000000
vn -1.000000 0.000000 0.000000
vn 1.000000 0.000000 0.000000
vn 1.000000 0.000000 0.000000
vn 1.000000 0.000000 0.000000
vn 1.000000 0.000000 0.000000
vn 1.000000 0.000000 0.000000
vn 1.000000 0.000000 0.000000
vn 1.000000 -0.000007 0.000000
vn 1.000000 -0.000007 0.000000
vn 0.682496 -0.730889 0.000828
vn 0.682496 -0.730889 0.000828
vn 0.682496 -0.730889 0.000828
vn 0.682496 -0.730889 0.000828
vn 0.689957 -0.723842 -0.003529
vn 0.689957 -0.723842 -0.003529
vn -0.595729 0.611250 -0.521037
vn -0.595729 0.611250 -0.521037
vn -0.595729 0.611250 -0.521037
vn -0.595729 0.611250 -0.521037
vn -0.117951 0.118404 -0.985935
vn -0.117951 0.118404 -0.985935
vn -0.117951 0.118404 -0.985935
vn -0.115854 0.120828 -0.985890
vn -0.115854 0.120828 -0.985890
vn -0.112314 0.120231 -0.986372
vn -0.085624 -0.624256 -0.776514
vn -0.085624 -0.624256 -0.776514
vn -0.085624 -0.624256 -0.776514
vn -0.085624 -0.624256 -0.776514
vn -0.144767 0.000000 -0.989466
vn -0.144767 0.000000 -0.989466
vn -0.144767 0.000000 -0.989466
vn 0.000000 -1.000000 0.000000
vn 0.000000 -1.000000 0.000000
vn 0.000000 -1.000000 0.000000
vn 0.000000 -1.000000 0.000000
vn 0.671589 -0.731454 0.118083
vn 0.671589 -0.731454 0.118082
vn 0.671589 -0.731454 0.118083
vn 0.671589 -0.731454 0.118083
vn 0.694259 0.161323 -0.701412
vn 0.694259 0.161323 -0.701412
vn 0.694259 0.161323 -0.701412
vn 0.694259 0.161323 -0.701412
vn 0.074018 0.994506 -0.074018
vn 0.074018 0.994506 -0.074018
vn 0.074018 0.994506 -0.074018
vn 0.074018 0.994506 -0.074018
vn -0.707109 0.000000 0.707105
vn -0.707109 0.000000 0.707105
vn -0.707109 0.000000 0.707105
vn -0.707109 0.000000 0.707105
vn 0.189002 -0.963301 -0.190603
vn 0.189002 -0.963301 -0.190603
vn 0.189002 -0.963301 -0.190603
vn 0.189002 -0.963301 -0.190603
vn 0.000000 0.000000 -1.000000
vn 0.000000 0.000000 -1.000000
vn 0.000000 0.000000 -1.000000
vn 0.000000 0.000000 -1.000000
vn 1.000000 0.000000 0.000000
vn 1.000000 0.000000 0.000000
vn 1.000000 0.000000 0.000000
vn 1.000000 0.000000 0.000000
usemtl material
f 1/0/1 2/0/2 3/0/3
f 1/0/1 3/0/3 4/0/4
f 5/0/5 6/0/6 7/0/7
f 5/0/5 7/0/7 8/0/8
f 8/0/8 7/0/7 9/0/9
f 5/0/5 10/0/10 6/0/6
f 5/0/5 11/0/11 10/0/10
f 12/0/12 13/0/13 14/0/14
f 12/0/12 14/0/14 15/0/15
f 16/0/16 17/0/17 18/0/18
f 16/0/16 18/0/18 19/0/19
f 20/0/20 19/0/19 18/0/18
f 20/0/20 21/0/21 19/0/19
f 22/0/22 21/0/21 20/0/20
f 22/0/22 23/0/23 21/0/21
f 24/0/24 25/0/25 26/0/26
f 24/0/24 26/0/26 27/0/27
f 28/0/28 29/0/29 30/0/30
f 28/0/28 30/0/30 31/0/31
f 32/0/32 29/0/29 28/0/28
f 32/0/32 33/0/33 29/0/29
f 34/0/34 35/0/35 36/0/36
f 34/0/34 36/0/36 37/0/37
f 38/0/38 39/0/39 40/0/40
f 38/0/38 40/0/40 41/0/41
f 42/0/42 43/0/43 44/0/44
f 45/0/45 43/0/43 42/0/42
f 45/0/45 42/0/42 46/0/46
f 45/0/45 46/0/46 47/0/47
f 48/0/48 49/0/49 50/0/50
f 48/0/48 50/0/50 51/0/51
f 52/0/52 53/0/53 54/0/54
f 55/0/55 56/0/56 57/0/57
f 55/0/55 57/0/57 58/0/58
f 59/0/59 60/0/60 61/0/61
f 59/0/59 61/0/61 62/0/62
f 63/0/63 64/0/64 65/0/65
f 63/0/63 65/0/65 66/0/66
f 67/0/67 68/0/68 69/0/69
f 67/0/67 69/0/69 70/0/70
f 71/0/71 72/0/72 73/0/73
f 71/0/71 73/0/73 74/0/74
f 72/0/72 75/0/75 73/0/73
f 71/0/71 74/0/74 76/0/76
f 71/0/71 76/0/76 77/0/77
f 78/0/78 79/0/79 80/0/80
f 78/0/78 80/0/80 81/0/81
f 82/0/82 83/0/83 84/0/84
f 82/0/82 84/0/84 85/0/85
f 86/0/86 87/0/87 88/0/88
f 86/0/86 88/0/88 89/0/89
f 89/0/89 88/0/88 90/0/90
f 89/0/89 90/0/90 91/0/91
f 87/0/87 86/0/86 92/0/92
f 87/0/87 92/0/92 93/0/93
f 94/0/94 95/0/95 96/0/96
f 94/0/94 96/0/96 97/0/97
f 97/0/97 96/0/96 98/0/98
f 97/0/97 98/0/98 99/0/99
f 100/0/100 101/0/101 102/0/102
f 100/0/100 102/0/102 103/0/103
f 104/0/104 105/0/105 106/0/106
f 107/0/107 104/0/104 106/0/106
f 107/0/107 108/0/108 104/0/104
f 107/0/107 109/0/109 108/0/108
f 110/0/110 111/0/111 112/0/112
f 110/0/110 112/0/112 113/0/113
f 114/0/114 115/0/115 116/0/116
f 117/0/117 118/0/118 119/0/119
f 117/0/117 119/0/119 120/0/120
f 121/0/121 122/0/122 123/0/123
f 121/0/121 123/0/123 124/0/124
f 125/0/125 126/0/126 127/0/127
f 125/0/125 127/0/127 128/0/128
f 129/0/129 130/0/130 131/0/131
f 129/0/129 131/0/131 132/0/132
f 133/0/133 134/0/134 135/0/135
f 133/0/133 135/0/135 136/0/136
f 137/0/137 138/0/138 139/0/139
f 137/0/137 139/0/139 140/0/140
f 141/0/141 142/0/142 143/0/143
f 141/0/141 143/0/143 144/0/144
f 145/0/145 146/0/146 147/0/147
f 145/0/145 147/0/147 148/0/148
