# 
# Wavefront OBJ file
# Created with Kaydara FBX
# 
mtllib polysurface15.mtl

g polySurface15
v -0.718653 0.015964 -0.864162
v 0.000000 0.015964 0.000000
v 0.102890 0.015964 -1.119219
v 0.864162 0.015964 -0.718653
v 1.119219 0.015964 0.102890
v 0.718653 0.015964 0.864162
v -0.102890 0.015964 1.119219
v -0.864162 0.015964 0.718653
v -1.119219 0.015964 -0.102890
vt 0.477493 0.349059
vt 0.698238 0.531667
vt 0.606709 0.090363
vt 0.789542 0.090176
vt 0.918984 0.348609
vt 0.918984 0.714275
vt 0.789767 0.972971
vt 0.606934 0.973158
vt 0.477586 0.714725
vn 0.000000 1.000000 0.000000
vn 0.000000 1.000000 0.000000
vn 0.000000 1.000000 0.000000
vn 0.000000 1.000000 0.000000
vn 0.000000 1.000000 0.000000
vn 0.000000 1.000000 0.000000
vn 0.000000 1.000000 0.000000
vn 0.000000 1.000000 0.000000
vn 0.000000 1.000000 0.000000
usemtl material
f 1/0/1 2/0/2 3/0/3
f 3/0/3 2/0/2 4/0/4
f 4/0/4 2/0/2 5/0/5
f 5/0/5 2/0/2 6/0/6
f 6/0/6 2/0/2 7/0/7
f 7/0/7 2/0/2 8/0/8
f 8/0/8 2/0/2 9/0/9
f 9/0/9 2/0/2 1/0/1
