# 
# Wavefront OBJ file
# Created with Kaydara FBX
# 
mtllib polysurface65 #2255862.mtl

g polySurface65
v -271.453735 0.601657 -12.061206
v -271.453735 4.078531 -12.061206
v -275.880859 4.078531 -12.061206
v -275.880859 0.601657 -12.061206
vt 0.000601 0.217541
vt 0.000601 0.454794
vt 0.492846 0.454794
vt 0.492846 0.217541
vn 0.000000 0.000000 1.000000
vn 0.000000 0.000000 1.000000
vn 0.000000 0.000000 1.000000
vn 0.000000 0.000000 1.000000
usemtl material
f 1/0/1 2/0/2 3/0/3
f 1/0/1 3/0/3 4/0/4
