# 
# Wavefront OBJ file
# Created with Kaydara FBX
# 
mtllib polysurface643.mtl

g polySurface643
v -11.552526 0.244547 19.909323
v -11.552526 2.267705 19.909323
v -11.504540 2.321066 19.795324
v -11.504540 0.244547 19.795324
v -11.405984 2.358398 19.720592
v -11.405984 0.244547 19.720592
v -11.405984 0.244547 19.720592
v -11.405984 2.358398 19.720592
v -11.283266 2.358431 19.705149
v -11.283266 0.244547 19.705149
v -11.169268 2.361931 19.753136
v -11.169268 0.244547 19.753136
v -11.094536 2.481543 19.851692
v -11.094536 0.244547 19.851692
v -11.094536 0.244547 19.851692
v -11.094536 2.481543 19.851692
v -11.079092 2.302097 19.974409
v -11.079092 0.244547 19.974409
v -11.079092 0.244547 19.974409
v -11.079092 2.302097 19.974409
v -11.127077 2.226018 20.088408
v -11.127077 0.244547 20.088408
v -11.225635 2.148048 20.163139
v -11.225635 0.244547 20.163139
v -11.225635 0.244547 20.163139
v -11.225635 2.148048 20.163139
v -11.348351 2.240792 20.178583
v -11.348351 0.244547 20.178583
v -11.462351 2.267705 20.130596
v -11.462351 0.244547 20.130596
v -11.462351 0.244547 20.130596
v -11.462351 2.267705 20.130596
v -11.537085 2.252352 20.032040
v -11.537085 0.244547 20.032040
v -11.552526 2.267705 19.909323
v -11.552526 0.244547 19.909323
v -11.462351 2.267705 20.130596
v -11.348351 2.240792 20.178583
v -11.537085 2.252352 20.032040
v -11.537085 2.252352 20.032040
v -11.348351 2.240792 20.178583
v -11.225635 2.148048 20.163139
v -11.552526 2.267705 19.909323
v -11.552526 2.267705 19.909323
v -11.225635 2.148048 20.163139
v -11.127077 2.226018 20.088408
v -11.504540 2.321066 19.795324
v -11.504540 2.321066 19.795324
v -11.127077 2.226018 20.088408
v -11.079092 2.302097 19.974409
v -11.405984 2.358398 19.720592
v -11.405984 2.358398 19.720592
v -11.079092 2.302097 19.974409
v -11.094536 2.481543 19.851692
v -11.283266 2.358431 19.705149
v -11.283266 2.358431 19.705149
v -11.094536 2.481543 19.851692
v -11.169268 2.361931 19.753136
vt 0.734937 0.927047
vt 0.547119 0.927048
vt 0.543922 0.934591
vt 0.734937 0.934591
vt 0.543203 0.942134
vt 0.734937 0.942134
vt 0.734937 0.942134
vt 0.543203 0.942134
vt 0.541022 0.949677
vt 0.734937 0.949677
vt 0.538495 0.957221
vt 0.734937 0.957221
vt 0.526782 0.964764
vt 0.734937 0.964764
vt 0.734937 0.964764
vt 0.526782 0.964764
vt 0.543498 0.972313
vt 0.734937 0.972307
vt 0.734937 0.927000
vt 0.530945 0.927000
vt 0.530161 0.934543
vt 0.734937 0.934543
vt 0.533998 0.942086
vt 0.734937 0.942086
vt 0.734937 0.942086
vt 0.533998 0.942086
vt 0.539119 0.949630
vt 0.734937 0.949630
vt 0.545346 0.957173
vt 0.734937 0.957173
vt 0.734937 0.957173
vt 0.545346 0.957173
vt 0.548108 0.964716
vt 0.734937 0.964716
vt 0.546683 0.972255
vt 0.734937 0.972260
vt 0.106431 0.829195
vt 0.079389 0.830574
vt 0.090224 0.850345
vt 0.090224 0.850345
vt 0.079389 0.830574
vt 0.068551 0.827515
vt 0.087320 0.861760
vt 0.087320 0.861760
vt 0.068551 0.827515
vt 0.057716 0.830573
vt 0.079387 0.870117
vt 0.079387 0.870117
vt 0.057716 0.830573
vt 0.049689 0.838859
vt 0.068554 0.873175
vt 0.068554 0.873175
vt 0.049689 0.838859
vt 0.046886 0.850345
vt 0.054957 0.867233
vt 0.054957 0.867233
vt 0.046886 0.850345
vt 0.048457 0.858263
vn -0.990370 0.000000 -0.138443
vn -0.983785 0.000000 -0.179349
vn -0.748568 0.000000 -0.663058
vn -0.788053 0.000000 -0.615608
vn -0.350602 0.000000 -0.936525
vn -0.376290 0.000000 -0.926502
vn -0.376290 0.000000 -0.926502
vn -0.350602 0.000000 -0.936525
vn 0.138702 0.000000 -0.990334
vn 0.136310 0.000000 -0.990666
vn 0.658509 0.000000 -0.752573
vn 0.616324 0.000000 -0.787493
vn 0.910360 0.000000 -0.413818
vn 0.925351 0.000000 -0.379112
vn 0.925351 0.000000 -0.379112
vn 0.910360 0.000000 -0.413818
vn 0.999869 0.000000 0.016170
vn 0.991768 0.000000 0.128046
vn 0.991768 0.000000 0.128046
vn 0.999869 0.000000 0.016170
vn 0.846886 0.000000 0.531774
vn 0.793038 0.000000 0.609172
vn 0.372296 0.000000 0.928114
vn 0.376921 0.000000 0.926246
vn 0.376921 0.000000 0.926246
vn 0.372296 0.000000 0.928114
vn -0.222862 0.000000 0.974850
vn -0.140211 0.000000 0.990122
vn -0.620420 0.000000 0.784270
vn -0.613595 0.000000 0.789621
vn -0.613595 0.000000 0.789621
vn -0.620420 0.000000 0.784270
vn -0.926052 0.000000 0.377395
vn -0.926052 0.000000 0.377395
vn -0.983785 0.000000 -0.179349
vn -0.990370 0.000000 -0.138443
vn 0.369470 0.833862 -0.410080
vn 0.369470 0.833862 -0.410080
vn 0.369470 0.833862 -0.410080
vn 0.386855 0.899419 -0.203442
vn 0.386855 0.899419 -0.203442
vn 0.386855 0.899419 -0.203442
vn 0.386855 0.899419 -0.203442
vn -0.125970 0.857471 0.498873
vn -0.125970 0.857471 0.498873
vn -0.125970 0.857471 0.498873
vn -0.125970 0.857471 0.498873
vn -0.140225 0.892971 0.427715
vn -0.140225 0.892971 0.427715
vn -0.140225 0.892971 0.427715
vn -0.140225 0.892971 0.427715
vn -0.494369 0.696171 0.520524
vn -0.494369 0.696171 0.520524
vn -0.494369 0.696171 0.520524
vn -0.494369 0.696171 0.520524
vn 0.330507 0.468577 -0.819268
vn 0.330507 0.468577 -0.819268
vn 0.330507 0.468577 -0.819268
usemtl material
f 1/0/1 2/0/2 3/0/3
f 1/0/1 3/0/3 4/0/4
f 4/0/4 3/0/3 5/0/5
f 4/0/4 5/0/5 6/0/6
f 7/0/7 8/0/8 9/0/9
f 7/0/7 9/0/9 10/0/10
f 10/0/10 9/0/9 11/0/11
f 10/0/10 11/0/11 12/0/12
f 12/0/12 11/0/11 13/0/13
f 12/0/12 13/0/13 14/0/14
f 15/0/15 16/0/16 17/0/17
f 15/0/15 17/0/17 18/0/18
f 19/0/19 20/0/20 21/0/21
f 19/0/19 21/0/21 22/0/22
f 22/0/22 21/0/21 23/0/23
f 22/0/22 23/0/23 24/0/24
f 25/0/25 26/0/26 27/0/27
f 25/0/25 27/0/27 28/0/28
f 28/0/28 27/0/27 29/0/29
f 28/0/28 29/0/29 30/0/30
f 31/0/31 32/0/32 33/0/33
f 31/0/31 33/0/33 34/0/34
f 34/0/34 33/0/33 35/0/35
f 34/0/34 35/0/35 36/0/36
f 37/0/37 38/0/38 39/0/39
f 40/0/40 41/0/41 42/0/42
f 40/0/40 42/0/42 43/0/43
f 44/0/44 45/0/45 46/0/46
f 44/0/44 46/0/46 47/0/47
f 48/0/48 49/0/49 50/0/50
f 48/0/48 50/0/50 51/0/51
f 52/0/52 53/0/53 54/0/54
f 52/0/52 54/0/54 55/0/55
f 56/0/56 57/0/57 58/0/58
