# 
# Wavefront OBJ file
# Created with Kaydara FBX
# 
mtllib poly02 #2279315.mtl

g Poly02
v -18.653145 3.518027 19.983107
v -22.722250 3.519314 24.388584
v -18.650166 3.517908 38.530300
v -22.422558 3.519289 27.644932
v -22.722542 3.519291 27.440643
v -22.422747 3.519275 29.567558
v -22.723059 3.519251 32.849297
v -24.052738 3.519664 34.253231
v -24.041708 3.519667 33.501045
v -22.722769 3.519274 29.771856
v -21.782394 3.519727 51.380741
v -27.100527 3.520881 48.057655
v -24.054585 3.519750 22.608856
v -24.044834 3.519742 23.693066
v -24.472843 3.519941 12.608867
v -27.391811 3.520837 19.307402
v -27.383148 3.520873 12.379501
v -34.976154 3.270200 48.586468
v -29.891283 3.270187 30.653704
v -36.552769 3.270206 30.565647
v -29.891281 3.270186 26.544950
v -36.905041 3.270208 26.539198
v -28.586086 3.270183 47.169521
v -27.107059 3.270178 32.674931
v -25.819826 3.270173 34.148758
v -25.821724 3.270175 33.353786
v -38.393719 3.270212 9.523526
v -36.905041 3.270208 26.539198
v -33.422211 3.270197 14.733155
v -29.891281 3.270186 26.544950
v -28.583435 3.270183 19.815363
v -27.116568 3.270178 24.523710
v -25.829800 3.270175 23.846630
v -25.832226 3.270175 22.846874
v -38.878593 3.127621 8.475206
v -33.344891 3.127475 14.309913
v -34.256336 3.064100 6.837745
v -39.287136 3.064099 1.956788
v -28.590044 3.064100 12.502197
v -28.562494 3.127330 19.289776
v -27.171406 3.337935 32.506336
v -27.174782 3.337936 29.771847
v -29.818520 3.337939 30.586552
v -27.475010 3.337936 29.567551
v -29.818520 3.337939 26.611877
v -27.477182 3.337936 27.644934
v -27.177414 3.337936 27.440647
v -27.180790 3.337935 24.666182
vt 0.217862 0.019880
vt 0.320806 0.122730
vt 0.667558 0.037451
vt 0.400044 0.118561
vt 0.394806 0.125640
vt 0.446660 0.120395
vt 0.525943 0.130798
vt 0.558718 0.164373
vt 0.540491 0.163390
vt 0.451328 0.127864
vt 0.976150 0.125619
vt 0.890519 0.251401
vt 0.276387 0.153341
vt 0.302684 0.154136
vt 0.033530 0.153969
vt 0.193166 0.231114
vt 0.025201 0.224314
vt 0.895849 0.442856
vt 0.465890 0.302510
vt 0.457418 0.463940
vt 0.366269 0.298601
vt 0.359458 0.468651
vt 0.867655 0.286612
vt 0.517545 0.236926
vt 0.554504 0.207118
vt 0.535227 0.206408
vt 0.199705 0.932205
vt 0.613682 0.912297
vt 0.330747 0.816622
vt 0.620493 0.742247
vt 0.458573 0.704136
vt 0.574126 0.673049
vt 0.558934 0.641206
vt 0.534691 0.640314
vt 0.173826 0.942964
vt 0.320559 0.814344
vt 0.138522 0.829335
vt 0.015393 0.946669
vt 0.281252 0.697339
vt 0.445849 0.703128
vt 0.513396 0.238326
vt 0.447092 0.235807
vt 0.464331 0.300682
vt 0.441854 0.242892
vt 0.367961 0.296901
vt 0.395236 0.241115
vt 0.390568 0.233653
vt 0.323295 0.231096
vn 0.000322 1.000000 0.000006
vn 0.000322 1.000000 0.000004
vn 0.000309 1.000000 -0.000027
vn 0.000359 1.000000 -0.000023
vn 0.000001 1.000000 0.000007
vn 0.000264 1.000000 0.000011
vn 0.000292 1.000000 0.000022
vn 0.000314 1.000000 -0.000009
vn 0.000320 1.000000 0.000009
vn 0.000000 1.000000 0.000007
vn 0.000303 1.000000 -0.000044
vn 0.000303 1.000000 -0.000044
vn 0.000321 1.000000 0.000005
vn 0.000321 1.000000 0.000005
vn 0.000320 1.000000 0.000006
vn 0.000320 1.000000 0.000006
vn 0.000320 1.000000 0.000005
vn 0.000003 1.000000 0.000000
vn 0.000003 1.000000 0.000000
vn 0.000003 1.000000 0.000000
vn 0.000003 1.000000 0.000000
vn 0.000003 1.000000 0.000000
vn 0.000003 1.000000 0.000000
vn 0.000003 1.000000 0.000000
vn 0.000003 1.000000 0.000000
vn 0.000003 1.000000 0.000000
vn 0.217689 0.953804 -0.207051
vn 0.000003 1.000000 0.000000
vn 0.135055 0.982416 -0.128917
vn 0.000003 1.000000 0.000000
vn 0.056450 0.996946 -0.053972
vn 0.000003 1.000000 0.000000
vn 0.000003 1.000000 0.000000
vn 0.000003 1.000000 0.000000
vn 0.042471 0.998269 -0.040696
vn 0.140650 0.980931 -0.134136
vn 0.137036 0.980415 -0.141451
vn 0.242966 0.936373 -0.253322
vn 0.111231 0.990583 -0.079833
vn 0.203565 0.959508 -0.194693
vn 0.000001 1.000000 0.000000
vn 0.000001 1.000000 -0.000000
vn 0.000001 1.000000 0.000000
vn 0.000001 1.000000 -0.000001
vn 0.000001 1.000000 0.000000
vn 0.000001 1.000000 0.000001
vn 0.000001 1.000000 0.000000
vn 0.000001 1.000000 -0.000000
usemtl material
f 1/0/1 2/0/2 3/0/3
f 2/0/2 4/0/4 3/0/3
f 5/0/5 4/0/4 2/0/2
f 4/0/4 6/0/6 3/0/3
f 3/0/3 6/0/6 7/0/7
f 8/0/8 3/0/3 7/0/7
f 9/0/9 8/0/8 7/0/7
f 10/0/10 7/0/7 6/0/6
f 11/0/11 3/0/3 8/0/8
f 11/0/11 8/0/8 12/0/12
f 2/0/2 1/0/1 13/0/13
f 14/0/14 2/0/2 13/0/13
f 1/0/1 15/0/15 13/0/13
f 13/0/13 15/0/15 16/0/16
f 17/0/17 16/0/16 15/0/15
f 18/0/18 19/0/19 20/0/20
f 19/0/19 21/0/21 20/0/20
f 22/0/22 20/0/20 21/0/21
f 18/0/18 23/0/23 19/0/19
f 19/0/19 23/0/23 24/0/24
f 24/0/24 23/0/23 25/0/25
f 26/0/26 24/0/24 25/0/25
f 27/0/27 28/0/28 29/0/29
f 29/0/29 28/0/28 30/0/30
f 29/0/29 30/0/30 31/0/31
f 30/0/30 32/0/32 31/0/31
f 32/0/32 33/0/33 31/0/31
f 31/0/31 33/0/33 34/0/34
f 35/0/35 36/0/36 37/0/37
f 35/0/35 37/0/37 38/0/38
f 39/0/39 37/0/37 36/0/36
f 39/0/39 36/0/36 40/0/40
f 41/0/41 42/0/42 43/0/43
f 42/0/42 44/0/44 43/0/43
f 43/0/43 44/0/44 45/0/45
f 44/0/44 46/0/46 45/0/45
f 47/0/47 45/0/45 46/0/46
f 48/0/48 45/0/45 47/0/47
