# 
# Wavefront OBJ file
# Created with Kaydara FBX
# 
mtllib polysurface695.mtl

g polySurface695
v 57.610733 4.558457 -40.439808
v 57.610733 4.492587 -40.439808
v 58.122753 4.492587 -39.927788
v 58.122753 4.558457 -39.927788
v 57.610733 4.272711 -40.439808
v 57.516541 4.447364 -40.533997
v 57.472050 4.272711 -40.578487
v 57.488739 4.167442 -40.561802
v 57.610733 4.137949 -40.439808
v 57.540180 4.096053 -40.510361
v 57.610733 4.072458 -40.439808
v 57.705429 4.137949 -40.345112
v 57.721237 4.203476 -40.329300
v 57.737938 4.272711 -40.312599
v 57.993397 4.272711 -40.057144
v 58.010468 4.201968 -40.040073
v 58.122753 4.272711 -39.927788
v 58.225643 4.439499 -39.824898
v 58.252060 4.272711 -39.798481
v 58.235378 4.165476 -39.815163
v 58.122753 4.137949 -39.927788
v 58.190887 4.092120 -39.859653
v 58.122753 4.072458 -39.927788
v 58.025906 4.137949 -40.024632
v 57.938145 4.558457 -40.767220
v 58.450165 4.558457 -40.255196
v 58.450165 4.492587 -40.255196
v 57.938145 4.492587 -40.767220
v 57.938145 4.272711 -40.767216
v 57.843952 4.447364 -40.861404
v 57.799461 4.272711 -40.905899
v 57.816147 4.167442 -40.889214
v 57.938145 4.137949 -40.767216
v 57.867588 4.096053 -40.837772
v 57.938145 4.072458 -40.767220
v 58.032841 4.137949 -40.672520
v 58.048645 4.203476 -40.656712
v 58.065350 4.272711 -40.640007
v 58.320805 4.272711 -40.384556
v 58.337875 4.201968 -40.367485
v 58.450165 4.272711 -40.255196
v 58.553055 4.439499 -40.152306
v 58.579472 4.272711 -40.125889
v 58.562786 4.165476 -40.142570
v 58.450165 4.137949 -40.255196
v 58.518295 4.092120 -40.187065
v 58.450165 4.072458 -40.255196
v 58.353317 4.137949 -40.352039
v 57.938145 4.558457 -40.767220
v 57.938145 4.492587 -40.767220
v 57.610733 4.492587 -40.439808
v 57.610733 4.558457 -40.439808
v 58.450165 4.492587 -40.255196
v 58.450165 4.558457 -40.255196
v 58.122753 4.558457 -39.927788
v 58.122753 4.492587 -39.927788
v 58.450165 4.558457 -40.255196
v 57.938145 4.558457 -40.767220
v 57.610733 4.558457 -40.439808
v 58.122753 4.558457 -39.927788
v 57.843952 4.447364 -40.861404
v 57.799461 4.272711 -40.905899
v 57.472050 4.272711 -40.578487
v 57.516541 4.447364 -40.533997
v 57.938145 4.492587 -40.767220
v 57.843952 4.447364 -40.861404
v 57.516541 4.447364 -40.533997
v 57.610733 4.492587 -40.439808
v 57.799461 4.272711 -40.905899
v 57.816147 4.167442 -40.889214
v 57.488739 4.167442 -40.561802
v 57.472050 4.272711 -40.578487
v 57.816147 4.167442 -40.889214
v 57.867588 4.096053 -40.837772
v 57.540180 4.096053 -40.510361
v 57.488739 4.167442 -40.561802
v 57.867588 4.096053 -40.837772
v 57.938145 4.072458 -40.767220
v 57.610733 4.072458 -40.439808
v 57.540180 4.096053 -40.510361
v 58.450165 4.072458 -40.255196
v 58.518295 4.092120 -40.187065
v 58.190887 4.092120 -39.859653
v 58.122753 4.072458 -39.927788
v 58.518295 4.092120 -40.187065
v 58.562786 4.165476 -40.142570
v 58.235378 4.165476 -39.815163
v 58.190887 4.092120 -39.859653
v 58.562786 4.165476 -40.142570
v 58.579472 4.272711 -40.125889
v 58.252060 4.272711 -39.798481
v 58.235378 4.165476 -39.815163
v 58.553055 4.439499 -40.152306
v 58.450165 4.492587 -40.255196
v 58.122753 4.492587 -39.927788
v 58.225643 4.439499 -39.824898
v 58.579472 4.272711 -40.125889
v 58.553055 4.439499 -40.152306
v 58.225643 4.439499 -39.824898
v 58.252060 4.272711 -39.798481
v 57.938145 4.072458 -40.767220
v 58.032841 4.137949 -40.672520
v 57.705429 4.137949 -40.345112
v 57.610733 4.072458 -40.439808
v 58.032841 4.137949 -40.672520
v 58.048645 4.203476 -40.656712
v 57.721237 4.203476 -40.329300
v 57.705429 4.137949 -40.345112
v 58.048645 4.203476 -40.656712
v 58.337875 4.201968 -40.367485
v 58.010468 4.201968 -40.040073
v 57.721237 4.203476 -40.329300
v 58.353317 4.137949 -40.352039
v 58.450165 4.072458 -40.255196
v 58.122753 4.072458 -39.927788
v 58.025906 4.137949 -40.024632
v 58.337875 4.201968 -40.367485
v 58.353317 4.137949 -40.352039
v 58.025906 4.137949 -40.024632
v 58.010468 4.201968 -40.040073
v 58.265999 0.019513 -40.405273
v 58.265999 4.197764 -40.405273
v 58.265999 4.197764 -40.281590
v 58.265999 0.019513 -40.281590
v 58.204159 4.197764 -40.174473
v 58.204159 0.019513 -40.174473
v 58.097038 4.197764 -40.112633
v 58.097038 0.019513 -40.112633
v 57.973358 4.197764 -40.112633
v 57.973358 0.019513 -40.112633
v 57.973358 0.019513 -40.112633
v 57.973358 4.197764 -40.112633
v 57.866238 4.197764 -40.174473
v 57.866238 0.019513 -40.174473
v 57.804398 4.197764 -40.281590
v 57.804398 0.019513 -40.281590
v 57.804398 0.019513 -40.281590
v 57.804398 4.197764 -40.281590
v 57.804398 4.197764 -40.405277
v 57.804398 0.019513 -40.405277
v 57.804398 0.019513 -40.405277
v 57.804398 4.197764 -40.405277
v 57.866238 4.197764 -40.512390
v 57.866238 0.019513 -40.512390
v 57.973354 4.197764 -40.574234
v 57.973354 0.019513 -40.574234
v 58.097038 4.197764 -40.574234
v 58.097038 0.019513 -40.574234
v 58.097038 0.019513 -40.574234
v 58.097038 4.197764 -40.574234
v 58.204159 4.197764 -40.512390
v 58.204159 0.019513 -40.512390
v 58.265999 4.197764 -40.405273
v 58.265999 0.019513 -40.405273
vt 0.309986 0.916865
vt 0.314493 0.916865
vt 0.314493 0.982608
vt 0.309986 0.982608
vt 0.334514 0.916836
vt 0.319632 0.905309
vt 0.334595 0.898857
vt 0.344532 0.901972
vt 0.346896 0.916879
vt 0.349518 0.908190
vt 0.351412 0.917003
vt 0.346892 0.929029
vt 0.340874 0.931047
vt 0.334515 0.933179
vt 0.334519 0.965999
vt 0.341005 0.968178
vt 0.334520 0.982618
vt 0.320234 0.994738
vt 0.334617 0.999376
vt 0.344682 0.996237
vt 0.346870 0.982576
vt 0.349639 0.990842
vt 0.351313 0.982465
vt 0.346875 0.970150
vt 0.309986 0.916865
vt 0.309986 0.982608
vt 0.314493 0.982608
vt 0.314493 0.916865
vt 0.334514 0.916836
vt 0.319632 0.905309
vt 0.334595 0.898857
vt 0.344532 0.901972
vt 0.346896 0.916879
vt 0.349518 0.908190
vt 0.351412 0.917003
vt 0.346892 0.929029
vt 0.340874 0.931047
vt 0.334515 0.933179
vt 0.334519 0.965999
vt 0.341005 0.968178
vt 0.334520 0.982618
vt 0.320234 0.994738
vt 0.334617 0.999376
vt 0.344682 0.996237
vt 0.346870 0.982576
vt 0.349639 0.990842
vt 0.351313 0.982465
vt 0.346875 0.970150
vt 0.314493 0.916865
vt 0.309986 0.916865
vt 0.309986 0.982608
vt 0.314493 0.982608
vt 0.314493 0.916865
vt 0.309986 0.916865
vt 0.309986 0.982608
vt 0.314493 0.982608
vt 0.029125 0.822952
vt 0.029125 0.874103
vt 0.123294 0.874103
vt 0.123294 0.822952
vt 0.016585 0.874753
vt 0.026742 0.874753
vt 0.026742 0.823466
vt 0.016585 0.823466
vt 0.008888 0.874753
vt 0.016585 0.874753
vt 0.016585 0.823466
vt 0.008888 0.823466
vt 0.026742 0.874753
vt 0.032645 0.874753
vt 0.032645 0.823466
vt 0.026742 0.823466
vt 0.032645 0.874753
vt 0.038222 0.874753
vt 0.038222 0.823466
vt 0.032645 0.823466
vt 0.038222 0.874753
vt 0.043832 0.874753
vt 0.043832 0.823466
vt 0.038222 0.823466
vt 0.090165 0.874752
vt 0.095546 0.874753
vt 0.095546 0.823465
vt 0.090165 0.823465
vt 0.095546 0.874753
vt 0.100834 0.874753
vt 0.100833 0.823466
vt 0.095546 0.823465
vt 0.100834 0.874753
vt 0.106842 0.874753
vt 0.106842 0.823465
vt 0.100833 0.823466
vt 0.116194 0.874753
vt 0.124668 0.874752
vt 0.124669 0.823465
vt 0.116194 0.823465
vt 0.106842 0.874753
vt 0.116194 0.874753
vt 0.116194 0.823465
vt 0.106842 0.823465
vt 0.043832 0.874753
vt 0.051989 0.874753
vt 0.051989 0.823466
vt 0.043832 0.823466
vt 0.051989 0.874753
vt 0.055778 0.874753
vt 0.055777 0.823466
vt 0.051989 0.823466
vt 0.055778 0.874753
vt 0.078158 0.874753
vt 0.078158 0.823466
vt 0.055777 0.823466
vt 0.081859 0.874753
vt 0.090165 0.874752
vt 0.090165 0.823465
vt 0.081859 0.823466
vt 0.078158 0.874753
vt 0.081859 0.874753
vt 0.081859 0.823466
vt 0.078158 0.823466
vt 0.734937 0.927047
vt 0.346145 0.927047
vt 0.346145 0.934590
vt 0.734937 0.934591
vt 0.346145 0.942134
vt 0.734937 0.942134
vt 0.346145 0.949677
vt 0.734937 0.949677
vt 0.346145 0.957221
vt 0.734937 0.957221
vt 0.734937 0.957221
vt 0.346145 0.957221
vt 0.346145 0.964764
vt 0.734937 0.964764
vt 0.346145 0.972307
vt 0.734937 0.972307
vt 0.734937 0.927000
vt 0.346145 0.927000
vt 0.346145 0.934543
vt 0.734937 0.934543
vt 0.734937 0.934543
vt 0.346145 0.934543
vt 0.346145 0.942086
vt 0.734937 0.942086
vt 0.346145 0.949630
vt 0.734937 0.949630
vt 0.346145 0.957173
vt 0.734937 0.957173
vt 0.734937 0.957173
vt 0.346145 0.957173
vt 0.346145 0.964716
vt 0.734937 0.964716
vt 0.346145 0.972260
vt 0.734937 0.972260
vn -0.707107 0.000000 0.707107
vn -0.707106 0.000001 0.707108
vn -0.707106 0.000000 0.707107
vn -0.707107 0.000000 0.707107
vn -0.707106 -0.000002 0.707108
vn -0.707108 0.000012 0.707105
vn -0.707113 -0.000008 0.707101
vn -0.707119 -0.000042 0.707095
vn -0.707109 -0.000029 0.707105
vn -0.707119 -0.000094 0.707095
vn -0.707118 -0.000065 0.707095
vn -0.707095 0.000000 0.707119
vn -0.707093 0.000000 0.707120
vn -0.707105 -0.000005 0.707109
vn -0.707105 -0.000005 0.707108
vn -0.707108 -0.000058 0.707106
vn -0.707107 -0.000002 0.707107
vn -0.707113 0.000000 0.707101
vn -0.707112 -0.000008 0.707101
vn -0.707109 -0.000017 0.707104
vn -0.707106 -0.000007 0.707108
vn -0.707093 0.000000 0.707120
vn -0.707099 0.000000 0.707114
vn -0.707105 0.000000 0.707109
vn 0.707109 0.000000 -0.707105
vn 0.707109 0.000000 -0.707105
vn 0.707107 -0.000008 -0.707106
vn 0.707108 -0.000007 -0.707106
vn 0.707108 -0.000008 -0.707106
vn 0.707105 0.000000 -0.707108
vn 0.707104 0.000000 -0.707109
vn 0.707105 -0.000004 -0.707109
vn 0.707109 -0.000008 -0.707104
vn 0.707114 -0.000041 -0.707099
vn 0.707108 -0.000005 -0.707105
vn 0.707114 -0.000014 -0.707100
vn 0.707115 -0.000018 -0.707099
vn 0.707108 -0.000007 -0.707106
vn 0.707107 -0.000007 -0.707106
vn 0.707105 0.000022 -0.707108
vn 0.707106 -0.000010 -0.707108
vn 0.707101 -0.000009 -0.707113
vn 0.707101 -0.000006 -0.707113
vn 0.707102 0.000000 -0.707112
vn 0.707105 -0.000007 -0.707108
vn 0.707110 0.000000 -0.707104
vn 0.707111 0.000000 -0.707103
vn 0.707105 -0.000017 -0.707108
vn -0.707104 0.000000 -0.707110
vn -0.707104 0.000000 -0.707110
vn -0.707104 0.000000 -0.707110
vn -0.707104 0.000000 -0.707110
vn 0.707100 0.000000 0.707113
vn 0.707100 0.000000 0.707113
vn 0.707100 0.000000 0.707113
vn 0.707100 0.000000 0.707113
vn 0.000000 1.000000 -0.000001
vn 0.000000 1.000000 -0.000001
vn 0.000000 1.000000 -0.000001
vn 0.000000 1.000000 -0.000001
vn -0.665252 0.338927 -0.665258
vn -0.665252 0.338927 -0.665258
vn -0.665252 0.338927 -0.665258
vn -0.665252 0.338927 -0.665258
vn -0.227317 0.946918 -0.227320
vn -0.227317 0.946918 -0.227320
vn -0.227317 0.946918 -0.227320
vn -0.227317 0.946918 -0.227320
vn -0.689988 -0.218710 -0.689988
vn -0.689988 -0.218710 -0.689988
vn -0.689988 -0.218710 -0.689988
vn -0.689988 -0.218710 -0.689988
vn -0.495259 -0.713752 -0.495255
vn -0.495259 -0.713752 -0.495255
vn -0.495259 -0.713752 -0.495255
vn -0.495259 -0.713752 -0.495255
vn -0.162727 -0.973160 -0.162728
vn -0.162727 -0.973160 -0.162728
vn -0.162727 -0.973160 -0.162728
vn -0.162727 -0.973160 -0.162728
vn 0.141383 -0.979807 0.141380
vn 0.141383 -0.979807 0.141380
vn 0.141383 -0.979807 0.141380
vn 0.141383 -0.979807 0.141380
vn 0.536715 -0.651059 0.536711
vn 0.536715 -0.651059 0.536711
vn 0.536715 -0.651059 0.536711
vn 0.536715 -0.651059 0.536711
vn 0.690589 -0.214898 0.690583
vn 0.690589 -0.214898 0.690583
vn 0.690589 -0.214898 0.690583
vn 0.690589 -0.214898 0.690583
vn 0.242353 0.939429 0.242358
vn 0.242353 0.939429 0.242358
vn 0.242353 0.939429 0.242358
vn 0.242353 0.939429 0.242358
vn 0.690006 0.218576 0.690012
vn 0.690006 0.218576 0.690012
vn 0.690006 0.218576 0.690012
vn 0.690006 0.218576 0.690012
vn 0.310629 -0.898342 0.310632
vn 0.310629 -0.898342 0.310632
vn 0.310629 -0.898342 0.310632
vn 0.310629 -0.898342 0.310632
vn 0.669234 -0.322874 0.669237
vn 0.669234 -0.322874 0.669237
vn 0.669234 -0.322874 0.669237
vn 0.669234 -0.322874 0.669237
vn -0.002607 -0.999993 -0.002607
vn -0.002607 -0.999993 -0.002607
vn -0.002607 -0.999993 -0.002607
vn -0.002607 -0.999993 -0.002607
vn -0.305041 -0.902163 -0.305043
vn -0.305041 -0.902163 -0.305043
vn -0.305041 -0.902163 -0.305043
vn -0.305041 -0.902163 -0.305043
vn -0.669239 -0.322865 -0.669236
vn -0.669239 -0.322865 -0.669236
vn -0.669239 -0.322865 -0.669236
vn -0.669239 -0.322865 -0.669236
vn 0.965929 0.000000 -0.258806
vn 0.965929 0.000000 -0.258806
vn 0.965928 0.000000 0.258809
vn 0.965928 0.000000 0.258809
vn 0.707097 0.000000 0.707117
vn 0.707097 0.000000 0.707117
vn 0.258812 0.000000 0.965928
vn 0.258812 0.000000 0.965928
vn -0.258812 0.000000 0.965928
vn -0.258812 0.000000 0.965928
vn -0.258812 0.000000 0.965928
vn -0.258812 0.000000 0.965928
vn -0.707103 0.000000 0.707110
vn -0.707103 0.000000 0.707110
vn -0.965929 0.000000 0.258806
vn -0.965929 0.000000 0.258806
vn -0.965929 0.000000 0.258806
vn -0.965929 0.000000 0.258806
vn -0.965928 0.000000 -0.258809
vn -0.965928 0.000000 -0.258809
vn -0.965928 0.000000 -0.258809
vn -0.965928 0.000000 -0.258809
vn -0.707107 0.000000 -0.707106
vn -0.707107 0.000000 -0.707106
vn -0.258812 0.000000 -0.965928
vn -0.258812 0.000000 -0.965928
vn 0.258807 0.000000 -0.965929
vn 0.258807 0.000000 -0.965929
vn 0.258807 0.000000 -0.965929
vn 0.258807 0.000000 -0.965929
vn 0.707103 0.000000 -0.707110
vn 0.707103 0.000000 -0.707110
vn 0.965929 0.000000 -0.258806
vn 0.965929 0.000000 -0.258806
usemtl material
f 1/0/1 2/0/2 3/0/3
f 1/0/1 3/0/3 4/0/4
f 3/0/3 2/0/2 5/0/5
f 6/0/6 5/0/5 2/0/2
f 6/0/6 7/0/7 5/0/5
f 5/0/5 7/0/7 8/0/8
f 5/0/5 8/0/8 9/0/9
f 9/0/9 8/0/8 10/0/10
f 9/0/9 10/0/10 11/0/11
f 11/0/11 12/0/12 9/0/9
f 5/0/5 9/0/9 12/0/12
f 12/0/12 13/0/13 5/0/5
f 13/0/13 14/0/14 5/0/5
f 5/0/5 14/0/14 3/0/3
f 13/0/13 15/0/15 14/0/14
f 14/0/14 15/0/15 3/0/3
f 13/0/13 16/0/16 15/0/15
f 15/0/15 17/0/17 3/0/3
f 17/0/17 15/0/15 16/0/16
f 18/0/18 3/0/3 17/0/17
f 18/0/18 17/0/17 19/0/19
f 17/0/17 20/0/20 19/0/19
f 17/0/17 21/0/21 20/0/20
f 21/0/21 17/0/17 16/0/16
f 21/0/21 22/0/22 20/0/20
f 21/0/21 23/0/23 22/0/22
f 24/0/24 23/0/23 21/0/21
f 16/0/16 24/0/24 21/0/21
f 25/0/25 26/0/26 27/0/27
f 25/0/25 27/0/27 28/0/28
f 29/0/29 28/0/28 27/0/27
f 30/0/30 28/0/28 29/0/29
f 30/0/30 29/0/29 31/0/31
f 29/0/29 32/0/32 31/0/31
f 29/0/29 33/0/33 32/0/32
f 33/0/33 34/0/34 32/0/32
f 33/0/33 35/0/35 34/0/34
f 35/0/35 33/0/33 36/0/36
f 37/0/37 36/0/36 33/0/33
f 33/0/33 29/0/29 37/0/37
f 29/0/29 38/0/38 37/0/37
f 38/0/38 29/0/29 27/0/27
f 37/0/37 38/0/38 39/0/39
f 39/0/39 38/0/38 27/0/27
f 37/0/37 39/0/39 40/0/40
f 27/0/27 41/0/41 39/0/39
f 40/0/40 39/0/39 41/0/41
f 42/0/42 41/0/41 27/0/27
f 42/0/42 43/0/43 41/0/41
f 41/0/41 43/0/43 44/0/44
f 41/0/41 44/0/44 45/0/45
f 45/0/45 44/0/44 46/0/46
f 45/0/45 46/0/46 47/0/47
f 48/0/48 45/0/45 47/0/47
f 41/0/41 45/0/45 48/0/48
f 48/0/48 40/0/40 41/0/41
f 49/0/49 50/0/50 51/0/51
f 49/0/49 51/0/51 52/0/52
f 53/0/53 54/0/54 55/0/55
f 53/0/53 55/0/55 56/0/56
f 57/0/57 58/0/58 59/0/59
f 57/0/57 59/0/59 60/0/60
f 61/0/61 62/0/62 63/0/63
f 61/0/61 63/0/63 64/0/64
f 65/0/65 66/0/66 67/0/67
f 65/0/65 67/0/67 68/0/68
f 69/0/69 70/0/70 71/0/71
f 69/0/69 71/0/71 72/0/72
f 73/0/73 74/0/74 75/0/75
f 73/0/73 75/0/75 76/0/76
f 77/0/77 78/0/78 79/0/79
f 77/0/77 79/0/79 80/0/80
f 81/0/81 82/0/82 83/0/83
f 81/0/81 83/0/83 84/0/84
f 85/0/85 86/0/86 87/0/87
f 85/0/85 87/0/87 88/0/88
f 89/0/89 90/0/90 91/0/91
f 89/0/89 91/0/91 92/0/92
f 93/0/93 94/0/94 95/0/95
f 93/0/93 95/0/95 96/0/96
f 97/0/97 98/0/98 99/0/99
f 97/0/97 99/0/99 100/0/100
f 101/0/101 102/0/102 103/0/103
f 101/0/101 103/0/103 104/0/104
f 105/0/105 106/0/106 107/0/107
f 105/0/105 107/0/107 108/0/108
f 109/0/109 110/0/110 111/0/111
f 109/0/109 111/0/111 112/0/112
f 113/0/113 114/0/114 115/0/115
f 113/0/113 115/0/115 116/0/116
f 117/0/117 118/0/118 119/0/119
f 117/0/117 119/0/119 120/0/120
f 121/0/121 122/0/122 123/0/123
f 121/0/121 123/0/123 124/0/124
f 124/0/124 123/0/123 125/0/125
f 124/0/124 125/0/125 126/0/126
f 126/0/126 125/0/125 127/0/127
f 126/0/126 127/0/127 128/0/128
f 128/0/128 127/0/127 129/0/129
f 128/0/128 129/0/129 130/0/130
f 131/0/131 132/0/132 133/0/133
f 131/0/131 133/0/133 134/0/134
f 134/0/134 133/0/133 135/0/135
f 134/0/134 135/0/135 136/0/136
f 137/0/137 138/0/138 139/0/139
f 137/0/137 139/0/139 140/0/140
f 141/0/141 142/0/142 143/0/143
f 141/0/141 143/0/143 144/0/144
f 144/0/144 143/0/143 145/0/145
f 144/0/144 145/0/145 146/0/146
f 146/0/146 145/0/145 147/0/147
f 146/0/146 147/0/147 148/0/148
f 149/0/149 150/0/150 151/0/151
f 149/0/149 151/0/151 152/0/152
f 152/0/152 151/0/151 153/0/153
f 152/0/152 153/0/153 154/0/154
