# 
# Wavefront OBJ file
# Created with Kaydara FBX
# 
mtllib polysurface299.mtl

g polySurface299
v 0.144949 -0.399056 0.199249
v 0.025839 -0.399056 0.247373
v 0.025839 -0.346721 0.247373
v 0.144949 -0.346721 0.199249
v 0.153568 -0.175942 0.261542
v 0.062911 -0.175942 0.298170
v 0.062911 0.185932 0.298170
v 0.153568 0.185932 0.261542
v 0.144949 0.201564 0.199249
v 0.025839 0.201564 0.247373
v 0.025839 0.336721 0.247373
v 0.144949 0.336721 0.199249
v 0.035837 0.178056 0.272119
v 0.082061 0.372709 0.386529
v 0.035837 0.372709 0.272119
v 0.025839 0.201564 0.247373
v 0.025839 0.336721 0.247373
v 0.020655 0.399056 0.234543
v 0.012221 0.365247 0.213668
v 0.035837 -0.324165 0.272119
v 0.082061 -0.399056 0.386529
v 0.025839 -0.346721 0.247373
v 0.025839 -0.399056 0.247373
v 0.154947 -0.324165 0.223995
v 0.201172 -0.399056 0.338405
v 0.144949 -0.399056 0.199249
v 0.144949 -0.346721 0.199249
v 0.154947 0.178056 0.223995
v 0.201172 0.372709 0.338405
v 0.154947 0.372709 0.223995
v 0.144949 0.336721 0.199249
v 0.144949 0.201564 0.199249
v 0.131332 0.365247 0.165544
v 0.139766 0.399056 0.186419
v 0.153568 0.185932 0.261542
v 0.062911 0.185932 0.298170
v 0.051408 0.199835 0.269697
v 0.142064 0.199835 0.233069
v 0.020655 0.399056 0.234543
v 0.139766 0.399056 0.186419
v 0.131332 0.365247 0.165544
v 0.012221 0.365247 0.213668
v 0.144949 0.336721 0.199249
v 0.025839 0.336721 0.247373
v 0.012221 0.365247 0.213668
v 0.131332 0.365247 0.165544
v 0.035837 0.372709 0.272119
v 0.154947 0.372709 0.223995
v 0.139766 0.399056 0.186419
v 0.020655 0.399056 0.234543
v 0.035837 -0.324165 0.272119
v 0.035837 0.178056 0.272119
v 0.050064 0.178056 0.266370
v 0.050064 -0.324165 0.266370
v 0.154947 0.178056 0.223995
v 0.154947 -0.324165 0.223995
v 0.140720 -0.324165 0.229743
v 0.140720 0.178056 0.229743
v 0.154947 -0.324165 0.223995
v 0.144949 -0.346721 0.199249
v 0.133728 -0.339940 0.212437
v 0.140720 -0.324165 0.229743
v 0.043072 -0.339940 0.249064
v 0.025839 -0.346721 0.247373
v 0.050064 -0.324165 0.266370
v 0.035837 -0.324165 0.272119
v 0.035837 0.178056 0.272119
v 0.025839 0.201564 0.247373
v 0.043315 0.193923 0.249668
v 0.050064 0.178056 0.266370
v 0.133972 0.193923 0.213040
v 0.144949 0.201564 0.199249
v 0.140720 0.178056 0.229743
v 0.154947 0.178056 0.223995
v 0.133728 -0.339940 0.212437
v 0.043072 -0.339940 0.249064
v 0.046460 -0.370600 0.257451
v 0.137116 -0.370600 0.220823
v 0.050064 0.178056 0.266370
v 0.043315 0.193923 0.249668
v 0.051408 0.199835 0.269697
v 0.062911 0.185932 0.298170
v 0.054936 -0.156461 0.278429
v 0.050064 -0.324165 0.266370
v 0.054936 -0.370597 0.278429
v 0.043072 -0.339940 0.249064
v 0.046460 -0.370600 0.257451
v 0.056930 -0.156461 0.283364
v 0.058924 -0.175942 0.288300
v 0.062911 -0.175942 0.298170
v 0.043315 0.193923 0.249668
v 0.133972 0.193923 0.213040
v 0.142064 0.199835 0.233069
v 0.051408 0.199835 0.269697
v 0.133972 0.193923 0.213040
v 0.140720 0.178056 0.229743
v 0.153568 0.185932 0.261542
v 0.142064 0.199835 0.233069
v 0.147586 -0.156461 0.246737
v 0.153568 -0.175942 0.261542
v 0.149580 -0.175942 0.251672
v 0.145592 -0.156461 0.241802
v 0.145592 -0.370597 0.241802
v 0.140720 -0.324165 0.229743
v 0.137116 -0.370600 0.220823
v 0.133728 -0.339940 0.212437
v 0.145592 -0.370597 0.241802
v 0.054936 -0.370597 0.278429
v 0.054936 -0.156461 0.278429
v 0.145592 -0.156461 0.241802
v 0.062911 -0.175942 0.298170
v 0.153568 -0.175942 0.261542
v 0.149580 -0.175942 0.251672
v 0.058924 -0.175942 0.288300
v 0.147586 -0.156461 0.246737
v 0.056930 -0.156461 0.283364
v 0.056930 -0.156461 0.283364
v 0.147586 -0.156461 0.246737
v 0.145592 -0.156461 0.241802
v 0.054936 -0.156461 0.278429
v 0.054936 -0.370597 0.278429
v 0.145592 -0.370597 0.241802
v 0.137116 -0.370600 0.220823
v 0.046460 -0.370600 0.257451
v 0.154947 0.372709 0.223995
v 0.035837 0.372709 0.272119
v 0.082061 0.372709 0.386529
v 0.201172 0.372709 0.338405
vt 0.632865 0.415033
vt 0.682457 0.415033
vt 0.682457 0.432351
vt 0.632866 0.432351
vt 0.583370 0.514724
vt 0.622605 0.514715
vt 0.622595 0.633736
vt 0.583404 0.633735
vt 0.632902 0.621812
vt 0.682421 0.621811
vt 0.682418 0.666430
vt 0.632902 0.666431
vt 0.744113 0.603663
vt 0.710117 0.668095
vt 0.744113 0.668095
vt 0.752945 0.611442
vt 0.752945 0.656170
vt 0.757384 0.676824
vt 0.764835 0.665622
vt 0.744113 0.437470
vt 0.710117 0.412689
vt 0.752945 0.430007
vt 0.752945 0.412689
vt 0.744113 0.437470
vt 0.710117 0.412689
vt 0.752892 0.412689
vt 0.752892 0.430007
vt 0.744113 0.603663
vt 0.710117 0.668095
vt 0.744113 0.668095
vt 0.752945 0.656170
vt 0.752945 0.611386
vt 0.764835 0.665622
vt 0.757384 0.676824
vt 0.583404 0.633735
vt 0.622595 0.633736
vt 0.622591 0.644821
vt 0.583404 0.644812
vt 0.682424 0.695124
vt 0.632905 0.695120
vt 0.632900 0.681698
vt 0.682413 0.681696
vt 0.632902 0.666431
vt 0.682418 0.666430
vt 0.682413 0.681696
vt 0.632900 0.681698
vt 0.682415 0.711088
vt 0.632902 0.711092
vt 0.632905 0.695120
vt 0.682424 0.695124
vt 0.682457 0.443915
vt 0.682457 0.610108
vt 0.677379 0.610108
vt 0.677379 0.443915
vt 0.632865 0.610108
vt 0.632865 0.443915
vt 0.637943 0.443915
vt 0.637944 0.610108
vt 0.632865 0.443915
vt 0.632866 0.432351
vt 0.637942 0.435829
vt 0.637943 0.443915
vt 0.677379 0.435828
vt 0.682457 0.432351
vt 0.677379 0.443915
vt 0.682457 0.443915
vt 0.682457 0.610108
vt 0.682421 0.621811
vt 0.677354 0.617993
vt 0.677379 0.610108
vt 0.637966 0.617992
vt 0.632902 0.621812
vt 0.637944 0.610108
vt 0.632865 0.610108
vt 0.583322 0.414162
vt 0.622616 0.414155
vt 0.622615 0.424696
vt 0.583325 0.424702
vt 0.655637 0.605720
vt 0.650288 0.610433
vt 0.656703 0.612184
vt 0.665812 0.608057
vt 0.659494 0.506475
vt 0.655637 0.456720
vt 0.659495 0.442945
vt 0.650099 0.452041
vt 0.652782 0.442945
vt 0.661074 0.506475
vt 0.662653 0.500696
vt 0.665812 0.500696
vt 0.622587 0.652185
vt 0.583402 0.652174
vt 0.583404 0.644812
vt 0.622591 0.644821
vt 0.650288 0.610433
vt 0.655637 0.605720
vt 0.665812 0.608057
vt 0.656703 0.612184
vt 0.661074 0.506475
vt 0.665812 0.500696
vt 0.662653 0.500696
vt 0.659494 0.506475
vt 0.659495 0.442945
vt 0.655637 0.456720
vt 0.652782 0.442945
vt 0.650099 0.452041
vt 0.583319 0.432166
vt 0.622623 0.432160
vt 0.622631 0.502796
vt 0.583335 0.502803
vt 0.622605 0.514715
vt 0.583370 0.514724
vt 0.583355 0.511219
vt 0.622615 0.511208
vt 0.583337 0.504560
vt 0.622629 0.504551
vt 0.622629 0.504551
vt 0.583337 0.504560
vt 0.583335 0.502803
vt 0.622631 0.502796
vt 0.622623 0.432160
vt 0.583319 0.432166
vt 0.583325 0.424702
vt 0.622615 0.424696
vt 0.632902 0.711092
vt 0.682415 0.711088
vt 0.682418 0.739171
vt 0.632904 0.739169
vn -0.374606 0.000000 -0.927184
vn -0.374606 0.000000 -0.927184
vn -0.374606 0.000000 -0.927184
vn -0.374606 0.000000 -0.927184
vn -0.374606 0.000000 -0.927184
vn -0.374606 0.000000 -0.927184
vn -0.374606 0.000000 -0.927184
vn -0.374606 0.000000 -0.927184
vn -0.374607 0.000000 -0.927184
vn -0.374607 0.000000 -0.927184
vn -0.374607 0.000000 -0.927184
vn -0.374607 0.000000 -0.927184
vn -0.927184 0.000000 0.374607
vn -0.927184 0.000000 0.374606
vn -0.927184 0.000000 0.374606
vn -0.927183 0.000000 0.374609
vn -0.927183 0.000000 0.374609
vn -0.927184 0.000001 0.374607
vn -0.927184 0.000000 0.374607
vn -0.927184 0.000001 0.374607
vn -0.927184 0.000001 0.374607
vn -0.927184 0.000001 0.374607
vn -0.927184 0.000001 0.374607
vn 0.927184 0.000000 -0.374607
vn 0.927184 0.000000 -0.374607
vn 0.927184 0.000000 -0.374607
vn 0.927184 0.000000 -0.374607
vn 0.927184 0.000000 -0.374606
vn 0.927184 0.000000 -0.374606
vn 0.927184 0.000000 -0.374606
vn 0.927184 0.000000 -0.374606
vn 0.927184 0.000000 -0.374606
vn 0.927184 0.000000 -0.374607
vn 0.927184 0.000000 -0.374607
vn -0.154496 -0.910993 -0.382390
vn -0.154496 -0.910993 -0.382390
vn -0.154496 -0.910993 -0.382390
vn -0.154496 -0.910993 -0.382390
vn -0.311799 0.554268 -0.771731
vn -0.311799 0.554268 -0.771731
vn -0.311799 0.554268 -0.771731
vn -0.311799 0.554268 -0.771731
vn -0.231258 -0.786699 -0.572385
vn -0.231258 -0.786699 -0.572384
vn -0.231258 -0.786699 -0.572384
vn -0.231258 -0.786699 -0.572384
vn 0.204181 0.838400 0.505366
vn 0.204181 0.838400 0.505366
vn 0.204181 0.838400 0.505366
vn 0.204181 0.838400 0.505366
vn -0.374603 0.000000 -0.927185
vn -0.374603 0.000000 -0.927185
vn -0.374603 0.000000 -0.927185
vn -0.374603 0.000000 -0.927185
vn -0.374614 0.000000 -0.927181
vn -0.374614 0.000000 -0.927181
vn -0.374614 0.000000 -0.927181
vn -0.374614 0.000000 -0.927181
vn -0.241800 0.763777 -0.598480
vn -0.241801 0.763776 -0.598480
vn -0.241801 0.763776 -0.598480
vn -0.241800 0.763777 -0.598480
vn -0.241802 0.763776 -0.598480
vn -0.241803 0.763776 -0.598480
vn -0.241806 0.763775 -0.598479
vn -0.241806 0.763775 -0.598479
vn -0.247605 -0.750412 -0.612841
vn -0.247602 -0.750415 -0.612838
vn -0.247602 -0.750415 -0.612838
vn -0.247605 -0.750412 -0.612841
vn -0.247604 -0.750415 -0.612837
vn -0.247605 -0.750415 -0.612837
vn -0.247611 -0.750412 -0.612838
vn -0.247611 -0.750412 -0.612838
vn 0.359297 0.282947 0.889295
vn 0.359297 0.282947 0.889295
vn 0.359297 0.282947 0.889295
vn 0.359297 0.282947 0.889295
vn 0.927184 0.000002 -0.374606
vn 0.927184 0.000002 -0.374606
vn 0.927184 0.000002 -0.374607
vn 0.927184 0.000002 -0.374606
vn 0.927184 0.000000 -0.374606
vn 0.927184 0.000000 -0.374606
vn 0.927184 0.000000 -0.374606
vn 0.927184 0.000000 -0.374607
vn 0.927184 0.000000 -0.374607
vn 0.927182 0.000000 -0.374610
vn 0.927182 0.000000 -0.374610
vn 0.927182 0.000000 -0.374610
vn 0.098882 -0.964533 0.244740
vn 0.098882 -0.964533 0.244740
vn 0.098882 -0.964533 0.244740
vn 0.098882 -0.964533 0.244740
vn -0.927184 -0.000002 0.374607
vn -0.927184 -0.000002 0.374607
vn -0.927184 -0.000002 0.374607
vn -0.927184 -0.000002 0.374607
vn -0.927184 0.000000 0.374606
vn -0.927184 0.000000 0.374606
vn -0.927184 0.000000 0.374605
vn -0.927185 0.000000 0.374603
vn -0.927185 0.000000 0.374603
vn -0.927185 0.000000 0.374603
vn -0.927185 0.000000 0.374604
vn -0.927185 0.000000 0.374604
vn -0.374606 0.000000 -0.927184
vn -0.374606 0.000000 -0.927184
vn -0.374606 0.000000 -0.927184
vn -0.374606 0.000000 -0.927184
vn 0.000000 1.000000 0.000000
vn 0.000000 1.000000 0.000000
vn 0.289718 0.633925 0.717079
vn 0.289718 0.633925 0.717079
vn 0.361361 0.263562 0.894401
vn 0.361361 0.263562 0.894401
vn 0.000000 1.000000 0.000003
vn 0.000000 1.000000 0.000003
vn 0.000000 1.000000 0.000003
vn 0.000000 1.000000 0.000003
vn -0.000062 1.000000 -0.000153
vn -0.000062 1.000000 -0.000153
vn -0.000062 1.000000 -0.000153
vn -0.000062 1.000000 -0.000153
vn 0.000000 1.000000 0.000000
vn 0.000000 1.000000 0.000000
vn 0.000000 1.000000 0.000000
vn 0.000000 1.000000 0.000000
usemtl material
f 1/0/1 2/0/2 3/0/3
f 1/0/1 3/0/3 4/0/4
f 5/0/5 6/0/6 7/0/7
f 5/0/5 7/0/7 8/0/8
f 9/0/9 10/0/10 11/0/11
f 9/0/9 11/0/11 12/0/12
f 13/0/13 14/0/14 15/0/15
f 16/0/16 13/0/13 15/0/15
f 16/0/16 15/0/15 17/0/17
f 15/0/15 18/0/18 17/0/17
f 17/0/17 18/0/18 19/0/19
f 20/0/20 14/0/14 13/0/13
f 20/0/20 21/0/21 14/0/14
f 21/0/21 20/0/20 22/0/22
f 21/0/21 22/0/22 23/0/23
f 24/0/24 25/0/25 26/0/26
f 24/0/24 26/0/26 27/0/27
f 28/0/28 25/0/25 24/0/24
f 28/0/28 29/0/29 25/0/25
f 29/0/29 28/0/28 30/0/30
f 28/0/28 31/0/31 30/0/30
f 28/0/28 32/0/32 31/0/31
f 30/0/30 31/0/31 33/0/33
f 30/0/30 33/0/33 34/0/34
f 35/0/35 36/0/36 37/0/37
f 35/0/35 37/0/37 38/0/38
f 39/0/39 40/0/40 41/0/41
f 39/0/39 41/0/41 42/0/42
f 43/0/43 44/0/44 45/0/45
f 43/0/43 45/0/45 46/0/46
f 47/0/47 48/0/48 49/0/49
f 47/0/47 49/0/49 50/0/50
f 51/0/51 52/0/52 53/0/53
f 51/0/51 53/0/53 54/0/54
f 55/0/55 56/0/56 57/0/57
f 55/0/55 57/0/57 58/0/58
f 59/0/59 60/0/60 61/0/61
f 59/0/59 61/0/61 62/0/62
f 60/0/60 63/0/63 61/0/61
f 60/0/60 64/0/64 63/0/63
f 64/0/64 65/0/65 63/0/63
f 64/0/64 66/0/66 65/0/65
f 67/0/67 68/0/68 69/0/69
f 67/0/67 69/0/69 70/0/70
f 68/0/68 71/0/71 69/0/69
f 68/0/68 72/0/72 71/0/71
f 72/0/72 73/0/73 71/0/71
f 72/0/72 74/0/74 73/0/73
f 75/0/75 76/0/76 77/0/77
f 75/0/75 77/0/77 78/0/78
f 79/0/79 80/0/80 81/0/81
f 79/0/79 81/0/81 82/0/82
f 82/0/82 83/0/83 79/0/79
f 84/0/84 79/0/79 83/0/83
f 84/0/84 83/0/83 85/0/85
f 86/0/86 84/0/84 85/0/85
f 86/0/86 85/0/85 87/0/87
f 82/0/82 88/0/88 83/0/83
f 82/0/82 89/0/89 88/0/88
f 82/0/82 90/0/90 89/0/89
f 91/0/91 92/0/92 93/0/93
f 91/0/91 93/0/93 94/0/94
f 95/0/95 96/0/96 97/0/97
f 95/0/95 97/0/97 98/0/98
f 99/0/99 97/0/97 96/0/96
f 100/0/100 97/0/97 99/0/99
f 100/0/100 99/0/99 101/0/101
f 99/0/99 96/0/96 102/0/102
f 96/0/96 103/0/103 102/0/102
f 96/0/96 104/0/104 103/0/103
f 104/0/104 105/0/105 103/0/103
f 104/0/104 106/0/106 105/0/105
f 107/0/107 108/0/108 109/0/109
f 107/0/107 109/0/109 110/0/110
f 111/0/111 112/0/112 113/0/113
f 111/0/111 113/0/113 114/0/114
f 114/0/114 113/0/113 115/0/115
f 114/0/114 115/0/115 116/0/116
f 117/0/117 118/0/118 119/0/119
f 117/0/117 119/0/119 120/0/120
f 121/0/121 122/0/122 123/0/123
f 121/0/121 123/0/123 124/0/124
f 125/0/125 126/0/126 127/0/127
f 125/0/125 127/0/127 128/0/128
