# 
# Wavefront OBJ file
# Created with Kaydara FBX
# 
mtllib polysurface694.mtl

g polySurface694
v 58.259167 0.019513 -22.169104
v 58.259167 4.197764 -22.169104
v 58.135479 4.197764 -22.169104
v 58.135479 0.019513 -22.169104
v 58.028362 4.197764 -22.230947
v 58.028362 0.019513 -22.230947
v 57.966522 4.197764 -22.338060
v 57.966522 0.019513 -22.338060
v 57.966522 4.197764 -22.461748
v 57.966522 0.019513 -22.461748
v 57.966522 0.019513 -22.461748
v 57.966522 4.197764 -22.461748
v 58.028366 4.197764 -22.568865
v 58.028366 0.019513 -22.568865
v 58.135483 4.197764 -22.630707
v 58.135483 0.019513 -22.630707
v 58.135483 0.019513 -22.630707
v 58.135483 4.197764 -22.630707
v 58.259163 4.197764 -22.630707
v 58.259163 0.019513 -22.630707
v 58.259163 0.019513 -22.630707
v 58.259163 4.197764 -22.630707
v 58.366280 4.197764 -22.568865
v 58.366280 0.019513 -22.568865
v 58.428123 4.197764 -22.461748
v 58.428123 0.019513 -22.461748
v 58.428123 4.197764 -22.338064
v 58.428123 0.019513 -22.338064
v 58.428123 0.019513 -22.338064
v 58.428123 4.197764 -22.338064
v 58.366283 4.197764 -22.230947
v 58.366283 0.019513 -22.230947
v 58.259167 4.197764 -22.169104
v 58.259167 0.019513 -22.169104
v 58.293701 4.558457 -22.824375
v 58.293701 4.492587 -22.824375
v 57.781677 4.492587 -22.312347
v 57.781677 4.558457 -22.312347
v 57.781677 4.272711 -22.312347
v 57.678787 4.439499 -22.209457
v 57.652370 4.272711 -22.183041
v 57.669056 4.165476 -22.199726
v 57.781677 4.137949 -22.312347
v 57.713543 4.092120 -22.244219
v 57.781677 4.072458 -22.312347
v 57.911034 4.272711 -22.441708
v 58.166492 4.272711 -22.697163
v 58.183197 4.203476 -22.713867
v 58.293694 4.272711 -22.824369
v 58.387890 4.447364 -22.918564
v 58.432377 4.272711 -22.963051
v 58.415691 4.167442 -22.946367
v 58.293694 4.137949 -22.824369
v 58.364250 4.096053 -22.894926
v 58.293701 4.072458 -22.824375
v 58.199001 4.137949 -22.729671
v 57.893967 4.201968 -22.424639
v 57.878525 4.137949 -22.409199
v 58.621113 4.558457 -22.496965
v 58.109085 4.558457 -21.984941
v 58.109085 4.492587 -21.984941
v 58.621113 4.492587 -22.496965
v 58.109085 4.272711 -21.984941
v 58.006195 4.439499 -21.882050
v 57.979778 4.272711 -21.855635
v 57.996464 4.165476 -21.872318
v 58.109085 4.137949 -21.984941
v 58.040955 4.092120 -21.916809
v 58.109085 4.072458 -21.984941
v 58.238445 4.272711 -22.114300
v 58.493900 4.272711 -22.369755
v 58.510605 4.203476 -22.386459
v 58.621101 4.272711 -22.496960
v 58.715302 4.447364 -22.591154
v 58.759785 4.272711 -22.635641
v 58.743103 4.167442 -22.618958
v 58.621101 4.137949 -22.496960
v 58.691658 4.096053 -22.567516
v 58.621113 4.072458 -22.496965
v 58.526409 4.137949 -22.402266
v 58.221375 4.201968 -22.097231
v 58.205936 4.137949 -22.081789
v 58.621113 4.558457 -22.496965
v 58.621113 4.492587 -22.496965
v 58.293701 4.492587 -22.824375
v 58.293701 4.558457 -22.824375
v 58.109085 4.492587 -21.984941
v 58.109085 4.558457 -21.984941
v 57.781677 4.558457 -22.312347
v 57.781677 4.492587 -22.312347
v 58.109085 4.558457 -21.984941
v 58.621113 4.558457 -22.496965
v 58.293701 4.558457 -22.824375
v 57.781677 4.558457 -22.312347
v 58.715302 4.447364 -22.591154
v 58.759785 4.272711 -22.635641
v 58.432377 4.272711 -22.963051
v 58.387890 4.447364 -22.918564
v 58.621113 4.492587 -22.496965
v 58.715302 4.447364 -22.591154
v 58.387890 4.447364 -22.918564
v 58.293701 4.492587 -22.824375
v 58.759785 4.272711 -22.635641
v 58.743103 4.167442 -22.618958
v 58.415691 4.167442 -22.946367
v 58.432377 4.272711 -22.963051
v 58.743103 4.167442 -22.618958
v 58.691658 4.096053 -22.567516
v 58.364250 4.096053 -22.894926
v 58.415691 4.167442 -22.946367
v 58.691658 4.096053 -22.567516
v 58.621113 4.072458 -22.496965
v 58.293701 4.072458 -22.824375
v 58.364250 4.096053 -22.894926
v 58.109085 4.072458 -21.984941
v 58.040955 4.092120 -21.916809
v 57.713543 4.092120 -22.244219
v 57.781677 4.072458 -22.312347
v 58.040955 4.092120 -21.916809
v 57.996464 4.165476 -21.872318
v 57.669056 4.165476 -22.199726
v 57.713543 4.092120 -22.244219
v 57.996464 4.165476 -21.872318
v 57.979778 4.272711 -21.855635
v 57.652370 4.272711 -22.183041
v 57.669056 4.165476 -22.199726
v 58.006195 4.439499 -21.882050
v 58.109085 4.492587 -21.984941
v 57.781677 4.492587 -22.312347
v 57.678787 4.439499 -22.209457
v 57.979778 4.272711 -21.855635
v 58.006195 4.439499 -21.882050
v 57.678787 4.439499 -22.209457
v 57.652370 4.272711 -22.183041
v 58.621113 4.072458 -22.496965
v 58.526409 4.137949 -22.402266
v 58.199001 4.137949 -22.729671
v 58.293701 4.072458 -22.824375
v 58.526409 4.137949 -22.402266
v 58.510605 4.203476 -22.386459
v 58.183197 4.203476 -22.713867
v 58.199001 4.137949 -22.729671
v 58.510605 4.203476 -22.386459
v 58.221375 4.201968 -22.097231
v 57.893967 4.201968 -22.424639
v 58.183197 4.203476 -22.713867
v 58.205936 4.137949 -22.081789
v 58.109085 4.072458 -21.984941
v 57.781677 4.072458 -22.312347
v 57.878525 4.137949 -22.409199
v 58.221375 4.201968 -22.097231
v 58.205936 4.137949 -22.081789
v 57.878525 4.137949 -22.409199
v 57.893967 4.201968 -22.424639
vt 0.734937 0.927047
vt 0.346145 0.927047
vt 0.346145 0.934590
vt 0.734937 0.934591
vt 0.346145 0.942134
vt 0.734937 0.942134
vt 0.346145 0.949677
vt 0.734937 0.949677
vt 0.346145 0.957221
vt 0.734937 0.957221
vt 0.734937 0.957221
vt 0.346145 0.957221
vt 0.346145 0.964764
vt 0.734937 0.964764
vt 0.346145 0.972307
vt 0.734937 0.972307
vt 0.734937 0.927000
vt 0.346145 0.927000
vt 0.346145 0.934543
vt 0.734937 0.934543
vt 0.734937 0.934543
vt 0.346145 0.934543
vt 0.346145 0.942086
vt 0.734937 0.942086
vt 0.346145 0.949630
vt 0.734937 0.949630
vt 0.346145 0.957173
vt 0.734937 0.957173
vt 0.734937 0.957173
vt 0.346145 0.957173
vt 0.346145 0.964716
vt 0.734937 0.964716
vt 0.346145 0.972260
vt 0.734937 0.972260
vt 0.309986 0.916865
vt 0.314493 0.916865
vt 0.314493 0.982608
vt 0.309986 0.982608
vt 0.334520 0.982618
vt 0.320234 0.994738
vt 0.334617 0.999376
vt 0.344682 0.996237
vt 0.346870 0.982576
vt 0.349639 0.990842
vt 0.351313 0.982465
vt 0.334519 0.965999
vt 0.334515 0.933179
vt 0.340874 0.931047
vt 0.334514 0.916836
vt 0.319632 0.905309
vt 0.334595 0.898857
vt 0.344532 0.901972
vt 0.346896 0.916879
vt 0.349518 0.908190
vt 0.351412 0.917003
vt 0.346892 0.929029
vt 0.341005 0.968178
vt 0.346875 0.970150
vt 0.309986 0.916865
vt 0.309986 0.982608
vt 0.314493 0.982608
vt 0.314493 0.916865
vt 0.334520 0.982618
vt 0.320234 0.994738
vt 0.334617 0.999376
vt 0.344682 0.996237
vt 0.346870 0.982576
vt 0.349639 0.990842
vt 0.351313 0.982465
vt 0.334519 0.965999
vt 0.334515 0.933179
vt 0.340874 0.931047
vt 0.334514 0.916836
vt 0.319632 0.905309
vt 0.334595 0.898857
vt 0.344532 0.901972
vt 0.346896 0.916879
vt 0.349518 0.908190
vt 0.351412 0.917003
vt 0.346892 0.929029
vt 0.341005 0.968178
vt 0.346875 0.970150
vt 0.314493 0.916865
vt 0.309986 0.916865
vt 0.309986 0.982608
vt 0.314493 0.982608
vt 0.314493 0.916865
vt 0.309986 0.916865
vt 0.309986 0.982608
vt 0.314493 0.982608
vt 0.029125 0.822952
vt 0.029125 0.874103
vt 0.123294 0.874103
vt 0.123294 0.822952
vt 0.016585 0.874753
vt 0.026742 0.874753
vt 0.026742 0.823466
vt 0.016585 0.823466
vt 0.008888 0.874753
vt 0.016585 0.874753
vt 0.016585 0.823466
vt 0.008888 0.823466
vt 0.026742 0.874753
vt 0.032645 0.874753
vt 0.032645 0.823466
vt 0.026742 0.823466
vt 0.032645 0.874753
vt 0.038222 0.874753
vt 0.038222 0.823466
vt 0.032645 0.823466
vt 0.038222 0.874753
vt 0.043832 0.874753
vt 0.043832 0.823466
vt 0.038222 0.823466
vt 0.090165 0.874752
vt 0.095546 0.874753
vt 0.095546 0.823465
vt 0.090165 0.823465
vt 0.095546 0.874753
vt 0.100834 0.874753
vt 0.100833 0.823466
vt 0.095546 0.823465
vt 0.100834 0.874753
vt 0.106842 0.874753
vt 0.106842 0.823465
vt 0.100833 0.823466
vt 0.116194 0.874753
vt 0.124668 0.874752
vt 0.124669 0.823465
vt 0.116194 0.823465
vt 0.106842 0.874753
vt 0.116194 0.874753
vt 0.116194 0.823465
vt 0.106842 0.823465
vt 0.043832 0.874753
vt 0.051989 0.874753
vt 0.051989 0.823466
vt 0.043832 0.823466
vt 0.051989 0.874753
vt 0.055778 0.874753
vt 0.055777 0.823466
vt 0.051989 0.823466
vt 0.055778 0.874753
vt 0.078158 0.874753
vt 0.078158 0.823466
vt 0.055777 0.823466
vt 0.081859 0.874753
vt 0.090165 0.874752
vt 0.090165 0.823465
vt 0.081859 0.823466
vt 0.078158 0.874753
vt 0.081859 0.874753
vt 0.081859 0.823466
vt 0.078158 0.823466
vn 0.258819 0.000000 0.965926
vn 0.258819 0.000000 0.965926
vn -0.258819 0.000000 0.965926
vn -0.258819 0.000000 0.965926
vn -0.707113 0.000000 0.707100
vn -0.707113 0.000000 0.707100
vn -0.965928 0.000000 0.258811
vn -0.965928 0.000000 0.258811
vn -0.965923 0.000000 -0.258828
vn -0.965923 0.000000 -0.258828
vn -0.965923 0.000000 -0.258828
vn -0.965923 0.000000 -0.258828
vn -0.707106 0.000000 -0.707107
vn -0.707106 0.000000 -0.707107
vn -0.258829 0.000000 -0.965923
vn -0.258829 0.000000 -0.965923
vn -0.258829 0.000000 -0.965923
vn -0.258829 0.000000 -0.965923
vn 0.258829 0.000000 -0.965923
vn 0.258829 0.000000 -0.965923
vn 0.258829 0.000000 -0.965923
vn 0.258829 0.000000 -0.965923
vn 0.707106 0.000000 -0.707107
vn 0.707106 0.000000 -0.707107
vn 0.965923 0.000000 -0.258830
vn 0.965923 0.000000 -0.258830
vn 0.965928 0.000000 0.258811
vn 0.965928 0.000000 0.258811
vn 0.965928 0.000000 0.258811
vn 0.965928 0.000000 0.258811
vn 0.707117 0.000000 0.707097
vn 0.707117 0.000000 0.707097
vn 0.258819 0.000000 0.965926
vn 0.258819 0.000000 0.965926
vn -0.707110 0.000000 -0.707104
vn -0.707109 -0.000001 -0.707104
vn -0.707109 0.000001 -0.707104
vn -0.707110 0.000000 -0.707104
vn -0.707109 0.000000 -0.707105
vn -0.707107 0.000013 -0.707107
vn -0.707106 0.000000 -0.707107
vn -0.707104 -0.000005 -0.707109
vn -0.707108 0.000010 -0.707105
vn -0.707093 0.000096 -0.707120
vn -0.707103 0.000066 -0.707111
vn -0.707109 -0.000005 -0.707105
vn -0.707109 -0.000004 -0.707104
vn -0.707119 0.000032 -0.707095
vn -0.707110 0.000002 -0.707104
vn -0.707107 -0.000006 -0.707107
vn -0.707107 -0.000003 -0.707106
vn -0.707108 0.000010 -0.707105
vn -0.707114 0.000028 -0.707100
vn -0.707110 0.000094 -0.707104
vn -0.707114 0.000065 -0.707100
vn -0.707119 0.000031 -0.707094
vn -0.707104 -0.000058 -0.707110
vn -0.707114 0.000000 -0.707100
vn 0.707105 0.000000 0.707109
vn 0.707105 0.000000 0.707109
vn 0.707107 0.000013 0.707107
vn 0.707107 0.000012 0.707107
vn 0.707107 0.000009 0.707106
vn 0.707107 -0.000009 0.707107
vn 0.707106 -0.000006 0.707107
vn 0.707106 0.000000 0.707108
vn 0.707105 -0.000015 0.707109
vn 0.707107 0.000000 0.707107
vn 0.707103 0.000000 0.707111
vn 0.707107 0.000017 0.707106
vn 0.707108 0.000020 0.707106
vn 0.707117 0.000037 0.707097
vn 0.707107 0.000012 0.707106
vn 0.707105 -0.000012 0.707109
vn 0.707103 -0.000022 0.707111
vn 0.707101 -0.000023 0.707113
vn 0.707110 0.000010 0.707104
vn 0.707108 0.000082 0.707105
vn 0.707113 0.000037 0.707101
vn 0.707117 0.000032 0.707097
vn 0.707105 0.000018 0.707108
vn 0.707106 -0.000035 0.707108
vn 0.707104 0.000000 -0.707110
vn 0.707104 0.000000 -0.707110
vn 0.707104 0.000000 -0.707110
vn 0.707104 0.000000 -0.707110
vn -0.707108 0.000000 0.707105
vn -0.707108 0.000000 0.707105
vn -0.707108 0.000000 0.707105
vn -0.707108 0.000000 0.707105
vn 0.000000 1.000000 0.000000
vn 0.000000 1.000000 0.000000
vn 0.000000 1.000000 0.000000
vn 0.000000 1.000000 0.000000
vn 0.665258 0.338910 -0.665261
vn 0.665258 0.338910 -0.665261
vn 0.665258 0.338910 -0.665261
vn 0.665258 0.338910 -0.665261
vn 0.227316 0.946918 -0.227317
vn 0.227316 0.946918 -0.227317
vn 0.227316 0.946918 -0.227317
vn 0.227316 0.946918 -0.227317
vn 0.689982 -0.218749 -0.689981
vn 0.689982 -0.218749 -0.689981
vn 0.689982 -0.218749 -0.689981
vn 0.689982 -0.218749 -0.689981
vn 0.495273 -0.713730 -0.495272
vn 0.495273 -0.713730 -0.495272
vn 0.495273 -0.713730 -0.495272
vn 0.495273 -0.713730 -0.495272
vn 0.162719 -0.973162 -0.162718
vn 0.162719 -0.973162 -0.162718
vn 0.162719 -0.973162 -0.162718
vn 0.162719 -0.973162 -0.162718
vn -0.141384 -0.979807 0.141385
vn -0.141384 -0.979807 0.141385
vn -0.141384 -0.979807 0.141385
vn -0.141384 -0.979807 0.141385
vn -0.536720 -0.651045 0.536723
vn -0.536720 -0.651045 0.536723
vn -0.536720 -0.651045 0.536723
vn -0.536720 -0.651045 0.536723
vn -0.690581 -0.214931 0.690581
vn -0.690581 -0.214931 0.690581
vn -0.690581 -0.214931 0.690581
vn -0.690581 -0.214931 0.690581
vn -0.242358 0.939428 0.242359
vn -0.242358 0.939428 0.242359
vn -0.242358 0.939428 0.242359
vn -0.242358 0.939428 0.242359
vn -0.690011 0.218578 0.690007
vn -0.690011 0.218578 0.690007
vn -0.690011 0.218578 0.690007
vn -0.690011 0.218578 0.690007
vn -0.310627 -0.898344 0.310627
vn -0.310627 -0.898344 0.310627
vn -0.310627 -0.898344 0.310627
vn -0.310627 -0.898344 0.310627
vn -0.669247 -0.322825 0.669247
vn -0.669247 -0.322825 0.669247
vn -0.669247 -0.322825 0.669247
vn -0.669247 -0.322825 0.669247
vn 0.002607 -0.999993 -0.002608
vn 0.002607 -0.999993 -0.002608
vn 0.002607 -0.999993 -0.002608
vn 0.002607 -0.999993 -0.002608
vn 0.305030 -0.902172 -0.305029
vn 0.305030 -0.902172 -0.305029
vn 0.305030 -0.902172 -0.305029
vn 0.305030 -0.902172 -0.305029
vn 0.669225 -0.322908 -0.669230
vn 0.669225 -0.322908 -0.669230
vn 0.669225 -0.322908 -0.669230
vn 0.669225 -0.322908 -0.669230
usemtl material
f 1/0/1 2/0/2 3/0/3
f 1/0/1 3/0/3 4/0/4
f 4/0/4 3/0/3 5/0/5
f 4/0/4 5/0/5 6/0/6
f 6/0/6 5/0/5 7/0/7
f 6/0/6 7/0/7 8/0/8
f 8/0/8 7/0/7 9/0/9
f 8/0/8 9/0/9 10/0/10
f 11/0/11 12/0/12 13/0/13
f 11/0/11 13/0/13 14/0/14
f 14/0/14 13/0/13 15/0/15
f 14/0/14 15/0/15 16/0/16
f 17/0/17 18/0/18 19/0/19
f 17/0/17 19/0/19 20/0/20
f 21/0/21 22/0/22 23/0/23
f 21/0/21 23/0/23 24/0/24
f 24/0/24 23/0/23 25/0/25
f 24/0/24 25/0/25 26/0/26
f 26/0/26 25/0/25 27/0/27
f 26/0/26 27/0/27 28/0/28
f 29/0/29 30/0/30 31/0/31
f 29/0/29 31/0/31 32/0/32
f 32/0/32 31/0/31 33/0/33
f 32/0/32 33/0/33 34/0/34
f 35/0/35 36/0/36 37/0/37
f 35/0/35 37/0/37 38/0/38
f 39/0/39 37/0/37 36/0/36
f 40/0/40 37/0/37 39/0/39
f 40/0/40 39/0/39 41/0/41
f 39/0/39 42/0/42 41/0/41
f 39/0/39 43/0/43 42/0/42
f 43/0/43 44/0/44 42/0/42
f 43/0/43 45/0/45 44/0/44
f 46/0/46 39/0/39 36/0/36
f 47/0/47 46/0/46 36/0/36
f 48/0/48 46/0/46 47/0/47
f 48/0/48 47/0/47 49/0/49
f 36/0/36 49/0/49 47/0/47
f 50/0/50 49/0/49 36/0/36
f 50/0/50 51/0/51 49/0/49
f 49/0/49 51/0/51 52/0/52
f 49/0/49 52/0/52 53/0/53
f 53/0/53 52/0/52 54/0/54
f 53/0/53 54/0/54 55/0/55
f 55/0/55 56/0/56 53/0/53
f 49/0/49 53/0/53 56/0/56
f 56/0/56 48/0/48 49/0/49
f 48/0/48 57/0/57 46/0/46
f 58/0/58 45/0/45 43/0/43
f 57/0/57 58/0/58 43/0/43
f 43/0/43 39/0/39 57/0/57
f 39/0/39 46/0/46 57/0/57
f 59/0/59 60/0/60 61/0/61
f 59/0/59 61/0/61 62/0/62
f 62/0/62 61/0/61 63/0/63
f 64/0/64 63/0/63 61/0/61
f 64/0/64 65/0/65 63/0/63
f 63/0/63 65/0/65 66/0/66
f 63/0/63 66/0/66 67/0/67
f 67/0/67 66/0/66 68/0/68
f 67/0/67 68/0/68 69/0/69
f 63/0/63 70/0/70 62/0/62
f 70/0/70 63/0/63 67/0/67
f 70/0/70 71/0/71 62/0/62
f 72/0/72 71/0/71 70/0/70
f 73/0/73 71/0/71 72/0/72
f 71/0/71 73/0/73 62/0/62
f 74/0/74 62/0/62 73/0/73
f 74/0/74 73/0/73 75/0/75
f 73/0/73 76/0/76 75/0/75
f 73/0/73 77/0/77 76/0/76
f 77/0/77 73/0/73 72/0/72
f 77/0/77 78/0/78 76/0/76
f 77/0/77 79/0/79 78/0/78
f 79/0/79 77/0/77 80/0/80
f 72/0/72 80/0/80 77/0/77
f 72/0/72 70/0/70 81/0/81
f 67/0/67 81/0/81 70/0/70
f 82/0/82 67/0/67 69/0/69
f 67/0/67 82/0/82 81/0/81
f 83/0/83 84/0/84 85/0/85
f 83/0/83 85/0/85 86/0/86
f 87/0/87 88/0/88 89/0/89
f 87/0/87 89/0/89 90/0/90
f 91/0/91 92/0/92 93/0/93
f 91/0/91 93/0/93 94/0/94
f 95/0/95 96/0/96 97/0/97
f 95/0/95 97/0/97 98/0/98
f 99/0/99 100/0/100 101/0/101
f 99/0/99 101/0/101 102/0/102
f 103/0/103 104/0/104 105/0/105
f 103/0/103 105/0/105 106/0/106
f 107/0/107 108/0/108 109/0/109
f 107/0/107 109/0/109 110/0/110
f 111/0/111 112/0/112 113/0/113
f 111/0/111 113/0/113 114/0/114
f 115/0/115 116/0/116 117/0/117
f 115/0/115 117/0/117 118/0/118
f 119/0/119 120/0/120 121/0/121
f 119/0/119 121/0/121 122/0/122
f 123/0/123 124/0/124 125/0/125
f 123/0/123 125/0/125 126/0/126
f 127/0/127 128/0/128 129/0/129
f 127/0/127 129/0/129 130/0/130
f 131/0/131 132/0/132 133/0/133
f 131/0/131 133/0/133 134/0/134
f 135/0/135 136/0/136 137/0/137
f 135/0/135 137/0/137 138/0/138
f 139/0/139 140/0/140 141/0/141
f 139/0/139 141/0/141 142/0/142
f 143/0/143 144/0/144 145/0/145
f 143/0/143 145/0/145 146/0/146
f 147/0/147 148/0/148 149/0/149
f 147/0/147 149/0/149 150/0/150
f 151/0/151 152/0/152 153/0/153
f 151/0/151 153/0/153 154/0/154
