# 
# Wavefront OBJ file
# Created with Kaydara FBX
# 
mtllib polysurface135.mtl

g polySurface135
v -0.148911 -0.096819 0.015777
v -0.208580 0.091681 0.015777
v -0.208580 -0.206852 0.015777
v -0.228455 -0.077445 0.016853
v -0.250387 -0.206852 0.015777
v -0.228455 -0.040578 0.016853
v -0.271291 0.091681 0.015777
v -0.271628 -0.040578 0.016576
v -0.264194 -0.196554 0.015777
v -0.271291 -0.181497 0.015777
v -0.271628 -0.077445 0.016576
v -0.208580 -0.206852 -0.016852
v -0.208580 -0.206852 0.015777
v -0.250387 -0.206852 0.015777
v -0.250387 -0.206852 -0.016852
v -0.250387 -0.206852 -0.016852
v -0.250387 -0.206852 0.015777
v -0.264194 -0.196554 0.015777
v -0.264194 -0.196554 -0.016852
v -0.271291 -0.181497 0.015777
v -0.271291 -0.181497 -0.016852
v -0.271426 -0.077445 0.000777
v -0.271426 -0.040578 0.000777
v -0.271291 0.091681 -0.016852
v -0.271628 -0.040578 0.016576
v -0.271291 0.091681 0.015777
v -0.271628 -0.077445 0.016576
v -0.271291 0.091681 -0.016852
v -0.271291 0.091681 0.015777
v -0.208580 0.091681 0.015777
v -0.208580 0.091681 -0.016852
v -0.148911 -0.096819 -0.016852
v -0.148911 -0.096819 0.015777
v -0.208580 -0.206852 0.015777
v -0.208580 -0.206852 -0.016852
v -0.208580 0.091681 -0.016852
v -0.208580 0.091681 0.015777
v -0.148910 0.206852 0.015777
v -0.148910 0.206852 -0.016853
v -0.250387 -0.206852 -0.016852
v -0.264194 -0.196554 -0.016852
v -0.208580 0.091681 -0.016852
v -0.208580 -0.206852 -0.016852
v -0.271291 -0.181497 -0.016852
v -0.271291 0.091681 -0.016852
v -0.148911 -0.096819 -0.016852
v 0.000000 -0.096819 -0.016852
v 0.000000 0.091681 -0.016852
v -0.148910 0.206852 -0.016853
v 0.000000 0.206852 -0.016853
v -0.228455 -0.077445 0.016853
v -0.228455 -0.040578 0.016853
v -0.228256 -0.040578 0.001329
v -0.228256 -0.077445 0.001329
v -0.271628 -0.077445 0.016576
v -0.228455 -0.077445 0.016853
v -0.228256 -0.077445 0.001329
v -0.271426 -0.077445 0.000777
v -0.271426 -0.077445 0.000777
v -0.228256 -0.077445 0.001329
v -0.228256 -0.040578 0.001329
v -0.271426 -0.040578 0.000777
v -0.271426 -0.040578 0.000777
v -0.228256 -0.040578 0.001329
v -0.228455 -0.040578 0.016853
v -0.271628 -0.040578 0.016576
v 0.148911 -0.096819 0.015777
v 0.208580 -0.206852 0.015777
v 0.208579 0.091681 0.015777
v 0.000000 -0.096819 0.015777
v 0.000000 0.091681 0.015777
v 0.148910 0.206852 0.015777
v 0.000000 0.206852 0.015777
v 0.228455 -0.077445 0.016853
v 0.250387 -0.206852 0.015777
v 0.228455 -0.040578 0.016853
v 0.271291 0.091681 0.015777
v 0.271628 -0.040578 0.016576
v 0.264194 -0.196554 0.015777
v 0.271291 -0.181497 0.015777
v 0.271628 -0.077445 0.016576
v 0.000000 0.206852 -0.016853
v 0.148910 0.206852 -0.016853
v 0.208579 0.091681 -0.016852
v 0.000000 0.091681 -0.016852
v 0.000000 -0.096819 -0.016852
v 0.148911 -0.096819 -0.016852
v 0.000000 -0.096819 -0.016852
v 0.148911 -0.096819 -0.016852
v 0.148911 -0.096819 0.015777
v 0.000000 -0.096819 0.015777
v -0.148911 -0.096819 -0.016852
v -0.148911 -0.096819 0.015777
v 0.208580 -0.206852 -0.016852
v 0.250387 -0.206852 -0.016852
v 0.250387 -0.206852 0.015777
v 0.208580 -0.206852 0.015777
v 0.250387 -0.206852 -0.016852
v 0.264194 -0.196554 -0.016852
v 0.264194 -0.196554 0.015777
v 0.250387 -0.206852 0.015777
v 0.271291 -0.181497 0.015777
v 0.271291 -0.181497 -0.016852
v 0.271426 -0.077445 0.000777
v 0.271426 -0.040578 0.000777
v 0.271291 0.091681 -0.016852
v 0.271628 -0.040578 0.016576
v 0.271291 0.091681 0.015777
v 0.271628 -0.077445 0.016576
v 0.271291 0.091681 -0.016852
v 0.208579 0.091681 -0.016852
v 0.208579 0.091681 0.015777
v 0.271291 0.091681 0.015777
v 0.148911 -0.096819 -0.016852
v 0.208580 -0.206852 -0.016852
v 0.208580 -0.206852 0.015777
v 0.148911 -0.096819 0.015777
v 0.000000 0.206852 0.015777
v 0.148910 0.206852 0.015777
v 0.148910 0.206852 -0.016853
v 0.000000 0.206852 -0.016853
v -0.148910 0.206852 0.015777
v -0.148910 0.206852 -0.016853
v 0.208579 0.091681 -0.016852
v 0.148910 0.206852 -0.016853
v 0.148910 0.206852 0.015777
v 0.208579 0.091681 0.015777
v 0.250387 -0.206852 -0.016852
v 0.208579 0.091681 -0.016852
v 0.264194 -0.196554 -0.016852
v 0.208580 -0.206852 -0.016852
v 0.271291 -0.181497 -0.016852
v 0.271291 0.091681 -0.016852
v 0.148911 -0.096819 -0.016852
v 0.228455 -0.077445 0.016853
v 0.228256 -0.077445 0.001329
v 0.228256 -0.040578 0.001329
v 0.228455 -0.040578 0.016853
v 0.271628 -0.077445 0.016576
v 0.271426 -0.077445 0.000777
v 0.228256 -0.077445 0.001329
v 0.228455 -0.077445 0.016853
v 0.271426 -0.077445 0.000777
v 0.271426 -0.040578 0.000777
v 0.228256 -0.040578 0.001329
v 0.228256 -0.077445 0.001329
v 0.271426 -0.040578 0.000777
v 0.271628 -0.040578 0.016576
v 0.228455 -0.040578 0.016853
v 0.228256 -0.040578 0.001329
v -0.208580 0.091681 0.015777
v 0.000000 0.091681 0.015777
v 0.000000 0.206852 0.015777
v -0.148910 0.206852 0.015777
v -0.148911 -0.096819 0.015777
v 0.000000 -0.096819 0.015777
vt 0.839213 0.770120
vt 0.881387 0.904109
vt 0.881375 0.691907
vt 0.895503 0.783646
vt 0.911093 0.691907
vt 0.895503 0.809851
vt 0.925964 0.904109
vt 0.925964 0.809851
vt 0.920907 0.699227
vt 0.925964 0.709929
vt 0.925964 0.783646
vt 0.986771 0.854706
vt 0.962999 0.854707
vt 0.962998 0.814249
vt 0.986771 0.814249
vt 0.986771 0.814249
vt 0.962998 0.814249
vt 0.962998 0.796242
vt 0.986768 0.796242
vt 0.962998 0.782029
vt 0.986767 0.782029
vt 0.974235 0.707177
vt 0.974235 0.680971
vt 0.986766 0.585766
vt 0.962998 0.680971
vt 0.962998 0.585766
vt 0.962998 0.707177
vt 0.986766 0.585766
vt 0.962998 0.585766
vt 0.962998 0.541187
vt 0.986778 0.541187
vt 0.986771 0.986857
vt 0.962999 0.986857
vt 0.962999 0.854707
vt 0.986771 0.854706
vt 0.986778 0.541187
vt 0.962998 0.541187
vt 0.963003 0.447851
vt 0.986335 0.447851
vt 0.911332 0.691907
vt 0.921146 0.699227
vt 0.881387 0.904109
vt 0.881375 0.691907
vt 0.925964 0.709929
vt 0.925964 0.904109
vt 0.839213 0.770120
vt 0.733245 0.770120
vt 0.733245 0.904109
vt 0.839213 0.985976
vt 0.733244 0.985976
vt 0.898011 0.943508
vt 0.898011 0.974197
vt 0.886780 0.974197
vt 0.886780 0.943508
vt 0.898011 0.943508
vt 0.898011 0.974197
vt 0.886780 0.974197
vt 0.886780 0.943508
vt 0.937274 0.943367
vt 0.937274 0.974053
vt 0.910798 0.974053
vt 0.910798 0.943367
vt 0.898011 0.943508
vt 0.898011 0.974197
vt 0.886780 0.974197
vt 0.886780 0.943508
vt 0.839213 0.770120
vt 0.881387 0.691907
vt 0.881387 0.904109
vt 0.733245 0.770120
vt 0.733245 0.904109
vt 0.839213 0.985976
vt 0.733244 0.985976
vt 0.895755 0.783646
vt 0.911345 0.691907
vt 0.895754 0.809851
vt 0.925964 0.904109
vt 0.925964 0.809851
vt 0.921158 0.699227
vt 0.925964 0.709929
vt 0.925964 0.783646
vt 0.709950 0.985976
vt 0.603982 0.985976
vt 0.561807 0.904109
vt 0.709950 0.904109
vt 0.709950 0.770120
vt 0.603982 0.770120
vt 0.986335 0.342005
vt 0.986335 0.236159
vt 0.963003 0.236159
vt 0.963003 0.342005
vt 0.986335 0.447851
vt 0.963003 0.447851
vt 0.986771 0.854706
vt 0.986771 0.814249
vt 0.963003 0.814249
vt 0.963003 0.854706
vt 0.986771 0.814249
vt 0.986771 0.796242
vt 0.963003 0.796242
vt 0.963003 0.814249
vt 0.963003 0.782029
vt 0.986771 0.782029
vt 0.974234 0.707177
vt 0.974234 0.680971
vt 0.986758 0.585766
vt 0.963003 0.680971
vt 0.963003 0.585766
vt 0.963003 0.707177
vt 0.986758 0.585766
vt 0.986758 0.541187
vt 0.963003 0.541187
vt 0.963003 0.585766
vt 0.986771 0.986857
vt 0.986771 0.854706
vt 0.963003 0.854706
vt 0.963003 0.986857
vt 0.963003 0.342005
vt 0.963003 0.236159
vt 0.986335 0.236159
vt 0.986335 0.342005
vt 0.963003 0.447851
vt 0.986335 0.447851
vt 0.986758 0.541187
vt 0.986335 0.447851
vt 0.963003 0.447851
vt 0.963003 0.541187
vt 0.911105 0.691907
vt 0.881387 0.904109
vt 0.920918 0.699227
vt 0.881387 0.691907
vt 0.925964 0.709929
vt 0.925964 0.904109
vt 0.839213 0.770120
vt 0.886780 0.943508
vt 0.898011 0.943508
vt 0.898011 0.974197
vt 0.886780 0.974197
vt 0.898011 0.974197
vt 0.886780 0.974197
vt 0.886780 0.943508
vt 0.898011 0.943508
vt 0.937274 0.974053
vt 0.911069 0.974053
vt 0.911069 0.943367
vt 0.937274 0.943367
vt 0.898011 0.974197
vt 0.886780 0.974197
vt 0.886780 0.943508
vt 0.898011 0.943508
vt 0.561807 0.904109
vt 0.709950 0.904109
vt 0.709950 0.985976
vt 0.603982 0.985976
vt 0.603982 0.770120
vt 0.709950 0.770120
vn 0.000000 0.000000 1.000000
vn 0.000521 0.000927 0.999999
vn 0.003138 -0.003635 0.999988
vn 0.038044 -0.002112 0.999274
vn -0.001240 -0.008099 0.999966
vn 0.033351 0.002410 0.999441
vn -0.000943 0.007824 0.999969
vn -0.006400 0.006057 0.999961
vn -0.006789 -0.006990 0.999953
vn -0.009814 -0.006293 0.999932
vn -0.006400 -0.007699 0.999950
vn 0.000000 -1.000000 0.000000
vn 0.000000 -1.000000 0.000000
vn 0.000000 -1.000000 0.000000
vn 0.000000 -1.000000 0.000000
vn -0.597897 -0.801573 0.000000
vn -0.597897 -0.801573 0.000000
vn -0.771583 -0.636129 0.000000
vn -0.771583 -0.636129 0.000000
vn -0.996951 -0.077954 -0.003488
vn -0.996984 -0.077512 -0.003822
vn -0.999979 -0.000663 -0.006424
vn -0.999980 0.000594 -0.006256
vn -0.999989 0.001382 -0.004430
vn -0.999990 0.001490 -0.004178
vn -0.999990 0.001490 -0.004178
vn -0.999989 -0.001894 -0.004178
vn 0.000000 1.000000 0.000000
vn 0.000000 1.000000 0.000000
vn 0.000000 1.000000 0.000000
vn 0.000000 1.000000 0.000000
vn 0.879067 -0.476699 0.000000
vn 0.879067 -0.476699 0.000000
vn 0.879067 -0.476699 0.000000
vn 0.879067 -0.476699 0.000000
vn -0.887911 0.460016 0.000000
vn -0.887911 0.460016 0.000000
vn -0.887911 0.460016 0.000000
vn -0.887911 0.460016 0.000000
vn -0.000000 0.000000 -1.000000
vn -0.000001 0.000000 -1.000000
vn 0.000000 0.000000 -1.000000
vn 0.000000 0.000000 -1.000000
vn 0.000001 0.000000 -1.000000
vn 0.000000 0.000000 -1.000000
vn 0.000000 0.000000 -1.000000
vn 0.000000 0.000000 -1.000000
vn 0.000000 -0.000001 -1.000000
vn 0.000000 -0.000001 -1.000000
vn 0.000000 -0.000001 -1.000000
vn -0.999918 0.000000 -0.012797
vn -0.999918 0.000000 -0.012797
vn -0.999918 0.000000 -0.012797
vn -0.999918 0.000000 -0.012797
vn 0.000000 1.000000 0.000009
vn 0.000000 1.000000 0.000009
vn 0.000000 1.000000 0.000009
vn 0.000000 1.000000 0.000009
vn -0.012795 0.000000 0.999918
vn -0.012795 0.000000 0.999918
vn -0.012795 0.000000 0.999918
vn -0.012795 0.000000 0.999918
vn 0.000000 -1.000000 0.000000
vn 0.000000 -1.000000 0.000000
vn 0.000000 -1.000000 0.000000
vn 0.000000 -1.000000 0.000000
vn 0.000000 0.000000 1.000000
vn -0.003138 -0.003635 0.999988
vn -0.000521 0.000927 0.999999
vn 0.000000 0.000000 1.000000
vn 0.000000 0.000001 1.000000
vn 0.000000 0.000001 1.000000
vn 0.000000 0.000001 1.000000
vn -0.038043 -0.002112 0.999274
vn 0.001240 -0.008098 0.999966
vn -0.033350 0.002410 0.999441
vn 0.000943 0.007824 0.999969
vn 0.006400 0.006057 0.999961
vn 0.006789 -0.006990 0.999953
vn 0.009814 -0.006293 0.999932
vn 0.006400 -0.007699 0.999950
vn 0.000000 -0.000001 -1.000000
vn 0.000000 -0.000001 -1.000000
vn 0.000000 -0.000001 -1.000000
vn 0.000000 -0.000001 -1.000000
vn 0.000000 0.000000 -1.000000
vn -0.000000 0.000000 -1.000000
vn 0.000000 -1.000000 0.000000
vn 0.000000 -1.000000 0.000000
vn 0.000000 -1.000000 0.000000
vn 0.000000 -1.000000 0.000000
vn 0.000000 -1.000000 0.000000
vn 0.000000 -1.000000 0.000000
vn 0.000000 -1.000000 0.000000
vn 0.000000 -1.000000 0.000000
vn 0.000000 -1.000000 0.000000
vn 0.000000 -1.000000 0.000000
vn 0.597899 -0.801571 0.000000
vn 0.771585 -0.636126 0.000000
vn 0.771585 -0.636126 0.000000
vn 0.597899 -0.801571 0.000000
vn 0.996951 -0.077955 -0.003486
vn 0.996984 -0.077513 -0.003821
vn 0.999979 -0.000664 -0.006428
vn 0.999980 0.000595 -0.006260
vn 0.999989 0.001384 -0.004427
vn 0.999990 0.001493 -0.004175
vn 0.999990 0.001493 -0.004175
vn 0.999989 -0.001897 -0.004175
vn 0.000000 1.000000 0.000000
vn 0.000000 1.000000 0.000000
vn 0.000000 1.000000 0.000000
vn 0.000000 1.000000 0.000000
vn -0.879066 -0.476699 0.000000
vn -0.879066 -0.476699 0.000000
vn -0.879066 -0.476699 0.000000
vn -0.879066 -0.476699 0.000000
vn 0.000000 1.000000 0.000000
vn 0.000000 1.000000 0.000000
vn 0.000000 1.000000 0.000000
vn 0.000000 1.000000 0.000000
vn 0.000000 1.000000 0.000000
vn 0.000000 1.000000 0.000000
vn 0.887911 0.460016 0.000000
vn 0.887911 0.460016 0.000000
vn 0.887911 0.460016 0.000000
vn 0.887911 0.460016 0.000000
vn 0.000000 0.000000 -1.000000
vn 0.000000 0.000000 -1.000000
vn 0.000000 0.000000 -1.000000
vn -0.000000 0.000000 -1.000000
vn 0.000000 0.000000 -1.000000
vn 0.000000 0.000000 -1.000000
vn -0.000000 0.000000 -1.000000
vn 0.999918 0.000000 -0.012797
vn 0.999918 0.000000 -0.012797
vn 0.999918 0.000000 -0.012797
vn 0.999918 0.000000 -0.012797
vn 0.000000 1.000000 0.000003
vn 0.000000 1.000000 0.000003
vn 0.000000 1.000000 0.000003
vn 0.000000 1.000000 0.000003
vn 0.012795 0.000000 0.999918
vn 0.012795 0.000000 0.999918
vn 0.012795 0.000000 0.999918
vn 0.012795 0.000000 0.999918
vn 0.000000 -1.000000 -0.000005
vn 0.000000 -1.000000 -0.000005
vn 0.000000 -1.000000 -0.000005
vn 0.000000 -1.000000 -0.000005
vn 0.000000 0.000001 1.000000
vn 0.000000 0.000001 1.000000
vn 0.000000 0.000001 1.000000
vn 0.000000 0.000001 1.000000
vn 0.000000 0.000000 1.000000
vn 0.000000 0.000000 1.000000
usemtl material
f 1/0/1 2/0/2 3/0/3
f 2/0/2 4/0/4 3/0/3
f 4/0/4 5/0/5 3/0/3
f 2/0/2 6/0/6 4/0/4
f 2/0/2 7/0/7 6/0/6
f 7/0/7 8/0/8 6/0/6
f 4/0/4 9/0/9 5/0/5
f 4/0/4 10/0/10 9/0/9
f 4/0/4 11/0/11 10/0/10
f 12/0/12 13/0/13 14/0/14
f 12/0/12 14/0/14 15/0/15
f 16/0/16 17/0/17 18/0/18
f 16/0/16 18/0/18 19/0/19
f 19/0/19 18/0/18 20/0/20
f 19/0/19 20/0/20 21/0/21
f 20/0/20 22/0/22 21/0/21
f 21/0/21 22/0/22 23/0/23
f 21/0/21 23/0/23 24/0/24
f 25/0/25 24/0/24 23/0/23
f 25/0/25 26/0/26 24/0/24
f 20/0/20 27/0/27 22/0/22
f 28/0/28 29/0/29 30/0/30
f 28/0/28 30/0/30 31/0/31
f 32/0/32 33/0/33 34/0/34
f 32/0/32 34/0/34 35/0/35
f 36/0/36 37/0/37 38/0/38
f 36/0/36 38/0/38 39/0/39
f 40/0/40 41/0/41 42/0/42
f 40/0/40 42/0/42 43/0/43
f 41/0/41 44/0/44 42/0/42
f 44/0/44 45/0/45 42/0/42
f 46/0/46 43/0/43 42/0/42
f 42/0/42 47/0/47 46/0/46
f 42/0/42 48/0/48 47/0/47
f 49/0/49 48/0/48 42/0/42
f 49/0/49 50/0/50 48/0/48
f 51/0/51 52/0/52 53/0/53
f 51/0/51 53/0/53 54/0/54
f 55/0/55 56/0/56 57/0/57
f 55/0/55 57/0/57 58/0/58
f 59/0/59 60/0/60 61/0/61
f 59/0/59 61/0/61 62/0/62
f 63/0/63 64/0/64 65/0/65
f 63/0/63 65/0/65 66/0/66
f 67/0/67 68/0/68 69/0/69
f 70/0/70 67/0/67 69/0/69
f 70/0/70 69/0/69 71/0/71
f 71/0/71 69/0/69 72/0/72
f 71/0/71 72/0/72 73/0/73
f 69/0/69 68/0/68 74/0/74
f 74/0/74 68/0/68 75/0/75
f 69/0/69 74/0/74 76/0/76
f 69/0/69 76/0/76 77/0/77
f 77/0/77 76/0/76 78/0/78
f 74/0/74 75/0/75 79/0/79
f 74/0/74 79/0/79 80/0/80
f 74/0/74 80/0/80 81/0/81
f 82/0/82 83/0/83 84/0/84
f 82/0/82 84/0/84 85/0/85
f 86/0/86 85/0/85 84/0/84
f 86/0/86 84/0/84 87/0/87
f 88/0/88 89/0/89 90/0/90
f 88/0/88 90/0/90 91/0/91
f 92/0/92 88/0/88 91/0/91
f 92/0/92 91/0/91 93/0/93
f 94/0/94 95/0/95 96/0/96
f 94/0/94 96/0/96 97/0/97
f 98/0/98 99/0/99 100/0/100
f 98/0/98 100/0/100 101/0/101
f 99/0/99 102/0/102 100/0/100
f 99/0/99 103/0/103 102/0/102
f 102/0/102 103/0/103 104/0/104
f 103/0/103 105/0/105 104/0/104
f 103/0/103 106/0/106 105/0/105
f 107/0/107 105/0/105 106/0/106
f 107/0/107 106/0/106 108/0/108
f 102/0/102 104/0/104 109/0/109
f 110/0/110 111/0/111 112/0/112
f 110/0/110 112/0/112 113/0/113
f 114/0/114 115/0/115 116/0/116
f 114/0/114 116/0/116 117/0/117
f 118/0/118 119/0/119 120/0/120
f 118/0/118 120/0/120 121/0/121
f 122/0/122 118/0/118 121/0/121
f 122/0/122 121/0/121 123/0/123
f 124/0/124 125/0/125 126/0/126
f 124/0/124 126/0/126 127/0/127
f 128/0/128 129/0/129 130/0/130
f 128/0/128 131/0/131 129/0/129
f 130/0/130 129/0/129 132/0/132
f 132/0/132 129/0/129 133/0/133
f 134/0/134 129/0/129 131/0/131
f 135/0/135 136/0/136 137/0/137
f 135/0/135 137/0/137 138/0/138
f 139/0/139 140/0/140 141/0/141
f 139/0/139 141/0/141 142/0/142
f 143/0/143 144/0/144 145/0/145
f 143/0/143 145/0/145 146/0/146
f 147/0/147 148/0/148 149/0/149
f 147/0/147 149/0/149 150/0/150
f 151/0/151 152/0/152 153/0/153
f 151/0/151 153/0/153 154/0/154
f 155/0/155 152/0/152 151/0/151
f 155/0/155 156/0/156 152/0/152
