# 
# Wavefront OBJ file
# Created with Kaydara FBX
# 
mtllib polysurface698.mtl

g polySurface698
v -11.324616 0.244547 42.021805
v -11.324616 4.422798 42.021805
v -11.346868 4.422798 41.900135
v -11.346868 0.244547 41.900135
v -11.305304 4.422798 41.783646
v -11.305304 0.244547 41.783646
v -11.211061 4.422798 41.703541
v -11.211061 0.244547 41.703541
v -11.211061 0.244547 41.703541
v -11.211061 4.422798 41.703541
v -11.089393 4.422798 41.681290
v -11.089393 0.244547 41.681290
v -10.972898 4.422798 41.722855
v -10.972898 0.244547 41.722855
v -10.892797 4.422798 41.817101
v -10.892797 0.244547 41.817101
v -10.892797 0.244547 41.817101
v -10.892797 4.422798 41.817101
v -10.870544 4.422798 41.938763
v -10.870544 0.244547 41.938763
v -10.912109 4.422798 42.055260
v -10.912109 0.244547 42.055260
v -11.006351 4.422798 42.135361
v -11.006351 0.244547 42.135361
v -11.006351 0.244547 42.135361
v -11.006351 4.422798 42.135361
v -11.128019 4.422798 42.157612
v -11.128019 0.244547 42.157612
v -11.244513 4.422798 42.116051
v -11.244513 0.244547 42.116051
v -11.244513 0.244547 42.116051
v -11.244513 4.422798 42.116051
v -11.324616 4.422798 42.021805
v -11.324616 0.244547 42.021805
v -10.673826 4.783492 41.937893
v -10.673826 4.717621 41.937893
v -11.269608 4.717621 41.526337
v -11.269608 4.783492 41.526337
v -11.119089 4.497745 41.630310
v -11.269608 4.497745 41.526337
v -11.389328 4.664533 41.443638
v -11.420067 4.497745 41.422401
v -11.400653 4.390510 41.435810
v -11.269608 4.362983 41.526337
v -11.348886 4.317154 41.471573
v -11.269608 4.297493 41.526337
v -10.821844 4.497745 41.835644
v -10.802411 4.428510 41.849072
v -10.673829 4.497745 41.937893
v -10.564231 4.672398 42.013603
v -10.512462 4.497745 42.049366
v -10.531876 4.392477 42.035950
v -10.673829 4.362983 41.937893
v -10.591732 4.321087 41.994602
v -10.673826 4.297493 41.937893
v -10.784018 4.362983 41.861778
v -11.156919 4.362983 41.604179
v -11.138950 4.427002 41.616596
v -10.936995 4.783492 42.318863
v -11.532774 4.783492 41.907303
v -11.532774 4.717621 41.907303
v -10.936995 4.717621 42.318863
v -11.532774 4.497745 41.907303
v -11.652496 4.664533 41.824604
v -11.683233 4.497745 41.803368
v -11.663820 4.390510 41.816780
v -11.532774 4.362983 41.907303
v -11.612052 4.317154 41.852543
v -11.532774 4.297493 41.907303
v -11.382257 4.497745 42.011280
v -11.085012 4.497745 42.216610
v -11.065578 4.428510 42.230038
v -10.936996 4.497745 42.318863
v -10.827398 4.672398 42.394569
v -10.775630 4.497745 42.430332
v -10.795042 4.392477 42.416920
v -10.936996 4.362983 42.318863
v -10.854899 4.321087 42.375572
v -10.936995 4.297493 42.318863
v -11.047184 4.362983 42.242744
v -11.402118 4.427002 41.997562
v -11.420087 4.362983 41.985146
v -10.936995 4.783492 42.318863
v -10.936995 4.717621 42.318863
v -10.673826 4.717621 41.937893
v -10.673826 4.783492 41.937893
v -11.532774 4.717621 41.907303
v -11.532774 4.783492 41.907303
v -11.269608 4.783492 41.526337
v -11.269608 4.717621 41.526337
v -11.532774 4.783492 41.907303
v -10.936995 4.783492 42.318863
v -10.673826 4.783492 41.937893
v -11.269608 4.783492 41.526337
v -10.827398 4.672398 42.394569
v -10.775630 4.497745 42.430332
v -10.512462 4.497745 42.049366
v -10.564231 4.672398 42.013603
v -10.936995 4.717621 42.318863
v -10.827398 4.672398 42.394569
v -10.564231 4.672398 42.013603
v -10.673826 4.717621 41.937893
v -10.775630 4.497745 42.430332
v -10.795042 4.392477 42.416920
v -10.531876 4.392477 42.035950
v -10.512462 4.497745 42.049366
v -10.795042 4.392477 42.416920
v -10.854899 4.321087 42.375572
v -10.591732 4.321087 41.994602
v -10.531876 4.392477 42.035950
v -10.854899 4.321087 42.375572
v -10.936995 4.297493 42.318863
v -10.673826 4.297493 41.937893
v -10.591732 4.321087 41.994602
v -11.532774 4.297493 41.907303
v -11.612052 4.317154 41.852543
v -11.348886 4.317154 41.471573
v -11.269608 4.297493 41.526337
v -11.612052 4.317154 41.852543
v -11.663820 4.390510 41.816780
v -11.400653 4.390510 41.435810
v -11.348886 4.317154 41.471573
v -11.663820 4.390510 41.816780
v -11.683233 4.497745 41.803368
v -11.420067 4.497745 41.422401
v -11.400653 4.390510 41.435810
v -11.652496 4.664533 41.824604
v -11.532774 4.717621 41.907303
v -11.269608 4.717621 41.526337
v -11.389328 4.664533 41.443638
v -11.683233 4.497745 41.803368
v -11.652496 4.664533 41.824604
v -11.389328 4.664533 41.443638
v -11.420067 4.497745 41.422401
v -10.936995 4.297493 42.318863
v -11.047184 4.362983 42.242744
v -10.784018 4.362983 41.861778
v -10.673826 4.297493 41.937893
v -11.047184 4.362983 42.242744
v -11.065578 4.428510 42.230038
v -10.802411 4.428510 41.849072
v -10.784018 4.362983 41.861778
v -11.065578 4.428510 42.230038
v -11.402118 4.427002 41.997562
v -11.138950 4.427002 41.616596
v -10.802411 4.428510 41.849072
v -11.420087 4.362983 41.985146
v -11.532774 4.297493 41.907303
v -11.269608 4.297493 41.526337
v -11.156919 4.362983 41.604179
v -11.402118 4.427002 41.997562
v -11.420087 4.362983 41.985146
v -11.156919 4.362983 41.604179
v -11.138950 4.427002 41.616596
vt 0.734937 0.927047
vt 0.346145 0.927047
vt 0.346145 0.934590
vt 0.734937 0.934591
vt 0.346145 0.942134
vt 0.734937 0.942134
vt 0.346145 0.949677
vt 0.734937 0.949677
vt 0.734937 0.949677
vt 0.346145 0.949677
vt 0.346145 0.957221
vt 0.734937 0.957221
vt 0.346145 0.964764
vt 0.734937 0.964764
vt 0.346145 0.972307
vt 0.734937 0.972307
vt 0.734937 0.927000
vt 0.346145 0.927000
vt 0.346145 0.934543
vt 0.734937 0.934543
vt 0.346145 0.942086
vt 0.734937 0.942086
vt 0.346145 0.949630
vt 0.734937 0.949630
vt 0.734937 0.949630
vt 0.346145 0.949630
vt 0.346145 0.957173
vt 0.734937 0.957173
vt 0.346145 0.964716
vt 0.734937 0.964716
vt 0.734937 0.964716
vt 0.346145 0.964716
vt 0.346145 0.972260
vt 0.734937 0.972260
vt 0.309986 0.916865
vt 0.314493 0.916865
vt 0.314493 0.982608
vt 0.309986 0.982608
vt 0.334519 0.965999
vt 0.334520 0.982618
vt 0.320234 0.994738
vt 0.334617 0.999376
vt 0.344682 0.996237
vt 0.346870 0.982576
vt 0.349639 0.990842
vt 0.351313 0.982465
vt 0.334515 0.933179
vt 0.340874 0.931047
vt 0.334514 0.916836
vt 0.319632 0.905309
vt 0.334595 0.898857
vt 0.344532 0.901972
vt 0.346896 0.916879
vt 0.349518 0.908190
vt 0.351412 0.917003
vt 0.346892 0.929029
vt 0.346875 0.970150
vt 0.341005 0.968178
vt 0.309986 0.916865
vt 0.309986 0.982608
vt 0.314493 0.982608
vt 0.314493 0.916865
vt 0.334520 0.982618
vt 0.320234 0.994738
vt 0.334617 0.999376
vt 0.344682 0.996237
vt 0.346870 0.982576
vt 0.349639 0.990842
vt 0.351313 0.982465
vt 0.334519 0.965999
vt 0.334515 0.933179
vt 0.340874 0.931047
vt 0.334514 0.916836
vt 0.319632 0.905309
vt 0.334595 0.898857
vt 0.344532 0.901972
vt 0.346896 0.916879
vt 0.349518 0.908190
vt 0.351412 0.917003
vt 0.346892 0.929029
vt 0.341005 0.968178
vt 0.346875 0.970150
vt 0.314493 0.916865
vt 0.309986 0.916865
vt 0.309986 0.982608
vt 0.314493 0.982608
vt 0.314493 0.916865
vt 0.309986 0.916865
vt 0.309986 0.982608
vt 0.314493 0.982608
vt 0.029125 0.822952
vt 0.029125 0.874103
vt 0.123294 0.874103
vt 0.123294 0.822952
vt 0.016585 0.874753
vt 0.026742 0.874753
vt 0.026742 0.823466
vt 0.016585 0.823466
vt 0.008888 0.874753
vt 0.016585 0.874753
vt 0.016585 0.823466
vt 0.008888 0.823466
vt 0.026742 0.874753
vt 0.032645 0.874753
vt 0.032645 0.823466
vt 0.026742 0.823466
vt 0.032645 0.874753
vt 0.038222 0.874753
vt 0.038222 0.823466
vt 0.032645 0.823466
vt 0.038222 0.874753
vt 0.043832 0.874753
vt 0.043832 0.823466
vt 0.038222 0.823466
vt 0.090165 0.874752
vt 0.095546 0.874753
vt 0.095546 0.823465
vt 0.090165 0.823465
vt 0.095546 0.874753
vt 0.100834 0.874753
vt 0.100833 0.823466
vt 0.095546 0.823465
vt 0.100834 0.874753
vt 0.106842 0.874753
vt 0.106842 0.823465
vt 0.100833 0.823466
vt 0.116194 0.874753
vt 0.124668 0.874752
vt 0.124669 0.823465
vt 0.116194 0.823465
vt 0.106842 0.874753
vt 0.116194 0.874753
vt 0.116194 0.823465
vt 0.106842 0.823465
vt 0.043832 0.874753
vt 0.051989 0.874753
vt 0.051989 0.823466
vt 0.043832 0.823466
vt 0.051989 0.874753
vt 0.055778 0.874753
vt 0.055777 0.823466
vt 0.051989 0.823466
vt 0.055778 0.874753
vt 0.078158 0.874753
vt 0.078158 0.823466
vt 0.055777 0.823466
vt 0.081859 0.874753
vt 0.090165 0.874752
vt 0.090165 0.823465
vt 0.081859 0.823466
vt 0.078158 0.874753
vt 0.081859 0.874753
vt 0.081859 0.823466
vt 0.078158 0.823466
vn -0.903608 0.000000 0.428361
vn -0.903608 0.000000 0.428361
vn -0.996728 0.000000 -0.080826
vn -0.996728 0.000000 -0.080826
vn -0.822775 0.000000 -0.568368
vn -0.822775 0.000000 -0.568368
vn -0.428373 0.000000 -0.903602
vn -0.428373 0.000000 -0.903602
vn -0.428373 0.000000 -0.903602
vn -0.428373 0.000000 -0.903602
vn 0.080832 0.000000 -0.996728
vn 0.080832 0.000000 -0.996728
vn 0.568375 0.000000 -0.822770
vn 0.568375 0.000000 -0.822770
vn 0.903605 0.000000 -0.428366
vn 0.903605 0.000000 -0.428366
vn 0.903605 0.000000 -0.428366
vn 0.903605 0.000000 -0.428366
vn 0.996728 0.000000 0.080827
vn 0.996728 0.000000 0.080827
vn 0.822775 0.000000 0.568368
vn 0.822775 0.000000 0.568368
vn 0.428363 0.000000 0.903607
vn 0.428363 0.000000 0.903607
vn 0.428363 0.000000 0.903607
vn 0.428363 0.000000 0.903607
vn -0.080820 0.000000 0.996729
vn -0.080820 0.000000 0.996729
vn -0.568358 0.000000 0.822781
vn -0.568358 0.000000 0.822781
vn -0.568358 0.000000 0.822781
vn -0.568358 0.000000 0.822781
vn -0.903608 0.000000 0.428361
vn -0.903608 0.000000 0.428361
vn 0.568365 0.000000 -0.822776
vn 0.568363 0.000003 -0.822778
vn 0.568364 0.000003 -0.822777
vn 0.568365 0.000000 -0.822776
vn 0.568364 -0.000001 -0.822777
vn 0.568365 0.000003 -0.822776
vn 0.568368 0.000000 -0.822774
vn 0.568365 0.000004 -0.822777
vn 0.568362 0.000008 -0.822778
vn 0.568371 -0.000000 -0.822772
vn 0.568379 0.000000 -0.822767
vn 0.568375 0.000000 -0.822769
vn 0.568363 -0.000001 -0.822778
vn 0.568372 -0.000005 -0.822772
vn 0.568361 0.000003 -0.822779
vn 0.568355 -0.000005 -0.822783
vn 0.568350 0.000001 -0.822787
vn 0.568342 0.000009 -0.822792
vn 0.568358 0.000005 -0.822781
vn 0.568336 0.000012 -0.822796
vn 0.568359 0.000015 -0.822781
vn 0.568373 -0.000004 -0.822771
vn 0.568377 -0.000009 -0.822768
vn 0.568358 -0.000058 -0.822781
vn -0.568363 0.000000 0.822778
vn -0.568363 0.000000 0.822778
vn -0.568366 -0.000004 0.822776
vn -0.568365 -0.000003 0.822777
vn -0.568366 -0.000003 0.822776
vn -0.568358 -0.000004 0.822781
vn -0.568353 0.000003 0.822785
vn -0.568347 0.000014 0.822789
vn -0.568362 0.000009 0.822778
vn -0.568350 0.000012 0.822787
vn -0.568356 0.000008 0.822783
vn -0.568367 -0.000002 0.822775
vn -0.568367 -0.000002 0.822775
vn -0.568377 0.000005 0.822768
vn -0.568364 -0.000004 0.822777
vn -0.568352 0.000006 0.822786
vn -0.568349 -0.000002 0.822788
vn -0.568345 -0.000013 0.822790
vn -0.568363 -0.000005 0.822778
vn -0.568346 -0.000012 0.822789
vn -0.568367 -0.000008 0.822775
vn -0.568379 0.000004 0.822767
vn -0.568355 0.000032 0.822783
vn -0.568379 0.000004 0.822767
vn 0.822776 0.000000 0.568366
vn 0.822776 0.000000 0.568366
vn 0.822776 0.000000 0.568366
vn 0.822776 0.000000 0.568366
vn -0.822778 0.000000 -0.568364
vn -0.822778 0.000000 -0.568364
vn -0.822778 0.000000 -0.568364
vn -0.822778 0.000000 -0.568364
vn 0.000000 1.000000 0.000000
vn 0.000000 1.000000 0.000000
vn 0.000000 1.000000 0.000000
vn 0.000000 1.000000 0.000000
vn 0.774075 0.338937 0.534724
vn 0.774075 0.338937 0.534724
vn 0.774075 0.338937 0.534724
vn 0.774075 0.338937 0.534724
vn 0.264510 0.946915 0.182720
vn 0.264510 0.946915 0.182720
vn 0.264510 0.946915 0.182720
vn 0.264510 0.946915 0.182720
vn 0.802853 -0.218731 0.554603
vn 0.802853 -0.218731 0.554603
vn 0.802853 -0.218731 0.554603
vn 0.802853 -0.218731 0.554603
vn 0.576281 -0.713742 0.398087
vn 0.576281 -0.713742 0.398087
vn 0.576281 -0.713742 0.398087
vn 0.576281 -0.713742 0.398087
vn 0.189341 -0.973161 0.130795
vn 0.189341 -0.973161 0.130795
vn 0.189341 -0.973161 0.130795
vn 0.189341 -0.973161 0.130795
vn -0.164505 -0.979809 -0.113636
vn -0.164505 -0.979809 -0.113636
vn -0.164505 -0.979809 -0.113636
vn -0.164505 -0.979809 -0.113636
vn -0.624523 -0.651044 -0.431406
vn -0.624523 -0.651044 -0.431406
vn -0.624523 -0.651044 -0.431406
vn -0.624524 -0.651044 -0.431406
vn -0.803558 -0.214892 -0.555082
vn -0.803558 -0.214892 -0.555082
vn -0.803558 -0.214892 -0.555082
vn -0.803558 -0.214892 -0.555082
vn -0.282004 0.939428 -0.194804
vn -0.282004 0.939428 -0.194804
vn -0.282004 0.939428 -0.194804
vn -0.282004 0.939428 -0.194804
vn -0.802883 0.218575 -0.554621
vn -0.802883 0.218575 -0.554621
vn -0.802883 0.218575 -0.554621
vn -0.802883 0.218575 -0.554621
vn -0.361445 -0.898341 -0.249683
vn -0.361445 -0.898341 -0.249683
vn -0.361445 -0.898341 -0.249683
vn -0.361445 -0.898341 -0.249683
vn -0.778705 -0.322890 -0.537922
vn -0.778705 -0.322889 -0.537922
vn -0.778705 -0.322890 -0.537922
vn -0.778705 -0.322889 -0.537922
vn 0.003033 -0.999993 0.002095
vn 0.003033 -0.999993 0.002095
vn 0.003033 -0.999993 0.002095
vn 0.003033 -0.999993 0.002095
vn 0.354940 -0.902165 0.245187
vn 0.354940 -0.902165 0.245187
vn 0.354940 -0.902165 0.245187
vn 0.354940 -0.902165 0.245187
vn 0.778704 -0.322894 0.537921
vn 0.778704 -0.322894 0.537921
vn 0.778704 -0.322894 0.537921
vn 0.778704 -0.322894 0.537921
usemtl material
f 1/0/1 2/0/2 3/0/3
f 1/0/1 3/0/3 4/0/4
f 4/0/4 3/0/3 5/0/5
f 4/0/4 5/0/5 6/0/6
f 6/0/6 5/0/5 7/0/7
f 6/0/6 7/0/7 8/0/8
f 9/0/9 10/0/10 11/0/11
f 9/0/9 11/0/11 12/0/12
f 12/0/12 11/0/11 13/0/13
f 12/0/12 13/0/13 14/0/14
f 14/0/14 13/0/13 15/0/15
f 14/0/14 15/0/15 16/0/16
f 17/0/17 18/0/18 19/0/19
f 17/0/17 19/0/19 20/0/20
f 20/0/20 19/0/19 21/0/21
f 20/0/20 21/0/21 22/0/22
f 22/0/22 21/0/21 23/0/23
f 22/0/22 23/0/23 24/0/24
f 25/0/25 26/0/26 27/0/27
f 25/0/25 27/0/27 28/0/28
f 28/0/28 27/0/27 29/0/29
f 28/0/28 29/0/29 30/0/30
f 31/0/31 32/0/32 33/0/33
f 31/0/31 33/0/33 34/0/34
f 35/0/35 36/0/36 37/0/37
f 35/0/35 37/0/37 38/0/38
f 37/0/37 36/0/36 39/0/39
f 39/0/39 40/0/40 37/0/37
f 41/0/41 37/0/37 40/0/40
f 41/0/41 40/0/40 42/0/42
f 40/0/40 43/0/43 42/0/42
f 40/0/40 44/0/44 43/0/43
f 44/0/44 45/0/45 43/0/43
f 44/0/44 46/0/46 45/0/45
f 36/0/36 47/0/47 39/0/39
f 48/0/48 39/0/39 47/0/47
f 48/0/48 47/0/47 49/0/49
f 36/0/36 49/0/49 47/0/47
f 50/0/50 49/0/49 36/0/36
f 50/0/50 51/0/51 49/0/49
f 49/0/49 51/0/51 52/0/52
f 49/0/49 52/0/52 53/0/53
f 53/0/53 52/0/52 54/0/54
f 53/0/53 54/0/54 55/0/55
f 55/0/55 56/0/56 53/0/53
f 49/0/49 56/0/56 48/0/48
f 49/0/49 53/0/53 56/0/56
f 57/0/57 46/0/46 44/0/44
f 57/0/57 44/0/44 40/0/40
f 40/0/40 58/0/58 57/0/57
f 48/0/48 58/0/58 39/0/39
f 40/0/40 39/0/39 58/0/58
f 59/0/59 60/0/60 61/0/61
f 59/0/59 61/0/61 62/0/62
f 62/0/62 61/0/61 63/0/63
f 64/0/64 63/0/63 61/0/61
f 64/0/64 65/0/65 63/0/63
f 63/0/63 65/0/65 66/0/66
f 63/0/63 66/0/66 67/0/67
f 67/0/67 66/0/66 68/0/68
f 67/0/67 68/0/68 69/0/69
f 63/0/63 70/0/70 62/0/62
f 70/0/70 63/0/63 67/0/67
f 70/0/70 71/0/71 62/0/62
f 72/0/72 71/0/71 70/0/70
f 73/0/73 71/0/71 72/0/72
f 71/0/71 73/0/73 62/0/62
f 74/0/74 62/0/62 73/0/73
f 74/0/74 73/0/73 75/0/75
f 73/0/73 76/0/76 75/0/75
f 73/0/73 77/0/77 76/0/76
f 77/0/77 78/0/78 76/0/76
f 77/0/77 79/0/79 78/0/78
f 79/0/79 77/0/77 80/0/80
f 72/0/72 80/0/80 73/0/73
f 80/0/80 77/0/77 73/0/73
f 72/0/72 70/0/70 81/0/81
f 67/0/67 81/0/81 70/0/70
f 82/0/82 67/0/67 69/0/69
f 67/0/67 82/0/82 81/0/81
f 83/0/83 84/0/84 85/0/85
f 83/0/83 85/0/85 86/0/86
f 87/0/87 88/0/88 89/0/89
f 87/0/87 89/0/89 90/0/90
f 91/0/91 92/0/92 93/0/93
f 91/0/91 93/0/93 94/0/94
f 95/0/95 96/0/96 97/0/97
f 95/0/95 97/0/97 98/0/98
f 99/0/99 100/0/100 101/0/101
f 99/0/99 101/0/101 102/0/102
f 103/0/103 104/0/104 105/0/105
f 103/0/103 105/0/105 106/0/106
f 107/0/107 108/0/108 109/0/109
f 107/0/107 109/0/109 110/0/110
f 111/0/111 112/0/112 113/0/113
f 111/0/111 113/0/113 114/0/114
f 115/0/115 116/0/116 117/0/117
f 115/0/115 117/0/117 118/0/118
f 119/0/119 120/0/120 121/0/121
f 119/0/119 121/0/121 122/0/122
f 123/0/123 124/0/124 125/0/125
f 123/0/123 125/0/125 126/0/126
f 127/0/127 128/0/128 129/0/129
f 127/0/127 129/0/129 130/0/130
f 131/0/131 132/0/132 133/0/133
f 131/0/131 133/0/133 134/0/134
f 135/0/135 136/0/136 137/0/137
f 135/0/135 137/0/137 138/0/138
f 139/0/139 140/0/140 141/0/141
f 139/0/139 141/0/141 142/0/142
f 143/0/143 144/0/144 145/0/145
f 143/0/143 145/0/145 146/0/146
f 147/0/147 148/0/148 149/0/149
f 147/0/147 149/0/149 150/0/150
f 151/0/151 152/0/152 153/0/153
f 151/0/151 153/0/153 154/0/154
