# 
# Wavefront OBJ file
# Created with Kaydara FBX
# 
mtllib polysurface5 #222600.mtl

g polySurface5
v -0.227976 0.052833 0.003180
v -0.222534 0.056685 0.032666
v -0.194938 0.123573 0.032406
v -0.200380 0.119720 0.002920
v -0.147993 0.178553 0.031003
v -0.153435 0.174700 0.001517
v -0.086296 0.216243 0.028594
v -0.091737 0.212390 -0.000893
v -0.015885 0.232954 0.025414
v -0.021326 0.229102 -0.004072
v 0.056348 0.227051 0.021775
v 0.050906 0.223199 -0.007712
v 0.123331 0.199111 0.018033
v 0.117889 0.195259 -0.011454
v 0.178507 0.151869 0.014554
v 0.173066 0.148017 -0.014932
v 0.216477 0.089950 0.011679
v 0.211035 0.086098 -0.017807
v 0.233523 0.019414 0.009690
v 0.228081 0.015562 -0.019797
v 0.227976 -0.052833 0.008780
v 0.222534 -0.056685 -0.020706
v 0.200379 -0.119720 0.009040
v 0.194938 -0.123573 -0.020446
v 0.153435 -0.174700 0.010443
v 0.147993 -0.178552 -0.019043
v 0.091737 -0.212390 0.012852
v 0.086296 -0.216243 -0.016634
v 0.021326 -0.229102 0.016032
v 0.015885 -0.232954 -0.013454
v -0.050906 -0.223199 0.019671
v -0.056348 -0.227051 -0.009815
v -0.117889 -0.195259 0.023413
v -0.123331 -0.199111 -0.006073
v -0.173066 -0.148017 0.026892
v -0.178507 -0.151869 -0.002594
v -0.211035 -0.086098 0.029767
v -0.216477 -0.089950 0.000281
v -0.228081 -0.015562 0.031756
v -0.233523 -0.019415 0.002270
v -0.222534 0.056685 0.032666
v -0.227976 0.052833 0.003180
v -0.121251 -0.159380 -0.009622
v -0.118876 -0.168334 0.021250
v -0.163976 -0.123576 0.025595
v -0.166351 -0.114623 -0.005277
v -0.192908 -0.067160 0.028925
v -0.195283 -0.058207 -0.001947
v -0.202841 -0.004608 0.030913
v -0.205216 0.004345 0.000041
v -0.192803 0.057956 0.031365
v -0.195178 0.066910 0.000493
v -0.163775 0.114410 0.030236
v -0.166150 0.123363 -0.000636
v -0.118600 0.159226 0.027638
v -0.120975 0.168179 -0.003234
v -0.061699 0.188017 0.023824
v -0.064074 0.196971 -0.007049
v 0.001358 0.197966 0.019167
v -0.001017 0.206919 -0.011705
v 0.064398 0.188098 0.014124
v 0.062023 0.197052 -0.016748
v 0.121251 0.159380 0.009189
v 0.118875 0.168334 -0.021684
v 0.166350 0.114623 0.004843
v 0.163975 0.123576 -0.026029
v 0.195283 0.058207 0.001514
v 0.192908 0.067160 -0.029359
v 0.205216 -0.004345 -0.000474
v 0.202841 0.004608 -0.031347
v 0.195178 -0.066910 -0.000926
v 0.192803 -0.057957 -0.031798
v 0.166150 -0.123363 0.000202
v 0.163775 -0.114410 -0.030670
v 0.120975 -0.168179 0.002801
v 0.118600 -0.159226 -0.028071
v 0.064074 -0.196971 0.006615
v 0.061699 -0.188017 -0.024257
v 0.001017 -0.206919 0.011272
v -0.001358 -0.197966 -0.019601
v -0.062023 -0.197052 0.016314
v -0.064398 -0.188098 -0.014558
v -0.118876 -0.168334 0.021250
v -0.121251 -0.159380 -0.009622
v -0.105427 -0.136019 -0.016849
v -0.088653 -0.136019 0.012669
v -0.125233 -0.098865 0.014875
v -0.142008 -0.098865 -0.014644
v -0.148734 -0.052034 0.016292
v -0.165509 -0.052034 -0.013226
v -0.156855 -0.000109 0.016782
v -0.173629 -0.000109 -0.012737
v -0.148800 0.051826 0.016296
v -0.165575 0.051826 -0.013222
v -0.125359 0.098689 0.014883
v -0.142134 0.098689 -0.014636
v -0.088826 0.135891 0.012679
v -0.105601 0.135891 -0.016839
v -0.042777 0.159791 0.009903
v -0.059552 0.159791 -0.019616
v 0.008280 0.168049 0.006824
v -0.008495 0.168049 -0.022695
v 0.059348 0.159858 0.003744
v 0.042573 0.159858 -0.025774
v 0.105427 0.136019 0.000965
v 0.088653 0.136019 -0.028553
v 0.142008 0.098865 -0.001241
v 0.125233 0.098865 -0.030759
v 0.165509 0.052034 -0.002658
v 0.148734 0.052034 -0.032176
v 0.173629 0.000109 -0.003147
v 0.156855 0.000109 -0.032666
v 0.165575 -0.051826 -0.002662
v 0.148800 -0.051826 -0.032180
v 0.142134 -0.098689 -0.001248
v 0.125359 -0.098689 -0.030767
v 0.105601 -0.135891 0.000955
v 0.088826 -0.135891 -0.028564
v 0.059552 -0.159791 0.003732
v 0.042777 -0.159791 -0.025787
v 0.008495 -0.168049 0.006811
v -0.008280 -0.168049 -0.022708
v -0.042573 -0.159858 0.009890
v -0.059348 -0.159858 -0.019628
v -0.088653 -0.136019 0.012669
v -0.105427 -0.136019 -0.016849
vt 0.500000 -0.992061
vt 0.300000 -0.992061
vt 0.300000 -0.892429
vt 0.500000 -0.892429
vt 0.300000 -0.792797
vt 0.500000 -0.792797
vt 0.300000 -0.693165
vt 0.500000 -0.693165
vt 0.300000 -0.593533
vt 0.500000 -0.593533
vt 0.300000 -0.493901
vt 0.500000 -0.493901
vt 0.300000 -0.394269
vt 0.500000 -0.394269
vt 0.300000 -0.294637
vt 0.500000 -0.294637
vt 0.300000 -0.195005
vt 0.500000 -0.195005
vt 0.300000 -0.095373
vt 0.500000 -0.095373
vt 0.300000 0.004259
vt 0.500000 0.004259
vt 0.300000 0.103891
vt 0.500000 0.103891
vt 0.300000 0.203523
vt 0.500000 0.203523
vt 0.300000 0.303156
vt 0.500000 0.303156
vt 0.300000 0.402787
vt 0.500000 0.402787
vt 0.300000 0.502419
vt 0.500000 0.502419
vt 0.300000 0.602051
vt 0.500000 0.602051
vt 0.300000 0.701684
vt 0.500000 0.701683
vt 0.300000 0.801316
vt 0.500000 0.801315
vt 0.300000 0.900947
vt 0.500000 0.900947
vt 0.300000 1.000580
vt 0.500000 1.000579
vt 0.700000 -0.992061
vt 0.500000 -0.992061
vt 0.500000 -0.892429
vt 0.700000 -0.892429
vt 0.500000 -0.792797
vt 0.700000 -0.792797
vt 0.500000 -0.693165
vt 0.700000 -0.693165
vt 0.500000 -0.593533
vt 0.700000 -0.593533
vt 0.500000 -0.493901
vt 0.700000 -0.493901
vt 0.500000 -0.394269
vt 0.700000 -0.394269
vt 0.500000 -0.294637
vt 0.700000 -0.294637
vt 0.500000 -0.195005
vt 0.700000 -0.195005
vt 0.500000 -0.095373
vt 0.700000 -0.095373
vt 0.500000 0.004259
vt 0.700000 0.004259
vt 0.500000 0.103891
vt 0.700000 0.103891
vt 0.500000 0.203523
vt 0.700000 0.203523
vt 0.500000 0.303156
vt 0.700000 0.303156
vt 0.500000 0.402787
vt 0.700000 0.402787
vt 0.500000 0.502419
vt 0.700000 0.502419
vt 0.500000 0.602051
vt 0.700000 0.602051
vt 0.500000 0.701684
vt 0.700000 0.701683
vt 0.500000 0.801316
vt 0.700000 0.801315
vt 0.500000 0.900947
vt 0.700000 0.900947
vt 0.500000 1.000580
vt 0.700000 1.000579
vt 1.000000 0.003465
vt 0.800000 0.003465
vt 0.800000 0.052924
vt 1.000000 0.052924
vt 0.800000 0.102382
vt 1.000000 0.102382
vt 0.800000 0.151841
vt 1.000000 0.151841
vt 0.800000 0.201300
vt 1.000000 0.201300
vt 0.800000 0.250758
vt 1.000000 0.250758
vt 0.800000 0.300217
vt 1.000000 0.300217
vt 0.800000 0.349676
vt 1.000000 0.349676
vt 0.800000 0.399134
vt 1.000000 0.399134
vt 0.800000 0.448593
vt 1.000000 0.448593
vt 0.800000 0.498051
vt 1.000000 0.498051
vt 0.800000 0.547510
vt 1.000000 0.547510
vt 0.800000 0.596969
vt 1.000000 0.596969
vt 0.800000 0.646428
vt 1.000000 0.646428
vt 0.800000 0.695886
vt 1.000000 0.695886
vt 0.800000 0.745345
vt 1.000000 0.745345
vt 0.800000 0.794803
vt 1.000000 0.794803
vt 0.800000 0.844262
vt 1.000000 0.844262
vt 0.800000 0.893721
vt 1.000000 0.893721
vt 0.800000 0.943179
vt 1.000000 0.943179
vt 0.800000 0.992638
vt 1.000000 0.992638
vn -0.969530 0.237837 0.058692
vn -0.969530 0.237837 0.058692
vn -0.850727 0.525094 0.023245
vn -0.850727 0.525094 0.023245
vn -0.648648 0.760951 -0.014476
vn -0.648648 0.760951 -0.014476
vn -0.383075 0.922320 -0.050781
vn -0.383075 0.922320 -0.050781
vn -0.080005 0.993406 -0.082114
vn -0.080005 0.993406 -0.082114
vn 0.230897 0.967251 -0.105410
vn 0.230897 0.967251 -0.105410
vn 0.519198 0.846415 -0.118388
vn 0.519198 0.846415 -0.118388
vn 0.756676 0.642725 -0.119777
vn 0.756676 0.642725 -0.119777
vn 0.920084 0.376122 -0.109441
vn 0.920084 0.376122 -0.109441
vn 0.993429 0.072700 -0.088392
vn 0.993429 0.072700 -0.088392
vn 0.969530 -0.237838 -0.058691
vn 0.969530 -0.237838 -0.058691
vn 0.850727 -0.525094 -0.023245
vn 0.850727 -0.525094 -0.023245
vn 0.648648 -0.760951 0.014476
vn 0.648648 -0.760951 0.014476
vn 0.383075 -0.922320 0.050781
vn 0.383076 -0.922320 0.050781
vn 0.080005 -0.993406 0.082115
vn 0.080005 -0.993406 0.082115
vn -0.230897 -0.967251 0.105410
vn -0.230897 -0.967251 0.105410
vn -0.519198 -0.846415 0.118388
vn -0.519198 -0.846415 0.118388
vn -0.756675 -0.642725 0.119777
vn -0.756675 -0.642725 0.119777
vn -0.920084 -0.376122 0.109441
vn -0.920084 -0.376122 0.109441
vn -0.993429 -0.072701 0.088393
vn -0.993429 -0.072701 0.088393
vn -0.969530 0.237837 0.058692
vn -0.969530 0.237837 0.058692
vn -0.587259 -0.798471 -0.132555
vn -0.587259 -0.798471 -0.132555
vn -0.808635 -0.580368 -0.096348
vn -0.808635 -0.580368 -0.096348
vn -0.950856 -0.305454 -0.050709
vn -0.950856 -0.305454 -0.050709
vn -1.000000 -0.000641 -0.000106
vn -1.000000 -0.000641 -0.000106
vn -0.951257 0.304235 0.050507
vn -0.951257 0.304235 0.050507
vn -0.809399 0.579331 0.096176
vn -0.809399 0.579331 0.096176
vn -0.588310 0.797717 0.132430
vn -0.588310 0.797717 0.132430
vn -0.309635 0.938018 0.155722
vn -0.309635 0.938018 0.155722
vn -0.000650 0.986498 0.163770
vn -0.000650 0.986498 0.163770
vn 0.308399 0.938414 0.155788
vn 0.308399 0.938414 0.155788
vn 0.587260 0.798471 0.132556
vn 0.587260 0.798470 0.132556
vn 0.808635 0.580367 0.096348
vn 0.808635 0.580367 0.096348
vn 0.950856 0.305454 0.050709
vn 0.950856 0.305454 0.050709
vn 1.000000 0.000641 0.000106
vn 1.000000 0.000641 0.000106
vn 0.951257 -0.304235 -0.050507
vn 0.951257 -0.304235 -0.050507
vn 0.809399 -0.579331 -0.096175
vn 0.809399 -0.579331 -0.096175
vn 0.588311 -0.797717 -0.132430
vn 0.588311 -0.797717 -0.132430
vn 0.309635 -0.938018 -0.155722
vn 0.309635 -0.938018 -0.155722
vn 0.000650 -0.986498 -0.163770
vn 0.000650 -0.986498 -0.163770
vn -0.308398 -0.938414 -0.155787
vn -0.308398 -0.938414 -0.155787
vn -0.587259 -0.798471 -0.132555
vn -0.587259 -0.798471 -0.132555
vn -0.577448 -0.809399 0.106897
vn -0.577448 -0.809399 0.106897
vn -0.795126 -0.588311 0.147193
vn -0.795126 -0.588311 0.147193
vn -0.934970 -0.309635 0.173081
vn -0.934970 -0.309635 0.173081
vn -0.983293 -0.000650 0.182026
vn -0.983293 -0.000650 0.182026
vn -0.935365 0.308399 0.173154
vn -0.935365 0.308399 0.173154
vn -0.795876 0.587260 0.147332
vn -0.795876 0.587260 0.147332
vn -0.578482 0.808635 0.107088
vn -0.578482 0.808635 0.107088
vn -0.304462 0.950856 0.056362
vn -0.304462 0.950856 0.056362
vn -0.000639 1.000000 0.000118
vn -0.000639 1.000000 0.000118
vn 0.303247 0.951257 -0.056137
vn 0.303247 0.951257 -0.056137
vn 0.577449 0.809399 -0.106897
vn 0.577449 0.809399 -0.106897
vn 0.795126 0.588311 -0.147193
vn 0.795126 0.588311 -0.147193
vn 0.934970 0.309635 -0.173081
vn 0.934970 0.309635 -0.173081
vn 0.983293 0.000650 -0.182026
vn 0.983293 0.000650 -0.182026
vn 0.935365 -0.308399 -0.173154
vn 0.935365 -0.308399 -0.173154
vn 0.795877 -0.587260 -0.147332
vn 0.795876 -0.587260 -0.147332
vn 0.578482 -0.808635 -0.107088
vn 0.578482 -0.808635 -0.107088
vn 0.304462 -0.950856 -0.056362
vn 0.304462 -0.950856 -0.056362
vn 0.000639 -1.000000 -0.000118
vn 0.000639 -1.000000 -0.000118
vn -0.303246 -0.951257 0.056137
vn -0.303246 -0.951257 0.056137
vn -0.577448 -0.809399 0.106897
vn -0.577448 -0.809399 0.106897
usemtl material
f 1/0/1 2/0/2 3/0/3
f 1/0/1 3/0/3 4/0/4
f 4/0/4 3/0/3 5/0/5
f 4/0/4 5/0/5 6/0/6
f 6/0/6 5/0/5 7/0/7
f 6/0/6 7/0/7 8/0/8
f 8/0/8 7/0/7 9/0/9
f 8/0/8 9/0/9 10/0/10
f 10/0/10 9/0/9 11/0/11
f 10/0/10 11/0/11 12/0/12
f 12/0/12 11/0/11 13/0/13
f 12/0/12 13/0/13 14/0/14
f 14/0/14 13/0/13 15/0/15
f 14/0/14 15/0/15 16/0/16
f 16/0/16 15/0/15 17/0/17
f 16/0/16 17/0/17 18/0/18
f 18/0/18 17/0/17 19/0/19
f 18/0/18 19/0/19 20/0/20
f 20/0/20 19/0/19 21/0/21
f 20/0/20 21/0/21 22/0/22
f 22/0/22 21/0/21 23/0/23
f 22/0/22 23/0/23 24/0/24
f 24/0/24 23/0/23 25/0/25
f 24/0/24 25/0/25 26/0/26
f 26/0/26 25/0/25 27/0/27
f 26/0/26 27/0/27 28/0/28
f 28/0/28 27/0/27 29/0/29
f 28/0/28 29/0/29 30/0/30
f 30/0/30 29/0/29 31/0/31
f 30/0/30 31/0/31 32/0/32
f 32/0/32 31/0/31 33/0/33
f 32/0/32 33/0/33 34/0/34
f 34/0/34 33/0/33 35/0/35
f 34/0/34 35/0/35 36/0/36
f 36/0/36 35/0/35 37/0/37
f 36/0/36 37/0/37 38/0/38
f 38/0/38 37/0/37 39/0/39
f 38/0/38 39/0/39 40/0/40
f 40/0/40 39/0/39 41/0/41
f 40/0/40 41/0/41 42/0/42
f 43/0/43 44/0/44 45/0/45
f 43/0/43 45/0/45 46/0/46
f 46/0/46 45/0/45 47/0/47
f 46/0/46 47/0/47 48/0/48
f 48/0/48 47/0/47 49/0/49
f 48/0/48 49/0/49 50/0/50
f 50/0/50 49/0/49 51/0/51
f 50/0/50 51/0/51 52/0/52
f 52/0/52 51/0/51 53/0/53
f 52/0/52 53/0/53 54/0/54
f 54/0/54 53/0/53 55/0/55
f 54/0/54 55/0/55 56/0/56
f 56/0/56 55/0/55 57/0/57
f 56/0/56 57/0/57 58/0/58
f 58/0/58 57/0/57 59/0/59
f 58/0/58 59/0/59 60/0/60
f 60/0/60 59/0/59 61/0/61
f 60/0/60 61/0/61 62/0/62
f 62/0/62 61/0/61 63/0/63
f 62/0/62 63/0/63 64/0/64
f 64/0/64 63/0/63 65/0/65
f 64/0/64 65/0/65 66/0/66
f 66/0/66 65/0/65 67/0/67
f 66/0/66 67/0/67 68/0/68
f 68/0/68 67/0/67 69/0/69
f 68/0/68 69/0/69 70/0/70
f 70/0/70 69/0/69 71/0/71
f 70/0/70 71/0/71 72/0/72
f 72/0/72 71/0/71 73/0/73
f 72/0/72 73/0/73 74/0/74
f 74/0/74 73/0/73 75/0/75
f 74/0/74 75/0/75 76/0/76
f 76/0/76 75/0/75 77/0/77
f 76/0/76 77/0/77 78/0/78
f 78/0/78 77/0/77 79/0/79
f 78/0/78 79/0/79 80/0/80
f 80/0/80 79/0/79 81/0/81
f 80/0/80 81/0/81 82/0/82
f 82/0/82 81/0/81 83/0/83
f 82/0/82 83/0/83 84/0/84
f 85/0/85 86/0/86 87/0/87
f 85/0/85 87/0/87 88/0/88
f 88/0/88 87/0/87 89/0/89
f 88/0/88 89/0/89 90/0/90
f 90/0/90 89/0/89 91/0/91
f 90/0/90 91/0/91 92/0/92
f 92/0/92 91/0/91 93/0/93
f 92/0/92 93/0/93 94/0/94
f 94/0/94 93/0/93 95/0/95
f 94/0/94 95/0/95 96/0/96
f 96/0/96 95/0/95 97/0/97
f 96/0/96 97/0/97 98/0/98
f 98/0/98 97/0/97 99/0/99
f 98/0/98 99/0/99 100/0/100
f 100/0/100 99/0/99 101/0/101
f 100/0/100 101/0/101 102/0/102
f 102/0/102 101/0/101 103/0/103
f 102/0/102 103/0/103 104/0/104
f 104/0/104 103/0/103 105/0/105
f 104/0/104 105/0/105 106/0/106
f 106/0/106 105/0/105 107/0/107
f 106/0/106 107/0/107 108/0/108
f 108/0/108 107/0/107 109/0/109
f 108/0/108 109/0/109 110/0/110
f 110/0/110 109/0/109 111/0/111
f 110/0/110 111/0/111 112/0/112
f 112/0/112 111/0/111 113/0/113
f 112/0/112 113/0/113 114/0/114
f 114/0/114 113/0/113 115/0/115
f 114/0/114 115/0/115 116/0/116
f 116/0/116 115/0/115 117/0/117
f 116/0/116 117/0/117 118/0/118
f 118/0/118 117/0/117 119/0/119
f 118/0/118 119/0/119 120/0/120
f 120/0/120 119/0/119 121/0/121
f 120/0/120 121/0/121 122/0/122
f 122/0/122 121/0/121 123/0/123
f 122/0/122 123/0/123 124/0/124
f 124/0/124 123/0/123 125/0/125
f 124/0/124 125/0/125 126/0/126
