# 
# Wavefront OBJ file
# Created with Kaydara FBX
# 
mtllib polysurface701.mtl

g polySurface701
v -5.347480 4.783492 18.418896
v -5.347480 4.717621 18.418896
v -4.623372 4.717621 18.418896
v -4.623372 4.783492 18.418896
v -5.347478 4.497745 18.418896
v -5.480683 4.672398 18.418896
v -5.543602 4.497745 18.418896
v -5.520007 4.392477 18.418896
v -5.347478 4.362983 18.418896
v -5.447258 4.321087 18.418896
v -5.347480 4.297493 18.418896
v -5.213557 4.362983 18.418896
v -5.167581 4.497745 18.418896
v -5.191201 4.428510 18.418896
v -4.806311 4.497745 18.418896
v -4.782173 4.427002 18.418896
v -4.623372 4.497745 18.418896
v -4.477864 4.664533 18.418896
v -4.440506 4.497745 18.418896
v -4.464099 4.390510 18.418896
v -4.623372 4.362983 18.418896
v -4.527019 4.317154 18.418896
v -4.623372 4.297493 18.418896
v -4.760332 4.362983 18.418896
v -5.347480 4.783492 17.955870
v -4.623372 4.783492 17.955870
v -4.623372 4.717621 17.955870
v -5.347480 4.717621 17.955870
v -5.347478 4.497745 17.955870
v -5.480683 4.672398 17.955870
v -5.543602 4.497745 17.955870
v -5.520007 4.392477 17.955870
v -5.347478 4.362983 17.955870
v -5.447258 4.321087 17.955870
v -5.347480 4.297493 17.955870
v -5.213557 4.362983 17.955870
v -5.167581 4.497745 17.955870
v -5.191201 4.428510 17.955870
v -4.806311 4.497745 17.955870
v -4.782173 4.427002 17.955870
v -4.623372 4.497745 17.955870
v -4.477864 4.664533 17.955870
v -4.440506 4.497745 17.955870
v -4.464099 4.390510 17.955870
v -4.623372 4.362983 17.955870
v -4.527019 4.317154 17.955870
v -4.623372 4.297493 17.955870
v -4.760332 4.362983 17.955870
v -5.347480 4.783492 17.955870
v -5.347480 4.717621 17.955870
v -5.347480 4.717621 18.418896
v -5.347480 4.783492 18.418896
v -4.623372 4.717621 17.955870
v -4.623372 4.783492 17.955870
v -4.623372 4.783492 18.418896
v -4.623372 4.717621 18.418896
v -4.623372 4.783492 17.955870
v -5.347480 4.783492 17.955870
v -5.347480 4.783492 18.418896
v -4.623372 4.783492 18.418896
v -5.480683 4.672398 17.955870
v -5.543602 4.497745 17.955870
v -5.543602 4.497745 18.418896
v -5.480683 4.672398 18.418896
v -5.347480 4.717621 17.955870
v -5.480683 4.672398 17.955870
v -5.480683 4.672398 18.418896
v -5.347480 4.717621 18.418896
v -5.543602 4.497745 17.955870
v -5.520007 4.392477 17.955870
v -5.520007 4.392477 18.418896
v -5.543602 4.497745 18.418896
v -5.520007 4.392477 17.955870
v -5.447258 4.321087 17.955870
v -5.447258 4.321087 18.418896
v -5.520007 4.392477 18.418896
v -5.447258 4.321087 17.955870
v -5.347480 4.297493 17.955870
v -5.347480 4.297493 18.418896
v -5.447258 4.321087 18.418896
v -4.623372 4.297493 17.955870
v -4.527019 4.317154 17.955870
v -4.527019 4.317154 18.418896
v -4.623372 4.297493 18.418896
v -4.527019 4.317154 17.955870
v -4.464099 4.390510 17.955870
v -4.464099 4.390510 18.418896
v -4.527019 4.317154 18.418896
v -4.464099 4.390510 17.955870
v -4.440506 4.497745 17.955870
v -4.440506 4.497745 18.418896
v -4.464099 4.390510 18.418896
v -4.477864 4.664533 17.955870
v -4.623372 4.717621 17.955870
v -4.623372 4.717621 18.418896
v -4.477864 4.664533 18.418896
v -4.440506 4.497745 17.955870
v -4.477864 4.664533 17.955870
v -4.477864 4.664533 18.418896
v -4.440506 4.497745 18.418896
v -5.347480 4.297493 17.955870
v -5.213557 4.362983 17.955870
v -5.213557 4.362983 18.418896
v -5.347480 4.297493 18.418896
v -5.213557 4.362983 17.955870
v -5.191201 4.428510 17.955870
v -5.191201 4.428510 18.418896
v -5.213557 4.362983 18.418896
v -5.191201 4.428510 17.955870
v -4.782173 4.427002 17.955870
v -4.782173 4.427002 18.418896
v -5.191201 4.428510 18.418896
v -4.760332 4.362983 17.955870
v -4.623372 4.297493 17.955870
v -4.623372 4.297493 18.418896
v -4.760332 4.362983 18.418896
v -4.782173 4.427002 17.955870
v -4.760332 4.362983 17.955870
v -4.760332 4.362983 18.418896
v -4.782173 4.427002 18.418896
v -4.859718 0.244547 17.979969
v -4.859718 4.422798 17.979969
v -4.772258 4.422798 18.067429
v -4.772258 0.244547 18.067429
v -4.740246 4.422798 18.186901
v -4.740246 0.244547 18.186901
v -4.772258 4.422798 18.306372
v -4.772258 0.244547 18.306372
v -4.859718 4.422798 18.393831
v -4.859718 0.244547 18.393831
v -4.859718 0.244547 18.393831
v -4.859718 4.422798 18.393831
v -4.979189 4.422798 18.425842
v -4.979189 0.244547 18.425842
v -5.098661 4.422798 18.393831
v -5.098661 0.244547 18.393831
v -5.098661 0.244547 18.393831
v -5.098661 4.422798 18.393831
v -5.186121 4.422798 18.306372
v -5.186121 0.244547 18.306372
v -5.186121 0.244547 18.306372
v -5.186121 4.422798 18.306372
v -5.218132 4.422798 18.186901
v -5.218132 0.244547 18.186901
v -5.186121 4.422798 18.067429
v -5.186121 0.244547 18.067429
v -5.098661 4.422798 17.979969
v -5.098661 0.244547 17.979969
v -5.098661 0.244547 17.979969
v -5.098661 4.422798 17.979969
v -4.979189 4.422798 17.947958
v -4.979189 0.244547 17.947958
v -4.859718 4.422798 17.979969
v -4.859718 0.244547 17.979969
vt 0.309986 0.916865
vt 0.314493 0.916865
vt 0.314493 0.982608
vt 0.309986 0.982608
vt 0.334514 0.916836
vt 0.319632 0.905309
vt 0.334595 0.898857
vt 0.344532 0.901972
vt 0.346896 0.916879
vt 0.349518 0.908190
vt 0.351412 0.917003
vt 0.346892 0.929029
vt 0.334515 0.933179
vt 0.340874 0.931047
vt 0.334519 0.965999
vt 0.341005 0.968178
vt 0.334520 0.982618
vt 0.320234 0.994738
vt 0.334617 0.999376
vt 0.344682 0.996237
vt 0.346870 0.982576
vt 0.349639 0.990842
vt 0.351313 0.982465
vt 0.346875 0.970150
vt 0.309986 0.916865
vt 0.309986 0.982608
vt 0.314493 0.982608
vt 0.314493 0.916865
vt 0.334514 0.916836
vt 0.319632 0.905309
vt 0.334595 0.898857
vt 0.344532 0.901972
vt 0.346896 0.916879
vt 0.349518 0.908190
vt 0.351412 0.917003
vt 0.346892 0.929029
vt 0.334515 0.933179
vt 0.340874 0.931047
vt 0.334519 0.965999
vt 0.341005 0.968178
vt 0.334520 0.982618
vt 0.320234 0.994738
vt 0.334617 0.999376
vt 0.344682 0.996237
vt 0.346870 0.982576
vt 0.349639 0.990842
vt 0.351313 0.982465
vt 0.346875 0.970150
vt 0.314493 0.916865
vt 0.309986 0.916865
vt 0.309986 0.982608
vt 0.314493 0.982608
vt 0.314493 0.916865
vt 0.309986 0.916865
vt 0.309986 0.982608
vt 0.314493 0.982608
vt 0.029125 0.822952
vt 0.029125 0.874103
vt 0.123294 0.874103
vt 0.123294 0.822952
vt 0.016585 0.874753
vt 0.026742 0.874753
vt 0.026742 0.823466
vt 0.016585 0.823466
vt 0.008888 0.874753
vt 0.016585 0.874753
vt 0.016585 0.823466
vt 0.008888 0.823466
vt 0.026742 0.874753
vt 0.032645 0.874753
vt 0.032645 0.823466
vt 0.026742 0.823466
vt 0.032645 0.874753
vt 0.038222 0.874753
vt 0.038222 0.823466
vt 0.032645 0.823466
vt 0.038222 0.874753
vt 0.043832 0.874753
vt 0.043832 0.823466
vt 0.038222 0.823466
vt 0.090165 0.874752
vt 0.095546 0.874753
vt 0.095546 0.823465
vt 0.090165 0.823465
vt 0.095546 0.874753
vt 0.100834 0.874753
vt 0.100833 0.823466
vt 0.095546 0.823465
vt 0.100834 0.874753
vt 0.106842 0.874753
vt 0.106842 0.823465
vt 0.100833 0.823466
vt 0.116194 0.874753
vt 0.124668 0.874752
vt 0.124669 0.823465
vt 0.116194 0.823465
vt 0.106842 0.874753
vt 0.116194 0.874753
vt 0.116194 0.823465
vt 0.106842 0.823465
vt 0.043832 0.874753
vt 0.051989 0.874753
vt 0.051989 0.823466
vt 0.043832 0.823466
vt 0.051989 0.874753
vt 0.055778 0.874753
vt 0.055777 0.823466
vt 0.051989 0.823466
vt 0.055778 0.874753
vt 0.078158 0.874753
vt 0.078158 0.823466
vt 0.055777 0.823466
vt 0.081859 0.874753
vt 0.090165 0.874752
vt 0.090165 0.823465
vt 0.081859 0.823466
vt 0.078158 0.874753
vt 0.081859 0.874753
vt 0.081859 0.823466
vt 0.078158 0.823466
vt 0.734937 0.927047
vt 0.346145 0.927047
vt 0.346145 0.934590
vt 0.734937 0.934591
vt 0.346145 0.942134
vt 0.734937 0.942134
vt 0.346145 0.949677
vt 0.734937 0.949677
vt 0.346145 0.957221
vt 0.734937 0.957221
vt 0.734937 0.957221
vt 0.346145 0.957221
vt 0.346145 0.964764
vt 0.734937 0.964764
vt 0.346145 0.972307
vt 0.734937 0.972307
vt 0.734937 0.927000
vt 0.346145 0.927000
vt 0.346145 0.934543
vt 0.734937 0.934543
vt 0.734937 0.934543
vt 0.346145 0.934543
vt 0.346145 0.942086
vt 0.734937 0.942086
vt 0.346145 0.949630
vt 0.734937 0.949630
vt 0.346145 0.957173
vt 0.734937 0.957173
vt 0.734937 0.957173
vt 0.346145 0.957173
vt 0.346145 0.964716
vt 0.734937 0.964716
vt 0.346145 0.972260
vt 0.734937 0.972260
vn 0.000000 0.000000 1.000000
vn 0.000001 0.000000 1.000000
vn 0.000000 0.000000 1.000000
vn 0.000000 0.000000 1.000000
vn 0.000001 0.000000 1.000000
vn 0.000006 0.000000 1.000000
vn 0.000007 0.000000 1.000000
vn 0.000007 0.000000 1.000000
vn -0.000001 0.000000 1.000000
vn -0.000012 0.000000 1.000000
vn -0.000008 0.000000 1.000000
vn -0.000004 0.000000 1.000000
vn -0.000000 0.000000 1.000000
vn -0.000005 0.000000 1.000000
vn 0.000000 0.000000 1.000000
vn 0.000001 0.000000 1.000000
vn 0.000000 0.000000 1.000000
vn 0.000000 0.000000 1.000000
vn 0.000000 0.000000 1.000000
vn 0.000001 0.000000 1.000000
vn 0.000004 0.000000 1.000000
vn 0.000012 0.000000 1.000000
vn 0.000008 0.000000 1.000000
vn 0.000004 0.000000 1.000000
vn 0.000000 0.000000 -1.000000
vn 0.000000 0.000000 -1.000000
vn 0.000001 0.000000 -1.000000
vn -0.000000 0.000000 -1.000000
vn -0.000001 0.000000 -1.000000
vn -0.000002 0.000000 -1.000000
vn -0.000005 0.000000 -1.000000
vn -0.000007 0.000000 -1.000000
vn -0.000001 0.000000 -1.000000
vn 0.000012 0.000000 -1.000000
vn 0.000008 0.000000 -1.000000
vn 0.000000 0.000000 -1.000000
vn 0.000000 0.000000 -1.000000
vn 0.000000 0.000000 -1.000000
vn 0.000000 0.000000 -1.000000
vn 0.000000 0.000000 -1.000000
vn 0.000001 0.000000 -1.000000
vn 0.000006 0.000000 -1.000000
vn 0.000004 0.000000 -1.000000
vn 0.000001 0.000000 -1.000000
vn 0.000001 0.000000 -1.000000
vn 0.000006 0.000000 -1.000000
vn 0.000004 0.000000 -1.000000
vn 0.000000 0.000000 -1.000000
vn -1.000000 0.000000 0.000000
vn -1.000000 0.000000 0.000000
vn -1.000000 0.000000 0.000000
vn -1.000000 0.000000 0.000000
vn 1.000000 0.000000 0.000000
vn 1.000000 0.000000 0.000000
vn 1.000000 0.000000 0.000000
vn 1.000000 0.000000 0.000000
vn 0.000000 1.000000 0.000000
vn 0.000000 1.000000 0.000000
vn 0.000000 1.000000 0.000000
vn 0.000000 1.000000 0.000000
vn -0.940812 0.338928 0.000000
vn -0.940812 0.338928 0.000000
vn -0.940812 0.338928 0.000000
vn -0.940812 0.338928 0.000000
vn -0.321483 0.946915 0.000000
vn -0.321483 0.946915 0.000000
vn -0.321483 0.946915 0.000000
vn -0.321483 0.946915 0.000000
vn -0.975789 -0.218712 0.000000
vn -0.975789 -0.218712 0.000000
vn -0.975789 -0.218712 0.000000
vn -0.975789 -0.218712 0.000000
vn -0.700405 -0.713745 0.000000
vn -0.700405 -0.713745 0.000000
vn -0.700405 -0.713745 0.000000
vn -0.700405 -0.713745 0.000000
vn -0.230123 -0.973162 0.000000
vn -0.230123 -0.973162 0.000000
vn -0.230123 -0.973162 0.000000
vn -0.230123 -0.973162 0.000000
vn 0.199942 -0.979808 0.000000
vn 0.199942 -0.979808 0.000000
vn 0.199942 -0.979808 0.000000
vn 0.199942 -0.979808 0.000000
vn 0.759033 -0.651053 0.000000
vn 0.759033 -0.651053 0.000000
vn 0.759033 -0.651053 0.000000
vn 0.759033 -0.651053 0.000000
vn 0.976640 -0.214881 0.000000
vn 0.976640 -0.214881 0.000000
vn 0.976640 -0.214881 0.000000
vn 0.976640 -0.214881 0.000000
vn 0.342748 0.939428 0.000000
vn 0.342748 0.939428 0.000000
vn 0.342748 0.939428 0.000000
vn 0.342748 0.939428 0.000000
vn 0.975820 0.218574 0.000000
vn 0.975820 0.218574 0.000000
vn 0.975820 0.218574 0.000000
vn 0.975820 0.218574 0.000000
vn 0.439302 -0.898339 0.000000
vn 0.439302 -0.898339 0.000000
vn 0.439302 -0.898339 0.000000
vn 0.439302 -0.898339 0.000000
vn 0.946435 -0.322896 0.000000
vn 0.946435 -0.322896 0.000000
vn 0.946435 -0.322896 0.000000
vn 0.946435 -0.322896 0.000000
vn -0.003686 -0.999993 0.000000
vn -0.003686 -0.999993 0.000000
vn -0.003686 -0.999993 0.000000
vn -0.003686 -0.999993 0.000000
vn -0.431391 -0.902165 0.000000
vn -0.431391 -0.902165 0.000000
vn -0.431391 -0.902165 0.000000
vn -0.431391 -0.902165 0.000000
vn -0.946437 -0.322887 0.000000
vn -0.946437 -0.322887 0.000000
vn -0.946437 -0.322887 0.000000
vn -0.946437 -0.322887 0.000000
vn 0.499999 0.000000 -0.866026
vn 0.499999 0.000000 -0.866026
vn 0.866027 0.000000 -0.499998
vn 0.866027 0.000000 -0.499998
vn 1.000000 0.000000 0.000000
vn 1.000000 0.000000 0.000000
vn 0.866025 0.000000 0.500001
vn 0.866025 0.000000 0.500001
vn 0.499999 0.000000 0.866026
vn 0.499999 0.000000 0.866026
vn 0.499999 0.000000 0.866026
vn 0.499999 0.000000 0.866026
vn 0.000000 0.000000 1.000000
vn 0.000000 0.000000 1.000000
vn -0.499999 0.000000 0.866026
vn -0.499999 0.000000 0.866026
vn -0.499999 0.000000 0.866026
vn -0.499999 0.000000 0.866026
vn -0.866025 0.000000 0.500001
vn -0.866025 0.000000 0.500001
vn -0.866025 0.000000 0.500001
vn -0.866025 0.000000 0.500001
vn -1.000000 0.000000 0.000000
vn -1.000000 0.000000 0.000000
vn -0.866027 0.000000 -0.499998
vn -0.866027 0.000000 -0.499998
vn -0.499999 0.000000 -0.866026
vn -0.499999 0.000000 -0.866026
vn -0.499999 0.000000 -0.866026
vn -0.499999 0.000000 -0.866026
vn 0.000000 0.000000 -1.000000
vn 0.000000 0.000000 -1.000000
vn 0.499999 0.000000 -0.866026
vn 0.499999 0.000000 -0.866026
usemtl material
f 1/0/1 2/0/2 3/0/3
f 1/0/1 3/0/3 4/0/4
f 3/0/3 2/0/2 5/0/5
f 6/0/6 5/0/5 2/0/2
f 6/0/6 7/0/7 5/0/5
f 5/0/5 7/0/7 8/0/8
f 5/0/5 8/0/8 9/0/9
f 9/0/9 8/0/8 10/0/10
f 9/0/9 10/0/10 11/0/11
f 11/0/11 12/0/12 9/0/9
f 13/0/13 5/0/5 9/0/9
f 9/0/9 12/0/12 13/0/13
f 5/0/5 13/0/13 3/0/3
f 12/0/12 14/0/14 13/0/13
f 14/0/14 15/0/15 13/0/13
f 13/0/13 15/0/15 3/0/3
f 14/0/14 16/0/16 15/0/15
f 15/0/15 17/0/17 3/0/3
f 17/0/17 15/0/15 16/0/16
f 18/0/18 3/0/3 17/0/17
f 18/0/18 17/0/17 19/0/19
f 17/0/17 20/0/20 19/0/19
f 17/0/17 21/0/21 20/0/20
f 21/0/21 22/0/22 20/0/20
f 21/0/21 23/0/23 22/0/22
f 24/0/24 23/0/23 21/0/21
f 16/0/16 24/0/24 17/0/17
f 24/0/24 21/0/21 17/0/17
f 25/0/25 26/0/26 27/0/27
f 25/0/25 27/0/27 28/0/28
f 29/0/29 28/0/28 27/0/27
f 30/0/30 28/0/28 29/0/29
f 30/0/30 29/0/29 31/0/31
f 29/0/29 32/0/32 31/0/31
f 29/0/29 33/0/33 32/0/32
f 33/0/33 34/0/34 32/0/32
f 33/0/33 35/0/35 34/0/34
f 35/0/35 33/0/33 36/0/36
f 36/0/36 33/0/33 29/0/29
f 29/0/29 37/0/37 36/0/36
f 27/0/27 37/0/37 29/0/29
f 37/0/37 38/0/38 36/0/36
f 38/0/38 37/0/37 39/0/39
f 27/0/27 39/0/39 37/0/37
f 38/0/38 39/0/39 40/0/40
f 27/0/27 41/0/41 39/0/39
f 40/0/40 39/0/39 41/0/41
f 42/0/42 41/0/41 27/0/27
f 42/0/42 43/0/43 41/0/41
f 41/0/41 43/0/43 44/0/44
f 41/0/41 44/0/44 45/0/45
f 45/0/45 44/0/44 46/0/46
f 45/0/45 46/0/46 47/0/47
f 48/0/48 45/0/45 47/0/47
f 41/0/41 48/0/48 40/0/40
f 41/0/41 45/0/45 48/0/48
f 49/0/49 50/0/50 51/0/51
f 49/0/49 51/0/51 52/0/52
f 53/0/53 54/0/54 55/0/55
f 53/0/53 55/0/55 56/0/56
f 57/0/57 58/0/58 59/0/59
f 57/0/57 59/0/59 60/0/60
f 61/0/61 62/0/62 63/0/63
f 61/0/61 63/0/63 64/0/64
f 65/0/65 66/0/66 67/0/67
f 65/0/65 67/0/67 68/0/68
f 69/0/69 70/0/70 71/0/71
f 69/0/69 71/0/71 72/0/72
f 73/0/73 74/0/74 75/0/75
f 73/0/73 75/0/75 76/0/76
f 77/0/77 78/0/78 79/0/79
f 77/0/77 79/0/79 80/0/80
f 81/0/81 82/0/82 83/0/83
f 81/0/81 83/0/83 84/0/84
f 85/0/85 86/0/86 87/0/87
f 85/0/85 87/0/87 88/0/88
f 89/0/89 90/0/90 91/0/91
f 89/0/89 91/0/91 92/0/92
f 93/0/93 94/0/94 95/0/95
f 93/0/93 95/0/95 96/0/96
f 97/0/97 98/0/98 99/0/99
f 97/0/97 99/0/99 100/0/100
f 101/0/101 102/0/102 103/0/103
f 101/0/101 103/0/103 104/0/104
f 105/0/105 106/0/106 107/0/107
f 105/0/105 107/0/107 108/0/108
f 109/0/109 110/0/110 111/0/111
f 109/0/109 111/0/111 112/0/112
f 113/0/113 114/0/114 115/0/115
f 113/0/113 115/0/115 116/0/116
f 117/0/117 118/0/118 119/0/119
f 117/0/117 119/0/119 120/0/120
f 121/0/121 122/0/122 123/0/123
f 121/0/121 123/0/123 124/0/124
f 124/0/124 123/0/123 125/0/125
f 124/0/124 125/0/125 126/0/126
f 126/0/126 125/0/125 127/0/127
f 126/0/126 127/0/127 128/0/128
f 128/0/128 127/0/127 129/0/129
f 128/0/128 129/0/129 130/0/130
f 131/0/131 132/0/132 133/0/133
f 131/0/131 133/0/133 134/0/134
f 134/0/134 133/0/133 135/0/135
f 134/0/134 135/0/135 136/0/136
f 137/0/137 138/0/138 139/0/139
f 137/0/137 139/0/139 140/0/140
f 141/0/141 142/0/142 143/0/143
f 141/0/141 143/0/143 144/0/144
f 144/0/144 143/0/143 145/0/145
f 144/0/144 145/0/145 146/0/146
f 146/0/146 145/0/145 147/0/147
f 146/0/146 147/0/147 148/0/148
f 149/0/149 150/0/150 151/0/151
f 149/0/149 151/0/151 152/0/152
f 152/0/152 151/0/151 153/0/153
f 152/0/152 153/0/153 154/0/154
