# 
# Wavefront OBJ file
# Created with Kaydara FBX
# 
mtllib polysurface738.mtl

g polySurface738
v 48.729668 0.142178 -28.939577
v 48.729668 -0.147414 -28.939577
v 46.793476 -0.147414 -30.875771
v 46.793476 0.142178 -30.875771
v 46.793476 0.142178 -30.875771
v 46.793476 -0.147414 -30.875771
v 46.793472 -0.147414 -31.705454
v 46.793472 0.142178 -31.705454
v 49.559345 0.142178 -33.641644
v 49.559345 -0.147414 -33.641644
v 51.495529 -0.147414 -31.705454
v 51.495529 0.142178 -31.705454
v 51.495529 0.142178 -31.705454
v 51.495529 -0.147414 -31.705454
v 51.495529 -0.147414 -30.875769
v 51.495529 0.142178 -30.875769
v 46.793472 0.142178 -31.705454
v 46.793472 -0.147414 -31.705454
v 48.729668 -0.147414 -33.641644
v 48.729668 0.142178 -33.641644
v 48.729668 0.142178 -33.641644
v 48.729668 -0.147414 -33.641644
v 49.559345 -0.147414 -33.641644
v 49.559345 0.142178 -33.641644
v 51.495529 0.142178 -30.875769
v 51.495529 -0.147414 -30.875769
v 49.559345 -0.147414 -28.939585
v 49.559345 0.142178 -28.939585
v 49.559345 0.142178 -28.939585
v 49.559345 -0.147414 -28.939585
v 48.729668 -0.147414 -28.939577
v 48.729668 0.142178 -28.939577
vt 0.042330 0.573102
vt 0.042330 0.503125
vt 0.880401 0.503126
vt 0.880401 0.573102
vt 0.334631 0.573093
vt 0.334631 0.503117
vt 0.584656 0.503117
vt 0.584656 0.573093
vt 0.042308 0.573104
vt 0.042308 0.503127
vt 0.880385 0.503127
vt 0.880385 0.573104
vt 0.334273 0.573093
vt 0.334273 0.503117
vt 0.584298 0.503117
vt 0.584298 0.573093
vt 0.042224 0.573114
vt 0.042224 0.503137
vt 0.880289 0.503138
vt 0.880289 0.573114
vt 0.334380 0.573099
vt 0.334380 0.503123
vt 0.584404 0.503123
vt 0.584404 0.573099
vt 0.042415 0.573096
vt 0.042415 0.503119
vt 0.880485 0.503120
vt 0.880485 0.573096
vt 0.334365 0.573105
vt 0.334365 0.503129
vt 0.584390 0.503129
vt 0.584390 0.573105
vn 0.707107 0.000000 -0.707107
vn 0.707107 0.000000 -0.707107
vn 0.707107 0.000000 -0.707107
vn 0.707107 0.000000 -0.707107
vn 1.000000 0.000000 -0.000006
vn 1.000000 0.000000 -0.000006
vn 1.000000 0.000000 -0.000006
vn 1.000000 0.000000 -0.000006
vn -0.707108 0.000000 0.707106
vn -0.707108 0.000000 0.707106
vn -0.707108 0.000000 0.707106
vn -0.707108 0.000000 0.707106
vn -1.000000 0.000000 0.000000
vn -1.000000 0.000000 0.000000
vn -1.000000 0.000000 0.000000
vn -1.000000 0.000000 0.000000
vn 0.707106 0.000000 0.707108
vn 0.707106 0.000000 0.707108
vn 0.707106 0.000000 0.707108
vn 0.707106 0.000000 0.707108
vn 0.000003 0.000000 1.000000
vn 0.000003 0.000000 1.000000
vn 0.000003 0.000000 1.000000
vn 0.000003 0.000000 1.000000
vn -0.707106 0.000000 -0.707107
vn -0.707106 0.000000 -0.707107
vn -0.707106 0.000000 -0.707107
vn -0.707106 0.000000 -0.707107
vn -0.000010 0.000000 -1.000000
vn -0.000010 0.000000 -1.000000
vn -0.000010 0.000000 -1.000000
vn -0.000010 0.000000 -1.000000
usemtl material
f 1/0/1 2/0/2 3/0/3
f 1/0/1 3/0/3 4/0/4
f 5/0/5 6/0/6 7/0/7
f 5/0/5 7/0/7 8/0/8
f 9/0/9 10/0/10 11/0/11
f 9/0/9 11/0/11 12/0/12
f 13/0/13 14/0/14 15/0/15
f 13/0/13 15/0/15 16/0/16
f 17/0/17 18/0/18 19/0/19
f 17/0/17 19/0/19 20/0/20
f 21/0/21 22/0/22 23/0/23
f 21/0/21 23/0/23 24/0/24
f 25/0/25 26/0/26 27/0/27
f 25/0/25 27/0/27 28/0/28
f 29/0/29 30/0/30 31/0/31
f 29/0/29 31/0/31 32/0/32
