# 
# Wavefront OBJ file
# Created with Kaydara FBX
# 
mtllib poly02 #2279313.mtl

g Poly02
v -12.230161 4.149477 -9.945501
v -12.230161 4.149477 -24.998405
v -20.010239 4.149477 -24.998405
v -18.684877 4.149477 -9.945501
v -12.230161 4.149477 -5.669684
v -15.893256 4.149478 -5.669670
v -12.230161 4.149478 -40.827438
v -12.230161 4.149478 -51.510254
v -16.689501 4.149478 -51.510254
v -22.025845 4.149480 -51.510254
v -21.403940 4.149478 -40.827438
v -12.230161 4.149477 -24.998405
v -20.010239 4.149477 -24.998405
v -26.486322 4.149480 -51.510254
v -27.504013 4.149478 -50.410053
v -12.230161 4.149478 -51.510254
v -12.230161 4.149480 -68.061546
v -16.691776 4.149480 -68.061554
v -16.689501 4.149478 -51.510254
v -16.691776 4.149480 -68.972977
v -12.230161 4.149480 -68.972977
v -16.691776 4.149480 -89.746391
v -12.230161 4.149480 -89.746391
v -17.125883 4.104741 -51.819187
v -17.125883 4.104741 -67.708893
v -21.587494 4.104741 -67.708893
v -21.587494 4.104741 -51.819187
v -26.486322 4.149480 -51.510254
v -22.025845 4.149480 -51.510254
v -22.024706 4.149482 -68.061554
v -26.486322 4.149482 -68.061546
v -26.486324 4.149482 -68.972977
v -26.166471 4.149482 -68.972977
v -22.024706 4.149482 -68.972977
v -26.486322 4.149482 -89.746391
v -26.166470 4.149482 -89.746384
v -22.024706 4.149481 -89.746391
v -16.691776 4.149480 -68.061554
v -16.691776 4.149480 -68.972977
v -22.024706 4.149482 -68.972977
v -22.024706 4.149482 -68.061554
v -17.125883 4.104741 -51.819187
v -16.689501 4.149478 -51.510254
v -16.691776 4.149480 -68.061554
v -17.125883 4.104741 -67.708893
v -21.587494 4.104741 -51.819187
v -22.025845 4.149480 -51.510254
v -16.689501 4.149478 -51.510254
v -17.125883 4.104741 -51.819187
v -21.587494 4.104741 -67.708893
v -22.024706 4.149482 -68.061554
v -22.025845 4.149480 -51.510254
v -21.587494 4.104741 -51.819187
v -16.691776 4.149480 -68.061554
v -22.024706 4.149482 -68.061554
v -21.587494 4.104741 -67.708893
v -17.125883 4.104741 -67.708893
vt 0.012301 0.264987
vt 0.012301 0.758323
vt 0.323651 0.758323
vt 0.269729 0.264987
vt 0.012301 0.124854
vt 0.158443 0.124854
vt 0.342162 0.642507
vt 0.342162 0.992620
vt 0.519919 0.992620
vt 0.732880 0.992620
vt 0.708031 0.642507
vt 0.342162 0.123735
vt 0.652448 0.123735
vt 0.910728 0.992620
vt 0.951315 0.956563
vt 0.012301 0.264987
vt 0.012301 0.758323
vt 0.190507 0.758322
vt 0.190365 0.264986
vt 0.190507 0.758322
vt 0.012301 0.758323
vt 0.190507 0.758322
vt 0.012301 0.758323
vt 0.826315 0.053580
vt 0.826315 0.386915
vt 0.905192 0.386914
vt 0.905096 0.053579
vt 0.012443 0.264986
vt 0.190507 0.264987
vt 0.190507 0.758323
vt 0.012301 0.758322
vt 0.012301 0.758322
vt 0.025077 0.758322
vt 0.190507 0.758323
vt 0.012301 0.758322
vt 0.025077 0.758322
vt 0.190507 0.758323
vt 0.116918 0.498046
vt 0.116918 0.507841
vt 0.174235 0.507841
vt 0.174235 0.498046
vt 0.377862 0.956996
vt 0.371465 0.977496
vt 0.750584 0.977496
vt 0.750584 0.956996
vt 0.439745 0.956996
vt 0.415904 0.977496
vt 0.706281 0.977496
vt 0.682491 0.956996
vt 0.371465 0.956996
vt 0.371465 0.977496
vt 0.750584 0.977496
vt 0.744187 0.956996
vt 0.415904 0.977496
vt 0.706281 0.977496
vt 0.682491 0.956995
vt 0.439745 0.956996
vn 0.000000 1.000000 0.000000
vn 0.000000 1.000000 0.000000
vn 0.000000 1.000000 0.000000
vn 0.000000 1.000000 0.000000
vn 0.000000 1.000000 -0.000000
vn 0.000000 1.000000 -0.000000
vn 0.000000 1.000000 0.000000
vn 0.000000 1.000000 0.000000
vn 0.000000 1.000000 0.000000
vn -0.000000 1.000000 0.000000
vn 0.000000 1.000000 0.000000
vn 0.000000 1.000000 0.000000
vn 0.000000 1.000000 0.000000
vn -0.000000 1.000000 0.000000
vn -0.000000 1.000000 0.000000
vn 0.000000 1.000000 0.000000
vn 0.000000 1.000000 0.000000
vn 0.000000 1.000000 0.000000
vn 0.000000 1.000000 0.000000
vn 0.000000 1.000000 0.000000
vn 0.000000 1.000000 0.000000
vn 0.000000 1.000000 0.000000
vn 0.000000 1.000000 0.000000
vn 0.000000 1.000000 0.000000
vn 0.000000 1.000000 0.000000
vn 0.000000 1.000000 0.000000
vn 0.000000 1.000000 0.000000
vn 0.000000 1.000000 0.000000
vn 0.000000 1.000000 0.000000
vn 0.000000 1.000000 0.000000
vn 0.000000 1.000000 0.000000
vn 0.000001 1.000000 -0.000000
vn 0.000000 1.000000 0.000000
vn 0.000000 1.000000 0.000000
vn 0.000001 1.000000 0.000000
vn 0.000000 1.000000 0.000000
vn 0.000000 1.000000 0.000000
vn 0.000000 1.000000 0.000000
vn 0.000000 1.000000 0.000000
vn 0.000000 1.000000 0.000000
vn 0.000000 1.000000 0.000000
vn -0.102250 0.994759 0.000007
vn -0.102250 0.994759 0.000007
vn -0.102250 0.994759 0.000007
vn -0.102250 0.994759 0.000007
vn 0.000000 0.989676 -0.143320
vn 0.000000 0.989676 -0.143320
vn 0.000000 0.989676 -0.143320
vn 0.000000 0.989676 -0.143320
vn 0.101668 0.994818 0.000004
vn 0.101668 0.994818 0.000004
vn 0.101668 0.994818 0.000004
vn 0.101668 0.994818 0.000004
vn 0.000000 0.992048 0.125859
vn 0.000000 0.992048 0.125859
vn 0.000000 0.992048 0.125859
vn 0.000000 0.992048 0.125859
usemtl material
f 1/0/1 2/0/2 3/0/3
f 1/0/1 3/0/3 4/0/4
f 4/0/4 5/0/5 1/0/1
f 4/0/4 6/0/6 5/0/5
f 7/0/7 8/0/8 9/0/9
f 7/0/7 9/0/9 10/0/10
f 7/0/7 10/0/10 11/0/11
f 12/0/12 7/0/7 11/0/11
f 12/0/12 11/0/11 13/0/13
f 11/0/11 10/0/10 14/0/14
f 11/0/11 14/0/14 15/0/15
f 16/0/16 17/0/17 18/0/18
f 16/0/16 18/0/18 19/0/19
f 17/0/17 20/0/20 18/0/18
f 17/0/17 21/0/21 20/0/20
f 21/0/21 22/0/22 20/0/20
f 21/0/21 23/0/23 22/0/22
f 24/0/24 25/0/25 26/0/26
f 24/0/24 26/0/26 27/0/27
f 28/0/28 29/0/29 30/0/30
f 28/0/28 30/0/30 31/0/31
f 32/0/32 31/0/31 30/0/30
f 33/0/33 32/0/32 30/0/30
f 30/0/30 34/0/34 33/0/33
f 33/0/33 35/0/35 32/0/32
f 33/0/33 36/0/36 35/0/35
f 34/0/34 36/0/36 33/0/33
f 34/0/34 37/0/37 36/0/36
f 38/0/38 39/0/39 40/0/40
f 38/0/38 40/0/40 41/0/41
f 42/0/42 43/0/43 44/0/44
f 42/0/42 44/0/44 45/0/45
f 46/0/46 47/0/47 48/0/48
f 46/0/46 48/0/48 49/0/49
f 50/0/50 51/0/51 52/0/52
f 50/0/50 52/0/52 53/0/53
f 54/0/54 55/0/55 56/0/56
f 54/0/54 56/0/56 57/0/57
