# 
# Wavefront OBJ file
# Created with Kaydara FBX
# 
mtllib polysurface72.mtl

g polySurface72
v -0.834000 0.000000 -0.481510
v -0.571383 0.128909 -0.329887
v -0.329887 0.128909 -0.571383
v -0.481511 0.000000 -0.834000
v 0.000000 0.128909 -0.659773
v 0.000000 0.000000 -0.963020
v 0.329886 0.128909 -0.571383
v 0.481509 0.000000 -0.834000
v 0.571382 0.128909 -0.329887
v 0.834000 0.000000 -0.481510
v 0.659773 0.128909 -0.000000
v 0.963020 0.000000 -0.000000
v 0.571382 0.128909 0.329886
v 0.834000 0.000000 0.481510
v 0.329886 0.128909 0.571383
v 0.481509 0.000000 0.834000
v 0.000000 0.128909 0.659773
v 0.000000 0.000000 0.963020
v -0.329887 0.128909 0.571383
v -0.481511 0.000000 0.834000
v -0.571383 0.128909 0.329886
v -0.834000 0.000000 0.481510
v -0.659774 0.128909 -0.000000
v -0.963020 0.000000 -0.000000
v 0.193405 0.401640 0.111661
v 0.223321 0.401640 -0.000000
v 0.193405 0.401640 -0.111661
v 0.111660 0.401640 -0.193406
v 0.000000 0.401640 -0.223321
v -0.111660 0.401640 -0.193406
v -0.193406 0.401640 -0.111661
v -0.223321 0.401640 -0.000000
v 0.034060 0.542435 0.019664
v 0.039329 0.542435 0.000000
v 0.034060 0.542435 -0.019664
v 0.019663 0.542435 -0.034059
v 0.000000 0.542435 -0.039328
v -0.019662 0.542435 -0.034060
v -0.034061 0.542435 -0.019664
v -0.039329 0.542435 0.000000
v -0.193406 0.401640 0.111661
v -0.111660 0.401640 0.193406
v 0.000000 0.401640 0.223321
v 0.111660 0.401640 0.193406
v 0.000000 0.542435 0.039328
v 0.019663 0.542435 0.034060
v -0.034061 0.542435 0.019664
v -0.019662 0.542435 0.034059
vt 0.830495 0.985688
vt 0.727712 0.750997
vt 0.197925 0.750997
vt 0.095041 0.985688
vt 0.727712 0.750997
vt 0.830495 0.985688
vt 0.197925 0.750997
vt 0.095041 0.985688
vt 0.727712 0.750997
vt 0.830495 0.985688
vt 0.197925 0.750997
vt 0.095041 0.985688
vt 0.727712 0.750997
vt 0.830495 0.985688
vt 0.197925 0.750997
vt 0.095041 0.985688
vt 0.727712 0.750997
vt 0.830495 0.985688
vt 0.197925 0.750997
vt 0.095041 0.985688
vt 0.727712 0.750997
vt 0.830495 0.985688
vt 0.197925 0.750997
vt 0.095041 0.985688
vt 0.578087 0.383318
vt 0.347354 0.383318
vt 0.578087 0.383318
vt 0.347354 0.383318
vt 0.578087 0.383318
vt 0.347354 0.383318
vt 0.578087 0.383318
vt 0.347354 0.383318
vt 0.515622 0.241719
vt 0.408758 0.241719
vt 0.515622 0.241719
vt 0.408758 0.241719
vt 0.515622 0.241719
vt 0.408758 0.241719
vt 0.515622 0.241719
vt 0.408758 0.241719
vt 0.578087 0.383318
vt 0.347354 0.383318
vt 0.578087 0.383318
vt 0.347354 0.383318
vt 0.515622 0.241719
vt 0.408758 0.241719
vt 0.515622 0.241719
vt 0.408758 0.241719
vn -0.338805 0.920298 -0.195609
vn -0.386505 0.894885 -0.223147
vn -0.223147 0.894885 -0.386505
vn -0.195609 0.920298 -0.338805
vn 0.000000 0.894885 -0.446298
vn 0.000000 0.920298 -0.391218
vn 0.223147 0.894885 -0.386505
vn 0.195609 0.920298 -0.338804
vn 0.386504 0.894885 -0.223148
vn 0.338804 0.920298 -0.195609
vn 0.446297 0.894885 0.000000
vn 0.391218 0.920298 0.000000
vn 0.386504 0.894885 0.223148
vn 0.338804 0.920298 0.195609
vn 0.223147 0.894885 0.386505
vn 0.195609 0.920298 0.338804
vn 0.000000 0.894885 0.446297
vn 0.000000 0.920298 0.391218
vn -0.223147 0.894885 0.386505
vn -0.195609 0.920298 0.338805
vn -0.386505 0.894885 0.223147
vn -0.338805 0.920298 0.195609
vn -0.446298 0.894885 0.000000
vn -0.391218 0.920298 0.000000
vn 0.464490 0.844120 0.267788
vn 0.536156 0.844119 -0.000331
vn 0.464159 0.844120 -0.268361
vn 0.267788 0.844120 -0.464490
vn -0.000331 0.844118 -0.536157
vn -0.268361 0.844120 -0.464159
vn -0.464490 0.844120 -0.267787
vn -0.536156 0.844119 0.000331
vn 0.557369 0.792518 0.247498
vn 0.606448 0.792516 -0.064340
vn 0.493010 0.792520 -0.358960
vn 0.247480 0.792520 -0.557374
vn -0.064342 0.792517 -0.606446
vn -0.358947 0.792518 -0.493024
vn -0.557363 0.792520 -0.247504
vn -0.606451 0.792514 0.064342
vn -0.464159 0.844120 0.268361
vn -0.267787 0.844120 0.464490
vn 0.000331 0.844119 0.536157
vn 0.268362 0.844120 0.464159
vn 0.064343 0.792517 0.606447
vn 0.358950 0.792519 0.493020
vn -0.493008 0.792522 0.358961
vn -0.247474 0.792520 0.557377
usemtl material
f 1/0/1 2/0/2 3/0/3
f 1/0/1 3/0/3 4/0/4
f 4/0/4 3/0/3 5/0/5
f 4/0/4 5/0/5 6/0/6
f 6/0/6 5/0/5 7/0/7
f 6/0/6 7/0/7 8/0/8
f 8/0/8 7/0/7 9/0/9
f 8/0/8 9/0/9 10/0/10
f 10/0/10 9/0/9 11/0/11
f 10/0/10 11/0/11 12/0/12
f 12/0/12 11/0/11 13/0/13
f 12/0/12 13/0/13 14/0/14
f 14/0/14 13/0/13 15/0/15
f 14/0/14 15/0/15 16/0/16
f 16/0/16 15/0/15 17/0/17
f 16/0/16 17/0/17 18/0/18
f 18/0/18 17/0/17 19/0/19
f 18/0/18 19/0/19 20/0/20
f 20/0/20 19/0/19 21/0/21
f 20/0/20 21/0/21 22/0/22
f 22/0/22 21/0/21 23/0/23
f 22/0/22 23/0/23 24/0/24
f 24/0/24 23/0/23 2/0/2
f 24/0/24 2/0/2 1/0/1
f 25/0/25 13/0/13 11/0/11
f 25/0/25 11/0/11 26/0/26
f 26/0/26 11/0/11 9/0/9
f 26/0/26 9/0/9 27/0/27
f 27/0/27 9/0/9 7/0/7
f 27/0/27 7/0/7 28/0/28
f 28/0/28 7/0/7 5/0/5
f 28/0/28 5/0/5 29/0/29
f 29/0/29 5/0/5 3/0/3
f 30/0/30 3/0/3 2/0/2
f 29/0/29 3/0/3 30/0/30
f 30/0/30 2/0/2 31/0/31
f 31/0/31 2/0/2 23/0/23
f 31/0/31 23/0/23 32/0/32
f 26/0/26 33/0/33 25/0/25
f 27/0/27 34/0/34 26/0/26
f 26/0/26 34/0/34 33/0/33
f 28/0/28 35/0/35 27/0/27
f 27/0/27 35/0/35 34/0/34
f 29/0/29 36/0/36 28/0/28
f 28/0/28 36/0/36 35/0/35
f 30/0/30 37/0/37 29/0/29
f 29/0/29 37/0/37 36/0/36
f 31/0/31 38/0/38 30/0/30
f 30/0/30 38/0/38 37/0/37
f 32/0/32 39/0/39 31/0/31
f 31/0/31 39/0/39 38/0/38
f 32/0/32 40/0/40 39/0/39
f 41/0/41 40/0/40 32/0/32
f 32/0/32 21/0/21 41/0/41
f 41/0/41 21/0/21 19/0/19
f 41/0/41 19/0/19 42/0/42
f 42/0/42 19/0/19 17/0/17
f 42/0/42 17/0/17 43/0/43
f 43/0/43 17/0/17 15/0/15
f 43/0/43 15/0/15 44/0/44
f 44/0/44 15/0/15 13/0/13
f 44/0/44 13/0/13 25/0/25
f 44/0/44 45/0/45 43/0/43
f 25/0/25 46/0/46 44/0/44
f 44/0/44 46/0/46 45/0/45
f 42/0/42 47/0/47 41/0/41
f 41/0/41 47/0/47 40/0/40
f 43/0/43 48/0/48 42/0/42
f 42/0/42 48/0/48 47/0/47
f 43/0/43 45/0/45 48/0/48
f 25/0/25 33/0/33 46/0/46
f 32/0/32 23/0/23 21/0/21
