# 
# Wavefront OBJ file
# Created with Kaydara FBX
# 
mtllib polysurface136.mtl

g polySurface136
v -0.208434 -0.012767 0.033321
v 0.208725 -0.012767 0.033260
v 0.149056 0.097267 0.033260
v -0.148765 0.097267 0.033260
v 0.208893 -0.081897 0.033153
v -0.208434 -0.081897 0.033321
v 0.208893 -0.081897 0.033153
v -0.208434 -0.081897 0.033321
v -0.208434 -0.097267 0.024100
v 0.208725 -0.097267 0.024161
v 0.149056 0.097267 0.000630
v -0.148765 0.097267 0.000630
v -0.148765 0.097267 0.033260
v 0.149056 0.097267 0.033260
v 0.208725 -0.012767 0.033260
v 0.208893 -0.012767 0.000346
v 0.149056 0.097267 0.000630
v 0.149056 0.097267 0.033260
v 0.209062 -0.078767 -0.032859
v -0.209351 -0.078785 -0.033306
v -0.209352 -0.078767 0.000397
v 0.209062 -0.078767 0.000062
v 0.209062 -0.078767 0.000062
v 0.208893 -0.012767 0.000346
v 0.208725 -0.012767 0.033260
v 0.208893 -0.081897 0.033153
v 0.208725 -0.097267 0.024161
v 0.209062 -0.078767 -0.032859
v 0.209352 -0.097267 -0.033031
v -0.208434 -0.012767 0.033321
v -0.148765 0.097267 0.033260
v -0.148765 0.097267 0.000630
v -0.208664 -0.012767 0.000315
v 0.208725 -0.097267 0.024161
v -0.208434 -0.097267 0.024100
v -0.209351 -0.097267 -0.033321
v 0.209352 -0.097267 -0.033031
v -0.208664 -0.012767 0.000315
v -0.148765 0.097267 0.000630
v 0.149056 0.097267 0.000630
v 0.208893 -0.012767 0.000346
v 0.209062 -0.078767 0.000062
v -0.209352 -0.078767 0.000397
v 0.209062 -0.078767 -0.032859
v 0.209352 -0.097267 -0.033031
v -0.209351 -0.097267 -0.033321
v -0.209351 -0.078785 -0.033306
v -0.208664 -0.012767 0.000315
v -0.209352 -0.078767 0.000397
v -0.208434 -0.081897 0.033321
v -0.208434 -0.012767 0.033321
v -0.208434 -0.097267 0.024100
v -0.209351 -0.097267 -0.033321
v -0.209351 -0.078785 -0.033306
vt 0.784456 0.643848
vt 0.485212 0.643848
vt 0.527548 0.722675
vt 0.740870 0.722675
vt 0.485212 0.594387
vt 0.784456 0.594387
vt 0.485212 0.594387
vt 0.784456 0.594387
vt 0.784456 0.583390
vt 0.485212 0.583390
vt 0.527548 0.746021
vt 0.740870 0.746021
vt 0.740870 0.722675
vt 0.527548 0.722675
vt 0.580244 0.123946
vt 0.556898 0.123946
vt 0.556898 0.202672
vt 0.580244 0.202672
vt 0.485212 0.529234
vt 0.784456 0.529234
vt 0.784456 0.505679
vt 0.485212 0.505679
vt 0.556898 0.076724
vt 0.556898 0.123946
vt 0.580244 0.123946
vt 0.580244 0.074485
vt 0.573734 0.063488
vt 0.532937 0.076724
vt 0.532937 0.063488
vt 0.580244 0.123946
vt 0.580244 0.202672
vt 0.556898 0.202672
vt 0.556898 0.123946
vt 0.485212 0.583390
vt 0.784456 0.583390
vt 0.784456 0.542469
vt 0.485212 0.542469
vt 0.784456 0.643848
vt 0.740870 0.722675
vt 0.527548 0.722675
vt 0.485212 0.643848
vt 0.485212 0.594387
vt 0.784456 0.594387
vt 0.485212 0.529234
vt 0.485212 0.542469
vt 0.784456 0.542469
vt 0.784456 0.529234
vt 0.556898 0.123946
vt 0.556898 0.076724
vt 0.580244 0.074485
vt 0.580244 0.123946
vt 0.573499 0.063488
vt 0.532937 0.063488
vt 0.532937 0.076724
vn 0.000183 -0.000269 1.000000
vn 0.000183 -0.000270 1.000000
vn 0.000085 0.000276 1.000000
vn 0.000085 0.000276 1.000000
vn 0.000274 -0.000778 1.000000
vn 0.000274 -0.000778 1.000000
vn 0.000111 -0.509736 0.860331
vn 0.000111 -0.509736 0.860331
vn 0.000111 -0.509736 0.860331
vn 0.000111 -0.509736 0.860331
vn 0.000000 1.000000 0.000000
vn 0.000000 1.000000 0.000000
vn 0.000000 1.000000 0.000000
vn 0.000000 1.000000 0.000000
vn 0.878784 0.477215 0.002252
vn 0.878784 0.477215 0.002252
vn 0.878784 0.477215 0.002252
vn 0.878784 0.477215 0.002252
vn -0.000022 1.000000 -0.000266
vn -0.000022 1.000000 -0.000266
vn -0.000022 1.000000 -0.000266
vn -0.000022 1.000000 -0.000266
vn 0.999983 0.002475 0.005219
vn 0.999983 0.002475 0.005219
vn 0.999983 0.002475 0.005219
vn 0.999983 0.002475 0.005219
vn 0.999906 -0.013189 0.003842
vn 0.999971 0.003236 0.006956
vn 0.999971 0.003236 0.006956
vn -0.878679 0.477403 0.003070
vn -0.878679 0.477403 0.003070
vn -0.878679 0.477403 0.003070
vn -0.878679 0.477403 0.003070
vn 0.000000 -1.000000 0.000000
vn 0.000000 -1.000000 0.000000
vn 0.000000 -1.000000 0.000000
vn 0.000000 -1.000000 0.000000
vn -0.000164 0.002120 -0.999998
vn 0.000043 0.002726 -0.999996
vn 0.000043 0.002726 -0.999996
vn -0.000163 0.002122 -0.999998
vn -0.000364 0.001534 -0.999999
vn -0.000364 0.001534 -0.999999
vn 0.000881 0.005075 -0.999987
vn 0.000881 0.005075 -0.999987
vn 0.000881 0.005075 -0.999987
vn 0.000881 0.005075 -0.999987
vn -0.999832 0.005101 0.017630
vn -0.999832 0.005101 0.017630
vn -0.999832 0.005101 0.017630
vn -0.999832 0.005101 0.017630
vn -0.999528 -0.015807 0.026347
vn -0.999781 -0.018352 0.010049
vn -0.999781 -0.018352 0.010049
usemtl material
f 1/0/1 2/0/2 3/0/3
f 1/0/1 3/0/3 4/0/4
f 1/0/1 5/0/5 2/0/2
f 1/0/1 6/0/6 5/0/5
f 7/0/7 8/0/8 9/0/9
f 7/0/7 9/0/9 10/0/10
f 11/0/11 12/0/12 13/0/13
f 11/0/11 13/0/13 14/0/14
f 15/0/15 16/0/16 17/0/17
f 15/0/15 17/0/17 18/0/18
f 19/0/19 20/0/20 21/0/21
f 19/0/19 21/0/21 22/0/22
f 23/0/23 24/0/24 25/0/25
f 23/0/23 25/0/25 26/0/26
f 23/0/23 26/0/26 27/0/27
f 28/0/28 23/0/23 27/0/27
f 28/0/28 27/0/27 29/0/29
f 30/0/30 31/0/31 32/0/32
f 30/0/30 32/0/32 33/0/33
f 34/0/34 35/0/35 36/0/36
f 34/0/34 36/0/36 37/0/37
f 38/0/38 39/0/39 40/0/40
f 38/0/38 40/0/40 41/0/41
f 38/0/38 41/0/41 42/0/42
f 38/0/38 42/0/42 43/0/43
f 44/0/44 45/0/45 46/0/46
f 44/0/44 46/0/46 47/0/47
f 48/0/48 49/0/49 50/0/50
f 48/0/48 50/0/50 51/0/51
f 50/0/50 49/0/49 52/0/52
f 49/0/49 53/0/53 52/0/52
f 49/0/49 54/0/54 53/0/53
