# 
# Wavefront OBJ file
# Created with Kaydara FBX
# 
mtllib polysurface690.mtl

g polySurface690
v 45.811714 0.019513 -43.747391
v 45.811714 4.197764 -43.747391
v 45.918827 4.197764 -43.685551
v 45.918827 0.019513 -43.685551
v 45.980671 4.197764 -43.578438
v 45.980671 0.019513 -43.578438
v 45.980671 4.197764 -43.454750
v 45.980671 0.019513 -43.454750
v 45.980671 0.019513 -43.454750
v 45.980671 4.197764 -43.454750
v 45.918827 4.197764 -43.347637
v 45.918827 0.019513 -43.347637
v 45.811714 4.197764 -43.285789
v 45.811714 0.019513 -43.285789
v 45.688026 4.197764 -43.285789
v 45.688026 0.019513 -43.285789
v 45.688026 0.019513 -43.285789
v 45.688026 4.197764 -43.285789
v 45.580914 4.197764 -43.347637
v 45.580914 0.019513 -43.347637
v 45.519070 4.197764 -43.454750
v 45.519070 0.019513 -43.454750
v 45.519070 4.197764 -43.578438
v 45.519070 0.019513 -43.578438
v 45.519070 0.019513 -43.578438
v 45.519070 4.197764 -43.578438
v 45.580914 4.197764 -43.685551
v 45.580914 0.019513 -43.685551
v 45.688026 4.197764 -43.747391
v 45.688026 0.019513 -43.747391
v 45.688026 0.019513 -43.747391
v 45.688026 4.197764 -43.747391
v 45.811714 4.197764 -43.747391
v 45.811714 0.019513 -43.747391
v 45.454174 4.558457 -43.197186
v 45.454174 4.492587 -43.197186
v 46.153606 4.492587 -43.384594
v 46.153606 4.558457 -43.384594
v 45.454174 4.272711 -43.197182
v 45.325508 4.447364 -43.162704
v 45.264736 4.272711 -43.146420
v 45.287525 4.167442 -43.152527
v 45.454174 4.137949 -43.197182
v 45.357796 4.096053 -43.171356
v 45.454174 4.072458 -43.197186
v 45.583534 4.137949 -43.231846
v 45.627945 4.272711 -43.243744
v 45.605125 4.203476 -43.237633
v 45.976902 4.272711 -43.337246
v 46.000217 4.201968 -43.343494
v 46.153606 4.272711 -43.384594
v 46.294159 4.439499 -43.422256
v 46.330242 4.272711 -43.431923
v 46.307453 4.165476 -43.425819
v 46.153606 4.137949 -43.384594
v 46.246677 4.092120 -43.409531
v 46.153606 4.072458 -43.384594
v 46.021317 4.137949 -43.349148
v 45.334335 4.558457 -43.644432
v 46.033768 4.558457 -43.831844
v 46.033768 4.492587 -43.831844
v 45.334335 4.492587 -43.644432
v 45.508106 4.272711 -43.690994
v 45.334335 4.272711 -43.644432
v 45.205669 4.447364 -43.609955
v 45.144890 4.272711 -43.593670
v 45.167683 4.167442 -43.599781
v 45.334335 4.137949 -43.644432
v 45.237957 4.096053 -43.618607
v 45.334335 4.072458 -43.644432
v 45.463692 4.137949 -43.679092
v 45.485287 4.203476 -43.684883
v 45.857059 4.272711 -43.784496
v 45.880379 4.201968 -43.790745
v 46.033768 4.272711 -43.831844
v 46.174316 4.439499 -43.869499
v 46.210403 4.272711 -43.879173
v 46.187614 4.165476 -43.873066
v 46.033768 4.137949 -43.831844
v 46.126835 4.092120 -43.856781
v 46.033768 4.072458 -43.831844
v 45.901474 4.137949 -43.796394
v 45.334335 4.558457 -43.644432
v 45.334335 4.492587 -43.644432
v 45.454174 4.492587 -43.197186
v 45.454174 4.558457 -43.197186
v 46.033768 4.492587 -43.831844
v 46.033768 4.558457 -43.831844
v 46.153606 4.558457 -43.384594
v 46.153606 4.492587 -43.384594
v 46.033768 4.558457 -43.831844
v 45.334335 4.558457 -43.644432
v 45.454174 4.558457 -43.197186
v 46.153606 4.558457 -43.384594
v 45.205669 4.447364 -43.609955
v 45.144890 4.272711 -43.593670
v 45.264736 4.272711 -43.146420
v 45.325508 4.447364 -43.162704
v 45.334335 4.492587 -43.644432
v 45.205669 4.447364 -43.609955
v 45.325508 4.447364 -43.162704
v 45.454174 4.492587 -43.197186
v 45.144890 4.272711 -43.593670
v 45.167683 4.167442 -43.599781
v 45.287525 4.167442 -43.152527
v 45.264736 4.272711 -43.146420
v 45.167683 4.167442 -43.599781
v 45.237957 4.096053 -43.618607
v 45.357796 4.096053 -43.171356
v 45.287525 4.167442 -43.152527
v 45.237957 4.096053 -43.618607
v 45.334335 4.072458 -43.644432
v 45.454174 4.072458 -43.197186
v 45.357796 4.096053 -43.171356
v 46.033768 4.072458 -43.831844
v 46.126835 4.092120 -43.856781
v 46.246677 4.092120 -43.409531
v 46.153606 4.072458 -43.384594
v 46.126835 4.092120 -43.856781
v 46.187614 4.165476 -43.873066
v 46.307453 4.165476 -43.425819
v 46.246677 4.092120 -43.409531
v 46.187614 4.165476 -43.873066
v 46.210403 4.272711 -43.879173
v 46.330242 4.272711 -43.431923
v 46.307453 4.165476 -43.425819
v 46.174316 4.439499 -43.869499
v 46.033768 4.492587 -43.831844
v 46.153606 4.492587 -43.384594
v 46.294159 4.439499 -43.422256
v 46.210403 4.272711 -43.879173
v 46.174316 4.439499 -43.869499
v 46.294159 4.439499 -43.422256
v 46.330242 4.272711 -43.431923
v 45.334335 4.072458 -43.644432
v 45.463692 4.137949 -43.679092
v 45.583534 4.137949 -43.231846
v 45.454174 4.072458 -43.197186
v 45.463692 4.137949 -43.679092
v 45.485287 4.203476 -43.684883
v 45.605125 4.203476 -43.237633
v 45.583534 4.137949 -43.231846
v 45.485287 4.203476 -43.684883
v 45.880379 4.201968 -43.790745
v 46.000217 4.201968 -43.343494
v 45.605125 4.203476 -43.237633
v 45.901474 4.137949 -43.796394
v 46.033768 4.072458 -43.831844
v 46.153606 4.072458 -43.384594
v 46.021317 4.137949 -43.349148
v 45.880379 4.201968 -43.790745
v 45.901474 4.137949 -43.796394
v 46.021317 4.137949 -43.349148
v 46.000217 4.201968 -43.343494
vt 0.734937 0.927047
vt 0.346145 0.927047
vt 0.346145 0.934590
vt 0.734937 0.934591
vt 0.346145 0.942134
vt 0.734937 0.942134
vt 0.346145 0.949677
vt 0.734937 0.949677
vt 0.734937 0.949677
vt 0.346145 0.949677
vt 0.346145 0.957221
vt 0.734937 0.957221
vt 0.346145 0.964764
vt 0.734937 0.964764
vt 0.346145 0.972307
vt 0.734937 0.972307
vt 0.734937 0.927000
vt 0.346145 0.927000
vt 0.346145 0.934543
vt 0.734937 0.934543
vt 0.346145 0.942086
vt 0.734937 0.942086
vt 0.346145 0.949630
vt 0.734937 0.949630
vt 0.734937 0.949630
vt 0.346145 0.949630
vt 0.346145 0.957173
vt 0.734937 0.957173
vt 0.346145 0.964716
vt 0.734937 0.964716
vt 0.734937 0.964716
vt 0.346145 0.964716
vt 0.346145 0.972260
vt 0.734937 0.972260
vt 0.309986 0.916865
vt 0.314493 0.916865
vt 0.314493 0.982608
vt 0.309986 0.982608
vt 0.334514 0.916836
vt 0.319632 0.905309
vt 0.334595 0.898857
vt 0.344532 0.901972
vt 0.346896 0.916879
vt 0.349518 0.908190
vt 0.351412 0.917003
vt 0.346892 0.929029
vt 0.334515 0.933179
vt 0.340874 0.931047
vt 0.334519 0.965999
vt 0.341005 0.968178
vt 0.334520 0.982618
vt 0.320234 0.994738
vt 0.334617 0.999376
vt 0.344682 0.996237
vt 0.346870 0.982576
vt 0.349639 0.990842
vt 0.351313 0.982465
vt 0.346875 0.970150
vt 0.309986 0.916865
vt 0.309986 0.982608
vt 0.314493 0.982608
vt 0.314493 0.916865
vt 0.334515 0.933179
vt 0.334514 0.916836
vt 0.319632 0.905309
vt 0.334595 0.898857
vt 0.344532 0.901972
vt 0.346896 0.916879
vt 0.349518 0.908190
vt 0.351412 0.917003
vt 0.346892 0.929029
vt 0.340874 0.931047
vt 0.334519 0.965999
vt 0.341005 0.968178
vt 0.334520 0.982618
vt 0.320234 0.994738
vt 0.334617 0.999376
vt 0.344682 0.996237
vt 0.346870 0.982576
vt 0.349639 0.990842
vt 0.351313 0.982465
vt 0.346875 0.970150
vt 0.314493 0.916865
vt 0.309986 0.916865
vt 0.309986 0.982608
vt 0.314493 0.982608
vt 0.314493 0.916865
vt 0.309986 0.916865
vt 0.309986 0.982608
vt 0.314493 0.982608
vt 0.029125 0.822952
vt 0.029125 0.874103
vt 0.123294 0.874103
vt 0.123294 0.822952
vt 0.016585 0.874753
vt 0.026742 0.874753
vt 0.026742 0.823466
vt 0.016585 0.823466
vt 0.008888 0.874753
vt 0.016585 0.874753
vt 0.016585 0.823466
vt 0.008888 0.823466
vt 0.026742 0.874753
vt 0.032645 0.874753
vt 0.032645 0.823466
vt 0.026742 0.823466
vt 0.032645 0.874753
vt 0.038222 0.874753
vt 0.038222 0.823466
vt 0.032645 0.823466
vt 0.038222 0.874753
vt 0.043832 0.874753
vt 0.043832 0.823466
vt 0.038222 0.823466
vt 0.090165 0.874752
vt 0.095546 0.874753
vt 0.095546 0.823465
vt 0.090165 0.823465
vt 0.095546 0.874753
vt 0.100834 0.874753
vt 0.100833 0.823466
vt 0.095546 0.823465
vt 0.100834 0.874753
vt 0.106842 0.874753
vt 0.106842 0.823465
vt 0.100833 0.823466
vt 0.116194 0.874753
vt 0.124668 0.874752
vt 0.124669 0.823465
vt 0.116194 0.823465
vt 0.106842 0.874753
vt 0.116194 0.874753
vt 0.116194 0.823465
vt 0.106842 0.823465
vt 0.043832 0.874753
vt 0.051989 0.874753
vt 0.051989 0.823466
vt 0.043832 0.823466
vt 0.051989 0.874753
vt 0.055778 0.874753
vt 0.055777 0.823466
vt 0.051989 0.823466
vt 0.055778 0.874753
vt 0.078158 0.874753
vt 0.078158 0.823466
vt 0.055777 0.823466
vt 0.081859 0.874753
vt 0.090165 0.874752
vt 0.090165 0.823465
vt 0.081859 0.823466
vt 0.078158 0.874753
vt 0.081859 0.874753
vt 0.081859 0.823466
vt 0.078158 0.823466
vn 0.258812 0.000000 -0.965928
vn 0.258812 0.000000 -0.965928
vn 0.707097 0.000000 -0.707117
vn 0.707097 0.000000 -0.707117
vn 0.965922 0.000000 -0.258832
vn 0.965922 0.000000 -0.258832
vn 0.965922 0.000000 0.258832
vn 0.965922 0.000000 0.258832
vn 0.965922 0.000000 0.258832
vn 0.965922 0.000000 0.258832
vn 0.707109 0.000000 0.707104
vn 0.707109 0.000000 0.707104
vn 0.258835 0.000000 0.965921
vn 0.258835 0.000000 0.965921
vn -0.258835 0.000000 0.965921
vn -0.258835 0.000000 0.965921
vn -0.258835 0.000000 0.965921
vn -0.258835 0.000000 0.965921
vn -0.707120 0.000000 0.707094
vn -0.707120 0.000000 0.707094
vn -0.965928 0.000000 0.258813
vn -0.965928 0.000000 0.258813
vn -0.965928 0.000000 -0.258813
vn -0.965928 0.000000 -0.258813
vn -0.965928 0.000000 -0.258813
vn -0.965928 0.000000 -0.258813
vn -0.707107 0.000000 -0.707106
vn -0.707107 0.000000 -0.707106
vn -0.258812 0.000000 -0.965928
vn -0.258812 0.000000 -0.965928
vn -0.258812 0.000000 -0.965928
vn -0.258812 0.000000 -0.965928
vn 0.258812 0.000000 -0.965928
vn 0.258812 0.000000 -0.965928
vn 0.258812 0.000000 0.965928
vn 0.258817 0.000004 0.965926
vn 0.258815 0.000003 0.965927
vn 0.258812 0.000000 0.965928
vn 0.258821 0.000003 0.965925
vn 0.258858 0.000005 0.965916
vn 0.258847 -0.000001 0.965918
vn 0.258835 -0.000008 0.965921
vn 0.258829 -0.000010 0.965923
vn 0.258858 0.000000 0.965915
vn 0.258843 -0.000020 0.965920
vn 0.258817 -0.000008 0.965926
vn 0.258813 0.000004 0.965928
vn 0.258818 -0.000005 0.965926
vn 0.258812 0.000004 0.965928
vn 0.258815 0.000000 0.965927
vn 0.258817 0.000002 0.965926
vn 0.258842 -0.000006 0.965920
vn 0.258838 -0.000004 0.965921
vn 0.258830 0.000004 0.965923
vn 0.258813 0.000002 0.965928
vn 0.258823 0.000036 0.965925
vn 0.258810 0.000025 0.965928
vn 0.258799 -0.000009 0.965931
vn -0.258820 0.000000 -0.965926
vn -0.258820 0.000000 -0.965926
vn -0.258816 0.000001 -0.965927
vn -0.258816 0.000001 -0.965927
vn -0.258817 0.000001 -0.965926
vn -0.258815 0.000000 -0.965927
vn -0.258802 0.000000 -0.965930
vn -0.258807 0.000004 -0.965929
vn -0.258812 0.000005 -0.965928
vn -0.258817 -0.000006 -0.965926
vn -0.258804 -0.000023 -0.965930
vn -0.258807 -0.000016 -0.965929
vn -0.258827 -0.000013 -0.965924
vn -0.258828 -0.000014 -0.965923
vn -0.258816 0.000001 -0.965927
vn -0.258815 0.000005 -0.965927
vn -0.258815 0.000000 -0.965927
vn -0.258805 0.000005 -0.965929
vn -0.258816 -0.000001 -0.965927
vn -0.258824 -0.000005 -0.965925
vn -0.258812 -0.000001 -0.965928
vn -0.258774 0.000024 -0.965938
vn -0.258798 0.000017 -0.965931
vn -0.258806 -0.000004 -0.965929
vn -0.965926 0.000000 0.258819
vn -0.965926 0.000000 0.258819
vn -0.965926 0.000000 0.258819
vn -0.965926 0.000000 0.258819
vn 0.965927 0.000000 -0.258816
vn 0.965927 0.000000 -0.258816
vn 0.965927 0.000000 -0.258816
vn 0.965927 0.000000 -0.258816
vn 0.000000 1.000000 0.000000
vn 0.000000 1.000000 0.000000
vn 0.000000 1.000000 0.000000
vn 0.000000 1.000000 0.000000
vn -0.908759 0.338917 0.243499
vn -0.908759 0.338918 0.243499
vn -0.908759 0.338917 0.243499
vn -0.908759 0.338917 0.243499
vn -0.310513 0.946921 0.083200
vn -0.310513 0.946921 0.083200
vn -0.310513 0.946921 0.083200
vn -0.310513 0.946921 0.083200
vn -0.942534 -0.218742 0.252550
vn -0.942534 -0.218742 0.252550
vn -0.942534 -0.218742 0.252550
vn -0.942534 -0.218742 0.252550
vn -0.676531 -0.713755 0.181273
vn -0.676531 -0.713755 0.181273
vn -0.676531 -0.713755 0.181273
vn -0.676531 -0.713755 0.181273
vn -0.222283 -0.973161 0.059561
vn -0.222283 -0.973161 0.059561
vn -0.222283 -0.973161 0.059561
vn -0.222283 -0.973161 0.059561
vn 0.193141 -0.979805 -0.051750
vn 0.193141 -0.979805 -0.051750
vn 0.193141 -0.979805 -0.051750
vn 0.193141 -0.979805 -0.051750
vn 0.733139 -0.651087 -0.196448
vn 0.733139 -0.651087 -0.196448
vn 0.733139 -0.651087 -0.196448
vn 0.733139 -0.651087 -0.196448
vn 0.943376 -0.214820 -0.252772
vn 0.943376 -0.214820 -0.252772
vn 0.943376 -0.214820 -0.252772
vn 0.943376 -0.214820 -0.252772
vn 0.331068 0.939428 -0.088711
vn 0.331068 0.939428 -0.088711
vn 0.331068 0.939428 -0.088711
vn 0.331068 0.939428 -0.088711
vn 0.942570 0.218568 -0.252565
vn 0.942570 0.218568 -0.252565
vn 0.942570 0.218568 -0.252565
vn 0.942570 0.218568 -0.252565
vn 0.424351 -0.898330 -0.113706
vn 0.424351 -0.898330 -0.113706
vn 0.424351 -0.898330 -0.113706
vn 0.424351 -0.898330 -0.113706
vn 0.914196 -0.322863 -0.244960
vn 0.914196 -0.322863 -0.244960
vn 0.914196 -0.322863 -0.244960
vn 0.914196 -0.322863 -0.244960
vn -0.003561 -0.999993 0.000954
vn -0.003561 -0.999993 0.000954
vn -0.003561 -0.999993 0.000954
vn -0.003561 -0.999993 0.000954
vn -0.416687 -0.902167 0.111654
vn -0.416687 -0.902167 0.111654
vn -0.416687 -0.902167 0.111654
vn -0.416687 -0.902167 0.111654
vn -0.914213 -0.322813 0.244963
vn -0.914213 -0.322813 0.244963
vn -0.914213 -0.322813 0.244963
vn -0.914213 -0.322813 0.244963
usemtl material
f 1/0/1 2/0/2 3/0/3
f 1/0/1 3/0/3 4/0/4
f 4/0/4 3/0/3 5/0/5
f 4/0/4 5/0/5 6/0/6
f 6/0/6 5/0/5 7/0/7
f 6/0/6 7/0/7 8/0/8
f 9/0/9 10/0/10 11/0/11
f 9/0/9 11/0/11 12/0/12
f 12/0/12 11/0/11 13/0/13
f 12/0/12 13/0/13 14/0/14
f 14/0/14 13/0/13 15/0/15
f 14/0/14 15/0/15 16/0/16
f 17/0/17 18/0/18 19/0/19
f 17/0/17 19/0/19 20/0/20
f 20/0/20 19/0/19 21/0/21
f 20/0/20 21/0/21 22/0/22
f 22/0/22 21/0/21 23/0/23
f 22/0/22 23/0/23 24/0/24
f 25/0/25 26/0/26 27/0/27
f 25/0/25 27/0/27 28/0/28
f 28/0/28 27/0/27 29/0/29
f 28/0/28 29/0/29 30/0/30
f 31/0/31 32/0/32 33/0/33
f 31/0/31 33/0/33 34/0/34
f 35/0/35 36/0/36 37/0/37
f 35/0/35 37/0/37 38/0/38
f 37/0/37 36/0/36 39/0/39
f 40/0/40 39/0/39 36/0/36
f 40/0/40 41/0/41 39/0/39
f 39/0/39 41/0/41 42/0/42
f 39/0/39 42/0/42 43/0/43
f 43/0/43 42/0/42 44/0/44
f 43/0/43 44/0/44 45/0/45
f 45/0/45 46/0/46 43/0/43
f 47/0/47 39/0/39 43/0/43
f 39/0/39 47/0/47 37/0/37
f 43/0/43 48/0/48 47/0/47
f 43/0/43 46/0/46 48/0/48
f 48/0/48 49/0/49 47/0/47
f 47/0/47 49/0/49 37/0/37
f 48/0/48 50/0/50 49/0/49
f 49/0/49 51/0/51 37/0/37
f 51/0/51 49/0/49 50/0/50
f 52/0/52 37/0/37 51/0/51
f 52/0/52 51/0/51 53/0/53
f 51/0/51 54/0/54 53/0/53
f 51/0/51 55/0/55 54/0/54
f 55/0/55 56/0/56 54/0/54
f 55/0/55 57/0/57 56/0/56
f 58/0/58 57/0/57 55/0/55
f 50/0/50 58/0/58 51/0/51
f 58/0/58 55/0/55 51/0/51
f 59/0/59 60/0/60 61/0/61
f 59/0/59 61/0/61 62/0/62
f 62/0/62 61/0/61 63/0/63
f 63/0/63 64/0/64 62/0/62
f 65/0/65 62/0/62 64/0/64
f 65/0/65 64/0/64 66/0/66
f 64/0/64 67/0/67 66/0/66
f 64/0/64 68/0/68 67/0/67
f 68/0/68 69/0/69 67/0/67
f 68/0/68 70/0/70 69/0/69
f 70/0/70 68/0/68 71/0/71
f 71/0/71 68/0/68 64/0/64
f 64/0/64 63/0/63 71/0/71
f 63/0/63 72/0/72 71/0/71
f 72/0/72 63/0/63 73/0/73
f 61/0/61 73/0/73 63/0/63
f 72/0/72 73/0/73 74/0/74
f 61/0/61 75/0/75 73/0/73
f 74/0/74 73/0/73 75/0/75
f 76/0/76 75/0/75 61/0/61
f 76/0/76 77/0/77 75/0/75
f 75/0/75 77/0/77 78/0/78
f 75/0/75 78/0/78 79/0/79
f 79/0/79 78/0/78 80/0/80
f 79/0/79 80/0/80 81/0/81
f 82/0/82 79/0/79 81/0/81
f 75/0/75 82/0/82 74/0/74
f 75/0/75 79/0/79 82/0/82
f 83/0/83 84/0/84 85/0/85
f 83/0/83 85/0/85 86/0/86
f 87/0/87 88/0/88 89/0/89
f 87/0/87 89/0/89 90/0/90
f 91/0/91 92/0/92 93/0/93
f 91/0/91 93/0/93 94/0/94
f 95/0/95 96/0/96 97/0/97
f 95/0/95 97/0/97 98/0/98
f 99/0/99 100/0/100 101/0/101
f 99/0/99 101/0/101 102/0/102
f 103/0/103 104/0/104 105/0/105
f 103/0/103 105/0/105 106/0/106
f 107/0/107 108/0/108 109/0/109
f 107/0/107 109/0/109 110/0/110
f 111/0/111 112/0/112 113/0/113
f 111/0/111 113/0/113 114/0/114
f 115/0/115 116/0/116 117/0/117
f 115/0/115 117/0/117 118/0/118
f 119/0/119 120/0/120 121/0/121
f 119/0/119 121/0/121 122/0/122
f 123/0/123 124/0/124 125/0/125
f 123/0/123 125/0/125 126/0/126
f 127/0/127 128/0/128 129/0/129
f 127/0/127 129/0/129 130/0/130
f 131/0/131 132/0/132 133/0/133
f 131/0/131 133/0/133 134/0/134
f 135/0/135 136/0/136 137/0/137
f 135/0/135 137/0/137 138/0/138
f 139/0/139 140/0/140 141/0/141
f 139/0/139 141/0/141 142/0/142
f 143/0/143 144/0/144 145/0/145
f 143/0/143 145/0/145 146/0/146
f 147/0/147 148/0/148 149/0/149
f 147/0/147 149/0/149 150/0/150
f 151/0/151 152/0/152 153/0/153
f 151/0/151 153/0/153 154/0/154
