# 
# Wavefront OBJ file
# Created with Kaydara FBX
# 
mtllib poly02 #2279319.mtl

g Poly02
v -9.789966 -14.325725 -109.460152
v 0.000000 -14.325725 -109.460152
v 0.000000 -14.325748 -113.140190
v -9.789971 -14.325748 -113.140190
v 0.000000 -14.325747 -116.922836
v -9.789739 -14.325747 -116.922836
v 0.000000 -14.325747 -117.576378
v -9.064963 -14.325747 -117.576378
v 0.000000 -14.325747 -119.547485
v -9.064993 -14.325747 -119.547485
v 0.000000 -14.325747 -120.230591
v -9.789827 -14.325747 -120.230591
v -9.789879 -14.325746 -123.431992
v -6.300100 -14.325749 -126.722221
v 0.000000 -14.325749 -126.722221
v 0.000000 -14.325685 -108.804985
v -3.778117 -14.325984 -108.827538
v -3.650230 -14.325984 -108.229492
v 0.000000 -14.325984 -108.229492
v -4.349101 -14.325985 -108.827538
v -7.934492 -14.326015 -108.710701
v -9.789968 -14.325878 -106.547653
v -8.170657 -14.326015 -106.234375
v -4.472077 -14.326015 -108.710701
v -9.789969 -14.325878 -105.170250
v -7.469335 -14.326015 -105.361328
v -11.029965 -14.325889 -106.430176
v -10.674391 -14.325725 -109.460152
v 9.789966 -14.325725 -109.460152
v 9.789971 -14.325748 -113.140190
v 0.000000 -14.325748 -113.140190
v 0.000000 -14.325725 -109.460152
v 0.000000 -14.325747 -116.922836
v 9.789739 -14.325747 -116.922836
v 0.000000 -14.325747 -117.576378
v 9.064963 -14.325747 -117.576378
v 0.000000 -14.325747 -119.547485
v 9.064993 -14.325747 -119.547485
v 0.000000 -14.325747 -120.230591
v 9.789827 -14.325747 -120.230591
v 9.789879 -14.325746 -123.431992
v 0.000000 -14.325749 -126.722221
v 6.300100 -14.325749 -126.722221
v 7.934492 -14.326015 -108.710701
v 9.789968 -14.325878 -106.547653
v 8.170657 -14.326015 -106.234375
v 4.349101 -14.325985 -108.827538
v 4.472077 -14.326015 -108.710701
v 9.789969 -14.325878 -105.170250
v 7.469335 -14.326015 -105.361328
v 11.029965 -14.325889 -106.430176
v 10.674391 -14.325725 -109.460152
v 3.778117 -14.325984 -108.827538
v 0.000000 -14.325685 -108.804985
v 3.650230 -14.325984 -108.229492
v 0.000000 -14.325984 -108.229492
vt 0.989003 0.498850
vt 0.712948 0.498875
vt 0.712948 0.601665
vt 0.989003 0.601665
vt 0.712948 0.708668
vt 0.989003 0.708668
vt 0.712948 0.727155
vt 0.968474 0.727155
vt 0.712948 0.782913
vt 0.968475 0.782913
vt 0.712948 0.802237
vt 0.988979 0.802237
vt 0.988980 0.892797
vt 0.890262 0.985870
vt 0.712948 0.985870
vt 0.712948 0.481000
vt 0.819515 0.481000
vt 0.815943 0.464507
vt 0.712948 0.464503
vt 0.835464 0.481000
vt 0.936555 0.477967
vt 0.989003 0.417447
vt 0.943334 0.408837
vt 0.839866 0.477967
vt 0.989003 0.378974
vt 0.923667 0.383594
vt 0.996760 0.414026
vt 0.996760 0.498623
vt 0.989003 0.498850
vt 0.989003 0.601665
vt 0.712948 0.601665
vt 0.712948 0.498875
vt 0.712948 0.708668
vt 0.989003 0.708668
vt 0.712948 0.727155
vt 0.968474 0.727155
vt 0.712948 0.782913
vt 0.968475 0.782913
vt 0.712948 0.802237
vt 0.988979 0.802237
vt 0.988980 0.892797
vt 0.712948 0.985870
vt 0.890262 0.985870
vt 0.936555 0.477967
vt 0.989003 0.417447
vt 0.943334 0.408837
vt 0.835464 0.481000
vt 0.839866 0.477967
vt 0.989003 0.378974
vt 0.923667 0.383594
vt 0.996760 0.414026
vt 0.996760 0.498623
vt 0.819515 0.481000
vt 0.712948 0.481000
vt 0.815943 0.464507
vt 0.712948 0.464503
vn 0.000020 1.000000 0.000035
vn 0.000000 1.000000 0.000148
vn 0.000000 1.000000 -0.000003
vn 0.000000 1.000000 -0.000003
vn 0.000000 1.000000 0.000000
vn 0.000000 1.000000 0.000000
vn 0.000000 1.000000 0.000000
vn 0.000000 1.000000 0.000000
vn 0.000000 1.000000 0.000000
vn 0.000000 1.000000 0.000000
vn 0.000000 1.000000 0.000000
vn 0.000000 1.000000 0.000000
vn 0.000000 1.000000 0.000000
vn 0.000000 1.000000 0.000000
vn 0.000000 1.000000 0.000000
vn 0.000000 1.000000 0.000281
vn -0.000023 1.000000 0.000289
vn -0.000041 1.000000 0.000259
vn 0.000000 1.000000 0.000259
vn -0.379295 0.834852 -0.398946
vn 0.000036 1.000000 0.000194
vn 0.000065 1.000000 0.000031
vn 0.000082 1.000000 -0.000006
vn -0.379157 0.834984 -0.398800
vn 0.000074 1.000000 -0.000015
vn 0.000055 1.000000 -0.000044
vn -0.000002 1.000000 0.000053
vn -0.000001 1.000000 0.000027
vn -0.000020 1.000000 0.000035
vn 0.000000 1.000000 -0.000003
vn 0.000000 1.000000 -0.000003
vn 0.000000 1.000000 0.000148
vn 0.000000 1.000000 0.000000
vn 0.000000 1.000000 0.000000
vn 0.000000 1.000000 0.000000
vn 0.000000 1.000000 0.000000
vn 0.000000 1.000000 0.000000
vn 0.000000 1.000000 0.000000
vn 0.000000 1.000000 0.000000
vn 0.000000 1.000000 0.000000
vn 0.000000 1.000000 0.000000
vn 0.000000 1.000000 0.000000
vn 0.000000 1.000000 0.000000
vn -0.000036 1.000000 0.000194
vn -0.000065 1.000000 0.000031
vn -0.000082 1.000000 -0.000006
vn 0.379295 0.834852 -0.398946
vn 0.379157 0.834984 -0.398800
vn -0.000074 1.000000 -0.000015
vn -0.000055 1.000000 -0.000044
vn 0.000002 1.000000 0.000053
vn 0.000001 1.000000 0.000027
vn 0.000023 1.000000 0.000289
vn 0.000000 1.000000 0.000281
vn 0.000041 1.000000 0.000259
vn 0.000000 1.000000 0.000259
usemtl material
f 1/0/1 2/0/2 3/0/3
f 1/0/1 3/0/3 4/0/4
f 4/0/4 3/0/3 5/0/5
f 4/0/4 5/0/5 6/0/6
f 6/0/6 5/0/5 7/0/7
f 6/0/6 7/0/7 8/0/8
f 8/0/8 7/0/7 9/0/9
f 8/0/8 9/0/9 10/0/10
f 10/0/10 9/0/9 11/0/11
f 10/0/10 11/0/11 12/0/12
f 13/0/13 12/0/12 11/0/11
f 14/0/14 13/0/13 11/0/11
f 11/0/11 15/0/15 14/0/14
f 16/0/16 2/0/2 1/0/1
f 1/0/1 17/0/17 16/0/16
f 18/0/18 16/0/16 17/0/17
f 18/0/18 19/0/19 16/0/16
f 20/0/20 17/0/17 1/0/1
f 1/0/1 21/0/21 20/0/20
f 21/0/21 1/0/1 22/0/22
f 21/0/21 22/0/22 23/0/23
f 21/0/21 24/0/24 20/0/20
f 23/0/23 22/0/22 25/0/25
f 25/0/25 26/0/26 23/0/23
f 1/0/1 27/0/27 22/0/22
f 1/0/1 28/0/28 27/0/27
f 4/0/4 28/0/28 1/0/1
f 29/0/29 30/0/30 31/0/31
f 29/0/29 31/0/31 32/0/32
f 30/0/30 33/0/33 31/0/31
f 30/0/30 34/0/34 33/0/33
f 34/0/34 35/0/35 33/0/33
f 34/0/34 36/0/36 35/0/35
f 36/0/36 37/0/37 35/0/35
f 36/0/36 38/0/38 37/0/37
f 38/0/38 39/0/39 37/0/37
f 38/0/38 40/0/40 39/0/39
f 39/0/39 40/0/40 41/0/41
f 42/0/42 39/0/39 41/0/41
f 41/0/41 43/0/43 42/0/42
f 44/0/44 29/0/29 32/0/32
f 44/0/44 45/0/45 29/0/29
f 44/0/44 46/0/46 45/0/45
f 32/0/32 47/0/47 44/0/44
f 47/0/47 48/0/48 44/0/44
f 46/0/46 49/0/49 45/0/45
f 49/0/49 46/0/46 50/0/50
f 29/0/29 45/0/45 51/0/51
f 29/0/29 51/0/51 52/0/52
f 30/0/30 29/0/29 52/0/52
f 53/0/53 47/0/47 32/0/32
f 32/0/32 54/0/54 53/0/53
f 55/0/55 53/0/53 54/0/54
f 55/0/55 54/0/54 56/0/56
