# 
# Wavefront OBJ file
# Created with Kaydara FBX
# 
mtllib polysurface562.mtl

g polySurface562
v -0.481400 1.421888 -0.225320
v -0.807871 1.045043 -0.551190
v -0.807871 0.230047 -0.551190
v -0.807871 -0.263411 -0.551190
v -0.694138 -0.639144 -0.437664
v -0.641042 -1.002640 -0.384668
v 0.552638 -1.002640 0.806817
v -0.206956 1.842910 0.048621
v -0.038339 1.945673 0.216928
v 0.155592 1.840962 0.410501
v 0.282891 1.594260 0.537565
v 0.552638 1.016142 0.806817
v 0.465806 1.451301 0.720143
v -0.354097 -0.639144 -0.778331
v -0.467831 -0.263411 -0.891856
v -0.467831 0.230047 -0.891856
v -0.467831 1.045043 -0.891856
v -0.141360 1.421888 -0.565986
v -0.301003 -1.002640 -0.725335
v 0.892678 -1.002640 0.466149
v 0.133086 1.842910 -0.292046
v 0.301703 1.945673 -0.123739
v 0.495631 1.840962 0.069834
v 0.622931 1.594260 0.196898
v 0.892678 1.016142 0.466149
v 0.805846 1.451301 0.379477
v -0.301003 -1.002640 -0.725335
v -0.641042 -1.002640 -0.384668
v -0.694138 -0.639144 -0.437664
v -0.354097 -0.639144 -0.778331
v -0.354097 -0.639144 -0.778331
v -0.694138 -0.639144 -0.437664
v -0.807871 -0.263411 -0.551190
v -0.467831 -0.263411 -0.891856
v -0.467831 -0.263411 -0.891856
v -0.807871 -0.263411 -0.551190
v -0.807871 0.230047 -0.551190
v -0.467831 0.230047 -0.891856
v -0.467831 0.230047 -0.891856
v -0.807871 0.230047 -0.551190
v -0.807871 1.045043 -0.551190
v -0.467831 1.045043 -0.891856
v -0.467831 1.045043 -0.891856
v -0.807871 1.045043 -0.551190
v -0.481400 1.421888 -0.225320
v -0.141360 1.421888 -0.565986
v -0.141360 1.421888 -0.565986
v -0.481400 1.421888 -0.225320
v -0.206956 1.842910 0.048621
v 0.133086 1.842910 -0.292046
v 0.133086 1.842910 -0.292046
v -0.206956 1.842910 0.048621
v -0.038339 1.945673 0.216928
v 0.301703 1.945673 -0.123739
v 0.301703 1.945673 -0.123739
v -0.038339 1.945673 0.216928
v 0.155592 1.840962 0.410501
v 0.495631 1.840962 0.069834
v 0.495631 1.840962 0.069834
v 0.155592 1.840962 0.410501
v 0.282891 1.594260 0.537565
v 0.622931 1.594260 0.196898
v 0.892678 1.016142 0.466149
v 0.552638 1.016142 0.806817
v 0.552638 -1.002640 0.806817
v 0.892678 -1.002640 0.466149
v 0.622931 1.594260 0.196898
v 0.282891 1.594260 0.537565
v 0.465806 1.451301 0.720143
v 0.805846 1.451301 0.379477
v 0.805846 1.451301 0.379477
v 0.465806 1.451301 0.720143
v 0.552638 1.016142 0.806817
v 0.892678 1.016142 0.466149
v 0.000000 -1.945673 -2.001151
v 0.000000 -1.002639 -2.001151
v 2.001151 -1.002639 0.000000
v 2.001151 -1.945673 0.000000
v -2.001151 -1.945673 0.000000
v -2.001151 -1.002639 0.000000
v 0.000000 -1.002639 -2.001151
v 0.000000 -1.945673 -2.001151
v 0.000000 -1.945673 2.001151
v 2.001151 -1.945673 0.000000
v 2.001151 -1.002639 0.000000
v 0.000000 -1.002639 2.001151
v -2.001151 -1.945673 0.000000
v 0.000000 -1.945673 2.001151
v 0.000000 -1.002639 2.001151
v -2.001151 -1.002639 0.000000
v -2.001151 -1.002639 0.000000
v 0.000000 -1.002639 2.001151
v 2.001151 -1.002639 0.000000
v 0.000000 -1.002639 -2.001151
vt 0.317877 0.280331
vt 0.353315 0.248379
vt 0.353320 0.179279
vt 0.353320 0.137442
vt 0.340982 0.105584
vt 0.335209 0.074769
vt 0.205657 0.074767
vt 0.288092 0.316028
vt 0.269790 0.324741
vt 0.248743 0.315864
vt 0.234936 0.294936
vt 0.205657 0.245927
vt 0.215077 0.282824
vt 0.340973 0.105582
vt 0.353320 0.137442
vt 0.353320 0.179279
vt 0.353315 0.248379
vt 0.317877 0.280331
vt 0.335236 0.074779
vt 0.205657 0.074767
vt 0.288092 0.316028
vt 0.269790 0.324741
vt 0.248743 0.315864
vt 0.234936 0.294936
vt 0.205657 0.245927
vt 0.215077 0.282824
vt 0.075210 0.662672
vt 0.076335 0.723827
vt 0.109126 0.723827
vt 0.107997 0.662672
vt 0.107997 0.662672
vt 0.109126 0.723827
vt 0.276153 0.723827
vt 0.275019 0.662672
vt 0.275019 0.662672
vt 0.276153 0.723827
vt 0.404778 0.723827
vt 0.403647 0.662672
vt 0.009222 0.662672
vt 0.010352 0.723827
vt 0.222084 0.723827
vt 0.220972 0.662672
vt 0.008084 0.662672
vt 0.009195 0.723827
vt 0.153527 0.723827
vt 0.152458 0.662672
vt 0.152458 0.662672
vt 0.153527 0.723827
vt 0.292715 0.723827
vt 0.291705 0.662672
vt 0.291705 0.662672
vt 0.292715 0.723827
vt 0.351845 0.723827
vt 0.350935 0.662672
vt 0.010508 0.662672
vt 0.011419 0.723827
vt 0.076108 0.723827
vt 0.075316 0.662672
vt 0.075316 0.662672
vt 0.076108 0.723827
vt 0.145133 0.723827
vt 0.144489 0.662672
vt 0.006949 0.662672
vt 0.007181 0.723827
vt 0.431533 0.723827
vt 0.431418 0.662672
vt 0.144489 0.662672
vt 0.145133 0.723827
vt 0.206415 0.723827
vt 0.205963 0.662672
vt 0.205963 0.662672
vt 0.206415 0.723827
vt 0.303373 0.723827
vt 0.303142 0.662672
vt 0.004706 0.319449
vt 0.004706 0.386645
vt 0.201306 0.386645
vt 0.201306 0.319449
vt 0.004706 0.319449
vt 0.004706 0.386645
vt 0.201306 0.386645
vt 0.201306 0.319449
vt 0.004706 0.319449
vt 0.201306 0.319449
vt 0.201306 0.386645
vt 0.004706 0.386645
vt 0.004706 0.319449
vt 0.201306 0.319449
vt 0.201306 0.386645
vt 0.004706 0.386645
vt 0.342695 0.248649
vt 0.210151 0.248649
vt 0.210151 0.381193
vt 0.342695 0.381193
vn -0.706456 0.000000 0.707757
vn -0.706456 0.000000 0.707757
vn -0.706456 0.000000 0.707757
vn -0.706456 0.000000 0.707757
vn -0.706456 0.000000 0.707757
vn -0.706456 0.000000 0.707757
vn -0.706456 0.000000 0.707757
vn -0.706456 0.000000 0.707757
vn -0.706456 0.000000 0.707757
vn -0.706456 0.000000 0.707757
vn -0.706456 0.000000 0.707757
vn -0.706456 0.000000 0.707757
vn -0.706457 0.000002 0.707756
vn 0.706455 0.000000 -0.707758
vn 0.706455 0.000000 -0.707758
vn 0.706455 0.000000 -0.707758
vn 0.706455 0.000000 -0.707758
vn 0.706455 0.000000 -0.707758
vn 0.706455 0.000000 -0.707758
vn 0.706455 0.000000 -0.707758
vn 0.706455 0.000000 -0.707758
vn 0.706455 0.000000 -0.707758
vn 0.706455 0.000000 -0.707758
vn 0.706455 0.000000 -0.707758
vn 0.706455 0.000000 -0.707758
vn 0.706453 0.000000 -0.707760
vn -0.693151 -0.202120 -0.691874
vn -0.693151 -0.202120 -0.691874
vn -0.693151 -0.202120 -0.691874
vn -0.693151 -0.202120 -0.691874
vn -0.650739 -0.393233 -0.649544
vn -0.650739 -0.393233 -0.649544
vn -0.650739 -0.393233 -0.649544
vn -0.650739 -0.393233 -0.649544
vn -0.707757 0.000000 -0.706456
vn -0.707757 0.000000 -0.706456
vn -0.707757 0.000000 -0.706456
vn -0.707757 0.000000 -0.706456
vn -0.707757 0.000000 -0.706456
vn -0.707757 0.000000 -0.706456
vn -0.707757 0.000000 -0.706456
vn -0.707757 0.000000 -0.706456
vn -0.447778 0.774420 -0.446955
vn -0.447778 0.774420 -0.446955
vn -0.447778 0.774420 -0.446955
vn -0.447778 0.774420 -0.446955
vn -0.520596 0.677461 -0.519641
vn -0.520596 0.677461 -0.519641
vn -0.520596 0.677461 -0.519641
vn -0.520596 0.677461 -0.519641
vn -0.280319 0.918221 -0.279806
vn -0.280319 0.918221 -0.279806
vn -0.280319 0.918221 -0.279806
vn -0.280319 0.918221 -0.279806
vn 0.252650 0.934115 0.252186
vn 0.252650 0.934115 0.252186
vn 0.252650 0.934115 0.252186
vn 0.252650 0.934115 0.252186
vn 0.571901 0.589119 0.570848
vn 0.571901 0.589119 0.570848
vn 0.571901 0.589119 0.570848
vn 0.571901 0.589119 0.570848
vn 0.707758 0.000000 0.706455
vn 0.707758 0.000000 0.706455
vn 0.707758 0.000000 0.706455
vn 0.707758 0.000000 0.706455
vn 0.342579 0.875049 0.341949
vn 0.342579 0.875049 0.341949
vn 0.342579 0.875049 0.341949
vn 0.342579 0.875049 0.341949
vn 0.681203 0.271357 0.679947
vn 0.681203 0.271357 0.679947
vn 0.681203 0.271357 0.679947
vn 0.681203 0.271357 0.679947
vn 0.707107 0.000000 -0.707107
vn 0.707107 0.000000 -0.707107
vn 0.707107 0.000000 -0.707107
vn 0.707107 0.000000 -0.707107
vn -0.707107 0.000000 -0.707107
vn -0.707107 0.000000 -0.707107
vn -0.707107 0.000000 -0.707107
vn -0.707107 0.000000 -0.707107
vn 0.707107 0.000000 0.707107
vn 0.707107 0.000000 0.707107
vn 0.707107 0.000000 0.707107
vn 0.707107 0.000000 0.707107
vn -0.707107 0.000000 0.707107
vn -0.707107 0.000000 0.707107
vn -0.707107 0.000000 0.707107
vn -0.707107 0.000000 0.707107
vn 0.000000 1.000000 0.000000
vn 0.000000 1.000000 0.000000
vn 0.000000 1.000000 0.000000
vn 0.000000 1.000000 0.000000
usemtl material
f 1/0/1 2/0/2 3/0/3
f 3/0/3 4/0/4 1/0/1
f 4/0/4 5/0/5 1/0/1
f 5/0/5 6/0/6 1/0/1
f 6/0/6 7/0/7 1/0/1
f 7/0/7 8/0/8 1/0/1
f 7/0/7 9/0/9 8/0/8
f 7/0/7 10/0/10 9/0/9
f 7/0/7 11/0/11 10/0/10
f 7/0/7 12/0/12 11/0/11
f 12/0/12 13/0/13 11/0/11
f 14/0/14 15/0/15 16/0/16
f 16/0/16 17/0/17 14/0/14
f 17/0/17 18/0/18 14/0/14
f 18/0/18 19/0/19 14/0/14
f 18/0/18 20/0/20 19/0/19
f 18/0/18 21/0/21 20/0/20
f 21/0/21 22/0/22 20/0/20
f 22/0/22 23/0/23 20/0/20
f 23/0/23 24/0/24 20/0/20
f 24/0/24 25/0/25 20/0/20
f 25/0/25 24/0/24 26/0/26
f 27/0/27 28/0/28 29/0/29
f 27/0/27 29/0/29 30/0/30
f 31/0/31 32/0/32 33/0/33
f 31/0/31 33/0/33 34/0/34
f 35/0/35 36/0/36 37/0/37
f 35/0/35 37/0/37 38/0/38
f 39/0/39 40/0/40 41/0/41
f 39/0/39 41/0/41 42/0/42
f 43/0/43 44/0/44 45/0/45
f 43/0/43 45/0/45 46/0/46
f 47/0/47 48/0/48 49/0/49
f 47/0/47 49/0/49 50/0/50
f 51/0/51 52/0/52 53/0/53
f 51/0/51 53/0/53 54/0/54
f 55/0/55 56/0/56 57/0/57
f 55/0/55 57/0/57 58/0/58
f 59/0/59 60/0/60 61/0/61
f 59/0/59 61/0/61 62/0/62
f 63/0/63 64/0/64 65/0/65
f 63/0/63 65/0/65 66/0/66
f 67/0/67 68/0/68 69/0/69
f 67/0/67 69/0/69 70/0/70
f 71/0/71 72/0/72 73/0/73
f 71/0/71 73/0/73 74/0/74
f 75/0/75 76/0/76 77/0/77
f 75/0/75 77/0/77 78/0/78
f 79/0/79 80/0/80 81/0/81
f 79/0/79 81/0/81 82/0/82
f 83/0/83 84/0/84 85/0/85
f 83/0/83 85/0/85 86/0/86
f 87/0/87 88/0/88 89/0/89
f 87/0/87 89/0/89 90/0/90
f 91/0/91 92/0/92 93/0/93
f 91/0/91 93/0/93 94/0/94
