# 
# Wavefront OBJ file
# Created with Kaydara FBX
# 
mtllib polysurface689.mtl

g polySurface689
v -4.523183 4.020871 -58.966053
v -5.460598 4.020871 -59.045467
v -5.083489 3.309623 -59.017937
v -5.239113 3.391446 -59.029297
v -5.460598 3.398912 -59.045467
v -4.938380 3.188396 -59.007336
v -4.846357 3.030088 -59.000622
v -4.817570 2.870318 -58.998516
v -4.523183 2.870318 -58.966053
v -5.460598 3.398912 -59.045467
v -5.424833 3.398912 -59.535370
v -5.203358 3.391446 -59.519199
v -5.239113 3.391446 -59.029297
v -5.047725 3.309623 -59.507847
v -5.083489 3.309623 -59.017937
v -4.902618 3.188396 -59.497246
v -4.938380 3.188396 -59.007336
v -4.810592 3.030088 -59.490532
v -4.846357 3.030088 -59.000622
v -4.846357 3.030088 -59.000622
v -4.810592 3.030088 -59.490532
v -4.781798 2.870318 -59.488422
v -4.817570 2.870318 -58.998516
v -6.457189 4.020871 -59.119614
v -5.837675 3.309623 -59.072990
v -5.460598 4.020871 -59.045467
v -5.682051 3.391446 -59.061630
v -5.460598 3.398912 -59.045467
v -5.982771 3.188396 -59.083584
v -6.074788 3.030088 -59.090298
v -6.103588 2.870318 -59.092407
v -6.457189 2.870318 -59.119614
v -5.460598 3.398912 -59.045467
v -5.682051 3.391446 -59.061630
v -5.646292 3.391446 -59.551537
v -5.424833 3.398912 -59.535370
v -5.801909 3.309623 -59.562904
v -5.837675 3.309623 -59.072990
v -5.947005 3.188396 -59.573490
v -5.982771 3.188396 -59.083584
v -6.039026 3.030088 -59.580212
v -6.074788 3.030088 -59.090298
v -6.074788 3.030088 -59.090298
v -6.103588 2.870318 -59.092407
v -6.067822 2.870318 -59.582314
v -6.039026 3.030088 -59.580212
v -6.322697 4.020871 -59.592934
v -6.782470 3.309623 -59.870922
v -7.112513 4.020871 -60.055771
v -6.920823 3.391446 -59.943089
v -7.117709 3.398912 -60.045795
v -6.653487 3.188396 -59.803616
v -6.571678 3.030088 -59.760952
v -6.546078 2.870318 -59.747597
v -6.322697 2.870318 -59.592934
v -4.580233 4.020871 -59.456303
v -5.047725 3.309623 -59.507847
v -5.424003 4.020871 -59.546604
v -5.203358 3.391446 -59.519199
v -5.424833 3.398912 -59.535370
v -4.902618 3.188396 -59.497246
v -4.810592 3.030088 -59.490532
v -4.781798 2.870318 -59.488422
v -4.580233 2.870318 -59.456299
v -6.322697 4.020871 -59.592934
v -5.424003 4.020871 -59.546604
v -5.801909 3.309623 -59.562904
v -5.646292 3.391446 -59.551537
v -5.424833 3.398912 -59.535370
v -5.947005 3.188396 -59.573490
v -6.039026 3.030088 -59.580212
v -6.067822 2.870318 -59.582314
v -6.322697 2.870318 -59.592934
v -4.580233 2.870318 -59.456299
v -4.580233 4.020871 -59.456303
v -4.410379 2.870318 -59.505283
v -4.382830 3.030088 -59.513950
v -4.294816 3.188396 -59.541611
v -4.156028 3.309623 -59.585243
v -6.457189 4.020871 -59.119614
v -7.344902 4.020871 -59.610283
v -7.009668 3.309623 -59.435394
v -7.148015 3.391446 -59.507576
v -7.344902 3.398912 -59.610283
v -6.880673 3.188396 -59.368111
v -6.798864 3.030088 -59.325439
v -6.773250 2.870318 -59.312084
v -6.457189 2.870318 -59.119614
v -7.344902 3.398912 -59.610283
v -7.117709 3.398912 -60.045795
v -6.920823 3.391446 -59.943089
v -7.148015 3.391446 -59.507576
v -6.782470 3.309623 -59.870922
v -7.009668 3.309623 -59.435394
v -6.653487 3.188396 -59.803616
v -6.880673 3.188396 -59.368111
v -6.571678 3.030088 -59.760952
v -6.798864 3.030088 -59.325439
v -6.798864 3.030088 -59.325439
v -6.571678 3.030088 -59.760952
v -6.546078 2.870318 -59.747597
v -6.773250 2.870318 -59.312084
v -4.523183 4.020871 -58.966053
v -4.008722 3.309623 -59.116638
v -3.648041 4.020871 -59.230022
v -3.859879 3.391446 -59.163437
v -3.648041 3.398912 -59.230022
v -4.147505 3.188396 -59.073017
v -4.235526 3.030088 -59.045345
v -4.263067 2.870318 -59.036690
v -4.523183 2.870318 -58.966053
v -3.859879 3.391446 -59.163437
v -4.008722 3.309623 -59.116638
v -4.156028 3.309623 -59.585243
v -4.007184 3.391446 -59.632030
v -4.294816 3.188396 -59.541611
v -4.147505 3.188396 -59.073017
v -4.382830 3.030088 -59.513950
v -4.235526 3.030088 -59.045345
v -4.235526 3.030088 -59.045345
v -4.263067 2.870318 -59.036690
v -4.410379 2.870318 -59.505283
v -4.382830 3.030088 -59.513950
v -4.580233 4.020871 -59.456303
v -4.007184 3.391446 -59.632030
v -4.156028 3.309623 -59.585243
v -3.859879 3.391446 -59.163437
v -4.007184 3.391446 -59.632030
v -3.648041 3.398912 -59.230022
v -3.648041 4.020871 -59.230022
v -3.648041 3.398912 -59.230022
v -4.007184 3.391446 -59.632030
v -6.571940 0.297295 -59.670483
v -6.154285 0.297295 -59.452618
v -6.084805 0.218309 -59.474052
v -6.594107 0.218309 -59.739735
v -6.571940 2.572921 -59.670483
v -6.154285 2.572921 -59.452618
v -6.613244 2.870318 -59.782635
v -6.038665 2.870318 -59.482899
v -6.084805 -0.400690 -59.474052
v -6.594107 -0.400690 -59.739735
v -6.154285 0.297295 -59.452618
v -6.334648 0.297295 -59.116344
v -6.309564 0.218309 -59.043182
v -6.084805 0.218309 -59.474052
v -6.154285 2.572921 -59.452618
v -6.334648 2.572921 -59.116344
v -6.038665 2.870318 -59.482899
v -6.291286 2.870318 -59.001160
v -6.309564 -0.400690 -59.043182
v -6.084805 -0.400690 -59.474052
v -6.744514 0.297295 -59.330166
v -6.818872 0.218309 -59.308872
v -6.309564 0.218309 -59.043182
v -6.334648 0.297295 -59.116344
v -6.744514 2.572921 -59.330166
v -6.334648 2.572921 -59.116344
v -6.863805 2.870318 -59.299816
v -6.291286 2.870318 -59.001160
v -6.309564 -0.400690 -59.043182
v -6.818866 -0.400690 -59.308872
v -6.571940 0.297295 -59.670483
v -6.594107 0.218309 -59.739735
v -6.818872 0.218309 -59.308872
v -6.744514 0.297295 -59.330166
v -6.571940 2.572921 -59.670483
v -6.744514 2.572921 -59.330166
v -6.613244 2.870318 -59.782635
v -6.863805 2.870318 -59.299816
v -6.818866 -0.400690 -59.308872
v -6.594107 -0.400690 -59.739735
v -4.847787 0.297295 -59.283577
v -4.912441 0.218309 -59.316864
v -4.766706 0.218309 -58.853260
v -4.729179 0.297295 -58.920898
v -4.847787 2.572921 -59.283577
v -4.729179 2.572921 -58.920898
v -4.956307 2.870318 -59.333664
v -4.792071 2.870318 -58.815098
v -4.766706 -0.400690 -58.853260
v -4.912441 -0.400690 -59.316864
v -4.288196 0.297295 -59.059521
v -4.729179 0.297295 -58.920898
v -4.766706 0.218309 -58.853260
v -4.218722 0.218309 -59.025532
v -4.288196 2.572921 -59.059521
v -4.729179 2.572921 -58.920898
v -4.176074 2.870318 -59.008739
v -4.792071 2.870318 -58.815098
v -4.766706 -0.400690 -58.853260
v -4.218735 -0.400690 -59.025520
v -4.398447 0.297295 -59.424839
v -4.288196 0.297295 -59.059521
v -4.218722 0.218309 -59.025532
v -4.364469 0.218309 -59.489124
v -4.398447 2.572921 -59.424839
v -4.288196 2.572921 -59.059521
v -4.338115 2.870318 -59.528008
v -4.176074 2.870318 -59.008739
v -4.218735 -0.400690 -59.025520
v -4.364469 -0.400690 -59.489124
v -4.580233 4.020871 -59.456303
v -3.648041 4.020871 -59.230022
v -4.007184 3.391446 -59.632030
v -6.038665 2.870318 -59.482899
v -6.613244 2.870318 -59.782635
v -6.863805 2.870318 -59.299816
v -6.291286 2.870318 -59.001160
v -4.338115 2.870318 -59.528008
v -4.956307 2.870318 -59.333664
v -4.792071 2.870318 -58.815098
v -4.176074 2.870318 -59.008739
v -4.523183 4.020871 -58.966053
v -4.580233 4.020871 -59.456303
v -5.424003 4.020871 -59.546604
v -5.460598 4.020871 -59.045467
v -6.322697 4.020871 -59.592934
v -6.457189 4.020871 -59.119614
v -7.112513 4.020871 -60.055771
v -7.344902 4.020871 -59.610283
v -3.648041 4.020871 -59.230022
v -7.112513 4.020871 -60.055771
v -7.117709 3.398912 -60.045795
v -7.344902 3.398912 -59.610283
v -7.344902 4.020871 -59.610283
v -6.457189 2.870318 -59.119614
v -6.322697 2.870318 -59.592934
v -6.067822 2.870318 -59.582314
v -6.103588 2.870318 -59.092407
vt 0.210978 1.001076
vt 0.299173 0.999272
vt 0.262361 0.926148
vt 0.277667 0.934592
vt 0.299316 0.935374
vt 0.248301 0.913676
vt 0.238983 0.897393
vt 0.236153 0.879467
vt 0.210332 0.879306
vt 0.049124 0.909496
vt 0.117809 0.909496
vt 0.117809 0.873044
vt 0.049124 0.873044
vt 0.117809 0.842934
vt 0.049124 0.842934
vt 0.117809 0.809440
vt 0.049124 0.809440
vt 0.117809 0.775219
vt 0.049124 0.775219
vt 0.049124 0.775219
vt 0.117809 0.775219
vt 0.117809 0.743882
vt 0.049124 0.743882
vt 0.225991 0.999564
vt 0.168697 0.926148
vt 0.131885 0.999272
vt 0.153391 0.934592
vt 0.131742 0.935374
vt 0.182757 0.913676
vt 0.192074 0.897393
vt 0.194904 0.879467
vt 0.225976 0.879642
vt 0.049124 0.909496
vt 0.049124 0.873044
vt 0.117809 0.873044
vt 0.117809 0.909496
vt 0.117809 0.842934
vt 0.049124 0.842934
vt 0.117809 0.809440
vt 0.049124 0.809440
vt 0.117809 0.775219
vt 0.049124 0.775219
vt 0.049124 0.775219
vt 0.049124 0.743882
vt 0.117809 0.743882
vt 0.117809 0.775219
vt 0.204018 0.999515
vt 0.262361 0.926148
vt 0.299173 0.999272
vt 0.277667 0.934592
vt 0.299316 0.935374
vt 0.248301 0.913676
vt 0.238983 0.897393
vt 0.236153 0.879467
vt 0.203928 0.879283
vt 0.210978 1.001076
vt 0.262361 0.926148
vt 0.299173 0.999272
vt 0.277667 0.934592
vt 0.299316 0.935374
vt 0.248301 0.913676
vt 0.238983 0.897393
vt 0.236153 0.879467
vt 0.210332 0.879306
vt 0.225991 0.999564
vt 0.131885 0.999272
vt 0.168697 0.926148
vt 0.153391 0.934592
vt 0.131742 0.935374
vt 0.182757 0.913676
vt 0.192074 0.897393
vt 0.194904 0.879467
vt 0.225976 0.879642
vt 0.218772 0.879670
vt 0.218314 0.999410
vt 0.194904 0.879467
vt 0.192074 0.897393
vt 0.182757 0.913676
vt 0.168697 0.926148
vt 0.204018 0.999515
vt 0.299173 0.999272
vt 0.262361 0.926148
vt 0.277667 0.934592
vt 0.299316 0.935374
vt 0.248301 0.913676
vt 0.238983 0.897393
vt 0.236153 0.879467
vt 0.203928 0.879283
vt 0.049124 0.909496
vt 0.117809 0.909496
vt 0.117809 0.873044
vt 0.049124 0.873044
vt 0.117809 0.842934
vt 0.049124 0.842934
vt 0.117809 0.809440
vt 0.049124 0.809440
vt 0.117809 0.775219
vt 0.049124 0.775219
vt 0.049124 0.775219
vt 0.117809 0.775219
vt 0.117809 0.743882
vt 0.049124 0.743882
vt 0.218314 0.999410
vt 0.168697 0.926148
vt 0.131885 0.999272
vt 0.153391 0.934592
vt 0.131742 0.935374
vt 0.182757 0.913676
vt 0.192074 0.897393
vt 0.194904 0.879467
vt 0.218772 0.879670
vt 0.049124 0.873044
vt 0.049124 0.842934
vt 0.117809 0.842934
vt 0.117809 0.873044
vt 0.117809 0.809440
vt 0.049124 0.809440
vt 0.117809 0.775219
vt 0.049124 0.775219
vt 0.049124 0.775219
vt 0.049124 0.743882
vt 0.117809 0.743882
vt 0.117809 0.775219
vt 0.437104 0.511437
vt 0.514283 0.527367
vt 0.513096 0.511437
vt 0.437811 0.511437
vt 0.437810 0.588617
vt 0.472721 0.511437
vt 0.480884 0.566050
vt 0.514990 0.535227
vt 0.503624 0.511437
vt 0.197783 0.732058
vt 0.229999 0.732058
vt 0.234294 0.727536
vt 0.193489 0.727536
vt 0.197783 0.862346
vt 0.229999 0.862346
vt 0.191038 0.879372
vt 0.236744 0.879372
vt 0.234294 0.692096
vt 0.193489 0.692096
vt 0.197783 0.732058
vt 0.229999 0.732058
vt 0.234294 0.727536
vt 0.193489 0.727536
vt 0.197783 0.862346
vt 0.229999 0.862346
vt 0.191038 0.879372
vt 0.236744 0.879372
vt 0.234294 0.692096
vt 0.193489 0.692096
vt 0.197783 0.732058
vt 0.193489 0.727536
vt 0.234294 0.727536
vt 0.229999 0.732058
vt 0.197783 0.862346
vt 0.229999 0.862346
vt 0.191038 0.879372
vt 0.236744 0.879372
vt 0.234294 0.692096
vt 0.193489 0.692096
vt 0.197783 0.732058
vt 0.193489 0.727536
vt 0.234294 0.727536
vt 0.229999 0.732058
vt 0.197783 0.862346
vt 0.229999 0.862346
vt 0.191038 0.879372
vt 0.236744 0.879372
vt 0.234294 0.692096
vt 0.193489 0.692096
vt 0.197783 0.732058
vt 0.193489 0.727536
vt 0.234294 0.727536
vt 0.229999 0.732058
vt 0.197783 0.862346
vt 0.229999 0.862346
vt 0.191038 0.879372
vt 0.236744 0.879372
vt 0.234294 0.692096
vt 0.193489 0.692096
vt 0.197783 0.732058
vt 0.229999 0.732058
vt 0.234294 0.727536
vt 0.193489 0.727536
vt 0.197783 0.862346
vt 0.229999 0.862346
vt 0.191038 0.879372
vt 0.236744 0.879372
vt 0.234294 0.692096
vt 0.193489 0.692096
vt 0.197783 0.732058
vt 0.229999 0.732058
vt 0.234294 0.727536
vt 0.193489 0.727536
vt 0.197783 0.862346
vt 0.229999 0.862346
vt 0.191038 0.879372
vt 0.236744 0.879372
vt 0.234294 0.692096
vt 0.193489 0.692096
vt 0.437810 0.511437
vt 0.480884 0.566050
vt 0.503624 0.511437
vt 0.201653 0.722008
vt 0.228398 0.722008
vt 0.228398 0.698368
vt 0.201653 0.698368
vt 0.228398 0.698368
vt 0.201653 0.698368
vt 0.201653 0.722008
vt 0.228398 0.722008
vt 0.134392 0.859260
vt 0.171112 0.859260
vt 0.171112 0.801007
vt 0.134392 0.801007
vt 0.171112 0.739863
vt 0.134392 0.739863
vt 0.171112 0.682879
vt 0.134392 0.682879
vt 0.153696 0.911557
vt 0.171112 0.682879
vt 0.171112 0.721227
vt 0.134392 0.721227
vt 0.134392 0.682879
vt 0.091711 0.581822
vt 0.053448 0.581822
vt 0.053448 0.611450
vt 0.091711 0.611450
vn -0.084409 -0.006189 0.996412
vn -0.083539 -0.005724 0.996488
vn -0.083736 -0.005827 0.996471
vn -0.072831 0.000009 0.997344
vn -0.072807 0.000000 0.997346
vn -0.083059 -0.008013 0.996512
vn -0.091082 -0.005046 0.995831
vn -0.108530 -0.000279 0.994093
vn -0.109608 0.000000 0.993975
vn -0.033508 -0.999435 -0.002446
vn -0.033508 -0.999435 -0.002446
vn -0.229215 -0.973232 -0.016731
vn -0.229216 -0.973232 -0.016732
vn -0.557074 -0.829467 -0.040665
vn -0.557074 -0.829467 -0.040665
vn -0.759705 -0.647899 -0.055458
vn -0.759706 -0.647897 -0.055458
vn -0.932042 -0.355903 -0.068044
vn -0.932043 -0.355901 -0.068044
vn -0.932043 -0.355901 -0.068044
vn -0.932042 -0.355903 -0.068044
vn -0.981454 -0.177800 -0.071656
vn -0.981454 -0.177800 -0.071656
vn -0.074196 0.000743 0.997243
vn -0.074122 0.000704 0.997249
vn -0.074095 0.000690 0.997251
vn -0.072786 0.000007 0.997348
vn -0.072769 0.000000 0.997349
vn -0.074022 0.000980 0.997256
vn -0.074871 0.000581 0.997193
vn -0.076625 0.000032 0.997060
vn -0.076739 0.000000 0.997051
vn 0.033512 -0.999435 0.002447
vn 0.229230 -0.973228 0.016733
vn 0.229235 -0.973227 0.016733
vn 0.033512 -0.999435 0.002447
vn 0.557090 -0.829456 0.040668
vn 0.557090 -0.829456 0.040668
vn 0.759727 -0.647873 0.055462
vn 0.759728 -0.647872 0.055462
vn 0.932041 -0.355907 0.068039
vn 0.932040 -0.355909 0.068039
vn 0.932040 -0.355909 0.068039
vn 0.981446 -0.177849 0.071645
vn 0.981446 -0.177849 0.071645
vn 0.932041 -0.355907 0.068039
vn 0.505566 0.010381 -0.862726
vn 0.502378 0.008413 -0.864607
vn 0.502110 0.008129 -0.864765
vn 0.456656 -0.020147 -0.889415
vn 0.461856 -0.018082 -0.886770
vn 0.490956 0.025304 -0.870817
vn 0.514084 0.016251 -0.857586
vn 0.566127 0.000890 -0.824318
vn 0.569224 0.000000 -0.822182
vn 0.106421 0.002112 -0.994319
vn 0.103309 0.000449 -0.994649
vn 0.103416 0.000376 -0.994638
vn 0.066296 -0.020190 -0.997596
vn 0.072201 -0.018111 -0.997226
vn 0.090780 0.013826 -0.995775
vn 0.107603 0.009320 -0.994150
vn 0.154629 0.000500 -0.987972
vn 0.157447 -0.000004 -0.987527
vn 0.051480 -0.004468 -0.998664
vn 0.053375 -0.005598 -0.998559
vn 0.053544 -0.005566 -0.998550
vn 0.079312 -0.020184 -0.996646
vn 0.073437 -0.018111 -0.997135
vn 0.065040 0.006047 -0.997864
vn 0.058459 0.003922 -0.998282
vn 0.042613 0.000213 -0.999092
vn 0.041652 0.000000 -0.999132
vn -0.277113 -0.000004 -0.960837
vn -0.288946 -0.002252 -0.957343
vn -0.277937 -0.000136 -0.960599
vn -0.291385 -0.002389 -0.956603
vn -0.295578 -0.003437 -0.955312
vn -0.296792 -0.003904 -0.954934
vn -0.483722 -0.012805 0.875128
vn -0.482247 -0.011909 0.875954
vn -0.482635 -0.012144 0.875738
vn -0.462515 -0.000020 0.886611
vn -0.462483 0.000000 0.886628
vn -0.481138 -0.016870 0.876482
vn -0.493971 -0.010254 0.869418
vn -0.518530 -0.000597 0.855059
vn -0.520119 0.000000 0.854094
vn -0.029789 -0.999435 -0.015539
vn -0.029789 -0.999435 -0.015539
vn -0.203772 -0.973230 -0.106299
vn -0.203772 -0.973230 -0.106299
vn -0.495223 -0.829467 -0.258338
vn -0.495225 -0.829465 -0.258339
vn -0.675363 -0.647891 -0.352309
vn -0.675362 -0.647892 -0.352309
vn -0.828558 -0.355927 -0.432212
vn -0.828556 -0.355933 -0.432211
vn -0.828556 -0.355933 -0.432211
vn -0.828558 -0.355927 -0.432212
vn -0.872486 -0.177875 -0.455115
vn -0.872486 -0.177875 -0.455115
vn 0.288768 0.006180 0.957379
vn 0.289455 0.005801 0.957174
vn 0.289627 0.005703 0.957122
vn 0.299929 -0.000016 0.953962
vn 0.299858 0.000000 0.953984
vn 0.290056 0.007957 0.956977
vn 0.282075 0.005113 0.959379
vn 0.263237 0.000280 0.964731
vn 0.262079 0.000000 0.965047
vn 0.443059 -0.885607 -0.139276
vn 0.532881 -0.829444 -0.167515
vn 0.532880 -0.829445 -0.167514
vn 0.443059 -0.885607 -0.139276
vn 0.726693 -0.647867 -0.228442
vn 0.726691 -0.647870 -0.228441
vn 0.891510 -0.355905 -0.280252
vn 0.891511 -0.355904 -0.280252
vn 0.891511 -0.355904 -0.280252
vn 0.938766 -0.177845 -0.295108
vn 0.938766 -0.177845 -0.295108
vn 0.891510 -0.355905 -0.280252
vn -0.297663 -0.004451 -0.954661
vn -0.297663 -0.004451 -0.954661
vn -0.297663 -0.004451 -0.954661
vn 0.032053 -0.999435 -0.010077
vn 0.032053 -0.999435 -0.010077
vn 0.032053 -0.999435 -0.010077
vn 0.745745 0.000000 -0.666232
vn 0.745745 0.000000 -0.666232
vn 0.745745 0.000000 -0.666232
vn 0.462267 0.031308 -0.886188
vn 0.462267 0.031309 -0.886188
vn 0.461990 0.047349 -0.885620
vn 0.461990 0.047351 -0.885620
vn 0.462094 -0.041725 -0.885849
vn 0.462094 -0.041726 -0.885849
vn 0.446515 -0.260762 -0.855937
vn 0.446515 -0.260762 -0.855937
vn 0.462509 0.000000 -0.886615
vn 0.462509 0.000000 -0.886615
vn 0.880890 0.033756 0.472116
vn 0.880892 0.033653 0.472119
vn 0.885387 0.048979 0.462267
vn 0.885375 0.049245 0.462263
vn 0.880666 -0.047120 0.471389
vn 0.880667 -0.047073 0.471391
vn 0.845843 -0.289994 0.447719
vn 0.845843 -0.289994 0.447719
vn 0.886619 0.000000 0.462500
vn 0.886619 0.000000 0.462500
vn -0.462269 0.033379 0.886112
vn -0.461988 0.047665 0.885604
vn -0.461988 0.047663 0.885605
vn -0.462269 0.033380 0.886111
vn -0.462093 -0.043130 0.885782
vn -0.462094 -0.043129 0.885782
vn -0.445841 -0.266032 0.854665
vn -0.445841 -0.266032 0.854665
vn -0.462513 -0.000003 0.886612
vn -0.462513 -0.000003 0.886612
vn -0.891225 0.033757 -0.452303
vn -0.885708 0.049235 -0.461624
vn -0.885719 0.048971 -0.461632
vn -0.891229 0.033653 -0.452304
vn -0.890500 -0.047121 -0.452537
vn -0.890502 -0.047074 -0.452537
vn -0.851160 -0.289987 -0.437533
vn -0.851160 -0.289987 -0.437533
vn -0.886614 -0.000004 -0.462509
vn -0.886614 -0.000004 -0.462509
vn -0.950022 0.033761 0.310352
vn -0.952708 0.049250 0.299869
vn -0.952721 0.048984 0.299871
vn -0.950025 0.033657 0.310354
vn -0.949674 -0.047122 0.309674
vn -0.949676 -0.047075 0.309675
vn -0.911240 -0.290004 0.292470
vn -0.911240 -0.290004 0.292470
vn -0.953976 0.000000 0.299884
vn -0.953976 0.000000 0.299884
vn 0.299723 0.033378 0.953442
vn 0.299722 0.033378 0.953442
vn 0.299553 0.047664 0.952888
vn 0.299553 0.047665 0.952888
vn 0.299609 -0.043128 0.953087
vn 0.299609 -0.043128 0.953087
vn 0.289074 -0.266016 0.919604
vn 0.289074 -0.266016 0.919604
vn 0.299894 0.000004 0.953973
vn 0.299894 0.000004 0.953973
vn 0.956714 0.033759 -0.289064
vn 0.956718 0.033655 -0.289064
vn 0.952936 0.048973 -0.299191
vn 0.952924 0.049238 -0.299186
vn 0.956041 -0.047121 -0.289423
vn 0.956043 -0.047074 -0.289423
vn 0.914675 -0.289996 -0.281551
vn 0.914675 -0.289996 -0.281551
vn 0.953972 -0.000012 -0.299897
vn 0.953972 -0.000012 -0.299896
vn 0.212162 0.437162 -0.874000
vn 0.212162 0.437162 -0.874000
vn 0.212162 0.437162 -0.874000
vn 0.000000 1.000000 0.000000
vn 0.000000 1.000000 0.000000
vn 0.000000 1.000000 0.000000
vn 0.000000 1.000000 0.000000
vn 0.000000 1.000000 0.000000
vn 0.000000 1.000000 0.000000
vn 0.000000 1.000000 0.000000
vn 0.000000 1.000000 0.000000
vn 0.000000 1.000000 0.000001
vn 0.000000 1.000000 0.000001
vn 0.000000 1.000000 0.000001
vn 0.000000 1.000000 0.000001
vn 0.000000 1.000000 0.000000
vn 0.000000 1.000000 0.000000
vn 0.000000 1.000000 0.000000
vn 0.000000 1.000000 0.000000
vn 0.000000 1.000000 0.000000
vn -0.886613 -0.000005 -0.462512
vn -0.886613 -0.000005 -0.462512
vn -0.886613 -0.000005 -0.462512
vn -0.886613 -0.000005 -0.462512
vn 0.000000 -1.000000 0.000000
vn 0.000000 -1.000000 0.000000
vn 0.000000 -1.000000 0.000000
vn 0.000000 -1.000000 0.000000
usemtl material
f 1/0/1 2/0/2 3/0/3
f 3/0/3 2/0/2 4/0/4
f 4/0/4 2/0/2 5/0/5
f 6/0/6 1/0/1 3/0/3
f 7/0/7 1/0/1 6/0/6
f 8/0/8 1/0/1 7/0/7
f 9/0/9 1/0/1 8/0/8
f 10/0/10 11/0/11 12/0/12
f 10/0/10 12/0/12 13/0/13
f 13/0/13 12/0/12 14/0/14
f 13/0/13 14/0/14 15/0/15
f 15/0/15 14/0/14 16/0/16
f 15/0/15 16/0/16 17/0/17
f 17/0/17 16/0/16 18/0/18
f 17/0/17 18/0/18 19/0/19
f 20/0/20 21/0/21 22/0/22
f 20/0/20 22/0/22 23/0/23
f 24/0/24 25/0/25 26/0/26
f 25/0/25 27/0/27 26/0/26
f 27/0/27 28/0/28 26/0/26
f 29/0/29 25/0/25 24/0/24
f 30/0/30 29/0/29 24/0/24
f 31/0/31 30/0/30 24/0/24
f 32/0/32 31/0/31 24/0/24
f 33/0/33 34/0/34 35/0/35
f 33/0/33 35/0/35 36/0/36
f 34/0/34 37/0/37 35/0/35
f 34/0/34 38/0/38 37/0/37
f 38/0/38 39/0/39 37/0/37
f 38/0/38 40/0/40 39/0/39
f 40/0/40 41/0/41 39/0/39
f 40/0/40 42/0/42 41/0/41
f 43/0/43 44/0/44 45/0/45
f 43/0/43 45/0/45 46/0/46
f 47/0/47 48/0/48 49/0/49
f 48/0/48 50/0/50 49/0/49
f 50/0/50 51/0/51 49/0/49
f 52/0/52 48/0/48 47/0/47
f 53/0/53 52/0/52 47/0/47
f 54/0/54 53/0/53 47/0/47
f 55/0/55 54/0/54 47/0/47
f 56/0/56 57/0/57 58/0/58
f 57/0/57 59/0/59 58/0/58
f 59/0/59 60/0/60 58/0/58
f 61/0/61 57/0/57 56/0/56
f 62/0/62 61/0/61 56/0/56
f 63/0/63 62/0/62 56/0/56
f 64/0/64 63/0/63 56/0/56
f 65/0/65 66/0/66 67/0/67
f 67/0/67 66/0/66 68/0/68
f 68/0/68 66/0/66 69/0/69
f 70/0/70 65/0/65 67/0/67
f 71/0/71 65/0/65 70/0/70
f 72/0/72 65/0/65 71/0/71
f 73/0/73 65/0/65 72/0/72
f 74/0/74 75/0/75 76/0/76
f 76/0/76 75/0/75 77/0/77
f 77/0/77 75/0/75 78/0/78
f 78/0/78 75/0/75 79/0/79
f 80/0/80 81/0/81 82/0/82
f 82/0/82 81/0/81 83/0/83
f 83/0/83 81/0/81 84/0/84
f 85/0/85 80/0/80 82/0/82
f 86/0/86 80/0/80 85/0/85
f 87/0/87 80/0/80 86/0/86
f 88/0/88 80/0/80 87/0/87
f 89/0/89 90/0/90 91/0/91
f 89/0/89 91/0/91 92/0/92
f 92/0/92 91/0/91 93/0/93
f 92/0/92 93/0/93 94/0/94
f 94/0/94 93/0/93 95/0/95
f 94/0/94 95/0/95 96/0/96
f 96/0/96 95/0/95 97/0/97
f 96/0/96 97/0/97 98/0/98
f 99/0/99 100/0/100 101/0/101
f 99/0/99 101/0/101 102/0/102
f 103/0/103 104/0/104 105/0/105
f 104/0/104 106/0/106 105/0/105
f 106/0/106 107/0/107 105/0/105
f 108/0/108 104/0/104 103/0/103
f 109/0/109 108/0/108 103/0/103
f 110/0/110 109/0/109 103/0/103
f 111/0/111 110/0/110 103/0/103
f 112/0/112 113/0/113 114/0/114
f 112/0/112 114/0/114 115/0/115
f 113/0/113 116/0/116 114/0/114
f 113/0/113 117/0/117 116/0/116
f 117/0/117 118/0/118 116/0/116
f 117/0/117 119/0/119 118/0/118
f 120/0/120 121/0/121 122/0/122
f 120/0/120 122/0/122 123/0/123
f 124/0/124 125/0/125 126/0/126
f 127/0/127 128/0/128 129/0/129
f 130/0/130 131/0/131 132/0/132
f 133/0/133 134/0/134 135/0/135
f 133/0/133 135/0/135 136/0/136
f 137/0/137 134/0/134 133/0/133
f 137/0/137 138/0/138 134/0/134
f 139/0/139 138/0/138 137/0/137
f 139/0/139 140/0/140 138/0/138
f 136/0/136 135/0/135 141/0/141
f 136/0/136 141/0/141 142/0/142
f 143/0/143 144/0/144 145/0/145
f 143/0/143 145/0/145 146/0/146
f 147/0/147 144/0/144 143/0/143
f 147/0/147 148/0/148 144/0/144
f 149/0/149 148/0/148 147/0/147
f 149/0/149 150/0/150 148/0/148
f 146/0/146 145/0/145 151/0/151
f 146/0/146 151/0/151 152/0/152
f 153/0/153 154/0/154 155/0/155
f 153/0/153 155/0/155 156/0/156
f 157/0/157 153/0/153 156/0/156
f 157/0/157 156/0/156 158/0/158
f 159/0/159 157/0/157 158/0/158
f 159/0/159 158/0/158 160/0/160
f 154/0/154 161/0/161 155/0/155
f 154/0/154 162/0/162 161/0/161
f 163/0/163 164/0/164 165/0/165
f 163/0/163 165/0/165 166/0/166
f 167/0/167 163/0/163 166/0/166
f 167/0/167 166/0/166 168/0/168
f 169/0/169 167/0/167 168/0/168
f 169/0/169 168/0/168 170/0/170
f 164/0/164 171/0/171 165/0/165
f 164/0/164 172/0/172 171/0/171
f 173/0/173 174/0/174 175/0/175
f 173/0/173 175/0/175 176/0/176
f 177/0/177 173/0/173 176/0/176
f 177/0/177 176/0/176 178/0/178
f 179/0/179 177/0/177 178/0/178
f 179/0/179 178/0/178 180/0/180
f 174/0/174 181/0/181 175/0/175
f 174/0/174 182/0/182 181/0/181
f 183/0/183 184/0/184 185/0/185
f 183/0/183 185/0/185 186/0/186
f 187/0/187 184/0/184 183/0/183
f 187/0/187 188/0/188 184/0/184
f 189/0/189 188/0/188 187/0/187
f 189/0/189 190/0/190 188/0/188
f 186/0/186 185/0/185 191/0/191
f 186/0/186 191/0/191 192/0/192
f 193/0/193 194/0/194 195/0/195
f 193/0/193 195/0/195 196/0/196
f 197/0/197 194/0/194 193/0/193
f 197/0/197 198/0/198 194/0/194
f 199/0/199 198/0/198 197/0/197
f 199/0/199 200/0/200 198/0/198
f 196/0/196 195/0/195 201/0/201
f 196/0/196 201/0/201 202/0/202
f 203/0/203 204/0/204 205/0/205
f 206/0/206 207/0/207 208/0/208
f 206/0/206 208/0/208 209/0/209
f 210/0/210 211/0/211 212/0/212
f 210/0/210 212/0/212 213/0/213
f 214/0/214 215/0/215 216/0/216
f 214/0/214 216/0/216 217/0/217
f 217/0/217 216/0/216 218/0/218
f 217/0/217 218/0/218 219/0/219
f 219/0/219 218/0/218 220/0/220
f 219/0/219 220/0/220 221/0/221
f 222/0/222 215/0/215 214/0/214
f 223/0/223 224/0/224 225/0/225
f 223/0/223 225/0/225 226/0/226
f 227/0/227 228/0/228 229/0/229
f 227/0/227 229/0/229 230/0/230
