# 
# Wavefront OBJ file
# Created with Kaydara FBX
# 
mtllib polysurface693.mtl

g polySurface693
v 46.375984 4.558457 -19.164158
v 46.375984 4.492587 -19.164158
v 45.664387 4.492587 -19.298168
v 45.664387 4.558457 -19.298168
v 45.844170 4.272711 -19.264313
v 45.664387 4.272711 -19.298168
v 45.521397 4.439499 -19.325100
v 45.484676 4.272711 -19.332008
v 45.507866 4.165476 -19.327646
v 45.664387 4.137949 -19.298168
v 45.569702 4.092120 -19.316000
v 45.664387 4.072458 -19.298168
v 46.199192 4.272711 -19.197451
v 46.222412 4.203476 -19.193083
v 46.375984 4.272711 -19.164160
v 46.506886 4.447364 -19.139503
v 46.568718 4.272711 -19.127861
v 46.545536 4.167442 -19.132229
v 46.375984 4.137949 -19.164160
v 46.474041 4.096053 -19.145693
v 46.375984 4.072458 -19.164158
v 46.244373 4.137949 -19.188942
v 45.798985 4.137949 -19.272820
v 45.820450 4.201968 -19.268782
v 46.290302 4.558457 -18.709133
v 45.578701 4.558457 -18.843142
v 45.578701 4.492587 -18.843142
v 46.290302 4.492587 -18.709133
v 46.421200 4.447364 -18.684479
v 46.290302 4.492587 -18.709133
v 46.290291 4.272711 -18.709131
v 46.483025 4.272711 -18.672834
v 46.290291 4.272711 -18.709131
v 46.290291 4.137949 -18.709131
v 46.459843 4.167442 -18.677198
v 46.483025 4.272711 -18.672834
v 46.388348 4.096053 -18.690664
v 46.290302 4.072458 -18.709133
v 46.158691 4.137949 -18.733917
v 46.136719 4.203476 -18.738054
v 46.113506 4.272711 -18.742426
v 45.758476 4.272711 -18.809286
v 45.734756 4.201968 -18.813751
v 46.290302 4.492587 -18.709133
v 45.578701 4.272711 -18.843142
v 45.578701 4.492587 -18.843142
v 45.435703 4.439499 -18.870070
v 45.398987 4.272711 -18.876982
v 45.422176 4.165476 -18.872620
v 45.578701 4.137949 -18.843142
v 45.484013 4.092120 -18.860973
v 45.578701 4.072458 -18.843142
v 45.713291 4.137949 -18.817793
v 46.290302 4.558457 -18.709133
v 46.290302 4.492587 -18.709133
v 46.375984 4.492587 -19.164158
v 46.375984 4.558457 -19.164158
v 45.578701 4.492587 -18.843142
v 45.578701 4.558457 -18.843142
v 45.664387 4.558457 -19.298168
v 45.664387 4.492587 -19.298168
v 45.578701 4.558457 -18.843142
v 46.290302 4.558457 -18.709133
v 46.375984 4.558457 -19.164158
v 45.664387 4.558457 -19.298168
v 46.421200 4.447364 -18.684479
v 46.483025 4.272711 -18.672834
v 46.568718 4.272711 -19.127861
v 46.506886 4.447364 -19.139503
v 46.290302 4.492587 -18.709133
v 46.421200 4.447364 -18.684479
v 46.506886 4.447364 -19.139503
v 46.375984 4.492587 -19.164158
v 46.483025 4.272711 -18.672834
v 46.459843 4.167442 -18.677198
v 46.545536 4.167442 -19.132229
v 46.568718 4.272711 -19.127861
v 46.459843 4.167442 -18.677198
v 46.388348 4.096053 -18.690664
v 46.474041 4.096053 -19.145693
v 46.545536 4.167442 -19.132229
v 46.388348 4.096053 -18.690664
v 46.290302 4.072458 -18.709133
v 46.375984 4.072458 -19.164158
v 46.474041 4.096053 -19.145693
v 45.578701 4.072458 -18.843142
v 45.484013 4.092120 -18.860973
v 45.569702 4.092120 -19.316000
v 45.664387 4.072458 -19.298168
v 45.484013 4.092120 -18.860973
v 45.422176 4.165476 -18.872620
v 45.507866 4.165476 -19.327646
v 45.569702 4.092120 -19.316000
v 45.422176 4.165476 -18.872620
v 45.398987 4.272711 -18.876982
v 45.484676 4.272711 -19.332008
v 45.507866 4.165476 -19.327646
v 45.435703 4.439499 -18.870070
v 45.578701 4.492587 -18.843142
v 45.664387 4.492587 -19.298168
v 45.521397 4.439499 -19.325100
v 45.398987 4.272711 -18.876982
v 45.435703 4.439499 -18.870070
v 45.521397 4.439499 -19.325100
v 45.484676 4.272711 -19.332008
v 46.290302 4.072458 -18.709133
v 46.158691 4.137949 -18.733917
v 46.244373 4.137949 -19.188942
v 46.375984 4.072458 -19.164158
v 46.158691 4.137949 -18.733917
v 46.136719 4.203476 -18.738054
v 46.222412 4.203476 -19.193083
v 46.244373 4.137949 -19.188942
v 46.136719 4.203476 -18.738054
v 45.734756 4.201968 -18.813751
v 45.820450 4.201968 -19.268782
v 46.222412 4.203476 -19.193083
v 45.713291 4.137949 -18.817793
v 45.578701 4.072458 -18.843142
v 45.664387 4.072458 -19.298168
v 45.798985 4.137949 -19.272820
v 45.734756 4.201968 -18.813751
v 45.713291 4.137949 -18.817793
v 45.798985 4.137949 -19.272820
v 45.820450 4.201968 -19.268782
v 45.815418 0.019513 -18.823084
v 45.815418 4.197764 -18.823084
v 45.745655 4.197764 -18.925219
v 45.745655 0.019513 -18.925219
v 45.736309 4.197764 -19.048552
v 45.736309 0.019513 -19.048552
v 45.736309 0.019513 -19.048552
v 45.736309 4.197764 -19.048552
v 45.789875 4.197764 -19.160034
v 45.789875 0.019513 -19.160034
v 45.892010 4.197764 -19.229794
v 45.892010 0.019513 -19.229794
v 46.015339 4.197764 -19.239145
v 46.015339 0.019513 -19.239145
v 46.015339 0.019513 -19.239145
v 46.015339 4.197764 -19.239145
v 46.126823 4.197764 -19.185577
v 46.126823 0.019513 -19.185577
v 46.126823 0.019513 -19.185577
v 46.126823 4.197764 -19.185577
v 46.196590 4.197764 -19.083445
v 46.196590 0.019513 -19.083445
v 46.205936 4.197764 -18.960110
v 46.205936 0.019513 -18.960110
v 46.205936 0.019513 -18.960110
v 46.205936 4.197764 -18.960110
v 46.152370 4.197764 -18.848629
v 46.152370 0.019513 -18.848629
v 46.050232 4.197764 -18.778862
v 46.050232 0.019513 -18.778862
v 46.050232 0.019513 -18.778862
v 46.050232 4.197764 -18.778862
v 45.926903 4.197764 -18.769516
v 45.926903 0.019513 -18.769516
v 45.815418 4.197764 -18.823084
v 45.815418 0.019513 -18.823084
vt 0.309986 0.916865
vt 0.314493 0.916865
vt 0.314493 0.982608
vt 0.309986 0.982608
vt 0.334519 0.965999
vt 0.334520 0.982618
vt 0.320234 0.994738
vt 0.334617 0.999376
vt 0.344682 0.996237
vt 0.346870 0.982576
vt 0.349639 0.990842
vt 0.351313 0.982465
vt 0.334515 0.933179
vt 0.340874 0.931047
vt 0.334514 0.916836
vt 0.319632 0.905309
vt 0.334595 0.898857
vt 0.344532 0.901972
vt 0.346896 0.916879
vt 0.349518 0.908190
vt 0.351412 0.917003
vt 0.346892 0.929029
vt 0.346875 0.970150
vt 0.341005 0.968178
vt 0.309986 0.916865
vt 0.309986 0.982608
vt 0.314493 0.982608
vt 0.314493 0.916865
vt 0.319632 0.905309
vt 0.314493 0.916865
vt 0.334514 0.916836
vt 0.334595 0.898857
vt 0.334514 0.916836
vt 0.346896 0.916879
vt 0.344532 0.901972
vt 0.334595 0.898857
vt 0.349518 0.908190
vt 0.351412 0.917003
vt 0.346892 0.929029
vt 0.340874 0.931047
vt 0.334515 0.933179
vt 0.334519 0.965999
vt 0.341005 0.968178
vt 0.314493 0.916865
vt 0.334520 0.982618
vt 0.314493 0.982608
vt 0.320234 0.994738
vt 0.334617 0.999376
vt 0.344682 0.996237
vt 0.346870 0.982576
vt 0.349639 0.990842
vt 0.351313 0.982465
vt 0.346875 0.970150
vt 0.314493 0.916865
vt 0.309986 0.916865
vt 0.309986 0.982608
vt 0.314493 0.982608
vt 0.314493 0.916865
vt 0.309986 0.916865
vt 0.309986 0.982608
vt 0.314493 0.982608
vt 0.029125 0.822952
vt 0.029125 0.874103
vt 0.123294 0.874103
vt 0.123294 0.822952
vt 0.016585 0.874753
vt 0.026742 0.874753
vt 0.026742 0.823466
vt 0.016585 0.823466
vt 0.008888 0.874753
vt 0.016585 0.874753
vt 0.016585 0.823466
vt 0.008888 0.823466
vt 0.026742 0.874753
vt 0.032645 0.874753
vt 0.032645 0.823466
vt 0.026742 0.823466
vt 0.032645 0.874753
vt 0.038222 0.874753
vt 0.038222 0.823466
vt 0.032645 0.823466
vt 0.038222 0.874753
vt 0.043832 0.874753
vt 0.043832 0.823466
vt 0.038222 0.823466
vt 0.090165 0.874752
vt 0.095546 0.874753
vt 0.095546 0.823465
vt 0.090165 0.823465
vt 0.095546 0.874753
vt 0.100834 0.874753
vt 0.100833 0.823466
vt 0.095546 0.823465
vt 0.100834 0.874753
vt 0.106842 0.874753
vt 0.106842 0.823465
vt 0.100833 0.823466
vt 0.116194 0.874753
vt 0.124668 0.874752
vt 0.124669 0.823465
vt 0.116194 0.823465
vt 0.106842 0.874753
vt 0.116194 0.874753
vt 0.116194 0.823465
vt 0.106842 0.823465
vt 0.043832 0.874753
vt 0.051989 0.874753
vt 0.051989 0.823466
vt 0.043832 0.823466
vt 0.051989 0.874753
vt 0.055778 0.874753
vt 0.055777 0.823466
vt 0.051989 0.823466
vt 0.055778 0.874753
vt 0.078158 0.874753
vt 0.078158 0.823466
vt 0.055777 0.823466
vt 0.081859 0.874753
vt 0.090165 0.874752
vt 0.090165 0.823465
vt 0.081859 0.823466
vt 0.078158 0.874753
vt 0.081859 0.874753
vt 0.081859 0.823466
vt 0.078158 0.823466
vt 0.734937 0.927047
vt 0.346145 0.927047
vt 0.346145 0.934590
vt 0.734937 0.934591
vt 0.346145 0.942134
vt 0.734937 0.942134
vt 0.734937 0.942134
vt 0.346145 0.942134
vt 0.346145 0.949677
vt 0.734937 0.949677
vt 0.346145 0.957221
vt 0.734937 0.957221
vt 0.346145 0.964764
vt 0.734937 0.964764
vt 0.734937 0.964764
vt 0.346145 0.964764
vt 0.346145 0.972307
vt 0.734937 0.972307
vt 0.734937 0.927000
vt 0.346145 0.927000
vt 0.346145 0.934543
vt 0.734937 0.934543
vt 0.346145 0.942086
vt 0.734937 0.942086
vt 0.734937 0.942086
vt 0.346145 0.942086
vt 0.346145 0.949630
vt 0.734937 0.949630
vt 0.346145 0.957173
vt 0.734937 0.957173
vt 0.734937 0.957173
vt 0.346145 0.957173
vt 0.346145 0.964716
vt 0.734937 0.964716
vt 0.346145 0.972260
vt 0.734937 0.972260
vn 0.185071 0.000000 -0.982725
vn 0.185070 0.000005 -0.982725
vn 0.185070 0.000002 -0.982725
vn 0.185071 0.000000 -0.982725
vn 0.185068 0.000008 -0.982726
vn 0.185068 0.000003 -0.982726
vn 0.185077 -0.000016 -0.982724
vn 0.185070 0.000000 -0.982725
vn 0.185059 0.000020 -0.982727
vn 0.185063 0.000005 -0.982727
vn 0.185058 -0.000006 -0.982728
vn 0.185066 -0.000004 -0.982726
vn 0.185069 0.000008 -0.982726
vn 0.185070 0.000005 -0.982725
vn 0.185071 0.000007 -0.982725
vn 0.185081 0.000017 -0.982723
vn 0.185079 0.000013 -0.982724
vn 0.185077 0.000005 -0.982724
vn 0.185071 -0.000001 -0.982725
vn 0.185070 -0.000023 -0.982725
vn 0.185064 -0.000023 -0.982726
vn 0.185069 0.000003 -0.982726
vn 0.185064 -0.000004 -0.982726
vn 0.185073 0.000043 -0.982725
vn -0.185067 0.000000 0.982726
vn -0.185067 0.000000 0.982726
vn -0.185067 0.000003 0.982726
vn -0.185069 0.000004 0.982726
vn -0.185076 0.000015 0.982724
vn -0.185069 0.000004 0.982726
vn -0.185071 0.000005 0.982725
vn -0.185073 0.000011 0.982725
vn -0.185071 0.000005 0.982725
vn -0.185078 -0.000008 0.982724
vn -0.185069 0.000002 0.982725
vn -0.185073 0.000011 0.982725
vn -0.185076 -0.000020 0.982724
vn -0.185078 -0.000029 0.982724
vn -0.185087 -0.000007 0.982722
vn -0.185087 -0.000005 0.982722
vn -0.185069 0.000004 0.982726
vn -0.185068 0.000005 0.982726
vn -0.185066 0.000014 0.982726
vn -0.185069 0.000004 0.982726
vn -0.185068 0.000003 0.982726
vn -0.185067 0.000003 0.982726
vn -0.185059 0.000002 0.982727
vn -0.185063 -0.000005 0.982727
vn -0.185069 -0.000013 0.982726
vn -0.185074 0.000001 0.982725
vn -0.185070 0.000000 0.982725
vn -0.185077 0.000000 0.982724
vn -0.185078 0.000013 0.982724
vn 0.982729 0.000000 0.185053
vn 0.982729 0.000000 0.185053
vn 0.982729 0.000000 0.185053
vn 0.982729 0.000000 0.185053
vn -0.982727 0.000000 -0.185063
vn -0.982727 0.000000 -0.185063
vn -0.982727 0.000000 -0.185063
vn -0.982727 0.000000 -0.185063
vn 0.000000 1.000000 0.000000
vn 0.000000 1.000000 0.000000
vn 0.000000 1.000000 0.000000
vn 0.000000 1.000000 0.000000
vn 0.924564 0.338921 0.174110
vn 0.924564 0.338921 0.174110
vn 0.924564 0.338921 0.174110
vn 0.924564 0.338921 0.174110
vn 0.315938 0.946913 0.059492
vn 0.315938 0.946913 0.059492
vn 0.315938 0.946913 0.059492
vn 0.315938 0.946913 0.059492
vn 0.958936 -0.218695 0.180592
vn 0.958936 -0.218695 0.180592
vn 0.958936 -0.218695 0.180592
vn 0.958936 -0.218695 0.180592
vn 0.688297 -0.713754 0.129624
vn 0.688297 -0.713754 0.129624
vn 0.688297 -0.713754 0.129624
vn 0.688297 -0.713754 0.129624
vn 0.226155 -0.973160 0.042589
vn 0.226155 -0.973160 0.042589
vn 0.226155 -0.973160 0.042589
vn 0.226155 -0.973160 0.042589
vn -0.196490 -0.979807 -0.037002
vn -0.196490 -0.979807 -0.037002
vn -0.196490 -0.979807 -0.037002
vn -0.196490 -0.979807 -0.037002
vn -0.745906 -0.651071 -0.140466
vn -0.745906 -0.651071 -0.140466
vn -0.745906 -0.651071 -0.140466
vn -0.745906 -0.651071 -0.140466
vn -0.959780 -0.214835 -0.180742
vn -0.959780 -0.214835 -0.180742
vn -0.959780 -0.214835 -0.180742
vn -0.959780 -0.214835 -0.180742
vn -0.336829 0.939427 -0.063432
vn -0.336829 0.939427 -0.063432
vn -0.336829 0.939427 -0.063432
vn -0.336829 0.939427 -0.063432
vn -0.958966 0.218563 -0.180592
vn -0.958966 0.218563 -0.180592
vn -0.958966 0.218563 -0.180592
vn -0.958966 0.218563 -0.180592
vn -0.431707 -0.898343 -0.081293
vn -0.431707 -0.898343 -0.081293
vn -0.431707 -0.898343 -0.081293
vn -0.431707 -0.898343 -0.081293
vn -0.930102 -0.322849 -0.175152
vn -0.930102 -0.322849 -0.175152
vn -0.930102 -0.322849 -0.175152
vn -0.930102 -0.322849 -0.175152
vn 0.003623 -0.999993 0.000682
vn 0.003623 -0.999993 0.000682
vn 0.003623 -0.999993 0.000682
vn 0.003623 -0.999993 0.000682
vn 0.423933 -0.902168 0.079836
vn 0.423933 -0.902168 0.079836
vn 0.423933 -0.902168 0.079836
vn 0.423933 -0.902168 0.079836
vn 0.930099 -0.322855 0.175161
vn 0.930099 -0.322855 0.175161
vn 0.930099 -0.322855 0.175161
vn 0.930099 -0.322855 0.175161
vn -0.651627 0.000000 0.758540
vn -0.651627 0.000000 0.758540
vn -0.943600 0.000000 0.331087
vn -0.943600 0.000000 0.331087
vn -0.982723 0.000000 -0.185081
vn -0.982723 0.000000 -0.185081
vn -0.982723 0.000000 -0.185081
vn -0.982723 0.000000 -0.185081
vn -0.758529 0.000000 -0.651639
vn -0.758529 0.000000 -0.651639
vn -0.331095 0.000000 -0.943597
vn -0.331095 0.000000 -0.943597
vn 0.185054 0.000000 -0.982728
vn 0.185054 0.000000 -0.982728
vn 0.185054 0.000000 -0.982728
vn 0.185054 0.000000 -0.982728
vn 0.651620 0.000000 -0.758546
vn 0.651620 0.000000 -0.758546
vn 0.651620 0.000000 -0.758546
vn 0.651620 0.000000 -0.758546
vn 0.943600 0.000000 -0.331087
vn 0.943600 0.000000 -0.331087
vn 0.982727 0.000000 0.185060
vn 0.982727 0.000000 0.185060
vn 0.982727 0.000000 0.185060
vn 0.982727 0.000000 0.185060
vn 0.758537 0.000000 0.651630
vn 0.758537 0.000000 0.651630
vn 0.331094 0.000000 0.943598
vn 0.331094 0.000000 0.943598
vn 0.331094 0.000000 0.943598
vn 0.331094 0.000000 0.943598
vn -0.185072 0.000000 0.982725
vn -0.185072 0.000000 0.982725
vn -0.651627 0.000000 0.758540
vn -0.651627 0.000000 0.758540
usemtl material
f 1/0/1 2/0/2 3/0/3
f 1/0/1 3/0/3 4/0/4
f 3/0/3 2/0/2 5/0/5
f 5/0/5 6/0/6 3/0/3
f 7/0/7 3/0/3 6/0/6
f 7/0/7 6/0/6 8/0/8
f 6/0/6 9/0/9 8/0/8
f 6/0/6 10/0/10 9/0/9
f 10/0/10 11/0/11 9/0/9
f 10/0/10 12/0/12 11/0/11
f 2/0/2 13/0/13 5/0/5
f 14/0/14 5/0/5 13/0/13
f 14/0/14 13/0/13 15/0/15
f 2/0/2 15/0/15 13/0/13
f 16/0/16 15/0/15 2/0/2
f 16/0/16 17/0/17 15/0/15
f 15/0/15 17/0/17 18/0/18
f 15/0/15 18/0/18 19/0/19
f 19/0/19 18/0/18 20/0/20
f 19/0/19 20/0/20 21/0/21
f 21/0/21 22/0/22 19/0/19
f 15/0/15 22/0/22 14/0/14
f 15/0/15 19/0/19 22/0/22
f 23/0/23 12/0/12 10/0/10
f 23/0/23 10/0/10 6/0/6
f 6/0/6 24/0/24 23/0/23
f 14/0/14 24/0/24 5/0/5
f 6/0/6 5/0/5 24/0/24
f 25/0/25 26/0/26 27/0/27
f 25/0/25 27/0/27 28/0/28
f 29/0/29 30/0/30 31/0/31
f 29/0/29 31/0/31 32/0/32
f 33/0/33 34/0/34 35/0/35
f 33/0/33 35/0/35 36/0/36
f 34/0/34 37/0/37 35/0/35
f 34/0/34 38/0/38 37/0/37
f 38/0/38 34/0/34 39/0/39
f 39/0/39 34/0/34 33/0/33
f 40/0/40 39/0/39 33/0/33
f 33/0/33 41/0/41 40/0/40
f 40/0/40 41/0/41 42/0/42
f 40/0/40 42/0/42 43/0/43
f 42/0/42 41/0/41 44/0/44
f 41/0/41 33/0/33 44/0/44
f 45/0/45 42/0/42 44/0/44
f 44/0/44 46/0/46 45/0/45
f 47/0/47 45/0/45 46/0/46
f 47/0/47 48/0/48 45/0/45
f 45/0/45 48/0/48 49/0/49
f 45/0/45 49/0/49 50/0/50
f 42/0/42 45/0/45 50/0/50
f 50/0/50 43/0/43 42/0/42
f 50/0/50 49/0/49 51/0/51
f 50/0/50 51/0/51 52/0/52
f 53/0/53 50/0/50 52/0/52
f 50/0/50 53/0/53 43/0/43
f 54/0/54 55/0/55 56/0/56
f 54/0/54 56/0/56 57/0/57
f 58/0/58 59/0/59 60/0/60
f 58/0/58 60/0/60 61/0/61
f 62/0/62 63/0/63 64/0/64
f 62/0/62 64/0/64 65/0/65
f 66/0/66 67/0/67 68/0/68
f 66/0/66 68/0/68 69/0/69
f 70/0/70 71/0/71 72/0/72
f 70/0/70 72/0/72 73/0/73
f 74/0/74 75/0/75 76/0/76
f 74/0/74 76/0/76 77/0/77
f 78/0/78 79/0/79 80/0/80
f 78/0/78 80/0/80 81/0/81
f 82/0/82 83/0/83 84/0/84
f 82/0/82 84/0/84 85/0/85
f 86/0/86 87/0/87 88/0/88
f 86/0/86 88/0/88 89/0/89
f 90/0/90 91/0/91 92/0/92
f 90/0/90 92/0/92 93/0/93
f 94/0/94 95/0/95 96/0/96
f 94/0/94 96/0/96 97/0/97
f 98/0/98 99/0/99 100/0/100
f 98/0/98 100/0/100 101/0/101
f 102/0/102 103/0/103 104/0/104
f 102/0/102 104/0/104 105/0/105
f 106/0/106 107/0/107 108/0/108
f 106/0/106 108/0/108 109/0/109
f 110/0/110 111/0/111 112/0/112
f 110/0/110 112/0/112 113/0/113
f 114/0/114 115/0/115 116/0/116
f 114/0/114 116/0/116 117/0/117
f 118/0/118 119/0/119 120/0/120
f 118/0/118 120/0/120 121/0/121
f 122/0/122 123/0/123 124/0/124
f 122/0/122 124/0/124 125/0/125
f 126/0/126 127/0/127 128/0/128
f 126/0/126 128/0/128 129/0/129
f 129/0/129 128/0/128 130/0/130
f 129/0/129 130/0/130 131/0/131
f 132/0/132 133/0/133 134/0/134
f 132/0/132 134/0/134 135/0/135
f 135/0/135 134/0/134 136/0/136
f 135/0/135 136/0/136 137/0/137
f 137/0/137 136/0/136 138/0/138
f 137/0/137 138/0/138 139/0/139
f 140/0/140 141/0/141 142/0/142
f 140/0/140 142/0/142 143/0/143
f 144/0/144 145/0/145 146/0/146
f 144/0/144 146/0/146 147/0/147
f 147/0/147 146/0/146 148/0/148
f 147/0/147 148/0/148 149/0/149
f 150/0/150 151/0/151 152/0/152
f 150/0/150 152/0/152 153/0/153
f 153/0/153 152/0/152 154/0/154
f 153/0/153 154/0/154 155/0/155
f 156/0/156 157/0/157 158/0/158
f 156/0/156 158/0/158 159/0/159
f 159/0/159 158/0/158 160/0/160
f 159/0/159 160/0/160 161/0/161
