# 
# Wavefront OBJ file
# Created with Kaydara FBX
# 
mtllib polysurface1.mtl

g polySurface1
v 0.000000 -1.395464 -0.309758
v -0.228938 -1.395464 -0.268258
v -0.371522 -1.118647 -0.454963
v 0.000000 -1.118647 -0.525346
v -0.710561 -1.118647 -0.262673
v -0.370433 -1.395464 -0.154879
v -0.855587 -1.118647 0.000000
v -0.478372 -1.395464 0.000000
v -0.710561 -1.118647 0.262673
v -0.370433 -1.395464 0.154879
v -0.371522 -1.118647 0.454963
v -0.228938 -1.395464 0.268258
v 0.000000 -1.118647 0.525346
v 0.000000 -1.395464 0.309758
v 0.000000 -1.717053 0.000000
v 0.000000 -1.717053 0.000000
v 0.000000 -1.717053 0.000000
v 0.000000 -1.717053 0.000000
v 0.000000 -1.717053 0.000000
v 0.000000 -1.717053 0.000000
v 0.000000 -0.805671 0.708624
v -0.532731 -0.805671 0.613687
v 0.000000 -0.450420 0.859966
v -0.689703 -0.448673 0.778734
v -1.043505 -0.805671 0.354312
v -1.430155 -0.398229 0.475540
v -1.230462 -0.805671 0.000000
v -1.629927 -0.398229 0.000000
v -1.430155 -0.398229 -0.475540
v -1.043505 -0.805671 -0.354312
v -0.689703 -0.448673 -0.778734
v -0.532731 -0.805671 -0.613687
v 0.000000 -0.450420 -0.859966
v 0.000000 -0.805671 -0.708624
v 0.000000 -0.014253 0.944748
v -0.886985 0.000000 0.861633
v 0.000000 0.311268 0.931516
v -0.768928 0.596650 0.915794
v -1.439629 0.963036 0.617903
v -1.688174 0.627107 0.654157
v -0.000000 0.623381 0.631292
v -0.398081 1.030123 0.524933
v -0.000000 0.836087 0.322308
v -0.554264 1.280264 0.298916
v -0.000000 0.913204 0.000000
v -0.611431 1.371822 0.000000
v -0.918676 1.297212 0.521545
v -0.958289 1.427803 0.000000
v -0.918676 1.297212 -0.521545
v -0.554264 1.280264 -0.298916
v -0.000000 0.913204 0.000000
v -0.000000 0.816351 -0.395823
v -0.398081 1.030123 -0.524933
v -0.000000 0.623381 -0.631292
v -0.768928 0.596650 -0.915794
v 0.000000 0.311268 -0.931516
v -0.886985 0.000000 -0.861633
v 0.000000 -0.014253 -0.944748
v -1.439629 0.963036 -0.617903
v -1.688174 0.627107 -0.654157
v -1.236020 1.164550 -0.572446
v -1.352426 1.326478 0.000000
v -1.666541 1.088461 0.000000
v -1.236020 1.164550 0.572446
v -1.909864 0.693169 0.000000
v -1.710840 0.022970 -0.558192
v -1.753119 0.348492 -0.613692
v -1.921497 0.022970 0.000000
v -1.971654 0.378694 0.000000
v -1.753119 0.348492 0.613692
v -1.710840 0.022970 0.558192
v 0.689704 -0.448673 -0.778734
v 0.532732 -0.805671 -0.613687
v 1.043507 -0.805671 -0.354312
v 1.430158 -0.398229 -0.475540
v 1.230464 -0.805671 0.000000
v 1.629930 -0.398229 0.000000
v 1.430158 -0.398229 0.475540
v 1.043507 -0.805671 0.354312
v 0.689704 -0.448673 0.778734
v 0.532732 -0.805671 0.613687
v 0.886987 0.000000 0.861633
v 0.768930 0.596650 0.915794
v 1.439632 0.963036 0.617903
v 1.688177 0.627107 0.654157
v 0.398082 1.030123 0.524933
v 0.554265 1.280264 0.298916
v 0.611432 1.371822 0.000000
v 0.918678 1.297212 0.521545
v 0.958291 1.427803 0.000000
v 0.918678 1.297212 -0.521545
v 0.554265 1.280264 -0.298916
v 0.398082 1.030123 -0.524933
v 0.768930 0.596650 -0.915794
v 0.886987 0.000000 -0.861633
v 1.439632 0.963036 -0.617903
v 1.688177 0.627107 -0.654157
v 1.219110 1.177911 -0.568815
v 1.332273 1.339192 0.000000
v 1.666544 1.088461 0.000000
v 1.219110 1.177911 0.568815
v 1.909867 0.693169 0.000000
v 1.710843 0.022970 -0.558192
v 1.758686 0.375757 -0.617780
v 1.921500 0.022970 0.000000
v 1.977531 0.409469 0.000000
v 1.758686 0.375757 0.617780
v 1.710843 0.022970 0.558192
v 0.371523 -1.118647 -0.454963
v 0.228939 -1.395464 -0.268258
v 0.710562 -1.118647 -0.262673
v 0.370434 -1.395464 -0.154879
v 0.855588 -1.118647 0.000000
v 0.478373 -1.395464 0.000000
v 0.710562 -1.118647 0.262673
v 0.370434 -1.395464 0.154879
v 0.371523 -1.118647 0.454963
v 0.228939 -1.395464 0.268258
vt 0.166667 0.166667
vt 0.250000 0.166667
vt 0.250000 0.244891
vt 0.166667 0.244891
vt 0.333333 0.244891
vt 0.333333 0.166667
vt 0.416667 0.244891
vt 0.416667 0.166667
vt 0.500000 0.244891
vt 0.500000 0.166667
vt 0.583333 0.244891
vt 0.583333 0.166667
vt 0.666667 0.244891
vt 0.666667 0.166667
vt 0.208333 0.000000
vt 0.291667 0.000000
vt 0.375000 0.000000
vt 0.458333 0.000000
vt 0.541667 0.000000
vt 0.625000 0.000000
vt 0.666667 0.333333
vt 0.583333 0.333333
vt 0.666667 0.407184
vt 0.583333 0.407184
vt 0.500000 0.333333
vt 0.500000 0.407184
vt 0.416667 0.333333
vt 0.416667 0.407184
vt 0.333333 0.407184
vt 0.333333 0.333333
vt 0.250000 0.407184
vt 0.250000 0.333333
vt 0.166667 0.407184
vt 0.166667 0.333333
vt 0.666667 0.500000
vt 0.583333 0.500000
vt 0.666667 0.666667
vt 0.583333 0.666667
vt 0.500000 0.666667
vt 0.500000 0.587785
vt 0.666667 0.833333
vt 0.583333 0.833333
vt 0.602312 0.919139
vt 0.500000 0.833333
vt 0.458333 1.000000
vt 0.416667 0.833333
vt 0.500000 0.751645
vt 0.416667 0.751645
vt 0.333333 0.751645
vt 0.333333 0.833333
vt 0.208333 1.000000
vt 0.183534 0.900801
vt 0.250000 0.833333
vt 0.166667 0.833333
vt 0.250000 0.666667
vt 0.166667 0.666667
vt 0.250000 0.500000
vt 0.166667 0.500000
vt 0.333333 0.666667
vt 0.333333 0.587785
vt 0.333333 0.704995
vt 0.416667 0.704995
vt 0.416667 0.666667
vt 0.500000 0.704995
vt 0.416667 0.587785
vt 0.333333 0.500000
vt 0.333333 0.540133
vt 0.416667 0.500000
vt 0.416667 0.540133
vt 0.500000 0.540133
vt 0.500000 0.500000
vt 0.250000 0.407184
vt 0.250000 0.333333
vt 0.333333 0.333333
vt 0.333333 0.407184
vt 0.416667 0.333333
vt 0.416667 0.407184
vt 0.500000 0.407184
vt 0.500000 0.333333
vt 0.583333 0.407184
vt 0.583333 0.333333
vt 0.583333 0.500000
vt 0.583333 0.666667
vt 0.500000 0.666667
vt 0.500000 0.587785
vt 0.583333 0.833333
vt 0.500000 0.833333
vt 0.416667 0.833333
vt 0.500000 0.751645
vt 0.416667 0.751645
vt 0.333333 0.751645
vt 0.333333 0.833333
vt 0.250000 0.833333
vt 0.250000 0.666667
vt 0.250000 0.500000
vt 0.333333 0.666667
vt 0.333333 0.587785
vt 0.333333 0.708179
vt 0.416667 0.708179
vt 0.416667 0.666667
vt 0.500000 0.708179
vt 0.416667 0.587785
vt 0.333333 0.500000
vt 0.333333 0.544796
vt 0.416667 0.500000
vt 0.416667 0.544796
vt 0.500000 0.544796
vt 0.500000 0.500000
vt 0.250000 0.244891
vt 0.250000 0.166667
vt 0.333333 0.244891
vt 0.333333 0.166667
vt 0.416667 0.244891
vt 0.416667 0.166667
vt 0.500000 0.244891
vt 0.500000 0.166667
vt 0.583333 0.244891
vt 0.583333 0.166667
vn 0.000000 -0.637156 -0.770735
vn -0.270675 -0.667529 -0.693643
vn -0.270948 -0.585111 -0.764351
vn 0.000000 -0.547888 -0.836551
vn -0.482228 -0.686485 -0.544237
vn -0.468023 -0.735160 -0.490403
vn -0.620602 -0.784126 0.000000
vn -0.573809 -0.818989 -0.000000
vn -0.482228 -0.686485 0.544237
vn -0.468023 -0.735160 0.490403
vn -0.270948 -0.585111 0.764351
vn -0.270675 -0.667529 0.693643
vn 0.000000 -0.547888 0.836551
vn 0.000000 -0.637156 0.770735
vn -0.000000 -1.000000 0.000000
vn -0.000000 -1.000000 0.000000
vn -0.000000 -1.000000 0.000000
vn -0.000000 -1.000000 0.000000
vn -0.000000 -1.000000 0.000000
vn -0.000000 -1.000000 0.000000
vn 0.000000 -0.461045 0.887377
vn -0.265288 -0.515553 0.814756
vn 0.000000 -0.297711 0.954656
vn -0.240593 -0.374411 0.895506
vn -0.502967 -0.641313 0.579432
vn -0.547040 -0.532443 0.645950
vn -0.679199 -0.733954 0.000000
vn -0.768802 -0.639487 0.000000
vn -0.547040 -0.532443 -0.645950
vn -0.502967 -0.641313 -0.579432
vn -0.240593 -0.374411 -0.895506
vn -0.265288 -0.515553 -0.814756
vn 0.000000 -0.297711 -0.954656
vn 0.000000 -0.461045 -0.887377
vn 0.000000 -0.119100 0.992882
vn -0.229123 -0.149450 0.961856
vn 0.000000 0.218372 0.975866
vn -0.044403 0.255604 0.965761
vn -0.475325 0.421472 0.772287
vn -0.583247 0.200971 0.787041
vn 0.000000 0.624209 0.781257
vn 0.334535 0.614870 0.714158
vn 0.000000 0.944271 0.329168
vn 0.414291 0.802433 0.429492
vn 0.000000 0.999895 -0.014504
vn 0.415741 0.909463 -0.006088
vn 0.015076 0.760755 0.648864
vn -0.103734 0.994605 0.000000
vn 0.015076 0.760755 -0.648864
vn 0.425169 0.803493 -0.416689
vn 0.000000 0.999895 -0.014504
vn 0.000000 0.939142 -0.343530
vn 0.323180 0.610954 -0.722696
vn 0.000000 0.615504 -0.788134
vn -0.044403 0.255604 -0.965761
vn 0.000000 0.218372 -0.975866
vn -0.229123 -0.149450 -0.961856
vn 0.000000 -0.119100 -0.992882
vn -0.475325 0.421472 -0.772287
vn -0.583247 0.200971 -0.787041
vn -0.309769 0.686168 -0.658192
vn -0.474399 0.880310 0.000000
vn -0.752809 0.658239 0.000000
vn -0.309769 0.686168 0.658192
vn -0.907498 0.420056 0.000000
vn -0.641393 -0.338304 -0.688596
vn -0.672535 -0.072835 -0.736472
vn -0.918631 -0.395116 0.000000
vn -0.999937 0.011194 0.000000
vn -0.672535 -0.072835 0.736472
vn -0.641393 -0.338304 0.688596
vn 0.240593 -0.374411 -0.895506
vn 0.265288 -0.515553 -0.814756
vn 0.502966 -0.641313 -0.579433
vn 0.547039 -0.532443 -0.645951
vn 0.679198 -0.733955 0.000000
vn 0.768801 -0.639488 0.000000
vn 0.547039 -0.532443 0.645951
vn 0.502966 -0.641313 0.579433
vn 0.240593 -0.374411 0.895506
vn 0.265288 -0.515553 0.814756
vn 0.229020 -0.149454 0.961880
vn 0.044378 0.255590 0.965766
vn 0.476963 0.426813 0.768334
vn 0.571837 0.204469 0.794478
vn -0.334534 0.614870 0.714158
vn -0.414290 0.802434 0.429493
vn -0.415740 0.909463 -0.006088
vn -0.025384 0.755319 0.654865
vn 0.086159 0.996281 0.000000
vn -0.025384 0.755319 -0.654865
vn -0.425169 0.803493 -0.416690
vn -0.323179 0.610955 -0.722696
vn 0.044378 0.255590 -0.965766
vn 0.229020 -0.149454 -0.961880
vn 0.476963 0.426813 -0.768334
vn 0.571837 0.204469 -0.794478
vn 0.310400 0.686411 -0.657641
vn 0.474763 0.880114 0.000000
vn 0.748516 0.663117 0.000000
vn 0.310400 0.686411 0.657641
vn 0.896688 0.442663 0.000000
vn 0.647431 -0.336001 -0.684059
vn 0.673247 -0.071435 -0.735959
vn 0.921783 -0.387706 0.000000
vn 0.999923 0.012416 0.000000
vn 0.673247 -0.071435 0.735959
vn 0.647431 -0.336001 0.684059
vn 0.270947 -0.585111 -0.764351
vn 0.270675 -0.667529 -0.693643
vn 0.482227 -0.686485 -0.544238
vn 0.468022 -0.735160 -0.490403
vn 0.620601 -0.784126 0.000000
vn 0.573808 -0.818990 -0.000000
vn 0.482227 -0.686486 0.544237
vn 0.468022 -0.735160 0.490403
vn 0.270947 -0.585111 0.764351
vn 0.270675 -0.667529 0.693643
usemtl material
f 1/0/1 2/0/2 3/0/3
f 1/0/1 3/0/3 4/0/4
f 2/0/2 5/0/5 3/0/3
f 2/0/2 6/0/6 5/0/5
f 6/0/6 7/0/7 5/0/5
f 6/0/6 8/0/8 7/0/7
f 8/0/8 9/0/9 7/0/7
f 8/0/8 10/0/10 9/0/9
f 10/0/10 11/0/11 9/0/9
f 10/0/10 12/0/12 11/0/11
f 12/0/12 13/0/13 11/0/11
f 12/0/12 14/0/14 13/0/13
f 2/0/2 1/0/1 15/0/15
f 6/0/6 2/0/2 16/0/16
f 8/0/8 6/0/6 17/0/17
f 10/0/10 8/0/8 18/0/18
f 12/0/12 10/0/10 19/0/19
f 14/0/14 12/0/12 20/0/20
f 11/0/11 13/0/13 21/0/21
f 11/0/11 21/0/21 22/0/22
f 9/0/9 11/0/11 22/0/22
f 22/0/22 21/0/21 23/0/23
f 22/0/22 23/0/23 24/0/24
f 25/0/25 22/0/22 24/0/24
f 25/0/25 24/0/24 26/0/26
f 27/0/27 25/0/25 26/0/26
f 27/0/27 26/0/26 28/0/28
f 29/0/29 27/0/27 28/0/28
f 29/0/29 30/0/30 27/0/27
f 31/0/31 30/0/30 29/0/29
f 31/0/31 32/0/32 30/0/30
f 33/0/33 32/0/32 31/0/31
f 33/0/33 34/0/34 32/0/32
f 24/0/24 23/0/23 35/0/35
f 24/0/24 35/0/35 36/0/36
f 26/0/26 24/0/24 36/0/36
f 36/0/36 35/0/35 37/0/37
f 36/0/36 37/0/37 38/0/38
f 36/0/36 38/0/38 39/0/39
f 36/0/36 39/0/39 40/0/40
f 38/0/38 37/0/37 41/0/41
f 38/0/38 41/0/41 42/0/42
f 43/0/43 42/0/42 41/0/41
f 43/0/43 44/0/44 42/0/42
f 45/0/45 44/0/44 43/0/43
f 45/0/45 46/0/46 44/0/44
f 46/0/46 47/0/47 44/0/44
f 42/0/42 44/0/44 47/0/47
f 42/0/42 47/0/47 38/0/38
f 46/0/46 48/0/48 47/0/47
f 49/0/49 48/0/48 46/0/46
f 49/0/49 46/0/46 50/0/50
f 51/0/51 50/0/50 46/0/46
f 51/0/51 52/0/52 50/0/50
f 53/0/53 50/0/50 52/0/52
f 49/0/49 50/0/50 53/0/53
f 53/0/53 52/0/52 54/0/54
f 54/0/54 55/0/55 53/0/53
f 49/0/49 53/0/53 55/0/55
f 54/0/54 56/0/56 55/0/55
f 56/0/56 57/0/57 55/0/55
f 56/0/56 58/0/58 57/0/57
f 59/0/59 55/0/55 57/0/57
f 49/0/49 55/0/55 59/0/59
f 59/0/59 57/0/57 60/0/60
f 49/0/49 59/0/59 61/0/61
f 61/0/61 48/0/48 49/0/49
f 59/0/59 62/0/62 61/0/61
f 61/0/61 62/0/62 48/0/48
f 59/0/59 63/0/63 62/0/62
f 63/0/63 59/0/59 60/0/60
f 62/0/62 63/0/63 39/0/39
f 62/0/62 39/0/39 64/0/64
f 38/0/38 64/0/64 39/0/39
f 38/0/38 47/0/47 64/0/64
f 63/0/63 40/0/40 39/0/39
f 63/0/63 65/0/65 40/0/40
f 63/0/63 60/0/60 65/0/65
f 60/0/60 57/0/57 66/0/66
f 60/0/60 66/0/66 67/0/67
f 67/0/67 66/0/66 68/0/68
f 67/0/67 68/0/68 69/0/69
f 60/0/60 67/0/67 69/0/69
f 60/0/60 69/0/69 65/0/65
f 68/0/68 70/0/70 69/0/69
f 70/0/70 40/0/40 65/0/65
f 70/0/70 65/0/65 69/0/69
f 36/0/36 40/0/40 70/0/70
f 36/0/36 70/0/70 71/0/71
f 68/0/68 71/0/71 70/0/70
f 26/0/26 36/0/36 71/0/71
f 28/0/28 26/0/26 71/0/71
f 28/0/28 71/0/71 68/0/68
f 66/0/66 28/0/28 68/0/68
f 66/0/66 29/0/29 28/0/28
f 57/0/57 29/0/29 66/0/66
f 57/0/57 31/0/31 29/0/29
f 58/0/58 31/0/31 57/0/57
f 58/0/58 33/0/33 31/0/31
f 58/0/58 72/0/72 33/0/33
f 33/0/33 72/0/72 73/0/73
f 33/0/33 73/0/73 34/0/34
f 72/0/72 74/0/74 73/0/73
f 72/0/72 75/0/75 74/0/74
f 75/0/75 76/0/76 74/0/74
f 75/0/75 77/0/77 76/0/76
f 76/0/76 77/0/77 78/0/78
f 76/0/76 78/0/78 79/0/79
f 79/0/79 78/0/78 80/0/80
f 79/0/79 80/0/80 81/0/81
f 81/0/81 80/0/80 23/0/23
f 81/0/81 23/0/23 21/0/21
f 80/0/80 35/0/35 23/0/23
f 80/0/80 82/0/82 35/0/35
f 78/0/78 82/0/82 80/0/80
f 82/0/82 37/0/37 35/0/35
f 82/0/82 83/0/83 37/0/37
f 82/0/82 84/0/84 83/0/83
f 82/0/82 85/0/85 84/0/84
f 83/0/83 41/0/41 37/0/37
f 83/0/83 86/0/86 41/0/41
f 43/0/43 41/0/41 86/0/86
f 43/0/43 86/0/86 87/0/87
f 45/0/45 43/0/43 87/0/87
f 45/0/45 87/0/87 88/0/88
f 88/0/88 87/0/87 89/0/89
f 86/0/86 83/0/83 89/0/89
f 86/0/86 89/0/89 87/0/87
f 88/0/88 89/0/89 90/0/90
f 91/0/91 88/0/88 90/0/90
f 91/0/91 92/0/92 88/0/88
f 51/0/51 88/0/88 92/0/92
f 51/0/51 92/0/92 52/0/52
f 93/0/93 52/0/52 92/0/92
f 91/0/91 93/0/93 92/0/92
f 93/0/93 54/0/54 52/0/52
f 54/0/54 93/0/93 94/0/94
f 91/0/91 94/0/94 93/0/93
f 54/0/54 94/0/94 56/0/56
f 56/0/56 94/0/94 95/0/95
f 56/0/56 95/0/95 58/0/58
f 96/0/96 95/0/95 94/0/94
f 91/0/91 96/0/96 94/0/94
f 96/0/96 97/0/97 95/0/95
f 91/0/91 98/0/98 96/0/96
f 98/0/98 91/0/91 90/0/90
f 96/0/96 98/0/98 99/0/99
f 98/0/98 90/0/90 99/0/99
f 96/0/96 99/0/99 100/0/100
f 100/0/100 97/0/97 96/0/96
f 99/0/99 84/0/84 100/0/100
f 99/0/99 101/0/101 84/0/84
f 83/0/83 84/0/84 101/0/101
f 83/0/83 101/0/101 89/0/89
f 100/0/100 84/0/84 85/0/85
f 100/0/100 85/0/85 102/0/102
f 100/0/100 102/0/102 97/0/97
f 97/0/97 103/0/103 95/0/95
f 97/0/97 104/0/104 103/0/103
f 104/0/104 105/0/105 103/0/103
f 104/0/104 106/0/106 105/0/105
f 106/0/106 102/0/102 85/0/85
f 97/0/97 102/0/102 106/0/106
f 97/0/97 106/0/106 104/0/104
f 105/0/105 106/0/106 107/0/107
f 106/0/106 85/0/85 107/0/107
f 82/0/82 107/0/107 85/0/85
f 82/0/82 108/0/108 107/0/107
f 105/0/105 107/0/107 108/0/108
f 78/0/78 108/0/108 82/0/82
f 77/0/77 105/0/105 108/0/108
f 77/0/77 108/0/108 78/0/78
f 103/0/103 105/0/105 77/0/77
f 103/0/103 77/0/77 75/0/75
f 95/0/95 103/0/103 75/0/75
f 95/0/95 75/0/75 72/0/72
f 58/0/58 95/0/95 72/0/72
f 90/0/90 89/0/89 101/0/101
f 90/0/90 101/0/101 99/0/99
f 9/0/9 22/0/22 25/0/25
f 7/0/7 9/0/9 25/0/25
f 7/0/7 25/0/25 27/0/27
f 5/0/5 7/0/7 27/0/27
f 5/0/5 27/0/27 30/0/30
f 3/0/3 5/0/5 30/0/30
f 3/0/3 30/0/30 32/0/32
f 4/0/4 3/0/3 32/0/32
f 4/0/4 32/0/32 34/0/34
f 4/0/4 34/0/34 73/0/73
f 4/0/4 73/0/73 109/0/109
f 1/0/1 4/0/4 109/0/109
f 1/0/1 109/0/109 110/0/110
f 110/0/110 109/0/109 111/0/111
f 110/0/110 111/0/111 112/0/112
f 112/0/112 111/0/111 113/0/113
f 112/0/112 113/0/113 114/0/114
f 114/0/114 113/0/113 115/0/115
f 114/0/114 115/0/115 116/0/116
f 116/0/116 115/0/115 117/0/117
f 116/0/116 117/0/117 118/0/118
f 118/0/118 117/0/117 13/0/13
f 118/0/118 13/0/13 14/0/14
f 110/0/110 15/0/15 1/0/1
f 112/0/112 16/0/16 110/0/110
f 114/0/114 17/0/17 112/0/112
f 116/0/116 18/0/18 114/0/114
f 118/0/118 19/0/19 116/0/116
f 14/0/14 20/0/20 118/0/118
f 117/0/117 21/0/21 13/0/13
f 117/0/117 81/0/81 21/0/21
f 115/0/115 81/0/81 117/0/117
f 115/0/115 79/0/79 81/0/81
f 113/0/113 79/0/79 115/0/115
f 113/0/113 76/0/76 79/0/79
f 111/0/111 76/0/76 113/0/113
f 111/0/111 74/0/74 76/0/76
f 109/0/109 74/0/74 111/0/111
f 109/0/109 73/0/73 74/0/74
f 48/0/48 62/0/62 64/0/64
f 48/0/48 64/0/64 47/0/47
