# 
# Wavefront OBJ file
# Created with Kaydara FBX
# 
mtllib polysurface686.mtl

g polySurface686
v 14.020259 0.297295 -59.283577
v 13.955606 0.218309 -59.316864
v 14.101340 0.218309 -58.853260
v 14.138866 0.297295 -58.920898
v 14.020259 2.572921 -59.283577
v 14.138866 2.572921 -58.920898
v 13.911738 2.870318 -59.333664
v 14.075975 2.870318 -58.815098
v 14.101340 -0.400690 -58.853260
v 13.955606 -0.400690 -59.316864
v 14.579851 0.297295 -59.059521
v 14.138866 0.297295 -58.920898
v 14.101340 0.218309 -58.853260
v 14.649323 0.218309 -59.025532
v 14.579851 2.572921 -59.059521
v 14.138866 2.572921 -58.920898
v 14.691973 2.870318 -59.008739
v 14.075975 2.870318 -58.815098
v 14.101340 -0.400690 -58.853260
v 14.649311 -0.400690 -59.025520
v 14.469600 0.297295 -59.424839
v 14.579851 0.297295 -59.059521
v 14.649323 0.218309 -59.025532
v 14.503576 0.218309 -59.489124
v 14.469600 2.572921 -59.424839
v 14.579851 2.572921 -59.059521
v 14.529931 2.870318 -59.528008
v 14.691973 2.870318 -59.008739
v 14.649311 -0.400690 -59.025520
v 14.503576 -0.400690 -59.489124
v 14.529931 2.870318 -59.528008
v 13.911738 2.870318 -59.333664
v 14.075975 2.870318 -58.815098
v 14.691973 2.870318 -59.008739
vt 0.197783 0.732058
vt 0.193489 0.727536
vt 0.234294 0.727536
vt 0.229999 0.732058
vt 0.197783 0.862346
vt 0.229999 0.862346
vt 0.191038 0.879372
vt 0.236744 0.879372
vt 0.234294 0.692096
vt 0.193489 0.692096
vt 0.197783 0.732058
vt 0.229999 0.732058
vt 0.234294 0.727536
vt 0.193489 0.727536
vt 0.197783 0.862346
vt 0.229999 0.862346
vt 0.191038 0.879372
vt 0.236744 0.879372
vt 0.234294 0.692096
vt 0.193489 0.692096
vt 0.197783 0.732058
vt 0.229999 0.732058
vt 0.234294 0.727536
vt 0.193489 0.727536
vt 0.197783 0.862346
vt 0.229999 0.862346
vt 0.191038 0.879372
vt 0.236744 0.879372
vt 0.234294 0.692096
vt 0.193489 0.692096
vt 0.201653 0.722008
vt 0.228398 0.722008
vt 0.228398 0.698368
vt 0.201653 0.698368
vn -0.950022 0.033761 0.310353
vn -0.952708 0.049250 0.299870
vn -0.952721 0.048984 0.299872
vn -0.950025 0.033657 0.310355
vn -0.949674 -0.047121 0.309675
vn -0.949676 -0.047075 0.309677
vn -0.911241 -0.290002 0.292471
vn -0.911241 -0.290002 0.292471
vn -0.953975 0.000000 0.299886
vn -0.953975 0.000000 0.299886
vn 0.299722 0.033378 0.953443
vn 0.299722 0.033377 0.953443
vn 0.299553 0.047665 0.952888
vn 0.299553 0.047665 0.952888
vn 0.299609 -0.043128 0.953087
vn 0.299608 -0.043128 0.953087
vn 0.289074 -0.266018 0.919604
vn 0.289074 -0.266018 0.919604
vn 0.299894 0.000004 0.953972
vn 0.299894 0.000004 0.953972
vn 0.956714 0.033758 -0.289066
vn 0.956717 0.033655 -0.289066
vn 0.952935 0.048973 -0.299192
vn 0.952924 0.049238 -0.299186
vn 0.956040 -0.047121 -0.289425
vn 0.956043 -0.047074 -0.289424
vn 0.914675 -0.289997 -0.281552
vn 0.914675 -0.289997 -0.281552
vn 0.953972 -0.000013 -0.299897
vn 0.953972 -0.000013 -0.299897
vn 0.000000 1.000000 -0.000001
vn 0.000000 1.000000 -0.000001
vn 0.000000 1.000000 -0.000001
vn 0.000000 1.000000 -0.000001
usemtl material
f 1/0/1 2/0/2 3/0/3
f 1/0/1 3/0/3 4/0/4
f 5/0/5 1/0/1 4/0/4
f 5/0/5 4/0/4 6/0/6
f 7/0/7 5/0/5 6/0/6
f 7/0/7 6/0/6 8/0/8
f 2/0/2 9/0/9 3/0/3
f 2/0/2 10/0/10 9/0/9
f 11/0/11 12/0/12 13/0/13
f 11/0/11 13/0/13 14/0/14
f 15/0/15 12/0/12 11/0/11
f 15/0/15 16/0/16 12/0/12
f 17/0/17 16/0/16 15/0/15
f 17/0/17 18/0/18 16/0/16
f 14/0/14 13/0/13 19/0/19
f 14/0/14 19/0/19 20/0/20
f 21/0/21 22/0/22 23/0/23
f 21/0/21 23/0/23 24/0/24
f 25/0/25 22/0/22 21/0/21
f 25/0/25 26/0/26 22/0/22
f 27/0/27 26/0/26 25/0/25
f 27/0/27 28/0/28 26/0/26
f 24/0/24 23/0/23 29/0/29
f 24/0/24 29/0/29 30/0/30
f 31/0/31 32/0/32 33/0/33
f 31/0/31 33/0/33 34/0/34
