# 
# Wavefront OBJ file
# Created with Kaydara FBX
# 
mtllib polysurface73.mtl

g polySurface73
v 0.111394 0.872579 -0.111390
v 0.111394 0.872579 0.111391
v -0.111395 0.872579 0.111391
v -0.111395 0.872579 -0.111390
v 0.111394 0.885815 -0.111390
v 0.006029 1.099389 -0.006030
v 0.006029 1.099389 0.006032
v 0.111394 0.885815 0.111391
v 0.111394 0.885815 0.111391
v 0.006029 1.099389 0.006032
v -0.006031 1.099389 0.006032
v -0.111395 0.885815 0.111391
v -0.111395 0.885815 0.111391
v -0.006031 1.099389 0.006032
v -0.006031 1.099389 -0.006030
v -0.111395 0.885815 -0.111390
v -0.111395 0.885815 -0.111390
v -0.006031 1.099389 -0.006030
v 0.006029 1.099389 -0.006030
v 0.111394 0.885815 -0.111390
v 0.111394 0.885815 -0.111390
v 0.111394 0.872579 -0.111390
v -0.111395 0.872579 -0.111390
v -0.111395 0.885815 -0.111390
v -0.111395 0.885815 -0.111390
v -0.111395 0.872579 -0.111390
v -0.111395 0.872579 0.111391
v -0.111395 0.885815 0.111391
v -0.111395 0.885815 0.111391
v -0.111395 0.872579 0.111391
v 0.111394 0.872579 0.111391
v 0.111394 0.885815 0.111391
v 0.111394 0.885815 0.111391
v 0.111394 0.872579 0.111391
v 0.111394 0.872579 -0.111390
v 0.111394 0.885815 -0.111390
v -0.006031 1.099389 0.006032
v 0.006029 1.099389 0.006032
v 0.006029 1.099389 -0.006030
v -0.006031 1.099389 -0.006030
v 0.111394 0.872579 -0.111390
v 0.111394 0.872579 0.111391
v 0.021209 0.689769 0.021208
v 0.021209 0.689769 -0.021207
v 0.111394 0.872579 0.111391
v -0.111395 0.872579 0.111391
v -0.021210 0.689769 0.021208
v 0.021209 0.689769 0.021208
v -0.111395 0.872579 0.111391
v -0.111395 0.872579 -0.111390
v -0.021210 0.689769 -0.021207
v -0.021210 0.689769 0.021208
v -0.111395 0.872579 -0.111390
v 0.111394 0.872579 -0.111390
v 0.021209 0.689769 -0.021207
v -0.021210 0.689769 -0.021207
v -0.021210 0.689769 0.021208
v -0.021210 0.689769 -0.021207
v 0.021209 0.689769 -0.021207
v 0.021209 0.689769 0.021208
v 0.056124 0.870174 -0.056120
v 0.056124 0.870174 0.056121
v 0.010689 0.778070 0.010685
v 0.010689 0.778070 -0.010684
v 0.056124 0.870174 0.056121
v -0.056125 0.870174 0.056121
v -0.010690 0.778070 0.010685
v 0.010689 0.778070 0.010685
v -0.056125 0.870174 0.056121
v -0.056125 0.870174 -0.056120
v -0.010690 0.778070 -0.010684
v -0.010690 0.778070 0.010685
v -0.056125 0.870174 -0.056120
v 0.056124 0.870174 -0.056120
v 0.010689 0.778070 -0.010684
v -0.010690 0.778070 -0.010684
v -0.010690 0.778070 0.010685
v -0.010690 0.778070 -0.010684
v 0.010689 0.778070 -0.010684
v 0.010689 0.778070 0.010685
vt 0.578843 0.017319
vt 0.578841 0.209825
vt 0.963852 0.209825
vt 0.963854 0.017320
vt 0.578841 0.221263
vt 0.760923 0.405812
vt 0.781769 0.405812
vt 0.963852 0.221263
vt 0.578841 0.221263
vt 0.760923 0.405812
vt 0.781769 0.405812
vt 0.963852 0.221263
vt 0.578841 0.221263
vt 0.760923 0.405812
vt 0.781769 0.405812
vt 0.963852 0.221263
vt 0.963852 0.221263
vt 0.781769 0.405812
vt 0.760923 0.405812
vt 0.578841 0.221263
vt 0.578841 0.221263
vt 0.578841 0.209825
vt 0.963852 0.209825
vt 0.963852 0.221263
vt 0.963852 0.221263
vt 0.963852 0.209825
vt 0.578841 0.209825
vt 0.578841 0.221263
vt 0.963852 0.221263
vt 0.963852 0.209825
vt 0.578841 0.209825
vt 0.578841 0.221263
vt 0.963852 0.221263
vt 0.963852 0.209825
vt 0.578841 0.209825
vt 0.578841 0.221263
vt 0.760923 0.405812
vt 0.760924 0.416235
vt 0.781769 0.416235
vt 0.781769 0.405812
vt 0.422826 0.019748
vt 0.037816 0.019748
vt 0.193702 0.177715
vt 0.267002 0.177715
vt 0.422826 0.019748
vt 0.037816 0.019748
vt 0.193702 0.177715
vt 0.267002 0.177715
vt 0.422826 0.019748
vt 0.037816 0.019748
vt 0.193702 0.177715
vt 0.267002 0.177715
vt 0.037816 0.019748
vt 0.422826 0.019748
vt 0.267002 0.177715
vt 0.193702 0.177715
vt 0.267002 0.177715
vt 0.193702 0.177715
vt 0.193702 0.214055
vt 0.267002 0.214055
vt 0.065572 0.338784
vt 0.259547 0.338784
vt 0.181024 0.418369
vt 0.144095 0.418369
vt 0.065572 0.338784
vt 0.259547 0.338784
vt 0.181024 0.418369
vt 0.144095 0.418369
vt 0.065572 0.338784
vt 0.259547 0.338784
vt 0.181024 0.418369
vt 0.144095 0.418369
vt 0.259547 0.338784
vt 0.065572 0.338784
vt 0.144095 0.418369
vt 0.181024 0.418369
vt 0.181024 0.436834
vt 0.181024 0.418369
vt 0.144095 0.418369
vt 0.144064 0.436834
vn 0.000000 -1.000000 0.000000
vn 0.000000 -1.000000 0.000000
vn 0.000000 -1.000000 0.000000
vn 0.000000 -1.000000 0.000000
vn 0.896804 0.442429 0.000000
vn 0.896804 0.442429 0.000000
vn 0.896804 0.442429 0.000000
vn 0.896804 0.442429 0.000000
vn 0.000000 0.442411 0.896812
vn 0.000000 0.442411 0.896812
vn 0.000000 0.442411 0.896812
vn 0.000000 0.442411 0.896812
vn -0.896804 0.442428 0.000000
vn -0.896804 0.442428 0.000000
vn -0.896804 0.442428 0.000000
vn -0.896804 0.442428 0.000000
vn -0.000000 0.442411 -0.896812
vn -0.000000 0.442412 -0.896812
vn -0.000000 0.442412 -0.896812
vn -0.000000 0.442412 -0.896812
vn -0.000000 0.000000 -1.000000
vn -0.000000 0.000000 -1.000000
vn -0.000000 0.000000 -1.000000
vn -0.000000 0.000000 -1.000000
vn -1.000000 0.000000 0.000000
vn -1.000000 0.000000 0.000000
vn -1.000000 0.000000 0.000000
vn -1.000000 0.000000 0.000000
vn 0.000000 0.000000 1.000000
vn 0.000000 0.000000 1.000000
vn 0.000000 0.000000 1.000000
vn 0.000000 0.000000 1.000000
vn 1.000000 0.000000 0.000000
vn 1.000000 0.000000 0.000000
vn 1.000000 0.000000 0.000000
vn 1.000000 0.000000 0.000000
vn 0.000000 1.000000 0.000000
vn 0.000000 1.000000 0.000000
vn 0.000000 1.000000 0.000000
vn 0.000000 1.000000 0.000000
vn 0.896809 -0.442418 0.000000
vn 0.896809 -0.442418 0.000000
vn 0.896809 -0.442418 0.000000
vn 0.896809 -0.442418 0.000000
vn 0.000000 -0.442412 0.896812
vn 0.000000 -0.442412 0.896812
vn 0.000000 -0.442412 0.896812
vn 0.000000 -0.442412 0.896812
vn -0.896810 -0.442417 0.000000
vn -0.896810 -0.442417 0.000000
vn -0.896810 -0.442417 0.000000
vn -0.896810 -0.442417 0.000000
vn -0.000000 -0.442412 -0.896812
vn -0.000000 -0.442412 -0.896812
vn -0.000000 -0.442412 -0.896812
vn -0.000000 -0.442412 -0.896812
vn 0.000000 -1.000000 0.000000
vn 0.000000 -1.000000 0.000000
vn 0.000000 -1.000000 0.000000
vn 0.000000 -1.000000 0.000000
vn 0.896816 -0.442404 0.000000
vn 0.896816 -0.442404 0.000000
vn 0.896816 -0.442404 0.000000
vn 0.896816 -0.442404 0.000000
vn 0.000000 -0.442411 0.896812
vn 0.000000 -0.442411 0.896812
vn 0.000000 -0.442411 0.896812
vn 0.000000 -0.442411 0.896812
vn -0.896818 -0.442399 0.000000
vn -0.896818 -0.442399 0.000000
vn -0.896818 -0.442399 0.000000
vn -0.896818 -0.442399 0.000000
vn -0.000000 -0.442412 -0.896812
vn -0.000000 -0.442412 -0.896812
vn -0.000000 -0.442412 -0.896812
vn -0.000000 -0.442412 -0.896812
vn 0.000000 -1.000000 0.000000
vn 0.000000 -1.000000 0.000000
vn 0.000000 -1.000000 0.000000
vn 0.000000 -1.000000 0.000000
usemtl material
f 1/0/1 2/0/2 3/0/3
f 1/0/1 3/0/3 4/0/4
f 5/0/5 6/0/6 7/0/7
f 5/0/5 7/0/7 8/0/8
f 9/0/9 10/0/10 11/0/11
f 9/0/9 11/0/11 12/0/12
f 13/0/13 14/0/14 15/0/15
f 13/0/13 15/0/15 16/0/16
f 17/0/17 18/0/18 19/0/19
f 17/0/17 19/0/19 20/0/20
f 21/0/21 22/0/22 23/0/23
f 21/0/21 23/0/23 24/0/24
f 25/0/25 26/0/26 27/0/27
f 25/0/25 27/0/27 28/0/28
f 29/0/29 30/0/30 31/0/31
f 29/0/29 31/0/31 32/0/32
f 33/0/33 34/0/34 35/0/35
f 33/0/33 35/0/35 36/0/36
f 37/0/37 38/0/38 39/0/39
f 37/0/37 39/0/39 40/0/40
f 41/0/41 42/0/42 43/0/43
f 41/0/41 43/0/43 44/0/44
f 45/0/45 46/0/46 47/0/47
f 45/0/45 47/0/47 48/0/48
f 49/0/49 50/0/50 51/0/51
f 49/0/49 51/0/51 52/0/52
f 53/0/53 54/0/54 55/0/55
f 53/0/53 55/0/55 56/0/56
f 57/0/57 58/0/58 59/0/59
f 57/0/57 59/0/59 60/0/60
f 61/0/61 62/0/62 63/0/63
f 61/0/61 63/0/63 64/0/64
f 65/0/65 66/0/66 67/0/67
f 65/0/65 67/0/67 68/0/68
f 69/0/69 70/0/70 71/0/71
f 69/0/69 71/0/71 72/0/72
f 73/0/73 74/0/74 75/0/75
f 73/0/73 75/0/75 76/0/76
f 77/0/77 78/0/78 79/0/79
f 77/0/77 79/0/79 80/0/80
