# 
# Wavefront OBJ file
# Created with Kaydara FBX
# 
mtllib polysurface700.mtl

g polySurface700
v 8.030371 0.244547 30.879721
v 8.030371 4.422798 30.879721
v 7.942911 4.422798 30.967182
v 7.942911 0.244547 30.967182
v 7.823440 4.422798 30.999193
v 7.823440 0.244547 30.999193
v 7.703969 4.422798 30.967182
v 7.703969 0.244547 30.967182
v 7.616508 4.422798 30.879721
v 7.616508 0.244547 30.879721
v 7.616508 0.244547 30.879721
v 7.616508 4.422798 30.879721
v 7.584497 4.422798 30.760248
v 7.584497 0.244547 30.760248
v 7.616508 4.422798 30.640778
v 7.616508 0.244547 30.640778
v 7.616508 0.244547 30.640778
v 7.616508 4.422798 30.640778
v 7.703969 4.422798 30.553320
v 7.703969 0.244547 30.553320
v 7.703969 0.244547 30.553320
v 7.703969 4.422798 30.553320
v 7.823440 4.422798 30.521307
v 7.823440 0.244547 30.521307
v 7.942911 4.422798 30.553320
v 7.942911 0.244547 30.553320
v 8.030371 4.422798 30.640778
v 8.030371 0.244547 30.640778
v 8.030371 0.244547 30.640778
v 8.030371 4.422798 30.640778
v 8.062383 4.422798 30.760248
v 8.062383 0.244547 30.760248
v 8.030371 4.422798 30.879721
v 8.030371 0.244547 30.879721
v 7.591445 4.783492 30.391958
v 7.591445 4.717621 30.391958
v 7.591445 4.717621 31.116068
v 7.591445 4.783492 31.116068
v 7.591445 4.497745 31.116068
v 7.591445 4.664533 31.261576
v 7.591445 4.497745 31.298935
v 7.591445 4.390510 31.275341
v 7.591445 4.362983 31.116068
v 7.591445 4.317154 31.212421
v 7.591445 4.297493 31.116068
v 7.591445 4.497745 30.933128
v 7.591445 4.497745 30.571859
v 7.591445 4.428510 30.548237
v 7.591445 4.497745 30.391962
v 7.591445 4.672398 30.258755
v 7.591445 4.497745 30.195837
v 7.591445 4.392477 30.219433
v 7.591445 4.362983 30.391962
v 7.591445 4.321087 30.292181
v 7.591445 4.297493 30.391958
v 7.591445 4.362983 30.525883
v 7.591445 4.427002 30.957266
v 7.591445 4.362983 30.979105
v 8.054471 4.783492 30.391958
v 8.054471 4.783492 31.116068
v 8.054471 4.717621 31.116068
v 8.054471 4.717621 30.391958
v 8.054471 4.497745 30.391962
v 8.054471 4.672398 30.258755
v 8.054471 4.497745 30.195837
v 8.054471 4.392477 30.219433
v 8.054471 4.362983 30.391962
v 8.054471 4.321087 30.292181
v 8.054471 4.297493 30.391958
v 8.054471 4.362983 30.525883
v 8.054471 4.428510 30.548237
v 8.054471 4.497745 30.571859
v 8.054471 4.497745 30.933128
v 8.054471 4.427002 30.957266
v 8.054471 4.497745 31.116068
v 8.054471 4.664533 31.261576
v 8.054471 4.497745 31.298935
v 8.054471 4.390510 31.275341
v 8.054471 4.362983 31.116068
v 8.054471 4.317154 31.212421
v 8.054471 4.297493 31.116068
v 8.054471 4.362983 30.979105
v 8.054471 4.783492 30.391958
v 8.054471 4.717621 30.391958
v 7.591445 4.717621 30.391958
v 7.591445 4.783492 30.391958
v 8.054471 4.717621 31.116068
v 8.054471 4.783492 31.116068
v 7.591445 4.783492 31.116068
v 7.591445 4.717621 31.116068
v 8.054471 4.783492 31.116068
v 8.054471 4.783492 30.391958
v 7.591445 4.783492 30.391958
v 7.591445 4.783492 31.116068
v 8.054471 4.672398 30.258755
v 8.054471 4.497745 30.195837
v 7.591445 4.497745 30.195837
v 7.591445 4.672398 30.258755
v 8.054471 4.717621 30.391958
v 8.054471 4.672398 30.258755
v 7.591445 4.672398 30.258755
v 7.591445 4.717621 30.391958
v 8.054471 4.497745 30.195837
v 8.054471 4.392477 30.219433
v 7.591445 4.392477 30.219433
v 7.591445 4.497745 30.195837
v 8.054471 4.392477 30.219433
v 8.054471 4.321087 30.292181
v 7.591445 4.321087 30.292181
v 7.591445 4.392477 30.219433
v 8.054471 4.321087 30.292181
v 8.054471 4.297493 30.391958
v 7.591445 4.297493 30.391958
v 7.591445 4.321087 30.292181
v 8.054471 4.297493 31.116068
v 8.054471 4.317154 31.212421
v 7.591445 4.317154 31.212421
v 7.591445 4.297493 31.116068
v 8.054471 4.317154 31.212421
v 8.054471 4.390510 31.275341
v 7.591445 4.390510 31.275341
v 7.591445 4.317154 31.212421
v 8.054471 4.390510 31.275341
v 8.054471 4.497745 31.298935
v 7.591445 4.497745 31.298935
v 7.591445 4.390510 31.275341
v 8.054471 4.664533 31.261576
v 8.054471 4.717621 31.116068
v 7.591445 4.717621 31.116068
v 7.591445 4.664533 31.261576
v 8.054471 4.497745 31.298935
v 8.054471 4.664533 31.261576
v 7.591445 4.664533 31.261576
v 7.591445 4.497745 31.298935
v 8.054471 4.297493 30.391958
v 8.054471 4.362983 30.525883
v 7.591445 4.362983 30.525883
v 7.591445 4.297493 30.391958
v 8.054471 4.362983 30.525883
v 8.054471 4.428510 30.548237
v 7.591445 4.428510 30.548237
v 7.591445 4.362983 30.525883
v 8.054471 4.428510 30.548237
v 8.054471 4.427002 30.957266
v 7.591445 4.427002 30.957266
v 7.591445 4.428510 30.548237
v 8.054471 4.362983 30.979105
v 8.054471 4.297493 31.116068
v 7.591445 4.297493 31.116068
v 7.591445 4.362983 30.979105
v 8.054471 4.427002 30.957266
v 8.054471 4.362983 30.979105
v 7.591445 4.362983 30.979105
v 7.591445 4.427002 30.957266
vt 0.734937 0.927047
vt 0.346145 0.927047
vt 0.346145 0.934590
vt 0.734937 0.934591
vt 0.346145 0.942134
vt 0.734937 0.942134
vt 0.346145 0.949677
vt 0.734937 0.949677
vt 0.346145 0.957221
vt 0.734937 0.957221
vt 0.734937 0.957221
vt 0.346145 0.957221
vt 0.346145 0.964764
vt 0.734937 0.964764
vt 0.346145 0.972307
vt 0.734937 0.972307
vt 0.734937 0.927000
vt 0.346145 0.927000
vt 0.346145 0.934543
vt 0.734937 0.934543
vt 0.734937 0.934543
vt 0.346145 0.934543
vt 0.346145 0.942086
vt 0.734937 0.942086
vt 0.346145 0.949630
vt 0.734937 0.949630
vt 0.346145 0.957173
vt 0.734937 0.957173
vt 0.734937 0.957173
vt 0.346145 0.957173
vt 0.346145 0.964716
vt 0.734937 0.964716
vt 0.346145 0.972260
vt 0.734937 0.972260
vt 0.309986 0.916865
vt 0.314493 0.916865
vt 0.314493 0.982608
vt 0.309986 0.982608
vt 0.334520 0.982618
vt 0.320234 0.994738
vt 0.334617 0.999376
vt 0.344682 0.996237
vt 0.346870 0.982576
vt 0.349639 0.990842
vt 0.351313 0.982465
vt 0.334519 0.965999
vt 0.334515 0.933179
vt 0.340874 0.931047
vt 0.334514 0.916836
vt 0.319632 0.905309
vt 0.334595 0.898857
vt 0.344532 0.901972
vt 0.346896 0.916879
vt 0.349518 0.908190
vt 0.351412 0.917003
vt 0.346892 0.929029
vt 0.341005 0.968178
vt 0.346875 0.970150
vt 0.309986 0.916865
vt 0.309986 0.982608
vt 0.314493 0.982608
vt 0.314493 0.916865
vt 0.334514 0.916836
vt 0.319632 0.905309
vt 0.334595 0.898857
vt 0.344532 0.901972
vt 0.346896 0.916879
vt 0.349518 0.908190
vt 0.351412 0.917003
vt 0.346892 0.929029
vt 0.340874 0.931047
vt 0.334515 0.933179
vt 0.334519 0.965999
vt 0.341005 0.968178
vt 0.334520 0.982618
vt 0.320234 0.994738
vt 0.334617 0.999376
vt 0.344682 0.996237
vt 0.346870 0.982576
vt 0.349639 0.990842
vt 0.351313 0.982465
vt 0.346875 0.970150
vt 0.314493 0.916865
vt 0.309986 0.916865
vt 0.309986 0.982608
vt 0.314493 0.982608
vt 0.314493 0.916865
vt 0.309986 0.916865
vt 0.309986 0.982608
vt 0.314493 0.982608
vt 0.029125 0.822952
vt 0.029125 0.874103
vt 0.123294 0.874103
vt 0.123294 0.822952
vt 0.016585 0.874753
vt 0.026742 0.874753
vt 0.026742 0.823466
vt 0.016585 0.823466
vt 0.008888 0.874753
vt 0.016585 0.874753
vt 0.016585 0.823466
vt 0.008888 0.823466
vt 0.026742 0.874753
vt 0.032645 0.874753
vt 0.032645 0.823466
vt 0.026742 0.823466
vt 0.032645 0.874753
vt 0.038222 0.874753
vt 0.038222 0.823466
vt 0.032645 0.823466
vt 0.038222 0.874753
vt 0.043832 0.874753
vt 0.043832 0.823466
vt 0.038222 0.823466
vt 0.090165 0.874752
vt 0.095546 0.874753
vt 0.095546 0.823465
vt 0.090165 0.823465
vt 0.095546 0.874753
vt 0.100834 0.874753
vt 0.100833 0.823466
vt 0.095546 0.823465
vt 0.100834 0.874753
vt 0.106842 0.874753
vt 0.106842 0.823465
vt 0.100833 0.823466
vt 0.116194 0.874753
vt 0.124668 0.874752
vt 0.124669 0.823465
vt 0.116194 0.823465
vt 0.106842 0.874753
vt 0.116194 0.874753
vt 0.116194 0.823465
vt 0.106842 0.823465
vt 0.043832 0.874753
vt 0.051989 0.874753
vt 0.051989 0.823466
vt 0.043832 0.823466
vt 0.051989 0.874753
vt 0.055778 0.874753
vt 0.055777 0.823466
vt 0.051989 0.823466
vt 0.055778 0.874753
vt 0.078158 0.874753
vt 0.078158 0.823466
vt 0.055777 0.823466
vt 0.081859 0.874753
vt 0.090165 0.874752
vt 0.090165 0.823465
vt 0.081859 0.823466
vt 0.078158 0.874753
vt 0.081859 0.874753
vt 0.081859 0.823466
vt 0.078158 0.823466
vn 0.866030 0.000000 0.499993
vn 0.866030 0.000000 0.499993
vn 0.500003 0.000000 0.866023
vn 0.500003 0.000000 0.866023
vn 0.000000 0.000000 1.000000
vn 0.000000 0.000000 1.000000
vn -0.500003 0.000000 0.866023
vn -0.500003 0.000000 0.866023
vn -0.866030 0.000000 0.499993
vn -0.866030 0.000000 0.499993
vn -0.866030 0.000000 0.499993
vn -0.866030 0.000000 0.499993
vn -1.000000 0.000000 0.000000
vn -1.000000 0.000000 0.000000
vn -0.866023 0.000000 -0.500003
vn -0.866023 0.000000 -0.500003
vn -0.866023 0.000000 -0.500003
vn -0.866023 0.000000 -0.500003
vn -0.499994 0.000000 -0.866029
vn -0.499994 0.000000 -0.866029
vn -0.499994 0.000000 -0.866029
vn -0.499994 0.000000 -0.866029
vn 0.000000 0.000000 -1.000000
vn 0.000000 0.000000 -1.000000
vn 0.499994 0.000000 -0.866029
vn 0.499994 0.000000 -0.866029
vn 0.866023 0.000000 -0.500003
vn 0.866023 0.000000 -0.500003
vn 0.866023 0.000000 -0.500003
vn 0.866023 0.000000 -0.500003
vn 1.000000 0.000000 0.000000
vn 1.000000 0.000000 0.000000
vn 0.866030 0.000000 0.499993
vn 0.866030 0.000000 0.499993
vn -1.000000 0.000000 0.000000
vn -1.000000 0.000000 0.000000
vn -1.000000 0.000000 0.000000
vn -1.000000 0.000000 0.000000
vn -1.000000 0.000000 0.000000
vn -1.000000 0.000000 0.000000
vn -1.000000 0.000000 0.000000
vn -1.000000 0.000001 0.000000
vn -1.000000 0.000001 0.000000
vn -1.000000 0.000006 0.000000
vn -1.000000 0.000004 0.000000
vn -1.000000 -0.000001 0.000000
vn -1.000000 -0.000001 0.000000
vn -1.000000 -0.000002 0.000000
vn -1.000000 0.000000 0.000000
vn -1.000000 0.000002 0.000000
vn -1.000000 0.000001 0.000000
vn -1.000000 0.000000 0.000000
vn -1.000000 0.000001 0.000000
vn -1.000000 0.000000 0.000000
vn -1.000000 0.000007 0.000000
vn -1.000000 -0.000001 0.000000
vn -1.000000 -0.000007 0.000000
vn -1.000000 0.000000 0.000000
vn 1.000000 0.000000 0.000000
vn 1.000000 0.000000 0.000000
vn 1.000000 0.000000 0.000000
vn 1.000000 0.000000 0.000000
vn 1.000000 0.000000 0.000000
vn 1.000000 0.000000 0.000000
vn 1.000000 0.000002 0.000000
vn 1.000000 0.000004 0.000000
vn 1.000000 -0.000000 0.000000
vn 1.000000 -0.000003 0.000000
vn 1.000000 -0.000000 0.000000
vn 1.000000 -0.000004 0.000000
vn 1.000000 -0.000005 0.000000
vn 1.000000 0.000001 0.000000
vn 1.000000 0.000001 0.000000
vn 1.000000 0.000005 0.000000
vn 1.000000 0.000000 0.000000
vn 1.000000 0.000000 0.000000
vn 1.000000 0.000000 0.000000
vn 1.000000 0.000000 0.000000
vn 1.000000 0.000000 0.000000
vn 1.000000 0.000000 0.000000
vn 1.000000 0.000000 0.000000
vn 1.000000 0.000000 0.000000
vn 0.000000 0.000000 -1.000000
vn 0.000000 0.000000 -1.000000
vn 0.000000 0.000000 -1.000000
vn 0.000000 0.000000 -1.000000
vn 0.000000 0.000000 1.000000
vn 0.000000 0.000000 1.000000
vn 0.000000 0.000000 1.000000
vn 0.000000 0.000000 1.000000
vn 0.000000 1.000000 0.000000
vn 0.000000 1.000000 0.000000
vn 0.000000 1.000000 0.000000
vn 0.000000 1.000000 0.000000
vn 0.000000 0.338922 -0.940814
vn 0.000000 0.338922 -0.940814
vn 0.000000 0.338922 -0.940814
vn 0.000000 0.338922 -0.940814
vn 0.000000 0.946916 -0.321482
vn 0.000000 0.946916 -0.321482
vn 0.000000 0.946916 -0.321482
vn 0.000000 0.946916 -0.321482
vn 0.000000 -0.218724 -0.975787
vn 0.000000 -0.218724 -0.975787
vn 0.000000 -0.218724 -0.975787
vn 0.000000 -0.218724 -0.975787
vn 0.000000 -0.713744 -0.700407
vn 0.000000 -0.713744 -0.700407
vn 0.000000 -0.713744 -0.700407
vn 0.000000 -0.713744 -0.700407
vn 0.000000 -0.973160 -0.230128
vn 0.000000 -0.973160 -0.230128
vn 0.000000 -0.973160 -0.230128
vn 0.000000 -0.973160 -0.230128
vn 0.000000 -0.979808 0.199940
vn 0.000000 -0.979808 0.199940
vn 0.000000 -0.979808 0.199940
vn 0.000000 -0.979808 0.199940
vn 0.000000 -0.651052 0.759034
vn 0.000000 -0.651052 0.759034
vn 0.000000 -0.651052 0.759034
vn 0.000000 -0.651052 0.759034
vn 0.000000 -0.214879 0.976641
vn 0.000000 -0.214879 0.976641
vn 0.000000 -0.214879 0.976641
vn 0.000000 -0.214879 0.976641
vn 0.000000 0.939427 0.342749
vn 0.000000 0.939427 0.342749
vn 0.000000 0.939427 0.342749
vn 0.000000 0.939427 0.342749
vn 0.000000 0.218572 0.975821
vn 0.000000 0.218572 0.975821
vn 0.000000 0.218572 0.975821
vn 0.000000 0.218572 0.975821
vn 0.000000 -0.898343 0.439295
vn 0.000000 -0.898343 0.439295
vn 0.000000 -0.898343 0.439295
vn 0.000000 -0.898343 0.439295
vn 0.000000 -0.322864 0.946445
vn 0.000000 -0.322864 0.946445
vn 0.000000 -0.322864 0.946445
vn 0.000000 -0.322864 0.946445
vn 0.000000 -0.999993 -0.003687
vn 0.000000 -0.999993 -0.003687
vn 0.000000 -0.999993 -0.003687
vn 0.000000 -0.999993 -0.003687
vn 0.000000 -0.902169 -0.431383
vn 0.000000 -0.902169 -0.431383
vn 0.000000 -0.902169 -0.431383
vn 0.000000 -0.902169 -0.431383
vn 0.000000 -0.322887 -0.946438
vn 0.000000 -0.322887 -0.946438
vn 0.000000 -0.322887 -0.946438
vn 0.000000 -0.322887 -0.946438
usemtl material
f 1/0/1 2/0/2 3/0/3
f 1/0/1 3/0/3 4/0/4
f 4/0/4 3/0/3 5/0/5
f 4/0/4 5/0/5 6/0/6
f 6/0/6 5/0/5 7/0/7
f 6/0/6 7/0/7 8/0/8
f 8/0/8 7/0/7 9/0/9
f 8/0/8 9/0/9 10/0/10
f 11/0/11 12/0/12 13/0/13
f 11/0/11 13/0/13 14/0/14
f 14/0/14 13/0/13 15/0/15
f 14/0/14 15/0/15 16/0/16
f 17/0/17 18/0/18 19/0/19
f 17/0/17 19/0/19 20/0/20
f 21/0/21 22/0/22 23/0/23
f 21/0/21 23/0/23 24/0/24
f 24/0/24 23/0/23 25/0/25
f 24/0/24 25/0/25 26/0/26
f 26/0/26 25/0/25 27/0/27
f 26/0/26 27/0/27 28/0/28
f 29/0/29 30/0/30 31/0/31
f 29/0/29 31/0/31 32/0/32
f 32/0/32 31/0/31 33/0/33
f 32/0/32 33/0/33 34/0/34
f 35/0/35 36/0/36 37/0/37
f 35/0/35 37/0/37 38/0/38
f 39/0/39 37/0/37 36/0/36
f 40/0/40 37/0/37 39/0/39
f 40/0/40 39/0/39 41/0/41
f 39/0/39 42/0/42 41/0/41
f 39/0/39 43/0/43 42/0/42
f 43/0/43 44/0/44 42/0/42
f 43/0/43 45/0/45 44/0/44
f 46/0/46 39/0/39 36/0/36
f 47/0/47 46/0/46 36/0/36
f 48/0/48 46/0/46 47/0/47
f 48/0/48 47/0/47 49/0/49
f 36/0/36 49/0/49 47/0/47
f 50/0/50 49/0/49 36/0/36
f 50/0/50 51/0/51 49/0/49
f 49/0/49 51/0/51 52/0/52
f 49/0/49 52/0/52 53/0/53
f 53/0/53 52/0/52 54/0/54
f 53/0/53 54/0/54 55/0/55
f 55/0/55 56/0/56 53/0/53
f 49/0/49 53/0/53 56/0/56
f 56/0/56 48/0/48 49/0/49
f 48/0/48 57/0/57 46/0/46
f 58/0/58 45/0/45 43/0/43
f 57/0/57 58/0/58 43/0/43
f 43/0/43 39/0/39 57/0/57
f 39/0/39 46/0/46 57/0/57
f 59/0/59 60/0/60 61/0/61
f 59/0/59 61/0/61 62/0/62
f 63/0/63 62/0/62 61/0/61
f 64/0/64 62/0/62 63/0/63
f 64/0/64 63/0/63 65/0/65
f 63/0/63 66/0/66 65/0/65
f 63/0/63 67/0/67 66/0/66
f 67/0/67 68/0/68 66/0/66
f 67/0/67 69/0/69 68/0/68
f 69/0/69 67/0/67 70/0/70
f 71/0/71 70/0/70 67/0/67
f 67/0/67 63/0/63 71/0/71
f 63/0/63 72/0/72 71/0/71
f 72/0/72 63/0/63 61/0/61
f 71/0/71 72/0/72 73/0/73
f 73/0/73 72/0/72 61/0/61
f 71/0/71 73/0/73 74/0/74
f 61/0/61 75/0/75 73/0/73
f 74/0/74 73/0/73 75/0/75
f 76/0/76 75/0/75 61/0/61
f 76/0/76 77/0/77 75/0/75
f 75/0/75 77/0/77 78/0/78
f 75/0/75 78/0/78 79/0/79
f 79/0/79 78/0/78 80/0/80
f 79/0/79 80/0/80 81/0/81
f 82/0/82 79/0/79 81/0/81
f 75/0/75 79/0/79 82/0/82
f 82/0/82 74/0/74 75/0/75
f 83/0/83 84/0/84 85/0/85
f 83/0/83 85/0/85 86/0/86
f 87/0/87 88/0/88 89/0/89
f 87/0/87 89/0/89 90/0/90
f 91/0/91 92/0/92 93/0/93
f 91/0/91 93/0/93 94/0/94
f 95/0/95 96/0/96 97/0/97
f 95/0/95 97/0/97 98/0/98
f 99/0/99 100/0/100 101/0/101
f 99/0/99 101/0/101 102/0/102
f 103/0/103 104/0/104 105/0/105
f 103/0/103 105/0/105 106/0/106
f 107/0/107 108/0/108 109/0/109
f 107/0/107 109/0/109 110/0/110
f 111/0/111 112/0/112 113/0/113
f 111/0/111 113/0/113 114/0/114
f 115/0/115 116/0/116 117/0/117
f 115/0/115 117/0/117 118/0/118
f 119/0/119 120/0/120 121/0/121
f 119/0/119 121/0/121 122/0/122
f 123/0/123 124/0/124 125/0/125
f 123/0/123 125/0/125 126/0/126
f 127/0/127 128/0/128 129/0/129
f 127/0/127 129/0/129 130/0/130
f 131/0/131 132/0/132 133/0/133
f 131/0/131 133/0/133 134/0/134
f 135/0/135 136/0/136 137/0/137
f 135/0/135 137/0/137 138/0/138
f 139/0/139 140/0/140 141/0/141
f 139/0/139 141/0/141 142/0/142
f 143/0/143 144/0/144 145/0/145
f 143/0/143 145/0/145 146/0/146
f 147/0/147 148/0/148 149/0/149
f 147/0/147 149/0/149 150/0/150
f 151/0/151 152/0/152 153/0/153
f 151/0/151 153/0/153 154/0/154
