# 
# Wavefront OBJ file
# Created with Kaydara FBX
# 
mtllib polysurface668.mtl

g polySurface668
v 52.477119 0.019513 -19.304302
v 52.477119 1.534136 -19.304302
v 52.600803 1.347409 -19.304302
v 52.600803 0.019513 -19.304302
v 52.707920 1.381293 -19.242460
v 52.707920 0.019513 -19.242460
v 52.769764 1.555915 -19.135344
v 52.769764 0.019513 -19.135344
v 52.769764 1.575828 -19.011658
v 52.769764 0.019513 -19.011658
v 52.769764 0.019513 -19.011658
v 52.769764 1.575828 -19.011658
v 52.707920 1.500069 -18.904543
v 52.707920 0.019513 -18.904543
v 52.600811 1.575828 -18.842703
v 52.600811 0.019513 -18.842703
v 52.600811 0.019513 -18.842703
v 52.600811 1.575828 -18.842703
v 52.477119 1.492450 -18.842699
v 52.477119 0.019513 -18.842699
v 52.477119 0.019513 -18.842699
v 52.477119 1.492450 -18.842699
v 52.370003 1.414479 -18.904545
v 52.370003 0.019513 -18.904545
v 52.308163 1.507224 -19.011658
v 52.308163 0.019513 -19.011658
v 52.308163 1.534136 -19.135345
v 52.308163 0.019513 -19.135345
v 52.308163 0.019513 -19.135345
v 52.308163 1.534136 -19.135345
v 52.370003 1.518784 -19.242460
v 52.370003 0.019513 -19.242460
v 52.477119 1.534136 -19.304302
v 52.477119 0.019513 -19.304302
v 52.308163 1.534136 -19.135345
v 52.308163 1.507224 -19.011658
v 52.370003 1.518784 -19.242460
v 52.370003 1.518784 -19.242460
v 52.308163 1.507224 -19.011658
v 52.370003 1.414479 -18.904545
v 52.477119 1.534136 -19.304302
v 52.477119 1.534136 -19.304302
v 52.370003 1.414479 -18.904545
v 52.477119 1.492450 -18.842699
v 52.600803 1.347409 -19.304302
v 52.600803 1.347409 -19.304302
v 52.477119 1.492450 -18.842699
v 52.600811 1.575828 -18.842703
v 52.707920 1.381293 -19.242460
v 52.707920 1.381293 -19.242460
v 52.600811 1.575828 -18.842703
v 52.707920 1.500069 -18.904543
v 52.769764 1.555915 -19.135344
v 52.769764 1.555915 -19.135344
v 52.707920 1.500069 -18.904543
v 52.769764 1.575828 -19.011658
vt 0.734937 0.927047
vt 0.593999 0.927047
vt 0.612440 0.934591
vt 0.734937 0.934591
vt 0.612315 0.942134
vt 0.734937 0.942134
vt 0.593996 0.949677
vt 0.734937 0.949677
vt 0.590327 0.957221
vt 0.734937 0.957221
vt 0.734937 0.957221
vt 0.590327 0.957221
vt 0.597193 0.964765
vt 0.734937 0.964764
vt 0.590124 0.972316
vt 0.734937 0.972307
vt 0.734937 0.927000
vt 0.586394 0.926997
vt 0.579433 0.934543
vt 0.734937 0.934543
vt 0.734937 0.934543
vt 0.579433 0.934543
vt 0.584765 0.942086
vt 0.734937 0.942086
vt 0.590096 0.949630
vt 0.734937 0.949630
vt 0.593999 0.957173
vt 0.734937 0.957173
vt 0.734937 0.957173
vt 0.593999 0.957173
vt 0.595428 0.964716
vt 0.734937 0.964716
vt 0.593999 0.972260
vt 0.734937 0.972260
vt 0.087320 0.838930
vt 0.079387 0.830573
vt 0.090223 0.850345
vt 0.090223 0.850345
vt 0.079387 0.830573
vt 0.068552 0.827515
vt 0.087320 0.861760
vt 0.087320 0.861760
vt 0.068552 0.827515
vt 0.057716 0.830573
vt 0.079385 0.870117
vt 0.079385 0.870117
vt 0.057716 0.830573
vt 0.049783 0.838930
vt 0.068549 0.873175
vt 0.068549 0.873175
vt 0.049783 0.838930
vt 0.048297 0.851362
vt 0.057714 0.870117
vt 0.057714 0.870117
vt 0.048297 0.851362
vt 0.051660 0.863106
vn -0.266376 0.000000 -0.963869
vn -0.372082 0.000000 -0.928200
vn 0.209308 0.000000 -0.977850
vn 0.251657 0.000000 -0.967816
vn 0.770419 0.000000 -0.637538
vn 0.714136 0.000000 -0.700007
vn 0.991724 0.000000 -0.128390
vn 0.968139 0.000000 -0.250415
vn 0.976653 0.000000 0.214824
vn 0.966551 0.000000 0.256473
vn 0.966551 0.000000 0.256473
vn 0.976653 0.000000 0.214824
vn 0.707106 0.000000 0.707108
vn 0.707107 0.000000 0.707107
vn 0.264787 0.000000 0.964307
vn 0.259156 0.000000 0.965835
vn 0.259156 0.000000 0.965835
vn 0.264787 0.000000 0.964307
vn -0.157587 0.000000 0.987505
vn -0.251722 0.000000 0.967800
vn -0.251722 0.000000 0.967800
vn -0.157587 0.000000 0.987505
vn -0.711115 0.000000 0.703075
vn -0.707599 0.000000 0.706614
vn -0.985170 0.000000 0.171581
vn -0.967324 0.000000 0.253545
vn -0.963510 0.000000 -0.267671
vn -0.965795 0.000000 -0.259306
vn -0.965795 0.000000 -0.259306
vn -0.963510 0.000000 -0.267671
vn -0.707107 0.000000 -0.707107
vn -0.707107 0.000000 -0.707106
vn -0.372082 0.000000 -0.928200
vn -0.266376 0.000000 -0.963869
vn 0.521308 0.833855 0.181448
vn 0.521308 0.833855 0.181448
vn 0.521308 0.833855 0.181448
vn 0.337585 0.899426 0.277614
vn 0.337585 0.899426 0.277614
vn 0.337585 0.899426 0.277614
vn 0.337585 0.899426 0.277614
vn 0.406715 0.909852 0.082166
vn 0.406715 0.909852 0.082166
vn 0.406715 0.909852 0.082166
vn 0.406715 0.909852 0.082166
vn -0.318956 0.849454 -0.420351
vn -0.318956 0.849454 -0.420351
vn -0.318956 0.849454 -0.420351
vn -0.318956 0.849454 -0.420351
vn -0.420274 0.856056 -0.300895
vn -0.420274 0.856056 -0.300895
vn -0.420274 0.856056 -0.300895
vn -0.420274 0.856056 -0.300895
vn -0.829447 0.551482 -0.088800
vn -0.829447 0.551481 -0.088800
vn -0.829447 0.551481 -0.088800
usemtl material
f 1/0/1 2/0/2 3/0/3
f 1/0/1 3/0/3 4/0/4
f 4/0/4 3/0/3 5/0/5
f 4/0/4 5/0/5 6/0/6
f 6/0/6 5/0/5 7/0/7
f 6/0/6 7/0/7 8/0/8
f 8/0/8 7/0/7 9/0/9
f 8/0/8 9/0/9 10/0/10
f 11/0/11 12/0/12 13/0/13
f 11/0/11 13/0/13 14/0/14
f 14/0/14 13/0/13 15/0/15
f 14/0/14 15/0/15 16/0/16
f 17/0/17 18/0/18 19/0/19
f 17/0/17 19/0/19 20/0/20
f 21/0/21 22/0/22 23/0/23
f 21/0/21 23/0/23 24/0/24
f 24/0/24 23/0/23 25/0/25
f 24/0/24 25/0/25 26/0/26
f 26/0/26 25/0/25 27/0/27
f 26/0/26 27/0/27 28/0/28
f 29/0/29 30/0/30 31/0/31
f 29/0/29 31/0/31 32/0/32
f 32/0/32 31/0/31 33/0/33
f 32/0/32 33/0/33 34/0/34
f 35/0/35 36/0/36 37/0/37
f 38/0/38 39/0/39 40/0/40
f 38/0/38 40/0/40 41/0/41
f 42/0/42 43/0/43 44/0/44
f 42/0/42 44/0/44 45/0/45
f 46/0/46 47/0/47 48/0/48
f 46/0/46 48/0/48 49/0/49
f 50/0/50 51/0/51 52/0/52
f 50/0/50 52/0/52 53/0/53
f 54/0/54 55/0/55 56/0/56
