# 
# Wavefront OBJ file
# Created with Kaydara FBX
# 
mtllib polysurface22.mtl

g polySurface22
v -0.805648 0.388523 -0.465141
v -0.857288 0.388523 -0.352958
v -0.857288 0.418163 -0.352958
v -0.805648 0.418163 -0.465141
v -0.657809 0.418163 -0.657809
v -0.657809 0.388523 -0.657809
v -0.465141 0.418163 -0.805648
v -0.465141 0.403343 -0.805648
v -0.465141 0.373702 -0.805648
v -0.657809 0.373702 -0.657809
v -0.240775 0.418163 -0.898583
v -0.240775 0.403343 -0.898583
v -0.898583 0.418163 -0.240775
v -0.898583 0.373702 -0.240775
v -0.857288 0.373702 -0.352958
v -0.352958 0.403343 0.852116
v -0.352958 0.418163 0.852116
v -0.465141 0.418163 0.805648
v -0.465141 0.403343 0.805648
v -0.657809 0.418163 0.657809
v -0.657809 0.403343 0.657809
v -0.805648 0.418163 0.465141
v -0.805648 0.373702 0.465141
v -0.657809 0.373702 0.657809
v -0.898584 0.418163 0.240775
v -0.898584 0.373702 0.240775
v -0.805648 0.373702 0.465141
v -0.805648 0.418163 0.465141
v -0.930282 0.418163 0.000000
v -0.930282 0.373702 0.000000
v -0.898583 0.418163 -0.240775
v -0.898583 0.373702 -0.240775
v 0.357216 0.418163 -0.856374
v 0.465141 0.418163 -0.805648
v 0.465141 0.373702 -0.805648
v 0.357216 0.373702 -0.856374
v 0.657809 0.418163 -0.657809
v 0.657809 0.373702 -0.657809
v 0.805648 0.418163 -0.465141
v 0.805648 0.373702 -0.465141
v 0.898583 0.418163 -0.240775
v 0.898583 0.373702 -0.240775
v 0.930282 0.418163 -0.000000
v 0.930282 0.373702 -0.000000
v 0.898584 0.418163 0.240775
v 0.898584 0.373702 0.240775
v 0.805648 0.418163 0.465141
v 0.805648 0.373702 0.465141
v 0.657809 0.418163 0.657809
v 0.657809 0.373702 0.657809
v 0.465141 0.418163 0.805648
v 0.465141 0.373702 0.805648
v 0.465141 0.373702 0.805648
v 0.465141 0.418163 0.805648
v 0.240775 0.403343 0.898584
v 0.240775 0.373702 0.898584
v 0.240775 0.418163 0.898584
v 0.000000 0.418163 0.930282
v 0.000000 0.403343 0.930282
v 0.301125 0.403343 -0.878188
v 0.301125 0.418163 -0.878188
v 0.357216 0.418163 -0.856374
v 0.240775 0.403343 -0.898583
v 0.240775 0.418163 -0.898583
v 0.357216 0.373702 -0.856374
v 0.301125 0.373702 -0.878188
vt 0.977487 0.483369
vt 0.977487 0.549896
vt 0.986275 0.549896
vt 0.986275 0.483369
vt 0.986275 0.369114
vt 0.977487 0.369114
vt 0.986275 0.281442
vt 0.981881 0.281442
vt 0.973092 0.281442
vt 0.973092 0.369114
vt 0.986275 0.148388
vt 0.981881 0.148388
vt 0.986275 0.616423
vt 0.973092 0.616423
vt 0.973092 0.549896
vt 0.981881 0.937773
vt 0.986275 0.937791
vt 0.986275 0.871260
vt 0.981881 0.871251
vt 0.986275 0.783583
vt 0.981881 0.783583
vt 0.986275 0.669327
vt 0.973093 0.669327
vt 0.973092 0.783583
vt 0.126182 0.043835
vt 0.126171 0.016798
vt 0.086161 0.016798
vt 0.086174 0.043835
vt 0.166562 0.043834
vt 0.166555 0.016797
vt 0.207882 0.043834
vt 0.207897 0.016797
vt 0.040844 0.043834
vt 0.060111 0.043835
vt 0.060111 0.016797
vt 0.040845 0.016797
vt 0.095824 0.043834
vt 0.095824 0.016797
vt 0.130101 0.043835
vt 0.130101 0.016797
vt 0.163971 0.043835
vt 0.163971 0.016797
vt 0.198242 0.043835
vt 0.198242 0.016797
vt 0.233472 0.043834
vt 0.233472 0.016797
vt 0.269711 0.043834
vt 0.269711 0.016797
vt 0.306690 0.043834
vt 0.306690 0.016797
vt 0.343966 0.043835
vt 0.343966 0.016797
vt 0.944194 0.632671
vt 0.956801 0.632671
vt 0.952599 0.505423
vt 0.944194 0.505424
vt 0.956802 0.505424
vt 0.956802 0.368871
vt 0.952599 0.368871
vt 0.880401 0.942264
vt 0.884590 0.942266
vt 0.884592 0.910558
vt 0.880399 0.976379
vt 0.884587 0.976380
vt 0.872026 0.910559
vt 0.872024 0.942262
vn -0.836776 0.000000 -0.547545
vn -0.927234 0.000000 -0.374481
vn -0.925547 0.000000 -0.378633
vn -0.836776 0.000000 -0.547545
vn -0.720278 0.000000 -0.693685
vn -0.688250 0.000000 -0.725474
vn -0.522621 0.000000 -0.852565
vn -0.555804 0.000000 -0.831313
vn -0.608762 0.000000 -0.793353
vn -0.608762 0.000000 -0.793353
vn -0.382684 0.000000 -0.923879
vn -0.382684 0.000000 -0.923879
vn -0.980996 0.000000 -0.194027
vn -0.981561 0.000000 -0.191149
vn -0.938439 0.000000 -0.345444
vn -0.382683 0.000000 0.923880
vn -0.382683 0.000000 0.923880
vn -0.537488 -0.000001 0.843272
vn -0.537488 -0.000001 0.843272
vn -0.737427 -0.000002 0.675426
vn -0.752844 -0.000001 0.658199
vn -0.878886 -0.000001 0.477032
vn -0.880066 -0.000001 0.474851
vn -0.793353 0.000003 0.608761
vn -0.965926 0.000000 0.258819
vn -0.965926 0.000000 0.258819
vn -0.880066 -0.000001 0.474851
vn -0.878886 -0.000001 0.477032
vn -1.000000 0.000000 -0.000001
vn -1.000000 0.000000 -0.000001
vn -0.980996 0.000000 -0.194027
vn -0.981561 0.000000 -0.191149
vn 0.408609 0.000000 -0.912710
vn 0.551179 0.000000 -0.834387
vn 0.551179 0.000000 -0.834387
vn 0.406946 0.000000 -0.913452
vn 0.707106 0.000000 -0.707107
vn 0.707106 0.000000 -0.707107
vn 0.866025 0.000000 -0.500000
vn 0.866025 0.000000 -0.500000
vn 0.965926 0.000000 -0.258819
vn 0.965926 0.000000 -0.258819
vn 1.000000 0.000000 -0.000000
vn 1.000000 0.000000 -0.000000
vn 0.965926 0.000000 0.258819
vn 0.965926 0.000000 0.258819
vn 0.866025 0.000000 0.500000
vn 0.866025 0.000000 0.500000
vn 0.707107 0.000000 0.707107
vn 0.707107 0.000000 0.707107
vn 0.512095 0.000000 0.858929
vn 0.510328 0.000000 0.859980
vn 0.510328 0.000000 0.859980
vn 0.512095 0.000000 0.858929
vn 0.322887 0.000000 0.946438
vn 0.382683 0.000000 0.923880
vn 0.216222 0.000000 0.976344
vn 0.130526 0.000000 0.991445
vn 0.130526 0.000000 0.991445
vn 0.352268 0.000000 -0.935899
vn 0.333801 0.000000 -0.942644
vn 0.408609 0.000000 -0.912710
vn 0.320155 0.000000 -0.947365
vn 0.320155 0.000000 -0.947365
vn 0.406946 0.000000 -0.913452
vn 0.362458 0.000000 -0.932000
usemtl material
f 1/0/1 2/0/2 3/0/3
f 1/0/1 3/0/3 4/0/4
f 5/0/5 1/0/1 4/0/4
f 5/0/5 6/0/6 1/0/1
f 6/0/6 5/0/5 7/0/7
f 6/0/6 7/0/7 8/0/8
f 9/0/9 6/0/6 8/0/8
f 9/0/9 10/0/10 6/0/6
f 8/0/8 7/0/7 11/0/11
f 8/0/8 11/0/11 12/0/12
f 2/0/2 13/0/13 3/0/3
f 2/0/2 14/0/14 13/0/13
f 2/0/2 15/0/15 14/0/14
f 16/0/16 17/0/17 18/0/18
f 16/0/16 18/0/18 19/0/19
f 19/0/19 18/0/18 20/0/20
f 19/0/19 20/0/20 21/0/21
f 22/0/22 21/0/21 20/0/20
f 22/0/22 23/0/23 21/0/21
f 23/0/23 24/0/24 21/0/21
f 25/0/25 26/0/26 27/0/27
f 25/0/25 27/0/27 28/0/28
f 29/0/29 26/0/26 25/0/25
f 29/0/29 30/0/30 26/0/26
f 31/0/31 30/0/30 29/0/29
f 31/0/31 32/0/32 30/0/30
f 33/0/33 34/0/34 35/0/35
f 33/0/33 35/0/35 36/0/36
f 35/0/35 34/0/34 37/0/37
f 35/0/35 37/0/37 38/0/38
f 38/0/38 37/0/37 39/0/39
f 38/0/38 39/0/39 40/0/40
f 40/0/40 39/0/39 41/0/41
f 40/0/40 41/0/41 42/0/42
f 42/0/42 41/0/41 43/0/43
f 42/0/42 43/0/43 44/0/44
f 44/0/44 43/0/43 45/0/45
f 44/0/44 45/0/45 46/0/46
f 46/0/46 45/0/45 47/0/47
f 46/0/46 47/0/47 48/0/48
f 48/0/48 47/0/47 49/0/49
f 48/0/48 49/0/49 50/0/50
f 50/0/50 49/0/49 51/0/51
f 50/0/50 51/0/51 52/0/52
f 53/0/53 54/0/54 55/0/55
f 53/0/53 55/0/55 56/0/56
f 54/0/54 57/0/57 55/0/55
f 55/0/55 57/0/57 58/0/58
f 55/0/55 58/0/58 59/0/59
f 60/0/60 61/0/61 62/0/62
f 63/0/63 61/0/61 60/0/60
f 63/0/63 64/0/64 61/0/61
f 60/0/60 62/0/62 65/0/65
f 60/0/60 65/0/65 66/0/66
