# 
# Wavefront OBJ file
# Created with Kaydara FBX
# 
mtllib polysurface665.mtl

g polySurface665
v 61.499573 0.019513 -28.312002
v 61.499573 2.042670 -28.312002
v 61.592907 2.096032 -28.230839
v 61.592907 0.019513 -28.230839
v 61.633152 2.133363 -28.113884
v 61.633152 0.019513 -28.113884
v 61.609531 2.133396 -27.992476
v 61.609531 0.019513 -27.992476
v 61.609531 0.019513 -27.992476
v 61.609531 2.133396 -27.992476
v 61.528366 2.136897 -27.899143
v 61.528366 0.019513 -27.899143
v 61.411415 2.256508 -27.858898
v 61.411415 0.019513 -27.858898
v 61.289997 2.077063 -27.882519
v 61.289997 0.019513 -27.882519
v 61.289997 0.019513 -27.882519
v 61.289997 2.077063 -27.882519
v 61.196667 2.000984 -27.963680
v 61.196667 0.019513 -27.963680
v 61.156425 1.923013 -28.080637
v 61.156425 0.019513 -28.080637
v 61.180046 2.015757 -28.202045
v 61.180046 0.019513 -28.202045
v 61.180046 0.019513 -28.202045
v 61.180046 2.015757 -28.202045
v 61.261211 2.042670 -28.295378
v 61.261211 0.019513 -28.295378
v 61.378166 2.027318 -28.335625
v 61.378166 0.019513 -28.335625
v 61.378166 0.019513 -28.335625
v 61.378166 2.027318 -28.335625
v 61.499573 2.042670 -28.312002
v 61.499573 0.019513 -28.312002
v 61.261211 2.042670 -28.295378
v 61.180046 2.015757 -28.202045
v 61.378166 2.027318 -28.335625
v 61.378166 2.027318 -28.335625
v 61.180046 2.015757 -28.202045
v 61.156425 1.923013 -28.080637
v 61.499573 2.042670 -28.312002
v 61.499573 2.042670 -28.312002
v 61.156425 1.923013 -28.080637
v 61.196667 2.000984 -27.963680
v 61.592907 2.096032 -28.230839
v 61.592907 2.096032 -28.230839
v 61.196667 2.000984 -27.963680
v 61.289997 2.077063 -27.882519
v 61.633152 2.133363 -28.113884
v 61.633152 2.133363 -28.113884
v 61.289997 2.077063 -27.882519
v 61.411415 2.256508 -27.858898
v 61.609531 2.133396 -27.992476
v 61.609531 2.133396 -27.992476
v 61.411415 2.256508 -27.858898
v 61.528366 2.136897 -27.899143
vt 0.734937 0.927047
vt 0.547119 0.927048
vt 0.543922 0.934591
vt 0.734937 0.934591
vt 0.543203 0.942134
vt 0.734937 0.942134
vt 0.541022 0.949677
vt 0.734937 0.949677
vt 0.734937 0.949677
vt 0.541022 0.949677
vt 0.538495 0.957221
vt 0.734937 0.957221
vt 0.526782 0.964764
vt 0.734937 0.964764
vt 0.543498 0.972313
vt 0.734937 0.972307
vt 0.734937 0.927000
vt 0.530945 0.927000
vt 0.530161 0.934543
vt 0.734937 0.934543
vt 0.533998 0.942086
vt 0.734937 0.942086
vt 0.539119 0.949630
vt 0.734937 0.949630
vt 0.734937 0.949630
vt 0.539119 0.949630
vt 0.545346 0.957173
vt 0.734937 0.957173
vt 0.548108 0.964716
vt 0.734937 0.964716
vt 0.734937 0.964716
vt 0.548108 0.964716
vt 0.546683 0.972255
vt 0.734937 0.972260
vt 0.106431 0.829195
vt 0.079389 0.830574
vt 0.090224 0.850345
vt 0.090224 0.850345
vt 0.079389 0.830574
vt 0.068551 0.827515
vt 0.087320 0.861760
vt 0.087320 0.861760
vt 0.068551 0.827515
vt 0.057716 0.830573
vt 0.079387 0.870117
vt 0.079387 0.870117
vt 0.057716 0.830573
vt 0.049689 0.838859
vt 0.068554 0.873175
vt 0.068554 0.873175
vt 0.049689 0.838859
vt 0.046886 0.850345
vt 0.054957 0.867233
vt 0.054957 0.867233
vt 0.046886 0.850345
vt 0.048457 0.858263
vn 0.440571 0.000000 -0.897718
vn 0.477378 0.000000 -0.878698
vn 0.863534 0.000000 -0.504290
vn 0.830772 0.000000 -0.556613
vn 0.999166 0.000000 -0.040843
vn 0.997660 0.000000 -0.068375
vn 0.897603 0.000000 0.440805
vn 0.898665 0.000000 0.438636
vn 0.898665 0.000000 0.438636
vn 0.897603 0.000000 0.440805
vn 0.509506 0.000000 0.860467
vn 0.555847 0.000000 0.831285
vn 0.109062 0.000000 0.994035
vn 0.071420 0.000000 0.997446
vn -0.327354 0.000000 0.944902
vn -0.431118 0.000000 0.902296
vn -0.431118 0.000000 0.902296
vn -0.327354 0.000000 0.944902
vn -0.769495 0.000000 0.638653
vn -0.826226 0.000000 0.563338
vn -0.997945 0.000000 0.064076
vn -0.997613 0.000000 0.069053
vn -0.856637 0.000000 -0.515920
vn -0.896933 0.000000 -0.442167
vn -0.896933 0.000000 -0.442167
vn -0.856637 0.000000 -0.515920
vn -0.551512 0.000000 -0.834167
vn -0.558726 0.000000 -0.829352
vn -0.069574 0.000000 -0.997577
vn -0.069574 0.000000 -0.997577
vn -0.069574 0.000000 -0.997577
vn -0.069574 0.000000 -0.997577
vn 0.477378 0.000000 -0.878698
vn 0.440571 0.000000 -0.897718
vn 0.274273 0.833902 0.478938
vn 0.274273 0.833902 0.478938
vn 0.274273 0.833902 0.478938
vn 0.072561 0.899411 0.431038
vn 0.072561 0.899411 0.431038
vn 0.072561 0.899411 0.431038
vn 0.072561 0.899411 0.431038
vn -0.434647 0.857474 -0.275356
vn -0.434647 0.857474 -0.275356
vn -0.434647 0.857474 -0.275356
vn -0.434647 0.857474 -0.275356
vn -0.362601 0.892967 -0.266702
vn -0.362601 0.892967 -0.266702
vn -0.362601 0.892967 -0.266702
vn -0.362601 0.892967 -0.266702
vn -0.340269 0.696171 -0.632110
vn -0.340269 0.696171 -0.632110
vn -0.340269 0.696171 -0.632110
vn -0.340269 0.696171 -0.632110
vn 0.675228 0.468625 0.569612
vn 0.675228 0.468625 0.569612
vn 0.675228 0.468625 0.569612
usemtl material
f 1/0/1 2/0/2 3/0/3
f 1/0/1 3/0/3 4/0/4
f 4/0/4 3/0/3 5/0/5
f 4/0/4 5/0/5 6/0/6
f 6/0/6 5/0/5 7/0/7
f 6/0/6 7/0/7 8/0/8
f 9/0/9 10/0/10 11/0/11
f 9/0/9 11/0/11 12/0/12
f 12/0/12 11/0/11 13/0/13
f 12/0/12 13/0/13 14/0/14
f 14/0/14 13/0/13 15/0/15
f 14/0/14 15/0/15 16/0/16
f 17/0/17 18/0/18 19/0/19
f 17/0/17 19/0/19 20/0/20
f 20/0/20 19/0/19 21/0/21
f 20/0/20 21/0/21 22/0/22
f 22/0/22 21/0/21 23/0/23
f 22/0/22 23/0/23 24/0/24
f 25/0/25 26/0/26 27/0/27
f 25/0/25 27/0/27 28/0/28
f 28/0/28 27/0/27 29/0/29
f 28/0/28 29/0/29 30/0/30
f 31/0/31 32/0/32 33/0/33
f 31/0/31 33/0/33 34/0/34
f 35/0/35 36/0/36 37/0/37
f 38/0/38 39/0/39 40/0/40
f 38/0/38 40/0/40 41/0/41
f 42/0/42 43/0/43 44/0/44
f 42/0/42 44/0/44 45/0/45
f 46/0/46 47/0/47 48/0/48
f 46/0/46 48/0/48 49/0/49
f 50/0/50 51/0/51 52/0/52
f 50/0/50 52/0/52 53/0/53
f 54/0/54 55/0/55 56/0/56
