# 
# Wavefront OBJ file
# Created with Kaydara FBX
# 
mtllib polysurface671.mtl

g polySurface671
v 40.355995 0.003920 -22.454824
v 40.355995 2.027078 -22.454824
v 40.449329 2.080439 -22.373661
v 40.449329 0.003920 -22.373661
v 40.489574 2.117771 -22.256704
v 40.489574 0.003920 -22.256704
v 40.465950 2.117804 -22.135298
v 40.465950 0.003920 -22.135298
v 40.465950 0.003920 -22.135298
v 40.465950 2.117804 -22.135298
v 40.384789 2.121304 -22.041962
v 40.384789 0.003920 -22.041962
v 40.267834 2.240916 -22.001717
v 40.267834 0.003920 -22.001717
v 40.146423 2.061470 -22.025339
v 40.146423 0.003920 -22.025339
v 40.146423 0.003920 -22.025339
v 40.146423 2.061470 -22.025339
v 40.053089 1.985391 -22.106503
v 40.053089 0.003920 -22.106503
v 40.012844 1.907421 -22.223457
v 40.012844 0.003920 -22.223457
v 40.036472 2.000165 -22.344870
v 40.036472 0.003920 -22.344870
v 40.036472 0.003920 -22.344870
v 40.036472 2.000165 -22.344870
v 40.117630 2.027078 -22.438198
v 40.117630 0.003920 -22.438198
v 40.234585 2.011725 -22.478445
v 40.234585 0.003920 -22.478445
v 40.234585 0.003920 -22.478445
v 40.234585 2.011725 -22.478445
v 40.355995 2.027078 -22.454824
v 40.355995 0.003920 -22.454824
v 40.117630 2.027078 -22.438198
v 40.036472 2.000165 -22.344870
v 40.234585 2.011725 -22.478445
v 40.234585 2.011725 -22.478445
v 40.036472 2.000165 -22.344870
v 40.012844 1.907421 -22.223457
v 40.355995 2.027078 -22.454824
v 40.355995 2.027078 -22.454824
v 40.012844 1.907421 -22.223457
v 40.053089 1.985391 -22.106503
v 40.449329 2.080439 -22.373661
v 40.449329 2.080439 -22.373661
v 40.053089 1.985391 -22.106503
v 40.146423 2.061470 -22.025339
v 40.489574 2.117771 -22.256704
v 40.489574 2.117771 -22.256704
v 40.146423 2.061470 -22.025339
v 40.267834 2.240916 -22.001717
v 40.465950 2.117804 -22.135298
v 40.465950 2.117804 -22.135298
v 40.267834 2.240916 -22.001717
v 40.384789 2.121304 -22.041962
vt 0.734937 0.927047
vt 0.547119 0.927048
vt 0.543922 0.934591
vt 0.734937 0.934591
vt 0.543203 0.942134
vt 0.734937 0.942134
vt 0.541022 0.949677
vt 0.734937 0.949677
vt 0.734937 0.949677
vt 0.541022 0.949677
vt 0.538495 0.957221
vt 0.734937 0.957221
vt 0.526782 0.964764
vt 0.734937 0.964764
vt 0.543498 0.972313
vt 0.734937 0.972307
vt 0.734937 0.927000
vt 0.530945 0.927000
vt 0.530161 0.934543
vt 0.734937 0.934543
vt 0.533998 0.942086
vt 0.734937 0.942086
vt 0.539119 0.949630
vt 0.734937 0.949630
vt 0.734937 0.949630
vt 0.539119 0.949630
vt 0.545346 0.957173
vt 0.734937 0.957173
vt 0.548108 0.964716
vt 0.734937 0.964716
vt 0.734937 0.964716
vt 0.548108 0.964716
vt 0.546683 0.972255
vt 0.734937 0.972260
vt 0.106431 0.829195
vt 0.079389 0.830574
vt 0.090224 0.850345
vt 0.090224 0.850345
vt 0.079389 0.830574
vt 0.068551 0.827515
vt 0.087320 0.861760
vt 0.087320 0.861760
vt 0.068551 0.827515
vt 0.057716 0.830573
vt 0.079387 0.870117
vt 0.079387 0.870117
vt 0.057716 0.830573
vt 0.049689 0.838859
vt 0.068554 0.873175
vt 0.068554 0.873175
vt 0.049689 0.838859
vt 0.046886 0.850345
vt 0.054957 0.867233
vt 0.054957 0.867233
vt 0.046886 0.850345
vt 0.048457 0.858263
vn 0.440561 0.000000 -0.897723
vn 0.477371 0.000000 -0.878702
vn 0.863541 0.000000 -0.504278
vn 0.830780 0.000000 -0.556601
vn 0.999166 0.000000 -0.040843
vn 0.997660 0.000000 -0.068375
vn 0.897603 0.000000 0.440804
vn 0.898665 0.000000 0.438636
vn 0.898665 0.000000 0.438636
vn 0.897603 0.000000 0.440804
vn 0.509518 0.000000 0.860460
vn 0.555858 0.000000 0.831277
vn 0.109072 0.000000 0.994034
vn 0.071421 0.000000 0.997446
vn -0.327383 0.000000 0.944892
vn -0.431142 0.000000 0.902284
vn -0.431142 0.000000 0.902284
vn -0.327383 0.000000 0.944892
vn -0.769493 0.000000 0.638655
vn -0.826223 0.000000 0.563343
vn -0.997946 0.000000 0.064068
vn -0.997614 0.000000 0.069043
vn -0.856632 0.000000 -0.515928
vn -0.896930 0.000000 -0.442173
vn -0.896930 0.000000 -0.442173
vn -0.856632 0.000000 -0.515928
vn -0.551496 0.000000 -0.834178
vn -0.558710 0.000000 -0.829363
vn -0.069581 0.000000 -0.997576
vn -0.069581 0.000000 -0.997576
vn -0.069581 0.000000 -0.997576
vn -0.069581 0.000000 -0.997576
vn 0.477371 0.000000 -0.878702
vn 0.440561 0.000000 -0.897723
vn 0.274303 0.833853 0.479007
vn 0.274303 0.833853 0.479007
vn 0.274303 0.833853 0.479007
vn 0.072558 0.899423 0.431016
vn 0.072558 0.899423 0.431016
vn 0.072558 0.899423 0.431016
vn 0.072558 0.899423 0.431016
vn -0.434657 0.857467 -0.275362
vn -0.434657 0.857467 -0.275362
vn -0.434657 0.857467 -0.275362
vn -0.434657 0.857467 -0.275362
vn -0.362598 0.892971 -0.266693
vn -0.362598 0.892971 -0.266693
vn -0.362598 0.892971 -0.266693
vn -0.362598 0.892971 -0.266693
vn -0.340256 0.696177 -0.632111
vn -0.340256 0.696177 -0.632111
vn -0.340256 0.696177 -0.632111
vn -0.340255 0.696177 -0.632111
vn 0.675215 0.468633 0.569621
vn 0.675215 0.468633 0.569621
vn 0.675215 0.468633 0.569621
usemtl material
f 1/0/1 2/0/2 3/0/3
f 1/0/1 3/0/3 4/0/4
f 4/0/4 3/0/3 5/0/5
f 4/0/4 5/0/5 6/0/6
f 6/0/6 5/0/5 7/0/7
f 6/0/6 7/0/7 8/0/8
f 9/0/9 10/0/10 11/0/11
f 9/0/9 11/0/11 12/0/12
f 12/0/12 11/0/11 13/0/13
f 12/0/12 13/0/13 14/0/14
f 14/0/14 13/0/13 15/0/15
f 14/0/14 15/0/15 16/0/16
f 17/0/17 18/0/18 19/0/19
f 17/0/17 19/0/19 20/0/20
f 20/0/20 19/0/19 21/0/21
f 20/0/20 21/0/21 22/0/22
f 22/0/22 21/0/21 23/0/23
f 22/0/22 23/0/23 24/0/24
f 25/0/25 26/0/26 27/0/27
f 25/0/25 27/0/27 28/0/28
f 28/0/28 27/0/27 29/0/29
f 28/0/28 29/0/29 30/0/30
f 31/0/31 32/0/32 33/0/33
f 31/0/31 33/0/33 34/0/34
f 35/0/35 36/0/36 37/0/37
f 38/0/38 39/0/39 40/0/40
f 38/0/38 40/0/40 41/0/41
f 42/0/42 43/0/43 44/0/44
f 42/0/42 44/0/44 45/0/45
f 46/0/46 47/0/47 48/0/48
f 46/0/46 48/0/48 49/0/49
f 50/0/50 51/0/51 52/0/52
f 50/0/50 52/0/52 53/0/53
f 54/0/54 55/0/55 56/0/56
