# 
# Wavefront OBJ file
# Created with Kaydara FBX
# 
mtllib polysurface692.mtl

g polySurface692
v 37.213993 4.558457 -27.575659
v 37.213993 4.492587 -27.575659
v 37.083729 4.492587 -28.287956
v 37.083729 4.558457 -28.287956
v 37.083729 4.272711 -28.287956
v 37.057552 4.439499 -28.431091
v 37.050831 4.272711 -28.467842
v 37.055077 4.165476 -28.444633
v 37.083729 4.137949 -28.287956
v 37.066395 4.092120 -28.382738
v 37.083729 4.072458 -28.287956
v 37.116638 4.272711 -28.108002
v 37.181629 4.272711 -27.752626
v 37.185879 4.203476 -27.729389
v 37.213989 4.272711 -27.575661
v 37.237957 4.447364 -27.444632
v 37.249275 4.272711 -27.382736
v 37.245029 4.167442 -27.405949
v 37.213989 4.137949 -27.575661
v 37.231945 4.096053 -27.477512
v 37.213993 4.072458 -27.575659
v 37.189899 4.137949 -27.707399
v 37.112293 4.201968 -28.131742
v 37.108368 4.137949 -28.153233
v 36.758518 4.558457 -27.492363
v 36.628258 4.558457 -28.204659
v 36.628258 4.492587 -28.204659
v 36.758518 4.492587 -27.492363
v 36.758518 4.272711 -27.492363
v 36.782486 4.447364 -27.361332
v 36.793800 4.272711 -27.299440
v 36.789558 4.167442 -27.322651
v 36.758518 4.137949 -27.492363
v 36.776470 4.096053 -27.394217
v 36.758518 4.072458 -27.492363
v 36.734432 4.137949 -27.624104
v 36.730404 4.203476 -27.646093
v 36.726158 4.272711 -27.669331
v 36.661167 4.272711 -28.024706
v 36.656822 4.201968 -28.048449
v 36.628258 4.272711 -28.204659
v 36.602077 4.439499 -28.347792
v 36.595360 4.272711 -28.384542
v 36.599602 4.165476 -28.361330
v 36.628258 4.137949 -28.204659
v 36.610924 4.092120 -28.299438
v 36.628258 4.072458 -28.204659
v 36.652897 4.137949 -28.069933
v 36.758518 4.558457 -27.492363
v 36.758518 4.492587 -27.492363
v 37.213993 4.492587 -27.575659
v 37.213993 4.558457 -27.575659
v 36.628258 4.492587 -28.204659
v 36.628258 4.558457 -28.204659
v 37.083729 4.558457 -28.287956
v 37.083729 4.492587 -28.287956
v 36.628258 4.558457 -28.204659
v 36.758518 4.558457 -27.492363
v 37.213993 4.558457 -27.575659
v 37.083729 4.558457 -28.287956
v 36.782486 4.447364 -27.361332
v 36.793800 4.272711 -27.299440
v 37.249275 4.272711 -27.382736
v 37.237957 4.447364 -27.444632
v 36.758518 4.492587 -27.492363
v 36.782486 4.447364 -27.361332
v 37.237957 4.447364 -27.444632
v 37.213993 4.492587 -27.575659
v 36.793800 4.272711 -27.299440
v 36.789558 4.167442 -27.322651
v 37.245029 4.167442 -27.405949
v 37.249275 4.272711 -27.382736
v 36.789558 4.167442 -27.322651
v 36.776470 4.096053 -27.394217
v 37.231945 4.096053 -27.477512
v 37.245029 4.167442 -27.405949
v 36.776470 4.096053 -27.394217
v 36.758518 4.072458 -27.492363
v 37.213993 4.072458 -27.575659
v 37.231945 4.096053 -27.477512
v 36.628258 4.072458 -28.204659
v 36.610924 4.092120 -28.299438
v 37.066395 4.092120 -28.382738
v 37.083729 4.072458 -28.287956
v 36.610924 4.092120 -28.299438
v 36.599602 4.165476 -28.361330
v 37.055077 4.165476 -28.444633
v 37.066395 4.092120 -28.382738
v 36.599602 4.165476 -28.361330
v 36.595360 4.272711 -28.384542
v 37.050831 4.272711 -28.467842
v 37.055077 4.165476 -28.444633
v 36.602077 4.439499 -28.347792
v 36.628258 4.492587 -28.204659
v 37.083729 4.492587 -28.287956
v 37.057552 4.439499 -28.431091
v 36.595360 4.272711 -28.384542
v 36.602077 4.439499 -28.347792
v 37.057552 4.439499 -28.431091
v 37.050831 4.272711 -28.467842
v 36.758518 4.072458 -27.492363
v 36.734432 4.137949 -27.624104
v 37.189899 4.137949 -27.707399
v 37.213993 4.072458 -27.575659
v 36.734432 4.137949 -27.624104
v 36.730404 4.203476 -27.646093
v 37.185879 4.203476 -27.729389
v 37.189899 4.137949 -27.707399
v 36.730404 4.203476 -27.646093
v 36.656822 4.201968 -28.048449
v 37.112293 4.201968 -28.131742
v 37.185879 4.203476 -27.729389
v 36.652897 4.137949 -28.069933
v 36.628258 4.072458 -28.204659
v 37.083729 4.072458 -28.287956
v 37.108368 4.137949 -28.153233
v 36.656822 4.201968 -28.048449
v 36.652897 4.137949 -28.069933
v 37.108368 4.137949 -28.153233
v 37.112293 4.201968 -28.131742
v 36.694481 0.019513 -27.976503
v 36.694481 4.197764 -27.976503
v 36.764778 4.197764 -28.078270
v 36.764778 0.019513 -28.078270
v 36.876541 4.197764 -28.131252
v 36.876541 0.019513 -28.131252
v 36.999825 4.197764 -28.121256
v 36.999825 0.019513 -28.121256
v 36.999825 0.019513 -28.121256
v 36.999825 4.197764 -28.121256
v 37.101589 4.197764 -28.050957
v 37.101589 0.019513 -28.050957
v 37.154572 4.197764 -27.939192
v 37.154572 0.019513 -27.939192
v 37.144573 4.197764 -27.815910
v 37.144573 0.019513 -27.815910
v 37.144573 0.019513 -27.815910
v 37.144573 4.197764 -27.815910
v 37.074276 4.197764 -27.714146
v 37.074276 0.019513 -27.714146
v 36.962513 4.197764 -27.661161
v 36.962513 0.019513 -27.661161
v 36.839233 4.197764 -27.671162
v 36.839233 0.019513 -27.671162
v 36.839233 0.019513 -27.671162
v 36.839233 4.197764 -27.671162
v 36.737465 4.197764 -27.741459
v 36.737465 0.019513 -27.741459
v 36.684483 4.197764 -27.853222
v 36.684483 0.019513 -27.853222
v 36.684483 0.019513 -27.853222
v 36.684483 4.197764 -27.853222
v 36.694481 4.197764 -27.976503
v 36.694481 0.019513 -27.976503
vt 0.309986 0.916865
vt 0.314493 0.916865
vt 0.314493 0.982608
vt 0.309986 0.982608
vt 0.334520 0.982618
vt 0.320234 0.994738
vt 0.334617 0.999376
vt 0.344682 0.996237
vt 0.346870 0.982576
vt 0.349639 0.990842
vt 0.351313 0.982465
vt 0.334519 0.965999
vt 0.334515 0.933179
vt 0.340874 0.931047
vt 0.334514 0.916836
vt 0.319632 0.905309
vt 0.334595 0.898857
vt 0.344532 0.901972
vt 0.346896 0.916879
vt 0.349518 0.908190
vt 0.351412 0.917003
vt 0.346892 0.929029
vt 0.341005 0.968178
vt 0.346875 0.970150
vt 0.309986 0.916865
vt 0.309986 0.982608
vt 0.314493 0.982608
vt 0.314493 0.916865
vt 0.334514 0.916836
vt 0.319632 0.905309
vt 0.334595 0.898857
vt 0.344532 0.901972
vt 0.346896 0.916879
vt 0.349518 0.908190
vt 0.351412 0.917003
vt 0.346892 0.929029
vt 0.340874 0.931047
vt 0.334515 0.933179
vt 0.334519 0.965999
vt 0.341005 0.968178
vt 0.334520 0.982618
vt 0.320234 0.994738
vt 0.334617 0.999376
vt 0.344682 0.996237
vt 0.346870 0.982576
vt 0.349639 0.990842
vt 0.351313 0.982465
vt 0.346875 0.970150
vt 0.314493 0.916865
vt 0.309986 0.916865
vt 0.309986 0.982608
vt 0.314493 0.982608
vt 0.314493 0.916865
vt 0.309986 0.916865
vt 0.309986 0.982608
vt 0.314493 0.982608
vt 0.029125 0.822952
vt 0.029125 0.874103
vt 0.123294 0.874103
vt 0.123294 0.822952
vt 0.016585 0.874753
vt 0.026742 0.874753
vt 0.026742 0.823466
vt 0.016585 0.823466
vt 0.008888 0.874753
vt 0.016585 0.874753
vt 0.016585 0.823466
vt 0.008888 0.823466
vt 0.026742 0.874753
vt 0.032645 0.874753
vt 0.032645 0.823466
vt 0.026742 0.823466
vt 0.032645 0.874753
vt 0.038222 0.874753
vt 0.038222 0.823466
vt 0.032645 0.823466
vt 0.038222 0.874753
vt 0.043832 0.874753
vt 0.043832 0.823466
vt 0.038222 0.823466
vt 0.090165 0.874752
vt 0.095546 0.874753
vt 0.095546 0.823465
vt 0.090165 0.823465
vt 0.095546 0.874753
vt 0.100834 0.874753
vt 0.100833 0.823466
vt 0.095546 0.823465
vt 0.100834 0.874753
vt 0.106842 0.874753
vt 0.106842 0.823465
vt 0.100833 0.823466
vt 0.116194 0.874753
vt 0.124668 0.874752
vt 0.124669 0.823465
vt 0.116194 0.823465
vt 0.106842 0.874753
vt 0.116194 0.874753
vt 0.116194 0.823465
vt 0.106842 0.823465
vt 0.043832 0.874753
vt 0.051989 0.874753
vt 0.051989 0.823466
vt 0.043832 0.823466
vt 0.051989 0.874753
vt 0.055778 0.874753
vt 0.055777 0.823466
vt 0.051989 0.823466
vt 0.055778 0.874753
vt 0.078158 0.874753
vt 0.078158 0.823466
vt 0.055777 0.823466
vt 0.081859 0.874753
vt 0.090165 0.874752
vt 0.090165 0.823465
vt 0.081859 0.823466
vt 0.078158 0.874753
vt 0.081859 0.874753
vt 0.081859 0.823466
vt 0.078158 0.823466
vt 0.734937 0.927047
vt 0.346145 0.927047
vt 0.346145 0.934590
vt 0.734937 0.934591
vt 0.346145 0.942134
vt 0.734937 0.942134
vt 0.346145 0.949677
vt 0.734937 0.949677
vt 0.734937 0.949677
vt 0.346145 0.949677
vt 0.346145 0.957221
vt 0.734937 0.957221
vt 0.346145 0.964764
vt 0.734937 0.964764
vt 0.346145 0.972307
vt 0.734937 0.972307
vt 0.734937 0.927000
vt 0.346145 0.927000
vt 0.346145 0.934543
vt 0.734937 0.934543
vt 0.346145 0.942086
vt 0.734937 0.942086
vt 0.346145 0.949630
vt 0.734937 0.949630
vt 0.734937 0.949630
vt 0.346145 0.949630
vt 0.346145 0.957173
vt 0.734937 0.957173
vt 0.346145 0.964716
vt 0.734937 0.964716
vt 0.734937 0.964716
vt 0.346145 0.964716
vt 0.346145 0.972260
vt 0.734937 0.972260
vn 0.983685 0.000000 -0.179898
vn 0.983685 -0.000003 -0.179897
vn 0.983685 0.000001 -0.179897
vn 0.983685 0.000000 -0.179898
vn 0.983686 0.000003 -0.179896
vn 0.983686 0.000013 -0.179896
vn 0.983686 0.000015 -0.179893
vn 0.983687 0.000017 -0.179886
vn 0.983686 0.000007 -0.179893
vn 0.983690 0.000000 -0.179870
vn 0.983688 0.000000 -0.179885
vn 0.983685 -0.000005 -0.179897
vn 0.983686 -0.000007 -0.179896
vn 0.983687 -0.000030 -0.179889
vn 0.983685 -0.000003 -0.179897
vn 0.983685 -0.000025 -0.179901
vn 0.983684 0.000001 -0.179903
vn 0.983683 0.000037 -0.179909
vn 0.983684 0.000016 -0.179902
vn 0.983679 0.000047 -0.179930
vn 0.983682 0.000060 -0.179918
vn 0.983687 -0.000024 -0.179889
vn 0.983685 -0.000058 -0.179898
vn 0.983685 0.000000 -0.179901
vn -0.983686 0.000000 0.179895
vn -0.983686 0.000000 0.179895
vn -0.983686 0.000001 0.179896
vn -0.983686 0.000003 0.179896
vn -0.983686 0.000000 0.179897
vn -0.983685 0.000025 0.179898
vn -0.983685 -0.000001 0.179900
vn -0.983684 -0.000027 0.179904
vn -0.983685 -0.000005 0.179900
vn -0.983682 0.000047 0.179917
vn -0.983684 0.000033 0.179904
vn -0.983686 0.000000 0.179894
vn -0.983686 0.000000 0.179895
vn -0.983686 0.000005 0.179896
vn -0.983686 0.000004 0.179896
vn -0.983686 0.000054 0.179896
vn -0.983685 -0.000001 0.179898
vn -0.983685 0.000006 0.179902
vn -0.983684 0.000004 0.179904
vn -0.983684 0.000000 0.179907
vn -0.983684 -0.000007 0.179903
vn -0.983685 0.000000 0.179900
vn -0.983684 0.000000 0.179906
vn -0.983685 -0.000017 0.179897
vn 0.179898 0.000000 0.983685
vn 0.179898 0.000000 0.983685
vn 0.179898 0.000000 0.983685
vn 0.179898 0.000000 0.983685
vn -0.179905 0.000000 -0.983684
vn -0.179905 0.000000 -0.983684
vn -0.179905 0.000000 -0.983684
vn -0.179905 0.000000 -0.983684
vn 0.000000 1.000000 -0.000000
vn 0.000000 1.000000 -0.000000
vn 0.000000 1.000000 -0.000000
vn 0.000000 1.000000 -0.000000
vn 0.169253 0.338932 0.925461
vn 0.169253 0.338932 0.925461
vn 0.169253 0.338932 0.925461
vn 0.169253 0.338932 0.925461
vn 0.057835 0.946916 0.316237
vn 0.057835 0.946916 0.316237
vn 0.057835 0.946916 0.316237
vn 0.057835 0.946916 0.316237
vn 0.175545 -0.218723 0.959867
vn 0.175545 -0.218723 0.959867
vn 0.175545 -0.218723 0.959867
vn 0.175545 -0.218723 0.959867
vn 0.126003 -0.713751 0.688973
vn 0.126003 -0.713751 0.688973
vn 0.126003 -0.713751 0.688973
vn 0.126003 -0.713751 0.688973
vn 0.041399 -0.973160 0.226377
vn 0.041399 -0.973160 0.226377
vn 0.041399 -0.973160 0.226377
vn 0.041399 -0.973160 0.226377
vn -0.035969 -0.979808 -0.196678
vn -0.035969 -0.979808 -0.196678
vn -0.035969 -0.979808 -0.196678
vn -0.035969 -0.979808 -0.196678
vn -0.136552 -0.651055 -0.746647
vn -0.136552 -0.651055 -0.746647
vn -0.136552 -0.651055 -0.746647
vn -0.136552 -0.651055 -0.746647
vn -0.175702 -0.214893 -0.960703
vn -0.175702 -0.214893 -0.960703
vn -0.175702 -0.214893 -0.960703
vn -0.175702 -0.214893 -0.960703
vn -0.061660 0.939430 -0.337150
vn -0.061660 0.939429 -0.337150
vn -0.061660 0.939430 -0.337150
vn -0.061660 0.939429 -0.337150
vn -0.175557 0.218576 -0.959898
vn -0.175557 0.218576 -0.959898
vn -0.175557 0.218576 -0.959898
vn -0.175557 0.218576 -0.959898
vn -0.079026 -0.898344 -0.432126
vn -0.079026 -0.898344 -0.432126
vn -0.079026 -0.898344 -0.432126
vn -0.079026 -0.898344 -0.432126
vn -0.170261 -0.322885 -0.930998
vn -0.170261 -0.322885 -0.930998
vn -0.170261 -0.322885 -0.930998
vn -0.170261 -0.322885 -0.930998
vn 0.000663 -0.999993 0.003626
vn 0.000663 -0.999993 0.003626
vn 0.000663 -0.999993 0.003626
vn 0.000663 -0.999993 0.003626
vn 0.077608 -0.902164 0.424355
vn 0.077608 -0.902164 0.424355
vn 0.077608 -0.902164 0.424355
vn 0.077608 -0.902164 0.424355
vn 0.170260 -0.322905 0.930991
vn 0.170260 -0.322905 0.930991
vn 0.170260 -0.322905 0.930991
vn 0.170260 -0.322905 0.930991
vn -0.941844 0.000000 -0.336051
vn -0.941844 0.000000 -0.336051
vn -0.647644 0.000000 -0.761943
vn -0.647644 0.000000 -0.761943
vn -0.179893 0.000000 -0.983686
vn -0.179893 0.000000 -0.983686
vn 0.336033 0.000000 -0.941850
vn 0.336033 0.000000 -0.941850
vn 0.336033 0.000000 -0.941850
vn 0.336033 0.000000 -0.941850
vn 0.761958 0.000000 -0.647627
vn 0.761958 0.000000 -0.647627
vn 0.983689 0.000000 -0.179878
vn 0.983689 0.000000 -0.179878
vn 0.941846 0.000000 0.336046
vn 0.941846 0.000000 0.336046
vn 0.941846 0.000000 0.336046
vn 0.941846 0.000000 0.336046
vn 0.647644 0.000000 0.761943
vn 0.647644 0.000000 0.761943
vn 0.179883 0.000000 0.983688
vn 0.179883 0.000000 0.983688
vn -0.336047 0.000000 0.941845
vn -0.336047 0.000000 0.941845
vn -0.336047 0.000000 0.941845
vn -0.336047 0.000000 0.941845
vn -0.761937 0.000000 0.647651
vn -0.761937 0.000000 0.647651
vn -0.983687 0.000000 0.179890
vn -0.983687 0.000000 0.179890
vn -0.983687 0.000000 0.179890
vn -0.983687 0.000000 0.179890
vn -0.941844 0.000000 -0.336051
vn -0.941844 0.000000 -0.336051
usemtl material
f 1/0/1 2/0/2 3/0/3
f 1/0/1 3/0/3 4/0/4
f 5/0/5 3/0/3 2/0/2
f 6/0/6 3/0/3 5/0/5
f 6/0/6 5/0/5 7/0/7
f 5/0/5 8/0/8 7/0/7
f 5/0/5 9/0/9 8/0/8
f 9/0/9 10/0/10 8/0/8
f 9/0/9 11/0/11 10/0/10
f 12/0/12 5/0/5 2/0/2
f 13/0/13 12/0/12 2/0/2
f 14/0/14 12/0/12 13/0/13
f 14/0/14 13/0/13 15/0/15
f 2/0/2 15/0/15 13/0/13
f 16/0/16 15/0/15 2/0/2
f 16/0/16 17/0/17 15/0/15
f 15/0/15 17/0/17 18/0/18
f 15/0/15 18/0/18 19/0/19
f 19/0/19 18/0/18 20/0/20
f 19/0/19 20/0/20 21/0/21
f 21/0/21 22/0/22 19/0/19
f 15/0/15 19/0/19 22/0/22
f 22/0/22 14/0/14 15/0/15
f 14/0/14 23/0/23 12/0/12
f 24/0/24 11/0/11 9/0/9
f 23/0/23 24/0/24 9/0/9
f 9/0/9 5/0/5 23/0/23
f 5/0/5 12/0/12 23/0/23
f 25/0/25 26/0/26 27/0/27
f 25/0/25 27/0/27 28/0/28
f 29/0/29 28/0/28 27/0/27
f 30/0/30 28/0/28 29/0/29
f 30/0/30 29/0/29 31/0/31
f 29/0/29 32/0/32 31/0/31
f 29/0/29 33/0/33 32/0/32
f 33/0/33 34/0/34 32/0/32
f 33/0/33 35/0/35 34/0/34
f 35/0/35 33/0/33 36/0/36
f 37/0/37 36/0/36 33/0/33
f 33/0/33 29/0/29 37/0/37
f 29/0/29 38/0/38 37/0/37
f 38/0/38 29/0/29 27/0/27
f 37/0/37 38/0/38 39/0/39
f 39/0/39 38/0/38 27/0/27
f 37/0/37 39/0/39 40/0/40
f 27/0/27 41/0/41 39/0/39
f 40/0/40 39/0/39 41/0/41
f 42/0/42 41/0/41 27/0/27
f 42/0/42 43/0/43 41/0/41
f 41/0/41 43/0/43 44/0/44
f 41/0/41 44/0/44 45/0/45
f 45/0/45 44/0/44 46/0/46
f 45/0/45 46/0/46 47/0/47
f 48/0/48 45/0/45 47/0/47
f 41/0/41 45/0/45 48/0/48
f 48/0/48 40/0/40 41/0/41
f 49/0/49 50/0/50 51/0/51
f 49/0/49 51/0/51 52/0/52
f 53/0/53 54/0/54 55/0/55
f 53/0/53 55/0/55 56/0/56
f 57/0/57 58/0/58 59/0/59
f 57/0/57 59/0/59 60/0/60
f 61/0/61 62/0/62 63/0/63
f 61/0/61 63/0/63 64/0/64
f 65/0/65 66/0/66 67/0/67
f 65/0/65 67/0/67 68/0/68
f 69/0/69 70/0/70 71/0/71
f 69/0/69 71/0/71 72/0/72
f 73/0/73 74/0/74 75/0/75
f 73/0/73 75/0/75 76/0/76
f 77/0/77 78/0/78 79/0/79
f 77/0/77 79/0/79 80/0/80
f 81/0/81 82/0/82 83/0/83
f 81/0/81 83/0/83 84/0/84
f 85/0/85 86/0/86 87/0/87
f 85/0/85 87/0/87 88/0/88
f 89/0/89 90/0/90 91/0/91
f 89/0/89 91/0/91 92/0/92
f 93/0/93 94/0/94 95/0/95
f 93/0/93 95/0/95 96/0/96
f 97/0/97 98/0/98 99/0/99
f 97/0/97 99/0/99 100/0/100
f 101/0/101 102/0/102 103/0/103
f 101/0/101 103/0/103 104/0/104
f 105/0/105 106/0/106 107/0/107
f 105/0/105 107/0/107 108/0/108
f 109/0/109 110/0/110 111/0/111
f 109/0/109 111/0/111 112/0/112
f 113/0/113 114/0/114 115/0/115
f 113/0/113 115/0/115 116/0/116
f 117/0/117 118/0/118 119/0/119
f 117/0/117 119/0/119 120/0/120
f 121/0/121 122/0/122 123/0/123
f 121/0/121 123/0/123 124/0/124
f 124/0/124 123/0/123 125/0/125
f 124/0/124 125/0/125 126/0/126
f 126/0/126 125/0/125 127/0/127
f 126/0/126 127/0/127 128/0/128
f 129/0/129 130/0/130 131/0/131
f 129/0/129 131/0/131 132/0/132
f 132/0/132 131/0/131 133/0/133
f 132/0/132 133/0/133 134/0/134
f 134/0/134 133/0/133 135/0/135
f 134/0/134 135/0/135 136/0/136
f 137/0/137 138/0/138 139/0/139
f 137/0/137 139/0/139 140/0/140
f 140/0/140 139/0/139 141/0/141
f 140/0/140 141/0/141 142/0/142
f 142/0/142 141/0/141 143/0/143
f 142/0/142 143/0/143 144/0/144
f 145/0/145 146/0/146 147/0/147
f 145/0/145 147/0/147 148/0/148
f 148/0/148 147/0/147 149/0/149
f 148/0/148 149/0/149 150/0/150
f 151/0/151 152/0/152 153/0/153
f 151/0/151 153/0/153 154/0/154
