# 
# Wavefront OBJ file
# Created with Kaydara FBX
# 
mtllib powerup_theresa_02_lake.mtl

g Powerup_Theresa_02_Lake
v -0.000674 -0.340090 -12.168564
v -2.576572 -0.340385 -12.167080
v -2.576572 -0.340166 -9.613134
v -0.000557 -0.340247 -9.952275
v 2.575498 -0.340166 -9.613115
v 2.575498 -0.340388 -12.167236
v -8.620127 -0.339848 4.977295
v -5.193428 -0.252697 2.998896
v -5.792490 -0.252697 1.552725
v -9.614453 -0.339848 2.576807
v -7.038408 -0.339848 7.038623
v -4.240518 -0.252697 4.240752
v -4.977041 -0.339848 8.620341
v -2.998662 -0.252697 5.193662
v -2.576582 -0.339848 9.614677
v -1.552490 -0.252697 5.792686
v -0.000557 -0.339848 9.953818
v -0.000557 -0.252697 5.997021
v -5.996787 -0.252697 0.000771
v -9.953613 -0.339848 0.000771
v -5.792490 -0.252697 -1.551143
v -9.614453 -0.339848 -2.575264
v -5.193447 -0.252697 -2.997334
v -8.620127 -0.339848 -4.975732
v -4.240518 -0.252697 -4.239189
v -7.038408 -0.339848 -7.037080
v -2.998662 -0.252697 -5.192119
v -4.977060 -0.339848 -8.618818
v -1.552490 -0.252697 -5.791162
v -2.576572 -0.340166 -9.613134
v -0.000557 -0.252697 -5.995478
v -0.000557 -0.340247 -9.952275
v 1.551377 -0.252697 -5.791142
v 2.575498 -0.340166 -9.613115
v 2.997549 -0.252697 -5.192119
v 4.975966 -0.339848 -8.618798
v 4.239424 -0.252697 -4.239209
v 7.037314 -0.339848 -7.037080
v 5.192353 -0.252697 -2.997354
v 8.619053 -0.339848 -4.975752
v 5.791377 -0.252697 -1.551182
v 9.613379 -0.339848 -2.575264
v 5.995713 -0.252697 0.000771
v 9.952510 -0.339848 0.000771
v 5.791377 -0.252697 1.552685
v 9.613359 -0.339848 2.576807
v 5.192353 -0.252697 2.998877
v 8.619033 -0.339848 4.977275
v 4.239424 -0.252697 4.240732
v 7.037314 -0.339848 7.038623
v 2.997549 -0.252697 5.193662
v 4.975966 -0.339848 8.620361
v 1.551377 -0.252697 5.792705
v 2.575488 -0.339848 9.614677
v -5.193428 -0.865795 2.998896
v -0.000557 -0.865792 0.000771
v -5.792490 -0.865795 1.552725
v -4.240518 -0.865795 4.240752
v -2.998662 -0.865795 5.193662
v -1.552490 -0.865795 5.792686
v -0.000557 -0.865795 5.997021
v -5.996787 -0.865795 0.000771
v -5.792490 -0.865795 -1.551143
v -5.193447 -0.865795 -2.997334
v -4.240518 -0.865795 -4.239189
v -2.998662 -0.865795 -5.192119
v -1.552490 -0.865795 -5.791162
v -0.000557 -0.865795 -5.995478
v 1.551377 -0.865795 -5.791142
v 2.997549 -0.865795 -5.192119
v 4.239424 -0.865795 -4.239209
v 5.192353 -0.865795 -2.997354
v 5.791377 -0.865795 -1.551182
v 5.995713 -0.865795 0.000771
v 5.791377 -0.865795 1.552685
v 5.192353 -0.865795 2.998877
v 4.239424 -0.865795 4.240732
v 2.997549 -0.865795 5.193662
v 1.551377 -0.865795 5.792705
vt -0.001300 2.131844
vt 0.450199 2.131583
vt 0.450199 1.683931
vt -0.001321 1.743376
vt -0.452846 1.683928
vt -0.452846 2.131611
vt 1.509501 -0.873450
vt 0.908875 -0.526682
vt 1.013879 -0.273196
vt 1.683785 -0.452697
vt 1.232260 -1.234756
vt 0.741852 -0.744350
vt 0.870948 -1.511996
vt 0.524181 -0.911374
vt 0.450201 -1.686281
vt 0.270699 -1.016371
vt -0.001321 -1.745725
vt -0.001321 -1.052185
vt 1.049688 -0.001175
vt 1.743233 -0.001175
vt 1.013879 0.270843
vt 1.683785 0.450347
vt 0.908879 0.524329
vt 1.509501 0.871097
vt 0.741852 0.741997
vt 1.232260 1.232406
vt 0.524181 0.909025
vt 0.870951 1.509650
vt 0.270699 1.014025
vt 0.450199 1.683931
vt -0.001321 1.049836
vt -0.001321 1.743376
vt -0.273340 1.014022
vt -0.452846 1.683928
vt -0.526822 0.909025
vt -0.873595 1.509647
vt -0.744496 0.742000
vt -1.234905 1.232406
vt -0.911523 0.524332
vt -1.512149 0.871100
vt -1.016520 0.270850
vt -1.686433 0.450347
vt -1.052335 -0.001175
vt -1.745875 -0.001175
vt -1.016520 -0.273189
vt -1.686429 -0.452697
vt -0.911523 -0.526678
vt -1.512146 -0.873446
vt -0.744496 -0.744346
vt -1.234905 -1.234756
vt -0.526822 -0.911374
vt -0.873595 -1.511999
vt -0.273340 -1.016375
vt -0.452844 -1.686281
vt 0.900864 -0.520118
vt -0.000002 0.000000
vt 1.004790 -0.269234
vt 0.735552 -0.735556
vt 0.520113 -0.900869
vt 0.269230 -1.004788
vt -0.000002 -1.040236
vt 1.040231 0.000000
vt 1.004790 0.269228
vt 0.900867 0.520115
vt 0.735552 0.735554
vt 0.520113 0.900870
vt 0.269230 1.004792
vt -0.000002 1.040237
vt -0.269233 1.004789
vt -0.520117 0.900870
vt -0.735559 0.735558
vt -0.900874 0.520119
vt -1.004794 0.269235
vt -1.040242 0.000000
vt -1.004794 -0.269227
vt -0.900874 -0.520114
vt -0.735559 -0.735553
vt -0.520117 -0.900869
vt -0.269233 -1.004791
vn 0.000000 1.000000 -0.000013
vn -0.000043 1.000000 -0.000013
vn -0.004131 0.999871 -0.015520
vn 0.000000 0.999931 -0.011714
vn 0.004131 0.999871 -0.015519
vn 0.000043 1.000000 -0.000014
vn -0.019070 0.999758 0.011010
vn -0.019070 0.999758 0.011010
vn -0.021270 0.999758 0.005699
vn -0.021270 0.999758 0.005699
vn -0.015571 0.999758 0.015571
vn -0.015571 0.999758 0.015571
vn -0.011010 0.999758 0.019070
vn -0.011010 0.999758 0.019070
vn -0.005699 0.999758 0.021270
vn -0.005699 0.999758 0.021270
vn 0.000000 0.999758 0.022020
vn 0.000000 0.999758 0.022020
vn -0.022020 0.999753 0.002899
vn -0.022020 0.999753 0.002899
vn -0.021270 0.999758 -0.005699
vn -0.021270 0.999758 -0.005699
vn -0.019070 0.999758 -0.011010
vn -0.019070 0.999758 -0.011010
vn -0.015571 0.999758 -0.015571
vn -0.015571 0.999758 -0.015571
vn -0.010983 0.999757 -0.019103
vn -0.010983 0.999757 -0.019103
vn -0.005668 0.999756 -0.021350
vn -0.004131 0.999871 -0.015520
vn 0.000000 0.999755 -0.022113
vn 0.000000 0.999931 -0.011714
vn 0.005668 0.999756 -0.021350
vn 0.004131 0.999871 -0.015519
vn 0.010983 0.999757 -0.019104
vn 0.010983 0.999757 -0.019104
vn 0.015571 0.999758 -0.015571
vn 0.015571 0.999758 -0.015571
vn 0.019070 0.999758 -0.011010
vn 0.019070 0.999758 -0.011010
vn 0.021270 0.999758 -0.005699
vn 0.021270 0.999758 -0.005699
vn 0.022020 0.999753 -0.002899
vn 0.022020 0.999753 -0.002899
vn 0.021270 0.999758 0.005699
vn 0.021270 0.999758 0.005699
vn 0.019070 0.999758 0.011010
vn 0.019070 0.999758 0.011010
vn 0.015571 0.999758 0.015571
vn 0.015571 0.999758 0.015571
vn 0.011010 0.999758 0.019070
vn 0.011010 0.999758 0.019070
vn 0.005699 0.999758 0.021270
vn 0.005699 0.999758 0.021270
vn -0.000000 1.000000 0.000000
vn 0.000000 1.000000 0.000000
vn -0.000000 1.000000 0.000000
vn -0.000000 1.000000 0.000000
vn -0.000000 1.000000 0.000000
vn -0.000000 1.000000 0.000000
vn 0.000000 1.000000 0.000000
vn -0.000000 1.000000 0.000000
vn -0.000000 1.000000 0.000000
vn -0.000000 1.000000 -0.000000
vn -0.000000 1.000000 -0.000000
vn -0.000000 1.000000 -0.000000
vn -0.000000 1.000000 -0.000000
vn 0.000000 1.000000 -0.000000
vn 0.000000 1.000000 -0.000000
vn 0.000000 1.000000 -0.000000
vn 0.000000 1.000000 -0.000000
vn 0.000000 1.000000 -0.000000
vn 0.000000 1.000000 0.000000
vn 0.000000 1.000000 0.000000
vn 0.000000 1.000000 0.000000
vn 0.000000 1.000000 0.000000
vn 0.000000 1.000000 0.000000
vn 0.000000 1.000000 0.000000
vn 0.000000 1.000000 0.000000
usemtl material
f 1/0/1 2/0/2 3/0/3
f 1/0/1 3/0/3 4/0/4
f 1/0/1 4/0/4 5/0/5
f 1/0/1 5/0/5 6/0/6
f 7/0/7 8/0/8 9/0/9
f 7/0/7 9/0/9 10/0/10
f 11/0/11 8/0/8 7/0/7
f 11/0/11 12/0/12 8/0/8
f 13/0/13 12/0/12 11/0/11
f 13/0/13 14/0/14 12/0/12
f 15/0/15 14/0/14 13/0/13
f 15/0/15 16/0/16 14/0/14
f 17/0/17 16/0/16 15/0/15
f 17/0/17 18/0/18 16/0/16
f 10/0/10 9/0/9 19/0/19
f 10/0/10 19/0/19 20/0/20
f 20/0/20 19/0/19 21/0/21
f 20/0/20 21/0/21 22/0/22
f 22/0/22 21/0/21 23/0/23
f 22/0/22 23/0/23 24/0/24
f 24/0/24 23/0/23 25/0/25
f 24/0/24 25/0/25 26/0/26
f 26/0/26 25/0/25 27/0/27
f 26/0/26 27/0/27 28/0/28
f 28/0/28 27/0/27 29/0/29
f 28/0/28 29/0/29 30/0/30
f 30/0/30 29/0/29 31/0/31
f 30/0/30 31/0/31 32/0/32
f 32/0/32 31/0/31 33/0/33
f 32/0/32 33/0/33 34/0/34
f 34/0/34 33/0/33 35/0/35
f 34/0/34 35/0/35 36/0/36
f 36/0/36 35/0/35 37/0/37
f 36/0/36 37/0/37 38/0/38
f 38/0/38 37/0/37 39/0/39
f 38/0/38 39/0/39 40/0/40
f 40/0/40 39/0/39 41/0/41
f 40/0/40 41/0/41 42/0/42
f 42/0/42 41/0/41 43/0/43
f 42/0/42 43/0/43 44/0/44
f 44/0/44 43/0/43 45/0/45
f 44/0/44 45/0/45 46/0/46
f 46/0/46 45/0/45 47/0/47
f 46/0/46 47/0/47 48/0/48
f 48/0/48 47/0/47 49/0/49
f 48/0/48 49/0/49 50/0/50
f 50/0/50 49/0/49 51/0/51
f 50/0/50 51/0/51 52/0/52
f 52/0/52 51/0/51 53/0/53
f 52/0/52 53/0/53 54/0/54
f 54/0/54 53/0/53 18/0/18
f 54/0/54 18/0/18 17/0/17
f 55/0/55 56/0/56 57/0/57
f 58/0/58 56/0/56 55/0/55
f 59/0/59 56/0/56 58/0/58
f 60/0/60 56/0/56 59/0/59
f 61/0/61 56/0/56 60/0/60
f 57/0/57 56/0/56 62/0/62
f 62/0/62 56/0/56 63/0/63
f 63/0/63 56/0/56 64/0/64
f 64/0/64 56/0/56 65/0/65
f 65/0/65 56/0/56 66/0/66
f 66/0/66 56/0/56 67/0/67
f 67/0/67 56/0/56 68/0/68
f 68/0/68 56/0/56 69/0/69
f 69/0/69 56/0/56 70/0/70
f 70/0/70 56/0/56 71/0/71
f 71/0/71 56/0/56 72/0/72
f 72/0/72 56/0/56 73/0/73
f 73/0/73 56/0/56 74/0/74
f 74/0/74 56/0/56 75/0/75
f 75/0/75 56/0/56 76/0/76
f 76/0/76 56/0/56 77/0/77
f 77/0/77 56/0/56 78/0/78
f 78/0/78 56/0/56 79/0/79
f 79/0/79 56/0/56 61/0/61
