# 
# Wavefront OBJ file
# Created with Kaydara FBX
# 
mtllib powerup_theresa_01_lake.mtl

g Powerup_Theresa_01_Lake
v -8.620127 -0.339848 4.977295
v -5.193428 -0.252697 2.998896
v -5.792490 -0.252697 1.552725
v -9.614463 -0.339848 2.576807
v -7.038408 -0.339848 7.038642
v -4.240518 -0.252697 4.240752
v -4.977041 -0.339848 8.620361
v -2.998662 -0.252697 5.193682
v -2.576572 -0.339848 9.614677
v -1.552490 -0.252697 5.792705
v -0.000557 -0.339848 9.953818
v -0.000557 -0.252697 5.997021
v -5.996787 -0.252697 0.000791
v -9.953604 -0.339848 0.000791
v -5.792490 -0.252697 -1.551143
v -9.614443 -0.339848 -2.575264
v -5.193447 -0.252697 -2.997334
v -8.620127 -0.339848 -4.975732
v -4.240518 -0.252697 -4.239189
v -7.038408 -0.339848 -7.037080
v -2.998662 -0.252697 -5.192100
v -4.977060 -0.339848 -8.618818
v -1.552490 -0.252697 -5.791162
v -2.576572 -0.339848 -9.613134
v -0.000557 -0.252697 -5.995478
v -0.000557 -0.339848 -9.952255
v 1.551372 -0.252697 -5.791142
v 2.575493 -0.339848 -9.613115
v 2.997544 -0.252697 -5.192119
v 4.975962 -0.339848 -8.618798
v 4.239419 -0.252697 -4.239209
v 7.037310 -0.339848 -7.037080
v 5.192348 -0.252697 -2.997334
v 8.619048 -0.339848 -4.975732
v 5.791372 -0.252697 -1.551162
v 9.613374 -0.339848 -2.575264
v 5.995708 -0.252697 0.000771
v 9.952495 -0.339848 0.000771
v 5.791372 -0.252697 1.552705
v 9.613355 -0.339848 2.576807
v 5.192348 -0.252697 2.998877
v 8.619028 -0.339848 4.977275
v 4.239419 -0.252697 4.240752
v 7.037310 -0.339848 7.038623
v 2.997544 -0.252697 5.193662
v 4.975962 -0.339848 8.620361
v 1.551372 -0.252697 5.792705
v 2.575493 -0.339848 9.614697
v -5.193428 -0.865795 2.998896
v -0.000557 -0.865792 0.000771
v -5.792490 -0.865795 1.552725
v -4.240518 -0.865795 4.240752
v -2.998662 -0.865795 5.193682
v -1.552490 -0.865795 5.792705
v -0.000557 -0.865795 5.997021
v -5.996787 -0.865795 0.000791
v -5.792490 -0.865795 -1.551143
v -5.193447 -0.865795 -2.997334
v -4.240518 -0.865795 -4.239189
v -2.998662 -0.865795 -5.192100
v -1.552490 -0.865795 -5.791162
v -0.000557 -0.865795 -5.995478
v 1.551372 -0.865795 -5.791142
v 2.997544 -0.865795 -5.192119
v 4.239419 -0.865795 -4.239209
v 5.192348 -0.865795 -2.997334
v 5.791372 -0.865795 -1.551162
v 5.995708 -0.865795 0.000771
v 5.791372 -0.865795 1.552705
v 5.192348 -0.865795 2.998877
v 4.239419 -0.865795 4.240752
v 2.997544 -0.865795 5.193662
v 1.551372 -0.865795 5.792705
vt 1.513896 -0.875449
vt 0.912376 -0.528165
vt 1.017536 -0.274302
vt 1.688440 -0.454069
vt 1.236242 -1.237297
vt 0.745106 -0.746157
vt 0.874391 -1.514950
vt 0.527110 -0.913433
vt 0.453015 -1.689491
vt 0.273247 -1.018587
vt 0.000824 -1.749024
vt 0.000824 -1.054451
vt 1.053396 -0.001879
vt 1.747972 -0.001879
vt 1.017536 0.270548
vt 1.688440 0.450319
vt 0.912379 0.524411
vt 1.513896 0.871696
vt 0.745106 0.742403
vt 1.236242 1.233543
vt 0.527110 0.909677
vt 0.874395 1.511200
vt 0.273247 1.014837
vt 0.453015 1.685741
vt 0.000824 1.050701
vt 0.000824 1.745269
vt -0.271599 1.014834
vt -0.451374 1.685737
vt -0.525459 0.909680
vt -0.872750 1.511196
vt -0.743458 0.742407
vt -1.234598 1.233543
vt -0.910734 0.524411
vt -1.512254 0.871695
vt -1.015888 0.270552
vt -1.686799 0.450319
vt -1.051755 -0.001875
vt -1.746324 -0.001875
vt -1.015888 -0.274298
vt -1.686791 -0.454069
vt -0.910734 -0.528161
vt -1.512251 -0.875446
vt -0.743458 -0.746157
vt -1.234598 -1.237293
vt -0.525459 -0.913430
vt -0.872750 -1.514950
vt -0.271599 -1.018587
vt -0.451374 -1.689495
vt 0.900863 -0.520118
vt -0.000002 0.000000
vt 1.004789 -0.269234
vt 0.735551 -0.735556
vt 0.520113 -0.900872
vt 0.269229 -1.004791
vt -0.000002 -1.040236
vt 1.040231 -0.000003
vt 1.004789 0.269228
vt 0.900867 0.520115
vt 0.735551 0.735554
vt 0.520113 0.900866
vt 0.269229 1.004792
vt -0.000002 1.040237
vt -0.269233 1.004789
vt -0.520117 0.900870
vt -0.735559 0.735558
vt -0.900874 0.520115
vt -1.004793 0.269232
vt -1.040242 0.000000
vt -1.004793 -0.269231
vt -0.900874 -0.520114
vt -0.735559 -0.735556
vt -0.520117 -0.900869
vt -0.269233 -1.004791
vn -0.019070 0.999758 0.011010
vn -0.019070 0.999758 0.011010
vn -0.021270 0.999758 0.005699
vn -0.021270 0.999758 0.005699
vn -0.015571 0.999758 0.015571
vn -0.015571 0.999758 0.015571
vn -0.011010 0.999758 0.019070
vn -0.011010 0.999758 0.019070
vn -0.005699 0.999758 0.021270
vn -0.005699 0.999758 0.021270
vn 0.000000 0.999758 0.022020
vn 0.000000 0.999758 0.022020
vn -0.022020 0.999753 0.002899
vn -0.022020 0.999753 0.002899
vn -0.021270 0.999758 -0.005699
vn -0.021270 0.999758 -0.005699
vn -0.019070 0.999758 -0.011010
vn -0.019070 0.999758 -0.011010
vn -0.015571 0.999758 -0.015571
vn -0.015571 0.999758 -0.015571
vn -0.011010 0.999758 -0.019070
vn -0.011010 0.999758 -0.019070
vn -0.005699 0.999758 -0.021270
vn -0.005699 0.999758 -0.021270
vn 0.000000 0.999758 -0.022021
vn 0.000000 0.999758 -0.022021
vn 0.005699 0.999758 -0.021270
vn 0.005699 0.999758 -0.021270
vn 0.011010 0.999758 -0.019070
vn 0.011010 0.999758 -0.019070
vn 0.015571 0.999758 -0.015571
vn 0.015571 0.999758 -0.015571
vn 0.019070 0.999758 -0.011010
vn 0.019070 0.999758 -0.011010
vn 0.021270 0.999758 -0.005699
vn 0.021270 0.999758 -0.005699
vn 0.022020 0.999753 -0.002899
vn 0.022020 0.999753 -0.002899
vn 0.021270 0.999758 0.005699
vn 0.021270 0.999758 0.005699
vn 0.019070 0.999758 0.011010
vn 0.019070 0.999758 0.011010
vn 0.015571 0.999758 0.015571
vn 0.015571 0.999758 0.015571
vn 0.011010 0.999758 0.019070
vn 0.011010 0.999758 0.019070
vn 0.005699 0.999758 0.021270
vn 0.005699 0.999758 0.021270
vn -0.000000 1.000000 0.000000
vn 0.000000 1.000000 0.000000
vn -0.000000 1.000000 0.000000
vn -0.000000 1.000000 0.000000
vn -0.000000 1.000000 0.000000
vn -0.000000 1.000000 0.000000
vn 0.000000 1.000000 0.000000
vn -0.000000 1.000000 0.000000
vn -0.000000 1.000000 0.000000
vn -0.000000 1.000000 -0.000000
vn -0.000000 1.000000 -0.000000
vn -0.000000 1.000000 -0.000000
vn -0.000000 1.000000 -0.000000
vn 0.000000 1.000000 -0.000000
vn 0.000000 1.000000 -0.000000
vn 0.000000 1.000000 -0.000000
vn 0.000000 1.000000 -0.000000
vn 0.000000 1.000000 -0.000000
vn 0.000000 1.000000 -0.000000
vn 0.000000 1.000000 0.000000
vn 0.000000 1.000000 0.000000
vn 0.000000 1.000000 0.000000
vn 0.000000 1.000000 0.000000
vn 0.000000 1.000000 0.000000
vn 0.000000 1.000000 0.000000
usemtl material
f 1/0/1 2/0/2 3/0/3
f 1/0/1 3/0/3 4/0/4
f 5/0/5 2/0/2 1/0/1
f 5/0/5 6/0/6 2/0/2
f 7/0/7 6/0/6 5/0/5
f 7/0/7 8/0/8 6/0/6
f 9/0/9 8/0/8 7/0/7
f 9/0/9 10/0/10 8/0/8
f 11/0/11 10/0/10 9/0/9
f 11/0/11 12/0/12 10/0/10
f 4/0/4 3/0/3 13/0/13
f 4/0/4 13/0/13 14/0/14
f 14/0/14 13/0/13 15/0/15
f 14/0/14 15/0/15 16/0/16
f 16/0/16 15/0/15 17/0/17
f 16/0/16 17/0/17 18/0/18
f 18/0/18 17/0/17 19/0/19
f 18/0/18 19/0/19 20/0/20
f 20/0/20 19/0/19 21/0/21
f 20/0/20 21/0/21 22/0/22
f 22/0/22 21/0/21 23/0/23
f 22/0/22 23/0/23 24/0/24
f 24/0/24 23/0/23 25/0/25
f 24/0/24 25/0/25 26/0/26
f 26/0/26 25/0/25 27/0/27
f 26/0/26 27/0/27 28/0/28
f 28/0/28 27/0/27 29/0/29
f 28/0/28 29/0/29 30/0/30
f 30/0/30 29/0/29 31/0/31
f 30/0/30 31/0/31 32/0/32
f 32/0/32 31/0/31 33/0/33
f 32/0/32 33/0/33 34/0/34
f 34/0/34 33/0/33 35/0/35
f 34/0/34 35/0/35 36/0/36
f 36/0/36 35/0/35 37/0/37
f 36/0/36 37/0/37 38/0/38
f 38/0/38 37/0/37 39/0/39
f 38/0/38 39/0/39 40/0/40
f 40/0/40 39/0/39 41/0/41
f 40/0/40 41/0/41 42/0/42
f 42/0/42 41/0/41 43/0/43
f 42/0/42 43/0/43 44/0/44
f 44/0/44 43/0/43 45/0/45
f 44/0/44 45/0/45 46/0/46
f 46/0/46 45/0/45 47/0/47
f 46/0/46 47/0/47 48/0/48
f 48/0/48 47/0/47 12/0/12
f 48/0/48 12/0/12 11/0/11
f 49/0/49 50/0/50 51/0/51
f 52/0/52 50/0/50 49/0/49
f 53/0/53 50/0/50 52/0/52
f 54/0/54 50/0/50 53/0/53
f 55/0/55 50/0/50 54/0/54
f 51/0/51 50/0/50 56/0/56
f 56/0/56 50/0/50 57/0/57
f 57/0/57 50/0/50 58/0/58
f 58/0/58 50/0/50 59/0/59
f 59/0/59 50/0/50 60/0/60
f 60/0/60 50/0/50 61/0/61
f 61/0/61 50/0/50 62/0/62
f 62/0/62 50/0/50 63/0/63
f 63/0/63 50/0/50 64/0/64
f 64/0/64 50/0/50 65/0/65
f 65/0/65 50/0/50 66/0/66
f 66/0/66 50/0/50 67/0/67
f 67/0/67 50/0/50 68/0/68
f 68/0/68 50/0/50 69/0/69
f 69/0/69 50/0/50 70/0/70
f 70/0/70 50/0/50 71/0/71
f 71/0/71 50/0/50 72/0/72
f 72/0/72 50/0/50 73/0/73
f 73/0/73 50/0/50 55/0/55
