# 
# Wavefront OBJ file
# Created with Kaydara FBX
# 
mtllib road03_c18.mtl

g Road03_C18
v 5.615420 0.000000 2.998818
v 5.615425 0.000000 13.694228
v 21.392225 0.000000 13.694228
v 21.392225 0.000000 2.998818
v 2.957573 0.000000 2.998809
v 2.957573 0.000000 13.694223
v 40.124233 0.000000 13.694228
v 40.124233 0.000000 2.998818
v 5.615425 0.000000 -2.892656
v 5.615425 0.000000 -15.831474
v 2.957573 0.000000 -15.831474
v 2.957573 0.000000 -2.892656
v 21.392225 0.000000 -2.892656
v 21.392225 0.000000 -15.831474
v 40.124233 0.000000 -2.892656
v 40.124233 0.000000 -15.831435
v -35.837666 0.000000 -55.874470
v -35.837666 0.000000 -15.831435
v 40.124233 0.000000 -55.874470
v -35.837666 0.000000 -2.892656
v -5.385283 0.000000 -2.892656
v -5.385283 0.000000 -15.831474
v -2.933906 0.000000 -2.892656
v -2.933906 0.000000 -15.831474
v -2.933906 0.000000 13.694223
v -2.933906 0.000000 2.998818
v -5.385283 0.000000 2.998818
v -5.385283 0.000000 13.694223
v -35.837666 0.000000 2.998818
v -35.837666 0.000000 13.694223
vt 0.028260 -0.477861
vt 0.028260 -1.619183
vt -2.170179 -1.619183
vt -2.170179 -0.477861
vt 0.398621 -0.477859
vt 0.398621 -1.619183
vt -4.780416 -1.619183
vt -4.780416 -0.477861
vt 0.028260 0.150828
vt 0.028260 1.531548
vt 0.398621 1.531548
vt 0.398621 0.150828
vt -2.170179 0.150828
vt -2.170179 1.531548
vt -4.780416 0.150828
vt -4.780416 1.531548
vt 5.804596 5.804595
vt 5.804596 1.531543
vt -4.780389 5.805144
vt 5.804596 0.150828
vt 1.561168 0.150828
vt 1.561168 1.531548
vt 1.219578 0.150828
vt 1.219578 1.531548
vt 1.219578 -1.619183
vt 1.219578 -0.477861
vt 1.561168 -0.477861
vt 1.561168 -1.619183
vt 5.804596 -0.477861
vt 5.804596 -1.619183
vn 0.000000 1.000000 0.000000
vn 0.000000 1.000000 0.000000
vn 0.000000 1.000000 0.000000
vn 0.000000 1.000000 0.000000
vn 0.000000 1.000000 0.000000
vn 0.000000 1.000000 0.000000
vn 0.000000 1.000000 0.000000
vn 0.000000 1.000000 0.000000
vn 0.000000 1.000000 0.000000
vn 0.000000 1.000000 0.000000
vn 0.000000 1.000000 0.000000
vn 0.000000 1.000000 0.000000
vn 0.000000 1.000000 0.000000
vn 0.000000 1.000000 0.000000
vn 0.000000 1.000000 0.000000
vn 0.000000 1.000000 0.000000
vn 0.000000 1.000000 0.000000
vn 0.000000 1.000000 0.000000
vn 0.000000 1.000000 0.000000
vn 0.000000 1.000000 0.000000
vn 0.000000 1.000000 0.000000
vn 0.000000 1.000000 0.000000
vn 0.000000 1.000000 0.000000
vn 0.000000 1.000000 0.000000
vn 0.000000 1.000000 0.000000
vn 0.000000 1.000000 0.000000
vn 0.000000 1.000000 0.000000
vn 0.000000 1.000000 0.000000
vn 0.000000 1.000000 0.000000
vn 0.000000 1.000000 0.000000
usemtl material
f 1/0/1 2/0/2 3/0/3
f 1/0/1 3/0/3 4/0/4
f 2/0/2 1/0/1 5/0/5
f 2/0/2 5/0/5 6/0/6
f 4/0/4 3/0/3 7/0/7
f 4/0/4 7/0/7 8/0/8
f 9/0/9 10/0/10 11/0/11
f 9/0/9 11/0/11 12/0/12
f 10/0/10 9/0/9 13/0/13
f 10/0/10 13/0/13 14/0/14
f 14/0/14 13/0/13 15/0/15
f 14/0/14 15/0/15 16/0/16
f 17/0/17 18/0/18 16/0/16
f 17/0/17 16/0/16 19/0/19
f 18/0/18 20/0/20 21/0/21
f 18/0/18 21/0/21 22/0/22
f 23/0/23 22/0/22 21/0/21
f 23/0/23 24/0/24 22/0/22
f 25/0/25 26/0/26 27/0/27
f 25/0/25 27/0/27 28/0/28
f 29/0/29 28/0/28 27/0/27
f 29/0/29 30/0/30 28/0/28
