# 
# Wavefront OBJ file
# Created with Kaydara FBX
# 
mtllib road02_c04.mtl

g Road02_C04
v 17.499990 7.000000 92.500008
v 28.999996 7.000000 92.500008
v 28.999996 7.000000 86.250000
v 17.499992 7.000000 86.250000
v 40.500000 7.000000 86.250000
v 40.500000 7.000000 92.500008
v 29.000000 7.000000 79.999985
v 17.499998 7.000000 79.999985
v 40.500000 7.000000 79.999985
v 77.200249 12.999997 40.000000
v 92.225113 13.000000 39.999996
v 92.225113 12.999997 22.500008
v 77.200249 12.999997 22.500010
v 62.200264 12.999998 40.000004
v 77.200249 12.999997 40.000000
v 77.200249 12.999997 22.500010
v 62.200256 12.999998 22.500011
v 47.800007 12.999997 40.000000
v 62.200264 12.999998 40.000004
v 62.200256 12.999998 22.500011
v 47.800007 12.999997 22.500010
v 107.225105 12.999997 39.999992
v 124.999977 12.999995 39.999996
v 124.999977 12.999993 22.500000
v 107.225105 12.999998 22.499994
v 92.225113 13.000000 39.999996
v 107.225105 12.999997 39.999992
v 107.225105 12.999998 22.499994
v 92.225113 12.999997 22.500008
v 79.975143 0.000014 112.499985
v 95.000122 0.000014 112.500053
v 89.795372 0.000014 97.487617
v 79.975143 0.000014 97.487488
v 64.987595 0.000014 112.499985
v 79.975143 0.000014 112.499985
v 79.975143 0.000014 97.487488
v 64.987595 0.000014 97.487488
v 49.987602 0.000014 112.499985
v 64.987595 0.000014 112.499985
v 64.987595 0.000014 97.487488
v 49.987602 0.000014 97.487488
v 37.500004 0.000014 112.499985
v 49.987602 0.000014 112.499985
v 49.987602 0.000014 97.487488
v 37.500004 0.000014 97.487488
v 32.500015 7.499999 55.000008
v 32.500008 7.499999 67.500000
v 47.500004 7.499999 67.500000
v 47.500000 7.499999 55.000008
v 110.018639 2.500010 97.483101
v 107.500877 2.500010 100.000870
v 115.000000 2.500010 107.499977
v 129.658890 2.500010 117.134010
v 127.146461 2.500010 119.646446
v 128.772171 2.500009 98.704597
v 118.783768 2.500010 88.716202
v 138.430237 2.500009 108.362663
v 132.494873 2.500009 94.994858
v 120.814522 2.500010 86.685493
v 122.481140 2.500010 84.981834
v 142.264282 2.500009 104.528610
v 137.798187 2.500009 89.691559
v 147.538162 2.500009 99.254745
v 141.301956 2.500009 86.235336
v 150.929749 2.500009 95.863144
v 127.878738 2.500009 79.817345
v 131.283279 2.500010 76.216682
v 95.000122 0.000014 112.500053
v 102.500008 0.000014 105.000000
v 89.795372 0.000014 97.487617
v 17.500000 12.999990 42.500000
v 17.500000 12.999990 69.999992
v 35.000008 12.999990 69.999992
v 35.000008 12.999990 42.500000
v 17.500000 12.999990 14.999990
v 35.000008 12.999990 14.999990
v -7.499995 12.999990 42.500000
v -7.499995 12.999990 14.999990
v 36.999992 5.000001 93.000000
v 27.249992 5.000001 93.000000
v 27.249992 5.000001 102.500000
v 36.999992 5.000001 102.500000
v 27.249990 5.000001 112.000000
v 36.999992 5.000001 112.000000
v 17.499987 5.000001 112.000000
v 17.499992 5.000001 102.500000
v 17.499994 5.000001 93.000000
v 49.500000 5.000002 153.000000
v 40.249996 5.000002 153.000000
v 40.249996 5.000002 162.500000
v 49.500000 5.000002 162.500000
v 40.249992 5.000002 172.500000
v 49.500000 5.000002 172.500000
v 30.499992 5.000002 172.500000
v 30.499996 5.000002 162.500000
v 30.500000 5.000002 153.000000
v 127.146461 2.500010 119.646446
v 115.000000 2.500010 107.499977
v 110.001778 0.000014 112.499100
v 122.143806 0.000014 124.649117
v 122.143806 0.000014 124.649117
v 110.001778 0.000014 112.499100
v 100.000427 0.000014 122.500450
v 112.146454 0.000014 134.646484
v 122.396561 9.999998 67.396553
v 129.499466 9.999998 60.293640
v 122.396561 9.999998 53.199020
v 139.000580 9.999998 39.941395
v 146.325241 9.999998 43.664364
v 122.396561 9.999998 39.924908
v 122.396561 9.999998 28.156437
v 144.507645 9.999998 28.156437
v 149.154739 9.999998 18.220732
v 170.001419 9.999998 39.065578
v 160.026505 9.999998 43.664234
v 122.396561 9.999998 18.220732
v 170.001801 9.999998 43.664234
v 129.597595 9.999997 60.391758
v 149.432236 9.999998 51.164574
v 134.906158 10.000000 65.690475
v 148.852753 9.999998 56.340847
v 160.026520 9.999998 56.340847
v 160.026520 9.999998 51.164234
v 170.002502 9.999998 56.340847
v 170.002411 9.999998 51.164234
v 147.779526 9.999998 78.573677
v 143.324081 9.999998 74.118233
v 66.499718 5.000002 80.500740
v 66.499702 5.000002 91.551788
v 81.876053 5.000000 91.551796
v 81.876076 5.000001 80.500755
vt 1.179482 -0.057690
vt 0.589744 -0.057688
vt 0.589743 0.262820
vt 1.179483 0.262823
vt 0.000001 0.262828
vt -0.000002 -0.057688
vt 0.589744 0.583337
vt 1.179474 0.583337
vt -0.000002 0.583339
vt 1.000004 1.087138
vt 0.000012 1.087119
vt -0.000005 -0.079587
vt 0.999991 -0.079587
vt 1.000007 1.087079
vt 0.000009 1.087080
vt 0.000008 -0.079587
vt 1.000007 -0.079587
vt 0.958431 1.087085
vt 0.000004 1.087086
vt 0.000005 -0.079580
vt 0.958431 -0.079581
vt 0.999999 1.087076
vt -0.183024 1.087076
vt -0.183024 -0.079590
vt 0.999999 -0.079590
vt 1.000000 1.087076
vt 0.000001 1.087076
vt 0.000000 -0.079590
vt 0.999999 -0.079591
vt 1.000001 0.916990
vt 0.000008 0.916989
vt 0.346412 -0.083335
vt 1.000000 -0.083340
vt 0.999999 0.916998
vt 0.000000 0.916998
vt 0.000001 -0.083337
vt 1.000000 -0.083337
vt 0.999999 0.916998
vt 0.000000 0.916998
vt 0.000001 -0.083337
vt 1.000000 -0.083337
vt 0.831678 0.916998
vt 0.000000 0.916998
vt 0.000001 -0.083337
vt 0.831678 -0.083337
vt 0.999996 0.916665
vt 0.999996 0.083331
vt -0.000003 0.083332
vt -0.000003 0.916665
vt 1.174196 1.849543
vt 1.174204 2.086928
vt 0.467074 2.086745
vt -0.678214 1.849682
vt -0.678260 2.086475
vt 0.232486 1.022948
vt 1.174261 1.023055
vt -0.678143 1.022843
vt 0.231865 0.672565
vt 1.174221 0.831531
vt 1.175959 0.672640
vt -0.678131 0.661389
vt 0.231862 0.172561
vt -0.678115 0.164195
vt 0.229624 -0.155528
vt -0.678104 -0.155547
vt 1.164957 0.174717
vt 1.174203 -0.155508
vt 1.004198 0.549147
vt 1.004068 -0.149539
vt 1.962758 0.092812
vt -0.978711 -0.858576
vt -0.978719 -2.603852
vt -2.089335 -2.603852
vt -2.089343 -0.858606
vt -0.978704 0.886667
vt -2.089335 0.886668
vt 0.607882 -0.858587
vt 0.607882 0.886668
vt 0.000001 0.916666
vt 0.499998 0.916668
vt 0.499995 0.429485
vt -0.000002 0.429490
vt 0.499995 -0.057688
vt -0.000001 -0.057687
vt 0.999993 -0.057690
vt 0.999998 0.429487
vt 0.999998 0.916666
vt 0.025639 0.916665
vt 0.499999 0.916665
vt 0.499996 0.429490
vt 0.025639 0.429490
vt 0.499993 -0.083330
vt 0.025639 -0.083328
vt 0.999995 -0.083331
vt 0.999996 0.429490
vt 0.999997 0.916665
vt 0.032253 1.028634
vt 1.177436 1.028635
vt 1.174178 1.494203
vt 0.029066 1.494677
vt 0.029066 1.494677
vt 1.174178 1.494203
vt 1.174196 2.437246
vt 0.029037 2.437205
vt 2.864949 -1.454720
vt 2.160398 -0.749466
vt 2.866248 -0.043204
vt 1.219905 1.272074
vt 0.491867 0.901172
vt 2.868611 1.276649
vt 2.871101 2.444462
vt 0.674033 2.440676
vt 0.212088 3.424473
vt -1.860142 1.355323
vt -0.869104 0.899837
vt 2.872872 3.427824
vt -1.860384 0.899123
vt 2.150566 -0.759203
vt 0.182366 0.156227
vt 1.623434 -1.285427
vt 0.239567 -0.357518
vt -0.870268 -0.357728
vt -0.869874 0.155725
vt -1.861020 -0.358460
vt -1.860844 0.155097
vt 0.343182 -2.559606
vt 0.787582 -2.121278
vt 0.847528 0.891202
vt 0.847527 0.324487
vt 0.058997 0.324486
vt 0.058998 0.891202
vn 0.000000 1.000000 0.000000
vn 0.000000 1.000000 0.000000
vn 0.000000 1.000000 0.000000
vn 0.000000 1.000000 0.000000
vn 0.000000 1.000000 0.000000
vn 0.000000 1.000000 0.000000
vn 0.000000 1.000000 0.000000
vn 0.000000 1.000000 0.000000
vn 0.000000 1.000000 0.000000
vn 0.000000 1.000000 0.000000
vn 0.000000 1.000000 0.000000
vn 0.000000 1.000000 0.000000
vn 0.000000 1.000000 0.000000
vn 0.000000 1.000000 0.000000
vn 0.000000 1.000000 0.000000
vn 0.000000 1.000000 0.000000
vn 0.000000 1.000000 0.000000
vn 0.000000 1.000000 0.000000
vn 0.000000 1.000000 0.000000
vn 0.000000 1.000000 0.000000
vn 0.000000 1.000000 0.000000
vn 0.000000 1.000000 0.000000
vn 0.000000 1.000000 0.000000
vn 0.000000 1.000000 0.000000
vn 0.000000 1.000000 0.000000
vn 0.000000 1.000000 0.000000
vn 0.000000 1.000000 0.000000
vn 0.000000 1.000000 0.000000
vn 0.000000 1.000000 0.000000
vn 0.000000 1.000000 0.000000
vn 0.000000 1.000000 0.000000
vn 0.000000 1.000000 0.000000
vn 0.000000 1.000000 0.000000
vn 0.000000 1.000000 0.000000
vn 0.000000 1.000000 0.000000
vn 0.000000 1.000000 0.000000
vn 0.000000 1.000000 0.000000
vn 0.000000 1.000000 0.000000
vn 0.000000 1.000000 0.000000
vn 0.000000 1.000000 0.000000
vn 0.000000 1.000000 0.000000
vn 0.000000 1.000000 0.000000
vn 0.000000 1.000000 0.000000
vn 0.000000 1.000000 0.000000
vn 0.000000 1.000000 0.000000
vn 0.000000 1.000000 0.000000
vn 0.000000 1.000000 0.000000
vn 0.000000 1.000000 0.000000
vn 0.000000 1.000000 0.000000
vn 0.000000 1.000000 0.000000
vn 0.000000 1.000000 0.000000
vn 0.000000 1.000000 0.000000
vn 0.000000 1.000000 0.000000
vn 0.000000 1.000000 0.000000
vn 0.000000 1.000000 0.000000
vn 0.000000 1.000000 0.000000
vn 0.000000 1.000000 0.000000
vn 0.000000 1.000000 0.000000
vn 0.000000 1.000000 0.000000
vn 0.000000 1.000000 0.000000
vn 0.000000 1.000000 0.000000
vn 0.000000 1.000000 0.000000
vn 0.000000 1.000000 0.000000
vn 0.000000 1.000000 0.000000
vn 0.000000 1.000000 0.000000
vn 0.000000 1.000000 0.000000
vn 0.000000 1.000000 0.000000
vn 0.000000 1.000000 0.000000
vn 0.000000 1.000000 0.000000
vn 0.000000 1.000000 0.000000
vn 0.000000 1.000000 0.000000
vn 0.000000 1.000000 0.000000
vn 0.000000 1.000000 0.000000
vn 0.000000 1.000000 0.000000
vn 0.000000 1.000000 0.000000
vn 0.000000 1.000000 0.000000
vn 0.000000 1.000000 0.000000
vn 0.000000 1.000000 0.000000
vn 0.000000 1.000000 0.000000
vn 0.000000 1.000000 0.000000
vn 0.000000 1.000000 0.000000
vn 0.000000 1.000000 0.000000
vn 0.000000 1.000000 0.000000
vn 0.000000 1.000000 0.000000
vn 0.000000 1.000000 0.000000
vn 0.000000 1.000000 0.000000
vn 0.000000 1.000000 0.000000
vn 0.000000 1.000000 0.000000
vn 0.000000 1.000000 0.000000
vn 0.000000 1.000000 0.000000
vn 0.000000 1.000000 0.000000
vn 0.000000 1.000000 0.000000
vn 0.000000 1.000000 0.000000
vn 0.000000 1.000000 0.000000
vn 0.000000 1.000000 0.000000
vn 0.000000 1.000000 0.000000
vn -0.235712 0.942823 0.235635
vn -0.235712 0.942823 0.235635
vn -0.235712 0.942823 0.235635
vn -0.235712 0.942823 0.235635
vn 0.000000 1.000000 0.000000
vn 0.000000 1.000000 0.000000
vn 0.000000 1.000000 0.000000
vn 0.000000 1.000000 0.000000
vn 0.000000 1.000000 0.000000
vn 0.000000 1.000000 0.000000
vn 0.000000 1.000000 0.000000
vn 0.000000 1.000000 0.000000
vn 0.000000 1.000000 0.000000
vn 0.000000 1.000000 0.000000
vn 0.000000 1.000000 0.000000
vn 0.000000 1.000000 0.000000
vn 0.000000 1.000000 0.000000
vn 0.000000 1.000000 0.000000
vn 0.000000 1.000000 0.000000
vn 0.000000 1.000000 -0.000000
vn 0.000000 1.000000 0.000000
vn 0.000006 1.000000 0.000008
vn 0.000000 1.000000 -0.000000
vn 0.000000 1.000000 0.000000
vn 0.000000 1.000000 0.000000
vn 0.000000 1.000000 0.000000
vn 0.000000 1.000000 0.000000
vn 0.000000 1.000000 0.000000
vn 0.000000 1.000000 0.000000
vn 0.000000 1.000000 0.000000
vn 0.000000 1.000000 0.000000
vn 0.000000 1.000000 0.000000
vn 0.000000 1.000000 0.000000
vn 0.000000 1.000000 0.000000
vn 0.000000 1.000000 0.000000
usemtl material
f 1/0/1 2/0/2 3/0/3
f 1/0/1 3/0/3 4/0/4
f 2/0/2 5/0/5 3/0/3
f 2/0/2 6/0/6 5/0/5
f 4/0/4 3/0/3 7/0/7
f 5/0/5 7/0/7 3/0/3
f 4/0/4 7/0/7 8/0/8
f 5/0/5 9/0/9 7/0/7
f 10/0/10 11/0/11 12/0/12
f 10/0/10 12/0/12 13/0/13
f 14/0/14 15/0/15 16/0/16
f 14/0/14 16/0/16 17/0/17
f 18/0/18 19/0/19 20/0/20
f 18/0/18 20/0/20 21/0/21
f 22/0/22 23/0/23 24/0/24
f 22/0/22 24/0/24 25/0/25
f 26/0/26 27/0/27 28/0/28
f 26/0/26 28/0/28 29/0/29
f 30/0/30 31/0/31 32/0/32
f 30/0/30 32/0/32 33/0/33
f 34/0/34 35/0/35 36/0/36
f 34/0/34 36/0/36 37/0/37
f 38/0/38 39/0/39 40/0/40
f 38/0/38 40/0/40 41/0/41
f 42/0/42 43/0/43 44/0/44
f 42/0/42 44/0/44 45/0/45
f 46/0/46 47/0/47 48/0/48
f 46/0/46 48/0/48 49/0/49
f 50/0/50 51/0/51 52/0/52
f 53/0/53 50/0/50 52/0/52
f 53/0/53 52/0/52 54/0/54
f 50/0/50 53/0/53 55/0/55
f 55/0/55 56/0/56 50/0/50
f 53/0/53 57/0/57 55/0/55
f 56/0/56 55/0/55 58/0/58
f 59/0/59 56/0/56 58/0/58
f 58/0/58 60/0/60 59/0/59
f 55/0/55 57/0/57 61/0/61
f 55/0/55 61/0/61 58/0/58
f 61/0/61 62/0/62 58/0/58
f 61/0/61 63/0/63 62/0/62
f 63/0/63 64/0/64 62/0/62
f 63/0/63 65/0/65 64/0/64
f 64/0/64 66/0/66 62/0/62
f 64/0/64 67/0/67 66/0/66
f 68/0/68 69/0/69 70/0/70
f 71/0/71 72/0/72 73/0/73
f 71/0/71 73/0/73 74/0/74
f 75/0/75 71/0/71 74/0/74
f 75/0/75 74/0/74 76/0/76
f 77/0/77 71/0/71 75/0/75
f 77/0/77 75/0/75 78/0/78
f 79/0/79 80/0/80 81/0/81
f 79/0/79 81/0/81 82/0/82
f 82/0/82 81/0/81 83/0/83
f 82/0/82 83/0/83 84/0/84
f 81/0/81 85/0/85 83/0/83
f 81/0/81 86/0/86 85/0/85
f 80/0/80 86/0/86 81/0/81
f 80/0/80 87/0/87 86/0/86
f 88/0/88 89/0/89 90/0/90
f 88/0/88 90/0/90 91/0/91
f 91/0/91 90/0/90 92/0/92
f 91/0/91 92/0/92 93/0/93
f 90/0/90 94/0/94 92/0/92
f 90/0/90 95/0/95 94/0/94
f 89/0/89 95/0/95 90/0/90
f 89/0/89 96/0/96 95/0/95
f 97/0/97 98/0/98 99/0/99
f 97/0/97 99/0/99 100/0/100
f 101/0/101 102/0/102 103/0/103
f 101/0/101 103/0/103 104/0/104
f 105/0/105 106/0/106 107/0/107
f 108/0/108 107/0/107 106/0/106
f 108/0/108 106/0/106 109/0/109
f 110/0/110 107/0/107 108/0/108
f 111/0/111 110/0/110 108/0/108
f 111/0/111 108/0/108 112/0/112
f 109/0/109 112/0/112 108/0/108
f 113/0/113 111/0/111 112/0/112
f 112/0/112 114/0/114 113/0/113
f 112/0/112 115/0/115 114/0/114
f 109/0/109 115/0/115 112/0/112
f 113/0/113 116/0/116 111/0/111
f 114/0/114 115/0/115 117/0/117
f 106/0/106 118/0/118 109/0/109
f 119/0/119 120/0/120 121/0/121
f 119/0/119 121/0/121 122/0/122
f 119/0/119 122/0/122 123/0/123
f 124/0/124 123/0/123 122/0/122
f 124/0/124 125/0/125 123/0/123
f 122/0/122 126/0/126 124/0/124
f 122/0/122 127/0/127 126/0/126
f 120/0/120 127/0/127 121/0/121
f 127/0/127 122/0/122 121/0/121
f 128/0/128 129/0/129 130/0/130
f 128/0/128 130/0/130 131/0/131
