# 
# Wavefront OBJ file
# Created with Kaydara FBX
# 
mtllib road02_c04_ref.mtl

g Road02_C04_Ref
v 77.200249 12.999997 57.499992
v 92.225113 12.999998 57.499992
v 92.225113 12.999998 51.783455
v 77.200249 12.999997 51.783455
v 62.200272 12.999998 57.499992
v 77.200249 12.999997 57.499992
v 77.200249 12.999997 51.783455
v 62.200268 12.999998 51.783455
v 92.225113 12.999998 57.499992
v 107.225105 12.999997 57.499992
v 107.225105 12.999997 51.783455
v 92.225113 12.999998 51.783455
v 47.800007 12.999998 57.500000
v 62.200272 12.999998 57.499992
v 62.200268 12.999998 51.783455
v 47.800007 12.999998 51.783455
v 107.225105 12.999997 51.783455
v 107.225105 12.999997 57.499992
v 122.249977 12.999997 57.499992
v 122.249977 12.999997 51.783455
v 122.524155 2.500010 67.457565
v 115.524132 2.500010 67.469383
v 118.104759 2.500009 69.999077
v 119.036797 2.500009 70.956955
v 110.024864 2.500010 70.005814
v 110.024864 2.500010 67.478668
v 95.000000 2.500010 80.000000
v 110.024864 2.500010 79.999992
v 110.024864 2.500009 77.508156
v 95.000000 2.500010 77.508156
v 80.000008 2.500010 80.000000
v 95.000000 2.500010 80.000000
v 95.000000 2.500010 77.508156
v 80.000008 2.500010 77.508156
v 62.500011 4.999991 80.000000
v 77.500000 4.999988 80.000000
v 77.499985 4.999987 77.500000
v 62.500011 4.999991 77.500000
v 62.500000 7.499999 69.997887
v 62.500000 7.499999 67.500000
v 47.500004 7.499999 67.500000
v 32.500008 7.499999 67.500000
v 37.500000 7.499999 70.000000
v 32.500008 7.499999 70.005814
v 110.024864 2.500010 79.999992
v 114.130348 2.500010 79.992134
v 115.008163 2.500009 77.504074
v 112.505753 2.500010 77.508156
v 122.481140 2.500010 84.981834
v 120.814522 2.500010 86.685493
v 122.524155 2.500010 67.457565
v 119.036797 2.500009 70.956955
v 127.878738 2.500009 79.817345
v 131.283279 2.500010 76.216682
v 110.024864 2.500010 70.005814
v 110.024864 2.500010 67.478668
v 95.000000 2.500010 67.500000
v 95.000000 2.500010 70.005814
v 95.000000 2.500010 70.005814
v 95.000000 2.500010 67.500000
v 80.000008 2.500010 67.500000
v 80.000015 2.500010 70.005814
v 77.499985 4.999988 70.000000
v 77.499985 4.999988 67.500000
v 62.500008 4.999991 67.500000
v 62.500008 4.999992 70.000000
v 32.500008 7.499999 70.005814
v 32.500008 7.499999 77.510544
v 37.500000 7.499999 77.500000
v 37.500000 7.499999 70.000000
v 62.499989 7.499999 77.504333
v 37.500000 7.499999 77.500000
v 32.500008 7.499999 77.510544
v 62.499989 7.499999 80.000000
v 32.500008 7.499999 80.000000
v 110.024864 2.500009 77.508156
v 110.024864 2.500010 79.999992
v 112.505753 2.500010 77.508156
v 124.999977 12.999997 45.000008
v 124.999977 12.999995 39.999996
v 122.265572 12.999995 39.999996
v 122.252205 12.999996 44.285061
v 122.249977 12.999997 45.000000
v 107.225105 12.999997 44.285061
v 107.225105 12.999997 39.999992
v 107.225105 12.999997 39.999992
v 92.225113 13.000000 39.999996
v 92.225113 13.000000 44.285061
v 107.225105 12.999997 44.285061
v 92.225113 13.000000 44.285061
v 92.225113 13.000000 39.999996
v 77.200249 12.999997 40.000000
v 77.200249 12.999997 44.285061
v 77.200249 12.999997 44.285061
v 77.200249 12.999997 40.000000
v 62.200264 12.999998 40.000004
v 62.200264 12.999997 44.285061
v 62.200264 12.999997 44.285061
v 62.200264 12.999998 40.000004
v 47.800007 12.999997 40.000000
v 47.800007 12.999998 44.285061
vt 1.000004 2.253751
vt 0.000008 2.253751
vt 0.000021 1.872749
vt 1.000017 1.872752
vt 1.000004 1.087083
vt 0.000006 1.087084
vt 0.000006 0.705984
vt 1.000002 0.705983
vt 0.999988 1.087073
vt -0.000011 1.087073
vt -0.000024 0.705938
vt 0.999975 0.705938
vt 0.958431 1.087084
vt 0.000004 1.087088
vt -0.000003 0.705984
vt 0.958425 0.705980
vt 0.999987 0.705981
vt 0.999995 1.087077
vt 0.000002 1.087078
vt -0.000003 0.705981
vt 0.166730 0.083334
vt 0.633389 0.083334
vt 0.461350 0.252271
vt 0.399216 0.316234
vt 1.000000 0.251810
vt 1.000000 0.083334
vt 1.000000 0.917020
vt 0.000001 0.917736
vt 0.000001 0.751614
vt 1.000000 0.750897
vt 1.000000 0.916666
vt 0.000001 0.916667
vt 0.000001 0.750544
vt 1.000000 0.750544
vt 1.000003 0.916667
vt 0.000003 0.916667
vt 0.000004 0.750001
vt 1.000003 0.750000
vt -0.000001 0.750141
vt -0.000002 0.916664
vt 0.999997 0.916664
vt 1.999995 0.916664
vt 1.666663 0.749998
vt 1.999996 0.749610
vt 0.998152 1.025135
vt 0.804931 0.831154
vt 0.880836 0.672492
vt 0.998639 0.790689
vt 0.175960 0.672660
vt 0.174224 0.831545
vt 1.000043 -0.155487
vt 0.999515 0.173912
vt 0.164929 0.174727
vt 0.174142 -0.155526
vt 0.000000 0.251458
vt 0.000000 0.082982
vt 0.999999 0.083687
vt 1.000000 0.250742
vt 0.000001 0.250388
vt 0.000001 0.083334
vt 1.000000 0.083334
vt 1.000000 0.250388
vt 0.000003 0.250002
vt 0.000001 0.083336
vt 1.000000 0.083335
vt 1.000002 0.250002
vt 1.000000 0.749615
vt 0.999999 0.249302
vt 0.666664 0.250005
vt 0.666666 0.750003
vt -0.041723 0.916009
vt 1.639046 0.916317
vt 1.975199 0.915611
vt -0.041721 0.748223
vt 1.975202 0.748245
vt 0.999999 0.751965
vt 1.000000 0.918087
vt 0.834610 0.752244
vt -0.183023 0.253736
vt -0.183027 -0.079599
vt -0.001038 -0.079597
vt -0.000154 0.206079
vt -0.000006 0.253742
vt 0.999977 0.206083
vt 0.999981 -0.079585
vt -0.000012 -0.079593
vt 0.999987 -0.079593
vt 0.999986 0.206088
vt -0.000013 0.206088
vt 0.000014 1.372751
vt 0.000012 1.087119
vt 1.000004 1.087138
vt 1.000007 1.372765
vt 0.000005 0.206095
vt 0.000005 -0.079583
vt 1.000005 -0.079583
vt 1.000004 0.206095
vt 0.000005 0.206090
vt 0.000005 -0.079577
vt 0.958432 -0.079578
vt 0.958433 0.206088
vn 0.000000 1.000000 0.000000
vn 0.000000 1.000000 0.000000
vn 0.000000 1.000000 0.000000
vn 0.000000 1.000000 0.000000
vn 0.000000 1.000000 0.000000
vn 0.000000 1.000000 0.000000
vn 0.000000 1.000000 0.000000
vn 0.000000 1.000000 0.000000
vn 0.000000 1.000000 0.000000
vn 0.000000 1.000000 0.000000
vn 0.000000 1.000000 0.000000
vn 0.000000 1.000000 0.000000
vn 0.000000 1.000000 0.000000
vn 0.000000 1.000000 0.000000
vn 0.000000 1.000000 0.000000
vn 0.000000 1.000000 0.000000
vn 0.000000 1.000000 0.000000
vn 0.000000 1.000000 0.000000
vn 0.000000 1.000000 0.000000
vn 0.000000 1.000000 0.000000
vn 0.000000 1.000000 0.000000
vn 0.000000 1.000000 0.000000
vn 0.000000 1.000000 0.000000
vn 0.000000 1.000000 0.000000
vn 0.000000 1.000000 0.000000
vn 0.000000 1.000000 0.000000
vn 0.000000 1.000000 0.000000
vn 0.000000 1.000000 0.000000
vn 0.000000 1.000000 0.000000
vn 0.000000 1.000000 0.000000
vn 0.000000 1.000000 0.000000
vn 0.000000 1.000000 0.000000
vn 0.000000 1.000000 0.000000
vn 0.000000 1.000000 0.000000
vn 0.000000 1.000000 0.000000
vn 0.000000 1.000000 0.000000
vn 0.000000 1.000000 0.000000
vn 0.000000 1.000000 0.000000
vn 0.000000 1.000000 0.000000
vn 0.000000 1.000000 0.000000
vn 0.000000 1.000000 0.000000
vn 0.000000 1.000000 0.000000
vn 0.000000 1.000000 0.000000
vn 0.000000 1.000000 0.000000
vn 0.000000 1.000000 0.000000
vn 0.000000 1.000000 0.000000
vn 0.000000 1.000000 0.000000
vn 0.000000 1.000000 0.000000
vn 0.000000 1.000000 0.000000
vn 0.000000 1.000000 0.000000
vn 0.000000 1.000000 0.000000
vn 0.000000 1.000000 0.000000
vn 0.000000 1.000000 0.000000
vn 0.000000 1.000000 0.000000
vn 0.000000 1.000000 0.000000
vn 0.000000 1.000000 0.000000
vn 0.000000 1.000000 0.000000
vn 0.000000 1.000000 0.000000
vn 0.000000 1.000000 0.000000
vn 0.000000 1.000000 0.000000
vn 0.000000 1.000000 0.000000
vn 0.000000 1.000000 0.000000
vn 0.000000 1.000000 0.000000
vn 0.000000 1.000000 0.000000
vn 0.000000 1.000000 0.000000
vn 0.000000 1.000000 0.000000
vn 0.000000 1.000000 0.000000
vn 0.000000 1.000000 0.000000
vn 0.000000 1.000000 0.000000
vn 0.000000 1.000000 0.000000
vn 0.000000 1.000000 0.000000
vn 0.000000 1.000000 0.000000
vn 0.000000 1.000000 0.000000
vn 0.000000 1.000000 0.000000
vn 0.000000 1.000000 0.000000
vn 0.000000 1.000000 0.000000
vn 0.000000 1.000000 0.000000
vn 0.000000 1.000000 0.000000
vn -0.000000 1.000000 -0.000000
vn -0.000000 1.000000 -0.000000
vn -0.000000 1.000000 -0.000000
vn -0.000000 1.000000 -0.000000
vn -0.000000 1.000000 -0.000000
vn 0.000000 1.000000 -0.000000
vn 0.000000 1.000000 -0.000000
vn 0.000000 1.000000 -0.000000
vn 0.000000 1.000000 0.000000
vn 0.000000 1.000000 0.000000
vn 0.000000 1.000000 -0.000000
vn 0.000000 1.000000 0.000000
vn 0.000000 1.000000 0.000000
vn 0.000000 1.000000 0.000000
vn 0.000000 1.000000 0.000000
vn 0.000000 1.000000 0.000000
vn 0.000000 1.000000 0.000000
vn 0.000000 1.000000 0.000000
vn 0.000000 1.000000 0.000000
vn 0.000000 1.000000 0.000000
vn 0.000000 1.000000 0.000000
vn 0.000000 1.000000 0.000000
vn 0.000000 1.000000 0.000000
usemtl material
f 1/0/1 2/0/2 3/0/3
f 1/0/1 3/0/3 4/0/4
f 5/0/5 6/0/6 7/0/7
f 5/0/5 7/0/7 8/0/8
f 9/0/9 10/0/10 11/0/11
f 9/0/9 11/0/11 12/0/12
f 13/0/13 14/0/14 15/0/15
f 13/0/13 15/0/15 16/0/16
f 17/0/17 18/0/18 19/0/19
f 17/0/17 19/0/19 20/0/20
f 21/0/21 22/0/22 23/0/23
f 21/0/21 23/0/23 24/0/24
f 22/0/22 25/0/25 23/0/23
f 22/0/22 26/0/26 25/0/25
f 27/0/27 28/0/28 29/0/29
f 27/0/27 29/0/29 30/0/30
f 31/0/31 32/0/32 33/0/33
f 31/0/31 33/0/33 34/0/34
f 35/0/35 36/0/36 37/0/37
f 35/0/35 37/0/37 38/0/38
f 39/0/39 40/0/40 41/0/41
f 41/0/41 42/0/42 39/0/39
f 42/0/42 43/0/43 39/0/39
f 42/0/42 44/0/44 43/0/43
f 45/0/45 46/0/46 47/0/47
f 45/0/45 47/0/47 48/0/48
f 46/0/46 49/0/49 47/0/47
f 46/0/46 50/0/50 49/0/49
f 51/0/51 52/0/52 53/0/53
f 51/0/51 53/0/53 54/0/54
f 55/0/55 56/0/56 57/0/57
f 55/0/55 57/0/57 58/0/58
f 59/0/59 60/0/60 61/0/61
f 59/0/59 61/0/61 62/0/62
f 63/0/63 64/0/64 65/0/65
f 63/0/63 65/0/65 66/0/66
f 67/0/67 68/0/68 69/0/69
f 67/0/67 69/0/69 70/0/70
f 71/0/71 72/0/72 73/0/73
f 73/0/73 74/0/74 71/0/71
f 73/0/73 75/0/75 74/0/74
f 76/0/76 77/0/77 78/0/78
f 79/0/79 80/0/80 81/0/81
f 81/0/81 82/0/82 79/0/79
f 82/0/82 83/0/83 79/0/79
f 81/0/81 84/0/84 82/0/82
f 81/0/81 85/0/85 84/0/84
f 86/0/86 87/0/87 88/0/88
f 86/0/86 88/0/88 89/0/89
f 90/0/90 91/0/91 92/0/92
f 90/0/90 92/0/92 93/0/93
f 94/0/94 95/0/95 96/0/96
f 94/0/94 96/0/96 97/0/97
f 98/0/98 99/0/99 100/0/100
f 98/0/98 100/0/100 101/0/101
