# 
# Wavefront OBJ file
# Created with Kaydara FBX
# 
mtllib road03_c13_ref.mtl

g Road03_C13_Ref
v 2.316162 0.000000 -2.251250
v 2.316162 0.000000 -15.831474
v -2.292500 0.000000 -15.831474
v -2.292500 0.000000 -2.251250
v 2.316162 0.000000 2.357412
v -2.292500 0.000000 2.357412
v 2.316162 0.000000 14.194214
v -2.292500 0.000000 14.194214
v 2.316162 0.000000 2.357412
v 40.124233 0.000000 2.357412
v 40.124233 0.000000 -2.251260
v 2.316162 0.000000 -2.251260
v -2.292500 0.000000 2.357412
v -2.292500 0.000000 -2.251260
v -35.837696 0.000000 -2.251260
v -35.837696 0.000000 2.357412
vt 0.000075 3.559775
vt 0.000075 6.506169
vt 0.999883 6.506169
vt 0.999883 3.559775
vt 0.000075 2.559863
vt 0.999883 2.559863
vt 0.000075 -0.008277
vt 0.999883 -0.008277
vt 0.000087 -0.008277
vt 0.000159 8.194633
vt 0.999841 8.194633
vt 0.999913 -0.008277
vt 0.000087 -0.008277
vt 0.999913 -0.008277
vt 0.999814 7.269693
vt 0.000186 7.269693
vn 0.000000 1.000000 0.000000
vn 0.000000 1.000000 0.000000
vn 0.000000 1.000000 0.000000
vn 0.000000 1.000000 0.000000
vn 0.000000 1.000000 0.000000
vn 0.000000 1.000000 0.000000
vn 0.000000 1.000000 0.000000
vn 0.000000 1.000000 0.000000
vn 0.000000 1.000000 0.000000
vn 0.000000 1.000000 0.000000
vn 0.000000 1.000000 0.000000
vn 0.000000 1.000000 0.000000
vn 0.000000 1.000000 0.000000
vn 0.000000 1.000000 0.000000
vn 0.000000 1.000000 0.000000
vn 0.000000 1.000000 0.000000
usemtl material
f 1/0/1 2/0/2 3/0/3
f 1/0/1 3/0/3 4/0/4
f 5/0/5 1/0/1 4/0/4
f 5/0/5 4/0/4 6/0/6
f 7/0/7 5/0/5 6/0/6
f 7/0/7 6/0/6 8/0/8
f 9/0/9 10/0/10 11/0/11
f 9/0/9 11/0/11 12/0/12
f 13/0/13 14/0/14 15/0/15
f 13/0/13 15/0/15 16/0/16
