# 
# Wavefront OBJ file
# Created with Kaydara FBX
# 
mtllib road03_c17.mtl

g Road03_C17
v -29.257025 45.157093 -145.604401
v -29.257025 48.450089 -145.604401
v -36.201077 48.929134 -145.605499
v -36.201077 45.159012 -145.605499
v -43.145130 45.158772 -145.606796
v -43.145130 48.928944 -145.606796
v -50.089188 45.159267 -145.607437
v -50.089188 48.929337 -145.607437
v -57.033237 45.159267 -145.607971
v -57.033237 48.929337 -145.607971
v -66.519180 45.159267 -145.607971
v -66.519180 48.929337 -145.607971
v -76.543510 45.159267 -145.607971
v -76.543510 48.929337 -145.607971
v -66.519180 49.295490 -146.045471
v -76.543510 49.295490 -146.045471
v -57.033237 49.295490 -146.045471
v -50.089188 49.295490 -146.044922
v -43.145130 49.294228 -146.044281
v -36.201077 49.294849 -146.042984
v -29.695196 48.812412 -146.041885
v -87.229980 48.929337 -145.607971
v -87.229980 49.295490 -146.045471
v -87.229980 45.159267 -145.607971
v -97.267136 48.929337 -145.607971
v -97.267136 49.295490 -146.045471
v -105.956490 48.929337 -145.607971
v -105.956490 45.159267 -145.607971
v -97.267136 45.159267 -145.607971
v -105.956490 49.295490 -146.045471
v -29.257025 45.157093 -145.604401
v -26.406836 43.669971 -151.525345
v -26.406836 47.440456 -151.525360
v -29.257025 48.450089 -145.604401
v -26.844921 47.803223 -151.525360
v -29.695196 48.812412 -146.041885
v -24.126688 42.466866 -156.422333
v -22.986755 42.045467 -164.081696
v -22.986752 45.815823 -164.081696
v -24.126688 46.557568 -156.422333
v -24.126688 46.557568 -156.422333
v -22.986752 45.815823 -164.081696
v -23.424673 46.179653 -164.081696
v -24.564707 46.920750 -156.422333
v -22.206137 41.443855 -169.983200
v -20.055349 40.307648 -178.521500
v -20.055349 44.077850 -178.521500
v -22.206137 45.214149 -169.983185
v -20.493073 44.442898 -178.521500
v -22.643978 45.578476 -169.983200
v -20.055349 40.307648 -178.521500
v -18.589672 40.308018 -186.432999
v -18.589672 44.078140 -186.432999
v -20.055349 44.077850 -178.521500
v -19.027290 44.443851 -186.432999
v -20.493073 44.442898 -178.521500
v -22.986755 42.045467 -164.081696
v -22.206137 41.443855 -169.983200
v -22.206137 45.214149 -169.983185
v -22.986752 45.815823 -164.081696
v -22.643978 45.578476 -169.983200
v -23.424673 46.179653 -164.081696
v -26.406836 43.669971 -151.525345
v -24.126688 42.466866 -156.422333
v -24.126688 46.557568 -156.422333
v -26.406836 47.440456 -151.525360
v -26.406836 47.440456 -151.525360
v -24.126688 46.557568 -156.422333
v -24.564707 46.920750 -156.422333
v -26.844921 47.803223 -151.525360
v -134.122513 48.929588 -95.648750
v -136.590332 48.929588 -89.197418
v -136.590332 45.159519 -89.197418
v -134.122513 45.159519 -95.648750
v -134.496033 49.295746 -95.876518
v -136.963852 49.295746 -89.425194
v -128.786713 49.295746 -101.543472
v -128.413193 48.929588 -101.315720
v -123.948799 49.295746 -108.974258
v -123.575272 48.929588 -108.746483
v -119.697479 49.295746 -118.500465
v -119.323944 48.929588 -118.272690
v -123.575272 45.159519 -108.746483
v -119.323944 45.159519 -118.272690
v -116.804245 48.929588 -127.823006
v -116.804245 45.159519 -127.823006
v -114.881798 48.929588 -133.751480
v -114.881798 45.159519 -133.751480
v -111.870743 48.929199 -140.647446
v -111.870743 45.159027 -140.647446
v -105.956505 48.929390 -145.607971
v -105.956505 45.159267 -145.607971
v -117.177773 49.295746 -128.050781
v -115.255310 49.295746 -133.979248
v -112.244255 49.294483 -140.875214
v -105.956505 49.295490 -146.045471
v -128.413193 45.159519 -101.315720
v -172.938065 48.929844 -74.711929
v -179.601532 48.929844 -76.530624
v -179.601532 45.159775 -76.530624
v -172.938065 45.159775 -74.711929
v -172.748291 49.296001 -75.106148
v -179.411774 49.296001 -76.924805
v -166.545227 49.296001 -69.984428
v -166.735001 48.929844 -69.590240
v -158.672989 49.296001 -65.903961
v -158.862747 48.929844 -65.509781
v -148.029282 49.296001 -65.601112
v -148.017334 48.929844 -65.163795
v -158.862747 45.159775 -65.509781
v -148.017334 45.159775 -65.163795
v -140.641739 48.929844 -67.977608
v -140.641739 45.159775 -67.977608
v -137.641907 48.929844 -75.544762
v -137.641907 45.159775 -75.544762
v -137.105148 48.929451 -81.495468
v -137.105148 45.159283 -81.495468
v -136.590332 48.929642 -89.197418
v -136.590332 45.159519 -89.197418
v -140.933594 49.296001 -68.303513
v -138.062698 49.296001 -75.664490
v -137.528091 49.294735 -81.383614
v -136.963852 49.295746 -89.425194
v -166.735001 45.159775 -69.590240
vt 0.000000 0.000000
vt 0.000022 0.864903
vt 1.592755 0.864864
vt 1.592755 0.000013
vt 3.185510 0.000027
vt 3.185511 0.864855
vt 4.778266 0.000040
vt 4.778266 0.864845
vt 6.371021 0.000054
vt 6.371021 0.864835
vt 7.963776 0.000067
vt 7.963776 0.864825
vt 9.556531 0.000080
vt 9.556531 0.864815
vt 7.963776 0.995552
vt 9.556531 0.995552
vt 6.371021 0.995552
vt 4.778266 0.995552
vt 3.185510 0.995552
vt 1.592755 0.995552
vt 0.100647 0.995552
vt 11.316867 0.864792
vt 11.316851 0.995552
vt 11.316851 0.000124
vt 13.244968 0.864773
vt 13.244939 0.995552
vt 15.068585 0.864764
vt 15.091699 0.000576
vt 13.244939 0.000158
vt 15.078040 0.995552
vt 0.000000 0.000000
vt -1.354809 -0.000591
vt -1.354849 0.864037
vt 0.000022 0.864903
vt -1.354849 0.995552
vt 0.100647 0.995552
vt 6.867276 -0.001079
vt 5.114695 -0.001843
vt 5.114566 0.862262
vt 6.867202 0.863345
vt 6.867202 0.863345
vt 5.114566 0.862262
vt 5.114426 0.995552
vt 6.867035 0.995552
vt 3.764338 -0.002431
vt 1.810635 -0.003283
vt 1.810407 0.860221
vt 3.764171 0.861428
vt 1.810311 0.995552
vt 3.764046 0.995552
vt 1.810635 -0.003283
vt 0.000353 -0.004072
vt 0.000072 0.859103
vt 1.810407 0.860221
vt 0.000000 0.995552
vt 1.810311 0.995552
vt 5.114695 -0.001843
vt 3.764338 -0.002431
vt 3.764171 0.861428
vt 5.114566 0.862262
vt 3.764046 0.995552
vt 5.114426 0.995552
vt 7.987783 -0.000590
vt 6.867276 -0.001079
vt 6.867202 0.863345
vt 7.987743 0.864037
vt 7.987743 0.864037
vt 6.867202 0.863345
vt 6.867035 0.995552
vt 7.987561 0.995552
vt 12.682056 0.864773
vt 13.830178 0.864764
vt 13.853292 0.000576
vt 12.682027 0.000158
vt 12.682027 0.995552
vt 13.839633 0.995552
vt 11.316851 0.995552
vt 11.316867 0.864792
vt 9.556531 0.995552
vt 9.556531 0.864815
vt 7.963776 0.995552
vt 7.963776 0.864825
vt 9.556531 0.000080
vt 7.963776 0.000067
vt 6.371021 0.864835
vt 6.371021 0.000054
vt 4.778266 0.864845
vt 4.778266 0.000040
vt 3.185511 0.864855
vt 3.185510 0.000027
vt 1.592755 0.864864
vt 1.592755 0.000013
vt 6.371021 0.995552
vt 4.778266 0.995552
vt 3.185510 0.995552
vt 1.592755 0.995552
vt 11.316851 0.000124
vt 12.682056 0.864773
vt 13.830178 0.864764
vt 13.853292 0.000576
vt 12.682027 0.000158
vt 12.682027 0.995552
vt 13.839633 0.995552
vt 11.316851 0.995552
vt 11.316867 0.864792
vt 9.556531 0.995552
vt 9.556531 0.864815
vt 7.963776 0.995552
vt 7.963776 0.864825
vt 9.556531 0.000080
vt 7.963776 0.000067
vt 6.371021 0.864835
vt 6.371021 0.000054
vt 4.778266 0.864845
vt 4.778266 0.000040
vt 3.185511 0.864855
vt 3.185510 0.000027
vt 1.592755 0.864864
vt 1.592755 0.000013
vt 6.371021 0.995552
vt 4.778266 0.995552
vt 3.185510 0.995552
vt 1.592755 0.995552
vt 11.316851 0.000124
vn -0.000159 0.000000 1.000000
vn 0.004168 0.060524 0.998158
vn 0.003762 0.110406 0.993880
vn -0.000173 0.000000 1.000000
vn -0.000138 0.000000 1.000000
vn -0.000135 0.105192 0.994452
vn -0.000084 0.000000 1.000000
vn -0.000078 0.105191 0.994452
vn -0.000033 0.000000 1.000000
vn -0.000033 0.105185 0.994453
vn 0.000000 0.000000 1.000000
vn 0.000000 0.105184 0.994453
vn 0.000000 0.000000 1.000000
vn 0.000000 0.105184 0.994453
vn 0.000000 0.766855 0.641821
vn 0.000000 0.766856 0.641819
vn -0.000021 0.766855 0.641821
vn -0.000008 0.767041 0.641599
vn -0.000066 0.767321 0.641263
vn 0.026670 0.774312 0.632242
vn 0.055731 0.781045 0.621983
vn 0.000000 0.105184 0.994453
vn 0.000000 0.766858 0.641817
vn 0.000000 0.000000 1.000000
vn 0.000000 0.105184 0.994453
vn 0.000000 0.766858 0.641817
vn 0.000000 0.105184 0.994453
vn 0.000000 0.000000 1.000000
vn 0.000000 0.000000 1.000000
vn 0.000000 0.766858 0.641817
vn 0.901040 0.000000 0.433737
vn 0.904078 0.000000 0.427368
vn 0.905472 0.102357 0.411879
vn 0.902180 0.117252 0.415117
vn 0.597685 0.787083 0.152556
vn 0.584389 0.797307 0.150964
vn 0.968104 -0.000000 0.250550
vn 0.990151 -0.000000 0.140004
vn 0.986422 0.099963 0.130306
vn 0.961307 0.094108 0.258908
vn 0.961307 0.094108 0.258908
vn 0.986422 0.099963 0.130306
vn 0.638845 0.769188 0.015066
vn 0.635984 0.766872 0.086206
vn 0.979215 -0.000000 0.202827
vn 0.976965 -0.000000 0.213399
vn 0.973278 0.094931 0.209090
vn 0.977053 0.111238 0.181641
vn 0.638137 0.765355 0.083741
vn 0.639341 0.768186 0.033650
vn 0.976965 -0.000000 0.213399
vn 0.983269 0.000000 0.182159
vn 0.978812 0.095095 0.181342
vn 0.973278 0.094931 0.209090
vn 0.636387 0.762298 0.117960
vn 0.638137 0.765355 0.083741
vn 0.990151 -0.000000 0.140004
vn 0.979215 -0.000000 0.202827
vn 0.977053 0.111238 0.181641
vn 0.986422 0.099963 0.130306
vn 0.639341 0.768186 0.033650
vn 0.638845 0.769188 0.015066
vn 0.904078 0.000000 0.427368
vn 0.968104 -0.000000 0.250550
vn 0.961307 0.094108 0.258908
vn 0.905472 0.102357 0.411879
vn 0.905472 0.102357 0.411879
vn 0.961307 0.094108 0.258908
vn 0.635984 0.766872 0.086206
vn 0.597685 0.787083 0.152556
vn 0.823303 0.114824 0.555867
vn 0.929764 0.095103 0.355660
vn 0.933997 0.000000 0.357280
vn 0.828935 0.000000 0.559345
vn 0.533540 0.766563 0.357373
vn 0.605332 0.761547 0.231558
vn 0.499952 0.763857 0.408130
vn 0.775359 0.099831 0.623580
vn 0.566775 0.766334 0.302487
vn 0.876765 0.101199 0.470151
vn 0.614768 0.759477 0.212732
vn 0.937453 0.099765 0.333510
vn 0.881368 0.000000 0.472430
vn 0.942398 0.000000 0.334494
vn 0.955947 0.105216 0.274034
vn 0.961201 0.000000 0.275848
vn 0.928318 0.104845 0.356698
vn 0.933320 0.000000 0.359046
vn 0.793101 0.110835 0.598921
vn 0.798932 0.000000 0.601422
vn 0.637604 0.119061 0.761108
vn 0.642627 0.000000 0.766179
vn 0.629076 0.755515 0.182923
vn 0.603239 0.762130 0.235075
vn 0.530048 0.751371 0.393054
vn 0.445804 0.716141 0.537030
vn 0.778862 0.000000 0.627196
vn -0.471844 0.114827 0.874173
vn -0.262110 0.095106 0.960340
vn -0.263303 0.000000 0.964713
vn -0.474749 0.000000 0.880121
vn -0.302926 0.766571 0.566220
vn -0.170646 0.761554 0.625232
vn -0.356754 0.763867 0.537805
vn -0.543958 0.099834 0.833152
vn -0.136058 0.766223 0.628005
vn -0.230946 0.093793 0.968435
vn 0.095680 0.756052 0.647480
vn 0.132492 0.092790 0.986831
vn -0.230137 0.000000 0.973158
vn 0.134213 0.000000 0.990953
vn 0.704104 0.086877 0.704763
vn 0.707295 0.000000 0.706918
vn 0.963143 0.093547 0.252200
vn 0.967440 0.000000 0.253100
vn 0.992035 0.100171 0.076374
vn 0.997047 0.000000 0.076796
vn 0.990730 0.118504 0.066416
vn 0.997773 0.000000 0.066694
vn 0.451122 0.775878 0.441023
vn 0.635735 0.754281 0.164016
vn 0.662561 0.747115 0.053214
vn 0.672001 0.739113 0.046116
vn -0.547210 0.000000 0.836995
usemtl material
f 1/0/1 2/0/2 3/0/3
f 1/0/1 3/0/3 4/0/4
f 3/0/3 5/0/5 4/0/4
f 3/0/3 6/0/6 5/0/5
f 6/0/6 7/0/7 5/0/5
f 6/0/6 8/0/8 7/0/7
f 8/0/8 9/0/9 7/0/7
f 8/0/8 10/0/10 9/0/9
f 10/0/10 11/0/11 9/0/9
f 10/0/10 12/0/12 11/0/11
f 12/0/12 13/0/13 11/0/11
f 12/0/12 14/0/14 13/0/13
f 15/0/15 14/0/14 12/0/12
f 15/0/15 16/0/16 14/0/14
f 17/0/17 15/0/15 12/0/12
f 17/0/17 12/0/12 10/0/10
f 18/0/18 17/0/17 10/0/10
f 18/0/18 10/0/10 8/0/8
f 19/0/19 18/0/18 8/0/8
f 19/0/19 8/0/8 6/0/6
f 20/0/20 19/0/19 6/0/6
f 20/0/20 6/0/6 3/0/3
f 2/0/2 20/0/20 3/0/3
f 2/0/2 21/0/21 20/0/20
f 16/0/16 22/0/22 14/0/14
f 16/0/16 23/0/23 22/0/22
f 14/0/14 22/0/22 24/0/24
f 14/0/14 24/0/24 13/0/13
f 23/0/23 25/0/25 22/0/22
f 23/0/23 26/0/26 25/0/25
f 26/0/26 27/0/27 25/0/25
f 25/0/25 27/0/27 28/0/28
f 25/0/25 28/0/28 29/0/29
f 22/0/22 25/0/25 29/0/29
f 22/0/22 29/0/29 24/0/24
f 26/0/26 30/0/30 27/0/27
f 31/0/31 32/0/32 33/0/33
f 31/0/31 33/0/33 34/0/34
f 34/0/34 33/0/33 35/0/35
f 34/0/34 35/0/35 36/0/36
f 37/0/37 38/0/38 39/0/39
f 37/0/37 39/0/39 40/0/40
f 41/0/41 42/0/42 43/0/43
f 41/0/41 43/0/43 44/0/44
f 45/0/45 46/0/46 47/0/47
f 45/0/45 47/0/47 48/0/48
f 48/0/48 47/0/47 49/0/49
f 48/0/48 49/0/49 50/0/50
f 51/0/51 52/0/52 53/0/53
f 51/0/51 53/0/53 54/0/54
f 54/0/54 53/0/53 55/0/55
f 54/0/54 55/0/55 56/0/56
f 57/0/57 58/0/58 59/0/59
f 57/0/57 59/0/59 60/0/60
f 60/0/60 59/0/59 61/0/61
f 60/0/60 61/0/61 62/0/62
f 63/0/63 64/0/64 65/0/65
f 63/0/63 65/0/65 66/0/66
f 67/0/67 68/0/68 69/0/69
f 67/0/67 69/0/69 70/0/70
f 71/0/71 72/0/72 73/0/73
f 71/0/71 73/0/73 74/0/74
f 75/0/75 72/0/72 71/0/71
f 75/0/75 76/0/76 72/0/72
f 77/0/77 75/0/75 71/0/71
f 77/0/77 71/0/71 78/0/78
f 78/0/78 71/0/71 74/0/74
f 79/0/79 77/0/77 78/0/78
f 79/0/79 78/0/78 80/0/80
f 81/0/81 79/0/79 80/0/80
f 81/0/81 80/0/80 82/0/82
f 82/0/82 80/0/80 83/0/83
f 82/0/82 83/0/83 84/0/84
f 85/0/85 82/0/82 84/0/84
f 85/0/85 84/0/84 86/0/86
f 87/0/87 85/0/85 86/0/86
f 87/0/87 86/0/86 88/0/88
f 89/0/89 87/0/87 88/0/88
f 89/0/89 88/0/88 90/0/90
f 91/0/91 89/0/89 90/0/90
f 91/0/91 90/0/90 92/0/92
f 93/0/93 81/0/81 82/0/82
f 93/0/93 82/0/82 85/0/85
f 94/0/94 93/0/93 85/0/85
f 94/0/94 85/0/85 87/0/87
f 95/0/95 94/0/94 87/0/87
f 95/0/95 87/0/87 89/0/89
f 96/0/96 95/0/95 89/0/89
f 96/0/96 89/0/89 91/0/91
f 80/0/80 97/0/97 83/0/83
f 80/0/80 78/0/78 97/0/97
f 78/0/78 74/0/74 97/0/97
f 98/0/98 99/0/99 100/0/100
f 98/0/98 100/0/100 101/0/101
f 102/0/102 99/0/99 98/0/98
f 102/0/102 103/0/103 99/0/99
f 104/0/104 102/0/102 98/0/98
f 104/0/104 98/0/98 105/0/105
f 105/0/105 98/0/98 101/0/101
f 106/0/106 104/0/104 105/0/105
f 106/0/106 105/0/105 107/0/107
f 108/0/108 106/0/106 107/0/107
f 108/0/108 107/0/107 109/0/109
f 109/0/109 107/0/107 110/0/110
f 109/0/109 110/0/110 111/0/111
f 112/0/112 109/0/109 111/0/111
f 112/0/112 111/0/111 113/0/113
f 114/0/114 112/0/112 113/0/113
f 114/0/114 113/0/113 115/0/115
f 116/0/116 114/0/114 115/0/115
f 116/0/116 115/0/115 117/0/117
f 118/0/118 116/0/116 117/0/117
f 118/0/118 117/0/117 119/0/119
f 120/0/120 108/0/108 109/0/109
f 120/0/120 109/0/109 112/0/112
f 121/0/121 120/0/120 112/0/112
f 121/0/121 112/0/112 114/0/114
f 122/0/122 121/0/121 114/0/114
f 122/0/122 114/0/114 116/0/116
f 123/0/123 122/0/122 116/0/116
f 123/0/123 116/0/116 118/0/118
f 107/0/107 124/0/124 110/0/110
f 107/0/107 105/0/105 124/0/124
f 105/0/105 101/0/101 124/0/124
