# 
# Wavefront OBJ file
# Created with Kaydara FBX
# 
mtllib s01_inside2_c01_motion03.mtl

g S01_Inside2_C01_Motion03
v 0.000000 0.204050 -5.303164
v 0.000000 -0.204052 -5.303160
v -1.638770 -0.204050 -5.043608
v -1.638770 0.204050 -5.043607
v -3.117119 -0.204052 -4.290348
v -3.117119 0.204048 -4.290347
v -4.290351 -0.204049 -3.117121
v -4.290351 0.204050 -3.117120
v -5.043608 -0.204050 -1.638765
v -5.043608 0.204049 -1.638765
v -5.303164 -0.204050 0.000004
v -5.303164 0.204049 0.000004
v -5.043608 -0.204050 1.638771
v -5.043608 0.204049 1.638772
v -4.290347 -0.204049 3.117123
v -4.290347 0.204051 3.117124
v -3.117119 -0.204051 4.290353
v -3.117119 0.204049 4.290353
v -1.638765 -0.204049 5.043610
v -1.638765 0.204051 5.043611
v 0.000000 0.204052 5.303162
v 0.000000 -0.204052 5.303164
v 0.000000 0.204050 -5.303164
v 1.638770 -0.204050 -5.043608
v 0.000000 -0.204052 -5.303160
v 1.638770 0.204050 -5.043607
v 3.117119 -0.204052 -4.290348
v 3.117119 0.204048 -4.290347
v 4.290351 -0.204049 -3.117121
v 4.290351 0.204050 -3.117120
v 5.043608 -0.204050 -1.638765
v 5.043608 0.204049 -1.638765
v 5.303164 -0.204050 0.000004
v 5.303164 0.204049 0.000004
v 5.043608 -0.204050 1.638771
v 5.043608 0.204049 1.638772
v 4.290347 -0.204049 3.117123
v 4.290347 0.204051 3.117124
v 3.117119 -0.204051 4.290353
v 3.117119 0.204049 4.290353
v 1.638765 -0.204049 5.043610
v 1.638765 0.204051 5.043611
v 0.000000 0.204052 5.303162
v 0.000000 -0.204052 5.303164
vt 0.233552 0.718227
vt 0.233552 0.694171
vt 0.276941 0.694173
vt 0.276941 0.718228
vt 0.321658 0.694174
vt 0.321657 0.718229
vt 0.367739 0.694174
vt 0.367739 0.718230
vt 0.414853 0.694174
vt 0.414853 0.718230
vt 0.462382 0.694174
vt 0.462382 0.718229
vt 0.509606 0.694174
vt 0.509606 0.718229
vt 0.555922 0.694174
vt 0.555922 0.718229
vt 0.601017 0.694174
vt 0.601017 0.718230
vt 0.644940 0.694175
vt 0.644940 0.718231
vt 0.688038 0.718232
vt 0.688038 0.694176
vt 0.688038 0.718227
vt 0.644649 0.694173
vt 0.688038 0.694171
vt 0.644650 0.718228
vt 0.599932 0.694174
vt 0.599933 0.718229
vt 0.553851 0.694174
vt 0.553851 0.718230
vt 0.506737 0.694174
vt 0.506737 0.718230
vt 0.459208 0.694174
vt 0.459208 0.718229
vt 0.411984 0.694174
vt 0.411984 0.718229
vt 0.365668 0.694174
vt 0.365668 0.718229
vt 0.320573 0.694174
vt 0.320573 0.718230
vt 0.276650 0.694175
vt 0.276650 0.718231
vt 0.233552 0.718232
vt 0.233552 0.694176
vn 0.000000 0.000000 -1.000000
vn 0.000000 0.000000 -1.000000
vn -0.309017 0.000000 -0.951056
vn -0.309017 0.000000 -0.951056
vn -0.587785 0.000000 -0.809017
vn -0.587785 0.000000 -0.809017
vn -0.809017 0.000000 -0.587785
vn -0.809017 0.000000 -0.587785
vn -0.951057 0.000000 -0.309017
vn -0.951057 0.000000 -0.309017
vn -1.000000 0.000000 0.000000
vn -1.000000 0.000000 0.000000
vn -0.951056 0.000000 0.309017
vn -0.951056 0.000000 0.309017
vn -0.809017 0.000000 0.587786
vn -0.809017 0.000000 0.587786
vn -0.587785 0.000000 0.809017
vn -0.587785 0.000000 0.809017
vn -0.309016 0.000000 0.951057
vn -0.309016 0.000000 0.951057
vn 0.000000 0.000000 1.000000
vn 0.000000 0.000000 1.000000
vn 0.000000 0.000000 -1.000000
vn 0.309017 0.000000 -0.951056
vn 0.000000 0.000000 -1.000000
vn 0.309017 0.000000 -0.951056
vn 0.587785 0.000000 -0.809017
vn 0.587785 0.000000 -0.809017
vn 0.809017 0.000000 -0.587785
vn 0.809017 0.000000 -0.587785
vn 0.951057 0.000000 -0.309017
vn 0.951057 0.000000 -0.309017
vn 1.000000 0.000000 0.000000
vn 1.000000 0.000000 0.000000
vn 0.951056 0.000000 0.309017
vn 0.951056 0.000000 0.309017
vn 0.809017 0.000000 0.587786
vn 0.809017 0.000000 0.587786
vn 0.587785 0.000000 0.809017
vn 0.587785 0.000000 0.809017
vn 0.309016 0.000000 0.951057
vn 0.309016 0.000000 0.951057
vn 0.000000 0.000000 1.000000
vn 0.000000 0.000000 1.000000
usemtl material
f 1/0/1 2/0/2 3/0/3
f 3/0/3 4/0/4 1/0/1
f 4/0/4 3/0/3 5/0/5
f 5/0/5 6/0/6 4/0/4
f 6/0/6 5/0/5 7/0/7
f 7/0/7 8/0/8 6/0/6
f 8/0/8 7/0/7 9/0/9
f 9/0/9 10/0/10 8/0/8
f 10/0/10 9/0/9 11/0/11
f 11/0/11 12/0/12 10/0/10
f 12/0/12 11/0/11 13/0/13
f 13/0/13 14/0/14 12/0/12
f 14/0/14 13/0/13 15/0/15
f 15/0/15 16/0/16 14/0/14
f 16/0/16 15/0/15 17/0/17
f 17/0/17 18/0/18 16/0/16
f 18/0/18 17/0/17 19/0/19
f 19/0/19 20/0/20 18/0/18
f 21/0/21 20/0/20 19/0/19
f 19/0/19 22/0/22 21/0/21
f 23/0/23 24/0/24 25/0/25
f 24/0/24 23/0/23 26/0/26
f 26/0/26 27/0/27 24/0/24
f 27/0/27 26/0/26 28/0/28
f 28/0/28 29/0/29 27/0/27
f 29/0/29 28/0/28 30/0/30
f 30/0/30 31/0/31 29/0/29
f 31/0/31 30/0/30 32/0/32
f 32/0/32 33/0/33 31/0/31
f 33/0/33 32/0/32 34/0/34
f 34/0/34 35/0/35 33/0/33
f 35/0/35 34/0/34 36/0/36
f 36/0/36 37/0/37 35/0/35
f 37/0/37 36/0/36 38/0/38
f 38/0/38 39/0/39 37/0/37
f 39/0/39 38/0/38 40/0/40
f 40/0/40 41/0/41 39/0/39
f 41/0/41 40/0/40 42/0/42
f 43/0/43 41/0/41 42/0/42
f 41/0/41 43/0/43 44/0/44
