# 
# Wavefront OBJ file
# Created with Kaydara FBX
# 
mtllib s02_library_floor_02.mtl

g S02_Library_Floor_02
v 25.000000 1.000001 -40.000000
v 25.000000 1.000001 -50.000000
v 15.000000 1.000001 -50.000000
v 15.000000 1.000001 -40.000000
v 5.000000 1.000001 -60.000000
v 5.000000 1.000001 -70.000000
v -5.000000 1.000001 -70.000000
v -5.000000 1.000001 -60.000000
v -5.000000 1.000001 -60.000000
v -5.000000 1.000001 -70.000000
v -15.000000 1.000001 -60.000000
v -15.000000 1.000001 -40.000000
v -15.000000 1.000001 -50.000000
v -25.000000 1.000001 -50.000000
v -25.000000 1.000001 -40.000000
v 5.000000 1.000000 -20.000000
v 5.000000 1.000001 -30.000000
v -5.000000 1.000001 -30.000000
v -5.000000 1.000000 -20.000000
v 15.000000 1.000001 -30.000000
v 5.000000 1.000001 -30.000000
v 5.000000 1.000000 -20.000000
v 25.000000 1.000001 -40.000000
v 15.000000 1.000001 -40.000000
v 15.000000 1.000001 -30.000000
v 25.000000 1.000001 -50.000000
v 15.000000 1.000001 -60.000000
v 15.000000 1.000001 -50.000000
v -15.000000 1.000001 -50.000000
v -15.000000 1.000001 -60.000000
v -25.000000 1.000001 -50.000000
v -15.000000 1.000001 -30.000000
v -15.000000 1.000001 -40.000000
v -25.000000 1.000001 -40.000000
v -5.000000 1.000000 -20.000000
v -5.000000 1.000001 -30.000000
v -15.000000 1.000001 -30.000000
v 15.000000 1.000001 -60.000000
v 5.000000 1.000001 -70.000000
v 5.000000 1.000001 -60.000000
v 15.000000 1.000001 -50.000000
v 10.121300 1.000001 -51.504799
v 10.944000 1.000001 -49.998192
v 15.000000 1.000001 -60.000000
v 9.092600 1.000001 -52.879002
v 7.878800 1.000001 -54.092796
v 6.504600 1.000001 -55.121498
v 5.000000 1.000001 -60.000000
v 4.998000 1.000001 -55.944199
v 15.000000 1.000001 -50.000000
v 10.944000 1.000001 -49.998192
v 11.543899 1.000001 -48.389793
v 11.908800 1.000001 -46.712391
v 12.031199 1.000001 -45.000198
v 15.000000 1.000001 -40.000000
v 11.908800 1.000001 -43.287998
v 11.543899 1.000001 -41.610600
v 10.944000 1.000001 -40.002300
v 15.000000 1.000001 -30.000000
v 15.000000 1.000001 -40.000000
v 10.121300 1.000001 -38.495598
v 9.092600 1.000001 -37.121399
v 7.878800 1.000001 -35.907600
v 6.504600 1.000001 -34.878899
v 10.944000 1.000001 -40.002300
v 5.000000 1.000001 -30.000000
v 4.998000 1.000001 -34.056198
v 5.000000 1.000001 -30.000000
v 4.998000 1.000001 -34.056198
v 3.389600 1.000001 -33.456299
v 1.712200 1.000001 -33.091400
v 0.000000 1.000001 -32.969002
v -5.000000 1.000001 -30.000000
v -1.712200 1.000001 -33.091400
v -3.389600 1.000001 -33.456299
v -4.998000 1.000001 -34.056198
v -6.504600 1.000001 -34.878899
v -7.878800 1.000001 -35.907600
v -15.000000 1.000001 -30.000000
v -9.092600 1.000001 -37.121399
v -5.000000 1.000001 -30.000000
v -4.998000 1.000001 -34.056198
v -10.121300 1.000001 -38.495598
v -15.000000 1.000001 -40.000000
v -10.944000 1.000001 -40.002300
v -15.000000 1.000001 -40.000000
v -10.944000 1.000001 -40.002300
v -11.543899 1.000001 -41.610600
v -11.908800 1.000001 -43.287998
v -12.031199 1.000001 -45.000198
v -15.000000 1.000001 -50.000000
v -11.908800 1.000001 -46.712391
v -11.543899 1.000001 -48.389793
v -10.944000 1.000001 -49.998192
v -15.000000 1.000001 -60.000000
v -10.121300 1.000001 -51.504799
v -9.092600 1.000001 -52.879002
v -7.878800 1.000001 -54.092796
v -15.000000 1.000001 -50.000000
v -6.504600 1.000001 -55.121498
v -5.000000 1.000001 -60.000000
v -4.998000 1.000001 -55.944199
v -10.944000 1.000001 -49.998192
v -5.000000 1.000001 -60.000000
v -4.998000 1.000001 -55.944199
v -3.389600 1.000001 -56.544102
v -1.712200 1.000001 -56.908993
v 0.000000 1.000001 -57.031502
v 5.000000 1.000001 -60.000000
v 1.712200 1.000001 -56.908993
v 3.389600 1.000001 -56.544102
v 4.998000 1.000001 -55.944199
v 2.453900 1.000001 -50.373501
v 1.664200 1.000001 -50.667992
v -1.664200 1.000001 -50.667992
v -2.453900 1.000001 -50.373501
v 3.154761 1.000001 -50.000000
v -3.154761 1.000001 -50.000000
v -0.840700 1.000001 -50.847191
v 0.840700 1.000001 -50.847191
v 0.000000 1.000001 -50.907299
v -5.000000 1.000001 -41.845375
v -5.000000 1.000001 -48.155022
v -5.373300 1.000001 -47.454102
v -5.373300 1.000001 -42.546299
v -5.667799 1.000001 -43.335995
v -5.667799 1.000001 -46.664398
v -5.847000 1.000001 -44.159599
v -5.847000 1.000001 -45.840897
v -5.907100 1.000001 -45.000198
v 3.152264 1.000001 -40.000000
v -3.152264 1.000001 -40.000000
v -2.453900 1.000001 -39.626999
v 2.453900 1.000001 -39.626999
v 1.664200 1.000001 -39.332401
v -1.664200 1.000001 -39.332401
v 0.840700 1.000001 -39.153301
v -0.840700 1.000001 -39.153301
v 0.000000 1.000001 -39.093102
v 5.000000 1.000001 -48.154949
v 5.000000 1.000001 -41.845448
v 5.373300 1.000001 -42.546299
v 5.373300 1.000001 -47.454102
v 5.667799 1.000001 -46.664398
v 5.667799 1.000001 -43.335995
v 5.847000 1.000001 -45.840897
v 5.847000 1.000001 -44.159599
v 5.907100 1.000001 -45.000198
v 5.000000 1.000001 -41.845448
v 5.000000 1.000001 -48.154949
v 4.464300 1.000001 -48.868500
v 4.464300 1.000001 -41.131893
v 3.868300 1.000001 -40.535900
v 3.868300 1.000001 -49.464500
v -3.868300 1.000001 -40.535900
v 3.152264 1.000001 -40.000000
v -3.152264 1.000001 -40.000000
v -3.868300 1.000001 -49.464500
v -3.154761 1.000001 -50.000000
v 3.154761 1.000001 -50.000000
v -4.464300 1.000001 -41.131893
v -4.464300 1.000001 -48.868500
v -5.000000 1.000001 -41.845375
v -5.000000 1.000001 -48.155022
vt -0.499000 -0.499000
vt -0.499000 1.499000
vt 1.499000 1.499000
vt 1.499000 -0.499000
vt -0.499000 -0.499000
vt -0.499000 1.499000
vt 1.499000 1.499000
vt 1.499000 -0.499000
vt -0.499000 -0.499000
vt -0.499000 1.499000
vt 1.499000 -0.499000
vt -0.499000 -0.499000
vt -0.499000 1.499000
vt 1.499000 1.499000
vt 1.499000 -0.499000
vt -0.499000 -0.499000
vt -0.499000 1.499000
vt 1.499000 1.499000
vt 1.499000 -0.499000
vt -0.499000 1.499000
vt 1.499000 1.499000
vt 1.499000 -0.499000
vt -0.499000 1.499000
vt 1.499000 1.499000
vt 1.499000 -0.499000
vt -0.499000 -0.499000
vt 1.499000 1.499000
vt 1.499000 -0.499000
vt -0.499000 -0.499000
vt -0.499000 1.499000
vt 1.499000 -0.499000
vt -0.499000 -0.499000
vt -0.499000 1.499000
vt 1.499000 1.499000
vt -0.499000 -0.499000
vt -0.499000 1.499000
vt 1.499000 1.499000
vt -0.499000 -0.499000
vt 1.499000 1.499000
vt 1.499000 -0.499000
vt -0.499000 -0.499000
vt 0.475764 -0.198341
vt 0.311389 -0.499361
vt -0.499000 1.499000
vt 0.681298 0.076225
vt 0.923816 0.318741
vt 1.198381 0.524275
vt 1.499000 1.499000
vt 1.499400 0.688651
vt -0.499000 1.499000
vt 0.311389 1.498639
vt 0.191529 1.177281
vt 0.118622 0.842136
vt 0.094166 0.500040
vt -0.499000 -0.499000
vt 0.118622 0.157942
vt 0.191529 -0.177202
vt 0.311389 -0.498541
vt -0.499000 -0.499000
vt -0.499000 1.499000
vt 0.475764 1.198420
vt 0.681298 0.923855
vt 0.923816 0.681338
vt 1.198381 0.475804
vt 0.311389 1.499459
vt 1.499000 -0.499000
vt 1.499399 0.311428
vt -0.499000 -0.499000
vt -0.498601 0.311429
vt -0.177242 0.191569
vt 0.157902 0.118662
vt 0.500000 0.094206
vt 1.499000 -0.499000
vt 0.842098 0.118662
vt 1.177242 0.191568
vt 1.498600 0.311428
vt -0.198381 0.475804
vt 0.076184 0.681339
vt 1.499000 -0.499000
vt 0.318701 0.923855
vt -0.499000 -0.499000
vt -0.499400 0.311428
vt 0.524236 1.198421
vt 1.499000 1.499000
vt 0.688611 1.499460
vt 1.499000 -0.499000
vt 0.688611 -0.498540
vt 0.808471 -0.177202
vt 0.881378 0.157942
vt 0.905834 0.500040
vt 1.499000 1.499000
vt 0.881378 0.842136
vt 0.808471 1.177281
vt 0.688611 1.498639
vt 1.499000 1.499000
vt 0.524236 -0.198341
vt 0.318701 0.076225
vt 0.076184 0.318741
vt 1.499000 -0.499000
vt -0.198381 0.524275
vt -0.499000 1.499000
vt -0.499400 0.688651
vt 0.688611 -0.499361
vt 1.499000 1.499000
vt 1.498600 0.688651
vt 1.177242 0.808512
vt 0.842098 0.881417
vt 0.500000 0.905895
vt -0.499000 1.499000
vt 0.157902 0.881417
vt -0.177242 0.808511
vt -0.498600 0.688651
vt 0.009711 -0.424374
vt 0.167493 -0.365535
vt 0.832507 -0.365535
vt 0.990289 -0.424375
vt -0.130321 -0.499000
vt 1.130321 -0.499000
vt 0.667972 -0.329731
vt 0.332028 -0.329731
vt 0.500000 -0.317722
vt -0.499000 -0.130293
vt -0.499000 1.130374
vt -0.424415 0.990330
vt -0.424415 0.009751
vt -0.365574 0.167532
vt -0.365574 0.832547
vt -0.329769 0.332088
vt -0.329769 0.668011
vt -0.317761 0.500040
vt -0.129823 1.498999
vt 1.129822 1.499000
vt 0.990289 1.424475
vt 0.009711 1.424474
vt 0.167493 1.365614
vt 0.832507 1.365614
vt 0.332028 1.329830
vt 0.667972 1.329830
vt 0.500000 1.317801
vt 1.499000 1.130359
vt 1.499000 -0.130279
vt 1.424415 0.009751
vt 1.424415 0.990330
vt 1.365574 0.832547
vt 1.365574 0.167533
vt 1.329769 0.668012
vt 1.329769 0.332088
vt 1.317762 0.500040
vt -0.499000 -0.130279
vt -0.499000 1.130359
vt -0.391967 1.272926
vt -0.391967 -0.272847
vt -0.272886 -0.391927
vt -0.272886 1.392007
vt 1.272886 -0.391927
vt -0.129822 -0.499000
vt 1.129822 -0.499000
vt 1.272886 1.392007
vt 1.130321 1.499000
vt -0.130321 1.499000
vt 1.391967 -0.272847
vt 1.391967 1.272926
vt 1.499000 -0.130294
vt 1.499000 1.130374
vn 0.000000 1.000000 0.000000
vn 0.000000 1.000000 0.000000
vn 0.000000 1.000000 0.000000
vn 0.000000 1.000000 0.000000
vn 0.000000 1.000000 0.000000
vn 0.000000 1.000000 0.000000
vn 0.000000 1.000000 0.000000
vn 0.000000 1.000000 0.000000
vn 0.000000 1.000000 0.000000
vn 0.000000 1.000000 0.000000
vn 0.000000 1.000000 0.000000
vn 0.000000 1.000000 0.000000
vn 0.000000 1.000000 0.000000
vn 0.000000 1.000000 0.000000
vn 0.000000 1.000000 0.000000
vn 0.000000 1.000000 0.000000
vn 0.000000 1.000000 0.000000
vn 0.000000 1.000000 0.000000
vn 0.000000 1.000000 0.000000
vn 0.000000 1.000000 0.000000
vn 0.000000 1.000000 0.000000
vn 0.000000 1.000000 0.000000
vn 0.000000 1.000000 0.000000
vn 0.000000 1.000000 0.000000
vn 0.000000 1.000000 0.000000
vn 0.000000 1.000000 0.000000
vn 0.000000 1.000000 0.000000
vn 0.000000 1.000000 0.000000
vn 0.000000 1.000000 0.000000
vn 0.000000 1.000000 0.000000
vn 0.000000 1.000000 0.000000
vn 0.000000 1.000000 0.000000
vn 0.000000 1.000000 0.000000
vn 0.000000 1.000000 0.000000
vn 0.000000 1.000000 0.000000
vn 0.000000 1.000000 0.000000
vn 0.000000 1.000000 0.000000
vn 0.000000 1.000000 0.000000
vn 0.000000 1.000000 0.000000
vn 0.000000 1.000000 0.000000
vn 0.000000 1.000000 0.000000
vn 0.000000 1.000000 0.000000
vn 0.000000 1.000000 0.000000
vn 0.000000 1.000000 0.000000
vn 0.000000 1.000000 0.000000
vn 0.000000 1.000000 0.000000
vn 0.000000 1.000000 0.000000
vn 0.000000 1.000000 0.000000
vn 0.000000 1.000000 0.000000
vn 0.000000 1.000000 0.000000
vn 0.000000 1.000000 0.000000
vn 0.000000 1.000000 0.000000
vn 0.000000 1.000000 0.000000
vn 0.000000 1.000000 0.000000
vn 0.000000 1.000000 0.000000
vn 0.000000 1.000000 0.000000
vn 0.000000 1.000000 0.000000
vn 0.000000 1.000000 0.000000
vn 0.000000 1.000000 0.000000
vn 0.000000 1.000000 0.000000
vn 0.000000 1.000000 0.000000
vn 0.000000 1.000000 0.000000
vn 0.000000 1.000000 0.000000
vn 0.000000 1.000000 0.000000
vn 0.000000 1.000000 0.000000
vn 0.000000 1.000000 0.000000
vn 0.000000 1.000000 0.000000
vn 0.000000 1.000000 0.000000
vn 0.000000 1.000000 0.000000
vn 0.000000 1.000000 0.000000
vn 0.000000 1.000000 0.000000
vn 0.000000 1.000000 0.000000
vn 0.000000 1.000000 0.000000
vn 0.000000 1.000000 0.000000
vn 0.000000 1.000000 0.000000
vn 0.000000 1.000000 0.000000
vn 0.000000 1.000000 0.000000
vn 0.000000 1.000000 0.000000
vn 0.000000 1.000000 0.000000
vn 0.000000 1.000000 0.000000
vn 0.000000 1.000000 0.000000
vn 0.000000 1.000000 0.000000
vn 0.000000 1.000000 0.000000
vn 0.000000 1.000000 0.000000
vn 0.000000 1.000000 0.000000
vn 0.000000 1.000000 0.000000
vn 0.000000 1.000000 0.000000
vn 0.000000 1.000000 0.000000
vn 0.000000 1.000000 0.000000
vn 0.000000 1.000000 0.000000
vn 0.000000 1.000000 0.000000
vn 0.000000 1.000000 0.000000
vn 0.000000 1.000000 0.000000
vn 0.000000 1.000000 0.000000
vn 0.000000 1.000000 0.000000
vn 0.000000 1.000000 0.000000
vn 0.000000 1.000000 0.000000
vn 0.000000 1.000000 0.000000
vn 0.000000 1.000000 0.000000
vn 0.000000 1.000000 0.000000
vn 0.000000 1.000000 0.000000
vn 0.000000 1.000000 0.000000
vn 0.000000 1.000000 0.000000
vn 0.000000 1.000000 0.000000
vn 0.000000 1.000000 0.000000
vn 0.000000 1.000000 0.000000
vn 0.000000 1.000000 0.000000
vn 0.000000 1.000000 0.000000
vn 0.000000 1.000000 0.000000
vn 0.000000 1.000000 0.000000
vn 0.000000 1.000000 0.000000
vn 0.000000 1.000000 0.000000
vn 0.000000 1.000000 0.000000
vn 0.000000 1.000000 -0.000000
vn 0.000000 1.000000 -0.000000
vn 0.000000 1.000000 0.000000
vn 0.000000 1.000000 0.000000
vn 0.000000 1.000000 0.000000
vn 0.000000 1.000000 0.000000
vn 0.000000 1.000000 0.000000
vn 0.000000 1.000000 0.000000
vn -0.000000 1.000000 0.000000
vn -0.000000 1.000000 0.000000
vn 0.000000 1.000000 0.000000
vn 0.000000 1.000000 0.000000
vn 0.000000 1.000000 0.000000
vn 0.000000 1.000000 0.000000
vn 0.000000 1.000000 0.000000
vn 0.000000 1.000000 0.000000
vn 0.000000 1.000000 0.000000
vn 0.000000 1.000000 0.000000
vn 0.000000 1.000000 0.000000
vn 0.000000 1.000000 -0.000000
vn 0.000000 1.000000 -0.000000
vn 0.000000 1.000000 0.000000
vn 0.000000 1.000000 0.000000
vn 0.000000 1.000000 -0.000000
vn 0.000000 1.000000 -0.000000
vn 0.000000 1.000000 0.000000
vn 0.000000 1.000000 0.000000
vn 0.000000 1.000000 0.000000
vn -0.000000 1.000000 0.000000
vn -0.000000 1.000000 0.000000
vn 0.000000 1.000000 0.000000
vn 0.000000 1.000000 0.000000
vn 0.000000 1.000000 0.000000
vn 0.000000 1.000000 0.000000
vn 0.000000 1.000000 0.000000
vn 0.000000 1.000000 0.000000
vn 0.000000 1.000000 0.000000
vn 0.000000 1.000000 0.000000
vn 0.000000 1.000000 0.000000
vn 0.000000 1.000000 0.000000
vn 0.000000 1.000000 0.000000
vn 0.000000 1.000000 0.000000
vn 0.000000 1.000000 0.000000
vn 0.000000 1.000000 0.000000
vn 0.000000 1.000000 0.000000
vn 0.000000 1.000000 0.000000
vn 0.000000 1.000000 0.000000
vn 0.000000 1.000000 0.000000
vn 0.000000 1.000000 0.000000
vn -0.000000 1.000000 0.000000
vn -0.000000 1.000000 0.000000
usemtl material
f 1/0/1 2/0/2 3/0/3
f 1/0/1 3/0/3 4/0/4
f 5/0/5 6/0/6 7/0/7
f 5/0/5 7/0/7 8/0/8
f 9/0/9 10/0/10 11/0/11
f 12/0/12 13/0/13 14/0/14
f 12/0/12 14/0/14 15/0/15
f 16/0/16 17/0/17 18/0/18
f 16/0/16 18/0/18 19/0/19
f 20/0/20 21/0/21 22/0/22
f 23/0/23 24/0/24 25/0/25
f 26/0/26 27/0/27 28/0/28
f 29/0/29 30/0/30 31/0/31
f 32/0/32 33/0/33 34/0/34
f 35/0/35 36/0/36 37/0/37
f 38/0/38 39/0/39 40/0/40
f 41/0/41 42/0/42 43/0/43
f 41/0/41 44/0/44 42/0/42
f 44/0/44 45/0/45 42/0/42
f 44/0/44 46/0/46 45/0/45
f 44/0/44 47/0/47 46/0/46
f 44/0/44 48/0/48 47/0/47
f 48/0/48 49/0/49 47/0/47
f 50/0/50 51/0/51 52/0/52
f 50/0/50 52/0/52 53/0/53
f 50/0/50 53/0/53 54/0/54
f 55/0/55 50/0/50 54/0/54
f 55/0/55 54/0/54 56/0/56
f 55/0/55 56/0/56 57/0/57
f 55/0/55 57/0/57 58/0/58
f 59/0/59 60/0/60 61/0/61
f 59/0/59 61/0/61 62/0/62
f 59/0/59 62/0/62 63/0/63
f 59/0/59 63/0/63 64/0/64
f 60/0/60 65/0/65 61/0/61
f 59/0/59 64/0/64 66/0/66
f 64/0/64 67/0/67 66/0/66
f 68/0/68 69/0/69 70/0/70
f 68/0/68 70/0/70 71/0/71
f 68/0/68 71/0/71 72/0/72
f 68/0/68 72/0/72 73/0/73
f 72/0/72 74/0/74 73/0/73
f 74/0/74 75/0/75 73/0/73
f 75/0/75 76/0/76 73/0/73
f 77/0/77 78/0/78 79/0/79
f 78/0/78 80/0/80 79/0/79
f 81/0/81 77/0/77 79/0/79
f 81/0/81 82/0/82 77/0/77
f 80/0/80 83/0/83 79/0/79
f 83/0/83 84/0/84 79/0/79
f 83/0/83 85/0/85 84/0/84
f 86/0/86 87/0/87 88/0/88
f 86/0/86 88/0/88 89/0/89
f 86/0/86 89/0/89 90/0/90
f 91/0/91 86/0/86 90/0/90
f 91/0/91 90/0/90 92/0/92
f 91/0/91 92/0/92 93/0/93
f 94/0/94 91/0/91 93/0/93
f 95/0/95 96/0/96 97/0/97
f 95/0/95 97/0/97 98/0/98
f 95/0/95 99/0/99 96/0/96
f 95/0/95 98/0/98 100/0/100
f 101/0/101 95/0/95 100/0/100
f 102/0/102 101/0/101 100/0/100
f 99/0/99 103/0/103 96/0/96
f 104/0/104 105/0/105 106/0/106
f 104/0/104 106/0/106 107/0/107
f 104/0/104 107/0/107 108/0/108
f 109/0/109 104/0/104 108/0/108
f 109/0/109 108/0/108 110/0/110
f 109/0/109 110/0/110 111/0/111
f 112/0/112 109/0/109 111/0/111
f 113/0/113 114/0/114 115/0/115
f 113/0/113 115/0/115 116/0/116
f 117/0/117 113/0/113 116/0/116
f 117/0/117 116/0/116 118/0/118
f 114/0/114 119/0/119 115/0/115
f 114/0/114 120/0/120 119/0/119
f 120/0/120 121/0/121 119/0/119
f 122/0/122 123/0/123 124/0/124
f 122/0/122 124/0/124 125/0/125
f 124/0/124 126/0/126 125/0/125
f 124/0/124 127/0/127 126/0/126
f 127/0/127 128/0/128 126/0/126
f 127/0/127 129/0/129 128/0/128
f 129/0/129 130/0/130 128/0/128
f 131/0/131 132/0/132 133/0/133
f 131/0/131 133/0/133 134/0/134
f 133/0/133 135/0/135 134/0/134
f 133/0/133 136/0/136 135/0/135
f 136/0/136 137/0/137 135/0/135
f 136/0/136 138/0/138 137/0/137
f 138/0/138 139/0/139 137/0/137
f 140/0/140 141/0/141 142/0/142
f 140/0/140 142/0/142 143/0/143
f 142/0/142 144/0/144 143/0/143
f 142/0/142 145/0/145 144/0/144
f 145/0/145 146/0/146 144/0/144
f 145/0/145 147/0/147 146/0/146
f 147/0/147 148/0/148 146/0/146
f 149/0/149 150/0/150 151/0/151
f 149/0/149 151/0/151 152/0/152
f 151/0/151 153/0/153 152/0/152
f 151/0/151 154/0/154 153/0/153
f 154/0/154 155/0/155 153/0/153
f 155/0/155 156/0/156 153/0/153
f 155/0/155 157/0/157 156/0/156
f 154/0/154 158/0/158 155/0/155
f 154/0/154 159/0/159 158/0/158
f 154/0/154 160/0/160 159/0/159
f 158/0/158 161/0/161 155/0/155
f 158/0/158 162/0/162 161/0/161
f 162/0/162 163/0/163 161/0/161
f 162/0/162 164/0/164 163/0/163
