# 
# Wavefront OBJ file
# Created with Kaydara FBX
# 
mtllib s02_add01_water.mtl

g S02_Add01_Water
v -276.548645 29.464287 -164.127029
v -272.748169 29.464287 -162.892181
v -275.981049 29.464287 -165.241013
v -275.096985 29.464287 -166.125061
v -273.983032 29.464287 -166.692673
v -272.748169 29.464287 -166.888245
v -271.513306 29.464287 -166.692673
v -270.399323 29.464287 -166.125061
v -269.515259 29.464287 -165.241013
v -268.947662 29.464287 -164.127029
v -268.752075 29.464287 -162.892181
v -268.947662 29.464287 -161.657318
v -269.515259 29.464287 -160.543350
v -270.399323 29.464287 -159.659286
v -271.513306 29.464287 -159.091690
v -272.748169 29.464287 -158.896103
v -273.983002 29.464287 -159.091690
v -275.096985 29.464287 -159.659286
v -275.981049 29.464287 -160.543350
v -276.548645 29.464287 -161.657318
v -276.744232 29.464287 -162.892181
v -274.686523 29.769152 -163.521988
v -272.748169 29.769152 -162.892181
v -274.397034 29.769152 -164.090149
v -273.946136 29.769152 -164.541046
v -273.377960 29.769152 -164.830536
v -272.748169 29.769152 -164.930283
v -272.118347 29.769152 -164.830536
v -271.550201 29.769152 -164.541046
v -271.099304 29.769152 -164.090149
v -270.809784 29.769152 -163.521988
v -270.710052 29.769152 -162.892181
v -270.809784 29.769152 -162.262375
v -271.099304 29.769152 -161.694214
v -271.550201 29.769152 -161.243332
v -272.118347 29.769152 -160.953827
v -272.748169 29.769152 -160.854080
v -273.377960 29.769152 -160.953827
v -273.946136 29.769152 -161.243332
v -274.397034 29.769152 -161.694214
v -274.686493 29.769152 -162.262375
v -274.786255 29.769152 -162.892181
v -273.736176 30.935991 -163.213226
v -272.748169 30.935991 -162.892181
v -273.588623 30.935991 -163.502823
v -273.358795 30.935991 -163.732651
v -273.069183 30.935991 -163.880219
v -272.748169 30.935991 -163.931076
v -272.427124 30.935991 -163.880219
v -272.137512 30.935991 -163.732651
v -271.907684 30.935991 -163.502823
v -271.760132 30.935991 -163.213226
v -271.709259 30.935991 -162.892181
v -271.760132 30.935991 -162.571152
v -271.907684 30.935991 -162.281555
v -272.137512 30.935991 -162.051712
v -272.427124 30.935991 -161.904160
v -272.748169 30.935991 -161.853302
v -273.069183 30.935991 -161.904160
v -273.358795 30.935991 -162.051712
v -273.588623 30.935991 -162.281555
v -273.736176 30.935991 -162.571152
v -273.787018 30.935991 -162.892181
v -273.409454 31.877316 -163.107040
v -272.748169 31.877316 -162.892181
v -273.310669 31.877316 -163.300873
v -273.156860 31.877316 -163.454697
v -272.963013 31.877316 -163.553467
v -272.748169 31.877316 -163.587494
v -272.533295 31.877316 -163.553467
v -272.339478 31.877316 -163.454697
v -272.185638 31.877316 -163.300873
v -272.086884 31.877316 -163.107040
v -272.052856 31.877316 -162.892181
v -272.086884 31.877316 -162.677322
v -272.185638 31.877316 -162.483490
v -272.339478 31.877316 -162.329666
v -272.533295 31.877316 -162.230911
v -272.748169 31.877316 -162.196869
v -272.963013 31.877316 -162.230911
v -273.156860 31.877316 -162.329666
v -273.310669 31.877316 -162.483490
v -273.409454 31.877316 -162.677322
v -273.443481 31.877316 -162.892181
vt 0.963023 0.650446
vt 0.500000 0.500000
vt 0.893871 0.786166
vt 0.786164 0.893871
vt 0.650446 0.963025
vt 0.500000 0.986852
vt 0.349553 0.963025
vt 0.213836 0.893871
vt 0.106129 0.786166
vt 0.036977 0.650446
vt 0.013148 0.500000
vt 0.036977 0.349555
vt 0.106129 0.213837
vt 0.213836 0.106129
vt 0.349553 0.036977
vt 0.500000 0.013148
vt 0.650444 0.036977
vt 0.786164 0.106129
vt 0.893871 0.213837
vt 0.963023 0.349555
vt 0.986852 0.500000
vt 0.736155 0.576733
vt 0.500000 0.500002
vt 0.700886 0.645953
vt 0.645952 0.700888
vt 0.576731 0.736157
vt 0.500000 0.748310
vt 0.423269 0.736157
vt 0.354048 0.700888
vt 0.299114 0.645953
vt 0.263845 0.576733
vt 0.251692 0.500002
vt 0.263845 0.423271
vt 0.299114 0.354050
vt 0.354048 0.299117
vt 0.423269 0.263847
vt 0.500000 0.251694
vt 0.576731 0.263847
vt 0.645952 0.299117
vt 0.700886 0.354050
vt 0.736153 0.423271
vt 0.748307 0.500002
vt 0.620374 0.539114
vt 0.500000 0.500002
vt 0.602396 0.574397
vt 0.574396 0.602398
vt 0.539112 0.620376
vt 0.500000 0.626572
vt 0.460887 0.620376
vt 0.425604 0.602398
vt 0.397604 0.574397
vt 0.379626 0.539114
vt 0.373430 0.500002
vt 0.379626 0.460889
vt 0.397604 0.425606
vt 0.425604 0.397605
vt 0.460887 0.379628
vt 0.500000 0.373433
vt 0.539112 0.379628
vt 0.574396 0.397605
vt 0.602396 0.425606
vt 0.620374 0.460889
vt 0.626568 0.500002
vt 0.580566 0.526179
vt 0.500000 0.500002
vt 0.568533 0.549794
vt 0.549792 0.568535
vt 0.526177 0.580567
vt 0.500000 0.584713
vt 0.473823 0.580567
vt 0.450208 0.568535
vt 0.431467 0.549794
vt 0.419433 0.526179
vt 0.415288 0.500002
vt 0.419433 0.473824
vt 0.431467 0.450210
vt 0.450208 0.431468
vt 0.473823 0.419436
vt 0.500000 0.415290
vt 0.526177 0.419436
vt 0.549792 0.431468
vt 0.568533 0.450210
vt 0.580566 0.473824
vt 0.584712 0.500002
vn 0.000000 1.000000 0.000000
vn 0.000000 1.000000 0.000000
vn 0.000000 1.000000 0.000000
vn 0.000000 1.000000 0.000000
vn 0.000000 1.000000 0.000000
vn 0.000000 1.000000 0.000000
vn 0.000000 1.000000 0.000000
vn 0.000000 1.000000 0.000000
vn 0.000000 1.000000 0.000000
vn 0.000000 1.000000 0.000000
vn 0.000000 1.000000 0.000000
vn 0.000000 1.000000 0.000000
vn 0.000000 1.000000 0.000000
vn 0.000000 1.000000 0.000000
vn 0.000000 1.000000 0.000000
vn 0.000000 1.000000 0.000000
vn 0.000000 1.000000 0.000000
vn 0.000000 1.000000 0.000000
vn 0.000000 1.000000 0.000000
vn 0.000000 1.000000 0.000000
vn 0.000000 1.000000 0.000000
vn 0.000000 1.000000 0.000000
vn 0.000000 1.000000 0.000000
vn 0.000000 1.000000 0.000000
vn 0.000000 1.000000 0.000000
vn 0.000000 1.000000 0.000000
vn 0.000000 1.000000 0.000000
vn 0.000000 1.000000 0.000000
vn 0.000000 1.000000 0.000000
vn 0.000000 1.000000 0.000000
vn 0.000000 1.000000 0.000000
vn 0.000000 1.000000 0.000000
vn 0.000000 1.000000 0.000000
vn 0.000000 1.000000 0.000000
vn 0.000000 1.000000 0.000000
vn 0.000000 1.000000 0.000000
vn 0.000000 1.000000 0.000000
vn 0.000000 1.000000 0.000000
vn 0.000000 1.000000 0.000000
vn 0.000000 1.000000 0.000000
vn 0.000000 1.000000 0.000000
vn 0.000000 1.000000 0.000000
vn 0.000000 1.000000 -0.000001
vn 0.000000 1.000000 0.000000
vn 0.000000 1.000000 0.000000
vn 0.000000 1.000000 0.000000
vn 0.000000 1.000000 0.000000
vn 0.000000 1.000000 0.000000
vn 0.000000 1.000000 0.000000
vn 0.000000 1.000000 0.000000
vn 0.000000 1.000000 0.000000
vn 0.000000 1.000000 0.000000
vn 0.000000 1.000000 0.000000
vn 0.000000 1.000000 0.000000
vn 0.000000 1.000000 0.000000
vn 0.000000 1.000000 0.000000
vn 0.000000 1.000000 0.000000
vn 0.000000 1.000000 0.000000
vn 0.000000 1.000000 0.000000
vn 0.000000 1.000000 -0.000000
vn 0.000000 1.000000 -0.000000
vn 0.000000 1.000000 0.000001
vn 0.000000 1.000000 0.000000
vn 0.000000 1.000000 0.000000
vn 0.000000 1.000000 0.000000
vn 0.000000 1.000000 0.000001
vn 0.000000 1.000000 0.000000
vn 0.000000 1.000000 0.000000
vn 0.000000 1.000000 0.000000
vn 0.000000 1.000000 0.000000
vn 0.000000 1.000000 0.000000
vn 0.000000 1.000000 0.000001
vn 0.000000 1.000000 -0.000001
vn 0.000000 1.000000 0.000000
vn 0.000000 1.000000 0.000000
vn 0.000000 1.000000 -0.000001
vn 0.000000 1.000000 0.000000
vn 0.000000 1.000000 0.000000
vn 0.000000 1.000000 0.000000
vn 0.000000 1.000000 0.000000
vn 0.000000 1.000000 0.000000
vn 0.000000 1.000000 -0.000001
vn 0.000000 1.000000 0.000001
vn 0.000000 1.000000 0.000000
usemtl material
f 1/0/1 2/0/2 3/0/3
f 3/0/3 2/0/2 4/0/4
f 4/0/4 2/0/2 5/0/5
f 5/0/5 2/0/2 6/0/6
f 6/0/6 2/0/2 7/0/7
f 7/0/7 2/0/2 8/0/8
f 8/0/8 2/0/2 9/0/9
f 9/0/9 2/0/2 10/0/10
f 10/0/10 2/0/2 11/0/11
f 11/0/11 2/0/2 12/0/12
f 12/0/12 2/0/2 13/0/13
f 13/0/13 2/0/2 14/0/14
f 14/0/14 2/0/2 15/0/15
f 15/0/15 2/0/2 16/0/16
f 16/0/16 2/0/2 17/0/17
f 17/0/17 2/0/2 18/0/18
f 18/0/18 2/0/2 19/0/19
f 19/0/19 2/0/2 20/0/20
f 20/0/20 2/0/2 21/0/21
f 21/0/21 2/0/2 1/0/1
f 22/0/22 23/0/23 24/0/24
f 24/0/24 23/0/23 25/0/25
f 25/0/25 23/0/23 26/0/26
f 26/0/26 23/0/23 27/0/27
f 27/0/27 23/0/23 28/0/28
f 28/0/28 23/0/23 29/0/29
f 29/0/29 23/0/23 30/0/30
f 30/0/30 23/0/23 31/0/31
f 31/0/31 23/0/23 32/0/32
f 32/0/32 23/0/23 33/0/33
f 33/0/33 23/0/23 34/0/34
f 34/0/34 23/0/23 35/0/35
f 35/0/35 23/0/23 36/0/36
f 36/0/36 23/0/23 37/0/37
f 37/0/37 23/0/23 38/0/38
f 38/0/38 23/0/23 39/0/39
f 39/0/39 23/0/23 40/0/40
f 40/0/40 23/0/23 41/0/41
f 41/0/41 23/0/23 42/0/42
f 42/0/42 23/0/23 22/0/22
f 43/0/43 44/0/44 45/0/45
f 45/0/45 44/0/44 46/0/46
f 46/0/46 44/0/44 47/0/47
f 47/0/47 44/0/44 48/0/48
f 48/0/48 44/0/44 49/0/49
f 49/0/49 44/0/44 50/0/50
f 50/0/50 44/0/44 51/0/51
f 51/0/51 44/0/44 52/0/52
f 52/0/52 44/0/44 53/0/53
f 53/0/53 44/0/44 54/0/54
f 54/0/54 44/0/44 55/0/55
f 55/0/55 44/0/44 56/0/56
f 56/0/56 44/0/44 57/0/57
f 57/0/57 44/0/44 58/0/58
f 58/0/58 44/0/44 59/0/59
f 59/0/59 44/0/44 60/0/60
f 60/0/60 44/0/44 61/0/61
f 61/0/61 44/0/44 62/0/62
f 62/0/62 44/0/44 63/0/63
f 63/0/63 44/0/44 43/0/43
f 64/0/64 65/0/65 66/0/66
f 66/0/66 65/0/65 67/0/67
f 67/0/67 65/0/65 68/0/68
f 68/0/68 65/0/65 69/0/69
f 69/0/69 65/0/65 70/0/70
f 70/0/70 65/0/65 71/0/71
f 71/0/71 65/0/65 72/0/72
f 72/0/72 65/0/65 73/0/73
f 73/0/73 65/0/65 74/0/74
f 74/0/74 65/0/65 75/0/75
f 75/0/75 65/0/65 76/0/76
f 76/0/76 65/0/65 77/0/77
f 77/0/77 65/0/65 78/0/78
f 78/0/78 65/0/65 79/0/79
f 79/0/79 65/0/65 80/0/80
f 80/0/80 65/0/65 81/0/81
f 81/0/81 65/0/65 82/0/82
f 82/0/82 65/0/65 83/0/83
f 83/0/83 65/0/65 84/0/84
f 84/0/84 65/0/65 64/0/64
