# 
# Wavefront OBJ file
# Created with Kaydara FBX
# 
mtllib s03_new_water2.mtl

g S03_New_Water2
v -92.516998 -0.261198 101.398239
v -86.298058 -0.261198 96.050781
v -96.772079 -0.261198 85.243034
v -98.857994 -0.261198 91.133560
v -94.144775 -0.261198 81.546555
v -80.174950 -0.261198 92.157326
v -77.771706 -0.261198 87.253853
v -92.505585 -0.261198 76.856430
v -77.445259 -0.261198 82.975029
v -91.954002 -0.261198 74.138420
v -104.061752 -0.263130 96.352333
v -100.744820 -0.261198 107.632515
v -111.221687 -0.263130 99.572090
v -108.786896 -0.261198 110.834244
v -126.094330 -0.263130 104.053482
v -121.097656 -0.261198 114.788940
v -143.368057 -0.263130 116.544991
v -132.653488 -0.261198 125.362328
v -91.392250 -0.261198 71.370399
v -77.258430 -0.261198 79.054924
v -74.998970 -0.261198 70.640549
v -89.264313 -0.263130 66.818199
v -88.721382 -0.263130 61.350445
v -73.048004 -0.261198 65.513580
v -72.946091 -0.261198 60.466377
v -89.264313 -0.263130 55.891624
v -74.973656 -0.261198 55.137665
v -88.041313 -0.263130 50.906479
v -73.295670 -0.093333 45.416485
v -87.804718 -0.263130 42.418945
v -77.070625 -0.093333 36.150326
v -92.633804 -0.263130 35.374073
vt 0.673727 0.293901
vt 0.660733 0.304770
vt 0.681800 0.326737
vt 0.686339 0.314764
vt 0.676240 0.334251
vt 0.647939 0.312684
vt 0.642918 0.322651
vt 0.672689 0.343783
vt 0.642236 0.331348
vt 0.671504 0.349308
vt 0.697837 0.304157
vt 0.690918 0.281230
vt 0.712804 0.297613
vt 0.707721 0.274722
vt 0.743884 0.288505
vt 0.733444 0.266684
vt 0.779977 0.263115
vt 0.757589 0.245193
vt 0.670348 0.354934
vt 0.641845 0.339316
vt 0.637124 0.356418
vt 0.666713 0.364187
vt 0.665504 0.375301
vt 0.633048 0.366839
vt 0.632835 0.377098
vt 0.666487 0.386396
vt 0.637071 0.387929
vt 0.663553 0.396529
vt 0.637320 0.408102
vt 0.662745 0.413781
vt 0.641453 0.426522
vt 0.670358 0.428100
vn -0.000128 1.000000 -0.000162
vn -0.000111 1.000000 -0.000151
vn -0.000220 1.000000 -0.000225
vn -0.000283 1.000000 -0.000281
vn -0.000199 1.000000 -0.000178
vn -0.000097 1.000000 -0.000118
vn -0.000118 1.000000 -0.000041
vn -0.000252 1.000000 -0.000070
vn 0.000000 1.000000 0.000000
vn 0.000000 1.000000 0.000000
vn -0.000268 1.000000 -0.000281
vn -0.000127 1.000000 -0.000155
vn -0.000103 1.000000 -0.000329
vn -0.000103 1.000000 -0.000329
vn -0.000103 1.000000 -0.000329
vn -0.000103 1.000000 -0.000329
vn -0.000204 1.000000 -0.000265
vn -0.000204 1.000000 -0.000265
vn -0.000302 1.000000 -0.000053
vn -0.000200 1.000000 -0.000009
vn -0.000172 1.000000 -0.000053
vn -0.000295 1.000000 -0.000080
vn -0.000292 1.000000 -0.000030
vn -0.000154 1.000000 -0.000027
vn -0.000173 1.000000 0.000025
vn -0.000310 1.000000 0.000016
vn -0.000215 1.000000 0.000030
vn -0.000335 1.000000 0.000005
vn -0.000190 1.000000 0.000038
vn -0.000351 1.000000 0.000087
vn -0.000219 1.000000 0.000007
vn -0.000372 1.000000 0.000032
usemtl material
f 1/0/1 2/0/2 3/0/3
f 1/0/1 3/0/3 4/0/4
f 2/0/2 5/0/5 3/0/3
f 2/0/2 6/0/6 5/0/5
f 5/0/5 6/0/6 7/0/7
f 5/0/5 7/0/7 8/0/8
f 8/0/8 7/0/7 9/0/9
f 8/0/8 9/0/9 10/0/10
f 11/0/11 1/0/1 4/0/4
f 11/0/11 12/0/12 1/0/1
f 13/0/13 12/0/12 11/0/11
f 13/0/13 14/0/14 12/0/12
f 15/0/15 14/0/14 13/0/13
f 15/0/15 16/0/16 14/0/14
f 16/0/16 15/0/15 17/0/17
f 16/0/16 17/0/17 18/0/18
f 9/0/9 19/0/19 10/0/10
f 9/0/9 20/0/20 19/0/19
f 19/0/19 20/0/20 21/0/21
f 19/0/19 21/0/21 22/0/22
f 21/0/21 23/0/23 22/0/22
f 21/0/21 24/0/24 23/0/23
f 23/0/23 24/0/24 25/0/25
f 23/0/23 25/0/25 26/0/26
f 26/0/26 25/0/25 27/0/27
f 26/0/26 27/0/27 28/0/28
f 28/0/28 27/0/27 29/0/29
f 28/0/28 29/0/29 30/0/30
f 30/0/30 29/0/29 31/0/31
f 30/0/30 31/0/31 32/0/32
