# 
# Wavefront OBJ file
# Created with Kaydara FBX
# 
mtllib s04_inside_c01_ref1.mtl

g S04_Inside_C01_Ref1
v 0.021016 1.599950 48.772278
v 11.862089 1.599947 48.772278
v 11.862089 1.599947 26.970955
v 0.021016 1.599949 26.970955
v 0.020879 1.599950 -79.723457
v 0.020879 1.599951 -29.875307
v 11.861934 1.599947 -29.875307
v 11.861934 1.599947 -79.723457
v 0.020879 1.599950 -103.250977
v 0.020879 1.599950 -79.723457
v 11.861934 1.599947 -79.723457
v 11.861934 1.599947 -103.250977
v -33.363777 1.599946 52.482079
v -33.363789 1.599945 48.772266
v -44.932842 1.599946 48.772270
v -44.932842 1.599947 52.482079
v 12.507168 1.599950 48.772266
v -12.086426 1.599950 48.772266
v -12.086426 1.599947 55.286781
v 12.507168 1.599950 55.286781
v -44.932842 1.599947 52.482079
v -44.932842 1.599946 48.772270
v -63.917606 1.599949 48.772270
v -63.917610 1.599949 55.286781
v -48.199715 1.599947 55.286781
v 11.862089 1.599947 20.752592
v 11.862089 1.599947 -1.075874
v 0.021016 1.599949 -1.075874
v 0.021016 1.599949 20.752592
vt 0.999434 0.090561
vt 0.621267 0.090558
vt 0.621265 0.788215
vt 0.999432 0.788227
vt 0.999430 1.615002
vt 0.999434 -0.005686
vt 0.621267 -0.005690
vt 0.621262 1.614969
vt 0.999456 0.445678
vt 0.999434 -0.387808
vt 0.621267 -0.387812
vt 0.621265 0.445663
vt 0.823567 0.632379
vt 0.966999 0.632203
vt 0.966999 0.052022
vt 0.823555 0.051792
vt 0.032687 -0.938656
vt 0.032687 0.030875
vt 0.300134 0.031837
vt 0.300319 -0.936785
vt 0.185125 0.869734
vt 0.032687 0.869821
vt 0.032687 0.121494
vt 0.300185 0.122344
vt 0.300203 0.741136
vt 0.621264 0.631778
vt 0.621262 1.383159
vt 0.999430 1.383181
vt 0.999432 0.631791
vn 0.000000 1.000000 0.000000
vn 0.000000 1.000000 0.000000
vn 0.000000 1.000000 0.000000
vn 0.000000 1.000000 0.000000
vn 0.000000 1.000000 0.000000
vn 0.000000 1.000000 0.000000
vn 0.000000 1.000000 0.000000
vn 0.000000 1.000000 0.000000
vn 0.000000 1.000000 0.000000
vn 0.000000 1.000000 0.000000
vn 0.000000 1.000000 0.000000
vn 0.000000 1.000000 0.000000
vn 0.000000 1.000000 -0.000000
vn 0.000000 1.000000 -0.000000
vn 0.000000 1.000000 -0.000000
vn 0.000000 1.000000 -0.000000
vn 0.000000 1.000000 0.000000
vn 0.000000 1.000000 0.000000
vn 0.000000 1.000000 0.000000
vn 0.000000 1.000000 0.000000
vn 0.000000 1.000000 0.000000
vn 0.000000 1.000000 -0.000000
vn 0.000000 1.000000 0.000000
vn 0.000000 1.000000 0.000000
vn 0.000000 1.000000 0.000000
vn 0.000000 1.000000 0.000000
vn 0.000000 1.000000 0.000000
vn 0.000000 1.000000 0.000000
vn 0.000000 1.000000 0.000000
usemtl material
f 1/0/1 2/0/2 3/0/3
f 1/0/1 3/0/3 4/0/4
f 5/0/5 6/0/6 7/0/7
f 5/0/5 7/0/7 8/0/8
f 9/0/9 10/0/10 11/0/11
f 9/0/9 11/0/11 12/0/12
f 13/0/13 14/0/14 15/0/15
f 13/0/13 15/0/15 16/0/16
f 17/0/17 18/0/18 19/0/19
f 17/0/17 19/0/19 20/0/20
f 21/0/21 22/0/22 23/0/23
f 23/0/23 24/0/24 21/0/21
f 24/0/24 25/0/25 21/0/21
f 26/0/26 27/0/27 28/0/28
f 26/0/26 28/0/28 29/0/29
