# 
# Wavefront OBJ file
# Created with Kaydara FBX
# 
mtllib s04_outside_screen.mtl

g S04_OutSide_Screen
v -27.644188 4.721635 -31.076574
v -27.644188 5.904768 -31.076574
v -28.040209 5.904768 -30.680553
v -28.040209 4.721635 -30.680553
v -27.486246 3.463526 -31.234516
v -27.486246 4.467302 -31.234516
v -28.198151 4.467302 -30.522612
v -28.198151 3.463526 -30.522612
v -30.653435 5.270994 -28.067329
v -30.653435 5.923221 -28.067329
v -31.116013 5.923221 -27.604750
v -31.116013 5.270994 -27.604750
v -30.320002 3.456126 -28.400761
v -30.320002 4.062585 -28.400761
v -31.243723 4.062585 -27.477041
v -31.243723 3.456126 -27.477041
v -28.333080 3.505035 -30.387682
v -28.333080 4.272527 -30.387682
v -28.660767 4.272527 -30.059998
v -28.660767 3.505035 -30.059998
v -30.303982 3.412029 -28.416782
v -29.716990 3.412029 -29.003775
v -29.716990 4.598684 -29.003775
v -30.303982 4.598684 -28.416782
v -30.566046 4.219950 -28.154716
v -30.566046 4.872177 -28.154716
v -31.028625 4.872177 -27.692139
v -31.028625 4.219950 -27.692139
v -31.099733 4.100553 -27.621029
v -31.099733 5.283686 -27.621029
v -31.223330 5.283686 -27.497433
v -31.223330 4.100553 -27.497433
v -30.132771 5.175330 -28.587992
v -30.132771 5.942822 -28.587992
v -30.460455 5.942822 -28.260307
v -30.460455 5.175330 -28.260307
v -28.134901 4.378395 -30.585861
v -28.134901 4.984854 -30.585861
v -29.058622 4.984854 -29.662140
v -29.058622 4.378395 -29.662140
v -7.345414 2.722643 44.473427
v -7.345414 3.905776 44.473427
v -7.345414 3.905776 45.033485
v -7.345414 2.722643 45.033485
v -7.345414 1.464534 44.250061
v -7.345414 2.468311 44.250061
v -7.345414 2.468311 45.256851
v -7.345414 1.464534 45.256851
v -7.345414 3.272002 48.729141
v -7.345414 3.924230 48.729141
v -7.345414 3.924230 49.383320
v -7.345414 3.272002 49.383320
v -7.345414 1.457135 48.257595
v -7.345414 2.063594 48.257595
v -7.345414 2.063594 49.563934
v -7.345414 1.457135 49.563934
v -7.345414 1.506044 45.447666
v -7.345414 2.273535 45.447666
v -7.345414 2.273535 45.911083
v -7.345414 1.506044 45.911083
v -7.345414 1.413038 48.234936
v -7.345414 1.413038 47.404808
v -7.345414 2.599692 47.404808
v -7.345414 2.599692 48.234936
v -7.345414 2.220958 48.605560
v -7.345414 2.873186 48.605560
v -7.345414 2.873186 49.259739
v -7.345414 2.220958 49.259739
v -7.345414 2.101561 49.360302
v -7.345414 3.284694 49.360302
v -7.345414 3.284694 49.535095
v -7.345414 2.101561 49.535095
v -7.345414 3.176338 47.992805
v -7.345414 3.943830 47.992805
v -7.345414 3.943830 48.456226
v -7.345414 3.176338 48.456226
v -7.345414 2.379404 45.167397
v -7.345414 2.985862 45.167397
v -7.345414 2.985862 46.473736
v -7.345414 2.379404 46.473736
v 7.717361 2.722643 49.302704
v 7.717361 3.905776 49.302704
v 7.717361 3.905776 48.742645
v 7.717361 2.722643 48.742645
v 7.717361 1.464534 49.526070
v 7.717361 2.468311 49.526070
v 7.717361 2.468311 48.519279
v 7.717361 1.464534 48.519279
v 7.717361 3.272002 45.046986
v 7.717361 3.924230 45.046986
v 7.717361 3.924230 44.392807
v 7.717361 3.272002 44.392807
v 7.717361 1.457135 45.518528
v 7.717361 2.063594 45.518528
v 7.717361 2.063594 44.212193
v 7.717361 1.457135 44.212193
v 7.717361 1.506044 48.328465
v 7.717361 2.273535 48.328465
v 7.717361 2.273535 47.865047
v 7.717361 1.506044 47.865047
v 7.717361 1.413038 45.541191
v 7.717361 1.413038 46.371319
v 7.717361 2.599692 46.371319
v 7.717361 2.599692 45.541191
v 7.717361 2.220958 45.170570
v 7.717361 2.873186 45.170570
v 7.717361 2.873186 44.516392
v 7.717361 2.220958 44.516392
v 7.717361 2.101561 44.415825
v 7.717361 3.284694 44.415825
v 7.717361 3.284694 44.241028
v 7.717361 2.101561 44.241028
v 7.717361 3.176338 45.783318
v 7.717361 3.943830 45.783318
v 7.717361 3.943830 45.319901
v 7.717361 3.176338 45.319901
v 7.717361 2.379404 48.608730
v 7.717361 2.985862 48.608730
v 7.717361 2.985862 47.302391
v 7.717361 2.379404 47.302391
v 30.953920 4.721635 -27.660091
v 30.953920 5.904768 -27.660091
v 30.557899 5.904768 -28.056112
v 30.557899 4.721635 -28.056112
v 31.111862 3.463526 -27.502150
v 31.111862 4.467302 -27.502150
v 30.399958 4.467302 -28.214054
v 30.399958 3.463526 -28.214054
v 27.944677 5.270994 -30.669338
v 27.944677 5.923221 -30.669338
v 27.482100 5.923221 -31.131916
v 27.482100 5.270994 -31.131916
v 28.278107 3.456126 -30.335905
v 28.278107 4.062585 -30.335905
v 27.354387 4.062585 -31.259626
v 27.354387 3.456126 -31.259626
v 30.265028 3.505035 -28.348984
v 30.265028 4.272527 -28.348984
v 29.937344 4.272527 -28.676670
v 29.937344 3.505035 -28.676670
v 28.294128 3.412029 -30.319885
v 28.881121 3.412029 -29.732893
v 28.881121 4.598684 -29.732893
v 28.294128 4.598684 -30.319885
v 28.032063 4.219950 -30.581949
v 28.032063 4.872177 -30.581949
v 27.569485 4.872177 -31.044529
v 27.569485 4.219950 -31.044529
v 27.498375 4.100553 -31.115637
v 27.498375 5.283686 -31.115637
v 27.374779 5.283686 -31.239233
v 27.374779 4.100553 -31.239233
v 28.465340 5.175330 -30.148674
v 28.465340 5.942822 -30.148674
v 28.137653 5.942822 -30.476358
v 28.137653 5.175330 -30.476358
v 30.463207 4.378395 -28.150805
v 30.463207 4.984854 -28.150805
v 29.539486 4.984854 -29.074526
v 29.539486 4.378395 -29.074526
vt 0.055998 0.722045
vt 0.055998 0.997739
vt 0.175349 0.997739
vt 0.175349 0.722045
vt 0.032287 0.500000
vt 0.032287 0.687243
vt 0.218400 0.687243
vt 0.218400 0.500000
vt 0.179709 0.692598
vt 0.179709 0.835128
vt 0.320323 0.835128
vt 0.320323 0.692598
vt 0.178111 0.839661
vt 0.178111 0.953418
vt 0.425025 0.953418
vt 0.425025 0.839661
vt 0.338281 0.638821
vt 0.338281 0.830991
vt 0.463727 0.830991
vt 0.463727 0.638821
vt 0.229585 0.500000
vt 0.229585 0.639404
vt 0.471395 0.639404
vt 0.471395 0.500000
vt 0.179709 0.692598
vt 0.179709 0.835128
vt 0.320323 0.835128
vt 0.320323 0.692598
vt 0.055998 0.722045
vt 0.055998 0.997739
vt 0.094595 0.997739
vt 0.094595 0.722045
vt 0.338281 0.638821
vt 0.338281 0.830991
vt 0.463727 0.830991
vt 0.463727 0.638821
vt 0.178111 0.839661
vt 0.178111 0.953418
vt 0.425025 0.953418
vt 0.425025 0.839661
vt 0.055998 0.722045
vt 0.055998 0.997739
vt 0.175349 0.997739
vt 0.175349 0.722045
vt 0.032287 0.500000
vt 0.032287 0.687243
vt 0.218400 0.687243
vt 0.218400 0.500000
vt 0.179709 0.692598
vt 0.179709 0.835128
vt 0.320323 0.835128
vt 0.320323 0.692598
vt 0.178111 0.839661
vt 0.178111 0.953418
vt 0.425025 0.953418
vt 0.425025 0.839661
vt 0.338281 0.638821
vt 0.338281 0.830991
vt 0.463727 0.830991
vt 0.463727 0.638821
vt 0.229585 0.500000
vt 0.229585 0.639404
vt 0.471395 0.639404
vt 0.471395 0.500000
vt 0.179709 0.692598
vt 0.179709 0.835128
vt 0.320323 0.835128
vt 0.320323 0.692598
vt 0.055998 0.722045
vt 0.055998 0.997739
vt 0.094595 0.997739
vt 0.094595 0.722045
vt 0.338281 0.638821
vt 0.338281 0.830991
vt 0.463727 0.830991
vt 0.463727 0.638821
vt 0.178111 0.839661
vt 0.178111 0.953418
vt 0.425025 0.953418
vt 0.425025 0.839661
vt 0.055998 0.722045
vt 0.055998 0.997739
vt 0.175349 0.997739
vt 0.175349 0.722045
vt 0.032287 0.500000
vt 0.032287 0.687243
vt 0.218400 0.687243
vt 0.218400 0.500000
vt 0.179709 0.692598
vt 0.179709 0.835128
vt 0.320323 0.835128
vt 0.320323 0.692598
vt 0.178111 0.839661
vt 0.178111 0.953418
vt 0.425025 0.953418
vt 0.425025 0.839661
vt 0.338281 0.638821
vt 0.338281 0.830991
vt 0.463727 0.830991
vt 0.463727 0.638821
vt 0.229585 0.500000
vt 0.229585 0.639404
vt 0.471395 0.639404
vt 0.471395 0.500000
vt 0.179709 0.692598
vt 0.179709 0.835128
vt 0.320323 0.835128
vt 0.320323 0.692598
vt 0.055998 0.722045
vt 0.055998 0.997739
vt 0.094595 0.997739
vt 0.094595 0.722045
vt 0.338281 0.638821
vt 0.338281 0.830991
vt 0.463727 0.830991
vt 0.463727 0.638821
vt 0.178111 0.839661
vt 0.178111 0.953418
vt 0.425025 0.953418
vt 0.425025 0.839661
vt 0.055998 0.722045
vt 0.055998 0.997739
vt 0.175349 0.997739
vt 0.175349 0.722045
vt 0.032287 0.500000
vt 0.032287 0.687243
vt 0.218400 0.687243
vt 0.218400 0.500000
vt 0.179709 0.692598
vt 0.179709 0.835128
vt 0.320323 0.835128
vt 0.320323 0.692598
vt 0.178111 0.839661
vt 0.178111 0.953418
vt 0.425025 0.953418
vt 0.425025 0.839661
vt 0.338281 0.638821
vt 0.338281 0.830991
vt 0.463727 0.830991
vt 0.463727 0.638821
vt 0.229585 0.500000
vt 0.229585 0.639404
vt 0.471395 0.639404
vt 0.471395 0.500000
vt 0.179709 0.692598
vt 0.179709 0.835128
vt 0.320323 0.835128
vt 0.320323 0.692598
vt 0.055998 0.722045
vt 0.055998 0.997739
vt 0.094595 0.997739
vt 0.094595 0.722045
vt 0.338281 0.638821
vt 0.338281 0.830991
vt 0.463727 0.830991
vt 0.463727 0.638821
vt 0.178111 0.839661
vt 0.178111 0.953418
vt 0.425025 0.953418
vt 0.425025 0.839661
vn 0.707106 0.000000 0.707108
vn 0.707106 0.000000 0.707108
vn 0.707106 0.000000 0.707108
vn 0.707106 0.000000 0.707108
vn 0.707107 0.000000 0.707106
vn 0.707107 0.000000 0.707106
vn 0.707107 0.000000 0.707106
vn 0.707107 0.000000 0.707106
vn 0.707107 0.000000 0.707107
vn 0.707107 0.000000 0.707107
vn 0.707107 0.000000 0.707107
vn 0.707107 0.000000 0.707107
vn 0.707107 0.000000 0.707107
vn 0.707107 0.000000 0.707107
vn 0.707107 0.000000 0.707107
vn 0.707107 0.000000 0.707107
vn 0.707108 0.000000 0.707105
vn 0.707108 0.000000 0.707105
vn 0.707108 0.000000 0.707105
vn 0.707108 0.000000 0.707105
vn 0.707108 0.000000 0.707106
vn 0.707108 0.000000 0.707106
vn 0.707108 0.000000 0.707106
vn 0.707108 0.000000 0.707106
vn 0.707107 0.000000 0.707107
vn 0.707107 0.000000 0.707107
vn 0.707107 0.000000 0.707107
vn 0.707107 0.000000 0.707107
vn 0.707108 0.000000 0.707106
vn 0.707108 0.000000 0.707106
vn 0.707108 0.000000 0.707106
vn 0.707108 0.000000 0.707106
vn 0.707106 0.000000 0.707108
vn 0.707106 0.000000 0.707108
vn 0.707106 0.000000 0.707108
vn 0.707106 0.000000 0.707108
vn 0.707107 0.000000 0.707107
vn 0.707107 0.000000 0.707107
vn 0.707107 0.000000 0.707107
vn 0.707107 0.000000 0.707107
vn 1.000000 0.000000 0.000000
vn 1.000000 0.000000 0.000000
vn 1.000000 0.000000 0.000000
vn 1.000000 0.000000 0.000000
vn 1.000000 0.000000 0.000000
vn 1.000000 0.000000 0.000000
vn 1.000000 0.000000 0.000000
vn 1.000000 0.000000 0.000000
vn 1.000000 0.000000 0.000000
vn 1.000000 0.000000 0.000000
vn 1.000000 0.000000 0.000000
vn 1.000000 0.000000 0.000000
vn 1.000000 0.000000 0.000000
vn 1.000000 0.000000 0.000000
vn 1.000000 0.000000 0.000000
vn 1.000000 0.000000 0.000000
vn 1.000000 0.000000 0.000000
vn 1.000000 0.000000 0.000000
vn 1.000000 0.000000 0.000000
vn 1.000000 0.000000 0.000000
vn 1.000000 0.000000 0.000000
vn 1.000000 0.000000 0.000000
vn 1.000000 0.000000 0.000000
vn 1.000000 0.000000 0.000000
vn 1.000000 0.000000 0.000000
vn 1.000000 0.000000 0.000000
vn 1.000000 0.000000 0.000000
vn 1.000000 0.000000 0.000000
vn 1.000000 0.000000 0.000000
vn 1.000000 0.000000 0.000000
vn 1.000000 0.000000 0.000000
vn 1.000000 0.000000 0.000000
vn 1.000000 0.000000 0.000000
vn 1.000000 0.000000 0.000000
vn 1.000000 0.000000 0.000000
vn 1.000000 0.000000 0.000000
vn 1.000000 0.000000 0.000000
vn 1.000000 0.000000 0.000000
vn 1.000000 0.000000 0.000000
vn 1.000000 0.000000 0.000000
vn -1.000000 0.000000 0.000000
vn -1.000000 0.000000 0.000000
vn -1.000000 0.000000 0.000000
vn -1.000000 0.000000 0.000000
vn -1.000000 0.000000 0.000000
vn -1.000000 0.000000 0.000000
vn -1.000000 0.000000 0.000000
vn -1.000000 0.000000 0.000000
vn -1.000000 0.000000 0.000000
vn -1.000000 0.000000 0.000000
vn -1.000000 0.000000 0.000000
vn -1.000000 0.000000 0.000000
vn -1.000000 0.000000 0.000000
vn -1.000000 0.000000 0.000000
vn -1.000000 0.000000 0.000000
vn -1.000000 0.000000 0.000000
vn -1.000000 0.000000 0.000000
vn -1.000000 0.000000 0.000000
vn -1.000000 0.000000 0.000000
vn -1.000000 0.000000 0.000000
vn -1.000000 0.000000 0.000000
vn -1.000000 0.000000 0.000000
vn -1.000000 0.000000 0.000000
vn -1.000000 0.000000 0.000000
vn -1.000000 0.000000 0.000000
vn -1.000000 0.000000 0.000000
vn -1.000000 0.000000 0.000000
vn -1.000000 0.000000 0.000000
vn -1.000000 0.000000 0.000000
vn -1.000000 0.000000 0.000000
vn -1.000000 0.000000 0.000000
vn -1.000000 0.000000 0.000000
vn -1.000000 0.000000 0.000000
vn -1.000000 0.000000 0.000000
vn -1.000000 0.000000 0.000000
vn -1.000000 0.000000 0.000000
vn -1.000000 0.000000 0.000000
vn -1.000000 0.000000 0.000000
vn -1.000000 0.000000 0.000000
vn -1.000000 0.000000 0.000000
vn -0.707106 0.000000 0.707108
vn -0.707106 0.000000 0.707108
vn -0.707106 0.000000 0.707108
vn -0.707106 0.000000 0.707108
vn -0.707106 0.000000 0.707108
vn -0.707106 0.000000 0.707108
vn -0.707106 0.000000 0.707108
vn -0.707106 0.000000 0.707108
vn -0.707107 0.000000 0.707107
vn -0.707107 0.000000 0.707107
vn -0.707107 0.000000 0.707107
vn -0.707107 0.000000 0.707107
vn -0.707107 0.000000 0.707107
vn -0.707107 0.000000 0.707107
vn -0.707107 0.000000 0.707107
vn -0.707107 0.000000 0.707107
vn -0.707106 0.000000 0.707108
vn -0.707106 0.000000 0.707108
vn -0.707106 0.000000 0.707108
vn -0.707106 0.000000 0.707108
vn -0.707108 0.000000 0.707106
vn -0.707108 0.000000 0.707106
vn -0.707108 0.000000 0.707106
vn -0.707108 0.000000 0.707106
vn -0.707107 0.000000 0.707107
vn -0.707107 0.000000 0.707107
vn -0.707107 0.000000 0.707107
vn -0.707107 0.000000 0.707107
vn -0.707108 0.000000 0.707106
vn -0.707108 0.000000 0.707106
vn -0.707108 0.000000 0.707106
vn -0.707108 0.000000 0.707106
vn -0.707106 0.000000 0.707108
vn -0.707106 0.000000 0.707108
vn -0.707106 0.000000 0.707108
vn -0.707106 0.000000 0.707108
vn -0.707107 0.000000 0.707107
vn -0.707107 0.000000 0.707107
vn -0.707107 0.000000 0.707107
vn -0.707107 0.000000 0.707107
usemtl material
f 1/0/1 2/0/2 3/0/3
f 1/0/1 3/0/3 4/0/4
f 5/0/5 6/0/6 7/0/7
f 5/0/5 7/0/7 8/0/8
f 9/0/9 10/0/10 11/0/11
f 9/0/9 11/0/11 12/0/12
f 13/0/13 14/0/14 15/0/15
f 13/0/13 15/0/15 16/0/16
f 17/0/17 18/0/18 19/0/19
f 17/0/17 19/0/19 20/0/20
f 21/0/21 22/0/22 23/0/23
f 21/0/21 23/0/23 24/0/24
f 25/0/25 26/0/26 27/0/27
f 25/0/25 27/0/27 28/0/28
f 29/0/29 30/0/30 31/0/31
f 29/0/29 31/0/31 32/0/32
f 33/0/33 34/0/34 35/0/35
f 33/0/33 35/0/35 36/0/36
f 37/0/37 38/0/38 39/0/39
f 37/0/37 39/0/39 40/0/40
f 41/0/41 42/0/42 43/0/43
f 41/0/41 43/0/43 44/0/44
f 45/0/45 46/0/46 47/0/47
f 45/0/45 47/0/47 48/0/48
f 49/0/49 50/0/50 51/0/51
f 49/0/49 51/0/51 52/0/52
f 53/0/53 54/0/54 55/0/55
f 53/0/53 55/0/55 56/0/56
f 57/0/57 58/0/58 59/0/59
f 57/0/57 59/0/59 60/0/60
f 61/0/61 62/0/62 63/0/63
f 61/0/61 63/0/63 64/0/64
f 65/0/65 66/0/66 67/0/67
f 65/0/65 67/0/67 68/0/68
f 69/0/69 70/0/70 71/0/71
f 69/0/69 71/0/71 72/0/72
f 73/0/73 74/0/74 75/0/75
f 73/0/73 75/0/75 76/0/76
f 77/0/77 78/0/78 79/0/79
f 77/0/77 79/0/79 80/0/80
f 81/0/81 82/0/82 83/0/83
f 81/0/81 83/0/83 84/0/84
f 85/0/85 86/0/86 87/0/87
f 85/0/85 87/0/87 88/0/88
f 89/0/89 90/0/90 91/0/91
f 89/0/89 91/0/91 92/0/92
f 93/0/93 94/0/94 95/0/95
f 93/0/93 95/0/95 96/0/96
f 97/0/97 98/0/98 99/0/99
f 97/0/97 99/0/99 100/0/100
f 101/0/101 102/0/102 103/0/103
f 101/0/101 103/0/103 104/0/104
f 105/0/105 106/0/106 107/0/107
f 105/0/105 107/0/107 108/0/108
f 109/0/109 110/0/110 111/0/111
f 109/0/109 111/0/111 112/0/112
f 113/0/113 114/0/114 115/0/115
f 113/0/113 115/0/115 116/0/116
f 117/0/117 118/0/118 119/0/119
f 117/0/117 119/0/119 120/0/120
f 121/0/121 122/0/122 123/0/123
f 121/0/121 123/0/123 124/0/124
f 125/0/125 126/0/126 127/0/127
f 125/0/125 127/0/127 128/0/128
f 129/0/129 130/0/130 131/0/131
f 129/0/129 131/0/131 132/0/132
f 133/0/133 134/0/134 135/0/135
f 133/0/133 135/0/135 136/0/136
f 137/0/137 138/0/138 139/0/139
f 137/0/137 139/0/139 140/0/140
f 141/0/141 142/0/142 143/0/143
f 141/0/141 143/0/143 144/0/144
f 145/0/145 146/0/146 147/0/147
f 145/0/145 147/0/147 148/0/148
f 149/0/149 150/0/150 151/0/151
f 149/0/149 151/0/151 152/0/152
f 153/0/153 154/0/154 155/0/155
f 153/0/153 155/0/155 156/0/156
f 157/0/157 158/0/158 159/0/159
f 157/0/157 159/0/159 160/0/160
