# 
# Wavefront OBJ file
# Created with Kaydara FBX
# 
mtllib s04_inside_c10.mtl

g S04_Inside_C10
v -33.679680 17.328779 -61.174023
v -33.679684 17.328781 -52.903954
v -33.679684 5.871241 -52.903954
v -33.679680 5.871240 -61.174023
v -33.679676 37.328926 -61.174023
v -33.679676 37.328926 -52.903954
v -33.679676 25.871389 -52.903954
v -33.679676 25.871389 -61.174023
v -33.679676 45.871540 -42.214466
v -34.852192 45.871540 -43.659580
v -34.852192 57.329082 -43.659580
v -33.679676 57.329082 -42.214466
v 25.500196 17.328775 -50.736122
v 25.500196 5.871237 -50.736122
v 25.500196 5.871240 -30.863997
v 25.500196 17.328777 -30.863997
v 25.500195 37.328926 -50.736122
v 25.500195 25.871389 -50.736122
v 25.500195 25.871389 -30.863993
v 25.500195 37.328926 -30.863993
v 25.500193 45.871540 -30.863993
v 25.500193 57.329082 -30.863993
v 25.500193 57.329075 -50.736122
v 25.500193 45.871536 -50.736122
v 25.500179 17.328779 17.933542
v 25.500179 5.871240 17.933542
v 25.500179 5.871243 37.805672
v 25.500179 17.328781 37.805672
v 25.500177 37.328926 17.933544
v 25.500177 25.871389 17.933544
v 25.500177 25.871389 37.805672
v 25.500177 37.328926 37.805672
v 25.500175 45.871540 37.805672
v 25.500175 57.329082 37.805672
v 25.500175 57.329075 17.933546
v 25.500175 45.871536 17.933546
v 25.500187 17.328779 -30.863979
v 25.500187 5.871240 -30.863979
v 25.500187 5.871243 -17.227871
v 25.500187 17.328781 -17.227871
v 25.500185 37.328926 -30.863979
v 25.500185 25.871389 -30.863979
v 25.500185 25.871389 -17.227871
v 25.500185 37.328926 -17.227871
v 25.500183 45.871540 -17.227865
v 25.500183 57.329082 -17.227865
v 25.500183 57.329075 -30.863979
v 25.500183 45.871536 -30.863979
v -33.679680 17.328779 -42.214500
v -33.679680 17.328779 -29.490967
v -33.679680 5.871240 -29.490967
v -33.679680 5.871240 -42.214500
v -33.679676 37.328926 -42.214500
v -33.679676 37.328926 -29.490967
v -33.679676 25.871389 -29.490967
v -33.679676 25.871389 -42.214500
v -33.679676 45.871540 -29.490961
v -33.679676 45.871536 -42.214500
v -33.679676 57.329075 -42.214500
v -33.679676 57.329082 -29.490961
v -33.679665 17.328779 66.906944
v -33.679665 17.328781 86.779068
v -33.679665 5.871243 86.779068
v -33.679665 5.871240 66.906944
v -33.679661 37.328926 66.906944
v -33.679661 37.328926 86.779068
v -33.679661 25.871389 86.779068
v -33.679661 25.871389 66.906944
v -33.679661 45.871540 86.779068
v -33.679661 45.871536 66.906944
v -33.679661 57.329075 66.906944
v -33.679661 57.329082 86.779068
v -24.492161 -14.538740 -67.501259
v -4.089744 -14.538750 -67.501244
v -4.089743 -4.129043 -67.501244
v -24.492153 -4.129038 -67.501259
v 16.312670 -4.129048 -67.501259
v 16.312670 -14.538750 -67.501259
v -24.492153 -4.129038 -67.501259
v -4.089743 -4.129043 -67.501244
v -4.089742 -2.819155 -66.466812
v -24.492151 -2.819150 -66.466827
v 16.312670 -2.819155 -66.466835
v 16.312670 -4.129048 -67.501259
v -4.089744 -14.538750 -67.501244
v -24.492161 -14.538740 -67.501259
v -24.492165 -16.066704 -66.466827
v -4.089745 -16.066713 -66.466812
v 16.312670 -14.538750 -67.501259
v 16.312668 -16.066713 -66.466827
v -34.852196 17.328781 -43.659580
v -33.679680 17.328781 -42.214466
v -33.679680 5.871243 -42.214466
v -34.852196 5.871243 -43.659580
v -34.852196 37.328926 -43.659580
v -33.679676 37.328926 -42.214466
v -33.679676 25.871389 -42.214466
v -34.852196 25.871389 -43.659580
v -34.852192 45.871540 -43.659580
v -34.852192 45.871540 -47.431210
v -34.852192 57.329082 -47.431210
v -34.852192 57.329082 -43.659580
v -34.852192 57.329082 -50.833183
v -34.852188 45.871540 -50.833183
v -34.852196 17.328781 -47.431210
v -34.852196 17.328781 -43.659580
v -34.852196 5.871243 -43.659580
v -34.852196 5.871242 -47.431210
v -34.852196 17.328781 -50.833183
v -34.852196 5.871241 -50.833183
v -34.852196 37.328926 -47.431210
v -34.852196 37.328926 -43.659580
v -34.852196 25.871389 -43.659580
v -34.852196 25.871389 -47.431210
v -34.852196 37.328926 -50.833183
v -34.852196 25.871389 -50.833183
v -34.852188 45.871540 -50.833183
v -33.679672 45.871540 -52.903954
v -33.679676 57.329082 -52.903954
v -34.852192 57.329082 -50.833183
v -33.679684 17.328781 -52.903954
v -34.852196 17.328781 -50.833183
v -34.852196 5.871241 -50.833183
v -33.679684 5.871241 -52.903954
v -33.679676 37.328926 -52.903954
v -34.852196 37.328926 -50.833183
v -34.852196 25.871389 -50.833183
v -33.679676 25.871389 -52.903954
v -33.679672 45.871540 -52.903954
v -33.679676 45.871536 -61.174023
v -33.679676 57.329075 -61.174023
v -33.679676 57.329082 -52.903954
vt -0.524681 1.494128
vt 0.032915 1.494128
vt 0.030940 0.493839
vt -0.526656 0.493839
vt -0.523298 1.495136
vt 0.034298 1.495136
vt 0.032323 0.494846
vt -0.525273 0.494846
vt 0.756493 0.494648
vt 0.659058 0.494648
vt 0.661034 1.494938
vt 0.758468 1.494938
vt -0.524681 1.494128
vt -0.526656 0.493839
vt 0.751661 0.493839
vt 0.753637 1.494128
vt -0.523298 1.495136
vt -0.525273 0.494846
vt 0.753044 0.494846
vt 0.755020 1.495136
vt 0.756493 0.494648
vt 0.758468 1.494938
vt -0.519849 1.494938
vt -0.521825 0.494648
vt -0.524681 1.494128
vt -0.526656 0.493839
vt 0.751661 0.493839
vt 0.753637 1.494128
vt -0.523298 1.495136
vt -0.525273 0.494846
vt 0.753044 0.494846
vt 0.755020 1.495136
vt 0.756493 0.494648
vt 0.758468 1.494938
vt -0.519849 1.494938
vt -0.521825 0.494648
vt -0.123537 1.493336
vt -0.125511 0.493839
vt 0.751661 0.493839
vt 0.753637 1.494128
vt -0.122154 1.494343
vt -0.124128 0.494846
vt 0.753044 0.494846
vt 0.755020 1.495136
vt 0.756493 0.494648
vt 0.758468 1.494938
vt -0.118706 1.494146
vt -0.120680 0.494648
vt -0.123537 1.493336
vt 0.753637 1.494128
vt 0.751661 0.493839
vt -0.125511 0.493839
vt -0.122154 1.494343
vt 0.755020 1.495136
vt 0.753044 0.494846
vt -0.124128 0.494846
vt 0.756493 0.494648
vt -0.120680 0.494648
vt -0.118706 1.494146
vt 0.758468 1.494938
vt -0.524681 1.494128
vt 0.753637 1.494128
vt 0.751661 0.493839
vt -0.526656 0.493839
vt -0.523298 1.495136
vt 0.755020 1.495136
vt 0.753044 0.494846
vt -0.525273 0.494846
vt 0.756493 0.494648
vt -0.521825 0.494648
vt -0.519849 1.494938
vt 0.758468 1.494938
vt 2.742806 -0.409115
vt 1.355471 -0.409115
vt 1.355471 0.375475
vt 2.742805 0.375475
vt -0.031864 0.375475
vt -0.031864 -0.409115
vt 2.742805 0.375475
vt 1.355471 0.375475
vt 1.355471 0.474203
vt 2.742805 0.474203
vt -0.031864 0.474203
vt -0.031864 0.375475
vt 1.355471 -0.409115
vt 2.742806 -0.409115
vt 2.742806 -0.524279
vt 1.355471 -0.524280
vt -0.031864 -0.409115
vt -0.031864 -0.524280
vt 0.656202 1.494128
vt 0.753637 1.494128
vt 0.751661 0.493839
vt 0.654227 0.493839
vt 0.657586 1.495136
vt 0.755020 1.495136
vt 0.753044 0.494846
vt 0.655610 0.494846
vt 0.659058 0.494648
vt 0.404762 0.494648
vt 0.406738 1.494938
vt 0.661034 1.494938
vt 0.177365 1.494938
vt 0.175390 0.494648
vt 0.401906 1.494128
vt 0.656202 1.494128
vt 0.654227 0.493839
vt 0.399931 0.493839
vt 0.172534 1.494128
vt 0.170558 0.493839
vt 0.403289 1.495136
vt 0.657586 1.495136
vt 0.655610 0.494846
vt 0.401314 0.494846
vt 0.173917 1.495136
vt 0.171941 0.494846
vt 0.175390 0.494648
vt 0.035771 0.494648
vt 0.037747 1.494938
vt 0.177365 1.494938
vt 0.032915 1.494128
vt 0.172534 1.494128
vt 0.170558 0.493839
vt 0.030940 0.493839
vt 0.034298 1.495136
vt 0.173917 1.495136
vt 0.171941 0.494846
vt 0.032323 0.494846
vt 0.035771 0.494648
vt -0.521825 0.494648
vt -0.519849 1.494938
vt 0.037747 1.494938
vn 1.000000 0.000000 0.000000
vn 0.993633 0.000000 0.112665
vn 0.993633 0.000000 0.112665
vn 1.000000 0.000000 0.000000
vn 1.000000 0.000000 0.000000
vn 0.993633 0.000000 0.112665
vn 0.993633 0.000000 0.112665
vn 1.000000 0.000000 0.000000
vn 1.000000 0.000000 0.000000
vn 0.975660 0.000000 -0.219290
vn 0.975660 0.000000 -0.219290
vn 1.000000 0.000000 0.000000
vn -1.000000 0.000000 0.000000
vn -1.000000 0.000000 0.000000
vn -1.000000 0.000000 0.000000
vn -1.000000 0.000000 0.000000
vn -1.000000 0.000000 0.000000
vn -1.000000 0.000000 0.000000
vn -1.000000 0.000000 0.000000
vn -1.000000 0.000000 0.000000
vn -1.000000 0.000000 0.000000
vn -1.000000 0.000000 0.000000
vn -1.000000 0.000000 0.000000
vn -1.000000 0.000000 0.000000
vn -1.000000 0.000000 0.000000
vn -1.000000 0.000000 0.000000
vn -1.000000 0.000000 0.000000
vn -1.000000 0.000000 0.000000
vn -1.000000 0.000000 0.000000
vn -1.000000 0.000000 0.000000
vn -1.000000 0.000000 0.000000
vn -1.000000 0.000000 0.000000
vn -1.000000 0.000000 0.000000
vn -1.000000 0.000000 0.000000
vn -1.000000 0.000000 0.000000
vn -1.000000 0.000000 0.000000
vn -1.000000 0.000000 0.000000
vn -1.000000 0.000000 0.000000
vn -1.000000 0.000000 0.000000
vn -1.000000 0.000000 0.000000
vn -1.000000 0.000000 0.000000
vn -1.000000 0.000000 0.000000
vn -1.000000 0.000000 0.000000
vn -1.000000 0.000000 0.000000
vn -1.000000 0.000000 0.000000
vn -1.000000 0.000000 0.000000
vn -1.000000 0.000000 0.000000
vn -1.000000 0.000000 0.000000
vn 1.000000 0.000000 0.000000
vn 1.000000 0.000000 0.000000
vn 1.000000 0.000000 0.000000
vn 1.000000 0.000000 0.000000
vn 1.000000 0.000000 0.000000
vn 1.000000 0.000000 0.000000
vn 1.000000 0.000000 0.000000
vn 1.000000 0.000000 0.000000
vn 1.000000 0.000000 0.000000
vn 1.000000 0.000000 0.000000
vn 1.000000 0.000000 0.000000
vn 1.000000 0.000000 0.000000
vn 1.000000 0.000000 0.000000
vn 1.000000 0.000000 0.000000
vn 1.000000 0.000000 0.000000
vn 1.000000 0.000000 0.000000
vn 1.000000 0.000000 0.000000
vn 1.000000 0.000000 0.000000
vn 1.000000 0.000000 0.000000
vn 1.000000 0.000000 0.000000
vn 1.000000 0.000000 0.000000
vn 1.000000 0.000000 0.000000
vn 1.000000 0.000000 0.000000
vn 1.000000 0.000000 0.000000
vn -0.000001 0.000000 1.000000
vn -0.000001 0.000000 1.000000
vn -0.000001 0.000000 1.000000
vn -0.000001 0.000000 1.000000
vn 0.000001 0.000000 1.000000
vn 0.000001 0.000000 1.000000
vn -0.000001 -0.619757 0.784794
vn -0.000001 -0.619757 0.784794
vn -0.000001 -0.619757 0.784794
vn -0.000001 -0.619757 0.784794
vn 0.000000 -0.619757 0.784794
vn 0.000000 -0.619757 0.784794
vn -0.000000 0.560609 0.828081
vn -0.000000 0.560609 0.828081
vn -0.000000 0.560609 0.828081
vn -0.000000 0.560609 0.828081
vn 0.000000 0.560609 0.828081
vn 0.000000 0.560609 0.828081
vn 0.975660 0.000000 -0.219290
vn 1.000000 0.000000 0.000000
vn 1.000000 0.000000 0.000000
vn 0.975660 0.000000 -0.219290
vn 0.975660 0.000000 -0.219290
vn 1.000000 0.000000 0.000000
vn 1.000000 0.000000 0.000000
vn 0.975660 0.000000 -0.219290
vn 0.975660 0.000000 -0.219290
vn 1.000000 0.000000 0.000000
vn 1.000000 0.000000 0.000000
vn 0.975660 0.000000 -0.219290
vn 0.977810 0.000000 0.209493
vn 0.977810 0.000000 0.209493
vn 1.000000 0.000000 0.000000
vn 0.975660 0.000000 -0.219290
vn 0.975660 0.000000 -0.219290
vn 1.000000 0.000000 0.000000
vn 0.977810 0.000000 0.209492
vn 0.977810 0.000000 0.209492
vn 1.000000 0.000000 0.000000
vn 0.975660 0.000000 -0.219290
vn 0.975660 0.000000 -0.219290
vn 1.000000 0.000000 0.000000
vn 0.977810 0.000000 0.209493
vn 0.977810 0.000000 0.209493
vn 0.977810 0.000000 0.209493
vn 0.993633 0.000000 0.112665
vn 0.993633 0.000000 0.112665
vn 0.977810 0.000000 0.209493
vn 0.993633 0.000000 0.112665
vn 0.977810 0.000000 0.209492
vn 0.977810 0.000000 0.209492
vn 0.993633 0.000000 0.112665
vn 0.993633 0.000000 0.112665
vn 0.977810 0.000000 0.209493
vn 0.977810 0.000000 0.209493
vn 0.993633 0.000000 0.112665
vn 0.993633 0.000000 0.112665
vn 1.000000 0.000000 0.000000
vn 1.000000 0.000000 0.000000
vn 0.993633 0.000000 0.112665
usemtl material
f 1/0/1 2/0/2 3/0/3
f 1/0/1 3/0/3 4/0/4
f 5/0/5 6/0/6 7/0/7
f 5/0/5 7/0/7 8/0/8
f 9/0/9 10/0/10 11/0/11
f 9/0/9 11/0/11 12/0/12
f 13/0/13 14/0/14 15/0/15
f 13/0/13 15/0/15 16/0/16
f 17/0/17 18/0/18 19/0/19
f 17/0/17 19/0/19 20/0/20
f 21/0/21 22/0/22 23/0/23
f 21/0/21 23/0/23 24/0/24
f 25/0/25 26/0/26 27/0/27
f 25/0/25 27/0/27 28/0/28
f 29/0/29 30/0/30 31/0/31
f 29/0/29 31/0/31 32/0/32
f 33/0/33 34/0/34 35/0/35
f 33/0/33 35/0/35 36/0/36
f 37/0/37 38/0/38 39/0/39
f 37/0/37 39/0/39 40/0/40
f 41/0/41 42/0/42 43/0/43
f 41/0/41 43/0/43 44/0/44
f 45/0/45 46/0/46 47/0/47
f 45/0/45 47/0/47 48/0/48
f 49/0/49 50/0/50 51/0/51
f 49/0/49 51/0/51 52/0/52
f 53/0/53 54/0/54 55/0/55
f 53/0/53 55/0/55 56/0/56
f 57/0/57 58/0/58 59/0/59
f 57/0/57 59/0/59 60/0/60
f 61/0/61 62/0/62 63/0/63
f 61/0/61 63/0/63 64/0/64
f 65/0/65 66/0/66 67/0/67
f 65/0/65 67/0/67 68/0/68
f 69/0/69 70/0/70 71/0/71
f 69/0/69 71/0/71 72/0/72
f 73/0/73 74/0/74 75/0/75
f 73/0/73 75/0/75 76/0/76
f 74/0/74 77/0/77 75/0/75
f 74/0/74 78/0/78 77/0/77
f 79/0/79 80/0/80 81/0/81
f 79/0/79 81/0/81 82/0/82
f 80/0/80 83/0/83 81/0/81
f 80/0/80 84/0/84 83/0/83
f 85/0/85 86/0/86 87/0/87
f 85/0/85 87/0/87 88/0/88
f 89/0/89 85/0/85 88/0/88
f 89/0/89 88/0/88 90/0/90
f 91/0/91 92/0/92 93/0/93
f 91/0/91 93/0/93 94/0/94
f 95/0/95 96/0/96 97/0/97
f 95/0/95 97/0/97 98/0/98
f 99/0/99 100/0/100 101/0/101
f 99/0/99 101/0/101 102/0/102
f 100/0/100 103/0/103 101/0/101
f 100/0/100 104/0/104 103/0/103
f 105/0/105 106/0/106 107/0/107
f 105/0/105 107/0/107 108/0/108
f 109/0/109 105/0/105 108/0/108
f 109/0/109 108/0/108 110/0/110
f 111/0/111 112/0/112 113/0/113
f 111/0/111 113/0/113 114/0/114
f 115/0/115 111/0/111 114/0/114
f 115/0/115 114/0/114 116/0/116
f 117/0/117 118/0/118 119/0/119
f 117/0/117 119/0/119 120/0/120
f 121/0/121 122/0/122 123/0/123
f 121/0/121 123/0/123 124/0/124
f 125/0/125 126/0/126 127/0/127
f 125/0/125 127/0/127 128/0/128
f 129/0/129 130/0/130 131/0/131
f 129/0/129 131/0/131 132/0/132
