# 
# Wavefront OBJ file
# Created with Kaydara FBX
# 
mtllib s04_inside_c08_ref.mtl

g S04_Inside_C08_Ref
v 19.760704 0.010511 76.647499
v 19.760706 0.010511 72.000000
v 15.122961 0.010511 72.000000
v 15.122961 0.010511 76.647499
v 22.163534 0.010510 79.052246
v 19.760704 0.010511 76.647499
v 15.122961 0.010511 76.647499
v 15.122961 0.010511 79.052238
v 22.163538 0.010510 72.000000
v 19.760706 0.010511 72.000000
v 9.039965 0.010512 79.052231
v 10.485217 0.010512 76.647499
v 7.999247 0.010512 78.011520
v 10.485218 0.010512 72.000000
v 7.999249 0.010512 71.999992
v 15.122961 0.010511 79.052238
v 15.122961 0.010511 76.647499
v 7.999251 0.010512 65.988472
v 10.485220 0.010512 67.352501
v 9.039968 0.010512 64.947754
v 15.122964 0.010511 67.352501
v 15.122966 0.010511 64.947754
v 7.999249 0.010512 71.999992
v 10.485218 0.010512 72.000000
v 22.163540 0.010510 64.947754
v 19.760706 0.010511 67.352501
v 19.760706 0.010511 72.000000
v 22.163538 0.010510 72.000000
v 15.122966 0.010511 64.947754
v 15.122964 0.010511 67.352501
v 10.485218 0.010512 72.000000
v 15.122961 0.010511 72.000000
v 15.122964 0.010511 67.352501
v 10.485220 0.010512 67.352501
v 15.122961 0.010511 76.647499
v 15.122961 0.010511 72.000000
v 10.485218 0.010512 72.000000
v 10.485217 0.010512 76.647499
v 15.122964 0.010511 67.352501
v 15.122961 0.010511 72.000000
v 19.760706 0.010511 72.000000
v 19.760706 0.010511 67.352501
v -0.304613 5.594491 4.000023
v 6.388521 5.594491 4.000023
v 7.988523 5.594491 2.400023
v 7.988524 5.594491 -6.212337
v -0.314732 5.594492 -6.212337
v -0.314733 5.594492 -15.999976
v 7.988523 5.594491 -15.999976
v -4.011480 5.594492 -6.212337
v -4.011481 5.594492 4.000023
v -4.011481 5.594492 -15.999976
v -7.708229 5.594493 -6.212337
v -7.718349 5.594492 4.000023
v -16.011486 5.594494 -6.212337
v -16.011484 5.594494 2.400023
v -14.411483 5.594494 4.000016
v -7.708229 5.594493 -15.999976
v -16.011486 5.594494 -15.999976
v -4.011481 5.594492 4.000023
v -7.718349 5.594492 4.000023
v -5.727931 5.594492 6.399833
v -4.878633 5.594492 6.399833
v -4.011482 5.594492 6.399833
v -3.144334 5.594492 6.399833
v -2.295035 5.594492 6.399833
v -0.304613 5.594491 4.000023
vt 0.566782 0.865442
vt 0.699563 0.865442
vt 0.699563 0.997944
vt 0.566782 0.997944
vt 0.514583 0.999087
vt 0.411139 0.894672
vt 0.211481 0.894673
vt 0.211481 0.999086
vt 0.514583 0.692878
vt 0.411139 0.692878
vt 0.472955 0.998056
vt 0.410832 0.894689
vt 0.517690 0.953321
vt 0.410832 0.694919
vt 0.517690 0.694919
vt 0.211481 0.998056
vt 0.211481 0.894689
vt 0.517202 0.952833
vt 0.410344 0.894201
vt 0.472467 0.997568
vt 0.210993 0.894201
vt 0.210993 0.997568
vt 0.517202 0.694431
vt 0.410344 0.694431
vt 0.514095 0.999086
vt 0.410651 0.894672
vt 0.410651 0.692878
vt 0.514095 0.692878
vt 0.210992 0.999087
vt 0.210992 0.894672
vt 0.699404 0.864992
vt 0.699404 0.997494
vt 0.566623 0.997494
vt 0.566623 0.864992
vt 0.566782 0.998063
vt 0.699563 0.998063
vt 0.699563 0.865561
vt 0.566782 0.865561
vt 0.566623 0.997944
vt 0.699404 0.997944
vt 0.699404 0.865442
vt 0.566623 0.865442
vt 0.484198 0.510553
vt 0.093417 0.510553
vt -0.000000 0.577539
vt -0.000000 0.998812
vt 0.484789 0.998955
vt 0.484789 0.498887
vt -0.000000 0.498887
vt 0.700625 0.998812
vt 0.700625 0.510553
vt 0.700625 0.498887
vt 0.485237 0.998812
vt 0.484646 0.510553
vt 0.000449 0.998812
vt 0.000449 0.577539
vt 0.093865 0.510965
vt 0.485237 0.498887
vt 0.000449 0.498887
vt 0.701116 0.776358
vt 0.484430 0.776768
vt 0.600164 0.872888
vt 0.649547 0.872888
vt 0.701171 0.872587
vt 0.649878 0.872497
vt 0.600494 0.872497
vt 0.484420 0.776770
vn 0.000000 1.000000 0.000000
vn 0.000000 1.000000 0.000000
vn 0.000000 1.000000 0.000000
vn 0.000000 1.000000 0.000000
vn 0.000000 1.000000 0.000000
vn 0.000000 1.000000 0.000000
vn 0.000000 1.000000 0.000000
vn 0.000000 1.000000 0.000000
vn 0.000000 1.000000 0.000000
vn 0.000000 1.000000 0.000000
vn 0.000000 1.000000 0.000000
vn 0.000000 1.000000 0.000000
vn 0.000000 1.000000 0.000000
vn 0.000000 1.000000 0.000000
vn 0.000000 1.000000 0.000000
vn 0.000000 1.000000 0.000000
vn 0.000000 1.000000 0.000000
vn 0.000000 1.000000 0.000000
vn 0.000000 1.000000 0.000000
vn 0.000000 1.000000 0.000000
vn 0.000000 1.000000 0.000000
vn 0.000000 1.000000 0.000000
vn 0.000000 1.000000 0.000000
vn 0.000000 1.000000 0.000000
vn 0.000000 1.000000 0.000000
vn 0.000000 1.000000 0.000000
vn 0.000000 1.000000 0.000000
vn 0.000000 1.000000 0.000000
vn 0.000000 1.000000 0.000000
vn 0.000000 1.000000 0.000000
vn 0.000000 1.000000 0.000000
vn 0.000000 1.000000 0.000000
vn 0.000000 1.000000 0.000000
vn 0.000000 1.000000 0.000000
vn 0.000000 1.000000 0.000000
vn 0.000000 1.000000 0.000000
vn 0.000000 1.000000 0.000000
vn 0.000000 1.000000 0.000000
vn 0.000000 1.000000 0.000000
vn 0.000000 1.000000 0.000000
vn 0.000000 1.000000 0.000000
vn 0.000000 1.000000 0.000000
vn 0.000000 1.000000 0.000000
vn 0.000000 1.000000 0.000000
vn 0.000000 1.000000 0.000000
vn 0.000000 1.000000 0.000000
vn 0.000000 1.000000 0.000000
vn 0.000000 1.000000 0.000000
vn 0.000000 1.000000 0.000000
vn 0.000000 1.000000 0.000000
vn 0.000000 1.000000 0.000000
vn 0.000000 1.000000 0.000000
vn 0.000000 1.000000 0.000000
vn 0.000000 1.000000 -0.000000
vn 0.000000 1.000000 0.000000
vn 0.000000 1.000000 -0.000000
vn 0.000000 1.000000 -0.000000
vn 0.000000 1.000000 0.000000
vn 0.000000 1.000000 0.000000
vn 0.000000 1.000000 0.000000
vn 0.000000 1.000000 0.000000
vn 0.000000 1.000000 0.000000
vn 0.000000 1.000000 0.000000
vn 0.000000 1.000000 -0.000000
vn 0.000000 1.000000 -0.000000
vn 0.000000 1.000000 -0.000000
vn 0.000000 1.000000 -0.000000
usemtl material
f 1/0/1 2/0/2 3/0/3
f 1/0/1 3/0/3 4/0/4
f 5/0/5 6/0/6 7/0/7
f 5/0/5 7/0/7 8/0/8
f 9/0/9 6/0/6 5/0/5
f 9/0/9 10/0/10 6/0/6
f 11/0/11 12/0/12 13/0/13
f 13/0/13 12/0/12 14/0/14
f 13/0/13 14/0/14 15/0/15
f 16/0/16 12/0/12 11/0/11
f 16/0/16 17/0/17 12/0/12
f 18/0/18 19/0/19 20/0/20
f 20/0/20 19/0/19 21/0/21
f 20/0/20 21/0/21 22/0/22
f 23/0/23 19/0/19 18/0/18
f 23/0/23 24/0/24 19/0/19
f 25/0/25 26/0/26 27/0/27
f 25/0/25 27/0/27 28/0/28
f 29/0/29 26/0/26 25/0/25
f 29/0/29 30/0/30 26/0/26
f 31/0/31 32/0/32 33/0/33
f 31/0/31 33/0/33 34/0/34
f 35/0/35 36/0/36 37/0/37
f 35/0/35 37/0/37 38/0/38
f 39/0/39 40/0/40 41/0/41
f 39/0/39 41/0/41 42/0/42
f 43/0/43 44/0/44 45/0/45
f 43/0/43 45/0/45 46/0/46
f 47/0/47 43/0/43 46/0/46
f 46/0/46 48/0/48 47/0/47
f 46/0/46 49/0/49 48/0/48
f 43/0/43 47/0/47 50/0/50
f 43/0/43 50/0/50 51/0/51
f 47/0/47 48/0/48 52/0/52
f 47/0/47 52/0/52 50/0/50
f 51/0/51 50/0/50 53/0/53
f 51/0/51 53/0/53 54/0/54
f 55/0/55 54/0/54 53/0/53
f 55/0/55 56/0/56 54/0/54
f 54/0/54 56/0/56 57/0/57
f 55/0/55 53/0/53 58/0/58
f 50/0/50 52/0/52 58/0/58
f 50/0/50 58/0/58 53/0/53
f 55/0/55 58/0/58 59/0/59
f 60/0/60 61/0/61 62/0/62
f 60/0/60 62/0/62 63/0/63
f 60/0/60 63/0/63 64/0/64
f 60/0/60 64/0/64 65/0/65
f 60/0/60 65/0/65 66/0/66
f 60/0/60 66/0/66 67/0/67
