# 
# Wavefront OBJ file
# Created with Kaydara FBX
# 
mtllib s04_inside_c01_ref.mtl

g S04_Inside_C01_Ref
v -26.471569 10.948147 39.981953
v -32.000008 10.948147 43.981956
v -32.000008 10.948148 48.982929
v -26.471571 10.948148 48.982929
v -32.000015 10.948147 39.981953
v -25.573164 10.948147 47.981956
v 24.000008 10.948141 43.981953
v -5.990246 10.948142 39.981949
v -2.009756 10.948142 39.981949
v 18.471569 10.948138 39.981949
v 24.000008 10.948138 39.981949
v 24.000008 10.948138 47.981953
v 18.471560 5.578362 -7.999978
v 18.471560 5.578362 48.000000
v 23.999996 5.578362 48.000000
v 23.999996 5.578362 -7.999978
v -2.009763 10.865030 27.600271
v -2.009765 10.970001 15.503420
v -2.399024 10.970002 15.503420
v -5.600959 10.970002 15.503420
v -5.990256 10.970002 15.503420
v -5.990256 10.865031 27.600271
v -5.990256 10.943465 36.946922
v -2.009762 10.943465 36.946922
v -5.990255 10.943465 40.000004
v -2.009762 10.943465 40.000004
v -32.000015 -0.000045 41.199017
v -32.000015 -0.000045 64.068451
v -26.481647 -0.000045 63.079990
v -26.461491 -0.000045 41.199017
v -25.487759 -0.000045 64.068451
v 7.999996 -0.000050 79.999992
v 7.999998 -0.000050 72.027481
v -25.491951 -0.000045 72.034225
v -25.496141 -0.000045 80.000008
v 7.999999 -0.000050 64.054970
v -25.487759 -0.000045 64.068451
v -25.487759 -0.000045 64.068451
v -32.000015 -0.000045 64.068451
v -32.000015 -0.000045 72.034225
v -25.491951 -0.000045 72.034225
v -25.491951 -0.000045 72.034225
v -32.000015 -0.000045 72.034225
v -32.000015 -0.000045 79.999992
v -25.496141 -0.000045 80.000008
v -22.554207 -0.000045 11.615557
v -26.471579 -0.000045 10.031293
v -26.471579 -0.000045 41.199024
v -21.700525 -0.000045 12.421334
v -21.700525 -0.000045 38.977371
v -32.000019 -0.000045 9.447492
v -26.471579 -0.000045 10.031293
v -28.078833 -0.000045 9.353208
v -32.000015 -0.000045 41.199017
v -26.471579 -0.000045 41.199024
v -32.000023 5.578370 -7.999969
v -32.000023 5.578370 0.636524
v -28.078835 5.578370 0.589850
v -28.078835 5.578370 -7.999977
v 18.471558 5.578367 -7.999977
v 18.471558 5.578366 -15.999975
v 7.999995 5.578365 -15.999976
v 7.999994 5.578365 -7.999977
v 24.000002 5.578367 -7.999969
v 23.999994 5.578367 -15.999975
v 18.471558 5.578366 -15.999975
v 18.471558 5.578367 -7.999977
v -26.471579 5.578370 -7.999977
v -16.000013 5.578368 -7.999977
v -16.000015 5.578368 -15.999976
v -26.471579 5.578369 -15.999975
v -32.000023 5.578370 -7.999969
v -26.471579 5.578370 -7.999977
v -26.471579 5.578369 -15.999975
v -32.000015 5.578370 -15.999975
v 168.060822 1.599947 -1.075874
v 168.059875 1.599947 -7.590389
v 144.112305 1.599952 -7.590389
v 144.112305 1.599952 -1.075874
v 156.219742 1.599949 -1.075874
v 168.059875 1.599947 -23.360800
v 168.060654 1.599947 -29.875307
v 144.112289 1.599952 -29.875307
v 144.112289 1.599952 -23.360800
v 144.112305 1.599952 -1.075874
v 144.112305 1.599952 48.772270
v 156.219742 1.599950 48.772278
v 156.219742 1.599949 -1.075874
v 168.060822 1.599947 48.772278
v 168.060822 1.599947 -1.075874
v 144.112152 1.599953 -79.723457
v 144.112152 1.599953 -29.875301
v 156.219604 1.599951 -29.875307
v 156.219604 1.599950 -79.723457
v 168.060654 1.599947 -29.875307
v 168.060654 1.599947 -79.723457
v 144.112152 1.599953 -103.250977
v 144.112152 1.599953 -79.723442
v 156.219604 1.599951 -79.723457
v 156.219604 1.599950 -103.250977
v 168.060654 1.599947 -79.723457
v 168.060654 1.599947 -103.250977
v 122.834946 1.599946 52.482079
v 122.834938 1.599945 48.772266
v 111.265884 1.599946 48.772270
v 111.265884 1.599947 52.482079
v 122.834946 1.599946 52.482079
v 126.101814 1.599946 55.286781
v 168.705902 1.599950 55.286781
v 168.705902 1.599950 48.772266
v 122.834938 1.599945 48.772266
v 126.101814 1.599946 55.286781
v 126.130409 1.573583 55.804295
v 168.705902 1.573581 55.804302
v 168.705902 1.599950 55.286781
v 111.265884 1.599947 52.482079
v 73.096855 1.599952 48.772270
v 73.096855 1.599952 55.286781
v 107.999008 1.599947 55.286781
v 111.265884 1.599946 48.772270
v 122.834969 1.599946 67.418770
v 111.265907 1.599947 67.418770
v 111.265907 1.599946 71.128586
v 122.834961 1.599945 71.128586
v 122.834969 1.599946 67.418770
v 168.705933 1.599950 71.128586
v 168.705933 1.599950 64.614067
v 126.101830 1.599946 64.614067
v 122.834961 1.599945 71.128586
v 126.101830 1.599946 64.614067
v 168.705933 1.599950 64.614067
v 168.705933 1.573581 64.096550
v 126.130409 1.573583 64.096550
v 111.265907 1.599947 67.418770
v 107.999031 1.599947 64.614067
v 73.096878 1.599952 64.614067
v 73.096878 1.599952 71.128586
v 111.265907 1.599946 71.128586
v 18.471569 10.948138 39.981949
v 24.000004 10.948138 39.981949
v 24.000008 10.948138 -0.018030
v 20.071569 10.948139 -0.018030
v 18.471567 10.948138 1.581970
v -26.471584 10.948138 39.981949
v -28.071585 10.948139 -0.018030
v -32.000023 10.948138 -0.018030
v -32.000019 10.948138 39.981949
v -26.471581 10.948138 1.581970
v 144.973709 1.573579 55.804306
v 126.130409 1.573583 55.804295
v 126.130409 1.573583 57.803764
v 144.973709 1.573579 64.096550
v 126.130409 1.573583 62.332199
v 126.130409 1.573583 64.096550
v 153.037704 1.573579 55.804306
v 153.037704 1.573579 64.096550
v 168.725967 1.573579 64.096550
v 168.725967 1.573579 55.804306
v 126.130409 1.573583 55.804295
v 108.043259 -0.000053 55.871170
v 108.043259 -0.000053 57.791698
v 126.130409 1.573583 57.803764
v 108.043266 -0.000053 62.328728
v 126.130409 1.573583 62.332199
v 108.043266 -0.000053 64.029694
v 126.130409 1.573583 64.096550
v 108.043266 -0.000053 64.029694
v 108.043259 -0.000053 55.871170
v 73.096855 -0.000047 55.871170
v 73.096855 -0.000047 64.029701
vt 1.000000 0.042396
vt 0.847597 -0.178691
vt 0.695194 -0.178691
vt 0.695194 0.047005
vt 1.000000 -0.178691
vt 0.695194 0.078324
vt 0.847597 2.060795
vt 1.000000 0.861460
vt 1.000000 1.020643
vt 1.000000 1.839708
vt 1.000000 2.060795
vt 0.695194 2.060795
vt 0.709791 0.589943
vt 0.709791 -2.399992
vt 0.976462 -2.399992
vt 0.976462 0.589943
vt 0.991991 0.936526
vt 0.991991 0.298858
vt 0.962975 0.298858
vt 0.724296 0.298858
vt 0.695277 0.298858
vt 0.695277 0.936525
vt 0.695276 1.429220
vt 0.991990 1.429220
vt 0.695276 1.590158
vt 0.991990 1.590159
vt 0.999192 2.296952
vt 0.999193 1.294257
vt 0.752675 1.337595
vt 0.751775 2.296952
vt 0.708463 1.294257
vt 0.336100 0.156582
vt 0.135405 0.156582
vt 0.135575 0.994955
vt 0.336100 0.995067
vt 0.335374 0.156582
vt 0.335713 0.994843
vt 0.335713 0.155718
vt 0.336903 0.346685
vt 0.136170 0.346685
vt 0.135575 0.155830
vt 0.135575 0.155830
vt 0.136170 0.346685
vt 0.336100 0.346685
vt 0.336100 0.155942
vt -0.034438 0.953338
vt -0.190612 1.026186
vt -0.190612 -0.406971
vt -0.005908 0.916286
vt -0.005908 -0.304815
vt -0.005849 1.055408
vt -0.190612 1.026186
vt -0.135810 1.050742
vt -0.005849 -0.406971
vt -0.190612 -0.406971
vt 0.974812 0.822090
vt 0.974812 0.590858
vt 0.791000 0.592108
vt 0.715657 0.822090
vt 0.707910 0.558500
vt 0.991118 0.558500
vt 0.991118 1.051800
vt 0.707910 1.051800
vt 0.707909 0.299007
vt 0.991118 0.299007
vt 0.991118 0.558500
vt 0.707910 0.558500
vt 0.707910 0.558500
vt 0.707910 1.051800
vt 0.991118 1.051800
vt 0.991118 0.558500
vt 0.707909 0.299007
vt 0.707910 0.558500
vt 0.991118 0.558500
vt 0.991118 0.299007
vt 0.974003 0.024734
vt 0.708479 0.024609
vt 0.708484 -0.619144
vt 0.975966 -0.619981
vt 0.974985 -0.292848
vt 0.708434 0.024610
vt 0.974048 0.024709
vt 0.974359 -0.619974
vt 0.709943 -0.619150
vt 0.380721 1.000173
vt 0.380726 0.158956
vt 0.002567 0.158953
vt 0.002562 1.000151
vt 0.380792 0.158951
vt 0.380798 1.000129
vt 0.380721 1.000173
vt 0.380726 0.158956
vt 0.002567 0.158953
vt 0.002562 1.000151
vt 0.380792 0.158951
vt 0.380798 1.000129
vt 0.380747 0.555997
vt 0.380726 0.158956
vt 0.002567 0.158953
vt 0.002565 0.555985
vt 0.380792 0.158951
vt 0.380795 0.555973
vt 0.823540 0.821183
vt 0.973989 0.821112
vt 0.973986 0.587282
vt 0.823528 0.587189
vt 0.823528 0.587189
vt 0.708450 0.498778
vt 0.708334 -0.654798
vt 0.974284 -0.656085
vt 0.973986 0.587200
vt 0.709164 2.426253
vt 0.674527 2.426995
vt 0.674524 1.711442
vt 0.709161 1.711442
vt 0.823528 0.587189
vt 0.974511 -0.447111
vt 0.708489 -0.445886
vt 0.708450 0.498778
vt 0.973986 0.587249
vt 0.823540 0.821183
vt 0.823528 0.587189
vt 0.973986 0.587282
vt 0.973989 0.821112
vt 0.823528 0.587189
vt 0.974284 -0.656085
vt 0.708334 -0.654799
vt 0.708450 0.498778
vt 0.973986 0.587200
vt 0.709164 2.426253
vt 0.709183 1.711467
vt 0.674546 1.711466
vt 0.674527 2.426995
vt 0.823528 0.587189
vt 0.708450 0.498778
vt 0.708489 -0.445886
vt 0.974511 -0.447111
vt 0.973986 0.587249
vt 0.998285 -1.406389
vt 0.694948 -1.406389
vt 0.694948 1.051431
vt 0.910496 1.051431
vt 0.998285 0.953118
vt 0.998285 -1.406389
vt 0.910496 1.051431
vt 0.694948 1.051431
vt 0.694948 -1.406389
vt 0.998285 0.953118
vt 0.675851 1.321280
vt 0.675847 0.663683
vt 0.606070 0.663683
vt 0.386472 1.321280
vt 0.448038 0.663684
vt 0.386467 0.663684
vt 0.675853 1.602701
vt 0.386473 1.602701
vt 0.386475 2.150198
vt 0.675855 2.150198
vt 0.673513 0.661142
vt 0.673500 0.032474
vt 0.606478 0.032475
vt 0.606491 0.661142
vt 0.448150 0.032478
vt 0.448159 0.661142
vt 0.388787 0.032475
vt 0.388800 0.661142
vt 0.388787 0.032475
vt 0.673500 0.032474
vt 0.673498 -1.187074
vt 0.388785 -1.187073
vn 0.000000 1.000000 -0.000000
vn 0.000000 1.000000 -0.000000
vn 0.000000 1.000000 -0.000000
vn 0.000000 1.000000 -0.000000
vn 0.000000 1.000000 0.000000
vn 0.000000 1.000000 0.000000
vn 0.000000 1.000000 -0.000000
vn 0.000000 1.000000 0.000000
vn 0.000000 1.000000 -0.000001
vn 0.000000 1.000000 -0.000000
vn 0.000000 1.000000 -0.000000
vn 0.000000 1.000000 0.000000
vn 0.000000 1.000000 0.000000
vn 0.000000 1.000000 0.000000
vn 0.000000 1.000000 0.000000
vn 0.000000 1.000000 0.000000
vn 0.000000 1.000000 0.000000
vn 0.000000 1.000000 0.000000
vn 0.000000 1.000000 0.000000
vn 0.000000 1.000000 0.000000
vn 0.000000 1.000000 0.000000
vn 0.000000 1.000000 0.000000
vn 0.000000 0.999965 -0.008391
vn 0.000000 0.999965 -0.008391
vn 0.000000 1.000000 0.000000
vn 0.000000 1.000000 0.000000
vn 0.000000 1.000000 0.000000
vn 0.000000 1.000000 0.000000
vn 0.000000 1.000000 0.000000
vn 0.000000 1.000000 0.000000
vn 0.000000 1.000000 0.000000
vn 0.000000 1.000000 0.000000
vn 0.000000 1.000000 0.000000
vn 0.000000 1.000000 0.000000
vn 0.000000 1.000000 0.000000
vn 0.000000 1.000000 0.000000
vn 0.000000 1.000000 0.000000
vn 0.000000 1.000000 0.000000
vn 0.000000 1.000000 0.000000
vn 0.000000 1.000000 0.000000
vn 0.000000 1.000000 0.000000
vn 0.000000 1.000000 0.000000
vn 0.000000 1.000000 0.000000
vn 0.000000 1.000000 0.000000
vn 0.000000 1.000000 0.000000
vn 0.000000 1.000000 0.000000
vn 0.000000 1.000000 0.000000
vn 0.000000 1.000000 0.000000
vn 0.000000 1.000000 0.000000
vn 0.000000 1.000000 0.000000
vn 0.000000 1.000000 -0.000000
vn 0.000000 1.000000 -0.000000
vn 0.000000 1.000000 -0.000000
vn 0.000000 1.000000 0.000000
vn 0.000000 1.000000 0.000000
vn 0.000000 1.000000 0.000000
vn 0.000000 1.000000 0.000000
vn 0.000000 1.000000 0.000000
vn 0.000000 1.000000 0.000000
vn -0.000000 1.000000 0.000000
vn -0.000000 1.000000 0.000000
vn -0.000000 1.000000 0.000000
vn -0.000000 1.000000 0.000000
vn 0.000000 1.000000 0.000000
vn 0.000000 1.000000 0.000000
vn 0.000000 1.000000 0.000000
vn 0.000000 1.000000 0.000000
vn 0.000000 1.000000 0.000000
vn 0.000000 1.000000 0.000000
vn 0.000000 1.000000 0.000000
vn 0.000000 1.000000 0.000000
vn 0.000000 1.000000 0.000000
vn 0.000000 1.000000 0.000000
vn 0.000000 1.000000 0.000000
vn 0.000000 1.000000 0.000000
vn 0.000000 1.000000 0.000000
vn 0.000000 1.000000 0.000000
vn 0.000000 1.000000 0.000000
vn 0.000000 1.000000 0.000000
vn 0.000000 1.000000 0.000000
vn 0.000000 1.000000 0.000000
vn 0.000000 1.000000 0.000000
vn 0.000000 1.000000 0.000000
vn 0.000000 1.000000 0.000000
vn 0.000000 1.000000 0.000000
vn 0.000000 1.000000 0.000000
vn 0.000000 1.000000 0.000000
vn 0.000000 1.000000 0.000000
vn 0.000000 1.000000 0.000000
vn 0.000000 1.000000 0.000000
vn 0.000000 1.000000 0.000000
vn 0.000000 1.000000 0.000000
vn 0.000000 1.000000 0.000000
vn 0.000000 1.000000 0.000000
vn 0.000000 1.000000 0.000000
vn 0.000000 1.000000 0.000000
vn 0.000000 1.000000 0.000000
vn 0.000000 1.000000 0.000000
vn 0.000000 1.000000 0.000000
vn 0.000000 1.000000 0.000000
vn 0.000000 1.000000 0.000000
vn 0.000000 1.000000 0.000000
vn 0.000000 1.000000 -0.000000
vn 0.000000 1.000000 -0.000000
vn 0.000000 1.000000 -0.000000
vn 0.000000 1.000000 -0.000000
vn 0.000000 1.000000 0.000000
vn 0.000000 1.000000 0.000000
vn 0.000000 1.000000 0.000000
vn 0.000000 1.000000 0.000000
vn 0.000000 1.000000 -0.000000
vn 0.000000 0.974885 0.222707
vn 0.000000 0.974885 0.222707
vn 0.000000 0.974885 0.222707
vn 0.000000 0.974885 0.222707
vn 0.000000 1.000000 0.000000
vn 0.000000 1.000000 0.000000
vn 0.000000 1.000000 0.000000
vn 0.000000 1.000000 0.000000
vn 0.000000 1.000000 -0.000000
vn 0.000000 1.000000 0.000000
vn 0.000000 1.000000 0.000000
vn 0.000000 1.000000 0.000000
vn 0.000000 1.000000 0.000000
vn 0.000000 1.000000 0.000000
vn 0.000000 1.000000 0.000000
vn 0.000000 1.000000 0.000000
vn 0.000000 1.000000 0.000000
vn 0.000000 1.000000 0.000000
vn 0.000000 0.974885 -0.222707
vn 0.000000 0.974885 -0.222707
vn 0.000000 0.974885 -0.222707
vn 0.000000 0.974885 -0.222707
vn 0.000000 1.000000 0.000000
vn 0.000000 1.000000 0.000000
vn 0.000000 1.000000 0.000000
vn 0.000000 1.000000 0.000000
vn 0.000000 1.000000 0.000000
vn 0.000000 1.000000 0.000000
vn 0.000000 1.000000 0.000000
vn 0.000000 1.000000 0.000000
vn 0.000000 1.000000 0.000000
vn -0.000001 1.000000 0.000000
vn -0.000000 1.000000 0.000000
vn -0.000000 1.000000 0.000000
vn -0.000000 1.000000 0.000000
vn -0.000000 1.000000 0.000000
vn 0.000001 1.000000 0.000000
vn 0.000000 1.000000 0.000000
vn 0.000000 1.000000 0.000000
vn 0.000000 1.000000 0.000000
vn 0.000000 1.000000 0.000000
vn 0.000000 1.000000 0.000000
vn 0.000000 1.000000 0.000000
vn 0.000000 1.000000 0.000000
vn 0.000000 1.000000 0.000000
vn 0.000000 1.000000 0.000000
vn 0.000000 1.000000 0.000000
vn 0.000000 1.000000 0.000000
vn 0.000000 1.000000 0.000000
vn -0.086676 0.996237 0.000000
vn -0.086676 0.996237 0.000000
vn -0.086676 0.996237 0.000000
vn -0.086676 0.996237 0.000000
vn 0.000000 1.000000 0.000000
vn 0.000000 1.000000 0.000000
vn 0.000000 1.000000 0.000000
vn 0.000000 1.000000 0.000000
vn 0.000000 1.000000 0.000000
vn 0.000000 1.000000 0.000000
usemtl material
f 1/0/1 2/0/2 3/0/3
f 1/0/1 3/0/3 4/0/4
f 2/0/2 1/0/1 5/0/5
f 1/0/1 4/0/4 6/0/6
f 1/0/1 6/0/6 7/0/7
f 8/0/8 1/0/1 7/0/7
f 7/0/7 9/0/9 8/0/8
f 7/0/7 10/0/10 9/0/9
f 7/0/7 11/0/11 10/0/10
f 6/0/6 12/0/12 7/0/7
f 13/0/13 14/0/14 15/0/15
f 13/0/13 15/0/15 16/0/16
f 17/0/17 18/0/18 19/0/19
f 19/0/19 20/0/20 17/0/17
f 20/0/20 21/0/21 17/0/17
f 21/0/21 22/0/22 17/0/17
f 23/0/23 17/0/17 22/0/22
f 23/0/23 24/0/24 17/0/17
f 25/0/25 24/0/24 23/0/23
f 25/0/25 26/0/26 24/0/24
f 27/0/27 28/0/28 29/0/29
f 27/0/27 29/0/29 30/0/30
f 28/0/28 31/0/31 29/0/29
f 32/0/32 33/0/33 34/0/34
f 32/0/32 34/0/34 35/0/35
f 34/0/34 33/0/33 36/0/36
f 34/0/34 36/0/36 37/0/37
f 38/0/38 39/0/39 40/0/40
f 38/0/38 40/0/40 41/0/41
f 42/0/42 43/0/43 44/0/44
f 42/0/42 44/0/44 45/0/45
f 46/0/46 47/0/47 48/0/48
f 48/0/48 49/0/49 46/0/46
f 48/0/48 50/0/50 49/0/49
f 51/0/51 52/0/52 53/0/53
f 54/0/54 52/0/52 51/0/51
f 54/0/54 55/0/55 52/0/52
f 56/0/56 57/0/57 58/0/58
f 56/0/56 58/0/58 59/0/59
f 60/0/60 61/0/61 62/0/62
f 60/0/60 62/0/62 63/0/63
f 64/0/64 65/0/65 66/0/66
f 64/0/64 66/0/66 67/0/67
f 68/0/68 69/0/69 70/0/70
f 68/0/68 70/0/70 71/0/71
f 72/0/72 73/0/73 74/0/74
f 72/0/72 74/0/74 75/0/75
f 76/0/76 77/0/77 78/0/78
f 78/0/78 79/0/79 76/0/76
f 79/0/79 80/0/80 76/0/76
f 81/0/81 82/0/82 83/0/83
f 81/0/81 83/0/83 84/0/84
f 85/0/85 86/0/86 87/0/87
f 85/0/85 87/0/87 88/0/88
f 88/0/88 87/0/87 89/0/89
f 88/0/88 89/0/89 90/0/90
f 91/0/91 92/0/92 93/0/93
f 91/0/91 93/0/93 94/0/94
f 94/0/94 93/0/93 95/0/95
f 94/0/94 95/0/95 96/0/96
f 97/0/97 98/0/98 99/0/99
f 97/0/97 99/0/99 100/0/100
f 100/0/100 99/0/99 101/0/101
f 100/0/100 101/0/101 102/0/102
f 103/0/103 104/0/104 105/0/105
f 103/0/103 105/0/105 106/0/106
f 107/0/107 108/0/108 109/0/109
f 107/0/107 109/0/109 110/0/110
f 107/0/107 110/0/110 111/0/111
f 112/0/112 113/0/113 114/0/114
f 112/0/112 114/0/114 115/0/115
f 116/0/116 117/0/117 118/0/118
f 116/0/116 118/0/118 119/0/119
f 116/0/116 120/0/120 117/0/117
f 121/0/121 122/0/122 123/0/123
f 121/0/121 123/0/123 124/0/124
f 125/0/125 126/0/126 127/0/127
f 125/0/125 127/0/127 128/0/128
f 125/0/125 129/0/129 126/0/126
f 130/0/130 131/0/131 132/0/132
f 130/0/130 132/0/132 133/0/133
f 134/0/134 135/0/135 136/0/136
f 134/0/134 136/0/136 137/0/137
f 134/0/134 137/0/137 138/0/138
f 139/0/139 140/0/140 141/0/141
f 139/0/139 141/0/141 142/0/142
f 142/0/142 143/0/143 139/0/139
f 144/0/144 145/0/145 146/0/146
f 144/0/144 146/0/146 147/0/147
f 145/0/145 144/0/144 148/0/148
f 149/0/149 150/0/150 151/0/151
f 151/0/151 152/0/152 149/0/149
f 151/0/151 153/0/153 152/0/152
f 153/0/153 154/0/154 152/0/152
f 152/0/152 155/0/155 149/0/149
f 152/0/152 156/0/156 155/0/155
f 155/0/155 156/0/156 157/0/157
f 155/0/155 157/0/157 158/0/158
f 159/0/159 160/0/160 161/0/161
f 159/0/159 161/0/161 162/0/162
f 162/0/162 161/0/161 163/0/163
f 162/0/162 163/0/163 164/0/164
f 164/0/164 163/0/163 165/0/165
f 164/0/164 165/0/165 166/0/166
f 167/0/167 168/0/168 169/0/169
f 167/0/167 169/0/169 170/0/170
