# 
# Wavefront OBJ file
# Created with Kaydara FBX
# 
mtllib s04_inside_c02 #2255501.mtl

g S04_Inside_C02
v -11.916855 7.301692 48.226482
v -10.180605 9.178632 49.962749
v -49.920341 9.178634 49.962742
v -49.920345 7.301694 48.226482
v -92.092705 7.301697 48.226490
v -92.068466 9.178635 49.962742
v -11.916855 2.777282 48.226479
v -11.916855 7.301692 48.226482
v -49.920345 7.301694 48.226482
v -49.920345 2.777284 48.226482
v -92.092705 2.777286 48.226490
v -92.092705 7.301697 48.226490
v -10.180605 9.178632 49.962749
v -10.180586 13.129924 49.962749
v -49.920341 13.129924 49.962749
v -49.920341 9.178634 49.962742
v -92.068466 9.178635 49.962742
v -92.068474 13.129925 49.962749
v -11.925918 2.099993 48.772270
v -49.920345 2.099998 48.772270
v -49.920345 1.599950 48.772274
v -11.925918 1.599945 48.772270
v -92.092705 1.599955 48.772274
v -92.092705 2.100004 48.772270
v -92.092705 2.777286 48.226490
v -92.092705 2.100004 48.772270
v -49.920345 2.099998 48.772270
v -49.920345 2.777284 48.226482
v -11.916855 2.777282 48.226479
v -11.925918 2.099993 48.772270
v -90.339264 7.301698 71.674393
v -92.075539 9.178637 69.938141
v -49.920345 9.178641 69.938133
v -49.920341 7.301702 71.674385
v -8.447778 7.301705 71.674393
v -8.447779 9.178645 69.938133
v 11.857344 7.301708 71.674385
v 11.833105 9.178646 69.938133
v -90.339264 2.777287 71.674393
v -90.339264 7.301698 71.674393
v -49.920341 7.301702 71.674385
v -49.920341 2.777291 71.674385
v -8.447778 2.777295 71.674393
v -8.447778 7.301705 71.674393
v 11.857344 2.777297 71.674385
v 11.857344 7.301708 71.674385
v -92.075539 9.178637 69.938141
v -92.075539 13.129929 69.938126
v -49.920345 13.129931 69.938126
v -49.920345 9.178641 69.938133
v -8.447779 9.178645 69.938133
v -8.447779 13.129935 69.938126
v 11.833105 9.178646 69.938133
v 11.833105 13.129936 69.938126
v -90.339264 2.736701 71.488228
v -49.920345 2.736706 71.488228
v -49.920341 1.599960 71.128601
v -90.339264 1.599956 71.128609
v -8.447778 1.599964 71.128601
v -8.447778 2.736710 71.488220
v 11.857344 1.599966 71.128601
v 11.857344 2.736713 71.488228
v 11.857344 2.777297 71.674385
v 11.857344 2.736713 71.488228
v -8.447778 2.736710 71.488220
v -8.447778 2.777295 71.674393
v -49.920341 2.777291 71.674385
v -49.920345 2.736706 71.488228
v -90.339264 2.777287 71.674393
v -90.339264 2.736701 71.488228
v 13.321895 14.846848 60.539364
v -8.447778 14.846849 60.539364
v -8.447778 14.846848 59.405224
v 13.321895 14.846848 59.405224
v -49.920345 14.846850 59.405224
v -49.920345 14.846851 60.539364
v -91.827049 14.846852 59.405220
v -91.827049 14.846852 60.539364
v 13.321895 14.846835 58.666729
v -8.447778 14.846837 58.666729
v -8.447778 16.014839 58.301804
v 13.323730 16.014839 58.301804
v -49.920345 16.014841 58.301804
v -49.920345 14.846839 58.666729
v -91.828224 16.014843 58.301804
v -91.827049 14.846841 58.666729
v 13.323730 16.014843 61.642780
v -8.447777 16.014843 61.642780
v -8.447778 14.846835 61.277859
v 13.321895 14.846835 61.277859
v -49.920345 14.846838 61.277859
v -49.920345 16.014843 61.642780
v -91.827049 14.846841 61.277855
v -91.828224 16.014843 61.642776
v 13.321895 14.846848 59.405224
v -8.447778 14.846848 59.405224
v -8.447778 14.846837 58.666729
v 13.321895 14.846835 58.666729
v -49.920345 14.846839 58.666729
v -49.920345 14.846850 59.405224
v -91.827049 14.846841 58.666729
v -91.827049 14.846852 59.405220
v -91.827049 14.846852 60.539364
v -49.920345 14.846851 60.539364
v -49.920345 14.846838 61.277859
v -91.827049 14.846841 61.277855
v -8.447778 14.846835 61.277859
v -8.447778 14.846849 60.539364
v 13.321895 14.846835 61.277859
v 13.321895 14.846848 60.539364
v -11.916855 7.301692 48.226482
v -11.916853 7.301695 7.788767
v -10.180603 9.178635 7.788769
v -10.180605 9.178632 49.962749
v -10.180600 9.178637 -26.240353
v -11.916850 7.301697 -26.240356
v -10.180598 9.178638 -63.028599
v -11.916848 7.301700 -63.028599
v -10.180595 9.178641 -103.234825
v -11.916845 7.301702 -103.259064
v -11.916855 2.777282 48.226479
v -11.916853 2.777285 7.788767
v -11.916853 7.301695 7.788767
v -11.916855 7.301692 48.226482
v -11.916850 7.301697 -26.240356
v -11.916850 2.777287 -26.240356
v -11.916848 7.301700 -63.028599
v -11.916848 2.777289 -63.028599
v -11.916845 7.301702 -103.259064
v -11.916845 2.777292 -103.259064
v -10.180605 9.178632 49.962749
v -10.180603 9.178635 7.788769
v -10.180586 13.129927 7.788769
v -10.180586 13.129924 49.962749
v -10.180586 13.129928 -26.240353
v -10.180600 9.178637 -26.240353
v -10.180586 13.129929 -63.028599
v -10.180598 9.178638 -63.028599
v -10.180586 13.129931 -103.234825
v -10.180595 9.178641 -103.234825
v -11.730683 2.736697 48.226479
v -11.371074 1.599951 48.226479
v -11.371072 1.599954 7.788767
v -11.730683 2.736700 7.788767
v -11.730683 2.736702 -26.240356
v -11.371069 1.599956 -26.240356
v -11.730683 2.736705 -63.028599
v -11.371067 1.599959 -63.028599
v -11.730683 2.736708 -103.259064
v -11.371064 1.599962 -103.259064
v -11.916845 2.777292 -103.259064
v -11.916848 2.777289 -63.028599
v -11.730683 2.736705 -63.028599
v -11.730683 2.736708 -103.259064
v -11.730683 2.736702 -26.240356
v -11.916850 2.777287 -26.240356
v -11.730683 2.736700 7.788767
v -11.916853 2.777285 7.788767
v -11.730683 2.736697 48.226479
v -11.916855 2.777282 48.226479
v 11.801309 7.301680 48.226479
v 10.065039 9.178618 50.012302
v 10.065039 9.178621 7.788767
v 11.801304 7.301682 7.788767
v 11.801298 7.301684 -26.240356
v 10.065039 9.178623 -26.240356
v 11.801293 7.301686 -63.028599
v 10.065039 9.178625 -63.028599
v 11.801289 7.301689 -103.259064
v 10.065039 9.178628 -103.234825
v 11.801309 2.777269 48.226479
v 11.801309 7.301680 48.226479
v 11.801304 7.301682 7.788767
v 11.801304 2.777271 7.788767
v 11.801298 2.777273 -26.240356
v 11.801298 7.301684 -26.240356
v 11.801293 2.777276 -63.028599
v 11.801293 7.301686 -63.028599
v 11.801289 2.777279 -103.259064
v 11.801289 7.301689 -103.259064
v 10.065039 9.178618 50.012302
v 10.065048 13.103596 50.012302
v 10.065048 13.103596 7.788767
v 10.065039 9.178621 7.788767
v 10.065039 9.178623 -26.240356
v 10.065048 13.103596 -26.240356
v 10.065039 9.178625 -63.028599
v 10.065048 13.103596 -63.028599
v 10.065039 9.178628 -103.234825
v 10.065048 13.103596 -103.234825
v 11.615136 2.736683 48.226479
v 11.615136 2.736686 7.788767
v 11.255507 1.599940 7.788767
v 11.255507 1.599938 48.226479
v 11.255507 1.599943 -26.240356
v 11.615136 2.736689 -26.240356
v 11.255507 1.599945 -63.028599
v 11.615136 2.736691 -63.028599
v 11.255507 1.599948 -103.259064
v 11.615136 2.736694 -103.259064
v 11.801289 2.777279 -103.259064
v 11.615136 2.736694 -103.259064
v 11.615136 2.736691 -63.028599
v 11.801293 2.777276 -63.028599
v 11.801298 2.777273 -26.240356
v 11.615136 2.736689 -26.240356
v 11.801304 2.777271 7.788767
v 11.615136 2.736686 7.788767
v 11.801309 2.777269 48.226479
v 11.615136 2.736683 48.226479
v 11.801309 7.301680 48.226479
v 12.641523 7.301680 48.226479
v 10.905253 9.178618 50.012302
v 10.065039 9.178618 50.012302
v 10.065039 9.178618 50.012302
v 10.905253 9.178618 50.012302
v 10.905253 13.077376 50.012302
v 10.065048 13.103596 50.012302
v -11.730683 2.736697 48.226479
v -11.916855 2.777282 48.226479
v -11.916855 1.599951 48.226479
v -11.371074 1.599951 48.226479
v -11.925918 2.099993 48.772270
v -11.925918 1.599945 48.772270
v -11.916855 1.599951 48.226479
v -11.916855 2.777282 48.226479
vt 0.615172 0.417634
vt 0.482927 0.569199
vt 3.079874 0.569266
vt 3.089679 0.415323
vt 5.835631 0.412759
vt 5.834205 0.569337
vt 0.615165 0.107582
vt 0.615172 0.417330
vt 3.089762 0.417330
vt 3.089755 0.107568
vt 5.835800 0.107551
vt 5.835807 0.417330
vt 0.176574 0.569199
vt 0.176574 1.000475
vt 2.773527 1.000475
vt 2.773520 0.569266
vt 5.527850 0.569337
vt 5.527864 1.000475
vt 0.590215 0.051508
vt 3.076131 0.051297
vt 3.076130 0.001257
vt 0.590215 0.001267
vt 5.835400 0.001246
vt 5.835402 0.051062
vt 5.835401 0.107584
vt 5.835402 0.051062
vt 3.076131 0.051297
vt 3.076443 0.107579
vt 0.590216 0.107574
vt 0.590215 0.051508
vt 0.665347 0.417634
vt 0.482927 0.569199
vt 3.477605 0.569255
vt 3.513414 0.415706
vt 6.435724 0.413728
vt 6.423790 0.569310
vt 7.866498 0.412759
vt 7.864531 0.569337
vt 0.665337 0.107582
vt 0.665347 0.417330
vt 3.513510 0.417330
vt 3.513500 0.107570
vt 6.435909 0.107557
vt 6.435919 0.417330
vt 7.866731 0.107551
vt 7.866741 0.417330
vt 0.482927 0.569199
vt 0.482927 1.000475
vt 3.477612 1.000475
vt 3.477605 0.569255
vt 6.423790 0.569310
vt 6.423805 1.000475
vt 7.864531 0.569337
vt 7.864550 1.000475
vt 0.630921 0.099825
vt 3.492478 0.099800
vt 3.492478 0.001259
vt 0.630921 0.001267
vt 6.428629 0.001250
vt 6.428630 0.099775
vt 7.866180 0.001246
vt 7.866181 0.099763
vt 7.866181 0.107584
vt 7.866181 0.099763
vt 6.428630 0.099775
vt 6.428630 0.107584
vt 3.492478 0.107583
vt 3.492478 0.099800
vt 0.630922 0.107582
vt 0.630921 0.099825
vt 1.982844 0.181639
vt 1.390332 0.181640
vt 1.390332 0.225927
vt 1.982844 0.225926
vt 0.261561 0.225926
vt 0.261561 0.181640
vt -0.879026 0.225926
vt -0.879026 0.181639
vt -3.598797 0.168147
vt -2.510706 0.168201
vt -2.510706 0.255670
vt -3.598888 0.255670
vt -0.437827 0.255669
vt -0.437827 0.168302
vt 1.656810 0.255669
vt 1.656751 0.168405
vt -3.598887 0.255015
vt -2.510705 0.255122
vt -2.510706 0.168252
vt -3.598797 0.168252
vt -0.437827 0.168252
vt -0.437827 0.255325
vt 1.656751 0.168252
vt 1.656810 0.255531
vt -3.598797 0.107911
vt -2.510706 0.107910
vt -2.510706 0.168201
vt -3.598797 0.168147
vt -0.437827 0.168302
vt -0.437827 0.107910
vt 1.656751 0.168405
vt 1.656751 0.107910
vt 1.656751 0.107863
vt -0.437827 0.107863
vt -0.437827 0.168252
vt 1.656751 0.168252
vt -2.510706 0.168252
vt -2.510706 0.107864
vt -3.598797 0.168252
vt -3.598797 0.107864
vt 0.615172 0.417634
vt 3.247768 0.409164
vt 3.239253 0.569234
vt 0.482927 0.569199
vt 5.463262 0.569262
vt 5.463149 0.402037
vt 7.867597 0.569292
vt 7.858155 0.394332
vt 10.495317 0.569325
vt 10.477259 0.385906
vt 0.615165 0.107582
vt 3.248557 0.107546
vt 3.248564 0.417330
vt 0.615172 0.417330
vt 5.464614 0.417330
vt 5.464607 0.107515
vt 7.860344 0.417330
vt 7.860337 0.107482
vt 10.480239 0.417330
vt 10.480232 0.107446
vt 0.482927 0.569199
vt 3.239253 0.569234
vt 3.239260 1.000475
vt 0.482927 1.000475
vt 5.463275 1.000475
vt 5.463262 0.569262
vt 7.867617 1.000475
vt 7.867597 0.569292
vt 10.495343 1.000474
vt 10.495317 0.569325
vt 0.590215 0.099825
vt 0.590215 0.001267
vt 3.235990 0.001241
vt 3.235991 0.099846
vt 5.462463 0.099864
vt 5.462461 0.001220
vt 7.869460 0.099884
vt 7.869457 0.001197
vt 10.501677 0.099905
vt 10.501672 0.001172
vt 10.501674 0.107585
vt 7.869458 0.107584
vt 7.869460 0.099884
vt 10.501677 0.099905
vt 5.462463 0.099864
vt 5.462462 0.107584
vt 3.235991 0.099846
vt 3.235991 0.107583
vt 0.590215 0.099825
vt 0.590216 0.107582
vt 0.615172 0.417634
vt 0.482927 0.569199
vt 3.241599 0.569234
vt 3.247768 0.409164
vt 5.463149 0.402037
vt 5.464890 0.569262
vt 7.858155 0.394332
vt 7.868446 0.569292
vt 10.477259 0.385906
vt 10.495317 0.569325
vt 0.615165 0.107582
vt 0.615172 0.417330
vt 3.248564 0.417330
vt 3.248557 0.107546
vt 5.464607 0.107515
vt 5.464614 0.417330
vt 7.860337 0.107482
vt 7.860344 0.417330
vt 10.480232 0.107446
vt 10.480239 0.417330
vt 0.482927 0.569199
vt 0.482927 1.000475
vt 3.241606 1.000475
vt 3.241599 0.569234
vt 5.464890 0.569262
vt 5.464902 1.000475
vt 7.868446 0.569292
vt 7.868465 1.000475
vt 10.495317 0.569325
vt 10.495343 1.000474
vt 0.590215 0.099825
vt 3.235991 0.099846
vt 3.235990 0.001241
vt 0.590215 0.001267
vt 5.462461 0.001220
vt 5.462463 0.099864
vt 7.869457 0.001197
vt 7.869460 0.099884
vt 10.501672 0.001172
vt 10.501677 0.099905
vt 10.501674 0.107585
vt 10.501677 0.099905
vt 7.869460 0.099884
vt 7.869458 0.107584
vt 5.462462 0.107584
vt 5.462463 0.099864
vt 3.235991 0.107583
vt 3.235991 0.099846
vt 0.590216 0.107582
vt 0.590215 0.099825
vt 0.854509 0.415850
vt 0.784622 0.415850
vt 0.887736 0.570267
vt 0.957622 0.570267
vt 1.358976 0.569018
vt 1.289090 0.569018
vt 1.289090 1.000011
vt 1.358976 1.000011
vt 0.754910 0.497205
vt 0.750435 0.505002
vt 0.803392 0.521755
vt 0.811158 0.497205
vt 0.751852 0.480372
vt 0.751841 0.526561
vt 0.802262 0.526573
vt 0.802289 0.417824
vn 0.000000 -0.679060 0.734083
vn 0.000000 -0.679060 0.734083
vn 0.000000 -0.679061 0.734082
vn 0.000000 -0.679061 0.734082
vn 0.000000 -0.679060 0.734083
vn 0.000000 -0.679060 0.734083
vn 0.000000 0.000000 1.000000
vn 0.000000 0.000000 1.000000
vn 0.000000 -0.000000 1.000000
vn 0.000000 -0.000000 1.000000
vn 0.000000 0.000000 1.000000
vn 0.000000 0.000000 1.000000
vn 0.000000 -0.000002 1.000000
vn 0.000000 -0.000002 1.000000
vn 0.000000 -0.000001 1.000000
vn 0.000000 -0.000001 1.000000
vn 0.000000 -0.000002 1.000000
vn 0.000000 -0.000002 1.000000
vn 0.000000 0.000004 1.000000
vn 0.000000 0.000007 1.000000
vn 0.000000 0.000007 1.000000
vn 0.000000 0.000004 1.000000
vn 0.000000 0.000004 1.000000
vn 0.000000 0.000004 1.000000
vn 0.000000 0.627466 0.778644
vn 0.000000 0.627466 0.778644
vn 0.000000 0.627465 0.778645
vn 0.000000 0.627465 0.778645
vn 0.000000 0.627466 0.778644
vn 0.000000 0.627466 0.778644
vn 0.000000 -0.679060 -0.734083
vn 0.000000 -0.679060 -0.734083
vn 0.000000 -0.679060 -0.734082
vn 0.000000 -0.679060 -0.734082
vn 0.000000 -0.679061 -0.734082
vn 0.000000 -0.679061 -0.734082
vn 0.000000 -0.679060 -0.734083
vn 0.000000 -0.679060 -0.734083
vn 0.000000 0.000000 -1.000000
vn 0.000000 0.000000 -1.000000
vn 0.000000 0.000000 -1.000000
vn 0.000000 0.000000 -1.000000
vn 0.000000 0.000000 -1.000000
vn 0.000000 0.000000 -1.000000
vn 0.000000 0.000000 -1.000000
vn 0.000000 0.000000 -1.000000
vn 0.000000 -0.000002 -1.000000
vn 0.000000 -0.000002 -1.000000
vn 0.000000 -0.000002 -1.000000
vn 0.000000 -0.000002 -1.000000
vn 0.000000 -0.000001 -1.000000
vn 0.000000 -0.000001 -1.000000
vn 0.000000 -0.000002 -1.000000
vn 0.000000 -0.000002 -1.000000
vn 0.000000 0.301626 -0.953426
vn 0.000000 0.301627 -0.953426
vn 0.000000 0.301627 -0.953426
vn 0.000000 0.301626 -0.953426
vn 0.000000 0.301626 -0.953426
vn 0.000000 0.301626 -0.953426
vn 0.000000 0.301626 -0.953426
vn 0.000000 0.301626 -0.953426
vn -0.000000 0.977052 -0.213003
vn -0.000000 0.977052 -0.213003
vn 0.000000 0.977052 -0.213000
vn 0.000000 0.977052 -0.213000
vn -0.000000 0.977052 -0.213002
vn -0.000000 0.977052 -0.213002
vn -0.000000 0.977052 -0.213003
vn -0.000000 0.977052 -0.213003
vn 0.000000 -1.000000 0.000000
vn 0.000000 -1.000000 0.000001
vn 0.000000 -1.000000 0.000001
vn 0.000000 -1.000000 0.000000
vn 0.000000 -1.000000 0.000001
vn 0.000000 -1.000000 0.000001
vn 0.000000 -1.000000 0.000000
vn 0.000000 -1.000000 0.000000
vn 0.000000 -0.298216 -0.954498
vn -0.000000 -0.298216 -0.954498
vn -0.000000 -0.298216 -0.954498
vn 0.000000 -0.298216 -0.954498
vn 0.000000 -0.298216 -0.954498
vn 0.000000 -0.298216 -0.954498
vn 0.000000 -0.298216 -0.954498
vn 0.000000 -0.298216 -0.954498
vn 0.000000 -0.298216 0.954499
vn 0.000000 -0.298215 0.954499
vn 0.000000 -0.298215 0.954499
vn 0.000000 -0.298216 0.954499
vn 0.000000 -0.298216 0.954499
vn 0.000000 -0.298216 0.954499
vn 0.000000 -0.298216 0.954499
vn 0.000000 -0.298216 0.954499
vn 0.000000 -1.000000 0.000000
vn 0.000000 -1.000000 0.000017
vn 0.000000 -1.000000 0.000017
vn 0.000000 -1.000000 0.000000
vn 0.000000 -1.000000 0.000016
vn 0.000000 -1.000000 0.000016
vn 0.000000 -1.000000 0.000000
vn 0.000000 -1.000000 0.000000
vn 0.000000 -1.000000 0.000000
vn 0.000000 -1.000000 -0.000019
vn 0.000000 -1.000000 -0.000019
vn 0.000000 -1.000000 0.000000
vn 0.000000 -1.000000 -0.000019
vn 0.000000 -1.000000 -0.000019
vn 0.000000 -1.000000 0.000000
vn 0.000000 -1.000000 0.000000
vn 0.734083 -0.679060 0.000000
vn 0.734084 -0.679059 0.000000
vn 0.734084 -0.679059 0.000000
vn 0.734083 -0.679060 0.000000
vn 0.734084 -0.679059 0.000000
vn 0.734084 -0.679059 0.000000
vn 0.734083 -0.679059 0.000000
vn 0.734083 -0.679059 0.000000
vn 0.734083 -0.679060 0.000000
vn 0.734083 -0.679060 0.000000
vn 1.000000 0.000000 0.000000
vn 1.000000 0.000000 0.000000
vn 1.000000 0.000000 0.000000
vn 1.000000 0.000000 0.000000
vn 1.000000 0.000000 0.000000
vn 1.000000 0.000000 0.000000
vn 1.000000 0.000000 0.000000
vn 1.000000 0.000000 0.000000
vn 1.000000 0.000000 0.000000
vn 1.000000 0.000000 0.000000
vn 1.000000 -0.000002 0.000000
vn 1.000000 -0.000004 0.000000
vn 1.000000 -0.000004 0.000000
vn 1.000000 -0.000002 0.000000
vn 1.000000 -0.000004 0.000000
vn 1.000000 -0.000004 0.000000
vn 1.000000 -0.000003 0.000000
vn 1.000000 -0.000003 0.000000
vn 1.000000 -0.000002 0.000000
vn 1.000000 -0.000002 0.000000
vn 0.953426 0.301626 0.000000
vn 0.953426 0.301626 0.000000
vn 0.953429 0.301618 0.000000
vn 0.953429 0.301618 0.000000
vn 0.953428 0.301621 0.000000
vn 0.953428 0.301621 0.000000
vn 0.953427 0.301623 0.000000
vn 0.953427 0.301623 0.000000
vn 0.953426 0.301626 0.000000
vn 0.953426 0.301626 0.000000
vn 0.213003 0.977052 0.000000
vn 0.213002 0.977052 0.000000
vn 0.213002 0.977052 0.000000
vn 0.213003 0.977052 0.000000
vn 0.213000 0.977052 0.000000
vn 0.213000 0.977052 0.000000
vn 0.212998 0.977053 0.000000
vn 0.212998 0.977053 0.000000
vn 0.213003 0.977052 0.000000
vn 0.213003 0.977052 0.000000
vn -0.734083 -0.679060 0.000000
vn -0.734083 -0.679060 0.000000
vn -0.734081 -0.679062 0.000000
vn -0.734081 -0.679062 0.000000
vn -0.734082 -0.679061 0.000000
vn -0.734082 -0.679061 0.000000
vn -0.734083 -0.679060 0.000000
vn -0.734083 -0.679060 0.000000
vn -0.734083 -0.679060 0.000000
vn -0.734083 -0.679060 0.000000
vn -1.000000 0.000000 0.000000
vn -1.000000 0.000000 0.000000
vn -1.000000 0.000000 0.000000
vn -1.000000 0.000000 0.000000
vn -1.000000 0.000000 0.000000
vn -1.000000 0.000000 0.000000
vn -1.000000 0.000000 0.000000
vn -1.000000 0.000000 0.000000
vn -1.000000 0.000000 0.000000
vn -1.000000 0.000000 0.000000
vn -1.000000 -0.000002 0.000000
vn -1.000000 -0.000002 0.000000
vn -1.000000 0.000002 0.000000
vn -1.000000 0.000002 0.000000
vn -1.000000 0.000002 0.000000
vn -1.000000 0.000002 0.000000
vn -1.000000 0.000002 0.000000
vn -1.000000 0.000002 0.000000
vn -1.000000 -0.000002 0.000000
vn -1.000000 -0.000002 0.000000
vn -0.953426 0.301626 0.000000
vn -0.953425 0.301632 0.000000
vn -0.953425 0.301632 0.000000
vn -0.953426 0.301626 0.000000
vn -0.953424 0.301632 0.000000
vn -0.953425 0.301632 0.000000
vn -0.953424 0.301632 0.000000
vn -0.953424 0.301632 0.000000
vn -0.953426 0.301626 0.000000
vn -0.953426 0.301626 0.000000
vn -0.213003 0.977052 0.000000
vn -0.213003 0.977052 0.000000
vn -0.213010 0.977050 0.000000
vn -0.213010 0.977050 0.000000
vn -0.213005 0.977051 0.000000
vn -0.213005 0.977051 0.000000
vn -0.213001 0.977052 0.000000
vn -0.213001 0.977052 0.000000
vn -0.213003 0.977052 0.000000
vn -0.213003 0.977052 0.000000
vn 0.000000 -0.689304 0.724473
vn 0.000000 -0.689304 0.724472
vn 0.000000 -0.689304 0.724473
vn 0.000000 -0.689304 0.724472
vn -0.000004 0.000000 1.000000
vn -0.000004 0.000000 1.000000
vn -0.000004 0.000000 1.000000
vn -0.000004 0.000000 1.000000
vn 0.000000 0.000000 1.000000
vn 0.000000 0.000000 1.000000
vn 0.000000 0.000000 1.000000
vn 0.000000 0.000000 1.000000
vn 0.999862 0.000000 0.016602
vn 0.999862 0.000000 0.016602
vn 0.999862 0.000000 0.016602
vn 0.999862 0.000000 0.016602
usemtl material
f 1/0/1 2/0/2 3/0/3
f 1/0/1 3/0/3 4/0/4
f 3/0/3 5/0/5 4/0/4
f 3/0/3 6/0/6 5/0/5
f 7/0/7 8/0/8 9/0/9
f 7/0/7 9/0/9 10/0/10
f 9/0/9 11/0/11 10/0/10
f 9/0/9 12/0/12 11/0/11
f 13/0/13 14/0/14 15/0/15
f 13/0/13 15/0/15 16/0/16
f 15/0/15 17/0/17 16/0/16
f 15/0/15 18/0/18 17/0/17
f 19/0/19 20/0/20 21/0/21
f 19/0/19 21/0/21 22/0/22
f 20/0/20 23/0/23 21/0/21
f 20/0/20 24/0/24 23/0/23
f 25/0/25 26/0/26 27/0/27
f 25/0/25 27/0/27 28/0/28
f 27/0/27 29/0/29 28/0/28
f 27/0/27 30/0/30 29/0/29
f 31/0/31 32/0/32 33/0/33
f 31/0/31 33/0/33 34/0/34
f 33/0/33 35/0/35 34/0/34
f 33/0/33 36/0/36 35/0/35
f 36/0/36 37/0/37 35/0/35
f 36/0/36 38/0/38 37/0/37
f 39/0/39 40/0/40 41/0/41
f 39/0/39 41/0/41 42/0/42
f 41/0/41 43/0/43 42/0/42
f 41/0/41 44/0/44 43/0/43
f 44/0/44 45/0/45 43/0/43
f 44/0/44 46/0/46 45/0/45
f 47/0/47 48/0/48 49/0/49
f 47/0/47 49/0/49 50/0/50
f 49/0/49 51/0/51 50/0/50
f 49/0/49 52/0/52 51/0/51
f 52/0/52 53/0/53 51/0/51
f 52/0/52 54/0/54 53/0/53
f 55/0/55 56/0/56 57/0/57
f 55/0/55 57/0/57 58/0/58
f 56/0/56 59/0/59 57/0/57
f 56/0/56 60/0/60 59/0/59
f 60/0/60 61/0/61 59/0/59
f 60/0/60 62/0/62 61/0/61
f 63/0/63 64/0/64 65/0/65
f 63/0/63 65/0/65 66/0/66
f 65/0/65 67/0/67 66/0/66
f 65/0/65 68/0/68 67/0/67
f 68/0/68 69/0/69 67/0/67
f 68/0/68 70/0/70 69/0/69
f 71/0/71 72/0/72 73/0/73
f 71/0/71 73/0/73 74/0/74
f 72/0/72 75/0/75 73/0/73
f 72/0/72 76/0/76 75/0/75
f 76/0/76 77/0/77 75/0/75
f 76/0/76 78/0/78 77/0/77
f 79/0/79 80/0/80 81/0/81
f 79/0/79 81/0/81 82/0/82
f 80/0/80 83/0/83 81/0/81
f 80/0/80 84/0/84 83/0/83
f 84/0/84 85/0/85 83/0/83
f 84/0/84 86/0/86 85/0/85
f 87/0/87 88/0/88 89/0/89
f 87/0/87 89/0/89 90/0/90
f 88/0/88 91/0/91 89/0/89
f 88/0/88 92/0/92 91/0/91
f 92/0/92 93/0/93 91/0/91
f 92/0/92 94/0/94 93/0/93
f 95/0/95 96/0/96 97/0/97
f 95/0/95 97/0/97 98/0/98
f 96/0/96 99/0/99 97/0/97
f 96/0/96 100/0/100 99/0/99
f 100/0/100 101/0/101 99/0/99
f 100/0/100 102/0/102 101/0/101
f 103/0/103 104/0/104 105/0/105
f 103/0/103 105/0/105 106/0/106
f 104/0/104 107/0/107 105/0/105
f 104/0/104 108/0/108 107/0/107
f 108/0/108 109/0/109 107/0/107
f 108/0/108 110/0/110 109/0/109
f 111/0/111 112/0/112 113/0/113
f 111/0/111 113/0/113 114/0/114
f 112/0/112 115/0/115 113/0/113
f 112/0/112 116/0/116 115/0/115
f 116/0/116 117/0/117 115/0/115
f 116/0/116 118/0/118 117/0/117
f 118/0/118 119/0/119 117/0/117
f 118/0/118 120/0/120 119/0/119
f 121/0/121 122/0/122 123/0/123
f 121/0/121 123/0/123 124/0/124
f 122/0/122 125/0/125 123/0/123
f 122/0/122 126/0/126 125/0/125
f 126/0/126 127/0/127 125/0/125
f 126/0/126 128/0/128 127/0/127
f 128/0/128 129/0/129 127/0/127
f 128/0/128 130/0/130 129/0/129
f 131/0/131 132/0/132 133/0/133
f 131/0/131 133/0/133 134/0/134
f 132/0/132 135/0/135 133/0/133
f 132/0/132 136/0/136 135/0/135
f 136/0/136 137/0/137 135/0/135
f 136/0/136 138/0/138 137/0/137
f 138/0/138 139/0/139 137/0/137
f 138/0/138 140/0/140 139/0/139
f 141/0/141 142/0/142 143/0/143
f 141/0/141 143/0/143 144/0/144
f 143/0/143 145/0/145 144/0/144
f 143/0/143 146/0/146 145/0/145
f 146/0/146 147/0/147 145/0/145
f 146/0/146 148/0/148 147/0/147
f 148/0/148 149/0/149 147/0/147
f 148/0/148 150/0/150 149/0/149
f 151/0/151 152/0/152 153/0/153
f 151/0/151 153/0/153 154/0/154
f 152/0/152 155/0/155 153/0/153
f 152/0/152 156/0/156 155/0/155
f 156/0/156 157/0/157 155/0/155
f 156/0/156 158/0/158 157/0/157
f 158/0/158 159/0/159 157/0/157
f 158/0/158 160/0/160 159/0/159
f 161/0/161 162/0/162 163/0/163
f 161/0/161 163/0/163 164/0/164
f 163/0/163 165/0/165 164/0/164
f 163/0/163 166/0/166 165/0/165
f 166/0/166 167/0/167 165/0/165
f 166/0/166 168/0/168 167/0/167
f 168/0/168 169/0/169 167/0/167
f 168/0/168 170/0/170 169/0/169
f 171/0/171 172/0/172 173/0/173
f 171/0/171 173/0/173 174/0/174
f 173/0/173 175/0/175 174/0/174
f 173/0/173 176/0/176 175/0/175
f 176/0/176 177/0/177 175/0/175
f 176/0/176 178/0/178 177/0/177
f 178/0/178 179/0/179 177/0/177
f 178/0/178 180/0/180 179/0/179
f 181/0/181 182/0/182 183/0/183
f 181/0/181 183/0/183 184/0/184
f 183/0/183 185/0/185 184/0/184
f 183/0/183 186/0/186 185/0/185
f 186/0/186 187/0/187 185/0/185
f 186/0/186 188/0/188 187/0/187
f 188/0/188 189/0/189 187/0/187
f 188/0/188 190/0/190 189/0/189
f 191/0/191 192/0/192 193/0/193
f 191/0/191 193/0/193 194/0/194
f 192/0/192 195/0/195 193/0/193
f 192/0/192 196/0/196 195/0/195
f 196/0/196 197/0/197 195/0/195
f 196/0/196 198/0/198 197/0/197
f 198/0/198 199/0/199 197/0/197
f 198/0/198 200/0/200 199/0/199
f 201/0/201 202/0/202 203/0/203
f 201/0/201 203/0/203 204/0/204
f 203/0/203 205/0/205 204/0/204
f 203/0/203 206/0/206 205/0/205
f 206/0/206 207/0/207 205/0/205
f 206/0/206 208/0/208 207/0/207
f 208/0/208 209/0/209 207/0/207
f 208/0/208 210/0/210 209/0/209
f 211/0/211 212/0/212 213/0/213
f 211/0/211 213/0/213 214/0/214
f 215/0/215 216/0/216 217/0/217
f 215/0/215 217/0/217 218/0/218
f 219/0/219 220/0/220 221/0/221
f 219/0/219 221/0/221 222/0/222
f 223/0/223 224/0/224 225/0/225
f 223/0/223 225/0/225 226/0/226
