# 
# Wavefront OBJ file
# Created with Kaydara FBX
# 
mtllib sakura_c07.mtl

g Sakura_C07
v -1.776589 2.708910 -0.046141
v 1.779555 2.433535 -0.464021
v -1.776588 2.433535 -0.463711
v 1.779556 2.708913 -0.046452
v 1.779555 2.433535 -0.464021
v -1.778082 2.309061 -0.931940
v -1.776588 2.433535 -0.463711
v 1.779564 2.309061 -0.932252
v 1.779555 2.708911 0.059539
v -1.776589 2.433535 0.477419
v 1.779555 2.433534 0.477109
v -1.776590 2.708913 0.059850
v -1.778083 2.309061 0.945649
v 1.779563 2.309061 0.945338
v 1.779573 2.251862 -0.908354
v -1.778082 2.309061 -0.931940
v 1.779564 2.309061 -0.932252
v -1.779576 2.251862 -0.908043
v -1.779577 2.251862 0.921752
v 1.779563 2.309061 0.945338
v -1.778083 2.309061 0.945649
v 1.779572 2.251862 0.921442
vt 0.061727 1.547439
vt 5.064486 0.807821
vt 0.061727 0.807821
vt 5.064486 1.547439
vt 5.064486 0.807821
vt 0.061727 0.092159
vt 0.061727 0.807821
vt 5.064486 0.092159
vt 0.061727 1.547436
vt 5.064486 0.810056
vt 0.061727 0.810056
vt 5.064486 1.547436
vt 5.064486 0.096560
vt 0.061727 0.096560
vt 5.064486 0.001906
vt 0.061727 0.092159
vt 5.064486 0.092159
vt 0.061727 0.001906
vt 5.064486 0.006102
vt 0.061727 0.096560
vt 5.064486 0.096560
vt 0.061727 0.006102
vn -0.000048 0.834811 -0.550536
vn -0.000048 0.834811 -0.550536
vn -0.000048 0.834811 -0.550536
vn -0.000049 0.834809 -0.550539
vn -0.000023 0.966434 -0.256915
vn -0.000023 0.966434 -0.256915
vn -0.000023 0.966434 -0.256915
vn -0.000022 0.966434 -0.256916
vn 0.000048 0.834811 0.550537
vn 0.000036 0.912578 0.408903
vn 0.000036 0.912507 0.409061
vn 0.000049 0.834809 0.550540
vn 0.000079 0.432934 0.901426
vn 0.000078 0.441769 0.897129
vn -0.000081 -0.385495 -0.922710
vn -0.000081 -0.385495 -0.922710
vn -0.000081 -0.385495 -0.922710
vn -0.000081 -0.385491 -0.922712
vn 0.000081 -0.385494 0.922710
vn 0.000078 0.441769 0.897129
vn 0.000079 0.432934 0.901426
vn 0.000081 -0.385489 0.922712
usemtl material
f 1/0/1 2/0/2 3/0/3
f 2/0/2 1/0/1 4/0/4
f 5/0/5 6/0/6 7/0/7
f 6/0/6 5/0/5 8/0/8
f 9/0/9 10/0/10 11/0/11
f 10/0/10 9/0/9 12/0/12
f 13/0/13 11/0/11 10/0/10
f 11/0/11 13/0/13 14/0/14
f 15/0/15 16/0/16 17/0/17
f 16/0/16 15/0/15 18/0/18
f 19/0/19 20/0/20 21/0/21
f 20/0/20 19/0/19 22/0/22
