# 
# Wavefront OBJ file
# Created with Kaydara FBX
# 
mtllib sculpture.mtl

g Sculpture
v -0.355162 0.683202 0.060396
v -0.215353 0.936076 0.060396
v -0.171388 0.808806 -0.106385
v 0.004838 0.853944 -0.139709
v -0.009046 1.007723 0.060396
v 0.198902 0.908632 0.060396
v 0.189017 0.808806 -0.106385
v 0.330766 0.683202 0.060396
v 0.269979 0.543480 -0.170726
v 0.390058 0.543480 0.060396
v -0.252848 0.543480 -0.170726
v -0.396364 0.543480 0.060396
v 0.006124 0.543480 -0.241550
v 0.284773 0.344768 -0.196174
v 0.446378 0.344768 0.060396
v 0.279547 0.159444 -0.196174
v 0.459479 0.159444 0.060396
v 0.459479 0.000000 0.060396
v 0.274920 0.000000 -0.196174
v 0.008054 0.344768 -0.280097
v -0.275603 0.344768 -0.196174
v -0.444790 0.344768 0.060396
v -0.293994 0.159444 -0.196174
v -0.459479 0.159444 0.060396
v -0.294325 0.000000 -0.196174
v -0.459479 0.000000 0.060396
v 0.005993 0.159444 -0.280097
v 0.004251 0.000000 -0.280097
v -0.106911 0.000000 0.247090
v 0.004251 0.000000 0.280097
v 0.005993 0.159444 0.280097
v -0.117890 0.159444 0.247090
v 0.009192 0.344768 0.226968
v 0.095651 0.000000 0.247090
v 0.120049 0.159444 0.247090
v 0.204317 0.000000 0.166837
v 0.207787 0.159444 0.144170
v 0.201998 0.344768 0.166837
v 0.008054 0.418473 0.238592
v 0.200523 0.543480 0.166837
v 0.006124 0.543480 0.215247
v 0.108596 0.683202 0.166837
v 0.004838 0.683202 0.166837
v -0.090967 0.683202 0.166837
v -0.183391 0.543480 0.166837
v -0.192828 0.344768 0.166837
v -0.222316 0.159444 0.166837
v -0.222564 0.000000 0.166837
v 0.380416 0.159444 0.144170
v 0.378117 0.000000 0.144170
v 0.459479 0.159444 0.060396
v 0.459479 0.000000 0.060396
v 0.446378 0.344768 0.060396
v 0.353229 0.344768 0.144170
v 0.390058 0.543480 0.060396
v 0.296186 0.543480 0.144170
v 0.330766 0.683202 0.060396
v 0.241742 0.683202 0.144170
v 0.198902 0.908632 0.060396
v 0.141445 0.812403 0.144170
v -0.009046 1.007723 0.060396
v -0.004583 0.903389 0.144170
v -0.215353 0.936076 0.060396
v -0.156479 0.846280 0.144170
v -0.355162 0.683202 0.060396
v -0.256494 0.683202 0.144170
v -0.396364 0.543480 0.060396
v -0.311673 0.543480 0.144170
v -0.444790 0.344768 0.060396
v -0.365124 0.344768 0.144170
v -0.459479 0.159444 0.060396
v -0.377826 0.159444 0.144170
v -0.459479 0.000000 0.060396
v -0.364387 0.000000 0.144170
vt 0.458780 0.660164
vt 0.423219 0.716984
vt 0.411008 0.687201
vt 0.368869 0.697735
vt 0.372289 0.734481
vt 0.320118 0.711367
vt 0.324480 0.687148
vt 0.286904 0.660393
vt 0.303959 0.627575
vt 0.271549 0.628630
vt 0.431128 0.627600
vt 0.469625 0.628473
vt 0.368442 0.628573
vt 0.301313 0.582838
vt 0.257435 0.583294
vt 0.301258 0.540878
vt 0.253793 0.541008
vt 0.253686 0.504609
vt 0.301906 0.505169
vt 0.367961 0.583272
vt 0.436335 0.582842
vt 0.482150 0.583255
vt 0.442504 0.540837
vt 0.486203 0.540971
vt 0.443217 0.505120
vt 0.486313 0.504575
vt 0.368500 0.540989
vt 0.368953 0.505132
vt 0.143713 0.741521
vt 0.115588 0.741820
vt 0.115134 0.781696
vt 0.146456 0.781687
vt 0.114318 0.828711
vt 0.092437 0.741549
vt 0.086279 0.781697
vt 0.064913 0.741228
vt 0.064083 0.781698
vt 0.065699 0.828726
vt 0.114599 0.847399
vt 0.066024 0.879147
vt 0.115076 0.879095
vt 0.089362 0.914551
vt 0.115349 0.914493
vt 0.139392 0.914502
vt 0.162736 0.879067
vt 0.165258 0.828707
vt 0.172859 0.781679
vt 0.172974 0.741210
vt 0.020423 0.781711
vt 0.020917 0.741235
vt 0.000427 0.781716
vt 0.000321 0.741238
vt 0.004069 0.828741
vt 0.027560 0.828736
vt 0.018183 0.879159
vt 0.041877 0.879153
vt 0.033539 0.914481
vt 0.055907 0.914509
vt 0.066752 0.971168
vt 0.081140 0.946989
vt 0.118923 0.996872
vt 0.117774 0.970387
vt 0.169853 0.977414
vt 0.155346 0.955072
vt 0.205414 0.914226
vt 0.180757 0.914329
vt 0.216259 0.878984
vt 0.194975 0.879017
vt 0.228784 0.828699
vt 0.208698 0.828701
vt 0.232837 0.781676
vt 0.212187 0.781677
vt 0.232947 0.741201
vt 0.208876 0.741205
vn -0.902538 0.397787 -0.164894
vn -0.639498 0.756915 0.134618
vn -0.466499 0.396945 -0.790451
vn 0.011511 0.462265 -0.886667
vn 0.048109 0.995278 0.084308
vn 0.624154 0.754822 0.201683
vn 0.479783 0.430316 -0.764615
vn 0.903935 0.422429 -0.066754
vn 0.582438 0.267017 -0.767768
vn 0.944744 0.292840 -0.147323
vn -0.562522 0.255521 -0.786307
vn -0.930211 0.277452 -0.240267
vn -0.000387 0.245388 -0.969425
vn 0.608509 0.096747 -0.787627
vn 0.971571 0.129369 -0.198277
vn 0.603240 -0.000893 -0.797559
vn 0.964432 0.016094 -0.263841
vn 0.957810 -0.012178 -0.287145
vn 0.595820 -0.009465 -0.803062
vn 0.001801 0.089017 -0.996028
vn -0.588324 0.115742 -0.800299
vn -0.960891 0.148087 -0.234004
vn -0.600802 0.027094 -0.798939
vn -0.971064 0.039637 -0.235509
vn -0.591425 0.001408 -0.806359
vn -0.975340 -0.009355 -0.220510
vn -0.000167 0.001925 -0.999998
vn -0.001958 -0.001952 -0.999996
vn -0.439263 -0.014149 0.898247
vn -0.001978 -0.016564 0.999861
vn -0.000053 0.096519 0.995331
vn -0.416461 0.118591 0.901386
vn 0.032490 0.129184 0.991088
vn 0.510983 -0.016522 0.859432
vn 0.499277 0.085268 0.862237
vn 0.368740 0.036398 0.928820
vn 0.307834 0.042776 0.950478
vn 0.275909 0.048906 0.959939
vn 0.002041 0.046964 0.998895
vn 0.225541 0.088836 0.970175
vn -0.001504 0.132717 0.991153
vn 0.142810 0.178908 0.973446
vn 0.003339 0.184910 0.982750
vn -0.130721 0.154807 0.979258
vn -0.203579 0.080930 0.975708
vn -0.258825 0.088211 0.961888
vn -0.310714 0.060455 0.948579
vn -0.369414 -0.013060 0.929173
vn 0.370114 0.023263 0.928695
vn 0.348351 0.042745 0.936389
vn 0.964432 0.016094 -0.263841
vn 0.957810 -0.012178 -0.287145
vn 0.971571 0.129369 -0.198277
vn 0.403762 0.058476 0.912993
vn 0.944744 0.292840 -0.147323
vn 0.440655 0.144425 0.885982
vn 0.903935 0.422429 -0.066754
vn 0.475007 0.271347 0.837102
vn 0.624154 0.754822 0.201683
vn 0.367654 0.387262 0.845493
vn 0.048109 0.995278 0.084308
vn 0.050821 0.475079 0.878474
vn -0.639498 0.756915 0.134618
vn -0.349687 0.377872 0.857282
vn -0.902538 0.397787 -0.164894
vn -0.441488 0.226064 0.868322
vn -0.930211 0.277452 -0.240267
vn -0.408278 0.120011 0.904935
vn -0.960891 0.148087 -0.234004
vn -0.422497 0.070453 0.903622
vn -0.971064 0.039637 -0.235509
vn -0.415952 0.010196 0.909330
vn -0.975340 -0.009355 -0.220510
vn -0.396562 -0.016642 0.917857
usemtl material
f 1/0/1 2/0/2 3/0/3
f 4/0/4 3/0/3 2/0/2
f 5/0/5 4/0/4 2/0/2
f 5/0/5 6/0/6 4/0/4
f 4/0/4 6/0/6 7/0/7
f 8/0/8 7/0/7 6/0/6
f 9/0/9 7/0/7 8/0/8
f 9/0/9 8/0/8 10/0/10
f 1/0/1 3/0/3 11/0/11
f 1/0/1 11/0/11 12/0/12
f 7/0/7 9/0/9 13/0/13
f 7/0/7 13/0/13 4/0/4
f 13/0/13 11/0/11 3/0/3
f 13/0/13 3/0/3 4/0/4
f 14/0/14 9/0/9 10/0/10
f 14/0/14 10/0/10 15/0/15
f 16/0/16 14/0/14 15/0/15
f 16/0/16 15/0/15 17/0/17
f 18/0/18 16/0/16 17/0/17
f 18/0/18 19/0/19 16/0/16
f 9/0/9 14/0/14 20/0/20
f 9/0/9 20/0/20 13/0/13
f 20/0/20 11/0/11 13/0/13
f 16/0/16 20/0/20 14/0/14
f 12/0/12 11/0/11 21/0/21
f 20/0/20 21/0/21 11/0/11
f 12/0/12 21/0/21 22/0/22
f 22/0/22 21/0/21 23/0/23
f 22/0/22 23/0/23 24/0/24
f 24/0/24 23/0/23 25/0/25
f 24/0/24 25/0/25 26/0/26
f 27/0/27 25/0/25 23/0/23
f 27/0/27 23/0/23 21/0/21
f 27/0/27 21/0/21 20/0/20
f 19/0/19 27/0/27 16/0/16
f 16/0/16 27/0/27 20/0/20
f 27/0/27 28/0/28 25/0/25
f 19/0/19 28/0/28 27/0/27
f 29/0/29 30/0/30 31/0/31
f 29/0/29 31/0/31 32/0/32
f 32/0/32 31/0/31 33/0/33
f 31/0/31 30/0/30 34/0/34
f 31/0/31 34/0/34 35/0/35
f 33/0/33 31/0/31 35/0/35
f 36/0/36 35/0/35 34/0/34
f 36/0/36 37/0/37 35/0/35
f 35/0/35 37/0/37 38/0/38
f 35/0/35 38/0/38 33/0/33
f 39/0/39 33/0/33 38/0/38
f 40/0/40 39/0/39 38/0/38
f 40/0/40 41/0/41 39/0/39
f 42/0/42 41/0/41 40/0/40
f 42/0/42 43/0/43 41/0/41
f 41/0/41 43/0/43 44/0/44
f 41/0/41 44/0/44 45/0/45
f 39/0/39 41/0/41 45/0/45
f 39/0/39 45/0/45 46/0/46
f 46/0/46 33/0/33 39/0/39
f 46/0/46 32/0/32 33/0/33
f 46/0/46 47/0/47 32/0/32
f 32/0/32 47/0/47 48/0/48
f 49/0/49 37/0/37 36/0/36
f 49/0/49 36/0/36 50/0/50
f 50/0/50 51/0/51 49/0/49
f 50/0/50 52/0/52 51/0/51
f 49/0/49 51/0/51 53/0/53
f 49/0/49 53/0/53 54/0/54
f 54/0/54 53/0/53 55/0/55
f 54/0/54 55/0/55 56/0/56
f 56/0/56 55/0/55 57/0/57
f 56/0/56 57/0/57 58/0/58
f 58/0/58 57/0/57 59/0/59
f 58/0/58 59/0/59 60/0/60
f 60/0/60 59/0/59 61/0/61
f 60/0/60 61/0/61 62/0/62
f 62/0/62 61/0/61 63/0/63
f 62/0/62 63/0/63 64/0/64
f 64/0/64 63/0/63 65/0/65
f 64/0/64 65/0/65 66/0/66
f 66/0/66 65/0/65 67/0/67
f 66/0/66 67/0/67 68/0/68
f 68/0/68 67/0/67 69/0/69
f 68/0/68 69/0/69 70/0/70
f 70/0/70 69/0/69 71/0/71
f 70/0/70 71/0/71 72/0/72
f 72/0/72 71/0/71 73/0/73
f 72/0/72 73/0/73 74/0/74
f 62/0/62 43/0/43 60/0/60
f 64/0/64 43/0/43 62/0/62
f 60/0/60 43/0/43 42/0/42
f 64/0/64 44/0/44 43/0/43
f 66/0/66 44/0/44 64/0/64
f 68/0/68 44/0/44 66/0/66
f 68/0/68 45/0/45 44/0/44
f 70/0/70 45/0/45 68/0/68
f 70/0/70 46/0/46 45/0/45
f 72/0/72 46/0/46 70/0/70
f 72/0/72 47/0/47 46/0/46
f 74/0/74 47/0/47 72/0/72
f 74/0/74 48/0/48 47/0/47
f 32/0/32 48/0/48 29/0/29
f 58/0/58 42/0/42 40/0/40
f 58/0/58 40/0/40 56/0/56
f 56/0/56 40/0/40 38/0/38
f 56/0/56 38/0/38 54/0/54
f 54/0/54 38/0/38 37/0/37
f 54/0/54 37/0/37 49/0/49
f 60/0/60 42/0/42 58/0/58
