# 
# Wavefront OBJ file
# Created with Kaydara FBX
# 
mtllib shadow_right.mtl

g Shadow_Right
v -1.820299 2.821037 0.009449
v -2.006557 2.437293 0.568573
v -1.820299 2.484394 0.009449
v -2.006557 2.808566 0.568573
v -2.261296 2.372874 1.333267
v -2.261296 2.791511 1.333267
v -2.006557 1.799996 0.568573
v -1.820299 1.906542 0.009449
v -2.006557 1.284245 0.568573
v -2.261296 1.072730 1.333267
v -2.261296 1.654276 1.333267
v -1.820299 1.438899 0.009449
v -2.261296 0.491184 1.333267
v -2.006557 0.768494 0.568572
v -1.820299 0.971255 0.009449
v -2.006557 0.283039 0.568572
v -2.261296 -0.952078 1.333267
v -2.006557 -0.511480 0.568572
v -1.820299 0.531082 0.009449
v -1.820299 -0.189327 0.009449
v -2.261296 -0.056201 1.333267
v -2.006557 -1.451725 0.568572
v -2.261296 -2.189330 1.333267
v -1.820299 -0.909736 0.009449
vt 0.997735 0.899076
vt 0.576197 0.807635
vt 0.997735 0.818859
vt 0.576197 0.896104
vt -0.001446 0.792285
vt -0.001446 0.892040
vt 0.576197 0.655777
vt 0.997735 0.681165
vt 0.576197 0.532881
vt -0.001446 0.482481
vt -0.001446 0.621054
vt 0.997735 0.569733
vt -0.001446 0.343907
vt 0.576197 0.409986
vt 0.997735 0.458301
vt 0.576197 0.294309
vt -0.001446 0.000000
vt 0.576197 0.104988
vt 0.997735 0.353414
vt 0.997735 0.181752
vt -0.001446 0.213474
vt 0.576197 -0.084214
vt -0.001446 -0.213768
vt 0.997735 0.010215
vn 0.948743 0.000000 0.316050
vn 0.948743 0.000000 0.316050
vn 0.948743 0.000000 0.316050
vn 0.948742 0.000000 0.316051
vn 0.948742 0.000000 0.316051
vn 0.948742 0.000000 0.316051
vn 0.948742 -0.000000 0.316050
vn 0.948742 0.000000 0.316050
vn 0.948742 0.000000 0.316050
vn 0.948742 0.000000 0.316050
vn 0.948742 0.000000 0.316050
vn 0.948742 0.000000 0.316050
vn 0.948742 0.000000 0.316050
vn 0.948742 0.000000 0.316050
vn 0.948742 0.000000 0.316050
vn 0.948742 -0.000000 0.316050
vn 0.948742 -0.000000 0.316050
vn 0.948742 -0.000000 0.316050
vn 0.948742 0.000000 0.316050
vn 0.948742 0.000000 0.316050
vn 0.948742 0.000000 0.316050
vn 0.948742 -0.000000 0.316050
vn 0.948742 -0.000000 0.316050
vn 0.948742 0.000000 0.316050
usemtl material
f 1/0/1 2/0/2 3/0/3
f 2/0/2 1/0/1 4/0/4
f 4/0/4 5/0/5 2/0/2
f 5/0/5 4/0/4 6/0/6
f 7/0/7 2/0/2 5/0/5
f 7/0/7 3/0/3 2/0/2
f 3/0/3 7/0/7 8/0/8
f 9/0/9 8/0/8 7/0/7
f 7/0/7 10/0/10 9/0/9
f 10/0/10 7/0/7 11/0/11
f 5/0/5 11/0/11 7/0/7
f 8/0/8 9/0/9 12/0/12
f 13/0/13 9/0/9 10/0/10
f 9/0/9 13/0/13 14/0/14
f 14/0/14 12/0/12 9/0/9
f 12/0/12 14/0/14 15/0/15
f 16/0/16 17/0/17 18/0/18
f 18/0/18 19/0/19 16/0/16
f 19/0/19 18/0/18 20/0/20
f 17/0/17 16/0/16 21/0/21
f 22/0/22 20/0/20 18/0/18
f 18/0/18 23/0/23 22/0/22
f 23/0/23 18/0/18 17/0/17
f 20/0/20 22/0/22 24/0/24
