# 
# Wavefront OBJ file
# Created with Kaydara FBX
# 
mtllib shell_b_r.mtl

g Shell_b_R
v -0.766092 0.110737 0.073358
v -0.769716 0.147624 0.103558
v -0.777229 0.149369 0.096881
v -0.783406 0.152411 0.085171
v -0.784199 0.184563 0.116149
v -0.794294 0.189974 0.094815
v -0.803439 0.227923 0.105145
v -0.790364 0.220266 0.134770
v -0.771723 0.216750 0.148389
v -0.771300 0.181773 0.127028
v -0.796947 0.264834 0.156895
v -0.773383 0.261061 0.171477
v -0.767325 0.261149 0.171136
v -0.756633 0.312686 0.188020
v -0.773647 0.311665 0.191967
v -0.777420 0.363641 0.209024
v -0.738421 0.366860 0.196048
v -0.785046 0.410039 0.219322
v -0.752232 0.411765 0.212649
v -0.802726 0.315110 0.178651
v -0.807826 0.366485 0.197494
v -0.811435 0.412143 0.210536
v -0.774726 0.451126 0.222755
v -0.792987 0.450297 0.225936
v -0.804471 0.485468 0.228566
v -0.817758 0.498757 0.227502
v -0.814407 0.451877 0.220199
v -0.823275 0.417338 0.191103
v -0.822066 0.454750 0.209198
v -0.822271 0.374742 0.165583
v -0.817617 0.321764 0.152936
v -0.810851 0.270313 0.135719
v -0.747815 0.270176 0.136250
v -0.748280 0.321629 0.153458
v -0.756633 0.312686 0.188020
v -0.767325 0.261149 0.171136
v -0.771723 0.216750 0.148389
v -0.740721 0.227796 0.105634
v -0.744699 0.189812 0.095543
v -0.771300 0.181773 0.127028
v -0.738421 0.366860 0.196048
v -0.769716 0.147624 0.103558
v -0.751321 0.152304 0.085796
v -0.766092 0.110737 0.073358
v -0.771300 0.181773 0.127028
v -0.794294 0.189974 0.094815
v -0.803439 0.227923 0.105145
v -0.772080 0.230322 0.090088
v -0.769497 0.191685 0.084045
v -0.767363 0.153314 0.079536
v -0.783406 0.152411 0.085171
v -0.766092 0.110737 0.073358
v -0.740721 0.227796 0.105634
v -0.777538 0.255479 0.119684
v -0.744699 0.189812 0.095543
v -0.751321 0.152304 0.085796
v -0.747815 0.270176 0.136250
v -0.781117 0.298048 0.139421
v -0.748280 0.321629 0.153458
v -0.810851 0.270313 0.135719
v -0.817617 0.321764 0.152936
v -0.784378 0.335336 0.147688
v -0.792716 0.376976 0.150570
v -0.761083 0.372647 0.172757
v -0.774439 0.416175 0.195379
v -0.738421 0.366860 0.196048
v -0.752232 0.411765 0.212649
v -0.788861 0.453650 0.213043
v -0.774726 0.451126 0.222755
v -0.804471 0.485468 0.228566
v -0.800697 0.418932 0.181033
v -0.817758 0.498757 0.227502
v -0.807591 0.455741 0.202682
v -0.823275 0.417338 0.191103
v -0.822066 0.454750 0.209198
v -0.822271 0.374742 0.165583
v -0.823275 0.417338 0.191103
vt 0.269357 0.554992
vt 0.302470 0.556208
vt 0.300840 0.563075
vt 0.297653 0.571958
vt 0.328726 0.568088
vt 0.323632 0.584181
vt 0.350607 0.594453
vt 0.356775 0.572130
vt 0.358978 0.556032
vt 0.330973 0.556373
vt 0.391507 0.576101
vt 0.393336 0.556811
vt 0.393315 0.552775
vt 0.430696 0.544735
vt 0.430914 0.556862
vt 0.468543 0.559684
vt 0.468633 0.530929
vt 0.501161 0.565687
vt 0.502114 0.542287
vt 0.429723 0.579252
vt 0.467742 0.582305
vt 0.500637 0.585222
vt 0.530047 0.559310
vt 0.529208 0.572238
vt 0.553350 0.581392
vt 0.561954 0.591397
vt 0.529013 0.587749
vt 0.499759 0.601498
vt 0.528854 0.597301
vt 0.464964 0.607163
vt 0.426653 0.600257
vt 0.388186 0.593818
vt 0.387317 0.525068
vt 0.425498 0.519862
vt 0.430696 0.544735
vt 0.393315 0.552775
vt 0.358978 0.556032
vt 0.350104 0.519498
vt 0.323173 0.528150
vt 0.330973 0.556373
vt 0.468633 0.530929
vt 0.302470 0.556208
vt 0.297343 0.538870
vt 0.269357 0.554992
vt 0.330973 0.556373
vt 0.259484 0.512289
vt 0.231429 0.521466
vt 0.231885 0.498450
vt 0.257296 0.493328
vt 0.283535 0.488355
vt 0.285237 0.500211
vt 0.313187 0.483502
vt 0.225456 0.476200
vt 0.206799 0.505393
vt 0.254294 0.474258
vt 0.282002 0.476319
vt 0.189864 0.485837
vt 0.174255 0.512079
vt 0.152729 0.490900
vt 0.195819 0.530940
vt 0.159243 0.540500
vt 0.147887 0.517775
vt 0.121129 0.527269
vt 0.115326 0.502185
vt 0.081640 0.513513
vt 0.109333 0.480260
vt 0.076848 0.494171
vt 0.053517 0.525448
vt 0.050770 0.513630
vt 0.029223 0.537238
vt 0.086396 0.534378
vt 0.022358 0.548429
vt 0.056781 0.540180
vt 0.084781 0.551917
vt 0.055627 0.551253
vt 0.120887 0.549352
vt 0.084781 0.551917
vn -0.758824 -0.484072 0.435729
vn -0.633278 -0.490175 0.598905
vn -0.757688 -0.450523 0.472163
vn -0.857279 -0.391272 0.334633
vn -0.769665 -0.397835 0.499343
vn -0.883334 -0.330409 0.332493
vn -0.877581 -0.334608 0.343349
vn -0.747815 -0.393063 0.535046
vn -0.557894 -0.430221 0.709693
vn -0.618715 -0.445788 0.646888
vn -0.706458 -0.365516 0.606066
vn -0.206628 -0.421953 0.882757
vn 0.127758 -0.404177 0.905715
vn 0.251452 -0.299330 0.920420
vn -0.093305 -0.347282 0.933107
vn -0.036592 -0.283299 0.958333
vn 0.284315 -0.235036 0.929475
vn -0.046750 -0.218207 0.974782
vn 0.243559 -0.182783 0.952507
vn -0.683588 -0.308888 0.661283
vn -0.671727 -0.275043 0.687848
vn -0.637543 -0.245799 0.730152
vn 0.187814 -0.096162 0.977486
vn -0.042115 -0.135388 0.989897
vn -0.202310 -0.144458 0.968609
vn -0.439102 -0.165078 0.883141
vn -0.592574 -0.195386 0.781461
vn -0.873309 -0.210209 0.439481
vn -0.840511 -0.172820 0.513492
vn -0.891690 -0.211990 0.399937
vn -0.872337 -0.240434 0.425699
vn -0.856220 -0.321159 0.404653
vn 0.880302 -0.238009 0.410389
vn 0.934594 -0.255067 0.247939
vn 0.935181 -0.264173 0.235902
vn 0.887907 -0.232166 0.397140
vn 0.818813 -0.269933 0.506637
vn 0.813258 -0.270756 0.515076
vn 0.767711 -0.298504 0.567023
vn 0.770972 -0.295345 0.564246
vn 0.932285 -0.333995 0.138894
vn 0.717451 -0.364262 0.593782
vn 0.714831 -0.368871 0.594096
vn 0.683166 -0.421264 0.596507
vn 0.770972 -0.295345 0.564246
vn -0.403434 0.118899 -0.907251
vn -0.343768 0.443939 -0.827491
vn 0.008479 0.469414 -0.882937
vn 0.013857 0.153241 -0.988092
vn 0.019530 0.140960 -0.989823
vn -0.360582 0.114152 -0.925716
vn 0.023321 0.144235 -0.989269
vn 0.357424 0.471207 -0.806357
vn -0.002578 0.585652 -0.810558
vn 0.422693 0.163454 -0.891411
vn 0.388676 0.145259 -0.909852
vn 0.204381 0.455667 -0.866369
vn 0.008164 0.313707 -0.949485
vn 0.363724 0.308303 -0.879008
vn -0.193322 0.412016 -0.890432
vn -0.254416 0.184575 -0.949318
vn 0.052448 0.226383 -0.972625
vn 0.045528 0.385563 -0.921558
vn 0.576459 0.432283 -0.693416
vn 0.546515 0.511192 -0.663328
vn 0.673714 0.437631 -0.595473
vn 0.619254 0.483611 -0.618582
vn 0.510024 0.533073 -0.675062
vn 0.560689 0.527823 -0.637989
vn 0.602742 0.568752 -0.559664
vn 0.040834 0.546164 -0.836682
vn 0.294240 0.558713 -0.775411
vn 0.037622 0.510818 -0.858865
vn -0.402873 0.438816 -0.803202
vn -0.398610 0.396906 -0.826787
vn -0.381611 0.314668 -0.869113
vn -0.402873 0.438816 -0.803202
usemtl material
f 1/0/1 2/0/2 3/0/3
f 1/0/1 3/0/3 4/0/4
f 4/0/4 3/0/3 5/0/5
f 4/0/4 5/0/5 6/0/6
f 5/0/5 7/0/7 6/0/6
f 5/0/5 8/0/8 7/0/7
f 9/0/9 8/0/8 5/0/5
f 9/0/9 5/0/5 10/0/10
f 3/0/3 2/0/2 10/0/10
f 3/0/3 10/0/10 5/0/5
f 9/0/9 11/0/11 8/0/8
f 9/0/9 12/0/12 11/0/11
f 12/0/12 9/0/9 13/0/13
f 14/0/14 12/0/12 13/0/13
f 14/0/14 15/0/15 12/0/12
f 16/0/16 15/0/15 14/0/14
f 16/0/16 14/0/14 17/0/17
f 18/0/18 16/0/16 17/0/17
f 18/0/18 17/0/17 19/0/19
f 12/0/12 15/0/15 20/0/20
f 12/0/12 20/0/20 11/0/11
f 15/0/15 16/0/16 21/0/21
f 15/0/15 21/0/21 20/0/20
f 16/0/16 18/0/18 22/0/22
f 16/0/16 22/0/22 21/0/21
f 18/0/18 19/0/19 23/0/23
f 18/0/18 23/0/23 24/0/24
f 23/0/23 25/0/25 24/0/24
f 24/0/24 25/0/25 26/0/26
f 24/0/24 26/0/26 27/0/27
f 27/0/27 22/0/22 18/0/18
f 27/0/27 18/0/18 24/0/24
f 28/0/28 22/0/22 27/0/27
f 21/0/21 22/0/22 28/0/28
f 28/0/28 27/0/27 29/0/29
f 27/0/27 26/0/26 29/0/29
f 20/0/20 21/0/21 30/0/30
f 21/0/21 28/0/28 30/0/30
f 20/0/20 30/0/30 31/0/31
f 11/0/11 20/0/20 31/0/31
f 11/0/11 31/0/31 32/0/32
f 8/0/8 11/0/11 32/0/32
f 8/0/8 32/0/32 7/0/7
f 33/0/33 34/0/34 35/0/35
f 33/0/33 35/0/35 36/0/36
f 37/0/37 33/0/33 36/0/36
f 37/0/37 38/0/38 33/0/33
f 39/0/39 38/0/38 37/0/37
f 39/0/39 37/0/37 40/0/40
f 35/0/35 34/0/34 41/0/41
f 42/0/42 43/0/43 39/0/39
f 44/0/44 43/0/43 42/0/42
f 42/0/42 39/0/39 45/0/45
f 46/0/46 47/0/47 48/0/48
f 46/0/46 48/0/48 49/0/49
f 46/0/46 49/0/49 50/0/50
f 46/0/46 50/0/50 51/0/51
f 51/0/51 50/0/50 52/0/52
f 49/0/49 48/0/48 53/0/53
f 53/0/53 48/0/48 54/0/54
f 54/0/54 48/0/48 47/0/47
f 49/0/49 53/0/53 55/0/55
f 50/0/50 49/0/49 55/0/55
f 50/0/50 55/0/55 56/0/56
f 52/0/52 50/0/50 56/0/56
f 53/0/53 54/0/54 57/0/57
f 57/0/57 54/0/54 58/0/58
f 57/0/57 58/0/58 59/0/59
f 60/0/60 58/0/58 54/0/54
f 54/0/54 47/0/47 60/0/60
f 61/0/61 58/0/58 60/0/60
f 62/0/62 58/0/58 61/0/61
f 59/0/59 58/0/58 62/0/62
f 59/0/59 62/0/62 63/0/63
f 63/0/63 62/0/62 61/0/61
f 59/0/59 63/0/63 64/0/64
f 65/0/65 64/0/64 63/0/63
f 66/0/66 64/0/64 65/0/65
f 59/0/59 64/0/64 66/0/66
f 66/0/66 65/0/65 67/0/67
f 67/0/67 65/0/65 68/0/68
f 67/0/67 68/0/68 69/0/69
f 69/0/69 68/0/68 70/0/70
f 65/0/65 63/0/63 71/0/71
f 71/0/71 68/0/68 65/0/65
f 70/0/70 68/0/68 72/0/72
f 72/0/72 68/0/68 73/0/73
f 71/0/71 73/0/73 68/0/68
f 73/0/73 71/0/71 74/0/74
f 73/0/73 74/0/74 75/0/75
f 72/0/72 73/0/73 75/0/75
f 63/0/63 61/0/61 76/0/76
f 71/0/71 63/0/63 76/0/76
f 71/0/71 76/0/76 77/0/77
