# 
# Wavefront OBJ file
# Created with Kaydara FBX
# 
mtllib shell.mtl

g Shell
v -0.026091 0.000000 -0.026091
v -0.026091 0.136626 -0.026091
v 0.000000 0.136626 -0.036898
v 0.000000 0.000000 -0.036898
v 0.026091 0.136626 -0.026091
v 0.026091 0.000000 -0.026091
v 0.036898 0.136626 0.000000
v 0.036898 0.000000 0.000000
v 0.026091 0.136626 0.026091
v 0.026091 0.000000 0.026091
v 0.000000 0.136626 0.036898
v 0.000000 0.000000 0.036898
v -0.026091 0.136626 0.026091
v -0.026091 0.000000 0.026091
v -0.036898 0.136626 0.000000
v -0.036898 0.000000 0.000000
v -0.026091 0.136626 -0.026091
v -0.026091 0.000000 -0.026091
v 0.016125 0.156024 -0.016125
v 0.022804 0.156024 0.000000
v 0.016125 0.156024 0.016125
v 0.000000 0.156024 0.022804
v -0.016125 0.156024 0.016125
v -0.022804 0.156024 0.000000
v -0.016125 0.156024 -0.016125
v 0.000000 0.163433 0.000000
v 0.000000 0.156024 -0.022804
v -0.016125 0.156024 -0.016125
v 0.000000 0.163433 0.000000
v 0.000000 0.000000 -0.036898
v 0.000000 0.000000 0.036898
v -0.026091 0.000000 0.026091
v -0.026091 0.000000 -0.026091
v 0.026091 0.000000 0.026091
v 0.026091 0.000000 -0.026091
v -0.036898 0.000000 0.000000
v 0.036898 0.000000 0.000000
vt 0.139629 0.167858
vt 0.024948 0.167858
vt 0.024948 0.171871
vt 0.139629 0.171871
vt 0.024948 0.175885
vt 0.139629 0.175885
vt 0.024948 0.179899
vt 0.139629 0.179899
vt 0.024948 0.183912
vt 0.139629 0.183912
vt 0.024948 0.187926
vt 0.139629 0.187926
vt 0.024948 0.191940
vt 0.139629 0.191940
vt 0.024948 0.195953
vt 0.139629 0.195954
vt 0.024948 0.199967
vt 0.139629 0.199967
vt 0.018371 0.177524
vt 0.018371 0.180718
vt 0.018371 0.183913
vt 0.018371 0.187107
vt 0.018371 0.190301
vt 0.018371 0.193495
vt 0.018371 0.196689
vt 0.014227 0.185584
vt 0.018371 0.174330
vt 0.018371 0.171135
vt 0.014227 0.185584
vt 0.461859 0.985823
vt 0.461859 0.818281
vt 0.521078 0.842779
vt 0.521078 0.961249
vt 0.521078 0.842779
vt 0.521078 0.961249
vt 0.545576 0.901998
vt 0.545576 0.901998
vn -0.707107 0.000000 -0.707107
vn -0.705617 0.064875 -0.705617
vn 0.000000 0.064875 -0.997893
vn 0.000000 0.000000 -1.000000
vn 0.705617 0.064875 -0.705617
vn 0.707107 0.000000 -0.707107
vn 0.997893 0.064875 0.000000
vn 1.000000 0.000000 0.000000
vn 0.705617 0.064875 0.705617
vn 0.707107 0.000000 0.707107
vn 0.000000 0.064875 0.997893
vn 0.000000 0.000000 1.000000
vn -0.705617 0.064875 0.705617
vn -0.707107 0.000000 0.707107
vn -0.997893 0.064875 0.000000
vn -1.000000 0.000000 0.000000
vn -0.705617 0.064875 -0.705617
vn -0.707107 0.000000 -0.707107
vn 0.516523 0.682941 -0.516523
vn 0.730473 0.682941 0.000000
vn 0.516523 0.682941 0.516523
vn 0.000000 0.682941 0.730473
vn -0.516523 0.682941 0.516523
vn -0.730473 0.682941 0.000000
vn -0.516523 0.682941 -0.516523
vn 0.000000 1.000000 0.000000
vn 0.000000 0.682941 -0.730473
vn -0.516523 0.682941 -0.516523
vn 0.000000 1.000000 0.000000
vn 0.000000 -1.000000 -0.000000
vn 0.000000 -1.000000 -0.000000
vn 0.000000 -1.000000 -0.000000
vn 0.000000 -1.000000 -0.000000
vn 0.000000 -1.000000 -0.000000
vn 0.000000 -1.000000 -0.000000
vn 0.000000 -1.000000 -0.000000
vn 0.000000 -1.000000 -0.000000
usemtl material
f 1/0/1 2/0/2 3/0/3
f 1/0/1 3/0/3 4/0/4
f 4/0/4 3/0/3 5/0/5
f 4/0/4 5/0/5 6/0/6
f 6/0/6 5/0/5 7/0/7
f 6/0/6 7/0/7 8/0/8
f 8/0/8 7/0/7 9/0/9
f 8/0/8 9/0/9 10/0/10
f 10/0/10 9/0/9 11/0/11
f 10/0/10 11/0/11 12/0/12
f 12/0/12 11/0/11 13/0/13
f 12/0/12 13/0/13 14/0/14
f 14/0/14 13/0/13 15/0/15
f 14/0/14 15/0/15 16/0/16
f 16/0/16 15/0/15 17/0/17
f 16/0/16 17/0/17 18/0/18
f 3/0/3 19/0/19 5/0/5
f 5/0/5 19/0/19 20/0/20
f 5/0/5 20/0/20 7/0/7
f 7/0/7 20/0/20 21/0/21
f 7/0/7 21/0/21 9/0/9
f 9/0/9 21/0/21 22/0/22
f 9/0/9 22/0/22 11/0/11
f 11/0/11 22/0/22 23/0/23
f 11/0/11 23/0/23 13/0/13
f 13/0/13 23/0/23 24/0/24
f 13/0/13 24/0/24 15/0/15
f 15/0/15 24/0/24 25/0/25
f 15/0/15 25/0/25 17/0/17
f 19/0/19 26/0/26 20/0/20
f 20/0/20 26/0/26 21/0/21
f 21/0/21 26/0/26 22/0/22
f 22/0/22 26/0/26 23/0/23
f 23/0/23 26/0/26 24/0/24
f 24/0/24 26/0/26 25/0/25
f 3/0/3 27/0/27 19/0/19
f 2/0/2 27/0/27 3/0/3
f 2/0/2 28/0/28 27/0/27
f 28/0/28 29/0/29 27/0/27
f 27/0/27 29/0/29 19/0/19
f 30/0/30 31/0/31 32/0/32
f 30/0/30 32/0/32 33/0/33
f 30/0/30 34/0/34 31/0/31
f 30/0/30 35/0/35 34/0/34
f 32/0/32 36/0/36 33/0/33
f 35/0/35 37/0/37 34/0/34
