# 
# Wavefront OBJ file
# Created with Kaydara FBX
# 
mtllib shell_c_r.mtl

g Shell_c_R
v -0.705852 0.396442 0.217307
v -0.696027 0.352685 0.193667
v -0.684407 0.352737 0.209314
v -0.683875 0.287789 0.163283
v -0.652345 0.341744 0.216800
v -0.684792 0.398078 0.235365
v -0.664074 0.396111 0.241073
v -0.639564 0.309064 0.198344
v -0.640231 0.281747 0.176166
v -0.624324 0.307540 0.199033
v -0.627826 0.280826 0.177629
v -0.641129 0.232959 0.131308
v -0.673181 0.238099 0.120935
v -0.676378 0.241102 0.103022
v -0.692937 0.294164 0.124159
v -0.641750 0.183718 0.081384
v -0.633721 0.232531 0.131327
v -0.638752 0.183596 0.082174
v -0.672035 0.440216 0.255166
v -0.686498 0.441542 0.254771
v -0.689467 0.487433 0.269485
v -0.679423 0.487276 0.266213
v -0.695140 0.541695 0.279418
v -0.751811 0.526351 0.272379
v -0.731221 0.480916 0.259717
v -0.717214 0.438640 0.240985
v -0.776050 0.559786 0.252498
v -0.728276 0.584942 0.254859
v -0.761281 0.637051 0.230439
v -0.804284 0.586401 0.239307
v -0.786786 0.688841 0.209590
v -0.731221 0.480916 0.259717
v -0.689467 0.487433 0.269485
v -0.610314 0.238384 0.123365
v -0.591939 0.288451 0.156918
v -0.627826 0.280826 0.177629
v -0.633721 0.232531 0.131327
v -0.624324 0.307540 0.199033
v -0.638752 0.183596 0.082174
v -0.579188 0.331012 0.183320
v -0.600984 0.331193 0.212987
v -0.580817 0.371973 0.235230
v -0.569903 0.365361 0.204153
v -0.624324 0.307540 0.199033
v -0.600984 0.331193 0.212987
v -0.618734 0.332946 0.197431
v -0.610798 0.378524 0.217871
v -0.580817 0.371973 0.235230
v -0.608399 0.393019 0.223582
v -0.638828 0.336643 0.197152
v -0.639564 0.309064 0.198344
v -0.652345 0.341744 0.216800
v -0.664074 0.396111 0.241073
v -0.637631 0.386221 0.215017
v -0.637280 0.425608 0.227286
v -0.672035 0.440216 0.255166
v -0.679423 0.487276 0.266213
v -0.660408 0.477698 0.245955
v -0.684135 0.541056 0.264289
v -0.695140 0.541695 0.279418
v -0.695140 0.541695 0.279418
v -0.684135 0.541056 0.264289
v -0.719917 0.585953 0.241942
v -0.728276 0.584942 0.254859
v -0.753819 0.637746 0.219612
v -0.761281 0.637051 0.230439
v -0.778757 0.688415 0.199961
v -0.786786 0.688841 0.209590
v -0.692937 0.294164 0.124159
v -0.696027 0.352685 0.193667
v -0.705102 0.350113 0.146461
v -0.719466 0.390027 0.168559
v -0.705852 0.396442 0.217307
v -0.717214 0.438640 0.240985
v -0.736759 0.425939 0.182141
v -0.756645 0.459517 0.191711
v -0.731221 0.480916 0.259717
v -0.764699 0.510915 0.239837
v -0.751811 0.526351 0.272379
v -0.776050 0.559786 0.252498
v -0.789598 0.546857 0.233526
v -0.804284 0.586401 0.239307
v -0.782155 0.490010 0.195764
v -0.819272 0.518537 0.191969
v -0.833185 0.583591 0.221685
v -0.838074 0.528324 0.186157
v -0.856011 0.532354 0.177186
v -0.854915 0.568969 0.201286
v -0.878893 0.531384 0.163534
v -0.854915 0.568969 0.201286
v -0.833185 0.583591 0.221685
v -0.832329 0.636526 0.184035
v -0.864335 0.583409 0.161362
v -0.878893 0.531384 0.163534
v -0.804284 0.586401 0.239307
v -0.786786 0.688841 0.209590
v -0.786786 0.688841 0.209590
v -0.778757 0.688415 0.199961
v -0.825333 0.631560 0.176630
v -0.832329 0.636526 0.184035
v -0.857459 0.579656 0.154232
v -0.864335 0.583409 0.161362
v -0.874041 0.530156 0.155377
v -0.878893 0.531384 0.163534
v -0.660408 0.477698 0.245955
v -0.660408 0.476909 0.217698
v -0.684135 0.540045 0.229784
v -0.684135 0.541056 0.264289
v -0.637280 0.425608 0.227286
v -0.637280 0.424819 0.202921
v -0.608399 0.393019 0.223582
v -0.608399 0.392119 0.192337
v -0.637280 0.424819 0.202921
v -0.637280 0.425608 0.227286
v -0.580817 0.371973 0.235230
v -0.569367 0.370039 0.180674
v -0.569903 0.365361 0.204153
v -0.684135 0.541056 0.264289
v -0.684135 0.540045 0.229784
v -0.719917 0.585172 0.226742
v -0.719917 0.585953 0.241942
v -0.753819 0.637360 0.212308
v -0.753819 0.637746 0.219612
v -0.778757 0.688415 0.199961
v -0.705102 0.350113 0.146461
v -0.705183 0.351594 0.132611
v -0.693363 0.297285 0.112118
v -0.692937 0.294164 0.124159
v -0.719466 0.390027 0.168559
v -0.719139 0.390697 0.157397
v -0.736759 0.425939 0.182141
v -0.735941 0.425727 0.173622
v -0.756645 0.459517 0.191711
v -0.755263 0.458351 0.182880
v -0.782155 0.490010 0.195764
v -0.780048 0.487979 0.186780
v -0.819272 0.518537 0.191969
v -0.816112 0.517674 0.183005
v -0.838074 0.528324 0.186157
v -0.834380 0.527183 0.177358
v -0.856011 0.532354 0.177186
v -0.851808 0.531098 0.168641
v -0.878893 0.531384 0.163534
v -0.874041 0.530156 0.155377
v -0.719466 0.390027 0.168559
v -0.638752 0.183596 0.082174
v -0.637967 0.189652 0.076719
v -0.608631 0.242235 0.113914
v -0.610314 0.238384 0.123365
v -0.590833 0.291879 0.143815
v -0.591939 0.288451 0.156918
v -0.579178 0.333110 0.165140
v -0.579188 0.331012 0.183320
v -0.569367 0.370039 0.180674
v -0.569903 0.365361 0.204153
v -0.693363 0.297285 0.112118
v -0.675870 0.243255 0.092954
v -0.675870 0.243255 0.092954
v -0.642424 0.190274 0.075842
v -0.641750 0.183718 0.081384
v -0.642424 0.190274 0.075842
v -0.637967 0.189652 0.076719
v -0.638752 0.183596 0.082174
v -0.684135 0.540045 0.229784
v -0.660408 0.476909 0.217698
v -0.707835 0.467630 0.216605
v -0.732092 0.514012 0.221869
v -0.719917 0.585172 0.226742
v -0.755263 0.458351 0.182880
v -0.681813 0.425273 0.203230
v -0.735941 0.425727 0.173622
v -0.654011 0.380995 0.186270
v -0.719139 0.390697 0.157397
v -0.646286 0.335504 0.166879
v -0.705183 0.351594 0.132611
v -0.642081 0.287510 0.141697
v -0.693363 0.297285 0.112118
v -0.640351 0.239479 0.111272
v -0.675870 0.243255 0.092954
v -0.642424 0.190274 0.075842
v -0.780048 0.487979 0.186780
v -0.590833 0.291879 0.143815
v -0.608631 0.242235 0.113914
v -0.579178 0.333110 0.165140
v -0.637280 0.424819 0.202921
v -0.608399 0.392119 0.192337
v -0.569367 0.370039 0.180674
v -0.637967 0.189652 0.076719
v -0.768014 0.551423 0.212793
v -0.816112 0.517674 0.183005
v -0.794100 0.582271 0.202512
v -0.753819 0.637360 0.212308
v -0.825333 0.631560 0.176630
v -0.778757 0.688415 0.199961
v -0.834380 0.527183 0.177358
v -0.851808 0.531098 0.168641
v -0.857459 0.579656 0.154232
v -0.874041 0.530156 0.155377
vt 0.758947 0.509839
vt 0.726173 0.522878
vt 0.724816 0.509331
vt 0.678429 0.538524
vt 0.709179 0.491508
vt 0.755338 0.490132
vt 0.748124 0.476185
vt 0.681627 0.496460
vt 0.661943 0.511609
vt 0.673846 0.487917
vt 0.656876 0.504940
vt 0.626116 0.540764
vt 0.639023 0.560526
vt 0.638579 0.573212
vt 0.679881 0.566567
vt 0.589247 0.572148
vt 0.622846 0.537095
vt 0.587827 0.570934
vt 0.778082 0.464789
vt 0.783585 0.473989
vt 0.813138 0.459549
vt 0.809871 0.453316
vt 0.848130 0.446302
vt 0.855139 0.484253
vt 0.822121 0.488523
vt 0.790819 0.497281
vt 0.882526 0.494890
vt 0.886873 0.456302
vt 0.931960 0.466234
vt 0.907052 0.505738
vt 0.974645 0.472962
vt 0.822121 0.488523
vt 0.813138 0.459549
vt 0.610957 0.524216
vt 0.634141 0.486719
vt 0.656876 0.504940
vt 0.622846 0.537095
vt 0.673846 0.487917
vt 0.587827 0.570934
vt 0.653234 0.456236
vt 0.677621 0.462984
vt 0.692313 0.431714
vt 0.668776 0.431984
vt 0.673846 0.487917
vt 0.677621 0.462984
vt 0.686622 0.475185
vt 0.710360 0.448274
vt 0.692313 0.431714
vt 0.718211 0.438473
vt 0.695774 0.483524
vt 0.681627 0.496460
vt 0.709179 0.491508
vt 0.748124 0.476185
vt 0.725439 0.461430
vt 0.750926 0.445029
vt 0.778082 0.464789
vt 0.809871 0.453316
vt 0.794994 0.441199
vt 0.845295 0.435995
vt 0.848130 0.446302
vt 0.848130 0.446302
vt 0.845295 0.435995
vt 0.889216 0.445735
vt 0.886873 0.456302
vt 0.934102 0.457144
vt 0.931960 0.466234
vt 0.975359 0.464176
vt 0.974645 0.472962
vt 0.679881 0.566567
vt 0.726173 0.522878
vt 0.721768 0.556197
vt 0.753669 0.545323
vt 0.758947 0.509839
vt 0.790819 0.497281
vt 0.783157 0.541128
vt 0.811939 0.540487
vt 0.822121 0.488523
vt 0.849184 0.509544
vt 0.855139 0.484253
vt 0.882526 0.494890
vt 0.879624 0.513426
vt 0.907052 0.505738
vt 0.841119 0.543797
vt 0.873267 0.554027
vt 0.915071 0.526028
vt 0.887280 0.562374
vt 0.898464 0.572537
vt 0.916131 0.547813
vt 0.910672 0.587412
vt 0.916131 0.547813
vt 0.915071 0.526028
vt 0.959855 0.522341
vt 0.940736 0.564158
vt 0.910672 0.587412
vt 0.907052 0.505738
vt 0.974645 0.472962
vt 0.974645 0.472962
vt 0.983135 0.474978
vt 0.966139 0.526866
vt 0.959855 0.522341
vt 0.945413 0.569271
vt 0.940736 0.564158
vt 0.915677 0.592144
vt 0.910672 0.587412
vt 0.794994 0.441199
vt 0.787838 0.423467
vt 0.834969 0.413909
vt 0.845295 0.435995
vt 0.750926 0.445029
vt 0.749044 0.428284
vt 0.718211 0.438473
vt 0.724264 0.416791
vt 0.749044 0.428284
vt 0.750926 0.445029
vt 0.692313 0.431714
vt 0.702156 0.395111
vt 0.693449 0.408794
vt 0.845295 0.435995
vt 0.859403 0.415933
vt 0.894355 0.436641
vt 0.889216 0.445735
vt 0.936407 0.452587
vt 0.934102 0.457144
vt 0.975359 0.464176
vt 0.721768 0.556197
vt 0.721337 0.565941
vt 0.680486 0.575185
vt 0.679881 0.566567
vt 0.753669 0.545323
vt 0.752755 0.553101
vt 0.783157 0.541128
vt 0.781772 0.546928
vt 0.811939 0.540487
vt 0.809689 0.546325
vt 0.841119 0.543797
vt 0.837589 0.549500
vt 0.873267 0.554027
vt 0.869541 0.559683
vt 0.887280 0.562374
vt 0.882959 0.567557
vt 0.898464 0.572537
vt 0.893630 0.577223
vt 0.910672 0.587412
vt 0.905190 0.591380
vt 0.753669 0.545323
vt 0.587827 0.570934
vt 0.583519 0.567038
vt 0.604243 0.521792
vt 0.610957 0.524216
vt 0.624946 0.484259
vt 0.634141 0.486719
vt 0.640590 0.454455
vt 0.653234 0.456236
vt 0.652467 0.428142
vt 0.668776 0.431984
vt 0.680486 0.575185
vt 0.637976 0.580245
vt 0.637976 0.580245
vt 0.592018 0.577265
vt 0.589247 0.572148
vt 0.592018 0.577265
vt 0.588664 0.577312
vt 0.587827 0.570934
vt 0.515353 0.355375
vt 0.560224 0.336972
vt 0.567105 0.369833
vt 0.535855 0.387838
vt 0.485769 0.383326
vt 0.581690 0.408103
vt 0.597891 0.352197
vt 0.605751 0.394557
vt 0.631450 0.333808
vt 0.633261 0.384055
vt 0.665921 0.328954
vt 0.666250 0.377694
vt 0.703613 0.327046
vt 0.706797 0.368720
vt 0.743122 0.327640
vt 0.746626 0.355432
vt 0.785253 0.331548
vt 0.560500 0.425702
vt 0.701530 0.291250
vt 0.741573 0.305392
vt 0.669215 0.282242
vt 0.598730 0.321113
vt 0.623388 0.301667
vt 0.641420 0.274851
vt 0.785435 0.328271
vt 0.512734 0.415763
vt 0.540830 0.452179
vt 0.493587 0.437226
vt 0.452103 0.413059
vt 0.461942 0.468273
vt 0.418692 0.436162
vt 0.535140 0.466178
vt 0.533843 0.479757
vt 0.500534 0.492095
vt 0.536533 0.497628
vn -0.576496 -0.464836 0.671997
vn -0.765360 -0.402567 0.502159
vn -0.527372 -0.474484 0.704801
vn -0.700695 -0.501527 0.507443
vn -0.338885 -0.516435 0.786417
vn -0.386260 -0.438633 0.811421
vn -0.263769 -0.419604 0.868538
vn -0.257524 -0.587025 0.767517
vn -0.207641 -0.638131 0.741400
vn -0.115230 -0.618244 0.777494
vn -0.108577 -0.646079 0.755508
vn -0.207413 -0.679162 0.704073
vn -0.696420 -0.582354 0.419360
vn -0.914515 -0.403755 -0.025388
vn -0.950712 -0.300800 0.075273
vn -0.545739 -0.734754 0.402872
vn -0.096482 -0.690759 0.716619
vn -0.092017 -0.704683 0.703530
vn -0.070457 -0.325041 0.943072
vn -0.166400 -0.358186 0.918702
vn 0.039925 -0.238664 0.970281
vn 0.182479 -0.210601 0.960390
vn -0.137186 0.019558 0.990352
vn -0.182370 0.106546 0.977440
vn -0.166949 -0.308203 0.936557
vn -0.368592 -0.455623 0.810276
vn -0.200899 0.327243 0.923337
vn -0.204895 0.333693 0.920145
vn -0.169459 0.300980 0.938453
vn -0.179107 0.301838 0.936384
vn -0.159473 0.300062 0.940495
vn -0.166949 -0.308203 0.936557
vn 0.039925 -0.238664 0.970281
vn 0.424012 -0.646118 0.634622
vn 0.485458 -0.620368 0.616015
vn 0.474710 -0.603169 0.640966
vn 0.416621 -0.651331 0.634188
vn 0.517056 -0.616711 0.593566
vn 0.383364 -0.673848 0.631634
vn 0.609248 -0.597619 0.521218
vn 0.627882 -0.588370 0.509494
vn 0.716519 -0.536509 0.445825
vn 0.716519 -0.536509 0.445825
vn -0.213942 0.099297 0.971786
vn -0.604838 -0.096168 0.790520
vn -0.361958 -0.076060 0.929086
vn -0.374474 -0.279350 0.884156
vn -0.564761 -0.211084 0.797803
vn -0.324196 -0.280945 0.903309
vn 0.371826 -0.146561 0.916660
vn 0.243702 0.044307 0.968837
vn 0.738310 -0.153547 0.656751
vn 0.634869 -0.193916 0.747889
vn 0.272544 -0.292800 0.916509
vn 0.477266 -0.190137 0.857942
vn 0.646845 -0.072049 0.759211
vn 0.730132 0.056516 0.680965
vn 0.684666 0.006466 0.728828
vn 0.795764 0.091154 0.598708
vn 0.807114 0.091595 0.583247
vn 0.593612 0.687085 0.418974
vn 0.593612 0.687085 0.418974
vn 0.614699 0.652036 0.443841
vn 0.612963 0.655070 0.441769
vn 0.653525 0.575069 0.492139
vn 0.651986 0.578512 0.490142
vn 0.670741 0.533775 0.514967
vn 0.670741 0.533775 0.514966
vn -0.939107 -0.282297 0.195926
vn -0.901244 -0.364585 0.234173
vn -0.921900 -0.322504 0.214692
vn -0.863747 -0.418551 0.280636
vn -0.844849 -0.438731 0.306178
vn -0.786816 -0.484197 0.382719
vn -0.800740 -0.475478 0.364331
vn -0.727409 -0.524867 0.442031
vn -0.742591 -0.500030 0.445566
vn -0.700479 -0.464816 0.541549
vn -0.743874 -0.391517 0.541633
vn -0.711327 -0.330725 0.620190
vn -0.666707 -0.374812 0.644218
vn -0.560366 -0.389416 0.730989
vn -0.616600 -0.541650 0.571332
vn -0.546659 -0.454225 0.703451
vn -0.444909 -0.454097 0.771915
vn -0.443940 -0.458437 0.769904
vn -0.436442 -0.478566 0.761901
vn -0.440290 -0.470920 0.764447
vn -0.432290 -0.486697 0.759112
vn -0.850249 0.346579 0.396181
vn -0.704486 0.376664 0.601518
vn -0.721167 0.374713 0.582673
vn -0.887350 0.325116 0.326970
vn -0.911469 0.268073 0.312029
vn -0.654260 0.364569 0.662596
vn -0.654260 0.364569 0.662596
vn -0.452851 0.653646 -0.606360
vn -0.452851 0.653646 -0.606360
vn -0.427998 0.601798 -0.674282
vn -0.434362 0.614863 -0.658235
vn -0.610260 0.376442 -0.697047
vn -0.574136 0.414208 -0.706258
vn -0.742521 0.206926 -0.637059
vn -0.742521 0.206926 -0.637059
vn 0.926687 0.375674 -0.010979
vn 0.922613 0.385560 -0.011358
vn 0.874592 0.484593 -0.016076
vn 0.872393 0.488535 -0.016256
vn 0.850457 0.525805 -0.015874
vn 0.824378 0.565780 -0.017113
vn 0.645164 0.763911 0.014239
vn 0.633561 0.773486 0.017885
vn 0.824378 0.565780 -0.017113
vn 0.850457 0.525805 -0.015874
vn 0.575887 0.815520 0.057282
vn 0.596651 0.799837 0.065330
vn 0.774214 0.617109 0.140600
vn 0.872393 0.488535 -0.016256
vn 0.874592 0.484593 -0.016076
vn 0.816367 0.576978 -0.025317
vn 0.809035 0.587247 -0.024579
vn 0.875996 0.481659 -0.025219
vn 0.867182 0.497314 -0.025967
vn 0.900481 0.434290 -0.022951
vn -0.961453 -0.273432 -0.029034
vn -0.968080 -0.249400 -0.024909
vn -0.978386 -0.206048 -0.017496
vn -0.978386 -0.206048 -0.017496
vn -0.925112 -0.376013 -0.052746
vn -0.934553 -0.352798 -0.046314
vn -0.884283 -0.462024 -0.067657
vn -0.894131 -0.442956 -0.065733
vn -0.809039 -0.585677 -0.049386
vn -0.831992 -0.551800 -0.057506
vn -0.680642 -0.731054 -0.047810
vn -0.711975 -0.700832 -0.043886
vn -0.524213 -0.849198 -0.063743
vn -0.541966 -0.838096 -0.062191
vn -0.337050 -0.941287 -0.019394
vn -0.343755 -0.938789 -0.022533
vn -0.136652 -0.987551 0.077910
vn -0.132492 -0.987949 0.080015
vn -0.034708 -0.991093 0.128572
vn -0.034708 -0.991093 0.128572
vn -0.925112 -0.376013 -0.052746
vn 0.907761 -0.402720 -0.117417
vn 0.907761 -0.402720 -0.117417
vn 0.924462 -0.376392 -0.060827
vn 0.927188 -0.371233 -0.050090
vn 0.949647 -0.313308 -0.003041
vn 0.953316 -0.301914 -0.006050
vn 0.964970 -0.261654 -0.019214
vn 0.966561 -0.255463 -0.022335
vn 0.968968 -0.245681 -0.027251
vn 0.968967 -0.245681 -0.027251
vn -0.957953 -0.278272 -0.069932
vn -0.913506 -0.372598 -0.163332
vn -0.913506 -0.372598 -0.163332
vn -0.861613 -0.447095 -0.240268
vn 0.102518 -0.654235 -0.749311
vn 0.102518 -0.654235 -0.749311
vn 0.102518 -0.654235 -0.749311
vn 0.102518 -0.654235 -0.749311
vn 0.084817 0.107411 -0.990590
vn 0.003153 0.229730 -0.973249
vn 0.232113 0.339318 -0.911585
vn 0.266316 0.207132 -0.941367
vn 0.255497 -0.010877 -0.966749
vn 0.438270 0.429597 -0.789535
vn 0.211798 0.423884 -0.880604
vn 0.420980 0.510121 -0.750035
vn 0.207919 0.453449 -0.866691
vn 0.435874 0.522211 -0.733014
vn 0.248978 0.455404 -0.854761
vn 0.497486 0.462974 -0.733595
vn 0.256867 0.481803 -0.837786
vn 0.508458 0.431810 -0.744991
vn 0.241017 0.530413 -0.812756
vn 0.465161 0.478150 -0.744982
vn 0.295640 0.549970 -0.781108
vn 0.426770 0.323471 -0.844532
vn -0.001589 0.486674 -0.873582
vn 0.008898 0.540650 -0.841201
vn -0.007859 0.422178 -0.906479
vn 0.006142 0.324940 -0.945715
vn 0.007887 0.431201 -0.902221
vn -0.007310 0.408596 -0.912686
vn 0.184966 0.565965 -0.803412
vn 0.361247 0.096146 -0.927500
vn 0.426326 0.181787 -0.886115
vn 0.449516 -0.040002 -0.892376
vn 0.398029 -0.068029 -0.914847
vn 0.511768 -0.086724 -0.854736
vn 0.446319 0.001593 -0.894873
vn 0.532729 -0.001647 -0.846284
vn 0.559536 -0.132310 -0.818177
vn 0.577469 -0.110635 -0.808881
vn 0.508971 -0.189913 -0.839572
usemtl material
f 1/0/1 2/0/2 3/0/3
f 3/0/3 2/0/2 4/0/4
f 4/0/4 5/0/5 3/0/3
f 5/0/5 6/0/6 3/0/3
f 1/0/1 3/0/3 6/0/6
f 5/0/5 7/0/7 6/0/6
f 4/0/4 8/0/8 5/0/5
f 9/0/9 8/0/8 4/0/4
f 10/0/10 8/0/8 9/0/9
f 10/0/10 9/0/9 11/0/11
f 12/0/12 9/0/9 4/0/4
f 12/0/12 4/0/4 13/0/13
f 4/0/4 14/0/14 13/0/13
f 4/0/4 15/0/15 14/0/14
f 4/0/4 2/0/2 15/0/15
f 16/0/16 13/0/13 14/0/14
f 16/0/16 12/0/12 13/0/13
f 16/0/16 17/0/17 12/0/12
f 17/0/17 11/0/11 9/0/9
f 17/0/17 9/0/9 12/0/12
f 16/0/16 18/0/18 17/0/17
f 19/0/19 6/0/6 7/0/7
f 19/0/19 20/0/20 6/0/6
f 19/0/19 21/0/21 20/0/20
f 19/0/19 22/0/22 21/0/21
f 22/0/22 23/0/23 21/0/21
f 24/0/24 21/0/21 23/0/23
f 24/0/24 25/0/25 21/0/21
f 25/0/25 26/0/26 20/0/20
f 27/0/27 24/0/24 23/0/23
f 27/0/27 23/0/23 28/0/28
f 29/0/29 27/0/27 28/0/28
f 29/0/29 30/0/30 27/0/27
f 31/0/31 30/0/30 29/0/29
f 26/0/26 6/0/6 20/0/20
f 1/0/1 6/0/6 26/0/26
f 32/0/32 20/0/20 33/0/33
f 34/0/34 35/0/35 36/0/36
f 34/0/34 36/0/36 37/0/37
f 38/0/38 36/0/36 35/0/35
f 37/0/37 39/0/39 34/0/34
f 38/0/38 35/0/35 40/0/40
f 38/0/38 40/0/40 41/0/41
f 42/0/42 41/0/41 40/0/40
f 42/0/42 40/0/40 43/0/43
f 44/0/44 45/0/45 46/0/46
f 47/0/47 46/0/46 45/0/45
f 47/0/47 45/0/45 48/0/48
f 49/0/49 47/0/47 48/0/48
f 44/0/44 46/0/46 50/0/50
f 44/0/44 50/0/50 51/0/51
f 51/0/51 50/0/50 52/0/52
f 53/0/53 52/0/52 50/0/50
f 53/0/53 50/0/50 54/0/54
f 46/0/46 47/0/47 54/0/54
f 46/0/46 54/0/54 50/0/50
f 47/0/47 49/0/49 55/0/55
f 47/0/47 55/0/55 54/0/54
f 56/0/56 53/0/53 54/0/54
f 56/0/56 54/0/54 55/0/55
f 57/0/57 56/0/56 55/0/55
f 57/0/57 55/0/55 58/0/58
f 59/0/59 57/0/57 58/0/58
f 57/0/57 59/0/59 60/0/60
f 61/0/61 62/0/62 63/0/63
f 61/0/61 63/0/63 64/0/64
f 64/0/64 63/0/63 65/0/65
f 64/0/64 65/0/65 66/0/66
f 66/0/66 65/0/65 67/0/67
f 66/0/66 67/0/67 68/0/68
f 69/0/69 70/0/70 71/0/71
f 70/0/70 72/0/72 71/0/71
f 70/0/70 73/0/73 72/0/72
f 72/0/72 73/0/73 74/0/74
f 72/0/72 74/0/74 75/0/75
f 74/0/74 76/0/76 75/0/75
f 74/0/74 77/0/77 76/0/76
f 77/0/77 78/0/78 76/0/76
f 77/0/77 79/0/79 78/0/78
f 80/0/80 78/0/78 79/0/79
f 80/0/80 81/0/81 78/0/78
f 82/0/82 81/0/81 80/0/80
f 81/0/81 83/0/83 78/0/78
f 78/0/78 83/0/83 76/0/76
f 81/0/81 84/0/84 83/0/83
f 82/0/82 84/0/84 81/0/81
f 85/0/85 84/0/84 82/0/82
f 85/0/85 86/0/86 84/0/84
f 87/0/87 86/0/86 85/0/85
f 87/0/87 85/0/85 88/0/88
f 87/0/87 88/0/88 89/0/89
f 90/0/90 91/0/91 92/0/92
f 93/0/93 90/0/90 92/0/92
f 90/0/90 93/0/93 94/0/94
f 92/0/92 91/0/91 95/0/95
f 92/0/92 95/0/95 96/0/96
f 97/0/97 98/0/98 99/0/99
f 97/0/97 99/0/99 100/0/100
f 100/0/100 99/0/99 101/0/101
f 100/0/100 101/0/101 102/0/102
f 102/0/102 101/0/101 103/0/103
f 102/0/102 103/0/103 104/0/104
f 105/0/105 106/0/106 107/0/107
f 105/0/105 107/0/107 108/0/108
f 109/0/109 106/0/106 105/0/105
f 109/0/109 110/0/110 106/0/106
f 111/0/111 112/0/112 113/0/113
f 111/0/111 113/0/113 114/0/114
f 115/0/115 112/0/112 111/0/111
f 115/0/115 116/0/116 112/0/112
f 117/0/117 116/0/116 115/0/115
f 118/0/118 119/0/119 120/0/120
f 118/0/118 120/0/120 121/0/121
f 121/0/121 120/0/120 122/0/122
f 121/0/121 122/0/122 123/0/123
f 123/0/123 122/0/122 124/0/124
f 125/0/125 126/0/126 127/0/127
f 125/0/125 127/0/127 128/0/128
f 129/0/129 126/0/126 125/0/125
f 129/0/129 130/0/130 126/0/126
f 131/0/131 132/0/132 130/0/130
f 133/0/133 132/0/132 131/0/131
f 133/0/133 134/0/134 132/0/132
f 135/0/135 134/0/134 133/0/133
f 135/0/135 136/0/136 134/0/134
f 137/0/137 136/0/136 135/0/135
f 137/0/137 138/0/138 136/0/136
f 139/0/139 138/0/138 137/0/137
f 139/0/139 140/0/140 138/0/138
f 141/0/141 140/0/140 139/0/139
f 141/0/141 142/0/142 140/0/140
f 143/0/143 142/0/142 141/0/141
f 143/0/143 144/0/144 142/0/142
f 131/0/131 130/0/130 145/0/145
f 146/0/146 147/0/147 148/0/148
f 146/0/146 148/0/148 149/0/149
f 149/0/149 148/0/148 150/0/150
f 149/0/149 150/0/150 151/0/151
f 151/0/151 150/0/150 152/0/152
f 151/0/151 152/0/152 153/0/153
f 153/0/153 152/0/152 154/0/154
f 153/0/153 154/0/154 155/0/155
f 15/0/15 156/0/156 157/0/157
f 15/0/15 157/0/157 14/0/14
f 14/0/14 158/0/158 159/0/159
f 14/0/14 159/0/159 16/0/16
f 160/0/160 161/0/161 162/0/162
f 160/0/160 162/0/162 163/0/163
f 164/0/164 165/0/165 166/0/166
f 164/0/164 166/0/166 167/0/167
f 164/0/164 167/0/167 168/0/168
f 167/0/167 166/0/166 169/0/169
f 169/0/169 166/0/166 170/0/170
f 170/0/170 166/0/166 165/0/165
f 169/0/169 170/0/170 171/0/171
f 171/0/171 170/0/170 172/0/172
f 171/0/171 172/0/172 173/0/173
f 173/0/173 172/0/172 174/0/174
f 173/0/173 174/0/174 175/0/175
f 175/0/175 174/0/174 176/0/176
f 175/0/175 176/0/176 177/0/177
f 177/0/177 176/0/176 178/0/178
f 177/0/177 178/0/178 179/0/179
f 179/0/179 178/0/178 180/0/180
f 167/0/167 169/0/169 181/0/181
f 178/0/178 176/0/176 182/0/182
f 178/0/178 182/0/182 183/0/183
f 176/0/176 174/0/174 184/0/184
f 176/0/176 184/0/184 182/0/182
f 172/0/172 170/0/170 185/0/185
f 172/0/172 185/0/185 186/0/186
f 172/0/172 186/0/186 187/0/187
f 174/0/174 172/0/172 187/0/187
f 174/0/174 187/0/187 184/0/184
f 188/0/188 178/0/178 183/0/183
f 180/0/180 178/0/178 188/0/188
f 170/0/170 165/0/165 185/0/185
f 189/0/189 167/0/167 181/0/181
f 189/0/189 181/0/181 190/0/190
f 191/0/191 189/0/189 190/0/190
f 168/0/168 189/0/189 191/0/191
f 167/0/167 189/0/189 168/0/168
f 168/0/168 191/0/191 192/0/192
f 192/0/192 191/0/191 193/0/193
f 192/0/192 193/0/193 194/0/194
f 191/0/191 190/0/190 195/0/195
f 193/0/193 191/0/191 195/0/195
f 193/0/193 195/0/195 196/0/196
f 193/0/193 196/0/196 197/0/197
f 197/0/197 196/0/196 198/0/198
