# 
# Wavefront OBJ file
# Created with Kaydara FBX
# 
mtllib skilltrail_02_outside #219290.mtl

g SkillTrail_02_Outside
v 0.169740 0.251182 -1.655397
v 0.508155 0.265823 -1.579222
v 0.675003 0.067357 -1.942632
v 0.295836 0.050945 -2.029650
v 1.034725 0.083493 -1.784787
v 0.827371 0.280140 -1.439326
v 1.362057 0.099416 -1.560272
v 1.115765 0.294195 -1.239998
v 1.659916 0.116416 -1.247473
v 1.345708 0.307282 -0.998497
v 1.872902 0.132151 -0.901688
v 1.532453 0.320992 -0.697960
v 2.018974 0.147909 -0.518822
v 1.658975 0.334663 -0.365718
v 2.091849 0.163764 -0.111534
v 1.720068 0.348365 -0.013320
v 2.084248 0.166605 0.457197
v 1.705557 0.361230 0.322083
v 1.983424 0.182911 0.867209
v 1.620542 0.375159 0.672629
v 1.806498 0.183956 1.254475
v 1.469250 0.389269 1.002023
v 1.546018 0.171145 1.620082
v 1.265184 0.403040 1.287480
v 1.197166 0.146414 1.921648
v 1.002327 0.417029 1.521951
v 0.821058 0.122595 2.145097
v 0.686668 0.431797 1.710387
v 0.406688 0.114484 2.295753
v 0.338891 0.446766 1.835393
v -0.074988 0.134348 2.366238
v 0.002793 0.460592 1.886588
v -0.522819 0.152694 2.334553
v -0.369637 0.475838 1.862793
v -0.959913 0.171147 2.219212
v -0.732071 0.491136 1.767435
v -1.371029 0.189631 2.023010
v -1.071291 0.506423 1.603248
v -1.771125 0.209891 1.715630
v -1.343833 0.520178 1.392397
v -2.071551 0.228131 1.363119
v -1.592268 0.535169 1.096389
v -2.302640 0.246102 0.951398
v -1.781472 0.549904 0.756333
v -2.455508 0.263719 0.499869
v -1.903926 0.564307 0.383840
v -2.515681 0.282584 -0.026574
v -1.941752 0.576840 0.030527
v -2.473637 0.299102 -0.509241
v -1.908763 0.590294 -0.364277
v -2.343158 0.315015 -0.978765
v -1.799328 0.603219 -0.747512
v -2.112494 0.331070 -1.441472
v -1.628841 0.614922 -1.087126
v -1.783207 0.346245 -1.844821
v -1.380049 0.625972 -1.383628
v -1.395825 0.359936 -2.164472
v -1.063295 0.637042 -1.644610
v -0.952394 0.372925 -2.409951
v -0.701695 0.647509 -1.843153
v -0.415009 0.386494 -2.580440
v -0.350952 0.656299 -1.958048
v 0.094967 0.398013 -2.630059
v 0.061647 0.665580 -2.003070
v 0.606552 0.408961 -2.586139
v 0.485309 0.674378 -1.964340
v 1.109229 0.419412 -2.445530
v 0.896744 0.682754 -1.847695
v 1.628112 0.430501 -2.177600
v 1.235120 0.689838 -1.675841
v 2.038802 0.440152 -1.845842
v 1.571013 0.697571 -1.412655
v 2.382252 0.449603 -1.445744
v 1.850994 0.705132 -1.092764
v 2.646569 0.458947 -0.990375
v 2.065237 0.712597 -0.727277
v 2.826056 0.469316 -0.436714
v 2.182039 0.719177 -0.369971
v 2.883822 0.478758 0.086776
v 2.235651 0.726709 0.051368
v 2.843510 0.488371 0.613113
v 2.208062 0.734378 0.472597
v 2.696538 0.498768 1.149443
v 2.108372 0.741756 0.854854
v 2.434367 0.509510 1.636624
v 1.927586 0.749387 1.203542
v 2.102207 0.520010 2.041006
v 1.669525 0.757743 1.527522
v 1.699905 0.530818 2.374323
v 1.344359 0.766932 1.797743
v 1.187240 0.542995 2.642927
v 0.972609 0.778310 1.992277
v 0.614531 0.557987 2.794956
v 0.512679 0.791677 2.110487
v 0.020077 0.573529 2.830482
v 0.022603 0.809348 2.124903
v -0.580859 0.592829 2.742887
v -0.467856 0.827147 2.041542
v -1.220660 0.614736 2.492488
v -0.870238 0.842837 1.883744
v -1.728497 0.634497 2.144001
v -1.270419 0.860616 1.608383
v -2.149015 0.654006 1.699521
v -1.595302 0.878250 1.253324
v -2.464355 0.673079 1.178468
v -1.832363 0.895661 0.836190
v -2.667410 0.693879 0.535071
v -1.946506 0.910646 0.431714
v -2.713325 0.712098 -0.070108
v -1.980213 0.927259 -0.042966
v -2.629389 0.729583 -0.667740
v -1.914034 0.943345 -0.509503
v -2.408277 0.747145 -1.260950
v -1.753802 0.957906 -0.918248
v -2.048819 0.763864 -1.777505
v -1.493335 0.971802 -1.270059
v -1.609384 0.778818 -2.176479
v -1.149506 0.985866 -1.575645
v -1.094580 0.792758 -2.466674
v -0.754587 0.999174 -1.795476
v -0.466511 0.807141 -2.640452
v -0.370955 1.010250 -1.898777
v 0.124740 0.819184 -2.645231
v 0.082232 1.022043 -1.896750
v 0.705906 0.830437 -2.511872
v 0.524869 1.033146 -1.784244
v 1.247960 0.840749 -2.254138
v 0.932540 1.043628 -1.563246
v 1.764160 0.851444 -1.828636
v 1.238093 1.052341 -1.281643
v 2.124762 0.860674 -1.327529
v 1.501126 1.061738 -0.878692
v 2.365535 0.869524 -0.745713
v 1.665061 1.070890 -0.412727
v 2.471823 0.877962 -0.110645
v 1.717137 1.080278 0.094539
v 2.411233 0.886693 0.615653
v 1.651067 1.089339 0.556103
v 2.208087 0.899781 1.250198
v 1.462169 1.100197 1.065027
v 1.896695 0.909584 1.821391
v 1.169502 1.109190 1.533623
v 1.533163 0.910852 2.297222
v 0.855952 1.110144 1.901722
vt 0.409042 0.998741
vt 0.417298 0.998741
vt 0.417298 0.004089
vt 0.409042 0.004089
vt 0.425554 0.004089
vt 0.425554 0.998741
vt 0.433809 0.004089
vt 0.433809 0.998741
vt 0.442065 0.004089
vt 0.442065 0.998741
vt 0.450320 0.004089
vt 0.450320 0.998741
vt 0.458576 0.004089
vt 0.458576 0.998741
vt 0.466832 0.004089
vt 0.466831 0.998741
vt 0.475087 0.004089
vt 0.475087 0.998741
vt 0.483342 0.004089
vt 0.483342 0.998741
vt 0.491598 0.004089
vt 0.491598 0.998741
vt 0.499853 0.004089
vt 0.499853 0.998741
vt 0.508109 0.004089
vt 0.508109 0.998741
vt 0.516364 0.004089
vt 0.516364 0.998741
vt 0.524620 0.004089
vt 0.524620 0.998741
vt 0.532876 0.004089
vt 0.532876 0.998741
vt 0.541131 0.004089
vt 0.541131 0.998741
vt 0.549387 0.004082
vt 0.549387 0.998741
vt 0.557643 0.004082
vt 0.557642 0.998741
vt 0.565898 0.004082
vt 0.565898 0.998741
vt 0.574153 0.004082
vt 0.574153 0.998741
vt 0.582409 0.004082
vt 0.582409 0.998741
vt 0.590664 0.004082
vt 0.590664 0.998741
vt 0.598920 0.004082
vt 0.598920 0.998741
vt 0.607175 0.004082
vt 0.607175 0.998741
vt 0.615431 0.004082
vt 0.615431 0.998741
vt 0.623687 0.004082
vt 0.623687 0.998741
vt 0.631942 0.004082
vt 0.631942 0.998741
vt 0.640198 0.004082
vt 0.640198 0.998741
vt 0.648454 0.004082
vt 0.648453 0.998741
vt 0.656709 0.004082
vt 0.656709 0.998741
vt 0.664965 0.004082
vt 0.664964 0.998741
vt 0.673220 0.004082
vt 0.673220 0.998741
vt 0.681475 0.004082
vt 0.681475 0.998741
vt 0.689731 0.004082
vt 0.689731 0.998741
vt 0.697986 0.004082
vt 0.697986 0.998741
vt 0.706242 0.004082
vt 0.706242 0.998741
vt 0.714497 0.004082
vt 0.714497 0.998741
vt 0.722753 0.004082
vt 0.722753 0.998741
vt 0.731009 0.004082
vt 0.731009 0.998741
vt 0.739264 0.004082
vt 0.739264 0.998741
vt 0.747519 0.004082
vt 0.747519 0.998741
vt 0.755775 0.004082
vt 0.755775 0.998741
vt 0.764031 0.004082
vt 0.764031 0.998741
vt 0.772286 0.004082
vt 0.772286 0.998741
vt 0.780542 0.004082
vt 0.780542 0.998741
vt 0.788797 0.004082
vt 0.788797 0.998741
vt 0.797053 0.004082
vt 0.797053 0.998741
vt 0.805308 0.004082
vt 0.805308 0.998741
vt 0.813564 0.004082
vt 0.813564 0.998741
vt 0.821819 0.004082
vt 0.821820 0.998741
vt 0.830075 0.004082
vt 0.830075 0.998741
vt 0.838330 0.004082
vt 0.838331 0.998741
vt 0.846586 0.004082
vt 0.846586 0.998741
vt 0.854842 0.004082
vt 0.854842 0.998741
vt 0.863097 0.004082
vt 0.863097 0.998741
vt 0.871352 0.004082
vt 0.871352 0.998741
vt 0.879608 0.004082
vt 0.879608 0.998741
vt 0.887864 0.004082
vt 0.887864 0.998741
vt 0.896119 0.004082
vt 0.896119 0.998741
vt 0.904375 0.004082
vt 0.904375 0.998741
vt 0.912630 0.004082
vt 0.912630 0.998741
vt 0.920886 0.004082
vt 0.920886 0.998741
vt 0.929141 0.004082
vt 0.929142 0.998741
vt 0.937397 0.004082
vt 0.937397 0.998741
vt 0.945652 0.004082
vt 0.945652 0.998741
vt 0.953908 0.004082
vt 0.953908 0.998741
vt 0.962164 0.004082
vt 0.962163 0.998741
vt 0.970419 0.004082
vt 0.970419 0.998741
vt 0.978675 0.004082
vt 0.978675 0.998741
vt 0.986931 0.004082
vt 0.986930 0.998741
vt 0.995186 0.004082
vt 0.995186 0.998741
vn 0.079443 0.309413 -0.947603
vn 0.266321 0.328356 -0.906232
vn 0.266930 0.328415 -0.906031
vn 0.081843 0.309672 -0.947315
vn 0.428977 0.344611 -0.834998
vn 0.429457 0.344660 -0.834731
vn 0.580091 0.359851 -0.730754
vn 0.581921 0.360027 -0.729210
vn 0.713431 0.376851 -0.590761
vn 0.712015 0.376614 -0.592618
vn 0.808643 0.393620 -0.437218
vn 0.808446 0.393582 -0.437616
vn 0.869869 0.408247 -0.276879
vn 0.870133 0.408330 -0.275927
vn 0.900980 0.422541 -0.098459
vn 0.901241 0.422785 -0.094958
vn 0.894349 0.438429 0.089001
vn 0.894643 0.438222 0.087034
vn 0.853380 0.454594 0.255120
vn 0.853421 0.454583 0.255002
vn 0.784716 0.468293 0.406107
vn 0.783965 0.468411 0.407418
vn 0.678976 0.484016 0.552014
vn 0.678926 0.484022 0.552071
vn 0.546555 0.499922 0.671830
vn 0.547731 0.499781 0.670977
vn 0.408145 0.514968 0.753808
vn 0.407890 0.514993 0.753928
vn 0.255113 0.528060 0.809981
vn 0.252784 0.528227 0.810602
vn 0.081200 0.544279 0.834965
vn 0.085246 0.543835 0.834851
vn -0.083942 0.560606 0.823817
vn -0.082872 0.560506 0.823993
vn -0.232892 0.574621 0.784584
vn -0.233600 0.574688 0.784324
vn -0.376573 0.587560 0.716217
vn -0.379493 0.587796 0.714480
vn -0.510259 0.602643 0.613561
vn -0.507887 0.602281 0.615880
vn -0.610949 0.617670 0.495202
vn -0.610566 0.617612 0.495747
vn -0.684047 0.630234 0.367267
vn -0.684563 0.630337 0.366127
vn -0.734332 0.641896 0.220741
vn -0.735381 0.642174 0.216395
vn -0.753488 0.654678 0.060436
vn -0.753503 0.654423 0.062955
vn -0.739854 0.667435 -0.084539
vn -0.739890 0.667419 -0.084344
vn -0.702078 0.677154 -0.220337
vn -0.701448 0.677264 -0.222001
vn -0.632149 0.687833 -0.356754
vn -0.632143 0.687834 -0.356763
vn -0.536527 0.697939 -0.474362
vn -0.537749 0.697813 -0.473164
vn -0.431332 0.707014 -0.560432
vn -0.431093 0.707032 -0.560593
vn -0.311366 0.713607 -0.627548
vn -0.308950 0.713698 -0.628638
vn -0.168833 0.722029 -0.670947
vn -0.173260 0.721699 -0.670173
vn -0.030114 0.730328 -0.682433
vn -0.031325 0.730266 -0.682445
vn 0.098634 0.736630 -0.669064
vn 0.099398 0.736666 -0.668912
vn 0.226688 0.741530 -0.631463
vn 0.230014 0.741615 -0.630159
vn 0.351436 0.747770 -0.563323
vn 0.348607 0.747545 -0.565375
vn 0.449762 0.754449 -0.478038
vn 0.449269 0.754419 -0.478550
vn 0.526827 0.759432 -0.381728
vn 0.527519 0.759481 -0.380674
vn 0.587720 0.763581 -0.267449
vn 0.589478 0.763672 -0.263287
vn 0.624641 0.768813 -0.136931
vn 0.624282 0.768653 -0.139448
vn 0.631786 0.774989 -0.015454
vn 0.631791 0.774981 -0.015670
vn 0.618483 0.779210 0.101538
vn 0.618133 0.779264 0.103241
vn 0.578493 0.784482 0.223458
vn 0.578510 0.784480 0.223420
vn 0.514782 0.789961 0.333108
vn 0.515784 0.789873 0.331765
vn 0.439043 0.795440 0.417751
vn 0.438852 0.795452 0.417930
vn 0.348974 0.799394 0.489066
vn 0.346866 0.799453 0.490468
vn 0.236389 0.805328 0.543661
vn 0.240477 0.805043 0.542289
vn 0.123132 0.811701 0.570946
vn 0.124280 0.811645 0.570778
vn 0.014772 0.816862 0.576644
vn 0.014046 0.816895 0.576615
vn -0.096335 0.821208 0.562438
vn -0.099614 0.821301 0.561731
vn -0.209199 0.826909 0.521974
vn -0.206277 0.826687 0.523486
vn -0.301974 0.832999 0.463599
vn -0.301433 0.832967 0.464009
vn -0.378822 0.837719 0.393346
vn -0.379609 0.837769 0.392478
vn -0.444838 0.841742 0.305923
vn -0.447069 0.841847 0.302362
vn -0.493046 0.846447 0.201083
vn -0.492365 0.846300 0.203353
vn -0.514706 0.851533 0.099846
vn -0.514679 0.851525 0.100057
vn -0.518985 0.854783 -0.000551
vn -0.518911 0.854825 -0.002153
vn -0.501206 0.858420 -0.109119
vn -0.501228 0.858418 -0.109039
vn -0.461554 0.861721 -0.210724
vn -0.462287 0.861664 -0.209346
vn -0.408145 0.864652 -0.292908
vn -0.407997 0.864658 -0.293096
vn -0.340749 0.865944 -0.366104
vn -0.339033 0.865945 -0.367690
vn -0.251071 0.868087 -0.428239
vn -0.254638 0.867951 -0.426405
vn -0.156855 0.870276 -0.466922
vn -0.157895 0.870261 -0.466600
vn -0.063576 0.871344 -0.486537
vn -0.062912 0.871349 -0.486613
vn 0.035228 0.871324 -0.489442
vn 0.038342 0.871286 -0.489275
vn 0.139920 0.871823 -0.469412
vn 0.136999 0.871756 -0.470396
vn 0.229781 0.872797 -0.430612
vn 0.229217 0.872795 -0.430915
vn 0.307732 0.872748 -0.378963
vn 0.308583 0.872745 -0.378277
vn 0.378963 0.871864 -0.310226
vn 0.381562 0.871784 -0.307250
vn 0.437186 0.871376 -0.222646
vn 0.436217 0.871341 -0.224679
vn 0.471156 0.871831 -0.133875
vn 0.471097 0.871832 -0.134074
vn 0.488963 0.871253 -0.042811
vn 0.489111 0.871242 -0.041331
vn 0.493162 0.869925 0.004590
vn 0.493162 0.869925 0.004590
usemtl material
f 1/0/1 2/0/2 3/0/3
f 1/0/1 3/0/3 4/0/4
f 2/0/2 5/0/5 3/0/3
f 2/0/2 6/0/6 5/0/5
f 6/0/6 7/0/7 5/0/5
f 6/0/6 8/0/8 7/0/7
f 8/0/8 9/0/9 7/0/7
f 8/0/8 10/0/10 9/0/9
f 10/0/10 11/0/11 9/0/9
f 10/0/10 12/0/12 11/0/11
f 12/0/12 13/0/13 11/0/11
f 12/0/12 14/0/14 13/0/13
f 14/0/14 15/0/15 13/0/13
f 14/0/14 16/0/16 15/0/15
f 16/0/16 17/0/17 15/0/15
f 16/0/16 18/0/18 17/0/17
f 18/0/18 19/0/19 17/0/17
f 18/0/18 20/0/20 19/0/19
f 20/0/20 21/0/21 19/0/19
f 20/0/20 22/0/22 21/0/21
f 22/0/22 23/0/23 21/0/21
f 22/0/22 24/0/24 23/0/23
f 24/0/24 25/0/25 23/0/23
f 24/0/24 26/0/26 25/0/25
f 26/0/26 27/0/27 25/0/25
f 26/0/26 28/0/28 27/0/27
f 28/0/28 29/0/29 27/0/27
f 28/0/28 30/0/30 29/0/29
f 30/0/30 31/0/31 29/0/29
f 30/0/30 32/0/32 31/0/31
f 32/0/32 33/0/33 31/0/31
f 32/0/32 34/0/34 33/0/33
f 34/0/34 35/0/35 33/0/33
f 34/0/34 36/0/36 35/0/35
f 36/0/36 37/0/37 35/0/35
f 36/0/36 38/0/38 37/0/37
f 38/0/38 39/0/39 37/0/37
f 38/0/38 40/0/40 39/0/39
f 40/0/40 41/0/41 39/0/39
f 40/0/40 42/0/42 41/0/41
f 42/0/42 43/0/43 41/0/41
f 42/0/42 44/0/44 43/0/43
f 44/0/44 45/0/45 43/0/43
f 44/0/44 46/0/46 45/0/45
f 46/0/46 47/0/47 45/0/45
f 46/0/46 48/0/48 47/0/47
f 48/0/48 49/0/49 47/0/47
f 48/0/48 50/0/50 49/0/49
f 50/0/50 51/0/51 49/0/49
f 50/0/50 52/0/52 51/0/51
f 52/0/52 53/0/53 51/0/51
f 52/0/52 54/0/54 53/0/53
f 54/0/54 55/0/55 53/0/53
f 54/0/54 56/0/56 55/0/55
f 56/0/56 57/0/57 55/0/55
f 56/0/56 58/0/58 57/0/57
f 58/0/58 59/0/59 57/0/57
f 58/0/58 60/0/60 59/0/59
f 60/0/60 61/0/61 59/0/59
f 60/0/60 62/0/62 61/0/61
f 62/0/62 63/0/63 61/0/61
f 62/0/62 64/0/64 63/0/63
f 64/0/64 65/0/65 63/0/63
f 64/0/64 66/0/66 65/0/65
f 66/0/66 67/0/67 65/0/65
f 66/0/66 68/0/68 67/0/67
f 68/0/68 69/0/69 67/0/67
f 68/0/68 70/0/70 69/0/69
f 70/0/70 71/0/71 69/0/69
f 70/0/70 72/0/72 71/0/71
f 72/0/72 73/0/73 71/0/71
f 72/0/72 74/0/74 73/0/73
f 74/0/74 75/0/75 73/0/73
f 74/0/74 76/0/76 75/0/75
f 76/0/76 77/0/77 75/0/75
f 76/0/76 78/0/78 77/0/77
f 78/0/78 79/0/79 77/0/77
f 78/0/78 80/0/80 79/0/79
f 80/0/80 81/0/81 79/0/79
f 80/0/80 82/0/82 81/0/81
f 82/0/82 83/0/83 81/0/81
f 82/0/82 84/0/84 83/0/83
f 84/0/84 85/0/85 83/0/83
f 84/0/84 86/0/86 85/0/85
f 86/0/86 87/0/87 85/0/85
f 86/0/86 88/0/88 87/0/87
f 88/0/88 89/0/89 87/0/87
f 88/0/88 90/0/90 89/0/89
f 90/0/90 91/0/91 89/0/89
f 90/0/90 92/0/92 91/0/91
f 92/0/92 93/0/93 91/0/91
f 92/0/92 94/0/94 93/0/93
f 94/0/94 95/0/95 93/0/93
f 94/0/94 96/0/96 95/0/95
f 96/0/96 97/0/97 95/0/95
f 96/0/96 98/0/98 97/0/97
f 98/0/98 99/0/99 97/0/97
f 98/0/98 100/0/100 99/0/99
f 100/0/100 101/0/101 99/0/99
f 100/0/100 102/0/102 101/0/101
f 102/0/102 103/0/103 101/0/101
f 102/0/102 104/0/104 103/0/103
f 104/0/104 105/0/105 103/0/103
f 104/0/104 106/0/106 105/0/105
f 106/0/106 107/0/107 105/0/105
f 106/0/106 108/0/108 107/0/107
f 108/0/108 109/0/109 107/0/107
f 108/0/108 110/0/110 109/0/109
f 110/0/110 111/0/111 109/0/109
f 110/0/110 112/0/112 111/0/111
f 112/0/112 113/0/113 111/0/111
f 112/0/112 114/0/114 113/0/113
f 114/0/114 115/0/115 113/0/113
f 114/0/114 116/0/116 115/0/115
f 116/0/116 117/0/117 115/0/115
f 116/0/116 118/0/118 117/0/117
f 118/0/118 119/0/119 117/0/117
f 118/0/118 120/0/120 119/0/119
f 120/0/120 121/0/121 119/0/119
f 120/0/120 122/0/122 121/0/121
f 122/0/122 123/0/123 121/0/121
f 122/0/122 124/0/124 123/0/123
f 124/0/124 125/0/125 123/0/123
f 124/0/124 126/0/126 125/0/125
f 126/0/126 127/0/127 125/0/125
f 126/0/126 128/0/128 127/0/127
f 128/0/128 129/0/129 127/0/127
f 128/0/128 130/0/130 129/0/129
f 130/0/130 131/0/131 129/0/129
f 130/0/130 132/0/132 131/0/131
f 132/0/132 133/0/133 131/0/131
f 132/0/132 134/0/134 133/0/133
f 134/0/134 135/0/135 133/0/133
f 134/0/134 136/0/136 135/0/135
f 136/0/136 137/0/137 135/0/135
f 136/0/136 138/0/138 137/0/137
f 138/0/138 139/0/139 137/0/137
f 138/0/138 140/0/140 139/0/139
f 140/0/140 141/0/141 139/0/139
f 140/0/140 142/0/142 141/0/141
f 142/0/142 143/0/143 141/0/141
f 142/0/142 144/0/144 143/0/143
