# 
# Wavefront OBJ file
# Created with Kaydara FBX
# 
mtllib sky1.mtl

g Sky1
v -124.684158 -32.907059 -240.629196
v -55.139549 -32.907059 -265.345398
v -55.139549 32.907059 -265.345398
v -124.684158 32.907059 -240.629196
v 18.494524 32.907059 -270.382172
v 18.494524 -32.907059 -270.382172
v 90.756943 32.907059 -255.365891
v 90.756943 -32.907059 -255.365891
v 156.288345 32.907059 -221.410309
v 156.288345 -32.907059 -221.410309
v -51.935040 96.808731 -249.924500
v -117.437958 96.808731 -226.644714
v 17.419693 96.808731 -254.668549
v 85.482491 96.808731 -240.524979
v 147.205429 96.808731 -208.542770
v -45.712250 155.084229 -219.978897
v -103.366707 155.084229 -199.488434
v 15.332487 155.084229 -224.154480
v 75.240082 155.084229 -211.705582
v 129.567474 155.084229 -183.555420
v -36.832836 204.346817 -177.248901
v -83.288162 204.346817 -160.738663
v 12.354216 204.346817 -180.613434
v 60.625019 204.346817 -170.582672
v 104.399551 204.346817 -147.900589
vt 1.000077 0.000998
vt 0.749898 0.000998
vt 0.749898 0.250499
vt 1.000077 0.250499
vt 0.499720 0.250499
vt 0.499720 0.000998
vt 0.249541 0.250499
vt 0.249541 0.000998
vt -0.000638 0.250499
vt -0.000638 0.000998
vt 0.749898 0.500000
vt 1.000077 0.500000
vt 0.499720 0.500000
vt 0.249541 0.500000
vt -0.000638 0.500000
vt 0.749898 0.749501
vt 1.000077 0.749501
vt 0.499720 0.749501
vt 0.249541 0.749501
vt -0.000638 0.749501
vt 0.749898 0.999002
vt 1.000077 0.999002
vt 0.499720 0.999002
vt 0.249541 0.999002
vt -0.000638 0.999002
vn 0.334880 0.000000 0.942261
vn 0.203457 0.000000 0.979084
vn 0.202047 -0.117496 0.972302
vn 0.332603 -0.116416 0.935854
vn -0.067769 -0.117496 0.990758
vn -0.068242 0.000000 0.997669
vn -0.332559 -0.117496 0.935734
vn -0.334879 0.000000 0.942261
vn -0.456936 -0.116416 0.881848
vn -0.460065 0.000000 0.887885
vn 0.190899 -0.345874 0.918656
vn 0.314561 -0.343033 0.885087
vn -0.064030 -0.345874 0.936094
vn -0.314211 -0.345874 0.884106
vn -0.432149 -0.343033 0.834012
vn 0.169281 -0.554740 0.814621
vn 0.279427 -0.551147 0.786230
vn -0.056779 -0.554740 0.830084
vn -0.278627 -0.554740 0.783984
vn -0.383881 -0.551147 0.740859
vn 0.152289 -0.663122 0.732855
vn 0.251689 -0.659641 0.708185
vn -0.051080 -0.663122 0.746766
vn -0.250661 -0.663122 0.705293
vn -0.345776 -0.659640 0.667318
usemtl material
f 1/0/1 2/0/2 3/0/3
f 1/0/1 3/0/3 4/0/4
f 2/0/2 5/0/5 3/0/3
f 2/0/2 6/0/6 5/0/5
f 6/0/6 7/0/7 5/0/5
f 6/0/6 8/0/8 7/0/7
f 8/0/8 9/0/9 7/0/7
f 8/0/8 10/0/10 9/0/9
f 4/0/4 3/0/3 11/0/11
f 4/0/4 11/0/11 12/0/12
f 3/0/3 5/0/5 13/0/13
f 3/0/3 13/0/13 11/0/11
f 5/0/5 7/0/7 14/0/14
f 5/0/5 14/0/14 13/0/13
f 7/0/7 9/0/9 15/0/15
f 7/0/7 15/0/15 14/0/14
f 12/0/12 11/0/11 16/0/16
f 12/0/12 16/0/16 17/0/17
f 11/0/11 13/0/13 18/0/18
f 11/0/11 18/0/18 16/0/16
f 13/0/13 14/0/14 19/0/19
f 13/0/13 19/0/19 18/0/18
f 14/0/14 15/0/15 20/0/20
f 14/0/14 20/0/20 19/0/19
f 17/0/17 16/0/16 21/0/21
f 17/0/17 21/0/21 22/0/22
f 16/0/16 18/0/18 23/0/23
f 16/0/16 23/0/23 21/0/21
f 18/0/18 19/0/19 24/0/24
f 18/0/18 24/0/24 23/0/23
f 19/0/19 20/0/20 25/0/25
f 19/0/19 25/0/25 24/0/24
