# 
# Wavefront OBJ file
# Created with Kaydara FBX
# 
mtllib snowfield_star01.mtl

g snowfield_star01
v 23755.644531 14609.929688 6997.182617
v 25584.308594 10632.203125 1176.452148
v 25978.417969 5811.008789 4642.356445
v 24149.757813 9788.738281 10463.092773
v 23231.832031 15380.578125 9497.811523
v 23950.859375 17175.787109 5146.305664
v 25358.585938 13231.877930 3792.453125
v 24639.570313 11436.658203 8143.966797
v 20180.589844 13115.088867 16063.600586
v 22422.964844 13156.043945 12199.036133
v 22927.296875 8663.998047 12469.848633
v 20684.925781 8623.036133 16334.426758
v 15024.209961 21812.136719 15825.604492
v 19573.660156 21047.488281 10241.875977
v 21054.414063 14240.263672 12052.633789
v 16504.945313 15004.899414 17636.359375
v 18166.972656 23215.591797 8909.991211
v 20261.761719 22630.507813 3628.554688
v 22331.324219 18450.615234 4996.641602
v 20236.531250 19035.685547 10278.083008
v 21761.390625 20344.701172 4833.094727
v 22492.605469 20360.740234 -1973.245117
v 26053.703125 13723.871094 -1781.254395
v 25322.492188 13707.812500 5025.088867
v 25794.855469 12798.630859 4395.323242
v 25713.878906 14835.835938 1362.719727
v 26352.425781 11994.953125 -341.004883
v 26433.406250 9957.734375 2691.594727
v 17658.363281 24222.556641 -2649.888184
v 14951.202148 24129.042969 -8680.597656
v 19034.875000 21308.193359 -10493.843750
v 21742.046875 21401.703125 -4463.135742
v 24527.335938 16674.037109 -3650.971680
v 24185.386719 14350.535156 -8740.053711
v 25040.203125 9670.592773 -6950.355957
v 25382.152344 11994.089844 -1861.274414
v 22607.464844 15532.679688 -10094.492188
v 19975.820313 15574.071289 -15127.476563
v 20586.972656 9966.173828 -15468.996094
v 23218.609375 9924.787109 -10436.013672
v 18599.183594 20039.271484 -13260.130859
v 14542.161133 20403.582031 -16829.421875
v 15933.622070 16503.097656 -18811.144531
v 19990.640625 16138.789063 -15241.851563
v 3260.359375 17492.765625 -23687.382813
v 3021.707520 10485.428711 -25020.296875
v 8543.710938 9949.041016 -23764.996094
v 8782.361328 16956.386719 -22432.066406
v 12913.370117 16123.044922 -21262.539063
v 10208.392578 12516.895508 -23867.937500
v 13298.801758 8534.244141 -22981.056641
v 15906.901367 12140.391602 -20224.363281
v 10078.245117 24624.896484 -13256.998047
v 6175.350586 22182.429688 -19161.480469
v 10401.036133 18346.927734 -20697.367188
v 14303.922852 20789.398438 -14792.888672
v 9282.998047 21722.005859 -19898.019531
v 453.956543 21130.402344 -22200.484375
v 1723.472656 14829.947266 -25498.562500
v 10552.518555 15421.545898 -23196.091797
v 1993.637695 13806.292969 -24886.566406
v -4491.499023 13724.730469 -24780.933594
v -4453.942383 8491.753906 -25396.785156
v 2031.193359 8573.318359 -25502.417969
v -16273.281250 13750.593750 -19444.755859
v -20518.074219 13765.864258 -14863.990234
v -20932.603516 8721.638672 -15235.957031
v -16687.808594 8706.368164 -19816.722656
v -4416.411133 18523.859375 -22762.429688
v -11472.757813 18229.589844 -20505.814453
v -11992.075195 12481.427734 -22644.050781
v -4935.732910 12775.705078 -24900.671875
v -11702.979492 19009.058594 -20099.308594
v -15190.635742 19046.392578 -17237.632813
v -16066.584961 14247.380859 -18386.070313
v -12578.933594 14210.068359 -21247.746094
v -13915.754883 21619.871094 -15739.921875
v -19056.382813 21225.601563 -9649.775391
v -21469.882813 16033.011719 -11930.041016
v -16329.258789 16427.259766 -18020.195313
v -22897.328125 14976.778320 -10088.284180
v -23989.093750 10166.190430 -10371.378906
v -21918.035156 9977.004883 -13698.539063
v -20826.273438 14787.594727 -13415.447266
v -23121.761719 17968.470703 -703.127930
v -22986.875000 17769.380859 4180.502930
v -23958.574219 13956.666016 4094.941406
v -24093.460938 14155.771484 -788.690430
v -21452.386719 20926.082031 -6104.134766
v -21840.785156 20878.072266 798.908691
v -24793.542969 14019.510742 657.512695
v -24405.132813 14067.535156 -6245.532715
v -23965.109375 13216.516602 -7951.178711
v -25213.652344 13218.353516 -1684.484375
v -25463.148438 8022.501953 -1733.093750
v -24214.609375 8020.666992 -7999.790527
v -24111.472656 16652.496094 2590.395508
v -22020.175781 16890.234375 10740.448242
v -22778.230469 10104.937500 11078.098633
v -24869.535156 9867.203125 2928.038086
v -21556.031250 20112.533203 6182.791016
v -18950.582031 20160.337891 11712.569336
v -20608.199219 15678.800781 12521.594727
v -23213.648438 15630.992188 6991.820313
v -15065.133789 11569.928711 21046.988281
v -8115.567383 11801.210938 24113.199219
v -8176.149414 5637.877930 24586.667969
v -15125.717773 5406.598145 21520.441406
v -18165.410156 15008.314453 17843.476563
v -13759.264648 14990.755859 21509.703125
v -14037.180664 9250.286133 21823.812500
v -18443.324219 9267.845703 18157.605469
v -17351.966797 22133.490234 12445.637695
v -14001.709961 21744.240234 16328.594727
v -16080.011719 17656.744141 17775.945313
v -19430.269531 18045.988281 13892.987305
v -23047.429688 13256.443359 11277.784180
v -20890.853516 13113.945313 15105.905273
v -21266.148438 9203.446289 15230.625977
v -23422.722656 9345.938477 11402.506836
v -16026.982422 18520.136719 18012.203125
v -10038.831055 18231.619141 22088.429688
v -11247.513672 12033.460938 23619.820313
v -17235.664063 12321.976563 19543.585938
v -10233.197266 23738.843750 16564.277344
v -5167.169922 23415.396484 19335.804688
v -6765.324219 18230.431641 21911.929688
v -11831.350586 18553.876953 19140.406250
v -964.654785 16289.279297 25249.683594
v -1451.224609 9488.361328 26522.941406
v -6469.405762 9746.120117 26007.621094
v -5982.837402 16547.041016 24734.355469
v 7144.507813 14011.225586 24333.097656
v 12997.040039 14100.117188 22396.589844
v 13256.047852 9141.036133 23014.730469
v 7403.519531 9052.140625 24951.250000
v 2557.655273 19110.214844 23330.433594
v 6356.854492 19184.783203 22164.328125
v 6823.233398 15599.908203 23588.710938
v 3024.037598 15525.347656 24754.832031
v -729.043945 11312.089844 25702.304688
v 3725.359375 11312.089844 25771.875000
v 3725.359375 7683.620117 25771.863281
v -729.043945 7683.620117 25702.304688
v -4592.403809 19054.826172 23282.449219
v 3038.446289 19226.701172 23168.570313
v 3160.102051 13363.344727 24921.972656
v -4470.747070 13191.481445 25035.863281
v -2370.612793 23957.191406 16365.602539
v 6783.453125 23536.919922 14765.649414
v 7750.226563 19717.490234 21296.347656
v -1403.834229 20137.761719 22896.289063
v 12570.166992 18302.232422 20100.445313
v 15646.295898 13301.460938 20120.335938
v 12432.426758 10562.890625 23506.042969
v 9356.299805 15563.673828 23486.160156
v 12870.487305 22861.314453 16078.852539
v 14434.418945 17992.968750 18861.425781
v 9973.455078 18076.435547 21368.589844
v 8409.523438 22944.789063 18586.015625
v 15547.659180 16965.830078 20600.214844
v 20141.957031 16819.408203 16604.292969
v 20637.570313 10951.328125 17280.812500
v 16043.262695 11097.757813 21276.746094
v 9214.455078 13359.471680 24270.804688
v 5002.127930 10344.598633 26067.824219
v 2194.926758 15505.646484 25794.953125
v 6407.257813 18520.527344 23997.914063
v 23061.847656 16933.144531 -7682.459961
v 19375.285156 20782.666016 -9916.150391
v 19298.964844 18090.376953 -13324.536133
v 22985.523438 14240.852539 -11090.843750
vt 0.027303 0.498124
vt 0.027373 0.995629
vt 0.432335 0.995473
vt 0.432335 0.498301
vt 0.027303 0.498124
vt 0.027373 0.995629
vt 0.432335 0.995473
vt 0.432335 0.498301
vt 0.027303 0.498124
vt 0.027373 0.995629
vt 0.432335 0.995473
vt 0.432335 0.498301
vt 0.027303 0.498124
vt 0.027373 0.995629
vt 0.432335 0.995473
vt 0.432335 0.498301
vt 0.027303 0.498124
vt 0.027373 0.995629
vt 0.432335 0.995473
vt 0.432335 0.498301
vt 0.027303 0.498124
vt 0.027373 0.995629
vt 0.432335 0.995473
vt 0.432335 0.498301
vt 0.027303 0.498124
vt 0.027373 0.995629
vt 0.432335 0.995473
vt 0.432335 0.498301
vt 0.027303 0.498124
vt 0.027373 0.995629
vt 0.432335 0.995473
vt 0.432335 0.498301
vt 0.027303 0.498124
vt 0.027373 0.995629
vt 0.432335 0.995473
vt 0.432335 0.498301
vt 0.027303 0.498124
vt 0.027373 0.995629
vt 0.432335 0.995473
vt 0.432335 0.498301
vt 0.027303 0.498124
vt 0.027373 0.995629
vt 0.432335 0.995473
vt 0.432335 0.498301
vt 0.027303 0.498124
vt 0.027373 0.995629
vt 0.432335 0.995473
vt 0.432335 0.498301
vt 0.027303 0.498124
vt 0.027373 0.995629
vt 0.432335 0.995473
vt 0.432335 0.498301
vt 0.027303 0.498124
vt 0.027373 0.995629
vt 0.432335 0.995473
vt 0.432335 0.498301
vt 0.027303 0.498124
vt 0.027373 0.995629
vt 0.432335 0.995473
vt 0.432335 0.498301
vt 0.027303 0.498124
vt 0.027373 0.995629
vt 0.432335 0.995473
vt 0.432335 0.498301
vt 0.027303 0.498124
vt 0.027373 0.995629
vt 0.432335 0.995473
vt 0.432335 0.498301
vt 0.027303 0.498124
vt 0.027373 0.995629
vt 0.432335 0.995473
vt 0.432335 0.498301
vt 0.027303 0.498124
vt 0.027373 0.995629
vt 0.432335 0.995473
vt 0.432335 0.498301
vt 0.027303 0.498124
vt 0.027373 0.995629
vt 0.432335 0.995473
vt 0.432335 0.498301
vt 0.027303 0.498124
vt 0.027373 0.995629
vt 0.432335 0.995473
vt 0.432335 0.498301
vt 0.027303 0.498124
vt 0.027373 0.995629
vt 0.432335 0.995473
vt 0.432335 0.498301
vt 0.027303 0.498124
vt 0.027373 0.995629
vt 0.432335 0.995473
vt 0.432335 0.498301
vt 0.027303 0.498124
vt 0.027373 0.995629
vt 0.432335 0.995473
vt 0.432335 0.498301
vt 0.027303 0.498124
vt 0.027373 0.995629
vt 0.432335 0.995473
vt 0.432335 0.498301
vt 0.027303 0.498124
vt 0.027373 0.995629
vt 0.432335 0.995473
vt 0.432335 0.498301
vt 0.027303 0.498124
vt 0.027373 0.995629
vt 0.432335 0.995473
vt 0.432335 0.498301
vt 0.027303 0.498124
vt 0.027373 0.995629
vt 0.432335 0.995473
vt 0.432335 0.498301
vt 0.027303 0.498124
vt 0.027373 0.995629
vt 0.432335 0.995473
vt 0.432335 0.498301
vt 0.027303 0.498124
vt 0.027373 0.995629
vt 0.432335 0.995473
vt 0.432335 0.498301
vt 0.027303 0.498124
vt 0.027373 0.995629
vt 0.432335 0.995473
vt 0.432335 0.498301
vt 0.027303 0.498124
vt 0.027373 0.995629
vt 0.432335 0.995473
vt 0.432335 0.498301
vt 0.027303 0.498124
vt 0.027373 0.995629
vt 0.432335 0.995473
vt 0.432335 0.498301
vt 0.027303 0.498124
vt 0.027373 0.995629
vt 0.432335 0.995473
vt 0.432335 0.498301
vt 0.027303 0.498124
vt 0.027373 0.995629
vt 0.432335 0.995473
vt 0.432335 0.498301
vt 0.027303 0.498124
vt 0.027373 0.995629
vt 0.432335 0.995473
vt 0.432335 0.498301
vt 0.027303 0.498124
vt 0.027373 0.995629
vt 0.432335 0.995473
vt 0.432335 0.498301
vt 0.027303 0.498124
vt 0.027373 0.995629
vt 0.432335 0.995473
vt 0.432335 0.498301
vt 0.027303 0.498124
vt 0.027373 0.995629
vt 0.432335 0.995473
vt 0.432335 0.498301
vt 0.027303 0.498124
vt 0.027373 0.995629
vt 0.432335 0.995473
vt 0.432335 0.498301
vt 0.027303 0.498124
vt 0.027373 0.995629
vt 0.432335 0.995473
vt 0.432335 0.498301
vt 0.027303 0.498124
vt 0.027373 0.995629
vt 0.432335 0.995473
vt 0.432335 0.498301
vt 0.027303 0.498124
vt 0.027373 0.995629
vt 0.432335 0.995473
vt 0.432335 0.498301
vn -0.965588 -0.199166 -0.167248
vn -0.965588 -0.199166 -0.167248
vn -0.965588 -0.199166 -0.167248
vn -0.965588 -0.199166 -0.167248
vn -0.934914 -0.245859 -0.255909
vn -0.934914 -0.245859 -0.255909
vn -0.934914 -0.245859 -0.255909
vn -0.934914 -0.245859 -0.255909
vn -0.857429 -0.126341 -0.498852
vn -0.857429 -0.126341 -0.498852
vn -0.857429 -0.126341 -0.498852
vn -0.857429 -0.126341 -0.498852
vn -0.756101 -0.316803 -0.572666
vn -0.756101 -0.316803 -0.572666
vn -0.756101 -0.316803 -0.572666
vn -0.756101 -0.316803 -0.572666
vn -0.824090 -0.496988 -0.271805
vn -0.824090 -0.496988 -0.271805
vn -0.824090 -0.496988 -0.271805
vn -0.824090 -0.496988 -0.271805
vn -0.876014 -0.472791 -0.095226
vn -0.876014 -0.472791 -0.095226
vn -0.876014 -0.472791 -0.095226
vn -0.876014 -0.472791 -0.095226
vn -0.981852 -0.168522 -0.086990
vn -0.981852 -0.168522 -0.086990
vn -0.981852 -0.168522 -0.086990
vn -0.981852 -0.168522 -0.086990
vn -0.482122 -0.845501 0.229533
vn -0.482122 -0.845501 0.229533
vn -0.482122 -0.845501 0.229533
vn -0.482122 -0.845501 0.229533
vn -0.983283 -0.131394 0.126059
vn -0.983283 -0.131394 0.126059
vn -0.983283 -0.131394 0.126059
vn -0.983283 -0.131394 0.126059
vn -0.879768 -0.123830 0.458994
vn -0.879768 -0.123830 0.458994
vn -0.879768 -0.123830 0.458994
vn -0.879768 -0.123830 0.458994
vn -0.588953 -0.523095 0.616040
vn -0.588953 -0.523095 0.616040
vn -0.588953 -0.523095 0.616040
vn -0.588953 -0.523095 0.616040
vn -0.234330 -0.173956 0.956467
vn -0.234330 -0.173956 0.956467
vn -0.234330 -0.173956 0.956467
vn -0.234330 -0.173956 0.956467
vn -0.536333 -0.212228 0.816888
vn -0.536333 -0.212228 0.816888
vn -0.536333 -0.212228 0.816888
vn -0.536333 -0.212228 0.816888
vn -0.427430 -0.700004 0.572100
vn -0.427430 -0.700004 0.572100
vn -0.427430 -0.700004 0.572100
vn -0.427430 -0.700004 0.572100
vn -0.190086 -0.485104 0.853546
vn -0.190086 -0.485104 0.853546
vn -0.190086 -0.485104 0.853546
vn -0.190086 -0.485104 0.853546
vn 0.017643 -0.116737 0.993006
vn 0.017643 -0.116737 0.993006
vn 0.017643 -0.116737 0.993006
vn 0.017643 -0.116737 0.993006
vn 0.728882 -0.109732 0.675789
vn 0.728882 -0.109732 0.675789
vn 0.728882 -0.109732 0.675789
vn 0.728882 -0.109732 0.675789
vn 0.298057 -0.356338 0.885542
vn 0.298057 -0.356338 0.885542
vn 0.298057 -0.356338 0.885542
vn 0.298057 -0.356338 0.885542
vn 0.605587 -0.288058 0.741813
vn 0.605587 -0.288058 0.741813
vn 0.605587 -0.288058 0.741813
vn 0.605587 -0.288058 0.741813
vn 0.661336 -0.537252 0.523446
vn 0.661336 -0.537252 0.523446
vn 0.661336 -0.537252 0.523446
vn 0.661336 -0.537252 0.523446
vn 0.823008 -0.217658 0.524674
vn 0.823008 -0.217658 0.524674
vn 0.823008 -0.217658 0.524674
vn 0.823008 -0.217658 0.524674
vn 0.968566 -0.246021 -0.036782
vn 0.968566 -0.246021 -0.036782
vn 0.968566 -0.246021 -0.036782
vn 0.968566 -0.246021 -0.036782
vn 0.917033 -0.395809 0.048844
vn 0.917033 -0.395809 0.048844
vn 0.917033 -0.395809 0.048844
vn 0.917033 -0.395809 0.048844
vn 0.979551 -0.048863 0.195174
vn 0.979551 -0.048863 0.195174
vn 0.979551 -0.048863 0.195174
vn 0.979551 -0.048863 0.195174
vn 0.962496 -0.119647 -0.243486
vn 0.962496 -0.119647 -0.243486
vn 0.962496 -0.119647 -0.243486
vn 0.962496 -0.119647 -0.243486
vn 0.837815 -0.380557 -0.391461
vn 0.837815 -0.380557 -0.391461
vn 0.837815 -0.380557 -0.391461
vn 0.837815 -0.380557 -0.391461
vn 0.404620 -0.073997 -0.911486
vn 0.404620 -0.073997 -0.911486
vn 0.404620 -0.073997 -0.911486
vn 0.404620 -0.073997 -0.911486
vn 0.637741 -0.072834 -0.766800
vn 0.637741 -0.072835 -0.766800
vn 0.637741 -0.072834 -0.766800
vn 0.637740 -0.072834 -0.766800
vn 0.619009 -0.522396 -0.586455
vn 0.619009 -0.522396 -0.586455
vn 0.619009 -0.522396 -0.586455
vn 0.619009 -0.522396 -0.586455
vn 0.865426 -0.098722 -0.491214
vn 0.865426 -0.098722 -0.491214
vn 0.865426 -0.098722 -0.491214
vn 0.865426 -0.098722 -0.491214
vn 0.527024 -0.299295 -0.795404
vn 0.527024 -0.299295 -0.795404
vn 0.527024 -0.299295 -0.795404
vn 0.527024 -0.299295 -0.795404
vn 0.389776 -0.503309 -0.771203
vn 0.389776 -0.503309 -0.771203
vn 0.389776 -0.503309 -0.771203
vn 0.389776 -0.503309 -0.771203
vn 0.090664 -0.189527 -0.977681
vn 0.090664 -0.189527 -0.977681
vn 0.090664 -0.189527 -0.977681
vn 0.090664 -0.189527 -0.977681
vn -0.309494 -0.133520 -0.941481
vn -0.309494 -0.133520 -0.941481
vn -0.309494 -0.133520 -0.941481
vn -0.309494 -0.133520 -0.941481
vn -0.263807 -0.385619 -0.884140
vn -0.263807 -0.385619 -0.884140
vn -0.263807 -0.385619 -0.884140
vn -0.263807 -0.385619 -0.884140
vn 0.015615 0.000000 -0.999878
vn 0.015615 0.000000 -0.999878
vn 0.015615 0.000000 -0.999878
vn 0.015615 0.000000 -0.999878
vn -0.007841 -0.286649 -0.958004
vn -0.007841 -0.286649 -0.958004
vn -0.007841 -0.286649 -0.958004
vn -0.007841 -0.286649 -0.958004
vn -0.124814 -0.864402 -0.487063
vn -0.124814 -0.864402 -0.487063
vn -0.124814 -0.864402 -0.487063
vn -0.124814 -0.864402 -0.487063
vn -0.535113 -0.332253 -0.776699
vn -0.535113 -0.332253 -0.776699
vn -0.535113 -0.332253 -0.776699
vn -0.535113 -0.332253 -0.776699
vn -0.417510 -0.548287 -0.724615
vn -0.417510 -0.548287 -0.724615
vn -0.417510 -0.548287 -0.724615
vn -0.417510 -0.548287 -0.724615
vn -0.652263 -0.140953 -0.744772
vn -0.652263 -0.140953 -0.744772
vn -0.652263 -0.140953 -0.744772
vn -0.652263 -0.140953 -0.744772
vn -0.264373 -0.193750 -0.944758
vn -0.264373 -0.193750 -0.944758
vn -0.264373 -0.193750 -0.944758
vn -0.264373 -0.193750 -0.944758
vn -0.765876 -0.496113 0.409030
vn -0.765876 -0.496113 0.409030
vn -0.765876 -0.496113 0.409030
vn -0.765876 -0.496113 0.409030
usemtl material
f 1/0/1 2/0/2 3/0/3
f 1/0/1 3/0/3 4/0/4
f 5/0/5 6/0/6 7/0/7
f 5/0/5 7/0/7 8/0/8
f 9/0/9 10/0/10 11/0/11
f 9/0/9 11/0/11 12/0/12
f 13/0/13 14/0/14 15/0/15
f 13/0/13 15/0/15 16/0/16
f 17/0/17 18/0/18 19/0/19
f 17/0/17 19/0/19 20/0/20
f 21/0/21 22/0/22 23/0/23
f 21/0/21 23/0/23 24/0/24
f 25/0/25 26/0/26 27/0/27
f 25/0/25 27/0/27 28/0/28
f 29/0/29 30/0/30 31/0/31
f 29/0/29 31/0/31 32/0/32
f 33/0/33 34/0/34 35/0/35
f 33/0/33 35/0/35 36/0/36
f 37/0/37 38/0/38 39/0/39
f 37/0/37 39/0/39 40/0/40
f 41/0/41 42/0/42 43/0/43
f 41/0/41 43/0/43 44/0/44
f 45/0/45 46/0/46 47/0/47
f 45/0/45 47/0/47 48/0/48
f 49/0/49 50/0/50 51/0/51
f 49/0/49 51/0/51 52/0/52
f 53/0/53 54/0/54 55/0/55
f 53/0/53 55/0/55 56/0/56
f 57/0/57 58/0/58 59/0/59
f 57/0/57 59/0/59 60/0/60
f 61/0/61 62/0/62 63/0/63
f 61/0/61 63/0/63 64/0/64
f 65/0/65 66/0/66 67/0/67
f 65/0/65 67/0/67 68/0/68
f 69/0/69 70/0/70 71/0/71
f 69/0/69 71/0/71 72/0/72
f 73/0/73 74/0/74 75/0/75
f 73/0/73 75/0/75 76/0/76
f 77/0/77 78/0/78 79/0/79
f 77/0/77 79/0/79 80/0/80
f 81/0/81 82/0/82 83/0/83
f 81/0/81 83/0/83 84/0/84
f 85/0/85 86/0/86 87/0/87
f 85/0/85 87/0/87 88/0/88
f 89/0/89 90/0/90 91/0/91
f 89/0/89 91/0/91 92/0/92
f 93/0/93 94/0/94 95/0/95
f 93/0/93 95/0/95 96/0/96
f 97/0/97 98/0/98 99/0/99
f 97/0/97 99/0/99 100/0/100
f 101/0/101 102/0/102 103/0/103
f 101/0/101 103/0/103 104/0/104
f 105/0/105 106/0/106 107/0/107
f 105/0/105 107/0/107 108/0/108
f 109/0/109 110/0/110 111/0/111
f 109/0/109 111/0/111 112/0/112
f 113/0/113 114/0/114 115/0/115
f 113/0/113 115/0/115 116/0/116
f 117/0/117 118/0/118 119/0/119
f 117/0/117 119/0/119 120/0/120
f 121/0/121 122/0/122 123/0/123
f 121/0/121 123/0/123 124/0/124
f 125/0/125 126/0/126 127/0/127
f 125/0/125 127/0/127 128/0/128
f 129/0/129 130/0/130 131/0/131
f 129/0/129 131/0/131 132/0/132
f 133/0/133 134/0/134 135/0/135
f 133/0/133 135/0/135 136/0/136
f 137/0/137 138/0/138 139/0/139
f 137/0/137 139/0/139 140/0/140
f 141/0/141 142/0/142 143/0/143
f 141/0/141 143/0/143 144/0/144
f 145/0/145 146/0/146 147/0/147
f 145/0/145 147/0/147 148/0/148
f 149/0/149 150/0/150 151/0/151
f 149/0/149 151/0/151 152/0/152
f 153/0/153 154/0/154 155/0/155
f 153/0/153 155/0/155 156/0/156
f 157/0/157 158/0/158 159/0/159
f 157/0/157 159/0/159 160/0/160
f 161/0/161 162/0/162 163/0/163
f 161/0/161 163/0/163 164/0/164
f 165/0/165 166/0/166 167/0/167
f 165/0/165 167/0/167 168/0/168
f 169/0/169 170/0/170 171/0/171
f 169/0/169 171/0/171 172/0/172
