# 
# Wavefront OBJ file
# Created with Kaydara FBX
# 
mtllib snowfield_stone_09 #2277102.mtl

g snowfield_Stone_09
v 0.002862 0.001529 -0.000275
v 0.001463 0.002144 -0.002225
v 0.000952 0.000883 0.001814
v -0.001877 0.002144 -0.002000
v -0.001245 0.000883 0.002225
v -0.002862 0.001529 -0.000147
v -0.002065 -0.000872 -0.002201
v -0.003150 -0.000872 -0.000162
v 0.001609 -0.000872 -0.002448
v 0.003150 -0.000872 -0.000303
v 0.001048 -0.000872 0.001997
v -0.001370 -0.000872 0.002448
v -0.000118 -0.002144 -0.000101
v 0.003150 -0.000872 -0.000303
v 0.001048 -0.000872 0.001997
v -0.001370 -0.000872 0.002448
v -0.003150 -0.000872 -0.000162
vt 0.145582 0.904416
vt 0.114727 0.905185
vt 0.130729 0.953559
vt 0.081549 0.921312
vt 0.102565 0.967446
vt 0.074607 0.942453
vt 0.051466 0.907990
vt 0.046753 0.953534
vt 0.109212 0.873426
vt 0.162927 0.897782
vt 0.149914 0.967887
vt 0.099046 0.988680
vt 0.058140 0.857621
vt 0.107171 0.830507
vt 0.054958 0.815867
vt 0.014951 0.833437
vt 0.013770 0.888168
vn 0.886753 0.458304 -0.060220
vn 0.324133 0.857374 -0.399809
vn 0.355637 0.656366 0.665361
vn -0.277147 0.857363 -0.433726
vn -0.277985 0.520413 0.807400
vn -0.903951 0.427393 -0.014424
vn -0.598079 -0.402167 -0.693227
vn -0.894007 -0.401136 0.199604
vn 0.399284 -0.321691 -0.858538
vn 0.864722 -0.434754 0.251484
vn 0.384806 -0.351499 0.853448
vn -0.320556 -0.526940 0.787133
vn 0.000233 -0.999709 0.024142
vn 0.864722 -0.434754 0.251484
vn 0.384806 -0.351499 0.853448
vn -0.320556 -0.526940 0.787133
vn -0.894007 -0.401136 0.199604
usemtl material
f 1/0/1 2/0/2 3/0/3
f 2/0/2 4/0/4 3/0/3
f 4/0/4 5/0/5 3/0/3
f 6/0/6 5/0/5 4/0/4
f 6/0/6 4/0/4 7/0/7
f 8/0/8 6/0/6 7/0/7
f 5/0/5 6/0/6 8/0/8
f 7/0/7 4/0/4 9/0/9
f 4/0/4 2/0/2 9/0/9
f 9/0/9 2/0/2 1/0/1
f 10/0/10 9/0/9 1/0/1
f 10/0/10 1/0/1 3/0/3
f 11/0/11 10/0/10 3/0/3
f 11/0/11 3/0/3 5/0/5
f 12/0/12 11/0/11 5/0/5
f 12/0/12 5/0/5 8/0/8
f 9/0/9 13/0/13 7/0/7
f 14/0/14 13/0/13 9/0/9
f 15/0/15 13/0/13 14/0/14
f 16/0/16 13/0/13 15/0/15
f 17/0/17 13/0/13 16/0/16
f 7/0/7 13/0/13 17/0/17
