# 
# Wavefront OBJ file
# Created with Kaydara FBX
# 
mtllib snowfield_stone11_8 #2278818.mtl

g Snowfield_stone11_8
v -0.543794 0.304771 0.278328
v -0.370825 0.282223 0.155125
v -0.432778 0.085313 0.164344
v -0.608716 0.113526 0.251844
v -0.594419 0.130982 0.540359
v -0.430591 0.220934 0.748875
v -0.469575 0.074298 0.753562
v -0.119497 0.000123 0.948328
v -0.196607 0.274933 0.898797
v -0.323560 0.326710 0.716765
v -0.450278 0.332984 0.385125
v -0.271138 0.272530 0.273719
v -0.120669 0.273316 0.537000
v -0.302700 0.295152 0.462703
v -0.034263 0.220421 0.906297
v 0.060347 0.172828 0.820984
v 0.079722 0.191241 0.695984
v 0.053081 -0.063349 0.815203
v 0.062925 -0.071146 0.527547
v 0.057300 0.209796 0.284890
v -0.013872 -0.009882 0.205594
v -0.285200 0.098033 0.065437
v -0.081216 0.252457 0.207234
v -0.258638 0.208414 0.083875
v -0.127310 0.280963 0.336297
v -0.586450 0.305968 -0.659953
v -0.897075 0.444117 -0.819953
v -0.801450 0.197779 -0.706281
v -0.984028 0.401783 -0.978391
v -0.927153 0.522076 -0.974719
v -0.939028 0.438780 -1.173078
v -0.880747 0.189220 -1.397688
v -0.683716 0.445348 -1.224719
v -0.381997 0.381954 -1.192453
v -0.633013 0.452188 -0.779485
v -0.532075 0.139723 -0.639328
v -0.835044 0.359386 -1.419563
v -0.547935 0.121949 -1.419563
v -0.584653 0.311456 -1.407219
v -0.190982 0.275143 -1.238391
v -0.253716 0.217369 -1.309016
v -0.743403 0.419366 -1.347219
v -1.021528 0.249361 -1.012688
v -0.740435 0.499151 -0.958703
v -0.409497 0.418678 -0.823078
v -0.339810 0.399454 -1.006360
v -0.140357 0.256769 -1.024641
v -0.282778 0.361290 -0.761125
v -0.370513 0.272359 -0.662063
v -0.124419 0.221842 -0.760266
v -0.163716 0.167950 -0.719485
v -0.095357 0.029913 -0.996438
v -0.293169 0.066744 -1.328156
v -0.058091 0.166349 -0.995500
v -0.398638 0.089518 -0.649953
v -0.174185 0.039049 -0.755656
v -1.379732 0.273092 -0.435735
v -1.254966 0.480045 -0.389328
v -1.379028 0.392818 -0.637688
v -1.407544 0.279298 -0.579563
v -1.313403 0.267447 -0.718156
v -1.163794 0.363766 -0.784328
v -0.953481 0.429498 -0.642219
v -1.232544 0.264142 -0.307375
v -1.013247 0.248639 -0.350656
v -0.970513 0.437237 -0.478313
v -1.111763 0.239986 -0.764563
v -0.860278 0.398175 -0.624016
v -0.841450 0.178829 -0.574719
v -0.901372 0.173497 -0.693313
v 0.695659 0.006720 -0.634094
v 1.088628 -0.179174 -0.964172
v 0.806128 -0.119716 -0.952375
v 0.557534 -0.156488 -0.705110
v 1.080581 -0.053544 -0.590656
v 1.200659 -0.116801 -0.471516
v 1.195425 -0.309950 -0.831438
v 1.211675 -0.329696 -0.415344
v 0.727768 0.044366 -0.342531
v 0.568237 -0.164247 -0.386594
v 0.698393 -0.195351 -0.116750
v 0.839643 -0.000238 -0.177688
v 0.992690 -0.001063 -0.388235
v 0.994643 -0.268588 -0.067531
v 1.150112 -0.305141 -0.172610
v 1.120893 -0.127260 -0.248547
v 0.958315 -0.035224 -0.177766
v 1.078706 -0.025258 -0.380344
v 0.814565 -0.230004 -1.073860
v 1.036597 -0.283798 -1.078313
v 1.147143 -0.302304 -0.986047
v -0.850903 0.209825 0.528172
v -1.180200 0.266139 0.739578
v -1.004341 0.503985 0.743562
v -0.796060 0.362892 0.553172
v -0.604810 0.350543 0.652234
v -0.658325 0.161300 0.617156
v -1.140903 0.446485 0.796375
v -1.315435 0.274376 0.968406
v -1.258950 0.426490 1.000515
v -1.264653 0.240050 1.179344
v -1.233169 0.499874 1.216375
v -1.110122 0.505465 0.919656
v -0.896763 0.536827 0.860828
v -0.625357 0.468062 0.888797
v -0.801138 0.501441 1.251219
v -1.076685 0.549601 1.087156
v -0.777388 0.428077 0.661140
v -1.215122 0.507877 1.009969
v -0.898013 0.438712 1.326765
v -1.161216 0.214083 1.241922
v -1.044966 0.173512 1.258797
v -0.768950 0.466480 1.323484
v -0.656763 0.377516 1.276844
v -0.557075 0.314317 0.714187
v -0.851841 0.335167 1.339344
v -0.649419 0.126173 1.157156
v -0.918716 0.144425 1.337234
v -0.620747 0.268077 1.206765
v -0.598716 0.139781 0.932703
v -0.133403 0.108453 -1.160110
v 0.052456 -0.034872 -1.243000
v 0.102065 0.123106 -1.308078
v -0.113247 0.185079 -1.264328
v -0.027232 0.104190 -1.542531
v -0.181997 0.178941 -1.338391
v -0.266450 0.027413 -1.237297
v 0.069800 -0.053793 -1.423859
v 0.022925 0.062154 -1.575969
v -0.040122 -0.017343 -1.601047
v -0.213716 0.056617 -1.478938
v -0.172388 0.148458 -1.448156
v -0.172232 0.012828 -1.131594
v -1.010747 0.211861 0.153094
v -0.831919 0.196788 0.422547
v -0.918794 0.385035 0.200281
v -0.741294 0.336637 0.331219
v -0.603247 0.167804 0.382469
v -0.425278 0.266173 0.086922
v -0.758794 0.401153 0.184500
v -0.985669 0.212340 -0.029485
v -0.781685 0.421236 0.073250
v -0.686607 0.358624 -0.087063
v -0.698482 0.162262 -0.147531
v -0.483794 0.310938 -0.048938
v -0.514497 0.085748 0.307469
v -0.424653 0.104425 0.083953
v -0.521685 0.124942 -0.070266
vt 0.383275 0.335301
vt 0.413293 0.376319
vt 0.440484 0.347236
vt 0.399949 0.293508
vt 0.326143 0.319770
vt 0.260566 0.371318
vt 0.230600 0.359181
vt 0.199827 0.456238
vt 0.259319 0.426118
vt 0.290370 0.398561
vt 0.357275 0.362019
vt 0.388113 0.399571
vt 0.330912 0.440736
vt 0.342449 0.398383
vt 0.258653 0.456942
vt 0.269838 0.487567
vt 0.304530 0.478829
vt 0.246092 0.526180
vt 0.338372 0.523776
vt 0.393430 0.476819
vt 0.437995 0.498492
vt 0.471681 0.411751
vt 0.407522 0.441893
vt 0.443278 0.404582
vt 0.373579 0.434589
vt 0.692194 0.291554
vt 0.749524 0.205977
vt 0.684186 0.228343
vt 0.792642 0.139053
vt 0.792751 0.195542
vt 0.842934 0.167644
vt 0.930513 0.139443
vt 0.842652 0.243558
vt 0.848309 0.328371
vt 0.738836 0.268726
vt 0.660137 0.325304
vt 0.903003 0.184799
vt 0.938792 0.309092
vt 0.901927 0.278636
vt 0.861571 0.400199
vt 0.897790 0.388041
vt 0.874274 0.225603
vt 0.795767 0.103780
vt 0.786548 0.240810
vt 0.754749 0.316167
vt 0.795857 0.344141
vt 0.793406 0.406788
vt 0.733429 0.357986
vt 0.693847 0.354277
vt 0.729878 0.408825
vt 0.710251 0.417994
vt 0.777311 0.462518
vt 0.925927 0.411687
vt 0.780636 0.437883
vt 0.661924 0.380308
vt 0.706087 0.441861
vt 0.578015 0.053734
vt 0.569381 0.103474
vt 0.639917 0.075198
vt 0.645811 0.044532
vt 0.697198 0.065743
vt 0.682820 0.112906
vt 0.622984 0.152605
vt 0.524813 0.092312
vt 0.536243 0.161678
vt 0.581671 0.153072
vt 0.706792 0.127434
vt 0.617816 0.181188
vt 0.618041 0.220839
vt 0.663771 0.192966
vt 0.677258 0.728051
vt 0.776112 0.852200
vt 0.758185 0.772951
vt 0.688484 0.681609
vt 0.695091 0.820166
vt 0.658769 0.864505
vt 0.743722 0.894099
vt 0.630098 0.905554
vt 0.612073 0.723336
vt 0.598816 0.676577
vt 0.539323 0.715637
vt 0.572591 0.750007
vt 0.632411 0.786421
vt 0.529604 0.822081
vt 0.557710 0.869618
vt 0.585300 0.839033
vt 0.576981 0.785736
vt 0.635009 0.817629
vt 0.792067 0.785361
vt 0.810667 0.846996
vt 0.791538 0.890656
vt 0.346996 0.229399
vt 0.285454 0.100732
vt 0.277358 0.176414
vt 0.305080 0.230303
vt 0.275080 0.273908
vt 0.305717 0.304773
vt 0.253694 0.127668
vt 0.155297 0.063932
vt 0.156830 0.096814
vt 0.075025 0.094897
vt 0.115637 0.139336
vt 0.223887 0.148433
vt 0.243055 0.204916
vt 0.231205 0.263602
vt 0.167612 0.232895
vt 0.177082 0.174621
vt 0.278593 0.231258
vt 0.170306 0.129144
vt 0.124324 0.210902
vt 0.057543 0.118694
vt 0.064193 0.169083
vt 0.152030 0.246733
vt 0.151052 0.275091
vt 0.253225 0.293692
vt 0.107160 0.236404
vt 0.097544 0.323336
vt 0.069202 0.234806
vt 0.144640 0.301195
vt 0.180759 0.346975
vt 0.769159 0.529535
vt 0.776599 0.612499
vt 0.819242 0.588471
vt 0.812963 0.535577
vt 0.884318 0.551964
vt 0.831597 0.508440
vt 0.788274 0.475447
vt 0.866660 0.629959
vt 0.902227 0.570673
vt 0.928483 0.572633
vt 0.898463 0.475830
vt 0.874362 0.496127
vt 0.743945 0.522043
vt 0.434243 0.117389
vt 0.368935 0.176514
vt 0.434346 0.162002
vt 0.403427 0.211318
vt 0.383958 0.262201
vt 0.454978 0.285134
vt 0.438609 0.205415
vt 0.495260 0.138368
vt 0.465994 0.195054
vt 0.503972 0.213362
vt 0.552036 0.225531
vt 0.487907 0.262164
vt 0.399949 0.293508
vt 0.470768 0.329404
vt 0.517522 0.295553
vn -0.625516 0.706175 -0.331733
vn -0.212467 0.719366 -0.661339
vn -0.496427 0.188828 -0.847292
vn -0.781020 0.338391 -0.524880
vn -0.808629 0.514640 0.285070
vn -0.658817 0.452469 0.601026
vn -0.649021 0.196526 0.734949
vn 0.131815 0.030127 0.990816
vn -0.123774 0.684657 0.718279
vn -0.199950 0.949969 0.239957
vn -0.187034 0.980949 0.052509
vn 0.126244 0.976071 -0.177053
vn 0.271083 0.962481 0.012020
vn 0.200105 0.979774 -0.001157
vn 0.458648 0.555852 0.693304
vn 0.850680 0.307446 0.426404
vn 0.859288 0.504649 0.083392
vn 0.909502 -0.038370 0.413925
vn 0.994209 -0.085147 -0.065558
vn 0.799413 0.466048 -0.379129
vn 0.764489 -0.015188 -0.644458
vn -0.032442 0.207479 -0.977701
vn 0.418384 0.696393 -0.583088
vn 0.105795 0.385575 -0.916591
vn 0.204710 0.976022 -0.073987
vn -0.085121 0.374298 0.923393
vn -0.580681 0.477124 0.659668
vn -0.485464 0.153151 0.860738
vn -0.959542 0.230635 0.161513
vn -0.479639 0.874629 0.070505
vn -0.721872 0.590286 -0.361197
vn -0.609279 0.040361 -0.791928
vn 0.130451 0.968361 -0.212744
vn 0.316425 0.894900 -0.314688
vn 0.046187 0.848247 0.527583
vn -0.031048 0.079572 0.996346
vn -0.393333 0.432845 -0.811132
vn 0.203072 0.062447 -0.977170
vn 0.243254 0.448072 -0.860267
vn 0.728389 0.461618 -0.506319
vn 0.570696 0.163501 -0.804720
vn 0.044792 0.873902 -0.484034
vn -0.972398 0.227482 0.051899
vn 0.152713 0.987708 -0.033330
vn 0.263050 0.950046 0.167980
vn 0.322709 0.943698 -0.072754
vn 0.679216 0.732807 -0.040738
vn 0.446963 0.776387 0.444352
vn 0.208324 0.358087 0.910151
vn 0.821242 0.303018 0.483469
vn 0.624364 -0.055523 0.779158
vn 0.961778 -0.248401 -0.115236
vn 0.600917 -0.069155 -0.796314
vn 0.986227 0.134563 -0.096169
vn 0.212728 -0.019429 0.976918
vn 0.758535 -0.232412 0.608777
vn -0.818321 0.358096 0.449576
vn -0.277511 0.822092 0.497143
vn -0.719425 0.591451 -0.364162
vn -0.975661 0.202973 -0.082990
vn -0.571389 0.060356 -0.818457
vn -0.051611 0.443906 -0.894586
vn 0.234012 0.877780 -0.418019
vn -0.165531 0.334785 0.927641
vn 0.518817 0.355401 0.777508
vn 0.515239 0.734429 0.441749
vn 0.226704 -0.009035 -0.973922
vn 0.822112 0.520353 -0.231009
vn 0.991461 0.103092 0.079862
vn 0.641781 0.116673 -0.757961
vn -0.345231 0.910932 -0.225871
vn 0.517937 0.706044 -0.482952
vn -0.206440 0.816053 -0.539851
vn -0.693138 0.667304 -0.272517
vn 0.398262 0.890362 -0.220553
vn 0.870992 0.490749 0.023197
vn 0.898234 0.382626 -0.216271
vn 0.989337 0.082844 0.119788
vn -0.379024 0.907717 0.179976
vn -0.798018 0.566897 0.204437
vn -0.445614 0.491379 0.748315
vn -0.084801 0.781639 0.617939
vn 0.257506 0.965382 0.041561
vn 0.343358 0.416037 0.842032
vn 0.780238 0.321423 0.536578
vn 0.704620 0.529374 0.472519
vn 0.372540 0.717111 0.589038
vn 0.422122 0.876263 0.232327
vn -0.093552 0.723367 -0.684096
vn 0.328996 0.616767 -0.715094
vn 0.777894 0.448021 -0.440634
vn -0.064163 0.212300 -0.975096
vn -0.635911 0.353835 -0.685870
vn -0.250093 0.797207 -0.549468
vn 0.070567 0.450518 -0.889974
vn 0.640562 0.428538 -0.637210
vn 0.692786 -0.155403 -0.704200
vn -0.611465 0.580416 -0.537799
vn -0.928154 0.352352 -0.119907
vn -0.889818 0.413855 -0.192219
vn -0.824636 0.070541 0.561248
vn -0.629864 0.563417 0.534634
vn -0.359328 0.894217 -0.266943
vn 0.119828 0.969206 -0.215132
vn 0.666412 0.743863 -0.050625
vn 0.196913 0.936209 0.291098
vn -0.085802 0.994759 0.055610
vn 0.230118 0.866340 -0.443283
vn -0.591511 0.740548 -0.318909
vn -0.162451 0.405974 0.899330
vn -0.350910 -0.062727 0.934306
vn -0.303772 -0.043773 0.951739
vn 0.315965 0.582826 0.748652
vn 0.740326 0.178296 0.648172
vn 0.962198 0.081517 -0.259866
vn 0.050784 -0.093970 0.994279
vn 0.785739 -0.311018 0.534679
vn -0.039077 0.002597 0.999233
vn 0.849347 -0.149334 0.506269
vn 0.978344 -0.196011 0.066497
vn -0.062758 0.549123 0.833382
vn 0.782826 -0.012093 0.622124
vn 0.823832 0.523210 0.218062
vn -0.021190 0.955310 0.294845
vn -0.097787 0.662251 -0.742874
vn -0.497308 0.866118 -0.050253
vn -0.772472 0.554982 0.308680
vn 0.965152 -0.149568 -0.214734
vn 0.508935 0.322180 -0.798239
vn 0.154544 0.184258 -0.970652
vn -0.660387 0.499493 -0.560711
vn -0.445271 0.770170 -0.456698
vn -0.164748 0.342896 0.924814
vn -0.889354 0.430194 0.154865
vn -0.243045 0.522548 0.817235
vn -0.595604 0.769374 0.230911
vn 0.148263 0.747445 0.647567
vn 0.550521 0.505772 0.664170
vn 0.879225 0.464894 0.104098
vn 0.182408 0.946920 0.264707
vn -0.609918 0.602267 -0.515048
vn -0.111709 0.973905 -0.197562
vn -0.001836 0.703360 -0.710831
vn 0.027322 0.234293 -0.971782
vn 0.650286 0.552007 -0.521935
vn 0.816224 0.239137 0.525921
vn 0.998858 -0.032254 -0.035256
vn 0.638752 -0.042039 -0.768264
usemtl material
f 1/0/1 2/0/2 3/0/3
f 1/0/1 3/0/3 4/0/4
f 4/0/4 5/0/5 1/0/1
f 1/0/1 5/0/5 6/0/6
f 7/0/7 6/0/6 5/0/5
f 8/0/8 6/0/6 7/0/7
f 9/0/9 6/0/6 8/0/8
f 10/0/10 6/0/6 9/0/9
f 10/0/10 11/0/11 6/0/6
f 11/0/11 1/0/1 6/0/6
f 11/0/11 2/0/2 1/0/1
f 11/0/11 12/0/12 2/0/2
f 13/0/13 10/0/10 9/0/9
f 10/0/10 13/0/13 14/0/14
f 11/0/11 10/0/10 14/0/14
f 15/0/15 9/0/9 8/0/8
f 9/0/9 15/0/15 13/0/13
f 15/0/15 8/0/8 16/0/16
f 17/0/17 13/0/13 15/0/15
f 15/0/15 16/0/16 17/0/17
f 16/0/16 8/0/8 18/0/18
f 19/0/19 16/0/16 18/0/18
f 16/0/16 19/0/19 17/0/17
f 17/0/17 19/0/19 20/0/20
f 13/0/13 17/0/17 20/0/20
f 20/0/20 19/0/19 21/0/21
f 21/0/21 22/0/22 20/0/20
f 23/0/23 20/0/20 22/0/22
f 22/0/22 24/0/24 23/0/23
f 3/0/3 24/0/24 22/0/22
f 23/0/23 24/0/24 2/0/2
f 3/0/3 2/0/2 24/0/24
f 23/0/23 2/0/2 12/0/12
f 23/0/23 25/0/25 20/0/20
f 25/0/25 13/0/13 20/0/20
f 25/0/25 14/0/14 13/0/13
f 23/0/23 12/0/12 25/0/25
f 25/0/25 12/0/12 11/0/11
f 11/0/11 14/0/14 25/0/25
f 26/0/26 27/0/27 28/0/28
f 27/0/27 29/0/29 28/0/28
f 29/0/29 27/0/27 30/0/30
f 31/0/31 29/0/29 30/0/30
f 32/0/32 29/0/29 31/0/31
f 30/0/30 33/0/33 31/0/31
f 33/0/33 30/0/30 34/0/34
f 27/0/27 26/0/26 35/0/35
f 30/0/30 27/0/27 35/0/35
f 26/0/26 28/0/28 36/0/36
f 31/0/31 37/0/37 32/0/32
f 32/0/32 37/0/37 38/0/38
f 37/0/37 39/0/39 38/0/38
f 39/0/39 34/0/34 40/0/40
f 41/0/41 39/0/39 40/0/40
f 39/0/39 41/0/41 38/0/38
f 42/0/42 34/0/34 39/0/39
f 37/0/37 42/0/42 39/0/39
f 42/0/42 37/0/37 31/0/31
f 42/0/42 31/0/31 33/0/33
f 42/0/42 33/0/33 34/0/34
f 43/0/43 29/0/29 32/0/32
f 28/0/28 29/0/29 43/0/43
f 44/0/44 34/0/34 30/0/30
f 35/0/35 44/0/44 30/0/30
f 44/0/44 45/0/45 34/0/34
f 35/0/35 45/0/45 44/0/44
f 40/0/40 34/0/34 46/0/46
f 34/0/34 45/0/45 46/0/46
f 46/0/46 47/0/47 40/0/40
f 47/0/47 46/0/46 48/0/48
f 35/0/35 48/0/48 45/0/45
f 45/0/45 48/0/48 46/0/46
f 35/0/35 49/0/49 48/0/48
f 48/0/48 49/0/49 50/0/50
f 48/0/48 50/0/50 47/0/47
f 50/0/50 49/0/49 51/0/51
f 52/0/52 50/0/50 51/0/51
f 52/0/52 53/0/53 40/0/40
f 40/0/40 53/0/53 41/0/41
f 38/0/38 41/0/41 53/0/53
f 52/0/52 40/0/40 54/0/54
f 54/0/54 50/0/50 52/0/52
f 47/0/47 54/0/54 40/0/40
f 50/0/50 54/0/54 47/0/47
f 51/0/51 49/0/49 55/0/55
f 36/0/36 55/0/55 49/0/49
f 36/0/36 49/0/49 26/0/26
f 35/0/35 26/0/26 49/0/49
f 51/0/51 55/0/55 56/0/56
f 51/0/51 56/0/56 52/0/52
f 57/0/57 58/0/58 59/0/59
f 59/0/59 60/0/60 57/0/57
f 60/0/60 59/0/59 61/0/61
f 62/0/62 59/0/59 58/0/58
f 62/0/62 61/0/61 59/0/59
f 58/0/58 63/0/63 62/0/62
f 64/0/64 58/0/58 57/0/57
f 58/0/58 64/0/64 65/0/65
f 65/0/65 66/0/66 58/0/58
f 63/0/63 58/0/58 66/0/66
f 61/0/61 62/0/62 67/0/67
f 62/0/62 68/0/68 67/0/67
f 68/0/68 66/0/66 65/0/65
f 62/0/62 63/0/63 68/0/68
f 68/0/68 63/0/63 66/0/66
f 69/0/69 68/0/68 65/0/65
f 70/0/70 67/0/67 68/0/68
f 70/0/70 68/0/68 69/0/69
f 71/0/71 72/0/72 73/0/73
f 71/0/71 73/0/73 74/0/74
f 71/0/71 75/0/75 72/0/72
f 75/0/75 76/0/76 72/0/72
f 72/0/72 76/0/76 77/0/77
f 77/0/77 76/0/76 78/0/78
f 71/0/71 79/0/79 75/0/75
f 74/0/74 79/0/79 71/0/71
f 74/0/74 80/0/80 79/0/79
f 80/0/80 81/0/81 79/0/79
f 82/0/82 79/0/79 81/0/81
f 79/0/79 82/0/82 83/0/83
f 79/0/79 83/0/83 75/0/75
f 84/0/84 82/0/82 81/0/81
f 76/0/76 85/0/85 78/0/78
f 86/0/86 84/0/84 85/0/85
f 76/0/76 86/0/86 85/0/85
f 86/0/86 87/0/87 84/0/84
f 83/0/83 87/0/87 86/0/86
f 82/0/82 87/0/87 83/0/83
f 84/0/84 87/0/87 82/0/82
f 88/0/88 86/0/86 76/0/76
f 75/0/75 88/0/88 76/0/76
f 83/0/83 86/0/86 88/0/88
f 83/0/83 88/0/88 75/0/75
f 89/0/89 74/0/74 73/0/73
f 89/0/89 73/0/73 72/0/72
f 72/0/72 90/0/90 89/0/89
f 90/0/90 72/0/72 91/0/91
f 72/0/72 77/0/77 91/0/91
f 92/0/92 93/0/93 94/0/94
f 92/0/92 94/0/94 95/0/95
f 95/0/95 96/0/96 92/0/92
f 92/0/92 96/0/96 97/0/97
f 94/0/94 93/0/93 98/0/98
f 93/0/93 99/0/99 98/0/98
f 99/0/99 100/0/100 98/0/98
f 100/0/100 99/0/99 101/0/101
f 101/0/101 102/0/102 100/0/100
f 98/0/98 103/0/103 94/0/94
f 103/0/103 98/0/98 100/0/100
f 94/0/94 103/0/103 104/0/104
f 105/0/105 94/0/94 104/0/104
f 104/0/104 106/0/106 105/0/105
f 104/0/104 107/0/107 106/0/106
f 107/0/107 104/0/104 103/0/103
f 106/0/106 107/0/107 102/0/102
f 108/0/108 94/0/94 105/0/105
f 105/0/105 96/0/96 108/0/108
f 95/0/95 108/0/108 96/0/96
f 108/0/108 95/0/95 94/0/94
f 109/0/109 102/0/102 107/0/107
f 102/0/102 109/0/109 100/0/100
f 109/0/109 107/0/107 103/0/103
f 109/0/109 103/0/103 100/0/100
f 110/0/110 106/0/106 102/0/102
f 111/0/111 110/0/110 102/0/102
f 111/0/111 102/0/102 101/0/101
f 112/0/112 110/0/110 111/0/111
f 106/0/106 113/0/113 105/0/105
f 106/0/106 110/0/110 113/0/113
f 105/0/105 113/0/113 114/0/114
f 105/0/105 114/0/114 115/0/115
f 116/0/116 114/0/114 113/0/113
f 110/0/110 112/0/112 116/0/116
f 113/0/113 110/0/110 116/0/116
f 114/0/114 116/0/116 117/0/117
f 116/0/116 118/0/118 117/0/117
f 116/0/116 112/0/112 118/0/118
f 119/0/119 115/0/115 114/0/114
f 119/0/119 114/0/114 117/0/117
f 115/0/115 119/0/119 120/0/120
f 120/0/120 119/0/119 117/0/117
f 115/0/115 120/0/120 97/0/97
f 115/0/115 97/0/97 96/0/96
f 105/0/105 115/0/115 96/0/96
f 121/0/121 122/0/122 123/0/123
f 124/0/124 121/0/121 123/0/123
f 123/0/123 125/0/125 124/0/124
f 125/0/125 126/0/126 124/0/124
f 126/0/126 121/0/121 124/0/124
f 126/0/126 127/0/127 121/0/121
f 123/0/123 122/0/122 128/0/128
f 123/0/123 128/0/128 129/0/129
f 123/0/123 129/0/129 125/0/125
f 130/0/130 129/0/129 128/0/128
f 129/0/129 130/0/130 131/0/131
f 132/0/132 129/0/129 131/0/131
f 127/0/127 132/0/132 131/0/131
f 132/0/132 126/0/126 125/0/125
f 127/0/127 126/0/126 132/0/132
f 132/0/132 125/0/125 129/0/129
f 121/0/121 133/0/133 122/0/122
f 121/0/121 127/0/127 133/0/133
f 134/0/134 135/0/135 136/0/136
f 136/0/136 135/0/135 137/0/137
f 137/0/137 135/0/135 138/0/138
f 139/0/139 137/0/137 138/0/138
f 139/0/139 140/0/140 137/0/137
f 140/0/140 136/0/136 137/0/137
f 141/0/141 134/0/134 136/0/136
f 136/0/136 142/0/142 141/0/141
f 136/0/136 140/0/140 142/0/142
f 142/0/142 143/0/143 141/0/141
f 141/0/141 143/0/143 144/0/144
f 144/0/144 143/0/143 145/0/145
f 145/0/145 143/0/143 142/0/142
f 145/0/145 140/0/140 139/0/139
f 142/0/142 140/0/140 145/0/145
f 138/0/138 146/0/146 139/0/139
f 146/0/146 147/0/147 139/0/139
f 145/0/145 139/0/139 147/0/147
f 147/0/147 148/0/148 145/0/145
f 148/0/148 144/0/144 145/0/145
