# 
# Wavefront OBJ file
# Created with Kaydara FBX
# 
mtllib snowfield_stone_09_1.mtl

g snowfield_Stone_09_1
v 0.399309 0.266763 -0.427075
v -0.043191 0.466143 -0.485591
v 0.410637 0.102246 0.121597
v -0.465691 0.504590 0.020581
v 0.169231 0.119375 0.490425
v -0.360691 0.340659 0.405737
v -0.615378 -0.072930 -0.015513
v -0.478269 -0.121699 0.416284
v -0.150535 -0.115234 -0.572622
v 0.357903 -0.203018 -0.500122
v 0.393137 -0.246050 0.112065
v 0.127434 -0.227202 0.517847
v -0.098503 -0.411992 -0.022310
v 0.357903 -0.203018 -0.500122
v 0.393137 -0.246050 0.112065
v 0.127434 -0.227202 0.517847
v -0.478269 -0.121699 0.416284
vt 0.145582 0.904416
vt 0.114727 0.905185
vt 0.130729 0.953559
vt 0.081549 0.921312
vt 0.102565 0.967446
vt 0.074607 0.942453
vt 0.051466 0.907990
vt 0.046753 0.953534
vt 0.109212 0.873426
vt 0.162927 0.897782
vt 0.149914 0.967887
vt 0.099046 0.988680
vt 0.058140 0.857621
vt 0.107171 0.830507
vt 0.054958 0.815867
vt 0.014951 0.833437
vt 0.013770 0.888168
vn 0.642097 0.399809 -0.654114
vn 0.079050 0.885320 -0.458214
vn 0.821244 0.516993 0.241406
vn -0.358992 0.932127 -0.047584
vn 0.463358 0.404343 0.788547
vn -0.563669 0.485616 0.668172
vn -0.966845 -0.245476 -0.070377
vn -0.539330 -0.364999 0.758880
vn -0.383883 -0.208884 -0.899445
vn 0.703042 -0.527585 -0.476850
vn 0.811522 -0.507508 0.289597
vn 0.250573 -0.621217 0.742498
vn -0.144222 -0.988590 -0.043470
vn 0.703042 -0.527585 -0.476850
vn 0.811522 -0.507508 0.289597
vn 0.250573 -0.621217 0.742498
vn -0.539330 -0.364999 0.758880
usemtl material
f 1/0/1 2/0/2 3/0/3
f 2/0/2 4/0/4 3/0/3
f 4/0/4 5/0/5 3/0/3
f 6/0/6 5/0/5 4/0/4
f 6/0/6 4/0/4 7/0/7
f 8/0/8 6/0/6 7/0/7
f 5/0/5 6/0/6 8/0/8
f 7/0/7 4/0/4 9/0/9
f 4/0/4 2/0/2 9/0/9
f 9/0/9 2/0/2 1/0/1
f 10/0/10 9/0/9 1/0/1
f 10/0/10 1/0/1 3/0/3
f 11/0/11 10/0/10 3/0/3
f 11/0/11 3/0/3 5/0/5
f 12/0/12 11/0/11 5/0/5
f 12/0/12 5/0/5 8/0/8
f 9/0/9 13/0/13 7/0/7
f 14/0/14 13/0/13 9/0/9
f 15/0/15 13/0/13 14/0/14
f 16/0/16 13/0/13 15/0/15
f 17/0/17 13/0/13 16/0/16
f 7/0/7 13/0/13 17/0/17
