# 
# Wavefront OBJ file
# Created with Kaydara FBX
# 
mtllib snowfield_stone_09 #2278812.mtl

g snowfield_Stone_09
v 0.100559 0.301650 -0.558403
v -0.344519 0.423076 -0.396528
v 0.395481 0.174331 -0.084106
v -0.480144 0.423076 0.249800
v 0.356106 0.174331 0.355269
v -0.180691 0.301650 0.535894
v -0.528269 -0.172163 0.274956
v -0.198816 -0.172163 0.589722
v -0.379128 -0.172163 -0.436372
v 0.110559 -0.172163 -0.614497
v 0.435247 -0.172163 -0.092466
v 0.391887 -0.172163 0.390972
v -0.025535 -0.423076 0.016987
v 0.110559 -0.172163 -0.614497
v 0.435247 -0.172163 -0.092466
v 0.391887 -0.172163 0.390972
v -0.198816 -0.172163 0.589722
vt 0.145582 0.904416
vt 0.114727 0.905185
vt 0.130729 0.953559
vt 0.081549 0.921312
vt 0.102565 0.967446
vt 0.074607 0.942453
vt 0.051466 0.907990
vt 0.046753 0.953534
vt 0.109212 0.873426
vt 0.162927 0.897782
vt 0.149914 0.967887
vt 0.099046 0.988680
vt 0.058140 0.857621
vt 0.107171 0.830507
vt 0.054958 0.815867
vt 0.014951 0.833437
vt 0.013770 0.888168
vn 0.181903 0.458304 -0.869982
vn -0.297221 0.857374 -0.420202
vn 0.736759 0.656366 -0.162389
vn -0.492527 0.857363 0.149485
vn 0.702099 0.520413 0.486033
vn -0.258417 0.427393 0.866346
vn -0.829169 -0.402167 0.388254
vn -0.049678 -0.401136 0.914670
vn -0.718517 -0.321691 -0.616643
vn 0.476026 -0.434754 -0.764453
vn 0.925723 -0.351499 -0.139590
vn 0.671071 -0.526940 0.521534
vn 0.023305 -0.999709 0.006306
vn 0.476026 -0.434754 -0.764453
vn 0.925723 -0.351499 -0.139590
vn 0.671071 -0.526940 0.521534
vn -0.049678 -0.401136 0.914670
usemtl material
f 1/0/1 2/0/2 3/0/3
f 2/0/2 4/0/4 3/0/3
f 4/0/4 5/0/5 3/0/3
f 6/0/6 5/0/5 4/0/4
f 6/0/6 4/0/4 7/0/7
f 8/0/8 6/0/6 7/0/7
f 5/0/5 6/0/6 8/0/8
f 7/0/7 4/0/4 9/0/9
f 4/0/4 2/0/2 9/0/9
f 9/0/9 2/0/2 1/0/1
f 10/0/10 9/0/9 1/0/1
f 10/0/10 1/0/1 3/0/3
f 11/0/11 10/0/10 3/0/3
f 11/0/11 3/0/3 5/0/5
f 12/0/12 11/0/11 5/0/5
f 12/0/12 5/0/5 8/0/8
f 9/0/9 13/0/13 7/0/7
f 14/0/14 13/0/13 9/0/9
f 15/0/15 13/0/13 14/0/14
f 16/0/16 13/0/13 15/0/15
f 17/0/17 13/0/13 16/0/16
f 7/0/7 13/0/13 17/0/17
