# 
# Wavefront OBJ file
# Created with Kaydara FBX
# 
mtllib snowfield_stone_05 #2278803.mtl

g snowfield_Stone_05
v 0.486418 0.283115 1.144565
v 0.487278 0.623711 1.021831
v 0.072278 0.787739 1.112222
v -0.391082 1.311558 0.578394
v 0.258059 1.086362 0.862378
v 0.550325 1.092236 0.678862
v -0.228035 0.439971 0.950034
v 0.160715 0.231567 0.930503
v 0.494153 -0.125625 1.013706
v 0.053450 0.032725 0.611753
v -0.342878 0.259258 0.569019
v -0.776550 0.638555 0.450659
v -0.375457 1.149121 0.902378
v -0.894675 0.846782 0.208940
v -0.509285 1.333560 0.155112
v 0.658293 -0.236367 0.662065
v 0.967590 0.100640 0.834097
v 0.918528 -0.366079 0.745737
v 0.704075 0.119946 1.034878
v 0.926418 0.283091 1.053706
v -0.696316 1.404316 0.061284
v -0.821082 1.057510 -0.543013
v -0.658269 1.348242 -0.741606
v 0.777278 0.698066 1.020425
v 1.191965 0.513101 0.756519
v 1.305793 0.061445 0.361597
v 0.957043 0.894458 0.516753
v 1.162668 -0.008364 0.784956
v 1.288137 -0.362476 0.056362
v 0.918528 -0.366079 0.745737
v 1.124934 -0.492178 0.078394
v 0.658293 -0.236367 0.662065
v 1.081262 -0.520215 -0.525356
v 0.875793 -0.518975 0.036050
v 0.479543 -0.248320 -0.555981
v 0.375872 -0.198115 0.549487
v 0.649231 -0.414551 -0.882700
v 0.770715 -0.407754 -1.056997
v 0.182512 -0.077466 -0.804653
v 0.207903 -0.238979 -1.497544
v 0.897278 -0.380117 -1.265122
v 0.413684 0.022222 -1.743169
v -0.063894 0.130610 -1.662466
v -0.401238 0.517632 -1.799106
v -0.734988 0.450688 -1.318560
v -0.326082 0.198384 -1.040591
v -0.316238 0.246719 -0.489028
v -0.061003 -0.110928 -1.322778
v -0.791160 0.446875 -0.321841
v -0.561941 0.198818 0.023315
v 0.053450 0.032725 0.611753
v -0.672566 0.377871 0.019487
v -0.342878 0.259258 0.569019
v -0.921160 0.467974 0.349409
v 0.897278 -0.380117 -1.265122
v 1.221575 0.068345 -1.197466
v 1.401028 -0.042007 -0.963638
v 0.770715 -0.407754 -1.056997
v 1.081262 -0.520215 -0.525356
v 0.413684 0.022222 -1.743169
v 1.340793 0.381426 -1.158560
v 1.358918 0.687861 -0.605356
v 1.349622 0.272720 -0.756528
v 1.275715 0.700889 -0.228560
v 1.496965 0.224595 -0.185981
v 1.382825 0.512480 0.245659
v 1.478372 -0.108779 -0.127153
v 1.541575 -0.007720 -0.349653
v 1.322512 -0.258442 -0.534731
v 1.405715 0.049541 -0.689263
v 1.122278 0.946450 -0.343481
v 0.792668 1.032808 -0.128794
v 0.681965 1.029800 -0.899419
v 0.906340 0.898906 -1.368403
v 0.320012 1.069917 -1.606372
v 0.529387 1.281196 0.449097
v 0.398137 1.226387 -0.918013
v 0.031653 1.374526 -0.744341
v -0.177019 1.530303 -0.161372
v -0.294988 1.331226 0.389800
v -0.236941 1.252495 -0.582466
v 0.255872 1.125020 -0.968560
v -0.055691 0.994146 -1.676763
v -0.636628 0.897080 -1.659653
v -0.923738 0.687119 -0.843950
v -0.734988 0.450688 -1.318560
v -0.791160 0.446875 -0.321841
v -0.180066 0.797222 -1.866294
v 1.121575 0.254004 -1.464810
v -0.401238 0.517632 -1.799106
v -0.921160 0.467974 0.349409
v -0.401238 0.517632 -1.799106
v 1.300559 0.677070 -1.344106
v -0.921160 0.467974 0.349409
v 1.379465 -0.303564 -0.236294
v 0.375872 -0.198115 0.549487
vt 0.912219 0.420881
vt 0.888468 0.435553
vt 0.894816 0.466329
vt 0.857003 0.510076
vt 0.863269 0.462188
vt 0.847394 0.447430
vt 0.927930 0.484467
vt 0.935910 0.445092
vt 0.934397 0.399879
vt 0.972783 0.446706
vt 0.956287 0.508844
vt 0.905109 0.563408
vt 0.878704 0.501689
vt 0.869792 0.573825
vt 0.833121 0.529825
vt 0.950854 0.369110
vt 0.890992 0.363158
vt 0.934911 0.338352
vt 0.908767 0.394035
vt 0.891335 0.386877
vt 0.828234 0.542949
vt 0.793437 0.578742
vt 0.774240 0.556895
vt 0.873395 0.419414
vt 0.852509 0.388099
vt 0.833811 0.338787
vt 0.833074 0.418934
vt 0.883151 0.338537
vt 0.797712 0.295469
vt 0.881309 0.286521
vt 0.805741 0.276174
vt 0.885601 0.254432
vt 0.745408 0.256701
vt 0.812246 0.253060
vt 0.776816 0.185964
vt 0.886562 0.222204
vt 0.737425 0.194401
vt 0.716397 0.196656
vt 0.768014 0.143747
vt 0.700442 0.124744
vt 0.691689 0.198160
vt 0.661883 0.118976
vt 0.694623 0.078428
vt 0.694475 0.023112
vt 0.757013 0.020345
vt 0.765982 0.076974
vt 0.821158 0.096980
vt 0.724999 0.105071
vt 0.859695 0.057254
vt 0.879513 0.101455
vt 0.909768 0.186038
vt 0.887159 0.082732
vt 0.925069 0.139772
vt 0.928399 0.072203
vt 0.624364 0.353225
vt 0.673594 0.374773
vt 0.696993 0.351573
vt 0.626651 0.326480
vt 0.692490 0.281549
vt 0.608469 0.449378
vt 0.696512 0.392004
vt 0.746019 0.398941
vt 0.723603 0.369412
vt 0.776509 0.396189
vt 0.772397 0.352120
vt 0.812841 0.376610
vt 0.775669 0.321580
vt 0.755364 0.333285
vt 0.726703 0.306142
vt 0.723838 0.346104
vt 0.770270 0.420068
vt 0.790430 0.440722
vt 0.739699 0.461383
vt 0.703300 0.451558
vt 0.690620 0.501339
vt 0.830953 0.455878
vt 0.747990 0.483857
vt 0.765987 0.504282
vt 0.806567 0.507816
vt 0.842662 0.507540
vt 0.777190 0.524122
vt 0.739138 0.495598
vt 0.678992 0.532372
vt 0.692325 0.580473
vt 0.769399 0.614043
vt 0.713961 0.633546
vt 0.828690 0.631773
vt 0.652353 0.545492
vt 0.666947 0.407014
vt 0.652657 0.591351
vt 0.900111 0.590597
vt 0.615661 0.549724
vt 0.698494 0.417741
vt 0.922247 0.580091
vt 0.762712 0.303082
vt 0.970832 0.398791
vn 0.006926 -0.163290 0.986554
vn 0.127335 0.301466 0.944936
vn 0.116130 0.432206 0.894266
vn -0.101758 0.890954 0.442546
vn 0.033150 0.598483 0.800449
vn 0.312356 0.824649 0.471581
vn -0.497846 -0.467090 0.730737
vn -0.480881 -0.563029 0.672125
vn -0.065267 -0.665026 0.743963
vn -0.478839 -0.803088 0.354632
vn -0.572668 -0.680137 0.457673
vn -0.712284 -0.093039 0.695697
vn -0.576956 0.360114 0.733103
vn -0.907701 0.281909 0.310816
vn -0.405606 0.903380 0.139240
vn -0.213095 -0.850212 0.481383
vn 0.443775 -0.344389 0.827321
vn 0.181679 -0.674854 0.715237
vn 0.374278 -0.260010 0.890118
vn 0.471744 -0.204272 0.857747
vn -0.445499 0.867127 0.222760
vn -0.928716 0.365061 -0.064946
vn -0.433137 0.867067 -0.246147
vn 0.368463 0.504583 0.780789
vn 0.808831 0.271423 0.521652
vn 0.894105 -0.103783 0.435667
vn 0.635333 0.722884 0.271644
vn 0.765309 -0.061562 0.640712
vn 0.772209 -0.590182 0.235324
vn 0.181679 -0.674854 0.715237
vn 0.203855 -0.962310 0.180005
vn -0.213095 -0.850212 0.481383
vn 0.291206 -0.949985 -0.112820
vn -0.228226 -0.964614 0.132029
vn -0.490335 -0.870693 0.038282
vn -0.467879 -0.860090 0.203309
vn -0.446194 -0.893306 -0.053990
vn -0.053795 -0.985275 -0.162294
vn -0.499458 -0.866337 0.001262
vn -0.309550 -0.890804 -0.332637
vn 0.387689 -0.761182 -0.519903
vn 0.135157 -0.439317 -0.888107
vn -0.534882 -0.658213 -0.529771
vn -0.447082 -0.339472 -0.827573
vn -0.715089 -0.657733 -0.236717
vn -0.675425 -0.734452 -0.066192
vn -0.590143 -0.804356 -0.068860
vn -0.627315 -0.777081 -0.051198
vn -0.731349 -0.680022 -0.051948
vn -0.666106 -0.745632 -0.018309
vn -0.478839 -0.803088 0.354632
vn -0.585254 -0.810320 -0.029312
vn -0.572668 -0.680137 0.457673
vn -0.797527 -0.491289 0.350122
vn 0.387689 -0.761182 -0.519903
vn 0.690042 -0.333170 -0.642527
vn 0.901760 -0.390937 -0.184383
vn -0.053795 -0.985275 -0.162294
vn 0.291206 -0.949985 -0.112820
vn 0.135157 -0.439317 -0.888107
vn 0.929545 -0.065547 -0.362835
vn 0.969484 0.212747 0.121822
vn 0.981007 0.189514 -0.041342
vn 0.845237 0.525914 0.094811
vn 0.973594 0.227366 -0.020473
vn 0.928655 0.286098 0.236112
vn 0.941678 -0.286681 0.176227
vn 0.971733 -0.192783 -0.136274
vn 0.842416 -0.506562 -0.183658
vn 0.976922 -0.008840 -0.213414
vn 0.550086 0.832316 0.068234
vn 0.550438 0.832098 0.068053
vn 0.347852 0.902434 -0.254188
vn 0.400816 0.885077 -0.236611
vn 0.269047 0.838765 -0.473378
vn 0.397476 0.897852 0.189404
vn 0.369518 0.798243 -0.475673
vn -0.250618 0.825097 -0.506364
vn -0.168703 0.985123 0.032758
vn -0.024357 0.948608 0.315516
vn -0.015987 0.969668 -0.243904
vn -0.020067 0.739273 -0.673107
vn 0.046648 0.675108 -0.736242
vn -0.674063 0.362355 -0.643690
vn -0.991359 0.017574 -0.129994
vn -0.715089 -0.657733 -0.236717
vn -0.731349 -0.680022 -0.051948
vn 0.040395 0.271085 -0.961707
vn 0.476479 -0.027255 -0.878763
vn -0.447082 -0.339472 -0.827573
vn -0.797527 -0.491289 0.350122
vn -0.447082 -0.339472 -0.827573
vn 0.796684 0.354609 -0.489435
vn -0.797527 -0.491289 0.350122
vn 0.791482 -0.606626 -0.074568
vn -0.467879 -0.860090 0.203309
usemtl material
f 1/0/1 2/0/2 3/0/3
f 3/0/3 2/0/2 4/0/4
f 2/0/2 5/0/5 4/0/4
f 4/0/4 5/0/5 6/0/6
f 1/0/1 3/0/3 7/0/7
f 1/0/1 7/0/7 8/0/8
f 1/0/1 8/0/8 9/0/9
f 8/0/8 10/0/10 9/0/9
f 7/0/7 10/0/10 8/0/8
f 7/0/7 11/0/11 10/0/10
f 12/0/12 11/0/11 7/0/7
f 7/0/7 13/0/13 12/0/12
f 4/0/4 13/0/13 3/0/3
f 7/0/7 3/0/3 13/0/13
f 13/0/13 4/0/4 14/0/14
f 13/0/13 14/0/14 12/0/12
f 14/0/14 4/0/4 15/0/15
f 10/0/10 16/0/16 9/0/9
f 9/0/9 16/0/16 17/0/17
f 16/0/16 18/0/18 17/0/17
f 9/0/9 17/0/17 19/0/19
f 19/0/19 17/0/17 20/0/20
f 19/0/19 1/0/1 9/0/9
f 14/0/14 15/0/15 21/0/21
f 21/0/21 22/0/22 14/0/14
f 23/0/23 22/0/22 21/0/21
f 19/0/19 20/0/20 2/0/2
f 1/0/1 19/0/19 2/0/2
f 2/0/2 20/0/20 24/0/24
f 24/0/24 20/0/20 25/0/25
f 20/0/20 26/0/26 25/0/25
f 17/0/17 26/0/26 20/0/20
f 24/0/24 5/0/5 2/0/2
f 6/0/6 5/0/5 24/0/24
f 6/0/6 24/0/24 27/0/27
f 27/0/27 24/0/24 25/0/25
f 28/0/28 17/0/17 18/0/18
f 17/0/17 28/0/28 26/0/26
f 26/0/26 28/0/28 29/0/29
f 28/0/28 30/0/30 29/0/29
f 30/0/30 31/0/31 29/0/29
f 31/0/31 30/0/30 32/0/32
f 31/0/31 33/0/33 29/0/29
f 34/0/34 31/0/31 32/0/32
f 34/0/34 33/0/33 31/0/31
f 33/0/33 34/0/34 35/0/35
f 35/0/35 34/0/34 36/0/36
f 36/0/36 34/0/34 32/0/32
f 33/0/33 35/0/35 37/0/37
f 33/0/33 37/0/37 38/0/38
f 37/0/37 39/0/39 38/0/38
f 39/0/39 37/0/37 35/0/35
f 39/0/39 35/0/35 36/0/36
f 40/0/40 38/0/38 39/0/39
f 40/0/40 41/0/41 38/0/38
f 40/0/40 42/0/42 41/0/41
f 42/0/42 40/0/40 43/0/43
f 44/0/44 42/0/42 43/0/43
f 44/0/44 43/0/43 45/0/45
f 45/0/45 43/0/43 46/0/46
f 45/0/45 46/0/46 47/0/47
f 48/0/48 39/0/39 47/0/47
f 48/0/48 47/0/47 46/0/46
f 43/0/43 48/0/48 46/0/46
f 43/0/43 40/0/40 48/0/48
f 48/0/48 40/0/40 39/0/39
f 49/0/49 45/0/45 47/0/47
f 50/0/50 47/0/47 39/0/39
f 50/0/50 39/0/39 51/0/51
f 51/0/51 39/0/39 36/0/36
f 52/0/52 47/0/47 50/0/50
f 49/0/49 47/0/47 52/0/52
f 51/0/51 53/0/53 50/0/50
f 52/0/52 50/0/50 53/0/53
f 52/0/52 53/0/53 54/0/54
f 54/0/54 49/0/49 52/0/52
f 55/0/55 56/0/56 57/0/57
f 58/0/58 55/0/55 57/0/57
f 57/0/57 59/0/59 58/0/58
f 56/0/56 55/0/55 60/0/60
f 57/0/57 56/0/56 61/0/61
f 61/0/61 62/0/62 57/0/57
f 63/0/63 57/0/57 62/0/62
f 62/0/62 64/0/64 63/0/63
f 64/0/64 65/0/65 63/0/63
f 64/0/64 66/0/66 65/0/65
f 66/0/66 67/0/67 65/0/65
f 67/0/67 66/0/66 26/0/26
f 68/0/68 65/0/65 67/0/67
f 68/0/68 67/0/67 69/0/69
f 57/0/57 69/0/69 59/0/59
f 68/0/68 69/0/69 70/0/70
f 70/0/70 69/0/69 57/0/57
f 70/0/70 65/0/65 68/0/68
f 63/0/63 65/0/65 70/0/70
f 57/0/57 63/0/63 70/0/70
f 64/0/64 62/0/62 71/0/71
f 72/0/72 64/0/64 71/0/71
f 72/0/72 71/0/71 73/0/73
f 73/0/73 71/0/71 74/0/74
f 75/0/75 73/0/73 74/0/74
f 64/0/64 72/0/72 27/0/27
f 27/0/27 66/0/66 64/0/64
f 76/0/76 27/0/27 72/0/72
f 77/0/77 76/0/76 72/0/72
f 77/0/77 72/0/72 73/0/73
f 76/0/76 77/0/77 78/0/78
f 78/0/78 79/0/79 76/0/76
f 79/0/79 80/0/80 76/0/76
f 79/0/79 15/0/15 80/0/80
f 15/0/15 79/0/79 78/0/78
f 15/0/15 78/0/78 81/0/81
f 81/0/81 82/0/82 75/0/75
f 81/0/81 78/0/78 82/0/82
f 77/0/77 82/0/82 78/0/78
f 82/0/82 73/0/73 75/0/75
f 82/0/82 77/0/77 73/0/73
f 81/0/81 75/0/75 23/0/23
f 21/0/21 15/0/15 81/0/81
f 21/0/21 81/0/81 23/0/23
f 23/0/23 75/0/75 83/0/83
f 23/0/23 83/0/83 84/0/84
f 85/0/85 23/0/23 84/0/84
f 84/0/84 86/0/86 85/0/85
f 85/0/85 86/0/86 87/0/87
f 87/0/87 14/0/14 85/0/85
f 88/0/88 84/0/84 83/0/83
f 88/0/88 83/0/83 89/0/89
f 60/0/60 88/0/88 89/0/89
f 84/0/84 90/0/90 86/0/86
f 84/0/84 88/0/88 90/0/90
f 87/0/87 91/0/91 14/0/14
f 88/0/88 60/0/60 92/0/92
f 89/0/89 83/0/83 75/0/75
f 75/0/75 93/0/93 89/0/89
f 91/0/91 12/0/12 14/0/14
f 89/0/89 93/0/93 56/0/56
f 60/0/60 89/0/89 56/0/56
f 14/0/14 22/0/22 85/0/85
f 85/0/85 22/0/22 23/0/23
f 93/0/93 75/0/75 74/0/74
f 71/0/71 93/0/93 74/0/74
f 71/0/71 62/0/62 93/0/93
f 61/0/61 56/0/56 93/0/93
f 62/0/62 61/0/61 93/0/93
f 94/0/94 11/0/11 12/0/12
f 95/0/95 33/0/33 69/0/69
f 67/0/67 95/0/95 69/0/69
f 29/0/29 95/0/95 67/0/67
f 95/0/95 29/0/29 33/0/33
f 67/0/67 26/0/26 29/0/29
f 25/0/25 26/0/26 66/0/66
f 27/0/27 25/0/25 66/0/66
f 27/0/27 76/0/76 6/0/6
f 80/0/80 6/0/6 76/0/76
f 4/0/4 6/0/6 80/0/80
f 4/0/4 80/0/80 15/0/15
f 10/0/10 96/0/96 16/0/16
