# 
# Wavefront OBJ file
# Created with Kaydara FBX
# 
mtllib snowfield_stone_05_1 #2278804.mtl

g snowfield_Stone_05_1
v -0.142566 0.512271 1.159331
v -0.122332 0.828589 0.984409
v -0.546628 0.920161 0.846909
v -0.760613 1.274414 0.070581
v -0.299988 1.215088 0.651128
v 0.041497 1.253740 0.618940
v -0.694675 0.503789 0.641675
v -0.321628 0.372891 0.838315
v -0.028660 0.099438 1.129956
v -0.243816 0.118823 0.551909
v -0.596316 0.258120 0.293940
v -0.963035 0.529468 -0.077388
v -0.880769 1.159917 0.393081
v -0.976472 0.679233 -0.382544
v -0.668035 1.220117 -0.356216
v 0.292512 -0.021030 0.917378
v 0.445012 0.387822 1.137378
v 0.495715 -0.086973 1.131675
v 0.117825 0.381328 1.192378
v 0.285559 0.585088 1.274722
v -0.795769 1.241440 -0.535044
v -0.582722 0.804155 -1.049341
v -0.379519 1.093437 -1.208872
v 0.124075 0.956309 1.096675
v 0.631809 0.822554 1.086519
v 0.967356 0.355156 0.881909
v 0.495872 1.118750 0.696753
v 0.651184 0.312886 1.202534
v 1.142512 -0.099180 0.691909
v 0.495715 -0.086973 1.131675
v 1.003684 -0.253926 0.664800
v 0.292512 -0.021030 0.917378
v 1.251887 -0.365312 0.123315
v 0.808293 -0.333008 0.522925
v 0.708684 -0.219663 -0.224106
v 0.093684 -0.051982 0.686284
v 1.029153 -0.389971 -0.401450
v 1.216653 -0.381968 -0.501372
v 0.546028 -0.141382 -0.607075
v 0.911418 -0.380654 -1.169341
v 1.422043 -0.356929 -0.632778
v 1.177668 -0.117798 -1.345122
v 0.709465 -0.093604 -1.507700
v 0.434700 0.201440 -1.853716
v -0.075613 0.132646 -1.568013
v 0.180325 0.000186 -1.093638
v -0.075222 0.118306 -0.616685
v 0.579622 -0.285571 -1.161216
v -0.592019 0.243203 -0.720825
v -0.525457 0.088896 -0.268013
v -0.243816 0.118823 0.551909
v -0.640613 0.241543 -0.356138
v -0.596316 0.258120 0.293940
v -1.023191 0.323037 -0.195747
v 1.422043 -0.356929 -0.632778
v 1.624309 0.150190 -0.519653
v 1.684075 0.106455 -0.213716
v 1.216653 -0.381968 -0.501372
v 1.251887 -0.365312 0.123315
v 1.177668 -0.117798 -1.345122
v 1.675403 0.482671 -0.495356
v 1.397512 0.853838 -0.064966
v 1.506653 0.428965 -0.118325
v 1.146340 0.897837 0.224956
v 1.373450 0.481890 0.455269
v 1.038840 0.794419 0.724565
v 1.366887 0.161167 0.564956
v 1.515325 0.243735 0.378315
v 1.438293 -0.065474 0.169644
v 1.549231 0.230874 0.009800
v 1.038450 1.093086 0.007534
v 0.639309 1.140977 0.032065
v 0.904153 1.020220 -0.689966
v 1.335481 0.876929 -0.974497
v 0.914309 0.901313 -1.476138
v 0.109778 1.404858 0.371050
v 0.642356 1.154912 -0.871138
v 0.223293 1.250742 -0.911138
v -0.250457 1.435566 -0.524966
v -0.590222 1.288306 -0.055669
v -0.074285 1.100845 -0.864185
v 0.552747 1.022656 -0.958091
v 0.626731 0.746782 -1.688950
v 0.120637 0.543242 -1.911763
v -0.490144 0.386187 -1.283872
v -0.075613 0.132646 -1.568013
v -0.592019 0.243203 -0.720825
v 0.628762 0.507520 -1.870356
v 1.641340 0.278252 -0.834731
v 0.434700 0.201440 -1.853716
v -1.023191 0.323037 -0.195747
v 0.434700 0.201440 -1.853716
v 1.694153 0.739502 -0.734419
v -1.023191 0.323037 -0.195747
v 1.353215 -0.061055 0.464722
v 0.093684 -0.051982 0.686284
vt 0.912219 0.420881
vt 0.888468 0.435553
vt 0.894816 0.466329
vt 0.857003 0.510076
vt 0.863269 0.462188
vt 0.847394 0.447430
vt 0.927930 0.484467
vt 0.935910 0.445092
vt 0.934397 0.399879
vt 0.972783 0.446706
vt 0.956287 0.508844
vt 0.905109 0.563408
vt 0.878704 0.501689
vt 0.869792 0.573825
vt 0.833121 0.529825
vt 0.950854 0.369110
vt 0.890992 0.363158
vt 0.934911 0.338352
vt 0.908767 0.394035
vt 0.891335 0.386877
vt 0.828234 0.542949
vt 0.793437 0.578742
vt 0.774240 0.556895
vt 0.873395 0.419414
vt 0.852509 0.388099
vt 0.833811 0.338787
vt 0.833074 0.418934
vt 0.883151 0.338537
vt 0.797712 0.295469
vt 0.881309 0.286521
vt 0.805741 0.276174
vt 0.885601 0.254432
vt 0.745408 0.256701
vt 0.812246 0.253060
vt 0.776816 0.185964
vt 0.886562 0.222204
vt 0.737425 0.194401
vt 0.716397 0.196656
vt 0.768014 0.143747
vt 0.700442 0.124744
vt 0.691689 0.198160
vt 0.661883 0.118976
vt 0.694623 0.078428
vt 0.694475 0.023112
vt 0.757013 0.020345
vt 0.765982 0.076974
vt 0.821158 0.096980
vt 0.724999 0.105071
vt 0.859695 0.057254
vt 0.879513 0.101455
vt 0.909768 0.186038
vt 0.887159 0.082732
vt 0.925069 0.139772
vt 0.928399 0.072203
vt 0.624364 0.353225
vt 0.673594 0.374773
vt 0.696993 0.351573
vt 0.626651 0.326480
vt 0.692490 0.281549
vt 0.608469 0.449378
vt 0.696512 0.392004
vt 0.746019 0.398941
vt 0.723603 0.369412
vt 0.776509 0.396189
vt 0.772397 0.352120
vt 0.812841 0.376610
vt 0.775669 0.321580
vt 0.755364 0.333285
vt 0.726703 0.306142
vt 0.723838 0.346104
vt 0.770270 0.420068
vt 0.790430 0.440722
vt 0.739699 0.461383
vt 0.703300 0.451558
vt 0.690620 0.501339
vt 0.830953 0.455878
vt 0.747990 0.483857
vt 0.765987 0.504282
vt 0.806567 0.507816
vt 0.842662 0.507540
vt 0.777190 0.524122
vt 0.739138 0.495598
vt 0.678992 0.532372
vt 0.692325 0.580473
vt 0.769399 0.614043
vt 0.713961 0.633546
vt 0.828690 0.631773
vt 0.652353 0.545492
vt 0.666947 0.407014
vt 0.652657 0.591351
vt 0.900111 0.590597
vt 0.615661 0.549724
vt 0.698494 0.417741
vt 0.922247 0.580091
vt 0.762712 0.303082
vt 0.970832 0.398791
vn -0.438523 -0.033895 0.898080
vn -0.365490 0.436357 0.822198
vn -0.366154 0.555126 0.746837
vn -0.396395 0.903331 0.163901
vn -0.413423 0.689338 0.594890
vn -0.039837 0.921704 0.385843
vn -0.726715 -0.458348 0.511666
vn -0.673627 -0.555844 0.487097
vn -0.331845 -0.566561 0.754246
vn -0.496039 -0.828961 0.258396
vn -0.640326 -0.714313 0.282384
vn -0.939953 -0.139672 0.311415
vn -0.889628 0.332052 0.313534
vn -0.972497 0.139642 -0.186411
vn -0.521659 0.819219 -0.238227
vn -0.317443 -0.808065 0.496247
vn 0.039115 -0.146530 0.988433
vn -0.100944 -0.532457 0.840417
vn -0.060662 -0.069818 0.995714
vn 0.033673 -0.000962 0.999432
vn -0.591736 0.786766 -0.175637
vn -0.823912 0.169436 -0.540796
vn -0.360907 0.730263 -0.580053
vn -0.099963 0.659655 0.744891
vn 0.433450 0.484486 0.759865
vn 0.590449 0.124778 0.797371
vn 0.348274 0.859394 0.374363
vn 0.376703 0.166939 0.911168
vn 0.632052 -0.397174 0.665404
vn -0.100944 -0.532457 0.840417
vn 0.201737 -0.875168 0.439754
vn -0.317443 -0.808065 0.496247
vn 0.414260 -0.883174 0.219985
vn -0.154002 -0.966144 0.207001
vn -0.350131 -0.936650 -0.009734
vn -0.409070 -0.901332 0.142350
vn -0.265645 -0.961786 -0.066339
vn 0.139195 -0.989778 0.031059
vn -0.341242 -0.938800 -0.047004
vn -0.015494 -0.968140 -0.249931
vn 0.668653 -0.731969 -0.130861
vn 0.584188 -0.513170 -0.628793
vn -0.146408 -0.809584 -0.568453
vn 0.034579 -0.519845 -0.853561
vn -0.441813 -0.806859 -0.392147
vn -0.478491 -0.852561 -0.210203
vn -0.394715 -0.904619 -0.160824
vn -0.438614 -0.882968 -0.167286
vn -0.540251 -0.808495 -0.233376
vn -0.491543 -0.855655 -0.161987
vn -0.496039 -0.828961 0.258396
vn -0.408320 -0.904528 -0.122897
vn -0.640326 -0.714313 0.282384
vn -0.807963 -0.587013 0.051115
vn 0.668653 -0.731969 -0.130861
vn 0.943184 -0.272814 -0.189675
vn 0.920168 -0.231056 0.316075
vn 0.139195 -0.989778 0.031059
vn 0.414260 -0.883174 0.219985
vn 0.584188 -0.513170 -0.628793
vn 0.991844 0.068635 0.107405
vn 0.768328 0.407974 0.493182
vn 0.857571 0.367100 0.360292
vn 0.637140 0.685656 0.352035
vn 0.837053 0.405146 0.367694
vn 0.670739 0.485896 0.560369
vn 0.774294 -0.076698 0.628161
vn 0.936735 -0.018732 0.349539
vn 0.880772 -0.354882 0.313528
vn 0.956902 0.151646 0.247672
vn 0.356792 0.924090 0.136960
vn 0.357209 0.923922 0.137001
vn 0.323060 0.913193 -0.248415
vn 0.363151 0.908641 -0.206138
vn 0.363982 0.808637 -0.462195
vn 0.158929 0.973869 0.162238
vn 0.457602 0.788136 -0.411632
vn -0.074243 0.691712 -0.718347
vn -0.273314 0.930789 -0.242759
vn -0.275441 0.958340 0.075608
vn -0.008008 0.910280 -0.413915
vn 0.215547 0.631388 -0.744909
vn 0.310785 0.573779 -0.757753
vn -0.329010 0.142965 -0.933442
vn -0.809413 -0.188979 -0.556001
vn -0.441813 -0.806859 -0.392147
vn -0.540251 -0.808495 -0.233376
vn 0.456266 0.151005 -0.876937
vn 0.832726 -0.045532 -0.551810
vn 0.034579 -0.519845 -0.853561
vn -0.807963 -0.587013 0.051115
vn 0.034579 -0.519845 -0.853561
vn 0.887868 0.436326 -0.145978
vn -0.807963 -0.587013 0.051115
vn 0.796163 -0.448359 0.406324
vn -0.409070 -0.901332 0.142350
usemtl material
f 1/0/1 2/0/2 3/0/3
f 3/0/3 2/0/2 4/0/4
f 2/0/2 5/0/5 4/0/4
f 4/0/4 5/0/5 6/0/6
f 1/0/1 3/0/3 7/0/7
f 1/0/1 7/0/7 8/0/8
f 1/0/1 8/0/8 9/0/9
f 8/0/8 10/0/10 9/0/9
f 7/0/7 10/0/10 8/0/8
f 7/0/7 11/0/11 10/0/10
f 12/0/12 11/0/11 7/0/7
f 7/0/7 13/0/13 12/0/12
f 4/0/4 13/0/13 3/0/3
f 7/0/7 3/0/3 13/0/13
f 13/0/13 4/0/4 14/0/14
f 13/0/13 14/0/14 12/0/12
f 14/0/14 4/0/4 15/0/15
f 10/0/10 16/0/16 9/0/9
f 9/0/9 16/0/16 17/0/17
f 16/0/16 18/0/18 17/0/17
f 9/0/9 17/0/17 19/0/19
f 19/0/19 17/0/17 20/0/20
f 19/0/19 1/0/1 9/0/9
f 14/0/14 15/0/15 21/0/21
f 21/0/21 22/0/22 14/0/14
f 23/0/23 22/0/22 21/0/21
f 19/0/19 20/0/20 2/0/2
f 1/0/1 19/0/19 2/0/2
f 2/0/2 20/0/20 24/0/24
f 24/0/24 20/0/20 25/0/25
f 20/0/20 26/0/26 25/0/25
f 17/0/17 26/0/26 20/0/20
f 24/0/24 5/0/5 2/0/2
f 6/0/6 5/0/5 24/0/24
f 6/0/6 24/0/24 27/0/27
f 27/0/27 24/0/24 25/0/25
f 28/0/28 17/0/17 18/0/18
f 17/0/17 28/0/28 26/0/26
f 26/0/26 28/0/28 29/0/29
f 28/0/28 30/0/30 29/0/29
f 30/0/30 31/0/31 29/0/29
f 31/0/31 30/0/30 32/0/32
f 31/0/31 33/0/33 29/0/29
f 34/0/34 31/0/31 32/0/32
f 34/0/34 33/0/33 31/0/31
f 33/0/33 34/0/34 35/0/35
f 35/0/35 34/0/34 36/0/36
f 36/0/36 34/0/34 32/0/32
f 33/0/33 35/0/35 37/0/37
f 33/0/33 37/0/37 38/0/38
f 37/0/37 39/0/39 38/0/38
f 39/0/39 37/0/37 35/0/35
f 39/0/39 35/0/35 36/0/36
f 40/0/40 38/0/38 39/0/39
f 40/0/40 41/0/41 38/0/38
f 40/0/40 42/0/42 41/0/41
f 42/0/42 40/0/40 43/0/43
f 44/0/44 42/0/42 43/0/43
f 44/0/44 43/0/43 45/0/45
f 45/0/45 43/0/43 46/0/46
f 45/0/45 46/0/46 47/0/47
f 48/0/48 39/0/39 47/0/47
f 48/0/48 47/0/47 46/0/46
f 43/0/43 48/0/48 46/0/46
f 43/0/43 40/0/40 48/0/48
f 48/0/48 40/0/40 39/0/39
f 49/0/49 45/0/45 47/0/47
f 50/0/50 47/0/47 39/0/39
f 50/0/50 39/0/39 51/0/51
f 51/0/51 39/0/39 36/0/36
f 52/0/52 47/0/47 50/0/50
f 49/0/49 47/0/47 52/0/52
f 51/0/51 53/0/53 50/0/50
f 52/0/52 50/0/50 53/0/53
f 52/0/52 53/0/53 54/0/54
f 54/0/54 49/0/49 52/0/52
f 55/0/55 56/0/56 57/0/57
f 58/0/58 55/0/55 57/0/57
f 57/0/57 59/0/59 58/0/58
f 56/0/56 55/0/55 60/0/60
f 57/0/57 56/0/56 61/0/61
f 61/0/61 62/0/62 57/0/57
f 63/0/63 57/0/57 62/0/62
f 62/0/62 64/0/64 63/0/63
f 64/0/64 65/0/65 63/0/63
f 64/0/64 66/0/66 65/0/65
f 66/0/66 67/0/67 65/0/65
f 67/0/67 66/0/66 26/0/26
f 68/0/68 65/0/65 67/0/67
f 68/0/68 67/0/67 69/0/69
f 57/0/57 69/0/69 59/0/59
f 68/0/68 69/0/69 70/0/70
f 70/0/70 69/0/69 57/0/57
f 70/0/70 65/0/65 68/0/68
f 63/0/63 65/0/65 70/0/70
f 57/0/57 63/0/63 70/0/70
f 64/0/64 62/0/62 71/0/71
f 72/0/72 64/0/64 71/0/71
f 72/0/72 71/0/71 73/0/73
f 73/0/73 71/0/71 74/0/74
f 75/0/75 73/0/73 74/0/74
f 64/0/64 72/0/72 27/0/27
f 27/0/27 66/0/66 64/0/64
f 76/0/76 27/0/27 72/0/72
f 77/0/77 76/0/76 72/0/72
f 77/0/77 72/0/72 73/0/73
f 76/0/76 77/0/77 78/0/78
f 78/0/78 79/0/79 76/0/76
f 79/0/79 80/0/80 76/0/76
f 79/0/79 15/0/15 80/0/80
f 15/0/15 79/0/79 78/0/78
f 15/0/15 78/0/78 81/0/81
f 81/0/81 82/0/82 75/0/75
f 81/0/81 78/0/78 82/0/82
f 77/0/77 82/0/82 78/0/78
f 82/0/82 73/0/73 75/0/75
f 82/0/82 77/0/77 73/0/73
f 81/0/81 75/0/75 23/0/23
f 21/0/21 15/0/15 81/0/81
f 21/0/21 81/0/81 23/0/23
f 23/0/23 75/0/75 83/0/83
f 23/0/23 83/0/83 84/0/84
f 85/0/85 23/0/23 84/0/84
f 84/0/84 86/0/86 85/0/85
f 85/0/85 86/0/86 87/0/87
f 87/0/87 14/0/14 85/0/85
f 88/0/88 84/0/84 83/0/83
f 88/0/88 83/0/83 89/0/89
f 60/0/60 88/0/88 89/0/89
f 84/0/84 90/0/90 86/0/86
f 84/0/84 88/0/88 90/0/90
f 87/0/87 91/0/91 14/0/14
f 88/0/88 60/0/60 92/0/92
f 89/0/89 83/0/83 75/0/75
f 75/0/75 93/0/93 89/0/89
f 91/0/91 12/0/12 14/0/14
f 89/0/89 93/0/93 56/0/56
f 60/0/60 89/0/89 56/0/56
f 14/0/14 22/0/22 85/0/85
f 85/0/85 22/0/22 23/0/23
f 93/0/93 75/0/75 74/0/74
f 71/0/71 93/0/93 74/0/74
f 71/0/71 62/0/62 93/0/93
f 61/0/61 56/0/56 93/0/93
f 62/0/62 61/0/61 93/0/93
f 94/0/94 11/0/11 12/0/12
f 95/0/95 33/0/33 69/0/69
f 67/0/67 95/0/95 69/0/69
f 29/0/29 95/0/95 67/0/67
f 95/0/95 29/0/29 33/0/33
f 67/0/67 26/0/26 29/0/29
f 25/0/25 26/0/26 66/0/66
f 27/0/27 25/0/25 66/0/66
f 27/0/27 76/0/76 6/0/6
f 80/0/80 6/0/6 76/0/76
f 4/0/4 6/0/6 80/0/80
f 4/0/4 80/0/80 15/0/15
f 10/0/10 96/0/96 16/0/16
