# 
# Wavefront OBJ file
# Created with Kaydara FBX
# 
mtllib snowfield_stone11.mtl

g Snowfield_stone11
v -0.497049 -0.226670 0.139335
v -0.353452 -0.125409 0.154476
v -0.364501 -0.134250 -0.015584
v -0.511558 -0.205899 -0.027003
v -0.504494 -0.444076 -0.008452
v -0.391530 -0.616078 0.097128
v -0.394064 -0.620886 -0.028138
v -0.099297 -0.782904 -0.017692
v -0.214975 -0.740013 0.187301
v -0.326286 -0.589060 0.202814
v -0.428010 -0.314862 0.180963
v -0.271996 -0.223695 0.166995
v -0.152412 -0.441421 0.198759
v -0.302483 -0.379485 0.180064
v -0.074136 -0.746952 0.175488
v 0.011519 -0.676965 0.155410
v 0.023858 -0.573644 0.173229
v 0.052034 -0.673772 -0.035516
v 0.062548 -0.436280 -0.041545
v 0.003750 -0.233992 0.181255
v -0.009948 -0.169809 -0.009424
v -0.248268 -0.052775 0.023009
v -0.115501 -0.169300 0.187794
v -0.248693 -0.067330 0.116885
v -0.158579 -0.275555 0.202368
v -0.528067 0.548323 0.126308
v -0.803820 0.681999 0.175145
v -0.679161 0.586316 -0.002997
v -0.864704 0.812804 0.123152
v -0.842726 0.810436 0.230836
v -0.835133 0.973756 0.160512
v -0.738527 1.157357 -0.029562
v -0.631446 1.015851 0.215619
v -0.377097 0.988144 0.224217
v -0.593748 0.648096 0.233727
v -0.451886 0.530032 0.003751
v -0.735243 1.176514 0.115771
v -0.458259 1.174311 -0.018281
v -0.525025 1.165467 0.126578
v -0.202741 1.025012 0.175781
v -0.241399 1.083022 0.116707
v -0.673811 1.116974 0.182309
v -0.864713 0.840135 -0.006681
v -0.688510 0.796648 0.249216
v -0.407727 0.683422 0.250480
v -0.347380 0.834521 0.247656
v -0.159290 0.848216 0.172269
v -0.294969 0.631535 0.229727
v -0.348267 0.549343 0.141745
v -0.140574 0.629614 0.148973
v -0.161682 0.595668 0.098262
v -0.078760 0.823331 -0.000703
v -0.243421 1.097888 -0.011983
v -0.075607 0.823365 0.116080
v -0.334989 0.538255 -0.010383
v -0.144634 0.624694 -0.007407
v -1.158824 0.364597 -0.054553
v -1.099530 0.327351 0.136250
v -1.181037 0.532172 0.040418
v -1.181863 0.483495 -0.055905
v -1.103497 0.597642 -0.047746
v -1.002153 0.652597 0.058506
v -0.846878 0.535293 0.153396
v -1.039438 0.258207 -0.032045
v -0.860378 0.293423 -0.001679
v -0.862666 0.400009 0.157236
v -0.936176 0.635339 -0.030440
v -0.766002 0.519828 0.146691
v -0.707991 0.477642 -0.025260
v -0.754561 0.575688 -0.042013
v 0.559036 0.522279 0.138238
v 0.911984 0.792711 0.064340
v 0.673687 0.783997 0.056623
v 0.480539 0.580052 -0.020237
v 0.879456 0.485153 0.165754
v 0.987794 0.386045 0.139320
v 1.022857 0.682033 -0.018794
v 1.038249 0.338242 -0.028951
v 0.576296 0.281623 0.176480
v 0.489492 0.316971 -0.022450
v 0.599011 0.093621 -0.020224
v 0.674255 0.144957 0.163675
v 0.797953 0.318516 0.191813
v 0.850855 0.051830 -0.020486
v 0.983152 0.138027 -0.019896
v 0.925052 0.202044 0.116598
v 0.776322 0.144501 0.158918
v 0.871653 0.311618 0.189345
v 0.702532 0.883553 -0.030923
v 0.891217 0.886410 -0.030485
v 0.983178 0.809862 -0.023071
v -0.725720 -0.432957 0.004333
v -1.001726 -0.606517 -0.013915
v -0.907355 -0.608558 0.211445
v -0.711852 -0.452681 0.138044
v -0.556424 -0.535045 0.166285
v -0.562035 -0.507219 0.003769
v -1.005774 -0.652237 0.138822
v -1.112655 -0.795127 -0.032502
v -1.097316 -0.820738 0.100808
v -1.065969 -0.969620 -0.048805
v -1.091829 -0.998577 0.166029
v -0.993160 -0.753724 0.192905
v -0.827930 -0.705455 0.259623
v -0.596837 -0.729537 0.257935
v -0.745744 -1.028247 0.252345
v -0.975604 -0.891862 0.235882
v -0.710053 -0.541453 0.194650
v -1.078188 -0.828142 0.174757
v -0.811326 -1.090893 0.183469
v -0.978081 -1.021717 -0.048935
v -0.876913 -1.036125 -0.058542
v -0.713284 -1.088201 0.231066
v -0.605601 -1.050557 0.181471
v -0.511263 -0.586483 0.146966
v -0.754012 -1.102027 0.109552
v -0.549997 -0.953384 -0.019439
v -0.770199 -1.101408 -0.056599
v -0.554998 -0.993480 0.100333
v -0.511179 -0.768044 0.000091
v -0.124084 0.959094 0.053854
v 0.053464 1.026200 -0.025106
v 0.062455 1.080833 0.110968
v -0.122588 1.045575 0.118656
v -0.036670 1.274661 0.068999
v -0.176208 1.106870 0.099796
v -0.214628 1.022520 -0.037750
v 0.071752 1.175347 -0.037954
v 0.011883 1.301861 0.044923
v -0.022952 1.322211 -0.031374
v -0.177115 1.222209 -0.005399
v -0.162115 1.197338 0.076575
v -0.136560 0.934970 -0.030311
v -0.852984 -0.122889 -0.027673
v -0.707533 -0.345824 -0.003024
v -0.813386 -0.160870 0.129581
v -0.661975 -0.269743 0.126405
v -0.518276 -0.313449 0.018399
v -0.393739 -0.069073 0.130494
v -0.688121 -0.148077 0.173850
v -0.832258 0.027842 -0.023449
v -0.710004 -0.056002 0.184804
v -0.620953 0.075728 0.152274
v -0.591592 0.124411 -0.007910
v -0.448979 0.043538 0.154098
v -0.430717 -0.252248 -0.030442
v -0.361452 -0.067758 0.000861
v -0.442751 0.059974 -0.002666
vt 0.383275 0.335301
vt 0.413293 0.376319
vt 0.440484 0.347236
vt 0.399949 0.293508
vt 0.326143 0.319770
vt 0.260566 0.371318
vt 0.230600 0.359181
vt 0.199827 0.456238
vt 0.259319 0.426118
vt 0.290370 0.398561
vt 0.357275 0.362019
vt 0.388113 0.399571
vt 0.330912 0.440736
vt 0.342449 0.398383
vt 0.258653 0.456942
vt 0.269838 0.487567
vt 0.304530 0.478829
vt 0.246092 0.526180
vt 0.338372 0.523776
vt 0.393430 0.476819
vt 0.437995 0.498492
vt 0.471681 0.411751
vt 0.407522 0.441893
vt 0.443278 0.404582
vt 0.373579 0.434589
vt 0.692194 0.291554
vt 0.749524 0.205977
vt 0.684186 0.228343
vt 0.792642 0.139053
vt 0.792751 0.195542
vt 0.842934 0.167644
vt 0.930513 0.139443
vt 0.842652 0.243558
vt 0.848309 0.328371
vt 0.738836 0.268726
vt 0.660137 0.325304
vt 0.903003 0.184799
vt 0.938792 0.309092
vt 0.901927 0.278636
vt 0.861571 0.400199
vt 0.897790 0.388041
vt 0.874274 0.225603
vt 0.795767 0.103780
vt 0.786548 0.240810
vt 0.754749 0.316167
vt 0.795857 0.344141
vt 0.793406 0.406788
vt 0.733429 0.357986
vt 0.693847 0.354277
vt 0.729878 0.408825
vt 0.710251 0.417994
vt 0.777311 0.462518
vt 0.925927 0.411687
vt 0.780636 0.437883
vt 0.661924 0.380308
vt 0.706087 0.441861
vt 0.578015 0.053734
vt 0.569381 0.103474
vt 0.639917 0.075198
vt 0.645811 0.044532
vt 0.697198 0.065743
vt 0.682820 0.112906
vt 0.622984 0.152605
vt 0.524813 0.092312
vt 0.536243 0.161678
vt 0.581671 0.153072
vt 0.706792 0.127434
vt 0.617816 0.181188
vt 0.618041 0.220839
vt 0.663771 0.192966
vt 0.677258 0.728051
vt 0.776112 0.852200
vt 0.758185 0.772951
vt 0.688484 0.681609
vt 0.695091 0.820166
vt 0.658769 0.864505
vt 0.743722 0.894099
vt 0.630098 0.905554
vt 0.612073 0.723336
vt 0.598816 0.676577
vt 0.539323 0.715637
vt 0.572591 0.750007
vt 0.632411 0.786421
vt 0.529604 0.822081
vt 0.557710 0.869618
vt 0.585300 0.839033
vt 0.576981 0.785736
vt 0.635009 0.817629
vt 0.792067 0.785361
vt 0.810667 0.846996
vt 0.791538 0.890656
vt 0.346996 0.229399
vt 0.285454 0.100732
vt 0.277358 0.176414
vt 0.305080 0.230303
vt 0.275080 0.273908
vt 0.305717 0.304773
vt 0.253694 0.127668
vt 0.155297 0.063932
vt 0.156830 0.096814
vt 0.075025 0.094897
vt 0.115637 0.139336
vt 0.223887 0.148433
vt 0.243055 0.204916
vt 0.231205 0.263602
vt 0.167612 0.232895
vt 0.177082 0.174621
vt 0.278593 0.231258
vt 0.170306 0.129144
vt 0.124324 0.210902
vt 0.057543 0.118694
vt 0.064193 0.169083
vt 0.152030 0.246733
vt 0.151052 0.275091
vt 0.253225 0.293692
vt 0.107160 0.236404
vt 0.097544 0.323336
vt 0.069202 0.234806
vt 0.144640 0.301195
vt 0.180759 0.346975
vt 0.769159 0.529535
vt 0.776599 0.612499
vt 0.819242 0.588471
vt 0.812963 0.535577
vt 0.884318 0.551964
vt 0.831597 0.508440
vt 0.788274 0.475447
vt 0.866660 0.629959
vt 0.902227 0.570673
vt 0.928483 0.572633
vt 0.898463 0.475830
vt 0.874362 0.496127
vt 0.743945 0.522043
vt 0.434243 0.117389
vt 0.368935 0.176514
vt 0.434346 0.162002
vt 0.403427 0.211318
vt 0.383958 0.262201
vt 0.454978 0.285134
vt 0.438609 0.205415
vt 0.495260 0.138368
vt 0.465994 0.195054
vt 0.503972 0.213362
vt 0.552036 0.225531
vt 0.487907 0.262164
vt 0.399949 0.293508
vt 0.470768 0.329404
vt 0.517522 0.295553
vn -0.774031 0.339040 0.534722
vn -0.374516 0.667679 0.643384
vn -0.523339 0.850066 0.059201
vn -0.836757 0.529607 0.139118
vn -0.909068 -0.278819 0.309605
vn -0.750167 -0.595652 0.287138
vn -0.680379 -0.731665 0.041846
vn 0.116487 -0.990876 0.067788
vn -0.286213 -0.712399 0.640758
vn -0.421181 -0.231753 0.876868
vn -0.415174 -0.044094 0.908673
vn -0.108711 0.184615 0.976780
vn 0.034367 -0.004935 0.999397
vn -0.038629 0.008565 0.999217
vn 0.310235 -0.689964 0.653991
vn 0.751269 -0.426091 0.504025
vn 0.714251 -0.081518 0.695127
vn 0.890696 -0.416559 0.182040
vn 0.986216 0.062310 0.153280
vn 0.667318 0.380828 0.640044
vn 0.749011 0.642346 0.162402
vn -0.076528 0.979427 0.186724
vn 0.243348 0.587622 0.771675
vn 0.015119 0.919404 0.393024
vn -0.032941 0.081349 0.996141
vn -0.175771 -0.920115 0.349990
vn -0.680396 -0.654294 0.330093
vn -0.511758 -0.858220 0.039526
vn -0.987566 -0.157175 -0.003031
vn -0.674178 -0.062197 0.735946
vn -0.839933 0.367814 0.399032
vn -0.597890 0.793794 -0.111440
vn -0.102634 0.220231 0.970033
vn 0.095922 0.321099 0.942175
vn -0.159189 -0.520824 0.838690
vn -0.053484 -0.995586 0.077118
vn -0.481391 0.815614 0.320991
vn 0.186714 0.977118 0.101874
vn 0.133522 0.863233 0.486827
vn 0.599948 0.508160 0.617929
vn 0.518994 0.804545 0.288708
vn -0.162173 0.490968 0.855950
vn -0.998819 -0.047557 -0.009944
vn -0.086406 0.040923 0.995419
vn 0.028832 -0.160969 0.986538
vn 0.089352 0.079552 0.992818
vn 0.485637 0.044915 0.873006
vn 0.247542 -0.439207 0.863609
vn 0.113166 -0.907758 0.403941
vn 0.723477 -0.483113 0.493136
vn 0.616205 -0.781185 0.100209
vn 0.993758 0.110750 -0.013359
vn 0.603638 0.794181 0.069982
vn 0.926350 0.094717 0.364560
vn 0.206925 -0.977587 0.038798
vn 0.789344 -0.612585 -0.040923
vn -0.881982 -0.444560 0.156443
vn -0.467243 -0.489765 0.736080
vn -0.837820 0.370781 0.400724
vn -0.995563 0.087137 -0.035503
vn -0.565725 0.820386 -0.083200
vn -0.151739 0.898276 0.412403
vn 0.020403 0.424500 0.905198
vn -0.244495 -0.924475 0.292519
vn 0.415974 -0.775941 0.474216
vn 0.323848 -0.437120 0.839076
vn 0.226652 0.973231 0.038089
vn 0.675797 0.233094 0.699261
vn 0.938139 -0.081576 0.336513
vn 0.598968 0.757227 0.260470
vn -0.550950 0.234116 0.801027
vn 0.337307 0.487312 0.805451
vn -0.392191 0.546961 0.739607
vn -0.830730 0.279686 0.481314
vn 0.176074 0.226720 0.957912
vn 0.729191 -0.021468 0.683973
vn 0.782422 0.217047 0.583701
vn 0.940715 -0.121658 0.316630
vn -0.584803 -0.171655 0.792805
vn -0.910832 -0.197794 0.362301
vn -0.552987 -0.743169 0.376704
vn -0.270978 -0.611379 0.743497
vn 0.020359 -0.034416 0.999200
vn 0.230846 -0.839521 0.491848
vn 0.679039 -0.535966 0.501644
vn 0.556421 -0.470034 0.685174
vn 0.188712 -0.584177 0.789383
vn 0.200600 -0.226319 0.953173
vn -0.259864 0.690161 0.675387
vn 0.176045 0.719209 0.672121
vn 0.650976 0.442240 0.616972
vn -0.108496 0.976942 0.183880
vn -0.698773 0.690343 0.187465
vn -0.430067 0.556538 0.710850
vn -0.034659 0.893403 0.447917
vn 0.523087 0.639005 0.563962
vn 0.712973 0.701137 0.008728
vn -0.729566 0.544046 0.414425
vn -0.984780 0.125139 0.120618
vn -0.961850 0.197847 0.188949
vn -0.820227 -0.558537 -0.123547
vn -0.748135 -0.528439 0.401305
vn -0.560486 0.275088 0.781142
vn -0.113143 0.222652 0.968310
vn 0.470616 0.054924 0.880627
vn -0.032661 -0.284024 0.958261
vn -0.320145 -0.047344 0.946185
vn 0.019453 0.449681 0.892978
vn -0.749233 0.326407 0.576289
vn -0.258308 -0.895598 0.362191
vn -0.330053 -0.933877 -0.137617
vn -0.288852 -0.951277 -0.107870
vn 0.164988 -0.744725 0.646656
vn 0.673815 -0.648612 0.353944
vn 0.916349 0.258042 0.306137
vn 0.067277 -0.995134 -0.071992
vn 0.834788 -0.539196 -0.111338
vn -0.042991 -0.999075 0.000465
vn 0.858247 -0.509643 0.060625
vn 0.996587 -0.070596 0.042783
vn -0.195226 -0.828750 0.524461
vn 0.760485 -0.624213 0.178942
vn 0.674803 -0.215943 0.705698
vn -0.249064 -0.287056 0.924968
vn -0.249184 0.748454 0.614593
vn -0.688782 0.058533 0.722602
vn -0.883646 -0.302195 0.357558
vn 0.973972 0.211035 0.082719
vn 0.421242 0.799506 0.428188
vn 0.110583 0.971709 0.208692
vn -0.757738 0.566428 0.324024
vn -0.613624 0.464054 0.638842
vn -0.245651 -0.921584 0.300563
vn -0.966819 -0.149093 0.207442
vn -0.363948 -0.812356 0.455654
vn -0.762494 -0.223150 0.607295
vn -0.036602 -0.641882 0.765930
vn 0.411510 -0.661473 0.626988
vn 0.742978 -0.102596 0.661405
vn -0.049180 -0.257510 0.965023
vn -0.733360 0.521468 0.436181
vn -0.339230 0.205717 0.917934
vn -0.165904 0.716497 0.677575
vn -0.024882 0.973571 0.227024
vn 0.502661 0.524708 0.687033
vn 0.733606 -0.526068 0.430203
vn 0.978019 0.032425 0.205979
vn 0.633814 0.766254 0.105521
usemtl material
f 1/0/1 2/0/2 3/0/3
f 1/0/1 3/0/3 4/0/4
f 4/0/4 5/0/5 1/0/1
f 1/0/1 5/0/5 6/0/6
f 7/0/7 6/0/6 5/0/5
f 8/0/8 6/0/6 7/0/7
f 9/0/9 6/0/6 8/0/8
f 10/0/10 6/0/6 9/0/9
f 10/0/10 11/0/11 6/0/6
f 11/0/11 1/0/1 6/0/6
f 11/0/11 2/0/2 1/0/1
f 11/0/11 12/0/12 2/0/2
f 13/0/13 10/0/10 9/0/9
f 10/0/10 13/0/13 14/0/14
f 11/0/11 10/0/10 14/0/14
f 15/0/15 9/0/9 8/0/8
f 9/0/9 15/0/15 13/0/13
f 15/0/15 8/0/8 16/0/16
f 17/0/17 13/0/13 15/0/15
f 15/0/15 16/0/16 17/0/17
f 16/0/16 8/0/8 18/0/18
f 19/0/19 16/0/16 18/0/18
f 16/0/16 19/0/19 17/0/17
f 17/0/17 19/0/19 20/0/20
f 13/0/13 17/0/17 20/0/20
f 20/0/20 19/0/19 21/0/21
f 21/0/21 22/0/22 20/0/20
f 23/0/23 20/0/20 22/0/22
f 22/0/22 24/0/24 23/0/23
f 3/0/3 24/0/24 22/0/22
f 23/0/23 24/0/24 2/0/2
f 3/0/3 2/0/2 24/0/24
f 23/0/23 2/0/2 12/0/12
f 23/0/23 25/0/25 20/0/20
f 25/0/25 13/0/13 20/0/20
f 25/0/25 14/0/14 13/0/13
f 23/0/23 12/0/12 25/0/25
f 25/0/25 12/0/12 11/0/11
f 11/0/11 14/0/14 25/0/25
f 26/0/26 27/0/27 28/0/28
f 27/0/27 29/0/29 28/0/28
f 29/0/29 27/0/27 30/0/30
f 31/0/31 29/0/29 30/0/30
f 32/0/32 29/0/29 31/0/31
f 30/0/30 33/0/33 31/0/31
f 33/0/33 30/0/30 34/0/34
f 27/0/27 26/0/26 35/0/35
f 30/0/30 27/0/27 35/0/35
f 26/0/26 28/0/28 36/0/36
f 31/0/31 37/0/37 32/0/32
f 32/0/32 37/0/37 38/0/38
f 37/0/37 39/0/39 38/0/38
f 39/0/39 34/0/34 40/0/40
f 41/0/41 39/0/39 40/0/40
f 39/0/39 41/0/41 38/0/38
f 42/0/42 34/0/34 39/0/39
f 37/0/37 42/0/42 39/0/39
f 42/0/42 37/0/37 31/0/31
f 42/0/42 31/0/31 33/0/33
f 42/0/42 33/0/33 34/0/34
f 43/0/43 29/0/29 32/0/32
f 28/0/28 29/0/29 43/0/43
f 44/0/44 34/0/34 30/0/30
f 35/0/35 44/0/44 30/0/30
f 44/0/44 45/0/45 34/0/34
f 35/0/35 45/0/45 44/0/44
f 40/0/40 34/0/34 46/0/46
f 34/0/34 45/0/45 46/0/46
f 46/0/46 47/0/47 40/0/40
f 47/0/47 46/0/46 48/0/48
f 35/0/35 48/0/48 45/0/45
f 45/0/45 48/0/48 46/0/46
f 35/0/35 49/0/49 48/0/48
f 48/0/48 49/0/49 50/0/50
f 48/0/48 50/0/50 47/0/47
f 50/0/50 49/0/49 51/0/51
f 52/0/52 50/0/50 51/0/51
f 52/0/52 53/0/53 40/0/40
f 40/0/40 53/0/53 41/0/41
f 38/0/38 41/0/41 53/0/53
f 52/0/52 40/0/40 54/0/54
f 54/0/54 50/0/50 52/0/52
f 47/0/47 54/0/54 40/0/40
f 50/0/50 54/0/54 47/0/47
f 51/0/51 49/0/49 55/0/55
f 36/0/36 55/0/55 49/0/49
f 36/0/36 49/0/49 26/0/26
f 35/0/35 26/0/26 49/0/49
f 51/0/51 55/0/55 56/0/56
f 51/0/51 56/0/56 52/0/52
f 57/0/57 58/0/58 59/0/59
f 59/0/59 60/0/60 57/0/57
f 60/0/60 59/0/59 61/0/61
f 62/0/62 59/0/59 58/0/58
f 62/0/62 61/0/61 59/0/59
f 58/0/58 63/0/63 62/0/62
f 64/0/64 58/0/58 57/0/57
f 58/0/58 64/0/64 65/0/65
f 65/0/65 66/0/66 58/0/58
f 63/0/63 58/0/58 66/0/66
f 61/0/61 62/0/62 67/0/67
f 62/0/62 68/0/68 67/0/67
f 68/0/68 66/0/66 65/0/65
f 62/0/62 63/0/63 68/0/68
f 68/0/68 63/0/63 66/0/66
f 69/0/69 68/0/68 65/0/65
f 70/0/70 67/0/67 68/0/68
f 70/0/70 68/0/68 69/0/69
f 71/0/71 72/0/72 73/0/73
f 71/0/71 73/0/73 74/0/74
f 71/0/71 75/0/75 72/0/72
f 75/0/75 76/0/76 72/0/72
f 72/0/72 76/0/76 77/0/77
f 77/0/77 76/0/76 78/0/78
f 71/0/71 79/0/79 75/0/75
f 74/0/74 79/0/79 71/0/71
f 74/0/74 80/0/80 79/0/79
f 80/0/80 81/0/81 79/0/79
f 82/0/82 79/0/79 81/0/81
f 79/0/79 82/0/82 83/0/83
f 79/0/79 83/0/83 75/0/75
f 84/0/84 82/0/82 81/0/81
f 76/0/76 85/0/85 78/0/78
f 86/0/86 84/0/84 85/0/85
f 76/0/76 86/0/86 85/0/85
f 86/0/86 87/0/87 84/0/84
f 83/0/83 87/0/87 86/0/86
f 82/0/82 87/0/87 83/0/83
f 84/0/84 87/0/87 82/0/82
f 88/0/88 86/0/86 76/0/76
f 75/0/75 88/0/88 76/0/76
f 83/0/83 86/0/86 88/0/88
f 83/0/83 88/0/88 75/0/75
f 89/0/89 74/0/74 73/0/73
f 89/0/89 73/0/73 72/0/72
f 72/0/72 90/0/90 89/0/89
f 90/0/90 72/0/72 91/0/91
f 72/0/72 77/0/77 91/0/91
f 92/0/92 93/0/93 94/0/94
f 92/0/92 94/0/94 95/0/95
f 95/0/95 96/0/96 92/0/92
f 92/0/92 96/0/96 97/0/97
f 94/0/94 93/0/93 98/0/98
f 93/0/93 99/0/99 98/0/98
f 99/0/99 100/0/100 98/0/98
f 100/0/100 99/0/99 101/0/101
f 101/0/101 102/0/102 100/0/100
f 98/0/98 103/0/103 94/0/94
f 103/0/103 98/0/98 100/0/100
f 94/0/94 103/0/103 104/0/104
f 105/0/105 94/0/94 104/0/104
f 104/0/104 106/0/106 105/0/105
f 104/0/104 107/0/107 106/0/106
f 107/0/107 104/0/104 103/0/103
f 106/0/106 107/0/107 102/0/102
f 108/0/108 94/0/94 105/0/105
f 105/0/105 96/0/96 108/0/108
f 95/0/95 108/0/108 96/0/96
f 108/0/108 95/0/95 94/0/94
f 109/0/109 102/0/102 107/0/107
f 102/0/102 109/0/109 100/0/100
f 109/0/109 107/0/107 103/0/103
f 109/0/109 103/0/103 100/0/100
f 110/0/110 106/0/106 102/0/102
f 111/0/111 110/0/110 102/0/102
f 111/0/111 102/0/102 101/0/101
f 112/0/112 110/0/110 111/0/111
f 106/0/106 113/0/113 105/0/105
f 106/0/106 110/0/110 113/0/113
f 105/0/105 113/0/113 114/0/114
f 105/0/105 114/0/114 115/0/115
f 116/0/116 114/0/114 113/0/113
f 110/0/110 112/0/112 116/0/116
f 113/0/113 110/0/110 116/0/116
f 114/0/114 116/0/116 117/0/117
f 116/0/116 118/0/118 117/0/117
f 116/0/116 112/0/112 118/0/118
f 119/0/119 115/0/115 114/0/114
f 119/0/119 114/0/114 117/0/117
f 115/0/115 119/0/119 120/0/120
f 120/0/120 119/0/119 117/0/117
f 115/0/115 120/0/120 97/0/97
f 115/0/115 97/0/97 96/0/96
f 105/0/105 115/0/115 96/0/96
f 121/0/121 122/0/122 123/0/123
f 124/0/124 121/0/121 123/0/123
f 123/0/123 125/0/125 124/0/124
f 125/0/125 126/0/126 124/0/124
f 126/0/126 121/0/121 124/0/124
f 126/0/126 127/0/127 121/0/121
f 123/0/123 122/0/122 128/0/128
f 123/0/123 128/0/128 129/0/129
f 123/0/123 129/0/129 125/0/125
f 130/0/130 129/0/129 128/0/128
f 129/0/129 130/0/130 131/0/131
f 132/0/132 129/0/129 131/0/131
f 127/0/127 132/0/132 131/0/131
f 132/0/132 126/0/126 125/0/125
f 127/0/127 126/0/126 132/0/132
f 132/0/132 125/0/125 129/0/129
f 121/0/121 133/0/133 122/0/122
f 121/0/121 127/0/127 133/0/133
f 134/0/134 135/0/135 136/0/136
f 136/0/136 135/0/135 137/0/137
f 137/0/137 135/0/135 138/0/138
f 139/0/139 137/0/137 138/0/138
f 139/0/139 140/0/140 137/0/137
f 140/0/140 136/0/136 137/0/137
f 141/0/141 134/0/134 136/0/136
f 136/0/136 142/0/142 141/0/141
f 136/0/136 140/0/140 142/0/142
f 142/0/142 143/0/143 141/0/141
f 141/0/141 143/0/143 144/0/144
f 144/0/144 143/0/143 145/0/145
f 145/0/145 143/0/143 142/0/142
f 145/0/145 140/0/140 139/0/139
f 142/0/142 140/0/140 145/0/145
f 138/0/138 146/0/146 139/0/139
f 146/0/146 147/0/147 139/0/139
f 145/0/145 139/0/139 147/0/147
f 147/0/147 148/0/148 145/0/145
f 148/0/148 144/0/144 145/0/145
