# 
# Wavefront OBJ file
# Created with Kaydara FBX
# 
mtllib snowfield_stone_06 #2278806.mtl

g snowfield_Stone_06
v 0.845950 -0.493418 0.046206
v 0.827512 0.400093 -0.027778
v 0.601965 0.416851 0.387065
v 0.887668 0.026372 -0.730278
v 0.355637 -0.532305 -0.852388
v 0.307278 -0.378477 -1.080903
v 0.581184 0.180913 -0.963560
v 0.766262 0.458604 -0.699888
v 0.630168 0.014287 0.590581
v 0.606418 -0.487109 0.531909
v 0.282512 -0.194990 0.974253
v 0.358372 0.095547 0.984878
v -0.269128 0.211973 0.994644
v 0.341809 0.602979 0.282690
v -0.873503 0.214966 0.621753
v -0.677878 -0.408877 0.556206
v 0.783450 0.530957 -0.063247
v -0.109128 0.476841 -0.943560
v -0.794519 0.014526 -1.181294
v -1.054206 0.367881 -0.152466
v -1.096316 -0.275107 -0.205200
v -0.228738 0.455015 0.080112
v -1.140144 0.263892 0.244097
v -0.937800 -0.447212 0.070112
v -0.182253 -0.032700 1.018003
v -0.835769 -0.408228 -0.739575
v -0.937800 -0.447212 0.070112
v -0.256785 -0.510757 -0.554028
v -0.677878 -0.408877 0.556206
v 0.606418 -0.487109 0.531909
v 0.282512 -0.194990 0.974253
v 0.355637 -0.532305 -0.852388
v 0.845950 -0.493418 0.046206
v -0.536082 -0.381284 -1.091997
v 0.307278 -0.378477 -1.080903
v 0.307278 -0.378477 -1.080903
v -0.536082 -0.381284 -1.091997
vt 0.124355 0.633792
vt 0.178220 0.693258
vt 0.213045 0.670756
vt 0.128042 0.737283
vt 0.050523 0.740837
vt 0.059132 0.772492
vt 0.135775 0.781828
vt 0.158611 0.747492
vt 0.210295 0.631202
vt 0.182598 0.590573
vt 0.270662 0.601474
vt 0.257232 0.629146
vt 0.293153 0.667319
vt 0.226128 0.693901
vt 0.321552 0.711793
vt 0.376659 0.685786
vt 0.186904 0.704511
vt 0.209523 0.793558
vt 0.257879 0.854462
vt 0.305349 0.769617
vt 0.355430 0.795982
vt 0.257839 0.727371
vt 0.324385 0.746834
vt 0.383607 0.758631
vt 0.299387 0.648200
vt 0.317946 0.848049
vt 0.389286 0.808965
vt 0.349292 0.897057
vt 0.445649 0.818401
vt 0.484147 0.948817
vt 0.526260 0.896858
vt 0.332473 0.965892
vt 0.440913 0.988199
vt 0.290181 0.883673
vt 0.302861 0.965074
vt 0.139914 0.848652
vt 0.218701 0.882234
vn 0.936445 -0.300049 0.181771
vn 0.959380 0.219472 0.177262
vn 0.763178 0.454648 0.459189
vn 0.878384 -0.135443 -0.458364
vn 0.242570 -0.926326 -0.288237
vn 0.322121 -0.353422 -0.878255
vn 0.362382 0.249188 -0.898101
vn 0.695092 0.582727 -0.421042
vn 0.871247 0.011431 0.490711
vn 0.335636 -0.865653 0.371476
vn 0.297478 -0.348918 0.888686
vn 0.503040 0.389091 0.771724
vn -0.210683 0.298392 0.930900
vn 0.039181 0.960100 0.276899
vn -0.469115 0.729077 0.498375
vn -0.445960 -0.672623 0.590507
vn 0.548069 0.827695 0.120589
vn -0.052081 0.922864 -0.381588
vn -0.503853 0.062863 -0.861499
vn -0.576456 0.813075 -0.081282
vn -0.953469 -0.267877 -0.138345
vn -0.201651 0.976166 0.080232
vn -0.938909 0.016856 0.343751
vn -0.583342 -0.796918 0.156952
vn -0.240801 -0.253025 0.937013
vn -0.537511 -0.792816 -0.287271
vn -0.583342 -0.796918 0.156952
vn -0.080662 -0.996032 -0.037604
vn -0.445960 -0.672623 0.590507
vn 0.335636 -0.865653 0.371476
vn 0.297478 -0.348918 0.888686
vn 0.242570 -0.926326 -0.288237
vn 0.936445 -0.300049 0.181771
vn -0.190630 -0.805928 -0.560482
vn 0.322121 -0.353422 -0.878255
vn 0.322121 -0.353422 -0.878255
vn -0.190630 -0.805928 -0.560482
usemtl material
f 1/0/1 2/0/2 3/0/3
f 4/0/4 2/0/2 1/0/1
f 5/0/5 4/0/4 1/0/1
f 6/0/6 4/0/4 5/0/5
f 7/0/7 4/0/4 6/0/6
f 8/0/8 2/0/2 4/0/4
f 4/0/4 7/0/7 8/0/8
f 1/0/1 3/0/3 9/0/9
f 1/0/1 9/0/9 10/0/10
f 9/0/9 11/0/11 10/0/10
f 9/0/9 12/0/12 11/0/11
f 9/0/9 3/0/3 12/0/12
f 11/0/11 12/0/12 13/0/13
f 12/0/12 14/0/14 13/0/13
f 3/0/3 14/0/14 12/0/12
f 15/0/15 13/0/13 14/0/14
f 16/0/16 13/0/13 15/0/15
f 17/0/17 14/0/14 3/0/3
f 2/0/2 8/0/8 17/0/17
f 2/0/2 17/0/17 3/0/3
f 17/0/17 8/0/8 18/0/18
f 18/0/18 14/0/14 17/0/17
f 18/0/18 8/0/8 7/0/7
f 19/0/19 18/0/18 7/0/7
f 18/0/18 19/0/19 20/0/20
f 21/0/21 20/0/20 19/0/19
f 22/0/22 18/0/18 20/0/20
f 22/0/22 20/0/20 15/0/15
f 18/0/18 22/0/22 14/0/14
f 14/0/14 22/0/22 15/0/15
f 23/0/23 20/0/20 21/0/21
f 16/0/16 15/0/15 23/0/23
f 15/0/15 20/0/20 23/0/23
f 24/0/24 16/0/16 23/0/23
f 23/0/23 21/0/21 24/0/24
f 25/0/25 13/0/13 16/0/16
f 25/0/25 11/0/11 13/0/13
f 11/0/11 25/0/25 16/0/16
f 19/0/19 26/0/26 21/0/21
f 21/0/21 26/0/26 27/0/27
f 26/0/26 28/0/28 27/0/27
f 27/0/27 28/0/28 29/0/29
f 30/0/30 29/0/29 28/0/28
f 30/0/30 31/0/31 29/0/29
f 28/0/28 32/0/32 30/0/30
f 32/0/32 33/0/33 30/0/30
f 32/0/32 28/0/28 34/0/34
f 34/0/34 28/0/28 26/0/26
f 19/0/19 34/0/34 26/0/26
f 34/0/34 35/0/35 32/0/32
f 19/0/19 7/0/7 36/0/36
f 37/0/37 19/0/19 36/0/36
