# 
# Wavefront OBJ file
# Created with Kaydara FBX
# 
mtllib snowfield_stone_05_2.mtl

g snowfield_Stone_05_2
v 0.260950 0.346577 -1.199341
v 0.455325 0.609956 -1.044653
v 0.865325 0.429097 -0.964341
v 1.348840 0.573687 -0.243638
v 0.869622 0.809526 -0.760903
v 0.625090 1.043037 -0.691372
v 0.764543 0.002891 -0.750747
v 0.364075 0.122676 -0.893091
v -0.069519 0.081831 -1.129653
v 0.190325 -0.040146 -0.583403
v 0.587590 -0.141973 -0.378403
v 1.089387 -0.148047 -0.071528
v 1.333606 0.415620 -0.569810
v 1.229387 -0.040728 0.219331
v 1.300090 0.577944 0.193706
v -0.367800 0.172329 -0.873247
v -0.277019 0.595396 -1.100435
v -0.597175 0.243696 -1.057388
v -0.027878 0.396587 -1.192856
v -0.051863 0.661489 -1.268247
v 1.438215 0.516172 0.354565
v 1.079231 0.282554 0.918081
v 1.109700 0.633311 1.080894
v 0.319700 0.861001 -1.135356
v -0.162019 1.055132 -1.056841
v -0.677722 0.875337 -0.783716
v 0.173293 1.205938 -0.706216
v -0.493972 0.658760 -1.135825
v -1.060144 0.610967 -0.544810
v -0.597175 0.243696 -1.057388
v -1.037488 0.403574 -0.524106
v -0.367800 0.172329 -0.873247
v -1.228269 0.452441 0.049097
v -0.909832 0.221504 -0.401138
v -0.663582 0.240869 0.319878
v -0.197097 0.025405 -0.665513
v -0.995535 0.291470 0.544487
v -1.126472 0.407622 0.664956
v -0.436707 0.200718 0.675034
v -0.793582 0.216089 1.290815
v -1.257644 0.547690 0.817769
v -0.826628 0.582769 1.478940
v -0.417957 0.321128 1.583394
v 0.021106 0.389287 1.874487
v 0.348372 0.035396 1.535972
v 0.002903 0.089023 1.104722
v 0.212200 0.040103 0.594487
v -0.474519 0.095444 1.237612
v 0.711028 -0.168413 0.628550
v 0.506418 -0.245332 0.198003
v 0.190325 -0.040146 -0.583403
v 0.699934 -0.192520 0.261597
v 0.587590 -0.141973 -0.378403
v 1.031106 -0.351748 0.052378
v -1.257644 0.547690 0.817769
v -1.133894 1.077485 0.695815
v -1.248347 1.083047 0.402612
v -1.126472 0.407622 0.664956
v -1.228269 0.452441 0.049097
v -0.826628 0.582769 1.478940
v -0.981394 1.375620 0.655737
v -0.598582 1.516069 0.171909
v -0.929363 1.238491 0.265815
v -0.411550 1.407036 -0.147700
v -0.868816 1.211465 -0.321763
v -0.453972 1.268340 -0.648481
v -1.067722 0.951484 -0.409966
v -1.112097 1.103003 -0.212935
v -1.205613 0.805107 0.005190
v -1.097332 1.106641 0.156909
v -0.181160 1.496191 0.042222
v 0.161418 1.297866 -0.032153
v -0.024207 1.346143 0.722300
v -0.413894 1.482520 1.064487
v 0.002668 1.243398 1.510503
v 0.693215 1.200962 -0.447856
v 0.287981 1.295762 0.862300
v 0.683450 1.123008 0.846284
v 1.117825 0.996499 0.395737
v 1.238293 0.684048 -0.099497
v 0.825247 0.826436 0.774722
v 0.292825 1.134697 0.946597
v 0.168762 0.944585 1.697769
v 0.480872 0.476401 1.872456
v 0.789934 -0.002368 1.189018
v 0.348372 0.035396 1.535972
v 0.711028 -0.168413 0.628550
v 0.049934 0.750410 1.893550
v -1.029675 1.185327 1.001440
v 0.021106 0.389287 1.874487
v 1.031106 -0.351748 0.052378
v 0.021106 0.389287 1.874487
v -0.812566 1.589253 0.877690
v 1.031106 -0.351748 0.052378
v -1.174832 0.763057 -0.297544
v -0.197097 0.025405 -0.665513
vt 0.912219 0.420881
vt 0.888468 0.435553
vt 0.894816 0.466329
vt 0.857003 0.510076
vt 0.863269 0.462188
vt 0.847394 0.447430
vt 0.927930 0.484467
vt 0.935910 0.445092
vt 0.934397 0.399879
vt 0.972783 0.446706
vt 0.956287 0.508844
vt 0.905109 0.563408
vt 0.878704 0.501689
vt 0.869792 0.573825
vt 0.833121 0.529825
vt 0.950854 0.369110
vt 0.890992 0.363158
vt 0.934911 0.338352
vt 0.908767 0.394035
vt 0.891335 0.386877
vt 0.828234 0.542949
vt 0.793437 0.578742
vt 0.774240 0.556895
vt 0.873395 0.419414
vt 0.852509 0.388099
vt 0.833811 0.338787
vt 0.833074 0.418934
vt 0.883151 0.338537
vt 0.797712 0.295469
vt 0.881309 0.286521
vt 0.805741 0.276174
vt 0.885601 0.254432
vt 0.745408 0.256701
vt 0.812246 0.253060
vt 0.776816 0.185964
vt 0.886562 0.222204
vt 0.737425 0.194401
vt 0.716397 0.196656
vt 0.768014 0.143747
vt 0.700442 0.124744
vt 0.691689 0.198160
vt 0.661883 0.118976
vt 0.694623 0.078428
vt 0.694475 0.023112
vt 0.757013 0.020345
vt 0.765982 0.076974
vt 0.821158 0.096980
vt 0.724999 0.105071
vt 0.859695 0.057254
vt 0.879513 0.101455
vt 0.909768 0.186038
vt 0.887159 0.082732
vt 0.925069 0.139772
vt 0.928399 0.072203
vt 0.624364 0.353225
vt 0.673594 0.374773
vt 0.696993 0.351573
vt 0.626651 0.326480
vt 0.692490 0.281549
vt 0.608469 0.449378
vt 0.696512 0.392004
vt 0.746019 0.398941
vt 0.723603 0.369412
vt 0.776509 0.396189
vt 0.772397 0.352120
vt 0.812841 0.376610
vt 0.775669 0.321580
vt 0.755364 0.333285
vt 0.726703 0.306142
vt 0.723838 0.346104
vt 0.770270 0.420068
vt 0.790430 0.440722
vt 0.739699 0.461383
vt 0.703300 0.451558
vt 0.690620 0.501339
vt 0.830953 0.455878
vt 0.747990 0.483857
vt 0.765987 0.504282
vt 0.806567 0.507816
vt 0.842662 0.507540
vt 0.777190 0.524122
vt 0.739138 0.495598
vt 0.678992 0.532372
vt 0.692325 0.580473
vt 0.769399 0.614043
vt 0.713961 0.633546
vt 0.828690 0.631773
vt 0.652353 0.545492
vt 0.666947 0.407014
vt 0.652657 0.591351
vt 0.900111 0.590597
vt 0.615661 0.549724
vt 0.698494 0.417741
vt 0.922247 0.580091
vt 0.762712 0.303082
vt 0.970832 0.398791
vn 0.208691 -0.272854 -0.939148
vn 0.438629 0.147368 -0.886503
vn 0.519424 0.241201 -0.819769
vn 0.827235 0.493411 -0.268753
vn 0.656667 0.318464 -0.683644
vn 0.524740 0.723839 -0.448001
vn 0.238833 -0.791890 -0.562022
vn 0.142272 -0.839133 -0.524990
vn -0.171705 -0.640119 -0.748842
vn -0.129806 -0.956996 -0.259441
vn 0.049521 -0.950179 -0.307745
vn 0.623582 -0.665777 -0.409740
vn 0.862019 -0.256563 -0.437148
vn 0.881128 -0.468897 0.061232
vn 0.930980 0.344590 0.120556
vn -0.291360 -0.830052 -0.475524
vn -0.249941 -0.077992 -0.965115
vn -0.346773 -0.474009 -0.809360
vn -0.126206 -0.075501 -0.989127
vn -0.161062 0.035994 -0.986288
vn 0.959179 0.277893 0.052454
vn 0.827937 -0.362566 0.427863
vn 0.796257 0.362889 0.484031
vn 0.369686 0.483431 -0.793490
vn -0.160188 0.659903 -0.734076
vn -0.502669 0.464645 -0.728991
vn 0.180693 0.904239 -0.386912
vn -0.322933 0.373401 -0.869647
vn -0.826551 0.067512 -0.558798
vn -0.346773 -0.474009 -0.809360
vn -0.736489 -0.576353 -0.354120
vn -0.291360 -0.830052 -0.475524
vn -0.880891 -0.460152 -0.110864
vn -0.476104 -0.864848 -0.159258
vn -0.273649 -0.961346 0.030508
vn -0.226236 -0.965433 -0.129448
vn -0.348143 -0.932285 0.098184
vn -0.699785 -0.712524 0.051083
vn -0.277006 -0.958415 0.068624
vn -0.526345 -0.791783 0.309904
vn -0.946986 -0.193254 0.256654
vn -0.683880 -0.075891 0.725637
vn -0.285888 -0.747457 0.599646
vn -0.220513 -0.411709 0.884234
vn -0.072855 -0.917898 0.390070
vn -0.095022 -0.973395 0.208503
vn -0.199040 -0.964625 0.172861
vn -0.150457 -0.973420 0.172674
vn -0.016750 -0.975063 0.221294
vn -0.092918 -0.982832 0.159399
vn -0.129806 -0.956996 -0.259441
vn -0.193237 -0.972003 0.133676
vn 0.049521 -0.950179 -0.307745
vn 0.289050 -0.951348 -0.106706
vn -0.946986 -0.193254 0.256654
vn -0.886190 0.338099 0.316790
vn -0.910863 0.366470 -0.189809
vn -0.699785 -0.712524 0.051083
vn -0.880891 -0.460152 -0.110864
vn -0.683880 -0.075891 0.725637
vn -0.762871 0.646527 0.005541
vn -0.436136 0.792966 -0.425429
vn -0.513508 0.810921 -0.280563
vn -0.148795 0.935880 -0.319357
vn -0.475693 0.829439 -0.292826
vn -0.321441 0.798736 -0.508622
vn -0.745349 0.409099 -0.526396
vn -0.803050 0.547586 -0.235074
vn -0.952354 0.243454 -0.183718
vn -0.704784 0.694851 -0.143045
vn 0.243908 0.957338 -0.154959
vn 0.243471 0.957453 -0.154939
vn 0.315860 0.922068 0.223657
vn 0.275619 0.942947 0.186776
vn 0.250118 0.858745 0.447211
vn 0.427352 0.880176 -0.206543
vn 0.156760 0.898758 0.409464
vn 0.563922 0.499966 0.657287
vn 0.799946 0.581830 0.146835
vn 0.775328 0.608053 -0.170699
vn 0.599660 0.720168 0.348950
vn 0.301285 0.623270 0.721639
vn 0.193194 0.633346 0.749366
vn 0.471103 -0.096264 0.876810
vn 0.606636 -0.642368 0.468354
vn -0.072855 -0.917898 0.390070
vn -0.016750 -0.975063 0.221294
vn -0.156431 0.377910 0.912531
vn -0.615559 0.449109 0.647602
vn -0.220513 -0.411709 0.884234
vn 0.289050 -0.951348 -0.106706
vn -0.220513 -0.411709 0.884234
vn -0.428975 0.876101 0.220061
vn 0.289050 -0.951348 -0.106706
vn -0.952696 0.119563 -0.279419
vn -0.226236 -0.965433 -0.129448
usemtl material
f 1/0/1 2/0/2 3/0/3
f 3/0/3 2/0/2 4/0/4
f 2/0/2 5/0/5 4/0/4
f 4/0/4 5/0/5 6/0/6
f 1/0/1 3/0/3 7/0/7
f 1/0/1 7/0/7 8/0/8
f 1/0/1 8/0/8 9/0/9
f 8/0/8 10/0/10 9/0/9
f 7/0/7 10/0/10 8/0/8
f 7/0/7 11/0/11 10/0/10
f 12/0/12 11/0/11 7/0/7
f 7/0/7 13/0/13 12/0/12
f 4/0/4 13/0/13 3/0/3
f 7/0/7 3/0/3 13/0/13
f 13/0/13 4/0/4 14/0/14
f 13/0/13 14/0/14 12/0/12
f 14/0/14 4/0/4 15/0/15
f 10/0/10 16/0/16 9/0/9
f 9/0/9 16/0/16 17/0/17
f 16/0/16 18/0/18 17/0/17
f 9/0/9 17/0/17 19/0/19
f 19/0/19 17/0/17 20/0/20
f 19/0/19 1/0/1 9/0/9
f 14/0/14 15/0/15 21/0/21
f 21/0/21 22/0/22 14/0/14
f 23/0/23 22/0/22 21/0/21
f 19/0/19 20/0/20 2/0/2
f 1/0/1 19/0/19 2/0/2
f 2/0/2 20/0/20 24/0/24
f 24/0/24 20/0/20 25/0/25
f 20/0/20 26/0/26 25/0/25
f 17/0/17 26/0/26 20/0/20
f 24/0/24 5/0/5 2/0/2
f 6/0/6 5/0/5 24/0/24
f 6/0/6 24/0/24 27/0/27
f 27/0/27 24/0/24 25/0/25
f 28/0/28 17/0/17 18/0/18
f 17/0/17 28/0/28 26/0/26
f 26/0/26 28/0/28 29/0/29
f 28/0/28 30/0/30 29/0/29
f 30/0/30 31/0/31 29/0/29
f 31/0/31 30/0/30 32/0/32
f 31/0/31 33/0/33 29/0/29
f 34/0/34 31/0/31 32/0/32
f 34/0/34 33/0/33 31/0/31
f 33/0/33 34/0/34 35/0/35
f 35/0/35 34/0/34 36/0/36
f 36/0/36 34/0/34 32/0/32
f 33/0/33 35/0/35 37/0/37
f 33/0/33 37/0/37 38/0/38
f 37/0/37 39/0/39 38/0/38
f 39/0/39 37/0/37 35/0/35
f 39/0/39 35/0/35 36/0/36
f 40/0/40 38/0/38 39/0/39
f 40/0/40 41/0/41 38/0/38
f 40/0/40 42/0/42 41/0/41
f 42/0/42 40/0/40 43/0/43
f 44/0/44 42/0/42 43/0/43
f 44/0/44 43/0/43 45/0/45
f 45/0/45 43/0/43 46/0/46
f 45/0/45 46/0/46 47/0/47
f 48/0/48 39/0/39 47/0/47
f 48/0/48 47/0/47 46/0/46
f 43/0/43 48/0/48 46/0/46
f 43/0/43 40/0/40 48/0/48
f 48/0/48 40/0/40 39/0/39
f 49/0/49 45/0/45 47/0/47
f 50/0/50 47/0/47 39/0/39
f 50/0/50 39/0/39 51/0/51
f 51/0/51 39/0/39 36/0/36
f 52/0/52 47/0/47 50/0/50
f 49/0/49 47/0/47 52/0/52
f 51/0/51 53/0/53 50/0/50
f 52/0/52 50/0/50 53/0/53
f 52/0/52 53/0/53 54/0/54
f 54/0/54 49/0/49 52/0/52
f 55/0/55 56/0/56 57/0/57
f 58/0/58 55/0/55 57/0/57
f 57/0/57 59/0/59 58/0/58
f 56/0/56 55/0/55 60/0/60
f 57/0/57 56/0/56 61/0/61
f 61/0/61 62/0/62 57/0/57
f 63/0/63 57/0/57 62/0/62
f 62/0/62 64/0/64 63/0/63
f 64/0/64 65/0/65 63/0/63
f 64/0/64 66/0/66 65/0/65
f 66/0/66 67/0/67 65/0/65
f 67/0/67 66/0/66 26/0/26
f 68/0/68 65/0/65 67/0/67
f 68/0/68 67/0/67 69/0/69
f 57/0/57 69/0/69 59/0/59
f 68/0/68 69/0/69 70/0/70
f 70/0/70 69/0/69 57/0/57
f 70/0/70 65/0/65 68/0/68
f 63/0/63 65/0/65 70/0/70
f 57/0/57 63/0/63 70/0/70
f 64/0/64 62/0/62 71/0/71
f 72/0/72 64/0/64 71/0/71
f 72/0/72 71/0/71 73/0/73
f 73/0/73 71/0/71 74/0/74
f 75/0/75 73/0/73 74/0/74
f 64/0/64 72/0/72 27/0/27
f 27/0/27 66/0/66 64/0/64
f 76/0/76 27/0/27 72/0/72
f 77/0/77 76/0/76 72/0/72
f 77/0/77 72/0/72 73/0/73
f 76/0/76 77/0/77 78/0/78
f 78/0/78 79/0/79 76/0/76
f 79/0/79 80/0/80 76/0/76
f 79/0/79 15/0/15 80/0/80
f 15/0/15 79/0/79 78/0/78
f 15/0/15 78/0/78 81/0/81
f 81/0/81 82/0/82 75/0/75
f 81/0/81 78/0/78 82/0/82
f 77/0/77 82/0/82 78/0/78
f 82/0/82 73/0/73 75/0/75
f 82/0/82 77/0/77 73/0/73
f 81/0/81 75/0/75 23/0/23
f 21/0/21 15/0/15 81/0/81
f 21/0/21 81/0/81 23/0/23
f 23/0/23 75/0/75 83/0/83
f 23/0/23 83/0/83 84/0/84
f 85/0/85 23/0/23 84/0/84
f 84/0/84 86/0/86 85/0/85
f 85/0/85 86/0/86 87/0/87
f 87/0/87 14/0/14 85/0/85
f 88/0/88 84/0/84 83/0/83
f 88/0/88 83/0/83 89/0/89
f 60/0/60 88/0/88 89/0/89
f 84/0/84 90/0/90 86/0/86
f 84/0/84 88/0/88 90/0/90
f 87/0/87 91/0/91 14/0/14
f 88/0/88 60/0/60 92/0/92
f 89/0/89 83/0/83 75/0/75
f 75/0/75 93/0/93 89/0/89
f 91/0/91 12/0/12 14/0/14
f 89/0/89 93/0/93 56/0/56
f 60/0/60 89/0/89 56/0/56
f 14/0/14 22/0/22 85/0/85
f 85/0/85 22/0/22 23/0/23
f 93/0/93 75/0/75 74/0/74
f 71/0/71 93/0/93 74/0/74
f 71/0/71 62/0/62 93/0/93
f 61/0/61 56/0/56 93/0/93
f 62/0/62 61/0/61 93/0/93
f 94/0/94 11/0/11 12/0/12
f 95/0/95 33/0/33 69/0/69
f 67/0/67 95/0/95 69/0/69
f 29/0/29 95/0/95 67/0/67
f 95/0/95 29/0/29 33/0/33
f 67/0/67 26/0/26 29/0/29
f 25/0/25 26/0/26 66/0/66
f 27/0/27 25/0/25 66/0/66
f 27/0/27 76/0/76 6/0/6
f 80/0/80 6/0/6 76/0/76
f 4/0/4 6/0/6 80/0/80
f 4/0/4 80/0/80 15/0/15
f 10/0/10 96/0/96 16/0/16
