# 
# Wavefront OBJ file
# Created with Kaydara FBX
# 
mtllib snowfield_stone_05_6.mtl

g snowfield_Stone_05_6
v -0.005208 0.002204 0.003130
v -0.004791 0.003806 0.002338
v -0.005802 0.003756 0.000265
v -0.004003 0.005333 -0.003498
v -0.004525 0.005531 0.000228
v -0.003292 0.006140 0.001308
v -0.005162 0.001553 -0.000650
v -0.004505 0.001340 0.001479
v -0.004334 0.000316 0.003766
v -0.002957 0.000220 0.000960
v -0.003328 0.000507 -0.001316
v -0.003453 0.001441 -0.004144
v -0.005486 0.004584 -0.002710
v -0.002518 0.002198 -0.005378
v -0.002075 0.005231 -0.004614
v -0.002360 0.000141 0.004270
v -0.003031 0.002310 0.005258
v -0.002400 0.000037 0.005800
v -0.004330 0.001873 0.004283
v -0.004255 0.003069 0.005009
v -0.001869 0.005202 -0.005713
v 0.001140 0.003373 -0.006397
v 0.002143 0.005063 -0.006458
v -0.004490 0.004720 0.003511
v -0.002617 0.004682 0.005402
v -0.000303 0.002817 0.006263
v -0.001920 0.006020 0.003316
v -0.002506 0.002184 0.006284
v 0.001405 0.000819 0.006590
v -0.002400 0.000037 0.005800
v 0.001180 -0.000108 0.006122
v -0.002360 0.000141 0.004270
v 0.004107 -0.000287 0.005207
v 0.001115 -0.000717 0.004989
v 0.003415 -0.000190 0.001931
v -0.002154 -0.000225 0.002775
v 0.005304 -0.000616 0.002596
v 0.006295 -0.000336 0.002912
v 0.004199 0.000044 -0.000052
v 0.007715 -0.000619 -0.000516
v 0.007446 0.000053 0.003169
v 0.009014 0.001019 -0.000387
v 0.008009 0.000588 -0.002652
v 0.008079 0.001747 -0.005081
v 0.005374 0.000752 -0.005856
v 0.004620 0.000354 -0.003175
v 0.001900 0.000566 -0.002519
v 0.006479 -0.000557 -0.001753
v 0.000423 0.000563 -0.004834
v -0.000870 -0.000170 -0.002890
v -0.002957 0.000220 0.000960
v -0.001077 0.000452 -0.003732
v -0.003328 0.000507 -0.001316
v -0.003031 0.000367 -0.004608
v 0.007446 0.000053 0.003169
v 0.007243 0.002780 0.003883
v 0.006364 0.002600 0.005201
v 0.006295 -0.000336 0.002912
v 0.004107 -0.000287 0.005207
v 0.009014 0.001019 -0.000387
v 0.007019 0.004474 0.003885
v 0.004159 0.005908 0.004097
v 0.005117 0.003958 0.004641
v 0.002208 0.005784 0.004175
v 0.002514 0.003986 0.006126
v 0.000109 0.005083 0.005618
v 0.002386 0.002388 0.006742
v 0.003495 0.002997 0.006555
v 0.004287 0.001408 0.005797
v 0.004973 0.003020 0.005400
v 0.002461 0.006639 0.002872
v 0.000981 0.006386 0.001489
v 0.004635 0.006202 0.000012
v 0.007266 0.006058 0.000678
v 0.007664 0.005726 -0.002603
v -0.002292 0.006997 0.000566
v 0.004292 0.006568 -0.001667
v 0.002937 0.006534 -0.003385
v -0.000248 0.006819 -0.003880
v -0.002978 0.005624 -0.003339
v 0.001901 0.005429 -0.004166
v 0.004431 0.005819 -0.002186
v 0.007617 0.004642 -0.004254
v 0.006917 0.003052 -0.006682
v 0.002700 0.001459 -0.006551
v 0.005374 0.000752 -0.005856
v 0.000423 0.000563 -0.004834
v 0.008511 0.003490 -0.004689
v 0.008338 0.003469 0.002741
v 0.008079 0.001747 -0.005081
v -0.003031 0.000367 -0.004608
v 0.008079 0.001747 -0.005081
v 0.007721 0.005789 0.002911
v -0.003031 0.000367 -0.004608
v 0.002914 0.001291 0.006521
v -0.002154 -0.000225 0.002775
vt 0.912219 0.420881
vt 0.888468 0.435553
vt 0.894816 0.466329
vt 0.857003 0.510076
vt 0.863269 0.462188
vt 0.847394 0.447430
vt 0.927930 0.484467
vt 0.935910 0.445092
vt 0.934397 0.399879
vt 0.972783 0.446706
vt 0.956287 0.508844
vt 0.905109 0.563408
vt 0.878704 0.501689
vt 0.869792 0.573825
vt 0.833121 0.529825
vt 0.950854 0.369110
vt 0.890992 0.363158
vt 0.934911 0.338352
vt 0.908767 0.394035
vt 0.891335 0.386877
vt 0.828234 0.542949
vt 0.793437 0.578742
vt 0.774240 0.556895
vt 0.873395 0.419414
vt 0.852509 0.388099
vt 0.833811 0.338787
vt 0.833074 0.418934
vt 0.883151 0.338537
vt 0.797712 0.295469
vt 0.881309 0.286521
vt 0.805741 0.276174
vt 0.885601 0.254432
vt 0.745408 0.256701
vt 0.812246 0.253060
vt 0.776816 0.185964
vt 0.886562 0.222204
vt 0.737425 0.194401
vt 0.716397 0.196656
vt 0.768014 0.143747
vt 0.700442 0.124744
vt 0.691689 0.198160
vt 0.661883 0.118976
vt 0.694623 0.078428
vt 0.694475 0.023112
vt 0.757013 0.020345
vt 0.765982 0.076974
vt 0.821158 0.096980
vt 0.724999 0.105071
vt 0.859695 0.057254
vt 0.879513 0.101455
vt 0.909768 0.186038
vt 0.887159 0.082732
vt 0.925069 0.139772
vt 0.928399 0.072203
vt 0.624364 0.353225
vt 0.673594 0.374773
vt 0.696993 0.351573
vt 0.626651 0.326480
vt 0.692490 0.281549
vt 0.608469 0.449378
vt 0.696512 0.392004
vt 0.746019 0.398941
vt 0.723603 0.369412
vt 0.776509 0.396189
vt 0.772397 0.352120
vt 0.812841 0.376610
vt 0.775669 0.321580
vt 0.755364 0.333285
vt 0.726703 0.306142
vt 0.723838 0.346104
vt 0.770270 0.420068
vt 0.790430 0.440722
vt 0.739699 0.461383
vt 0.703300 0.451558
vt 0.690620 0.501339
vt 0.830953 0.455878
vt 0.747990 0.483857
vt 0.765987 0.504282
vt 0.806567 0.507816
vt 0.842662 0.507540
vt 0.777190 0.524122
vt 0.739138 0.495598
vt 0.678992 0.532372
vt 0.692325 0.580473
vt 0.769399 0.614043
vt 0.713961 0.633546
vt 0.828690 0.631773
vt 0.652353 0.545492
vt 0.666947 0.407014
vt 0.652657 0.591351
vt 0.900111 0.590597
vt 0.615661 0.549724
vt 0.698494 0.417741
vt 0.922247 0.580091
vt 0.762712 0.303082
vt 0.970832 0.398791
vn -0.935667 -0.159916 0.314570
vn -0.918065 0.315799 0.239641
vn -0.885652 0.432714 0.168463
vn -0.547399 0.777415 -0.309806
vn -0.831624 0.555264 0.009097
vn -0.474212 0.875552 0.092367
vn -0.770117 -0.631724 -0.088570
vn -0.699201 -0.712988 -0.052591
vn -0.663256 -0.647721 0.374898
vn -0.365601 -0.929840 -0.041624
vn -0.499901 -0.853827 -0.145180
vn -0.825239 -0.368874 -0.427683
vn -0.879477 0.100932 -0.465115
vn -0.537542 -0.093631 -0.838022
vn -0.324263 0.675401 -0.662334
vn -0.422785 -0.872394 0.245318
vn -0.662736 -0.156646 0.732286
vn -0.578254 -0.561232 0.592149
vn -0.748401 -0.106351 0.654664
vn -0.700915 -0.016958 0.713043
vn -0.410263 0.625562 -0.663594
vn -0.187596 -0.020472 -0.982033
vn 0.046381 0.635945 -0.770340
vn -0.726252 0.598148 0.338788
vn -0.350223 0.555951 0.753831
vn -0.207209 0.243700 0.947457
vn -0.196319 0.908605 0.368641
vn -0.439488 0.230516 0.868166
vn 0.011361 -0.249629 0.968275
vn -0.578254 -0.561232 0.592149
vn -0.024235 -0.811417 0.583966
vn -0.422785 -0.872394 0.245318
vn 0.277704 -0.762825 0.583934
vn -0.075786 -0.979551 0.186379
vn -0.054758 -0.992819 -0.106354
vn -0.210514 -0.976375 -0.048733
vn 0.047018 -0.995548 -0.081691
vn 0.250953 -0.927800 0.276061
vn -0.021472 -0.991870 -0.125427
vn 0.347499 -0.937186 -0.030441
vn 0.673297 -0.546511 0.497992
vn 0.937585 -0.342465 0.060430
vn 0.462017 -0.807088 -0.367628
vn 0.735876 -0.475561 -0.482005
vn 0.137367 -0.879668 -0.455318
vn -0.010395 -0.937220 -0.348584
vn 0.019104 -0.968802 -0.247099
vn -0.009379 -0.958182 -0.286005
vn -0.042757 -0.908736 -0.415175
vn -0.053416 -0.944521 -0.324078
vn -0.365601 -0.929840 -0.041624
vn -0.017419 -0.972897 -0.230581
vn -0.499901 -0.853827 -0.145180
vn -0.467268 -0.764988 -0.443232
vn 0.673297 -0.546511 0.497992
vn 0.814622 -0.033568 0.579020
vn 0.425566 -0.010778 0.904863
vn 0.250953 -0.927800 0.276061
vn 0.277704 -0.762825 0.583934
vn 0.937585 -0.342465 0.060430
vn 0.569553 0.302300 0.764345
vn 0.079592 0.568592 0.818761
vn 0.242630 0.553574 0.796672
vn 0.043761 0.809946 0.584870
vn 0.216670 0.585386 0.781267
vn -0.048204 0.619142 0.783798
vn 0.074400 0.096437 0.992555
vn 0.373572 0.198436 0.906128
vn 0.423825 -0.140344 0.894805
vn 0.429601 0.371076 0.823253
vn -0.030616 0.979161 0.200765
vn -0.030337 0.979098 0.201115
vn 0.227909 0.969782 -0.087068
vn 0.224807 0.973976 -0.028860
vn 0.428991 0.883308 -0.189032
vn -0.189642 0.979321 0.070467
vn 0.458417 0.884687 -0.084754
vn 0.344245 0.670741 -0.656964
vn -0.176150 0.843443 -0.507519
vn -0.413066 0.861986 -0.293865
vn 0.127998 0.891410 -0.434747
vn 0.567283 0.682464 -0.460904
vn 0.650465 0.649751 -0.393343
vn 0.430721 0.082213 -0.898733
vn -0.101460 -0.364431 -0.925687
vn 0.137367 -0.879668 -0.455318
vn -0.042757 -0.908736 -0.415175
vn 0.910769 0.277312 -0.305938
vn 0.961763 0.169190 0.215374
vn 0.735876 -0.475561 -0.482005
vn -0.467268 -0.764988 -0.443232
vn 0.735876 -0.475561 -0.482005
vn 0.616629 0.640246 0.458099
vn -0.467268 -0.764988 -0.443232
vn 0.317439 -0.253621 0.913733
vn -0.210514 -0.976375 -0.048733
usemtl material
f 1/0/1 2/0/2 3/0/3
f 3/0/3 2/0/2 4/0/4
f 2/0/2 5/0/5 4/0/4
f 4/0/4 5/0/5 6/0/6
f 1/0/1 3/0/3 7/0/7
f 1/0/1 7/0/7 8/0/8
f 1/0/1 8/0/8 9/0/9
f 8/0/8 10/0/10 9/0/9
f 7/0/7 10/0/10 8/0/8
f 7/0/7 11/0/11 10/0/10
f 12/0/12 11/0/11 7/0/7
f 7/0/7 13/0/13 12/0/12
f 4/0/4 13/0/13 3/0/3
f 7/0/7 3/0/3 13/0/13
f 13/0/13 4/0/4 14/0/14
f 13/0/13 14/0/14 12/0/12
f 14/0/14 4/0/4 15/0/15
f 10/0/10 16/0/16 9/0/9
f 9/0/9 16/0/16 17/0/17
f 16/0/16 18/0/18 17/0/17
f 9/0/9 17/0/17 19/0/19
f 19/0/19 17/0/17 20/0/20
f 19/0/19 1/0/1 9/0/9
f 14/0/14 15/0/15 21/0/21
f 21/0/21 22/0/22 14/0/14
f 23/0/23 22/0/22 21/0/21
f 19/0/19 20/0/20 2/0/2
f 1/0/1 19/0/19 2/0/2
f 2/0/2 20/0/20 24/0/24
f 24/0/24 20/0/20 25/0/25
f 20/0/20 26/0/26 25/0/25
f 17/0/17 26/0/26 20/0/20
f 24/0/24 5/0/5 2/0/2
f 6/0/6 5/0/5 24/0/24
f 6/0/6 24/0/24 27/0/27
f 27/0/27 24/0/24 25/0/25
f 28/0/28 17/0/17 18/0/18
f 17/0/17 28/0/28 26/0/26
f 26/0/26 28/0/28 29/0/29
f 28/0/28 30/0/30 29/0/29
f 30/0/30 31/0/31 29/0/29
f 31/0/31 30/0/30 32/0/32
f 31/0/31 33/0/33 29/0/29
f 34/0/34 31/0/31 32/0/32
f 34/0/34 33/0/33 31/0/31
f 33/0/33 34/0/34 35/0/35
f 35/0/35 34/0/34 36/0/36
f 36/0/36 34/0/34 32/0/32
f 33/0/33 35/0/35 37/0/37
f 33/0/33 37/0/37 38/0/38
f 37/0/37 39/0/39 38/0/38
f 39/0/39 37/0/37 35/0/35
f 39/0/39 35/0/35 36/0/36
f 40/0/40 38/0/38 39/0/39
f 40/0/40 41/0/41 38/0/38
f 40/0/40 42/0/42 41/0/41
f 42/0/42 40/0/40 43/0/43
f 44/0/44 42/0/42 43/0/43
f 44/0/44 43/0/43 45/0/45
f 45/0/45 43/0/43 46/0/46
f 45/0/45 46/0/46 47/0/47
f 48/0/48 39/0/39 47/0/47
f 48/0/48 47/0/47 46/0/46
f 43/0/43 48/0/48 46/0/46
f 43/0/43 40/0/40 48/0/48
f 48/0/48 40/0/40 39/0/39
f 49/0/49 45/0/45 47/0/47
f 50/0/50 47/0/47 39/0/39
f 50/0/50 39/0/39 51/0/51
f 51/0/51 39/0/39 36/0/36
f 52/0/52 47/0/47 50/0/50
f 49/0/49 47/0/47 52/0/52
f 51/0/51 53/0/53 50/0/50
f 52/0/52 50/0/50 53/0/53
f 52/0/52 53/0/53 54/0/54
f 54/0/54 49/0/49 52/0/52
f 55/0/55 56/0/56 57/0/57
f 58/0/58 55/0/55 57/0/57
f 57/0/57 59/0/59 58/0/58
f 56/0/56 55/0/55 60/0/60
f 57/0/57 56/0/56 61/0/61
f 61/0/61 62/0/62 57/0/57
f 63/0/63 57/0/57 62/0/62
f 62/0/62 64/0/64 63/0/63
f 64/0/64 65/0/65 63/0/63
f 64/0/64 66/0/66 65/0/65
f 66/0/66 67/0/67 65/0/65
f 67/0/67 66/0/66 26/0/26
f 68/0/68 65/0/65 67/0/67
f 68/0/68 67/0/67 69/0/69
f 57/0/57 69/0/69 59/0/59
f 68/0/68 69/0/69 70/0/70
f 70/0/70 69/0/69 57/0/57
f 70/0/70 65/0/65 68/0/68
f 63/0/63 65/0/65 70/0/70
f 57/0/57 63/0/63 70/0/70
f 64/0/64 62/0/62 71/0/71
f 72/0/72 64/0/64 71/0/71
f 72/0/72 71/0/71 73/0/73
f 73/0/73 71/0/71 74/0/74
f 75/0/75 73/0/73 74/0/74
f 64/0/64 72/0/72 27/0/27
f 27/0/27 66/0/66 64/0/64
f 76/0/76 27/0/27 72/0/72
f 77/0/77 76/0/76 72/0/72
f 77/0/77 72/0/72 73/0/73
f 76/0/76 77/0/77 78/0/78
f 78/0/78 79/0/79 76/0/76
f 79/0/79 80/0/80 76/0/76
f 79/0/79 15/0/15 80/0/80
f 15/0/15 79/0/79 78/0/78
f 15/0/15 78/0/78 81/0/81
f 81/0/81 82/0/82 75/0/75
f 81/0/81 78/0/78 82/0/82
f 77/0/77 82/0/82 78/0/78
f 82/0/82 73/0/73 75/0/75
f 82/0/82 77/0/77 73/0/73
f 81/0/81 75/0/75 23/0/23
f 21/0/21 15/0/15 81/0/81
f 21/0/21 81/0/81 23/0/23
f 23/0/23 75/0/75 83/0/83
f 23/0/23 83/0/83 84/0/84
f 85/0/85 23/0/23 84/0/84
f 84/0/84 86/0/86 85/0/85
f 85/0/85 86/0/86 87/0/87
f 87/0/87 14/0/14 85/0/85
f 88/0/88 84/0/84 83/0/83
f 88/0/88 83/0/83 89/0/89
f 60/0/60 88/0/88 89/0/89
f 84/0/84 90/0/90 86/0/86
f 84/0/84 88/0/88 90/0/90
f 87/0/87 91/0/91 14/0/14
f 88/0/88 60/0/60 92/0/92
f 89/0/89 83/0/83 75/0/75
f 75/0/75 93/0/93 89/0/89
f 91/0/91 12/0/12 14/0/14
f 89/0/89 93/0/93 56/0/56
f 60/0/60 89/0/89 56/0/56
f 14/0/14 22/0/22 85/0/85
f 85/0/85 22/0/22 23/0/23
f 93/0/93 75/0/75 74/0/74
f 71/0/71 93/0/93 74/0/74
f 71/0/71 62/0/62 93/0/93
f 61/0/61 56/0/56 93/0/93
f 62/0/62 61/0/61 93/0/93
f 94/0/94 11/0/11 12/0/12
f 95/0/95 33/0/33 69/0/69
f 67/0/67 95/0/95 69/0/69
f 29/0/29 95/0/95 67/0/67
f 95/0/95 29/0/29 33/0/33
f 67/0/67 26/0/26 29/0/29
f 25/0/25 26/0/26 66/0/66
f 27/0/27 25/0/25 66/0/66
f 27/0/27 76/0/76 6/0/6
f 80/0/80 6/0/6 76/0/76
f 4/0/4 6/0/6 80/0/80
f 4/0/4 80/0/80 15/0/15
f 10/0/10 96/0/96 16/0/16
