# 
# Wavefront OBJ file
# Created with Kaydara FBX
# 
mtllib snowfield_stone_08_1.mtl

g snowfield_Stone_08_1
v 0.392512 0.232339 -0.578950
v -0.405457 0.426504 -0.434419
v 0.741418 0.261528 0.241909
v 0.241028 0.255254 0.602925
v -0.657097 0.405640 -0.104341
v -0.474441 0.173008 0.453081
v -0.547253 -0.103706 -0.530200
v 0.363059 -0.243755 -0.681294
v 0.733293 -0.360127 0.233237
v 0.175637 -0.293701 0.643862
v -0.602644 -0.156787 0.490972
v -0.827566 -0.080571 -0.155278
v -0.150769 -0.466777 -0.017075
v -0.827566 -0.080571 -0.155278
v -0.602644 -0.156787 0.490972
v 0.175637 -0.293701 0.643862
v 0.733293 -0.360127 0.233237
vt 0.854939 0.073198
vt 0.874823 0.132056
vt 0.927343 0.052897
vt 0.953793 0.085732
vt 0.897018 0.150339
vt 0.943712 0.144631
vt 0.844884 0.154083
vt 0.831422 0.057354
vt 0.943037 0.012568
vt 0.994220 0.080372
vt 0.963246 0.168623
vt 0.887792 0.188101
vt 0.785333 0.126062
vt 0.818985 0.190538
vt 0.753802 0.186583
vt 0.719654 0.117807
vt 0.741673 0.056854
vn 0.496912 0.387291 -0.776585
vn -0.140685 0.915786 -0.376223
vn 0.671401 0.724767 0.154702
vn 0.204784 0.654964 0.727383
vn -0.670926 0.739663 -0.052514
vn -0.539714 0.420029 0.729578
vn -0.529058 -0.147391 -0.835687
vn 0.286876 -0.599924 -0.746856
vn 0.834578 -0.501309 0.228406
vn 0.011058 -0.437300 0.899248
vn -0.636889 -0.442250 0.631496
vn -0.976555 -0.215050 -0.009728
vn -0.207544 -0.977085 -0.047225
vn -0.976555 -0.215050 -0.009728
vn -0.636889 -0.442250 0.631496
vn 0.011058 -0.437300 0.899248
vn 0.834578 -0.501309 0.228406
usemtl material
f 1/0/1 2/0/2 3/0/3
f 3/0/3 2/0/2 4/0/4
f 2/0/2 5/0/5 4/0/4
f 4/0/4 5/0/5 6/0/6
f 7/0/7 2/0/2 1/0/1
f 5/0/5 2/0/2 7/0/7
f 8/0/8 7/0/7 1/0/1
f 8/0/8 1/0/1 9/0/9
f 1/0/1 3/0/3 9/0/9
f 9/0/9 3/0/3 4/0/4
f 10/0/10 9/0/9 4/0/4
f 10/0/10 4/0/4 6/0/6
f 11/0/11 10/0/10 6/0/6
f 11/0/11 6/0/6 12/0/12
f 6/0/6 5/0/5 12/0/12
f 12/0/12 5/0/5 7/0/7
f 8/0/8 13/0/13 7/0/7
f 7/0/7 13/0/13 14/0/14
f 14/0/14 13/0/13 15/0/15
f 15/0/15 13/0/13 16/0/16
f 16/0/16 13/0/13 17/0/17
f 17/0/17 13/0/13 8/0/8
