# 
# Wavefront OBJ file
# Created with Kaydara FBX
# 
mtllib snowfield_star02.mtl

g snowfield_star02
v -7830.612305 23137.720703 18466.804688
v -3704.557129 22884.863281 20298.195313
v -4782.925781 18831.572266 22408.554688
v -8908.980469 19084.423828 20577.164063
v 1869.060547 22892.146484 20048.757813
v 1873.765137 18944.156250 22608.125000
v -2299.599854 19077.150391 22859.593750
v -2304.316162 23025.136719 20300.222656
v 2192.596680 14115.942383 25796.726563
v 1901.045898 8367.842773 26135.957031
v -3288.496826 8647.115234 26012.546875
v -2996.960938 14395.225586 25673.316406
v -3436.205322 12784.951172 25155.609375
v -7092.588379 8949.447266 25054.902344
v -10417.611328 13300.900391 23478.195313
v -6761.232910 17136.427734 23578.902344
v -13550.798828 14190.845703 21292.976563
v -16678.015625 13505.666016 18864.996094
v -16039.058594 18186.705078 17228.144531
v -12911.834961 18871.896484 19656.109375
v -19966.382813 21997.191406 4991.883789
v -17970.171875 21666.041016 10556.508789
v -20944.419922 16357.851563 11443.311523
v -22940.628906 16688.978516 5878.691406
v -14144.243164 22892.144531 14225.950195
v -16129.672852 18944.156250 15841.022461
v -18952.652344 19077.144531 12757.032227
v -16967.230469 23025.134766 11141.950195
v -18132.195313 16229.435547 17211.683594
v -18519.371094 11251.862305 17200.496094
v -21265.767578 11493.700195 13641.874023
v -20878.595703 16471.277344 13653.049805
v -22242.359375 12850.208984 12580.422852
v -23903.671875 9984.953125 10410.975586
v -24552.492188 13235.641602 7739.610352
v -22891.179688 16100.914063 9909.053711
v -23508.214844 17930.798828 3254.101563
v -24997.871094 13634.638672 2583.876953
v -24539.339844 14446.749023 -1687.478516
v -23049.675781 18742.908203 -1017.269531
v -24276.183594 11119.138672 8283.752930
v -25341.886719 6096.821777 7323.847656
v -25638.546875 7553.804688 2594.109375
v -24572.839844 12576.123047 3553.997070
v -21680.242188 7840.992188 13961.721680
v -23106.820313 11482.217773 11170.413086
v -21455.773438 14393.187500 13905.415039
v -20029.189453 10751.960938 16696.730469
v -25501.675781 12653.159180 836.038086
v -25730.976563 8066.638672 -30.413086
v -24983.960938 9209.170898 -4205.302734
v -24754.640625 13795.697266 -3338.865479
v -14548.303711 21997.185547 -14273.132813
v -18058.126953 21666.039063 -9515.921875
v -20451.187500 16357.841797 -11492.236328
v -16941.367188 16688.970703 -16249.442383
v -22149.613281 12811.048828 -11303.734375
v -21095.003906 9363.643555 -14417.650391
v -18860.339844 13274.792969 -16856.146484
v -19914.949219 16722.220703 -13742.233398
v -24632.726563 5244.056641 -7493.813477
v -24248.777344 12152.484375 -6883.769531
v -25019.425781 11605.592773 -1480.401367
v -25403.378906 4697.173828 -2090.430664
v -4112.462891 21997.189453 -20047.535156
v -9737.279297 21666.044922 -18227.816406
v -10529.833984 16357.845703 -21228.554688
v -4905.025391 16688.970703 -23048.273438
v -13525.557617 22892.138672 -14519.523438
v -15077.208008 18944.152344 -16554.902344
v -11905.718750 19077.134766 -19279.214844
v -10354.058594 23025.130859 -17243.843750
v -16384.037109 16023.701172 -18599.656250
v -16360.644531 11046.121094 -18986.287109
v -12717.171875 11287.961914 -21619.082031
v -12740.552734 16265.535156 -21232.457031
v -11520.854492 12850.202148 -22284.414063
v -9300.089844 9984.948242 -23876.476563
v -6609.591797 13235.639648 -24440.726563
v -8830.352539 16100.910156 -22848.660156
v -1662.251953 17509.216797 -23638.648438
v -1118.867676 14252.759766 -24751.210938
v 2106.217773 14868.331055 -24301.707031
v 1562.843262 18124.785156 -23189.132813
v -7266.768066 12034.138672 -24459.015625
v -6273.728516 7011.820313 -25493.917969
v -1536.986328 8468.805664 -25641.253906
v -2530.008789 13491.123047 -24606.351563
v -13135.007813 8620.398438 -22155.628906
v -10300.101563 12261.624023 -23493.460938
v -13085.814453 15172.595703 -21929.500000
v -15920.733398 11531.367188 -20591.656250
v 3355.309570 10670.783203 -25600.281250
v 6181.156250 9931.805664 -25361.164063
v 6746.060547 13523.269531 -24743.914063
v 3920.214844 14262.261719 -24983.019531
v 8803.293945 5244.052734 -24724.707031
v 8181.440430 12152.486328 -24360.199219
v 2805.066895 11605.588867 -25300.878906
v 3426.905273 4697.167969 -25665.398438
v 5210.881836 14951.972656 -24730.523438
v 9020.118164 14179.531250 -23695.003906
v 8927.933594 18495.291016 -21359.349609
v 5118.692383 19267.750000 -22394.849609
v 17281.644531 22532.054688 -11817.765625
v 13318.036133 22200.904297 -16204.077148
v 15731.036133 16892.712891 -18155.988281
v 19694.640625 17223.839844 -13769.681641
v 8126.989258 23351.863281 -17916.736328
v 9413.785156 19642.042969 -20409.394531
v 13188.028320 19687.144531 -18607.556641
v 11901.245117 23396.974609 -16114.895508
v 10724.807617 16722.580078 -21925.441406
v 11476.090820 11969.086914 -23003.535156
v 15402.028320 12070.279297 -20806.183594
v 14650.758789 16823.777344 -19728.083984
v 16114.911133 13385.068359 -19298.732422
v 18476.796875 10519.812500 -17924.703125
v 20093.375000 13770.504883 -15701.233398
v 17731.492188 16635.775391 -17075.250000
v 20529.773438 18135.523438 -11327.999023
v 22748.535156 14223.766602 -11491.501953
v 24273.367188 15311.763672 -7522.799316
v 22054.593750 19223.523438 -7359.273926
v 19853.464844 12569.007813 -16220.188477
v 21204.281250 7546.692871 -15738.051758
v 23278.488281 9003.675781 -11477.056641
v 21927.687500 14025.994141 -11959.175781
v 15889.500977 5683.767090 -21474.167969
v 18098.074219 9089.622070 -18994.644531
v 15358.520508 12108.543945 -20490.683594
v 13149.928711 8702.687500 -22970.216797
v 23527.191406 13106.851563 -10000.079102
v 24384.425781 8577.339844 -9333.545898
v 25613.101563 9825.216797 -5296.712891
v 24755.847656 14354.730469 -5963.221680
v 19602.398438 22532.054688 8059.629883
v 21037.816406 22200.908203 2324.694336
v 24002.902344 16892.708984 3241.652344
v 22567.484375 17223.835938 8976.583008
v 25134.410156 13400.299805 2423.758789
v 25373.675781 9964.221680 5711.289063
v 23831.753906 13755.277344 8749.589844
v 23592.476563 17191.380859 5462.069336
v 27226.882813 5778.924316 -2057.279297
v 26639.675781 12687.349609 -2475.319336
v 25296.121094 12140.455078 -7765.416992
v 25883.324219 5232.039063 -7347.394531
v 12149.129883 22532.066406 17370.878906
v 16658.265625 22200.923828 13547.581055
v 18533.105469 16892.716797 16020.948242
v 14023.981445 17223.841797 19844.250000
v 18694.851563 23427.005859 8472.405273
v 20768.253906 19479.025391 9972.872070
v 18518.812500 19612.009766 13497.100586
v 16445.390625 23560.009766 11996.651367
v 22053.757813 16692.095703 10735.209961
v 23104.953125 11948.546875 11565.913086
v 20780.128906 12100.780273 15416.520508
v 19728.921875 16844.324219 14585.836914
v 19661.425781 13385.073242 16547.523438
v 17999.429688 10519.824219 18716.449219
v 15589.186523 13770.512695 20038.523438
v 17251.175781 16635.787109 17869.589844
v 16846.722656 11540.199219 20186.386719
v 15837.500977 6461.235352 20976.878906
v 11910.807617 8202.492188 23503.171875
v 12920.004883 13281.454102 22712.679688
v 21427.210938 5045.256836 16155.610352
v 19203.457031 8712.057617 18334.207031
v 20558.312500 11448.052734 15320.069336
v 22782.070313 7781.247070 13141.456055
v 8920.306641 18897.716797 21699.734375
v 9088.028320 14638.325195 23917.566406
v 4726.961914 15077.269531 24961.863281
v 4559.221680 19336.664063 22744.042969
v 7114.270508 8064.636719 25512.078125
v 4003.766602 11731.435547 25639.007813
v 7029.231445 14467.439453 24309.640625
v 10139.754883 10800.628906 24182.699219
v 7186.045898 22267.839844 19826.847656
v 12450.153320 22241.230469 17121.687500
v 14013.215820 17156.931641 20100.269531
v 8749.114258 17183.529297 22805.425781
v 21949.371094 19184.500000 -7284.650391
v 24446.750000 15140.376953 -7236.879883
v 24938.433594 15553.550781 -2777.784668
v 22441.046875 19597.691406 -2825.537598
v 24548.523438 16528.214844 -1444.836914
v 25843.523438 14035.270508 1244.384766
v 24284.000000 16824.525391 3916.519531
v 22988.996094 19317.482422 1227.298828
v 26321.285156 7482.709961 -2011.541504
v 26094.894531 11119.688477 1118.568359
v 25195.722656 13905.544922 -2029.923340
v 25422.089844 10268.560547 -5160.051758
v -8338.142578 10725.130859 24786.996094
v -8919.434570 5011.020996 25166.332031
v -13727.961914 5434.589355 23229.503906
v -13146.684570 11148.709961 22850.171875
vt 0.504484 0.504550
vt 0.504553 0.993340
vt 0.902420 0.993187
vt 0.902420 0.504724
vt 0.504484 0.504550
vt 0.504553 0.993340
vt 0.902420 0.993187
vt 0.902420 0.504724
vt 0.504484 0.504550
vt 0.504553 0.993340
vt 0.902420 0.993187
vt 0.902420 0.504724
vt 0.504484 0.504550
vt 0.504553 0.993340
vt 0.902420 0.993187
vt 0.902420 0.504724
vt 0.504484 0.504550
vt 0.504553 0.993340
vt 0.902420 0.993187
vt 0.902420 0.504724
vt 0.504484 0.504550
vt 0.504553 0.993340
vt 0.902420 0.993187
vt 0.902420 0.504724
vt 0.504484 0.504550
vt 0.504553 0.993340
vt 0.902420 0.993187
vt 0.902420 0.504724
vt 0.504484 0.504550
vt 0.504553 0.993340
vt 0.902420 0.993187
vt 0.902420 0.504724
vt 0.504484 0.504550
vt 0.504553 0.993340
vt 0.902420 0.993187
vt 0.902420 0.504724
vt 0.504484 0.504550
vt 0.504553 0.993340
vt 0.902420 0.993187
vt 0.902420 0.504724
vt 0.504484 0.504550
vt 0.504553 0.993340
vt 0.902420 0.993187
vt 0.902420 0.504724
vt 0.504484 0.504550
vt 0.504553 0.993340
vt 0.902420 0.993187
vt 0.902420 0.504724
vt 0.504484 0.504550
vt 0.504553 0.993340
vt 0.902420 0.993187
vt 0.902420 0.504724
vt 0.504484 0.504550
vt 0.504553 0.993340
vt 0.902420 0.993187
vt 0.902420 0.504724
vt 0.504484 0.504550
vt 0.504553 0.993340
vt 0.902420 0.993187
vt 0.902420 0.504724
vt 0.504484 0.504550
vt 0.504553 0.993340
vt 0.902420 0.993187
vt 0.902420 0.504724
vt 0.504484 0.504550
vt 0.504553 0.993340
vt 0.902420 0.993187
vt 0.902420 0.504724
vt 0.504484 0.504550
vt 0.504553 0.993340
vt 0.902420 0.993187
vt 0.902420 0.504724
vt 0.504484 0.504550
vt 0.504553 0.993340
vt 0.902420 0.993187
vt 0.902420 0.504724
vt 0.504484 0.504550
vt 0.504553 0.993340
vt 0.902420 0.993187
vt 0.902420 0.504724
vt 0.504484 0.504550
vt 0.504553 0.993340
vt 0.902420 0.993187
vt 0.902420 0.504724
vt 0.504484 0.504550
vt 0.504553 0.993340
vt 0.902420 0.993187
vt 0.902420 0.504724
vt 0.504484 0.504550
vt 0.504553 0.993340
vt 0.902420 0.993187
vt 0.902420 0.504724
vt 0.504484 0.504550
vt 0.504553 0.993340
vt 0.902420 0.993187
vt 0.902420 0.504724
vt 0.504484 0.504550
vt 0.504553 0.993340
vt 0.902420 0.993187
vt 0.902420 0.504724
vt 0.504484 0.504550
vt 0.504553 0.993340
vt 0.902420 0.993187
vt 0.902420 0.504724
vt 0.504484 0.504550
vt 0.504553 0.993340
vt 0.902420 0.993187
vt 0.902420 0.504724
vt 0.504484 0.504550
vt 0.504553 0.993340
vt 0.902420 0.993187
vt 0.902420 0.504724
vt 0.504484 0.504550
vt 0.504553 0.993340
vt 0.902420 0.993187
vt 0.902420 0.504724
vt 0.504484 0.504550
vt 0.504553 0.993340
vt 0.902420 0.993187
vt 0.902420 0.504724
vt 0.504484 0.504550
vt 0.504553 0.993340
vt 0.902420 0.993187
vt 0.902420 0.504724
vt 0.504484 0.504550
vt 0.504553 0.993340
vt 0.902420 0.993187
vt 0.902420 0.504724
vt 0.504484 0.504550
vt 0.504553 0.993340
vt 0.902420 0.993187
vt 0.902420 0.504724
vt 0.504484 0.504550
vt 0.504553 0.993340
vt 0.902420 0.993187
vt 0.902420 0.504724
vt 0.504484 0.504550
vt 0.504553 0.993340
vt 0.902420 0.993187
vt 0.902420 0.504724
vt 0.504484 0.504550
vt 0.504553 0.993340
vt 0.902420 0.993187
vt 0.902420 0.504724
vt 0.504484 0.504550
vt 0.504553 0.993340
vt 0.902420 0.993187
vt 0.902420 0.504724
vt 0.504484 0.504550
vt 0.504553 0.993340
vt 0.902420 0.993187
vt 0.902420 0.504724
vt 0.504484 0.504550
vt 0.504553 0.993340
vt 0.902420 0.993187
vt 0.902420 0.504724
vt 0.504484 0.504550
vt 0.504553 0.993340
vt 0.902420 0.993187
vt 0.902420 0.504724
vt 0.504484 0.504550
vt 0.504553 0.993340
vt 0.902420 0.993187
vt 0.902420 0.504724
vt 0.504484 0.504550
vt 0.504553 0.993340
vt 0.902420 0.993187
vt 0.902420 0.504724
vt 0.504484 0.504550
vt 0.504553 0.993340
vt 0.902420 0.993187
vt 0.902420 0.504724
vt 0.504484 0.504550
vt 0.504553 0.993340
vt 0.902420 0.993187
vt 0.902420 0.504724
vt 0.504484 0.504550
vt 0.504553 0.993340
vt 0.902420 0.993187
vt 0.902420 0.504724
vt 0.504484 0.504550
vt 0.504553 0.993340
vt 0.902420 0.993187
vt 0.902420 0.504724
vt 0.504484 0.504550
vt 0.504553 0.993340
vt 0.902420 0.993187
vt 0.902420 0.504724
vt 0.504484 0.504550
vt 0.504553 0.993340
vt 0.902420 0.993187
vt 0.902420 0.504724
vt 0.504484 0.504550
vt 0.504553 0.993340
vt 0.902420 0.993187
vt 0.902420 0.504724
vt 0.504484 0.504550
vt 0.504553 0.993340
vt 0.902420 0.993187
vt 0.902420 0.504724
vn 0.324607 -0.503309 -0.800818
vn 0.324607 -0.503309 -0.800818
vn 0.324607 -0.503309 -0.800818
vn 0.324607 -0.503309 -0.800818
vn -0.067739 -0.542776 -0.837141
vn -0.067739 -0.542776 -0.837141
vn -0.067739 -0.542776 -0.837141
vn -0.067739 -0.542776 -0.837141
vn 0.020507 -0.059938 -0.997991
vn 0.020507 -0.059938 -0.997991
vn 0.020507 -0.059938 -0.997991
vn 0.020507 -0.059938 -0.997991
vn 0.217016 -0.181698 -0.959109
vn 0.217016 -0.181698 -0.959109
vn 0.217016 -0.181698 -0.959109
vn 0.217016 -0.181698 -0.959109
vn 0.622732 -0.332646 -0.708203
vn 0.622732 -0.332646 -0.708203
vn 0.622732 -0.332646 -0.708203
vn 0.622732 -0.332646 -0.708203
vn 0.803403 -0.503309 -0.318157
vn 0.803403 -0.503309 -0.318157
vn 0.803403 -0.503309 -0.318157
vn 0.803403 -0.503309 -0.318157
vn 0.607732 -0.542776 -0.579703
vn 0.607732 -0.542776 -0.579703
vn 0.607732 -0.542776 -0.579703
vn 0.607732 -0.542776 -0.579703
vn 0.788259 -0.059938 -0.612418
vn 0.788259 -0.059938 -0.612418
vn 0.788259 -0.059938 -0.612418
vn 0.788259 -0.059938 -0.612418
vn 0.881775 -0.181698 -0.435268
vn 0.881775 -0.181698 -0.435268
vn 0.881775 -0.181698 -0.435268
vn 0.881775 -0.181698 -0.435268
vn 0.942290 -0.332646 0.037911
vn 0.942290 -0.332646 0.037911
vn 0.942290 -0.332646 0.037911
vn 0.942290 -0.332646 0.037911
vn 0.975723 -0.184484 -0.118029
vn 0.975723 -0.184484 -0.118029
vn 0.975723 -0.184484 -0.118029
vn 0.975723 -0.184484 -0.118029
vn 0.871230 -0.034055 -0.489692
vn 0.871230 -0.034055 -0.489692
vn 0.871230 -0.034055 -0.489692
vn 0.871230 -0.034055 -0.489692
vn 0.984833 -0.078471 0.154744
vn 0.984833 -0.078471 0.154744
vn 0.984833 -0.078471 0.154744
vn 0.984833 -0.078471 0.154744
vn 0.711707 -0.503308 0.490056
vn 0.711707 -0.503308 0.490056
vn 0.711706 -0.503308 0.490056
vn 0.711707 -0.503308 0.490056
vn 0.852621 -0.181698 0.489921
vn 0.852621 -0.181698 0.489921
vn 0.852621 -0.181698 0.489921
vn 0.852621 -0.181698 0.489921
vn 0.988693 -0.066803 0.134250
vn 0.988693 -0.066803 0.134250
vn 0.988693 -0.066803 0.134250
vn 0.988693 -0.066803 0.134250
vn 0.292661 -0.503308 0.813038
vn 0.292661 -0.503308 0.813038
vn 0.292661 -0.503308 0.813038
vn 0.292661 -0.503308 0.813038
vn 0.560248 -0.542775 0.625713
vn 0.560248 -0.542775 0.625713
vn 0.560248 -0.542775 0.625713
vn 0.560248 -0.542775 0.625713
vn 0.587252 -0.059938 0.807182
vn 0.587252 -0.059938 0.807182
vn 0.587252 -0.059938 0.807182
vn 0.587252 -0.059938 0.807182
vn 0.407242 -0.181698 0.895064
vn 0.407242 -0.181698 0.895064
vn 0.407242 -0.181698 0.895064
vn 0.407242 -0.181698 0.895064
vn -0.067611 -0.332646 0.940625
vn -0.067611 -0.332646 0.940625
vn -0.067611 -0.332646 0.940625
vn -0.067611 -0.332646 0.940625
vn 0.087197 -0.184484 0.978960
vn 0.087197 -0.184484 0.978960
vn 0.087197 -0.184484 0.978960
vn 0.087197 -0.184484 0.978960
vn 0.461971 -0.034055 0.886241
vn 0.461971 -0.034055 0.886241
vn 0.461971 -0.034055 0.886241
vn 0.461971 -0.034055 0.886241
vn -0.122104 -0.149431 0.981204
vn -0.122104 -0.149431 0.981204
vn -0.122104 -0.149431 0.981204
vn -0.122104 -0.149431 0.981204
vn -0.165366 -0.066803 0.983967
vn -0.165366 -0.066803 0.983967
vn -0.165366 -0.066803 0.983967
vn -0.165366 -0.066803 0.983967
vn -0.318412 -0.456440 0.830829
vn -0.318412 -0.456440 0.830829
vn -0.318412 -0.456440 0.830829
vn -0.318412 -0.456440 0.830829
vn -0.621885 -0.503308 0.599951
vn -0.621885 -0.503308 0.599951
vn -0.621885 -0.503308 0.599951
vn -0.621885 -0.503308 0.599951
vn -0.337860 -0.602841 0.722795
vn -0.337860 -0.602841 0.722795
vn -0.337860 -0.602841 0.722795
vn -0.337860 -0.602842 0.722795
vn -0.465719 -0.265092 0.844294
vn -0.465719 -0.265092 0.844294
vn -0.465719 -0.265092 0.844294
vn -0.465719 -0.265092 0.844294
vn -0.649795 -0.181697 0.738074
vn -0.649795 -0.181697 0.738074
vn -0.649795 -0.181697 0.738074
vn -0.649795 -0.181697 0.738074
vn -0.779395 -0.459864 0.425522
vn -0.779395 -0.459864 0.425522
vn -0.779395 -0.459864 0.425522
vn -0.779395 -0.459864 0.425522
vn -0.857397 -0.184484 0.480454
vn -0.857397 -0.184484 0.480454
vn -0.857397 -0.184484 0.480454
vn -0.857397 -0.184484 0.480454
vn -0.609266 -0.168951 0.774759
vn -0.609266 -0.168951 0.774759
vn -0.609266 -0.168951 0.774759
vn -0.609266 -0.168951 0.774759
vn -0.936767 -0.129447 0.325132
vn -0.936767 -0.129447 0.325132
vn -0.936767 -0.129447 0.325132
vn -0.936767 -0.129447 0.325132
vn -0.844648 -0.503308 -0.182349
vn -0.844648 -0.503308 -0.182349
vn -0.844648 -0.503308 -0.182349
vn -0.844648 -0.503308 -0.182349
vn -0.953115 -0.241205 -0.182736
vn -0.953115 -0.241205 -0.182736
vn -0.953115 -0.241205 -0.182736
vn -0.953115 -0.241205 -0.182736
vn -0.965395 -0.066803 0.252093
vn -0.965395 -0.066803 0.252093
vn -0.965395 -0.066803 0.252093
vn -0.965395 -0.066803 0.252093
vn -0.580039 -0.503308 -0.640496
vn -0.580039 -0.503308 -0.640496
vn -0.580039 -0.503308 -0.640496
vn -0.580039 -0.503308 -0.640496
vn -0.717097 -0.542776 -0.437226
vn -0.717097 -0.542776 -0.437226
vn -0.717097 -0.542776 -0.437226
vn -0.717097 -0.542776 -0.437226
vn -0.829070 -0.269519 -0.489900
vn -0.829070 -0.269519 -0.489900
vn -0.829070 -0.269519 -0.489900
vn -0.829070 -0.269519 -0.489900
vn -0.649869 -0.181698 -0.738008
vn -0.649869 -0.181698 -0.738008
vn -0.649869 -0.181698 -0.738008
vn -0.649869 -0.181698 -0.738008
vn -0.547620 -0.021372 -0.836454
vn -0.547620 -0.021372 -0.836454
vn -0.547620 -0.021372 -0.836454
vn -0.547620 -0.021372 -0.836454
vn -0.824608 -0.181810 -0.535693
vn -0.824608 -0.181810 -0.535693
vn -0.824608 -0.181810 -0.535693
vn -0.824608 -0.181810 -0.535693
vn -0.250431 -0.454858 -0.854628
vn -0.250431 -0.454858 -0.854628
vn -0.250431 -0.454858 -0.854628
vn -0.250431 -0.454858 -0.854628
vn -0.253100 -0.181809 -0.950203
vn -0.253100 -0.181809 -0.950203
vn -0.253100 -0.181809 -0.950203
vn -0.253100 -0.181809 -0.950203
vn -0.383398 -0.551768 -0.740647
vn -0.383398 -0.551768 -0.740647
vn -0.383398 -0.551768 -0.740647
vn -0.383398 -0.551768 -0.740647
vn -0.843079 -0.518963 0.141049
vn -0.843079 -0.518963 0.141049
vn -0.843079 -0.518963 0.141049
vn -0.843079 -0.518963 0.141049
vn -0.879605 -0.475397 -0.017124
vn -0.879605 -0.475397 -0.017124
vn -0.879605 -0.475397 -0.017124
vn -0.879605 -0.475397 -0.017124
vn -0.976969 -0.170842 0.127849
vn -0.976969 -0.170842 0.127849
vn -0.976969 -0.170842 0.127849
vn -0.976969 -0.170842 0.127849
vn 0.364321 -0.098537 -0.926046
vn 0.364321 -0.098537 -0.926046
vn 0.364321 -0.098537 -0.926046
vn 0.364321 -0.098537 -0.926046
usemtl material
f 1/0/1 2/0/2 3/0/3
f 1/0/1 3/0/3 4/0/4
f 5/0/5 6/0/6 7/0/7
f 5/0/5 7/0/7 8/0/8
f 9/0/9 10/0/10 11/0/11
f 9/0/9 11/0/11 12/0/12
f 13/0/13 14/0/14 15/0/15
f 13/0/13 15/0/15 16/0/16
f 17/0/17 18/0/18 19/0/19
f 17/0/17 19/0/19 20/0/20
f 21/0/21 22/0/22 23/0/23
f 21/0/21 23/0/23 24/0/24
f 25/0/25 26/0/26 27/0/27
f 25/0/25 27/0/27 28/0/28
f 29/0/29 30/0/30 31/0/31
f 29/0/29 31/0/31 32/0/32
f 33/0/33 34/0/34 35/0/35
f 33/0/33 35/0/35 36/0/36
f 37/0/37 38/0/38 39/0/39
f 37/0/37 39/0/39 40/0/40
f 41/0/41 42/0/42 43/0/43
f 41/0/41 43/0/43 44/0/44
f 45/0/45 46/0/46 47/0/47
f 45/0/45 47/0/47 48/0/48
f 49/0/49 50/0/50 51/0/51
f 49/0/49 51/0/51 52/0/52
f 53/0/53 54/0/54 55/0/55
f 53/0/53 55/0/55 56/0/56
f 57/0/57 58/0/58 59/0/59
f 57/0/57 59/0/59 60/0/60
f 61/0/61 62/0/62 63/0/63
f 61/0/61 63/0/63 64/0/64
f 65/0/65 66/0/66 67/0/67
f 65/0/65 67/0/67 68/0/68
f 69/0/69 70/0/70 71/0/71
f 69/0/69 71/0/71 72/0/72
f 73/0/73 74/0/74 75/0/75
f 73/0/73 75/0/75 76/0/76
f 77/0/77 78/0/78 79/0/79
f 77/0/77 79/0/79 80/0/80
f 81/0/81 82/0/82 83/0/83
f 81/0/81 83/0/83 84/0/84
f 85/0/85 86/0/86 87/0/87
f 85/0/85 87/0/87 88/0/88
f 89/0/89 90/0/90 91/0/91
f 89/0/89 91/0/91 92/0/92
f 93/0/93 94/0/94 95/0/95
f 93/0/93 95/0/95 96/0/96
f 97/0/97 98/0/98 99/0/99
f 97/0/97 99/0/99 100/0/100
f 101/0/101 102/0/102 103/0/103
f 101/0/101 103/0/103 104/0/104
f 105/0/105 106/0/106 107/0/107
f 105/0/105 107/0/107 108/0/108
f 109/0/109 110/0/110 111/0/111
f 109/0/109 111/0/111 112/0/112
f 113/0/113 114/0/114 115/0/115
f 113/0/113 115/0/115 116/0/116
f 117/0/117 118/0/118 119/0/119
f 117/0/117 119/0/119 120/0/120
f 121/0/121 122/0/122 123/0/123
f 121/0/121 123/0/123 124/0/124
f 125/0/125 126/0/126 127/0/127
f 125/0/125 127/0/127 128/0/128
f 129/0/129 130/0/130 131/0/131
f 129/0/129 131/0/131 132/0/132
f 133/0/133 134/0/134 135/0/135
f 133/0/133 135/0/135 136/0/136
f 137/0/137 138/0/138 139/0/139
f 137/0/137 139/0/139 140/0/140
f 141/0/141 142/0/142 143/0/143
f 141/0/141 143/0/143 144/0/144
f 145/0/145 146/0/146 147/0/147
f 145/0/145 147/0/147 148/0/148
f 149/0/149 150/0/150 151/0/151
f 149/0/149 151/0/151 152/0/152
f 153/0/153 154/0/154 155/0/155
f 153/0/153 155/0/155 156/0/156
f 157/0/157 158/0/158 159/0/159
f 157/0/157 159/0/159 160/0/160
f 161/0/161 162/0/162 163/0/163
f 161/0/161 163/0/163 164/0/164
f 165/0/165 166/0/166 167/0/167
f 165/0/165 167/0/167 168/0/168
f 169/0/169 170/0/170 171/0/171
f 169/0/169 171/0/171 172/0/172
f 173/0/173 174/0/174 175/0/175
f 173/0/173 175/0/175 176/0/176
f 177/0/177 178/0/178 179/0/179
f 177/0/177 179/0/179 180/0/180
f 181/0/181 182/0/182 183/0/183
f 181/0/181 183/0/183 184/0/184
f 185/0/185 186/0/186 187/0/187
f 185/0/185 187/0/187 188/0/188
f 189/0/189 190/0/190 191/0/191
f 189/0/189 191/0/191 192/0/192
f 193/0/193 194/0/194 195/0/195
f 193/0/193 195/0/195 196/0/196
f 197/0/197 198/0/198 199/0/199
f 197/0/197 199/0/199 200/0/200
