# 
# Wavefront OBJ file
# Created with Kaydara FBX
# 
mtllib snowfield_far05.mtl

g snowfield_far05
v -2925.707031 0.000000 712.724426
v -2749.265381 1000.650757 0.000000
v -2749.265381 1000.650757 712.724426
v -2925.707031 0.000000 0.000000
v -2241.221680 1880.608276 712.724426
v -2241.221680 1880.608276 0.000000
v -1462.853394 2533.736816 0.000000
v -1462.853394 2533.736816 712.724426
v -508.043488 2881.259033 0.000000
v -508.043488 2881.259033 712.724426
v 508.044037 2881.258789 0.000000
v 508.044037 2881.258789 712.724426
v -2749.264648 -1000.652710 712.724426
v -2749.264648 -1000.652710 0.000000
v -2241.220459 -1880.609741 712.724426
v -2241.220459 -1880.609741 0.000000
v -1462.852051 -2533.737549 0.000000
v -1462.852051 -2533.737549 712.724426
v -508.042267 -2881.259277 712.724426
v -508.042267 -2881.259277 0.000000
v 508.044922 -2881.258789 0.000000
v 508.044922 -2881.258789 712.724426
v 1462.854370 -2533.736084 712.724426
v 1462.854370 -2533.736084 0.000000
v 2241.222168 -1880.607666 712.724426
v 2241.222168 -1880.607666 0.000000
v 2749.265381 -1000.650146 712.724426
v 2749.265381 -1000.650146 0.000000
v 2925.707031 0.000442 0.000000
v 2925.707031 0.000442 712.724426
v 2749.265381 1000.650940 712.724426
v 2749.265381 1000.650940 0.000000
v 2241.221680 1880.608276 712.724426
v 2241.221680 1880.608276 0.000000
v 1462.853638 2533.736572 712.724426
v 1462.853638 2533.736572 0.000000
v 508.044037 2881.258789 712.724426
v 508.044037 2881.258789 0.000000
v 471.546448 2674.270996 1041.367188
v 1357.763062 2351.714600 1041.367310
v 2080.213867 1745.506470 1041.367310
v 2551.759766 928.764832 1041.367188
v 2715.525879 0.000403 1041.367310
v 2551.759766 -928.763977 1041.367310
v 2080.214111 -1745.505981 1041.367310
v 1357.763794 -2351.714111 1041.367188
v 471.547272 -2674.270996 1041.367310
v -471.544800 -2674.271240 1041.367310
v -1357.761597 -2351.715332 1041.367188
v -2080.212646 -1745.507935 1041.367310
v -2551.759033 -928.766357 1041.367310
v -2715.525879 -0.000007 1041.367310
v -2551.759766 928.764587 1041.367188
v -2080.213867 1745.506470 1041.367310
v -1357.762939 2351.714600 1041.367310
v -471.545929 2674.271240 1041.367188
v 471.546448 2674.270996 1041.367188
vt 2.888441 0.287753
vt 3.110556 0.002158
vt 3.110556 0.287753
vt 2.888441 0.002158
vt 3.332670 0.287753
vt 3.332670 0.002158
vt 3.554785 0.002158
vt 3.554785 0.287753
vt 3.776900 0.002158
vt 3.776900 0.287753
vt 3.999014 0.002158
vt 3.999014 0.287753
vt 2.666326 0.287753
vt 2.666326 0.002158
vt 2.444211 0.287753
vt 2.444211 0.002158
vt 2.222096 0.002158
vt 2.222096 0.287753
vt 1.999982 0.287753
vt 1.999982 0.002158
vt 1.777867 0.002158
vt 1.777867 0.287753
vt 1.555753 0.287753
vt 1.555753 0.002158
vt 1.333638 0.287753
vt 1.333638 0.002158
vt 1.111524 0.287753
vt 1.111524 0.002158
vt 0.889409 0.002158
vt 0.889409 0.287753
vt 0.667294 0.287753
vt 0.667294 0.002158
vt 0.445180 0.287753
vt 0.445180 0.002158
vt 0.223065 0.287753
vt 0.223065 0.002158
vt 0.000950 0.287753
vt 0.000950 0.002158
vt 0.000950 0.382951
vt 0.223065 0.382951
vt 0.445180 0.382951
vt 0.667294 0.382951
vt 0.889409 0.382951
vt 1.111524 0.382951
vt 1.333638 0.382951
vt 1.555753 0.382951
vt 1.777867 0.382951
vt 1.999982 0.382951
vt 2.222096 0.382951
vt 2.444211 0.382951
vt 2.666326 0.382951
vt 2.888441 0.382951
vt 3.110556 0.382951
vt 3.332670 0.382951
vt 3.554785 0.382951
vt 3.776900 0.382951
vt 3.999014 0.382951
vn 0.962113 0.000000 -0.272651
vn 0.939693 -0.342020 0.000000
vn 0.904091 -0.329062 -0.272651
vn 1.000000 0.000000 0.000000
vn 0.737021 -0.618434 -0.272651
vn 0.766044 -0.642788 0.000000
vn 0.500000 -0.866025 0.000000
vn 0.481056 -0.833214 -0.272651
vn 0.173648 -0.984808 0.000000
vn 0.167069 -0.947496 -0.272651
vn -0.173648 -0.984808 0.000000
vn -0.167069 -0.947496 -0.272651
vn 0.904090 0.329062 -0.272651
vn 0.939692 0.342021 0.000000
vn 0.737021 0.618435 -0.272651
vn 0.766044 0.642788 0.000000
vn 0.499999 0.866026 0.000000
vn 0.481056 0.833215 -0.272651
vn 0.167069 0.947496 -0.272651
vn 0.173648 0.984808 0.000000
vn -0.173649 0.984808 0.000000
vn -0.167070 0.947496 -0.272651
vn -0.481057 0.833214 -0.272651
vn -0.500000 0.866025 0.000000
vn -0.737022 0.618434 -0.272651
vn -0.766045 0.642787 0.000000
vn -0.904091 0.329062 -0.272651
vn -0.939693 0.342020 0.000000
vn -1.000000 0.000000 0.000000
vn -0.962113 0.000000 -0.272651
vn -0.904091 -0.329062 -0.272651
vn -0.939693 -0.342020 0.000000
vn -0.737021 -0.618434 -0.272651
vn -0.766044 -0.642788 0.000000
vn -0.481057 -0.833214 -0.272651
vn -0.500000 -0.866025 0.000000
vn -0.167069 -0.947496 -0.272651
vn -0.173648 -0.984808 0.000000
vn -0.146289 -0.829648 -0.538780
vn -0.421223 -0.729580 -0.538780
vn -0.645351 -0.541514 -0.538780
vn -0.791641 -0.288134 -0.538780
vn -0.842446 0.000000 -0.538780
vn -0.791641 0.288133 -0.538780
vn -0.645352 0.541514 -0.538780
vn -0.421223 0.729580 -0.538780
vn -0.146290 0.829648 -0.538780
vn 0.146289 0.829648 -0.538780
vn 0.421223 0.729580 -0.538780
vn 0.645351 0.541515 -0.538780
vn 0.791640 0.288134 -0.538780
vn 0.842446 0.000000 -0.538780
vn 0.791641 -0.288134 -0.538780
vn 0.645352 -0.541514 -0.538780
vn 0.421223 -0.729580 -0.538780
vn 0.146289 -0.829648 -0.538780
vn -0.146289 -0.829648 -0.538780
usemtl material
f 1/0/1 2/0/2 3/0/3
f 2/0/2 1/0/1 4/0/4
f 2/0/2 5/0/5 3/0/3
f 5/0/5 2/0/2 6/0/6
f 7/0/7 5/0/5 6/0/6
f 5/0/5 7/0/7 8/0/8
f 9/0/9 8/0/8 7/0/7
f 8/0/8 9/0/9 10/0/10
f 11/0/11 10/0/10 9/0/9
f 10/0/10 11/0/11 12/0/12
f 13/0/13 4/0/4 1/0/1
f 4/0/4 13/0/13 14/0/14
f 15/0/15 14/0/14 13/0/13
f 14/0/14 15/0/15 16/0/16
f 15/0/15 17/0/17 16/0/16
f 17/0/17 15/0/15 18/0/18
f 19/0/19 17/0/17 18/0/18
f 17/0/17 19/0/19 20/0/20
f 19/0/19 21/0/21 20/0/20
f 21/0/21 19/0/19 22/0/22
f 23/0/23 21/0/21 22/0/22
f 21/0/21 23/0/23 24/0/24
f 25/0/25 24/0/24 23/0/23
f 24/0/24 25/0/25 26/0/26
f 27/0/27 26/0/26 25/0/25
f 26/0/26 27/0/27 28/0/28
f 27/0/27 29/0/29 28/0/28
f 29/0/29 27/0/27 30/0/30
f 31/0/31 29/0/29 30/0/30
f 29/0/29 31/0/31 32/0/32
f 33/0/33 32/0/32 31/0/31
f 32/0/32 33/0/33 34/0/34
f 35/0/35 34/0/34 33/0/33
f 34/0/34 35/0/35 36/0/36
f 37/0/37 36/0/36 35/0/35
f 36/0/36 37/0/37 38/0/38
f 35/0/35 39/0/39 37/0/37
f 39/0/39 35/0/35 40/0/40
f 33/0/33 40/0/40 35/0/35
f 40/0/40 33/0/33 41/0/41
f 31/0/31 41/0/41 33/0/33
f 41/0/41 31/0/31 42/0/42
f 30/0/30 42/0/42 31/0/31
f 42/0/42 30/0/30 43/0/43
f 27/0/27 43/0/43 30/0/30
f 43/0/43 27/0/27 44/0/44
f 25/0/25 44/0/44 27/0/27
f 44/0/44 25/0/25 45/0/45
f 23/0/23 45/0/45 25/0/25
f 45/0/45 23/0/23 46/0/46
f 22/0/22 46/0/46 23/0/23
f 46/0/46 22/0/22 47/0/47
f 19/0/19 47/0/47 22/0/22
f 47/0/47 19/0/19 48/0/48
f 18/0/18 48/0/48 19/0/19
f 48/0/48 18/0/18 49/0/49
f 15/0/15 49/0/49 18/0/18
f 49/0/49 15/0/15 50/0/50
f 13/0/13 50/0/50 15/0/15
f 50/0/50 13/0/13 51/0/51
f 1/0/1 51/0/51 13/0/13
f 51/0/51 1/0/1 52/0/52
f 3/0/3 52/0/52 1/0/1
f 52/0/52 3/0/3 53/0/53
f 5/0/5 53/0/53 3/0/3
f 53/0/53 5/0/5 54/0/54
f 8/0/8 54/0/54 5/0/5
f 54/0/54 8/0/8 55/0/55
f 10/0/10 55/0/55 8/0/8
f 55/0/55 10/0/10 56/0/56
f 12/0/12 56/0/56 10/0/10
f 56/0/56 12/0/12 57/0/57
