# 
# Wavefront OBJ file
# Created with Kaydara FBX
# 
mtllib snowfield_stone_08 #227430.mtl

g snowfield_Stone_08
v 0.340662 0.130514 -0.080283
v 0.002538 0.166527 -0.331159
v 0.161100 0.198581 0.329193
v -0.145356 0.165474 0.276616
v -0.205325 0.145545 -0.304310
v -0.337341 0.061301 -0.025512
v 0.006570 -0.112671 -0.373003
v 0.384442 -0.112671 -0.088493
v 0.183213 -0.112671 0.373003
v -0.163957 -0.112671 0.311405
v -0.384443 -0.112671 -0.031800
v -0.229204 -0.112671 -0.344278
v -0.030061 -0.245873 -0.022639
v -0.229204 -0.112671 -0.344278
v -0.384443 -0.112671 -0.031800
v -0.163957 -0.112671 0.311405
v 0.183213 -0.112671 0.373003
vt 0.854939 0.073198
vt 0.874823 0.132056
vt 0.927343 0.052897
vt 0.953793 0.085732
vt 0.897018 0.150339
vt 0.943712 0.144631
vt 0.844884 0.154083
vt 0.831422 0.057354
vt 0.943037 0.012568
vt 0.994220 0.080372
vt 0.963246 0.168623
vt 0.887792 0.188101
vt 0.785333 0.126062
vt 0.818985 0.190538
vt 0.753802 0.186583
vt 0.719654 0.117807
vt 0.741673 0.056854
vn 0.876039 0.415182 -0.245316
vn 0.111532 0.856815 -0.503417
vn 0.300706 0.831637 0.466858
vn -0.429182 0.721861 0.542881
vn -0.475126 0.617105 -0.627246
vn -0.927256 0.370337 0.055202
vn 0.249049 -0.280739 -0.926909
vn 0.778018 -0.589411 -0.217445
vn 0.444424 -0.345338 0.826577
vn -0.611323 -0.375054 0.696864
vn -0.863914 -0.500626 0.055007
vn -0.650641 -0.370127 -0.663078
vn -0.041456 -0.998827 -0.025026
vn -0.650641 -0.370127 -0.663078
vn -0.863914 -0.500626 0.055007
vn -0.611323 -0.375054 0.696864
vn 0.444424 -0.345338 0.826577
usemtl material
f 1/0/1 2/0/2 3/0/3
f 3/0/3 2/0/2 4/0/4
f 2/0/2 5/0/5 4/0/4
f 4/0/4 5/0/5 6/0/6
f 7/0/7 2/0/2 1/0/1
f 5/0/5 2/0/2 7/0/7
f 8/0/8 7/0/7 1/0/1
f 8/0/8 1/0/1 9/0/9
f 1/0/1 3/0/3 9/0/9
f 9/0/9 3/0/3 4/0/4
f 10/0/10 9/0/9 4/0/4
f 10/0/10 4/0/4 6/0/6
f 11/0/11 10/0/10 6/0/6
f 11/0/11 6/0/6 12/0/12
f 6/0/6 5/0/5 12/0/12
f 12/0/12 5/0/5 7/0/7
f 8/0/8 13/0/13 7/0/7
f 7/0/7 13/0/13 14/0/14
f 14/0/14 13/0/13 15/0/15
f 15/0/15 13/0/13 16/0/16
f 16/0/16 13/0/13 17/0/17
f 17/0/17 13/0/13 8/0/8
