# 
# Wavefront OBJ file
# Created with Kaydara FBX
# 
mtllib snowfield_stone11_2 #2278816.mtl

g Snowfield_stone11_2
v -0.528347 0.342812 0.263394
v -0.356472 0.306558 0.141831
v -0.428269 0.113540 0.159019
v -0.602722 0.154102 0.244644
v -0.588035 0.182832 0.532144
v -0.420300 0.273135 0.737378
v -0.466550 0.128945 0.748081
v -0.120925 0.045605 0.947065
v -0.184128 0.321611 0.885894
v -0.308035 0.372012 0.701362
v -0.433738 0.370762 0.369253
v -0.257644 0.296870 0.261128
v -0.107800 0.301138 0.524722
v -0.288425 0.328892 0.448862
v -0.024753 0.259448 0.896206
v 0.067590 0.203682 0.813315
v 0.087981 0.215879 0.687690
v 0.048528 -0.031875 0.817300
v 0.058450 -0.052139 0.530269
v 0.067200 0.218374 0.276128
v -0.014675 -0.000601 0.205737
v -0.280066 0.114756 0.060269
v -0.068894 0.264609 0.196284
v -0.248035 0.224351 0.074175
v -0.113738 0.300732 0.323862
v -0.569285 0.307017 -0.674341
v -0.872410 0.453677 -0.841060
v -0.789363 0.207832 -0.716841
v -0.961160 0.409155 -0.997935
v -0.898347 0.526514 -0.999028
v -0.913972 0.435713 -1.193872
v -0.867878 0.174419 -1.407622
v -0.658582 0.427402 -1.244731
v -0.360457 0.350464 -1.208716
v -0.608347 0.450269 -0.799966
v -0.523347 0.139272 -0.646606
v -0.813660 0.341035 -1.436372
v -0.538738 0.089800 -1.425435
v -0.566003 0.281250 -1.421138
v -0.174988 0.232446 -1.249497
v -0.240300 0.174976 -1.317856
v -0.719285 0.399346 -1.366294
v -1.006160 0.257495 -1.025981
v -0.713035 0.495010 -0.981372
v -0.386707 0.403877 -0.841294
v -0.317722 0.373584 -1.023403
v -0.125613 0.220503 -1.034966
v -0.263113 0.342881 -0.776528
v -0.355378 0.262642 -0.674185
v -0.111863 0.195874 -0.769341
v -0.153972 0.145752 -0.726450
v -0.092097 -0.006938 -0.997231
v -0.287253 0.025840 -1.330903
v -0.048035 0.127388 -1.001763
v -0.392566 0.082085 -0.654653
v -0.170769 0.016138 -0.757310
v -1.363660 0.323066 -0.451841
v -1.228738 0.525308 -0.413638
v -1.356628 0.434087 -0.658638
v -1.390925 0.324648 -0.595981
v -1.297253 0.302358 -0.733560
v -1.142878 0.388262 -0.803091
v -0.929753 0.449307 -0.663091
v -1.217253 0.312158 -0.322700
v -0.998972 0.283960 -0.364497
v -0.946707 0.464712 -0.499731
v -1.097175 0.262979 -0.778013
v -0.838269 0.414165 -0.643247
v -0.830535 0.196401 -0.584810
v -0.890378 0.189116 -0.703325
v 0.696262 -0.054380 -0.631216
v 1.079934 -0.273208 -0.951763
v 0.800793 -0.199316 -0.943560
v 0.550247 -0.213320 -0.695903
v 1.077512 -0.131870 -0.583872
v 1.194075 -0.196006 -0.461685
v 1.179856 -0.403496 -0.813325
v 1.194387 -0.406660 -0.396763
v 0.729622 -0.006250 -0.341294
v 0.560012 -0.208315 -0.377310
v 0.687981 -0.234585 -0.105903
v 0.838918 -0.049463 -0.174341
v 0.992043 -0.066689 -0.384106
v 0.980090 -0.320371 -0.052544
v 1.133762 -0.368970 -0.155435
v 1.113528 -0.193179 -0.238872
v 0.955637 -0.090288 -0.172544
v 1.076731 -0.094780 -0.374888
v 0.803918 -0.314854 -1.060278
v 1.022981 -0.379780 -1.061684
v 1.132278 -0.399907 -0.968325
v -0.840300 0.273779 0.515815
v -1.166707 0.355190 0.723472
v -0.979207 0.583940 0.718159
v -0.777878 0.424829 0.534644
v -0.587644 0.407119 0.634878
v -0.650535 0.219478 0.607456
v -1.118503 0.535562 0.772847
v -1.301707 0.379687 0.951284
v -1.237722 0.530000 0.977222
v -1.253113 0.351694 1.163550
v -1.208738 0.610942 1.189878
v -1.085066 0.598022 0.893706
v -0.870300 0.616240 0.834409
v -0.602722 0.535273 0.866206
v -0.777253 0.592446 1.226284
v -1.049753 0.647383 1.059331
v -0.756160 0.493447 0.639800
v -1.189988 0.609429 0.983472
v -0.877175 0.537817 1.304018
v -1.151160 0.323237 1.227612
v -1.037097 0.277661 1.246518
v -0.746863 0.558965 1.300034
v -0.639207 0.462651 1.257534
v -0.541941 0.371172 0.698394
v -0.836316 0.432715 1.321050
v -0.644285 0.206489 1.148472
v -0.912644 0.245620 1.326597
v -0.608582 0.348735 1.192222
v -0.592566 0.208188 0.923784
v -0.125925 0.066504 -1.164106
v 0.052747 -0.089229 -1.240278
v 0.110247 0.063232 -1.311606
v -0.101785 0.137627 -1.271294
v -0.019441 0.041021 -1.545669
v -0.170613 0.131831 -1.345278
v -0.262644 -0.010947 -1.238325
v 0.069387 -0.116509 -1.420122
v 0.028606 -0.004814 -1.577075
v -0.038269 -0.082056 -1.599106
v -0.208113 0.005483 -1.480825
v -0.162332 0.096357 -1.453716
v -0.169441 -0.025796 -1.131763
v -0.999207 0.268140 0.140347
v -0.821785 0.255420 0.410815
v -0.898738 0.438330 0.180659
v -0.724128 0.386655 0.314175
v -0.594753 0.213437 0.372847
v -0.411550 0.290410 0.074175
v -0.738113 0.445786 0.164800
v -0.973816 0.259751 -0.041919
v -0.759753 0.462329 0.052769
v -0.667722 0.388442 -0.104497
v -0.689207 0.190557 -0.156763
v -0.467566 0.332334 -0.063638
v -0.510144 0.124014 0.301675
v -0.419050 0.128857 0.078003
v -0.514675 0.147729 -0.077310
vt 0.383275 0.335301
vt 0.413293 0.376319
vt 0.440484 0.347236
vt 0.399949 0.293508
vt 0.326143 0.319770
vt 0.260566 0.371318
vt 0.230600 0.359181
vt 0.199827 0.456238
vt 0.259319 0.426118
vt 0.290370 0.398561
vt 0.357275 0.362019
vt 0.388113 0.399571
vt 0.330912 0.440736
vt 0.342449 0.398383
vt 0.258653 0.456942
vt 0.269838 0.487567
vt 0.304530 0.478829
vt 0.246092 0.526180
vt 0.338372 0.523776
vt 0.393430 0.476819
vt 0.437995 0.498492
vt 0.471681 0.411751
vt 0.407522 0.441893
vt 0.443278 0.404582
vt 0.373579 0.434589
vt 0.692194 0.291554
vt 0.749524 0.205977
vt 0.684186 0.228343
vt 0.792642 0.139053
vt 0.792751 0.195542
vt 0.842934 0.167644
vt 0.930513 0.139443
vt 0.842652 0.243558
vt 0.848309 0.328371
vt 0.738836 0.268726
vt 0.660137 0.325304
vt 0.903003 0.184799
vt 0.938792 0.309092
vt 0.901927 0.278636
vt 0.861571 0.400199
vt 0.897790 0.388041
vt 0.874274 0.225603
vt 0.795767 0.103780
vt 0.786548 0.240810
vt 0.754749 0.316167
vt 0.795857 0.344141
vt 0.793406 0.406788
vt 0.733429 0.357986
vt 0.693847 0.354277
vt 0.729878 0.408825
vt 0.710251 0.417994
vt 0.777311 0.462518
vt 0.925927 0.411687
vt 0.780636 0.437883
vt 0.661924 0.380308
vt 0.706087 0.441861
vt 0.578015 0.053734
vt 0.569381 0.103474
vt 0.639917 0.075198
vt 0.645811 0.044532
vt 0.697198 0.065743
vt 0.682820 0.112906
vt 0.622984 0.152605
vt 0.524813 0.092312
vt 0.536243 0.161678
vt 0.581671 0.153072
vt 0.706792 0.127434
vt 0.617816 0.181188
vt 0.618041 0.220839
vt 0.663771 0.192966
vt 0.677258 0.728051
vt 0.776112 0.852200
vt 0.758185 0.772951
vt 0.688484 0.681609
vt 0.695091 0.820166
vt 0.658769 0.864505
vt 0.743722 0.894099
vt 0.630098 0.905554
vt 0.612073 0.723336
vt 0.598816 0.676577
vt 0.539323 0.715637
vt 0.572591 0.750007
vt 0.632411 0.786421
vt 0.529604 0.822081
vt 0.557710 0.869618
vt 0.585300 0.839033
vt 0.576981 0.785736
vt 0.635009 0.817629
vt 0.792067 0.785361
vt 0.810667 0.846996
vt 0.791538 0.890656
vt 0.346996 0.229399
vt 0.285454 0.100732
vt 0.277358 0.176414
vt 0.305080 0.230303
vt 0.275080 0.273908
vt 0.305717 0.304773
vt 0.253694 0.127668
vt 0.155297 0.063932
vt 0.156830 0.096814
vt 0.075025 0.094897
vt 0.115637 0.139336
vt 0.223887 0.148433
vt 0.243055 0.204916
vt 0.231205 0.263602
vt 0.167612 0.232895
vt 0.177082 0.174621
vt 0.278593 0.231258
vt 0.170306 0.129144
vt 0.124324 0.210902
vt 0.057543 0.118694
vt 0.064193 0.169083
vt 0.152030 0.246733
vt 0.151052 0.275091
vt 0.253225 0.293692
vt 0.107160 0.236404
vt 0.097544 0.323336
vt 0.069202 0.234806
vt 0.144640 0.301195
vt 0.180759 0.346975
vt 0.769159 0.529535
vt 0.776599 0.612499
vt 0.819242 0.588471
vt 0.812963 0.535577
vt 0.884318 0.551964
vt 0.831597 0.508440
vt 0.788274 0.475447
vt 0.866660 0.629959
vt 0.902227 0.570673
vt 0.928483 0.572633
vt 0.898463 0.475830
vt 0.874362 0.496127
vt 0.743945 0.522043
vt 0.434243 0.117389
vt 0.368935 0.176514
vt 0.434346 0.162002
vt 0.403427 0.211318
vt 0.383958 0.262201
vt 0.454978 0.285134
vt 0.438609 0.205415
vt 0.495260 0.138368
vt 0.465994 0.195054
vt 0.503972 0.213362
vt 0.552036 0.225531
vt 0.487907 0.262164
vt 0.399949 0.293508
vt 0.470768 0.329404
vt 0.517522 0.295553
vn -0.588931 0.722008 -0.363132
vn -0.175188 0.700859 -0.691452
vn -0.484966 0.177831 -0.856262
vn -0.762277 0.354694 -0.541412
vn -0.782407 0.565711 0.260406
vn -0.636413 0.509381 0.579232
vn -0.639629 0.259074 0.723710
vn 0.131498 0.064804 0.989196
vn -0.090644 0.719320 0.688740
vn -0.152682 0.967925 0.199525
vn -0.137922 0.990382 0.011001
vn 0.175105 0.960342 -0.216985
vn 0.318769 0.947449 -0.026968
vn 0.248765 0.967691 -0.041119
vn 0.484663 0.560738 0.671323
vn 0.864253 0.282205 0.416446
vn 0.883267 0.464263 0.065571
vn 0.905760 -0.066330 0.418568
vn 0.988828 -0.137217 -0.058236
vn 0.822313 0.409444 -0.395168
vn 0.763854 -0.080097 -0.640400
vn -0.020411 0.167899 -0.985593
vn 0.453598 0.649777 -0.609949
vn 0.126442 0.341281 -0.931418
vn 0.253299 0.960682 -0.113711
vn -0.067874 0.416241 0.906717
vn -0.557242 0.532538 0.637091
vn -0.478652 0.212888 0.851805
vn -0.947102 0.284670 0.148192
vn -0.435499 0.899609 0.032302
vn -0.690902 0.609934 -0.388116
vn -0.605180 0.037607 -0.795200
vn 0.178982 0.950950 -0.252308
vn 0.361227 0.864133 -0.350414
vn 0.087590 0.866149 0.492050
vn -0.028702 0.122485 0.992055
vn -0.369880 0.417706 -0.829886
vn 0.207569 0.011464 -0.978153
vn 0.266754 0.399148 -0.877225
vn 0.751368 0.403259 -0.522329
vn 0.579490 0.101185 -0.808674
vn 0.089167 0.849647 -0.519758
vn -0.959916 0.277595 0.038757
vn 0.201881 0.976628 -0.073771
vn 0.309865 0.941942 0.129343
vn 0.369535 0.922600 -0.110694
vn 0.715016 0.695734 -0.068606
vn 0.484418 0.771010 0.413379
vn 0.224418 0.384898 0.895260
vn 0.834535 0.281631 0.473535
vn 0.619511 -0.054020 0.783127
vn 0.948371 -0.300582 -0.101209
vn 0.598046 -0.132134 -0.790495
vn 0.991874 0.081151 -0.097980
vn 0.209860 0.010743 0.977672
vn 0.744970 -0.244321 0.620747
vn -0.800176 0.416838 0.431237
vn -0.236960 0.854903 0.461510
vn -0.688395 0.610851 -0.391118
vn -0.964173 0.247677 -0.095009
vn -0.566295 0.054566 -0.822394
vn -0.027894 0.408245 -0.912446
vn 0.278235 0.846846 -0.453252
vn -0.150163 0.380994 0.912302
vn 0.534611 0.361223 0.764008
vn 0.550519 0.725633 0.412779
vn 0.227597 -0.060908 -0.971849
vn 0.847447 0.468678 -0.249348
vn 0.995236 0.056824 0.079225
vn 0.648071 0.052865 -0.759743
vn -0.298952 0.916787 -0.264820
vn 0.553342 0.658624 -0.509928
vn -0.164546 0.802106 -0.574065
vn -0.658507 0.689055 -0.302606
vn 0.442578 0.859452 -0.255865
vn 0.894364 0.447300 0.006050
vn 0.916574 0.328066 -0.228615
vn 0.992037 0.038390 0.119950
vn -0.333542 0.932180 0.140680
vn -0.769066 0.613967 0.177712
vn -0.421780 0.543731 0.725574
vn -0.046711 0.809973 0.584604
vn 0.305304 0.952252 0.002376
vn 0.362290 0.433160 0.825299
vn 0.794413 0.304253 0.525679
vn 0.729376 0.512861 0.452752
vn 0.406888 0.721598 0.560124
vn 0.464948 0.863075 0.197296
vn -0.056184 0.697980 -0.713909
vn 0.360568 0.569268 -0.738867
vn 0.800024 0.389963 -0.455951
vn -0.051856 0.174397 -0.983309
vn -0.616308 0.356167 -0.702360
vn -0.209068 0.785073 -0.583054
vn 0.094455 0.408951 -0.907655
vn 0.662219 0.369165 -0.652061
vn 0.685341 -0.218936 -0.694533
vn -0.580830 0.587224 -0.563741
vn -0.909207 0.392836 -0.137923
vn -0.867728 0.449285 -0.212584
vn -0.821024 0.134860 0.554737
vn -0.601847 0.615885 0.508396
vn -0.313797 0.899097 -0.305215
vn 0.168418 0.952223 -0.254768
vn 0.702797 0.706991 -0.078992
vn 0.242913 0.936560 0.252681
vn -0.036132 0.999250 0.013905
vn 0.273817 0.834570 -0.478034
vn -0.553274 0.755149 -0.351620
vn -0.143486 0.450698 0.881069
vn -0.355165 -0.006168 0.934783
vn -0.307168 0.011125 0.951590
vn 0.343412 0.597069 0.724967
vn 0.747219 0.168068 0.642974
vn 0.965500 0.022590 -0.259420
vn 0.044368 -0.054851 0.997508
vn 0.768340 -0.327205 0.550083
vn -0.040568 0.046194 0.998108
vn 0.839987 -0.170214 0.515217
vn 0.967228 -0.241551 0.078251
vn -0.036662 0.585831 0.809604
vn 0.780205 -0.025121 0.625019
vn 0.848557 0.490165 0.199220
vn 0.026030 0.966640 0.254814
vn -0.063366 0.634753 -0.770112
vn -0.453369 0.886962 -0.088063
vn -0.744320 0.605150 0.282454
vn 0.956841 -0.206273 -0.204714
vn 0.525716 0.262875 -0.809024
vn 0.165171 0.135707 -0.976884
vn -0.633692 0.507953 -0.583453
vn -0.405507 0.771681 -0.489972
vn -0.148972 0.388931 0.909143
vn -0.867029 0.480035 0.133520
vn -0.218023 0.567618 0.793899
vn -0.556842 0.807039 0.196508
vn 0.184306 0.765479 0.616501
vn 0.573970 0.504973 0.644640
vn 0.901161 0.424462 0.087985
vn 0.229006 0.946871 0.225813
vn -0.578233 0.609900 -0.541912
vn -0.062625 0.969176 -0.238278
vn 0.034463 0.672333 -0.739446
vn 0.040607 0.191925 -0.980569
vn 0.677902 0.496695 -0.541981
vn 0.826263 0.219904 0.518586
vn 0.996060 -0.083404 -0.030141
vn 0.637140 -0.105790 -0.763453
usemtl material
f 1/0/1 2/0/2 3/0/3
f 1/0/1 3/0/3 4/0/4
f 4/0/4 5/0/5 1/0/1
f 1/0/1 5/0/5 6/0/6
f 7/0/7 6/0/6 5/0/5
f 8/0/8 6/0/6 7/0/7
f 9/0/9 6/0/6 8/0/8
f 10/0/10 6/0/6 9/0/9
f 10/0/10 11/0/11 6/0/6
f 11/0/11 1/0/1 6/0/6
f 11/0/11 2/0/2 1/0/1
f 11/0/11 12/0/12 2/0/2
f 13/0/13 10/0/10 9/0/9
f 10/0/10 13/0/13 14/0/14
f 11/0/11 10/0/10 14/0/14
f 15/0/15 9/0/9 8/0/8
f 9/0/9 15/0/15 13/0/13
f 15/0/15 8/0/8 16/0/16
f 17/0/17 13/0/13 15/0/15
f 15/0/15 16/0/16 17/0/17
f 16/0/16 8/0/8 18/0/18
f 19/0/19 16/0/16 18/0/18
f 16/0/16 19/0/19 17/0/17
f 17/0/17 19/0/19 20/0/20
f 13/0/13 17/0/17 20/0/20
f 20/0/20 19/0/19 21/0/21
f 21/0/21 22/0/22 20/0/20
f 23/0/23 20/0/20 22/0/22
f 22/0/22 24/0/24 23/0/23
f 3/0/3 24/0/24 22/0/22
f 23/0/23 24/0/24 2/0/2
f 3/0/3 2/0/2 24/0/24
f 23/0/23 2/0/2 12/0/12
f 23/0/23 25/0/25 20/0/20
f 25/0/25 13/0/13 20/0/20
f 25/0/25 14/0/14 13/0/13
f 23/0/23 12/0/12 25/0/25
f 25/0/25 12/0/12 11/0/11
f 11/0/11 14/0/14 25/0/25
f 26/0/26 27/0/27 28/0/28
f 27/0/27 29/0/29 28/0/28
f 29/0/29 27/0/27 30/0/30
f 31/0/31 29/0/29 30/0/30
f 32/0/32 29/0/29 31/0/31
f 30/0/30 33/0/33 31/0/31
f 33/0/33 30/0/30 34/0/34
f 27/0/27 26/0/26 35/0/35
f 30/0/30 27/0/27 35/0/35
f 26/0/26 28/0/28 36/0/36
f 31/0/31 37/0/37 32/0/32
f 32/0/32 37/0/37 38/0/38
f 37/0/37 39/0/39 38/0/38
f 39/0/39 34/0/34 40/0/40
f 41/0/41 39/0/39 40/0/40
f 39/0/39 41/0/41 38/0/38
f 42/0/42 34/0/34 39/0/39
f 37/0/37 42/0/42 39/0/39
f 42/0/42 37/0/37 31/0/31
f 42/0/42 31/0/31 33/0/33
f 42/0/42 33/0/33 34/0/34
f 43/0/43 29/0/29 32/0/32
f 28/0/28 29/0/29 43/0/43
f 44/0/44 34/0/34 30/0/30
f 35/0/35 44/0/44 30/0/30
f 44/0/44 45/0/45 34/0/34
f 35/0/35 45/0/45 44/0/44
f 40/0/40 34/0/34 46/0/46
f 34/0/34 45/0/45 46/0/46
f 46/0/46 47/0/47 40/0/40
f 47/0/47 46/0/46 48/0/48
f 35/0/35 48/0/48 45/0/45
f 45/0/45 48/0/48 46/0/46
f 35/0/35 49/0/49 48/0/48
f 48/0/48 49/0/49 50/0/50
f 48/0/48 50/0/50 47/0/47
f 50/0/50 49/0/49 51/0/51
f 52/0/52 50/0/50 51/0/51
f 52/0/52 53/0/53 40/0/40
f 40/0/40 53/0/53 41/0/41
f 38/0/38 41/0/41 53/0/53
f 52/0/52 40/0/40 54/0/54
f 54/0/54 50/0/50 52/0/52
f 47/0/47 54/0/54 40/0/40
f 50/0/50 54/0/54 47/0/47
f 51/0/51 49/0/49 55/0/55
f 36/0/36 55/0/55 49/0/49
f 36/0/36 49/0/49 26/0/26
f 35/0/35 26/0/26 49/0/49
f 51/0/51 55/0/55 56/0/56
f 51/0/51 56/0/56 52/0/52
f 57/0/57 58/0/58 59/0/59
f 59/0/59 60/0/60 57/0/57
f 60/0/60 59/0/59 61/0/61
f 62/0/62 59/0/59 58/0/58
f 62/0/62 61/0/61 59/0/59
f 58/0/58 63/0/63 62/0/62
f 64/0/64 58/0/58 57/0/57
f 58/0/58 64/0/64 65/0/65
f 65/0/65 66/0/66 58/0/58
f 63/0/63 58/0/58 66/0/66
f 61/0/61 62/0/62 67/0/67
f 62/0/62 68/0/68 67/0/67
f 68/0/68 66/0/66 65/0/65
f 62/0/62 63/0/63 68/0/68
f 68/0/68 63/0/63 66/0/66
f 69/0/69 68/0/68 65/0/65
f 70/0/70 67/0/67 68/0/68
f 70/0/70 68/0/68 69/0/69
f 71/0/71 72/0/72 73/0/73
f 71/0/71 73/0/73 74/0/74
f 71/0/71 75/0/75 72/0/72
f 75/0/75 76/0/76 72/0/72
f 72/0/72 76/0/76 77/0/77
f 77/0/77 76/0/76 78/0/78
f 71/0/71 79/0/79 75/0/75
f 74/0/74 79/0/79 71/0/71
f 74/0/74 80/0/80 79/0/79
f 80/0/80 81/0/81 79/0/79
f 82/0/82 79/0/79 81/0/81
f 79/0/79 82/0/82 83/0/83
f 79/0/79 83/0/83 75/0/75
f 84/0/84 82/0/82 81/0/81
f 76/0/76 85/0/85 78/0/78
f 86/0/86 84/0/84 85/0/85
f 76/0/76 86/0/86 85/0/85
f 86/0/86 87/0/87 84/0/84
f 83/0/83 87/0/87 86/0/86
f 82/0/82 87/0/87 83/0/83
f 84/0/84 87/0/87 82/0/82
f 88/0/88 86/0/86 76/0/76
f 75/0/75 88/0/88 76/0/76
f 83/0/83 86/0/86 88/0/88
f 83/0/83 88/0/88 75/0/75
f 89/0/89 74/0/74 73/0/73
f 89/0/89 73/0/73 72/0/72
f 72/0/72 90/0/90 89/0/89
f 90/0/90 72/0/72 91/0/91
f 72/0/72 77/0/77 91/0/91
f 92/0/92 93/0/93 94/0/94
f 92/0/92 94/0/94 95/0/95
f 95/0/95 96/0/96 92/0/92
f 92/0/92 96/0/96 97/0/97
f 94/0/94 93/0/93 98/0/98
f 93/0/93 99/0/99 98/0/98
f 99/0/99 100/0/100 98/0/98
f 100/0/100 99/0/99 101/0/101
f 101/0/101 102/0/102 100/0/100
f 98/0/98 103/0/103 94/0/94
f 103/0/103 98/0/98 100/0/100
f 94/0/94 103/0/103 104/0/104
f 105/0/105 94/0/94 104/0/104
f 104/0/104 106/0/106 105/0/105
f 104/0/104 107/0/107 106/0/106
f 107/0/107 104/0/104 103/0/103
f 106/0/106 107/0/107 102/0/102
f 108/0/108 94/0/94 105/0/105
f 105/0/105 96/0/96 108/0/108
f 95/0/95 108/0/108 96/0/96
f 108/0/108 95/0/95 94/0/94
f 109/0/109 102/0/102 107/0/107
f 102/0/102 109/0/109 100/0/100
f 109/0/109 107/0/107 103/0/103
f 109/0/109 103/0/103 100/0/100
f 110/0/110 106/0/106 102/0/102
f 111/0/111 110/0/110 102/0/102
f 111/0/111 102/0/102 101/0/101
f 112/0/112 110/0/110 111/0/111
f 106/0/106 113/0/113 105/0/105
f 106/0/106 110/0/110 113/0/113
f 105/0/105 113/0/113 114/0/114
f 105/0/105 114/0/114 115/0/115
f 116/0/116 114/0/114 113/0/113
f 110/0/110 112/0/112 116/0/116
f 113/0/113 110/0/110 116/0/116
f 114/0/114 116/0/116 117/0/117
f 116/0/116 118/0/118 117/0/117
f 116/0/116 112/0/112 118/0/118
f 119/0/119 115/0/115 114/0/114
f 119/0/119 114/0/114 117/0/117
f 115/0/115 119/0/119 120/0/120
f 120/0/120 119/0/119 117/0/117
f 115/0/115 120/0/120 97/0/97
f 115/0/115 97/0/97 96/0/96
f 105/0/105 115/0/115 96/0/96
f 121/0/121 122/0/122 123/0/123
f 124/0/124 121/0/121 123/0/123
f 123/0/123 125/0/125 124/0/124
f 125/0/125 126/0/126 124/0/124
f 126/0/126 121/0/121 124/0/124
f 126/0/126 127/0/127 121/0/121
f 123/0/123 122/0/122 128/0/128
f 123/0/123 128/0/128 129/0/129
f 123/0/123 129/0/129 125/0/125
f 130/0/130 129/0/129 128/0/128
f 129/0/129 130/0/130 131/0/131
f 132/0/132 129/0/129 131/0/131
f 127/0/127 132/0/132 131/0/131
f 132/0/132 126/0/126 125/0/125
f 127/0/127 126/0/126 132/0/132
f 132/0/132 125/0/125 129/0/129
f 121/0/121 133/0/133 122/0/122
f 121/0/121 127/0/127 133/0/133
f 134/0/134 135/0/135 136/0/136
f 136/0/136 135/0/135 137/0/137
f 137/0/137 135/0/135 138/0/138
f 139/0/139 137/0/137 138/0/138
f 139/0/139 140/0/140 137/0/137
f 140/0/140 136/0/136 137/0/137
f 141/0/141 134/0/134 136/0/136
f 136/0/136 142/0/142 141/0/141
f 136/0/136 140/0/140 142/0/142
f 142/0/142 143/0/143 141/0/141
f 141/0/141 143/0/143 144/0/144
f 144/0/144 143/0/143 145/0/145
f 145/0/145 143/0/143 142/0/142
f 145/0/145 140/0/140 139/0/139
f 142/0/142 140/0/140 145/0/145
f 138/0/138 146/0/146 139/0/139
f 146/0/146 147/0/147 139/0/139
f 145/0/145 139/0/139 147/0/147
f 147/0/147 148/0/148 145/0/145
f 148/0/148 144/0/144 145/0/145
