# 
# Wavefront OBJ file
# Created with Kaydara FBX
# 
mtllib snowfield_stone_019.mtl

g snowfield_Stone_019
v -5.322968 5.738454 -42.435936
v -0.872344 13.188298 -37.057812
v 11.722343 11.987507 -39.243435
v 29.494219 15.069382 -22.205313
v 10.853594 20.207405 -30.315311
v 3.462656 23.255861 -24.761875
v 14.125156 -1.401291 -37.293751
v 1.674844 -1.203960 -37.360622
v -11.290781 -4.722646 -41.218750
v 1.124844 -9.310910 -29.921562
v 13.915468 -9.543471 -28.045624
v 29.601406 -7.072061 -23.247499
v 27.372969 13.299284 -32.055313
v 34.996094 -5.119263 -15.558437
v 32.073906 11.489197 -10.606250
v -17.371094 -7.207373 -31.924374
v -20.127968 6.104445 -34.194061
v -25.427969 -6.269807 -34.577187
v -13.073906 4.151853 -40.026875
v -16.294531 11.208474 -39.236248
v 37.505779 10.079822 -7.905000
v 34.941406 -3.495715 6.502500
v 34.606716 4.523835 13.935625
v -7.000781 18.920046 -36.119999
v -20.134844 18.593864 -29.280312
v -29.696718 6.997258 -20.874062
v -9.497031 23.113268 -20.813124
v -26.493906 5.864978 -33.169685
v -35.507343 -5.201523 -14.983125
v -25.427969 -6.269807 -34.577187
v -33.226406 -10.407727 -16.611563
v -17.371094 -7.207373 -31.924374
v -33.433281 -15.234206 -0.217187
v -27.521406 -14.699590 -15.997499
v -14.946094 -17.112112 1.264375
v -10.062344 -10.808989 -29.045937
v -21.882343 -20.704868 9.555937
v -25.040155 -19.911324 14.588437
v -5.668281 -18.536850 8.641875
v -9.531718 -26.144291 26.815624
v -28.090780 -18.747377 20.683750
v -11.397344 -18.523571 35.439373
v 1.964844 -21.969862 33.096249
v 15.354531 -18.104511 38.593124
v 23.376719 -21.432932 24.435938
v 10.273594 -20.259363 15.950313
v 11.512968 -15.716054 1.060938
v -0.900469 -25.716801 22.330313
v 26.190781 -16.416477 -3.122187
v 17.672344 -17.198338 -13.719999
v 1.124844 -9.310910 -29.921562
v 22.837030 -14.439892 -12.740313
v 13.915468 -9.543471 -28.045624
v 30.682030 -13.730190 -21.691563
v -28.090780 -18.747377 20.683750
v -29.849531 -3.175564 21.967188
v -35.429531 -1.992126 15.165937
v -25.040155 -19.911324 14.588437
v -33.433281 -15.234206 -0.217187
v -11.397344 -18.523571 35.439373
v -28.450781 6.183830 22.921875
v -23.887968 17.035521 9.513124
v -29.555155 6.068743 11.226874
v -21.098906 18.431837 -0.918125
v -32.991093 10.289455 -4.534688
v -25.605469 18.173986 -14.912188
v -36.997967 2.392229 -8.139375
v -37.505779 4.365378 -1.317187
v -35.812344 -5.723088 1.959062
v -33.883907 1.881868 8.154687
v -14.135781 21.544044 3.444687
v -4.518906 20.379578 -2.484687
v -2.983281 14.256208 18.541874
v -10.996094 11.418196 31.047812
v 5.424531 6.110871 37.671562
v 6.218281 26.144304 -17.361250
v 6.664218 14.982912 19.759375
v 17.972343 14.553982 15.261874
v 26.107656 18.874729 -0.211250
v 27.115469 15.741017 -16.744688
v 23.159218 8.917917 9.663125
v 8.708593 10.313644 20.329374
v 13.539531 -1.249250 38.569061
v 26.544218 -11.402990 36.603436
v 31.962656 -15.547199 12.453437
v 23.376719 -21.432932 24.435938
v 26.190781 -16.416477 -3.122187
v 13.627656 -8.781660 42.435310
v -25.249844 -1.666438 30.260000
v 15.354531 -18.104511 38.593124
v 30.682030 -13.730190 -21.691563
v 15.354531 -18.104511 38.593124
v -23.697968 11.626515 29.700937
v 30.682030 -13.730190 -21.691563
v -37.387966 -4.267541 -6.434062
v -10.062344 -10.808989 -29.045937
vt 0.912219 0.420881
vt 0.888468 0.435553
vt 0.894816 0.466329
vt 0.857003 0.510076
vt 0.863269 0.462188
vt 0.847394 0.447430
vt 0.927930 0.484467
vt 0.935910 0.445092
vt 0.934397 0.399879
vt 0.972783 0.446706
vt 0.956287 0.508844
vt 0.905109 0.563408
vt 0.878704 0.501689
vt 0.869792 0.573825
vt 0.833121 0.529825
vt 0.950854 0.369110
vt 0.890992 0.363158
vt 0.934911 0.338352
vt 0.908767 0.394035
vt 0.891335 0.386877
vt 0.828234 0.542949
vt 0.793437 0.578742
vt 0.774240 0.556895
vt 0.873395 0.419414
vt 0.852509 0.388099
vt 0.833811 0.338787
vt 0.833074 0.418934
vt 0.883151 0.338537
vt 0.797712 0.295469
vt 0.881309 0.286521
vt 0.805741 0.276175
vt 0.885601 0.254432
vt 0.745408 0.256701
vt 0.812246 0.253060
vt 0.776816 0.185964
vt 0.886562 0.222204
vt 0.737425 0.194401
vt 0.716397 0.196656
vt 0.768014 0.143747
vt 0.700442 0.124744
vt 0.691689 0.198160
vt 0.661883 0.118976
vt 0.694623 0.078428
vt 0.694475 0.023112
vt 0.757013 0.020345
vt 0.765982 0.076974
vt 0.821158 0.096980
vt 0.724999 0.105071
vt 0.859695 0.057254
vt 0.879513 0.101455
vt 0.909768 0.186038
vt 0.887159 0.082732
vt 0.925069 0.139772
vt 0.928399 0.072203
vt 0.624364 0.353225
vt 0.673594 0.374773
vt 0.696993 0.351573
vt 0.626651 0.326480
vt 0.692490 0.281549
vt 0.608469 0.449378
vt 0.696512 0.392004
vt 0.746019 0.398941
vt 0.723603 0.369412
vt 0.776509 0.396189
vt 0.772397 0.352120
vt 0.812841 0.376610
vt 0.775669 0.321580
vt 0.755364 0.333285
vt 0.726703 0.306142
vt 0.723838 0.346104
vt 0.770270 0.420068
vt 0.790430 0.440722
vt 0.739698 0.461383
vt 0.703300 0.451558
vt 0.690620 0.501339
vt 0.830953 0.455878
vt 0.747990 0.483857
vt 0.765987 0.504282
vt 0.806567 0.507816
vt 0.842662 0.507540
vt 0.777190 0.524122
vt 0.739138 0.495598
vt 0.678992 0.532372
vt 0.692325 0.580473
vt 0.769399 0.614043
vt 0.713961 0.633546
vt 0.828690 0.631773
vt 0.652353 0.545492
vt 0.666947 0.407014
vt 0.652657 0.591351
vt 0.900111 0.590597
vt 0.615661 0.549724
vt 0.698494 0.417741
vt 0.922247 0.580091
vt 0.762712 0.303083
vt 0.970832 0.398791
vn -0.033033 0.070751 -0.996947
vn 0.084752 0.515259 -0.852833
vn 0.155192 0.610343 -0.776786
vn 0.543819 0.800309 -0.252518
vn 0.303243 0.691870 -0.655256
vn 0.151610 0.950469 -0.271335
vn 0.247083 -0.485172 -0.838784
vn 0.182699 -0.570732 -0.800554
vn -0.225848 -0.441232 -0.868509
vn 0.047859 -0.840078 -0.540351
vn 0.194796 -0.759483 -0.620677
vn 0.613682 -0.278436 -0.738829
vn 0.716992 0.179946 -0.673455
vn 0.945624 -0.134835 -0.295997
vn 0.799152 0.600423 0.029127
vn -0.200333 -0.725013 -0.658956
vn -0.510646 0.095029 -0.854523
vn -0.447771 -0.336062 -0.828591
vn -0.405768 0.146215 -0.902205
vn -0.465590 0.233987 -0.853508
vn 0.820839 0.567761 -0.062220
vn 0.984405 -0.152869 0.087049
vn 0.785244 0.475709 0.396349
vn -0.036093 0.770264 -0.636703
vn -0.547275 0.731129 -0.407357
vn -0.808034 0.435604 -0.396648
vn -0.190285 0.978539 -0.079075
vn -0.664280 0.451990 -0.595346
vn -0.947786 -0.078575 -0.309074
vn -0.447771 -0.336062 -0.828591
vn -0.634655 -0.681437 -0.364494
vn -0.200333 -0.725013 -0.658956
vn -0.720431 -0.689876 -0.071067
vn -0.260991 -0.902552 -0.342466
vn 0.008438 -0.969195 -0.246149
vn 0.002682 -0.914832 -0.403826
vn -0.045936 -0.986328 -0.158264
vn -0.438869 -0.897185 -0.049533
vn 0.016559 -0.977645 -0.209607
vn -0.178767 -0.976292 0.122052
vn -0.734732 -0.567808 0.371163
vn -0.377747 -0.493473 0.783449
vn 0.120258 -0.928905 0.350248
vn 0.182256 -0.677790 0.712309
vn 0.293337 -0.954481 0.054030
vn 0.230545 -0.964841 -0.126213
vn 0.122070 -0.983523 -0.133347
vn 0.168675 -0.974646 -0.147014
vn 0.306499 -0.942681 -0.131950
vn 0.219521 -0.959826 -0.174772
vn 0.047859 -0.840078 -0.540351
vn 0.117001 -0.977960 -0.172931
vn 0.194796 -0.759483 -0.620677
vn 0.476951 -0.730318 -0.489032
vn -0.734732 -0.567808 0.371163
vn -0.797908 -0.083389 0.596984
vn -0.986571 0.065734 0.149518
vn -0.438869 -0.897185 -0.049533
vn -0.720431 -0.689876 -0.071067
vn -0.377747 -0.493473 0.783449
vn -0.862641 0.318391 0.393037
vn -0.737109 0.675476 -0.020081
vn -0.767044 0.627217 0.135063
vn -0.478338 0.875808 0.064448
vn -0.741133 0.660154 0.122142
vn -0.659886 0.741927 -0.118724
vn -0.951879 0.249000 -0.178677
vn -0.949147 0.278035 0.147706
vn -0.990721 -0.061090 0.121411
vn -0.868651 0.420731 0.261594
vn -0.073579 0.987763 0.137519
vn -0.074001 0.987710 0.137670
vn 0.119955 0.882088 0.455557
vn 0.066225 0.896647 0.437766
vn 0.146351 0.744040 0.651910
vn 0.097834 0.994908 0.024234
vn 0.038865 0.757756 0.651380
vn 0.591784 0.474010 0.652001
vn 0.626248 0.762296 0.163458
vn 0.497447 0.860219 -0.112118
vn 0.470788 0.765267 0.439005
vn 0.340074 0.477826 0.809958
vn 0.247399 0.442400 0.862018
vn 0.730148 -0.152851 0.665973
vn 0.867348 -0.492058 0.074745
vn 0.293337 -0.954481 0.054030
vn 0.306499 -0.942681 -0.131950
vn 0.045239 0.048943 0.997777
vn -0.475707 0.023830 0.879281
vn 0.182256 -0.677790 0.712309
vn 0.476951 -0.730318 -0.489032
vn 0.182256 -0.677790 0.712309
vn -0.549783 0.584655 0.596588
vn 0.476951 -0.730318 -0.489032
vn -0.988952 -0.147976 -0.008802
vn 0.002682 -0.914832 -0.403826
usemtl material
f 1/0/1 2/0/2 3/0/3
f 3/0/3 2/0/2 4/0/4
f 2/0/2 5/0/5 4/0/4
f 4/0/4 5/0/5 6/0/6
f 1/0/1 3/0/3 7/0/7
f 1/0/1 7/0/7 8/0/8
f 1/0/1 8/0/8 9/0/9
f 8/0/8 10/0/10 9/0/9
f 7/0/7 10/0/10 8/0/8
f 7/0/7 11/0/11 10/0/10
f 12/0/12 11/0/11 7/0/7
f 7/0/7 13/0/13 12/0/12
f 4/0/4 13/0/13 3/0/3
f 7/0/7 3/0/3 13/0/13
f 13/0/13 4/0/4 14/0/14
f 13/0/13 14/0/14 12/0/12
f 14/0/14 4/0/4 15/0/15
f 10/0/10 16/0/16 9/0/9
f 9/0/9 16/0/16 17/0/17
f 16/0/16 18/0/18 17/0/17
f 9/0/9 17/0/17 19/0/19
f 19/0/19 17/0/17 20/0/20
f 19/0/19 1/0/1 9/0/9
f 14/0/14 15/0/15 21/0/21
f 21/0/21 22/0/22 14/0/14
f 23/0/23 22/0/22 21/0/21
f 19/0/19 20/0/20 2/0/2
f 1/0/1 19/0/19 2/0/2
f 2/0/2 20/0/20 24/0/24
f 24/0/24 20/0/20 25/0/25
f 20/0/20 26/0/26 25/0/25
f 17/0/17 26/0/26 20/0/20
f 24/0/24 5/0/5 2/0/2
f 6/0/6 5/0/5 24/0/24
f 6/0/6 24/0/24 27/0/27
f 27/0/27 24/0/24 25/0/25
f 28/0/28 17/0/17 18/0/18
f 17/0/17 28/0/28 26/0/26
f 26/0/26 28/0/28 29/0/29
f 28/0/28 30/0/30 29/0/29
f 30/0/30 31/0/31 29/0/29
f 31/0/31 30/0/30 32/0/32
f 31/0/31 33/0/33 29/0/29
f 34/0/34 31/0/31 32/0/32
f 34/0/34 33/0/33 31/0/31
f 33/0/33 34/0/34 35/0/35
f 35/0/35 34/0/34 36/0/36
f 36/0/36 34/0/34 32/0/32
f 33/0/33 35/0/35 37/0/37
f 33/0/33 37/0/37 38/0/38
f 37/0/37 39/0/39 38/0/38
f 39/0/39 37/0/37 35/0/35
f 39/0/39 35/0/35 36/0/36
f 40/0/40 38/0/38 39/0/39
f 40/0/40 41/0/41 38/0/38
f 40/0/40 42/0/42 41/0/41
f 42/0/42 40/0/40 43/0/43
f 44/0/44 42/0/42 43/0/43
f 44/0/44 43/0/43 45/0/45
f 45/0/45 43/0/43 46/0/46
f 45/0/45 46/0/46 47/0/47
f 48/0/48 39/0/39 47/0/47
f 48/0/48 47/0/47 46/0/46
f 43/0/43 48/0/48 46/0/46
f 43/0/43 40/0/40 48/0/48
f 48/0/48 40/0/40 39/0/39
f 49/0/49 45/0/45 47/0/47
f 50/0/50 47/0/47 39/0/39
f 50/0/50 39/0/39 51/0/51
f 51/0/51 39/0/39 36/0/36
f 52/0/52 47/0/47 50/0/50
f 49/0/49 47/0/47 52/0/52
f 51/0/51 53/0/53 50/0/50
f 52/0/52 50/0/50 53/0/53
f 52/0/52 53/0/53 54/0/54
f 54/0/54 49/0/49 52/0/52
f 55/0/55 56/0/56 57/0/57
f 58/0/58 55/0/55 57/0/57
f 57/0/57 59/0/59 58/0/58
f 56/0/56 55/0/55 60/0/60
f 57/0/57 56/0/56 61/0/61
f 61/0/61 62/0/62 57/0/57
f 63/0/63 57/0/57 62/0/62
f 62/0/62 64/0/64 63/0/63
f 64/0/64 65/0/65 63/0/63
f 64/0/64 66/0/66 65/0/65
f 66/0/66 67/0/67 65/0/65
f 67/0/67 66/0/66 26/0/26
f 68/0/68 65/0/65 67/0/67
f 68/0/68 67/0/67 69/0/69
f 57/0/57 69/0/69 59/0/59
f 68/0/68 69/0/69 70/0/70
f 70/0/70 69/0/69 57/0/57
f 70/0/70 65/0/65 68/0/68
f 63/0/63 65/0/65 70/0/70
f 57/0/57 63/0/63 70/0/70
f 64/0/64 62/0/62 71/0/71
f 72/0/72 64/0/64 71/0/71
f 72/0/72 71/0/71 73/0/73
f 73/0/73 71/0/71 74/0/74
f 75/0/75 73/0/73 74/0/74
f 64/0/64 72/0/72 27/0/27
f 27/0/27 66/0/66 64/0/64
f 76/0/76 27/0/27 72/0/72
f 77/0/77 76/0/76 72/0/72
f 77/0/77 72/0/72 73/0/73
f 76/0/76 77/0/77 78/0/78
f 78/0/78 79/0/79 76/0/76
f 79/0/79 80/0/80 76/0/76
f 79/0/79 15/0/15 80/0/80
f 15/0/15 79/0/79 78/0/78
f 15/0/15 78/0/78 81/0/81
f 81/0/81 82/0/82 75/0/75
f 81/0/81 78/0/78 82/0/82
f 77/0/77 82/0/82 78/0/78
f 82/0/82 73/0/73 75/0/75
f 82/0/82 77/0/77 73/0/73
f 81/0/81 75/0/75 23/0/23
f 21/0/21 15/0/15 81/0/81
f 21/0/21 81/0/81 23/0/23
f 23/0/23 75/0/75 83/0/83
f 23/0/23 83/0/83 84/0/84
f 85/0/85 23/0/23 84/0/84
f 84/0/84 86/0/86 85/0/85
f 85/0/85 86/0/86 87/0/87
f 87/0/87 14/0/14 85/0/85
f 88/0/88 84/0/84 83/0/83
f 88/0/88 83/0/83 89/0/89
f 60/0/60 88/0/88 89/0/89
f 84/0/84 90/0/90 86/0/86
f 84/0/84 88/0/88 90/0/90
f 87/0/87 91/0/91 14/0/14
f 88/0/88 60/0/60 92/0/92
f 89/0/89 83/0/83 75/0/75
f 75/0/75 93/0/93 89/0/89
f 91/0/91 12/0/12 14/0/14
f 89/0/89 93/0/93 56/0/56
f 60/0/60 89/0/89 56/0/56
f 14/0/14 22/0/22 85/0/85
f 85/0/85 22/0/22 23/0/23
f 93/0/93 75/0/75 74/0/74
f 71/0/71 93/0/93 74/0/74
f 71/0/71 62/0/62 93/0/93
f 61/0/61 56/0/56 93/0/93
f 62/0/62 61/0/61 93/0/93
f 94/0/94 11/0/11 12/0/12
f 95/0/95 33/0/33 69/0/69
f 67/0/67 95/0/95 69/0/69
f 29/0/29 95/0/95 67/0/67
f 95/0/95 29/0/29 33/0/33
f 67/0/67 26/0/26 29/0/29
f 25/0/25 26/0/26 66/0/66
f 27/0/27 25/0/25 66/0/66
f 27/0/27 76/0/76 6/0/6
f 80/0/80 6/0/6 76/0/76
f 4/0/4 6/0/6 80/0/80
f 4/0/4 80/0/80 15/0/15
f 10/0/10 96/0/96 16/0/16
