# 
# Wavefront OBJ file
# Created with Kaydara FBX
# 
mtllib snowfield_stone_06_1 #2278807.mtl

g snowfield_Stone_06_1
v 0.631809 -0.629297 0.407456
v 0.794934 0.252256 0.387222
v 0.406497 0.317065 0.648237
v 1.118215 -0.142783 -0.226216
v 0.624387 -0.605220 -0.616606
v 0.715168 -0.450854 -0.831450
v 0.987512 0.056221 -0.566138
v 1.068450 0.304419 -0.230356
v 0.270012 -0.079473 0.816675
v 0.196106 -0.570718 0.723784
v -0.246160 -0.217212 0.979409
v -0.138503 0.056294 1.041675
v -0.668269 0.278281 0.763315
v 0.260247 0.542339 0.445425
v -1.015769 0.375532 0.151675
v -0.916082 -0.273926 0.148159
v 0.794700 0.387847 0.343159
v 0.427590 0.465981 -0.854185
v -0.129050 0.121895 -1.412544
v -0.782488 0.538657 -0.606294
v -0.897878 -0.088789 -0.710981
v -0.162566 0.489141 -0.009263
v -1.060847 0.460273 -0.303169
v -0.918191 -0.278848 -0.404419
v -0.643503 0.022993 0.809956
v -0.441472 -0.277026 -1.068013
v -0.918191 -0.278848 -0.404419
v -0.043738 -0.472432 -0.639263
v -0.916082 -0.273926 0.148159
v 0.196106 -0.570718 0.723784
v -0.246160 -0.217212 0.979409
v 0.624387 -0.605220 -0.616606
v 0.631809 -0.629297 0.407456
v -0.011160 -0.309971 -1.236528
v 0.715168 -0.450854 -0.831450
v 0.715168 -0.450854 -0.831450
v -0.011160 -0.309971 -1.236528
vt 0.124355 0.633792
vt 0.178220 0.693258
vt 0.213045 0.670756
vt 0.128042 0.737283
vt 0.050523 0.740837
vt 0.059132 0.772492
vt 0.135775 0.781828
vt 0.158611 0.747492
vt 0.210295 0.631202
vt 0.182598 0.590573
vt 0.270662 0.601474
vt 0.257232 0.629146
vt 0.293153 0.667319
vt 0.226128 0.693901
vt 0.321552 0.711793
vt 0.376659 0.685786
vt 0.186904 0.704511
vt 0.209523 0.793558
vt 0.257879 0.854462
vt 0.305349 0.769617
vt 0.355430 0.795982
vt 0.257839 0.727371
vt 0.324385 0.746834
vt 0.383607 0.758631
vt 0.299387 0.648200
vt 0.317946 0.848049
vt 0.389286 0.808965
vt 0.349292 0.897057
vt 0.445649 0.818401
vt 0.484147 0.948817
vt 0.526260 0.896858
vt 0.332473 0.965892
vt 0.440913 0.988199
vt 0.290181 0.883673
vt 0.302861 0.965074
vt 0.139914 0.848652
vt 0.218701 0.882234
vn 0.677527 -0.451046 0.580960
vn 0.783435 0.056688 0.618884
vn 0.518346 0.328503 0.789559
vn 0.955758 -0.294155 -0.000600
vn 0.196641 -0.960694 -0.195958
vn 0.636453 -0.423903 -0.644386
vn 0.778033 0.162358 -0.606881
vn 0.895251 0.445438 -0.010514
vn 0.525575 -0.125781 0.841398
vn -0.024102 -0.901184 0.432767
vn -0.217716 -0.373414 0.901755
vn 0.134830 0.315717 0.939225
vn -0.573579 0.351928 0.739699
vn 0.058390 0.945619 0.319993
vn -0.524001 0.810027 0.263210
vn -0.773759 -0.572486 0.271214
vn 0.551861 0.724659 0.412698
vn 0.283903 0.908917 -0.305401
vn -0.020195 0.127493 -0.991634
vn -0.330034 0.897357 -0.292965
vn -0.804486 -0.104456 -0.584714
vn -0.054998 0.997881 0.034777
vn -0.973307 0.184954 -0.135890
vn -0.708393 -0.681750 -0.182748
vn -0.691620 -0.185962 0.697911
vn -0.458445 -0.696050 -0.552577
vn -0.708393 -0.681750 -0.182748
vn -0.213034 -0.968268 -0.130662
vn -0.773759 -0.572486 0.271214
vn -0.024102 -0.901184 0.432767
vn -0.217716 -0.373414 0.901755
vn 0.196641 -0.960694 -0.195958
vn 0.677527 -0.451046 0.580960
vn -0.030994 -0.774626 -0.631659
vn 0.636453 -0.423903 -0.644386
vn 0.636453 -0.423903 -0.644386
vn -0.030994 -0.774626 -0.631659
usemtl material
f 1/0/1 2/0/2 3/0/3
f 4/0/4 2/0/2 1/0/1
f 5/0/5 4/0/4 1/0/1
f 6/0/6 4/0/4 5/0/5
f 7/0/7 4/0/4 6/0/6
f 8/0/8 2/0/2 4/0/4
f 4/0/4 7/0/7 8/0/8
f 1/0/1 3/0/3 9/0/9
f 1/0/1 9/0/9 10/0/10
f 9/0/9 11/0/11 10/0/10
f 9/0/9 12/0/12 11/0/11
f 9/0/9 3/0/3 12/0/12
f 11/0/11 12/0/12 13/0/13
f 12/0/12 14/0/14 13/0/13
f 3/0/3 14/0/14 12/0/12
f 15/0/15 13/0/13 14/0/14
f 16/0/16 13/0/13 15/0/15
f 17/0/17 14/0/14 3/0/3
f 2/0/2 8/0/8 17/0/17
f 2/0/2 17/0/17 3/0/3
f 17/0/17 8/0/8 18/0/18
f 18/0/18 14/0/14 17/0/17
f 18/0/18 8/0/8 7/0/7
f 19/0/19 18/0/18 7/0/7
f 18/0/18 19/0/19 20/0/20
f 21/0/21 20/0/20 19/0/19
f 22/0/22 18/0/18 20/0/20
f 22/0/22 20/0/20 15/0/15
f 18/0/18 22/0/22 14/0/14
f 14/0/14 22/0/22 15/0/15
f 23/0/23 20/0/20 21/0/21
f 16/0/16 15/0/15 23/0/23
f 15/0/15 20/0/20 23/0/23
f 24/0/24 16/0/16 23/0/23
f 23/0/23 21/0/21 24/0/24
f 25/0/25 13/0/13 16/0/16
f 25/0/25 11/0/11 13/0/13
f 11/0/11 25/0/25 16/0/16
f 19/0/19 26/0/26 21/0/21
f 21/0/21 26/0/26 27/0/27
f 26/0/26 28/0/28 27/0/27
f 27/0/27 28/0/28 29/0/29
f 30/0/30 29/0/29 28/0/28
f 30/0/30 31/0/31 29/0/29
f 28/0/28 32/0/32 30/0/30
f 32/0/32 33/0/33 30/0/30
f 32/0/32 28/0/28 34/0/34
f 34/0/34 28/0/28 26/0/26
f 19/0/19 34/0/34 26/0/26
f 34/0/34 35/0/35 32/0/32
f 19/0/19 7/0/7 36/0/36
f 37/0/37 19/0/19 36/0/36
