# 
# Wavefront OBJ file
# Created with Kaydara FBX
# 
mtllib snowfield_stone_04 #2278802.mtl

g snowfield_Stone_04
v -1.621550 1.383476 -0.465122
v -1.429832 1.025185 -1.344341
v -1.664207 0.913008 -0.218950
v -1.495925 1.634277 -0.594185
v -1.003972 1.695552 -1.377856
v -1.585769 1.609082 -0.289028
v -1.442253 1.806123 -0.246372
v -1.594831 1.518584 0.357065
v -0.930769 2.208066 -0.912231
v -1.195222 2.130640 -0.306841
v -1.038894 2.122065 -0.348560
v -1.012097 2.298218 -0.199028
v -1.370847 2.050337 0.389409
v -1.229441 1.955869 0.657456
v -0.664285 2.890166 -0.524575
v -0.641550 2.378208 -0.899810
v -0.518660 2.326040 -1.273638
v -0.063582 2.638281 -0.742856
v 0.322903 2.323975 0.241050
v -0.599519 2.440698 0.738081
v -0.782097 2.290283 0.734956
v -1.150769 2.283501 0.606362
v -0.703738 2.097119 -1.478247
v 0.566887 2.294277 -0.776216
v 0.598215 2.066724 -1.065356
v 1.224856 2.172681 -0.713794
v 1.036575 2.097920 1.003237
v 1.332668 1.981108 -0.733091
v 1.253528 1.834990 0.733472
v 0.810325 1.891733 1.256362
v -0.811550 1.834131 0.913862
v -1.264050 1.787207 0.857222
v -1.351238 1.877866 0.680894
v -1.341707 1.512012 0.673394
v -1.302488 1.228975 0.773706
v -1.480300 1.289097 0.294956
v -1.457175 0.729048 0.256519
v -1.406706 0.450522 0.327769
v -1.124910 0.124277 0.996440
v -1.704988 0.849404 0.193003
v -1.534910 1.372939 -0.127153
v -0.991707 0.730269 1.224487
v -0.889910 1.430068 1.409722
v -0.913503 1.743237 1.099722
v -0.824207 1.767129 1.450659
v -0.814363 1.846992 1.202534
v 0.098528 1.792808 1.696128
v -0.001316 2.025835 1.091675
v 0.143997 2.057348 1.136518
v 0.255168 1.635493 1.999487
v -0.152332 0.845933 1.431831
v -0.991707 0.730269 1.224487
v 0.037825 0.350947 1.555815
v -0.889910 1.430068 1.409722
v -0.189128 0.592021 0.995815
v 1.497747 1.551724 1.405425
v 1.084465 1.095142 1.507222
v 0.037825 0.350947 1.555815
v 0.634778 0.379922 1.409644
v 1.284231 0.607583 1.150659
v 0.999778 0.305405 1.177690
v 1.351731 0.796792 1.143628
v 1.380872 1.045625 1.103550
v 1.378215 1.691953 1.048706
v 1.569309 1.614990 0.944409
v 1.357590 0.795825 1.025190
v 1.578918 0.833325 0.851831
v 1.503918 0.864224 0.621362
v 1.498840 1.662275 0.470347
v 1.813450 1.817979 -1.021294
v 1.600090 0.934727 -0.498560
v 1.586184 1.185019 -1.215122
v 1.510481 0.714985 -0.353716
v 1.258059 0.363428 0.462222
v 1.447434 0.209126 0.859253
v 0.936028 0.277593 0.338237
v 0.881028 0.661021 -1.096528
v 0.777903 0.306016 -1.125669
v 1.334543 0.586489 -1.118794
v 0.577981 0.311602 0.976675
v 0.572043 0.358457 0.506050
v 0.448840 0.316318 0.641128
v -0.189128 0.592021 0.995815
v 0.335481 0.152427 0.310034
v 0.037825 0.350947 1.555815
v -0.188816 0.023950 0.653315
v -0.528582 0.261616 0.060894
v -0.347957 0.127520 0.576362
v -1.124910 0.124277 0.996440
v -0.991707 0.730269 1.224487
v -1.406706 0.450522 0.327769
v 0.634778 0.379922 1.409644
v 0.999778 0.305405 1.177690
v 0.325715 0.138057 -0.296138
v -0.336316 0.309146 -0.984575
v -0.680691 0.634014 -1.184028
v 0.922278 0.153809 0.251909
v 0.450559 0.462656 -1.155669
v 0.407356 0.474302 -1.406372
v -0.623269 0.809409 -1.471763
v -1.429832 1.025185 -1.344341
v -1.664207 0.913008 -0.218950
v -1.399988 0.652593 -0.008716
v -1.457175 0.729048 0.256519
v -1.704988 0.849404 0.193003
v -0.623269 0.809409 -1.471763
v -1.429832 1.025185 -1.344341
v -0.823816 1.484287 -1.628481
v 0.726028 1.291226 -1.509419
v -1.003972 1.695552 -1.377856
v -0.703738 2.097119 -1.478247
v 0.903840 1.804927 -1.324106
v 0.407356 0.474302 -1.406372
v 0.450559 0.462656 -1.155669
v 0.946653 1.316885 -1.160122
v 0.881028 0.661021 -1.096528
v 0.777903 0.306016 -1.125669
v 1.334543 0.586489 -1.118794
v 1.462512 1.094692 -1.031372
v 1.586184 1.185019 -1.215122
v 1.228450 2.009477 -1.015669
v 0.922668 1.825693 -1.113950
v 0.769778 2.183574 -1.065356
v 1.462512 1.094692 -1.031372
v 0.003215 2.173564 0.981440
v 0.109543 2.056533 1.004331
v 0.251809 2.248482 0.571987
v 0.293137 2.118867 1.064800
v 1.447434 0.209126 0.859253
v 1.278215 0.597886 1.059722
v 1.350715 1.181660 1.376284
vt 0.923622 0.316032
vt 0.947359 0.396262
vt 0.963076 0.292332
vt 0.901368 0.329309
vt 0.875465 0.404884
vt 0.905358 0.303296
vt 0.886200 0.303222
vt 0.902076 0.252786
vt 0.834341 0.361849
vt 0.855997 0.311768
vt 0.844392 0.315936
vt 0.831856 0.304694
vt 0.862687 0.260011
vt 0.852252 0.239155
vt 0.794839 0.328359
vt 0.806234 0.366105
vt 0.799784 0.397959
vt 0.760497 0.342214
vt 0.729476 0.274657
vt 0.795337 0.246486
vt 0.811038 0.242174
vt 0.833347 0.250585
vt 0.828862 0.413608
vt 0.707602 0.354037
vt 0.700677 0.384825
vt 0.655290 0.345521
vt 0.680960 0.217585
vt 0.637907 0.345702
vt 0.652357 0.231386
vt 0.690678 0.191331
vt 0.826194 0.206740
vt 0.860542 0.219696
vt 0.863845 0.236143
vt 0.888581 0.223535
vt 0.905252 0.206434
vt 0.922038 0.248669
vt 0.964624 0.228431
vt 0.981660 0.210285
vt 0.975401 0.141228
vt 0.964413 0.253554
vt 0.922392 0.286647
vt 0.919103 0.145350
vt 0.855341 0.158539
vt 0.838100 0.191198
vt 0.824484 0.162603
vt 0.824728 0.183981
vt 0.740216 0.146617
vt 0.757072 0.201034
vt 0.744649 0.198373
vt 0.719159 0.123479
vt 0.787194 0.070227
vt 0.861231 0.081423
vt 0.770982 0.028709
vt 0.835256 0.136610
vt 0.813572 0.037414
vt 0.642067 0.183765
vt 0.635655 0.145164
vt 0.634487 0.045420
vt 0.604734 0.086783
vt 0.585254 0.146020
vt 0.576312 0.113370
vt 0.593967 0.158966
vt 0.605947 0.173864
vt 0.644585 0.205483
vt 0.630317 0.212572
vt 0.587151 0.166036
vt 0.577687 0.188584
vt 0.569691 0.207011
vt 0.624863 0.246198
vt 0.592976 0.365669
vt 0.538463 0.294052
vt 0.533013 0.357659
vt 0.525807 0.273835
vt 0.523984 0.193475
vt 0.547031 0.167871
vt 0.493526 0.187468
vt 0.433429 0.299350
vt 0.400062 0.269446
vt 0.480957 0.323587
vt 0.502815 0.124846
vt 0.478968 0.153601
vt 0.477033 0.137939
vt 0.462625 0.075691
vt 0.448774 0.152822
vt 0.510134 0.061759
vt 0.428198 0.107714
vt 0.377275 0.123954
vt 0.415743 0.100180
vt 0.389765 0.032859
vt 0.438597 0.011251
vt 0.332568 0.060999
vt 0.531051 0.103173
vt 0.536970 0.132529
vt 0.416056 0.191117
vt 0.339418 0.200629
vt 0.297589 0.198686
vt 0.481144 0.187540
vt 0.371881 0.258249
vt 0.355618 0.271574
vt 0.280642 0.221303
vt 0.231096 0.170881
vt 0.272984 0.083849
vt 0.308522 0.082846
vt 0.309613 0.059428
vt 0.287247 0.053805
vt 0.764550 0.531732
vt 0.837135 0.534079
vt 0.797763 0.484974
vt 0.677287 0.453651
vt 0.821061 0.466421
vt 0.808372 0.426379
vt 0.676084 0.410968
vt 0.674366 0.524403
vt 0.653372 0.524420
vt 0.646444 0.439492
vt 0.628704 0.493584
vt 0.623647 0.523732
vt 0.592779 0.485832
vt 0.597168 0.443486
vt 0.591262 0.425344
vt 0.647499 0.371118
vt 0.667443 0.397250
vt 0.687713 0.374635
vt 0.523645 0.339890
vt 0.757058 0.216211
vt 0.747760 0.208964
vt 0.735685 0.248355
vt 0.732870 0.207613
vt 0.540296 0.146294
vt 0.578540 0.149565
vt 0.627336 0.166285
vn -0.984983 0.163426 -0.055675
vn -0.772129 -0.161644 -0.614563
vn -0.865363 -0.488865 -0.110266
vn -0.821152 0.489213 -0.293904
vn -0.552990 0.470141 -0.687873
vn -0.962964 0.267638 -0.032704
vn -0.829049 0.551653 -0.091414
vn -0.967965 0.032023 0.249033
vn -0.663029 0.673098 -0.327616
vn -0.500950 0.863625 -0.056576
vn -0.392370 0.917785 0.060961
vn -0.855351 0.513048 -0.071800
vn -0.542481 0.819238 0.185914
vn -0.550531 0.710773 0.437856
vn -0.374707 0.913476 -0.158609
vn -0.065272 0.757656 -0.649382
vn 0.002012 0.884591 -0.466363
vn 0.301376 0.825892 -0.476524
vn 0.278089 0.947102 0.160198
vn -0.011081 0.870515 0.492017
vn -0.432221 0.648683 0.626414
vn -0.589127 0.608242 0.531950
vn -0.265837 0.467702 -0.842962
vn 0.123447 0.890379 -0.438163
vn 0.022117 0.709665 -0.704192
vn 0.490024 0.861526 -0.132853
vn 0.489319 0.795766 0.356825
vn 0.684097 0.728258 0.040631
vn 0.668847 0.703912 0.239065
vn 0.335066 0.773293 0.538283
vn -0.359965 0.702374 0.614081
vn -0.545182 0.569112 0.615538
vn -0.745927 0.403789 0.529668
vn -0.837217 0.003186 0.546862
vn -0.887765 -0.072874 0.454492
vn -0.897174 -0.155979 0.413218
vn -0.865727 -0.414505 0.280538
vn -0.760211 -0.642596 -0.095654
vn -0.434656 -0.637909 0.635725
vn -0.933800 -0.107294 0.341328
vn -0.993537 0.030511 0.109330
vn -0.369250 -0.338923 0.865324
vn -0.698411 0.071913 0.712075
vn -0.667357 0.675758 0.313028
vn -0.671445 0.519823 0.528153
vn -0.423761 0.891117 0.162288
vn -0.326605 0.521587 0.788210
vn -0.144551 0.896455 0.418895
vn -0.107819 0.924968 0.364430
vn -0.078098 0.430419 0.899244
vn -0.649521 -0.330272 0.684867
vn -0.369250 -0.338923 0.865324
vn -0.328685 -0.702538 0.631194
vn -0.698411 0.071913 0.712075
vn -0.170174 -0.809298 0.562208
vn 0.801712 0.204161 0.561762
vn 0.508855 -0.324002 0.797552
vn -0.328685 -0.702538 0.631194
vn 0.264917 -0.697104 0.666232
vn 0.731519 -0.445125 0.516473
vn 0.377926 -0.784165 0.492197
vn 0.931631 -0.219915 0.289311
vn 0.900354 -0.228843 0.370127
vn 0.675502 0.672753 0.301828
vn 0.908137 0.271764 0.318482
vn 0.847545 -0.179491 0.499451
vn 0.953745 -0.109227 0.280072
vn 0.977319 -0.179701 -0.112049
vn 0.819662 0.567332 0.079297
vn 0.901122 0.404478 -0.156133
vn 0.889102 -0.437014 -0.136075
vn 0.278285 -0.450023 -0.848550
vn 0.874097 -0.485573 -0.013129
vn 0.579254 -0.772005 -0.261673
vn 0.699411 -0.678854 0.223567
vn 0.430250 -0.900297 0.065954
vn 0.311465 -0.525539 -0.791706
vn 0.418509 -0.609910 -0.672948
vn 0.605254 -0.525843 -0.597625
vn -0.120035 -0.992616 0.017442
vn 0.171256 -0.967495 0.186076
vn 0.080482 -0.977619 0.194383
vn -0.170174 -0.809298 0.562208
vn 0.150997 -0.918236 0.366118
vn -0.328685 -0.702538 0.631194
vn -0.202957 -0.915483 0.347419
vn -0.316908 -0.929037 -0.190944
vn -0.302399 -0.934612 0.187230
vn -0.434656 -0.637909 0.635725
vn -0.369250 -0.338923 0.865324
vn -0.760211 -0.642596 -0.095654
vn 0.264917 -0.697104 0.666232
vn 0.377926 -0.784165 0.492197
vn -0.038937 -0.996523 -0.073654
vn -0.255941 -0.905751 -0.337802
vn -0.337214 -0.822735 -0.457595
vn 0.416289 -0.885394 0.206834
vn 0.402250 -0.458196 -0.792623
vn 0.187814 -0.786749 -0.588007
vn -0.147532 -0.482895 -0.863161
vn -0.772129 -0.161644 -0.614563
vn -0.865363 -0.488865 -0.110266
vn -0.632326 -0.735364 -0.243731
vn -0.865727 -0.414505 0.280538
vn -0.933800 -0.107294 0.341328
vn -0.147532 -0.482895 -0.863161
vn -0.772129 -0.161644 -0.614563
vn -0.189058 0.196596 -0.962085
vn 0.545415 -0.067010 -0.835483
vn -0.552990 0.470141 -0.687873
vn -0.265837 0.467702 -0.842962
vn 0.552420 0.509557 -0.659685
vn 0.187814 -0.786749 -0.588007
vn 0.402250 -0.458196 -0.792623
vn 0.296416 -0.142275 -0.944402
vn 0.311465 -0.525539 -0.791706
vn 0.418509 -0.609910 -0.672948
vn 0.605254 -0.525843 -0.597625
vn 0.391479 -0.600360 -0.697361
vn 0.278285 -0.450023 -0.848550
vn 0.337559 0.523159 -0.782534
vn 0.503975 0.301911 -0.809234
vn 0.049869 0.652755 -0.755926
vn 0.391479 -0.600360 -0.697361
vn 0.097203 0.621982 0.776975
vn 0.015900 0.926002 0.377184
vn 0.149836 0.934632 0.322509
vn -0.118998 0.899622 0.420143
vn 0.699411 -0.678854 0.223567
vn 0.848816 -0.380252 0.367315
vn 0.660776 -0.504260 0.555965
usemtl material
f 1/0/1 2/0/2 3/0/3
f 1/0/1 4/0/4 2/0/2
f 2/0/2 4/0/4 5/0/5
f 4/0/4 1/0/1 6/0/6
f 4/0/4 6/0/6 7/0/7
f 6/0/6 8/0/8 7/0/7
f 5/0/5 4/0/4 9/0/9
f 9/0/9 4/0/4 10/0/10
f 4/0/4 7/0/7 10/0/10
f 10/0/10 11/0/11 9/0/9
f 9/0/9 11/0/11 12/0/12
f 10/0/10 13/0/13 11/0/11
f 7/0/7 8/0/8 13/0/13
f 10/0/10 7/0/7 13/0/13
f 13/0/13 14/0/14 11/0/11
f 11/0/11 14/0/14 12/0/12
f 12/0/12 15/0/15 9/0/9
f 16/0/16 9/0/9 15/0/15
f 17/0/17 9/0/9 16/0/16
f 18/0/18 16/0/16 15/0/15
f 15/0/15 19/0/19 18/0/18
f 15/0/15 20/0/20 19/0/19
f 21/0/21 15/0/15 12/0/12
f 20/0/20 15/0/15 21/0/21
f 22/0/22 21/0/21 12/0/12
f 14/0/14 22/0/22 12/0/12
f 9/0/9 17/0/17 23/0/23
f 23/0/23 5/0/5 9/0/9
f 16/0/16 18/0/18 24/0/24
f 18/0/18 19/0/19 24/0/24
f 16/0/16 24/0/24 25/0/25
f 17/0/17 16/0/16 25/0/25
f 24/0/24 19/0/19 26/0/26
f 19/0/19 27/0/27 26/0/26
f 27/0/27 28/0/28 26/0/26
f 27/0/27 29/0/29 28/0/28
f 29/0/29 27/0/27 30/0/30
f 21/0/21 22/0/22 31/0/31
f 31/0/31 22/0/22 14/0/14
f 32/0/32 31/0/31 14/0/14
f 33/0/33 32/0/32 14/0/14
f 34/0/34 32/0/32 33/0/33
f 8/0/8 34/0/34 33/0/33
f 8/0/8 35/0/35 34/0/34
f 8/0/8 33/0/33 13/0/13
f 33/0/33 14/0/14 13/0/13
f 36/0/36 35/0/35 8/0/8
f 36/0/36 37/0/37 35/0/35
f 37/0/37 38/0/38 35/0/35
f 39/0/39 35/0/35 38/0/38
f 36/0/36 40/0/40 37/0/37
f 36/0/36 41/0/41 40/0/40
f 41/0/41 36/0/36 8/0/8
f 42/0/42 35/0/35 39/0/39
f 35/0/35 42/0/42 43/0/43
f 34/0/34 43/0/43 32/0/32
f 35/0/35 43/0/43 34/0/34
f 6/0/6 41/0/41 8/0/8
f 44/0/44 32/0/32 43/0/43
f 41/0/41 6/0/6 1/0/1
f 43/0/43 45/0/45 44/0/44
f 45/0/45 46/0/46 44/0/44
f 45/0/45 47/0/47 46/0/46
f 46/0/46 47/0/47 48/0/48
f 47/0/47 49/0/49 48/0/48
f 47/0/47 50/0/50 49/0/49
f 51/0/51 50/0/50 47/0/47
f 51/0/51 47/0/47 52/0/52
f 50/0/50 51/0/51 53/0/53
f 54/0/54 52/0/52 47/0/47
f 47/0/47 45/0/45 54/0/54
f 51/0/51 52/0/52 55/0/55
f 51/0/51 55/0/55 53/0/53
f 49/0/49 50/0/50 30/0/30
f 30/0/30 50/0/50 56/0/56
f 57/0/57 56/0/56 50/0/50
f 50/0/50 58/0/58 57/0/57
f 59/0/59 57/0/57 58/0/58
f 57/0/57 59/0/59 60/0/60
f 59/0/59 61/0/61 60/0/60
f 57/0/57 60/0/60 62/0/62
f 63/0/63 57/0/57 62/0/62
f 56/0/56 64/0/64 30/0/30
f 63/0/63 64/0/64 56/0/56
f 29/0/29 30/0/30 64/0/64
f 65/0/65 64/0/64 63/0/63
f 64/0/64 65/0/65 29/0/29
f 65/0/65 63/0/63 66/0/66
f 63/0/63 62/0/62 66/0/66
f 67/0/67 65/0/65 66/0/66
f 67/0/67 68/0/68 65/0/65
f 69/0/69 65/0/65 68/0/68
f 65/0/65 69/0/69 29/0/29
f 69/0/69 68/0/68 70/0/70
f 69/0/69 70/0/70 28/0/28
f 29/0/29 69/0/69 28/0/28
f 68/0/68 71/0/71 70/0/70
f 70/0/70 71/0/71 72/0/72
f 68/0/68 73/0/73 71/0/71
f 68/0/68 74/0/74 73/0/73
f 75/0/75 74/0/74 68/0/68
f 75/0/75 68/0/68 67/0/67
f 75/0/75 76/0/76 74/0/74
f 77/0/77 74/0/74 76/0/76
f 77/0/77 76/0/76 78/0/78
f 77/0/77 79/0/79 74/0/74
f 73/0/73 79/0/79 71/0/71
f 74/0/74 79/0/79 73/0/73
f 80/0/80 76/0/76 75/0/75
f 80/0/80 81/0/81 76/0/76
f 82/0/82 81/0/81 80/0/80
f 82/0/82 80/0/80 83/0/83
f 83/0/83 84/0/84 82/0/82
f 84/0/84 81/0/81 82/0/82
f 76/0/76 81/0/81 84/0/84
f 80/0/80 85/0/85 83/0/83
f 84/0/84 83/0/83 86/0/86
f 87/0/87 84/0/84 86/0/86
f 86/0/86 83/0/83 88/0/88
f 87/0/87 86/0/86 88/0/88
f 89/0/89 88/0/88 83/0/83
f 83/0/83 90/0/90 89/0/89
f 89/0/89 91/0/91 88/0/88
f 91/0/91 87/0/87 88/0/88
f 85/0/85 80/0/80 92/0/92
f 92/0/92 80/0/80 93/0/93
f 87/0/87 94/0/94 84/0/84
f 95/0/95 94/0/94 87/0/87
f 87/0/87 96/0/96 95/0/95
f 95/0/95 78/0/78 94/0/94
f 96/0/96 78/0/78 95/0/95
f 94/0/94 78/0/78 97/0/97
f 94/0/94 97/0/97 84/0/84
f 96/0/96 98/0/98 78/0/78
f 96/0/96 99/0/99 98/0/98
f 96/0/96 100/0/100 99/0/99
f 100/0/100 96/0/96 101/0/101
f 101/0/101 96/0/96 102/0/102
f 96/0/96 103/0/103 102/0/102
f 102/0/102 103/0/103 104/0/104
f 103/0/103 91/0/91 104/0/104
f 102/0/102 104/0/104 105/0/105
f 103/0/103 87/0/87 91/0/91
f 96/0/96 87/0/87 103/0/103
f 76/0/76 97/0/97 78/0/78
f 84/0/84 97/0/97 76/0/76
f 106/0/106 107/0/107 108/0/108
f 106/0/106 108/0/108 109/0/109
f 110/0/110 109/0/109 108/0/108
f 107/0/107 110/0/110 108/0/108
f 110/0/110 111/0/111 109/0/109
f 112/0/112 109/0/109 111/0/111
f 113/0/113 106/0/106 109/0/109
f 114/0/114 113/0/113 109/0/109
f 114/0/114 109/0/109 115/0/115
f 116/0/116 114/0/114 115/0/115
f 117/0/117 114/0/114 116/0/116
f 116/0/116 115/0/115 118/0/118
f 118/0/118 115/0/115 119/0/119
f 120/0/120 119/0/119 115/0/115
f 120/0/120 115/0/115 121/0/121
f 122/0/122 121/0/121 115/0/115
f 115/0/115 109/0/109 122/0/122
f 109/0/109 112/0/112 122/0/122
f 120/0/120 121/0/121 70/0/70
f 70/0/70 121/0/121 28/0/28
f 28/0/28 121/0/121 26/0/26
f 26/0/26 121/0/121 123/0/123
f 121/0/121 122/0/122 123/0/123
f 25/0/25 123/0/123 122/0/122
f 17/0/17 25/0/25 122/0/122
f 24/0/24 123/0/123 25/0/25
f 26/0/26 123/0/123 24/0/24
f 122/0/122 112/0/112 17/0/17
f 17/0/17 112/0/112 111/0/111
f 124/0/124 72/0/72 71/0/71
f 79/0/79 124/0/124 71/0/71
f 44/0/44 31/0/31 32/0/32
f 44/0/44 46/0/46 31/0/31
f 46/0/46 48/0/48 31/0/31
f 48/0/48 125/0/125 31/0/31
f 125/0/125 21/0/21 31/0/31
f 21/0/21 125/0/125 20/0/20
f 48/0/48 126/0/126 125/0/125
f 125/0/125 126/0/126 127/0/127
f 20/0/20 125/0/125 127/0/127
f 19/0/19 20/0/20 127/0/127
f 27/0/27 19/0/19 127/0/127
f 127/0/127 126/0/126 128/0/128
f 27/0/27 127/0/127 128/0/128
f 30/0/30 27/0/27 128/0/128
f 128/0/128 49/0/49 30/0/30
f 128/0/128 126/0/126 49/0/49
f 49/0/49 126/0/126 48/0/48
f 129/0/129 67/0/67 66/0/66
f 130/0/130 129/0/129 66/0/66
f 130/0/130 66/0/66 62/0/62
f 60/0/60 130/0/130 62/0/62
f 61/0/61 130/0/130 60/0/60
f 61/0/61 129/0/129 130/0/130
f 63/0/63 131/0/131 57/0/57
f 57/0/57 131/0/131 56/0/56
f 56/0/56 131/0/131 63/0/63
f 80/0/80 75/0/75 93/0/93
f 1/0/1 3/0/3 41/0/41
f 3/0/3 40/0/40 41/0/41
