# 
# Wavefront OBJ file
# Created with Kaydara FBX
# 
mtllib sphere001 #220500.mtl

g Sphere001
v 0.000000 0.032486 0.499263
v 0.062028 0.013976 0.490333
v 0.068118 0.031847 0.490333
v 0.121345 0.007552 0.470952
v 0.133259 0.031763 0.470952
v 0.104127 -0.017552 0.470952
v 0.053227 -0.000505 0.490333
v 0.000000 0.032486 0.499263
v 0.082359 -0.040982 0.470952
v 0.042099 -0.012481 0.490333
v 0.000000 0.032486 0.499263
v 0.056991 -0.058489 0.470952
v 0.029132 -0.021430 0.490333
v 0.000000 0.032486 0.499263
v 0.029132 -0.069309 0.470952
v 0.014891 -0.026961 0.490333
v 0.000000 0.032486 0.499263
v -0.000000 -0.072969 0.470952
v -0.000000 -0.028832 0.490333
v 0.000000 0.032486 0.499263
v -0.029132 -0.069309 0.470952
v -0.014891 -0.026961 0.490333
v 0.000000 0.032486 0.499263
v -0.056991 -0.058489 0.470952
v -0.029132 -0.021430 0.490333
v 0.000000 0.032486 0.499263
v -0.082359 -0.040981 0.470952
v -0.042099 -0.012481 0.490333
v 0.000000 0.032486 0.499263
v -0.104127 -0.017552 0.470952
v -0.053227 -0.000504 0.490333
v 0.000000 0.032486 0.499263
v -0.121345 0.007552 0.470952
v -0.062028 0.013976 0.490333
v 0.000000 0.032486 0.499263
v -0.133259 0.031763 0.470952
v -0.068118 0.031847 0.490333
v 0.000000 0.032486 0.499263
v -0.119019 -0.060843 0.439594
v -0.082359 -0.086144 0.439594
v -0.150477 -0.030954 0.439594
v -0.175358 0.003385 0.439594
v -0.192576 0.031541 0.439594
v -0.150477 -0.079990 0.397628
v -0.104127 -0.108612 0.397628
v -0.042099 -0.101780 0.439594
v -0.000000 -0.107070 0.439594
v 0.042099 -0.101781 0.439594
v 0.082359 -0.086144 0.439594
v 0.119018 -0.060843 0.439594
v 0.150477 -0.030955 0.439594
v 0.175358 0.003385 0.439594
v 0.192576 0.031540 0.439594
v 0.221708 0.000122 0.397628
v 0.243476 0.033094 0.397628
v 0.190250 -0.041260 0.397628
v 0.150477 -0.079990 0.397628
v 0.104127 -0.108613 0.397628
v 0.053227 -0.128382 0.397628
v -0.000000 -0.135069 0.397628
v -0.053227 -0.128382 0.397628
v 0.258368 0.000333 0.346888
v 0.283736 0.038061 0.346888
v 0.221708 -0.046094 0.346888
v 0.175358 -0.092838 0.346888
v 0.121345 -0.124437 0.346888
v 0.062028 -0.147475 0.346888
v -0.000000 -0.155268 0.346888
v -0.062028 -0.147475 0.346888
v -0.121345 -0.124437 0.346888
v -0.175359 -0.092837 0.346888
v -0.221708 -0.046094 0.346888
v -0.190250 -0.041260 0.397628
v -0.221708 0.000123 0.397628
v -0.243476 0.033095 0.397628
v -0.258368 0.000334 0.346888
v -0.283736 0.038061 0.346888
v -0.000000 -0.165285 0.289594
v 0.068118 -0.156727 0.289594
v 0.133259 -0.131427 0.289594
v 0.192576 -0.098484 0.289594
v 0.243476 -0.047793 0.289594
v 0.283736 0.003249 0.289594
v 0.311594 0.048260 0.289594
v -0.068118 -0.156727 0.289594
v -0.133259 -0.131426 0.289594
v -0.192576 -0.098483 0.289594
v -0.243477 -0.047792 0.289594
v -0.283736 0.003250 0.289594
v -0.311594 0.048261 0.289594
v 0.296703 0.009273 0.228247
v 0.325835 0.063181 0.228247
v -0.139350 -0.138387 0.228247
v -0.071232 -0.164843 0.228247
v -0.000000 -0.173793 0.228247
v 0.071231 -0.164844 0.228247
v 0.139349 -0.138387 0.228247
v 0.201377 -0.099515 0.228247
v 0.254604 -0.046197 0.228247
v 0.297536 0.019386 0.165530
v 0.255319 -0.040703 0.165530
v 0.201943 -0.094120 0.165530
v 0.139740 -0.132411 0.165530
v 0.071431 -0.158867 0.165530
v -0.000000 -0.167817 0.165530
v -0.071432 -0.158867 0.165530
v -0.139741 -0.132410 0.165530
v -0.201943 -0.094120 0.165530
v -0.201377 -0.099514 0.228247
v -0.254604 -0.046197 0.228247
v -0.296703 0.009273 0.228247
v -0.325835 0.063182 0.228247
v -0.255319 -0.040703 0.165530
v -0.297536 0.019387 0.165530
v -0.326750 0.082894 0.165530
v -0.198980 -0.084820 0.104183
v -0.137691 -0.124133 0.104183
v -0.251573 -0.029375 0.104183
v -0.293171 0.032156 0.104183
v -0.321956 0.110076 0.104183
v -0.191907 -0.068083 0.046888
v -0.132796 -0.106267 0.046888
v -0.070384 -0.149434 0.104183
v -0.000000 -0.157992 0.104183
v 0.070383 -0.149434 0.104183
v 0.137690 -0.124134 0.104183
v 0.198980 -0.084820 0.104183
v 0.251573 -0.029376 0.104183
v 0.293171 0.032155 0.104183
v 0.326750 0.082893 0.165530
v 0.321956 0.110075 0.104183
v 0.282750 0.047919 0.046888
v 0.310512 0.141235 0.046888
v 0.242630 -0.015116 0.046888
v 0.191907 -0.068083 0.046888
v 0.132796 -0.106267 0.046888
v 0.067881 -0.128399 0.046888
v -0.000000 -0.136192 0.046888
v -0.067882 -0.128398 0.046888
v 0.270689 0.066175 -0.003851
v 0.297266 0.172934 -0.003851
v 0.232280 -0.000006 -0.003851
v 0.183721 -0.049333 -0.003851
v 0.127131 -0.086521 -0.003851
v 0.064986 -0.108472 -0.003851
v -0.000000 -0.115993 -0.003851
v -0.064986 -0.108471 -0.003851
v -0.127132 -0.086521 -0.003851
v -0.183721 -0.049332 -0.003851
v -0.232281 -0.000006 -0.003851
v -0.242631 -0.015115 0.046888
v -0.282750 0.047919 0.046888
v -0.310512 0.141236 0.046888
v -0.270689 0.066175 -0.003851
v -0.297266 0.172935 -0.003851
vt 0.300000 1.000000
vt 0.333333 0.933333
vt 0.300000 0.933333
vt 0.333333 0.866667
vt 0.300000 0.866667
vt 0.366667 0.866667
vt 0.366667 0.933333
vt 0.333333 1.000000
vt 0.400000 0.866667
vt 0.400000 0.933333
vt 0.366667 1.000000
vt 0.433333 0.866667
vt 0.433333 0.933333
vt 0.400000 1.000000
vt 0.466667 0.866667
vt 0.466667 0.933333
vt 0.433333 1.000000
vt 0.500000 0.866667
vt 0.500000 0.933333
vt 0.466667 1.000000
vt 0.533333 0.866667
vt 0.533333 0.933333
vt 0.500000 1.000000
vt 0.566667 0.866667
vt 0.566667 0.933333
vt 0.533333 1.000000
vt 0.600000 0.866667
vt 0.600000 0.933333
vt 0.566667 1.000000
vt 0.633333 0.866667
vt 0.633333 0.933333
vt 0.600000 1.000000
vt 0.666667 0.866667
vt 0.666667 0.933333
vt 0.633333 1.000000
vt 0.700000 0.866667
vt 0.700000 0.933333
vt 0.666667 1.000000
vt 0.600000 0.800000
vt 0.566667 0.800000
vt 0.633333 0.800000
vt 0.666667 0.800000
vt 0.700000 0.800000
vt 0.600000 0.733333
vt 0.566667 0.733333
vt 0.533333 0.800000
vt 0.500000 0.800000
vt 0.466667 0.800000
vt 0.433333 0.800000
vt 0.400000 0.800000
vt 0.366667 0.800000
vt 0.333333 0.800000
vt 0.300000 0.800000
vt 0.333333 0.733333
vt 0.300000 0.733333
vt 0.366667 0.733333
vt 0.400000 0.733333
vt 0.433333 0.733333
vt 0.466667 0.733333
vt 0.500000 0.733333
vt 0.533333 0.733333
vt 0.333333 0.666667
vt 0.300000 0.666667
vt 0.366667 0.666667
vt 0.400000 0.666667
vt 0.433333 0.666667
vt 0.466667 0.666667
vt 0.500000 0.666667
vt 0.533333 0.666667
vt 0.566667 0.666667
vt 0.600000 0.666667
vt 0.633333 0.666667
vt 0.633333 0.733333
vt 0.666667 0.733333
vt 0.700000 0.733333
vt 0.666667 0.666667
vt 0.700000 0.666667
vt 0.500000 0.600000
vt 0.466667 0.600000
vt 0.433333 0.600000
vt 0.400000 0.600000
vt 0.366667 0.600000
vt 0.333333 0.600000
vt 0.300000 0.600000
vt 0.533333 0.600000
vt 0.566667 0.600000
vt 0.600000 0.600000
vt 0.633333 0.600000
vt 0.666667 0.600000
vt 0.700000 0.600000
vt 0.333333 0.533333
vt 0.300000 0.533333
vt 0.566667 0.533333
vt 0.533333 0.533333
vt 0.500000 0.533333
vt 0.466667 0.533333
vt 0.433333 0.533333
vt 0.400000 0.533333
vt 0.366667 0.533333
vt 0.333333 0.466667
vt 0.366667 0.466667
vt 0.400000 0.466667
vt 0.433333 0.466667
vt 0.466667 0.466667
vt 0.500000 0.466667
vt 0.533333 0.466667
vt 0.566667 0.466667
vt 0.600000 0.466667
vt 0.600000 0.533333
vt 0.633333 0.533333
vt 0.666667 0.533333
vt 0.700000 0.533333
vt 0.633333 0.466667
vt 0.666667 0.466667
vt 0.700000 0.466667
vt 0.600000 0.400000
vt 0.566667 0.400000
vt 0.633333 0.400000
vt 0.666667 0.400000
vt 0.700000 0.400000
vt 0.600000 0.333333
vt 0.566667 0.333333
vt 0.533333 0.400000
vt 0.500000 0.400000
vt 0.466667 0.400000
vt 0.433333 0.400000
vt 0.400000 0.400000
vt 0.366667 0.400000
vt 0.333333 0.400000
vt 0.300000 0.466667
vt 0.300000 0.400000
vt 0.333333 0.333333
vt 0.300000 0.333333
vt 0.366667 0.333333
vt 0.400000 0.333333
vt 0.433333 0.333333
vt 0.466667 0.333333
vt 0.500000 0.333333
vt 0.533333 0.333333
vt 0.333333 0.266667
vt 0.300000 0.266667
vt 0.366667 0.266667
vt 0.400000 0.266667
vt 0.433333 0.266667
vt 0.466667 0.266667
vt 0.500000 0.266667
vt 0.533333 0.266667
vt 0.566667 0.266667
vt 0.600000 0.266667
vt 0.633333 0.266667
vt 0.633333 0.333333
vt 0.666667 0.333333
vt 0.700000 0.333333
vt 0.666667 0.266667
vt 0.700000 0.266667
vn 0.000000 -0.045634 0.998958
vn 0.186349 -0.079773 0.979240
vn 0.203309 -0.048973 0.977889
vn 0.360645 -0.156065 0.919554
vn 0.392877 -0.095693 0.914599
vn 0.312843 -0.211089 0.926051
vn 0.161339 -0.107722 0.981002
vn 0.000000 -0.045634 0.998958
vn 0.250451 -0.258261 0.933046
vn 0.128914 -0.131570 0.982889
vn 0.000000 -0.045634 0.998958
vn 0.175282 -0.294882 0.939320
vn 0.090088 -0.150023 0.984570
vn 0.000000 -0.045634 0.998958
vn 0.090338 -0.318282 0.943682
vn 0.046391 -0.161803 0.985732
vn 0.000000 -0.045634 0.998958
vn -0.000000 -0.326358 0.945246
vn 0.000000 -0.165869 0.986148
vn 0.000000 -0.045634 0.998958
vn -0.090339 -0.318282 0.943682
vn -0.046391 -0.161803 0.985732
vn 0.000000 -0.045634 0.998958
vn -0.175282 -0.294881 0.939319
vn -0.090088 -0.150023 0.984570
vn 0.000000 -0.045634 0.998958
vn -0.250452 -0.258261 0.933046
vn -0.128914 -0.131570 0.982889
vn 0.000000 -0.045634 0.998958
vn -0.312844 -0.211088 0.926051
vn -0.161339 -0.107722 0.981002
vn 0.000000 -0.045634 0.998958
vn -0.360645 -0.156064 0.919554
vn -0.186350 -0.079773 0.979240
vn 0.000000 -0.045634 0.998958
vn -0.392878 -0.095692 0.914598
vn -0.203309 -0.048972 0.977889
vn 0.000000 -0.045634 0.998958
vn -0.368228 -0.381641 0.847796
vn -0.259449 -0.438694 0.860368
vn -0.456580 -0.309649 0.834058
vn -0.522820 -0.227412 0.821549
vn -0.566693 -0.138748 0.812163
vn -0.478176 -0.497585 0.723710
vn -0.340155 -0.577552 0.742111
vn -0.134352 -0.475755 0.869256
vn -0.000001 -0.488660 0.872474
vn 0.134350 -0.475756 0.869256
vn 0.259448 -0.438695 0.860368
vn 0.368226 -0.381642 0.847797
vn 0.456579 -0.309649 0.834058
vn 0.522820 -0.227413 0.821549
vn 0.566692 -0.138749 0.812163
vn 0.666125 -0.290829 0.686801
vn 0.717329 -0.176270 0.674068
vn 0.586941 -0.399600 0.704145
vn 0.478174 -0.497587 0.723710
vn 0.340154 -0.577552 0.742111
vn 0.177371 -0.630777 0.755420
vn -0.000001 -0.649570 0.760302
vn -0.177372 -0.630777 0.755420
vn 0.783162 -0.342932 0.518705
vn 0.837791 -0.206434 0.505462
vn 0.696517 -0.475729 0.537165
vn 0.573663 -0.599073 0.558589
vn 0.412452 -0.703026 0.579342
vn 0.216788 -0.774143 0.594732
vn -0.000001 -0.799656 0.600458
vn -0.216790 -0.774142 0.594732
vn -0.412453 -0.703026 0.579342
vn -0.573665 -0.599072 0.558588
vn -0.696518 -0.475727 0.537165
vn -0.586942 -0.399598 0.704145
vn -0.666126 -0.290828 0.686801
vn -0.717329 -0.176269 0.674068
vn -0.783162 -0.342930 0.518706
vn -0.837791 -0.206432 0.505462
vn -0.000001 -0.921157 0.389190
vn 0.248105 -0.889217 0.384366
vn 0.468643 -0.801447 0.371560
vn 0.645698 -0.676233 0.354659
vn 0.776665 -0.531773 0.337652
vn 0.866524 -0.380240 0.323349
vn 0.921981 -0.227609 0.313281
vn -0.248107 -0.889217 0.384366
vn -0.468645 -0.801446 0.371560
vn -0.645699 -0.676232 0.354659
vn -0.776666 -0.531772 0.337652
vn -0.866524 -0.380239 0.323349
vn -0.921981 -0.227608 0.313281
vn 0.910003 -0.399770 0.109904
vn 0.965315 -0.238541 0.106139
vn -0.499864 -0.856532 0.128410
vn -0.265791 -0.954748 0.133457
vn -0.000001 -0.990795 0.135372
vn 0.265789 -0.954749 0.133457
vn 0.499862 -0.856533 0.128410
vn 0.684852 -0.718425 0.121832
vn 0.819264 -0.561702 0.115312
vn 0.910003 -0.399770 -0.109904
vn 0.819264 -0.561702 -0.115312
vn 0.684852 -0.718425 -0.121833
vn 0.499862 -0.856533 -0.128410
vn 0.265788 -0.954749 -0.133457
vn -0.000001 -0.990795 -0.135372
vn -0.265791 -0.954748 -0.133457
vn -0.499864 -0.856532 -0.128410
vn -0.684853 -0.718424 -0.121833
vn -0.684853 -0.718424 0.121833
vn -0.819265 -0.561700 0.115312
vn -0.910003 -0.399769 0.109904
vn -0.965315 -0.238539 0.106139
vn -0.819265 -0.561700 -0.115312
vn -0.910003 -0.399769 -0.109904
vn -0.965315 -0.238539 -0.106139
vn -0.645699 -0.676232 -0.354660
vn -0.468645 -0.801446 -0.371560
vn -0.776666 -0.531772 -0.337653
vn -0.866524 -0.380239 -0.323349
vn -0.921981 -0.227608 -0.313282
vn -0.573665 -0.599072 -0.558589
vn -0.412453 -0.703025 -0.579342
vn -0.248107 -0.889216 -0.384366
vn -0.000001 -0.921157 -0.389190
vn 0.248105 -0.889217 -0.384366
vn 0.468643 -0.801447 -0.371561
vn 0.645698 -0.676233 -0.354660
vn 0.776665 -0.531773 -0.337653
vn 0.866523 -0.380240 -0.323349
vn 0.965315 -0.238541 -0.106139
vn 0.921981 -0.227609 -0.313282
vn 0.783162 -0.342932 -0.518706
vn 0.837791 -0.206434 -0.505462
vn 0.696517 -0.475729 -0.537165
vn 0.573663 -0.599073 -0.558589
vn 0.412451 -0.703026 -0.579343
vn 0.216788 -0.774142 -0.594732
vn -0.000001 -0.799656 -0.600459
vn -0.216790 -0.774142 -0.594732
vn 0.666125 -0.290829 -0.686801
vn 0.717329 -0.176269 -0.674069
vn 0.586941 -0.399600 -0.704146
vn 0.478174 -0.497587 -0.723711
vn 0.340153 -0.577552 -0.742111
vn 0.177371 -0.630777 -0.755421
vn -0.000001 -0.649569 -0.760302
vn -0.177372 -0.630776 -0.755421
vn -0.340155 -0.577551 -0.742111
vn -0.478176 -0.497586 -0.723710
vn -0.586942 -0.399598 -0.704145
vn -0.696518 -0.475727 -0.537165
vn -0.783162 -0.342931 -0.518706
vn -0.837791 -0.206432 -0.505462
vn -0.666126 -0.290828 -0.686801
vn -0.717329 -0.176268 -0.674069
usemtl material
f 1/0/1 2/0/2 3/0/3
f 4/0/4 3/0/3 2/0/2
f 3/0/3 4/0/4 5/0/5
f 2/0/2 6/0/6 4/0/4
f 6/0/6 2/0/2 7/0/7
f 8/0/8 7/0/7 2/0/2
f 7/0/7 9/0/9 6/0/6
f 9/0/9 7/0/7 10/0/10
f 11/0/11 10/0/10 7/0/7
f 10/0/10 12/0/12 9/0/9
f 12/0/12 10/0/10 13/0/13
f 14/0/14 13/0/13 10/0/10
f 13/0/13 15/0/15 12/0/12
f 15/0/15 13/0/13 16/0/16
f 17/0/17 16/0/16 13/0/13
f 16/0/16 18/0/18 15/0/15
f 18/0/18 16/0/16 19/0/19
f 20/0/20 19/0/19 16/0/16
f 19/0/19 21/0/21 18/0/18
f 21/0/21 19/0/19 22/0/22
f 23/0/23 22/0/22 19/0/19
f 22/0/22 24/0/24 21/0/21
f 24/0/24 22/0/22 25/0/25
f 26/0/26 25/0/25 22/0/22
f 25/0/25 27/0/27 24/0/24
f 27/0/27 25/0/25 28/0/28
f 29/0/29 28/0/28 25/0/25
f 28/0/28 30/0/30 27/0/27
f 30/0/30 28/0/28 31/0/31
f 32/0/32 31/0/31 28/0/28
f 31/0/31 33/0/33 30/0/30
f 33/0/33 31/0/31 34/0/34
f 35/0/35 34/0/34 31/0/31
f 34/0/34 36/0/36 33/0/33
f 36/0/36 34/0/34 37/0/37
f 38/0/38 37/0/37 34/0/34
f 39/0/39 24/0/24 27/0/27
f 24/0/24 39/0/39 40/0/40
f 27/0/27 41/0/41 39/0/39
f 41/0/41 27/0/27 30/0/30
f 30/0/30 42/0/42 41/0/41
f 42/0/42 30/0/30 33/0/33
f 33/0/33 43/0/43 42/0/42
f 43/0/43 33/0/33 36/0/36
f 44/0/44 40/0/40 39/0/39
f 40/0/40 44/0/44 45/0/45
f 45/0/45 46/0/46 40/0/40
f 21/0/21 40/0/40 46/0/46
f 46/0/46 18/0/18 21/0/21
f 18/0/18 46/0/46 47/0/47
f 47/0/47 15/0/15 18/0/18
f 15/0/15 47/0/47 48/0/48
f 48/0/48 12/0/12 15/0/15
f 12/0/12 48/0/48 49/0/49
f 49/0/49 9/0/9 12/0/12
f 9/0/9 49/0/49 50/0/50
f 50/0/50 6/0/6 9/0/9
f 6/0/6 50/0/50 51/0/51
f 51/0/51 4/0/4 6/0/6
f 4/0/4 51/0/51 52/0/52
f 52/0/52 5/0/5 4/0/4
f 5/0/5 52/0/52 53/0/53
f 54/0/54 53/0/53 52/0/52
f 53/0/53 54/0/54 55/0/55
f 52/0/52 56/0/56 54/0/54
f 56/0/56 52/0/52 51/0/51
f 51/0/51 57/0/57 56/0/56
f 57/0/57 51/0/51 50/0/50
f 50/0/50 58/0/58 57/0/57
f 58/0/58 50/0/50 49/0/49
f 49/0/49 59/0/59 58/0/58
f 59/0/59 49/0/49 48/0/48
f 48/0/48 60/0/60 59/0/59
f 60/0/60 48/0/48 47/0/47
f 47/0/47 61/0/61 60/0/60
f 61/0/61 47/0/47 46/0/46
f 46/0/46 45/0/45 61/0/61
f 62/0/62 55/0/55 54/0/54
f 55/0/55 62/0/62 63/0/63
f 54/0/54 64/0/64 62/0/62
f 64/0/64 54/0/54 56/0/56
f 56/0/56 65/0/65 64/0/64
f 65/0/65 56/0/56 57/0/57
f 57/0/57 66/0/66 65/0/65
f 66/0/66 57/0/57 58/0/58
f 58/0/58 67/0/67 66/0/66
f 67/0/67 58/0/58 59/0/59
f 59/0/59 68/0/68 67/0/67
f 68/0/68 59/0/59 60/0/60
f 60/0/60 69/0/69 68/0/68
f 69/0/69 60/0/60 61/0/61
f 61/0/61 70/0/70 69/0/69
f 70/0/70 61/0/61 45/0/45
f 45/0/45 71/0/71 70/0/70
f 71/0/71 45/0/45 44/0/44
f 44/0/44 72/0/72 71/0/71
f 72/0/72 44/0/44 73/0/73
f 39/0/39 73/0/73 44/0/44
f 73/0/73 39/0/39 41/0/41
f 41/0/41 74/0/74 73/0/73
f 74/0/74 41/0/41 42/0/42
f 42/0/42 75/0/75 74/0/74
f 75/0/75 42/0/42 43/0/43
f 73/0/73 76/0/76 72/0/72
f 76/0/76 73/0/73 74/0/74
f 74/0/74 77/0/77 76/0/76
f 77/0/77 74/0/74 75/0/75
f 78/0/78 67/0/67 68/0/68
f 67/0/67 78/0/78 79/0/79
f 79/0/79 66/0/66 67/0/67
f 66/0/66 79/0/79 80/0/80
f 80/0/80 65/0/65 66/0/66
f 65/0/65 80/0/80 81/0/81
f 81/0/81 64/0/64 65/0/65
f 64/0/64 81/0/81 82/0/82
f 82/0/82 62/0/62 64/0/64
f 62/0/62 82/0/82 83/0/83
f 83/0/83 63/0/63 62/0/62
f 63/0/63 83/0/83 84/0/84
f 68/0/68 85/0/85 78/0/78
f 85/0/85 68/0/68 69/0/69
f 69/0/69 86/0/86 85/0/85
f 86/0/86 69/0/69 70/0/70
f 70/0/70 87/0/87 86/0/86
f 87/0/87 70/0/70 71/0/71
f 71/0/71 88/0/88 87/0/87
f 88/0/88 71/0/71 72/0/72
f 72/0/72 89/0/89 88/0/88
f 89/0/89 72/0/72 76/0/76
f 76/0/76 90/0/90 89/0/89
f 90/0/90 76/0/76 77/0/77
f 91/0/91 84/0/84 83/0/83
f 84/0/84 91/0/91 92/0/92
f 93/0/93 85/0/85 86/0/86
f 85/0/85 93/0/93 94/0/94
f 94/0/94 78/0/78 85/0/85
f 78/0/78 94/0/94 95/0/95
f 95/0/95 79/0/79 78/0/78
f 79/0/79 95/0/95 96/0/96
f 96/0/96 80/0/80 79/0/79
f 80/0/80 96/0/96 97/0/97
f 97/0/97 81/0/81 80/0/80
f 81/0/81 97/0/97 98/0/98
f 98/0/98 82/0/82 81/0/81
f 82/0/82 98/0/98 99/0/99
f 83/0/83 99/0/99 91/0/91
f 99/0/99 83/0/83 82/0/82
f 100/0/100 92/0/92 91/0/91
f 91/0/91 101/0/101 100/0/100
f 101/0/101 91/0/91 99/0/99
f 99/0/99 102/0/102 101/0/101
f 102/0/102 99/0/99 98/0/98
f 98/0/98 103/0/103 102/0/102
f 103/0/103 98/0/98 97/0/97
f 97/0/97 104/0/104 103/0/103
f 104/0/104 97/0/97 96/0/96
f 96/0/96 105/0/105 104/0/104
f 105/0/105 96/0/96 95/0/95
f 95/0/95 106/0/106 105/0/105
f 106/0/106 95/0/95 94/0/94
f 94/0/94 107/0/107 106/0/106
f 107/0/107 94/0/94 93/0/93
f 93/0/93 108/0/108 107/0/107
f 108/0/108 93/0/93 109/0/109
f 86/0/86 109/0/109 93/0/93
f 109/0/109 86/0/86 87/0/87
f 87/0/87 110/0/110 109/0/109
f 110/0/110 87/0/87 88/0/88
f 88/0/88 111/0/111 110/0/110
f 111/0/111 88/0/88 89/0/89
f 89/0/89 112/0/112 111/0/111
f 112/0/112 89/0/89 90/0/90
f 109/0/109 113/0/113 108/0/108
f 113/0/113 109/0/109 110/0/110
f 110/0/110 114/0/114 113/0/113
f 114/0/114 110/0/110 111/0/111
f 111/0/111 115/0/115 114/0/114
f 115/0/115 111/0/111 112/0/112
f 116/0/116 107/0/107 108/0/108
f 107/0/107 116/0/116 117/0/117
f 108/0/108 118/0/118 116/0/116
f 118/0/118 108/0/108 113/0/113
f 113/0/113 119/0/119 118/0/118
f 119/0/119 113/0/113 114/0/114
f 114/0/114 120/0/120 119/0/119
f 120/0/120 114/0/114 115/0/115
f 121/0/121 117/0/117 116/0/116
f 117/0/117 121/0/121 122/0/122
f 122/0/122 123/0/123 117/0/117
f 106/0/106 117/0/117 123/0/123
f 123/0/123 105/0/105 106/0/106
f 105/0/105 123/0/123 124/0/124
f 124/0/124 104/0/104 105/0/105
f 104/0/104 124/0/124 125/0/125
f 125/0/125 103/0/103 104/0/104
f 103/0/103 125/0/125 126/0/126
f 126/0/126 102/0/102 103/0/103
f 102/0/102 126/0/126 127/0/127
f 127/0/127 101/0/101 102/0/102
f 101/0/101 127/0/127 128/0/128
f 128/0/128 100/0/100 101/0/101
f 100/0/100 128/0/128 129/0/129
f 129/0/129 130/0/130 100/0/100
f 92/0/92 100/0/100 130/0/130
f 130/0/130 129/0/129 131/0/131
f 132/0/132 131/0/131 129/0/129
f 131/0/131 132/0/132 133/0/133
f 129/0/129 134/0/134 132/0/132
f 134/0/134 129/0/129 128/0/128
f 128/0/128 135/0/135 134/0/134
f 135/0/135 128/0/128 127/0/127
f 127/0/127 136/0/136 135/0/135
f 136/0/136 127/0/127 126/0/126
f 126/0/126 137/0/137 136/0/136
f 137/0/137 126/0/126 125/0/125
f 125/0/125 138/0/138 137/0/137
f 138/0/138 125/0/125 124/0/124
f 124/0/124 139/0/139 138/0/138
f 139/0/139 124/0/124 123/0/123
f 123/0/123 122/0/122 139/0/139
f 140/0/140 133/0/133 132/0/132
f 133/0/133 140/0/140 141/0/141
f 132/0/132 142/0/142 140/0/140
f 142/0/142 132/0/132 134/0/134
f 134/0/134 143/0/143 142/0/142
f 143/0/143 134/0/134 135/0/135
f 135/0/135 144/0/144 143/0/143
f 144/0/144 135/0/135 136/0/136
f 136/0/136 145/0/145 144/0/144
f 145/0/145 136/0/136 137/0/137
f 137/0/137 146/0/146 145/0/145
f 146/0/146 137/0/137 138/0/138
f 138/0/138 147/0/147 146/0/146
f 147/0/147 138/0/138 139/0/139
f 139/0/139 148/0/148 147/0/147
f 148/0/148 139/0/139 122/0/122
f 122/0/122 149/0/149 148/0/148
f 149/0/149 122/0/122 121/0/121
f 121/0/121 150/0/150 149/0/149
f 150/0/150 121/0/121 151/0/151
f 116/0/116 151/0/151 121/0/121
f 151/0/151 116/0/116 118/0/118
f 118/0/118 152/0/152 151/0/151
f 152/0/152 118/0/118 119/0/119
f 119/0/119 153/0/153 152/0/152
f 153/0/153 119/0/119 120/0/120
f 151/0/151 154/0/154 150/0/150
f 154/0/154 151/0/151 152/0/152
f 152/0/152 155/0/155 154/0/154
f 155/0/155 152/0/152 153/0/153
f 40/0/40 21/0/21 24/0/24
f 117/0/117 106/0/106 107/0/107
