# 
# Wavefront OBJ file
# Created with Kaydara FBX
# 
mtllib startloading_bg02_shadow.mtl

g StartLoading_BG02_Shadow
v -4.692660 -2.253507 -19.501551
v 4.196866 -2.253507 -19.501549
v 4.196867 -0.981353 -19.501549
v -4.692662 -0.981353 -19.501547
vt 0.875088 0.000992
vt 0.875088 0.603399
vt 0.997684 0.603400
vt 0.997684 0.000992
vn 0.000000 -0.000000 1.000000
vn 0.000000 -0.000000 1.000000
vn 0.000000 -0.000000 1.000000
vn 0.000000 -0.000000 1.000000
usemtl material
f 1/0/1 2/0/2 3/0/3
f 1/0/1 3/0/3 4/0/4
