# 
# Wavefront OBJ file
# Created with Kaydara FBX
# 
mtllib startloading_screen02.mtl

g StartLoading_Screen02
v -0.332988 0.100950 2.897201
v -0.301425 0.100950 2.882025
v 0.000000 0.100950 2.882025
v 0.000000 0.100950 3.011300
v -0.357928 0.100950 2.978544
v -0.329778 0.100950 3.011300
v 0.301425 0.100950 2.882025
v 0.332988 0.100950 2.897201
v 0.357928 0.100950 2.978545
v 0.329778 0.100950 3.011300
vt 0.965160 0.117390
vt 0.921070 0.000002
vt 0.500000 0.000002
vt 0.500000 1.000000
vt 1.000000 0.746622
vt 0.960676 1.000002
vt 0.078930 0.000002
vt 0.034840 0.117390
vt 0.000000 0.746624
vt 0.039324 1.000002
vn 0.000000 -1.000000 -0.000000
vn 0.000000 -1.000000 -0.000000
vn 0.000000 -1.000000 -0.000000
vn 0.000000 -1.000000 -0.000000
vn 0.000000 -1.000000 -0.000000
vn 0.000000 -1.000000 -0.000000
vn -0.000000 -1.000000 -0.000000
vn -0.000000 -1.000000 -0.000000
vn -0.000000 -1.000000 -0.000000
vn -0.000000 -1.000000 -0.000000
usemtl material
f 1/0/1 2/0/2 3/0/3
f 3/0/3 4/0/4 1/0/1
f 4/0/4 5/0/5 1/0/1
f 4/0/4 6/0/6 5/0/5
f 4/0/4 3/0/3 7/0/7
f 7/0/7 8/0/8 4/0/4
f 8/0/8 9/0/9 4/0/4
f 9/0/9 10/0/10 4/0/4
