# 
# Wavefront OBJ file
# Created with Kaydara FBX
# 
mtllib startloading_screen01.mtl

g StartLoading_Screen01
v -1.662681 1.699600 -0.229577
v -1.676103 1.681520 -0.223159
v -1.676022 1.478250 -0.223331
v -1.662680 1.463116 -0.229575
v -1.510738 1.716613 -0.300698
v -1.509265 1.483643 -0.301386
v -1.496496 1.703692 -0.307364
v -1.496415 1.502869 -0.307539
vt 0.432896 0.985883
vt 0.463499 0.953108
vt 0.462788 0.547970
vt 0.432193 0.514407
vt 0.085744 0.986522
vt 0.082290 0.514470
vt 0.053267 0.957077
vt 0.052828 0.549877
vn 0.424470 -0.000032 0.905442
vn 0.424470 -0.000032 0.905442
vn 0.424470 -0.000032 0.905442
vn 0.424470 -0.000032 0.905442
vn 0.424470 -0.000032 0.905442
vn 0.424470 -0.000032 0.905442
vn 0.424470 -0.000032 0.905442
vn 0.424470 -0.000032 0.905442
usemtl material
f 1/0/1 2/0/2 3/0/3
f 3/0/3 4/0/4 1/0/1
f 4/0/4 5/0/5 1/0/1
f 4/0/4 6/0/6 5/0/5
f 6/0/6 7/0/7 5/0/5
f 6/0/6 8/0/8 7/0/7
