# 
# Wavefront OBJ file
# Created with Kaydara FBX
# 
mtllib startloading_bg02_b.mtl

g StartLoading_BG02_B
v -4.354929 -10.502493 -19.538979
v 4.459092 -10.502493 -19.538979
v 4.459092 -4.315973 -19.538979
v -4.354930 -4.315973 -19.538979
v -4.354930 -4.315973 -19.538979
v 4.459091 -4.315973 -19.538979
v 4.459091 1.870550 -19.538979
v -4.354931 1.870549 -19.538979
v -4.354931 1.870550 -19.538979
v 4.459090 1.870549 -19.538979
v 4.459090 8.057070 -19.538979
v -4.354932 8.057070 -19.538975
v -4.354932 8.057070 -19.538977
v 4.459089 8.057070 -19.538977
v 4.459089 14.243593 -19.538977
v -4.354933 14.243593 -19.538975
v -4.354932 14.243593 -19.538975
v 4.459089 14.243593 -19.538975
v 4.459089 20.430115 -19.538975
v -4.354933 20.430115 -19.538975
vt 0.869838 0.000477
vt 0.001621 0.000477
vt 0.001621 0.602385
vt 0.869838 0.602385
vt 0.869838 0.000477
vt 0.001621 0.000477
vt 0.001621 0.602385
vt 0.869838 0.602385
vt 0.869838 0.000477
vt 0.001621 0.000477
vt 0.001621 0.602385
vt 0.869838 0.602385
vt 0.869838 0.000477
vt 0.001621 0.000477
vt 0.001621 0.602385
vt 0.869838 0.602385
vt 0.869838 0.000477
vt 0.001621 0.000477
vt 0.001621 0.602385
vt 0.869838 0.602385
vn 0.000000 0.000000 1.000000
vn 0.000000 0.000000 1.000000
vn 0.000000 0.000000 1.000000
vn 0.000000 0.000000 1.000000
vn 0.000000 0.000000 1.000000
vn 0.000000 0.000000 1.000000
vn 0.000000 0.000000 1.000000
vn 0.000000 0.000000 1.000000
vn 0.000000 0.000000 1.000000
vn 0.000000 0.000000 1.000000
vn 0.000000 0.000000 1.000000
vn 0.000000 0.000000 1.000000
vn 0.000000 0.000000 1.000000
vn 0.000000 0.000000 1.000000
vn 0.000000 0.000000 1.000000
vn 0.000000 0.000000 1.000000
vn 0.000000 0.000000 1.000000
vn 0.000000 0.000000 1.000000
vn 0.000000 0.000000 1.000000
vn 0.000000 0.000000 1.000000
usemtl material
f 1/0/1 2/0/2 3/0/3
f 1/0/1 3/0/3 4/0/4
f 5/0/5 6/0/6 7/0/7
f 5/0/5 7/0/7 8/0/8
f 9/0/9 10/0/10 11/0/11
f 9/0/9 11/0/11 12/0/12
f 13/0/13 14/0/14 15/0/15
f 13/0/13 15/0/15 16/0/16
f 17/0/17 18/0/18 19/0/19
f 17/0/17 19/0/19 20/0/20
