# 
# Wavefront OBJ file
# Created with Kaydara FBX
# 
mtllib startloading_bg02_light_b_02.mtl

g StartLoading_BG02_Light_B_02
v 0.344249 -0.344250 -0.000001
v 0.344249 0.344250 -0.000001
v -0.344251 0.344250 -0.000001
v -0.344251 -0.344250 -0.000001
vt 0.741617 0.595395
vt 0.741617 0.663677
vt 0.809899 0.663677
vt 0.809899 0.595395
vn 0.000000 0.000000 1.000000
vn 0.000000 0.000000 1.000000
vn 0.000000 0.000000 1.000000
vn 0.000000 0.000000 1.000000
usemtl material
f 1/0/1 2/0/2 3/0/3
f 1/0/1 3/0/3 4/0/4
