# 
# Wavefront OBJ file
# Created with Kaydara FBX
# 
mtllib stone_z01 #226600.mtl

g Stone_Z01
v -1.112241 -0.014448 -0.051159
v -1.182271 0.359844 -0.608922
v -1.373574 -0.014448 -0.587145
v -0.965854 0.359844 -0.121119
v -1.225571 -0.014448 -1.203493
v -1.058076 0.359844 -1.162916
v -0.520122 -0.014448 0.318754
v -0.487495 0.359844 0.247191
v -0.788706 0.810928 -0.199567
v -0.903926 0.782166 -0.861227
v -0.562529 0.934274 -0.356295
v -0.401274 0.751040 0.008412
v -0.401274 0.751040 0.008412
v -0.269209 0.982578 -1.272545
v -0.903926 0.782166 -0.861227
v -0.525234 0.876168 -1.335646
v -0.091821 0.337930 -1.492701
v 0.281606 0.337930 -1.175397
v 0.086782 0.896108 -1.029371
v 0.043350 0.801479 -0.474420
v 0.410933 0.337930 -0.514948
v 0.018970 0.593857 -0.168854
v 0.230068 0.206694 -1.595026
v -0.611587 0.359844 -1.577994
v -0.684170 -0.014448 -1.656403
v 0.289736 -0.014448 -1.661100
v 0.599180 0.206694 -1.271119
v 0.740728 -0.014448 -1.307819
v 0.671260 0.206694 -0.400592
v 0.821592 -0.014448 -0.415963
v 0.254814 -0.014448 -0.013600
v 0.177603 0.359844 -0.047594
v -0.520122 -0.014448 0.318754
v -0.487495 0.359844 0.247191
v -0.684170 -0.014448 -1.656403
v -1.058076 0.359844 -1.162916
v -0.611587 0.359844 -1.577994
v -1.225571 -0.014448 -1.203493
v -0.903926 0.782166 -0.861227
v -0.525234 0.876168 -1.335646
v 0.214941 -0.014448 0.728988
v -0.054111 0.269521 0.956713
v 0.302905 0.341631 0.835062
v -0.105464 -0.014448 0.905736
v -0.184497 -0.014448 1.296576
v -0.105464 -0.014448 0.905736
v -0.152124 0.187974 1.293549
v 0.091499 0.131372 1.469984
v 0.094873 -0.014448 1.505472
v 0.319668 0.105146 1.574642
v 0.356284 -0.014448 1.625365
v 0.659097 -0.014448 1.411879
v 0.616675 0.105146 1.368754
v 0.692388 -0.014448 1.177240
v 0.656377 0.246685 1.169515
v 0.491128 -0.014448 0.825560
v 0.476143 0.187974 0.871488
v 0.302905 0.341631 0.835062
v 0.214941 -0.014448 0.728988
v 0.442988 0.284092 1.159838
v 0.306807 0.384868 1.457738
v 0.101699 0.428883 1.388881
v 1.041274 -0.014448 -1.236901
v 0.933965 0.184326 -1.453873
v 0.899575 0.222979 -1.169030
v 1.001758 -0.014448 -1.489957
v 0.763530 -0.014448 -1.635533
v 0.755684 0.127241 -1.584537
v 0.542949 0.088652 -1.422282
v 0.526396 -0.014448 -1.537623
v 0.417837 -0.014448 -1.358473
v 0.485713 -0.014448 -1.108229
v 0.600195 0.118809 -1.112409
v 0.632129 -0.014448 -1.030182
v 0.909644 -0.014448 -1.080455
v 0.899575 0.222979 -1.169030
v 1.041274 -0.014448 -1.236901
v 0.715264 0.243247 -1.270817
v -0.948667 -0.014448 0.672074
v -0.770801 0.300024 0.215492
v -0.926460 -0.014448 0.152709
v -0.807476 0.300024 0.679261
v -0.557168 -0.014448 -0.258258
v -0.445605 0.300024 -0.157614
v -0.648364 -0.014448 1.201400
v -0.593657 0.300024 1.160111
v 0.038555 0.300024 1.210238
v 0.083623 -0.014448 1.268363
v 0.563506 0.166528 1.144584
v 0.685063 -0.014448 1.195218
v -0.639072 0.693247 0.692640
v -0.452676 0.735342 0.137601
v -0.400654 0.849537 0.666439
v -0.310410 0.793452 0.984740
v 0.204575 0.853931 0.085824
v -0.452676 0.735342 0.137601
v 0.411401 0.280933 0.948880
v -0.031138 0.504019 1.048002
v 0.133872 0.679438 0.843431
v 0.090991 0.830874 -0.173034
v 0.414770 0.287217 0.018207
v 0.591816 0.280034 0.394759
v 0.376494 0.724824 0.420052
v 0.411401 0.280933 0.948880
v 0.721147 0.166528 0.045902
v 0.068965 0.300024 -0.290426
v 0.045830 -0.014448 -0.380651
v 0.794287 -0.014448 0.020033
v 0.869590 0.166528 0.447396
v 0.993359 -0.014448 0.478060
v 0.563506 0.166528 1.144584
v 0.685063 -0.014448 1.195218
v 0.068965 0.300024 -0.290426
v -0.452676 0.735342 0.137601
v -0.445605 0.300024 -0.157614
v 0.045830 -0.014448 -0.380651
v -0.557168 -0.014448 -0.258258
v -0.726731 -0.014448 1.191618
v -0.897468 0.302930 1.546647
v -0.588606 0.383521 1.259752
v -0.973108 -0.014448 1.518053
v -0.875578 -0.014448 1.952907
v -0.843928 0.211782 1.935055
v -0.514895 0.148530 2.004040
v -0.495266 -0.014448 2.038717
v -0.234343 0.119214 2.006832
v -0.173850 -0.014448 2.041881
v 0.037820 -0.014448 1.685973
v -0.025134 0.119214 1.661295
v -0.035168 -0.014448 1.431383
v -0.075447 0.277412 1.439889
v -0.400876 -0.014448 1.164254
v -0.395227 0.211782 1.217946
v -0.588606 0.383521 1.259752
v -0.726731 -0.014448 1.191618
v -0.297605 0.319209 1.527321
v -0.300769 0.414150 1.893375
v -0.541453 0.502681 1.916627
vt 0.073915 0.097305
vt 0.250143 0.036115
vt 0.164147 -0.035464
vt 0.176766 0.156775
vt 0.283290 -0.140948
vt 0.355256 -0.065266
vt 0.023201 0.285158
vt 0.126160 0.310447
vt 0.285138 0.218649
vt 0.475691 0.157713
vt 0.403252 0.273330
vt 0.248260 0.326020
vt 0.387044 0.401907
vt 0.607348 0.262334
vt 0.475691 0.157713
vt 0.632835 0.202774
vt 0.737241 0.323400
vt 0.686992 0.414520
vt 0.598629 0.343728
vt 0.516678 0.404917
vt 0.579486 0.498730
vt 0.470263 0.456097
vt 0.768853 0.388718
vt 0.757521 0.218218
vt 0.835526 0.213035
vt 0.811899 0.406919
vt 0.730634 0.469304
vt 0.763639 0.508143
vt 0.589187 0.559088
vt 0.614983 0.604635
vt 0.472914 0.594187
vt 0.475667 0.516523
vt 0.302160 0.556435
vt 0.330849 0.482496
vt 0.433737 -0.229749
vt 0.355256 -0.065266
vt 0.484263 -0.147963
vt 0.283290 -0.140948
vt 0.475691 0.157713
vt 0.570051 -0.015784
vt 0.347955 0.740483
vt 0.418720 0.486353
vt 0.209224 0.561621
vt 0.524266 0.620565
vt 0.514116 0.222654
vt 0.593285 0.451556
vt 0.413302 0.290753
vt 0.295087 0.182521
vt 0.314313 0.089419
vt 0.147394 0.164741
vt 0.101457 0.090160
vt -0.089328 0.245015
vt -0.024398 0.296106
vt -0.120010 0.411628
vt 0.003940 0.403809
vt -0.017722 0.624840
vt 0.073200 0.554796
vt 0.209224 0.561621
vt 0.094848 0.751901
vt 0.107138 0.412884
vt 0.207834 0.307220
vt 0.263338 0.326983
vt 0.541734 0.435340
vt 0.316575 0.373587
vt 0.384907 0.578049
vt 0.417676 0.278951
vt 0.282369 0.198246
vt 0.260637 0.271113
vt 0.133610 0.277917
vt 0.145154 0.198499
vt 0.048269 0.256602
vt 0.000504 0.380978
vt 0.076576 0.418357
vt 0.021227 0.471006
vt 0.118338 0.576299
vt 0.215748 0.491503
vt 0.202900 0.636168
vt 0.177828 0.399904
vt 0.697650 0.326835
vt 0.527863 0.574988
vt 0.679165 0.602791
vt 0.487732 0.409996
vt 0.564024 0.785739
vt 0.462095 0.721990
vt 0.429603 0.144686
vt 0.370883 0.262959
vt 0.154982 0.246021
vt 0.137797 0.123924
vt -0.049012 0.220062
vt -0.102207 0.148552
vt 0.379111 0.452702
vt 0.324147 0.580669
vt 0.301224 0.492091
vt 0.265705 0.410692
vt 0.192396 0.637432
vt 0.324147 0.580669
vt -0.000611 0.317674
vt 0.184104 0.338154
vt 0.148954 0.444837
vt 0.234641 0.705102
vt 0.046785 0.698488
vt 0.002883 0.588843
vt 0.127432 0.566220
vt 0.016963 0.431928
vt -0.040335 0.682016
vt 0.120453 0.803987
vt 0.066739 0.875395
vt -0.087527 0.703665
vt -0.077708 0.584159
vt -0.134705 0.581400
vt -0.041028 0.389644
vt -0.098904 0.379762
vt 0.340703 0.824154
vt 0.324147 0.580669
vt 0.462095 0.721990
vt 0.405155 0.907529
vt 0.564024 0.785739
vt 0.669700 1.044824
vt 0.450548 0.843651
vt 0.428954 1.091991
vt 0.641829 0.811019
vt 0.559944 0.567996
vt 0.458637 0.633923
vt 0.338809 0.514858
vt 0.359229 0.422473
vt 0.179974 0.490602
vt 0.134659 0.412346
vt -0.064597 0.575126
vt 0.003099 0.630743
vt -0.105406 0.747053
vt 0.034901 0.744720
vt -0.035776 0.991610
vt 0.078807 0.920380
vt 0.229933 0.941487
vt 0.063903 1.159633
vt 0.137996 0.757968
vt 0.228952 0.619342
vt 0.308469 0.649930
vn -0.683023 0.392903 0.615717
vn -0.871882 0.483110 0.080166
vn -0.884952 0.457395 0.087463
vn -0.705976 0.371240 0.603141
vn -0.779233 0.405285 -0.478058
vn -0.723392 0.483981 -0.492409
vn -0.073938 0.230944 0.970154
vn -0.072537 0.326243 0.942499
vn -0.628730 0.643509 0.436572
vn -0.637517 0.751977 -0.167641
vn 0.035112 0.989035 0.143448
vn 0.169814 0.768698 0.616658
vn 0.169814 0.768698 0.616658
vn 0.140834 0.906533 -0.397950
vn -0.637517 0.751977 -0.167641
vn -0.418454 0.593697 -0.687328
vn 0.363594 0.572561 -0.734829
vn 0.625397 0.717339 -0.307089
vn 0.729683 0.664829 -0.159893
vn 0.459356 0.866455 0.195571
vn 0.619722 0.784791 0.006849
vn 0.543121 0.608671 0.578394
vn 0.223469 0.562480 -0.796039
vn -0.295021 0.380702 -0.876372
vn -0.317685 0.274465 -0.907604
vn 0.248246 0.352512 -0.902280
vn 0.613106 0.743504 -0.267026
vn 0.778732 0.551639 -0.298784
vn 0.686279 0.668153 0.287390
vn 0.815290 0.539635 0.209990
vn 0.485321 0.188440 0.853788
vn 0.512195 0.407735 0.755916
vn -0.073938 0.230944 0.970154
vn -0.072537 0.326243 0.942499
vn -0.317685 0.274465 -0.907604
vn -0.723392 0.483981 -0.492409
vn -0.295021 0.380702 -0.876372
vn -0.779233 0.405285 -0.478058
vn -0.637517 0.751977 -0.167641
vn -0.418454 0.593697 -0.687328
vn -0.126417 0.283209 -0.950690
vn -0.591572 0.664909 -0.456003
vn 0.003205 0.784846 -0.619682
vn -0.787157 0.244029 -0.566422
vn -0.959125 0.188826 0.210769
vn -0.787157 0.244029 -0.566422
vn -0.851520 0.453760 0.262707
vn -0.465003 0.238031 0.852710
vn -0.502130 0.198996 0.841586
vn 0.244976 0.525147 0.814989
vn 0.221314 0.437422 0.871597
vn 0.697648 0.451551 0.556228
vn 0.544391 0.661869 0.515334
vn 0.950235 0.142558 -0.277001
vn 0.775676 0.620956 -0.112873
vn 0.607961 0.182581 -0.772689
vn 0.679868 0.490727 -0.544946
vn 0.003205 0.784846 -0.619682
vn -0.126417 0.283209 -0.950690
vn 0.503574 0.858687 0.095233
vn 0.481983 0.750594 0.451996
vn -0.278901 0.935238 0.218048
vn 0.890818 0.414676 0.185709
vn 0.488651 0.775911 -0.398977
vn 0.444032 0.738786 0.506982
vn 0.771605 0.358542 -0.525428
vn 0.024948 0.423883 -0.905373
vn -0.205939 0.770759 -0.602926
vn -0.535556 0.795511 -0.283446
vn -0.384828 0.714900 -0.583802
vn -0.625976 0.779200 0.031637
vn -0.693529 0.671275 0.261547
vn -0.433263 0.709902 0.555267
vn -0.006272 0.524028 0.851678
vn 0.351829 0.367203 0.861033
vn 0.444032 0.738786 0.506982
vn 0.890818 0.414676 0.185709
vn -0.296904 0.949580 -0.100722
vn -0.888867 0.405033 0.214157
vn -0.814120 0.468711 -0.342809
vn -0.813317 0.470823 -0.341820
vn -0.905608 0.377402 0.193499
vn -0.455380 0.417947 -0.786097
vn -0.410209 0.459416 -0.787823
vn -0.527100 0.238279 0.815714
vn -0.506157 0.346395 0.789820
vn 0.091386 0.419275 0.903248
vn 0.021460 0.195309 0.980507
vn 0.458073 0.684400 0.567244
vn 0.608035 0.564571 0.558169
vn -0.789765 0.595624 0.146641
vn -0.505347 0.729583 -0.460796
vn -0.175269 0.984314 0.020167
vn -0.057706 0.792324 0.607365
vn 0.406594 0.899091 -0.162225
vn -0.505347 0.729583 -0.460796
vn 0.547570 0.776491 0.311815
vn 0.222759 0.510417 0.830574
vn 0.494135 0.766490 0.410272
vn -0.017859 0.579724 -0.814617
vn 0.703034 0.529001 -0.475290
vn 0.687522 0.726067 0.011856
vn 0.738060 0.645927 0.195055
vn 0.547570 0.776491 0.311815
vn 0.562716 0.586889 -0.582161
vn 0.124157 0.298588 -0.946272
vn 0.152474 0.283591 -0.946746
vn 0.644044 0.372123 -0.668380
vn 0.653353 0.755030 0.055315
vn 0.810341 0.576001 0.107564
vn 0.458073 0.684400 0.567244
vn 0.608035 0.564571 0.558169
vn 0.124157 0.298588 -0.946272
vn -0.505347 0.729583 -0.460796
vn -0.410209 0.459416 -0.787823
vn 0.152474 0.283591 -0.946746
vn -0.455380 0.417947 -0.786097
vn -0.503213 0.283198 -0.816441
vn -0.734424 0.654102 -0.181030
vn -0.246424 0.782124 -0.572326
vn -0.949744 0.244014 -0.196068
vn -0.789736 0.188829 0.583661
vn -0.675149 0.439957 0.592124
vn -0.073268 0.234426 0.969369
vn -0.115193 0.198981 0.973210
vn 0.546559 0.535226 0.644055
vn 0.557638 0.437376 0.705508
vn 0.863836 0.451584 0.223289
vn 0.707251 0.661868 0.248447
vn 0.754614 0.142523 -0.640504
vn 0.662156 0.620952 -0.419485
vn 0.239908 0.182550 -0.953478
vn 0.398450 0.490732 -0.774867
vn -0.246424 0.782124 -0.572326
vn -0.503213 0.283198 -0.816441
vn 0.474826 0.874139 -0.102084
vn 0.653317 0.724200 0.220707
vn -0.118623 0.949154 0.291608
usemtl material
f 1/0/1 2/0/2 3/0/3
f 2/0/2 1/0/1 4/0/4
f 2/0/2 5/0/5 3/0/3
f 5/0/5 2/0/2 6/0/6
f 7/0/7 4/0/4 1/0/1
f 4/0/4 7/0/7 8/0/8
f 2/0/2 4/0/4 9/0/9
f 8/0/8 9/0/9 4/0/4
f 6/0/6 2/0/2 10/0/10
f 2/0/2 9/0/9 10/0/10
f 11/0/11 10/0/10 9/0/9
f 11/0/11 9/0/9 12/0/12
f 9/0/9 8/0/8 12/0/12
f 11/0/11 13/0/13 14/0/14
f 15/0/15 11/0/11 14/0/14
f 15/0/15 14/0/14 16/0/16
f 14/0/14 17/0/17 16/0/16
f 14/0/14 18/0/18 17/0/17
f 18/0/18 14/0/14 19/0/19
f 20/0/20 18/0/18 19/0/19
f 14/0/14 20/0/20 19/0/19
f 14/0/14 13/0/13 20/0/20
f 18/0/18 20/0/20 21/0/21
f 20/0/20 22/0/22 21/0/21
f 20/0/20 13/0/13 22/0/22
f 18/0/18 23/0/23 17/0/17
f 23/0/23 24/0/24 17/0/17
f 17/0/17 24/0/24 16/0/16
f 23/0/23 25/0/25 24/0/24
f 25/0/25 23/0/23 26/0/26
f 27/0/27 26/0/26 23/0/23
f 23/0/23 18/0/18 27/0/27
f 21/0/21 27/0/27 18/0/18
f 26/0/26 27/0/27 28/0/28
f 29/0/29 28/0/28 27/0/27
f 27/0/27 21/0/21 29/0/29
f 28/0/28 29/0/29 30/0/30
f 29/0/29 31/0/31 30/0/30
f 31/0/31 29/0/29 32/0/32
f 32/0/32 21/0/21 22/0/22
f 21/0/21 32/0/32 29/0/29
f 32/0/32 33/0/33 31/0/31
f 33/0/33 32/0/32 34/0/34
f 34/0/34 32/0/32 22/0/22
f 34/0/34 22/0/22 13/0/13
f 35/0/35 36/0/36 37/0/37
f 36/0/36 35/0/35 38/0/38
f 39/0/39 37/0/37 36/0/36
f 37/0/37 39/0/39 40/0/40
f 41/0/41 42/0/42 43/0/43
f 42/0/42 41/0/41 44/0/44
f 45/0/45 42/0/42 46/0/46
f 42/0/42 45/0/45 47/0/47
f 45/0/45 48/0/48 47/0/47
f 48/0/48 45/0/45 49/0/49
f 49/0/49 50/0/50 48/0/48
f 50/0/50 49/0/49 51/0/51
f 52/0/52 50/0/50 51/0/51
f 50/0/50 52/0/52 53/0/53
f 54/0/54 53/0/53 52/0/52
f 53/0/53 54/0/54 55/0/55
f 56/0/56 55/0/55 54/0/54
f 55/0/55 56/0/56 57/0/57
f 56/0/56 58/0/58 57/0/57
f 58/0/58 56/0/56 59/0/59
f 55/0/55 57/0/57 60/0/60
f 53/0/53 55/0/55 60/0/60
f 50/0/50 53/0/53 60/0/60
f 60/0/60 57/0/57 58/0/58
f 61/0/61 48/0/48 50/0/50
f 60/0/60 58/0/58 61/0/61
f 50/0/50 60/0/60 61/0/61
f 48/0/48 61/0/61 62/0/62
f 47/0/47 48/0/48 62/0/62
f 61/0/61 58/0/58 62/0/62
f 62/0/62 42/0/42 47/0/47
f 62/0/62 58/0/58 42/0/42
f 63/0/63 64/0/64 65/0/65
f 64/0/64 63/0/63 66/0/66
f 67/0/67 64/0/64 66/0/66
f 64/0/64 67/0/67 68/0/68
f 67/0/67 69/0/69 68/0/68
f 64/0/64 68/0/68 69/0/69
f 69/0/69 67/0/67 70/0/70
f 71/0/71 69/0/69 70/0/70
f 72/0/72 69/0/69 71/0/71
f 69/0/69 72/0/72 73/0/73
f 74/0/74 73/0/73 72/0/72
f 75/0/75 73/0/73 74/0/74
f 73/0/73 75/0/75 76/0/76
f 77/0/77 76/0/76 75/0/75
f 73/0/73 76/0/76 78/0/78
f 69/0/69 73/0/73 78/0/78
f 64/0/64 69/0/69 78/0/78
f 64/0/64 78/0/78 76/0/76
f 79/0/79 80/0/80 81/0/81
f 80/0/80 79/0/79 82/0/82
f 80/0/80 83/0/83 81/0/81
f 83/0/83 80/0/80 84/0/84
f 85/0/85 82/0/82 79/0/79
f 82/0/82 85/0/85 86/0/86
f 85/0/85 87/0/87 86/0/86
f 87/0/87 85/0/85 88/0/88
f 88/0/88 89/0/89 87/0/87
f 89/0/89 88/0/88 90/0/90
f 80/0/80 82/0/82 91/0/91
f 86/0/86 91/0/91 82/0/82
f 84/0/84 80/0/80 92/0/92
f 80/0/80 91/0/91 92/0/92
f 93/0/93 92/0/92 91/0/91
f 93/0/93 91/0/91 94/0/94
f 91/0/91 86/0/86 94/0/94
f 93/0/93 94/0/94 95/0/95
f 96/0/96 93/0/93 95/0/95
f 97/0/97 87/0/87 89/0/89
f 87/0/87 97/0/97 98/0/98
f 86/0/86 87/0/87 98/0/98
f 86/0/86 98/0/98 94/0/94
f 99/0/99 98/0/98 97/0/97
f 99/0/99 94/0/94 98/0/98
f 95/0/95 94/0/94 99/0/99
f 96/0/96 95/0/95 100/0/100
f 95/0/95 101/0/101 100/0/100
f 95/0/95 102/0/102 101/0/101
f 102/0/102 95/0/95 103/0/103
f 99/0/99 102/0/102 103/0/103
f 95/0/95 99/0/99 103/0/103
f 102/0/102 99/0/99 104/0/104
f 102/0/102 105/0/105 101/0/101
f 105/0/105 106/0/106 101/0/101
f 101/0/101 106/0/106 100/0/100
f 105/0/105 107/0/107 106/0/106
f 107/0/107 105/0/105 108/0/108
f 109/0/109 108/0/108 105/0/105
f 105/0/105 102/0/102 109/0/109
f 104/0/104 109/0/109 102/0/102
f 108/0/108 109/0/109 110/0/110
f 111/0/111 110/0/110 109/0/109
f 109/0/109 104/0/104 111/0/111
f 110/0/110 111/0/111 112/0/112
f 113/0/113 114/0/114 100/0/100
f 114/0/114 113/0/113 115/0/115
f 116/0/116 115/0/115 113/0/113
f 115/0/115 116/0/116 117/0/117
f 118/0/118 119/0/119 120/0/120
f 119/0/119 118/0/118 121/0/121
f 122/0/122 119/0/119 121/0/121
f 119/0/119 122/0/122 123/0/123
f 122/0/122 124/0/124 123/0/123
f 124/0/124 122/0/122 125/0/125
f 125/0/125 126/0/126 124/0/124
f 126/0/126 125/0/125 127/0/127
f 128/0/128 126/0/126 127/0/127
f 126/0/126 128/0/128 129/0/129
f 130/0/130 129/0/129 128/0/128
f 129/0/129 130/0/130 131/0/131
f 132/0/132 131/0/131 130/0/130
f 131/0/131 132/0/132 133/0/133
f 132/0/132 134/0/134 133/0/133
f 134/0/134 132/0/132 135/0/135
f 131/0/131 133/0/133 136/0/136
f 129/0/129 131/0/131 136/0/136
f 126/0/126 129/0/129 136/0/136
f 136/0/136 133/0/133 134/0/134
f 137/0/137 124/0/124 126/0/126
f 136/0/136 134/0/134 137/0/137
f 126/0/126 136/0/136 137/0/137
f 124/0/124 137/0/137 138/0/138
f 123/0/123 124/0/124 138/0/138
f 137/0/137 134/0/134 138/0/138
f 138/0/138 119/0/119 123/0/123
f 138/0/138 134/0/134 119/0/119
