# 
# Wavefront OBJ file
# Created with Kaydara FBX
# 
mtllib stone_z01.mtl

g Stone_Z01
v -0.136743 1.609717 1.296728
v 0.357729 2.137964 1.265684
v 0.068887 0.266216 0.853164
v 0.912612 1.923887 1.345430
v 0.596265 0.240674 0.853164
v 0.842324 2.988159 2.188310
v 0.435054 0.000000 0.946885
v 0.005503 0.000000 0.967275
v -0.505610 0.298916 1.142871
v -0.519956 0.000000 1.243516
v -0.637671 0.000000 1.762393
v -0.646440 0.293604 1.691025
v -0.112197 3.020684 2.111162
v 0.470576 3.310981 2.044678
v -0.172036 2.627563 2.195537
v 0.137310 3.020684 2.985850
v 0.464258 3.375889 2.332685
v 0.764990 3.020684 3.058564
v 0.020024 2.632842 2.867949
v 1.107852 1.840635 1.376455
v 1.373584 0.238975 1.568379
v 1.064707 0.247319 1.081641
v 0.596265 0.240674 0.853164
v 0.435054 0.000000 0.946885
v 0.858125 0.000000 1.124629
v 1.282363 0.000000 1.731826
v 1.271807 0.000000 2.475742
v 1.369917 0.237690 2.470156
v 1.167500 1.683750 2.345039
v 1.085117 0.000000 3.024834
v 1.183569 0.259253 3.168115
v 0.653286 0.000000 3.505283
v 0.695366 0.276548 3.683642
v 0.071060 0.282778 3.683642
v 0.098398 0.000000 3.484893
v 0.912612 1.923887 1.345430
v 0.963101 2.937861 2.236533
v 0.842324 2.988159 2.188310
v 0.764990 3.020684 3.058564
v 0.090044 1.045308 3.564336
v 0.695366 1.045308 3.564492
v 0.127471 2.010776 3.165879
v 0.908223 2.010342 3.232236
v 0.137310 3.020684 2.985850
v 0.020024 2.632842 2.867949
v -0.460845 1.045317 3.204717
v -0.441367 2.159780 2.336514
v -0.857104 0.287490 1.925000
v -0.646440 0.293604 1.691025
v -0.172036 2.627563 2.195537
v -0.328760 2.159780 2.796074
v 0.020024 2.632842 2.867949
v -0.637671 0.000000 1.762393
v -0.738940 0.000000 1.916885
v -0.475967 0.289219 3.360224
v -0.410215 0.000000 3.245508
v 0.090044 1.045308 3.564336
v 0.127471 2.010776 3.165879
v -0.328760 2.159780 2.796074
v -0.460845 1.045317 3.204717
v 0.020024 2.632842 2.867949
v 0.071060 0.282778 3.683642
v -0.475967 0.289219 3.360224
v 0.098398 0.000000 3.484893
v -0.410215 0.000000 3.245508
v -1.112241 -0.014448 -0.963779
v -1.182271 0.359844 -1.521543
v -1.373574 -0.014448 -1.499766
v -0.965854 0.359844 -1.033740
v -1.225571 -0.014448 -2.116113
v -1.058076 0.359844 -2.075537
v -0.520122 -0.014448 -0.593867
v -0.487495 0.359844 -0.665430
v -0.788706 0.810928 -1.112188
v -0.903926 1.311973 -1.773848
v -0.562529 1.266055 -1.268916
v -0.401274 0.751040 -0.904209
v -0.401274 0.751040 -0.904209
v -0.269209 0.982578 -2.185166
v -0.903926 1.311973 -1.773848
v -0.525234 0.977163 -2.384248
v -0.091821 0.337930 -2.405322
v 0.281606 0.337930 -2.088017
v 0.086782 0.896108 -1.941992
v 0.043350 0.801479 -1.387041
v 0.410933 0.337930 -1.427568
v 0.018970 0.593857 -1.081475
v 0.230068 0.206694 -2.507646
v -0.611587 0.359844 -2.490615
v -0.684170 -0.014448 -2.569023
v 0.289736 -0.014448 -2.573721
v 0.599180 0.206694 -2.183740
v 0.740728 -0.014448 -2.220439
v 0.671260 0.206694 -1.313213
v 0.821592 -0.014448 -1.328584
v 0.254814 -0.014448 -0.926221
v 0.177603 0.359844 -0.960215
v -0.520122 -0.014448 -0.593867
v -0.487495 0.359844 -0.665430
v -0.684170 -0.014448 -2.569023
v -1.058076 0.359844 -2.075537
v -0.611587 0.359844 -2.490615
v -1.225571 -0.014448 -2.116113
v -0.903926 1.311973 -1.773848
v -0.525234 0.977163 -2.384248
v 0.214941 -0.014448 -0.183633
v -0.054111 0.269521 0.044092
v 0.302905 0.341631 -0.077559
v -0.105464 -0.014448 -0.006885
v -0.184497 -0.014448 0.383955
v -0.105464 -0.014448 -0.006885
v -0.152124 0.187974 0.380928
v 0.091499 0.131372 0.557363
v 0.094873 -0.014448 0.592852
v 0.319668 0.105146 0.662021
v 0.356284 -0.014448 0.712744
v 0.659097 -0.014448 0.499258
v 0.616675 0.105146 0.456133
v 0.692388 -0.014448 0.264619
v 0.656377 0.246685 0.256895
v 0.491128 -0.014448 -0.087061
v 0.476143 0.187974 -0.041133
v 0.302905 0.341631 -0.077559
v 0.214941 -0.014448 -0.183633
v 0.442988 0.284092 0.247217
v 0.306807 0.497944 0.545117
v 0.101699 0.577158 0.476260
v 1.041274 -0.014448 -2.149521
v 0.933965 0.184326 -2.366494
v 0.899575 0.222979 -2.081650
v 1.001758 -0.014448 -2.402578
v 0.763530 -0.014448 -2.548154
v 0.755684 0.127241 -2.497158
v 0.542949 0.088652 -2.334902
v 0.526396 -0.014448 -2.450244
v 0.417837 -0.014448 -2.271094
v 0.485713 -0.014448 -2.020849
v 0.600195 0.118809 -2.025029
v 0.632129 -0.014448 -1.942803
v 0.909644 -0.014448 -1.993076
v 0.899575 0.222979 -2.081650
v 1.041274 -0.014448 -2.149521
v 0.715264 0.243247 -2.183437
v -0.948667 -0.014448 -0.240547
v -0.770801 0.300024 -0.697129
v -0.926460 -0.014448 -0.759912
v -0.807476 0.300024 -0.233359
v -0.557168 -0.014448 -1.170879
v -0.445605 0.300024 -1.070234
v -0.648364 -0.014448 0.288779
v -0.593657 0.300024 0.247490
v 0.038555 0.300024 0.297617
v 0.083623 -0.014448 0.355742
v 0.563506 0.166528 0.231963
v 0.685063 -0.014448 0.282598
v -0.639072 0.693247 -0.219980
v -0.452676 1.024707 -0.775020
v -0.400654 1.114727 -0.246182
v -0.310410 0.793452 0.072119
v 0.204575 0.853931 -0.826797
v -0.452676 1.024707 -0.775020
v 0.411401 0.280933 0.036260
v -0.031138 0.504019 0.135381
v 0.133872 0.679438 -0.069189
v 0.090991 0.830874 -1.085654
v 0.414770 0.287217 -0.894414
v 0.591816 0.280034 -0.517861
v 0.376494 0.724824 -0.492568
v 0.411401 0.280933 0.036260
v 0.721147 0.166528 -0.866719
v 0.068965 0.300024 -1.203047
v 0.045830 -0.014448 -1.293271
v 0.794287 -0.014448 -0.892588
v 0.869590 0.166528 -0.465225
v 0.993359 -0.014448 -0.434561
v 0.563506 0.166528 0.231963
v 0.685063 -0.014448 0.282598
v 0.068965 0.300024 -1.203047
v -0.452676 1.024707 -0.775020
v -0.445605 0.300024 -1.070234
v 0.045830 -0.014448 -1.293271
v -0.557168 -0.014448 -1.170879
v -0.987134 -0.014448 2.654336
v -1.157871 0.302930 3.009365
v -0.849009 0.383521 2.722471
v -1.233511 -0.014448 2.980771
v -1.135981 -0.014448 3.415625
v -1.104331 0.211782 3.397773
v -0.775298 0.148530 3.466758
v -0.755669 -0.014448 3.501436
v -0.494746 0.119214 3.469551
v -0.434253 -0.014448 3.504600
v -0.222583 -0.014448 3.148691
v -0.285537 0.119214 3.124014
v -0.295571 -0.014448 2.894101
v -0.335850 0.277412 2.902607
v -0.661279 -0.014448 2.626973
v -0.655630 0.211782 2.680664
v -0.849009 0.383521 2.722471
v -0.987134 -0.014448 2.654336
v -0.558008 0.319209 2.990039
v -0.561172 0.414150 3.356094
v -0.801855 0.502681 3.379346
vt 0.503477 0.597948
vt 0.520800 0.843250
vt 0.908760 0.258444
vt 0.664007 0.958587
vt 1.041630 0.423491
vt 0.330510 1.158297
vt 1.108666 0.321975
vt 1.052002 0.096739
vt 0.575366 0.105166
vt 0.465734 -0.133500
vt 0.285263 0.033134
vt 0.362551 0.144605
vt 0.280660 0.950714
vt 0.290879 1.059869
vt 0.261762 0.840867
vt 0.141206 0.973998
vt 0.257269 1.057031
vt 0.074814 1.106104
vt 0.132355 0.876359
vt 0.177546 0.685415
vt 0.217365 0.042880
vt 0.079543 0.082315
vt -0.048086 0.118689
vt -0.084343 -0.002604
vt 0.044862 -0.030727
vt 0.245816 -0.073773
vt 0.445518 -0.109515
vt 0.440214 0.000974
vt 0.411668 0.586623
vt 0.608330 -0.126722
vt 0.619638 0.003347
vt 0.801066 -0.107684
vt 0.790870 0.031180
vt 0.935926 0.077245
vt 0.973961 -0.065341
vt 0.140034 0.748920
vt 0.390290 1.101399
vt 0.372035 1.151589
vt 0.609627 1.126807
vt 0.874981 0.359124
vt 0.742948 0.320852
vt 0.803873 0.739734
vt 0.631143 0.695308
vt 0.741659 1.088356
vt 0.804964 0.988157
vt -0.007458 0.467520
vt 0.221461 0.700883
vt 0.271590 0.150561
vt 0.362551 0.144605
vt 0.261762 0.840867
vt 0.129935 0.730715
vt 0.132355 0.876359
vt 0.285263 0.033134
vt 0.242223 0.061056
vt -0.101883 0.287286
vt -0.116554 0.193192
vt 0.874981 0.359124
vt 0.803873 0.739734
vt 0.905774 0.852056
vt 1.009226 0.441257
vt 0.804964 0.988157
vt 0.935926 0.077245
vt 1.079868 0.159524
vt 0.973961 -0.065341
vt 1.137239 0.055351
vt 0.174620 0.490905
vt 0.351290 0.429561
vt 0.265078 0.357803
vt 0.277729 0.550524
vt 0.384520 0.252054
vt 0.456667 0.327925
vt 0.123778 0.679229
vt 0.226996 0.704581
vt 0.386373 0.612552
vt 0.577404 0.551464
vt 0.504784 0.667371
vt 0.349402 0.720193
vt 0.488535 0.796270
vt 0.709392 0.656348
vt 0.577404 0.551464
vt 0.734943 0.596638
vt 0.839610 0.717567
vt 0.789236 0.808915
vt 0.700651 0.737945
vt 0.618494 0.799288
vt 0.681459 0.893337
vt 0.571962 0.850597
vt 0.871302 0.783048
vt 0.859941 0.612121
vt 0.938142 0.606925
vt 0.914456 0.801295
vt 0.832987 0.863836
vt 0.866074 0.902773
vt 0.691185 0.953846
vt 0.717045 0.999508
vt 0.574620 0.989033
vt 0.577381 0.911174
vt 0.403437 0.951186
vt 0.432199 0.877062
vt 0.535345 0.163030
vt 0.456667 0.327925
vt 0.585998 0.245021
vt 0.384520 0.252054
vt 0.577404 0.551464
vt 0.672001 0.377531
vt 0.574483 0.865628
vt 0.640845 0.627311
vt 0.444384 0.697895
vt 0.739824 0.753172
vt 0.730305 0.380020
vt 0.804548 0.594679
vt 0.635764 0.443882
vt 0.524905 0.342384
vt 0.542934 0.255076
vt 0.386401 0.325710
vt 0.343323 0.255770
vt 0.164409 0.400990
vt 0.225299 0.448902
vt 0.135636 0.557236
vt 0.251873 0.549903
vt 0.231560 0.757181
vt 0.316824 0.691495
vt 0.444384 0.697895
vt 0.337125 0.876336
vt 0.348651 0.558413
vt 0.443080 0.459324
vt 0.495131 0.477857
vt 0.756204 0.579472
vt 0.545055 0.521561
vt 0.609136 0.713301
vt 0.639866 0.432814
vt 0.512978 0.357131
vt 0.492599 0.425463
vt 0.373475 0.431845
vt 0.384300 0.357368
vt 0.293444 0.411856
vt 0.248652 0.528493
vt 0.319990 0.563546
vt 0.268085 0.612919
vt 0.359154 0.711661
vt 0.450503 0.632141
vt 0.438454 0.767804
vt 0.414942 0.546241
vt 0.902419 0.477718
vt 0.743196 0.710431
vt 0.885084 0.736504
vt 0.705562 0.555705
vt 0.777107 0.908068
vt 0.681521 0.848286
vt 0.651051 0.306903
vt 0.595985 0.417817
vt 0.393518 0.401933
vt 0.377401 0.287433
vt 0.202217 0.377589
vt 0.152332 0.310529
vt 0.603700 0.595754
vt 0.552156 0.715758
vt 0.530660 0.632692
vt 0.497351 0.556358
vt 0.428603 0.768989
vt 0.552156 0.715758
vt 0.247605 0.469128
vt 0.420828 0.488333
vt 0.387864 0.588378
vt 0.468220 0.832449
vt 0.292053 0.826246
vt 0.250882 0.723423
vt 0.367682 0.702208
vt 0.264086 0.576273
vt 0.210354 0.810800
vt 0.361137 0.925181
vt 0.310765 0.992146
vt 0.166098 0.831101
vt 0.175306 0.719031
vt 0.121855 0.716444
vt 0.209704 0.536619
vt 0.155429 0.527353
vt 0.567683 0.944093
vt 0.552156 0.715758
vt 0.681521 0.848286
vt 0.628124 1.022280
vt 0.777107 0.908068
vt 0.943750 0.837005
vt 0.724047 0.635327
vt 0.702399 0.884291
vt 0.915808 0.602614
vt 0.833718 0.358981
vt 0.732156 0.425074
vt 0.612027 0.305709
vt 0.632499 0.213094
vt 0.452795 0.281393
vt 0.407366 0.202941
vt 0.207609 0.366129
vt 0.275475 0.421885
vt 0.166699 0.538487
vt 0.307358 0.536149
vt 0.236504 0.783659
vt 0.351374 0.712250
vt 0.502879 0.733410
vt 0.336432 0.952103
vt 0.410711 0.549430
vt 0.501895 0.410456
vt 0.581612 0.441120
vn -0.739687 0.281150 -0.611407
vn -0.064620 0.422392 -0.904107
vn -0.195777 0.111067 -0.974339
vn 0.283740 0.386383 -0.877610
vn 0.199644 0.074264 -0.977050
vn 0.585848 0.605777 -0.538345
vn 0.116777 -0.423874 -0.898162
vn -0.315705 -0.304469 -0.898682
vn -0.748293 0.141020 -0.648205
vn -0.808309 -0.165934 -0.564891
vn -0.913840 -0.126959 -0.385718
vn -0.865889 0.217999 -0.450237
vn -0.731603 0.537643 -0.419162
vn 0.092500 0.664715 -0.741349
vn -0.955582 0.293984 -0.020900
vn -0.301435 0.431164 0.850432
vn 0.011557 0.989571 0.143580
vn 0.367773 0.383438 0.847183
vn -0.849671 0.299073 0.434297
vn 0.909453 0.242254 -0.337948
vn 0.971469 -0.036186 -0.234391
vn 0.673716 -0.073547 -0.735321
vn 0.199644 0.074264 -0.977050
vn 0.116777 -0.423874 -0.898162
vn 0.519606 -0.558670 -0.646450
vn 0.867392 -0.469324 -0.165429
vn 0.908830 -0.394949 0.134322
vn 0.992262 0.014417 0.123319
vn 0.982577 0.156929 0.099575
vn 0.769874 -0.474187 0.427130
vn 0.898386 -0.036239 0.437709
vn 0.350119 -0.570081 0.743252
vn 0.306400 -0.093642 0.947286
vn -0.268090 -0.031060 0.962893
vn -0.225193 -0.533705 0.815136
vn 0.283740 0.386383 -0.877610
vn 0.933335 0.350704 -0.076764
vn 0.585848 0.605777 -0.538345
vn 0.367773 0.383438 0.847183
vn -0.275569 0.279267 0.919821
vn 0.263767 0.231024 0.936512
vn -0.265593 0.301460 0.915741
vn 0.566364 0.262568 0.781210
vn -0.301435 0.431164 0.850432
vn -0.849671 0.299073 0.434297
vn -0.829476 0.216740 0.514775
vn -0.922090 0.289658 -0.256608
vn -0.990067 0.086655 -0.110716
vn -0.865889 0.217999 -0.450237
vn -0.955582 0.293984 -0.020900
vn -0.736463 0.355676 0.575427
vn -0.849671 0.299073 0.434297
vn -0.913840 -0.126959 -0.385718
vn -0.934203 -0.340602 0.106088
vn -0.819419 -0.066801 0.569289
vn -0.819684 -0.404547 0.405536
vn -0.275569 0.279267 0.919821
vn -0.265593 0.301460 0.915741
vn -0.736463 0.355676 0.575427
vn -0.829476 0.216740 0.514775
vn -0.849671 0.299073 0.434297
vn -0.268090 -0.031060 0.962893
vn -0.819419 -0.066801 0.569289
vn -0.225193 -0.533705 0.815136
vn -0.819684 -0.404547 0.405536
vn -0.683023 0.392903 0.615717
vn -0.926163 0.362817 0.102886
vn -0.884952 0.457395 0.087463
vn -0.705976 0.371240 0.603141
vn -0.779233 0.405285 -0.478058
vn -0.793760 0.323302 -0.515189
vn -0.073938 0.230944 0.970153
vn -0.072537 0.326243 0.942499
vn -0.697317 0.424723 0.577374
vn -0.563455 0.809236 -0.166300
vn 0.497065 0.801375 0.332753
vn 0.357886 0.691451 0.627545
vn 0.357886 0.691451 0.627545
vn 0.539563 0.775093 -0.328789
vn -0.563455 0.809236 -0.166300
vn -0.313155 0.494899 -0.810561
vn 0.397454 0.517218 -0.757968
vn 0.625397 0.717339 -0.307089
vn 0.729683 0.664829 -0.159893
vn 0.459356 0.866455 0.195571
vn 0.619722 0.784791 0.006849
vn 0.543121 0.608671 0.578394
vn 0.223469 0.562480 -0.796039
vn -0.361376 0.265950 -0.893688
vn -0.317685 0.274465 -0.907604
vn 0.248246 0.352512 -0.902280
vn 0.613106 0.743504 -0.267025
vn 0.778732 0.551639 -0.298784
vn 0.686279 0.668153 0.287390
vn 0.815290 0.539636 0.209990
vn 0.485321 0.188440 0.853788
vn 0.512195 0.407735 0.755916
vn -0.073938 0.230944 0.970153
vn -0.072537 0.326243 0.942499
vn -0.317685 0.274465 -0.907604
vn -0.793760 0.323302 -0.515189
vn -0.361376 0.265950 -0.893688
vn -0.779233 0.405285 -0.478058
vn -0.563455 0.809236 -0.166300
vn -0.313155 0.494899 -0.810561
vn -0.126417 0.283209 -0.950690
vn -0.628691 0.585802 -0.511452
vn 0.026947 0.731981 -0.680792
vn -0.787157 0.244029 -0.566422
vn -0.959125 0.188826 0.210770
vn -0.787157 0.244029 -0.566422
vn -0.887757 0.363143 0.282868
vn -0.474210 0.189343 0.859810
vn -0.502130 0.198996 0.841586
vn 0.299505 0.458999 0.836431
vn 0.221314 0.437422 0.871597
vn 0.697648 0.451551 0.556228
vn 0.544391 0.661869 0.515334
vn 0.950235 0.142558 -0.277001
vn 0.775676 0.620956 -0.112873
vn 0.607961 0.182581 -0.772689
vn 0.679868 0.490727 -0.544946
vn 0.026947 0.731981 -0.680792
vn -0.126417 0.283209 -0.950690
vn 0.671934 0.737304 0.069918
vn 0.582680 0.669707 0.460409
vn -0.319785 0.936258 0.145459
vn 0.890818 0.414676 0.185709
vn 0.488651 0.775911 -0.398977
vn 0.444032 0.738786 0.506982
vn 0.771605 0.358542 -0.525428
vn 0.024949 0.423883 -0.905373
vn -0.205938 0.770759 -0.602926
vn -0.535556 0.795511 -0.283446
vn -0.384828 0.714900 -0.583802
vn -0.625976 0.779200 0.031637
vn -0.693529 0.671275 0.261547
vn -0.433263 0.709902 0.555267
vn -0.006272 0.524028 0.851678
vn 0.351830 0.367203 0.861033
vn 0.444032 0.738786 0.506982
vn 0.890818 0.414676 0.185709
vn -0.296904 0.949581 -0.100722
vn -0.888867 0.405033 0.214157
vn -0.852428 0.390519 -0.347652
vn -0.813317 0.470823 -0.341820
vn -0.905608 0.377402 0.193499
vn -0.455380 0.417947 -0.786097
vn -0.443736 0.354941 -0.822870
vn -0.527100 0.238279 0.815714
vn -0.506157 0.346395 0.789820
vn 0.091386 0.419275 0.903248
vn 0.021460 0.195309 0.980507
vn 0.458073 0.684400 0.567244
vn 0.608035 0.564571 0.558169
vn -0.867442 0.457320 0.195969
vn -0.464780 0.749259 -0.471795
vn 0.079674 0.941497 0.327469
vn 0.061621 0.713650 0.697786
vn 0.596597 0.794299 -0.114721
vn -0.464780 0.749259 -0.471795
vn 0.547570 0.776491 0.311815
vn 0.222759 0.510417 0.830574
vn 0.494135 0.766490 0.410272
vn 0.085248 0.502376 -0.860437
vn 0.703034 0.529001 -0.475290
vn 0.687522 0.726067 0.011856
vn 0.738060 0.645927 0.195055
vn 0.547570 0.776491 0.311815
vn 0.562716 0.586889 -0.582161
vn 0.126856 0.284120 -0.950360
vn 0.152474 0.283591 -0.946746
vn 0.644044 0.372123 -0.668380
vn 0.653352 0.755030 0.055315
vn 0.810341 0.576001 0.107564
vn 0.458073 0.684400 0.567244
vn 0.608035 0.564571 0.558169
vn 0.126856 0.284120 -0.950360
vn -0.464780 0.749259 -0.471795
vn -0.443736 0.354941 -0.822870
vn 0.152474 0.283591 -0.946746
vn -0.455380 0.417947 -0.786097
vn -0.503212 0.283198 -0.816441
vn -0.734424 0.654102 -0.181030
vn -0.246424 0.782124 -0.572326
vn -0.949744 0.244014 -0.196068
vn -0.789736 0.188829 0.583661
vn -0.675149 0.439958 0.592124
vn -0.073268 0.234426 0.969369
vn -0.115194 0.198981 0.973210
vn 0.546559 0.535226 0.644055
vn 0.557639 0.437376 0.705508
vn 0.863836 0.451585 0.223289
vn 0.707252 0.661868 0.248447
vn 0.754614 0.142523 -0.640504
vn 0.662156 0.620952 -0.419485
vn 0.239909 0.182550 -0.953477
vn 0.398451 0.490732 -0.774867
vn -0.246424 0.782124 -0.572326
vn -0.503212 0.283198 -0.816441
vn 0.474826 0.874139 -0.102084
vn 0.653317 0.724200 0.220707
vn -0.118623 0.949154 0.291608
usemtl material
f 1/0/1 2/0/2 3/0/3
f 3/0/3 2/0/2 4/0/4
f 3/0/3 4/0/4 5/0/5
f 2/0/2 6/0/6 4/0/4
f 7/0/7 3/0/3 5/0/5
f 7/0/7 8/0/8 3/0/3
f 9/0/9 3/0/3 8/0/8
f 1/0/1 3/0/3 9/0/9
f 9/0/9 8/0/8 10/0/10
f 11/0/11 9/0/9 10/0/10
f 11/0/11 12/0/12 9/0/9
f 12/0/12 1/0/1 9/0/9
f 1/0/1 12/0/12 13/0/13
f 2/0/2 1/0/1 13/0/13
f 14/0/14 2/0/2 13/0/13
f 2/0/2 14/0/14 6/0/6
f 12/0/12 15/0/15 13/0/13
f 15/0/15 16/0/16 13/0/13
f 13/0/13 16/0/16 17/0/17
f 13/0/13 17/0/17 14/0/14
f 14/0/14 17/0/17 6/0/6
f 16/0/16 18/0/18 17/0/17
f 17/0/17 18/0/18 6/0/6
f 16/0/16 15/0/15 19/0/19
f 20/0/20 21/0/21 22/0/22
f 23/0/23 20/0/20 22/0/22
f 24/0/24 23/0/23 22/0/22
f 24/0/24 22/0/22 25/0/25
f 21/0/21 25/0/25 22/0/22
f 21/0/21 26/0/26 25/0/25
f 27/0/27 26/0/26 21/0/21
f 27/0/27 21/0/21 28/0/28
f 28/0/28 21/0/21 29/0/29
f 21/0/21 20/0/20 29/0/29
f 30/0/30 27/0/27 28/0/28
f 30/0/30 28/0/28 31/0/31
f 28/0/28 29/0/29 31/0/31
f 32/0/32 30/0/30 31/0/31
f 32/0/32 31/0/31 33/0/33
f 32/0/32 33/0/33 34/0/34
f 32/0/32 34/0/34 35/0/35
f 23/0/23 36/0/36 20/0/20
f 37/0/37 20/0/20 36/0/36
f 20/0/20 37/0/37 29/0/29
f 37/0/37 36/0/36 38/0/38
f 38/0/38 39/0/39 37/0/37
f 33/0/33 40/0/40 34/0/34
f 33/0/33 41/0/41 40/0/40
f 41/0/41 33/0/33 31/0/31
f 41/0/41 42/0/42 40/0/40
f 41/0/41 43/0/43 42/0/42
f 37/0/37 39/0/39 43/0/43
f 29/0/29 43/0/43 31/0/31
f 29/0/29 37/0/37 43/0/43
f 41/0/41 31/0/31 43/0/43
f 43/0/43 39/0/39 44/0/44
f 43/0/43 44/0/44 42/0/42
f 45/0/45 42/0/42 44/0/44
f 46/0/46 47/0/47 48/0/48
f 49/0/49 48/0/48 47/0/47
f 49/0/49 47/0/47 50/0/50
f 50/0/50 47/0/47 51/0/51
f 46/0/46 51/0/51 47/0/47
f 51/0/51 52/0/52 50/0/50
f 53/0/53 48/0/48 49/0/49
f 53/0/53 54/0/54 48/0/48
f 54/0/54 55/0/55 48/0/48
f 55/0/55 46/0/46 48/0/48
f 54/0/54 56/0/56 55/0/55
f 57/0/57 58/0/58 59/0/59
f 57/0/57 59/0/59 60/0/60
f 58/0/58 61/0/61 59/0/59
f 62/0/62 57/0/57 60/0/60
f 62/0/62 60/0/60 63/0/63
f 64/0/64 62/0/62 63/0/63
f 64/0/64 63/0/63 65/0/65
f 66/0/66 67/0/67 68/0/68
f 67/0/67 66/0/66 69/0/69
f 67/0/67 70/0/70 68/0/68
f 70/0/70 67/0/67 71/0/71
f 72/0/72 69/0/69 66/0/66
f 69/0/69 72/0/72 73/0/73
f 67/0/67 69/0/69 74/0/74
f 73/0/73 74/0/74 69/0/69
f 71/0/71 67/0/67 75/0/75
f 67/0/67 74/0/74 75/0/75
f 76/0/76 75/0/75 74/0/74
f 76/0/76 74/0/74 77/0/77
f 74/0/74 73/0/73 77/0/77
f 76/0/76 78/0/78 79/0/79
f 80/0/80 76/0/76 79/0/79
f 80/0/80 79/0/79 81/0/81
f 79/0/79 82/0/82 81/0/81
f 79/0/79 83/0/83 82/0/82
f 83/0/83 79/0/79 84/0/84
f 85/0/85 83/0/83 84/0/84
f 79/0/79 85/0/85 84/0/84
f 79/0/79 78/0/78 85/0/85
f 83/0/83 85/0/85 86/0/86
f 85/0/85 87/0/87 86/0/86
f 85/0/85 78/0/78 87/0/87
f 83/0/83 88/0/88 82/0/82
f 88/0/88 89/0/89 82/0/82
f 82/0/82 89/0/89 81/0/81
f 88/0/88 90/0/90 89/0/89
f 90/0/90 88/0/88 91/0/91
f 92/0/92 91/0/91 88/0/88
f 88/0/88 83/0/83 92/0/92
f 86/0/86 92/0/92 83/0/83
f 91/0/91 92/0/92 93/0/93
f 94/0/94 93/0/93 92/0/92
f 92/0/92 86/0/86 94/0/94
f 93/0/93 94/0/94 95/0/95
f 94/0/94 96/0/96 95/0/95
f 96/0/96 94/0/94 97/0/97
f 97/0/97 86/0/86 87/0/87
f 86/0/86 97/0/97 94/0/94
f 97/0/97 98/0/98 96/0/96
f 98/0/98 97/0/97 99/0/99
f 99/0/99 97/0/97 87/0/87
f 99/0/99 87/0/87 78/0/78
f 100/0/100 101/0/101 102/0/102
f 101/0/101 100/0/100 103/0/103
f 104/0/104 102/0/102 101/0/101
f 102/0/102 104/0/104 105/0/105
f 106/0/106 107/0/107 108/0/108
f 107/0/107 106/0/106 109/0/109
f 110/0/110 107/0/107 111/0/111
f 107/0/107 110/0/110 112/0/112
f 110/0/110 113/0/113 112/0/112
f 113/0/113 110/0/110 114/0/114
f 114/0/114 115/0/115 113/0/113
f 115/0/115 114/0/114 116/0/116
f 117/0/117 115/0/115 116/0/116
f 115/0/115 117/0/117 118/0/118
f 119/0/119 118/0/118 117/0/117
f 118/0/118 119/0/119 120/0/120
f 121/0/121 120/0/120 119/0/119
f 120/0/120 121/0/121 122/0/122
f 121/0/121 123/0/123 122/0/122
f 123/0/123 121/0/121 124/0/124
f 120/0/120 122/0/122 125/0/125
f 118/0/118 120/0/120 125/0/125
f 115/0/115 118/0/118 125/0/125
f 125/0/125 122/0/122 123/0/123
f 126/0/126 113/0/113 115/0/115
f 125/0/125 123/0/123 126/0/126
f 115/0/115 125/0/125 126/0/126
f 113/0/113 126/0/126 127/0/127
f 112/0/112 113/0/113 127/0/127
f 126/0/126 123/0/123 127/0/127
f 127/0/127 107/0/107 112/0/112
f 127/0/127 123/0/123 107/0/107
f 128/0/128 129/0/129 130/0/130
f 129/0/129 128/0/128 131/0/131
f 132/0/132 129/0/129 131/0/131
f 129/0/129 132/0/132 133/0/133
f 132/0/132 134/0/134 133/0/133
f 129/0/129 133/0/133 134/0/134
f 134/0/134 132/0/132 135/0/135
f 136/0/136 134/0/134 135/0/135
f 137/0/137 134/0/134 136/0/136
f 134/0/134 137/0/137 138/0/138
f 139/0/139 138/0/138 137/0/137
f 140/0/140 138/0/138 139/0/139
f 138/0/138 140/0/140 141/0/141
f 142/0/142 141/0/141 140/0/140
f 138/0/138 141/0/141 143/0/143
f 134/0/134 138/0/138 143/0/143
f 129/0/129 134/0/134 143/0/143
f 129/0/129 143/0/143 141/0/141
f 144/0/144 145/0/145 146/0/146
f 145/0/145 144/0/144 147/0/147
f 145/0/145 148/0/148 146/0/146
f 148/0/148 145/0/145 149/0/149
f 150/0/150 147/0/147 144/0/144
f 147/0/147 150/0/150 151/0/151
f 150/0/150 152/0/152 151/0/151
f 152/0/152 150/0/150 153/0/153
f 153/0/153 154/0/154 152/0/152
f 154/0/154 153/0/153 155/0/155
f 145/0/145 147/0/147 156/0/156
f 151/0/151 156/0/156 147/0/147
f 149/0/149 145/0/145 157/0/157
f 145/0/145 156/0/156 157/0/157
f 158/0/158 157/0/157 156/0/156
f 158/0/158 156/0/156 159/0/159
f 156/0/156 151/0/151 159/0/159
f 158/0/158 159/0/159 160/0/160
f 161/0/161 158/0/158 160/0/160
f 162/0/162 152/0/152 154/0/154
f 152/0/152 162/0/162 163/0/163
f 151/0/151 152/0/152 163/0/163
f 151/0/151 163/0/163 159/0/159
f 164/0/164 163/0/163 162/0/162
f 164/0/164 159/0/159 163/0/163
f 160/0/160 159/0/159 164/0/164
f 161/0/161 160/0/160 165/0/165
f 160/0/160 166/0/166 165/0/165
f 160/0/160 167/0/167 166/0/166
f 167/0/167 160/0/160 168/0/168
f 164/0/164 167/0/167 168/0/168
f 160/0/160 164/0/164 168/0/168
f 167/0/167 164/0/164 169/0/169
f 167/0/167 170/0/170 166/0/166
f 170/0/170 171/0/171 166/0/166
f 166/0/166 171/0/171 165/0/165
f 170/0/170 172/0/172 171/0/171
f 172/0/172 170/0/170 173/0/173
f 174/0/174 173/0/173 170/0/170
f 170/0/170 167/0/167 174/0/174
f 169/0/169 174/0/174 167/0/167
f 173/0/173 174/0/174 175/0/175
f 176/0/176 175/0/175 174/0/174
f 174/0/174 169/0/169 176/0/176
f 175/0/175 176/0/176 177/0/177
f 178/0/178 179/0/179 165/0/165
f 179/0/179 178/0/178 180/0/180
f 181/0/181 180/0/180 178/0/178
f 180/0/180 181/0/181 182/0/182
f 183/0/183 184/0/184 185/0/185
f 184/0/184 183/0/183 186/0/186
f 187/0/187 184/0/184 186/0/186
f 184/0/184 187/0/187 188/0/188
f 187/0/187 189/0/189 188/0/188
f 189/0/189 187/0/187 190/0/190
f 190/0/190 191/0/191 189/0/189
f 191/0/191 190/0/190 192/0/192
f 193/0/193 191/0/191 192/0/192
f 191/0/191 193/0/193 194/0/194
f 195/0/195 194/0/194 193/0/193
f 194/0/194 195/0/195 196/0/196
f 197/0/197 196/0/196 195/0/195
f 196/0/196 197/0/197 198/0/198
f 197/0/197 199/0/199 198/0/198
f 199/0/199 197/0/197 200/0/200
f 196/0/196 198/0/198 201/0/201
f 194/0/194 196/0/196 201/0/201
f 191/0/191 194/0/194 201/0/201
f 201/0/201 198/0/198 199/0/199
f 202/0/202 189/0/189 191/0/191
f 201/0/201 199/0/199 202/0/202
f 191/0/191 201/0/201 202/0/202
f 189/0/189 202/0/202 203/0/203
f 188/0/188 189/0/189 203/0/203
f 202/0/202 199/0/199 203/0/203
f 203/0/203 184/0/184 188/0/188
f 203/0/203 199/0/199 184/0/184
