# 
# Wavefront OBJ file
# Created with Kaydara FBX
# 
mtllib sword_r.mtl

g Sword_R
v -0.006936 -0.714356 -0.067919
v -0.006936 -0.439351 -0.072470
v -0.006936 -1.037219 -0.044508
v -0.006936 -1.218668 -0.011151
v -0.006936 -1.245382 0.006936
v -0.006936 -1.258005 0.025416
v -0.006936 -1.186628 -0.023780
v -0.006936 -0.868169 -0.060705
v -0.006936 -0.339481 -0.068944
v -0.006936 -0.573392 -0.071841
v -0.018772 -0.572707 -0.042162
v -0.018772 -0.714356 -0.039398
v -0.018772 -0.336963 -0.033190
v -0.018772 -0.439124 -0.041633
v -0.016853 -1.036703 -0.020769
v -0.018772 -0.868169 -0.035007
v -0.018772 -0.144276 -0.027118
v -0.018772 -0.232592 -0.026067
v -0.012364 -1.212158 0.013641
v -0.013237 -1.181944 -0.001117
v -0.019834 0.199949 0.012404
v -0.019834 -0.073212 -0.036304
v -0.019834 -0.079189 0.009735
v -0.019834 -0.438897 -0.004664
v -0.006936 -0.127719 -0.076283
v -0.019834 -0.241737 0.027781
v -0.015591 -1.034462 0.013043
v -0.019834 0.029703 0.025674
v -0.011074 -1.235400 0.035404
v -0.006936 -1.265142 0.040014
v -0.019834 0.168467 0.051198
v -0.019834 -0.714356 -0.004746
v -0.018240 -0.868169 0.001274
v -0.019834 -0.126118 0.020074
v -0.019834 -0.152268 0.036282
v -0.019834 -0.216427 0.014153
v -0.019834 -0.334618 0.019551
v -0.019834 -0.309070 0.002127
v -0.019834 -0.572022 -0.006352
v -0.019834 0.049277 -0.015568
v -0.019834 0.203796 0.031824
v 0.005962 0.199949 0.012403
v 0.005962 0.168467 0.051198
v 0.005962 -0.073212 -0.036305
v 0.005962 -0.079189 0.009735
v 0.005962 -0.438897 -0.004664
v 0.005962 -0.714356 -0.004746
v 0.004368 -0.868169 0.001273
v 0.005962 -0.126118 0.020074
v 0.005962 -0.152268 0.036282
v 0.005962 -0.216427 0.014153
v 0.005962 -0.241737 0.027781
v 0.005962 -0.334618 0.019551
v 0.005962 -0.309070 0.002127
v 0.005962 -0.572022 -0.006352
v 0.001719 -1.034462 0.013043
v 0.005962 0.029703 0.025674
v 0.005962 0.049277 -0.015568
v -0.002798 -1.235400 0.035404
v 0.005962 0.203796 0.031824
v -0.006936 -0.236101 -0.063309
v 0.004901 -0.572707 -0.042162
v 0.004901 -0.714356 -0.039398
v 0.004901 -0.336963 -0.033190
v 0.004901 -0.439124 -0.041633
v 0.002982 -1.036703 -0.020769
v 0.004901 -0.868169 -0.035008
v 0.004901 -0.144276 -0.027118
v 0.004901 -0.232592 -0.026068
v -0.001508 -1.212158 0.013641
v -0.000634 -1.181944 -0.001117
v -0.019834 -0.714356 -0.004746
v -0.019834 -0.572022 -0.006352
v -0.019834 -0.079189 0.009735
v -0.019834 0.029703 0.025674
v -0.019834 0.049277 -0.015568
v -0.019834 -0.073212 -0.036304
v -0.019834 -0.438897 -0.004664
v -0.019834 -0.334618 0.019551
v -0.015591 -1.034462 0.013043
v -0.018240 -0.868169 0.001274
v -0.019834 -0.126118 0.020074
v -0.006936 -0.127719 -0.076283
v -0.019834 -0.152268 0.036282
v -0.019834 -0.216427 0.014153
v 0.005962 -0.152268 0.036282
v -0.019834 -0.152268 0.036282
v -0.019834 -0.241737 0.027781
v 0.005962 -0.216427 0.014153
v -0.019834 -0.216427 0.014153
v -0.019834 -0.334618 0.019551
v 0.005962 -0.334618 0.019551
v -0.019834 -0.309070 0.002127
v -0.019834 -0.309070 0.002127
v 0.005962 -0.309070 0.002127
v 0.005962 -0.241737 0.027781
v -0.019834 -0.241737 0.027781
v -0.019834 0.199949 0.012404
v -0.019834 0.203796 0.031824
v 0.005962 0.199949 0.012403
v -0.019834 0.199949 0.012404
v -0.019834 0.168467 0.051198
v 0.005962 0.203796 0.031824
v -0.019834 0.203796 0.031824
v 0.005962 0.168467 0.051198
v -0.019834 0.168467 0.051198
v -0.011074 -1.235400 0.035404
v -0.006936 -1.265142 0.040014
v 0.005962 0.049277 -0.015568
v 0.005962 0.029703 0.025674
v 0.005962 -0.079189 0.009735
v 0.005962 -0.073212 -0.036305
v 0.004368 -0.868169 0.001273
v 0.001719 -1.034462 0.013043
v 0.005962 -0.714356 -0.004746
v 0.005962 -0.309070 0.002127
v 0.005962 -0.334618 0.019551
v -0.002798 -1.235400 0.035404
v 0.005962 0.203796 0.031824
v 0.005962 0.168467 0.051198
v 0.005962 0.199949 0.012403
v 0.005962 -0.572022 -0.006352
v 0.005962 -0.438897 -0.004664
v 0.005962 -0.126118 0.020074
v 0.005962 -0.152268 0.036282
v 0.005962 -0.216427 0.014153
v 0.005962 -0.241737 0.027781
vt 0.936773 0.700348
vt 0.936773 0.573098
vt 0.936773 0.845548
vt 0.940099 0.937804
vt 0.947835 0.950977
vt 0.959357 0.959852
vt 0.936773 0.923592
vt 0.936773 0.782202
vt 0.936901 0.526683
vt 0.936773 0.632923
vt 0.949965 0.632630
vt 0.949965 0.700591
vt 0.954746 0.524751
vt 0.950542 0.572394
vt 0.949965 0.845881
vt 0.949965 0.782462
vt 0.948295 0.435220
vt 0.954005 0.476044
vt 0.954631 0.937452
vt 0.949965 0.923479
vt 0.938233 0.220684
vt 0.938090 0.402941
vt 0.966662 0.402813
vt 0.967506 0.571591
vt 0.924639 0.430390
vt 0.976846 0.478673
vt 0.967273 0.846503
vt 0.962952 0.328150
vt 0.966860 0.950365
vt 0.966833 0.964515
vt 0.962590 0.232287
vt 0.967214 0.700897
vt 0.967527 0.782880
vt 0.969942 0.424617
vt 0.976419 0.436377
vt 0.972281 0.466736
vt 0.977057 0.524247
vt 0.971522 0.511194
vt 0.967252 0.632435
vt 0.938078 0.319737
vt 0.945546 0.220416
vt 0.916075 0.209398
vt 0.995727 0.227701
vt 0.915191 0.391928
vt 0.995719 0.397389
vt 0.995687 0.573255
vt 0.995690 0.701332
vt 0.994961 0.782733
vt 0.995713 0.418918
vt 0.995705 0.433028
vt 0.995699 0.464154
vt 0.995694 0.477337
vt 0.995688 0.524564
vt 0.995690 0.510382
vt 0.995687 0.633428
vt 0.994078 0.846145
vt 0.995724 0.323283
vt 0.915594 0.309038
vt 0.991203 0.949728
vt 0.995729 0.206236
vt 0.935514 0.479358
vt 0.949965 0.632630
vt 0.949965 0.700591
vt 0.954746 0.524751
vt 0.950542 0.572394
vt 0.949965 0.845881
vt 0.949965 0.782462
vt 0.948295 0.435220
vt 0.954005 0.476044
vt 0.954631 0.937452
vt 0.949965 0.923479
vt 0.983858 0.701332
vt 0.983856 0.633428
vt 0.983887 0.397389
vt 0.983892 0.323283
vt 0.927451 0.309095
vt 0.927049 0.391988
vt 0.983855 0.573255
vt 0.983856 0.524564
vt 0.986141 0.846145
vt 0.984593 0.782842
vt 0.983881 0.418918
vt 0.920969 0.421496
vt 0.983873 0.433028
vt 0.983867 0.464154
vt 0.995705 0.433028
vt 0.983873 0.433028
vt 0.983862 0.477337
vt 0.995699 0.464154
vt 0.983867 0.464154
vt 0.983856 0.524564
vt 0.995688 0.524564
vt 0.983858 0.510382
vt 0.983858 0.510382
vt 0.995690 0.510382
vt 0.995694 0.477337
vt 0.983862 0.477337
vt 0.927932 0.209455
vt 0.983898 0.206235
vt 0.995732 0.197818
vt 0.983900 0.197815
vt 0.983896 0.227701
vt 0.995729 0.206236
vt 0.983898 0.206235
vt 0.995727 0.227701
vt 0.983896 0.227701
vt 0.987409 0.949782
vt 0.989307 0.963752
vt 0.938078 0.319737
vt 0.962952 0.328150
vt 0.966662 0.402813
vt 0.938090 0.402941
vt 0.967527 0.782880
vt 0.967273 0.846503
vt 0.967214 0.700897
vt 0.971522 0.511194
vt 0.977057 0.524247
vt 0.966860 0.950365
vt 0.945546 0.220416
vt 0.962590 0.232287
vt 0.938233 0.220684
vt 0.967252 0.632435
vt 0.967506 0.571591
vt 0.969942 0.424617
vt 0.976419 0.436377
vt 0.972281 0.466736
vt 0.976846 0.478673
vn 0.000000 -0.030732 -0.999528
vn 0.000000 0.027797 -0.999614
vn 0.000000 -0.131129 -0.991365
vn 0.000001 -0.548499 -0.836151
vn 0.000002 -0.743733 -0.668476
vn 0.000006 -0.866695 -0.498839
vn 0.000000 -0.286506 -0.958079
vn 0.000000 -0.068956 -0.997620
vn 0.000000 0.060096 -0.998193
vn 0.000000 -0.012255 -0.999925
vn -0.978886 -0.002350 -0.204391
vn -0.978092 -0.007629 -0.208032
vn -0.984735 0.010105 -0.173766
vn -0.980858 0.006241 -0.194623
vn -0.984595 -0.032990 -0.171708
vn -0.978762 -0.019135 -0.204103
vn -0.990750 -0.016754 -0.134658
vn -0.988248 -0.000073 -0.152862
vn -0.994197 -0.076254 -0.075874
vn -0.989663 -0.054908 -0.132487
vn -1.000000 0.000000 0.000000
vn -0.998266 -0.013921 -0.057199
vn -0.999968 -0.005828 -0.005469
vn -0.999653 0.002134 -0.026271
vn 0.000002 -0.128523 -0.991707
vn -0.999721 -0.001798 -0.023571
vn -0.999412 -0.015236 0.030722
vn -1.000000 0.000000 0.000000
vn -0.990227 -0.114518 -0.079603
vn -0.000001 -0.898398 -0.439183
vn -1.000000 0.000000 0.000000
vn -0.999822 -0.002989 -0.018614
vn -0.999914 -0.008636 0.009838
vn -0.999840 -0.010959 -0.014125
vn -0.999802 -0.002715 -0.019710
vn -0.999771 -0.003306 -0.021135
vn -0.999753 -0.003743 -0.021915
vn -0.999736 -0.001870 -0.022881
vn -0.999561 -0.000106 -0.029642
vn -1.000000 0.000000 0.000000
vn -1.000000 0.000000 0.000000
vn -0.000006 0.182525 -0.983201
vn 0.000005 0.480846 0.876805
vn -0.000005 0.375693 -0.926744
vn 0.000006 0.035749 0.999361
vn 0.000006 -0.120134 0.992758
vn 0.000006 0.025149 0.999684
vn 0.000005 0.054727 0.998501
vn 0.000005 0.376352 0.926477
vn 0.000005 0.526822 0.849975
vn 0.000006 -0.326064 0.945348
vn 0.000005 0.474095 0.880474
vn 0.000006 -0.226199 0.974081
vn 0.000005 0.563434 0.826161
vn 0.000006 -0.000696 1.000000
vn 0.000002 0.090374 0.995908
vn 0.000006 -0.162896 0.986643
vn -0.000006 0.174728 -0.984617
vn 0.000000 0.130804 0.991408
vn -0.000001 0.980943 -0.194297
vn 0.000001 0.002339 -0.999997
vn 0.978887 -0.002350 -0.204390
vn 0.978093 -0.007629 -0.208031
vn 0.984735 0.010105 -0.173765
vn 0.980859 0.006241 -0.194622
vn 0.984596 -0.032990 -0.171706
vn 0.978763 -0.019135 -0.204101
vn 0.990751 -0.016753 -0.134657
vn 0.988248 -0.000073 -0.152860
vn 0.994198 -0.076253 -0.075870
vn 0.989663 -0.054908 -0.132484
vn 0.000006 0.025149 0.999684
vn 0.000006 -0.000696 1.000000
vn 0.000006 0.035749 0.999361
vn 0.000006 -0.162896 0.986643
vn -0.000006 0.174728 -0.984617
vn -0.000005 0.375692 -0.926744
vn 0.000006 -0.120134 0.992758
vn 0.000006 -0.226199 0.974081
vn 0.000002 0.090374 0.995908
vn 0.000005 0.054727 0.998501
vn 0.000005 0.376353 0.926476
vn -0.000005 0.591426 -0.806360
vn 0.000005 0.526822 0.849975
vn 0.000006 -0.326064 0.945348
vn 0.000006 -0.326064 0.945348
vn 0.000006 -0.326064 0.945348
vn 0.000005 0.474095 0.880474
vn 0.000005 0.474095 0.880474
vn 0.000005 0.474095 0.880474
vn 0.000005 0.563434 0.826161
vn 0.000005 0.563434 0.826161
vn 0.000005 0.563434 0.826161
vn 0.000005 -0.356037 0.934472
vn 0.000005 -0.356037 0.934472
vn 0.000005 -0.356037 0.934472
vn 0.000005 -0.356037 0.934472
vn -0.000006 0.182525 -0.983201
vn -0.000001 0.980943 -0.194297
vn -0.000001 0.980943 -0.194297
vn -0.000001 0.980943 -0.194297
vn 0.000005 0.480846 0.876805
vn 0.000005 0.480846 0.876805
vn 0.000005 0.480846 0.876805
vn 0.000006 -0.180907 0.983500
vn 0.000006 -0.180907 0.983500
vn 0.000000 0.130804 0.991408
vn 0.000000 0.153185 0.988198
vn 1.000000 -0.000000 0.000000
vn 1.000000 -0.000000 0.000000
vn 0.999968 -0.005828 -0.005469
vn 0.998266 -0.013920 -0.057198
vn 0.999914 -0.008636 0.009841
vn 0.999412 -0.015235 0.030727
vn 0.999822 -0.002989 -0.018611
vn 0.999737 -0.001869 -0.022878
vn 0.999753 -0.003743 -0.021912
vn 0.990227 -0.114516 -0.079597
vn 1.000000 0.000000 0.000000
vn 1.000000 0.000000 0.000000
vn 1.000000 0.000000 0.000000
vn 0.999561 -0.000106 -0.029639
vn 0.999653 0.002134 -0.026268
vn 0.999840 -0.010958 -0.014124
vn 0.999802 -0.002715 -0.019708
vn 0.999771 -0.003306 -0.021133
vn 0.999721 -0.001798 -0.023569
usemtl material
f 10/0/10 1/0/1 12/0/12
f 10/0/10 12/0/12 11/0/11
f 2/0/2 10/0/10 11/0/11
f 2/0/2 11/0/11 14/0/14
f 9/0/9 2/0/2 14/0/14
f 9/0/9 14/0/14 13/0/13
f 61/0/61 9/0/9 13/0/13
f 61/0/61 13/0/13 18/0/18
f 25/0/25 61/0/61 18/0/18
f 25/0/25 18/0/18 17/0/17
f 22/0/22 25/0/25 17/0/17
f 11/0/11 12/0/12 32/0/32
f 33/0/33 32/0/32 12/0/12
f 33/0/33 12/0/12 16/0/16
f 16/0/16 12/0/12 1/0/1
f 33/0/33 16/0/16 15/0/15
f 33/0/33 15/0/15 27/0/27
f 27/0/27 15/0/15 20/0/20
f 27/0/27 20/0/20 19/0/19
f 19/0/19 29/0/29 27/0/27
f 29/0/29 19/0/19 4/0/4
f 29/0/29 4/0/4 5/0/5
f 29/0/29 5/0/5 6/0/6
f 29/0/29 6/0/6 30/0/30
f 7/0/7 20/0/20 15/0/15
f 19/0/19 20/0/20 7/0/7
f 19/0/19 7/0/7 4/0/4
f 7/0/7 15/0/15 3/0/3
f 15/0/15 16/0/16 8/0/8
f 15/0/15 8/0/8 3/0/3
f 16/0/16 1/0/1 8/0/8
f 118/0/118 5/0/5 4/0/4
f 118/0/118 6/0/6 5/0/5
f 118/0/118 30/0/30 6/0/6
f 118/0/118 4/0/4 70/0/70
f 70/0/70 4/0/4 7/0/7
f 114/0/114 118/0/118 70/0/70
f 70/0/70 71/0/71 114/0/114
f 70/0/70 7/0/7 71/0/71
f 71/0/71 66/0/66 114/0/114
f 7/0/7 3/0/3 66/0/66
f 7/0/7 66/0/66 71/0/71
f 66/0/66 3/0/3 8/0/8
f 113/0/113 114/0/114 66/0/66
f 113/0/113 66/0/66 67/0/67
f 66/0/66 8/0/8 67/0/67
f 67/0/67 8/0/8 1/0/1
f 113/0/113 67/0/67 63/0/63
f 67/0/67 1/0/1 63/0/63
f 10/0/10 63/0/63 1/0/1
f 10/0/10 62/0/62 63/0/63
f 113/0/113 63/0/63 115/0/115
f 62/0/62 115/0/115 63/0/63
f 2/0/2 62/0/62 10/0/10
f 2/0/2 65/0/65 62/0/62
f 9/0/9 65/0/65 2/0/2
f 9/0/9 64/0/64 65/0/65
f 61/0/61 64/0/64 9/0/9
f 61/0/61 69/0/69 64/0/64
f 25/0/25 69/0/69 61/0/61
f 25/0/25 68/0/68 69/0/69
f 112/0/112 68/0/68 25/0/25
f 62/0/62 122/0/122 115/0/115
f 65/0/65 122/0/122 62/0/62
f 64/0/64 123/0/123 65/0/65
f 65/0/65 123/0/123 122/0/122
f 64/0/64 117/0/117 123/0/123
f 116/0/116 117/0/117 64/0/64
f 69/0/69 116/0/116 64/0/64
f 68/0/68 126/0/126 69/0/69
f 68/0/68 125/0/125 126/0/126
f 68/0/68 124/0/124 125/0/125
f 112/0/112 124/0/124 68/0/68
f 69/0/69 126/0/126 127/0/127
f 69/0/69 127/0/127 116/0/116
f 112/0/112 111/0/111 124/0/124
f 109/0/109 111/0/111 112/0/112
f 109/0/109 110/0/110 111/0/111
f 120/0/120 110/0/110 109/0/109
f 120/0/120 109/0/109 121/0/121
f 119/0/119 120/0/120 121/0/121
f 40/0/40 22/0/22 23/0/23
f 40/0/40 23/0/23 28/0/28
f 22/0/22 34/0/34 23/0/23
f 22/0/22 17/0/17 34/0/34
f 17/0/17 35/0/35 34/0/34
f 17/0/17 36/0/36 35/0/35
f 17/0/17 18/0/18 36/0/36
f 18/0/18 26/0/26 36/0/36
f 18/0/18 38/0/38 26/0/26
f 18/0/18 13/0/13 38/0/38
f 38/0/38 13/0/13 37/0/37
f 13/0/13 24/0/24 37/0/37
f 13/0/13 14/0/14 24/0/24
f 14/0/14 39/0/39 24/0/24
f 14/0/14 11/0/11 39/0/39
f 11/0/11 32/0/32 39/0/39
f 31/0/31 40/0/40 28/0/28
f 31/0/31 21/0/21 40/0/40
f 41/0/41 21/0/21 31/0/31
f 72/0/72 47/0/47 55/0/55
f 72/0/72 55/0/55 73/0/73
f 81/0/81 47/0/47 72/0/72
f 81/0/81 48/0/48 47/0/47
f 80/0/80 48/0/48 81/0/81
f 80/0/80 56/0/56 48/0/48
f 73/0/73 55/0/55 46/0/46
f 73/0/73 46/0/46 78/0/78
f 78/0/78 46/0/46 53/0/53
f 78/0/78 53/0/53 79/0/79
f 107/0/107 56/0/56 80/0/80
f 107/0/107 59/0/59 56/0/56
f 107/0/107 108/0/108 59/0/59
f 74/0/74 45/0/45 57/0/57
f 74/0/74 57/0/57 75/0/75
f 82/0/82 45/0/45 74/0/74
f 82/0/82 49/0/49 45/0/45
f 84/0/84 49/0/49 82/0/82
f 84/0/84 50/0/50 49/0/49
f 75/0/75 57/0/57 105/0/105
f 75/0/75 105/0/105 106/0/106
f 76/0/76 58/0/58 44/0/44
f 76/0/76 44/0/44 77/0/77
f 77/0/77 44/0/44 83/0/83
f 98/0/98 58/0/58 76/0/76
f 98/0/98 42/0/42 58/0/58
f 85/0/85 51/0/51 86/0/86
f 85/0/85 86/0/86 87/0/87
f 88/0/88 52/0/52 89/0/89
f 88/0/88 89/0/89 90/0/90
f 91/0/91 92/0/92 54/0/54
f 91/0/91 54/0/54 93/0/93
f 94/0/94 95/0/95 96/0/96
f 94/0/94 96/0/96 97/0/97
f 99/0/99 60/0/60 100/0/100
f 99/0/99 100/0/100 101/0/101
f 102/0/102 43/0/43 103/0/103
f 102/0/102 103/0/103 104/0/104
