# 
# Wavefront OBJ file
# Created with Kaydara FBX
# 
mtllib sword_l.mtl

g Sword_L
v 0.121786 0.086512 0.701890
v 0.070114 0.083646 0.431760
v 0.183728 0.071855 1.019281
v 0.219968 0.043470 1.197935
v 0.226235 0.026148 1.224421
v 0.229899 0.008056 1.237074
v 0.213092 0.055203 1.166295
v 0.151016 0.083458 0.853042
v 0.051716 0.077441 0.333732
v 0.095187 0.086628 0.563403
v 0.085561 0.056217 0.565370
v 0.112205 0.057274 0.704514
v 0.042177 0.040921 0.333983
v 0.060655 0.052092 0.434192
v 0.175592 0.047500 1.020970
v 0.141236 0.057036 0.855626
v 0.006627 0.029677 0.144841
v 0.023192 0.031006 0.231585
v 0.215187 0.018204 1.192908
v 0.207646 0.032051 1.163196
v -0.055892 -0.019081 -0.192455
v -0.008332 0.036855 0.075125
v -0.003960 -0.008904 0.081634
v 0.062187 0.015142 0.434683
v 0.011656 0.079059 0.125671
v 0.027668 -0.022527 0.241514
v 0.178803 0.013800 1.019002
v -0.023165 -0.027733 -0.025081
v 0.222330 -0.002791 1.215792
v 0.232264 -0.006311 1.244285
v -0.047270 -0.056927 -0.160999
v 0.113616 0.022640 0.705195
v 0.144324 0.020885 0.856030
v 0.005534 -0.017953 0.127864
v 0.011564 -0.033415 0.153770
v 0.021978 -0.009615 0.216469
v 0.044429 -0.011818 0.332613
v 0.038426 0.004873 0.307281
v 0.086925 0.020410 0.565394
v -0.029737 0.012874 -0.044877
v -0.055237 -0.038554 -0.195963
v -0.030615 -0.017356 -0.197308
v -0.021993 -0.055202 -0.165852
v 0.016945 0.038580 0.070271
v 0.021317 -0.007179 0.076781
v 0.087464 0.016868 0.429830
v 0.138893 0.024365 0.700341
v 0.166477 0.022396 0.851776
v 0.030811 -0.016228 0.123011
v 0.036841 -0.031689 0.148916
v 0.047255 -0.007890 0.211615
v 0.052945 -0.020802 0.236660
v 0.069706 -0.010092 0.327760
v 0.063703 0.006598 0.302428
v 0.112202 0.022135 0.560541
v 0.195764 0.014957 1.015745
v 0.002112 -0.026008 -0.029934
v -0.004460 0.014599 -0.049731
v 0.230439 -0.002237 1.214235
v -0.029960 -0.036829 -0.200816
v 0.032811 0.069037 0.232287
v 0.108757 0.057800 0.560916
v 0.135401 0.058857 0.700060
v 0.065373 0.042504 0.329529
v 0.083851 0.053675 0.429739
v 0.195028 0.048827 1.017238
v 0.164432 0.058619 0.851172
v 0.029823 0.031260 0.140387
v 0.046388 0.032590 0.227131
v 0.225824 0.018930 1.190866
v 0.219995 0.032894 1.160825
v 0.113616 0.022640 0.705195
v 0.086925 0.020410 0.565394
v -0.003960 -0.008904 0.081634
v -0.023165 -0.027733 -0.025081
v -0.029737 0.012874 -0.044877
v -0.008332 0.036855 0.075125
v 0.062187 0.015142 0.434683
v 0.044429 -0.011818 0.332613
v 0.178803 0.013800 1.019002
v 0.144324 0.020885 0.856030
v 0.005534 -0.017953 0.127864
v 0.011656 0.079059 0.125671
v 0.011564 -0.033415 0.153770
v 0.021978 -0.009615 0.216469
v 0.011564 -0.033415 0.153770
v 0.036841 -0.031689 0.148916
v 0.027668 -0.022527 0.241514
v 0.021978 -0.009615 0.216469
v 0.047255 -0.007890 0.211615
v 0.044429 -0.011818 0.332613
v 0.038426 0.004873 0.307281
v 0.069706 -0.010092 0.327760
v 0.038426 0.004873 0.307281
v 0.027668 -0.022527 0.241514
v 0.052945 -0.020802 0.236660
v 0.063703 0.006598 0.302428
v -0.055892 -0.019081 -0.192455
v -0.055237 -0.038554 -0.195963
v -0.055892 -0.019081 -0.192455
v -0.030615 -0.017356 -0.197308
v -0.047270 -0.056927 -0.160999
v -0.055237 -0.038554 -0.195963
v -0.029960 -0.036829 -0.200816
v -0.047270 -0.056927 -0.160999
v -0.021993 -0.055202 -0.165852
v 0.222330 -0.002791 1.215792
v 0.232264 -0.006311 1.244285
v -0.004460 0.014599 -0.049731
v 0.016945 0.038580 0.070271
v 0.021317 -0.007179 0.076781
v 0.002112 -0.026008 -0.029934
v 0.166477 0.022396 0.851776
v 0.195764 0.014957 1.015745
v 0.138893 0.024365 0.700341
v 0.063703 0.006598 0.302428
v 0.069706 -0.010092 0.327760
v 0.230439 -0.002237 1.214235
v -0.029960 -0.036829 -0.200816
v -0.030615 -0.017356 -0.197308
v -0.021993 -0.055202 -0.165852
v 0.112202 0.022135 0.560541
v 0.087464 0.016868 0.429830
v 0.036841 -0.031689 0.148916
v 0.030811 -0.016228 0.123011
v 0.047255 -0.007890 0.211615
v 0.052945 -0.020802 0.236660
vt 0.936773 0.700348
vt 0.936773 0.573098
vt 0.936773 0.845548
vt 0.940099 0.937804
vt 0.947835 0.950977
vt 0.959357 0.959852
vt 0.936773 0.923592
vt 0.936773 0.782202
vt 0.936901 0.526683
vt 0.936773 0.632923
vt 0.949965 0.632630
vt 0.949965 0.700591
vt 0.954746 0.524751
vt 0.950542 0.572394
vt 0.949965 0.845881
vt 0.949965 0.782462
vt 0.948295 0.435220
vt 0.954005 0.476044
vt 0.954631 0.937452
vt 0.949965 0.923479
vt 0.938233 0.220684
vt 0.938090 0.402941
vt 0.966662 0.402813
vt 0.967506 0.571591
vt 0.924639 0.430390
vt 0.976846 0.478673
vt 0.967273 0.846503
vt 0.962952 0.328150
vt 0.966860 0.950365
vt 0.966833 0.964515
vt 0.962590 0.232287
vt 0.967214 0.700897
vt 0.967527 0.782880
vt 0.969942 0.424617
vt 0.976419 0.436377
vt 0.972281 0.466736
vt 0.977057 0.524247
vt 0.971522 0.511194
vt 0.967252 0.632435
vt 0.938078 0.319737
vt 0.945546 0.220416
vt 0.916075 0.209398
vt 0.995727 0.227701
vt 0.915191 0.391928
vt 0.995719 0.397389
vt 0.995687 0.573255
vt 0.995690 0.701332
vt 0.994961 0.782733
vt 0.995713 0.418918
vt 0.995705 0.433028
vt 0.995699 0.464154
vt 0.995694 0.477337
vt 0.995688 0.524564
vt 0.995690 0.510382
vt 0.995687 0.633428
vt 0.994078 0.846145
vt 0.995724 0.323283
vt 0.915594 0.309038
vt 0.991203 0.949728
vt 0.995729 0.206236
vt 0.935514 0.479358
vt 0.949965 0.632630
vt 0.949965 0.700591
vt 0.954746 0.524751
vt 0.950542 0.572394
vt 0.949965 0.845881
vt 0.949965 0.782462
vt 0.948295 0.435220
vt 0.954005 0.476044
vt 0.954631 0.937452
vt 0.949965 0.923479
vt 0.983858 0.701332
vt 0.983856 0.633428
vt 0.983887 0.397389
vt 0.983892 0.323283
vt 0.927451 0.309095
vt 0.927049 0.391988
vt 0.983855 0.573255
vt 0.983856 0.524564
vt 0.986141 0.846145
vt 0.984593 0.782842
vt 0.983881 0.418918
vt 0.920969 0.421496
vt 0.983873 0.433028
vt 0.983867 0.464154
vt 0.983873 0.433028
vt 0.995705 0.433028
vt 0.983862 0.477337
vt 0.983867 0.464154
vt 0.995699 0.464154
vt 0.983856 0.524564
vt 0.983858 0.510382
vt 0.995688 0.524564
vt 0.983858 0.510382
vt 0.983862 0.477337
vt 0.995694 0.477337
vt 0.995690 0.510382
vt 0.927932 0.209455
vt 0.983898 0.206235
vt 0.983900 0.197815
vt 0.995732 0.197818
vt 0.983896 0.227701
vt 0.983898 0.206235
vt 0.995729 0.206236
vt 0.983896 0.227701
vt 0.995727 0.227701
vt 0.987409 0.949782
vt 0.989307 0.963752
vt 0.938078 0.319737
vt 0.938090 0.402941
vt 0.966662 0.402813
vt 0.962952 0.328150
vt 0.967527 0.782880
vt 0.967273 0.846503
vt 0.967214 0.700897
vt 0.971522 0.511194
vt 0.977057 0.524247
vt 0.966860 0.950365
vt 0.945546 0.220416
vt 0.938233 0.220684
vt 0.962590 0.232287
vt 0.967252 0.632435
vt 0.967506 0.571591
vt 0.976419 0.436377
vt 0.969942 0.424617
vt 0.972281 0.466736
vt 0.976846 0.478673
vn -0.064963 0.997755 0.016291
vn -0.075898 0.996265 -0.041188
vn -0.045640 0.992317 0.114999
vn 0.043272 0.848744 0.527031
vn 0.091588 0.686761 0.721091
vn 0.126553 0.520876 0.844199
vn -0.014273 0.963300 0.268048
vn -0.057691 0.996881 0.053855
vn -0.081828 0.993978 -0.072888
vn -0.068441 0.997653 -0.001860
vn -0.973193 0.138464 0.183636
vn -0.971687 0.142291 0.188620
vn -0.979084 0.107193 0.172931
vn -0.976039 0.128359 0.175706
vn -0.970754 0.106310 0.215254
vn -0.969917 0.138637 0.200100
vn -0.977196 0.068507 0.200983
vn -0.979146 0.086382 0.183877
vn -0.965306 0.011247 0.260879
vn -0.968853 0.067441 0.238277
vn -0.979863 -0.066871 0.188141
vn -0.979610 -0.009330 0.200691
vn -0.979130 -0.061257 0.193783
vn -0.981779 -0.040702 0.185614
vn -0.046148 0.992587 0.112435
vn -0.980921 -0.043293 0.189527
vn -0.974269 -0.097063 0.203419
vn -0.979863 -0.066871 0.188141
vn -0.954534 0.016262 0.297658
vn 0.136684 0.462231 0.876162
vn -0.979863 -0.066871 0.188141
vn -0.980447 -0.048212 0.190784
vn -0.977470 -0.076444 0.196743
vn -0.978659 -0.052477 0.198677
vn -0.980556 -0.047125 0.190496
vn -0.980516 -0.045686 0.191051
vn -0.980472 -0.044895 0.191466
vn -0.980874 -0.043981 0.189609
vn -0.981509 -0.037273 0.187751
vn -0.979863 -0.066871 0.188141
vn -0.979863 -0.066871 0.188141
vn -0.103634 0.975729 -0.192909
vn -0.027759 -0.887470 -0.460029
vn -0.135710 0.914218 -0.381823
vn 0.064020 -0.997723 -0.021222
vn 0.092660 -0.986940 0.131771
vn 0.066023 -0.997760 -0.010807
vn 0.060415 -0.997377 -0.039870
vn -0.004734 -0.934199 -0.356721
vn -0.038242 -0.861948 -0.505553
vn 0.127759 -0.934109 0.333345
vn -0.026239 -0.890947 -0.453348
vn 0.111144 -0.965456 0.235672
vn -0.046763 -0.839182 -0.541837
vn 0.070871 -0.997379 0.014578
vn 0.053573 -0.995750 -0.074913
vn 0.100212 -0.979690 0.173680
vn -0.102279 0.977350 -0.185271
vn 0.045703 -0.992351 -0.114679
vn -0.196910 0.167378 -0.966029
vn -0.071171 0.997333 -0.016192
vn 0.945156 0.269380 -0.184701
vn 0.945106 0.273100 -0.179418
vn 0.950727 0.238890 -0.197607
vn 0.946175 0.259538 -0.193373
vn 0.958783 0.237988 -0.155231
vn 0.948189 0.269536 -0.168191
vn 0.964403 0.201010 -0.171819
vn 0.957548 0.218549 -0.187982
vn 0.983049 0.144208 -0.113219
vn 0.970615 0.199797 -0.134115
vn 0.066023 -0.997760 -0.010808
vn 0.070871 -0.997379 0.014578
vn 0.064020 -0.997723 -0.021222
vn 0.100212 -0.979690 0.173680
vn -0.102279 0.977350 -0.185271
vn -0.135710 0.914218 -0.381823
vn 0.092660 -0.986940 0.131771
vn 0.111144 -0.965456 0.235672
vn 0.053573 -0.995750 -0.074913
vn 0.060415 -0.997377 -0.039870
vn -0.004734 -0.934199 -0.356722
vn -0.167477 0.788338 -0.592010
vn -0.038242 -0.861948 -0.505553
vn 0.127759 -0.934109 0.333345
vn 0.127759 -0.934109 0.333345
vn 0.127759 -0.934109 0.333345
vn -0.026239 -0.890947 -0.453348
vn -0.026239 -0.890947 -0.453348
vn -0.026239 -0.890947 -0.453348
vn -0.046763 -0.839182 -0.541837
vn -0.046763 -0.839182 -0.541837
vn -0.046763 -0.839182 -0.541837
vn 0.132586 -0.922454 0.362628
vn 0.132586 -0.922454 0.362628
vn 0.132586 -0.922454 0.362628
vn 0.132586 -0.922454 0.362628
vn -0.103634 0.975729 -0.192909
vn -0.196910 0.167378 -0.966029
vn -0.196910 0.167378 -0.966029
vn -0.196910 0.167378 -0.966029
vn -0.027759 -0.887470 -0.460029
vn -0.027759 -0.887470 -0.460029
vn -0.027759 -0.887470 -0.460029
vn 0.103353 -0.976070 0.191324
vn 0.103353 -0.976070 0.191324
vn 0.045703 -0.992351 -0.114679
vn 0.041297 -0.989751 -0.136703
vn 0.979863 0.066871 -0.188141
vn 0.976717 0.124179 -0.174940
vn 0.980533 0.072480 -0.182488
vn 0.979863 0.066871 -0.188141
vn 0.982087 0.057282 -0.179507
vn 0.984305 0.036595 -0.172642
vn 0.978930 0.085502 -0.185431
vn 0.978335 0.089722 -0.186574
vn 0.978770 0.088810 -0.184724
vn 0.986040 0.148690 -0.074949
vn 0.979863 0.066871 -0.188141
vn 0.979863 0.066871 -0.188141
vn 0.979863 0.066871 -0.188141
vn 0.977356 0.096406 -0.188366
vn 0.977266 0.092990 -0.190537
vn 0.978782 0.086587 -0.185712
vn 0.980753 0.081242 -0.177546
vn 0.978761 0.088022 -0.185145
vn 0.978258 0.090408 -0.186650
usemtl material
f 10/0/10 11/0/11 12/0/12
f 10/0/10 12/0/12 1/0/1
f 2/0/2 11/0/11 10/0/10
f 2/0/2 14/0/14 11/0/11
f 9/0/9 14/0/14 2/0/2
f 9/0/9 13/0/13 14/0/14
f 61/0/61 13/0/13 9/0/9
f 61/0/61 18/0/18 13/0/13
f 25/0/25 18/0/18 61/0/61
f 25/0/25 17/0/17 18/0/18
f 22/0/22 17/0/17 25/0/25
f 11/0/11 32/0/32 12/0/12
f 33/0/33 12/0/12 32/0/32
f 33/0/33 16/0/16 12/0/12
f 16/0/16 1/0/1 12/0/12
f 33/0/33 15/0/15 16/0/16
f 33/0/33 27/0/27 15/0/15
f 19/0/19 15/0/15 27/0/27
f 27/0/27 29/0/29 19/0/19
f 19/0/19 20/0/20 15/0/15
f 29/0/29 4/0/4 19/0/19
f 29/0/29 5/0/5 4/0/4
f 29/0/29 6/0/6 5/0/5
f 29/0/29 30/0/30 6/0/6
f 7/0/7 15/0/15 20/0/20
f 19/0/19 4/0/4 7/0/7
f 19/0/19 7/0/7 20/0/20
f 7/0/7 3/0/3 15/0/15
f 15/0/15 3/0/3 8/0/8
f 15/0/15 8/0/8 16/0/16
f 16/0/16 8/0/8 1/0/1
f 118/0/118 4/0/4 5/0/5
f 118/0/118 5/0/5 6/0/6
f 118/0/118 6/0/6 30/0/30
f 118/0/118 70/0/70 4/0/4
f 70/0/70 7/0/7 4/0/4
f 70/0/70 118/0/118 114/0/114
f 114/0/114 66/0/66 70/0/70
f 7/0/7 66/0/66 3/0/3
f 66/0/66 8/0/8 3/0/3
f 113/0/113 66/0/66 114/0/114
f 113/0/113 67/0/67 66/0/66
f 66/0/66 67/0/67 8/0/8
f 67/0/67 1/0/1 8/0/8
f 113/0/113 63/0/63 67/0/67
f 67/0/67 63/0/63 1/0/1
f 10/0/10 1/0/1 63/0/63
f 10/0/10 63/0/63 62/0/62
f 113/0/113 115/0/115 63/0/63
f 62/0/62 63/0/63 115/0/115
f 2/0/2 10/0/10 62/0/62
f 2/0/2 62/0/62 65/0/65
f 9/0/9 2/0/2 65/0/65
f 9/0/9 65/0/65 64/0/64
f 61/0/61 9/0/9 64/0/64
f 61/0/61 64/0/64 69/0/69
f 25/0/25 61/0/61 69/0/69
f 25/0/25 69/0/69 68/0/68
f 110/0/110 25/0/25 68/0/68
f 62/0/62 115/0/115 122/0/122
f 65/0/65 62/0/62 122/0/122
f 64/0/64 65/0/65 123/0/123
f 65/0/65 122/0/122 123/0/123
f 64/0/64 123/0/123 117/0/117
f 116/0/116 64/0/64 117/0/117
f 69/0/69 64/0/64 116/0/116
f 68/0/68 69/0/69 126/0/126
f 68/0/68 126/0/126 124/0/124
f 68/0/68 124/0/124 125/0/125
f 110/0/110 68/0/68 125/0/125
f 69/0/69 127/0/127 126/0/126
f 69/0/69 116/0/116 127/0/127
f 110/0/110 125/0/125 111/0/111
f 109/0/109 110/0/110 111/0/111
f 109/0/109 111/0/111 112/0/112
f 121/0/121 109/0/109 112/0/112
f 121/0/121 120/0/120 109/0/109
f 119/0/119 120/0/120 121/0/121
f 40/0/40 28/0/28 23/0/23
f 40/0/40 23/0/23 22/0/22
f 22/0/22 23/0/23 34/0/34
f 22/0/22 34/0/34 17/0/17
f 17/0/17 34/0/34 35/0/35
f 17/0/17 35/0/35 36/0/36
f 17/0/17 36/0/36 18/0/18
f 18/0/18 36/0/36 26/0/26
f 18/0/18 26/0/26 38/0/38
f 18/0/18 38/0/38 13/0/13
f 38/0/38 37/0/37 13/0/13
f 13/0/13 37/0/37 24/0/24
f 13/0/13 24/0/24 14/0/14
f 14/0/14 24/0/24 39/0/39
f 14/0/14 39/0/39 11/0/11
f 11/0/11 39/0/39 32/0/32
f 41/0/41 31/0/31 21/0/21
f 31/0/31 40/0/40 21/0/21
f 31/0/31 28/0/28 40/0/40
f 72/0/72 73/0/73 55/0/55
f 72/0/72 55/0/55 47/0/47
f 81/0/81 72/0/72 47/0/47
f 81/0/81 47/0/47 48/0/48
f 80/0/80 81/0/81 48/0/48
f 80/0/80 48/0/48 56/0/56
f 73/0/73 46/0/46 55/0/55
f 73/0/73 78/0/78 46/0/46
f 78/0/78 53/0/53 46/0/46
f 78/0/78 79/0/79 53/0/53
f 107/0/107 80/0/80 56/0/56
f 107/0/107 56/0/56 59/0/59
f 107/0/107 59/0/59 108/0/108
f 74/0/74 75/0/75 57/0/57
f 74/0/74 57/0/57 45/0/45
f 82/0/82 74/0/74 45/0/45
f 82/0/82 45/0/45 49/0/49
f 84/0/84 82/0/82 49/0/49
f 84/0/84 49/0/49 50/0/50
f 75/0/75 106/0/106 57/0/57
f 75/0/75 105/0/105 106/0/106
f 76/0/76 77/0/77 44/0/44
f 76/0/76 44/0/44 58/0/58
f 77/0/77 83/0/83 44/0/44
f 98/0/98 76/0/76 58/0/58
f 98/0/98 58/0/58 42/0/42
f 85/0/85 86/0/86 87/0/87
f 85/0/85 87/0/87 51/0/51
f 88/0/88 89/0/89 90/0/90
f 88/0/88 90/0/90 52/0/52
f 91/0/91 92/0/92 54/0/54
f 91/0/91 54/0/54 93/0/93
f 94/0/94 95/0/95 96/0/96
f 94/0/94 96/0/96 97/0/97
f 99/0/99 100/0/100 101/0/101
f 99/0/99 101/0/101 60/0/60
f 102/0/102 103/0/103 104/0/104
f 102/0/102 104/0/104 43/0/43
f 66/0/66 71/0/71 70/0/70
f 7/0/7 71/0/71 66/0/66
f 70/0/70 71/0/71 7/0/7
