# 
# Wavefront OBJ file
# Created with Kaydara FBX
# 
mtllib the_m #221902.mtl

g The_M
v -0.018319 1.315042 0.037413
v -0.011380 1.311888 0.040069
v -0.011092 1.315315 0.043212
v -0.017006 1.319278 0.039886
v -0.010942 1.319771 0.044466
v -0.015243 1.320116 0.042020
v -0.005451 1.310136 0.042367
v -0.005500 1.313212 0.046096
v -0.005477 1.319639 0.047312
v 0.000000 1.319319 0.048333
v -0.000000 1.312547 0.047135
v -0.005482 1.325021 0.051055
v -0.010966 1.322927 0.046809
v -0.005490 1.329303 0.052223
v -0.000000 1.324690 0.052482
v -0.000000 1.328383 0.054440
v -0.010987 1.327933 0.048470
v -0.017503 1.325334 0.043832
v 0.000000 1.309286 0.043532
v 0.005333 1.329303 0.052223
v -0.000000 1.324690 0.052482
v 0.005482 1.325021 0.051055
v 0.010966 1.322927 0.046809
v 0.010942 1.319771 0.044466
v 0.005477 1.319639 0.047312
v 0.010987 1.327933 0.048470
v 0.005500 1.313212 0.046096
v 0.000000 1.319319 0.048333
v -0.000000 1.312547 0.047135
v 0.011092 1.315315 0.043212
v 0.017006 1.319278 0.039886
v 0.018319 1.315042 0.037413
v 0.011380 1.311888 0.040069
v 0.015243 1.320116 0.042020
v 0.005451 1.310136 0.042367
v 0.017503 1.325334 0.043832
v 0.000000 1.309286 0.043532
vt 1.017037 0.284464
vt 0.827072 0.113123
vt 0.802950 0.322040
vt 0.978592 0.506908
vt 0.811242 0.538471
vt 0.933362 0.553501
vt 0.665000 0.015428
vt 0.649169 0.237872
vt 0.663492 0.545986
vt 0.502927 0.524944
vt 0.502927 0.204806
vt 0.647661 0.807507
vt 0.798427 0.684261
vt 0.651431 1.001393
vt 0.502927 0.789471
vt 0.502927 0.951794
vt 0.791642 0.936765
vt 0.963515 0.860112
vt 0.502927 -0.014632
vt 0.353669 1.001393
vt 0.502927 0.789471
vt 0.358192 0.807507
vt 0.207427 0.684261
vt 0.194612 0.538471
vt 0.341608 0.545986
vt 0.213457 0.936765
vt 0.355931 0.237872
vt 0.502927 0.524944
vt 0.502927 0.204806
vt 0.202150 0.322040
vt 0.026508 0.506908
vt -0.011937 0.284464
vt 0.178028 0.113123
vt 0.071738 0.553501
vt 0.340100 0.015428
vt 0.041585 0.860112
vt 0.502927 -0.014632
vn -0.376094 -0.179101 0.909107
vn -0.333171 -0.346000 0.877087
vn -0.344796 -0.250339 0.904680
vn -0.357302 -0.175854 0.917285
vn -0.306825 -0.252670 0.917614
vn -0.340120 -0.181758 0.922650
vn -0.294297 -0.296083 0.908694
vn -0.256316 -0.317873 0.912830
vn -0.317603 -0.254477 0.913439
vn 0.000000 -0.268540 0.963269
vn 0.000000 -0.340538 0.940231
vn -0.326714 -0.194746 0.924842
vn -0.315646 -0.200125 0.927533
vn -0.431566 -0.095521 0.897010
vn 0.000001 -0.332426 0.943129
vn 0.000001 -0.132374 0.991200
vn -0.412652 -0.120871 0.902833
vn -0.357087 -0.156635 0.920844
vn 0.000000 -0.330172 0.943921
vn 0.462446 0.033406 0.886018
vn 0.000001 -0.332426 0.943129
vn 0.239553 -0.101778 0.965534
vn 0.221613 -0.205661 0.953201
vn 0.343019 -0.172323 0.923387
vn 0.324303 -0.157736 0.932709
vn 0.276131 -0.208281 0.938281
vn 0.268335 -0.211454 0.939832
vn 0.000000 -0.268540 0.963269
vn 0.000000 -0.340538 0.940231
vn 0.384335 -0.176742 0.906117
vn 0.238391 -0.185581 0.953273
vn 0.296591 -0.144891 0.943949
vn 0.343494 -0.253621 0.904261
vn 0.285560 -0.154916 0.945757
vn 0.322042 -0.196405 0.926129
vn 0.268653 -0.152819 0.951037
vn 0.000000 -0.330172 0.943921
usemtl material
f 1/0/1 2/0/2 3/0/3
f 1/0/1 3/0/3 4/0/4
f 5/0/5 4/0/4 3/0/3
f 5/0/5 6/0/6 4/0/4
f 7/0/7 3/0/3 2/0/2
f 7/0/7 8/0/8 3/0/3
f 5/0/5 3/0/3 8/0/8
f 5/0/5 8/0/8 9/0/9
f 10/0/10 9/0/9 8/0/8
f 10/0/10 8/0/8 11/0/11
f 5/0/5 9/0/9 12/0/12
f 10/0/10 12/0/12 9/0/9
f 5/0/5 12/0/12 13/0/13
f 13/0/13 6/0/6 5/0/5
f 13/0/13 12/0/12 14/0/14
f 14/0/14 12/0/12 15/0/15
f 10/0/10 15/0/15 12/0/12
f 14/0/14 15/0/15 16/0/16
f 13/0/13 14/0/14 17/0/17
f 18/0/18 6/0/6 13/0/13
f 18/0/18 13/0/13 17/0/17
f 19/0/19 11/0/11 8/0/8
f 19/0/19 8/0/8 7/0/7
f 20/0/20 16/0/16 21/0/21
f 20/0/20 21/0/21 22/0/22
f 23/0/23 20/0/20 22/0/22
f 24/0/24 23/0/23 22/0/22
f 24/0/24 22/0/22 25/0/25
f 23/0/23 26/0/26 20/0/20
f 24/0/24 25/0/25 27/0/27
f 28/0/28 27/0/27 25/0/25
f 28/0/28 25/0/25 22/0/22
f 28/0/28 22/0/22 21/0/21
f 28/0/28 29/0/29 27/0/27
f 24/0/24 27/0/27 30/0/30
f 24/0/24 30/0/30 31/0/31
f 32/0/32 31/0/31 30/0/30
f 32/0/32 30/0/30 33/0/33
f 24/0/24 31/0/31 34/0/34
f 23/0/23 24/0/24 34/0/34
f 35/0/35 33/0/33 30/0/30
f 35/0/35 30/0/30 27/0/27
f 36/0/36 26/0/26 23/0/23
f 36/0/36 23/0/23 34/0/34
f 37/0/37 35/0/35 27/0/27
f 37/0/37 27/0/27 29/0/29
