# 
# Wavefront OBJ file
# Created with Kaydara FBX
# 
mtllib the_l_q2.mtl

g The_L_q2
v -0.067166 1.414292 0.024707
v -0.079416 1.412846 0.011444
v -0.076603 1.397190 0.011396
v -0.065308 1.399058 0.023430
v -0.063465 1.388245 0.021789
v -0.071588 1.384610 0.012578
v -0.054682 1.414337 0.032733
v -0.052732 1.400427 0.030370
v -0.051266 1.389594 0.028709
v -0.070329 1.371728 0.011487
v -0.061451 1.373242 0.022138
v -0.050167 1.374043 0.028041
v -0.084057 1.396713 -0.001043
v -0.079358 1.382546 0.002843
v -0.087080 1.412995 -0.003894
v -0.038491 1.414276 0.040709
v -0.039278 1.443206 0.040491
v -0.055400 1.441658 0.030983
v -0.021583 1.444188 0.047134
v -0.020948 1.413708 0.048281
v -0.037099 1.398472 0.037722
v -0.019658 1.397412 0.047288
v -0.028558 1.388467 0.036734
v -0.008206 1.397029 0.051719
v -0.008726 1.413606 0.052988
v -0.007670 1.384538 0.047177
v -0.016542 1.385065 0.043424
v -0.025645 1.378001 0.034380
v -0.037924 1.388380 0.031976
v -0.037955 1.373390 0.030028
v -0.040422 1.355175 0.029249
v -0.048668 1.354615 0.026404
v -0.047340 1.346382 0.028404
v -0.057567 1.346409 0.022097
v -0.058185 1.356952 0.022397
v -0.038569 1.347342 0.031863
v -0.031656 1.358579 0.030979
v -0.027990 1.349354 0.034117
v -0.018152 1.352214 0.037368
v -0.020992 1.360048 0.033870
v -0.011732 1.363436 0.039354
v -0.010468 1.355462 0.041581
v -0.066263 1.346746 0.012647
v -0.066907 1.360484 0.012644
v -0.027516 1.364216 0.031795
v -0.024988 1.371818 0.033594
v -0.013852 1.374289 0.038780
v -0.074359 1.359243 0.001470
v -0.071182 1.347134 0.000607
v -0.076432 1.371490 0.003272
v -0.068925 1.439491 0.022155
v -0.080063 1.435891 0.010941
v -0.079416 1.412846 0.011444
v -0.080063 1.435891 0.010941
v -0.087959 1.433642 -0.005950
v -0.009061 1.444174 0.051166
vt 0.680864 0.730139
vt 0.814171 0.722060
vt 0.789933 0.551318
vt 0.677093 0.580134
vt 0.672515 0.455714
vt 0.760040 0.415587
vt 0.570717 0.726638
vt 0.547287 0.588752
vt 0.541093 0.475643
vt 0.746574 0.284165
vt 0.650970 0.300324
vt 0.529243 0.308941
vt 0.894694 0.527081
vt 0.844064 0.393504
vt 0.925664 0.642075
vt 0.389473 0.730677
vt 0.409940 0.980595
vt 0.589030 0.953395
vt 0.238391 0.991367
vt 0.217654 0.725022
vt 0.374122 0.565592
vt 0.200418 0.537853
vt 0.296292 0.451944
vt 0.076806 0.533544
vt 0.068727 0.712634
vt 0.071151 0.398621
vt 0.166755 0.412625
vt 0.264783 0.355532
vt 0.397282 0.462716
vt 0.397552 0.301939
vt 0.424213 0.106691
vt 0.513085 0.100767
vt 0.468110 0.035056
vt 0.567754 0.027784
vt 0.615691 0.125812
vt 0.374661 0.045289
vt 0.329686 0.148165
vt 0.279864 0.070065
vt 0.190723 0.080030
vt 0.214692 0.159206
vt 0.118818 0.184791
vt 0.110739 0.106691
vt 0.673592 0.025360
vt 0.698368 0.163785
vt 0.284981 0.208759
vt 0.257781 0.290090
vt 0.137670 0.304632
vt 0.793703 0.141432
vt 0.763558 -0.003673
vt 0.812286 0.276625
vt 0.719644 0.935621
vt 0.860761 0.889838
vt 0.814171 0.722060
vt 0.860761 0.889838
vt 0.961213 0.785616
vt 0.072228 0.997831
vn -0.679460 -0.088950 0.728301
vn -0.824109 -0.081067 0.560600
vn -0.784835 -0.195016 0.588220
vn -0.642059 -0.215915 0.735623
vn -0.619139 -0.219185 0.754072
vn -0.765786 -0.221994 0.603565
vn -0.549492 -0.101035 0.829367
vn -0.512964 -0.254203 0.819908
vn -0.479863 -0.246605 0.841973
vn -0.769795 -0.174133 0.614079
vn -0.620620 -0.140137 0.771487
vn -0.455096 -0.122074 0.882035
vn -0.909573 -0.189244 0.369950
vn -0.879405 -0.236151 0.413377
vn -0.934415 -0.082772 0.346435
vn -0.458469 -0.110156 0.881857
vn -0.444072 0.087065 0.891751
vn -0.568684 0.072279 0.819374
vn -0.326270 0.119213 0.937729
vn -0.379378 -0.069995 0.922590
vn -0.465053 -0.306504 0.830531
vn -0.451259 -0.309155 0.837131
vn -0.461973 -0.349287 0.815218
vn -0.332783 -0.261232 0.906098
vn -0.241576 -0.058253 0.968632
vn -0.419145 -0.331801 0.845119
vn -0.477248 -0.338159 0.811100
vn -0.453339 -0.290419 0.842699
vn -0.437451 -0.304063 0.846276
vn -0.386093 -0.153258 0.909640
vn -0.352574 0.054591 0.934190
vn -0.468777 0.019287 0.883106
vn -0.492207 0.113586 0.863036
vn -0.662166 0.027169 0.748864
vn -0.638323 -0.039507 0.768754
vn -0.392888 0.175593 0.902666
vn -0.350961 0.058646 0.934552
vn -0.400661 0.209118 0.892043
vn -0.518444 0.193733 0.832876
vn -0.426814 0.015019 0.904215
vn -0.846228 -0.023940 0.532283
vn -0.900368 0.282955 0.330565
vn -0.823191 -0.083779 0.561549
vn -0.816422 -0.122795 0.564248
vn -0.355480 -0.043339 0.933679
vn -0.437290 -0.130989 0.889730
vn -0.696706 -0.262095 0.667762
vn -0.908888 -0.168643 0.381422
vn -0.929829 -0.181080 0.320356
vn -0.875108 -0.193064 0.443748
vn -0.703688 0.066653 0.707376
vn -0.837267 0.041937 0.545183
vn -0.824109 -0.081067 0.560600
vn -0.837267 0.041937 0.545183
vn -0.924504 0.016791 0.380803
vn -0.192956 0.151333 0.969467
usemtl material
f 1/0/1 2/0/2 3/0/3
f 1/0/1 3/0/3 4/0/4
f 3/0/3 5/0/5 4/0/4
f 3/0/3 6/0/6 5/0/5
f 7/0/7 1/0/1 4/0/4
f 7/0/7 4/0/4 8/0/8
f 4/0/4 5/0/5 9/0/9
f 4/0/4 9/0/9 8/0/8
f 10/0/10 5/0/5 6/0/6
f 10/0/10 11/0/11 5/0/5
f 11/0/11 9/0/9 5/0/5
f 11/0/11 12/0/12 9/0/9
f 6/0/6 3/0/3 13/0/13
f 13/0/13 3/0/3 2/0/2
f 6/0/6 13/0/13 14/0/14
f 13/0/13 2/0/2 15/0/15
f 16/0/16 7/0/7 8/0/8
f 17/0/17 7/0/7 16/0/16
f 17/0/17 18/0/18 7/0/7
f 19/0/19 17/0/17 16/0/16
f 19/0/19 16/0/16 20/0/20
f 20/0/20 16/0/16 21/0/21
f 16/0/16 8/0/8 21/0/21
f 20/0/20 21/0/21 22/0/22
f 22/0/22 21/0/21 23/0/23
f 20/0/20 22/0/22 24/0/24
f 20/0/20 24/0/24 25/0/25
f 25/0/25 19/0/19 20/0/20
f 22/0/22 26/0/26 24/0/24
f 22/0/22 27/0/27 26/0/26
f 22/0/22 23/0/23 27/0/27
f 23/0/23 28/0/28 27/0/27
f 29/0/29 28/0/28 23/0/23
f 21/0/21 29/0/29 23/0/23
f 28/0/28 29/0/29 30/0/30
f 8/0/8 29/0/29 21/0/21
f 8/0/8 9/0/9 29/0/29
f 9/0/9 30/0/30 29/0/29
f 9/0/9 12/0/12 30/0/30
f 31/0/31 30/0/30 12/0/12
f 31/0/31 12/0/12 32/0/32
f 31/0/31 32/0/32 33/0/33
f 32/0/32 34/0/34 33/0/33
f 32/0/32 35/0/35 34/0/34
f 35/0/35 32/0/32 12/0/12
f 31/0/31 33/0/33 36/0/36
f 36/0/36 37/0/37 31/0/31
f 36/0/36 38/0/38 37/0/37
f 37/0/37 38/0/38 39/0/39
f 37/0/37 39/0/39 40/0/40
f 41/0/41 40/0/40 39/0/39
f 41/0/41 39/0/39 42/0/42
f 35/0/35 12/0/12 11/0/11
f 43/0/43 34/0/34 35/0/35
f 43/0/43 35/0/35 44/0/44
f 11/0/11 44/0/44 35/0/35
f 37/0/37 40/0/40 45/0/45
f 45/0/45 31/0/31 37/0/37
f 40/0/40 41/0/41 46/0/46
f 45/0/45 40/0/40 46/0/46
f 46/0/46 41/0/41 47/0/47
f 46/0/46 47/0/47 28/0/28
f 30/0/30 45/0/45 46/0/46
f 30/0/30 46/0/46 28/0/28
f 48/0/48 43/0/43 44/0/44
f 48/0/48 49/0/49 43/0/43
f 48/0/48 44/0/44 50/0/50
f 45/0/45 30/0/30 31/0/31
f 11/0/11 10/0/10 44/0/44
f 50/0/50 44/0/44 10/0/10
f 50/0/50 10/0/10 6/0/6
f 50/0/50 6/0/6 14/0/14
f 27/0/27 28/0/28 47/0/47
f 1/0/1 7/0/7 18/0/18
f 1/0/1 18/0/18 51/0/51
f 51/0/51 2/0/2 1/0/1
f 51/0/51 52/0/52 2/0/2
f 15/0/15 53/0/53 54/0/54
f 15/0/15 54/0/54 55/0/55
f 25/0/25 56/0/56 19/0/19
