# 
# Wavefront OBJ file
# Created with Kaydara FBX
# 
mtllib the_l #221853.mtl

g The_L
v -0.066495 1.422026 0.023615
v -0.078746 1.420581 0.010351
v -0.075933 1.404925 0.009851
v -0.064637 1.406793 0.021699
v -0.062795 1.395979 0.018652
v -0.070918 1.392345 0.009440
v -0.054012 1.422072 0.031641
v -0.052062 1.408161 0.027667
v -0.050595 1.397328 0.025571
v -0.069659 1.379463 0.008350
v -0.060781 1.380977 0.019001
v -0.049496 1.381778 0.024903
v -0.083386 1.404448 -0.002135
v -0.078688 1.390280 -0.000295
v -0.037820 1.422011 0.039617
v -0.038607 1.450941 0.039398
v -0.054730 1.449392 0.029890
v -0.020912 1.451923 0.046042
v -0.020277 1.421443 0.047189
v -0.036429 1.406206 0.036120
v -0.018987 1.405147 0.046196
v -0.027888 1.396202 0.034294
v -0.007535 1.404763 0.050627
v -0.008055 1.421341 0.051896
v -0.006999 1.392272 0.046084
v -0.015871 1.392800 0.041913
v -0.024975 1.385736 0.031242
v -0.037253 1.396115 0.028468
v -0.037284 1.381125 0.026778
v -0.039751 1.362910 0.026112
v -0.047997 1.362350 0.023266
v -0.046669 1.354117 0.026313
v -0.056896 1.354144 0.020268
v -0.057515 1.364687 0.019260
v -0.037899 1.355077 0.029766
v -0.030985 1.366314 0.027841
v -0.027320 1.357089 0.032325
v -0.017482 1.359949 0.035383
v -0.020321 1.367783 0.030732
v -0.065593 1.354481 0.011115
v -0.066237 1.368219 0.009506
v -0.026845 1.371951 0.028657
v -0.073688 1.366977 -0.001667
v -0.070511 1.354869 -0.001007
v -0.075761 1.379224 0.000135
v -0.074787 1.365273 -0.017311
v -0.078947 1.378453 -0.019637
v -0.083094 1.392305 -0.021319
v -0.088126 1.405075 -0.023129
v -0.024318 1.379553 0.030456
v -0.013181 1.382024 0.037219
v -0.011062 1.371171 0.037697
v -0.068255 1.447226 0.021062
v -0.079392 1.443626 0.009849
v -0.008391 1.451908 0.050073
vt 0.629958 0.749558
vt 0.766693 0.741270
vt 0.741832 0.566139
vt 0.626090 0.595696
vt 0.621394 0.468076
vt 0.711170 0.426917
vt 0.516979 0.745966
vt 0.492946 0.604535
vt 0.486593 0.488517
vt 0.697358 0.292116
vt 0.599296 0.308690
vt 0.474438 0.317529
vt 0.849287 0.541278
vt 0.797355 0.404266
vt 0.331073 0.750110
vt 0.352067 1.006454
vt 0.535762 0.978555
vt 0.176107 1.017504
vt 0.154837 0.744309
vt 0.315328 0.580779
vt 0.137158 0.552327
vt 0.235497 0.464209
vt 0.010367 0.547907
vt 0.002080 0.731602
vt 0.004566 0.409514
vt 0.102629 0.423879
vt 0.203178 0.365317
vt 0.339084 0.475258
vt 0.339360 0.310347
vt 0.366707 0.110078
vt 0.457864 0.104001
vt 0.411734 0.036600
vt 0.513940 0.029142
vt 0.563109 0.129690
vt 0.315881 0.047097
vt 0.269750 0.152618
vt 0.218647 0.072510
vt 0.127213 0.082731
vt 0.151798 0.163943
vt 0.622499 0.026655
vt 0.647913 0.168639
vt 0.223895 0.214770
vt 0.745699 0.145712
vt 0.712551 0.027760
vt 0.764759 0.284381
vt 0.846248 0.064499
vt 0.896246 0.184384
vt 0.948731 0.323054
vt 1.022761 0.449568
vt 0.195995 0.298192
vt 0.072795 0.313109
vt 0.053459 0.190185
vt 0.669735 0.960323
vt 0.814481 0.913364
vt 0.005671 1.024133
vn -0.685728 -0.064103 0.725030
vn -0.821805 -0.075800 0.564704
vn -0.762207 -0.255202 0.594905
vn -0.616009 -0.268104 0.740711
vn -0.634783 -0.230594 0.737480
vn -0.744199 -0.216500 0.631899
vn -0.516615 -0.121703 0.847524
vn -0.440208 -0.322406 0.838016
vn -0.396304 -0.212002 0.893308
vn -0.770576 -0.182094 0.610781
vn -0.664904 -0.130701 0.735405
vn -0.392398 -0.104899 0.913794
vn -0.900728 -0.210607 0.379912
vn -0.857257 -0.235888 0.457677
vn -0.421028 -0.121608 0.898859
vn -0.429089 0.099397 0.897777
vn -0.568672 0.116594 0.814259
vn -0.331092 0.127997 0.934877
vn -0.396110 -0.042401 0.917223
vn -0.477698 -0.368299 0.797597
vn -0.532188 -0.244753 0.810476
vn -0.522904 -0.459703 0.717805
vn -0.329605 -0.204003 0.921815
vn -0.263912 0.002400 0.964544
vn -0.392278 -0.367480 0.843253
vn -0.499206 -0.438205 0.747509
vn -0.453983 -0.278190 0.846469
vn -0.393797 -0.332397 0.856993
vn -0.266008 -0.103203 0.958430
vn -0.371110 0.076602 0.925424
vn -0.435611 0.004500 0.900124
vn -0.482197 0.186899 0.855894
vn -0.612089 0.089698 0.785685
vn -0.630216 -0.046601 0.775020
vn -0.388396 0.228198 0.892790
vn -0.329811 0.116504 0.936831
vn -0.106736 0.073142 0.991593
vn -0.161366 0.076598 0.983918
vn -0.231523 0.015880 0.972700
vn -0.831917 -0.017900 0.554611
vn -0.786406 -0.076901 0.612905
vn -0.277591 -0.085697 0.956869
vn -0.930629 -0.134604 0.340311
vn -0.948818 -0.175303 0.262705
vn -0.877600 -0.209900 0.431000
vn -0.970919 -0.195704 0.137903
vn -0.946202 -0.267200 0.182500
vn -0.938114 -0.302404 0.168802
vn -0.977507 -0.172601 0.121201
vn -0.397206 -0.147402 0.905814
vn -0.423390 -0.277390 0.862436
vn -0.513698 -0.199737 0.834398
vn -0.694108 0.102001 0.712608
vn -0.831515 0.050401 0.553210
vn -0.215595 0.169396 0.961678
usemtl material
f 1/0/1 2/0/2 3/0/3
f 1/0/1 3/0/3 4/0/4
f 3/0/3 5/0/5 4/0/4
f 3/0/3 6/0/6 5/0/5
f 7/0/7 1/0/1 4/0/4
f 7/0/7 4/0/4 8/0/8
f 4/0/4 5/0/5 9/0/9
f 4/0/4 9/0/9 8/0/8
f 10/0/10 5/0/5 6/0/6
f 10/0/10 11/0/11 5/0/5
f 11/0/11 9/0/9 5/0/5
f 11/0/11 12/0/12 9/0/9
f 6/0/6 3/0/3 13/0/13
f 6/0/6 13/0/13 14/0/14
f 15/0/15 7/0/7 8/0/8
f 16/0/16 7/0/7 15/0/15
f 16/0/16 17/0/17 7/0/7
f 18/0/18 16/0/16 15/0/15
f 18/0/18 15/0/15 19/0/19
f 19/0/19 15/0/15 20/0/20
f 15/0/15 8/0/8 20/0/20
f 19/0/19 20/0/20 21/0/21
f 21/0/21 20/0/20 22/0/22
f 19/0/19 21/0/21 23/0/23
f 19/0/19 23/0/23 24/0/24
f 24/0/24 18/0/18 19/0/19
f 21/0/21 25/0/25 23/0/23
f 21/0/21 26/0/26 25/0/25
f 21/0/21 22/0/22 26/0/26
f 22/0/22 27/0/27 26/0/26
f 28/0/28 27/0/27 22/0/22
f 20/0/20 28/0/28 22/0/22
f 27/0/27 28/0/28 29/0/29
f 8/0/8 28/0/28 20/0/20
f 8/0/8 9/0/9 28/0/28
f 9/0/9 29/0/29 28/0/28
f 9/0/9 12/0/12 29/0/29
f 30/0/30 29/0/29 12/0/12
f 30/0/30 12/0/12 31/0/31
f 30/0/30 31/0/31 32/0/32
f 31/0/31 33/0/33 32/0/32
f 31/0/31 34/0/34 33/0/33
f 34/0/34 31/0/31 12/0/12
f 30/0/30 32/0/32 35/0/35
f 35/0/35 36/0/36 30/0/30
f 35/0/35 37/0/37 36/0/36
f 36/0/36 37/0/37 38/0/38
f 36/0/36 38/0/38 39/0/39
f 34/0/34 12/0/12 11/0/11
f 40/0/40 33/0/33 34/0/34
f 40/0/40 34/0/34 41/0/41
f 11/0/11 41/0/41 34/0/34
f 36/0/36 39/0/39 42/0/42
f 42/0/42 30/0/30 36/0/36
f 43/0/43 40/0/40 41/0/41
f 43/0/43 44/0/44 40/0/40
f 43/0/43 41/0/41 45/0/45
f 45/0/45 46/0/46 43/0/43
f 45/0/45 47/0/47 46/0/46
f 47/0/47 45/0/45 14/0/14
f 47/0/47 14/0/14 48/0/48
f 13/0/13 48/0/48 14/0/14
f 13/0/13 49/0/49 48/0/48
f 45/0/45 6/0/6 14/0/14
f 45/0/45 10/0/10 6/0/6
f 11/0/11 10/0/10 41/0/41
f 45/0/45 41/0/41 10/0/10
f 42/0/42 39/0/39 50/0/50
f 29/0/29 42/0/42 50/0/50
f 29/0/29 50/0/50 27/0/27
f 50/0/50 51/0/51 27/0/27
f 50/0/50 52/0/52 51/0/51
f 39/0/39 52/0/52 50/0/50
f 26/0/26 27/0/27 51/0/51
f 42/0/42 29/0/29 30/0/30
f 1/0/1 7/0/7 17/0/17
f 1/0/1 17/0/17 53/0/53
f 53/0/53 2/0/2 1/0/1
f 53/0/53 54/0/54 2/0/2
f 24/0/24 55/0/55 18/0/18
