# 
# Wavefront OBJ file
# Created with Kaydara FBX
# 
mtllib vault_black.mtl

g Vault_Black
v -3.608278 1.772060 3.708127
v -3.612158 3.295413 3.708127
v -4.030627 4.531540 3.708127
v -4.030627 2.895998 3.708127
v -3.133976 3.769469 3.708127
v -4.030627 1.165193 3.708127
v -3.229314 1.223633 3.708127
v -3.229154 1.142769 3.708127
v -3.734781 0.584533 3.708127
v -4.030627 -0.235499 3.708126
v -3.736487 0.055755 3.708126
v -3.321892 -0.235499 3.708126
v 0.000000 0.055755 3.708126
v 0.000000 -0.235499 3.708126
v 0.000000 3.769469 3.708127
v 0.000000 4.531540 3.708127
v 4.030627 4.531540 3.708127
v 3.133976 3.769469 3.708127
v 3.612158 3.295413 3.708127
v 3.608278 1.772060 3.708127
v 4.030627 2.895998 3.708127
v 4.030627 1.165193 3.708127
v 3.229314 1.223633 3.708127
v 3.229154 1.142769 3.708127
v 3.734781 0.584533 3.708127
v 4.030627 -0.235499 3.708126
v 3.736487 0.055755 3.708126
v 3.321892 -0.235499 3.708126
v 0.000000 0.055755 3.708126
vt 0.325921 0.419829
vt 0.326036 0.420506
vt 0.327172 0.424517
vt 0.327172 0.418644
vt 0.324848 0.422473
vt 0.327172 0.413812
vt 0.324764 0.415265
vt 0.325318 0.414113
vt 0.325667 0.412909
vt 0.327172 0.407398
vt 0.325453 0.409257
vt 0.325667 0.407398
vt 0.325347 0.409076
vt 0.325667 0.407398
vt 0.324848 0.422473
vt 0.327172 0.424517
vt 0.327172 0.424517
vt 0.324848 0.422473
vt 0.326036 0.420506
vt 0.325921 0.419829
vt 0.327172 0.418644
vt 0.327172 0.413812
vt 0.324764 0.415265
vt 0.325318 0.414113
vt 0.325667 0.412909
vt 0.327172 0.407398
vt 0.325453 0.409257
vt 0.325667 0.407398
vt 0.325347 0.409076
vn 0.000000 0.000000 1.000000
vn 0.000000 0.000000 1.000000
vn 0.000000 0.000000 1.000000
vn 0.000000 0.000000 1.000000
vn 0.000000 0.000000 1.000000
vn 0.000000 0.000000 1.000000
vn 0.000000 0.000000 1.000000
vn 0.000000 0.000000 1.000000
vn 0.000000 0.000000 1.000000
vn 0.000000 0.000000 1.000000
vn 0.000000 0.000000 1.000000
vn 0.000000 0.000000 1.000000
vn 0.000000 0.000000 1.000000
vn 0.000000 0.000000 1.000000
vn 0.000000 0.000000 1.000000
vn 0.000000 0.000000 1.000000
vn 0.000000 0.000000 1.000000
vn 0.000000 0.000000 1.000000
vn 0.000000 0.000000 1.000000
vn 0.000000 0.000000 1.000000
vn 0.000000 0.000000 1.000000
vn 0.000000 0.000000 1.000000
vn 0.000000 0.000000 1.000000
vn 0.000000 0.000000 1.000000
vn 0.000000 0.000000 1.000000
vn 0.000000 0.000000 1.000000
vn 0.000000 0.000000 1.000000
vn 0.000000 0.000000 1.000000
vn 0.000000 0.000000 1.000000
usemtl material
f 1/0/1 2/0/2 3/0/3
f 1/0/1 3/0/3 4/0/4
f 2/0/2 5/0/5 3/0/3
f 6/0/6 1/0/1 4/0/4
f 7/0/7 1/0/1 6/0/6
f 8/0/8 7/0/7 6/0/6
f 8/0/8 6/0/6 9/0/9
f 9/0/9 6/0/6 10/0/10
f 9/0/9 10/0/10 11/0/11
f 12/0/12 11/0/11 10/0/10
f 12/0/12 13/0/13 11/0/11
f 12/0/12 14/0/14 13/0/13
f 15/0/15 3/0/3 5/0/5
f 15/0/15 16/0/16 3/0/3
f 15/0/15 17/0/17 16/0/16
f 15/0/15 18/0/18 17/0/17
f 19/0/19 17/0/17 18/0/18
f 20/0/20 17/0/17 19/0/19
f 20/0/20 21/0/21 17/0/17
f 22/0/22 21/0/21 20/0/20
f 23/0/23 22/0/22 20/0/20
f 24/0/24 22/0/22 23/0/23
f 24/0/24 25/0/25 22/0/22
f 25/0/25 26/0/26 22/0/22
f 25/0/25 27/0/27 26/0/26
f 28/0/28 26/0/26 27/0/27
f 28/0/28 27/0/27 29/0/29
f 28/0/28 29/0/29 14/0/14
