# 
# Wavefront OBJ file
# Created with Kaydara FBX
# 
mtllib vault_l02 #221312.mtl

g Vault_L02
v -0.807348 0.796231 -4.340291
v -0.766342 0.753211 -5.675068
v -1.530842 0.753211 -5.675068
v -1.612754 0.796230 -4.340291
v -0.807348 -0.009176 -4.340291
v -0.807348 0.796231 -4.340291
v -1.612754 0.796230 -4.340291
v -1.612754 -0.009176 -4.340291
v -1.612754 -0.009176 -4.340291
v -1.612754 0.796230 -4.340291
v -1.530842 0.753211 -5.675068
v -1.530842 -0.011288 -5.675068
v 0.805406 1.601637 -4.340291
v 0.764499 1.517710 -5.675068
v -0.001843 1.517710 -5.675068
v -0.001942 1.601637 -4.340291
v 0.805406 0.796231 -4.340291
v 0.805406 1.601637 -4.340291
v -0.001942 1.601637 -4.340291
v -0.001942 0.796231 -4.340291
v -0.001942 1.601637 -4.340291
v -0.001843 1.517710 -5.675068
v -0.766343 1.517710 -5.675068
v -0.807348 1.601637 -4.340291
v -0.001942 0.796231 -4.340291
v -0.001942 1.601637 -4.340291
v -0.807348 1.601637 -4.340291
v -0.807348 0.796231 -4.340291
v -0.807348 0.796231 -4.340291
v -0.807348 1.601637 -4.340291
v -0.766343 1.517710 -5.675068
v -0.766342 0.753211 -5.675068
v 0.846313 -0.007063 -3.005513
v 0.846313 0.839250 -3.005513
v -0.002041 0.839250 -3.005514
v -0.002040 -0.007063 -3.005513
v -0.002040 -0.007063 -3.005513
v -0.002041 0.839250 -3.005514
v -0.848354 0.839250 -3.005513
v -0.848354 -0.007063 -3.005513
v 0.805406 -0.009176 -4.340292
v 0.805406 0.796231 -4.340291
v 0.846313 0.839250 -3.005513
v 0.846313 -0.007063 -3.005513
v 0.805406 -0.009176 -4.340292
v 1.612754 -0.009176 -4.340291
v 1.612754 0.796230 -4.340291
v 0.805406 0.796231 -4.340291
v 0.846313 0.839250 -3.005513
v 0.805406 0.796231 -4.340291
v -0.001942 0.796231 -4.340291
v -0.002041 0.839250 -3.005514
v -0.848354 0.839250 -3.005513
v -0.807348 0.796231 -4.340291
v -0.807348 -0.009176 -4.340291
v -0.848354 -0.007063 -3.005513
v -0.002041 0.839250 -3.005514
v -0.001942 0.796231 -4.340291
v -0.807348 0.796231 -4.340291
v -0.848354 0.839250 -3.005513
v 1.612754 -0.009176 -4.340291
v 1.530842 -0.011288 -5.675068
v 1.530842 0.753211 -5.675068
v 1.612754 0.796230 -4.340291
v 1.530842 0.753211 -5.675068
v 0.764499 0.753211 -5.675068
v 0.805406 0.796231 -4.340291
v 1.612754 0.796230 -4.340291
v 0.764499 0.753211 -5.675068
v 0.764499 1.517710 -5.675068
v 0.805406 1.601637 -4.340291
v 0.805406 0.796231 -4.340291
v -0.977882 2.991012 1.236944
v -0.977882 3.655227 1.236944
v -0.909270 3.395201 -0.998285
v -0.909270 2.777589 -0.998285
v -0.823114 3.011949 1.456226
v -0.823114 3.680737 1.456226
v -0.816853 3.401860 -0.941042
v -0.875221 3.648568 1.179702
v -0.863220 2.724638 -0.973588
v -0.926865 2.929267 1.212247
v -0.875221 2.910702 1.179702
v -0.816853 2.713202 -0.941042
v -0.926865 2.929267 1.212247
v -0.814325 2.944453 1.374459
v -0.777590 2.923585 1.318029
v -0.875221 2.910702 1.179702
v -0.217615 2.923585 1.318029
v -0.217999 2.944453 1.374459
v -0.189537 2.983704 1.318029
v -0.190357 3.012487 1.456226
v -0.389733 3.468958 1.456226
v 0.190357 3.012487 1.456226
v 0.389733 3.468958 1.456226
v 0.189537 2.983704 1.318029
v 0.217615 2.923585 1.318029
v 0.217999 2.944452 1.374459
v 0.777590 2.923584 1.318029
v 0.814325 2.944453 1.374459
v 0.875221 2.910703 1.179702
v 0.926864 2.929267 1.212247
v 0.977881 2.991012 1.236944
v 0.823114 3.011949 1.456226
v 0.823114 3.680737 1.456226
v 0.977881 3.655227 1.236944
v 0.486410 3.680737 1.456226
v -0.486410 3.680737 1.456226
v -0.754502 2.756652 -1.217566
v -0.754502 3.369691 -1.217566
v -0.445865 3.369691 -1.217566
v -0.357246 3.175566 -1.217566
v -0.909270 2.777589 -0.998285
v -0.909270 3.395201 -0.998285
v -0.750435 2.709452 -1.135799
v -0.863220 2.724638 -0.973588
v -0.816853 2.713202 -0.941042
v -0.719222 2.700320 -1.079369
v -0.200896 2.709452 -1.135799
v -0.201280 2.700320 -1.079369
v -0.174490 2.757144 -1.217566
v 0.357246 3.175566 -1.217566
v 0.174490 2.757144 -1.217566
v 0.754502 2.756652 -1.217566
v -0.175310 2.755926 -1.079370
v 0.175310 2.755926 -1.079370
v 0.200896 2.709452 -1.135799
v 0.201280 2.700320 -1.079369
v 0.750435 2.709452 -1.135799
v 0.719222 2.700320 -1.079369
v 0.863220 2.724639 -0.973588
v 0.816853 2.713202 -0.941042
v 0.909270 2.777589 -0.998285
v 0.909270 3.395200 -0.998285
v 0.754502 3.369691 -1.217566
v 0.445865 3.369691 -1.217566
v 0.909270 2.777589 -0.998285
v 0.909270 3.395200 -0.998285
v 0.977881 3.655227 1.236944
v 0.977881 2.991012 1.236944
v 0.875221 3.648568 1.179702
v 0.816853 3.401860 -0.941042
v 0.926864 2.929267 1.212247
v 0.863220 2.724639 -0.973588
v 0.816853 2.713202 -0.941042
v 0.875221 2.910703 1.179702
v -0.754502 3.369691 -1.217566
v -0.719222 3.385768 -1.079369
v -0.447961 3.385768 -1.079369
v -0.445865 3.369691 -1.217566
v -0.909270 3.395201 -0.998285
v -0.816853 3.401860 -0.941042
v -0.358925 3.190730 -1.079369
v -0.357246 3.175566 -1.217566
v 0.358925 3.190730 -1.079369
v 0.357246 3.175566 -1.217566
v 0.447961 3.385768 -1.079369
v 0.445865 3.369691 -1.217566
v 0.719222 3.385768 -1.079369
v 0.754502 3.369691 -1.217566
v 0.816853 3.401860 -0.941042
v 0.909270 3.395200 -0.998285
v 0.977881 3.655227 1.236944
v 0.875221 3.648568 1.179702
v 0.777590 3.664660 1.318029
v 0.823114 3.680737 1.456226
v 0.484315 3.664660 1.318029
v 0.486410 3.680737 1.456226
v 0.388054 3.453794 1.318029
v 0.389733 3.468958 1.456226
v -0.388054 3.453794 1.318029
v -0.389733 3.468958 1.456226
v -0.484315 3.664660 1.318029
v -0.486410 3.680737 1.456226
v -0.777590 3.664660 1.318029
v -0.823114 3.680737 1.456226
v -0.875221 3.648568 1.179702
v -0.977882 3.655227 1.236944
v -0.458706 3.166407 -0.466759
v -0.476538 3.291470 0.705419
v -0.875221 2.910702 1.179702
v -0.816853 2.713202 -0.941042
v -0.404744 3.158249 -0.543216
v -0.719222 2.700320 -1.079369
v 0.404744 3.158249 -0.543216
v -0.404744 3.158249 -0.543216
v -0.175310 2.755926 -1.079370
v 0.175310 2.755926 -1.079370
v -0.719222 2.700320 -1.079369
v -0.201280 2.700320 -1.079369
v 0.201280 2.700320 -1.079369
v 0.719222 2.700320 -1.079369
v 0.458706 3.166407 -0.466759
v 0.816853 2.713202 -0.941042
v 0.476538 3.291470 0.705419
v 0.458706 3.166407 -0.466759
v 0.816853 2.713202 -0.941042
v 0.875221 2.910703 1.179702
v 0.422575 3.299627 0.781876
v 0.777590 2.923584 1.318029
v -0.476538 3.291470 0.705419
v -0.422575 3.299628 0.781876
v -0.777590 2.923585 1.318029
v -0.875221 2.910702 1.179702
v -0.217615 2.923585 1.318029
v -0.189537 2.983704 1.318029
v 0.189537 2.983704 1.318029
v 0.422575 3.299627 0.781876
v 0.777590 2.923584 1.318029
v 0.217615 2.923585 1.318029
v -0.458706 3.166407 -0.466759
v -0.404744 3.158249 -0.543216
v 0.404744 3.158249 -0.543216
v 0.458706 3.166407 -0.466759
v -0.476538 3.291470 0.705419
v 0.476538 3.291470 0.705419
v -0.422575 3.299628 0.781876
v 0.422575 3.299627 0.781876
vt 0.315450 0.822676
vt 0.315450 0.901407
vt 0.394525 0.901407
vt 0.394525 0.822676
vt 0.315450 0.822676
vt 0.315450 0.901407
vt 0.394525 0.901407
vt 0.394525 0.822676
vt 0.315450 0.822676
vt 0.315450 0.901407
vt 0.394525 0.901407
vt 0.394525 0.822676
vt 0.315450 0.822676
vt 0.315450 0.901407
vt 0.394525 0.901407
vt 0.394525 0.822676
vt 0.315439 0.822722
vt 0.315439 0.901407
vt 0.394525 0.901407
vt 0.394525 0.822722
vt 0.315450 0.822676
vt 0.315450 0.901407
vt 0.394525 0.901407
vt 0.394525 0.822676
vt 0.315461 0.822676
vt 0.315461 0.901339
vt 0.394537 0.901339
vt 0.394537 0.822676
vt 0.315450 0.822676
vt 0.315450 0.901407
vt 0.394525 0.901407
vt 0.394525 0.822676
vt 0.315428 0.822676
vt 0.315428 0.901407
vt 0.394513 0.901407
vt 0.394513 0.822676
vt 0.315450 0.822676
vt 0.315450 0.901407
vt 0.394525 0.901407
vt 0.394525 0.822676
vt 0.315439 0.822699
vt 0.315439 0.901386
vt 0.394526 0.901382
vt 0.394526 0.822698
vt 0.315450 0.822676
vt 0.315450 0.901407
vt 0.394525 0.901407
vt 0.394525 0.822676
vt 0.315450 0.822676
vt 0.315450 0.901407
vt 0.394525 0.901407
vt 0.394525 0.822676
vt 0.315450 0.822676
vt 0.315450 0.901407
vt 0.394525 0.901407
vt 0.394525 0.822676
vt 0.315450 0.822676
vt 0.315450 0.901407
vt 0.394525 0.901407
vt 0.394525 0.822676
vt 0.315450 0.822676
vt 0.315450 0.901407
vt 0.394525 0.901407
vt 0.394525 0.822676
vt 0.315450 0.822676
vt 0.315450 0.901407
vt 0.394525 0.901407
vt 0.394525 0.822676
vt 0.315450 0.822676
vt 0.315450 0.901407
vt 0.394525 0.901407
vt 0.394525 0.822676
vt 0.643555 0.808368
vt 0.643555 0.894305
vt 0.802734 0.894305
vt 0.802734 0.808368
vt 0.624023 0.808368
vt 0.624023 0.894305
vt 0.802734 0.900165
vt 0.643555 0.900165
vt 0.802734 0.800555
vt 0.643555 0.800555
vt 0.643555 0.797626
vt 0.802734 0.797626
vt 0.637695 0.800555
vt 0.624023 0.800555
vt 0.619141 0.797626
vt 0.631836 0.797626
vt 0.549805 0.797626
vt 0.551758 0.800555
vt 0.545898 0.803485
vt 0.548828 0.809344
vt 0.572266 0.866962
vt 0.502930 0.809344
vt 0.478516 0.866962
vt 0.504883 0.803485
vt 0.500977 0.797626
vt 0.499023 0.800555
vt 0.431641 0.797626
vt 0.427734 0.800555
vt 0.419922 0.797626
vt 0.413086 0.800555
vt 0.407227 0.808368
vt 0.426758 0.808368
vt 0.426758 0.894305
vt 0.407227 0.894305
vt 0.466797 0.894305
vt 0.583984 0.894305
vt 0.624023 0.808368
vt 0.624023 0.894305
vt 0.583984 0.894305
vt 0.572266 0.866962
vt 0.643555 0.808368
vt 0.643555 0.894305
vt 0.624023 0.800555
vt 0.637695 0.800555
vt 0.631836 0.797626
vt 0.619141 0.797626
vt 0.551758 0.800555
vt 0.549805 0.797626
vt 0.548828 0.809344
vt 0.478516 0.866962
vt 0.502930 0.809344
vt 0.426758 0.808368
vt 0.545898 0.803485
vt 0.504883 0.803485
vt 0.499023 0.800555
vt 0.500977 0.797626
vt 0.427734 0.800555
vt 0.431641 0.797626
vt 0.413086 0.800555
vt 0.419922 0.797626
vt 0.407227 0.808368
vt 0.407227 0.894305
vt 0.426758 0.894305
vt 0.466797 0.894305
vt 0.643555 0.808368
vt 0.643555 0.894305
vt 0.803711 0.894305
vt 0.803711 0.808368
vt 0.802734 0.900165
vt 0.643555 0.900165
vt 0.802734 0.800555
vt 0.643555 0.800555
vt 0.643555 0.797626
vt 0.802734 0.797626
vt 0.866211 0.718750
vt 0.869141 0.726563
vt 0.882813 0.726563
vt 0.882813 0.718750
vt 0.859375 0.731445
vt 0.864258 0.734375
vt 0.908203 0.726563
vt 0.908203 0.718750
vt 0.945313 0.726563
vt 0.945313 0.718750
vt 0.969727 0.726563
vt 0.969727 0.718750
vt 0.984375 0.726563
vt 0.986328 0.718750
vt 0.989258 0.734375
vt 0.994141 0.731445
vt 0.994141 0.730469
vt 0.989258 0.734375
vt 0.984375 0.726563
vt 0.986328 0.718750
vt 0.969727 0.726563
vt 0.969727 0.718750
vt 0.945313 0.726563
vt 0.945313 0.718750
vt 0.908203 0.726563
vt 0.908203 0.718750
vt 0.882813 0.726563
vt 0.882813 0.718750
vt 0.869141 0.726563
vt 0.866211 0.718750
vt 0.864258 0.734375
vt 0.859375 0.731445
vt 0.359375 0.981445
vt 0.452148 0.981445
vt 0.490234 0.911133
vt 0.321289 0.911133
vt 0.350586 0.981445
vt 0.306641 0.911133
vt 0.359375 0.981445
vt 0.452148 0.981445
vt 0.426758 0.918945
vt 0.385742 0.918945
vt 0.499023 0.911133
vt 0.439453 0.911133
vt 0.381836 0.911133
vt 0.321289 0.911133
vt 0.350586 0.981445
vt 0.306641 0.911133
vt 0.359375 0.981445
vt 0.452148 0.981445
vt 0.490234 0.911133
vt 0.321289 0.911133
vt 0.350586 0.981445
vt 0.306641 0.911133
vt 0.350586 0.981445
vt 0.359375 0.981445
vt 0.321289 0.911133
vt 0.306641 0.911133
vt 0.381836 0.911133
vt 0.385742 0.918945
vt 0.426758 0.918945
vt 0.452148 0.981445
vt 0.499023 0.911133
vt 0.439453 0.911133
vt 0.505859 0.979492
vt 0.509766 0.983398
vt 0.570313 0.983398
vt 0.574219 0.979492
vt 0.505859 0.918945
vt 0.574219 0.918945
vt 0.509766 0.915039
vt 0.570313 0.915039
vn -0.589373 0.589345 0.552550
vn -0.706424 0.706390 -0.044469
vn -0.705084 0.706044 -0.066025
vn -0.594688 0.595498 0.540119
vn -0.717881 0.000000 0.696166
vn -0.589373 0.589345 0.552550
vn -0.594688 0.595498 0.540119
vn -0.728441 0.000000 0.685109
vn -0.728441 0.000000 0.685109
vn -0.594688 0.595498 0.540119
vn -0.705084 0.706044 -0.066025
vn -0.998122 0.000000 -0.061253
vn 0.595521 0.594626 0.540162
vn 0.706097 0.705036 -0.065970
vn 0.000000 0.998029 -0.062753
vn 0.000000 0.728956 0.684561
vn 0.589360 0.589330 0.552580
vn 0.595521 0.594626 0.540162
vn 0.000000 0.728956 0.684561
vn 0.000000 0.718405 0.695625
vn 0.000000 0.728956 0.684561
vn 0.000000 0.998029 -0.062753
vn -0.706093 0.705034 -0.066022
vn -0.595534 0.594641 0.540131
vn 0.000000 0.718405 0.695625
vn 0.000000 0.728956 0.684561
vn -0.595534 0.594641 0.540131
vn -0.589373 0.589345 0.552550
vn -0.589373 0.589345 0.552550
vn -0.595534 0.594641 0.540131
vn -0.706093 0.705034 -0.066022
vn -0.706424 0.706390 -0.044469
vn 0.717855 0.000000 0.696193
vn 0.589359 0.589331 0.552580
vn 0.000000 0.718406 0.695624
vn 0.000000 0.000000 1.000000
vn 0.000000 0.000000 1.000000
vn 0.000000 0.718406 0.695624
vn -0.589373 0.589345 0.552550
vn -0.717881 0.000000 0.696166
vn 0.717855 0.000000 0.696193
vn 0.589360 0.589330 0.552580
vn 0.589359 0.589331 0.552580
vn 0.717855 0.000000 0.696193
vn 0.717855 0.000000 0.696193
vn 0.728441 0.000000 0.685109
vn 0.594688 0.595497 0.540119
vn 0.589360 0.589330 0.552580
vn 0.589359 0.589331 0.552580
vn 0.589360 0.589330 0.552580
vn 0.000000 0.718405 0.695625
vn 0.000000 0.718406 0.695624
vn -0.589373 0.589345 0.552550
vn -0.589373 0.589345 0.552550
vn -0.717881 0.000000 0.696166
vn -0.717881 0.000000 0.696166
vn 0.000000 0.718406 0.695624
vn 0.000000 0.718405 0.695625
vn -0.589373 0.589345 0.552550
vn -0.589373 0.589345 0.552550
vn 0.728441 0.000000 0.685109
vn 0.998122 0.000000 -0.061252
vn 0.705084 0.706044 -0.066025
vn 0.594688 0.595497 0.540119
vn 0.705084 0.706044 -0.066025
vn 0.706427 0.706391 -0.044417
vn 0.589360 0.589330 0.552580
vn 0.594688 0.595497 0.540119
vn 0.706427 0.706391 -0.044417
vn 0.706097 0.705036 -0.065970
vn 0.595521 0.594626 0.540162
vn 0.589360 0.589330 0.552580
vn -0.883330 -0.364354 0.294914
vn -0.670242 0.732994 0.116170
vn -0.644284 0.704605 -0.297370
vn -0.890065 -0.374079 -0.260480
vn -0.334047 -0.340746 0.878809
vn -0.322331 0.783772 0.530852
vn 0.000000 0.993301 -0.115552
vn 0.000000 0.993301 -0.115552
vn -0.494925 -0.865379 -0.078535
vn -0.484636 -0.847655 0.215893
vn 0.210690 -0.976858 0.036868
vn 0.201877 -0.968210 0.147699
vn -0.484636 -0.847655 0.215893
vn -0.205405 -0.872879 0.442596
vn 0.104348 -0.991400 -0.078984
vn 0.210690 -0.976858 0.036868
vn 0.399808 -0.915163 -0.051292
vn 0.339646 -0.837576 0.427910
vn 0.287827 -0.929205 -0.231806
vn 0.231359 -0.581344 0.780072
vn 0.274479 0.425405 0.862375
vn -0.231360 -0.581343 0.780072
vn -0.274479 0.425406 0.862375
vn -0.287828 -0.929205 -0.231806
vn -0.399809 -0.915162 -0.051292
vn -0.339646 -0.837576 0.427910
vn -0.104347 -0.991400 -0.078985
vn 0.205406 -0.872879 0.442596
vn -0.210689 -0.976858 0.036867
vn 0.484635 -0.847655 0.215892
vn 0.883330 -0.364355 0.294913
vn 0.334047 -0.340746 0.878809
vn 0.322331 0.783773 0.530851
vn 0.670242 0.732994 0.116169
vn -0.483730 0.749327 0.452232
vn 0.483730 0.749326 0.452234
vn -0.354234 -0.386296 -0.851642
vn -0.291007 0.707607 -0.643900
vn 0.447226 0.692779 -0.565726
vn 0.255175 0.395487 -0.882313
vn -0.890065 -0.374079 -0.260480
vn -0.644284 0.704605 -0.297370
vn -0.216419 -0.933702 -0.285243
vn -0.494925 -0.865379 -0.078535
vn 0.201877 -0.968210 0.147699
vn 0.093060 -0.966995 0.237194
vn 0.344481 -0.900694 -0.264731
vn 0.393261 -0.897763 0.198412
vn 0.249477 -0.655900 -0.712430
vn -0.255175 0.395486 -0.882313
vn -0.249478 -0.655898 -0.712431
vn 0.354234 -0.386296 -0.851642
vn 0.283553 -0.886955 0.364565
vn -0.283554 -0.886955 0.364565
vn -0.344483 -0.900693 -0.264733
vn -0.393264 -0.897762 0.198412
vn 0.216420 -0.933702 -0.285243
vn -0.093059 -0.966995 0.237194
vn 0.494925 -0.865380 -0.078534
vn -0.201877 -0.968210 0.147699
vn 0.890064 -0.374080 -0.260480
vn 0.644285 0.704605 -0.297370
vn 0.291007 0.707608 -0.643899
vn -0.447226 0.692779 -0.565726
vn 0.890064 -0.374080 -0.260480
vn 0.644285 0.704605 -0.297370
vn 0.670242 0.732994 0.116169
vn 0.883330 -0.364355 0.294913
vn 0.000000 0.993301 -0.115553
vn 0.000000 0.993301 -0.115552
vn 0.484635 -0.847655 0.215892
vn 0.494925 -0.865380 -0.078534
vn -0.201877 -0.968210 0.147699
vn -0.210689 -0.976858 0.036867
vn -0.291007 0.707607 -0.643900
vn 0.000000 0.993301 -0.115554
vn 0.540199 0.836801 -0.089156
vn 0.447226 0.692779 -0.565726
vn -0.644284 0.704605 -0.297370
vn 0.000000 0.993301 -0.115552
vn 0.540184 0.837213 -0.085300
vn 0.255175 0.395487 -0.882313
vn -0.540184 0.837213 -0.085300
vn -0.255175 0.395486 -0.882313
vn -0.540200 0.836801 -0.089155
vn -0.447226 0.692779 -0.565726
vn 0.000000 0.993301 -0.115553
vn 0.291007 0.707608 -0.643899
vn 0.000000 0.993301 -0.115552
vn 0.644285 0.704605 -0.297370
vn 0.670242 0.732994 0.116169
vn 0.000000 0.993301 -0.115553
vn 0.000000 0.993301 -0.115553
vn 0.322331 0.783773 0.530851
vn -0.540200 0.836801 -0.089154
vn -0.483730 0.749327 0.452232
vn -0.540185 0.837212 -0.085301
vn -0.274479 0.425406 0.862375
vn 0.540185 0.837212 -0.085301
vn 0.274479 0.425405 0.862375
vn 0.540200 0.836801 -0.089153
vn 0.483730 0.749326 0.452234
vn 0.000000 0.993302 -0.115551
vn -0.322331 0.783772 0.530852
vn 0.000000 0.993301 -0.115552
vn -0.670242 0.732994 0.116170
vn 0.257007 -0.950929 0.172280
vn 0.263157 -0.964288 0.029949
vn 0.210690 -0.976858 0.036868
vn 0.201877 -0.968210 0.147699
vn 0.141404 -0.873524 0.465791
vn 0.093060 -0.966995 0.237194
vn -0.113543 -0.911036 0.396385
vn 0.141404 -0.873524 0.465791
vn 0.283553 -0.886955 0.364565
vn -0.283554 -0.886955 0.364565
vn 0.093060 -0.966995 0.237194
vn 0.393261 -0.897763 0.198412
vn -0.393264 -0.897762 0.198412
vn -0.093059 -0.966995 0.237194
vn -0.257007 -0.950930 0.172278
vn -0.201877 -0.968210 0.147699
vn -0.263156 -0.964288 0.029947
vn -0.257007 -0.950930 0.172278
vn -0.201877 -0.968210 0.147699
vn -0.210689 -0.976858 0.036867
vn -0.151414 -0.930066 -0.334739
vn -0.104347 -0.991400 -0.078985
vn 0.263157 -0.964288 0.029949
vn 0.121819 -0.961439 -0.246567
vn 0.104348 -0.991400 -0.078984
vn 0.210690 -0.976858 0.036868
vn 0.399808 -0.915163 -0.051292
vn 0.287827 -0.929205 -0.231806
vn -0.287828 -0.929205 -0.231806
vn -0.151414 -0.930066 -0.334739
vn -0.104347 -0.991400 -0.078985
vn -0.399809 -0.915162 -0.051292
vn 0.257007 -0.950929 0.172280
vn 0.141404 -0.873524 0.465791
vn -0.113543 -0.911036 0.396385
vn -0.257007 -0.950930 0.172278
vn 0.263157 -0.964288 0.029949
vn -0.263156 -0.964288 0.029947
vn 0.121819 -0.961439 -0.246567
vn -0.151414 -0.930066 -0.334739
usemtl material
f 1/0/1 2/0/2 3/0/3
f 1/0/1 3/0/3 4/0/4
f 5/0/5 6/0/6 7/0/7
f 5/0/5 7/0/7 8/0/8
f 9/0/9 10/0/10 11/0/11
f 9/0/9 11/0/11 12/0/12
f 13/0/13 14/0/14 15/0/15
f 13/0/13 15/0/15 16/0/16
f 17/0/17 18/0/18 19/0/19
f 17/0/17 19/0/19 20/0/20
f 21/0/21 22/0/22 23/0/23
f 21/0/21 23/0/23 24/0/24
f 25/0/25 26/0/26 27/0/27
f 25/0/25 27/0/27 28/0/28
f 29/0/29 30/0/30 31/0/31
f 29/0/29 31/0/31 32/0/32
f 33/0/33 34/0/34 35/0/35
f 33/0/33 35/0/35 36/0/36
f 37/0/37 38/0/38 39/0/39
f 37/0/37 39/0/39 40/0/40
f 41/0/41 42/0/42 43/0/43
f 41/0/41 43/0/43 44/0/44
f 45/0/45 46/0/46 47/0/47
f 45/0/45 47/0/47 48/0/48
f 49/0/49 50/0/50 51/0/51
f 49/0/49 51/0/51 52/0/52
f 53/0/53 54/0/54 55/0/55
f 53/0/53 55/0/55 56/0/56
f 57/0/57 58/0/58 59/0/59
f 57/0/57 59/0/59 60/0/60
f 61/0/61 62/0/62 63/0/63
f 61/0/61 63/0/63 64/0/64
f 65/0/65 66/0/66 67/0/67
f 65/0/65 67/0/67 68/0/68
f 69/0/69 70/0/70 71/0/71
f 69/0/69 71/0/71 72/0/72
f 73/0/73 74/0/74 75/0/75
f 73/0/73 75/0/75 76/0/76
f 74/0/74 73/0/73 77/0/77
f 74/0/74 77/0/77 78/0/78
f 74/0/74 79/0/79 75/0/75
f 74/0/74 80/0/80 79/0/79
f 73/0/73 76/0/76 81/0/81
f 73/0/73 81/0/81 82/0/82
f 81/0/81 83/0/83 82/0/82
f 81/0/81 84/0/84 83/0/83
f 77/0/77 73/0/73 85/0/85
f 77/0/77 85/0/85 86/0/86
f 85/0/85 87/0/87 86/0/86
f 85/0/85 88/0/88 87/0/87
f 86/0/86 87/0/87 89/0/89
f 86/0/86 89/0/89 90/0/90
f 90/0/90 89/0/89 91/0/91
f 90/0/90 91/0/91 92/0/92
f 92/0/92 77/0/77 86/0/86
f 92/0/92 86/0/86 90/0/90
f 92/0/92 93/0/93 77/0/77
f 94/0/94 93/0/93 92/0/92
f 94/0/94 95/0/95 93/0/93
f 92/0/92 91/0/91 96/0/96
f 92/0/92 96/0/96 94/0/94
f 94/0/94 96/0/96 97/0/97
f 94/0/94 97/0/97 98/0/98
f 98/0/98 97/0/97 99/0/99
f 98/0/98 99/0/99 100/0/100
f 100/0/100 99/0/99 101/0/101
f 100/0/100 101/0/101 102/0/102
f 103/0/103 100/0/100 102/0/102
f 103/0/103 104/0/104 100/0/100
f 104/0/104 94/0/94 98/0/98
f 104/0/104 98/0/98 100/0/100
f 104/0/104 95/0/95 94/0/94
f 103/0/103 105/0/105 104/0/104
f 103/0/103 106/0/106 105/0/105
f 104/0/104 105/0/105 107/0/107
f 104/0/104 107/0/107 95/0/95
f 77/0/77 93/0/93 108/0/108
f 77/0/77 108/0/108 78/0/78
f 109/0/109 110/0/110 111/0/111
f 109/0/109 111/0/111 112/0/112
f 110/0/110 109/0/109 113/0/113
f 110/0/110 113/0/113 114/0/114
f 113/0/113 109/0/109 115/0/115
f 113/0/113 115/0/115 116/0/116
f 115/0/115 117/0/117 116/0/116
f 115/0/115 118/0/118 117/0/117
f 119/0/119 118/0/118 115/0/115
f 109/0/109 119/0/119 115/0/115
f 119/0/119 120/0/120 118/0/118
f 121/0/121 120/0/120 119/0/119
f 109/0/109 121/0/121 119/0/119
f 109/0/109 112/0/112 121/0/121
f 121/0/121 112/0/112 122/0/122
f 121/0/121 122/0/122 123/0/123
f 123/0/123 122/0/122 124/0/124
f 123/0/123 125/0/125 121/0/121
f 121/0/121 125/0/125 120/0/120
f 123/0/123 126/0/126 125/0/125
f 127/0/127 126/0/126 123/0/123
f 127/0/127 128/0/128 126/0/126
f 129/0/129 128/0/128 127/0/127
f 123/0/123 124/0/124 129/0/129
f 123/0/123 129/0/129 127/0/127
f 129/0/129 130/0/130 128/0/128
f 131/0/131 130/0/130 129/0/129
f 124/0/124 131/0/131 129/0/129
f 131/0/131 132/0/132 130/0/130
f 124/0/124 133/0/133 131/0/131
f 134/0/134 133/0/133 124/0/124
f 134/0/134 124/0/124 135/0/135
f 124/0/124 122/0/122 136/0/136
f 124/0/124 136/0/136 135/0/135
f 137/0/137 138/0/138 139/0/139
f 137/0/137 139/0/139 140/0/140
f 138/0/138 141/0/141 139/0/139
f 138/0/138 142/0/142 141/0/141
f 137/0/137 140/0/140 143/0/143
f 137/0/137 143/0/143 144/0/144
f 143/0/143 145/0/145 144/0/144
f 143/0/143 146/0/146 145/0/145
f 147/0/147 148/0/148 149/0/149
f 147/0/147 149/0/149 150/0/150
f 151/0/151 148/0/148 147/0/147
f 151/0/151 152/0/152 148/0/148
f 150/0/150 149/0/149 153/0/153
f 150/0/150 153/0/153 154/0/154
f 154/0/154 153/0/153 155/0/155
f 154/0/154 155/0/155 156/0/156
f 156/0/156 155/0/155 157/0/157
f 156/0/156 157/0/157 158/0/158
f 158/0/158 157/0/157 159/0/159
f 158/0/158 159/0/159 160/0/160
f 160/0/160 159/0/159 161/0/161
f 160/0/160 161/0/161 162/0/162
f 163/0/163 164/0/164 165/0/165
f 163/0/163 165/0/165 166/0/166
f 166/0/166 165/0/165 167/0/167
f 166/0/166 167/0/167 168/0/168
f 168/0/168 167/0/167 169/0/169
f 168/0/168 169/0/169 170/0/170
f 170/0/170 169/0/169 171/0/171
f 170/0/170 171/0/171 172/0/172
f 172/0/172 171/0/171 173/0/173
f 172/0/172 173/0/173 174/0/174
f 174/0/174 173/0/173 175/0/175
f 174/0/174 175/0/175 176/0/176
f 176/0/176 175/0/175 177/0/177
f 176/0/176 177/0/177 178/0/178
f 179/0/179 180/0/180 181/0/181
f 179/0/179 181/0/181 182/0/182
f 183/0/183 179/0/179 182/0/182
f 183/0/183 182/0/182 184/0/184
f 185/0/185 186/0/186 187/0/187
f 185/0/185 187/0/187 188/0/188
f 187/0/187 186/0/186 189/0/189
f 187/0/187 189/0/189 190/0/190
f 185/0/185 188/0/188 191/0/191
f 185/0/185 191/0/191 192/0/192
f 193/0/193 185/0/185 192/0/192
f 193/0/193 192/0/192 194/0/194
f 195/0/195 196/0/196 197/0/197
f 195/0/195 197/0/197 198/0/198
f 199/0/199 195/0/195 198/0/198
f 199/0/199 198/0/198 200/0/200
f 201/0/201 202/0/202 203/0/203
f 201/0/201 203/0/203 204/0/204
f 202/0/202 205/0/205 203/0/203
f 202/0/202 206/0/206 205/0/205
f 202/0/202 207/0/207 206/0/206
f 202/0/202 208/0/208 207/0/207
f 207/0/207 208/0/208 209/0/209
f 207/0/207 209/0/209 210/0/210
f 211/0/211 212/0/212 213/0/213
f 213/0/213 214/0/214 211/0/211
f 214/0/214 215/0/215 211/0/211
f 214/0/214 216/0/216 215/0/215
f 216/0/216 217/0/217 215/0/215
f 216/0/216 218/0/218 217/0/217
