# 
# Wavefront OBJ file
# Created with Kaydara FBX
# 
mtllib vault_l02.mtl

g Vault_L02
v -0.664749 0.919147 0.349449
v -0.639941 0.954358 -0.322553
v -1.278654 0.954358 -0.322553
v -1.328220 0.919147 0.349448
v -0.664749 0.255675 0.349448
v -0.664749 0.919147 0.349449
v -1.328220 0.919147 0.349448
v -1.328220 0.255675 0.349449
v -1.328220 0.255675 0.349449
v -1.328220 0.919147 0.349448
v -1.278654 0.954358 -0.322553
v -1.278653 0.315646 -0.322553
v 0.663795 1.582619 0.349449
v 0.639023 1.593070 -0.322553
v -0.001229 1.593070 -0.322553
v -0.001276 1.582619 0.349449
v 0.663795 0.919147 0.349449
v 0.663795 1.582619 0.349449
v -0.001276 1.582619 0.349449
v -0.001276 0.919147 0.349449
v -0.001276 1.582619 0.349449
v -0.001229 1.593070 -0.322553
v -0.639941 1.593070 -0.322553
v -0.664748 1.582619 0.349449
v -0.001276 0.919147 0.349449
v -0.001276 1.582619 0.349449
v -0.664748 1.582619 0.349449
v -0.664749 0.919147 0.349449
v -0.664749 0.919147 0.349449
v -0.664748 1.582619 0.349449
v -0.639941 1.593070 -0.322553
v -0.639941 0.954358 -0.322553
v 0.688567 0.195704 1.021451
v 0.688566 0.883936 1.021450
v -0.001324 0.883936 1.021450
v -0.001324 0.195704 1.021450
v -0.001324 0.195704 1.021450
v -0.001324 0.883936 1.021450
v -0.689555 0.883936 1.021451
v -0.689555 0.195704 1.021451
v 0.663795 0.255675 0.349448
v 0.663795 0.919147 0.349449
v 0.688566 0.883936 1.021450
v 0.688567 0.195704 1.021451
v 0.663795 0.255675 0.349448
v 1.328866 0.255675 0.349449
v 1.328866 0.919147 0.349448
v 0.663795 0.919147 0.349449
v 0.688566 0.883936 1.021450
v 0.663795 0.919147 0.349449
v -0.001276 0.919147 0.349449
v -0.001324 0.883936 1.021450
v -0.689555 0.883936 1.021451
v -0.664749 0.919147 0.349449
v -0.664749 0.255675 0.349448
v -0.689555 0.195704 1.021451
v -0.001324 0.883936 1.021450
v -0.001276 0.919147 0.349449
v -0.664749 0.919147 0.349449
v -0.689555 0.883936 1.021451
v 1.328866 0.255675 0.349449
v 1.279275 0.315646 -0.322553
v 1.279275 0.954358 -0.322553
v 1.328866 0.919147 0.349448
v 1.279275 0.954358 -0.322553
v 0.639023 0.954358 -0.322553
v 0.663795 0.919147 0.349449
v 1.328866 0.919147 0.349448
v 0.639023 0.954358 -0.322553
v 0.639023 1.593070 -0.322553
v 0.663795 1.582619 0.349449
v 0.663795 0.919147 0.349449
v 1.279275 0.315646 -0.322553
v -1.278653 0.315646 -0.322553
v -0.639941 0.954358 -0.322553
v 0.639023 0.954358 -0.322553
v -0.639941 1.593070 -0.322553
v -0.001229 1.593070 -0.322553
v 0.639023 1.593070 -0.322553
v 1.279275 0.954358 -0.322553
v -1.278654 0.954358 -0.322553
vt 0.315450 0.822676
vt 0.315450 0.901407
vt 0.394525 0.901407
vt 0.394525 0.822676
vt 0.315450 0.822676
vt 0.315450 0.901407
vt 0.394525 0.901407
vt 0.394525 0.822676
vt 0.315450 0.822676
vt 0.315450 0.901407
vt 0.394525 0.901407
vt 0.394525 0.822676
vt 0.315450 0.822676
vt 0.315450 0.901407
vt 0.394525 0.901407
vt 0.394525 0.822676
vt 0.315439 0.822722
vt 0.315439 0.901407
vt 0.394525 0.901407
vt 0.394525 0.822722
vt 0.315450 0.822676
vt 0.315450 0.901407
vt 0.394525 0.901407
vt 0.394525 0.822676
vt 0.315461 0.822676
vt 0.315461 0.901339
vt 0.394537 0.901339
vt 0.394537 0.822676
vt 0.315450 0.822676
vt 0.315450 0.901407
vt 0.394525 0.901407
vt 0.394525 0.822676
vt 0.315428 0.822676
vt 0.315428 0.901407
vt 0.394513 0.901407
vt 0.394513 0.822676
vt 0.315450 0.822676
vt 0.315450 0.901407
vt 0.394525 0.901407
vt 0.394525 0.822676
vt 0.315439 0.822699
vt 0.315439 0.901386
vt 0.394526 0.901382
vt 0.394526 0.822698
vt 0.315450 0.822676
vt 0.315450 0.901407
vt 0.394525 0.901407
vt 0.394525 0.822676
vt 0.315450 0.822676
vt 0.315450 0.901407
vt 0.394525 0.901407
vt 0.394525 0.822676
vt 0.315450 0.822676
vt 0.315450 0.901407
vt 0.394525 0.901407
vt 0.394525 0.822676
vt 0.315450 0.822676
vt 0.315450 0.901407
vt 0.394525 0.901407
vt 0.394525 0.822676
vt 0.315450 0.822676
vt 0.315450 0.901407
vt 0.394525 0.901407
vt 0.394525 0.822676
vt 0.315450 0.822676
vt 0.315450 0.901407
vt 0.394525 0.901407
vt 0.394525 0.822676
vt 0.315450 0.822676
vt 0.315450 0.901407
vt 0.394525 0.901407
vt 0.394525 0.822676
vt 0.873185 0.691702
vt 0.886793 0.678153
vt 0.886793 0.678153
vt 0.873185 0.691702
vt 0.886793 0.691702
vt 0.886793 0.691702
vt 0.873185 0.691702
vt 0.886793 0.691702
vt 0.886793 0.691702
vn -0.574377 0.573981 0.583640
vn -0.236380 0.236217 -0.942511
vn -0.572478 0.573247 -0.586222
vn -0.580662 0.581441 0.569876
vn -0.720031 0.000000 0.693942
vn -0.574377 0.573981 0.583640
vn -0.580662 0.581441 0.569876
vn -0.732653 0.000000 0.680603
vn -0.732653 0.000000 0.680603
vn -0.580662 0.581441 0.569876
vn -0.572478 0.573247 -0.586222
vn -0.433431 0.000000 -0.901187
vn 0.581209 0.581533 0.569223
vn 0.573016 0.573336 -0.585610
vn 0.000000 0.712584 -0.701587
vn 0.000000 0.701587 0.712584
vn 0.574368 0.573971 0.583660
vn 0.581209 0.581533 0.569223
vn 0.000000 0.701587 0.712584
vn 0.000000 0.688358 0.725371
vn 0.000000 0.701587 0.712584
vn 0.000000 0.712584 -0.701587
vn -0.405137 0.405364 -0.819478
vn -0.581218 0.581544 0.569203
vn 0.000000 0.688358 0.725371
vn 0.000000 0.701587 0.712584
vn -0.581218 0.581544 0.569203
vn -0.574377 0.573981 0.583640
vn -0.574377 0.573981 0.583640
vn -0.581218 0.581544 0.569203
vn -0.405137 0.405364 -0.819478
vn -0.236380 0.236217 -0.942511
vn 0.720013 0.000000 0.693961
vn 0.574368 0.573971 0.583660
vn 0.000000 0.688358 0.725371
vn 0.000000 0.000000 1.000000
vn 0.000000 0.000000 1.000000
vn 0.000000 0.688358 0.725371
vn -0.574377 0.573981 0.583641
vn -0.720031 0.000000 0.693942
vn 0.720013 0.000000 0.693961
vn 0.574368 0.573971 0.583660
vn 0.574368 0.573971 0.583660
vn 0.720013 0.000000 0.693961
vn 0.720013 0.000000 0.693961
vn 0.732665 0.000000 0.680590
vn 0.580667 0.581449 0.569862
vn 0.574368 0.573971 0.583660
vn 0.574368 0.573971 0.583660
vn 0.574368 0.573971 0.583660
vn 0.000000 0.688358 0.725371
vn 0.000000 0.688358 0.725371
vn -0.574377 0.573981 0.583641
vn -0.574377 0.573981 0.583640
vn -0.720031 0.000000 0.693942
vn -0.720031 0.000000 0.693942
vn 0.000000 0.688358 0.725371
vn 0.000000 0.688358 0.725371
vn -0.574377 0.573981 0.583640
vn -0.574377 0.573981 0.583641
vn 0.732665 0.000000 0.680590
vn 0.308630 0.000000 -0.951182
vn 0.572470 0.573240 -0.586237
vn 0.580667 0.581449 0.569862
vn 0.572470 0.573240 -0.586237
vn 0.192887 0.192754 -0.962102
vn 0.574368 0.573971 0.583660
vn 0.580667 0.581449 0.569862
vn 0.192887 0.192754 -0.962102
vn 0.573016 0.573336 -0.585610
vn 0.581209 0.581533 0.569223
vn 0.574368 0.573971 0.583660
vn 0.308630 0.000000 -0.951182
vn -0.433431 0.000000 -0.901187
vn -0.236380 0.236217 -0.942511
vn 0.192887 0.192754 -0.962102
vn -0.405137 0.405364 -0.819478
vn 0.000000 0.712584 -0.701587
vn 0.573016 0.573336 -0.585610
vn 0.572470 0.573240 -0.586237
vn -0.572478 0.573247 -0.586222
usemtl material
f 1/0/1 2/0/2 3/0/3
f 1/0/1 3/0/3 4/0/4
f 5/0/5 6/0/6 7/0/7
f 5/0/5 7/0/7 8/0/8
f 9/0/9 10/0/10 11/0/11
f 9/0/9 11/0/11 12/0/12
f 13/0/13 14/0/14 15/0/15
f 13/0/13 15/0/15 16/0/16
f 17/0/17 18/0/18 19/0/19
f 17/0/17 19/0/19 20/0/20
f 21/0/21 22/0/22 23/0/23
f 21/0/21 23/0/23 24/0/24
f 25/0/25 26/0/26 27/0/27
f 25/0/25 27/0/27 28/0/28
f 29/0/29 30/0/30 31/0/31
f 29/0/29 31/0/31 32/0/32
f 33/0/33 34/0/34 35/0/35
f 33/0/33 35/0/35 36/0/36
f 37/0/37 38/0/38 39/0/39
f 37/0/37 39/0/39 40/0/40
f 41/0/41 42/0/42 43/0/43
f 41/0/41 43/0/43 44/0/44
f 45/0/45 46/0/46 47/0/47
f 45/0/45 47/0/47 48/0/48
f 49/0/49 50/0/50 51/0/51
f 49/0/49 51/0/51 52/0/52
f 53/0/53 54/0/54 55/0/55
f 53/0/53 55/0/55 56/0/56
f 57/0/57 58/0/58 59/0/59
f 57/0/57 59/0/59 60/0/60
f 61/0/61 62/0/62 63/0/63
f 61/0/61 63/0/63 64/0/64
f 65/0/65 66/0/66 67/0/67
f 65/0/65 67/0/67 68/0/68
f 69/0/69 70/0/70 71/0/71
f 69/0/69 71/0/71 72/0/72
f 73/0/73 74/0/74 75/0/75
f 73/0/73 75/0/75 76/0/76
f 76/0/76 75/0/75 77/0/77
f 77/0/77 78/0/78 76/0/76
f 78/0/78 79/0/79 76/0/76
f 73/0/73 76/0/76 80/0/80
f 75/0/75 74/0/74 81/0/81
