# 
# Wavefront OBJ file
# Created with Kaydara FBX
# 
mtllib warship_screen04.mtl

g Warship_Screen04
v -0.117041 -0.031116 -0.103221
v 0.001501 -0.031278 -0.103670
v 0.001501 0.031365 0.104066
v -0.147812 -0.021772 -0.072325
v -0.147043 0.028807 0.095541
v -0.138891 0.031348 0.103987
v 0.147812 -0.023313 -0.077431
v 0.118160 -0.031390 -0.104138
v 0.147585 0.028729 0.095285
v 0.138132 0.031393 0.104138
vt 0.895913 0.002085
vt 0.494924 0.002085
vt 0.494924 0.999624
vt 0.998699 0.153107
vt 0.998699 0.958817
vt 0.969822 0.999624
vt 0.000385 0.128571
vt 0.100303 0.002085
vt 0.000385 0.957565
vt 0.032746 0.999624
vn -0.000219 -0.957436 0.288644
vn -0.000219 -0.957436 0.288644
vn -0.000219 -0.957436 0.288644
vn -0.000219 -0.957436 0.288644
vn -0.000219 -0.957436 0.288644
vn -0.000219 -0.957436 0.288644
vn 0.000217 -0.957437 0.288641
vn 0.000217 -0.957437 0.288641
vn 0.000217 -0.957437 0.288641
vn 0.000217 -0.957437 0.288641
usemtl material
f 1/0/1 2/0/2 3/0/3
f 3/0/3 4/0/4 1/0/1
f 3/0/3 5/0/5 4/0/4
f 3/0/3 6/0/6 5/0/5
f 7/0/7 3/0/3 2/0/2
f 2/0/2 8/0/8 7/0/7
f 7/0/7 9/0/9 3/0/3
f 9/0/9 10/0/10 3/0/3
