# 
# Wavefront OBJ file
# Created with Kaydara FBX
# 
mtllib warship_summewindow_shadow.mtl

g Warship_SummeWindow_shadow
v 0.626671 0.002046 0.618026
v 0.626671 0.002046 -0.536133
v -0.589984 0.002046 -0.536133
v -0.589984 0.002046 0.618026
vt 0.013995 0.016754
vt 0.013995 0.943679
vt 0.991113 0.943679
vt 0.991112 0.016754
vn 0.000000 1.000000 0.000000
vn 0.000000 1.000000 0.000000
vn 0.000000 1.000000 0.000000
vn 0.000000 1.000000 0.000000
usemtl material
f 1/0/1 2/0/2 3/0/3
f 1/0/1 3/0/3 4/0/4
