# 
# Wavefront OBJ file
# Created with Kaydara FBX
# 
mtllib water #222291.mtl

g Water
v 30.956484 -3.196273 -34.602303
v 43.790333 -3.196272 -47.337864
v 32.218571 -3.196273 -47.337864
v 30.956484 -3.196273 -46.162098
v 46.394051 -3.196273 -44.713306
v 33.560204 -3.196272 -31.977741
v 45.131962 -3.196273 -31.977741
v 46.394051 -3.196273 -33.153503
v 63.277420 -1.629476 -32.099751
v 63.277420 -1.629476 -39.408157
v 61.384163 -1.629476 -39.408157
v 58.809139 -1.629476 -37.283367
v 58.823757 -1.629477 -35.126011
v 62.306248 -1.629477 -32.094589
v 38.301376 -1.629476 -62.531971
v 38.301376 -1.629476 -64.425232
v 30.992968 -1.629476 -64.425232
v 30.987806 -1.629477 -63.454056
v 34.019226 -1.629477 -59.971565
v 36.176582 -1.629476 -59.956951
v -33.933460 -3.196273 30.869890
v -45.493259 -3.196273 30.869890
v -46.669025 -3.196273 32.131977
v -46.669025 -3.196272 43.703739
v -44.044468 -3.196273 46.307461
v -32.484665 -3.196273 46.307461
v -31.308901 -3.196273 45.045368
v -31.308901 -3.196272 33.473606
v -34.457169 -1.629477 58.737164
v -36.614525 -1.629476 58.722546
v -38.739319 -1.629476 61.297565
v -31.425751 -1.629477 62.219650
v -38.739319 -1.629476 63.190830
v -31.430912 -1.629476 63.190830
v -59.302727 -1.629477 33.932632
v -62.785217 -1.629477 30.901213
v -63.756390 -1.629476 30.906374
v -63.756390 -1.629476 38.214783
v -59.288113 -1.629476 36.089989
v -61.863132 -1.629476 38.214783
vt 2.595348 0.684400
vt 0.795319 0.673964
vt 1.611530 1.490175
vt 1.783160 1.496588
vt 0.796068 0.305911
vt 2.596096 0.316347
vt 1.779884 -0.499864
vt 1.608255 -0.506276
vt 0.491428 -1.771176
vt -0.022058 -1.257690
vt 0.111482 -1.124150
vt 0.442398 -1.091808
vt 0.592942 -1.244414
vt 0.560292 -1.703037
vt 0.114950 2.128659
vt -0.018070 2.261678
vt 0.497427 2.777175
vt 0.566025 2.709304
vt 0.596883 2.250806
vt 0.445741 2.097610
vt -0.021311 0.684400
vt 0.790877 1.496588
vt 0.962507 1.490175
vt 1.778718 0.673964
vt 1.777969 0.305911
vt 0.965782 -0.506276
vt 0.794153 -0.499864
vt -0.022058 0.316347
vt 1.981096 -1.244414
vt 2.131639 -1.091808
vt 2.462555 -1.124150
vt 2.013746 -1.703037
vt 2.596096 -1.257690
vt 2.082609 -1.771176
vt 1.977154 2.250806
vt 2.008012 2.709304
vt 2.076611 2.777175
vt 2.592107 2.261678
vt 2.128296 2.097610
vt 2.459087 2.128659
vn 0.000000 1.000000 0.000000
vn 0.000000 1.000000 0.000000
vn 0.000000 1.000000 0.000000
vn 0.000000 1.000000 0.000000
vn 0.000000 1.000000 0.000000
vn 0.000000 1.000000 0.000000
vn 0.000000 1.000000 0.000000
vn 0.000000 1.000000 0.000000
vn -0.000000 1.000000 0.000000
vn -0.000000 1.000000 0.000000
vn -0.000000 1.000000 0.000000
vn -0.000000 1.000000 0.000000
vn -0.000000 1.000000 0.000000
vn -0.000000 1.000000 0.000000
vn -0.000000 1.000000 0.000000
vn -0.000000 1.000000 0.000000
vn -0.000000 1.000000 0.000000
vn -0.000000 1.000000 0.000000
vn -0.000000 1.000000 0.000000
vn -0.000000 1.000000 0.000000
vn 0.000000 1.000000 0.000000
vn 0.000000 1.000000 0.000000
vn 0.000000 1.000000 0.000000
vn 0.000000 1.000000 0.000000
vn 0.000000 1.000000 0.000000
vn 0.000000 1.000000 0.000000
vn 0.000000 1.000000 0.000000
vn 0.000000 1.000000 0.000000
vn 0.000000 1.000000 -0.000000
vn 0.000000 1.000000 -0.000000
vn 0.000000 1.000000 -0.000000
vn 0.000000 1.000000 -0.000000
vn 0.000000 1.000000 -0.000000
vn 0.000000 1.000000 -0.000000
vn 0.000000 1.000000 -0.000000
vn 0.000000 1.000000 -0.000000
vn 0.000000 1.000000 -0.000000
vn 0.000000 1.000000 -0.000000
vn 0.000000 1.000000 -0.000000
vn 0.000000 1.000000 -0.000000
usemtl material
f 1/0/1 2/0/2 3/0/3
f 1/0/1 3/0/3 4/0/4
f 5/0/5 6/0/6 7/0/7
f 5/0/5 7/0/7 8/0/8
f 9/0/9 10/0/10 11/0/11
f 11/0/11 12/0/12 9/0/9
f 12/0/12 13/0/13 9/0/9
f 13/0/13 14/0/14 9/0/9
f 15/0/15 16/0/16 17/0/17
f 17/0/17 18/0/18 15/0/15
f 18/0/18 19/0/19 15/0/15
f 19/0/19 20/0/20 15/0/15
f 21/0/21 22/0/22 23/0/23
f 21/0/21 23/0/23 24/0/24
f 25/0/25 26/0/26 27/0/27
f 25/0/25 27/0/27 28/0/28
f 29/0/29 30/0/30 31/0/31
f 31/0/31 32/0/32 29/0/29
f 31/0/31 33/0/33 32/0/32
f 33/0/33 34/0/34 32/0/32
f 35/0/35 36/0/36 37/0/37
f 37/0/37 38/0/38 35/0/35
f 38/0/38 39/0/39 35/0/35
f 38/0/38 40/0/40 39/0/39
