# 
# Wavefront OBJ file
# Created with Kaydara FBX
# 
mtllib wave_02.mtl

g Wave_02
v 0.116405 0.135578 0.116405
v 0.116405 0.135578 -0.116405
v -0.000000 -0.021085 0.000000
v -0.000000 -0.021085 0.000000
v 0.116405 0.135578 -0.116405
v -0.116405 0.135578 -0.116405
v -0.000000 -0.021085 0.000000
v -0.116405 0.135578 0.116405
v 0.116405 0.135578 0.116405
v -0.116405 0.135578 -0.116405
v -0.116405 0.135578 0.116405
v -0.000000 -0.021085 0.000000
vt 0.000000 0.000000
vt 0.000000 1.000000
vt 0.500000 0.500000
vt 0.500000 0.500000
vt 0.000000 1.000000
vt 1.000000 1.000000
vt 0.500000 0.500000
vt 1.000000 0.000000
vt 0.000000 0.000000
vt 1.000000 1.000000
vt 1.000000 0.000000
vt 0.500000 0.500000
vn -0.802680 0.596411 0.000000
vn -0.802680 0.596411 0.000000
vn -0.802680 0.596411 0.000000
vn 0.000000 0.596411 0.802680
vn 0.000000 0.596411 0.802680
vn 0.000000 0.596411 0.802680
vn 0.000000 0.596411 -0.802680
vn 0.000000 0.596411 -0.802680
vn 0.000000 0.596411 -0.802680
vn 0.802680 0.596411 0.000000
vn 0.802680 0.596411 0.000000
vn 0.802680 0.596411 0.000000
usemtl material
f 1/0/1 2/0/2 3/0/3
f 4/0/4 5/0/5 6/0/6
f 7/0/7 8/0/8 9/0/9
f 10/0/10 11/0/11 12/0/12
