# 
# Wavefront OBJ file
# Created with Kaydara FBX
# 
mtllib wen_l.mtl

g Wen_L
v -0.068116 1.558947 0.063545
v -0.074708 1.556553 0.048966
v -0.074451 1.538958 0.053766
v -0.068622 1.540361 0.066001
v -0.068144 1.524513 0.067558
v -0.073519 1.522935 0.056850
v -0.054531 1.560024 0.076544
v -0.056342 1.540874 0.080152
v -0.056406 1.525340 0.077902
v -0.071300 1.511639 0.058650
v -0.066416 1.512136 0.068124
v -0.068591 1.500728 0.058936
v -0.063081 1.497653 0.068377
v -0.054519 1.512248 0.075746
v -0.052342 1.495389 0.074779
v -0.040649 1.494574 0.077460
v -0.039844 1.513278 0.081268
v -0.028566 1.497187 0.079311
v -0.039928 1.526558 0.085837
v -0.020964 1.513937 0.083073
v -0.022221 1.505221 0.081886
v -0.011141 1.512368 0.089712
v -0.009399 1.501435 0.088668
v -0.018801 1.498378 0.082720
v -0.023438 1.526488 0.091699
v -0.013967 1.525568 0.096370
v -0.017266 1.540821 0.100035
v -0.007474 1.524280 0.099537
v -0.040498 1.541060 0.091781
v -0.018999 1.561038 0.096747
v -0.040737 1.560645 0.087744
v 0.000000 1.561337 0.103331
v 0.000000 1.540748 0.104386
v 0.000000 1.522397 0.102414
vt 0.815313 0.931980
vt 1.016406 0.859160
vt 0.960901 0.713969
vt 0.799570 0.746457
vt 0.776829 0.563092
vt 0.889288 0.535961
vt 0.640873 0.958501
vt 0.644485 0.755608
vt 0.637997 0.580027
vt 0.833726 0.410243
vt 0.738733 0.422141
vt 0.776247 0.291760
vt 0.673374 0.257114
vt 0.617171 0.417349
vt 0.577123 0.228109
vt 0.458339 0.222694
vt 0.451069 0.436771
vt 0.329191 0.258859
vt 0.449695 0.590458
vt 0.237135 0.443901
vt 0.256697 0.347297
vt 0.119383 0.421781
vt 0.101445 0.301985
vt 0.220719 0.273262
vt 0.268184 0.595707
vt 0.127018 0.572818
vt 0.198567 0.759739
vt 0.046325 0.561470
vt 0.453548 0.761781
vt 0.193643 0.978385
vt 0.468080 0.979141
vt -0.046558 0.977963
vt -0.046558 0.737546
vt -0.046558 0.548406
vn -0.812122 0.126884 0.569524
vn -0.908546 0.088124 0.408385
vn -0.905537 0.062800 0.419594
vn -0.811069 0.072726 0.580413
vn -0.779981 -0.050594 0.623755
vn -0.894935 -0.022978 0.445604
vn -0.663254 0.166042 0.729742
vn -0.643283 0.032583 0.764935
vn -0.558892 -0.160366 0.813586
vn -0.877948 -0.145756 0.456029
vn -0.714974 -0.139419 0.685109
vn -0.870248 -0.197539 0.451273
vn -0.645913 -0.140709 0.750332
vn -0.441003 -0.163743 0.882442
vn -0.388064 -0.129430 0.912499
vn -0.243291 -0.154125 0.957630
vn -0.256489 -0.222817 0.940514
vn -0.138323 -0.186572 0.972655
vn -0.379208 -0.303178 0.874234
vn -0.350725 -0.389342 0.851707
vn -0.320800 -0.144500 0.936059
vn -0.503190 -0.372326 0.779855
vn -0.497171 -0.154475 0.853791
vn -0.468544 -0.136105 0.872893
vn -0.371686 -0.459773 0.806510
vn -0.473378 -0.424870 0.771621
vn -0.327946 0.016643 0.944550
vn -0.305895 -0.162878 0.938029
vn -0.458205 0.012494 0.888759
vn -0.327853 0.126738 0.936189
vn -0.473818 0.165742 0.864885
vn -0.288034 0.089258 0.953451
vn -0.289950 0.002943 0.957037
vn -0.288091 -0.147844 0.946121
usemtl material
f 1/0/1 2/0/2 3/0/3
f 1/0/1 3/0/3 4/0/4
f 3/0/3 5/0/5 4/0/4
f 3/0/3 6/0/6 5/0/5
f 7/0/7 1/0/1 4/0/4
f 7/0/7 4/0/4 8/0/8
f 4/0/4 5/0/5 9/0/9
f 4/0/4 9/0/9 8/0/8
f 10/0/10 5/0/5 6/0/6
f 10/0/10 11/0/11 5/0/5
f 11/0/11 9/0/9 5/0/5
f 11/0/11 10/0/10 12/0/12
f 11/0/11 12/0/12 13/0/13
f 11/0/11 14/0/14 9/0/9
f 13/0/13 14/0/14 11/0/11
f 13/0/13 15/0/15 14/0/14
f 16/0/16 14/0/14 15/0/15
f 16/0/16 17/0/17 14/0/14
f 9/0/9 14/0/14 17/0/17
f 17/0/17 16/0/16 18/0/18
f 9/0/9 17/0/17 19/0/19
f 8/0/8 9/0/9 19/0/19
f 20/0/20 19/0/19 17/0/17
f 17/0/17 18/0/18 21/0/21
f 17/0/17 21/0/21 20/0/20
f 21/0/21 22/0/22 20/0/20
f 21/0/21 23/0/23 22/0/22
f 21/0/21 24/0/24 23/0/23
f 18/0/18 24/0/24 21/0/21
f 19/0/19 20/0/20 25/0/25
f 25/0/25 20/0/20 22/0/22
f 25/0/25 22/0/22 26/0/26
f 25/0/25 26/0/26 27/0/27
f 27/0/27 26/0/26 28/0/28
f 29/0/29 19/0/19 25/0/25
f 27/0/27 29/0/29 25/0/25
f 30/0/30 29/0/29 27/0/27
f 30/0/30 31/0/31 29/0/29
f 31/0/31 8/0/8 29/0/29
f 8/0/8 19/0/19 29/0/29
f 31/0/31 7/0/7 8/0/8
f 27/0/27 32/0/32 30/0/30
f 27/0/27 33/0/33 32/0/32
f 33/0/33 27/0/27 28/0/28
f 33/0/33 28/0/28 34/0/34
